<svg xmlns="http://www.w3.org/2000/svg" xmlns:xlink="http://www.w3.org/1999/xlink" width="580" height="15660" viewBox="0 0 580 15660"><svg version="1" width="580" height="580" id="icon-bench" y="0"><path d="M66.275 1.768c-41.335 0-64.571 21.371-64.571 65.036v450.123c0 40.844 20.895 62.229 62.192 62.229H515.92c41.307 0 62.229-20.315 62.229-62.229V66.804c0-42.601-20.922-65.036-63.521-65.036-.004 0-448.495-.143-448.353 0z" fill="#111" stroke="#eee" stroke-width="3.408"></path><path d="M62.929 241.775h466.54" fill="none" stroke="#fff" stroke-width="40"></path><path d="M147.557 241.487v123.687M444.841 241.487v123.687" fill="none" stroke="#fff" stroke-width="30"></path></svg><svg version="1" width="580" height="580" id="icon-court" y="580"><path d="M66.275 1.768c-41.335 0-64.571 21.371-64.571 65.036v450.123c0 40.844 20.895 62.229 62.192 62.229H515.92c41.307 0 62.229-20.315 62.229-62.229V66.804c0-42.601-20.922-65.036-63.521-65.036-.004 0-448.495-.143-448.353 0z" fill="#111" stroke="#eee" stroke-width="3.408"></path><path d="M290.725 56.635l-16.57 438.442H161.997v24.217h131.278l-2.55-462.659z" fill="#fff" fill-rule="evenodd" stroke="#fff" stroke-width="10.829" stroke-linecap="round" stroke-linejoin="round"></path><path d="M58.13 137.956c14.341 13.986 50.108 29.96 71.365 28.29 24.613-.145 50.16-9.63 76.473-26.766 24.343-16.315 52.99-24.021 84.12-26.765l-.638 20.393c-33.229-3.657-56.335 15.463-83.482 25.49-19.887 10.492-38.476 21.692-76.473 22.305-39.31-4.128-57.475-23.896-71.365-42.947z" fill="#fff" fill-rule="evenodd" stroke="#fff" stroke-width="5.415" stroke-linecap="round" stroke-linejoin="round"></path><path d="M37.728 384.585l84.12-202.407 82.845 202.407H37.728z" fill="none" stroke="#fff" stroke-width="10.829" stroke-linecap="round" stroke-linejoin="round"></path><path d="M35.14 379.026c4.97 32.981 41.617 58.629 86.07 58.629 44.455 0 81.102-25.648 86.072-58.63H35.139z" fill="#fff" stroke="#fff" stroke-width="10.829" stroke-linecap="round" stroke-linejoin="round"></path><path d="M291.093 56.635l16.569 438.442h112.16v24.217H288.543l2.549-462.659z" fill="#fff" fill-rule="evenodd" stroke="#fff" stroke-width="10.829" stroke-linecap="round" stroke-linejoin="round"></path><path d="M523.688 137.956c-14.342 13.986-50.109 29.96-71.366 28.29-24.613-.145-50.16-9.63-76.472-26.766-24.343-16.315-52.991-24.021-84.12-26.765l.637 20.393c33.23-3.657 56.336 15.463 83.483 25.49 19.886 10.492 38.475 21.692 76.472 22.305 39.31-4.128 57.475-23.896 71.366-42.947z" fill="#fff" fill-rule="evenodd" stroke="#fff" stroke-width="5.415" stroke-linecap="round" stroke-linejoin="round"></path><path d="M544.09 384.585l-84.12-202.407-82.846 202.407H544.09z" fill="none" stroke="#fff" stroke-width="10.829" stroke-linecap="round" stroke-linejoin="round"></path><path d="M546.678 379.026c-4.97 32.981-41.617 58.629-86.071 58.629s-81.102-25.648-86.072-58.63h172.143z" fill="#fff" stroke="#fff" stroke-width="10.829" stroke-linecap="round" stroke-linejoin="round"></path></svg><svg version="1" width="580" height="580" id="icon-firestation" y="1160"><path d="M66.275 1.768c-41.335 0-64.571 21.371-64.571 65.036v450.123c0 40.844 20.896 62.229 62.192 62.229H515.92c41.307 0 62.229-20.314 62.229-62.229V66.804c0-42.601-20.922-65.036-63.521-65.036-.004 0-448.495-.143-448.353 0z" fill="#111" stroke="#eee" stroke-width="3.408"></path><image y="573.995" x="-1801.193" height="190" width="239" xlink:href="pastedpic_10102008_233747.png"></image><path d="M170.846 479.718c-36.581-20.633-58.877-68.876-42.414-140.977 11.549-50.58 45.201-113.003 19.41-164.982 31.286 21.625 63.814 73.047 96.618 131.125 2.263-62.807-30.329-103.959-6.9-189.786 16.075 106.179 80.559 112.76 113.296 209.34 13.924-45.409 42.89-60.355 28.755-173.108 142.343 194.398 61.215 263.454 32.781 332.989l9.202-96.619c-44.644 129.05-80.412 152.858-112.721 181.735C326.93 508.857 334.05 448.278 297.37 387.7c-8.906 99.462-34.04 78.764-39.108 158.73-50.254-37.93-60.576-76.838-69.588-140.326-6.837 7.429-18.382 38.48-17.829 73.614z" fill="#fff" fill-rule="evenodd"></path><path d="M274.941 15.604c-37.226 151.159 30.74 149.83 68.438 238.67 26.443-136.988-52.663-106.165-68.438-238.67z" fill="#fff" fill-rule="evenodd"></path></svg><svg version="1" width="580" height="580" id="icon-firestation2" y="1740"><path d="M66.275 1.768c-41.335 0-64.571 21.371-64.571 65.036v450.123c0 40.844 20.896 62.229 62.192 62.229H515.92c41.307 0 62.229-20.314 62.229-62.229V66.804c0-42.601-20.922-65.036-63.521-65.036-.004 0-448.495-.143-448.353 0z" fill="#111" stroke="#eee" stroke-width="3.408"></path><image xlink:href="pastedpic_10102008_233747.png" width="239" height="190" x="-1801.193" y="573.995"></image><path d="M289.926 19.042c-13.668-.03-29.592 4.142-41.01 10.72a647.997 647.997 0 0 1-6.473 3.653c-1.989 1.108-7.124 4.094-11.403 6.622-11.95 7.059-22.47 12.171-30.497 14.848-15.98 5.328-30.19 7.524-47.78 7.334-14.985-.162-21.854.677-27.2 3.356-3.82 1.913-5.977 3.957-7.573 7.186-1.238 2.505-1.367 3.012-1.515 6.593-.175 4.265.26 7.128 1.426 9.324.794 1.496 3.286 4.674 7.186 9.206a687.255 687.255 0 0 1 4.87 5.76c1.392 1.663 4.266 4.98 6.355 7.365a491.862 491.862 0 0 1 5.226 6.058c1.686 2.014 8.777 9.914 11.967 13.333 1.213 1.299 4.371 4.797 7.009 7.78 2.906 3.288 5.852 6.575 8.849 9.918a189.303 189.303 0 0 1 15.976-12.115c-.282-.323-.466-.515-.742-.832-4.967-5.68-11.365-13.02-14.224-16.303-6.66-7.644-11.349-13.005-13.63-15.56a350.961 350.961 0 0 1-4.722-5.404 304.641 304.641 0 0 0-4.544-5.227 69.386 69.386 0 0 1-2.524-2.97c-.484-.618-1.917-2.296-3.177-3.741-1.977-2.267-2.224-2.706-1.782-3.148.598-.597 4.692-.762 24.885-1.01 19.298-.236 20.999-.48 34.15-4.81 7.554-2.488 13.425-5.095 22.628-10.067 7.638-4.127 16.55-8.987 20.43-11.165 9.662-5.424 19.838-10.347 24.944-12.057 4.112-1.376 11.302-3.323 15.234-4.098 5.277-1.04 14.662-1.134 19.658-.207 11.678 2.164 26.957 8.126 38.01 14.818 2.468 1.494 5.356 3.147 6.415 3.682 1.058.534 5.113 2.784 9.027 4.989 3.914 2.204 7.944 4.443 8.938 4.988.995.546 3.997 2.224 6.682 3.742 10.93 6.181 22.446 11.213 32.813 14.313 7.514 2.247 11.496 2.85 21.619 3.267 17.045.7 24.416 1.333 24.914 2.138.09.146-3.77 4.25-8.582 9.116-8.195 8.291-25.735 25.672-40.03 39.733a189.092 189.092 0 0 1 16.274 13.422c5.499-5.507 10.894-10.938 17.55-17.58 22.526-22.475 34.876-35.046 35.694-36.347 2.047-3.26 2.197-3.863 2.227-9.65.022-4.343-.115-5.747-.683-7.484-.863-2.637-3.179-5.314-5.702-6.592-6.59-3.34-12.72-4.606-25.924-5.375-15.603-.91-18.491-1.2-25.27-2.524-10.343-2.02-20.599-5.476-31.686-10.661-4.326-2.024-6.196-3.09-18.767-10.66-4.6-2.771-10.057-5.998-12.146-7.187a475.848 475.848 0 0 1-7.958-4.662c-11.376-6.839-26.496-12.841-36.644-14.551-4.598-.775-11.667-1.26-18.768-1.277zM90.818 105.545c-3.446-.086-7.373.41-10.007 1.396-6.533 2.444-9.097 10.153-9.978 30.17-.722 16.444-.853 17.474-3.8 28.24-2.626 9.59-5.343 16.515-11.196 28.508-4.353 8.44-8.918 17.37-14.64 24.796 0 .659-2.729 6.25-3.622 7.424-1.15 1.51-8.905 16.632-10.75 20.965-5.032 11.816-7.583 22.11-8.434 34.239-.79 11.265.568 20.112 5.316 34.832 1.93 5.986 6.289 15.34 14.847 31.834 12.28 23.664 15.403 30.5 19.035 41.692 4.987 15.368 5.968 22.34 5.761 40.772-.087 7.723.022 13.228.267 14.818 1.687 10.924 7.35 17.136 16.184 17.758 2.66.187 2.933.138 5.405-1.07 3.4-1.659 5.6-3.086 12.59-8.136 5.438-3.927 8.343-6.206 15.472-12.086a208.083 208.083 0 0 1 4.96-3.95c1.093-.835 3.214-2.665 4.72-4.067 1.507-1.403 4.733-4.267 7.187-6.355 7.574-6.445 11.962-10.229 16.808-14.521a189.085 189.085 0 0 1-12.532-16.63c-.109.099-.359.337-.445.416-1.199 1.101-3.015 2.661-4.009 3.445-.995.783-3.693 3.054-5.998 5.048-5.666 4.9-12.258 10.527-17.105 14.58-3.766 3.15-5.067 4.272-12.858 10.988-1.693 1.458-4.593 3.892-6.414 5.434-1.822 1.541-3.38 2.82-3.475 2.82-.64 0-.798-3.057-.831-17.015-.025-10.392-.16-16.59-.446-18.262-1.28-7.495-4.212-17.118-7.81-25.657-1.82-4.32-7.43-15.354-16.154-31.834-10.873-20.539-13.798-26.942-16.897-37.06-5.234-17.093-5.313-28.26-.356-44.305 3.484-11.276 8.213-21.172 17.906-37.446 14.34-24.074 18.198-31.42 23.638-44.93 5.843-14.51 6.199-16.751 7.483-46.562.24-5.563.308-5.959.98-6.087.554-.106 8.466 7.632 34.09 33.407a4654.263 4654.263 0 0 1 14.997 15.145c4.115-5.43 8.546-10.614 13.214-15.56-.416-.42-.697-.693-1.128-1.13-18.505-18.7-36.637-38.249-56.689-55.262-1.322-.478-3.218-.75-5.286-.802zm404.096 11.195c-2.179.055-3.496.446-4.662 1.218-.799.528-4.701 3.902-8.671 7.513-3.97 3.61-8.217 7.456-9.443 8.522-1.227 1.066-5.135 4.648-8.701 7.959-12.678 11.766-17.513 16.177-21.38 19.569a665.82 665.82 0 0 0-6.326 5.612c-.714.647-1.698 1.507-2.494 2.227a188.88 188.88 0 0 1 12.739 16.63c1.26-1.16 2.712-2.482 3.623-3.326a501.324 501.324 0 0 1 8.344-7.543c2.015-1.767 5.837-5.27 8.523-7.78 2.685-2.51 6.189-5.708 7.78-7.097a461.127 461.127 0 0 0 7.988-7.216c10.82-10.018 13.69-12.47 14.076-12.086.24.24.432 6.048.564 16.332.26 20.284.322 20.688 4.573 34.269 3.135 10.014 4.51 13.063 17.758 39.762 11.336 22.849 12.458 25.387 16.897 37.802 5.238 14.655 6.69 26.13 4.721 37.357-1.158 6.603-1.69 8.568-3.8 14.076-4.451 11.61-7.327 17.154-19.481 37.535-3.677 6.166-7.58 12.75-8.671 14.64-1.092 1.89-2.546 4.419-3.237 5.612-3.584 6.19-10.677 22.08-12.175 27.29-1.831 6.368-2.791 12.509-3.118 20.074-.5 11.585-1.132 21.593-1.426 22.599-.145.497-.506.952-.801 1.01-.935.18-.901.213-17.135-15.294-4.372-4.177-14.2-13.527-21.855-20.787-3.565-3.38-5.888-5.604-8.642-8.225a189.03 189.03 0 0 1-12.71 15.085c4.99 4.81 10.204 9.838 11.79 11.403 1.612 1.591 5.989 5.833 9.74 9.414 3.75 3.58 8.796 8.387 11.195 10.69 2.399 2.303 8.594 8.165 13.779 13.036 10.87 10.214 10.23 9.848 16.837 9.651 3.809-.113 4.318-.215 6.533-1.306a14.45 14.45 0 0 0 4.276-3.208c4.385-4.797 6.024-10.836 6.86-25.062.95-16.184 1.023-16.72 2.346-22.599 3.647-16.212 9.913-31.027 21.35-50.452 6.513-11.061 9.9-16.786 11.671-19.688 2.542-4.165 6.603-11.952 8.047-15.412 4.105-9.834 4.618-11.207 6.118-17.194 4.251-16.975 3.882-32.892-1.129-49.532-3.234-10.74-5.994-17.05-19.45-44.662-8.648-17.745-8.23-16.799-11.73-26.013-4.562-12.01-6.939-20.262-8.582-29.725-.655-3.776-.813-6.61-1.04-18.382-.253-13.214-.304-14.144-1.217-18.262-1.71-7.714-2.85-10.385-5.404-12.74-2.048-1.888-4.18-2.56-9.83-3.058-2.082-.184-3.71-.271-5.018-.238zM160.9 427.651c-11.153 11.538-24.724 25.449-32.992 33.764-18.861 18.97-20.672 21.21-21.648 26.815-.95 5.456.096 9.98 3.118 13.511 4.286 5.008 11.106 7.319 23.133 7.84 19.545.847 22.445 1.245 34.001 4.543 14.202 4.054 30.276 11.717 50.245 23.935 1.79 1.095 4.24 2.541 5.434 3.207 1.193.666 4.116 2.353 6.503 3.771 16.632 9.887 30.24 14.553 45.94 15.739 2.98.225 5.48.487 5.582.594.347.364 14.632-.246 18.084-.772 11.111-1.694 20.613-4.497 29.666-8.79 2.089-.99 6.803-3.227 10.483-4.96 3.68-1.732 10.106-4.81 14.283-6.859 8.583-4.21 18.183-8.735 20.074-9.443.696-.26 2.488-.98 3.98-1.604 10.235-4.274 18.535-6.762 30.378-9.146 9.05-1.821 8.796-1.823 21.737-1.752 11.333.063 11.966.04 16.63-.86 5.15-.995 11.122-2.74 12.62-3.683 2.076-1.306 3.686-3.938 4.276-6.979.212-1.094.493-4.012.624-6.503.189-3.602.13-4.797-.297-5.82-.51-1.22-7.743-9.837-12.888-15.353-2.817-3.02-10.423-11.541-20.846-23.31-4.14-4.675-10.46-11.668-14.046-15.531a1054.072 1054.072 0 0 1-3.86-4.187 188.475 188.475 0 0 1-15.769 11.848c2.646 2.9 4.856 5.258 6.8 7.305 1.707 1.798 6.145 6.692 9.889 10.869 3.744 4.177 8.227 9.048 9.948 10.838 1.721 1.79 4.104 4.4 5.286 5.791 1.181 1.391 3.464 3.92 5.078 5.613 3.881 4.069 7.734 8.727 7.513 9.086-.52.842-3.801 1.06-16.66 1.04-13.586-.022-13.721-.028-19.866 1.039-9.893 1.718-21.261 5.025-29.992 8.73-1.79.76-12.43 5.934-23.667 11.493-27.596 13.649-26.453 13.141-38.426 17.104-7.03 2.327-11.745 3.494-17.461 4.336-3.41.502-6.427.691-11.017.653-6.811-.056-6.648-.047-12.264-.89-7.389-1.11-22.211-6.484-30.409-11.018-3.251-1.798-14.583-8.338-15.025-8.67-.74-.556-20.949-12.299-25.657-14.908-6.927-3.84-17.11-8.23-25.39-10.958-8.803-2.9-13.121-3.467-34.892-4.543-4.707-.233-8.75-.56-8.998-.713-.333-.206-.206-.593.535-1.485 1.273-1.53 11.541-12.22 25.152-26.19 3.48-3.574 10.96-11.304 16.63-17.165 1.402-1.45 2.468-2.541 3.978-4.098a189.255 189.255 0 0 1-15.53-13.274z" fill="#fff"></path><path d="M295.034 92.241c.637 4.561 1.18 9.14 2.227 13.452.67 3.369 1.584 6.633 2.673 9.83C393.074 120.379 467 197.318 467 291.676c0 62.229-32.158 116.874-80.771 148.27-.011.008-.02.02-.03.029a13.643 13.643 0 0 1-2.524 1.603l-.178.09a175.69 175.69 0 0 1-29.577 14.699c-8.511 11.428-18.174 21.902-28.537 31.744 93.464-16.505 164.69-98.313 164.69-196.435 0-108.495-87.103-197.054-195.039-199.435zm-34.031 2.109c-96.015 14.334-169.888 97.385-169.888 197.326 0 101.75 76.592 185.942 175.144 197.98-13.017-8.818-25.037-19.39-34.773-31.715-68.383-24.275-117.297-89.506-117.297-166.265 0-85.976 61.36-157.48 142.716-173.184.957-8.164 2.387-16.243 4.098-24.142zm20.757 373.48c-.82 7.662-1.04 15.375-.594 23.073 1.796.084 3.597.142 5.405.178 2.28-7.648 4.444-15.32 6.295-23.044-.764.01-1.52.03-2.286.03-2.958 0-5.899-.094-8.82-.238z" fill="#fff"></path><g transform="matrix(.95025 0 0 .95025 14.412 10.638)" fill="#fff" fill-rule="evenodd"><path d="M198.672 429.135c-27.906-15.74-44.913-52.54-32.355-107.54 8.81-38.583 34.48-86.201 14.806-125.851 23.866 16.496 48.679 55.721 73.703 100.025 1.725-47.911-23.136-79.303-5.265-144.773 12.263 80.995 61.453 86.015 86.425 159.689 10.622-34.64 32.718-46.04 21.935-132.05 108.582 148.29 46.696 200.967 25.006 254.01l7.02-73.703c-34.055 98.442-61.34 116.603-85.986 138.63 13.774-46.21 19.206-92.42-8.775-138.63-6.793 75.872-25.965 60.083-29.831 121.082-38.335-28.933-46.209-58.613-53.084-107.043-5.215 5.667-14.022 29.353-13.6 56.154z"></path><path d="M278.077 75.1c-28.397 115.307 23.449 114.294 52.206 182.063 20.17-104.498-40.173-80.986-52.206-182.063z"></path></g></svg><svg version="1" width="580" height="580" id="icon-firestation3" y="2320"><path d="M66.275 1.768c-41.335 0-64.571 21.371-64.571 65.036v450.123c0 40.844 20.896 62.229 62.192 62.229H515.92c41.307 0 62.229-20.314 62.229-62.229V66.804c0-42.601-20.922-65.036-63.521-65.036-.004 0-448.495-.143-448.353 0z" fill="#111" stroke="#eee" stroke-width="3.408"></path><image xlink:href="pastedpic_10102008_233747.png" width="239" height="190" x="-1801.193" y="573.995"></image><path d="M287.548 24.83c-24.565.067-44.923 15.566-65.524 26.987-23.627 12.365-50.627 17.687-77.221 16.18-8.01.306-20.086.325-22.534 9.887-2.158 9.897 7.834 15.915 12.764 22.905 11.457 13.411 23.076 26.527 35.154 39.323 1.828-2.558 9.438-4.267 4.759-7.464-13.465-16.058-28.732-30.821-40.623-48.084-1.042-7.232 7.689-8.791 13.092-8.178 20.588-.158 42.24 1.05 60.893-9.101 27.497-12.522 52.842-33.893 84.494-34.172 30.387.588 55.368 20.334 81.26 33.786 18.35 10.378 38.785 17.893 60.09 17.16 6.972.55 15.773-1.035 20.841 4.69 2.876 7.14-5.667 10.853-9.181 15.654a8517.302 8517.302 0 0 1-35.412 35.234c2.99 1.259 5.998 7.363 8.657 4.722 16.12-16.622 33.673-31.889 48.287-49.85 2.294-6.324-.551-15.255-8.285-15.639-17.993-4.076-36.988-1.96-54.774-7.548-33.806-9.025-59.737-36.586-93.818-44.711-7.468-1.594-15.224-1.925-22.92-1.782zM86.939 111.312c-7.48-.109-9.43 8.792-9.366 14.631-1.742 17.587-1.182 35.938-8.565 52.32-12.431 34.668-41.045 62.898-44.8 100.61-2.553 26.144 10.565 49.894 22.505 72.187 13.453 25.224 25.052 53.107 22.324 82.318-.38 8.122-.297 19.859 8.372 23.454 7.6 2.075 12.74-5.647 18.645-8.877 15.059-11.147 28.974-23.487 42.84-36.042-2.823-2.327-4.805-10.406-8.458-4.861-15.042 12.387-29.143 26.103-45.07 37.252-7.003 1.01-8.499-7.666-7.66-12.826.495-17.544.175-35.662-8.046-51.51-13.134-30.463-35.8-58.286-37.26-92.69-.077-31.583 20.167-57.803 34.648-84.197 10.455-18.127 18.315-38.23 17.605-59.437.62-6.216-1.351-15.111 4.84-18.883 7.453-2.053 11.076 6.798 16.269 10.332 11.653 11.403 22.695 23.274 34.647 34.41 2.7-3.463 8.273-6.922 2.195-10.049-16.364-16.416-31.743-33.87-50.113-48.053-1.846-.163-3.701-.128-5.552-.089zm407.422 11.312c-7.354 3.57-11.693 11.139-18.437 15.643-11.533 10.663-23.316 21.05-34.647 31.919 2.708 1.844 4.593 9.769 7.772 5.39 15.11-13.237 29.086-28.16 45.4-40.008 6.867-1.563 8.896 6.984 7.898 12.054-.43 18.624.46 37.864 9.227 54.717 13.042 31.061 34.54 60.168 35.722 94.945-.832 30.285-20.727 55.033-34.825 80.398-10.194 17.161-17.731 36.53-16.923 56.854-.695 6.523 1.09 15.725-5.284 19.773-7.27 2.385-11.532-6.11-16.437-9.718a84502.45 84502.45 0 0 0-32.728-31.194c-1.24 2.87-7.842 5.84-3.355 8.313 17.025 15.734 32.421 33.412 51.006 47.028 7.71 1.297 13.225-6.475 13.063-13.538 2.438-16.406 1.186-33.66 7.778-49.284 10.404-32.05 35.336-57.41 43.762-90.166 5.329-23.215-.242-47.672-11.341-68.373-14.686-30.88-33.066-62.613-31.411-98.093-.413-8.641.685-19.205-5.968-25.71-3.214-1.315-6.893-.848-10.272-.95zm-337.98 317.88c-14.426 16.348-32.172 29.668-44.414 47.799-2.416 7.887 5.314 15.117 12.99 14.618 16.485 2.155 33.79.9 49.446 7.56 30.517 9.872 55.23 33.16 86.131 42.2 26.66 7.005 55.23 1.128 78.649-12.653 29.067-14.162 59.65-29.85 92.98-27.704 8.027-.404 17.638.23 23.9-5.258 2.972-5.84 1.25-13.028-4.015-16.956-13.329-15.83-27.885-30.908-41.44-46.608-1.374 2.319-9.792 4.425-5.195 6.561 12.841 14.87 27.721 28.635 39.427 44.682 2.589 6.578-5.797 9.973-11.074 9.115-22.494-1.605-45.156 2.263-65.286 12.618-28.68 13.384-57.454 32.64-90.552 30.698-33.26-2.258-59.175-25.662-88.027-39.635-15.512-7.856-32.705-11.498-50.026-11.311-5.508-.008-15.097.406-15.32-7.155 1.12-6.843 8.586-10.018 12.243-15.413 10.4-10.75 20.758-21.535 31.162-32.268-3.318-1.713-6.569-8.665-9.444-3.091l-2.134 2.2z" fill="#fff" stroke="#fff" stroke-width="9.5" stroke-linecap="round" stroke-linejoin="round"></path><g transform="translate(-14.016 -23.017) scale(1.04788)" fill="#fff" fill-rule="evenodd"><path d="M198.672 429.135c-27.906-15.74-44.913-52.54-32.355-107.54 8.81-38.583 34.48-86.201 14.806-125.851 23.866 16.496 48.679 55.721 73.703 100.025 1.725-47.911-23.136-79.303-5.265-144.773 12.263 80.995 61.453 86.015 86.425 159.689 10.622-34.64 32.718-46.04 21.935-132.05 108.582 148.29 46.696 200.967 25.006 254.01l7.02-73.703c-34.055 98.442-61.34 116.603-85.986 138.63 13.774-46.21 19.206-92.42-8.775-138.63-6.793 75.872-25.965 60.083-29.831 121.082-38.335-28.933-46.209-58.613-53.084-107.043-5.215 5.667-14.022 29.353-13.6 56.154z"></path><path d="M278.077 75.1c-28.397 115.307 23.449 114.294 52.206 182.063 20.17-104.498-40.173-80.986-52.206-182.063z"></path></g><path d="M83.62 116.432l-5.563 44.511-15.102 38.948-27.025 50.076-10.334 37.358 17.487 49.281 24.64 48.487 10.334 66.767 56.435-43.717 29.41 31.795-48.487 50.87 8.743 7.949 32.59 3.18 30.204 7.948 51.666 30.204 36.563 11.128 34.974-4.769 44.511-19.871 38.948-15.102 42.128-5.564 18.281-11.128-45.306-46.897 32.589-30.204 48.486 46.101 8.743-14.307 4.77-42.922 21.46-41.333 23.051-43.717 5.564-31-14.307-39.742-23.846-44.512-9.538-45.307-3.974-34.973-27.82 20.666-28.615 25.435-28.615-30.999 45.307-49.28-9.538-10.334-42.923-4.77-40.537-15.896-44.512-24.64-32.59-7.154-38.947 8.743-37.358 22.256-34.179 10.333-54.05 3.974v9.539l46.101 52.46-33.383 28.615-56.435-48.486z" opacity=".1" fill="#fff" fill-rule="evenodd"></path></svg><svg version="1" width="580" height="580" id="icon-fountain" y="2900"><path d="M66.275 1.768c-41.335 0-64.571 21.371-64.571 65.036v450.123c0 40.844 20.896 62.229 62.192 62.229H515.92c41.307 0 62.229-20.314 62.229-62.229V66.804c0-42.601-20.922-65.036-63.521-65.036-.004 0-448.495-.143-448.353 0z" fill="#111" stroke="#eee" stroke-width="3.408"></path><path clip-rule="evenodd" d="M520.67 490.848c-4.073 1.12-9.333.945-16.232-.532-7.012-1.534-13.404-9.098-25.054-8.566-11.934.413-28.789 11.103-45.075 11.103-16.516-.353-35.066-11.575-51.92-11.575-16.797.12-32.067 11.754-48.185 12.107-16.401.06-32.746-10.866-48.808-11.103-16.288-.414-31.728 9.686-46.942 9.568-14.987-.294-28.278-11.045-43.153-10.572-15.27.59-32.01 12.402-46.942 13.113-15.043.235-28.674-10.987-41.964-11.105-13.403-.235-28.448 8.21-37.497 10.1-9.05 1.833-14.761 1.772-16.91.473v31.303c2.149 1.298 7.86 1.36 16.91-.473 9.05-1.892 24.093-10.335 37.497-10.1 13.291.117 26.92 11.34 41.964 11.105 14.931-.712 31.672-12.524 46.942-13.113 14.875-.473 28.165 10.277 43.153 10.572 15.214.118 30.654-9.983 46.942-9.568 16.062.237 32.407 11.163 48.808 11.102 16.118-.352 31.388-11.99 48.185-12.106 16.854 0 35.404 11.222 51.92 11.574 16.286 0 33.142-10.69 45.075-11.102 11.65-.415 18.042 7.026 25.054 8.623 6.9 1.477 12.16 1.714 16.232.474v-31.302z" fill="#fff" fill-rule="evenodd"></path><path d="M170.156 103.656h-.406l-1.125.125-.406.031-1.156.188-.407.063-1.187.25-.406.093-1.157.313-.406.094-1.188.406-.375.125-1.218.469-.375.156-1.219.531-.344.156-1.219.625-.343.188-1.219.719-.313.187-1.25.781-.312.219-1.25.875-.281.219-1.25.969-.25.218-.531.438-2.375 3.656.062 4.375 2.5 3.594 4.094 1.594 4.25-.97 1.125-.78.312-.25 1-.813.125-.094.125-.094.719-.5.188-.124.093-.063.656-.438.157-.093.156-.094.938-.5.562-.281.844-.406.219-.094.156-.063.437-.156.406-.156.407-.125.156-.031.25-.094.375-.094.281-.063.125-.03.344-.063.75-.125h.063l.343-.063.313-.031h.156l.563-.031h.406l.656.031h.031l.688.063.312.03.25.032.125.031.625.125h.063l1.25.313 1.312.437 1.5.688.156.062.813.438 4.313.844 4-1.72 2.406-3.656-.063-4.374-2.5-3.594-1.156-.75-1.313-.688-.5-.25-1.906-.844-.562-.218-1.969-.688-.625-.187-2.063-.5-.53-.094-1.063-.188-.375-.062-1.063-.125-.375-.031-1.094-.094h-.406l-1.094-.031h-.406l-1.125.062zm22.031 13.063l-3.562 2.5-1.594 4.094.969 4.25.781 1.124.75.875.156.188.094.125.969 1.25.063.063.125.187.5.781.156.188.062.125.094.125 2.375 3.844.094.125 2.344 3.937.093.125 2.313 4.094.062.094 2.313 4.218.062.094 2.031 3.844 3.094 3.094 4.281.843 4.032-1.656 2.406-3.656-.031-4.375-.531-1.281-2.063-3.938-.063-.094-2.437-4.437-.063-.094-2.468-4.313-.063-.125L207 128.75l-.063-.125-2.53-4.094-.095-.125-.28-.437-.157-.219-.844-1.219-.187-.25-1.375-1.812-.25-.281-.969-1.188-3.688-2.344-4.375.063zm-51.906 6.844l-.906 1.03-.031.032-.094.156-1.344 1.969-.125.188-2.656 4.156-.125.219-2.594 4.343-.094.188-2.53 4.531-.095.156-2.437 4.688-.094.156-2.375 4.813-.062.125-.75 1.625-.625 4.312 1.906 3.938 3.75 2.218 4.375-.25 3.469-2.656.687-1.188.688-1.468.062-.156 2.25-4.5.063-.157 2.281-4.375.094-.156 2.344-4.188.093-.187 2.344-3.969.125-.187 2.406-3.781.063-.094.062-.094 1.094-1.594h.031v-.031l.094-.125-.031-.031 1.344-3.969-1.125-4.219-3.282-2.875-4.344-.562-3.906 1.969zm71.938 33.343l-2.563 3.531-.156 4.375.469 1.313.562 1.156.031.094 2.157 4.688.062.093 2.125 4.781.031.094 2.094 4.844.031.094 2.063 4.937.031.063 2.031 5 .032.062.469 1.156 2.718 3.407 4.156 1.312 4.188-1.219 2.813-3.343L236 189l-.375-1.344-.469-1.187-.031-.063-2.094-5.156-.031-.063-2.125-5.093-.031-.094-2.156-5-.063-.094-2.188-4.937-.03-.094-2.25-4.875-.063-.094-.594-1.25-2.938-3.219-4.25-1.03-4.093 1.5zm-90.531 5.031l-3.313 2.844-.656 1.219-1.938 4.813-.062.093-2 5.156-.031.094-1.938 5.156-.031.063-1.844 5.125-.031.094-1.781 5.094-.032.062-.937 2.781-.125 4.375 2.312 3.688 4 1.781 4.313-.75 3.156-3.031.563-1.25.906-2.719.031-.063 1.719-4.937.031-.094 1.781-4.969.031-.062 1.876-4.969.03-.094 1.938-4.968.031-.094 1.938-4.719.406-4.344-2.094-3.843-3.906-2.031-4.344.5zm108.343 36.125l-2.875 3.313-.531 4.344.375 1.344.156.437.031.094 3.782 10.5.031.094 3.594 10.593 2.062 6.313 2.5 3.594 4.063 1.593 4.281-.969 3-3.187.719-4.313-.281-1.343-2.063-6.313-.031-.094-3.688-10.812-.031-.125-3.844-10.688-.031-.093-.188-.531-2.656-3.47-4.156-1.405-4.219 1.125zM106 204.625l-3.031 3.125-.531 1.281-2.126 7.031-.03.094-2.47 8.594-.03.094-2.094 7.75-.032.094-1.437 5.5.187 4.375 2.594 3.53 4.094 1.47 4.25-1.032 2.937-3.25.469-1.312 1.406-5.438v-.062l2.063-7.563.031-.094 2.406-8.406.031-.094 2.094-6.937v-4.344l-2.437-3.625-4.063-1.656-4.281.875zm138.656 35.906l-3.031 3.125-.813 4.313.313 1.344.313 1.093.03.094 3.157 10.719.031.062 3 10.688.031.094 1.563 5.843 2.344 3.688 3.969 1.781 4.312-.719 3.156-3.031.938-4.281-.219-1.344-1.594-5.938-.031-.062-3.063-10.844-.03-.094-3.188-10.906-.031-.094-.375-1.187-2.438-3.594-4.063-1.656-4.28.906zM257 283.72l-3.188 3-1 4.25.22 1.375.218.844.031.062 2.531 10.313.032.062 2.375 10.156h.031l1.688 7.531 2.156 3.782 3.937 1.937 4.313-.562 3.281-2.875 1.125-4.25-.188-1.344-1.718-7.625v-.063l-2.438-10.218v-.063l-2.594-10.437v-.063l-.25-.937-2.28-3.75-3.97-1.813-4.312.688zm10.469 43.687l-3.344 2.844-1.188 4.188.157 1.375 1.344 6.593.03.063 1.72 8.781 1.625 8.406h-.032l.969 5.406 2 3.907 3.813 2.125 4.375-.375 3.406-2.75 1.312-4.156-.125-1.375-.969-5.438-.03-.063-1.594-8.468v-.063l-1.782-8.937v-.063l-1.375-6.625-2.094-3.844-3.875-2-4.343.47zm8.5 44.125l-3.469 2.656-1.375 4.157.094 1.375.344 2.125v.094l.906 6.156.781 5.594h-.031l.594 4.875v.125l.406 3.937.031.219.219 3.312.094 2.406 1.406 4.157 3.469 2.625 4.343.281 3.781-2.219 1.907-3.937.062-1.375-.062-2.719-.031-.313-.25-3.53-.032-.188-.406-4.281-.031-.157-.594-5v-.125l-.781-5.687V386l-.938-6.344-.031-.062-.344-2.219-1.906-3.938-3.781-2.187-4.375.281zM406.719 103.625h-.406l-1.094.094-.375.031-1.063.125-.375.063-1.062.187-.531.094-2.032.5-.656.187-1.969.688-.562.219-1.906.843-.5.25-1.313.688-3.094 3.062-.875 4.313 1.688 4.031 3.625 2.406 4.375-.031 1.281-.531.844-.438 1.656-.75 1.281-.437 1.25-.313h.063l.625-.125.125-.031.25-.031.312-.031.688-.063h.062l.625-.031H408.063l.562.031h.156l.313.031.281.031.156.032.719.125.375.062.25.063.125.031.75.219h.031l.813.281.469.156.312.156h.031l.5.22.375.187.531.281.938.5.156.094.156.094.657.437.156.094.125.094.719.5 1.031.78.219.22H419l.281.25 4 1.718 4.313-.812 3.125-3.063.875-4.281-1.656-4.063-.97-.968-.53-.438-.25-.219-1.282-.968-.281-.219-1.25-.875-.281-.219-1.25-.781-.313-.188-1.25-.718-.344-.188-1.218-.625-.344-.156-1.219-.531-.375-.156-1.187-.47-.406-.124-1.188-.406-.375-.094-1.188-.313-.406-.094-1.156-.25-.406-.062-1.156-.188-.407-.03-1.156-.126h-.406l-1.125-.062h-.406l-1.094.031zm-26.469 14.406l-1 .969-.969 1.188-.25.28-1.375 1.813-.187.25-.844 1.219-.156.219-.281.437-.063.125-2.563 4.094-.062.125-2.5 4.188-.094.125-2.469 4.312-.062.094-2.406 4.437-.063.094-2.094 3.938-.843 4.28 1.719 4.032 3.656 2.406 4.375-.062 3.594-2.469.75-1.156 2.03-3.844.063-.094 2.313-4.219.062-.093 2.344-4.094.063-.125 2.375-3.938.062-.125 2.375-3.843.094-.125.062-.125.156-.188.532-.781.156-.188.031-.062.938-1.25.125-.156.125-.156.75-.875 1.719-4-.813-4.313-3.063-3.094-4.28-.906-4.032 1.656zm48.281 5.906l-1.875 3.938.625 4.344.625 1.031h-.031l.125.156 1.094 1.594.062.094.063.094 2.406 3.78.125.188 2.344 3.969.125.188 2.312 4.187.094.156 2.281 4.375.063.156 2.25 4.5.062.157.688 1.469 2.937 3.218 4.219 1.063 4.125-1.469 2.594-3.531.156-4.375-.469-1.281-.75-1.625-.062-.125-2.375-4.813-.063-.156-2.469-4.688-.093-.156-2.5-4.531-.125-.188-2.594-4.344-.125-.218-2.625-4.156-.125-.188-1.344-1.969-.125-.156-.031-.031-3.469-2.625-4.375-.25-3.75 2.219zm-68.344 31.907l-3.5 2.625-.687 1.187-.594 1.25-.062.094-2.219 4.875-.063.094-2.187 4.937-.031.094-2.188 5-.031.094-2.125 5.094-.031.062-2.094 5.156-.031.063-.469 1.187-.344 4.375 2.125 3.813 3.906 1.969 4.344-.532 3.313-2.875.625-1.219.437-1.156.031-.062 2.032-5 .031-.063 2.063-4.937.03-.094 2.094-4.844.032-.094 2.156-4.78.031-.095 2.156-4.687.032-.094.562-1.156.656-4.344-1.875-3.937-3.75-2.25-4.375.25zm90.47 6.75l-2.75 3.375-.407 4.375.375 1.312 1.938 4.719.03.094 1.938 4.969.031.093 1.875 4.969.032.063 1.781 4.968.031.094 1.719 4.938.031.062.906 2.719 2.563 3.531 4.094 1.531 4.25-1 2.969-3.219.656-4.312-.313-1.344-.937-2.781-.031-.063-1.75-5.093-.032-.094-1.875-5.125-.031-.063-1.938-5.156-.03-.094-2-5.156-.032-.094-1.969-4.812-2.75-3.406-4.187-1.281-4.188 1.28zm-108.344 35.031l-3.25 2.938-.594 1.25-.219.53-.031.095-3.844 10.687-.031.125-3.688 10.813-.031.093-2.031 6.313-.094 4.375 2.375 3.687 4.031 1.719 4.281-.813 3.125-3.062.532-1.281 2.031-6.188.031-.125 3.594-10.594.031-.093 3.781-10.5.032-.094.156-.438.281-4.375-2.219-3.78-3.937-1.907-4.313.625zm124 7l-3.063 3.125-.813 4.281.282 1.344 2.094 6.938.03.093 2.407 8.406.031.094 2.063 7.563.031.062 1.406 5.438 2.281 3.719 3.97 1.843 4.312-.719 3.187-3 .969-4.25-.219-1.375-1.437-5.5v-.093l-2.125-7.75-.031-.094-2.47-8.594-.03-.094-2.125-7.03-2.438-3.626-4.031-1.656-4.281.875zM327.655 240.5l-3.062 3.125-.531 1.25-.375 1.188v.093l-3.22 10.906-.03.094L317.375 268l-.031.063L315.75 274l.156 4.375 2.563 3.531 4.094 1.531 4.25-1.03 2.968-3.22.469-1.28 1.563-5.844.03-.094 3-10.688.032-.062 3.156-10.719.031-.094.344-1.094v-4.375L336 241.313l-4.063-1.687-4.28.875zm-12.312 43.531l-2.938 3.25-.469 1.313-.218.937-.031.063-2.594 10.437v.063l-2.406 10.219-.032.062-1.719 7.625.313 4.344 2.688 3.437 4.187 1.344 4.188-1.188 2.812-3.312.438-1.313 1.687-7.53h.031l2.406-10.157v-.063l2.532-10.312.031-.063.219-.843-.188-4.375-2.594-3.531-4.125-1.47-4.218 1.063zm-10.438 44.031l-2.781 3.407-.406 1.312-1.375 6.625v.063l-1.75 8.937-.031.063-1.594 8.469V357l-1 5.438.531 4.343 2.844 3.313 4.219 1.156 4.156-1.375 2.656-3.469.375-1.344.969-5.343v-.063l1.594-8.406 1.718-8.781.031-.063 1.344-6.594-.375-4.343-2.781-3.375-4.156-1.281-4.188 1.25zm-8.5 44.47l-2.594 3.5-.343 1.343-.344 2.219v.062l-.938 6.344-.03.094-.75 5.687-.032.125-.594 5v.156l-.437 4.282-.031.187-.25 3.531v.313l-.094 2.719 1.125 4.219 3.312 2.875 4.344.53 3.906-1.968 2.125-3.813.188-1.375.062-2.406.25-3.312.406-4.156v-.125l.594-4.875h-.031l.781-5.5v-.094l.906-6.156v-.094l.344-2.125-.594-4.313-2.906-3.281-4.25-1.063-4.125 1.47z" fill="#fff" fill-rule="evenodd"></path><path d="M373.781 252.406l-.531.031-1.375.188-.531.063-1.344.28-.469.095-1.281.343-.438.156-1.218.407-.406.156-1.188.5-.344.156-1.125.531-.312.188-1.063.563-.281.187-1 .594-.344.25-1.812 1.281-.375.281-.938.781-2.187 3.438.187 4.063 2.531 3.187 3.907 1.156 3.844-1.344.25-.187.937-.75 1.063-.75.718-.469.281-.156.47-.25.78-.406.22-.094.124-.063.438-.187.062-.031.75-.25 1.188-.313.094-.031.843-.156h.031l.625-.063.532-.031h.187l1.094.063.531.062.094.031 1.156.25.75.219.094.031 1.25.531 1.219.657.187.094 1.031.687 3.938 1.031 3.813-1.406 2.28-3.375-.093-4.094-2.469-3.25-.25-.187-1.5-.938-.469-.281-1.625-.875-.5-.25-1.625-.688-.562-.218-1.563-.5-.562-.156-1.563-.375-.593-.094-1.5-.219-.594-.063-1.469-.062h-.562l-1.438.031zm16.5 15.813l-1.312 3.875 1.156 3.906.156.25.969 1.281.125.188 1.438 2 .093.156 1.406 2.094.094.156 1.375 2.219.063.125 1.344 2.281.093.125 1.313 2.344.062.094 1.281 2.406.063.094 1.25 2.437.063.094 1.187 2.437.063.125.562 1.188 2.75 3 4 .844 3.719-1.625 2.094-3.5-.313-4.063-.125-.281-.625-1.344-.063-.125-1.312-2.656-.031-.125-1.375-2.625-.063-.125-1.406-2.594-.063-.125-1.437-2.594-.094-.125-1.5-2.531-.062-.125-1.563-2.5-.094-.125-1.593-2.406-.094-.156-1.656-2.344-.125-.188L401 268.22l-3.313-2.375h-4.093l-3.313 2.375zm-42.5 2.531l-.187.25-1.344 1.969-.125.156-3.094 4.688-.094.187-3 4.906-.093.156-2.906 5.063-.094.156-2.781 5.219-.094.156-.563 1.125-.656 4 1.813 3.656 3.593 1.938 4.063-.5 3-2.781.125-.281.5-.97.094-.156 2.625-4.906.093-.156 2.688-4.719.125-.187 2.781-4.531 2.969-4.563.125-.156 1.25-1.813 1.219-3.906-1.313-3.875-3.281-2.406-4.063-.063-3.375 2.344zm62.594 31.563l-2.281 3.375.125 4.093.125.281.75 1.844.031.125 1.75 4.531.031.125 1.531 4.22.032.093 1.312 3.781.031.063v.031l1.063 3.281.031.094 1.5 4.781h-.031l.5 1.656 2.25 3.407 3.844 1.437 3.937-1.031 2.594-3.156.313-4.063-.063-.281-.5-1.688-.031-.125-1.531-5-.032-.093-1.156-3.469-.031-.094-1.375-4-.031-.094-1.594-4.437-.063-.125-1.812-4.75-.063-.156-.781-1.938-2.625-3.125-3.938-1.031-3.812 1.438zm-79.906 1.593l-2.875 2.906-.125.282-1.406 3.094-.063.125-2.406 5.562-.031.125-2.313 5.594-.031.125-2.188 5.625-.031.094-1.813 4.875-.187 4.062 2.188 3.438 3.78 1.5 3.97-.97 2.656-3.062.125-.312 1.781-4.781.031-.094 2.125-5.406.031-.125 2.188-5.375h.031l2.344-5.47.063-.124 1.343-2.969.469-4.063-1.969-3.562-3.656-1.781-4.031.687zm-15.156 37.813l-2.532 3.187-.094.313-1.53 4.719-.032.062-1.688 5.375v.094l-1.593 5.25v.094l-1.469 5.125-.031.062-1.375 4.969v.094l-.063.187.219 4.063 2.531 3.187 3.938 1.125 3.844-1.344 2.343-3.344.094-.312.031-.125v-.063l1.313-4.812h.031l1.406-5.063h.031l1.532-5.187.031-.094 1.625-5.219.031-.062 1.5-4.656.031-4.063-2.343-3.344-3.844-1.343-3.938 1.125zm-11.344 38.969l-2.281 3.375-.063.312-.156.563v.093l-.938 4.125-.031.125-1.531 7.438-.031.125-.625 3.25v.125l-.5 2.937-.032.125-.375 2.563-.031.156-.281 2.219-.031.219-.157 1.812-.031.375-.063 1.375 1.094 3.938 3.156 2.562 4.094.281 3.469-2.156 1.563-3.781.03-.313.032-1.031.125-1.594.031-.219.219-1.843.031-.156.344-2.313.031-.125.438-2.688h.031l.563-3.125.03-.093v-.063l1.5-7.187.032-.094.875-3.938.031-.093.094-.5-.281-4.063-2.625-3.125-3.938-1.031-3.812 1.438zM199.594 252.438l-.563.062-1.531.219-.594.094-1.531.375-.563.156-1.593.5-.531.219-1.625.687-.5.25-1.657.875-.469.281-1.468.938-2.625 3.156-.281 4.063 2.125 3.468 3.75 1.625 3.968-.875.281-.156 1.032-.688.187-.093.938-.531.187-.063 1.25-.563.156-.062.72-.219 1.124-.25.156-.031.563-.063 1.063-.062h.187l.531.031.656.063h.094l.781.156.094.031 1.188.313.406.125.188.094.218.062.438.188.156.062.188.094.78.406.47.25.28.156.72.469L210 269l.094.094.812.656 3.813 1.531 3.937-.969 2.688-3.093.375-4.063-2.031-3.531-.25-.188-.907-.78-.406-.282-1.781-1.281-.375-.25-1-.594-.281-.188-1.063-.562-.313-.188-1.125-.53-.343-.157-1.188-.5-.375-.156-1.25-.406-.406-.157-1.313-.344-.468-.093-1.344-.281-.5-.063-1.375-.188-.563-.03-1.406-.032h-.594l-1.468.063zm-23.531 15.53l-.22.25-1.093 1.438-.125.188-1.625 2.344-.094.156-1.594 2.406-.093.125-1.563 2.5-.094.125-1.5 2.531-.062.125-1.469 2.594-.062.125-1.406 2.594-.032.125-1.375 2.625-.062.125-1.281 2.656-.094.125-.594 1.344-.531 4.031 1.937 3.594 3.656 1.812 4.032-.656 2.906-2.875.125-.281.563-1.188.062-.125 1.188-2.437.062-.094 1.25-2.438.063-.093 1.28-2.406.063-.094 1.313-2.344.062-.125 1.344-2.281.094-.125 1.375-2.219.094-.156 1.406-2.094.094-.156 1.406-2 .125-.188.969-1.281 1.343-3.844-1.156-3.937-3.188-2.5-4.093-.219-3.406 2.219zm42.468 2.657l-1.469 3.813 1.032 3.937.156.281 1.281 1.813.094.156L222.5 285l.125.188 2.781 4.53.094.188 2.719 4.719.094.156 2.625 4.906.093.157.469.969 2.875 2.906 4 .719 3.688-1.782 1.968-3.562-.437-4.031-.125-.282-.594-1.125-.063-.156-2.812-5.219-.063-.156-2.906-5.063-.094-.156-3-4.906-.125-.188-3.093-4.687-.094-.156L229.25 271l-3.219-2.469-4.094-.156-3.406 2.25zM159 301.75l-2.75 3-.125.281-.813 1.938-.03.156-1.845 4.75-.03.125-1.595 4.438-.062.093-1.375 4-.031.094-1.125 3.469-.031.094-1.532 5-.062.125-.469 1.687.125 4.063 2.469 3.25 3.875 1.218 3.875-1.25 2.437-3.281.094-.313.438-1.562.03-.094 1.47-4.781.03-.094 1.095-3.281.03-.094 1.345-3.875h-.032l1.531-4.219.063-.125 1.719-4.53.062-.126.75-1.844.313-4.062-2.125-3.5-3.719-1.625-4 .875zm79.938 3.031l-2.125 3.469.28 4.063.126.312 1.344 2.969.062.125 2.281 5.344.063.125 2.187 5.375.063.125 2.125 5.406h-.031l1.812 4.875 2.531 3.219 3.906 1.156 3.875-1.344 2.344-3.313v-4.093l-.094-.281-1.812-4.875-.031-.094-2.188-5.625-.062-.125-2.281-5.594-.063-.125-2.375-5.563-.063-.125-1.406-3.093-2.75-3.031-3.969-.875-3.75 1.593zm15.093 36.969l-2.5 3.25-.187 4.063.094.28 1.53 4.657v.063H253l1.594 5.218.031.094 1.531 5.094.031.094 1.407 4.968.031.094 1.313 4.813.03.062.032.125 2.188 3.469 3.78 1.531 3.97-.938 2.687-3.093.406-4.031-.062-.313-.063-.188-.031-.093-1.344-4.969-.031-.063-1.469-5.125-.031-.093-1.563-5.25-.03-.094L265.75 350l-.031-.063-1.531-4.718-2.407-3.313-3.844-1.312-3.906 1.156zm11.375 38.375l-2.75 3-.5 4.063.063.28.125.5.031.094.875 3.938.031.094 1.5 7.344h.031l.532 3 .031.125.469 2.812h.031l.344 2.469h.031l.219 2.062h.031l.094 1.25.031.344.031 1.031 1.406 3.844 3.344 2.313 4.094-.063 3.281-2.438 1.25-3.875V412l-.062-1.375v-.375l-.188-1.813v-.218L279.5 406l-.031-.156-.406-2.563v-.125l-.5-2.937-.032-.125-.594-3.25-.03-.125-1.532-7.438-.031-.125-.938-4.125-.031-.094-.125-.562-2.125-3.5-3.719-1.594-4 .844zM286.125 46.906l-3.438 3.688-1.125 4.5v38.343l1.313 4.844 3.594 3.531 4.875 1.22 4.844-1.438 3.437-3.656 1.125-4.5V55.093l-1.313-4.875-3.593-3.5-4.875-1.219-4.844 1.406zm0 57.532l-3.438 3.656-1.125 4.531v38.344l1.313 4.844 3.594 3.53 4.875 1.188 4.844-1.406 3.437-3.656 1.125-4.5v-38.344l-1.313-4.875-3.593-3.5-4.875-1.219-4.844 1.406zm0 57.53l-3.438 3.657-1.125 4.5V208.5l1.313 4.844 3.594 3.5 4.875 1.219 4.844-1.407 3.437-3.656 1.125-4.5v-38.375l-1.313-4.844-3.593-3.5-4.875-1.219-4.844 1.407zm0 57.532l-3.438 3.656-1.125 4.5V266l1.313 4.875 3.594 3.5 4.875 1.219 4.844-1.406 3.437-3.688 1.125-4.5v-38.344l-1.313-4.844-3.593-3.53-4.875-1.22-4.844 1.438zm0 57.531l-3.438 3.656-1.125 4.5v38.344l1.313 4.844 3.594 3.531 4.875 1.219 4.844-1.438 3.437-3.656 1.125-4.5v-38.344l-1.313-4.843-3.593-3.531-4.875-1.22-4.844 1.438zm0 57.5l-3.438 3.688-1.125 4.5v36.437l1.313 4.844 3.594 3.5 4.875 1.219 4.844-1.406 3.437-3.657 1.125-4.5V342.72l-1.313-4.875-3.593-3.5-4.875-1.219-4.844 1.406z" fill="#fff" fill-rule="evenodd"></path><path fill="#fff" stroke="#fff" stroke-width="20" stroke-linecap="round" stroke-linejoin="bevel" d="M206.349 398.942h164.18v96.667h-164.18z"></path><path fill="#fff" stroke="#fff" stroke-width="17.343" stroke-linecap="round" stroke-linejoin="bevel" d="M168.195 445.179h245.091v48.689H168.195z"></path></svg><svg version="1" width="580" height="580" id="icon-fountain2" y="3480"><path d="M66.275 1.768c-41.335 0-64.571 21.371-64.571 65.036v450.123c0 40.844 20.895 62.229 62.192 62.229H515.92c41.307 0 62.229-20.315 62.229-62.229V66.804c0-42.601-20.922-65.036-63.521-65.036-.004 0-448.495-.143-448.353 0z" fill="#111" stroke="#eee" stroke-width="3.408"></path><g transform="translate(37.065 -32426.481) scale(31.32434)" fill="#fff"><g transform="matrix(1.07521 0 0 1.13282 -44.034 -140.06)" id="a"><path d="M45.156 1043.297c-.41-.086-.845.032-1.218.287-.374.254-.705.654-1.032 1.176-.653 1.043-1.244 2.866-1.424 3.694-.181.828-.39 1.789-.477 2.503.156-.684.443-1.712.682-2.5.24-.788.966-2.574 1.59-3.468.33-.472.683-.835.973-1.032.29-.197.53-.253.781-.2.504.104 1.374.67 1.912 2.058.539 1.387 1.119 3.485 1.414 6.303l.143.04c-.298-2.843-.751-4.949-1.313-6.395-.56-1.447-1.212-2.296-2.03-2.466z" style="text-indent:0;text-align:start;line-height:normal;text-transform:none;block-progression:tb;marker:none;-inkscape-font-specification:Berliner Grotesk Light" font-weight="400" color="#000" stroke-width=".507" overflow="visible" font-family="Berliner Grotesk Light"></path><path d="M47.321 1038.563c-.111-.069-.288-.037-.394.03-.212.135-.356.33-.464.625-.087.238-.28.861-.438 1.633-.158.772-.159 1.214-.212 1.884.082-.674.232-1.101.419-1.839.208-.718.53-1.293.669-1.51.097-.153.16-.26.208-.261.13 0 .278.618.371 1.033.382 1.702.707 5.295.853 11.821l.292-.01c-.146-6.538-.436-10.385-.788-12.157-.088-.443-.19-.747-.304-.969-.056-.11-.1-.213-.212-.28z" style="text-indent:0;text-align:start;line-height:normal;text-transform:none;block-progression:tb;marker:none;-inkscape-font-specification:Berliner Grotesk Light" font-weight="400" color="#000" stroke-width=".507" overflow="visible" font-family="Berliner Grotesk Light"></path><path d="M45.687 1043.297c-.369-.09-.773.03-1.093.287-.32.259-.6.655-.875 1.176-.549 1.04-.929 2.42-1.143 3.634-.214 1.214-.318 2.617-.318 2.617s.264-1.363.508-2.571a13.77 13.77 0 0 1 1.253-3.48c.257-.486.68-.81.918-1.003.24-.193.438-.247.625-.2.188.046.5.17.744.522.243.353.662.904.89 1.6.454 1.39.796 3.472 1.045 6.293l.29-.013c-.25-2.84-.653-4.952-1.125-6.395-.236-.721-.468-1.284-.75-1.692-.281-.407-.6-.682-.969-.774z" style="text-indent:0;text-align:start;line-height:normal;text-transform:none;block-progression:tb;marker:none;-inkscape-font-specification:Berliner Grotesk Light" font-weight="400" color="#000" stroke-width=".507" overflow="visible" font-family="Berliner Grotesk Light"></path><path d="M45.906 1043.326a1.07 1.07 0 0 0-.406.287c-.243.263-.452.658-.656 1.175-.408 1.036-.75 2.52-.95 3.767-.2 1.246-.235 2.268-.235 2.268s.2-.972.492-2.23a28.054 28.054 0 0 1 1.117-3.632c.193-.49.433-.844.607-1.032a.676.676 0 0 1 .219-.173c.054-.02.077-.015.125 0 .095.032.399.145.582.5.182.356.456.914.626 1.612.341 1.397.712 3.481.898 6.304l.237-.012c-.187-2.838-.492-4.928-.843-6.366-.176-.719-.354-1.286-.563-1.692-.209-.405-.43-.668-.75-.774a.759.759 0 0 0-.5 0v-.001z" style="text-indent:0;text-align:start;line-height:normal;text-transform:none;block-progression:tb;marker:none;-inkscape-font-specification:Berliner Grotesk Light" font-weight="400" color="#000" stroke-width=".507" overflow="visible" font-family="Berliner Grotesk Light"></path><path d="M47.188 1043.269a.454.454 0 0 0-.22.087.794.794 0 0 0-.25.315c-.129.26-.235.635-.343 1.147-.217 1.025-.438 2.594-.594 4.617l-.01 1.352.298-1.324c.155-2.012.464-3.57.673-4.56.105-.494.32-.84.414-1.032.018-.036.016-.035.032-.057.011.017.018 0 .03.03.046.091.164.249.25.42.172.346.3.884.392 1.587.184 1.405.399 3.5.499 6.327l.235-.018c-.1-2.835-.25-4.937-.438-6.366a11.993 11.993 0 0 0-.312-1.635c-.055-.198-.092-.385-.156-.516a.742.742 0 0 0-.282-.315.357.357 0 0 0-.218-.057v-.001z" style="text-indent:0;text-align:start;line-height:normal;text-transform:none;block-progression:tb;marker:none;-inkscape-font-specification:Berliner Grotesk Light" font-weight="400" color="#000" stroke-width=".507" overflow="visible" font-family="Berliner Grotesk Light"></path><path d="M47.713 1038.656c-.078.082-.187.403-.272.657a11.005 11.005 0 0 0-.327 1.514 28.347 28.347 0 0 0-.1 1.702s.222-1.388.276-1.696c.054-.309.208-.92.336-1.257.107-.28.25-.425.33-.425.08 0 .178.233.257 1.325.08 1.093.064 5.252.118 11.477l.189.016c-.057-6.534-.02-11.14-.093-12.125-.074-.986-.354-1.313-.487-1.313s-.15.043-.227.125z" style="text-indent:0;text-align:start;line-height:normal;text-transform:none;block-progression:tb;marker:none;-inkscape-font-specification:Berliner Grotesk Light" font-weight="400" color="#000" stroke-width=".507" overflow="visible" font-family="Berliner Grotesk Light"></path><path d="M49.352 1050.96c-3.22-.36-4.973 1.311-7.44 1.236v.415h6.51"></path></g><use transform="matrix(-1 0 0 1 16.06 0)" width="16" height="16" xlink:href="#a"></use></g></svg><svg version="1" width="580" height="580" id="icon-library" y="4060"><path d="M66.275 1.768c-41.335 0-64.571 21.371-64.571 65.036v450.123c0 40.844 20.895 62.229 62.192 62.229H515.92c41.307 0 62.229-20.315 62.229-62.229V66.804c0-42.601-20.922-65.036-63.521-65.036-.004 0-448.495-.143-448.353 0z" fill="#111" stroke="#eee" stroke-width="3.408"></path><path d="M73.931 159.888l228.502 259.485 218.82-125.87L298.56 35.956 73.931 159.888zM61.653 188.6l224.629 255.613.968 96.822L60.685 284.94l.968-96.338z" fill="#fff" fill-rule="evenodd" stroke="#fff" stroke-width="10" stroke-linecap="round" stroke-linejoin="round"></path><path d="M519.51 327.137L313.26 447.99l-.144 3.185L519.192 330.41l.317-3.272zM519.51 367.137L313.26 487.99l-.144 3.185L519.192 370.41l.317-3.272zM519.51 407.137L313.26 527.99l-.144 3.185L519.192 410.41l.317-3.272z" opacity=".75" fill="#fff" fill-rule="evenodd" stroke="#fff" stroke-width="16.477" stroke-linecap="round" stroke-linejoin="round"></path></svg><svg version="1" width="580" height="580" id="icon-library2" y="4640"><defs><linearGradient id="a"><stop offset="0" stop-color="#fff" stop-opacity=".342"></stop><stop offset="1" stop-color="#fff" stop-opacity="0"></stop></linearGradient><linearGradient id="b"><stop offset="0" stop-color="#fff" stop-opacity="0"></stop><stop offset="1" stop-color="#ffa617" stop-opacity=".733"></stop></linearGradient></defs><path d="M66.275 1.768c-41.335 0-64.571 21.371-64.571 65.036v450.123c0 40.844 20.895 62.229 62.192 62.229H515.92c41.307 0 62.229-20.315 62.229-62.229V66.804c0-42.601-20.922-65.036-63.521-65.036-.004 0-448.495-.143-448.353 0z" fill="#111" stroke="#eee" stroke-width="3.408"></path><circle transform="matrix(67.64196 0 0 67.64196 -1282.02 -13246.677)" cx="23.316" cy="197.469" r="1.086" fill="#fff"></circle><path d="M366.482 201.83c33.618 1.217 47.687 28.071 47.687 28.071l108.43 148.61c4.465 6.696 7.103 14.678 7.103 23.404 0 23.133-18.737 41.87-41.87 41.87-5.48 0-10.553-1.217-15.423-3.044L407 422.546v65.274H180.061v-65.274l-65.41 18.195c-4.667 1.827-9.876 3.044-15.422 3.044-23.134 0-41.87-18.737-41.87-41.87 0-8.726 2.637-16.708 7.237-23.404L172.89 229.9s14.272-26.854 47.687-28.071h145.904zm-72.918 240.4l84.755-28.072-1.894-.406c-58.375-17.181-35.715-94.428 22.66-77.247l7.982 2.773v-87.19l-113.503 37.068-113.503-37.068v87.19l7.981-2.773c58.375-17.249 81.238 60.066 22.66 77.247l-1.894.406 84.756 28.071zM526.793 539.228c5.818 0 10.417-4.6 10.417-10.417s-4.6-10.417-10.417-10.417H68.587c-5.615 0-10.417 4.6-10.417 10.417s4.802 10.417 10.417 10.417h458.206z" fill="#fff"></path><path d="M366.482 201.83c33.618 1.217 47.687 28.071 47.687 28.071l108.43 148.61c4.465 6.696 7.103 14.678 7.103 23.404 0 23.133-18.737 41.87-41.87 41.87-5.48 0-10.553-1.217-15.423-3.044L407 422.545v65.275H180.061v-65.275l-65.41 18.196c-4.667 1.827-9.876 3.044-15.422 3.044-23.134 0-41.87-18.737-41.87-41.87 0-8.726 2.637-16.708 7.237-23.404L172.89 229.9s14.272-26.854 47.687-28.071z" fill="#fff" opacity=".01"></path></svg><svg version="1" width="580" height="580" id="icon-playground" y="5220"><path d="M66.275 1.768c-41.335 0-64.571 21.371-64.571 65.036v450.123c0 40.844 20.894 62.229 62.192 62.229H515.92c41.307 0 62.229-20.316 62.229-62.229V66.804c0-42.601-20.922-65.036-63.522-65.036-.003 0-448.494-.143-448.352 0z" fill="#111" stroke="#eee" stroke-width="3.408"></path><path d="M44.421 269.963l495.93 97.847" fill="#fff" stroke="#fff" stroke-width="34.524" stroke-linecap="round" stroke-miterlimit="1.1"></path><path d="M292.386 322.025l-52.293 109.837H344.68l-52.294-109.837z" fill="#fff" fill-rule="evenodd" stroke="#fff" stroke-width="2.023"></path><g transform="matrix(2.13571 .9043 -.84165 2.29468 -206.634 -1194.987)" fill="#fff" stroke="#fff"><path d="M338.54 463.222c-8.953 1.667-20.958 48.627-20.958 48.627l34.614-4.787s-4.33 15.512-8.185 27.018c-2.404 7.176 5.607 9.49 9.64 1.529 7.45-14.706 13.052-30.96 13.052-30.96s-18.71-43.188-28.164-41.427z" fill-rule="evenodd" stroke-width="1.335"></path><path d="M286.865 449.505c.004 5.131-3.71 9.293-8.294 9.293-4.582 0-8.296-4.162-8.293-9.293-.004-5.131 3.71-9.293 8.293-9.293 4.583 0 8.297 4.162 8.294 9.293z" transform="matrix(-1.6649 -.16364 -.28816 1.33831 941.374 -110.14)" stroke-width="5.9"></path></g><g transform="matrix(-2.30754 -.23175 -.3622 2.41727 1457.356 -786.998)" fill="#fff" stroke="#fff"><path d="M338.54 463.222c-8.953 1.667-20.958 48.627-20.958 48.627l34.614-4.787s-4.33 15.512-8.185 27.018c-2.404 7.176 5.607 9.49 9.64 1.529 7.45-14.706 13.052-30.96 13.052-30.96s-18.71-43.188-28.164-41.427z" fill-rule="evenodd" stroke-width="1.335"></path><path d="M286.865 449.505c.004 5.131-3.71 9.293-8.294 9.293-4.582 0-8.296-4.162-8.293-9.293-.004-5.131 3.71-9.293 8.293-9.293 4.583 0 8.297 4.162 8.294 9.293z" transform="matrix(-1.6649 -.16364 -.28816 1.33831 941.374 -110.14)" stroke-width="5.9"></path></g></svg><svg version="1" width="580" height="580" id="icon-police" y="5800"><path d="M66.275 1.768c-41.335 0-64.571 21.371-64.571 65.036v450.123c0 40.844 20.896 62.229 62.192 62.229H515.92c41.307 0 62.229-20.314 62.229-62.229V66.804c0-42.601-20.922-65.036-63.521-65.036-.004 0-448.495-.143-448.353 0z" fill="#111" stroke="#eee" stroke-width="3.408"></path><image y="573.995" x="-1801.193" height="190" width="239" xlink:href="pastedpic_10102008_233747.png"></image><path d="M154.331 234.525c1.588 12.401 11.878 21.591 22.634 20.214l10.334-1.323c10.756-1.377 18.4-12.863 16.812-25.264l-5.42-42.333c-1.588-12.401-11.879-21.591-22.635-20.214l-10.333 1.323c-10.756 1.377-18.4 12.863-16.812 25.264l5.42 42.333zm20.08-3.062c-5.522-4.933-9.398-35.201-5.295-41.366 4.102-6.165 3.971-6.148 9.494-1.216 5.523 4.933 9.398 35.201 5.296 41.366-4.102 6.165-3.971 6.148-9.494 1.216zM273.778 116.072c10.67 7.636 24.858 6.845 31.206-1.74l6.098-8.248c6.348-8.586 2.745-22.11-7.925-29.747l-36.425-26.07c-10.67-7.636-24.858-6.845-31.206 1.74l-6.099 8.249c-6.348 8.585-2.744 22.109 7.926 29.746l36.425 26.07zm11.471-16.376c-7.614.424-33.658-18.216-35.592-25.474-1.934-7.259-2.011-7.154 5.603-7.579 7.615-.424 33.659 18.216 35.593 25.474 1.934 7.259 2.011 7.154-5.604 7.579z" fill="#fff"></path><path d="M234.82 84.678c12.456-1.07 22.066-10.97 21.137-21.774l-.508 9.869c-.929-10.804-12.087-18.918-24.543-17.847l-42.522 3.656c-12.456 1.07-22.066 10.97-21.137 21.774l.507-9.869c.93 10.804 12.088 18.918 24.544 17.847l42.522-3.656zm-2.226-20.19c-5.157 5.313-35.56 7.927-41.55 3.572-5.989-4.355-5.592 16.026-.435 10.712 5.158-5.313 35.561-7.927 41.55-3.572 5.99 4.355 5.593-16.026.435-10.712z" fill="#fff"></path><path d="M194.685 94.102c7.857-10.509 7.362-24.71-1.09-31.235l-8.119-6.27c-8.451-6.525-22.047-3.204-29.905 7.305l-26.823 35.874c-7.857 10.508-7.362 24.71 1.09 31.235l8.119 6.269c8.45 6.526 22.047 3.205 29.904-7.304l26.824-35.874zm-16.134-11.81c.266 7.621-18.913 33.272-26.21 35.054-7.297 1.782-7.194 1.861-7.46-5.76-.265-7.622 18.913-33.272 26.21-35.054 7.298-1.783 7.195-1.862 7.46 5.76z" fill="#fff"></path><path d="M153.747 177.135c4.14 11.797 16.121 18.639 26.353 15.048l-9.684 1.967c10.232-3.59 15.311-16.419 11.172-28.216l-14.132-40.27c-4.14-11.798-16.12-18.64-26.353-15.049l9.685-1.966c-10.232 3.59-15.311 16.418-11.172 28.215l14.131 40.271zm19-7.184c-6.43-3.672-16.534-32.466-13.808-39.35 2.726-6.885-16.913-1.426-10.483 2.246 6.43 3.672 16.534 32.466 13.808 39.351-2.726 6.885 16.914 1.425 10.483-2.247z" fill="#fff"></path><g transform="matrix(1.04129 0 0 1.04129 -1.536 -18.65)"><g transform="rotate(-25.647 194.39 403.295) scale(1.129)" fill="#fff"><path d="M137.93 221.662c-7.586.605-11.322 13.815-12.994 20.915-.798 11.742 9.76 31.848 15.412 30.635 40.722 0 66.021 27.718 66.021 68.44 0 40.722-27.113 70.253-67.835 70.253-16.188 0-24.46-14.392-40.588-11.818-15.673 2.501-23.662 9.763-28.251 18.067-4.857 8.79-9.927 22.864 6.128 35.087 16.488 12.552 31.261 13.743 53.04 13.743 67.622 0 127.145-57.71 127.145-125.332 0-67.622-50.456-119.99-118.078-119.99z"></path><path d="M133.094 224.648c-64.404 0-117.103 52.6-117.103 117.004 0 47.375 23.678 91.924 64.401 110.29l26.602-46.272c-30.11-5.804-45.896-25.457-45.896-61.654 0-43.941 30.51-77.959 74.45-77.959 12.235 0 16.716 4.92 29.062 9.41l11.326-42.645a116.152 116.152 0 0 0-42.842-8.174z" opacity=".8"></path><path d="M156.757 289.149l15.239 10.687c30.42 23.19 49.375 21.863 67.632-3.725 18.257-25.588-19.438-82.557-19.438-82.557l-.56-.4s-66.132-17.11-84.389 8.477c-18.257 25.588-13.346 43.944 18.48 65.166l15.063 10.933" fill-rule="evenodd"></path></g><path d="M187.12 514.068a35.164 35.164 0 1 1-70.327 0 35.164 35.164 0 1 1 70.327 0z" fill="#fff"></path></g><g transform="matrix(-.76037 .71141 .71141 .76037 248.513 -206.44)"><g transform="rotate(-25.647 194.39 403.295) scale(1.129)" fill="#fff"><path d="M137.93 221.662c-7.586.605-11.322 13.815-12.994 20.915-.798 11.742 9.76 31.848 15.412 30.635 40.722 0 66.021 27.718 66.021 68.44 0 40.722-27.113 70.253-67.835 70.253-16.188 0-24.46-14.392-40.588-11.818-15.673 2.501-23.662 9.763-28.251 18.067-4.857 8.79-9.927 22.864 6.128 35.087 16.488 12.552 31.261 13.743 53.04 13.743 67.622 0 127.145-57.71 127.145-125.332 0-67.622-50.456-119.99-118.078-119.99z"></path><path d="M133.094 224.648c-64.404 0-117.103 52.6-117.103 117.004 0 47.375 23.678 91.924 64.401 110.29l26.602-46.272c-30.11-5.804-45.896-25.457-45.896-61.654 0-43.941 30.51-77.959 74.45-77.959 12.235 0 16.716 4.92 29.062 9.41l11.326-42.645a116.152 116.152 0 0 0-42.842-8.174z" opacity=".8"></path><path d="M156.757 289.149l15.239 10.687c30.42 23.19 49.375 21.863 67.632-3.725 18.257-25.588-19.438-82.557-19.438-82.557l-.56-.4s-66.132-17.11-84.389 8.477c-18.257 25.588-13.346 43.944 18.48 65.166l15.063 10.933" fill-rule="evenodd"></path></g><path d="M187.12 514.068a35.164 35.164 0 1 1-70.327 0 35.164 35.164 0 1 1 70.327 0z" fill="#fff"></path></g></svg><svg version="1" width="580" height="580" id="icon-police2" y="6380"><path d="M66.275 1.768c-41.335 0-64.571 21.371-64.571 65.036v450.123c0 40.844 20.896 62.229 62.192 62.229H515.92c41.307 0 62.229-20.314 62.229-62.229V66.804c0-42.601-20.922-65.036-63.521-65.036-.004 0-448.495-.143-448.353 0z" fill="#111" stroke="#eee" stroke-width="3.408"></path><image xlink:href="pastedpic_10102008_233747.png" width="239" height="190" x="-1801.193" y="573.995"></image><path d="M178.55 226.45c1.132 8.838 8.466 15.387 16.13 14.405l7.365-.943c7.665-.981 13.111-9.166 11.98-18.003l-3.862-30.168c-1.132-8.837-8.465-15.386-16.13-14.405l-7.364.943c-7.665.981-13.112 9.167-11.98 18.004l3.862 30.167zm14.31-2.182c-3.935-3.515-6.697-25.085-3.773-29.478 2.923-4.393 2.83-4.381 6.766-.866 3.935 3.514 6.697 25.084 3.774 29.478-2.924 4.393-2.83 4.38-6.766.866zM259.935 142.037c7.604 5.443 17.714 4.879 22.238-1.24l4.346-5.877c4.524-6.118 1.956-15.756-5.648-21.198l-25.957-18.578c-7.604-5.442-17.714-4.879-22.238 1.24l-4.346 5.878c-4.524 6.118-1.956 15.755 5.648 21.197l25.957 18.578zm8.175-11.67c-5.426.303-23.986-12.98-25.364-18.153-1.378-5.172-1.433-5.098 3.993-5.4 5.426-.303 23.986 12.98 25.364 18.153 1.378 5.173 1.433 5.098-3.993 5.4z" fill="#fff"></path><path d="M235.909 119.666c8.876-.763 15.725-7.818 15.063-15.517l-.362 7.033c-.662-7.7-8.614-13.482-17.49-12.719l-30.302 2.606c-8.877.763-15.725 7.818-15.063 15.517l.361-7.033c.662 7.7 8.614 13.481 17.49 12.718l30.303-2.605zm-1.586-14.388c-3.676 3.786-25.342 5.649-29.61 2.545-4.267-3.103-3.985 11.42-.31 7.634 3.676-3.786 25.342-5.649 29.61-2.546 4.268 3.104 3.985-11.42.31-7.633z" fill="#fff"></path><path d="M207.308 126.381c5.6-7.488 5.246-17.608-.776-22.259l-5.786-4.467c-6.023-4.65-15.712-2.284-21.311 5.205l-19.115 25.565c-5.6 7.488-5.247 17.608.776 22.258l5.786 4.468c6.023 4.65 15.711 2.284 21.31-5.205l19.116-25.565zm-11.497-8.416c.19 5.431-13.478 23.71-18.678 24.98-5.2 1.27-5.127 1.327-5.316-4.104-.19-5.432 13.478-23.71 18.678-24.98 5.2-1.27 5.126-1.327 5.316 4.104z" fill="#fff"></path><path d="M178.135 185.553c2.95 8.407 11.488 13.282 18.78 10.723l-6.902 1.402c7.292-2.559 10.911-11.7 7.961-20.107l-10.07-28.698c-2.95-8.407-11.488-13.283-18.78-10.724l6.902-1.401c-7.292 2.558-10.911 11.7-7.962 20.107l10.07 28.698zm13.54-5.12c-4.583-2.616-11.783-23.136-9.84-28.042 1.942-4.906-12.053-1.015-7.47 1.601 4.582 2.617 11.782 23.136 9.84 28.042-1.943 4.907 12.052 1.016 7.47-1.6z" fill="#fff"></path><g transform="matrix(.74205 0 0 .74205 67.476 46.031)"><g transform="rotate(-25.647 194.39 403.295) scale(1.129)" fill="#fff"><path d="M137.93 221.662c-7.586.605-11.322 13.815-12.994 20.915-.798 11.742 9.76 31.848 15.412 30.635 40.722 0 66.021 27.718 66.021 68.44 0 40.722-27.113 70.253-67.835 70.253-16.188 0-24.46-14.392-40.588-11.818-15.673 2.501-23.662 9.763-28.251 18.067-4.857 8.79-9.927 22.864 6.128 35.087 16.488 12.552 31.261 13.743 53.04 13.743 67.622 0 127.145-57.71 127.145-125.332 0-67.622-50.456-119.99-118.078-119.99z"></path><path d="M133.094 224.648c-64.404 0-117.103 52.6-117.103 117.004 0 47.375 23.678 91.924 64.401 110.29l26.602-46.272c-30.11-5.804-45.896-25.457-45.896-61.654 0-43.941 30.51-77.959 74.45-77.959 12.235 0 16.716 4.92 29.062 9.41l11.326-42.645a116.152 116.152 0 0 0-42.842-8.174z" opacity=".8"></path><path d="M156.757 289.149l15.239 10.687c30.42 23.19 49.375 21.863 67.632-3.725 18.257-25.588-19.438-82.557-19.438-82.557l-.56-.4s-66.132-17.11-84.389 8.477c-18.257 25.588-13.346 43.944 18.48 65.166l15.063 10.933" fill-rule="evenodd"></path></g><path d="M187.12 514.068c0 19.42-15.743 35.164-35.163 35.164-19.42 0-35.164-15.743-35.164-35.164 0-19.42 15.744-35.163 35.164-35.163s35.163 15.743 35.163 35.163z" fill="#fff"></path></g><g transform="scale(-.74205 .74205) rotate(43.095 -6.83 -474.511)"><g transform="rotate(-25.647 194.39 403.295) scale(1.129)" fill="#fff"><path d="M137.93 221.662c-7.586.605-11.322 13.815-12.994 20.915-.798 11.742 9.76 31.848 15.412 30.635 40.722 0 66.021 27.718 66.021 68.44 0 40.722-27.113 70.253-67.835 70.253-16.188 0-24.46-14.392-40.588-11.818-15.673 2.501-23.662 9.763-28.251 18.067-4.857 8.79-9.927 22.864 6.128 35.087 16.488 12.552 31.261 13.743 53.04 13.743 67.622 0 127.145-57.71 127.145-125.332 0-67.622-50.456-119.99-118.078-119.99z"></path><path d="M133.094 224.648c-64.404 0-117.103 52.6-117.103 117.004 0 47.375 23.678 91.924 64.401 110.29l26.602-46.272c-30.11-5.804-45.896-25.457-45.896-61.654 0-43.941 30.51-77.959 74.45-77.959 12.235 0 16.716 4.92 29.062 9.41l11.326-42.645a116.152 116.152 0 0 0-42.842-8.174z" opacity=".8"></path><path d="M156.757 289.149l15.239 10.687c30.42 23.19 49.375 21.863 67.632-3.725 18.257-25.588-19.438-82.557-19.438-82.557l-.56-.4s-66.132-17.11-84.389 8.477c-18.257 25.588-13.346 43.944 18.48 65.166l15.063 10.933" fill-rule="evenodd"></path></g><path d="M187.12 514.068c0 19.42-15.743 35.164-35.163 35.164-19.42 0-35.164-15.743-35.164-35.164 0-19.42 15.744-35.163 35.164-35.163s35.163 15.743 35.163 35.163z" fill="#fff"></path></g><path d="M287.688 25.063c-15.276 11.946-31.673 23.328-50.578 28.65-35.908 11.395-76.41 6.701-109.36-11.276-7.986-.545-12.162 7.88-18.517 11.265-15.09 12.534-30.927 24.401-45.108 37.892-2.587 5.723 3.817 10.186 4.765 15.578 13.563 29.814 28.372 62.133 22.391 95.734-6.105 42.816-32.442 79.658-40.08 122.146-8.493 54.88 16.152 114.427 63.657 144.187C169.95 507.543 237.75 520.565 294.875 555c7.678 3.628 13.567-4.814 20.004-7.388 54.404-32.989 118.59-48.56 168.996-88.643 28.886-21.595 48.328-54.807 53.78-90.488 5.746-33.51-.656-68.548-16.905-98.265-15.512-33.185-33.443-68.047-30.001-105.802 2.69-27.367 15.231-52.462 24.845-77.851.11-6.796-8.18-8.263-11.776-12.652-17.004-12.895-33.683-27.048-52.15-37.748-11.48 2.506-20.745 11.508-32.48 13.618-43.525 14.401-94.328 5.199-129.563-24.5a3.127 3.127 0 0 0-1.938-.218z" fill="none" stroke="#fff" stroke-width="16" stroke-linecap="round" stroke-linejoin="round"></path><path d="M299.368 552.794c87.579-60.487 234.866-71.305 236.172-209.533.623-61.982-36.26-81.567-49.047-158.185-5.846-35.035 25.939-99.835 25.939-99.835l-61.067-46.036c-36.592 23.168-105.332 37.086-163.092-10.484-55.783 49.807-125.036 38.45-162.54 16.658L66.58 93.646s34.39 63.572 29.97 98.797c-9.666 77.035-45.728 97.974-42.59 159.886 6.916 138.076 154.531 143.42 244.498 200.611" opacity=".1" fill="#fff" fill-rule="evenodd" stroke="#fff" stroke-width="9.548" stroke-linecap="round" stroke-linejoin="round"></path></svg><svg version="1" width="580" height="580" id="icon-post_box" y="6960"><path d="M66.275 1.768c-41.335 0-64.571 21.371-64.571 65.036v450.123c0 40.844 20.895 62.229 62.192 62.229H515.92c41.307 0 62.229-20.315 62.229-62.229V66.804c0-42.601-20.922-65.036-63.521-65.036-.004 0-448.495-.143-448.353 0z" fill="#111" stroke="#eee" stroke-width="3.408"></path><path style="text-align:start;line-height:125%;-inkscape-font-specification:NPSPICT3" d="M126.2 188.669l99.828 100.314L126.2 388.81V188.67zm310.566-18.809L313.802 292.353c-6.113 6.113-13.83 9.169-23.15 9.169-9.645 0-17.686-3.218-24.122-9.655L144.523 169.86h292.243zm19.294 218.95l-99.828-99.827 99.828-100.314V388.81zm-312.023 18.81l100.314-99.829 4.341 4.342c11.578 11.254 25.564 16.88 41.96 16.88 16.394 0 30.219-5.626 41.473-16.88l4.342-4.342 100.299 99.828H144.037zm-44.844 27.006h384.845V142.368H99.193v292.258z" font-size="40" font-weight="400" fill="#fff" font-family="NPSPICT3"></path></svg><svg version="1" width="580" height="580" id="icon-post_office" y="7540"><path d="M66.275 1.768c-41.335 0-64.571 21.371-64.571 65.036v450.123c0 40.844 20.895 62.229 62.192 62.229H515.92c41.307 0 62.229-20.315 62.229-62.229V66.804c0-42.601-20.922-65.036-63.521-65.036-.004 0-448.495-.143-448.353 0z" fill="#111" stroke="#eee" stroke-width="3.408"></path><path style="text-align:start;line-height:125%;-inkscape-font-specification:NPSPICT3" d="M131.796 192.046l96.45 96.92-96.45 96.45v-193.37zm300.059-18.172L313.051 292.222c-5.906 5.906-13.361 8.86-22.367 8.86-9.318 0-17.087-3.11-23.305-9.329l-117.88-117.88h282.356zm18.642 211.543l-96.45-96.45 96.45-96.92v193.37zM149.03 403.589l96.92-96.45 4.195 4.194c11.185 10.874 24.699 16.31 40.54 16.31 15.84 0 29.196-5.436 40.07-16.31l4.194-4.194 96.906 96.45H149.03zm-43.327 26.093h371.825v-282.37H105.703v282.37z" font-size="40" font-weight="400" fill="#fff" font-family="NPSPICT3"></path><path d="M564.575 292.466a273.26 273.26 0 1 1-546.52 0 273.26 273.26 0 1 1 546.52 0z" fill="none" stroke="#fff" stroke-width="23.804177720000002"></path><path d="M564.575 292.466a273.26 273.26 0 1 1-546.52 0 273.26 273.26 0 1 1 546.52 0z" fill="#fff" stroke="#fff" stroke-width="23.804177720000002" opacity=".1"></path></svg><svg version="1" width="580" height="580" id="icon-prison" y="8120"><defs id="defs4"><style id="style6">.fil0{fill:#ef7900}</style><marker viewBox="0 0 10 10" refY="5" refX="10" orient="auto" markerWidth="4" id="ArrowStart"><path id="path2295" d="M10 0L0 5l10 5z"></path></marker><marker viewBox="0 0 10 10" refY="5" orient="auto" markerWidth="4" id="ArrowEnd"><path id="path2292" d="M0 0l10 5-10 5z"></path></marker></defs><g id="g1327"><path d="M66.275 1.768c-41.335 0-64.571 21.371-64.571 65.036v450.123c0 40.844 20.894 62.229 62.192 62.229H515.92c41.307 0 62.229-20.316 62.229-62.229V66.804c0-42.601-20.922-65.036-63.522-65.036-.003 0-448.494-.143-448.352 0z" id="path1329" fill="#111" stroke="#eee" stroke-width="3.408"></path></g><g id="g8776" transform="translate(79.488 -14.535) scale(1.87169)" opacity=".5"><path style="text-align:start;line-height:125%;-inkscape-font-specification:NPSPICT3" d="M291.781 122.546c-17.139 0-32.085 6.219-44.781 18.593-12.694 12.376-19.03 27.398-19.031 45.157 0 17.78 6.337 32.906 19.031 45.28 12.696 12.377 27.642 18.533 44.781 18.532.632 0 1.25-.015 1.875-.031a75.06 75.06 0 0 0 1.906.031c17.14 0 32.024-6.155 44.72-18.531 12.694-12.375 19.03-27.502 19.03-45.281 0-17.76-6.336-32.78-19.03-45.157-12.696-12.374-27.58-18.593-44.72-18.593-.639 0-1.274.046-1.906.062-.625-.016-1.243-.062-1.875-.062zM243.22 254c-3.857 0-7.37.413-10.5 1.25a54.227 54.227 0 0 0-6.219-.219c-30.005.71-53.783 25.62-53.094 55.625l1.125 126.781a54.362 54.362 0 0 0 27.375 47.5 54.356 54.356 0 0 0 10.875 4.72v21.406l80.875-2.375 80.906 2.375V487.219a53.996 53.996 0 0 0 5.313-2.781 54.35 54.35 0 0 0 26.531-47.97l-1.094-126.812a54.398 54.398 0 0 0-16.28-39.094A54.368 54.368 0 0 0 354 255.095c-2.975-.734-6.264-1.094-9.875-1.094H243.219z" transform="translate(-62.206 -26.592) scale(.6171)" id="flowRoot3192" font-size="40" font-weight="400" fill="#fff" font-family="NPSPICT3"></path></g><path d="M384.531 47.719c-2.25.016-4.235.29-5.594 1.312v364.5c1.151-10.28 6.61-20.621 17.094-22.844V47.908c-3.317.514-7.75-.216-11.5-.188zm-5.594 374.156V541.5c5.308-.823 13.472 1.6 17.094-1.125v-95.313c-10.145-1.6-16.582-13.431-17.094-23.187z" id="path8836" fill="#fff" stroke="#fff" stroke-width="13.245" stroke-linecap="round" stroke-linejoin="round"></path><path d="M211.844 47.719c-2.25.016-4.236.29-5.594 1.312v341.594c8.975 1.29 14.936 10.678 16.563 19.188.227 1.015.391 2.06.53 3.125V47.906c-3.317.515-7.75-.215-11.5-.187zm11.5 375.375c-1.319 9.937-6.544 19.357-16.656 21.969-.147.02-.292.014-.438.03V541.5c5.308-.823 13.472 1.6 17.094-1.125V423.094z" id="path9418" fill="#fff" stroke="#fff" stroke-width="13.245" stroke-linecap="round" stroke-linejoin="round"></path><path id="path9497" d="M510.928 541.487c5.308-.823 13.494 1.602 17.116-1.124V47.917c-5.308.823-13.494-1.602-17.116 1.124v492.446z" fill="#fff" stroke="#fff" stroke-width="13.245" stroke-linecap="round" stroke-linejoin="round"></path><path id="path9499" d="M54.237 541.487c5.308-.823 13.494 1.602 17.117-1.124V47.917c-5.308.823-13.494-1.602-17.117 1.124v492.446z" fill="#fff" stroke="#fff" stroke-width="13.245" stroke-linecap="round" stroke-linejoin="round"></path><path d="M528.309 46.567c-.79-5.367 1.539-13.644-1.08-17.306H54.053c.79 5.366-1.54 13.643 1.08 17.306h473.176z" id="path9518" fill="#fff" stroke="#fff" stroke-width="13.055" stroke-linecap="round" stroke-linejoin="round"></path><path id="path9520" d="M528.309 552.567c-.79-5.367 1.539-13.644-1.08-17.306H54.053c.79 5.366-1.54 13.643 1.08 17.306h473.176z" fill="#fff" stroke="#fff" stroke-width="13.055" stroke-linecap="round" stroke-linejoin="round"></path></svg><svg version="1" width="580" height="580" id="icon-public_building" y="8700"><path d="M66.275 1.768c-41.335 0-64.571 21.371-64.571 65.036v450.123c0 40.844 20.895 62.229 62.192 62.229H515.92c41.307 0 62.229-20.315 62.229-62.229V66.804c0-42.601-20.922-65.036-63.521-65.036-.004 0-448.495-.143-448.353 0z" fill="#111" stroke="#eee" stroke-width="3.408"></path><path d="M286.944 44.002L34.884 235.909h50.412V543.77h403.296V235.909h50.412L286.944 44.002z" font-size="12" opacity=".2" fill="#fff" fill-rule="evenodd" stroke="#fff" stroke-width="1.241"></path><path d="M286.944 34.002L34.884 225.909h50.412V543.77h403.296V225.909h50.412L286.944 34.002z" font-size="12" fill="none" fill-rule="evenodd" stroke="#fff" stroke-width="20" stroke-linejoin="round"></path><g transform="matrix(.87658 0 0 .87658 99.682 266.47)" fill="#fff"><path d="M117.844 42.625c-10.577 0-19.79 3.832-27.625 11.469-7.834 7.637-11.75 16.916-11.75 27.875 0 10.971 3.916 20.3 11.75 27.937 7.834 7.637 17.048 11.438 27.625 11.438.39 0 .77-.022 1.156-.031.39.01.793.03 1.188.03 10.576.001 19.759-3.8 27.593-11.437 7.834-7.636 11.75-16.966 11.75-27.937 0-10.96-3.916-20.238-11.75-27.875-7.834-7.637-17.017-11.469-27.594-11.469-.394 0-.797.021-1.187.031-.386-.01-.766-.031-1.156-.031zm-29.969 87.531c-11.353 0-17.61 5.877-18.781 17.625v141.001l49.906-1.47 49.938 1.47v-141c-1.172-11.749-7.428-17.625-18.782-17.626H87.875z" style="text-align:start;line-height:125%;-inkscape-font-specification:NPSPICT3" font-size="40" font-weight="400" font-family="NPSPICT3"></path><path d="M79.06 243.054l-.7-78.245M155.06 243.054l-.7-78.245" fill-rule="evenodd" stroke="#fff" stroke-width="67.097" stroke-linecap="round"></path></g><g transform="matrix(.87658 0 0 .87658 266.233 266.47)" fill="#fff"><path style="text-align:start;line-height:125%;-inkscape-font-specification:NPSPICT3" d="M117.844 42.625c-10.577 0-19.79 3.832-27.625 11.469-7.834 7.637-11.75 16.916-11.75 27.875 0 10.971 3.916 20.3 11.75 27.937 7.834 7.637 17.048 11.438 27.625 11.438.39 0 .77-.022 1.156-.031.39.01.793.03 1.188.03 10.576.001 19.759-3.8 27.593-11.437 7.834-7.636 11.75-16.966 11.75-27.937 0-10.96-3.916-20.238-11.75-27.875-7.834-7.637-17.017-11.469-27.594-11.469-.394 0-.797.021-1.187.031-.386-.01-.766-.031-1.156-.031zm-29.969 87.531c-11.353 0-17.61 5.877-18.781 17.625v141.001l49.906-1.47 49.938 1.47v-141c-1.172-11.749-7.428-17.625-18.782-17.626H87.875z" font-size="40" font-weight="400" font-family="NPSPICT3"></path><path d="M79.06 243.054l-.7-78.245M155.06 243.054l-.7-78.245" fill-rule="evenodd" stroke="#fff" stroke-width="67.097" stroke-linecap="round"></path></g><g transform="translate(20)" fill="#fff"><g transform="matrix(.48931 0 0 .48931 107.156 142.643)"><path style="text-align:start;line-height:125%;-inkscape-font-specification:NPSPICT3" d="M117.844 42.625c-10.577 0-19.79 3.832-27.625 11.469-7.834 7.637-11.75 16.916-11.75 27.875 0 10.971 3.916 20.3 11.75 27.937 7.834 7.637 17.048 11.438 27.625 11.438.39 0 .77-.022 1.156-.031.39.01.793.03 1.188.03 10.576.001 19.759-3.8 27.593-11.437 7.834-7.636 11.75-16.966 11.75-27.937 0-10.96-3.916-20.238-11.75-27.875-7.834-7.637-17.017-11.469-27.594-11.469-.394 0-.797.021-1.187.031-.386-.01-.766-.031-1.156-.031zm-29.969 87.531c-11.353 0-17.61 5.877-18.781 17.625v141.001l49.906-1.47 49.938 1.47v-141c-1.172-11.749-7.428-17.625-18.782-17.626H87.875z" font-size="40" font-weight="400" font-family="NPSPICT3"></path><path d="M79.06 243.054l-.7-78.245M155.06 243.054l-.7-78.245" fill-rule="evenodd" stroke="#fff" stroke-width="67.097" stroke-linecap="round"></path></g><g transform="matrix(.48931 0 0 .48931 207.156 142.643)"><path d="M117.844 42.625c-10.577 0-19.79 3.832-27.625 11.469-7.834 7.637-11.75 16.916-11.75 27.875 0 10.971 3.916 20.3 11.75 27.937 7.834 7.637 17.048 11.438 27.625 11.438.39 0 .77-.022 1.156-.031.39.01.793.03 1.188.03 10.576.001 19.759-3.8 27.593-11.437 7.834-7.636 11.75-16.966 11.75-27.937 0-10.96-3.916-20.238-11.75-27.875-7.834-7.637-17.017-11.469-27.594-11.469-.394 0-.797.021-1.187.031-.386-.01-.766-.031-1.156-.031zm-29.969 87.531c-11.353 0-17.61 5.877-18.781 17.625v141.001l49.906-1.47 49.938 1.47v-141c-1.172-11.749-7.428-17.625-18.782-17.626H87.875z" style="text-align:start;line-height:125%;-inkscape-font-specification:NPSPICT3" font-size="40" font-weight="400" font-family="NPSPICT3"></path><path d="M79.06 243.054l-.7-78.245M155.06 243.054l-.7-78.245" fill-rule="evenodd" stroke="#fff" stroke-width="67.097" stroke-linecap="round"></path></g><g transform="matrix(.48931 0 0 .48931 307.156 142.643)"><path style="text-align:start;line-height:125%;-inkscape-font-specification:NPSPICT3" d="M117.844 42.625c-10.577 0-19.79 3.832-27.625 11.469-7.834 7.637-11.75 16.916-11.75 27.875 0 10.971 3.916 20.3 11.75 27.937 7.834 7.637 17.048 11.438 27.625 11.438.39 0 .77-.022 1.156-.031.39.01.793.03 1.188.03 10.576.001 19.759-3.8 27.593-11.437 7.834-7.636 11.75-16.966 11.75-27.937 0-10.96-3.916-20.238-11.75-27.875-7.834-7.637-17.017-11.469-27.594-11.469-.394 0-.797.021-1.187.031-.386-.01-.766-.031-1.156-.031zm-29.969 87.531c-11.353 0-17.61 5.877-18.781 17.625v141.001l49.906-1.47 49.938 1.47v-141c-1.172-11.749-7.428-17.625-18.782-17.626H87.875z" font-size="40" font-weight="400" font-family="NPSPICT3"></path><path d="M79.06 243.054l-.7-78.245M155.06 243.054l-.7-78.245" fill-rule="evenodd" stroke="#fff" stroke-width="67.097" stroke-linecap="round"></path></g></g></svg><svg version="1" width="580" height="580" id="icon-public_building2" y="9280"><path d="M66.275 1.768c-41.335 0-64.571 21.371-64.571 65.036v450.123c0 40.844 20.895 62.229 62.192 62.229H515.92c41.307 0 62.229-20.315 62.229-62.229V66.804c0-42.601-20.922-65.036-63.521-65.036-.004 0-448.495-.143-448.353 0z" fill="#111" stroke="#eee" stroke-width="3.408"></path><g transform="translate(340.537 248.082) scale(1.09564)" fill="#fff"><path style="text-align:start;line-height:125%;-inkscape-font-specification:NPSPICT3" d="M117.844 42.625c-10.577 0-19.79 3.832-27.625 11.469-7.834 7.637-11.75 16.916-11.75 27.875 0 10.971 3.916 20.3 11.75 27.937 7.834 7.637 17.048 11.438 27.625 11.438.39 0 .77-.022 1.156-.031.39.01.793.03 1.188.03 10.576.001 19.759-3.8 27.593-11.437 7.834-7.636 11.75-16.966 11.75-27.937 0-10.96-3.916-20.238-11.75-27.875-7.834-7.637-17.017-11.469-27.594-11.469-.394 0-.797.021-1.187.031-.386-.01-.766-.031-1.156-.031zm-29.969 87.531c-11.353 0-17.61 5.877-18.781 17.625v141.001l49.906-1.47 49.938 1.47v-141c-1.172-11.749-7.428-17.625-18.782-17.626H87.875z" font-size="40" font-weight="400" font-family="NPSPICT3"></path><path d="M79.06 243.054l-.7-78.245M155.06 243.054l-.7-78.245" fill-rule="evenodd" stroke="#fff" stroke-width="67.097" stroke-linecap="round"></path></g><g transform="matrix(.74946 0 0 .74946 73.64 -2.804)" font-size="12" stroke="#fff"><path d="M286.944 44.002L34.884 235.909h50.412V543.77h403.296V235.909h50.412L286.944 44.002z" opacity=".2" fill="#fff" fill-rule="evenodd" stroke-width="1.241"></path><path d="M286.944 34.002L34.884 225.909h50.412V543.77h403.296V225.909h50.412L286.944 34.002z" fill="none" stroke-width="20" stroke-linejoin="round"></path></g><path d="M358.27 356.192c-21.851-27.093-43.69-54.196-65.537-81.292-23.217 28.67-46.45 57.327-69.65 86.012h38.952v96.467h60.7c.377-32.725.696-65.45 1.014-98.175h36.954l-2.433-3.012z" fill="#fff" stroke="#fff" stroke-width="9.267" stroke-linecap="round" stroke-linejoin="round"></path><path d="M358.27 450.226c-21.851 27.092-43.69 54.195-65.537 81.291-23.217-28.67-46.45-57.327-69.65-86.012h38.952V349.04h60.7c.377 32.724.696 65.45 1.014 98.175h36.954l-2.433 3.012z" fill="#fff" stroke="#fff" stroke-width="9.267" stroke-linecap="round" stroke-linejoin="round"></path><path d="M220.718 391.99l141.269 3.33V206.269H220.718V391.99z" opacity=".5" fill="#fff" stroke="#fff" stroke-width="27.802" stroke-linecap="round" stroke-linejoin="round"></path><g transform="translate(-15.463 248.082) scale(1.09564)" fill="#fff"><path d="M117.844 42.625c-10.577 0-19.79 3.832-27.625 11.469-7.834 7.637-11.75 16.916-11.75 27.875 0 10.971 3.916 20.3 11.75 27.937 7.834 7.637 17.048 11.438 27.625 11.438.39 0 .77-.022 1.156-.031.39.01.793.03 1.188.03 10.576.001 19.759-3.8 27.593-11.437 7.834-7.636 11.75-16.966 11.75-27.937 0-10.96-3.916-20.238-11.75-27.875-7.834-7.637-17.017-11.469-27.594-11.469-.394 0-.797.021-1.187.031-.386-.01-.766-.031-1.156-.031zm-29.969 87.531c-11.353 0-17.61 5.877-18.781 17.625v141.001l49.906-1.47 49.938 1.47v-141c-1.172-11.749-7.428-17.625-18.782-17.626H87.875z" style="text-align:start;line-height:125%;-inkscape-font-specification:NPSPICT3" font-size="40" font-weight="400" font-family="NPSPICT3"></path><path d="M79.06 243.054l-.7-78.245M155.06 243.054l-.7-78.245" fill-rule="evenodd" stroke="#fff" stroke-width="67.097" stroke-linecap="round"></path></g></svg><svg version="1" width="580" height="580" id="icon-recycling" y="9860"><path d="M66.275 1.768c-41.335 0-64.571 21.371-64.571 65.036v450.123c0 40.844 20.895 62.229 62.192 62.229H515.92c41.307 0 62.229-20.315 62.229-62.229V66.804c0-42.601-20.922-65.036-63.521-65.036-.004 0-448.495-.143-448.353 0z" fill="#111" stroke="#eee" stroke-width="3.408"></path><path style="text-align:start;line-height:125%;-inkscape-font-specification:NPSPICT3" d="M215.298 353.28L153.07 244.858H27.922l50.872 29.449-31.45 54.2c-2.682 4.916-4.023 10.049-4.023 15.4 0 5.35 1.34 10.483 4.023 15.398l49.504 86.325c2.233-6.25 4.465-11.607 6.698-16.072L165.12 323.83l50.178 29.449zm-93.004 87c-3.58 5.8-5.371 12.042-5.37 18.727-.001 10.265 3.682 18.965 11.048 26.1 7.365 7.134 16.174 10.7 26.426 10.7h123.147v-99.701H147.72c-.899 1.783-4.248 7.583-10.048 17.4l-15.378 26.773zM288.92 193.331h124.475l62.9-108.402-50.851 29.449-31.47-54.221c-5.801-10.252-14.72-15.378-26.754-15.378H268.17c4.016 4.452 7.366 8.911 10.048 13.376l60.88 105.727-10.028 6.024-40.15 23.425zM228.02 50.13c-14.282 0-24.99 6.243-32.124 18.728L133.67 175.932c23.636 13.833 52.41 30.341 86.326 49.524 20.068-34.35 41.702-71.825 64.902-112.425l-24.752-44.173c-7.134-12.485-17.842-18.727-32.124-18.728zM387.97 394.758V336.554L325.72 444.956l62.248 107.749V494.48h62.227c12.049 0 21.191-5.132 27.427-15.398l49.524-86.326c-6.685 1.784-12.26 2.676-16.726 2.676l-122.452-.674zm92.35-183.352c-2.233 1.334-31.015 17.842-86.346 49.524a158851.25 158851.25 0 0 0 65.597 113.1h50.178c14.73 0 25.663-6.25 32.798-18.749 6.684-12.049 6.46-24.316-.674-36.8l-61.553-107.075z" font-size="40" font-weight="400" fill="#fff" font-family="NPSPICT3"></path></svg><svg version="1" width="580" height="580" id="icon-survey_point" y="10440"><path d="M66.275 1.768c-41.335 0-64.571 21.371-64.571 65.036v450.123c0 40.844 20.896 62.229 62.192 62.229H515.92c41.307 0 62.229-20.314 62.229-62.229V66.804c0-42.601-20.922-65.036-63.521-65.036-.004 0-448.495-.143-448.353 0z" fill="#111" stroke="#eee" stroke-width="3.408"></path><path clip-rule="evenodd" d="M293.415 110.488c25.988 0 47.077 22.024 47.077 49.163 0 27.14-21.09 49.163-47.077 49.163s-47.08-22.024-47.08-49.163c0-27.139 21.091-49.163 47.08-49.163" fill="#fff" fill-rule="evenodd"></path><path d="M222.508 105.594h145.974" fill="none" fill-rule="evenodd" stroke="#fff" stroke-width="45.087" stroke-linecap="round"></path><path d="M143.144 440.286l119.95-252.832M442.994 434.289L323.043 181.458" fill="none" fill-rule="evenodd" stroke="#fff" stroke-width="35.825" stroke-linecap="round"></path><path d="M292.605 513.807l.927-312.607" fill="none" fill-rule="evenodd" stroke="#fff" stroke-width="35.927" stroke-linecap="round"></path></svg><svg version="1" width="580" height="580" id="icon-telephone" y="11020"><path d="M66.275 1.768c-41.335 0-64.571 21.371-64.571 65.036v450.123c0 40.844 20.895 62.229 62.192 62.229H515.92c41.307 0 62.229-20.315 62.229-62.229V66.804c0-42.601-20.922-65.036-63.521-65.036-.004 0-448.495-.143-448.353 0z" fill="#111" stroke="#eee" stroke-width="3.408"></path><g transform="rotate(34.884 432.535 197.466) scale(1.16264)" fill="#fff"><path d="M309.337 64.044c-22.379 2.504-103.754 39.698-106.129 231.479-2.5 202.025 83.75 244.525 106.37 244.067V406.154c-18.62 0-22.366-20.275-26.62-62.106-2.814-27.679-3.634-61.942 0-96 2.552-23.897 7-47.223 26.5-47.223l-.121-136.781zM357.583 539.825c8.625 0 14.811-7.027 14.811-14.902l.062-.062-.062-104.063c0-8.25-6.686-14.754-14.811-14.754h-37.799v133.781s37.707.058 37.738.027l.061-.027zM357.583 200.825c8.625 0 14.811-7.027 14.811-14.902l.062-.062-.062-107.063c0-8.25-6.686-14.754-14.811-14.754h-37.799v136.781s37.707.058 37.738.027l.061-.027z"></path></g></svg><svg version="1" width="580" height="580" id="icon-toilets" y="11600"><path d="M66.275 1.768c-41.335 0-64.571 21.371-64.571 65.036v450.123c0 40.844 20.895 62.229 62.192 62.229H515.92c41.307 0 62.229-20.315 62.229-62.229V66.804c0-42.601-20.922-65.036-63.521-65.036-.004 0-448.495-.143-448.353 0z" fill="#111" stroke="#eee" stroke-width="3.408"></path><path style="text-align:start;line-height:125%;-inkscape-font-specification:NPSPICT3" d="M282.645 512.458h35.812V61.172h-35.812v451.286zm-107.681-368.86H102.68c-11.271.001-21.408 4.056-30.41 12.165-6.763 6.295-11.264 13.277-13.505 20.947l-31.09 103.353c-.894 2.254-1.34 4.282-1.34 6.082 0 10.364 5.174 15.545 15.524 15.545 7.216 0 11.951-4.054 14.205-12.164l28.37-94.59h15.524L53.344 363.15h45.275v131.062c0 11.71 5.628 17.566 16.885 17.566 11.257 0 16.886-5.855 16.886-17.566V362.49h16.906v132.403c0 11.256 5.628 16.885 16.885 16.885 11.257 0 16.885-5.629 16.885-16.885V363.15h45.255l-47.275-168.215h16.205l28.369 94.591c2.254 8.11 6.982 12.164 14.185 12.164 10.363 0 15.545-5.181 15.545-15.545 0-2.254-.447-4.281-1.34-6.082L222.92 176.71c-2.255-7.216-7.43-14.198-15.525-20.947-9.91-8.11-20.72-12.164-32.431-12.164zm-34.451-7.442c10.35 0 19.129-3.6 26.338-10.803 7.209-7.202 10.814-15.758 10.814-25.669 0-10.363-3.605-19.146-10.814-26.348-7.21-7.202-15.989-10.803-26.338-10.803-9.91 0-18.47 3.601-25.679 10.803-7.209 7.202-10.813 15.985-10.813 26.348 0 9.91 3.604 18.467 10.813 25.669 7.21 7.202 15.769 10.803 25.679 10.803zm316.015-.66c9.91 0 18.469-3.604 25.679-10.813 7.208-7.21 10.813-15.769 10.813-25.679 0-10.35-3.605-19.015-10.813-25.998-7.21-6.982-15.77-10.473-25.679-10.474-9.91 0-18.467 3.492-25.668 10.474-7.203 6.983-10.804 15.649-10.804 25.998 0 9.91 3.601 18.47 10.804 25.679 7.201 7.209 15.758 10.814 25.668 10.813zm47.976 7.422h-96.612c-13.058 0-24.204 4.619-33.44 13.855-9.237 9.237-13.856 20.61-13.855 34.121V303.03c0 10.818 4.954 16.226 14.865 16.226 9.456 0 14.184-5.408 14.184-16.226V193.595h17.566v297.257c0 13.51 6.755 20.266 20.267 20.266 13.51 0 20.266-6.755 20.266-20.266V318.576h17.566v172.276c0 13.51 6.755 20.266 20.266 20.266 13.964 0 20.947-6.755 20.947-20.266V193.595h16.886V303.03c0 11.257 4.727 16.886 14.184 16.886 9.47 0 14.205-5.629 14.205-16.886V191.554c0-13.057-4.392-24.427-13.174-34.11-8.783-9.684-20.157-14.525-34.121-14.526z" font-size="40" font-weight="400" fill="#fff" font-family="NPSPICT3"></path></svg><svg version="1" width="580" height="580" id="icon-toilets_disabled" y="12180"><defs id="defs4"><symbol viewBox="244.5 110 489 219.9" id="symbol-university"><path id="path4460" d="M79 43l57 119s21-96 104-96 124 106 124 106l43-133 82-17L0 17l79 26z"></path><path id="path4462" d="M94 176l-21 39" stroke-width="20" stroke="#000" fill="none"></path><path id="path4464" d="M300 19c0 10.5-22.6 19-50.5 19S199 29.5 199 19s22.6-19 50.5-19S300 8.5 300 19z"></path><path id="path4466" d="M112 216l-16-38-32-90s-9-8-4-35 16-24 16-24" stroke-width="20" stroke="#000"></path></symbol><style id="style6">.fil0{fill:#ef7900}</style></defs><g id="g1327"><path d="M66.275 1.768c-41.335 0-64.571 21.371-64.571 65.036v450.123c0 40.844 20.895 62.229 62.192 62.229H515.92c41.307 0 62.229-20.315 62.229-62.229V66.804c0-42.601-20.922-65.036-63.521-65.036-.004 0-448.495-.143-448.353 0z" id="path1329" fill="#111" stroke="#eee" stroke-width="3.408"></path></g><g transform="matrix(1.10364 0 0 1.06747 -199.607 -196.494)" id="layer1" fill="#fff"><path id="path1631" d="M475.142 512.185c-19.162-4.359-119.512-.723-148.53-.727-.894-63.056-1.12-126.121-1.654-189.182-18.056-18.971-8.599-53.276 16.514-60.645 24.863-10.242 55.536 12.785 51.49 39.828 1.088 21.363-23.752 26.564-32.134 38.343-.602 24.949-1.154 49.984.369 74.899 33.801 2.717 68.062.716 102.068 1.18v32.895h-99.93c-8.214 18.984-.064 34.643-1.87 32.897 37.596.182 99.192.073 136.789.103 21.564 44.32 42.313 89.258 64.082 133.326 22.868-2.764 39.47-15.687 48.162-16.243 9.524-.823 9.768 29.551 8.714 28.646-20.423 7.353-52.655 23.244-73.192 30.271-5.178-8.39-51.597-105.933-70.878-145.591zm-116.393 189.1c-44.85-4.99-76.218-18.396-100.148-39.891-34.22-29.829-53.99-75.906-48.721-121.464 2.553-51.654 37.037-98.4 82.695-121.082 7.246 6.712 2.372 24.031 3.668 35.444 1.932 9.901-11.19 12.62-15.996 19.465-33.91 32.492-41.34 87.917-19.904 129.324 22.676 47.05 80.051 76.564 131.23 62.166 38.373-9.643 68.773-38.605 88.97-71.574 8.445 6.773 26.444 35.452 8.221 48.104-30.801 38.687-80.15 62.95-130.015 59.508z"></path></g><path style="text-align:start;line-height:100%;-inkscape-font-specification:Arial #000" d="M248.39 29.175h37.026l13.347 70.522 19.46-70.522h36.94l19.546 70.522 13.347-70.522h36.854l-27.813 126.233h-38.232l-22.13-79.477-22.043 79.477h-38.231L248.39 29.175zm273.39 74.655l34.185 10.333c-2.296 9.587-5.913 17.594-10.85 24.024-4.937 6.43-11.064 11.28-18.384 14.552-7.319 3.272-16.633 4.908-27.941 4.908-13.72 0-24.928-1.995-33.625-5.984-8.697-3.99-16.203-11.008-22.517-21.054-6.315-10.045-9.472-22.904-9.472-38.576 0-20.895 5.554-36.954 16.662-48.177 11.108-11.222 26.822-16.834 47.143-16.834 15.901 0 28.401 3.215 37.5 9.644 9.099 6.43 15.858 16.303 20.278 29.621l-34.442 7.664c-1.206-3.846-2.469-6.66-3.79-8.439-2.18-2.985-4.85-5.28-8.007-6.888-3.158-1.608-6.688-2.411-10.591-2.411-8.84 0-15.615 3.559-20.322 10.677-3.559 5.281-5.338 13.576-5.338 24.885 0 14.007 2.124 23.608 6.372 28.803 4.247 5.195 10.218 7.793 17.91 7.793 7.462 0 13.102-2.096 16.92-6.286 3.817-4.19 6.587-10.276 8.31-18.255z" id="text5207" font-size="176.348" font-weight="400" fill="#fff" font-family="Arial #000"></path></svg><svg version="1" width="580" height="580" id="icon-toilets_men" y="12760"><path d="M66.275 1.768c-41.335 0-64.571 21.371-64.571 65.036v450.123c0 40.844 20.895 62.229 62.192 62.229H515.92c41.307 0 62.229-20.315 62.229-62.229V66.804c0-42.601-20.922-65.036-63.521-65.036-.004 0-448.495-.143-448.353 0z" fill="#111" stroke="#eee" stroke-width="3.408"></path><path style="text-align:start;line-height:125%;-inkscape-font-specification:NPSPICT3" d="M150.768 118.235c11.203 0 20.88-4.075 29.031-12.226 8.15-8.15 12.225-17.827 12.225-29.03 0-11.701-4.075-21.499-12.225-29.393-8.15-7.893-17.828-11.84-29.03-11.84-11.205 0-20.878 3.947-29.02 11.84-8.143 7.894-12.214 17.692-12.214 29.392 0 11.204 4.07 20.881 12.214 29.031 8.142 8.15 17.815 12.226 29.02 12.226zm54.24 8.39H95.782c-14.763.001-27.365 5.222-37.807 15.664-10.442 10.443-15.663 23.301-15.663 38.576V307.64c0 12.23 5.601 18.344 16.806 18.344 10.69 0 16.035-6.115 16.036-18.344V183.918h19.859v336.065c0 15.275 7.637 22.912 22.912 22.912 15.275 0 22.912-7.637 22.913-22.912V325.215h19.859v194.768c-.001 15.275 7.637 22.912 22.912 22.912 15.787 0 23.681-7.637 23.682-22.912V183.918h19.09v123.723c-.001 12.726 5.344 19.09 16.036 19.09 10.706 0 16.059-6.364 16.06-19.09V181.61c-.001-14.762-4.966-27.617-14.895-38.564-9.93-10.947-22.789-16.42-38.576-16.421z" font-size="40" font-weight="400" fill="#fff" font-family="NPSPICT3"></path><path style="text-align:start;line-height:100%;-inkscape-font-specification:Arial #000" d="M243.315 414.852h37.026l13.346 70.522 19.46-70.522h36.94l19.547 70.522 13.347-70.522h36.854l-27.813 126.234H353.79l-22.13-79.477-22.043 79.477h-38.231l-28.071-126.234zm273.39 74.655l34.185 10.333c-2.297 9.587-5.913 17.595-10.85 24.024-4.937 6.43-11.065 11.28-18.384 14.552-7.319 3.272-16.633 4.908-27.941 4.908-13.72 0-24.929-1.994-33.625-5.984-8.697-3.99-16.203-11.007-22.517-21.053-6.315-10.046-9.472-22.905-9.472-38.576 0-20.896 5.554-36.955 16.662-48.177 11.107-11.223 26.822-16.834 47.143-16.834 15.901 0 28.401 3.214 37.5 9.644s15.858 16.303 20.278 29.62l-34.443 7.664c-1.205-3.846-2.468-6.659-3.788-8.438-2.182-2.985-4.851-5.282-8.008-6.889-3.158-1.607-6.688-2.41-10.592-2.411-8.84 0-15.614 3.56-20.32 10.677-3.56 5.282-5.34 13.577-5.34 24.885 0 14.007 2.124 23.608 6.372 28.803 4.248 5.195 10.218 7.793 17.91 7.793 7.463 0 13.103-2.095 16.92-6.286 3.818-4.19 6.588-10.275 8.31-18.255z" font-size="176.348" font-weight="400" fill="#fff" font-family="Arial #000"></path></svg><svg version="1" width="580" height="580" id="icon-toilets_women" y="13340"><path d="M66.275 1.768c-41.335 0-64.571 21.371-64.571 65.036v450.123c0 40.844 20.895 62.229 62.192 62.229H515.92c41.307 0 62.229-20.315 62.229-62.229V66.804c0-42.601-20.922-65.036-63.521-65.036-.004 0-448.495-.143-448.353 0z" fill="#111" stroke="#eee" stroke-width="3.408"></path><path style="text-align:start;line-height:125%;-inkscape-font-specification:NPSPICT3" d="M195.93 122.339h-84.77c-13.217 0-25.105 4.755-35.662 14.265-7.931 7.383-13.21 15.571-15.837 24.565L23.2 282.375c-1.048 2.643-1.572 5.02-1.572 7.132 0 12.154 6.069 18.23 18.207 18.23 8.462 0 14.015-4.754 16.658-14.265l33.27-110.93h18.206L53.302 379.814h53.095v153.701c0 13.734 6.6 20.6 19.802 20.6s19.802-6.866 19.802-20.6V379.04h19.827v155.273c0 13.202 6.6 19.802 19.802 19.802 13.2 0 19.801-6.6 19.802-19.802V379.813h53.07l-55.44-197.27h19.004l33.27 110.93c2.643 9.51 8.188 14.265 16.634 14.265 12.153 0 18.23-6.077 18.23-18.23 0-2.644-.524-5.022-1.571-7.133l-36.46-121.206c-2.645-8.462-8.713-16.65-18.207-24.565-11.622-9.51-24.3-14.265-38.032-14.265zm-40.402-8.729c12.137 0 22.433-4.222 30.887-12.67 8.454-8.445 12.682-18.479 12.682-30.101 0-12.153-4.228-22.453-12.682-30.9-8.454-8.446-18.75-12.669-30.887-12.67-11.622.001-21.66 4.224-30.114 12.67-8.455 8.447-12.682 18.747-12.682 30.9 0 11.622 4.227 21.656 12.682 30.102 8.454 8.447 18.492 12.67 30.114 12.67z" font-size="40" font-weight="400" fill="#fff" font-family="NPSPICT3"></path><path style="text-align:start;line-height:100%;-inkscape-font-specification:Arial #000" d="M245.485 418.107h37.026l13.346 70.522 19.46-70.522h36.94l19.547 70.522 13.347-70.522h36.853l-27.812 126.234H355.96l-22.13-79.477-22.043 79.477h-38.231l-28.071-126.234zm273.39 74.655l34.185 10.333c-2.297 9.587-5.913 17.595-10.85 24.024-4.937 6.43-11.065 11.28-18.384 14.552-7.319 3.272-16.633 4.908-27.942 4.908-13.72 0-24.928-1.995-33.624-5.984-8.697-3.99-16.203-11.008-22.517-21.053-6.315-10.046-9.472-22.905-9.472-38.576 0-20.896 5.554-36.955 16.662-48.177 11.107-11.223 26.822-16.834 47.143-16.834 15.901 0 28.401 3.214 37.5 9.644 9.098 6.43 15.858 16.303 20.278 29.62l-34.443 7.664c-1.205-3.846-2.468-6.659-3.788-8.438-2.182-2.985-4.851-5.282-8.008-6.889-3.158-1.607-6.688-2.41-10.592-2.411-8.84 0-15.614 3.56-20.32 10.677-3.56 5.282-5.34 13.577-5.34 24.885 0 14.007 2.124 23.608 6.372 28.803 4.248 5.195 10.218 7.793 17.91 7.793 7.463 0 13.103-2.095 16.92-6.286 3.818-4.19 6.588-10.275 8.31-18.255z" font-size="176.348" font-weight="400" fill="#fff" font-family="Arial #000"></path></svg><svg version="1" width="580" height="580" id="icon-town_hall" y="13920"><path d="M66.275 1.768c-41.335 0-64.571 21.371-64.571 65.036v450.123c0 40.844 20.895 62.229 62.192 62.229H515.92c41.307 0 62.229-20.315 62.229-62.229V66.804c0-42.601-20.922-65.036-63.521-65.036-.004 0-448.495-.143-448.353 0z" fill="#111" stroke="#eee" stroke-width="3.408"></path><path d="M286.944 44.002L34.884 235.909h50.412V543.77h403.296V235.909h50.412L286.944 44.002z" font-size="12" opacity=".2" fill="#fff" fill-rule="evenodd" stroke="#fff" stroke-width="1.241"></path><path d="M286.944 34.002L34.884 225.909h50.412V543.77h403.296V225.909h50.412L286.944 34.002z" font-size="12" fill="none" fill-rule="evenodd" stroke="#fff" stroke-width="20" stroke-linejoin="round"></path><g transform="translate(20.714 6.905)"><g transform="rotate(23.569 142.463 399.342) scale(.79507)" fill="#fff"><path d="M266.313 331.063c-4.378 5.92-29.899 10.468-60.72 10.468-30.394 0-55.61-4.418-60.5-10.219v74.25c-.117.312-.187.62-.187.938 0 6.78 27.162 12.281 60.688 12.281 33.313 0 60.346-5.436 60.687-12.156h.031v-75.563z"></path><path d="M266.984 311.26c0 6.779-27.479 12.274-61.376 12.274-33.896 0-61.375-5.495-61.375-12.275s27.479-12.275 61.375-12.275c33.897 0 61.376 5.496 61.376 12.275z" stroke="#000" stroke-width=".5" stroke-linecap="round"></path><path d="M266.313 417.063c-4.378 5.92-29.899 10.468-60.72 10.468-30.394 0-55.61-4.418-60.5-10.219v8.25c-.117.312-.187.62-.187.938 0 6.78 27.162 12.281 60.688 12.281 33.313 0 60.346-5.436 60.687-12.156h.031v-9.563zM266.313 311.063c-4.378 5.92-29.899 10.468-60.72 10.468-30.394 0-55.61-4.418-60.5-10.219v8.25c-.117.312-.187.62-.187.938 0 6.78 27.162 12.281 60.688 12.281 33.313 0 60.346-5.436 60.687-12.156h.031v-9.563z"></path></g><g transform="translate(-6 -2)"><path d="M439.401 412.045c4.443 7.086 1.973 17.698-5.516 23.702-7.489 6.004-17.161 5.127-21.604-1.96-4.443-7.085-1.973-17.696 5.516-23.7 7.489-6.004 17.161-5.127 21.604 1.958z" fill="#fff"></path><path d="M422.725 421.19l-192.566-97.433" fill="none" stroke="#fff" stroke-width="35.8" stroke-linecap="round" stroke-linejoin="round"></path></g></g><g transform="translate(-173.926 -301.912) scale(1.73673)" fill="#fff"><path d="M265.09 422.652c.026 5.39-21.8 9.864-48.75 9.993-26.95.128-48.818-4.137-48.844-9.527-.026-5.39 21.8-9.863 48.75-9.992 26.95-.129 48.819 4.136 48.844 9.526z" stroke="#000" stroke-width=".397535" stroke-linecap="round"></path><path d="M264.556 422.498c-3.458 4.724-23.732 8.437-48.236 8.554-24.165.116-44.23-3.301-48.14-7.895l.032 6.56a2.101 2.101 0 0 0-.146.746c.026 5.39 21.642 9.66 48.297 9.534 26.486-.127 47.958-4.552 48.204-9.896h.025v-.1l-.036-7.503z"></path></g></svg><svg version="1" width="580" height="580" id="icon-town_hall2" y="14500"><path d="M66.275 1.768c-41.335 0-64.571 21.371-64.571 65.036v450.123c0 40.844 20.895 62.229 62.192 62.229H515.92c41.307 0 62.229-20.315 62.229-62.229V66.804c0-42.601-20.922-65.036-63.521-65.036-.004 0-448.495-.143-448.353 0z" fill="#111" stroke="#eee" stroke-width="3.408"></path><path d="M286.944 44.002L34.884 235.909h50.412V543.77h403.296V235.909h50.412L286.944 44.002z" font-size="12" opacity=".2" fill="#fff" fill-rule="evenodd" stroke="#fff" stroke-width="1.241"></path><path d="M286.944 34.002L34.884 225.909h50.412V543.77h403.296V225.909h50.412L286.944 34.002z" font-size="12" fill="none" fill-rule="evenodd" stroke="#fff" stroke-width="20" stroke-linejoin="round"></path><path d="M160.095 353.291h257.26l46.057 39.774H113.545zM114.095 515.291h349.26l.057-100.226H113.545z" opacity=".5" fill="#fff" stroke="#fff" stroke-width="10" stroke-linecap="round" stroke-linejoin="round"></path><path style="text-align:start;line-height:125%;-inkscape-font-specification:NPSPICT3" d="M209.313 161.969c-9.562 0-17.855 3.44-24.938 10.344-7.082 6.904-10.656 15.31-10.656 25.218 0 9.92 3.574 18.346 10.656 25.25 7.083 6.905 15.376 10.344 24.938 10.344.352 0 .713-.023 1.062-.031.353.01.706.031 1.063.031 9.562 0 17.885-3.44 24.968-10.344 7.083-6.904 10.594-15.33 10.594-25.25 0-9.907-3.511-18.314-10.594-25.219-7.083-6.903-15.407-10.343-24.969-10.343-.356 0-.71-.01-1.062 0-.349-.008-.71 0-1.063 0zm-27.063 79.125c-2.163 0-4.121.215-5.875.687a30.342 30.342 0 0 0-3.469-.125c-7.935.192-15.742 3.646-21.22 9.39-5.478 5.744-8.558 13.707-8.373 21.642l.656 70.75v.093c3.22-2.312 6.586-4.42 10.219-6.187 39.644-1.165 79.342-1.26 119.062-1.157l-.594-64.062c.025-7.652-2.977-15.272-8.212-20.852-5.236-5.58-12.65-9.06-20.288-9.523-1.688-.428-3.535-.656-5.594-.656zM367.242 161.969c9.562 0 17.855 3.44 24.938 10.344 7.082 6.904 10.656 15.31 10.656 25.218 0 9.92-3.574 18.346-10.656 25.25-7.083 6.905-15.376 10.344-24.938 10.344-.352 0-.714-.023-1.062-.031-.353.01-.706.031-1.063.031-9.562 0-17.886-3.44-24.969-10.344-7.082-6.904-10.593-15.33-10.593-25.25 0-9.907 3.511-18.314 10.593-25.219 7.083-6.903 15.407-10.343 24.97-10.343.356 0 .709-.01 1.062 0 .348-.008.71 0 1.062 0zm27.063 79.125c2.162 0 4.12.215 5.875.687a30.342 30.342 0 0 1 3.468-.125c7.935.192 15.743 3.646 21.22 9.39 5.478 5.744 8.56 13.707 8.374 21.642l-.656 70.75v.093c-3.221-2.312-6.586-4.42-10.219-6.187-39.644-1.165-79.343-1.26-119.062-1.157l.593-64.062c-.024-7.652 2.977-15.272 8.213-20.852 5.235-5.58 12.65-9.06 20.287-9.523 1.688-.428 3.535-.656 5.594-.656z" font-size="40" font-weight="400" fill="#fff" stroke="#fff" stroke-width="1.389" stroke-linecap="round" stroke-linejoin="round" font-family="NPSPICT3"></path></svg><svg version="1" width="580" height="580" id="icon-waste_bin" y="15080"><path d="M66.275 1.768c-41.335 0-64.571 21.371-64.571 65.036v450.123c0 40.844 20.894 62.229 62.192 62.229H515.92c41.307 0 62.229-20.316 62.229-62.229V66.804c0-42.601-20.922-65.036-63.522-65.036-.003 0-448.494-.143-448.352 0z" fill="#111" stroke="#eee" stroke-width="3.408"></path><g transform="translate(106.15 44.193)" fill="#fff"><path d="M268.409 81.671c22.55 0 40.834-18.284 40.834-40.835C309.243 18.284 290.959 0 268.409 0c-22.552 0-40.834 18.284-40.834 40.836 0 22.551 18.282 40.835 40.834 40.835zM215.941 156.723l.25 311.75c0 31.184 45.858 30.899 45.858-.714l.027-181.366 8.926-.086-.028 181.367c0 31.612 46.393 32.411 46.393.799l.027-313.057h8.058v111.795c0 26.838 36.42 26.838 36.42.48V145.393c0-32.876-24.469-52.237-50.348-52.237h-72.611c-17.222 0-29.722 6.817-40.222 21.817l-36.75 53.554h-63.77c-25.624 0-24.186 36.34-.48 36.34h73.5c5.751 0 12.75-2.144 16.773-8.148l27.977-39.996z"></path><g><path d="M96.123 347.927v-29.863H66.26v29.863h29.863zM112.332 281.652L90.581 259.9l-21.75 21.752 21.75 21.749 21.751-21.749zM92.042 240.571L70.29 218.822l-21.751 21.749 21.751 21.752 21.752-21.752z"></path><path d="M137.191 491.561L175.967 285.4h-29.172l-33.984 177.447H62.428L29.172 285.473H0l38.048 206.088h99.143z"></path></g></g></svg></svg>