<?xml version="1.0" encoding="UTF-8" standalone="no"?>
<svg xmlns:rdf="http://www.w3.org/1999/02/22-rdf-syntax-ns#" xmlns="http://www.w3.org/2000/svg" version="1.0" xmlns:cc="http://creativecommons.org/ns#" xmlns:dc="http://purl.org/dc/elements/1.1/" viewBox="0 0 576.44501 577.45154">
<path d="m64.571 0.06355556c-41.335 0-64.571 21.371-64.571 65.036v450.123c0 40.844 20.895 62.229 62.192 62.229h452.024c41.307 0 62.229-20.315 62.229-62.229v-450.123c0-42.601-20.922-65.036-63.521-65.036-0.004 0-448.495-0.143-448.353 0z"/>
<path opacity=".25" fill="#fff" d="m210.23258 501.19971c-0.31594-35.48471-1.2165-65.15974-2.00123-65.94448-1.49389-1.49388-65.5589 7.53167-103.79687 14.62304-21.96075 4.0727-29.921853 2.93418-29.921853-4.27904 0-2.02401 18.139252-26.18113 40.309453-53.68251l40.30941-50.00256-13.46797-7.9463c-7.40741-4.37046-14.26519-7.94631-15.23951-7.94631-0.97436 0-10.87836-5.85109-22.00887-13.00244-11.130538-7.15138-28.604517-17.72369-38.831032-23.49406-14.421183-8.13726-18.3252-12.35983-17.39727-18.81694 0.973242-6.77237 4.802106-8.86755 20.526699-11.23222 40.515403-6.09268 102.45063-19.82678 102.45063-22.71838 0-1.66036-8.85878-28.42565-19.68619-59.47847-19.30061-55.35384-21.07077-67.75693-9.6701-67.75693 3.12452 0 28.17443 13.04795 55.6665 28.99547 27.49211 15.94749 51.65495 28.99544 53.69522 28.99544 2.04032 0 8.6526-14.19937 14.69398-31.55412 24.21563-69.563145 31.92331-86.309947 40.31688-87.598429 4.43441-0.680707 8.81605 1.059029 9.73698 3.866065 1.70153 5.186272 24.56731 68.907294 35.47363 98.855734 3.29095 9.03693 7.41209 16.43075 9.15805 16.43075 1.74594 0 24.65345-12.73888 50.90555-28.30869 54.73683-32.4637 58.13792-34.00254 65.3289-29.55828 4.28023 2.64532 1.37822 14.6501-15.10029 62.46581-11.21934 32.55515-20.72031 60.78176-21.1133 62.72577-0.67308 3.3295 66.32666 18.08904 106.56869 23.47628 15.62657 2.09191 18.3433 3.71961 18.22627 10.9201-0.10906 6.7092-10.91884 14.84515-52.19183 39.28183-28.62987 16.95102-52.05432 32.29525-52.05432 34.09832 0 1.80305 17.39729 24.6972 38.66063 50.87597 21.26333 26.17873 38.6606 49.54342 38.6606 51.92156 0 6.11796-15.0092 5.42154-73.45516-3.40829-28.14911-4.25267-53.58247-7.73211-56.51857-7.73211-4.33115 0-5.33842 12.40067-5.33842 65.72305 0 83.52355-0.059 83.54462-54.12487 19.3303-21.48346-25.51601-40.63273-46.39274-42.55397-46.39274s-20.46279 20.87673-41.20348 46.39274c-27.11952 33.36349-40.0594 46.39273-46.07448 46.39273-8.21767 0-8.37417-1.12939-8.93849-64.51766zm65.55549-59.19631c13.64271-17.01066 27.43347-30.91461 30.64615-30.89767 3.21266 0.017 17.14943 13.89679 30.9706 30.84406l25.12941 30.8132 0.96573-33.7436c1.33302-46.57596 2.72202-51.14545 15.53867-51.11927 5.80691 0.0118 16.64707 1.58523 24.08924 3.49642 20.61505 5.29408 46.39275 7.70824 46.39275 4.34484 0-1.64976-10.61475-16.29735-23.58833-32.55012-12.97356-16.2528-22.683-31.90984-21.5764-34.79348 1.10654-2.8836 16.15035-13.59174 33.43068-23.79587 17.28036-10.20409 32.1758-19.77769 33.10098-21.2747 0.9252-1.49698-7.41827-4.08906-18.541-5.76013-11.12279-1.67111-21.09309-3.28078-22.15626-3.57703-1.06316-0.29629-10.19673-1.86495-20.29681-3.48594-22.64858-3.63493-23.13169-7.41021-6.7525-52.76854 6.38619-17.68511 10.85435-32.91163 9.92923-33.83673-0.9251-0.92513-16.75206 7.1877-35.17102 18.0285-18.419 10.8408-35.00407 19.71055-36.85571 19.71055-4.81627 0-9.27732-9.46903-21.44918-45.52801-5.90259-17.48627-11.8211-31.79321-13.1523-31.79321-1.33117 0-8.39203 16.70126-15.69072 37.11395-7.29875 20.41265-15.30682 37.94301-17.7958 38.95633-4.22568 1.72039-18.22221-5.13293-58.29812-28.54545-9.03691-5.27942-16.43077-7.83253-16.43077-5.67356 0 2.15896 5.2192 18.71242 11.5982 36.7855 6.37901 18.07306 11.59818 35.53014 11.59818 38.79349 0 6.22613-9.21828 8.74875-59.0442 16.15754-10.14784 1.50893-19.27931 4.08442-20.29222 5.72336-1.01292 1.63889 3.88342 6.19386 10.88072 10.12208 39.29992 22.06269 52.98673 30.81096 54.6039 34.90151 0.9922 2.50956-3.21632 11.2082-9.35227 19.33028-6.1359 8.12211-17.44874 23.15363-25.1396 33.40337l-13.98343 18.63593 18.59885-2.54607c10.22935-1.40038 24.68791-4.1227 32.13007-6.04967 7.44217-1.92699 18.31547-3.51333 24.16288-3.52514l10.63167-0.0216 0.0528 33.82805c0.0448 28.70129 2.4689 51.22531 5.51303 51.22531 0.43888 0 11.9602-13.91782 25.60292-30.9285z"/>
<path fill="#fff" d="m170.23258 461.19971c-0.31594-35.48471-1.2165-65.15974-2.00123-65.94448-1.49389-1.49388-65.5589 7.53167-103.79687 14.62304-21.960747 4.0727-29.92185 2.93418-29.92185-4.27904 0-2.02401 18.139252-26.18113 40.309451-53.68251l40.309409-50.00256-13.46797-7.9463c-7.407407-4.37046-14.265187-7.94631-15.239507-7.94631-0.97436 0-10.878356-5.85109-22.008871-13.00244-11.130537-7.15138-28.604516-17.72369-38.831031-23.49406-14.421183-8.13726-18.3252-12.35983-17.39727-18.81694 0.973242-6.77237 4.802106-8.86755 20.526699-11.23222 40.515401-6.09268 102.45063-19.82678 102.45063-22.71838 0-1.66036-8.85878-28.42565-19.68619-59.47847-19.30061-55.353844-21.07077-67.756936-9.6701-67.756936 3.12452 0 28.17443 13.047952 55.6665 28.995472 27.49211 15.947494 51.65495 28.995444 53.69522 28.995444 2.04032 0 8.6526-14.19937 14.69398-31.554124 24.21563-69.563141 31.92331-86.309943 40.31688-87.598425 4.43441-0.680707 8.81605 1.059029 9.73698 3.866065 1.70153 5.186272 24.56731 68.90729 35.47363 98.855734 3.29095 9.03693 7.41209 16.43075 9.15805 16.43075 1.74594 0 24.65345-12.73888 50.90555-28.308694 54.73683-32.463697 58.13792-34.002537 65.3289-29.558277 4.28023 2.64532 1.37822 14.650097-15.10029 62.465811-11.21934 32.55515-20.72031 60.78176-21.1133 62.72577-0.67308 3.3295 66.32666 18.08904 106.56869 23.47628 15.62657 2.09191 18.3433 3.71961 18.22627 10.9201-0.10906 6.7092-10.91884 14.84515-52.19183 39.28183-28.62987 16.95102-52.05432 32.29525-52.05432 34.09832 0 1.80305 17.39729 24.6972 38.66063 50.87597 21.26333 26.17873 38.6606 49.54342 38.6606 51.92156 0 6.11796-15.0092 5.42154-73.45516-3.40829-28.14911-4.25267-53.58247-7.73211-56.51857-7.73211-4.33115 0-5.33842 12.40067-5.33842 65.72305 0 83.52355-0.059 83.54462-54.12487 19.3303-21.48346-25.51601-40.63273-46.39274-42.55397-46.39274s-20.46279 20.87673-41.20348 46.39274c-27.11952 33.36349-40.0594 46.39273-46.07448 46.39273-8.21767 0-8.37417-1.12939-8.93849-64.51766zm65.55549-59.19631c13.64271-17.01066 27.43347-30.91461 30.64615-30.89767 3.21266 0.017 17.14943 13.89679 30.9706 30.84406l25.12941 30.8132 0.96573-33.7436c1.33302-46.57596 2.72202-51.14545 15.53867-51.11927 5.80691 0.0118 16.64707 1.58523 24.08924 3.49642 20.61505 5.29408 46.39275 7.70824 46.39275 4.34484 0-1.64976-10.61475-16.29735-23.58833-32.55012-12.97356-16.2528-22.683-31.90984-21.5764-34.79348 1.10654-2.8836 16.15035-13.59174 33.43068-23.79587 17.28036-10.20409 32.1758-19.77769 33.10098-21.2747 0.9252-1.49698-7.41827-4.08906-18.541-5.76013-11.12279-1.67111-21.09309-3.28078-22.15626-3.57703-1.06316-0.29629-10.19673-1.86495-20.29681-3.48594-22.64858-3.63493-23.13169-7.41021-6.7525-52.76854 6.38619-17.68511 10.85435-32.91163 9.92923-33.83673-0.9251-0.92513-16.75206 7.1877-35.17102 18.0285-18.419 10.8408-35.00407 19.71055-36.85571 19.71055-4.81627 0-9.27732-9.46903-21.44918-45.52801-5.90259-17.48627-11.8211-31.79321-13.1523-31.79321-1.33117 0-8.39203 16.70126-15.69072 37.11395-7.29875 20.41265-15.30682 37.94301-17.7958 38.95633-4.22568 1.72039-18.22221-5.13293-58.29812-28.54545-9.03691-5.27942-16.43077-7.83253-16.43077-5.67356 0 2.15896 5.2192 18.71242 11.5982 36.7855 6.37901 18.07306 11.59818 35.53014 11.59818 38.79349 0 6.22613-9.21828 8.74875-59.0442 16.15754-10.14784 1.50893-19.27931 4.08442-20.29222 5.72336-1.01292 1.63889 3.88342 6.19386 10.88072 10.12208 39.29992 22.06269 52.98673 30.81096 54.6039 34.90151 0.9922 2.50956-3.21632 11.2082-9.35227 19.33028-6.1359 8.12211-17.44874 23.15363-25.1396 33.40337l-13.98343 18.63593 18.59885-2.54607c10.22935-1.40038 24.68791-4.1227 32.13007-6.04967 7.44217-1.92699 18.31547-3.51333 24.16288-3.52514l10.63167-0.0216 0.0528 33.82805c0.0448 28.70129 2.4689 51.22531 5.51303 51.22531 0.43888 0 11.9602-13.91782 25.60292-30.9285z"/>
</svg>
