<?xml version="1.0" encoding="UTF-8" standalone="no"?>
<svg xmlns:rdf="http://www.w3.org/1999/02/22-rdf-syntax-ns#" xmlns="http://www.w3.org/2000/svg" version="1.0" xmlns:cc="http://creativecommons.org/ns#" xmlns:dc="http://purl.org/dc/elements/1.1/" viewBox="0 0 576.44501 577.45154">
<path d="m64.571 0.06355556c-41.335 0-64.571 21.371-64.571 65.036v450.123c0 40.844 20.895 62.229 62.192 62.229h452.024c41.307 0 62.229-20.315 62.229-62.229v-450.123c0-42.601-20.922-65.036-63.521-65.036-0.004 0-448.495-0.143-448.353 0z"/>
<path opacity=".25" d="m205.35504 371.2962h168.92059v168.92059h-168.92059z" fill="#fff"/>
<path style="color-rendering:auto;text-decoration-color:#000000;color:#000000;isolation:auto;mix-blend-mode:normal;shape-rendering:auto;solid-color:#000000;block-progression:tb;text-decoration-line:none;text-decoration-style:solid;image-rendering:auto;white-space:normal;text-indent:0;text-transform:none" d="m289.9542 23.084618c-16.65855 0.224925-15.71605 13.178138-16.82422 24.830079-8.65843 1.931533-9.2475 0.461485-16.93945 2.367187-25.31601 6.272073-42.85348 16.797124-63.80469 37.75586-20.44196 20.449316-30.53969 37.809006-37.33984 64.197266l-4.07422 15.81836-8.63672 0.51953c-11.52508 0.6941-17.83984 6.70448-17.83984 16.97852 0 11.30293 7.42328 18.78516 18.63672 18.78516 3.58539 0 5.46067 0.13262 8.85351 0.39453 11.12409 55.67272 56.96761 109.40009 108.80078 119.59765l13.35743 2.62891v8.91016c0 5.83991 1.58734 10.49555 4.60546 13.51367 5.91564 5.91563 20.8256 6.24696 25.94922 0.57617 2.00215-2.21596 3.97469-8.14417 4.38477-13.17188l0.74609-9.14062 17.26758-4.79492c33.53705-9.31124 62.42315-29.61377 80.95313-56.90039 10.51359-15.48192 19.93039-37.03392 22.33007-51.10742 1.53222-8.98611 1.99127-9.40741 11.68555-10.70899 14.80771-1.9881 22.12562-13.16393 17.13477-26.16992-2.01496-5.25091-13.8708-10.88503-21.10742-10.03125-5.48229 0.64681-6.25449-0.20555-7.69336-8.49024-9.09116-52.34544-55.682-99.151914-107.56446-109.82031-8.62882-1.774309-10.24577-1.921701-15.23047-2.410156-0.0599-14.726123-1.44752-23.602317-15.98242-24.109375-0.57466-0.0197-1.13059-0.02483-1.66797-0.01758zm-15.81054 59.142579v29.974613c0 16.48554-0.28008 29.97266-0.62305 29.97266-1.55 0-40.46648-40.62087-40.81836-42.183604-0.56052-2.489374 23.57131-15.829089 35.10937-16.333982l6.33204-1.429687zm35.68554 1.238281 5.75586 0.720703c3.16566 0.395811 13.04434 1.74319 21.64258 5.779297l15.37891 9.617188-22.02735 21.871094-22.02929 21.8711 0.64062-29.92969 0.63867-29.929692zm-104.11718 42.171882 20.40234 20.30664c11.22139 11.1694 20.40234 20.84827 20.40234 21.50781s-12.95101 1.19922-28.77929 1.19922c-25.02479 0-27.51228 0.2724-29.03125 0.0586 3.03795-16.55562 6.57669-26.20017 12.09375-35.12695l4.91211-7.94531zm172.31445 0.42187c0.99804 0 6.70526 7.40127 10.4668 15.78906 3.72288 8.30159 5.50474 17.57307 5.87695 20.60157 0.63824 5.19292 0.36757 5.24817-28.71094 5.72265-16.14505 0.26345-29.35372-0.0612-29.35351-0.7207 0.00051-1.65204 40.05607-41.39258 41.7207-41.39258zm-85.38867 38.62305c5.38666 0.0733 10.64965 2.5969 15.22656 7.61523 5.74006 6.29367 7.60877 14.03352 4.55273 21.34766-1.91738 4.58891-8.41542 11.41337-12.375 13.46094-8.33891 4.31222-18.78388 1.11176-25.23828-6.44141-5.62759-6.58562-8.05403-19.55555 1.85742-28.89453 5.07849-4.78517 10.5899-7.16121 15.97657-7.08789zm-104.19141 39.6543h30.48438 30.48242l-21.33203 20.14453c-11.73319 11.07979-22.00614 20.41635-22.82813 20.74804-2.24506 0.90591-13.46071-23.05538-15.24609-32.57226l-1.56055-8.32031zm146.80469 0h30.5 30.50195l-1.42969 7.59765c-0.78644 3.48222-2.35198 10.02141-5.95507 17.93555-3.60307 7.91414-9.43004 15.9082-10.47266 15.9082s-11.17597-9.32434-22.51953-20.7207l-20.625-20.7207zm-62.88477 27.62695c0.97767 0 1.77735 12.95102 1.77735 28.7793 0 18.05855-0.26656 25.27223 0.37304 30.08203-3.86799-0.58331-12.31994-1.79034-22.57422-6.00586-12.23808-5.03107-17.1282-10.52862-19.91406-12.56836 2.26007-3.26233 8.34-9.90878 19.10742-20.73242 10.6987-10.75457 20.25282-19.55469 21.23047-19.55469zm38.08594 0c0.97611 0 11.01792 9.28565 22.31445 20.63476l20.53907 20.63477-10.02149 6.17773c-8.15728 3.81571-18.1991 7.61186-22.31445 8.4336l-12.29102 2.25195v-29.0664c0-15.98657 0.79734-29.06641 1.77344-29.06641zm-105.09766 129.26562a10.068976 10.068976 0 0 0 -10.06836 10.06641v168.92188a10.068976 10.068976 0 0 0 10.06836 10.0664h168.92188a10.068976 10.068976 0 0 0 10.06641 -10.0664v-168.92188a10.068976 10.068976 0 0 0 -10.06641 -10.06641h-168.92188zm10.06836 20.13477h148.78516v148.78516h-148.78516v-148.78516z" fill="#fff"/>
</svg>
