<?xml version="1.0" encoding="UTF-8" standalone="no"?>
<svg xmlns:rdf="http://www.w3.org/1999/02/22-rdf-syntax-ns#" xmlns="http://www.w3.org/2000/svg" version="1.0" xmlns:cc="http://creativecommons.org/ns#" xmlns:dc="http://purl.org/dc/elements/1.1/" viewBox="0 0 576.44501 577.45154">
<path d="m64.571 0.06355556c-41.335 0-64.571 21.371-64.571 65.036v450.123c0 40.844 20.895 62.229 62.192 62.229h452.024c41.307 0 62.229-20.315 62.229-62.229v-450.123c0-42.601-20.922-65.036-63.521-65.036-0.004 0-448.495-0.143-448.353 0z" fill="#111"/>
<path opacity=".25" fill="#fff" d="m278.49949 555.39895c-4.76979-4.76976-7.277-12.1283-7.277-21.35756v-14.08061l-21.11016-4.15316c-81.91597-16.11599-154.36565-101.0274-171.94592-189.01131-5.361965-0.41392-8.326724-0.62254-13.99299-0.62254-17.721468 0-29.4531-11.82525-29.4531-29.68816 0-16.23685 9.980352-25.73492 28.194329-26.83186l13.648368-0.82197 6.441555-24.99684c10.746788-41.70341 26.704218-69.13914 59.010228-101.45677 33.11082-33.12271 60.82479-49.756605 100.83364-59.668849 12.15619-3.01172 13.08964-0.688667 26.77322-3.741205 1.80782-19.008484 0.16089-40.208094 29.2229-39.211587 22.97063 0.801346 25.16351 14.827227 25.25825 38.100051 7.87771 0.771951 10.43492 1.004742 24.07171 3.808828 81.99388 16.860098 155.62447 90.832152 169.99193 173.5577 2.27396 13.09294 3.49453 14.43991 12.15862 13.4177 11.4366-1.34929 30.17095 7.55485 33.35535 15.85326 7.88743 20.55437-3.67575 38.21578-27.07752 41.35773-15.32063 2.05699-16.04727 2.72283-18.46875 16.92427-3.7924 22.24146-18.67363 56.30113-35.28907 80.76841-29.28436 43.12316-74.93601 75.21163-127.93721 89.9269l-27.2887 7.57647-1.1783 14.44667c-0.64809 7.94569-3.76714 17.312-6.9313 20.81405-8.09725 8.962-31.66115 8.43931-41.01008-0.90962zm-7.277-140.08205c0-25.01465-1.26412-45.48119-2.80921-45.48119-1.54506 0-16.64302 13.90605-33.551 30.90232-17.01659 17.10544-26.62556 27.60904-30.19731 32.76476 4.4027 3.22355 12.13124 11.9125 31.47203 19.86349 16.20563 6.66211 29.56233 8.57051 35.67521 9.49236-1.01081-7.60129-0.58972-19.00241-0.58972-47.54174zm109.26858 29.50401 15.83751-9.76383-32.4596-32.61068c-17.85278-17.93587-33.72171-32.61069-35.26433-32.61069-1.54261 0-2.80474 20.6712-2.80474 45.93599v45.93601l19.42684-3.5615c6.50381-1.29866 22.37274-7.29504 35.26432-13.3253zm-182.06519-86.81031 33.71426-31.83683h-48.1759-48.17592l2.46669 13.14861c2.82157 15.04027 20.5466 52.90979 24.09465 51.47812 1.29906-0.52421 17.53335-15.27965 36.07622-32.7899zm254.10354 8.51495c5.69424-12.50733 8.16933-22.84226 9.41221-28.34548l2.25972-12.0063h-48.20351-48.2035l32.59473 32.74644c17.9271 18.01055 33.94289 32.74648 35.59062 32.74648s10.85552-12.63381 16.54973-25.14114zm-140.37838-35.97359c6.25765-3.23593 16.52893-14.02093 19.55911-21.27314 4.8297-11.5591 1.87382-23.79282-7.19764-33.7392-14.46647-15.86172-33.25916-15.95674-49.311-0.832-15.66384 14.75912-11.82886 35.25443-2.93514 45.6622 10.20038 11.93685 26.70606 16.99708 39.88467 10.18214zm-84.59049-62.66998c0-1.04232-14.50966-16.33752-32.2437-33.98939l-32.24367-32.09429-7.76111 12.55767c-8.71903 14.10769-14.31288 29.34847-19.11399 55.5126 2.40055 0.3379 6.33267-0.0915 45.88128-0.0915 25.01465 0 45.48119-0.85279 45.48119-1.89512zm233.66469-7.90355c-0.58823-4.78616-3.40449-19.44123-9.28805-32.56087-5.94465-13.25588-14.96219-24.95263-16.53947-24.95263-2.63074 0-65.93564 62.80621-65.93645 65.41705-0.00033 1.04233 20.87554 1.55448 46.39082 1.13813 45.95502-0.74986 46.38181-0.8349 45.37315-9.04168zm-190.00275-79.41379v-47.36974l-10.00587 2.25973c-18.23449 0.79792-56.37287 21.87994-55.48704 25.81409 0.5561 2.4697 62.05784 66.66568 64.50742 66.66568 0.54203 0 0.98549-21.31638 0.98549-47.36976zm99.69552-35.14063c-13.58846-6.37858-29.19967-8.50838-34.20262-9.13391l-9.09622-1.13732-1.0107 47.30043-1.01074 47.30044 34.81326-34.56571 34.81324-34.5657-24.30622-15.19823z"/>
<path fill="#fff" d="m250.49949 527.39895c-4.76979-4.76976-7.277-12.1283-7.277-21.35756v-14.08061l-21.11016-4.15316c-81.91597-16.11599-154.36565-101.0274-171.94592-189.01131-5.361965-0.41392-8.326724-0.62254-13.99299-0.62254-17.721468 0-29.4531-11.82525-29.4531-29.68816 0-16.23685 9.980352-25.73492 28.194329-26.83186l13.648368-0.82197 6.441555-24.99684c10.746788-41.70341 26.704216-69.13914 59.010228-101.45677 33.11082-33.122713 60.82479-49.756605 100.83364-59.668849 12.15619-3.01172 13.08964-0.688667 26.77322-3.741205 1.80782-19.008484 0.16089-40.208094 29.2229-39.211587 22.97063 0.801346 25.16351 14.827227 25.25825 38.100051 7.87771 0.771951 10.43492 1.004742 24.07171 3.808828 81.99388 16.860094 155.62447 90.832152 169.99193 173.5577 2.27396 13.09294 3.49453 14.43991 12.15862 13.4177 11.4366-1.34929 30.17095 7.55485 33.35535 15.85326 7.88743 20.55437-3.67575 38.21578-27.07752 41.35773-15.32063 2.05699-16.04727 2.72283-18.46875 16.92427-3.7924 22.24146-18.67363 56.30113-35.28907 80.76841-29.28436 43.12316-74.93601 75.21163-127.93721 89.9269l-27.2887 7.57647-1.1783 14.44667c-0.64809 7.94569-3.76714 17.312-6.9313 20.81405-8.09725 8.962-31.66115 8.43931-41.01008-0.90962zm-7.277-140.08205c0-25.01465-1.26412-45.48119-2.80921-45.48119-1.54506 0-16.64302 13.90605-33.551 30.90232-17.01659 17.10544-26.62556 27.60904-30.19731 32.76476 4.4027 3.22355 12.13124 11.9125 31.47203 19.86349 16.20563 6.66211 29.56233 8.57051 35.67521 9.49236-1.01081-7.60129-0.58972-19.00241-0.58972-47.54174zm109.26858 29.50401 15.83751-9.76383-32.4596-32.61068c-17.85278-17.93587-33.72171-32.61069-35.26433-32.61069-1.54261 0-2.80474 20.6712-2.80474 45.93599v45.93601l19.42684-3.5615c6.50381-1.29866 22.37274-7.29504 35.26432-13.3253zm-182.06519-86.81031 33.71426-31.83683h-48.1759-48.17592l2.46669 13.14861c2.82157 15.04027 20.5466 52.90979 24.09465 51.47812 1.29906-0.52421 17.53335-15.27965 36.07622-32.7899zm254.10354 8.51495c5.69424-12.50733 8.16933-22.84226 9.41221-28.34548l2.25972-12.0063h-48.20351-48.2035l32.59473 32.74644c17.9271 18.01055 33.94289 32.74648 35.59062 32.74648s10.85552-12.63381 16.54973-25.14114zm-140.37838-35.97359c6.25765-3.23593 16.52893-14.02093 19.55911-21.27314 4.8297-11.5591 1.87382-23.79282-7.19764-33.7392-14.46647-15.86172-33.25916-15.95674-49.311-0.832-15.66384 14.75912-11.82886 35.25443-2.93514 45.6622 10.20038 11.93685 26.70606 16.99708 39.88467 10.18214zm-84.59049-62.66998c0-1.04232-14.50966-16.33752-32.2437-33.98939l-32.24367-32.09429-7.76111 12.55767c-8.71903 14.10769-14.31288 29.34847-19.11399 55.5126 2.40055 0.3379 6.33267-0.0915 45.88128-0.0915 25.01465 0 45.48119-0.85279 45.48119-1.89512zm233.66469-7.90355c-0.58823-4.78616-3.40449-19.44123-9.28805-32.56087-5.94465-13.25588-14.96219-24.95263-16.53947-24.95263-2.63074 0-65.93564 62.80621-65.93645 65.41705-0.00033 1.04233 20.87554 1.55448 46.39082 1.13813 45.95502-0.74986 46.38181-0.8349 45.37315-9.04168zm-190.00275-79.41379v-47.36974l-10.00587 2.25973c-18.23449 0.79792-56.37287 21.87994-55.48704 25.81409 0.5561 2.4697 62.05784 66.66568 64.50742 66.66568 0.54203 0 0.98549-21.31638 0.98549-47.36976zm99.69552-35.14063c-13.58846-6.37858-29.19967-8.50838-34.20262-9.13391l-9.09622-1.13732-1.0107 47.30043-1.01074 47.30044 34.81326-34.56571 34.81324-34.5657-24.30622-15.19823z"/>
</svg>
