<?xml version="1.0" encoding="UTF-8" standalone="no"?>
<svg xmlns:rdf="http://www.w3.org/1999/02/22-rdf-syntax-ns#" xmlns="http://www.w3.org/2000/svg" version="1.0" xmlns:cc="http://creativecommons.org/ns#" xmlns:dc="http://purl.org/dc/elements/1.1/" viewBox="0 0 576.44501 577.45154">
<path d="m64.571 0.06355556c-41.335 0-64.571 21.371-64.571 65.036v450.123c0 40.844 20.895 62.229 62.192 62.229h452.024c41.307 0 62.229-20.315 62.229-62.229v-450.123c0-42.601-20.922-65.036-63.521-65.036-0.004 0-448.495-0.143-448.353 0z"/>
<path opacity=".25" style="color-rendering:auto;text-decoration-color:#000000;color:#000000;isolation:auto;mix-blend-mode:normal;shape-rendering:auto;solid-color:#000000;block-progression:tb;text-decoration-line:none;text-decoration-style:solid;image-rendering:auto;white-space:normal;text-indent:0;text-transform:none" d="m269.2335 47.639306a10.001 10.001 0 0 0 -10 10v146.63086c-1.67129 0.13036-4.47343-0.0285-7.64648-0.31055a10.001 10.001 0 0 0 -1.01368 -0.0391c-39.67236 0.50971-79.52214 0.0716-119.4707 0.21875a10.001 10.001 0 0 0 -9.96289 10v77a10.001 10.001 0 0 0 9.9707 10c42.85226 0.12138 85.65798-0.19592 128.29688 0.17383 0.0416 2.12906-0.58024 5.8062-0.20508 10.80273 0.0725 82.50748 0.0105 165.02898 0.0312 247.55664a10.001 10.001 0 0 0 10 9.99805h86.21875a10.001 10.001 0 0 0 10 -9.98633c0.12295-86.28147-0.22255-172.56546 0.17969-258.71875 2.12989-0.0405 5.80367 0.58007 10.79687 0.20508 40.55099-0.0721 81.12753-0.0105 121.7168-0.0312a10.001 10.001 0 0 0 9.99414 -10v-77a10.001 10.001 0 0 0 -9.97266 -10c-44.37991-0.12124-88.71629 0.19779-132.88867-0.17383-0.0416-2.12906 0.58024-5.8062 0.20508-10.80273-0.0722-45.15674-0.0105-90.33596-0.0312-135.52735a10.001 10.001 0 0 0 -10 -9.996094h-86.21875z" fill="#fff"/>
<path style="color-rendering:auto;text-decoration-color:#000000;color:#000000;isolation:auto;mix-blend-mode:normal;shape-rendering:auto;solid-color:#000000;block-progression:tb;text-decoration-line:none;text-decoration-style:solid;image-rendering:auto;white-space:normal;text-indent:0;text-transform:none" d="m229.2335 7.6393056a10.001 10.001 0 0 0 -10 10v146.63086c-1.67129 0.13036-4.47343-0.0285-7.64648-0.31055a10.001 10.001 0 0 0 -1.01368 -0.0391c-39.67236 0.50971-79.52214 0.0716-119.4707 0.21875a10.001 10.001 0 0 0 -9.962891 10v77a10.001 10.001 0 0 0 9.970703 10c42.852257 0.12138 85.657977-0.19592 128.29688 0.17383 0.0416 2.12906-0.58024 5.8062-0.20508 10.80273 0.0725 82.50748 0.0105 165.02898 0.0312 247.55664a10.001 10.001 0 0 0 10 9.99805h86.21875a10.001 10.001 0 0 0 10 -9.98633c0.12295-86.28147-0.22255-172.56546 0.17969-258.71875 2.12989-0.0405 5.80367 0.58007 10.79687 0.20508 40.55099-0.0721 81.12753-0.0105 121.7168-0.0312a10.001 10.001 0 0 0 9.99414 -10v-77a10.001 10.001 0 0 0 -9.97266 -10c-44.37991-0.12124-88.71629 0.19779-132.88867-0.17383-0.0416-2.12906 0.58024-5.8062 0.20508-10.80273-0.0722-45.15674-0.0105-90.335958-0.0312-135.52735a10.001 10.001 0 0 0 -10 -9.9960944h-86.21875z" fill="#fff"/>
</svg>
