<?xml version="1.0" encoding="UTF-8" standalone="no"?>
<svg xmlns:rdf="http://www.w3.org/1999/02/22-rdf-syntax-ns#" xmlns="http://www.w3.org/2000/svg" version="1.0" xmlns:cc="http://creativecommons.org/ns#" xmlns:dc="http://purl.org/dc/elements/1.1/" viewBox="0 0 576.44501 577.45154">
<path d="m64.571 0.06355556c-41.335 0-64.571 21.371-64.571 65.036v450.123c0 40.844 20.895 62.229 62.192 62.229h452.024c41.307 0 62.229-20.315 62.229-62.229v-450.123c0-42.601-20.922-65.036-63.521-65.036-0.004 0-448.495-0.143-448.353 0z"/>
<path d="m251.17507 336.59765-1.29541-151.01315-77.09938-0.51761v-39.31677-37.31677l76.65632-1.3892 1.38923-84.656348 78.40995-1.370077v86.156825h78.04552v38.57557 38.57556h-78.04552v154.02069c-24.80011-2.85201-53.90038 4.64601-78.06071-1.74872z" fill="#fff"/>
<path opacity=".25" d="m205.35504 371.2962h168.92059v168.92059h-168.92059z" fill="#fff"/>
<path style="color-rendering:auto;text-decoration-color:#000000;color:#000000;isolation:auto;mix-blend-mode:normal;shape-rendering:auto;solid-color:#000000;block-progression:tb;text-decoration-line:none;text-decoration-style:solid;image-rendering:auto;white-space:normal;text-indent:0;text-transform:none" d="m250.8253 21.018212v86.156258h-78.04492v38.57617 38.57422h78.04492v154.02148c24.80011-2.85201 53.90021 4.64668 78.06054-1.74805l1.29688-151.01367 77.09766-0.51758v-39.3164-37.31641l-76.65626-1.39062-1.38867-84.656257-78.41015-1.369141zm-45.47071 340.21094a10.068976 10.068976 0 0 0 -10.06836 10.06641v168.92188a10.068976 10.068976 0 0 0 10.06836 10.0664h168.92188a10.068976 10.068976 0 0 0 10.06641 -10.0664v-168.92188a10.068976 10.068976 0 0 0 -10.06641 -10.06641h-168.92188zm10.06836 20.13477h148.78516v148.78516h-148.78516v-148.78516z" fill="#fff"/>
</svg>
