<?xml version="1.0" encoding="UTF-8" standalone="no"?>
<svg xmlns:rdf="http://www.w3.org/1999/02/22-rdf-syntax-ns#" xmlns="http://www.w3.org/2000/svg" version="1.0" xmlns:cc="http://creativecommons.org/ns#" xmlns:dc="http://purl.org/dc/elements/1.1/" viewBox="0 0 576.44501 577.45154">
<path d="m64.571 0.06355556c-41.335 0-64.571 21.371-64.571 65.036v450.123c0 40.844 20.895 62.229 62.192 62.229h452.024c41.307 0 62.229-20.315 62.229-62.229v-450.123c0-42.601-20.922-65.036-63.521-65.036-0.004 0-448.495-0.143-448.353 0z"/>
<path opacity=".25" d="m188.1387 539.02418c-2.56631-4.79519-3.69851-39.09777-3.30319-100.07891 0.51355-79.22439-0.24839-94.42646-5.21413-104.02917-7.63428-14.76304-7.58412-14.95795 4.97508-19.33608 10.13374-3.53269 10.79068-4.9063 10.79068-22.5645v-18.80281l-35.0697-0.8282c-19.28834-0.45551-36.19103-1.95213-37.56155-3.32586-3.28742-3.29519-4.7763-37.92175-1.83522-42.68058 1.40664-2.27592 12.68402-3.04613 29.13923-1.99012 22.53688 1.44635 28.19977 0.63939 35.29034-5.02882 14.35646-11.47645 9.00885-18.37733-16.24079-20.95814-48.52972-4.96034-48.3271-4.88695-50.86634-18.42213-1.27248-6.78284-3.89353-12.33245-5.82459-12.33245-1.93107 0-9.98778-4.28609-17.903772-9.52463-11.213244-7.42061-15.267693-12.99953-18.353543-25.25458-2.178461-8.65145-8.672068-22.23357-14.430227-30.18249-5.758158-7.948919-9.508342-16.007574-8.333737-17.908137 3.251268-5.260632 18.748278-4.130163 31.125913 2.270576 13.75818 7.114615 42.432456 15.753841 57.866996 17.434641 6.39799 0.69675 30.24664 4.03988 52.99699 7.4292 34.11971 5.08312 58.68815 5.85437 140.27876 4.40343 54.40299-0.96742 106.19824-3.49975 115.10054-5.6273 8.9023-2.1276 26.49495-5.49642 39.09476-7.48632 12.59981-1.98991 33.0744-8.375087 45.49905-14.189278 30.18131-14.123556 39.38712-6.11378 23.29948 20.272338-3.94915 6.47724-7.18032 15.57806-7.18032 20.22402 0 8.30329-27.99469 38.13853-35.78569 38.13853-1.96598 0-4.92413 5.20858-6.57374 11.57465-3.30383 12.7499-10.65152 16.24336-35.42335 16.84195-22.01241 0.53191-37.31775 4.29426-37.31775 9.17342 0 2.37526 3.72115 7.81456 8.26925 12.08727 7.60306 7.1427 10.28351 7.51914 33.27124 4.67272 15.36614-1.90268 26.65703-1.77737 29.29633 0.32516 4.32832 3.44807 2.67165 37.83012-2.08067 43.18064-1.23991 1.39598-18.10437 2.80609-37.47658 3.13355l-35.22217 0.59531 1.07206 18.44786c1.00443 17.28351 1.81003 18.6863 12.76465 22.2272 18.8864 6.10471 20.48384 9.94983 9.53784 22.95838l-9.74841 11.58534 2.07531 92.38445c1.28607 57.25069 0.74466 94.76216-1.42362 98.63664-4.31343 7.70765-36.07205 8.85182-42.15788 1.51887-2.47711-2.98474-4.81368-39.85839-6.32491-99.81375-1.31812-52.29422-3.945-98.08674-5.83754-101.76113-2.28554-4.43744-2.12126-8.0004 0.48919-10.61083 2.16154-2.16157 3.93157-15.34125 3.93337-29.2882l0.003-25.35809-81.80676 1.17313c-44.99367 0.64521-82.36613 1.73251-83.04983 2.41625-0.6837 0.6837-2.12286 59.23473-3.19808 130.11344-1.07521 70.87864-3.41695 131.70283-5.20384 135.16486-4.85129 9.39921-30.24035 8.68147-35.42244-1.00132zm104.3645-323.61819v-14.38756h-26.79796c-21.19246 0-27.49457 1.24479-30.12825 5.95093-2.50038 4.46792-0.97629 8.02506 6.11583 14.27389 7.48829 6.59796 13.73272 8.34655 30.12824 8.43666l20.68214 0.11366v-14.38758zm93.47808 4.59597c3.9792-3.40706 7.23488-9.07218 7.23488-12.58911 0-5.55959-3.52207-6.39442-26.97667-6.39442h-26.97668v12.58914 12.5891h19.74178c13.48198 0 22.03585-1.96426 26.97669-6.19471z" fill="#fff"/>
<path fill="#fff" d="m148.1387 499.02418c-2.56631-4.79519-3.69851-39.09777-3.30319-100.07891 0.51355-79.22439-0.24839-94.42646-5.21413-104.02917-7.63428-14.76304-7.58412-14.95795 4.97508-19.33608 10.13374-3.53269 10.79068-4.9063 10.79068-22.5645v-18.80281l-35.0697-0.8282c-19.28834-0.45551-36.19103-1.95213-37.56155-3.32586-3.287419-3.29519-4.776296-37.92175-1.83522-42.68058 1.40664-2.27592 12.68402-3.04613 29.13923-1.99012 22.53688 1.44635 28.19977 0.63939 35.29034-5.02882 14.35646-11.47645 9.00885-18.37733-16.24079-20.95814-48.52972-4.96034-48.3271-4.88695-50.866337-18.42213-1.272483-6.78284-3.893536-12.33245-5.824595-12.33245-1.931071 0-9.987773-4.28609-17.90377-9.52463-11.213244-7.42061-15.267693-12.99953-18.353543-25.254584-2.178461-8.65145-8.672068-22.233567-14.430227-30.182492-5.758158-7.948913-9.508342-16.007568-8.333737-17.908131 3.251268-5.260632 18.748278-4.130163 31.125913 2.270576 13.75818 7.114615 42.432456 15.75384 57.866996 17.434635 6.39799 0.696751 30.24664 4.039885 52.99699 7.4292 34.11971 5.083127 58.68815 5.854376 140.27876 4.403435 54.40299-0.967427 106.19824-3.49975 115.10054-5.627305 8.9023-2.1276 26.49495-5.496414 39.09476-7.48632s33.0744-8.375081 45.49905-14.189272c30.18131-14.123556 39.38712-6.11378 23.29948 20.272332-3.94915 6.477243-7.18032 15.578062-7.18032 20.224022 0 8.30329-27.99469 38.138534-35.78569 38.138534-1.96598 0-4.92413 5.20858-6.57374 11.57465-3.30383 12.7499-10.65152 16.24336-35.42335 16.84195-22.01241 0.53191-37.31775 4.29426-37.31775 9.17342 0 2.37526 3.72115 7.81456 8.26925 12.08727 7.60306 7.1427 10.28351 7.51914 33.27124 4.67272 15.36614-1.90268 26.65703-1.77737 29.29633 0.32516 4.32832 3.44807 2.67165 37.83012-2.08067 43.18064-1.23991 1.39598-18.10437 2.80609-37.47658 3.13355l-35.22217 0.59531 1.07206 18.44786c1.00443 17.28351 1.81003 18.6863 12.76465 22.2272 18.8864 6.10471 20.48384 9.94983 9.53784 22.95838l-9.74841 11.58534 2.07531 92.38445c1.28607 57.25069 0.74466 94.76216-1.42362 98.63664-4.31343 7.70765-36.07205 8.85182-42.15788 1.51887-2.47711-2.98474-4.81368-39.85839-6.32491-99.81375-1.31812-52.29422-3.945-98.08674-5.83754-101.76113-2.28554-4.43744-2.12126-8.0004 0.48919-10.61083 2.16154-2.16157 3.93157-15.34125 3.93337-29.2882l0.003-25.35809-81.80676 1.17313c-44.99367 0.64521-82.36613 1.73251-83.04983 2.41625-0.6837 0.6837-2.12286 59.23473-3.19808 130.11344-1.07521 70.87864-3.41695 131.70283-5.20384 135.16486-4.85129 9.39921-30.24035 8.68147-35.42244-1.00132zm104.3645-323.61819v-14.38756h-26.79796c-21.19246 0-27.49457 1.24479-30.12825 5.95093-2.50038 4.46792-0.97629 8.02506 6.11583 14.27389 7.48829 6.59796 13.73272 8.34655 30.12824 8.43666l20.68214 0.11366v-14.38758zm93.47808 4.59597c3.9792-3.40706 7.23488-9.07218 7.23488-12.58911 0-5.55959-3.52207-6.39442-26.97667-6.39442h-26.97668v12.58914 12.5891h19.74178c13.48198 0 22.03585-1.96426 26.97669-6.19471z"/>
</svg>
