<?xml version="1.0" encoding="UTF-8" standalone="no"?>
<svg xmlns:rdf="http://www.w3.org/1999/02/22-rdf-syntax-ns#" xmlns="http://www.w3.org/2000/svg" version="1.0" xmlns:cc="http://creativecommons.org/ns#" xmlns:dc="http://purl.org/dc/elements/1.1/" viewBox="0 0 576.44501 577.45154">
<path d="m64.571 0.06355556c-41.335 0-64.571 21.371-64.571 65.036v450.123c0 40.844 20.895 62.229 62.192 62.229h452.024c41.307 0 62.229-20.315 62.229-62.229v-450.123c0-42.601-20.922-65.036-63.521-65.036-0.004 0-448.495-0.143-448.353 0z"/>
<path fill="#fff" d="m268.27256 27.389306v3.173828l-1.57031 2.388672c-11.44561 17.84306-31.64569 28.293713-42.75 46.46875 0.0657 9.839231-0.0132 20.753564-5.34375 29.187504-10.11236 7.1468-21.69251 12.80497-29.74414 22.48242-18.28813 17.17042-34.61969 38.89746-36.31836 64.73633-2.86713 23.47734-0.52542 48.24263 12.02539 68.65039 12.84377 20.73529 28.75001 40.78407 51.00586 51.84961 8.38341 6.14114 10.77327 17.6775 7.53125 27.34375-1.37413 4.68585 0.67948 9.95923 6.16211 10.38672 12.21997 5.08654 23.21011 14.00939 30.18164 25.42578 3.7836 6.92515 6.07132 17.44788-0.375 23.46875-5.6519 4.11002-11.62935-2.50131-16.73828-4.41211-15.80544-10.26254-30.2016-22.26623-44.92969-33.98437-30.28349-25.03893-64.04028-58.08587-75.73828-96.44727-11.75204-33.38216-15.04181-76.40293 1.6875-109.125 7.54632-15.72932 20.20223-27.74026 31.875-40.46875 2.08972-3.09975-2.0885-5.27342-4.65625-3.5-14.4331 4.3717-26.13063 14.65217-36.98828 24.64453-26.791995 26.66747-41.645319 69.51361-39.19922 107.13672 1.308203 52.81572 30.3989 104.57674 62.08398 145.88086 12.40755 17.51187 26.07787 35.31603 31.54102 56.30664-1.2032 4.01646 3.40189 5.74358 5.875 2.75 17.50292-9.0609 28.32738-27.45071 46.25-35.6875 7.90201-2.20695 14.86551 2.72859 21.21875 6.53125 3.07643 1.19949 10.64963 4.05205 6.6875 8.3125-7.89299 4.86863-17.21612 7.26062-24.64258 13.02734-14.11707 9.40088-27.00416 24.41214-27.01367 42.16016 0.71348 9.39453 11.27457 16.83478 20.125 12.46875 10.38047-3.68054 16.01902-16.28436 12.1875-26.53125 0.24813-10.45078 11.40075-15.40444 19.625-19.125 4.17608-2.85816 12.38811-4.39048 13.8125 2.21875 3.09486 10.60326-0.2955 21.74244-1.34375 32.28125-1.50657 7.70956-6.63723 14.05206-9.28125 21.0625-0.0681 9.10873 7.54503 16.10119 14.21875 21.15625 1.7453 1.41186 2.86595 1.83739 3.58203 1.62695 0.71608 0.21044 1.83674-0.21509 3.58203-1.62695 6.67372-5.05506 14.28682-12.04752 14.21875-21.15625-2.64402-7.01044-7.77468-13.35294-9.28125-21.0625-1.04825-10.53881-4.43861-21.67799-1.34375-32.28125 1.42439-6.60923 9.63642-5.07691 13.8125-2.21875 8.22425 3.72056 19.37687 8.67422 19.625 19.125-3.83152 10.24689 1.80703 22.85071 12.1875 26.53125 8.85043 4.36603 19.41152-3.07422 20.125-12.46875-0.01-17.74802-12.8966-32.75928-27.01367-42.16016-7.42646-5.76672-16.74959-8.15871-24.64258-13.02734-3.96213-4.26045 3.61107-7.11301 6.6875-8.3125 6.35324-3.80266 13.31674-8.7382 21.21875-6.53125 17.92262 8.23679 28.74708 26.6266 46.25 35.6875 2.47311 2.99358 7.0782 1.26646 5.875-2.75 5.46315-20.99061 19.13542-38.79477 31.54297-56.30664 31.68508-41.30412 60.77383-93.06514 62.08203-145.88086 2.4461-37.62311-12.40722-80.46925-39.19922-107.13672-10.85765-9.99236-22.55518-20.27283-36.98828-24.64453-2.56775-1.77342-6.74597 0.40025-4.65625 3.5 11.67277 12.72849 24.32868 24.73943 31.875 40.46875 16.72931 32.72207 13.43954 75.74284 1.6875 109.125-11.698 38.3614-45.45284 71.40834-75.73633 96.44727-14.72809 11.71814-29.1262 23.72183-44.93164 33.98437-5.10893 1.9108-11.08638 8.52213-16.73828 4.41211-6.44632-6.02087-4.1586-16.5436-0.375-23.46875 6.97153-11.41639 17.96363-20.33924 30.1836-25.42578 5.48263-0.42749 7.53428-5.70087 6.16015-10.38672-3.24202-9.66625-0.85216-21.20261 7.53125-27.34375 22.25585-11.06554 38.16209-31.11432 51.00586-51.84961 12.55081-20.40776 14.89252-45.17305 12.02539-68.65039-1.69867-25.83887-18.03023-47.56591-36.31836-64.73633-8.05163-9.67745-19.63178-15.33562-29.74414-22.48242-5.3305-8.43394-5.40946-19.348273-5.34375-29.187504-11.10431-18.175037-31.30439-28.62569-42.75-46.46875l-1.57031-2.388672v-3.173828l-1.04297 1.585938-1.04297-1.585938zm-38.53906 109.8125c8.74918 0.71012 10.94242 11.42453 12.42773 18.43945 8.28382 32.30619 17.08006 61.97657 9.34766 95.29102-3.34715 12.63122-5.71823 21.68745-11.21289 33.55078-1.85144 4.89002-6.73063 8.13627-11.9375 6.09375-12.52566-5.35149-18.10779-13.75431-27.23633-23.51758-18.12148-20.12846-27.68179-47.19682-20.17383-73.95117 4.93644-22.55993 17.17845-36.48127 36.02149-48.70312 4.26308-2.15107 7.8587-6.78374 12.76367-7.20313zm79.16406 0c4.90497 0.41939 8.50059 5.05206 12.76367 7.20313 18.84304 12.22185 31.08505 26.14319 36.02149 48.70312 7.50796 26.75435-2.05235 53.82271-20.17383 73.95117-9.12854 9.76327-14.71067 18.16609-27.23633 23.51758-5.20687 2.04252-10.08606-1.20373-11.9375-6.09375-5.49466-11.86333-7.86574-20.91956-11.21289-33.55078-7.7324-33.31445 1.06384-62.98483 9.34766-95.29102 1.48531-7.01492 3.67855-17.72933 12.42773-18.43945z"/>
<path opacity=".25" fill="#fff" d="m308.27647 74.045556v0.123047c-2.39843 3.60976-4.77416 7.269837-8.07422 10.064453-10.82427 12.398678-25.44565 21.516814-34.1875 35.687504 0.5875 6.37296-1.16435 27.06938-6.75 30.71875-8.72102 6.50761-19.19546 10.85301-26.3125 19.28125-21.02753 20.19262-36.90042 39.13374-38.59375 68.78125-2.88615 29.42744 1.1758 50.73143 18.71875 75.1875 11.16187 15.81533 24.24719 30.93919 41.65625 39.5625 7.16386 3.73666 13.45462 15.03722 11.5 23.71875-0.0808 4.1557-2.82328 9.5911-0.53125 13.21875 6.65875 2.89494 13.67094 5.34668 19.09375 10.5 11.09498 8.15298 22.47937 20.85386 19.84375 35.78125-0.51468 6.66061-7.84336 12.54879-14.125 8.28125-15.31015-6.50358-27.50365-18.44686-40.96875-28-33.99709-26.61506-66.98478-58.11051-81.5-99.84375-12.52542-33.58653-19.81511-72.44015-5.40625-106.59375 7.14596-17.64843 19.98126-32.04173 33.40625-45.0625 0.86306-1.02038 3.32997-3.87339 0.125-2.78125-11.33726 2.66906-20.78288 10.67687-29.875 17.65625-29.15735 24.70977-45.04348 63.00102-43.96875 101.0625-0.65516 52.3972 20.59679 102.70712 51.40625 144.03125 13.88773 19.58258 29.34972 38.98779 36.21875 62.28125 0.3692 1.14236-0.8304 5.23964 1.46875 3.09375 16.66728-8.39418 27.59858-24.58037 43.15625-34.3125 7.20183-5.07063 16.49731-2.89614 23.375 1.65625 3.91196 3.55599 10.53399 3.9324 13.125 8.6875 1.43656 6.84664-7.65463 8.4957-12.09375 10.75-18.4621 8.29934-36.92916 23.01421-40.4375 44-1.84047 8.87737 6.18998 18.65548 15.40625 15.65625 10.01054-2.40278 16.77358-14.14663 12.8125-23.8125-0.90283-11.16501 9.91847-17.9853 19.0625-21.3125 4.9486-3.4103 13.97627-6.4527 17.46875 0.4375 4.396 9.89083 0.79864 21.02209 0.1875 31.34375-1.16902 8.70002-5.43544 16.55753-9.90625 23.8125-0.85625 7.99686 6.27484 14.04224 11.375 19.125 1.06562 0.71458 2.1901 1.28864 3.32422 1.77344v0.0391c0.0138-0.006 0.0272-0.0137 0.041-0.0195 0.0138 0.006 0.0272 0.0137 0.041 0.0195v-0.0391c1.13409-0.48479 2.25862-1.05887 3.32422-1.77344 5.10016-5.08276 12.23125-11.12814 11.375-19.125-4.47081-7.25497-8.73723-15.11248-9.90625-23.8125-0.61114-10.32166-4.2085-21.45292 0.1875-31.34375 3.49248-6.8902 12.52015-3.8478 17.46875-0.4375 9.14403 3.3272 19.96533 10.14749 19.0625 21.3125-3.96108 9.66587 2.80196 21.40972 12.8125 23.8125 9.21627 2.99923 17.24672-6.77888 15.40625-15.65625-3.50834-20.98579-21.9754-35.70066-40.4375-44-4.43912-2.2543-13.53031-3.90336-12.09375-10.75 2.59101-4.7551 9.21304-5.13151 13.125-8.6875 6.87769-4.55239 16.17317-6.72688 23.375-1.65625 15.55767 9.73213 26.48897 25.91832 43.15625 34.3125 2.29915 2.14589 1.09955-1.95139 1.46875-3.09375 6.86903-23.29346 22.33102-42.69867 36.21875-62.28125 30.80946-41.32413 52.06141-91.63405 51.40625-144.03125 1.07473-38.06148-14.8114-76.35273-43.96875-101.0625-9.09212-6.97938-18.53774-14.98719-29.875-17.65625-3.20497-1.09214-0.73806 1.76087 0.125 2.78125 13.42499 13.02077 26.26029 27.41407 33.40625 45.0625 14.40886 34.1536 7.11917 73.00722-5.40625 106.59375-14.51522 41.73324-47.50291 73.22869-81.5 99.84375-13.4651 9.55314-25.6586 21.49642-40.96875 28-6.28164 4.26754-13.61032-1.62064-14.125-8.28125-2.63562-14.92739 8.74877-27.62827 19.84375-35.78125 5.42281-5.15332 12.435-7.60506 19.09375-10.5 2.29203-3.62765-0.45048-9.06305-0.53125-13.21875-1.95462-8.68153 4.33614-19.98209 11.5-23.71875 17.40906-8.62331 30.49438-23.74717 41.65625-39.5625 17.54295-24.45607 21.6049-45.76006 18.71875-75.1875-1.69333-29.64751-17.56622-48.58863-38.59375-68.78125-7.11704-8.42824-17.59148-12.77364-26.3125-19.28125-5.58565-3.64937-7.3375-24.34579-6.75-30.71875-8.74185-14.17069-23.36323-23.288826-34.1875-35.687504-3.30006-2.794616-5.6758-6.454693-8.07422-10.064453v-0.123047c-0.0135 0.02029-0.0275 0.04026-0.041 0.06055-0.0135-0.02029-0.0275-0.04026-0.041-0.06055zm-38.82422 97.125004c9.6698 0.18762 12.89965 11.2401 14.40625 19.03125 10.75569 43.41179 19.05627 72.05278 5.84375 115.90625-3.05853 10.15901-4.6316 22.08926-12.40625 29.6875-9.24866 4.45246-18.21245-3.83533-25.03125-9.1875-31.21246-25.82941-48.55587-60.79246-35.40625-100.3125 8.34687-25.89208 26.7599-40.1107 49.65625-54.53125 0.93673-0.37226 1.93357-0.48866 2.9375-0.59375zm77.73047 0c1.00393 0.10509 2.00077 0.22149 2.9375 0.59375 22.89635 14.42055 41.30938 28.63917 49.65625 54.53125 13.14962 39.52004-4.19379 74.48309-35.40625 100.3125-6.8188 5.35217-15.78259 13.63996-25.03125 9.1875-7.77465-7.59824-9.34772-19.52849-12.40625-29.6875-13.21252-43.85347-4.91194-72.49446 5.84375-115.90625 1.5066-7.79115 4.73645-18.84363 14.40625-19.03125z"/>
</svg>
