<?xml version="1.0" encoding="UTF-8" standalone="no"?>
<svg xmlns:rdf="http://www.w3.org/1999/02/22-rdf-syntax-ns#" xmlns="http://www.w3.org/2000/svg" version="1.0" xmlns:cc="http://creativecommons.org/ns#" xmlns:dc="http://purl.org/dc/elements/1.1/" viewBox="0 0 576.44501 577.45154">
<path d="m64.571 0.06355556c-41.335 0-64.571 21.371-64.571 65.036v450.123c0 40.844 20.895 62.229 62.192 62.229h452.024c41.307 0 62.229-20.315 62.229-62.229v-450.123c0-42.601-20.922-65.036-63.521-65.036-0.004 0-448.495-0.143-448.353 0z"/>
<path opacity=".0625" d="m135.82703 144.92624 299.34442-1.43161v295.04959l-301.49184-9.30547z" fill="#fff"/>
<path opacity=".25" style="color-rendering:auto;text-decoration-color:#000000;color:#000000;isolation:auto;mix-blend-mode:normal;shape-rendering:auto;solid-color:#000000;block-progression:tb;text-decoration-line:none;text-decoration-style:solid;image-rendering:auto;white-space:normal;text-indent:0;text-transform:none" d="m152.29014 136.64712a17.587242 17.587242 0 0 0 -17.58594 17.58399v295.05078a17.587242 17.587242 0 0 0 17.58594 17.58398h295.05078a17.587242 17.587242 0 0 0 17.58399 -17.58398v-295.05078a17.587242 17.587242 0 0 0 -17.58399 -17.58399h-295.05078zm17.58594 35.16992h259.8789v259.87891h-259.8789v-259.87891z" fill="#fff"/>
<path opacity=".25" d="m132.29054 134.2317h295.04959v295.04959h-295.04959z" fill="#fff"/>
<path style="color-rendering:auto;text-decoration-color:#000000;color:#000000;isolation:auto;mix-blend-mode:normal;shape-rendering:auto;solid-color:#000000;block-progression:tb;text-decoration-line:none;text-decoration-style:solid;image-rendering:auto;white-space:normal;text-indent:0;text-transform:none" d="m132.29014 116.64712c-9.71139 0.00071-17.58414 7.8726-17.58594 17.58399v295.05078c0.002 9.71138 7.87456 17.58326 17.58594 17.58398h295.05078c9.71062-0.002 17.58219-7.87336 17.58399-17.58398v-295.05078c-0.002-9.71063-7.87336-17.5822-17.58399-17.58399zm17.58594 35.16992h259.8789v259.87891h-259.8789z" fill="#fff"/>
</svg>
