<?xml version="1.0" encoding="UTF-8" standalone="no"?>
<!-- Created with Inkscape (http://www.inkscape.org/) -->

<svg
   xmlns:dc="http://purl.org/dc/elements/1.1/"
   xmlns:cc="http://creativecommons.org/ns#"
   xmlns:rdf="http://www.w3.org/1999/02/22-rdf-syntax-ns#"
   xmlns:svg="http://www.w3.org/2000/svg"
   xmlns="http://www.w3.org/2000/svg"
   xmlns:sodipodi="http://sodipodi.sourceforge.net/DTD/sodipodi-0.dtd"
   xmlns:inkscape="http://www.inkscape.org/namespaces/inkscape"
   version="1.0"
   width="580"
   height="580"
   id="svg2"
   sodipodi:version="0.32"
   inkscape:version="0.48.0 r9654"
   sodipodi:docname="power_station_coal.svg"
   inkscape:output_extension="org.inkscape.output.svg.inkscape">
  <metadata
     id="metadata10">
    <rdf:RDF>
      <cc:Work
         rdf:about="">
        <dc:format>image/svg+xml</dc:format>
        <dc:type
           rdf:resource="http://purl.org/dc/dcmitype/StillImage" />
        <cc:license
           rdf:resource="http://web.resource.org/cc/PublicDomain" />
        <dc:language>en</dc:language>
        <dc:title></dc:title>
      </cc:Work>
    </rdf:RDF>
  </metadata>
  <sodipodi:namedview
     inkscape:window-height="1002"
     inkscape:window-width="1278"
     inkscape:pageshadow="2"
     inkscape:pageopacity="0.0"
     guidetolerance="10.0"
     gridtolerance="10.0"
     objecttolerance="10.0"
     borderopacity="1.0"
     bordercolor="#666666"
     pagecolor="#ffffff"
     id="base"
     showgrid="false"
     inkscape:zoom="1"
     inkscape:cx="304.49338"
     inkscape:cy="353.74914"
     inkscape:window-x="0"
     inkscape:window-y="24"
     inkscape:current-layer="svg2"
     inkscape:window-maximized="0" />
  <defs
     id="defs4">
    <inkscape:perspective
       sodipodi:type="inkscape:persp3d"
       inkscape:vp_x="0 : 290 : 1"
       inkscape:vp_y="0 : 1000 : 0"
       inkscape:vp_z="580 : 290 : 1"
       inkscape:persp3d-origin="290 : 193.33333 : 1"
       id="perspective12" />
    <style
       type="text/css"
       id="style6">
   
    .fil0 {fill:#EF7900}
   
  </style>
    <inkscape:perspective
       id="perspective6807"
       inkscape:persp3d-origin="29.116032 : 19.410688 : 1"
       inkscape:vp_z="58.232063 : 29.116032 : 1"
       inkscape:vp_y="0 : 1000 : 0"
       inkscape:vp_x="0 : 29.116032 : 1"
       sodipodi:type="inkscape:persp3d" />
    <inkscape:perspective
       id="perspective6954"
       inkscape:persp3d-origin="290 : 193.33333 : 1"
       inkscape:vp_z="580 : 290 : 1"
       inkscape:vp_y="0 : 1000 : 0"
       inkscape:vp_x="0 : 290 : 1"
       sodipodi:type="inkscape:persp3d" />
    <inkscape:perspective
       id="perspective2541"
       inkscape:persp3d-origin="240 : 160 : 1"
       inkscape:vp_z="480 : 240 : 1"
       inkscape:vp_y="0 : 1000 : 0"
       inkscape:vp_x="0 : 240 : 1"
       sodipodi:type="inkscape:persp3d" />
    <inkscape:perspective
       id="perspective2750"
       inkscape:persp3d-origin="215 : 143.33333 : 1"
       inkscape:vp_z="430 : 215 : 1"
       inkscape:vp_y="0 : 1000 : 0"
       inkscape:vp_x="0 : 215 : 1"
       sodipodi:type="inkscape:persp3d" />
    <inkscape:perspective
       id="perspective3730"
       inkscape:persp3d-origin="88.929146 : 101.19778 : 1"
       inkscape:vp_z="177.85829 : 151.79668 : 1"
       inkscape:vp_y="0 : 1000 : 0"
       inkscape:vp_x="0 : 151.79668 : 1"
       sodipodi:type="inkscape:persp3d" />
  </defs>
  <g
     id="g1327">
    <path
       d="M 66.275,1.768 C 24.94,1.768 1.704,23.139 1.704,66.804 L 1.704,516.927 C 1.704,557.771 22.598,579.156 63.896,579.156 L 515.92,579.156 C 557.227,579.156 578.149,558.84 578.149,516.927 L 578.149,66.804 C 578.149,24.203 557.227,1.768 514.627,1.768 C 514.624,1.768 66.133,1.625 66.275,1.768 z"
       style="fill:#111111;stroke:#eeeeee;stroke-width:3.40799999"
       id="path1329" />
  </g>
  <path
     style="fill:#ffffff;fill-opacity:1;stroke:#ffffff;stroke-width:10;stroke-linecap:round;stroke-linejoin:round;stroke-miterlimit:4;stroke-opacity:1;stroke-dasharray:none"
     d="m 105.34375,184.09375 c 10.21887,107.49256 2.61939,210.69427 -24,336.5625 l 32,0 160.125,0 32,0 c -26.61939,-125.86823 -34.21887,-229.06994 -24,-336.5625 -33.38204,14.58679 -62.50651,12.53748 -88.0625,14.40625 -25.55599,-1.86877 -54.68046,0.18054 -88.0625,-14.40625 z"
     id="rect3172"
     inkscape:connector-curvature="0"
     sodipodi:nodetypes="cccccccc" />
  <path
     style="fill:#ffffff;fill-opacity:1;stroke:#ffffff;stroke-width:8.36883259;stroke-linecap:round;stroke-linejoin:round;stroke-miterlimit:4;stroke-opacity:1;stroke-dasharray:none"
     d="m 278.18442,400.18442 232.63116,0 0,120.63116 -232.63116,0 z"
     id="rect3947"
     inkscape:connector-curvature="0" />
  <g
     id="g4076"
     transform="translate(0,14)">
    <path
       d="m 248,137 c 0,4.97056 -20.37104,9 -45.5,9 -25.12896,0 -45.5,-4.02944 -45.5,-9 0,-4.97056 20.37104,-9 45.5,-9 25.12896,0 45.5,4.02944 45.5,9 z"
       sodipodi:ry="9"
       sodipodi:rx="45.5"
       sodipodi:cy="137"
       sodipodi:cx="202.5"
       id="path3950"
       style="opacity:0.2;fill:#ffffff;fill-opacity:1;stroke:#ffffff;stroke-width:5;stroke-linecap:round;stroke-linejoin:round;stroke-miterlimit:4;stroke-opacity:1;stroke-dasharray:none"
       sodipodi:type="arc" />
    <path
       transform="translate(20,-20)"
       sodipodi:type="arc"
       style="opacity:0.2;fill:#ffffff;fill-opacity:1;stroke:#ffffff;stroke-width:5;stroke-linecap:round;stroke-linejoin:round;stroke-miterlimit:4;stroke-opacity:1;stroke-dasharray:none"
       id="path3952"
       sodipodi:cx="202.5"
       sodipodi:cy="137"
       sodipodi:rx="45.5"
       sodipodi:ry="9"
       d="m 248,137 c 0,4.97056 -20.37104,9 -45.5,9 -25.12896,0 -45.5,-4.02944 -45.5,-9 0,-4.97056 20.37104,-9 45.5,-9 25.12896,0 45.5,4.02944 45.5,9 z" />
    <path
       d="m 248,137 c 0,4.97056 -20.37104,9 -45.5,9 -25.12896,0 -45.5,-4.02944 -45.5,-9 0,-4.97056 20.37104,-9 45.5,-9 25.12896,0 45.5,4.02944 45.5,9 z"
       sodipodi:ry="9"
       sodipodi:rx="45.5"
       sodipodi:cy="137"
       sodipodi:cx="202.5"
       id="path3956"
       style="opacity:0.2;fill:#ffffff;fill-opacity:1;stroke:#ffffff;stroke-width:5;stroke-linecap:round;stroke-linejoin:round;stroke-miterlimit:4;stroke-opacity:1;stroke-dasharray:none"
       sodipodi:type="arc"
       transform="translate(40,-40)" />
    <path
       transform="translate(60,-40)"
       sodipodi:type="arc"
       style="opacity:0.2;fill:#ffffff;fill-opacity:1;stroke:#ffffff;stroke-width:5;stroke-linecap:round;stroke-linejoin:round;stroke-miterlimit:4;stroke-opacity:1;stroke-dasharray:none"
       id="path3958"
       sodipodi:cx="202.5"
       sodipodi:cy="137"
       sodipodi:rx="45.5"
       sodipodi:ry="9"
       d="m 248,137 c 0,4.97056 -20.37104,9 -45.5,9 -25.12896,0 -45.5,-4.02944 -45.5,-9 0,-4.97056 20.37104,-9 45.5,-9 25.12896,0 45.5,4.02944 45.5,9 z" />
    <path
       d="m 248,137 c 0,4.97056 -20.37104,9 -45.5,9 -25.12896,0 -45.5,-4.02944 -45.5,-9 0,-4.97056 20.37104,-9 45.5,-9 25.12896,0 45.5,4.02944 45.5,9 z"
       sodipodi:ry="9"
       sodipodi:rx="45.5"
       sodipodi:cy="137"
       sodipodi:cx="202.5"
       id="path3960"
       style="opacity:0.2;fill:#ffffff;fill-opacity:1;stroke:#ffffff;stroke-width:5;stroke-linecap:round;stroke-linejoin:round;stroke-miterlimit:4;stroke-opacity:1;stroke-dasharray:none"
       sodipodi:type="arc"
       transform="translate(40,-30)" />
    <path
       transform="translate(80,-50)"
       sodipodi:type="arc"
       style="opacity:0.2;fill:#ffffff;fill-opacity:1;stroke:#ffffff;stroke-width:5;stroke-linecap:round;stroke-linejoin:round;stroke-miterlimit:4;stroke-opacity:1;stroke-dasharray:none"
       id="path3962"
       sodipodi:cx="202.5"
       sodipodi:cy="137"
       sodipodi:rx="45.5"
       sodipodi:ry="9"
       d="m 248,137 c 0,4.97056 -20.37104,9 -45.5,9 -25.12896,0 -45.5,-4.02944 -45.5,-9 0,-4.97056 20.37104,-9 45.5,-9 25.12896,0 45.5,4.02944 45.5,9 z" />
    <path
       d="m 248,137 c 0,4.97056 -20.37104,9 -45.5,9 -25.12896,0 -45.5,-4.02944 -45.5,-9 0,-4.97056 20.37104,-9 45.5,-9 25.12896,0 45.5,4.02944 45.5,9 z"
       sodipodi:ry="9"
       sodipodi:rx="45.5"
       sodipodi:cy="137"
       sodipodi:cx="202.5"
       id="path3964"
       style="opacity:0.2;fill:#ffffff;fill-opacity:1;stroke:#ffffff;stroke-width:5;stroke-linecap:round;stroke-linejoin:round;stroke-miterlimit:4;stroke-opacity:1;stroke-dasharray:none"
       sodipodi:type="arc"
       transform="translate(40,-58)" />
    <path
       transform="translate(20,-68)"
       sodipodi:type="arc"
       style="opacity:0.2;fill:#ffffff;fill-opacity:1;stroke:#ffffff;stroke-width:5;stroke-linecap:round;stroke-linejoin:round;stroke-miterlimit:4;stroke-opacity:1;stroke-dasharray:none"
       id="path3966"
       sodipodi:cx="202.5"
       sodipodi:cy="137"
       sodipodi:rx="45.5"
       sodipodi:ry="9"
       d="m 248,137 c 0,4.97056 -20.37104,9 -45.5,9 -25.12896,0 -45.5,-4.02944 -45.5,-9 0,-4.97056 20.37104,-9 45.5,-9 25.12896,0 45.5,4.02944 45.5,9 z" />
    <path
       d="m 248,137 c 0,4.97056 -20.37104,9 -45.5,9 -25.12896,0 -45.5,-4.02944 -45.5,-9 0,-4.97056 20.37104,-9 45.5,-9 25.12896,0 45.5,4.02944 45.5,9 z"
       sodipodi:ry="9"
       sodipodi:rx="45.5"
       sodipodi:cy="137"
       sodipodi:cx="202.5"
       id="path3968"
       style="opacity:0.2;fill:#ffffff;fill-opacity:1;stroke:#ffffff;stroke-width:5;stroke-linecap:round;stroke-linejoin:round;stroke-miterlimit:4;stroke-opacity:1;stroke-dasharray:none"
       sodipodi:type="arc"
       transform="translate(60,-68)" />
    <path
       transform="translate(120,-68)"
       sodipodi:type="arc"
       style="opacity:0.2;fill:#ffffff;fill-opacity:1;stroke:#ffffff;stroke-width:5;stroke-linecap:round;stroke-linejoin:round;stroke-miterlimit:4;stroke-opacity:1;stroke-dasharray:none"
       id="path3970"
       sodipodi:cx="202.5"
       sodipodi:cy="137"
       sodipodi:rx="45.5"
       sodipodi:ry="9"
       d="m 248,137 c 0,4.97056 -20.37104,9 -45.5,9 -25.12896,0 -45.5,-4.02944 -45.5,-9 0,-4.97056 20.37104,-9 45.5,-9 25.12896,0 45.5,4.02944 45.5,9 z" />
    <path
       d="m 248,137 c 0,4.97056 -20.37104,9 -45.5,9 -25.12896,0 -45.5,-4.02944 -45.5,-9 0,-4.97056 20.37104,-9 45.5,-9 25.12896,0 45.5,4.02944 45.5,9 z"
       sodipodi:ry="9"
       sodipodi:rx="45.5"
       sodipodi:cy="137"
       sodipodi:cx="202.5"
       id="path3972"
       style="opacity:0.2;fill:#ffffff;fill-opacity:1;stroke:#ffffff;stroke-width:5;stroke-linecap:round;stroke-linejoin:round;stroke-miterlimit:4;stroke-opacity:1;stroke-dasharray:none"
       sodipodi:type="arc"
       transform="translate(100,-56)" />
    <path
       transform="translate(100,-36)"
       sodipodi:type="arc"
       style="opacity:0.2;fill:#ffffff;fill-opacity:1;stroke:#ffffff;stroke-width:5;stroke-linecap:round;stroke-linejoin:round;stroke-miterlimit:4;stroke-opacity:1;stroke-dasharray:none"
       id="path3974"
       sodipodi:cx="202.5"
       sodipodi:cy="137"
       sodipodi:rx="45.5"
       sodipodi:ry="9"
       d="m 248,137 c 0,4.97056 -20.37104,9 -45.5,9 -25.12896,0 -45.5,-4.02944 -45.5,-9 0,-4.97056 20.37104,-9 45.5,-9 25.12896,0 45.5,4.02944 45.5,9 z" />
    <path
       d="m 248,137 c 0,4.97056 -20.37104,9 -45.5,9 -25.12896,0 -45.5,-4.02944 -45.5,-9 0,-4.97056 20.37104,-9 45.5,-9 25.12896,0 45.5,4.02944 45.5,9 z"
       sodipodi:ry="9"
       sodipodi:rx="45.5"
       sodipodi:cy="137"
       sodipodi:cx="202.5"
       id="path3976"
       style="opacity:0.2;fill:#ffffff;fill-opacity:1;stroke:#ffffff;stroke-width:5;stroke-linecap:round;stroke-linejoin:round;stroke-miterlimit:4;stroke-opacity:1;stroke-dasharray:none"
       sodipodi:type="arc"
       transform="translate(110,-48)" />
    <path
       transform="translate(130,-64)"
       sodipodi:type="arc"
       style="opacity:0.2;fill:#ffffff;fill-opacity:1;stroke:#ffffff;stroke-width:5;stroke-linecap:round;stroke-linejoin:round;stroke-miterlimit:4;stroke-opacity:1;stroke-dasharray:none"
       id="path3978"
       sodipodi:cx="202.5"
       sodipodi:cy="137"
       sodipodi:rx="45.5"
       sodipodi:ry="9"
       d="m 248,137 c 0,4.97056 -20.37104,9 -45.5,9 -25.12896,0 -45.5,-4.02944 -45.5,-9 0,-4.97056 20.37104,-9 45.5,-9 25.12896,0 45.5,4.02944 45.5,9 z" />
    <path
       transform="translate(26,-12)"
       sodipodi:type="arc"
       style="opacity:0.2;fill:#ffffff;fill-opacity:1;stroke:#ffffff;stroke-width:5;stroke-linecap:round;stroke-linejoin:round;stroke-miterlimit:4;stroke-opacity:1;stroke-dasharray:none"
       id="path3980"
       sodipodi:cx="202.5"
       sodipodi:cy="137"
       sodipodi:rx="45.5"
       sodipodi:ry="9"
       d="m 248,137 c 0,4.97056 -20.37104,9 -45.5,9 -25.12896,0 -45.5,-4.02944 -45.5,-9 0,-4.97056 20.37104,-9 45.5,-9 25.12896,0 45.5,4.02944 45.5,9 z" />
    <path
       transform="translate(10,-6)"
       sodipodi:type="arc"
       style="opacity:0.2;fill:#ffffff;fill-opacity:1;stroke:#ffffff;stroke-width:5;stroke-linecap:round;stroke-linejoin:round;stroke-miterlimit:4;stroke-opacity:1;stroke-dasharray:none"
       id="path3982"
       sodipodi:cx="202.5"
       sodipodi:cy="137"
       sodipodi:rx="45.5"
       sodipodi:ry="9"
       d="m 248,137 c 0,4.97056 -20.37104,9 -45.5,9 -25.12896,0 -45.5,-4.02944 -45.5,-9 0,-4.97056 20.37104,-9 45.5,-9 25.12896,0 45.5,4.02944 45.5,9 z" />
    <path
       d="m 248,137 c 0,4.97056 -20.37104,9 -45.5,9 -25.12896,0 -45.5,-4.02944 -45.5,-9 0,-4.97056 20.37104,-9 45.5,-9 25.12896,0 45.5,4.02944 45.5,9 z"
       sodipodi:ry="9"
       sodipodi:rx="45.5"
       sodipodi:cy="137"
       sodipodi:cx="202.5"
       id="path3984"
       style="opacity:0.2;fill:#ffffff;fill-opacity:1;stroke:#ffffff;stroke-width:5;stroke-linecap:round;stroke-linejoin:round;stroke-miterlimit:4;stroke-opacity:1;stroke-dasharray:none"
       sodipodi:type="arc"
       transform="translate(30,-26)" />
    <path
       transform="translate(50,-46)"
       sodipodi:type="arc"
       style="opacity:0.2;fill:#ffffff;fill-opacity:1;stroke:#ffffff;stroke-width:5;stroke-linecap:round;stroke-linejoin:round;stroke-miterlimit:4;stroke-opacity:1;stroke-dasharray:none"
       id="path3986"
       sodipodi:cx="202.5"
       sodipodi:cy="137"
       sodipodi:rx="45.5"
       sodipodi:ry="9"
       d="m 248,137 c 0,4.97056 -20.37104,9 -45.5,9 -25.12896,0 -45.5,-4.02944 -45.5,-9 0,-4.97056 20.37104,-9 45.5,-9 25.12896,0 45.5,4.02944 45.5,9 z" />
    <path
       d="m 248,137 c 0,4.97056 -20.37104,9 -45.5,9 -25.12896,0 -45.5,-4.02944 -45.5,-9 0,-4.97056 20.37104,-9 45.5,-9 25.12896,0 45.5,4.02944 45.5,9 z"
       sodipodi:ry="9"
       sodipodi:rx="45.5"
       sodipodi:cy="137"
       sodipodi:cx="202.5"
       id="path3988"
       style="opacity:0.2;fill:#ffffff;fill-opacity:1;stroke:#ffffff;stroke-width:5;stroke-linecap:round;stroke-linejoin:round;stroke-miterlimit:4;stroke-opacity:1;stroke-dasharray:none"
       sodipodi:type="arc"
       transform="translate(70,-46)" />
    <path
       transform="translate(50,-36)"
       sodipodi:type="arc"
       style="opacity:0.2;fill:#ffffff;fill-opacity:1;stroke:#ffffff;stroke-width:5;stroke-linecap:round;stroke-linejoin:round;stroke-miterlimit:4;stroke-opacity:1;stroke-dasharray:none"
       id="path3990"
       sodipodi:cx="202.5"
       sodipodi:cy="137"
       sodipodi:rx="45.5"
       sodipodi:ry="9"
       d="m 248,137 c 0,4.97056 -20.37104,9 -45.5,9 -25.12896,0 -45.5,-4.02944 -45.5,-9 0,-4.97056 20.37104,-9 45.5,-9 25.12896,0 45.5,4.02944 45.5,9 z" />
    <path
       d="m 248,137 c 0,4.97056 -20.37104,9 -45.5,9 -25.12896,0 -45.5,-4.02944 -45.5,-9 0,-4.97056 20.37104,-9 45.5,-9 25.12896,0 45.5,4.02944 45.5,9 z"
       sodipodi:ry="9"
       sodipodi:rx="45.5"
       sodipodi:cy="137"
       sodipodi:cx="202.5"
       id="path3992"
       style="opacity:0.2;fill:#ffffff;fill-opacity:1;stroke:#ffffff;stroke-width:5;stroke-linecap:round;stroke-linejoin:round;stroke-miterlimit:4;stroke-opacity:1;stroke-dasharray:none"
       sodipodi:type="arc"
       transform="translate(90,-56)" />
    <path
       transform="translate(50,-64)"
       sodipodi:type="arc"
       style="opacity:0.2;fill:#ffffff;fill-opacity:1;stroke:#ffffff;stroke-width:5;stroke-linecap:round;stroke-linejoin:round;stroke-miterlimit:4;stroke-opacity:1;stroke-dasharray:none"
       id="path3994"
       sodipodi:cx="202.5"
       sodipodi:cy="137"
       sodipodi:rx="45.5"
       sodipodi:ry="9"
       d="m 248,137 c 0,4.97056 -20.37104,9 -45.5,9 -25.12896,0 -45.5,-4.02944 -45.5,-9 0,-4.97056 20.37104,-9 45.5,-9 25.12896,0 45.5,4.02944 45.5,9 z" />
    <path
       d="m 248,137 c 0,4.97056 -20.37104,9 -45.5,9 -25.12896,0 -45.5,-4.02944 -45.5,-9 0,-4.97056 20.37104,-9 45.5,-9 25.12896,0 45.5,4.02944 45.5,9 z"
       sodipodi:ry="9"
       sodipodi:rx="45.5"
       sodipodi:cy="137"
       sodipodi:cx="202.5"
       id="path3996"
       style="opacity:0.2;fill:#ffffff;fill-opacity:1;stroke:#ffffff;stroke-width:5;stroke-linecap:round;stroke-linejoin:round;stroke-miterlimit:4;stroke-opacity:1;stroke-dasharray:none"
       sodipodi:type="arc"
       transform="translate(30,-74)" />
    <path
       transform="translate(70,-74)"
       sodipodi:type="arc"
       style="opacity:0.2;fill:#ffffff;fill-opacity:1;stroke:#ffffff;stroke-width:5;stroke-linecap:round;stroke-linejoin:round;stroke-miterlimit:4;stroke-opacity:1;stroke-dasharray:none"
       id="path3998"
       sodipodi:cx="202.5"
       sodipodi:cy="137"
       sodipodi:rx="45.5"
       sodipodi:ry="9"
       d="m 248,137 c 0,4.97056 -20.37104,9 -45.5,9 -25.12896,0 -45.5,-4.02944 -45.5,-9 0,-4.97056 20.37104,-9 45.5,-9 25.12896,0 45.5,4.02944 45.5,9 z" />
    <path
       d="m 248,137 c 0,4.97056 -20.37104,9 -45.5,9 -25.12896,0 -45.5,-4.02944 -45.5,-9 0,-4.97056 20.37104,-9 45.5,-9 25.12896,0 45.5,4.02944 45.5,9 z"
       sodipodi:ry="9"
       sodipodi:rx="45.5"
       sodipodi:cy="137"
       sodipodi:cx="202.5"
       id="path4000"
       style="opacity:0.2;fill:#ffffff;fill-opacity:1;stroke:#ffffff;stroke-width:5;stroke-linecap:round;stroke-linejoin:round;stroke-miterlimit:4;stroke-opacity:1;stroke-dasharray:none"
       sodipodi:type="arc"
       transform="translate(130,-74)" />
    <path
       transform="translate(110,-62)"
       sodipodi:type="arc"
       style="opacity:0.2;fill:#ffffff;fill-opacity:1;stroke:#ffffff;stroke-width:5;stroke-linecap:round;stroke-linejoin:round;stroke-miterlimit:4;stroke-opacity:1;stroke-dasharray:none"
       id="path4002"
       sodipodi:cx="202.5"
       sodipodi:cy="137"
       sodipodi:rx="45.5"
       sodipodi:ry="9"
       d="m 248,137 c 0,4.97056 -20.37104,9 -45.5,9 -25.12896,0 -45.5,-4.02944 -45.5,-9 0,-4.97056 20.37104,-9 45.5,-9 25.12896,0 45.5,4.02944 45.5,9 z" />
    <path
       d="m 248,137 c 0,4.97056 -20.37104,9 -45.5,9 -25.12896,0 -45.5,-4.02944 -45.5,-9 0,-4.97056 20.37104,-9 45.5,-9 25.12896,0 45.5,4.02944 45.5,9 z"
       sodipodi:ry="9"
       sodipodi:rx="45.5"
       sodipodi:cy="137"
       sodipodi:cx="202.5"
       id="path4004"
       style="opacity:0.2;fill:#ffffff;fill-opacity:1;stroke:#ffffff;stroke-width:5;stroke-linecap:round;stroke-linejoin:round;stroke-miterlimit:4;stroke-opacity:1;stroke-dasharray:none"
       sodipodi:type="arc"
       transform="translate(110,-42)" />
    <path
       transform="translate(120,-54)"
       sodipodi:type="arc"
       style="opacity:0.2;fill:#ffffff;fill-opacity:1;stroke:#ffffff;stroke-width:5;stroke-linecap:round;stroke-linejoin:round;stroke-miterlimit:4;stroke-opacity:1;stroke-dasharray:none"
       id="path4006"
       sodipodi:cx="202.5"
       sodipodi:cy="137"
       sodipodi:rx="45.5"
       sodipodi:ry="9"
       d="m 248,137 c 0,4.97056 -20.37104,9 -45.5,9 -25.12896,0 -45.5,-4.02944 -45.5,-9 0,-4.97056 20.37104,-9 45.5,-9 25.12896,0 45.5,4.02944 45.5,9 z" />
    <path
       d="m 248,137 c 0,4.97056 -20.37104,9 -45.5,9 -25.12896,0 -45.5,-4.02944 -45.5,-9 0,-4.97056 20.37104,-9 45.5,-9 25.12896,0 45.5,4.02944 45.5,9 z"
       sodipodi:ry="9"
       sodipodi:rx="45.5"
       sodipodi:cy="137"
       sodipodi:cx="202.5"
       id="path4008"
       style="opacity:0.2;fill:#ffffff;fill-opacity:1;stroke:#ffffff;stroke-width:5;stroke-linecap:round;stroke-linejoin:round;stroke-miterlimit:4;stroke-opacity:1;stroke-dasharray:none"
       sodipodi:type="arc"
       transform="translate(140,-70)" />
    <path
       d="m 248,137 c 0,4.97056 -20.37104,9 -45.5,9 -25.12896,0 -45.5,-4.02944 -45.5,-9 0,-4.97056 20.37104,-9 45.5,-9 25.12896,0 45.5,4.02944 45.5,9 z"
       sodipodi:ry="9"
       sodipodi:rx="45.5"
       sodipodi:cy="137"
       sodipodi:cx="202.5"
       id="path4010"
       style="opacity:0.2;fill:#ffffff;fill-opacity:1;stroke:#ffffff;stroke-width:5;stroke-linecap:round;stroke-linejoin:round;stroke-miterlimit:4;stroke-opacity:1;stroke-dasharray:none"
       sodipodi:type="arc"
       transform="translate(36,-18)" />
    <path
       d="m 248,137 c 0,4.97056 -20.37104,9 -45.5,9 -25.12896,0 -45.5,-4.02944 -45.5,-9 0,-4.97056 20.37104,-9 45.5,-9 25.12896,0 45.5,4.02944 45.5,9 z"
       sodipodi:ry="9"
       sodipodi:rx="45.5"
       sodipodi:cy="137"
       sodipodi:cx="202.5"
       id="path4012"
       style="opacity:0.2;fill:#ffffff;fill-opacity:1;stroke:#ffffff;stroke-width:5;stroke-linecap:round;stroke-linejoin:round;stroke-miterlimit:4;stroke-opacity:1;stroke-dasharray:none"
       sodipodi:type="arc"
       transform="translate(32,-6)" />
    <path
       transform="translate(52,-26)"
       sodipodi:type="arc"
       style="opacity:0.2;fill:#ffffff;fill-opacity:1;stroke:#ffffff;stroke-width:5;stroke-linecap:round;stroke-linejoin:round;stroke-miterlimit:4;stroke-opacity:1;stroke-dasharray:none"
       id="path4014"
       sodipodi:cx="202.5"
       sodipodi:cy="137"
       sodipodi:rx="45.5"
       sodipodi:ry="9"
       d="m 248,137 c 0,4.97056 -20.37104,9 -45.5,9 -25.12896,0 -45.5,-4.02944 -45.5,-9 0,-4.97056 20.37104,-9 45.5,-9 25.12896,0 45.5,4.02944 45.5,9 z" />
    <path
       d="m 248,137 c 0,4.97056 -20.37104,9 -45.5,9 -25.12896,0 -45.5,-4.02944 -45.5,-9 0,-4.97056 20.37104,-9 45.5,-9 25.12896,0 45.5,4.02944 45.5,9 z"
       sodipodi:ry="9"
       sodipodi:rx="45.5"
       sodipodi:cy="137"
       sodipodi:cx="202.5"
       id="path4016"
       style="opacity:0.2;fill:#ffffff;fill-opacity:1;stroke:#ffffff;stroke-width:5;stroke-linecap:round;stroke-linejoin:round;stroke-miterlimit:4;stroke-opacity:1;stroke-dasharray:none"
       sodipodi:type="arc"
       transform="translate(72,-46)" />
    <path
       transform="translate(92,-46)"
       sodipodi:type="arc"
       style="opacity:0.2;fill:#ffffff;fill-opacity:1;stroke:#ffffff;stroke-width:5;stroke-linecap:round;stroke-linejoin:round;stroke-miterlimit:4;stroke-opacity:1;stroke-dasharray:none"
       id="path4018"
       sodipodi:cx="202.5"
       sodipodi:cy="137"
       sodipodi:rx="45.5"
       sodipodi:ry="9"
       d="m 248,137 c 0,4.97056 -20.37104,9 -45.5,9 -25.12896,0 -45.5,-4.02944 -45.5,-9 0,-4.97056 20.37104,-9 45.5,-9 25.12896,0 45.5,4.02944 45.5,9 z" />
    <path
       d="m 248,137 c 0,4.97056 -20.37104,9 -45.5,9 -25.12896,0 -45.5,-4.02944 -45.5,-9 0,-4.97056 20.37104,-9 45.5,-9 25.12896,0 45.5,4.02944 45.5,9 z"
       sodipodi:ry="9"
       sodipodi:rx="45.5"
       sodipodi:cy="137"
       sodipodi:cx="202.5"
       id="path4020"
       style="opacity:0.2;fill:#ffffff;fill-opacity:1;stroke:#ffffff;stroke-width:5;stroke-linecap:round;stroke-linejoin:round;stroke-miterlimit:4;stroke-opacity:1;stroke-dasharray:none"
       sodipodi:type="arc"
       transform="translate(72,-36)" />
    <path
       transform="translate(112,-56)"
       sodipodi:type="arc"
       style="opacity:0.2;fill:#ffffff;fill-opacity:1;stroke:#ffffff;stroke-width:5;stroke-linecap:round;stroke-linejoin:round;stroke-miterlimit:4;stroke-opacity:1;stroke-dasharray:none"
       id="path4022"
       sodipodi:cx="202.5"
       sodipodi:cy="137"
       sodipodi:rx="45.5"
       sodipodi:ry="9"
       d="m 248,137 c 0,4.97056 -20.37104,9 -45.5,9 -25.12896,0 -45.5,-4.02944 -45.5,-9 0,-4.97056 20.37104,-9 45.5,-9 25.12896,0 45.5,4.02944 45.5,9 z" />
    <path
       d="m 248,137 c 0,4.97056 -20.37104,9 -45.5,9 -25.12896,0 -45.5,-4.02944 -45.5,-9 0,-4.97056 20.37104,-9 45.5,-9 25.12896,0 45.5,4.02944 45.5,9 z"
       sodipodi:ry="9"
       sodipodi:rx="45.5"
       sodipodi:cy="137"
       sodipodi:cx="202.5"
       id="path4024"
       style="opacity:0.2;fill:#ffffff;fill-opacity:1;stroke:#ffffff;stroke-width:5;stroke-linecap:round;stroke-linejoin:round;stroke-miterlimit:4;stroke-opacity:1;stroke-dasharray:none"
       sodipodi:type="arc"
       transform="translate(72,-64)" />
    <path
       transform="translate(52,-74)"
       sodipodi:type="arc"
       style="opacity:0.2;fill:#ffffff;fill-opacity:1;stroke:#ffffff;stroke-width:5;stroke-linecap:round;stroke-linejoin:round;stroke-miterlimit:4;stroke-opacity:1;stroke-dasharray:none"
       id="path4026"
       sodipodi:cx="202.5"
       sodipodi:cy="137"
       sodipodi:rx="45.5"
       sodipodi:ry="9"
       d="m 248,137 c 0,4.97056 -20.37104,9 -45.5,9 -25.12896,0 -45.5,-4.02944 -45.5,-9 0,-4.97056 20.37104,-9 45.5,-9 25.12896,0 45.5,4.02944 45.5,9 z" />
    <path
       d="m 248,137 c 0,4.97056 -20.37104,9 -45.5,9 -25.12896,0 -45.5,-4.02944 -45.5,-9 0,-4.97056 20.37104,-9 45.5,-9 25.12896,0 45.5,4.02944 45.5,9 z"
       sodipodi:ry="9"
       sodipodi:rx="45.5"
       sodipodi:cy="137"
       sodipodi:cx="202.5"
       id="path4028"
       style="opacity:0.2;fill:#ffffff;fill-opacity:1;stroke:#ffffff;stroke-width:5;stroke-linecap:round;stroke-linejoin:round;stroke-miterlimit:4;stroke-opacity:1;stroke-dasharray:none"
       sodipodi:type="arc"
       transform="translate(92,-74)" />
    <path
       transform="translate(152,-74)"
       sodipodi:type="arc"
       style="opacity:0.2;fill:#ffffff;fill-opacity:1;stroke:#ffffff;stroke-width:5;stroke-linecap:round;stroke-linejoin:round;stroke-miterlimit:4;stroke-opacity:1;stroke-dasharray:none"
       id="path4030"
       sodipodi:cx="202.5"
       sodipodi:cy="137"
       sodipodi:rx="45.5"
       sodipodi:ry="9"
       d="m 248,137 c 0,4.97056 -20.37104,9 -45.5,9 -25.12896,0 -45.5,-4.02944 -45.5,-9 0,-4.97056 20.37104,-9 45.5,-9 25.12896,0 45.5,4.02944 45.5,9 z" />
    <path
       d="m 248,137 c 0,4.97056 -20.37104,9 -45.5,9 -25.12896,0 -45.5,-4.02944 -45.5,-9 0,-4.97056 20.37104,-9 45.5,-9 25.12896,0 45.5,4.02944 45.5,9 z"
       sodipodi:ry="9"
       sodipodi:rx="45.5"
       sodipodi:cy="137"
       sodipodi:cx="202.5"
       id="path4032"
       style="opacity:0.2;fill:#ffffff;fill-opacity:1;stroke:#ffffff;stroke-width:5;stroke-linecap:round;stroke-linejoin:round;stroke-miterlimit:4;stroke-opacity:1;stroke-dasharray:none"
       sodipodi:type="arc"
       transform="translate(132,-62)" />
    <path
       transform="translate(132,-42)"
       sodipodi:type="arc"
       style="opacity:0.2;fill:#ffffff;fill-opacity:1;stroke:#ffffff;stroke-width:5;stroke-linecap:round;stroke-linejoin:round;stroke-miterlimit:4;stroke-opacity:1;stroke-dasharray:none"
       id="path4034"
       sodipodi:cx="202.5"
       sodipodi:cy="137"
       sodipodi:rx="45.5"
       sodipodi:ry="9"
       d="m 248,137 c 0,4.97056 -20.37104,9 -45.5,9 -25.12896,0 -45.5,-4.02944 -45.5,-9 0,-4.97056 20.37104,-9 45.5,-9 25.12896,0 45.5,4.02944 45.5,9 z" />
    <path
       d="m 248,137 c 0,4.97056 -20.37104,9 -45.5,9 -25.12896,0 -45.5,-4.02944 -45.5,-9 0,-4.97056 20.37104,-9 45.5,-9 25.12896,0 45.5,4.02944 45.5,9 z"
       sodipodi:ry="9"
       sodipodi:rx="45.5"
       sodipodi:cy="137"
       sodipodi:cx="202.5"
       id="path4036"
       style="opacity:0.2;fill:#ffffff;fill-opacity:1;stroke:#ffffff;stroke-width:5;stroke-linecap:round;stroke-linejoin:round;stroke-miterlimit:4;stroke-opacity:1;stroke-dasharray:none"
       sodipodi:type="arc"
       transform="translate(142,-54)" />
    <path
       transform="translate(162,-70)"
       sodipodi:type="arc"
       style="opacity:0.2;fill:#ffffff;fill-opacity:1;stroke:#ffffff;stroke-width:5;stroke-linecap:round;stroke-linejoin:round;stroke-miterlimit:4;stroke-opacity:1;stroke-dasharray:none"
       id="path4038"
       sodipodi:cx="202.5"
       sodipodi:cy="137"
       sodipodi:rx="45.5"
       sodipodi:ry="9"
       d="m 248,137 c 0,4.97056 -20.37104,9 -45.5,9 -25.12896,0 -45.5,-4.02944 -45.5,-9 0,-4.97056 20.37104,-9 45.5,-9 25.12896,0 45.5,4.02944 45.5,9 z" />
    <path
       transform="translate(58,-18)"
       sodipodi:type="arc"
       style="opacity:0.2;fill:#ffffff;fill-opacity:1;stroke:#ffffff;stroke-width:5;stroke-linecap:round;stroke-linejoin:round;stroke-miterlimit:4;stroke-opacity:1;stroke-dasharray:none"
       id="path4040"
       sodipodi:cx="202.5"
       sodipodi:cy="137"
       sodipodi:rx="45.5"
       sodipodi:ry="9"
       d="m 248,137 c 0,4.97056 -20.37104,9 -45.5,9 -25.12896,0 -45.5,-4.02944 -45.5,-9 0,-4.97056 20.37104,-9 45.5,-9 25.12896,0 45.5,4.02944 45.5,9 z" />
    <path
       transform="translate(52,-16)"
       sodipodi:type="arc"
       style="opacity:0.2;fill:#ffffff;fill-opacity:1;stroke:#ffffff;stroke-width:5;stroke-linecap:round;stroke-linejoin:round;stroke-miterlimit:4;stroke-opacity:1;stroke-dasharray:none"
       id="path4042"
       sodipodi:cx="202.5"
       sodipodi:cy="137"
       sodipodi:rx="45.5"
       sodipodi:ry="9"
       d="m 248,137 c 0,4.97056 -20.37104,9 -45.5,9 -25.12896,0 -45.5,-4.02944 -45.5,-9 0,-4.97056 20.37104,-9 45.5,-9 25.12896,0 45.5,4.02944 45.5,9 z" />
    <path
       d="m 248,137 c 0,4.97056 -20.37104,9 -45.5,9 -25.12896,0 -45.5,-4.02944 -45.5,-9 0,-4.97056 20.37104,-9 45.5,-9 25.12896,0 45.5,4.02944 45.5,9 z"
       sodipodi:ry="9"
       sodipodi:rx="45.5"
       sodipodi:cy="137"
       sodipodi:cx="202.5"
       id="path4044"
       style="opacity:0.2;fill:#ffffff;fill-opacity:1;stroke:#ffffff;stroke-width:5;stroke-linecap:round;stroke-linejoin:round;stroke-miterlimit:4;stroke-opacity:1;stroke-dasharray:none"
       sodipodi:type="arc"
       transform="translate(72,-36)" />
    <path
       transform="translate(92,-56)"
       sodipodi:type="arc"
       style="opacity:0.2;fill:#ffffff;fill-opacity:1;stroke:#ffffff;stroke-width:5;stroke-linecap:round;stroke-linejoin:round;stroke-miterlimit:4;stroke-opacity:1;stroke-dasharray:none"
       id="path4046"
       sodipodi:cx="202.5"
       sodipodi:cy="137"
       sodipodi:rx="45.5"
       sodipodi:ry="9"
       d="m 248,137 c 0,4.97056 -20.37104,9 -45.5,9 -25.12896,0 -45.5,-4.02944 -45.5,-9 0,-4.97056 20.37104,-9 45.5,-9 25.12896,0 45.5,4.02944 45.5,9 z" />
    <path
       d="m 248,137 c 0,4.97056 -20.37104,9 -45.5,9 -25.12896,0 -45.5,-4.02944 -45.5,-9 0,-4.97056 20.37104,-9 45.5,-9 25.12896,0 45.5,4.02944 45.5,9 z"
       sodipodi:ry="9"
       sodipodi:rx="45.5"
       sodipodi:cy="137"
       sodipodi:cx="202.5"
       id="path4048"
       style="opacity:0.2;fill:#ffffff;fill-opacity:1;stroke:#ffffff;stroke-width:5;stroke-linecap:round;stroke-linejoin:round;stroke-miterlimit:4;stroke-opacity:1;stroke-dasharray:none"
       sodipodi:type="arc"
       transform="translate(112,-56)" />
    <path
       transform="translate(92,-46)"
       sodipodi:type="arc"
       style="opacity:0.2;fill:#ffffff;fill-opacity:1;stroke:#ffffff;stroke-width:5;stroke-linecap:round;stroke-linejoin:round;stroke-miterlimit:4;stroke-opacity:1;stroke-dasharray:none"
       id="path4050"
       sodipodi:cx="202.5"
       sodipodi:cy="137"
       sodipodi:rx="45.5"
       sodipodi:ry="9"
       d="m 248,137 c 0,4.97056 -20.37104,9 -45.5,9 -25.12896,0 -45.5,-4.02944 -45.5,-9 0,-4.97056 20.37104,-9 45.5,-9 25.12896,0 45.5,4.02944 45.5,9 z" />
    <path
       d="m 248,137 c 0,4.97056 -20.37104,9 -45.5,9 -25.12896,0 -45.5,-4.02944 -45.5,-9 0,-4.97056 20.37104,-9 45.5,-9 25.12896,0 45.5,4.02944 45.5,9 z"
       sodipodi:ry="9"
       sodipodi:rx="45.5"
       sodipodi:cy="137"
       sodipodi:cx="202.5"
       id="path4052"
       style="opacity:0.2;fill:#ffffff;fill-opacity:1;stroke:#ffffff;stroke-width:5;stroke-linecap:round;stroke-linejoin:round;stroke-miterlimit:4;stroke-opacity:1;stroke-dasharray:none"
       sodipodi:type="arc"
       transform="translate(132,-66)" />
    <path
       transform="translate(92,-74)"
       sodipodi:type="arc"
       style="opacity:0.2;fill:#ffffff;fill-opacity:1;stroke:#ffffff;stroke-width:5;stroke-linecap:round;stroke-linejoin:round;stroke-miterlimit:4;stroke-opacity:1;stroke-dasharray:none"
       id="path4054"
       sodipodi:cx="202.5"
       sodipodi:cy="137"
       sodipodi:rx="45.5"
       sodipodi:ry="9"
       d="m 248,137 c 0,4.97056 -20.37104,9 -45.5,9 -25.12896,0 -45.5,-4.02944 -45.5,-9 0,-4.97056 20.37104,-9 45.5,-9 25.12896,0 45.5,4.02944 45.5,9 z" />
    <path
       d="m 248,137 c 0,4.97056 -20.37104,9 -45.5,9 -25.12896,0 -45.5,-4.02944 -45.5,-9 0,-4.97056 20.37104,-9 45.5,-9 25.12896,0 45.5,4.02944 45.5,9 z"
       sodipodi:ry="9"
       sodipodi:rx="45.5"
       sodipodi:cy="137"
       sodipodi:cx="202.5"
       id="path4056"
       style="opacity:0.2;fill:#ffffff;fill-opacity:1;stroke:#ffffff;stroke-width:5;stroke-linecap:round;stroke-linejoin:round;stroke-miterlimit:4;stroke-opacity:1;stroke-dasharray:none"
       sodipodi:type="arc"
       transform="translate(72,-84)" />
    <path
       transform="translate(112,-84)"
       sodipodi:type="arc"
       style="opacity:0.2;fill:#ffffff;fill-opacity:1;stroke:#ffffff;stroke-width:5;stroke-linecap:round;stroke-linejoin:round;stroke-miterlimit:4;stroke-opacity:1;stroke-dasharray:none"
       id="path4058"
       sodipodi:cx="202.5"
       sodipodi:cy="137"
       sodipodi:rx="45.5"
       sodipodi:ry="9"
       d="m 248,137 c 0,4.97056 -20.37104,9 -45.5,9 -25.12896,0 -45.5,-4.02944 -45.5,-9 0,-4.97056 20.37104,-9 45.5,-9 25.12896,0 45.5,4.02944 45.5,9 z" />
    <path
       d="m 248,137 c 0,4.97056 -20.37104,9 -45.5,9 -25.12896,0 -45.5,-4.02944 -45.5,-9 0,-4.97056 20.37104,-9 45.5,-9 25.12896,0 45.5,4.02944 45.5,9 z"
       sodipodi:ry="9"
       sodipodi:rx="45.5"
       sodipodi:cy="137"
       sodipodi:cx="202.5"
       id="path4060"
       style="opacity:0.2;fill:#ffffff;fill-opacity:1;stroke:#ffffff;stroke-width:5;stroke-linecap:round;stroke-linejoin:round;stroke-miterlimit:4;stroke-opacity:1;stroke-dasharray:none"
       sodipodi:type="arc"
       transform="translate(172,-84)" />
    <path
       transform="translate(152,-72)"
       sodipodi:type="arc"
       style="opacity:0.2;fill:#ffffff;fill-opacity:1;stroke:#ffffff;stroke-width:5;stroke-linecap:round;stroke-linejoin:round;stroke-miterlimit:4;stroke-opacity:1;stroke-dasharray:none"
       id="path4062"
       sodipodi:cx="202.5"
       sodipodi:cy="137"
       sodipodi:rx="45.5"
       sodipodi:ry="9"
       d="m 248,137 c 0,4.97056 -20.37104,9 -45.5,9 -25.12896,0 -45.5,-4.02944 -45.5,-9 0,-4.97056 20.37104,-9 45.5,-9 25.12896,0 45.5,4.02944 45.5,9 z" />
    <path
       d="m 248,137 c 0,4.97056 -20.37104,9 -45.5,9 -25.12896,0 -45.5,-4.02944 -45.5,-9 0,-4.97056 20.37104,-9 45.5,-9 25.12896,0 45.5,4.02944 45.5,9 z"
       sodipodi:ry="9"
       sodipodi:rx="45.5"
       sodipodi:cy="137"
       sodipodi:cx="202.5"
       id="path4064"
       style="opacity:0.2;fill:#ffffff;fill-opacity:1;stroke:#ffffff;stroke-width:5;stroke-linecap:round;stroke-linejoin:round;stroke-miterlimit:4;stroke-opacity:1;stroke-dasharray:none"
       sodipodi:type="arc"
       transform="translate(152,-52)" />
    <path
       transform="translate(162,-64)"
       sodipodi:type="arc"
       style="opacity:0.2;fill:#ffffff;fill-opacity:1;stroke:#ffffff;stroke-width:5;stroke-linecap:round;stroke-linejoin:round;stroke-miterlimit:4;stroke-opacity:1;stroke-dasharray:none"
       id="path4066"
       sodipodi:cx="202.5"
       sodipodi:cy="137"
       sodipodi:rx="45.5"
       sodipodi:ry="9"
       d="m 248,137 c 0,4.97056 -20.37104,9 -45.5,9 -25.12896,0 -45.5,-4.02944 -45.5,-9 0,-4.97056 20.37104,-9 45.5,-9 25.12896,0 45.5,4.02944 45.5,9 z" />
    <path
       d="m 248,137 c 0,4.97056 -20.37104,9 -45.5,9 -25.12896,0 -45.5,-4.02944 -45.5,-9 0,-4.97056 20.37104,-9 45.5,-9 25.12896,0 45.5,4.02944 45.5,9 z"
       sodipodi:ry="9"
       sodipodi:rx="45.5"
       sodipodi:cy="137"
       sodipodi:cx="202.5"
       id="path4068"
       style="opacity:0.2;fill:#ffffff;fill-opacity:1;stroke:#ffffff;stroke-width:5;stroke-linecap:round;stroke-linejoin:round;stroke-miterlimit:4;stroke-opacity:1;stroke-dasharray:none"
       sodipodi:type="arc"
       transform="translate(182,-80)" />
    <path
       d="m 248,137 c 0,4.97056 -20.37104,9 -45.5,9 -25.12896,0 -45.5,-4.02944 -45.5,-9 0,-4.97056 20.37104,-9 45.5,-9 25.12896,0 45.5,4.02944 45.5,9 z"
       sodipodi:ry="9"
       sodipodi:rx="45.5"
       sodipodi:cy="137"
       sodipodi:cx="202.5"
       id="path4070"
       style="opacity:0.2;fill:#ffffff;fill-opacity:1;stroke:#ffffff;stroke-width:5;stroke-linecap:round;stroke-linejoin:round;stroke-miterlimit:4;stroke-opacity:1;stroke-dasharray:none"
       sodipodi:type="arc"
       transform="translate(78,-28)" />
  </g>
</svg>
