<?xml version="1.0" encoding="UTF-8" standalone="no"?>
<svg xmlns="http://www.w3.org/2000/svg" version="1.0" viewBox="0 0 512.883 519.68176">
<path opacity=".25" d="m253.35146 7.0197729c-24.08641-0.422752-36.30575 25.971146-36.42993 48.861302-0.20046 44.960915 0.47972 85.672545-0.39887 130.6292-16.33523 13.66183-36.83522 20.94854-53.74518 33.84439-50.00679 31.2187-101.59026 60.20662-150.47978 93.02956-9.9370349 19.23679-2.3490889 41.32702-4.8814729 61.79051 2.13028 11.13219 17.161011 14.38714 25.514257 7.99863 62.164266-19.21964 123.28914-41.72907 185.71946-60.08411-0.25571 23.75465 1.0118 47.50112 0.29915 71.26437-0.52508 7.25513 0.66596 15.27434-1.49575 22.03745-13.85782 15.54459-36.96226 22.50738-45.7036 42.41294-2.88175 12.94218-0.44631 26.38381-1.26308 39.48791 1.02829 9.20499 10.83894 17.60285 20.00746 13.28844 18.1615-5.78227 36.603-10.67847 54.41461-17.1774 9.4168-3.42918 19.56148-2.17888 28.53512 1.75282 20.04068 6.11342 40.09875 15.65845 61.30985 15.36525 10.25084-4.80293 8.57626-17.90256 7.55289-27.11757 1.8218-13.55416 2.21669-30.98226-10.77667-39.32683-12.29224-9.89877-25.68273-18.61208-37.0951-29.61625-0.75808-30.72085-1.70403-62.88488 0.23267-92.73676 23.93483 8.22275 48.37431 14.95382 72.25275 23.42545 42.29858 13.93021 84.29985 29.25715 127.44705 40.2272 10.82226-1.82205 13.37291-15.74225 10.30408-24.76304-0.37664-15.81274 4.43176-33.51195-4.48726-47.79766-36.52452-26.34532-77.01621-46.51871-114.85074-70.892-30.56539-18.33936-61.10064-36.72881-91.59657-55.18346-4.18785-52.81934 3.07116-111.90632-4.22135-158.64966-6.14571-13.785737-21.1556-22.69981-36.16401-22.070678z"/>
<path d="m253.24343 0.03127694c-14.15116-0.169405-25.95592 6.804695-33.22652 17.265573-7.31088 10.51884-10.58673 24.263096-10.09219 38.821053l-0.004-0.26799c-0.19573 43.8986 0.40337 83.733467-0.37393 127.19104-14.77891 11.4314-33.89973 18.69608-51.01353 31.74739l0.53806-0.37186c-49.82354 31.10437-101.47647 60.12647-150.67428 93.1564a7.0006998 7.0006998 0 0 0 -2.318418 2.59887c-5.803385 11.23458-6.346992 22.97839-5.995482 33.87259 0.351509 10.89421 1.510233 21.18898 0.386403 30.27034a7.0006998 7.0006998 0 0 0 0.07271 2.17507c1.612689 8.42742 8.374827 14.04359 15.424965 16.00042 6.467196 1.79502 13.613115 0.99849 19.577759-2.80455 59.224503-18.33074 117.30291-39.42212 176.18945-57.1295 0.0732 20.76901 0.82578 41.32603 0.21814 61.58768l0.0146-0.295c-0.5542 7.65754 0.0444 14.46091-0.93485 19.0501-5.93091 6.17593-14.0727 11.37853-22.43008 17.37567-8.89317 6.38163-18.09829 13.958-23.26105 25.71452a7.0006998 7.0006998 0 0 0 -0.4238 1.29423c-3.28707 14.76251-0.67227 28.62717-1.41681 40.57233a7.0006998 7.0006998 0 0 0 0.029 1.21323c0.76077 6.8101 4.45443 12.71753 9.79096 16.59872 5.33653 3.88118 13.11747 5.55748 20.15529 2.24571l-0.85798 0.33654c17.94328-5.7128 36.47816-10.62635 54.68643-17.26973l0.004-0.002c7.38283-2.68699 15.63193-1.78249 23.32753 1.58924a7.0006998 7.0006998 0 0 0 0.76657 0.28461c19.34252 5.90044 40.07758 15.99107 63.44907 15.66802a7.0006998 7.0006998 0 0 0 2.87309 -0.66063c7.47208-3.50096 11.02917-10.86321 11.9598-17.23025 0.88933-6.08446 0.15487-11.82584-0.35316-16.30372 0.88623-6.89509 1.48534-14.83671 0.029-22.79778-1.52346-8.32845-5.65937-16.95367-14.04762-22.34076l0.60869 0.43834c-11.88695-9.57239-24.16617-17.80388-34.54569-27.36191-0.66457-26.72418-1.2894-54.16647-0.10392-80.06232 21.28191 7.00189 42.62541 13.20811 63.30781 20.54584a7.0006998 7.0006998 0 0 0 0.15164 0.0519c42.15728 13.88367 84.30707 29.27611 127.91192 40.36251a7.0006998 7.0006998 0 0 0 2.88556 0.11841c8.20037-1.38063 13.67781-7.86376 15.84252-14.37793 1.98537-5.97448 1.93403-12.26142 0.322-17.98022-0.20385-14.22774 5.1979-33.56225-5.57168-50.81201a7.0006998 7.0006998 0 0 0 -1.84268 -1.97149c-37.14022-26.78957-77.753-47.00408-115.15434-71.0983a7.0006998 7.0006998 0 0 0 -0.18905 -0.11841c-29.50283-17.70184-58.97284-35.45572-88.40944-53.26339-3.52449-50.92616 3.27678-108.39673-4.09462-155.64569a7.0006998 7.0006998 0 0 0 -0.52143 -1.772054c-7.38907-16.574756-24.764-26.883297-42.66639-26.208933zm0.40094 13.983224c11.77109-0.493427 23.96998 6.67168 29.0758 17.201173 6.78363 45.025239-0.20035 103.614 4.03853 157.07704a7.0006998 7.0006998 0 0 0 3.35299 5.43665c30.50445 18.45981 61.04923 36.8542 91.62117 55.19749 37.7438 24.29572 77.50357 44.23747 113.02085 69.64189 6.12104 11.05873 2.51776 26.37372 2.9188 43.21068a7.0006998 7.0006998 0 0 0 0.37186 2.08782c0.99038 2.91123 1.09052 7.46322 0.0416 10.61986-0.86939 2.6162-1.89935 3.97395-3.702 4.62853-42.09603-10.8238-83.40198-25.82505-125.27356-39.61463l0.14958 0.0519c-24.1958-8.58417-48.65746-15.32167-72.31768-23.45007a7.0006998 7.0006998 0 0 0 -9.25914 6.16791c-1.96726 30.32299-1.00471 62.66433-0.24721 93.36206a7.0006998 7.0006998 0 0 0 2.13976 4.86743c12.05277 11.62167 25.64323 20.42955 37.56421 30.02934a7.0006998 7.0006998 0 0 0 0.60661 0.43627c4.6051 2.95748 6.77034 7.21925 7.84232 13.07953 1.07198 5.8603 0.64682 12.97543-0.22022 19.42612a7.0006998 7.0006998 0 0 0 -0.0187 1.70557c0.51776 4.66215 1.02091 9.73921 0.48196 13.42647-0.44563 3.04887-1.0931 4.64236-2.85024 5.84591-18.51349-0.26005-37.36245-8.84722-57.49512-14.9887l0.76657 0.28253c-10.2502-4.49101-22.28998-6.08694-33.73964-1.91747a7.0006998 7.0006998 0 0 0 -0.004 0.002c-17.41355 6.3537-35.75968 11.23146-54.13799 17.08277a7.0006998 7.0006998 0 0 0 -0.85798 0.33653c-2.1307 1.00264-3.84009 0.63879-5.95808-0.9016-2.07914-1.51212-3.74657-4.32516-4.06139-6.6935 0.69865-13.54528-1.18333-25.93987 0.99924-36.62312 3.64299-7.82547 10.17639-13.57178 18.27106-19.38041 8.30884-5.96231 18.04461-11.77268 25.91394-20.59985a7.0006998 7.0006998 0 0 0 1.44382 -2.52617c2.8773-9.0019 1.36619-17.53948 1.80944-23.66408a7.0006998 7.0006998 0 0 0 0.0146 -0.29499c0.7243-24.15151-0.54955-47.94394-0.29706-71.39942a7.0006998 7.0006998 0 0 0 -8.97245 -6.79113c-62.72988 18.44312-123.88635 40.96615-185.81422 60.11269a7.0006998 7.0006998 0 0 0 -2.183386 1.12805c-2.111635 1.61497-5.880106 2.24223-8.966215 1.38565-2.85686-0.79294-4.57748-2.2463-5.23514-4.59736 1.093618-10.79465-0.09154-21.21898-0.400945-30.80839-0.305532-9.46926 0.34409-17.88393 3.84118-25.50884 48.082906-32.15307 98.959975-60.82313 148.56588-91.79158a7.0006998 7.0006998 0 0 0 0.53805 -0.37186c15.75184-12.01264 36.38614-19.31588 53.99257-34.04086a7.0006998 7.0006998 0 0 0 2.50747 -5.23306c0.88157-45.10977 0.20088-85.86368 0.40094-130.73516a7.0006998 7.0006998 0 0 0 -0.004 -0.267989c-0.41135-12.109135 2.48407-23.00685 7.59303-30.357578 5.10896-7.350727 11.8868-11.440558 21.71752-11.268014a7.0006998 7.0006998 0 0 0 0.41548 -0.0042z"/>
</svg>
