<?xml version="1.0" encoding="UTF-8" standalone="no"?>
<svg xmlns="http://www.w3.org/2000/svg" height="490.66595" width="487.94922" version="1.0" viewBox="0 0 487.94922 490.66596">
<path d="m242.72461 0.00194465c-9.77037-0.0913-19.75145 3.029189-27.68164 10.007812-7.9302 6.978623-13.11117 18.077412-13.13282 30.345703a15.0015 15.0015 0 0 0 0 0.02539v129.3711l-192.32031 117.26562a20.002 20.002 0 0 0 -9.58984 17.07617v52.71875a20.002 20.002 0 0 0 26.251953 18.9961l177.57617-58.4375v73.38867l-39.82422 31.43945a15.0015 15.0015 0 0 0 -5.70507 11.77344v41.69336a15.0015 15.0015 0 0 0 19.45312 14.32422l66.47461-20.66211 66.47461 20.66211a15.0015 15.0015 0 0 0 19.45117 -14.32422v-41.69336a15.0015 15.0015 0 0 0 -5.76562 -11.82031l-40.24219-31.43946v-73.33984l177.55273 58.43555a20.002 20.002 0 0 0 26.25196 -18.9961v-52.71875a20.002 20.002 0 0 0 -9.69727 -17.14062l-195.0664-117.24219v-128.35742c0.0121-12.40454-5.02424-23.600897-12.87305-30.769535-7.84882-7.1686383-17.81752-10.490736-27.58789-10.582031z"/>
</svg>
