<?xml version="1.0" encoding="UTF-8" standalone="no"?>
<svg xmlns="http://www.w3.org/2000/svg" version="1.0" viewBox="0 0 492.7287 488.83121">
<path opacity=".1" d="m32.025358 188.92578a20.002 20.002 0 0 0 -20 20v257.38672a20.002 20.002 0 0 0 20 20h161.2207a20.002 20.002 0 0 0 20 -20v-257.38672a20.002 20.002 0 0 0 -20 -20z"/>
<path d="m476.78708 0.00194811c-3.02889 0.05075-6.22563 1.09679-9.33399 3.46289l-69.94726 53.437505-131.71485-51.214848-25.66992 19.611328 105.82617 72.47461-51.92969 39.673827-34.43945-8.79883-20.30273 15.51172 37.12109 26.33399 15.65039 42.73828 20.30274-15.51172 0.38672-35.77344 51.92968-39.67383 42.09766 121.14453 25.66992-19.61132-15.85156-141.93555 69.48047-53.083986c13.84069-10.552953 3.84979-29.005075-9.27539-28.785156zm-458.09571 170.85547a18.690393 18.690393 0 0 0 -18.689454 18.6875v280.32812a18.690393 18.690393 0 1 0 37.376954 0v-261.63867h153.2461v261.63867a18.690393 18.690393 0 1 0 37.37695 0v-280.32812a18.690393 18.690393 0 0 0 -18.68945 -18.6875z"/>
</svg>
