<?xml version="1.0" encoding="UTF-8" standalone="no"?>
<svg xmlns="http://www.w3.org/2000/svg" version="1.0" viewBox="0 0 521.94531 457.05469">
<path opacity=".5" d="m54.578125 104.52149a8.3004725 8.3004725 0 0 0 -8.300781 8.30078v54.58789a8.3004725 8.3004725 0 0 0 8.300781 8.29883h127.08788a8.3004725 8.3004725 0 0 0 8.29883 -8.29883v-54.58789a8.3004725 8.3004725 0 0 0 -8.29883 -8.30078z"/>
<path opacity=".25" d="m10.392578 317.49024a10.38486 10.38486 0 0 0 -10.384765 10.38281v118.79688a10.38486 10.38486 0 0 0 10.384765 10.38476h501.16015a10.38486 10.38486 0 0 0 10.38477 -10.38476v-118.79688a10.38486 10.38486 0 0 0 -10.38477 -10.38281z"/>
<path d="m495.54687 0.00194789c-3.02889 0.05075-6.22562 1.09679-9.33398 3.462891l-69.94727 53.439457-131.71484-51.216801-25.66992 19.611328 105.82617 72.474613-51.92969 39.673834-34.43945-8.79688-20.30078 15.50977 37.11914 26.33594 15.65234 42.73633 20.30078-15.50977 0.38672-35.77539 51.92969-39.67383 42.09766 121.14453 25.66992-19.61133-15.85156-141.93554 69.48046-53.082042c13.8407-10.552953 3.8498-29.007028-9.27539-28.78711zm-385.59765 14.720703a3.6900436 3.6900436 0 0 0 -3.68946 3.689453v84.109386h-55.5664a4.4154224 4.4154224 0 0 0 -4.416016 4.41601v14.55664a4.4154224 4.4154224 0 0 0 4.416016 4.41407h134.85742a4.4154224 4.4154224 0 0 0 4.41406 -4.41407v-14.55664a4.4154224 4.4154224 0 0 0 -4.41406 -4.41601h-55.91992v-84.109386a3.6900436 3.6900436 0 0 0 -3.68946 -3.689453h-15.99218zm-59.25586 149.22852a4.4154224 4.4154224 0 0 0 -4.416016 4.41602v14.55664a4.4154224 4.4154224 0 0 0 0.765625 2.48242c2.561939 13.24687 6.715694 28.5157 15.099609 41.31641h-5.11914c-5.934794 0.00027-10.745829 4.8113-10.746094 10.74609v80.00782h-35.892578a10.38486 10.38486 0 0 0 -10.384766 10.38281v118.80469a10.38486 10.38486 0 0 0 10.384766 10.38476h372.23046a10.38486 10.38486 0 0 0 10.38477 -10.38476v-57.61329h90.2793v57.61329a10.38486 10.38486 0 0 0 10.38476 10.38476h17.89648a10.38486 10.38486 0 0 0 10.38477 -10.38476v-118.80469a10.38486 10.38486 0 0 0 -10.38477 -10.38281h-38.29101v-24.42774a7.0393377 7.0393377 0 0 0 -7.03906 -7.03711h-152.92578a7.0393377 7.0393377 0 0 0 -7.03907 7.03711v24.42774h-116.30078v-80.00782c-0.00026-5.93479-4.8113-10.74583-10.74609-10.74609h-6.02344c8.09711-12.78408 11.62553-26.78474 15.40234-38.5293a10.746569 10.746569 0 0 0 0.47852 -2.61914 4.4154224 4.4154224 0 0 0 0.88867 -2.65039v-14.55664a4.4154224 4.4154224 0 0 0 -4.41406 -4.41602h-134.85741zm-25.171876 177.98633h90.244136v20.23243h-90.244136zm125.09571 0h90.24218v20.23243h-90.24218zm122.20117 0h90.24218v20.23243h-90.24218zm120.19922 0h90.24218v20.23243h-90.24218zm-367.51368 47.11328h90.279296v43.06642h-90.279296zm125.24414 0h90.2793v43.06642h-90.2793zm122.05079 0h90.27929v43.06642h-90.27929z"/>
</svg>
