<?xml version="1.0" encoding="UTF-8" standalone="no"?>
<svg xmlns="http://www.w3.org/2000/svg" version="1.0" viewBox="0 0 570.32617 570.32617">
<path opacity=".1" d="m558.42335 285.1621a273.26047 273.26047 0 0 1 -273.26047 273.26049 273.26047 273.26047 0 0 1 -273.26047 -273.26049 273.26047 273.26047 0 0 1 273.26047 -273.26047 273.26047 273.26047 0 0 1 273.26047 273.26047z"/>
<path d="m285.16211 0c-157.34987 5.0000002e-7 -285.1621 127.81224-285.16211 285.16211-0.0000013 157.34988 127.81223 285.16406 285.16211 285.16406 157.34989 0 285.16408-127.81418 285.16407-285.16406 0-157.34987-127.81419-285.16211-285.16407-285.16211zm0 23.802735c144.48531-0.000001 261.35938 116.87406 261.35938 261.35938 0.00001 144.48531-116.87406 261.35937-261.35938 261.35937-144.48531 0-261.35742-116.87407-261.35742-261.35938 0.000002-144.48531 116.87211-261.35938 261.35742-261.35938zm-1.39062 46.330078c0.52991 0 1.08175 0.02118 1.61719 0.02539 0.53916-0.0043 1.08169-0.02539 1.61523-0.02539zm1.61719 0.02539c-37.62553 0.298108-88.6035 10.892252-109.88086 19.757812-21.58225 8.992619-35.97487 17.989665-40.47071 40.470705l-16.18359 124.64258v171.72461h27.88672v26.93164c0 32.83687 48.03516 32.83685 48.03515 0v-26.93164h181.22461v26.93164c0 32.83687 48.06055 32.83685 48.06055 0v-26.93164h27.88672v-171.72461l-16.18359-124.64258c-4.49584-22.48104-18.88845-31.478086-40.47071-40.470704-21.27944-8.86643-72.27769-19.461686-109.90429-19.757813zm-68.50391 31.460937h137.03125c13.48937 0.00001 13.48938 20.22266 0 20.22266h-137.03125c-13.48937 0-13.48938-20.22266 0-20.22266zm-36.38281 40.66602h209.77148c14.24931 0 17.97897 7.23232 19.70899 18.21484l12.60937 90.39258c1.17462 8.66424-1.34793 17.25975-13.31836 17.25976h-247.76953c-11.97044 0-14.46954-8.59553-13.29492-17.25976l12.60937-90.39258c1.73004-10.98252 5.43427-18.21484 19.6836-18.21484zm-9.71875 184.52929c12.72944-0.00001 23.03906 10.33306 23.03906 23.0625 0 12.72945-10.30962 23.03907-23.03906 23.03907-12.72944 0.00001-23.06446-10.30963-23.06446-23.03907 0-12.72943 10.33502-23.0625 23.06446-23.0625zm229.23437 0c12.72944 0 23.03906 10.33307 23.03907 23.0625 0 12.72944-10.30963 23.03908-23.03907 23.03907-12.72944 0-23.06251-10.30962-23.0625-23.03907 0-12.72944 10.33307-23.06251 23.0625-23.0625z"/>
</svg>
