<?xml version="1.0" encoding="UTF-8" standalone="no"?>
<svg xmlns="http://www.w3.org/2000/svg" version="1.0" viewBox="0 0 425.15625 520.99695">
<path d="m210.5 0c0.67637 0 1.37906 0.02587 2.0625 0.03125 0.68817-0.0055 1.3815-0.03125 2.0625-0.03125zm2.0625 0.03125c-48.02485 0.380502-113.09179 13.902829-140.25 25.21875-27.54737 11.478075-45.91781 22.961674-51.65625 51.656254l-20.65625 159.09375v219.1875h35.59375v34.375c0 41.91264 61.3125 41.91262 61.3125 0v-34.375h231.3125v34.375c0 41.91264 61.34375 41.91262 61.34375 0v-34.375h35.59375v-219.1875l-20.65625-159.09375c-5.73844-28.694576-24.10887-40.178177-51.65625-51.65625-27.16086-11.317022-92.25504-24.840778-140.28125-25.21875zm-87.4375 40.15625h174.90625c17.2177 0.000004 17.21771 25.8125 0 25.8125h-174.90625c-17.2177 0-17.21771-25.8125 0-25.8125zm-46.4375 51.906254h267.75c18.18768 0 22.94807 9.232016 25.15625 23.249996l16.09375 115.375c1.49927 11.05895-1.72106 22.03124-17 22.03125h-316.25c-15.27895 0-18.46802-10.97231-16.96875-22.03125l16.09375-115.375c2.2082-14.01798 6.93731-23.249996 25.125-23.249996zm-12.40625 235.53125c16.24773-0.00001 29.40625 13.18977 29.40625 29.4375 0 16.24774-13.15852 29.40625-29.40625 29.40625-16.24773 0.00001-29.4375-13.15852-29.4375-29.40625 0-16.24772 13.18977-29.4375 29.4375-29.4375zm292.59375 0c16.24773 0 29.40624 13.18978 29.40625 29.4375 0 16.24773-13.15852 29.40626-29.40625 29.40625-16.24773 0-29.43751-13.15851-29.4375-29.40625 0-16.24773 13.18978-29.43751 29.4375-29.4375z"/>
</svg>
