<?xml version="1.0" encoding="UTF-8" standalone="no"?>
<svg xmlns="http://www.w3.org/2000/svg" height="492.40234" width="189.24373" version="1.0" viewBox="0 0 189.24373 492.40235">
<path d="m109.89802 0c-23.118553 2.497733-107.34406 41.067657-109.84179 239.49219-2.6139128 209.1125 86.665227 253.08434 110.07422 252.67773v-138.07226c-19.284823 0-23.119113-20.96998-27.591803-64.30274-2.84625-28.69488-3.71755-64.12803 0-99.38672 2.73008-24.74498 7.2604-48.9082 27.474613-48.9082zm24.74415 0v141.5l39.03515 0.11523 0.11524-0.11523c8.94536 0 15.33593-7.26093 15.33593-15.45117h0.11524s-0.11524-110.71391-0.11524-110.83008c0-8.480674-6.91335-15.21875-15.33593-15.21875zm0 353.92383v138.41992s39.03515 0.11617 39.03515 0h0.11524v0.0586c8.94536 0 15.33593-7.26093 15.33593-15.45117l0.11524-0.11719s-0.11524-107.57523-0.11524-107.6914c0-8.48067-6.91335-15.21875-15.33593-15.21875h-39.15039z"/>
</svg>
