<?xml version="1.0" encoding="UTF-8" standalone="no"?>
<svg xmlns="http://www.w3.org/2000/svg" version="1.0" viewBox="0 0 461.51825 492.91315">
<path d="m138.62184 0c-26.66147 0-40.804563 14.556103-47.333983 31.59375l-34.66016 89.4961c-13.73984 1.7618-38.095704 17.88855-38.095704 48.4414v113.8086h33.734374v36.39844c0 44.77861 63.371103 44.25124 63.371103 0v-36.39844h228.02539v36.39844c0 44.25123 63.37073 44.77861 63.37109 0v-36.39844h33.73633v-113.8086c0-30.55285-24.35757-46.6796-38.09766-48.4414l-34.69531-89.4961c-6.52939-17.037647-20.67428-31.59375-47.33594-31.59375h-132.43164zm-0.40625 32.591797h182.83396c11.42581 0.106482 16.31932 7.25115 19.58399 17.144531l26.12305 70.429692h-274.24998l26.125-70.429692c3.26473-9.893381 8.15698-17.038133 19.58398-17.144531zm-53.246093 121.82617c16.167383 0 29.263673 13.48952 29.263673 30.15235 0 16.66399-13.09629 30.18945-29.263673 30.18945-16.16616 0-29.26563-13.52546-29.26563-30.18945 0-16.66277 13.09947-30.15235 29.26563-30.15235zm289.36132 0c16.16741 0 29.26574 13.48958 29.26563 30.15235 0 16.66399-13.09822 30.18945-29.26563 30.18945-16.16616 0-29.30078-13.52546-29.30078-30.18945 0-16.66283 13.13462-30.15235 29.30078-30.15235zm-236.28906 221.65625c-2.53157-0.0259-5.08025 0.005-7.65234 0.082-36.251913 1.08076-77.775103 13.7464-127.86328 43.4375a5.1535557 5.1535557 0 0 0 -1.808594 7.05664l19.843747 33.53711a5.1535557 5.1535557 0 0 0 7.0625 1.8086c51.679624-30.63446 86.949657-38.17751 114.9961-36.46482 28.02289 1.71125 50.98803 13.09181 77.58789 27.4668 26.58543 14.3672 56.5456 31.79474 95.50976 37.82031 39.0152 6.03348 85.46522-0.29171 142.87696-27.83007a5.1535557 5.1535557 0 0 0 2.41406 -6.88086l-16.89649-35.09571a5.1535557 5.1535557 0 0 0 -6.87304 -2.41015c-50.96848 24.44778-85.44967 27.96663-113.9668 23.55664-28.45031-4.39967-52.36376-17.72675-79.62109-32.45703-27.26971-14.73699-58.35162-30.94025-98.0625-33.36524-2.50084-0.15271-5.01531-0.2358-7.54688-0.26172z"/>
</svg>
