<?xml version="1.0" encoding="UTF-8" standalone="no"?>
<svg xmlns="http://www.w3.org/2000/svg" version="1.0" viewBox="0 0 352.54465 505.33789">
<path d="m128.488 0c-8.48242-9.9999992e-7 -16.9375 6.130636-16.9375 15.9375l-0.01 16.775391c-11.36129-1.421277-22.556634 1.51406-32.703124 31.677734 0.0275 17.282089 0.37465 34.722689 0.83008 52.218755 0.006-0.0231 0.0119-0.0453 0.0176-0.0684 0.008 0.28206 0.001 0.54936 0.004 0.82617-0.007-0.25236-0.0149-0.50548-0.0215-0.75781-17.69329 71.98757-53.21606 113.30451-78.55274 174.35546-11.539502 61.56842 69.73314 90.63056 94.84961 27.35743 1.20658-4.43529 1.55616-9.30265 0.97656-14.00196-0.27152-2.20143-0.74645-130.86359-0.64257-196.05664l15.197264 0.0899-0.13281 222.83398h17.4375l0.15625 24.9375 160.09375-0.0937 0.125-24.84375 15 0.125v-318.625c0.00031-6.796192-3.9365-12.687556-11.34362-12.687556h-164.34375zm26.78125 34.84375h104.90625c5.80827 0 10.37501 2.365513 10.375 10.375v82.875c0 5.61371-3.00087 9.6875-9.40625 9.6875l-105.59375-0.28125c-6.09827 0-11.34375-4.50537-11.34375-11.0625l0.53125-81.5c0-6.523696 4.51979-10.093754 10.53125-10.09375zm-74.070314 135.15234c0.022 0.0307 0.0404 0.0591 0.0625 0.0898-0.0163 0.0317-0.0403 0.0796-0.0566 0.11133 1.34077 48.16217 2.04646 96.00801-1.97266 141.49023-15.64187 45.06402-65.58683 31.23191-63.75195-10.75195 21.75659-45.42677 49.79786-99.74643 65.72461-130.73828-0.002-0.067-0.004-0.13416-0.006-0.20118zm221.91601 228.74805c-11.81255 0.0001-21.21097 1.66417-28.19531 4.99219-8.95315 4.3126-15.75001 10.629-20.39062 18.94922-4.64063 8.32039-6.96094 18.10553-6.96094 29.35547 0 10.68754 2.12109 20.15628 6.36328 28.40625 4.24217 8.25001 10.21873 14.46095 17.92969 18.63281 7.7109 4.17188 17.68355 6.2578 29.91797 6.25781 9.93743-0.00001 18.52726-1.16016 25.76953-3.48047 7.24209-2.32031 15.57412-6.6914 24.99609-13.11328v-43.94531h-49.21875v21.44531h21.30469v9.70313c-4.17195 2.4844-7.87508 4.2422-11.10938 5.27343-3.23445 1.03127-6.63287 1.5469-10.19531 1.54688-7.50005 0.00002-13.34771-2.39061-17.54297-7.17188-4.19536-4.78122-6.29301-12.74996-6.29297-23.90625-0.00004-10.49994 2.07419-18.1757 6.22266-23.02734 4.14839-4.85148 9.71479-7.27726 16.69922-7.27734 4.68744 0.00008 8.54289 1.03133 11.5664 3.09375 3.02336 2.06258 5.1679 5.03913 6.4336 8.92968l30.72656-5.48437c-1.8751-6.65617-4.67588-12.15225-8.40234-16.48828-3.72666-4.33584-8.41416-7.53507-14.0625-9.59766-5.64852-2.0624-14.16805-3.09365-25.5586-3.09375zm-251.85937 1.75781v103.07813h81.562504v-25.38281h-49.710944v-77.69532zm96.046874 0v103.07813h31.99219v-38.25h17.4375c12.84368 0.00004 22.39444-2.92964 28.65234-8.78906 6.25772-5.85932 9.38662-13.99213 9.38672-24.39844-0.0001-10.12492-2.87119-17.9296-8.61328-23.41406-5.74228-5.48427-14.37898-8.22647-25.91015-8.22657zm31.99219 20.95313h9.07031c5.95306 0.00008 10.00776 1.12508 12.16407 3.375 2.15618 2.25008 3.23431 4.99225 3.23437 8.22656-0.00006 3.32819-1.24225 6.05866-3.72656 8.19141-2.48443 2.13287-6.79693 3.19928-12.9375 3.19922h-7.80469z"/>
</svg>
