<?xml version="1.0" encoding="UTF-8" standalone="no"?>
<svg xmlns="http://www.w3.org/2000/svg" height="356.125" width="304.17535" version="1.0" viewBox="0 0 304.17536 356.125">
<path d="m128.488 0c-8.48242 0-16.9375 6.13064-16.9375 15.9375l-0.01 16.77539c-11.36129-1.42128-22.556633 1.51407-32.703123 31.67773 0.0275 17.2821 0.37465 34.72268 0.83008 52.21876 0.006-0.0231 0.0119-0.0453 0.0176-0.0684l0.004 0.13086c-0.006-0.021-0.0151-0.0415-0.0215-0.0625-17.69329 71.98757-53.21606 113.30451-78.55274 174.35546-11.53951 61.56842 69.73314 90.63056 94.84961 27.35743 1.20658-4.43529 1.55616-9.30265 0.97656-14.00196-0.27152-2.20143-0.74645-130.86359-0.64257-196.05664l15.197263 0.0899-0.13281 222.83398h17.4375l0.15625 24.9375 160.09375-0.0937 0.125-24.84375 15 0.125v-318.625c0.00001-6.79608-3.93663-12.6875-11.34375-12.6875zm26.78125 34.84375h104.90625c5.80827 0 10.37501 2.36551 10.375 10.375v82.875c0 5.61371-3.00087 9.6875-9.40625 9.6875l-105.59375-0.28125c-6.09827 0-11.34375-4.50537-11.34375-11.0625l0.53125-81.5c0-6.5237 4.51979-10.09375 10.53125-10.09375zm-74.064453 135.35352c1.34077 48.16217 2.04646 96.00801-1.97266 141.49023-15.64187 45.06402-65.58683 31.23191-63.75195-10.75195 21.75659-45.42677 49.79786-99.74643 65.72461-130.73828z"/>
</svg>
