<?xml version="1.0" encoding="UTF-8" standalone="no"?>
<svg xmlns="http://www.w3.org/2000/svg" version="1.0" viewBox="0 0 513.90625 513.90625">
<path d="m256.95313 0c-141.78419 9.9999995e-7 -256.95313 115.16895-256.95313 256.95313-0.0000059999998 141.78419 115.16894 256.95313 256.95313 256.95313s256.95313-115.16894 256.95312-256.95313c0-141.78418-115.16894-256.95313-256.95312-256.95313zm0 21.447265c130.19223-0.000001 235.5039 105.31364 235.5039 235.50586 0.00001 130.19225-105.31166 235.50195-235.5039 235.50195s-235.50196-105.30971-235.50196-235.50195c0.000004-130.19223 105.30972-235.50586 235.50196-235.50586zm-119.84571 63.595703a8.7025599 8.7025599 0 0 0 -6.0332 2.57032 8.7025599 8.7025599 0 0 0 -0.1582 0.15039 8.7025599 8.7025599 0 0 0 -0.0371 0.041 8.7025599 8.7025599 0 0 0 -2.34375 7.45703v319.22461a8.7025599 8.7025599 0 0 0 8.70312 8.70313h43.37891a8.7025599 8.7025599 0 0 0 8.70117 -8.70313v-143.98437h140.22266v143.98437a8.7025599 8.7025599 0 0 0 8.70117 8.70313h43.3789a8.7025599 8.7025599 0 0 0 8.70313 -8.70313v-320.61914a8.7025599 8.7025599 0 0 0 -8.70313 -8.70117h-43.3789a8.7025599 8.7025599 0 0 0 -8.70117 8.70117v122.72461h-140.22266v-122.72461a8.7025599 8.7025599 0 0 0 -8.70117 -8.70117h-41.95117a8.7025599 8.7025599 0 0 0 -1.5586 -0.12305z"/>
</svg>
