<?xml version="1.0" encoding="UTF-8" standalone="no"?>
<svg xmlns="http://www.w3.org/2000/svg" version="1.0" viewBox="0 0 549.87561 268.99701">
<path d="m80.020336 0.00012121745a3.7875022 3.7875022 0 0 0 -3.068359 5.97071l11.189454 15.85351a3.7875022 3.7875022 0 0 0 2.91797 1.59766l212.31054 9.90039-0.64843 31.75977c-7.27262 0.66515-14.63946 3.40435-21.82032 6.72265-10.15782 4.69397-20.06038 10.66248-28.59961 14.31836l0.34571 2.04492c-13.7024 2.1705-27.28633 3.88022-40.86328 4.10743a7.50074 7.50074 0 0 0 -0.36524 0.0156c-51.70725 3.39589-114.0204 5.72603-165.42578 3.46094a7.50074 7.50074 0 0 0 -3.818359 0.86914c-0.860446-0.14405-1.74242-0.23447-2.636719-0.28906-5.131742-13.68559-10.104741-27.53717-15.248045-41.36717a7.50074 7.50074 0 0 0 -6.919922 -4.88477 7.50074 7.50074 0 0 0 -0.535156 0.0117l-9.7929692 0.55664a7.50074 7.50074 0 0 0 -6.289062 10.76172l-0.04883-0.0312c6.480758 13.51677 12.739068 27.71643 19.328125 41.576169-8.579343 7.99706-12.08768 21.69071-5.708985 32.32227 4.514037 9.29431 14.419363 13.90076 24.148438 13.62305l14.451172 41.46875a7.50074 7.50074 0 0 0 9.015625 4.77734c-0.49229 0.13607-0.333812 0.0575 0.267578 0.0879 0.768694 0.0388 1.957353 0.15699 3.357422 0.21289s2.979891 0.16585 5.283203-0.49609c2.303312-0.66195 6.111427-3.5439 6.792969-7.28125a7.50074 7.50074 0 0 0 -0.865235 -5.06446c-6.143617-10.76268-11.176145-22.67557-16.345703-34.76367 63.606663 4.4921 152.19792 39.08009 222.31836 68.55469a7.50074 7.50074 0 0 0 0.46875 0.17969c38.01016 13.06252 78.59018 10.52628 116.33008 7.24804a7.50074 7.50074 0 0 0 0.58398 -0.0742c9.49905-1.58487 20.97929-2.77804 32.01563-6.375 11.03627-3.59692 22.02338-10.04302 28.51562-21.93359a7.50074 7.50074 0 0 0 0.49414 -1.10937c5.85363-16.6604 0.0507-33.49254-5.05273-46.60352a7.50074 7.50074 0 0 0 -0.10547 -0.25391c-15.70456-36.35186-50.82968-58.267789-87.78125-66.318349-11.86848-6.07947-31.88035-15.58367-50.04492-16.06055l0.64843-31.81836 216.28321-11.7207a3.7875022 3.7875022 0 0 0 2.66992 -1.31836l11.1914-13.05469a3.7875022 3.7875022 0 0 0 -3.20312 -6.2382798l-236.41016 20.48627-228.95117-21.41602a3.7875022 3.7875022 0 0 0 -0.378909 -0.015599783zm-41.923828 108.14649c0.699074-0.004 1.379412 0.0546 2.042969 0.16016a7.50074 7.50074 0 0 0 1.441406 1.23046c2.53809 1.64668 3.961594 1.84379 5.21289 1.99219 5.780803 5.15639 7.582065 15.01099 1.402344 20.97656-7.935509 9.5955-25.274577 3.16793-25.142578-9.23242-0.448558-7.79209 6.088705-14.88016 13.894531-15.06836 0.387385-0.0366 0.770381-0.0564 1.148438-0.0586zm322.9375 1.98437c2.62055-0.005 5.41492 0.0679 8.47461 0.23438 15.89064 1.38935 32.42276 9.59146 42.53125 21.42187a7.50074 7.50074 0 0 0 0.57421 0.60157c9.22797 8.64638 14.88461 21.2422 17.25977 34.52929-17.66929 0.30682-34.09412-0.0404-51.61914-0.13281-9.43115-19.18264-19.46689-37.50597-28.77539-56.14453 3.70161-0.26089 7.49072-0.50245 11.55469-0.50977zm-46.00782 2.84766c1.49874 2.0834 3.42579 5.13804 5.49415 9.39844 2.81936 5.80739 5.78604 12.9836 8.60937 20.28711 3.76371 9.73612 6.96239 18.65735 9.78906 26.29883-16.21562 0.0302-34.4142 0.24507-49.70312 0.20703-0.23371-14.53695-0.64697-41.27172-0.88086-55.9375 8.84275-0.0905 17.95291-0.15705 26.6914-0.25391zm-73.06054 128.24414a13.887509 13.887509 0 1 0 0 27.77344h197.93945a13.887509 13.887509 0 1 0 0 -27.77344z"/>
</svg>
