<?xml version="1.0" encoding="UTF-8" standalone="no"?>
<svg xmlns="http://www.w3.org/2000/svg" version="1.0" viewBox="0 0 522.62512 518.7735">
<path opacity=".5" d="m5.1329317 45.002029a5.0005 5.0005 0 0 0 -5.132813 5.033203l0.59179702 85.763678a5.0005 5.0005 0 0 0 5.617187 4.92578l202.66602-25.25781a5.0005 5.0005 0 0 0 4.38085 -4.96289v-34.652351a5.0005 5.0005 0 0 0 -4.36914 -4.960934l-203.25586-25.849614a5.0005 5.0005 0 0 0 -0.498046 -0.03906zm512.3457 0a5.0005 5.0005 0 0 0 -0.48633 0.03906l-202.66406 25.849616a5.0005 5.0005 0 0 0 -4.36914 4.960934v34.060551a5.0005 5.0005 0 0 0 4.36914 4.96094l202.66406 25.84961a5.0005 5.0005 0 0 0 5.63282 -4.95899v-85.763674a5.0005 5.0005 0 0 0 -5.14649 -4.998047z"/>
<path d="m260.32824 0.00007583807a5.0005 5.0005 0 0 0 -2.45898 0.630859l-71.6543 39.941406a5.0005 5.0005 0 0 0 -0.31055 0.189453c-2.15628 1.416175-4.02984 4.268636-4.02929 7.119141-0.00022 1.813464 0.53035 4.071366 2.19921 5.740234 1.66887 1.668869 3.92672 2.199559 5.74024 2.199219h140.97851c1.87057 0.00006 3.99995-0.354382 5.84766-1.892578 1.84832-1.5387 2.68322-4.066016 2.68359-6.046875a5.0005 5.0005 0 0 0 0 -0.002c-0.00088-2.832275-1.84782-5.680096-3.99218-7.103516a5.0005 5.0005 0 0 0 -0.34571 -0.21089l-72.26367-39.941406a5.0005 5.0005 0 0 0 -2.39453 -0.62304716zm1.18359 57.029297c-20.08716-0.000004-36.46289 16.377676-36.46289 36.464846 0 20.087171 16.37572 36.462901 36.46289 36.462891 20.08717 0 36.46485-16.37572 36.46485-36.462891 0-20.08717-16.37768-36.464844-36.46485-36.464846zm-74.63671 75.748047c-2.98692 0.00021-6.12839 0.82916-8.38086 3.08789-2.25248 2.25874-3.07438 5.39657-3.07422 8.38477-0.00016 2.98471 0.82385 6.12073 3.07812 8.375 2.25428 2.25427 5.39224 3.07832 8.37696 3.07813h6.62695l-47.41992 357.4121a5.0005 5.0005 0 0 0 4.95703 5.65821h218.52929a5.0005 5.0005 0 0 0 4.95899 -5.65039l-46.83984-357.41992h6.63671c2.98452 0.00019 6.12089-0.82403 8.375-3.07813 2.25412-2.2541 3.07787-5.3904 3.07813-8.375-0.00026-2.98809-0.81996-6.12619-3.07227-8.38477-2.25231-2.25855-5.39413-3.08768-8.38086-3.08789z"/>
</svg>
