<?xml version="1.0" encoding="UTF-8" standalone="no"?>
<svg xmlns="http://www.w3.org/2000/svg" version="1.0" viewBox="0 0 459.7793 465.91602">
<path d="m67.697259 0-38.5957 22.232422 71.812501 20.832033c-70.054021 42.45443-126.7232 129.33284-88.703131 243.40624l34.18359-12.5957c-25.412698-62.83104-0.12971-159.49412 72.945321-199.0293l-18.88477 71.835935 37.39453-20.88672 28.11328-98.990232zm170.5 17.65625-5.95117 35.941415c67.17909 8.9729 138.70487 78.739125 136.94336 161.80468l-53.10743-51.92968-0.33203 42.83007 72.14844 73.37696 71.88086-72.16602-0.24414-44.53906-53.61328 52.12305c-2.26957-81.8828-49.77052-174.09392-167.72461-197.44142zm-81.51563 302.21483-99.726561 25.39063 26.16016 98.43945 38.605471 22.21484-18.04102-72.56445c71.88891 39.2674 175.47667 44.65597 255.03906-45.5l-28.05664-23.24023c-41.57745 53.52438-137.86885 80.19536-208.75 36.84961l71.60742-19.73828z"/>
</svg>
