<?xml version="1.0" encoding="UTF-8" standalone="no"?>
<svg xmlns="http://www.w3.org/2000/svg" version="1.0" viewBox="0 0 459.77905 465.91599">
<path d="m392.08203 0-98.26757 26.804688 28.11523 98.990232 37.39258 20.88672-18.88281-71.835935c73.07503 39.535175 98.35606 136.19826 72.94335 199.0293l34.18555 12.5957c38.02007-114.0734-18.65107-200.95182-88.70508-243.40624l71.8125-20.832033zm-170.50195 17.65625c-117.95409 23.347495-165.45504 115.55861-167.72461 197.44142l-53.611329-52.12307-0.244141 44.53906 71.878908 72.16604 72.148442-73.37696-0.33008-42.83008-53.107422 51.92968c-1.76151-83.06555 69.764272-152.83178 136.94336-161.80468zm81.51758 302.21483-36.83789 21.85157 71.60547 19.73828c-70.88115 43.34574-167.1706 16.67476-208.74805-36.84962l-28.05664 23.24023c79.56239 90.15597 183.15015 84.7674 255.03906 45.5l-18.04101 72.56445 38.60351-22.21484 26.16016-98.43944z"/>
</svg>
