<?xml version="1.0" encoding="UTF-8" standalone="no"?>
<svg xmlns="http://www.w3.org/2000/svg" version="1.0" viewBox="0 0 501.98441 491.71286">
<path d="m0 0v369.87501h48.947266v-150.37305h94.865234c52.31047 0.00015 88.47397-10.88961 108.49023-32.67188 20.01568-21.78191 30.02312-48.39958 30.02344-79.85351-0.00032-18.333702-3.7419-35.154292-11.22656-50.460942-7.48527-15.306013-17.36807-27.206655-29.64649-35.701175-12.27899-8.49383-27.50049-14.255213-45.66601-17.283203-12.95175-2.35445-31.70644-3.53089-56.26367-3.53125h-139.52344zm48.947266 43.648438h94.613284c22.20241 0.00032 37.42391 1.092997 45.66601 3.279296 12.78308 3.532544 23.08462 10.807324 30.90625 21.824224 7.82111 11.0175 11.73215 24.26401 11.73242 39.738282-0.00027 21.36185-6.64398 37.92924-19.93164 49.70313-13.28817 11.77432-35.74354 17.66035-67.36523 17.66015h-95.621094zm290.03515 198.24414 0.0723 19.11524 29.92773 0.0605c3.5714 0.007 5.42406 5.02945-1.55664 6.98242-3.05824 0.84667-6.46538 4.48914-7.60547 9.00195-1.1401 4.51283-0.28689 9.01423 1.38086 13.18359 0.37989 0.94974 1.15316 3.96205 2.23633 8.02735l-135.875 0.68555-8.02539-19.64454c8.62652-1.9616 29.76748-6.97664 32.72461-9.79101 3.41795-3.11293-0.00029-7.79883-2.64844-7.79883h-70.91016c0.87658 15.653 13.13554 19.03954 19.76563 20.06641l7.8418 19.19531a8.5342691 8.5342691 0 0 0 -2.09766 2.54101l-23.78516 44.17188c-8.60026-3.46905-17.97478-5.39844-27.78906-5.39844-41.13548 0-74.708979 33.57546-74.708979 74.71094 0 41.13547 33.573509 74.71094 74.708979 74.71094 38.67732 0 70.66207-29.68539 74.34766-67.42578h17.87304c2.01633 3.6603 5.32019 6.67069 9.37891 8.58007l-7.49219 17.4375-13.43359 0.12305a5.2125473 5.2125473 0 1 0 0.0957 10.42188l30.15235-0.27539a5.2125473 5.2125473 0 1 0 -0.0957 -10.42383l-8.56836 0.0781 6.58008-15.3125c0.94785 0.11289 1.90706 0.19141 2.88867 0.19141 11.92879 0 21.67774-8.6105 21.67774-19.14649 0-1.32744-0.15485-2.62406-0.44922-3.87695l92.60742-62.83984c0.85599 2.96625 1.57003 5.41778 2.39453 8.27734-17.06319 13.7148-28.02929 34.73356-28.02929 58.23242 0 41.13547 33.57351 74.71094 74.70898 74.71094 41.13546 0 74.70897-33.57547 74.70898-74.71094 0-41.13547-33.57351-74.71094-74.70898-74.71094-10.09493 0-19.72964 2.03181-28.5293 5.69141-0.89836-3.10741-1.61772-5.57039-2.53711-8.74805-3.46375-11.9717-6.99313-24.12578-9.96484-34.05664-2.92757-9.78348-5.63576-15.8088-6.52344-20.14453-0.69182-3.37905 3.58893-3.08874 8.09961-6.84765 3.40643-2.83867 6.29551-7.63297 7.17969-12.51368 0.73705-4.29225-0.17577-8.60514-2.17188-12.13671-6.93459-10.59401-13.69971-10.39454-22.65039-10.39454-11.76949 0-31.19512-0.00041-31.19531 0zm29.31446 73.41211c1.56084 5.26847 3.18601 10.80262 4.90429 16.70704l-72.25195 49.02929a5.2127467 5.2127467 0 0 0 -3.52539 -9.16015l-30.15235 0.27539a5.2127467 5.2127467 0 1 0 0.0957 10.42382l8.50781-0.0781-6.39258 14.87891c-0.60361-0.13036-1.21604-0.23595-1.83789-0.32032l-33.12305-81.08008 133.77539-0.67578zm-153.9375 5.3711 33.76954 82.66015c-1.17767 1.17941-2.20495 2.47656-3.0293 3.88477h-18.41602c-2.79551-21.18418-14.52169-39.61625-31.26172-51.375zm212.91602 41.625c29.64738 0 53.45309 23.80572 53.45313 53.45312-0.00001 29.64739-23.80575 53.45313-53.45313 53.45313-29.6474 0-53.45312-23.80573-53.45313-53.45313 0-13.64867 5.05492-26.05079 13.39258-35.4707 0.86798 2.92795 1.77184 5.99097 2.42774 8.13867 0.94521 3.09512 1.42369 4.82816 2.22265 6.79492l0.33203 0.81836 0.48438 0.74024c0.34712 0.55537 3.75988 10.15359 12.98047 18.0625l0.0762 0.0527 0.0508 0.0762c6.62662 5.48852 12.34107 7.45751 15.95116 8.60352 3.80201 1.16893 9.00462 0.56939 11.52344-3.33789 1.99867-2.86701 0.23801-8.67046-3.54687-11.41992-1.49013-1.04152-5.78312-4.45109-11.05664-9.06641-4.70337-4.1992-5.08455-7.41402-7.88868-12.34766 0.0717 0.15946-0.70463-2.0757-1.58398-4.95507-0.90254-2.95533-2.07807-6.90241-3.42383-11.49805-0.30126-1.0288-0.75025-2.59881-1.06836-3.68945 6.85113-3.17587 14.49595-4.95508 22.58008-4.95508zm-274.63673 1.24804c6.19633 0 12.13034 1.05104 17.65236 2.9668l-24.33399 45.19141a8.5342691 8.5342691 0 0 0 7.51367 12.58008h52.11913c-3.52692 26.16523-25.77777 46.16796-52.95117 46.16796-29.6474 0-53.453119-23.80573-53.453119-53.45312 0-29.6474 23.805719-53.45313 53.453119-53.45313zm32.66797 11.08008c10.21211 7.86735 17.46159 19.35353 19.88477 32.5918h-37.43359zm114.65235 7.08399-22.05273 14.96484 6.12108-14.25 13.49219-0.12305a5.2127467 5.2127467 0 0 0 2.43946 -0.59179z"/>
</svg>
