<?xml version="1.0" encoding="UTF-8" standalone="no"?>
<svg xmlns="http://www.w3.org/2000/svg" version="1.0" viewBox="0 0 424.11911 497.20624">
<path d="m0 0v369.87501h48.947266v-150.3711h94.865234c52.31047 0.00015 88.47397-10.89156 108.49023-32.67383 20.01568-21.78191 30.02312-48.39958 30.02344-79.85351-0.00032-18.333702-3.7419-35.154292-11.22656-50.460942-7.48527-15.306024-17.36807-27.206653-29.64649-35.701175-12.27899-8.493825-27.50049-14.255211-45.66601-17.283203-12.95175-2.354454-31.70645-3.530881-56.26368-3.53125h-139.52343zm48.947266 43.648438h94.613274c22.20241 0.00032 37.42392 1.093 45.66602 3.2793 12.78308 3.53255 23.08657 10.80732 30.9082 21.82422 7.82111 11.0175 11.7302 24.26401 11.73047 39.738282-0.00027 21.36185-6.64398 37.92923-19.93164 49.70313-13.28817 11.77432-35.74354 17.6623-67.36523 17.6621h-95.621094zm180.76366 226.35157c-17.15458 0-26.25391 9.36572-30.45507 20.32812l-22.30079 57.58203c-8.84053 1.13359-24.51367 11.51154-24.51367 31.16992v73.22657h21.70703v23.41796c0 28.81157 40.77538 28.47226 40.77539 0v-23.41796h146.71481v23.41796c0 28.47225 40.77516 28.81158 40.77539 0v-23.41796h21.70508v-73.22657c0-19.65837-15.67104-30.03633-24.51172-31.16992l-22.32422-57.58203c-4.20115-10.9624-13.30232-20.32812-30.45703-20.32812h-117.11524zm-0.26172 20.96875h117.63861c7.35162 0.0685 10.50099 4.66562 12.60156 11.03125l16.80859 45.3164h-176.45891l16.81055-45.3164c2.10059-6.36563 5.24721-10.96279 12.5996-11.03125zm-34.25976 78.38671c10.40245 0 18.83008 8.67917 18.83008 19.4004-0.00001 10.72199-8.42763 19.42382-18.83008 19.42382-10.40169 0-18.83008-8.70184-18.83008-19.42382 0-10.72122 8.42839-19.4004 18.83008-19.4004zm186.18359 0c10.40246 0 18.83015 8.67919 18.83008 19.4004 0 10.72197-8.42762 19.42382-18.83008 19.42382-10.40168 0-18.85351-8.70183-18.85351-19.42382 0-10.72123 8.45183-19.4004 18.85351-19.4004z"/>
</svg>
