<?xml version="1.0" encoding="UTF-8" standalone="no"?>
<svg xmlns="http://www.w3.org/2000/svg" version="1.0" viewBox="0 0 343.6875 442.65625">
<path opacity=".25" d="m12.0625 0c-2.96969 0.000344-5.93136 1.21261-8.03125 3.3125s-3.31216 5.061557-3.3125 8.03125v79.531254h78.21875v-18.65625h12.65625v-72.218754zm173.71875 25.03125v47.281254c18.857 0.36599 32.05747 1.6765 37.9375 3.21875 0.0238 0.006 0.0702 0.025 0.0937 0.0312 9.94545 2.76578 17.86239 7.60582 24.53125 15.09375h31.59375v-72.531254c-12.82231-6.612996-27.46266-11.210818-43.7187-13.93745-0.0574-0.01043-0.12999-0.02086-0.1875-0.03125-12.82779-2.316595-29.37944-3.598377-50.03869-4.008934zm94.46875 65.937504v94.156246h54.46875c5.9589-16.20324 8.96856-33.76548 8.96875-52.4375-0.00025-14.56188-1.94586-28.51457-5.875-41.718746zm-38.4375 93.843746c-11.10955 8.0114-29.66215 13.40694-56.03125 14.46875v72.25c38.70047-0.96398 70.28607-7.33666 94.15625-20.15625v-66.5625zm-241.09375 0.21875v94.15625h78.21875v-7.5h12.65625v-72.1875h-12.65625v-14.46875zm0 188.3125v57.59375c0.00034 2.96969 1.21261 5.93136 3.3125 8.03125s5.06156 3.31216 8.03125 3.3125h55.53125c2.96969-0.00034 5.93136-1.21261 8.03125-3.3125s3.31216-5.06156 3.3125-8.03125v-57.59375z"/>
<path opacity=".25" d="m11.34375 0.40625a11.345066 11.345066 0 0 0 -11.34375 11.34375v419.5625a11.345066 11.345066 0 0 0 11.34375 11.34375h55.5a11.345066 11.345066 0 0 0 11.34375 -11.34375v-159.21875h96.28125c60.91521 0.00017 105.39986-12.4151 131.4375-40.75 24.54634-26.71237 37.03087-60.16267 37.03125-98.25-0.00039-22.34127-4.59935-43.249416-13.875-62.218746-9.2028-18.81807-21.71176-34.00753-37.375-44.843758-15.51745-10.73399-34.40527-17.778716-56.21875-21.4375-0.0574-0.01043-0.12999-0.02086-0.1875-0.03125-15.9176-2.874586-37.56905-4.155825-65.6875-4.15625h-158.25zm11.34375 22.6875h146.90625c27.49503 0.000416 48.3613 1.36725 61.8125 3.8125a11.345066 11.345066 0 0 0 0.15625 0.0312c19.31888 3.220244 34.92333 9.244814 47.21875 17.750004 12.1939 8.43604 22.09534 20.24824 29.875 36.15625 7.70547 15.75819 11.59342 32.996006 11.59375 52.249996-0.00034 33.27491-10.19754 60.20012-31.0625 82.90625-19.37498 21.0844-56.95264 33.40642-114.71875 33.40625h-107.625a11.345066 11.345066 0 0 0 -11.34375 11.34375v159.21875h-32.8125v-396.875zm44.15625 26.812504a11.345066 11.345066 0 0 0 -11.34375 11.34375v149.96875a11.345066 11.345066 0 0 0 11.34375 11.34375h108.46875c37.27941 0.00024 65.55179-6.55618 83.96875-22.875 17.62215-15.61457 26.40592-38.29021 26.40625-64.875-0.00033-19.46502-5.0517-37.113966-15.375-51.656246-10.23022-14.409426-24.46573-24.469476-41.3125-29.124996a11.345066 11.345066 0 0 0 -0.0937 -0.0312c-11.78959-3.12732-29.16017-4.09338-54.71875-4.09375h-107.34375zm11.34375 22.6875h96c24.70328 0.00035 41.81106 1.49064 48.78125 3.3125 0.0312 0.008 0.0942 0.0231 0.125 0.0312 12.09166 3.36889 21.22976 9.79538 28.71875 20.34375 7.42116 10.454076 11.18723 22.888466 11.1875 38.531246-0.00027 21.88069-6.25654 36.77715-18.78125 47.875-11.73106 10.3946-34.4428 17.18772-68.90625 17.1875h-97.125v-127.28125z"/>
</svg>
