<?xml version="1.0" encoding="UTF-8" standalone="no"?>
<svg xmlns="http://www.w3.org/2000/svg" height="442.27148" width="342.95703" version="1.0" viewBox="0 0 342.95703 442.27149">
<path d="m11.34375 0.0000029999999a11.345066 11.345066 0 0 0 -11.34375 11.34375v419.58399a11.345066 11.345066 0 0 0 11.34375 11.34375h55.52539a11.345066 11.345066 0 0 0 11.34375 -11.34375v-159.23828h96.27149c60.91521 0.00017 105.38618-12.39753 131.42383-40.73242 24.54633-26.71237 37.04844-60.17244 37.04882-98.25977-0.00038-22.34127-4.61302-43.257229-13.88867-62.226559-9.2028-18.81807-21.70395-34.00753-37.36719-44.843753-15.54284-10.751559-34.45171-17.795538-56.31054-21.449223-15.92664-2.886928-37.59581-4.177309-65.77149-4.177735h-158.27539zm66.86914 72.201178h95.98438c24.75569 0.00035 41.88831 1.50296 48.83008 3.33008 12.13045 3.36291 21.28006 9.80004 28.78515 20.37109 7.42116 10.454079 11.21458 22.868939 11.21485 38.511719-0.00028 21.88068-6.26436 36.79473-18.78907 47.89258-11.73105 10.3946-34.43108 17.18186-68.89453 17.18164h-97.13086z"/>
</svg>
