<?xml version="1.0" encoding="UTF-8" standalone="no"?>
<svg xmlns="http://www.w3.org/2000/svg" version="1.0" viewBox="0 0 342.9707 446.27539">
<path opacity=".25" d="m11.35742 4.003914a11.345066 11.345066 0 0 0 -11.34375 11.34375v419.58399a11.345066 11.345066 0 0 0 11.34375 11.34375h55.52539a11.345066 11.345066 0 0 0 11.34375 -11.34375v-159.23828h96.27149c60.91521 0.00017 105.38618-12.39753 131.42383-40.73242 24.54633-26.71237 37.04844-60.17244 37.04882-98.25977-0.00038-22.34127-4.61302-43.257228-13.88867-62.226558-9.2028-18.81807-21.70395-34.00753-37.36719-44.843753-15.54284-10.75156-34.45171-17.795539-56.31054-21.449224-15.92664-2.886928-37.59581-4.177309-65.77149-4.177735h-158.27539zm66.86914 72.201178h95.98438c24.75569 0.00035 41.88831 1.50296 48.83008 3.33008 12.13045 3.36291 21.28006 9.80004 28.78515 20.37109 7.42116 10.454078 11.21458 22.868938 11.21485 38.511718-0.00028 21.88068-6.26436 36.79473-18.78907 47.89258-11.73105 10.3946-34.43108 17.18186-68.89453 17.18164h-97.13086z"/>
<path opacity=".25" d="m11.34375 0.000008a11.345066 11.345066 0 0 0 -11.34375 11.34375v419.59375a11.345066 11.345066 0 0 0 11.34375 11.34375h55.53125a11.345066 11.345066 0 0 0 11.34375 -11.34375v-159.25h96.28125c60.91521 0.00017 105.36861-12.38385 131.40625-40.71875 24.54634-26.71237 37.06212-60.19392 37.0625-98.28125-0.00039-22.34127-4.59935-43.249418-13.875-62.218748-9.2028-18.81807-21.71176-34.00753-37.375-44.843758-15.51745-10.733987-34.40527-17.778716-56.21875-21.4375-0.0574-0.01043-0.12999-0.02086-0.1875-0.03125-15.9176-2.874586-37.56905-4.155825-65.6875-4.15625h-158.28125zm11.34375 22.6875h146.9375c27.49503 0.000416 48.3613 1.36725 61.8125 3.8125a11.345066 11.345066 0 0 0 0.15625 0.0312c19.31888 3.22024 34.92333 9.244814 47.21875 17.750004 12.1939 8.43604 22.09534 20.24824 29.875 36.15625 7.70547 15.75819 11.59342 32.996008 11.59375 52.249998-0.00034 33.27491-10.19754 60.23137-31.0625 82.9375-19.37498 21.0844-56.95264 33.37517-114.71875 33.375h-107.625a11.345066 11.345066 0 0 0 -11.34375 11.34375v159.25h-32.84375v-396.90625zm44.1875 26.843754a11.345066 11.345066 0 0 0 -11.34375 11.34375v149.96875a11.345066 11.345066 0 0 0 11.34375 11.34375h108.46875c37.27941 0.00024 65.55179-6.58743 83.96875-22.90625 17.62215-15.61457 26.40592-38.29021 26.40625-64.875-0.00033-19.46502-5.08295-37.082718-15.40625-51.624998-10.23022-14.40943-24.43448-24.46948-41.28125-29.125a11.345066 11.345066 0 0 0 -0.0937 -0.0312c-11.78959-3.12732-29.16017-4.09338-54.71875-4.09375h-107.34375zm11.34375 22.6875h96c24.72939 0.00035 41.8252 1.48802 48.78125 3.3125 0.0238 0.006 0.0702 0.025 0.0937 0.0312 12.10617 3.36666 21.22373 9.78689 28.71875 20.34375 7.42116 10.454078 11.21848 22.857218 11.21875 38.499998-0.00027 21.88069-6.25654 36.8084-18.78125 47.90625-11.73106 10.3946-34.4428 17.18772-68.90625 17.1875h-97.125v-127.28125z"/>
</svg>
