<?xml version="1.0" encoding="UTF-8" standalone="no"?>
<svg xmlns="http://www.w3.org/2000/svg" version="1.0" viewBox="0 0 478.40625 498.16129">
<path d="m204.59375 0v48h-55.78125v35.812504h-39.8125v67.999996l-20.65625 8.40625c-12.39934 5.2703-17.57309 16.34708-12.40625 28.46875l34.09375 78.53125v109.34375c-22.08789-0.0254-40.8985-26.85829-81.09375-4.4375-0.000002 0.00001-11.500678 6.4169-28.9375 6.84375v46.875c13.625444-1.01159 20.14595-3.19865 30.46875-8.96875 10.960897-6.12833 31.01594-12.09146 54.78125 0.0312 23.7664 12.12276 43.91344 12.13542 64.0625 1.59375s37.70597-11.08136 56.5625-1.59375c23.76641 12.12276 42.41913 12.25918 66.375 0.28125 19.32804-9.80013 36.69578-9.22917 56.84375 1.3125 20.14907 10.54167 40.29719 10.52901 64.0625-1.59375 23.7653-12.12276 43.70199-5.98215 54.75-0.0312 9.70322 5.22566 16.52611 7.95716 30.5 8.96875v-47.3125c-17.78505-0.42684-28.9375-6.84375-28.9375-6.84375-41.12024-22.43139-59.02136 4.875-81.125 4.875v-109.34375l34.125-78.53125c5.16574-12.12166-0.007-23.19846-12.40625-28.46875l-20.65625-8.40625v-67.999996h-39.8125v-35.812504h-55.78125v-48h-34.625zm-26.34375 76.437504h121.90625v35.281246h39.78125v27.4375l-100.75-41.562496-100.71875 41.562496v-27.4375h39.78125zm-121.99609 357.56836c-9.157563 0.09-17.912004 2.77769-27.06641 8.42773 0 0-9.029767 6.85157-28.929688 6.85157v48.49023c12.549607 0 22.350065-2.45076 30.789063-7.62305 10.709361-6.56391 30.687815-13.41485 54.453125-1.29101 23.76531 12.12276 43.91539 12.12284 64.06445 1.58008 20.14906-10.54167 31.31507-12.44096 55.79688-1.84375 23.76531 12.12276 47.27281 11.00651 67.42187 0.46484 24.4818-10.5972 35.90563-9.16276 56.05469 1.37891 20.15015 10.54276 40.29719 10.54268 64.0625-1.58008 23.76204-12.12384 43.10284-5.21301 53.83398 1.29101 8.98346 5.44452 17.96679 7.62305 31.40821 7.62305v-48.49023c-20.24706 0.0327-28.93164-6.85157-28.93164-6.85157-20.92218-12.91438-40.10103-10.35923-66.44922 3.34571-15.02904 7.81396-38.86183 5.75904-55.73438-3.03711-23.24917-12.12167-36.41291-9.15881-60.77929 1.67578-18.87831 8.39326-35.9158 8.3889-54.7168 0-24.35113-10.86508-36.90903-13.79745-60.1582-1.67578-16.87146 8.79615-41.05299 10.85107-56.08203 3.03711-14.82147-7.70903-27.26311-11.88912-39.03711-11.77344z"/>
</svg>
