<?xml version="1.0" encoding="UTF-8" standalone="no"?>
<svg xmlns="http://www.w3.org/2000/svg" version="1.0" viewBox="0 0 541.21094 509.82184">
<path d="m180.16406 0.00542511c-1.06561-0.01242-2.13205-0.0036-3.19922 0.02734-50.17764-0.275663-91.40672 50.868832-80.80664 99.888676 7.0383 40.728439 45.8947 73.797249 88.1211 69.705079 27.49909-1.73241 52.83902-17.69382 67.07422-40.94726 3.81836-2.65386 8.98727-2.39781 16.11328-1.75586 7.42143 0.66855 17.03178 1.5696 24.85547-5.15821a5.7884258 5.7884258 0 0 0 0.38867 -0.36523c7.9817-8.25912 13.94083-17.08027 21.62695-20.65235 2.2412 1.0363 4.33293 2.69503 6.70313 5.26563 2.88883 3.1331 6.00499 7.2079 10.9082 10.19336a5.7884258 5.7884258 0 0 0 6.13281 -0.0703c5.06645-3.24596 8.11887-7.70155 11.03906-10.75196 2.33991-2.44424 4.08248-3.80341 6.19922-4.25781 5.00544 3.67472 9.45715 10.31267 17.125 15.42383a5.7884258 5.7884258 0 0 0 6.33008 0.0586c5.20882-3.33274 8.39996-7.94626 11.47656-11.15625 2.51298-2.62193 4.43567-4.09552 6.74414-4.57031 2.16797 1.53903 4.33934 3.68602 6.83399 6.35352 2.96994 3.17571 6.44773 6.89462 11.64844 9.1289a5.7884258 5.7884258 0 0 0 6.16015 -1.01953c10.73667-9.68362 21.97407-19.899139 31.33203-31.927729a5.7884258 5.7884258 0 0 0 1.21875 -3.58203c-0.0293-5.85948-3.81807-9.7646-6.7832-12.43555s-5.64892-4.85152-6.50195-6.15039a5.7884258 5.7884258 0 0 0 -1.00782 -1.16406c-2.91635-2.57382-6.31315-7.17175-10.83789-11.210949-4.41875-3.944589-10.94962-7.414466-18.51367-6.019531-14.65528 1.143486-30.27889-0.407826-46.32617 0.220686-37.19251-0.01498-74.481 0.832423-111.14453-0.863281-8.02554-7.795395-13.9615-21.105309-27.99609-28.265625-13.1958-8.7332469-28.92985-13.755121-44.91407-13.941406zm-36.56836 63.324226c0.45704 0.01 0.91691 0.0375 1.38086 0.084a5.7884258 5.7884258 0 0 0 0.72071 0.0254c17.072-0.42508 27.94473 25.37845 15.54882 37.152349a5.7884258 5.7884258 0 0 0 -0.29882 0.30468c-10.10865 11.12465-33.22939 7.48757-37.46485-7.386719a5.7884258 5.7884258 0 0 0 -0.10937 -0.34179c-4.60289-13.04127 6.05438-30.13335 20.22265-29.83789zm189.57813 127.65429 0.0937 24.39649 38.19726 0.0762c4.55807 0.009 6.92096 6.41764-1.98828 8.91016-3.90314 1.08058-8.25001 5.73067-9.70508 11.49023-1.45507 5.75959-0.36874 11.50299 1.75977 16.82422 0.48482 1.21207 1.47314 5.05801 2.85547 10.24609l-173.41401 0.87693-10.24219-25.07227c11.01078-2.50379 37.99169-8.90631 41.76562-12.49805 4.36223-3.97293 0.00086-9.95117-3.3789-9.95117h-90.50196c1.11879 19.97836 16.767 24.29903 25.22852 25.60938l10.00781 24.49804a10.892035 10.892035 0 0 0 -2.67773 3.24414l-30.3457 56.35743c-10.977-4.42813-22.95183-6.87305-35.47852-6.87305-52.500004 0-95.34961 42.85157-95.34961 95.35156 0 52.49998 42.849616 95.35156 95.34961 95.35156 49.3639 0 90.19235-37.88609 94.89453-86.05468h22.80469c2.57347 4.67181 6.78602 8.51826 11.9668 10.95507l-9.56055 22.25-17.14258 0.15625a6.6526205 6.6526205 0 1 0 0.12109 13.30469l38.48243-0.35351a6.6526203 6.6526203 0 1 0 -0.1211 -13.30274l-10.93359 0.0996 8.38867-19.52734c1.20993 0.14409 2.44229 0.22656 3.69531 0.22656 15.22437 0 27.66406-10.98681 27.66406-24.43359 0-1.69407-0.19864-3.34829-0.57421-4.94727l118.1914-80.19922c1.02954 3.56727 2.04957 7.10036 3.04492 10.55274-21.77501 17.50386-35.75976 44.33901-35.75976 74.32812 0 52.49998 42.84767 95.35156 95.34765 95.35156 52.49997 0 95.35156-42.85158 95.35157-95.35156 0-52.49999-42.85157-95.34961-95.35157-95.34961-12.8836 0-25.1835 2.5854-36.41406 7.25586-1.14584-3.96345-2.06174-7.10526-3.23437-11.1582-4.42068-15.27913-8.9241-30.79038-12.7168-43.46485-3.73638-12.48636-7.19326-20.17542-8.32617-25.70898-0.88295-4.31258 4.57909-3.94285 10.33594-8.74023 4.34752-3.62292 8.03561-9.74355 9.16406-15.97266 0.94068-5.47807-0.22391-10.98104-2.77149-15.48828-8.85041-13.52082-17.48471-13.26563-28.9082-13.26563-15.02105 0-39.81421-0.00053-39.81445 0zm37.41601 93.69336c1.99201 6.72384 4.06683 13.78686 6.25977 21.32227l-92.48828 62.75976a6.6528745 6.6528745 0 0 0 -4.22656 -11.87695l-38.48243 0.35352a6.6528745 6.6528745 0 1 0 0.12305 13.30273l10.85742-0.0996-8.14844 18.9668c-0.77955-0.16832-1.56966-0.31174-2.37304-0.41992l-42.25781-103.44336 170.73632-0.86524zm-196.46875 6.85352 43.08985 105.48047c-1.50432 1.50588-2.80057 3.17638-3.85352 4.97461h-23.47851c-3.56632-27.04136-18.54733-50.57932-39.91602-65.58789zm271.73828 53.125c37.83809 0 68.22266 30.3826 68.22266 68.2207-0.00001 37.83808-30.38457 68.22266-68.22266 68.22266s-68.21875-30.38457-68.21874-68.22266c-0.00001-17.41821 6.45002-33.24552 17.08984-45.26758 1.1077 3.7366 2.26256 7.64388 3.09961 10.38477 1.20634 3.95021 1.8182 6.16176 2.83789 8.67187l0.42383 1.04493 0.61914 0.94531c0.44302 0.70881 4.79648 12.95883 16.56445 23.05273l0.0977 0.0664 0.0664 0.0976c8.45737 7.00483 15.74999 9.51591 20.35742 10.97852 4.8524 1.49188 11.49233 0.72697 14.70704-4.25976 2.55085-3.65908 0.30513-11.06321-4.52539-14.57227-1.90181-1.32926-7.38285-5.68187-14.11329-11.57227-6.00277-5.35932-6.48953-9.46115-10.06836-15.75781 0.0915 0.20351-0.8992-2.65132-2.02148-6.32617-1.15189-3.7718-2.65158-8.80855-4.36914-14.67383-0.38439-1.3127-0.95934-3.31543-1.36523-4.70703 8.74434-4.05378 18.50011-6.32617 28.81835-6.32617zm-350.50976 1.59375c7.90829 0 15.48359 1.34202 22.53125 3.78711l-31.05664 57.67578a10.892035 10.892035 0 0 0 9.58789 16.05469h66.51953c-4.50125 33.39397-32.90138 58.92382-67.58203 58.92382-37.838103 0-68.218751-30.38261-68.218751-68.2207 0-37.8381 30.380648-68.2207 68.218751-68.2207zm41.69531 14.14062c13.03282 10.04065 22.28614 24.7008 25.37891 41.59571h-47.77735zm146.53125 8.90235-28.35156 19.23828 7.8125-18.18555 17.2207-0.1582a6.6528745 6.6528745 0 0 0 3.31836 -0.89453z"/>
</svg>
