<?xml version="1.0" encoding="UTF-8" standalone="no"?>
<svg xmlns="http://www.w3.org/2000/svg" version="1.0" viewBox="0 0 543.41925 543.41931">
<path d="m246.99675 0.0006603009a6.1784351 6.1784351 0 0 0 -6.08594 6.175781v64.199219c-85.41458 12.617047-153.64617 78.58225-169.66602 162.85352l-69.435546 69.43555a6.1784351 6.1784351 0 0 0 4.367188 10.54687h65.853515c16.484144 78.18969 78.068953 139.91721 156.17969 156.61719l71.77929 71.78125a6.1784351 6.1784351 0 0 0 10.54688 -4.36914v-66.84766c77.7812-15.51291 139.6563-75.57199 157.82031-152.37304l73.25391-73.25391a6.1784351 6.1784351 0 0 0 -4.36914 -10.54687h-66.83594c-14.13229-76.42326-71.17345-137.95399-145.12891-158.5918l-73.82031-73.818363a6.1784351 6.1784351 0 0 0 -4.45898 -1.8085937zm-6.08594 96.847657v65.767583a6.1784351 6.1784351 0 0 0 10.51953 4.39453l66.9668-66.1875c62.97034 17.51636 111.67932 68.90488 125.36328 133.39649h-62.95899a6.1784351 6.1784351 0 0 0 -4.39257 10.52148l66.51562 67.29883c-15.36938 65.36528-66.88295 116.63637-132.38867 131.64258v-62.88086a6.1784351 6.1784351 0 0 0 -6.35938 -6.17383 6.1784351 6.1784351 0 0 0 -4.16211 1.7793l-68.24804 67.45703c-65.51183-14.67108-117.17195-65.56955-132.94727-130.65235h63.796879a6.1784351 6.1784351 0 0 0 4.39453 -10.52148l-69.017579-69.83008c15.389859-69.80977 71.884909-124.00207 142.91797-136.01172zm29.81836 98.140633a76.262907 76.262907 0 0 0 -76.26367 76.26367 76.262907 76.262907 0 0 0 76.26367 76.26172 76.262907 76.262907 0 0 0 76.26172 -76.26172 76.262907 76.262907 0 0 0 -76.26172 -76.26367z"/>
</svg>
