<?xml version="1.0" encoding="UTF-8" standalone="no"?>
<svg xmlns="http://www.w3.org/2000/svg" version="1.0" viewBox="0 0 543.41925 543.41937">
<path d="m296.14714 0.00270135a6.1784351 6.1784351 0 0 0 -4.18555 1.806641l-73.82422 73.822265c-73.95118 20.639858-130.99063 82.168103-145.12305 158.5879h-66.837888a6.1784351 6.1784351 0 0 0 -4.367188 10.54687l73.253906 73.25586c18.163812 76.79999 80.03872 136.859 157.81836 152.37305v66.8457a6.1784351 6.1784351 0 0 0 10.54688 4.36914l71.77734-71.77734c78.11398-16.69836 139.7-78.42836 156.18359-156.6211h65.85157a6.1784351 6.1784351 0 0 0 4.36914 -10.54687l-69.43555-69.43555c-16.02019-84.2705-84.25224-150.23456-169.66602-162.85156v-64.201175a6.1784351 6.1784351 0 0 0 -6.36132 -6.173828zm6.36132 96.845704c71.0324 12.009755 127.52823 66.204125 142.91797 136.01368l-69.01757 69.82812a6.1784351 6.1784351 0 0 0 4.39257 10.52148h63.79883c-15.77427 65.08333-67.43518 115.98156-132.94726 130.65236l-68.25-67.45703a6.1784351 6.1784351 0 0 0 -4.47071 -1.78125 6.1784351 6.1784351 0 0 0 -6.05078 6.17578v62.8789c-65.50433-15.00697-117.01902-66.2752-132.38867-131.63867l66.51758-67.30078a6.1784351 6.1784351 0 0 0 -4.39453 -10.52148h-62.958988c13.685178-64.49059 62.395158-115.88002 125.36524-133.39649l66.96484 66.1875a6.1784351 6.1784351 0 0 0 10.52148 -4.39453zm-29.81835 98.140635a76.262909 76.262909 0 0 0 -76.26368 76.26367 76.262909 76.262909 0 0 0 76.26368 76.26172 76.262909 76.262909 0 0 0 76.26171 -76.26172 76.262909 76.262909 0 0 0 -76.26171 -76.26367z"/>
</svg>
