<?xml version="1.0" encoding="UTF-8" standalone="no"?>
<svg xmlns="http://www.w3.org/2000/svg" height="383.95312" width="503.07422" version="1.0" viewBox="0 0 503.07422 383.95313">
<path d="m234.19336 0-55.84375 38.74024-100.48047-27.35352c-0.41449 1.56593-20.34638 79.26141 96.974614 114.14062l305.92969 83.40235 22.30078-81.83203-304.78125-83.58203 55.30078-38.86133zm-156.32422 11.38672c0.004-0.016 0.0352-0.14453 0.0352-0.14453l-0.12109 0.12109 0.0859 0.0234zm-77.869136 96.61328v18.25195l216.90821 59.77149c3.74706-5.43929 8.15954-10.33378 13.17578-14.50391zm273.90039 64.48633c-28.52607 0-51.67382 23.08733-51.67382 51.67383 0 20.48801 12.02578 38.07392 29.37109 46.47461l-251.59766-69.32032 0.72657 182.63868c10.818156 0 21.333379-2.47636 30.640625-6.64649 9.548975-4.41187 20.368059-7.01172 31.548821-7.01172 11.18077 0 21.99779 2.59985 31.48633 7.01172 9.367684 4.17013 19.824524 6.64649 30.703124 6.64649 10.87858 0 21.39394-2.47636 30.70117-6.64649 9.48855-4.41187 20.30752-7.01172 31.48829-7.01172 11.18078 0 21.99799 2.59985 31.60742 7.01172 9.30723 4.17013 19.76204 6.64649 30.64062 6.64649 10.8786 0 21.39578-2.47636 30.64258-6.64649 9.60942-4.41187 20.30577-7.01172 31.60742-7.01172 11.18077 0 21.9393 2.59985 31.48828 7.01172 9.36767 4.17013 19.76214 6.64649 30.70118 6.64649 10.93902 0 21.33349-2.47636 30.70117-6.64649 9.48855-4.41187 20.24707-7.01172 31.48828-7.01172 11.2412 0 21.998 2.59985 31.60742 7.01172 9.2468 4.17013 19.64301 6.64649 30.58203 6.64649l-0.24219-45.44727-229.29687-63.2168c1.63179 0.18131 3.38589 0.54297 5.07812 0.54297 28.46564 0 51.67188-23.14578 51.67188-51.67187 0-28.52606-23.1458-51.67383-51.67188-51.67383zm64.36329 28.64648c2.23615 6.16452 3.50652 12.69215 3.86914 19.52149l129.63671 35.83984 4.41211-16.92383zm-64.48438 0.60547c12.38951 0 22.42188 10.03239 22.42188 22.42188 0 12.38951-10.03237 22.36132-22.42188 22.36132-12.38949 0.00001-22.42187-9.97181-22.42187-22.36132 0-12.38949 10.03238-22.42188 22.42187-22.42188z"/>
</svg>
