<?xml version="1.0" encoding="UTF-8" standalone="no"?>
<svg xmlns="http://www.w3.org/2000/svg" version="1.0" viewBox="0 0 477.00781 514.45117">
<path d="m186.58001 156.78912h-28.07428c-34.28655 0-61.613556 28.07189-61.613556 62.3592v126.95323c0 27.42951 17.614366 50.46896 42.235066 58.63217v19.62729h21.86289v-15.65222h152.79188v15.65222h21.86289v-18.8816c25.71705-7.5828 44.47061-31.1192 44.47061-59.37786v-126.95323c0-34.28731-27.32622-62.3592-61.61348-62.3592h-32.04855zm75.0293 0h-49.93712zm-117.01635 30.30985h183.10176c13.04142 0 24.34729 10.3121 24.34729 23.35349v86.45764c0 13.04138-11.30587 23.35351-24.34729 23.35351h-183.10176c-13.04138 0-24.09844-10.31213-24.09844-23.35351v-86.45764c0-13.04139 11.05706-23.35349 24.09844-23.35349zm6.70833 150.80438c10.75893 0 19.37841 8.86756 19.37841 19.62649 0 10.75886-8.61948 19.37841-19.37841 19.37841s-19.37841-8.61955-19.37841-19.37841c0-10.75893 8.61948-19.62649 19.37841-19.62649zm169.68515 0c10.75886 0 19.62728 8.86756 19.62728 19.62649 0 10.75886-8.86842 19.37841-19.62728 19.37841-10.75892 0-19.37848-8.61955-19.37848-19.37841 0-10.75893 8.61956-19.62649 19.37848-19.62649z"/>
<path opacity=".5" d="m0 0v39.75h477.00781v-39.75zm238.5039 61.275391c-124.89513-0.000003-226.58789 101.69276-226.58789 226.5879 0 124.89513 101.69276 226.58789 226.58789 226.58789s226.58789-101.69276 226.58789-226.58789-101.69276-226.5879-226.58789-226.5879zm0 41.539069c102.44565 0 185.04883 82.60317 185.04883 185.04883 0 102.44565-82.60318 185.04882-185.04883 185.04882-102.44565 0.00001-185.04883-82.60317-185.04883-185.04882 0-102.44566 82.603176-185.04883 185.04883-185.04883z"/>
</svg>
