<?xml version="1.0" encoding="UTF-8" standalone="no"?>
<svg xmlns="http://www.w3.org/2000/svg" version="1.0" viewBox="0 0 387.96875 503.35156">
<path d="m168 0c-7.5 0-12.12499 4.312502-12.125 12.8125v21.25h-45.53125c-24.5 0-37.49999 13.25-43.5 28.75l-31.875 81.40625c-12.626 1.603-34.96875 16.26649-34.96875 44.0625v103.5625h31v33.09375c0 40.736 58.21874 40.25699 58.21875 0v-33.09375h209.53125v33.09375c0 40.257 58.24999 40.73599 58.25 0v-33.09375h30.96875v-103.5625c0-27.796-22.374-42.4595-35-44.0625l-31.875-81.40625c-6-15.5-19.00001-28.75-43.5-28.75h-45v-21.25c0-8.5-4.625-12.812503-12.125-12.8125h-26.5zm-58.03125 63.71875h168c10.49999 0.097 15 6.593751 18 15.593754l24 62.968746h-252l24-62.968746c3-9.000003 7.5-15.496754 18-15.593754zm-48.9375 109.9375c14.85499 0 26.90625 12.2785 26.90625 27.4375 0 15.15899-12.05125 27.46875-26.90625 27.46875-14.85701 0.00001-26.90625-12.30975-26.90625-27.46875 0-15.15901 12.04925-27.4375 26.90625-27.4375zm265.875 0c14.855 0 26.90624 12.27849 26.90625 27.4375 0 15.159-12.05124 27.46876-26.90625 27.46875-14.856 0-26.87498-12.30976-26.875-27.46875 0-15.159 12.01901-27.4375 26.875-27.4375zm-321.53125 226.61523v25.45508h32.48437v77.625h31.85157v-77.625h32.48437v-25.45508zm139.64063 0-38.74219 103.08008h32.55469l4.99218-17.01758h36.28125l5.0625 17.01758h68.69531l20.39063-33.11718 20.32031 33.11718h35.78906l-35.08593-53.15625 32.0625-49.92383h-34.73438l-17.71875 31.7129-18.28125-31.7129h-35.08593l32.34374 49.36133-35.44335 53.51563-38.66602-102.87696zm196.80468 0v103.08008h31.92188v-103.08008zm-179.78906 26.71875 11.39062 37.05665h-22.71093z"/>
</svg>
