<?xml version="1.0" encoding="UTF-8" standalone="no"?>
<svg xmlns="http://www.w3.org/2000/svg" height="555.05188" width="209.67477" version="1.0" viewBox="0 0 209.67478 555.05188">
<path opacity=".6" d="m191.86898 105.85696a87.460312 87.460312 0 0 1 -87.46031 87.46032 87.460312 87.460312 0 0 1 -87.460324 -87.46032 87.460312 87.460312 0 0 1 87.460324 -87.460306 87.460312 87.460312 0 0 1 87.46031 87.460306z"/>
<path opacity=".2" d="m191.86898 277.85695a87.460312 87.460312 0 0 1 -87.46031 87.46031 87.460312 87.460312 0 0 1 -87.460324 -87.46031 87.460312 87.460312 0 0 1 87.460324 -87.46031 87.460312 87.460312 0 0 1 87.46031 87.46031z"/>
<path opacity=".3" d="m191.86898 447.85695a87.460312 87.460312 0 0 1 -87.46031 87.46031 87.460312 87.460312 0 0 1 -87.460324 -87.46031 87.460312 87.460312 0 0 1 87.460324 -87.46031 87.460312 87.460312 0 0 1 87.46031 87.46031z"/>
<path d="m106.07784 0.00449594c-1.18461-0.01267-2.36393 0.0026-3.5293 0.03125-51.991534-0.07654-99.201994 43.921847-101.84961 96.048836-0.00028 0.005 0.00028 0.009 0 0.0137-1.60709 25.956318 0.15437 51.679198-0.51172 77.064448v0.1132c0.21249 95.82593-0.63779 191.71145 0.50391 287.61133l0.002 0.15625 0.0137 0.15625c4.3319 47.83607 44.91369 88.96238 92.91211 93.24609 45.263124 5.05687 91.697584-21.96995 108.04102-64.77734 8.62628-20.84953 8.41713-43.33938 7.70312-64.57812v-0.0234c-0.27331-110.29287 0.62327-220.64006-0.53515-331l-0.002-0.16016-0.0137-0.1582c-4.29855-47.520547-44.32303-88.475853-92.00391-93.068363-3.56006-0.405064-7.13451-0.637318-10.73046-0.675781zm-0.0723 32.972656c40.4635 0 73.20117 32.737658 73.20117 73.201178 0 40.4635-32.73581 73.17382-73.20117 73.17382-40.465364 0-73.171874-32.70847-73.171884-73.17382 0-40.465375 32.70838-73.201178 73.171884-73.201178zm0 170.83594c40.4635 0 73.20117 32.73767 73.20117 73.20117 0 40.46351-32.73581 73.17188-73.20117 73.17188-40.465364 0-73.171874-32.70652-73.171884-73.17188 0-40.46535 32.70838-73.20117 73.171884-73.20117zm0 170.83399c40.4635 0 73.20117 32.73962 73.20117 73.20312s-32.73581 73.17188-73.20117 73.17188c-40.465364 0-73.171874-32.70652-73.171884-73.17188 0-40.46536 32.70838-73.20312 73.171884-73.20312z"/>
</svg>
