<?xml version="1.0" encoding="UTF-8" standalone="no"?>
<svg xmlns="http://www.w3.org/2000/svg" height="532.44299" width="386.31396" version="1.0" viewBox="0 0 386.31397 532.44299">
<path d="m193.50254 0-91.25718 0.06911c-42.50273-0.000012-73.77284 34.131647-73.77284 71.319503v263.40534c0.00003 36.02757 28.18622 65.57749 56.53038 70.14468l-85.0029 127.50435h49.06672l60.78053-89.11483h166.61949l60.78053 89.11483h49.06671l-85.0029-127.50435c28.34412-4.56722 56.56494-34.11709 56.56494-70.14468v-263.40534c-0.00004-37.187819-31.3047-71.3195-73.8074-71.3195l-90.5661-0.06911zm-36.14351 15.272879h71.59592c6.46649 0 12.09391 5.420094 12.09391 11.886584v20.93974c0 6.46649-5.31948 12.0248-12.09391 12.0248h-71.59592c-6.77441 0-12.09391-5.55831-12.09391-12.0248v-20.93974c0-6.46649 5.62741-11.886581 12.09391-11.886584zm-52.66033 59.052828h176.91661c24.01837 0.00002 36.76549 17.1963 36.76548 36.903703v47.40813c0.18721 22.78668-16.44223 36.76548-36.76548 36.76548h-176.91659c-20.32326 0-36.95271-13.9788-36.76548-36.76548v-47.40813c-0.00002-19.707403 12.74708-36.903703 36.76548-36.903703zm-4.00827 227.50371c17.86599-0.00004 32.37712 14.47657 32.37712 32.34256 0 17.86471-14.51113 32.34257-32.37712 32.34257-17.86602-0.00002-32.34257-14.47782-32.34257-32.34257-0.00004-17.86603 14.47658-32.34256 32.34257-32.34256zm184.17295 0c17.86597-0.00003 32.34257 14.47656 32.34257 32.34256-0.00002 17.86473-14.47656 32.34258-32.34257 32.34257-17.86601-0.00002-32.34257-14.47783-32.34256-32.34257-0.00002-17.86601 14.47659-32.34256 32.34256-32.34256z"/>
</svg>
