<?xml version="1.0" encoding="UTF-8" standalone="no"?>
<svg xmlns="http://www.w3.org/2000/svg" version="1.0" viewBox="0 0 443.26758 512.58875">
<path d="m267.33594 0-133.67383 88.050781 6.47852 4.25782 110.33203 72.541009h-81.10547l-8.56055 10.27149h-94.804691l0.25977 29.15039h-0.31055l-65.951169 131.26562v79.61524c0.000015 14.37924 16.9789 29.32749 29.923828 29.28711h413.34375v-269.31836h-71.36133l-9.79492-10.27149h-78.13672l114.125-76.873039zm-0.0586 12.255859 112.55273 75.726562-112.47266 75.757819-115.13476-75.697269zm-183.18555 193.6543h40.277341l-0.12695 132.31445h-56.240241c-12.94931-0.00001-34.804367-15.56083-26.96484-44.81836zm72.869141 0h49.5625c6.94087 4.87136 13.0332 9.11383 13.0332 13.39453l-0.0879 188.16602c-1.73472 9.83027-8.59943 11.65307-14.10742 16.92773h-46.80859c-5.53779-5.41226-12.53705-7.16223-14.29102-17.10156l-0.0879-188.16602c0-4.22912 5.95194-8.42357 12.78711-13.2207zm96.1582 0h163.54102c6.74582 4.73526 12.57812 8.88603 12.57812 13.07226l-0.0898 102.39063c-1.70941 9.68681-8.39259 11.61314-13.85742 16.71484h-160.14453c-5.93963-3.59522-12.77806-9.258-14.93083-15.51159l-0.42855-1.09388 0.21484-102.57031c0-3.78302 6.26599-8.18499 13.11719-13.00195zm42.03516 255.9043c0.43282 67.56962 97.21484 67.57069 97.21484 0.60742zm-200.50586 0.0195c0.4328 67.56962 97.214841 67.57264 97.214841 0.60937zm114.83594 0.45703c-0.48497 15.8109-2.96523 23.14689-7.14063 30.3789h81.41797c-4.14386-7.17736-6.03369-14.78536-5.77148-30.3789z"/>
</svg>
