<?xml version="1.0" encoding="UTF-8" standalone="no"?>
<svg xmlns="http://www.w3.org/2000/svg" version="1.0" viewBox="0 0 537.08203 527.17218">
<path opacity=".25" d="m341.02734 134.06477-57.44921 16.78515 180.61328 294.94531 72.89062-21.32617zm-148.08203 38.0625-62.66406 13.40039 171.26758 300.46875 73.52539-19.0293zm-136.35351 32.41211-56.591797 11.91406 131.23242 310.71875 79.75782-20.3418-154.39844-302.29101z"/>
<path d="m238.5 0.00030309341c-4.10206-0.016050003-8.24114 0.605636-12.4043 1.792969-14.73368 3.885296-27.09048 15.620869-29.51953 31.400391-2.43802 15.837883 10.72081 34.979288 26.52539 39.197266 15.0045 4.512112 27.88779 0.317805 37.94532-6.947266 5.22838-3.776736 10.18491-8.742196 13.5-16.5625 3.22496-7.60772 3.64204-19.091144-0.88282-28.158203-5.18968-10.730072-14.23001-16.179399-22.39648-18.72461-4.20476-1.3104799-8.46677-1.9812219-12.76758-1.9980469zm-17.47656 72.878907a43.078511 43.078511 0 0 0 -36.23828 18.720705l-55.46094 47.535165a18.926678 18.926678 0 0 0 -6.32227 11.08789l-10.26953 58.34375a18.926678 18.926678 0 1 0 37.27735 6.56055l9.09375-51.66602 17.0332-14.59961-1.2832 40a26.183839 26.183839 0 0 0 -2.59961 19.36524l19.73633 82.39257-29.57813 79.31641a26.303509 26.303509 0 1 0 49.28711 18.37891l33.16016-88.92188a26.303509 26.303509 0 0 0 -2.72461 -24.21875l-8.66797-36.18555a43.078511 43.078511 0 0 0 3.98047 -1.81054l57.90625 37.79687a26.183839 26.183839 0 0 0 0.77929 0.4707l29.99219 76.4668a23.977663 23.977663 0 1 0 44.64063 -17.50781l-34.61329-88.24805a23.977663 23.977663 0 0 0 -4.1582 -7.02539 26.183839 26.183839 0 0 0 -8.01953 -8.0039l-62.9668-41.09961 1.24414-38.72071 5.80469 6.33399a18.926678 18.926678 0 0 0 7.4375 4.98242l51.91797 19.0293a18.926678 18.926678 0 1 0 13.02539 -35.53711l-47.58984-17.44336-37.53906-40.957035a18.926678 18.926678 0 0 0 -8.11524 -5.33985 43.078511 43.078511 0 0 0 -26.16992 -9.496095z"/>
</svg>
