<?xml version="1.0" encoding="UTF-8" standalone="no"?>
<svg 
    xmlns="http://www.w3.org/2000/svg"
    xmlns:svg="http://www.w3.org/2000/svg"
    xmlns:rdf="http://www.w3.org/1999/02/22-rdf-syntax-ns#" 
    xmlns:ns2="http://creativecommons.org/ns#" 
    xmlns:dc="http://purl.org/dc/elements/1.1/" 
    xmlns:cc="http://creativecommons.org/ns#"         
    xmlns:xlink="http://www.w3.org/1999/xlink" 
    version="1.1"
    id="svg2"
    style="fill:black;stroke:none">
    <title>Open Iconic</title>
    <desc>An open source icon set with 223 marks in SVG</desc>
    <metadata>
        <rdf:RDF>
            <cc:Work rdf:about="">
                <dc:format>image/svg+xml</dc:format>
                <dc:type rdf:resource="http://purl.org/dc/dcmitype/StillImage"/>
                <dc:title>Open Iconic</dc:title>
                <dc:date>2016-01-27</dc:date>
                <dc:creator>
                    <cc:Agent>
                        <dc:title>SomeRandomDude</dc:title>
                    </cc:Agent>
                </dc:creator>
                <dc:rights>
                    <cc:Agent>
                        <dc:title>Open Source</dc:title>
                    </cc:Agent>
                </dc:rights>
                <dc:language>English</dc:language>

                <dc:source>https://github.com/iconic/open-iconic</dc:source>
                <dc:description>An open source icon set with 223 marks in SVG</dc:description>
            </cc:Work>
        </rdf:RDF>
    </metadata>
    <defs>
        <symbol id="icon-chat">
            <title>chat</title>
            <path
                d="M767.872 384v-128c0-176.736-127.872-256-255.872-256h-256.128c-127.872 0-255.872 68-255.872 256 0 184 128 256 255.872 256h29.76c-17.856 34.656-29.28 75.84-29.632 125.824v132.672c1.344 140.192 115.456 253.504 256 253.504 0-70.752 57.376-128 128-128h127.872c128.128 0 256.128-72 256.128-256 0-188-128-256-256.128-256zM255.872 384c-127.872 0-127.872-96.384-127.872-128 0-38.368 0-128 127.872-128h256.128c47.872 0 128 16.64 128 128v128c0 41.824-20.128 79.072-51.488 102.432-46.752-62.176-121.024-102.432-204.512-102.432h-128.128zM767.872 768h-127.872c-83.616 0-158.016 40.256-204.736 102.368-31.136-23.36-51.264-60.608-51.264-102.368v-128c0-58.56 29.12-94.112 58.112-112.384 41.024 21.376 69.888 63.008 69.888 112.384 94.592 0 176.192-51.84 220.608-128.064l35.264 0.064c128.128 0 128.128 89.696 128.128 128 0 31.68 0 128-128.128 128z"></path>
        </symbol>
        <symbol id="icon-chat-alt-stroke">
            <title>chat-alt-stroke</title>
            <path
                d="M831.264 390.816c-0.864 44.384-10.752 86.24-28.256 124.448 92.256 15.36 92.992 90.496 92.992 124.736 0 31.744 0 128-127.872 128h-128.128c-83.36 0-158.016 40.256-204.736 102.496-31.008-23.488-51.264-60.736-51.264-102.496v-128c0-25.248 4.512-45.248 11.488-61.696-3.744-0.672-7.488-2.304-11.488-2.304h-121.504c-4.128 19.808-6.368 40.992-6.368 64v128c0 141.376 114.496 256 255.872 256 0-70.752 57.248-128 128-128h128.128c127.872 0 255.872-72 255.872-256 0-156.576-88.992-229.12-192.736-249.184zM512 128c47.744 0 128 16.64 128 128v128c0 41.888-20.256 79.072-51.264 102.432-46.72-62.112-121.248-102.432-204.736-102.432h-127.872c-128.128 0-128.128-96.32-128.128-128 0-38.24 0-128 128.128-128h255.872zM512 0h-255.872c-128.128 0-256.128 68-256.128 256 0 184 128 256 256.128 256h127.872c70.752 0 128 57.376 128 128 141.376 0 256.128-114.624 256.128-256v-128c0-176.672-128.128-256-256.128-256v0z"></path>
        </symbol>
        <symbol id="icon-chat-alt-fill">
            <title>chat-alt-fill</title>
            <path
                d="M512 640c141.376 0 255.872-114.624 255.872-256v-128c0-176.672-127.872-256-255.872-256h-256.128c-127.872 0-255.872 68-255.872 256 0 184 128 256 255.872 256h128.128c70.624 0 128 57.376 128 128zM831.36 390.816c-3.744 173.184-145.344 313.184-319.36 313.184h-64v-64c0-35.328-28.736-64-64-64h-121.632c-3.84 19.104-6.208 39.552-6.368 61.632v132.832c1.344 140.224 115.456 253.536 256 253.536 0-70.752 57.376-128 128-128h127.872c128.128 0 256.128-72 256.128-256 0-156.576-89.12-229.12-192.64-249.184z"></path>
        </symbol>
        <symbol id="icon-comment-alt1-stroke">
            <title>comment-alt1-stroke</title>
            <path
                d="M512.064 256c354.304 0 383.936 132.128 383.936 256 0 43.008-11.36 89.76-23.872 128h-424c-150.496 0-215.616 6.24-288 56.256-30.016-82.24-49.248-193.504-12.128-282.88 43.232-104.384 165.728-157.376 364.064-157.376zM512.064 128c-715.872 0-511.712 640-383.872 768 128-128 128-128 319.872-128h509.92c0 0 66.016-128 66.016-256 0-320-255.904-384-511.936-384v0z"></path>
        </symbol>
        <symbol id="icon-comment">
            <title>comment</title>
            <path d="M958.016 768c0 0 66.016-128 66.016-256-0.032-320-255.936-384-511.968-384-715.872 0-511.712 640-383.872 768 128-128 128-128 319.872-128h509.952z"></path>
        </symbol>
        <symbol id="icon-comment-stroke">
            <title>comment-stroke</title>
            <path
                d="M640 192c141.248 0 256 114.752 256 256s-114.752 256-256 256h-256c-83.488 0-157.888 40.256-204.64 102.496-31.104-23.488-51.36-60.736-51.36-102.496v-320c0-105.888 86.24-192 192-192h320zM640 64h-320c-176.736 0-320 143.264-320 320v320c0 141.376 114.752 256 256 256 0-70.752 57.376-128 128-128h256c212.128 0 384-172 384-384s-171.872-384-384-384v0z"></path>
        </symbol>
        <symbol id="icon-comment-fill">
            <title>comment-fill</title>
            <path d="M0 704c0 141.376 114.752 256 256 256 0-70.752 57.376-128 128-128h256c212.128 0 384-172 384-384s-171.872-384-384-384h-320c-176.736 0-320 143.264-320 320v320z"></path>
        </symbol>
        <symbol id="icon-comment-alt2-stroke">
            <title>comment-alt2-stroke</title>
            <path
                d="M448 0c-247.36 0-448 200.64-448 448 0 122.624 49.504 233.504 129.376 314.496l0.736 261.504 212.384-141.888c34.016 8.384 68.992 13.888 105.504 13.888 247.36 0 448-200.64 448-448s-200.64-448-448-448zM448 768c-22.624 0-47.136-3.36-74.88-10.112l-54.496-13.504-61.376 40.64 0.384-74.752-37.12-37.632c-59.648-60.512-92.512-140.256-92.512-224.64 0-176.512 143.488-320 320-320s320 143.488 320 320c0 176.512-143.488 320-320 320z"></path>
        </symbol>
        <symbol id="icon-comment-alt2-fill">
            <title>comment-alt2-fill</title>
            <path d="M448 0c-247.36 0-448 200.64-448 448 0 122.624 49.504 233.504 129.376 314.496l-1.376 261.504 214.496-141.888c34.016 8.384 68.992 13.888 105.504 13.888 247.36 0 448-200.64 448-448s-200.64-448-448-448z"></path>
        </symbol>
        <symbol id="icon-checkmark">
            <title>checkmark</title>
            <path d="M192 384l-192 192 384 384 640-640-192-192-448 448z"></path>
        </symbol>
        <symbol id="icon-check-alt">
            <title>check-alt</title>
            <path d="M512 0c-282.752 0-512 229.248-512 512s229.248 512 512 512 512-229.248 512-512-229.248-512-512-512zM432.64 748.256l-235.584-235.616 90.496-90.496 145.056 145.12 307.744-307.744 90.496 90.496-398.208 398.24z"></path>
        </symbol>
        <symbol id="icon-x">
            <title>x</title>
            <path d="M960 780.736l-268.992-268.736 268.992-268.736-179.264-179.264-268.736 268.864-268.864-268.864-179.136 179.264 268.736 268.736-268.736 268.736 179.136 179.264 268.864-268.864 268.736 268.864z"></path>
        </symbol>
        <symbol id="icon-x-altx-alt">
            <title>x-altx-alt</title>
            <path
                d="M512 0c-282.752 0-512 229.248-512 512s229.248 512 512 512 512-229.248 512-512-229.248-512-512-512zM765.248 674.752l-90.496 90.496-162.752-162.752-162.752 162.752-90.496-90.496 162.752-162.752-162.752-162.752 90.496-90.496 162.752 162.752 162.752-162.752 90.496 90.496-162.752 162.752 162.752 162.752z"></path>
        </symbol>
        <symbol id="icon-denied">
            <title>denied</title>
            <path
                d="M512 0c-282.752 0-512 229.248-512 512s229.248 512 512 512 512-229.248 512-512-229.248-512-512-512zM512 128c82.88 0 159.136 27.008 221.888 71.744l-534.272 534.016c-44.736-62.752-71.616-139.008-71.616-221.76 0-211.744 172.256-384 384-384zM512 896c-82.88 0-159.136-27.008-221.888-71.744l534.272-534.016c44.736 62.752 71.616 139.008 71.616 221.76 0 211.744-172.256 384-384 384z"></path>
        </symbol>
        <symbol id="icon-cursor">
            <title>cursor</title>
            <path d="M1024 896l-448-448 192-192-768-256 256 767.872 192-192 448 448.128z"></path>
        </symbol>
        <symbol id="icon-rss">
            <title>rss</title>
            <path
                d="M0 896c0-70.692 57.308-128 128-128s128 57.308 128 128c0 70.692-57.308 128-128 128s-128-57.308-128-128zM192 0v128c388.736 0 704 315.232 704 704h128c0-459.456-372.576-832-832-832zM192.736 256.256c-0.256 0-0.48 0.032-0.736 0.032v128c0.256 0 0.48-0.032 0.736-0.032 247.328 0 447.872 200.48 448 447.744h128c-0.128-317.984-257.984-575.744-576-575.744zM192.736 512.256c-0.256 0-0.48 0.032-0.736 0.032v128c0.256 0 0.48-0.032 0.736-0.032 105.952 0 191.872 85.856 192 191.744h128c-0.128-176.608-143.36-319.744-320-319.744z"></path>
        </symbol>
        <symbol id="icon-rss-alt">
            <title>rss-alt</title>
            <path
                d="M1024 1024h-146.24c0-484-393.76-877.696-877.76-877.696v-146.304c564.512 0 1024 459.36 1024 1024v0zM731.36 1024h-146.24c0-322.624-262.624-585.12-585.12-585.12v-146.304c403.264 0 731.36 328.16 731.36 731.424v0zM438.88 1024h-146.368c0-161.376-131.136-292.512-292.512-292.512v-146.368c241.984 0 438.88 196.896 438.88 438.88v0zM146.24 1024c0-80.736-65.376-146.24-146.24-146.24v146.24h146.24z"></path>
        </symbol>
        <symbol id="icon-wrench">
            <title>wrench</title>
            <path
                d="M1011.424 180.576l-160.736 160.736h-168v-170.624l158.752-158.688c-23.488-7.072-47.744-12-73.504-12-141.312 0-255.936 114.688-255.936 256 0 39.424 9.632 76.32 25.632 109.76l-512.64 512.48c-15.36 15.52-24.992 36.768-24.992 60.512 0 47.008 38.112 85.248 85.376 85.248 23.616 0 44.992-9.504 60.256-24.992l512.736-512.576c33.312 15.872 70.304 25.568 109.568 25.568 141.504 0 256-114.688 256-256 0-26.432-4.992-51.424-12.512-75.424z"></path>
        </symbol>
        <symbol id="icon-dial">
            <title>dial</title>
            <path
                d="M386.076 512c-0.001-0.151-0.001-0.329-0.001-0.507 0-71.075 57.617-128.692 128.692-128.692 70.54 0 127.824 56.753 128.682 127.089 0.009 2.261 0.010 2.439 0.010 2.618 0 71.075-57.617 128.692-128.692 128.692-70.54 0-127.824-56.753-128.682-127.089zM918.698 192.844c-11.068 9.104-24.516 15.186-39.958 15.186-35.454 0-64.346-28.826-64.346-64.7 0-15.636 6.274-29.566 15.572-40.956-71.392-55.338-157.84-92.594-252.108-104.402-3.282 32.624-29.664 58.394-63.092 58.394s-60.196-26.060-63.092-59.134c-95.52 12.388-182.484 50.32-254.486 107.652 8.172 10.874 13.964 23.744 13.964 38.414 0 35.872-28.666 64.7-64.346 64.7-14.316 0-27.154-5.566-37.836-13.674-67.242 87.446-108.97 195.838-108.97 314.91 0 285.792 230.486 517.534 514.766 517.534s514.766-231.742 514.766-517.534c0.002-120.198-42.21-229.072-110.834-316.39zM514.766 766.616c-142.14 0-257.384-115.244-257.384-257.384 0-71.134 28.794-135.352 75.414-181.97l181.97-181.97 181.712 181.712c46.782 46.62 75.672 111.094 75.672 182.23 0 142.268-115.244 257.382-257.384 257.382z"></path>
        </symbol>
        <symbol id="icon-cog">
            <title>cog</title>
            <path
                d="M1024 575.008v-128l-152.992-63.744c-4.256-12-8.736-23.616-14.24-35.008l61.76-153.76-90.528-90.496-152.384 62.752c-11.616-5.632-23.488-10.368-35.744-14.752l-64.864-152h-128l-63.264 151.488c-12.736 4.512-24.992 9.248-37.12 15.008l-152.128-61.12-90.496 90.496 62.016 150.752c-6.016 12.384-10.88 24.992-15.52 38.016l-150.496 64.352v128l150.624 62.752c4.64 12.992 9.632 25.632 15.616 38.016l-60.864 151.744 90.496 90.496 151.136-62.24c12.128 5.76 24.512 10.368 37.248 14.752l64.736 151.488h128l63.36-152.256c12.128-4.512 24.128-9.248 35.616-14.752l153.504 61.504 90.496-90.496-63.008-152.736c5.376-11.488 9.76-23.136 14.016-35.008l153.024-65.248zM511.008 704c-105.984 0-192-86.016-192-192s86.016-192 192-192 192 86.016 192 192-86.016 192-192 192z"></path>
        </symbol>
        <symbol id="icon-calendar">
            <title>calendar</title>
            <path d="M768 128v-128h-128v128h-256v-128h-128v128h-256v128h1024v-128zM128 640h768v128h-768zM128 384h768v128h-768zM128 1024h640l128-128h-768z"></path>
        </symbol>
        <symbol id="icon-calendar-alt-stroke">
            <title>calendar-alt-stroke</title>
            <path
                d="M1024 1024h-1024v-896h128v768h768v-768h128zM192 384h128v128h-128zM448 384h128v128h-128zM704 384h128v128h-128zM192 640h128v128h-128zM448 640h128v128h-128zM704 768v-128h128zM256 192v-128c0-35.36 28.64-64 64-64s64 28.64 64 64v128c0 35.36-28.64 64-64 64s-64-28.64-64-64zM640 192v-128c0-35.36 28.64-64 64-64s64 28.64 64 64v128c0 35.36-28.64 64-64 64s-64-28.64-64-64z"></path>
        </symbol>
        <symbol id="icon-calendar-alt-fill">
            <title>calendar-alt-fill</title>
            <path
                d="M832 128v65.504c0 70.752-57.248 128-128 128s-128-57.248-128-128v-65.504h-128v65.504c0 70.752-57.248 128-128 128s-128-57.248-128-128v-65.504h-192v896h1024v-896h-192zM320 896h-128v-128h128v128zM320 640h-128v-128h128v128zM576 896h-128v-128h128v128zM576 640h-128v-128h128v128zM704 896v-128h128l-128 128zM832 640h-128v-128h128v128zM256 192v-128c0-35.36 28.64-64 64-64s64 28.64 64 64v128c0 35.36-28.64 64-64 64s-64-28.64-64-64zM640 192v-128c0-35.36 28.64-64 64-64s64 28.64 64 64v128c0 35.36-28.64 64-64 64s-64-28.64-64-64z"></path>
        </symbol>
        <symbol id="icon-share">
            <title>share</title>
            <path
                d="M895.936 768c-31.008 0-58.496 12.512-80.736 30.88l-195.072-139.264c12.384-25.504 19.872-53.504 19.872-83.616 0-41.376-13.504-79.616-35.744-110.88l228.192-228.384c18.976 11.136 40 19.264 63.488 19.264 70.752 0 128-57.248 128-128s-57.248-128-128-128-128 57.248-128 128c0 23.616 8.256 44.512 19.264 63.488l-228.192 228.384c-31.52-22.496-69.504-35.872-111.008-35.872-73.248 0-136.256 41.632-168.64 102.112l-154.112-51.488c-6.24-28.736-30.624-50.624-61.248-50.624-35.36 0-64 28.64-64 64s28.64 64 64 64c16.128 0 30.496-6.496 41.76-16.384l153.248 51.136c-1.504 9.632-3.008 19.264-3.008 29.248 0 105.984 86.016 192 192 192 52.736 0 100.64-21.376 135.36-55.872l193.824 138.368c-5.504 14.24-9.248 29.376-9.248 45.504 0 70.624 57.248 128 128 128s128-57.376 128-128-57.248-128-128-128z"></path>
        </symbol>
        <symbol id="icon-mail">
            <title>mail</title>
            <path d="M511.872 494.624l512.128-241.248v-125.376h-1024v124.992zM512.128 636.128l-512.128-241.888v501.76h1024v-500.992z"></path>
        </symbol>
        <symbol id="icon-heart-stroke">
            <title>heart-stroke</title>
            <path
                d="M739.616 192c78.624 0 143.744 58.24 154.752 134.016l-382.24 438.976-382.496-438.976c11.008-75.776 76.128-134.016 154.752-134.016 64.512 0 123.36 69.248 123.36 69.248l104.256 110.752 104.256-110.752c0 0 58.88-69.248 123.36-69.248zM739.616 64c-95.488 0-176 50.496-227.616 123.008-51.616-72.512-132.128-123.008-227.616-123.008-156.896 0-284.384 127.744-284.384 284.512v23.488l512.256 588 511.744-588v-23.488c0-156.768-127.488-284.512-284.384-284.512v0z"></path>
        </symbol>
        <symbol id="icon-heart-fill">
            <title>heart-fill</title>
            <path d="M512 187.008c-51.616-72.512-132.128-123.008-227.616-123.008-156.896 0-284.384 127.744-284.384 284.512v23.488l512.256 588 511.744-588v-23.488c0-156.768-127.488-284.512-284.384-284.512-95.488 0-176 50.496-227.616 123.008z"></path>
        </symbol>
        <symbol id="icon-movie">
            <title>movie</title>
            <path
                d="M895.264 256h-126.368l127.104-127.488-125.632-128.512h-178.112l127.616 127.488-130.752 128.512h-151.136l129.888-127.488-128.384-128.512h-180.992l127.488 127.488-130.72 128.512h-128.256l129.984-127.488-128.48-128.512h-128.512v1024h1024v-1024h-125.504l125.504 128-128.736 128zM896 896h-768v-128h768v128zM896 640h-768v-128h768v128z"></path>
        </symbol>
        <symbol id="icon-document-alt-stroke">
            <title>document-alt-stroke</title>
            <path d="M448 0h-448v1024h768v-704.064l-320-319.936zM128 896v-768h256v256h256v512h-512z"></path>
        </symbol>
        <symbol id="icon-document-alt-fill">
            <title>document-alt-fill</title>
            <path d="M448 0h-448v1024h768v-704.064l-320-319.936zM381.376 384v-256l256 256h-256z"></path>
        </symbol>
        <symbol id="icon-document-stroke">
            <title>document-stroke</title>
            <path
                d="M704.512 0h-704.512v1022.016l257.632-210.496 256.608 212.48 256.384-212.256 253.376 211.744v-703.488l-319.488-320zM896.64 766.016l-126.496-103.264-255.872 211.744-255.36-211.488-130.752 103.008c0 0 0-555.488 0-640 67.264 0 249.888 0 384.256 0v384h384.224c0 87.36 0 256 0 256zM640.512 382.016c0-49.376 0-189.248 0-256 51.744 51.744 204.864 204.736 256.128 256-65.504 0-206.4 0-256.128 0z"></path>
        </symbol>
        <symbol id="icon-document-fill">
            <title>document-fill</title>
            <path d="M691.488 0h-691.488v1024l255.264-212.512 256.48 212.512 256.128-212.256 256.128 212.256v-694.368l-332.512-329.632zM576 448v-320l320 320h-320z"></path>
        </symbol>
        <symbol id="icon-plus">
            <title>plus</title>
            <path d="M1024 384h-384v-384h-256v384h-384v256h384v384h256v-384h384z"></path>
        </symbol>
        <symbol id="icon-plus-alt">
            <title>plus-alt</title>
            <path d="M512 0c-282.752 0-512 229.248-512 512s229.248 512 512 512 512-229.248 512-512-229.248-512-512-512zM768 576h-192v192h-128v-192h-192v-128h192v-192h128v192h192v128z"></path>
        </symbol>
        <symbol id="icon-minus">
            <title>minus</title>
            <path d="M0 384h1024v256h-1024z"></path>
        </symbol>
        <symbol id="icon-minus-alt">
            <title>minus-alt</title>
            <path d="M512 0c-282.752 0-512 229.248-512 512s229.248 512 512 512 512-229.248 512-512-229.248-512-512-512zM768 576h-512v-128h512v128z"></path>
        </symbol>
        <symbol id="icon-pin">
            <title>pin</title>
            <path
                d="M1024 256c0-141.312-114.752-256-256-256-95.488 0-177.984 53.056-222.016 130.752 0-0.064 0.128-0.128 0.128-0.192-11.744-1.12-23.136-3.552-35.136-3.552-212.128 0-384 171.872-384 384 0 80.864 25.248 155.744 67.872 217.504l-194.848 295.488 297.248-193.984c61.12 40.992 134.624 64.992 213.76 64.992 212.128 0 384-171.872 384-384 0-11.072-2.24-21.44-3.264-32.256 78.496-43.744 132.256-126.56 132.256-222.752zM511.008 767.008c-141.248 0-256-114.752-256-256 0-141.184 114.752-256 256-256 0.384 0 0.736 0.128 0.992 0.128 0-0.256 0.128-0.448 0.128-0.64 0 0.512-0.128 0.992-0.128 1.504 0 22.24 3.744 43.36 8.992 63.936l-101.504 101.568c-49.984 49.984-49.984 131.008 0 180.992s131.008 49.984 180.992 0l100.512-100.512c21.12 5.76 43.008 9.76 65.888 9.888-0.512 140.864-115.008 255.136-255.872 255.136zM768 384c-70.496 0-128-57.44-128-128s57.504-128 128-128 128 57.44 128 128-57.504 128-128 128z"></path>
        </symbol>
        <symbol id="icon-link">
            <title>link</title>
            <path
                d="M1005.248 18.752c-24.992-24.992-65.888-24.992-90.88 0l-130.24 130.368c-53.376-35.488-114.624-53.12-176.128-53.12-81.888 0-163.744 31.264-226.24 93.76l-192 192c-109.504 109.376-123.008 278.496-40.736 402.624l-130.24 130.368c-24.992 24.992-24.992 65.504 0 90.496 12.48 12.512 28.832 18.752 45.216 18.752s32.736-6.24 45.248-18.752l130.24-130.368c53.376 35.488 115.008 53.12 176.512 53.12 81.888 0 163.744-31.264 226.24-93.76l191.616-192c109.504-109.376 123.008-278.496 40.736-402.624l130.624-130.368c25.024-24.992 25.024-65.504 0.032-90.496zM799.616 416c0 51.264-20 99.488-56.256 135.744l-191.616 192c-36.256 36.256-84.48 56.256-135.744 56.256-28.992 0-56.736-7.136-82.24-19.264l95.488-95.488c24.992-24.992 24.992-65.504 0-90.496s-65.504-24.992-90.496 0l-95.488 95.488c-12.256-25.376-19.264-53.12-19.264-82.24 0-51.264 20-99.488 56.256-135.744l192-192c36.256-36.256 84.48-56.256 135.744-56.256 28.992 0 56.64 7.136 82.112 19.264l-97.376 97.504c-24.992 24.992-24.992 65.504 0 90.496 12.512 12.512 28.864 18.752 45.248 18.752 16.256 0 32.64-6.24 45.12-18.752l97.248-97.504c12.288 25.376 19.264 53.12 19.264 82.24z"></path>
        </symbol>
        <symbol id="icon-bolt">
            <title>bolt</title>
            <path d="M1024 0l-768 512 192 128-448 384 768-384-192-128z"></path>
        </symbol>
        <symbol id="icon-move">
            <title>move</title>
            <path d="M576 640v192h128l-192 192-192-192h128v-192zM448 384v-192h-128l192-192 192 192h-128v192zM384 576h-192v128l-192-192 192-192v128h192zM640 448h192v-128l192 192-192 192v-128h-192z"></path>
        </symbol>
        <symbol id="icon-move-alt1">
            <title>move-alt1</title>
            <path d="M512 704l64-64v192h128l-192 192-192-192h128v-192zM512 321.984l-64 62.016v-192h-128l192-192 192 192h-128v192zM320 512l64 64h-192v128l-192-192 192-192v128h192zM702.016 512l-62.016-64h192v-128l192 192-192 192v-128h-192z"></path>
        </symbol>
        <symbol id="icon-move-alt2">
            <title>move-alt2</title>
            <path d="M512 0c-282.752 0-512 229.248-512 512s229.248 512 512 512 512-229.248 512-512-229.248-512-512-512zM704 640v-64h-128v128h64l-128 128-128-128h64v-128h-128v64l-128-128 128-128v64h128v-128h-64l128-128 128 128h-64v128h128v-64l128 128-128 128z"></path>
        </symbol>
        <symbol id="icon-equalizer">
            <title>equalizer</title>
            <path
                d="M576 64c0-35.2-28.8-64-64-64s-64 28.8-64 64v576h-64v128h64v192c0 35.2 28.8 64 64 64s64-28.8 64-64v-192h64v-128h-64v-576zM192 64c0-35.2-28.8-64-64-64s-64 28.8-64 64v320h-64v128h64v448c0 35.2 28.8 64 64 64s64-28.8 64-64v-448h64v-128h-64v-320zM1024 256h-64v-192c0-35.2-28.8-64-64-64s-64 28.8-64 64v192h-64v128h64v576c0 35.2 28.8 64 64 64s64-28.8 64-64v-576h64v-128z"></path>
        </symbol>
        <symbol id="icon-award-fill">
            <title>award-fill</title>
            <path d="M256 640c-45.12 0-87.744-9.248-128-23.552v407.552l128-128 128 128v-407.552c-40.256 14.304-82.88 23.552-128 23.552zM0 256c0-141.385 114.615-256 256-256s256 114.615 256 256c0 141.385-114.615 256-256 256s-256-114.615-256-256z"></path>
        </symbol>
        <symbol id="icon-award-stroke">
            <title>award-stroke</title>
            <path
                d="M256 640c-45.12 0-87.744-9.248-128-23.488v407.488l128-128 128 128v-407.488c-40.256 14.24-82.88 23.488-128 23.488zM256 0c-141.376 0-256 114.624-256 256s114.624 256 256 256 256-114.624 256-256-114.624-256-256-256zM256 384c-70.752 0-128-57.312-128-128s57.248-128 128-128 128 57.312 128 128-57.248 128-128 128z"></path>
        </symbol>
        <symbol id="icon-magnifying-glass">
            <title>magnifying-glass</title>
            <path
                d="M644.256 0c-209.248 0-379.52 170.24-379.52 379.616 0 50.112 10.24 97.632 27.872 141.376l-292.608 292.64 210.24 210.368 292.736-292.864c43.744 17.76 91.264 28 141.248 28 209.376 0 379.744-170.24 379.744-379.456 0.032-209.44-170.336-379.68-379.712-379.68zM644.256 631.264c-138.624 0-251.616-112.992-251.616-251.584 0-138.752 112.992-251.744 251.616-251.744 138.88 0 251.872 112.992 251.872 251.744 0 138.56-112.992 251.584-251.872 251.584z"></path>
        </symbol>
        <symbol id="icon-trash-stroke">
            <title>trash-stroke</title>
            <path
                d="M1024 128h-256c0-70.752-57.248-128-128-128h-256c-70.752 0-128 57.248-128 128h-256v128h128v576c0 105.984 86.016 192 192 192h384c105.984 0 192-86.016 192-192v-576h128v-128zM768 832c0 35.264-28.736 64-64 64h-384c-35.264 0-64-28.736-64-64v-576h512v576zM320 704c0-35.346 28.654-64 64-64s64 28.654 64 64c0 35.346-28.654 64-64 64s-64-28.654-64-64zM320 448c0-35.346 28.654-64 64-64s64 28.654 64 64c0 35.346-28.654 64-64 64s-64-28.654-64-64zM576 704c0-35.346 28.654-64 64-64s64 28.654 64 64c0 35.346-28.654 64-64 64s-64-28.654-64-64zM576 448c0-35.346 28.654-64 64-64s64 28.654 64 64c0 35.346-28.654 64-64 64s-64-28.654-64-64z"></path>
        </symbol>
        <symbol id="icon-trash-fill">
            <title>trash-fill</title>
            <path
                d="M896 128h-128c0-70.752-57.248-128-128-128h-256c-70.752 0-128 57.248-128 128h-256v128h128v576c0 105.984 86.016 192 192 192h384c105.984 0 192-86.016 192-192v-576h128v-128h-128zM384 768c-35.36 0-64-28.64-64-64s28.64-64 64-64 64 28.64 64 64-28.64 64-64 64zM384 512c-35.36 0-64-28.64-64-64s28.64-64 64-64 64 28.64 64 64-28.64 64-64 64zM640 768c-35.36 0-64-28.64-64-64s28.64-64 64-64 64 28.64 64 64-28.64 64-64 64zM640 512c-35.36 0-64-28.64-64-64s28.64-64 64-64 64 28.64 64 64-28.64 64-64 64z"></path>
        </symbol>
        <symbol id="icon-beaker-alt">
            <title>beaker-alt</title>
            <path
                d="M256 288c0-17.673 14.327-32 32-32s32 14.327 32 32c0 17.673-14.327 32-32 32s-32-14.327-32-32zM448 0h-384c-35.36 0-64 28.64-64 64v704c0 141.376 114.624 256 256 256s256-114.624 256-256v-704c0-35.36-28.64-64-64-64zM160 640c-17.664 0-32-14.304-32-32s14.336-32 32-32c17.696 0 32 14.304 32 32s-14.304 32-32 32zM320 768c-35.36 0-64-28.64-64-64s28.64-64 64-64 64 28.64 64 64-28.64 64-64 64zM384 512h-64c0-35.328-28.672-64-64-64s-64 28.672-64 64h-64v-384h256v384z"></path>
        </symbol>
        <symbol id="icon-beaker">
            <title>beaker</title>
            <path
                d="M448 0h-384c-35.36 0-64 28.64-64 64v704c0 141.376 114.624 256 256 256s256-114.624 256-256v-704c0-35.36-28.64-64-64-64zM320 768c-35.36 0-64-28.64-64-64s28.64-64 64-64 64 28.64 64 64-28.64 64-64 64zM384 512h-64c0-35.328-28.672-64-64-64s-64 28.672-64 64h-64v-384h256v384z"></path>
        </symbol>
        <symbol id="icon-key-stroke">
            <title>key-stroke</title>
            <path
                d="M704 0c-176.736 0-320 143.264-320 320 0 20 2.368 39.264 5.888 58.112l-389.888 389.888v256h384v-128h128v-128h128v-128l5.888-5.888c18.848 3.52 38.112 5.888 58.112 5.888 176.736 0 320-143.264 320-320s-143.264-320-320-320zM704 512c-10.016 0-20.992-1.248-34.752-3.744l-66.24-12.256-91.008 91.008v52.992h-128v128h-128v128h-128v-75.008l400-400-12.256-66.24c-2.56-13.76-3.744-24.768-3.744-34.752 0-105.888 86.112-192 192-192s192 86.112 192 192-86.112 192-192 192zM640 320c0-35.346 28.654-64 64-64s64 28.654 64 64c0 35.346-28.654 64-64 64s-64-28.654-64-64z"></path>
        </symbol>
        <symbol id="icon-key-fill">
            <title>key-fill</title>
            <path
                d="M704 0c-176.736 0-320 143.264-320 320 0 20 2.368 39.264 5.888 58.112l-389.888 389.888v256h384v-128h128v-128h128v-128l5.888-5.888c18.848 3.52 38.112 5.888 58.112 5.888 176.736 0 320-143.264 320-320s-143.264-320-320-320zM704.256 384c-35.36 0-64-28.64-64-64s28.64-64 64-64 64 28.64 64 64-28.64 64-64 64z"></path>
        </symbol>
        <symbol id="icon-new-window">
            <title>new-window</title>
            <path d="M1024 0h-768v256c-92.992 0-256 0-256 0v768h768v-256h256v-768zM640 896h-512v-384h128v256h384c0 57.248 0 128 0 128zM896 640h-512v-384h512v384z"></path>
        </symbol>
        <symbol id="icon-lightbulb">
            <title>lightbulb</title>
            <path
                d="M320 128.256c105.952 0 192 86.368 192 192.512 0 60.64-27.616 116.384-75.936 152.736-72.256 54.624-101.44 115.008-111.488 165.76h-9.152c-10.016-50.752-39.296-111.136-111.488-165.76-48.256-36.384-76-92.128-76-152.736 0-106.144 86.112-192.512 192.064-192.512zM320 0c-176.736 0-320 143.616-320 320.736 0 105.024 49.44 196.768 127.008 255.264 35.68 27.008 65.12 61.76 65.12 109.76v81.76h255.808v-81.76c0-48 29.44-82.752 65.056-109.76 77.632-58.496 127.008-150.24 127.008-255.264 0-177.12-143.264-320.736-320-320.736v0zM192 896h256v128h-256z"></path>
        </symbol>
        <symbol id="icon-spin-alt">
            <title>spin-alt</title>
            <path
                d="M150.112 874.24c-96.864-96.736-150.112-225.248-150.112-362.24 0-282.24 229.632-512 512-512l64 64-64 64c-211.744 0-384 172.256-384 384 0 102.752 40 199.264 112.64 271.744l-78.624 10.24-11.904 80.256zM512 1024l-64-63.744 64-64.256c211.744 0 384-172.256 384-384 0-102.496-40-199.008-112.736-271.616l78.752-10.368 11.744-80.128c96.864 96.736 150.24 225.376 150.24 362.112 0 282.24-229.76 512-512 512v0z"></path>
        </symbol>
        <symbol id="icon-spin">
            <title>spin</title>
            <path
                d="M764.256 194.752l-90.24 90.624c60.48 60.512 93.984 140.992 93.984 226.624 0 176.512-143.488 320-320 320v-64l-128 128 128 128v-64c247.008 0 448-200.992 448-448 0-119.872-46.752-232.512-131.744-317.248zM576 128l-128-128v64c-247.008 0-448 200.992-448 448 0 119.872 46.752 232.512 131.744 317.248l90.24-90.624c-60.48-60.512-93.984-140.992-93.984-226.624 0-176.512 143.488-320 320-320v64l128-128z"></path>
        </symbol>
        <symbol id="icon-curved-arrow">
            <title>curved-arrow</title>
            <path d="M896 576c0-247.36-200.64-448-448-448s-448 200.64-448 448c0-176.736 143.264-320 320-320s320 143.264 320 320v64h-128l256 256 256-256h-128v-64z"></path>
        </symbol>
        <symbol id="icon-undo">
            <title>undo</title>
            <path
                d="M900.936 119.032c-158.614-158.582-435.332-158.71-593.85 0l-179.094 179.222v-170.23h-127.992v383.976h383.976v-127.992l-160.726 0.096 174.486-174.486c110.234-110.362 302.478-110.362 412.71 0.128 55.132 55.134 85.498 128.376 85.498 206.356 0 78.076-30.366 151.35-85.498 206.644l-96.506 96.474 90.49 90.458 96.506-96.25c79.258-79.516 123-185.046 123-297.326 0-112.216-43.742-217.714-123-297.070zM590.332 1024l-90.492-90.618 90.556-90.458 90.49 90.618z"></path>
        </symbol>
        <symbol id="icon-reload">
            <title>reload</title>
            <path
                d="M768 576c0 141.12-114.752 256-256 256s-256-114.88-256-256 114.752-256 256-256l75.488 0.864-37.248 37.248 90.496 90.496 192.384-192.608-192.384-192-90.496 90.496 37.76 37.504h-76c-212 0-384 171.872-384 384s172 384 384 384 384-171.872 384-384h-128z"></path>
        </symbol>
        <symbol id="icon-reload-alt">
            <title>reload-alt</title>
            <path d="M768 576c0 141.248-114.752 256-256 256s-256-114.752-256-256 114.752-256 256-256h128l0.736 128.64 192.384-192.64-192.384-192v128h-128.736c-212 0-384 172-384 384s172 384 384 384 384-172 384-384h-128z"></path>
        </symbol>
        <symbol id="icon-loop">
            <title>loop</title>
            <path
                d="M640 512v128h151.616l-171.872 171.872c-108.448 108.672-297.888 108.672-406.432 0l-90.56 90.368c78.432 78.528 182.88 121.76 293.888 121.76 111.072 0 215.264-43.264 293.6-121.76l185.76-185.6v179.36h128v-384h-384zM384 384h-151.616l171.872-171.872c108.448-108.672 297.888-108.672 406.432 0l90.56-90.368c-78.432-78.496-182.88-121.76-293.92-121.76-111.072 0-215.264 43.264-293.6 121.76l-185.728 185.6v-179.36h-128v384h384v-128z"></path>
        </symbol>
        <symbol id="icon-loop-alt1">
            <title>loop-alt1</title>
            <path
                d="M384 320h-128v-0.512c0-35.264 28.736-63.488 64-63.488h384c35.264 0 64 28.736 64 64v64h128v-64c0-105.888-86.112-192-192-192h-384c-105.888 0-192 86.112-192 192h-128l192 192 192-192zM832 512l-192 192h128v0.512c0 35.232-28.736 63.488-64 63.488h-384c-35.264 0-64-28.736-64-64v-64h-128v64c0 105.888 86.112 192 192 192h384c105.888 0 192-86.112 192-192h128l-192-192z"></path>
        </symbol>
        <symbol id="icon-loop-alt2">
            <title>loop-alt2</title>
            <path
                d="M384 320h-128v-64c0-35.264 28.736-64 64-64h384c35.264 0 64 28.736 64 64v64h128v-64c0-105.888-86.112-192-192-192h-384c-105.888 0-192 86.112-192 192v64h-128l192 256 192-256zM832 448l-192 256h128v64c0 35.264-28.736 64-64 64h-384c-35.264 0-64-28.736-64-64v-64h-128v64c0 105.888 86.112 192 192 192h384c105.888 0 192-86.112 192-192v-64h128l-192-256z"></path>
        </symbol>
        <symbol id="icon-loop-alt3">
            <title>loop-alt3</title>
            <path
                d="M896 512v64c0 35.264-28.736 64-64 64h-448.128l0.128-128-256 192 256 192-0.128-128h448.128c105.888 0 192-86.24 192-192v-64h-128zM128 448c0-35.36 28.736-64 64-64h448v128l255.744-192-255.744-192v128h-448c-105.888 0-192 86.016-192 192v64h128v-64z"></path>
        </symbol>
        <symbol id="icon-loop-alt4">
            <title>loop-alt4</title>
            <path d="M896 576c0 35.264-28.736 64-64 64h-576.256v-128l-255.744 192 255.744 192v-128h576.256c105.888 0 192-86.24 192-192h-128zM192 384h576v128l256-192-256-192v128h-576c-105.888 0-192 86.016-192 192h128c0-35.264 28.736-64 64-64z"></path>
        </symbol>
        <symbol id="icon-transfer">
            <title>transfer</title>
            <path d="M1023.936 768h-768.192v128l-255.744-192 255.744-192v128h768.192zM0 384h767.936v128l256-192-256-192v128h-767.936z"></path>
        </symbol>
        <symbol id="icon-move-vertical">
            <title>move-vertical</title>
            <path d="M256 640v192h128l-192 192-192-192h128v-192zM128 384v-192h-128l192-192 192 192h-128v192z"></path>
        </symbol>
        <symbol id="icon-move-vertical-alt1">
            <title>move-vertical-alt1</title>
            <path d="M192 704l64-64v192h128l-192 192-192-192h128v-192zM192 321.984l-64 62.016v-192h-128l192-192 192 192h-128v192z"></path>
        </symbol>
        <symbol id="icon-move-vertical-alt2">
            <title>move-vertical-alt2</title>
            <path d="M512 0c-282.752 0-512 229.248-512 512s229.248 512 512 512 512-229.248 512-512-229.248-512-512-512zM576 704h64l-128 128-128-128h64v-384h-64l128-128 128 128h-64v384z"></path>
        </symbol>
        <symbol id="icon-move-horizontal">
            <title>move-horizontal</title>
            <path d="M384 576h-192v128l-192-192 192-192v128h192zM640 448h192v-128l192 192-192 192v-128h-192z"></path>
        </symbol>
        <symbol id="icon-move-horizontal-alt1">
            <title>move-horizontal-alt1</title>
            <path d="M320 512l64 64h-192v128l-192-192 192-192v128h192zM702.016 512l-62.016-64h192v-128l192 192-192 192v-128h-192z"></path>
        </symbol>
        <symbol id="icon-move-horizontal-alt2">
            <title>move-horizontal-alt2</title>
            <path d="M1024 512c0-282.752-229.248-512-512-512s-512 229.248-512 512 229.248 512 512 512 512-229.248 512-512zM320 576v64l-128-128 128-128v64h384v-64l128 128-128 128v-64h-384z"></path>
        </symbol>
        <symbol id="icon-arrow-left">
            <title>arrow-left</title>
            <path d="M1024 384h-512l192-192-192-192-512 512 512 512 192-192-192-192h512z"></path>
        </symbol>
        <symbol id="icon-arrow-left-alt1">
            <title>arrow-left-alt1</title>
            <path d="M1024 512c0-282.752-229.248-512-512-512-282.784 0-512 229.248-512 512 0 282.784 229.216 512 512 512 282.752 0 512-229.216 512-512zM256 512l256-256v192h256v128h-256v192l-256-256z"></path>
        </symbol>
        <symbol id="icon-arrow-left-alt2">
            <title>arrow-left-alt2</title>
            <path d="M512 1024c282.752 0 512-229.248 512-512s-229.248-512-512-512-512 229.248-512 512 229.248 512 512 512zM320 384v64h512v128h-512v64l-128-128 128-128z"></path>
        </symbol>
        <symbol id="icon-arrow-right">
            <title>arrow-right</title>
            <path d="M0 640h512l-192 192 192 192 512-512-512-512-192 192 192 192h-512z"></path>
        </symbol>
        <symbol id="icon-arrow-right-alt1">
            <title>arrow-right-alt1</title>
            <path d="M0 512c0 282.752 229.248 512 512 512 282.784 0 512-229.248 512-512 0-282.784-229.216-512-512-512-282.752 0-512 229.216-512 512zM768 512l-256 256v-192h-256v-128h256v-192l256 256z"></path>
        </symbol>
        <symbol id="icon-arrow-right-alt2">
            <title>arrow-right-alt2</title>
            <path d="M512 0c-282.752 0-512 229.248-512 512s229.248 512 512 512 512-229.248 512-512-229.248-512-512-512zM704 640v-64h-512v-128h512v-64l128 128-128 128z"></path>
        </symbol>
        <symbol id="icon-arrow-up">
            <title>arrow-up</title>
            <path d="M640 1024v-512l192 192 192-192-512-512-512 512 192 192 192-192v512z"></path>
        </symbol>
        <symbol id="icon-arrow-up-alt1">
            <title>arrow-up-alt1</title>
            <path d="M512 1024c282.752 0 512-229.248 512-512 0-282.784-229.248-512-512-512-282.784 0-512 229.216-512 512 0 282.752 229.216 512 512 512zM512 256l256 256h-192v256h-128v-256h-192l256-256z"></path>
        </symbol>
        <symbol id="icon-arrow-up-alt2">
            <title>arrow-up-alt2</title>
            <path d="M0 512c0 282.752 229.248 512 512 512s512-229.248 512-512-229.248-512-512-512-512 229.248-512 512zM640 320h-64v512h-128v-512h-64l128-128 128 128z"></path>
        </symbol>
        <symbol id="icon-arrow-down">
            <title>arrow-down</title>
            <path d="M384 0v512l-192-192-192 192 512 512 512-512-192-192-192 192v-512z"></path>
        </symbol>
        <symbol id="icon-arrow-down-alt1">
            <title>arrow-down-alt1</title>
            <path d="M512 0c-282.752 0-512 229.248-512 512 0 282.784 229.248 512 512 512 282.784 0 512-229.216 512-512 0-282.752-229.216-512-512-512zM512 768l-256-256h192v-256h128v256h192l-256 256z"></path>
        </symbol>
        <symbol id="icon-arrow-down-alt2">
            <title>arrow-down-alt2</title>
            <path d="M1024 512c0-282.752-229.248-512-512-512s-512 229.248-512 512 229.248 512 512 512 512-229.248 512-512zM384 704h64v-512h128v512h64l-128 128-128-128z"></path>
        </symbol>
        <symbol id="icon-cd">
            <title>cd</title>
            <path
                d="M512 0c-282.752 0-512 229.248-512 512s229.248 512 512 512 512-229.248 512-512-229.248-512-512-512zM512.992 637.888c-70.016 0-126.88-56.736-126.88-126.88 0-70.24 56.864-127.008 126.88-127.008 70.272 0 127.008 56.736 127.008 127.008 0 70.112-56.736 126.88-127.008 126.88z"></path>
        </symbol>
        <symbol id="icon-steering-wheel">
            <title>steering-wheel</title>
            <path
                d="M512 0c-282.752 0-512 229.248-512 512s229.248 512 512 512 512-229.248 512-512-229.248-512-512-512zM512 128c166.624 0 307.36 107.328 360.512 256h-721.024c53.152-148.672 193.888-256 360.512-256zM512 576c-35.36 0-64-28.64-64-64s28.64-64 64-64 64 28.64 64 64-28.64 64-64 64zM128 512c174.88 0 316.512 168.512 319.488 377.504-180.992-31.008-319.488-187.872-319.488-377.504zM576.512 889.504c2.976-208.992 144.608-377.504 319.488-377.504 0 189.632-138.496 346.496-319.488 377.504z"></path>
        </symbol>
        <symbol id="icon-microphone">
            <title>microphone</title>
            <path
                d="M384 512c70.752 0 128-57.312 128-128v-256c0-70.688-57.248-128-128-128s-128 57.312-128 128v256c0 70.688 57.248 128 128 128zM512 896h-64v-134.496c181.248-30.624 320-187.68 320-377.504v-62.016c0-35.36-28.64-64-64-64s-64 28.64-64 64v62.016c0 141.184-114.752 256-256 256s-256-114.816-256-256v-62.016c0-35.36-28.64-64-64-64s-64 28.64-64 64v62.016c0 189.824 138.752 346.88 320 377.504v134.496h-64c-70.752 0-128 57.248-128 128h512c0-70.752-57.248-128-128-128z"></path>
        </symbol>
        <symbol id="icon-headphones">
            <title>headphones</title>
            <path d="M960 576h-64v-128c0-212-172-384-384-384s-384 172-384 384v128h-64c-35.36 0-64 28.64-64 64v256c0 35.36 28.64 64 64 64h192v-512c0-141.248 114.752-256 256-256s256 114.752 256 256v512h192c35.36 0 64-28.64 64-64v-256c0-35.36-28.64-64-64-64z"></path>
        </symbol>
        <symbol id="icon-volume">
            <title>volume</title>
            <path
                d="M256 768c-141.376 0-256-114.624-256-256s114.624-256 256-256v512zM384 256l256-128v768l-256-128zM768.128 767.872v-128c10.624 0 21.376-1.376 32.128-4 56.128-14.24 95.744-65.248 95.744-123.872s-39.616-109.504-96.384-123.872c-10.112-2.496-20.864-3.872-31.488-3.872v-128c20.992 0 42.016 2.624 62.624 7.616 113.888 28.992 193.248 130.88 193.248 248.128 0 117.376-79.36 219.36-192.864 248.128-21.248 5.12-42.272 7.744-63.008 7.744v0z"></path>
        </symbol>
        <symbol id="icon-volume-mute">
            <title>volume-mute</title>
            <path d="M256 768c-141.376 0-256-114.624-256-256s114.624-256 256-256v512zM384 256l256-128v768l-256-128zM1024 576h-256v-128h256z"></path>
        </symbol>
        <symbol id="icon-play">
            <title>play</title>
            <path d="M0 0l768 512-768 512z"></path>
        </symbol>
        <symbol id="icon-pause">
            <title>pause</title>
            <path d="M0 0h256v1024h-256zM512 0h256v1024h-256z"></path>
        </symbol>
        <symbol id="icon-stop">
            <title>stop</title>
            <path d="M0 0h1024v1024h-1024z"></path>
        </symbol>
        <symbol id="icon-eject">
            <title>eject</title>
            <path d="M0 640l512-640 512 640zM0 768h1022.624v256h-1022.624z"></path>
        </symbol>
        <symbol id="icon-first">
            <title>first</title>
            <path d="M1024 1024l-768-512 768-512zM0 128h256v768h-256z"></path>
        </symbol>
        <symbol id="icon-last">
            <title>last</title>
            <path d="M0 0l768 512-768 512zM768 128h256v768h-256z"></path>
        </symbol>
        <symbol id="icon-play-alt">
            <title>play-alt</title>
            <path d="M512 0c-282.752 0-512 229.248-512 512s229.248 512 512 512 512-229.248 512-512-229.248-512-512-512zM320 768v-512l512.256 256-512.256 256z"></path>
        </symbol>
        <symbol id="icon-fullscreen-exit">
            <title>fullscreen-exit</title>
            <path
                d="M786.752 877.248l146.752 146.752 90.496-90.496-146.752-146.752 146.752-146.752h-384v384zM0 384h384v-384l-146.752 146.752-145.248-145.376-90.496 90.496 145.248 145.376zM0 933.504l90.496 90.496 146.752-146.752 146.752 146.752v-384h-384l146.752 146.752zM640 384h384l-146.752-146.752 145.504-145.376-90.496-90.496-145.504 145.376-146.752-146.752z"></path>
        </symbol>
        <symbol id="icon-fullscreen-exit-alt">
            <title>fullscreen-exit-alt</title>
            <path
                d="M896 640h-256v256l82.752-82.752 210.752 210.752 90.496-90.496-210.752-210.752zM813.248 301.248l210.752-210.752-90.496-90.496-210.752 210.752-82.752-82.752v256h256zM90.496 0l-90.496 90.496 210.752 210.752-82.752 82.752h256v-256l-82.752 82.752zM210.752 722.752l-210.752 210.752 90.496 90.496 210.752-210.752 82.752 82.752v-256h-256z"></path>
        </symbol>
        <symbol id="icon-fullscreen">
            <title>fullscreen</title>
            <path
                d="M877.248 786.752l-146.752-146.752-90.496 90.496 146.752 146.752-146.752 146.752h384v-384zM384 0h-384v384l146.752-146.752 145.376 145.248 90.496-90.496-145.376-145.248zM384 730.496l-90.496-90.496-146.752 146.752-146.752-146.752v384h384l-146.752-146.752zM1024 0h-384l146.752 146.752-145.376 145.248 90.496 90.496 145.376-145.248 146.752 146.752z"></path>
        </symbol>
        <symbol id="icon-fullscreen-alt">
            <title>fullscreen-alt</title>
            <path
                d="M941.248 850.752l-210.752-210.752-90.496 90.496 210.752 210.752-82.752 82.752h256v-256zM82.752 173.248l210.752 210.752 90.496-90.496-210.752-210.752 82.752-82.752h-256v256zM850.752 82.752l-210.752 210.752 90.496 90.496 210.752-210.752 82.752 82.752v-256h-256zM384 730.496l-90.496-90.496-210.752 210.752-82.752-82.752v256h256l-82.752-82.752z"></path>
        </symbol>
        <symbol id="icon-iphone">
            <title>iphone</title>
            <path
                d="M512 0h-256c-141.376 0-256 114.624-256 256v512c0 141.376 114.624 256 256 256h256c141.376 0 256-114.624 256-256v-512c0-141.376-114.624-256-256-256zM384 961.984c-36.448 0-65.984-29.504-65.984-65.984s29.568-65.984 65.984-65.984 65.984 29.504 65.984 65.984-29.536 65.984-65.984 65.984zM640 768h-512v-512c0-70.496 57.44-128 128-128h256c70.496 0 128 57.504 128 128v512z"></path>
        </symbol>
        <symbol id="icon-battery-empty">
            <title>battery-empty</title>
            <path d="M1024 384h-128v-64c0-35.136-28.736-64-64-64h-768c-35.264 0-64 28.864-64 64v384c0 35.136 28.736 64 64 64h768c35.264 0 64-28.864 64-64v-64h128v-256zM768 640h-640v-256h640v256z"></path>
        </symbol>
        <symbol id="icon-battery-half">
            <title>battery-half</title>
            <path d="M1024 384h-128v-64c0-35.2-28.736-64-64-64h-768c-35.264 0-64 28.8-64 64v384c0 35.264 28.736 64 64 64h768c35.264 0 64-28.736 64-64v-64h128v-256zM768 640h-256v-256h256v256z"></path>
        </symbol>
        <symbol id="icon-battery-full">
            <title>battery-full</title>
            <path d="M896 384v-64c0-35.2-28.8-64-64-64h-768c-35.2 0-64 28.8-64 64v384c0 35.2 28.8 64 64 64h768c35.2 0 64-28.8 64-64v-64h128v-256h-128z"></path>
        </symbol>
        <symbol id="icon-battery-charging">
            <title>battery-charging</title>
            <path
                d="M896 384v-64c0-35.2-28.8-64-64-64h-768c-35.2 0-64 28.8-64 64v128h203.168c26.4-74.528 97.28-128 180.832-128v64h128v64h-128v128h128v64h-128v64c-83.552 0-154.464-53.472-180.832-128h-203.168v128c0 35.2 28.8 64 64 64h768c35.2 0 64-28.8 64-64v-64h128v-256h-128z"></path>
        </symbol>
        <symbol id="icon-compass">
            <title>compass</title>
            <path
                d="M580 444.128c25.504 25.568 32.256 61.76 23.008 94.176l164.992-282.304-278.496 164.448c31.488-7.776 65.856-0.96 90.496 23.68zM444.256 579.872c-24.736-24.672-31.488-59.2-23.744-90.752l-164.512 278.88 282.624-165.12c-32.512 9.376-68.736 2.624-94.368-23.008zM512 128c211.744 0 384 172.256 384 384s-172.256 384-384 384-384-172.256-384-384 172.256-384 384-384zM512 0c-282.752 0-512 229.248-512 512s229.248 512 512 512 512-229.248 512-512-229.248-512-512-512v0z"></path>
        </symbol>
        <symbol id="icon-box">
            <title>box</title>
            <path d="M0 384h1024v640h-1024zM576 256h448l-128-256h-320zM448 0h-320l-128 256h448z"></path>
        </symbol>
        <symbol id="icon-folder-stroke">
            <title>folder-stroke</title>
            <path d="M512 128.064v-128.064h-512v896c0 70.752 57.248 128 128 128h768c70.624 0 128-57.248 128-128v-767.936h-512zM896 512.128v383.872h-768v-384l768 0.128zM896 384h-768v-256l256 0.064v127.936h512v128z"></path>
        </symbol>
        <symbol id="icon-folder-fill">
            <title>folder-fill</title>
            <path d="M1024 960c0 35.36-28.64 64-64 64h-896c-35.36 0-64-28.64-64-64v-576h1024v576zM384 128.064v-128.064h-384v256h1024v-127.936z"></path>
        </symbol>
        <symbol id="icon-at">
            <title>at</title>
            <path
                d="M955.008 768c43.872-75.36 68.992-162.496 68.992-256 0-282.752-229.248-512-512-512s-512 229.248-512 512 229.248 512 512 512c141.376 0 269.376-57.248 361.984-150.016l-90.624-90.624c-69.472 69.632-165.472 112.64-271.36 112.64-211.744 0-384-172.256-384-384s172.256-384 384-384 384 172.256 384 384c0 45.504-8.736 88.992-23.36 129.504l-1.024-1.504h-103.616v-382.624h-256c-141.376 0-256 114.624-256 256s114.624 256 256 256c58.752 0 112.256-20.64 155.488-53.888 23.264 31.008 58.752 52.512 100.512 52.512h187.008zM640 448.256v65.12c0 70.624-57.504 128-128 128s-128-57.376-128-128 57.504-128 128-128h128v62.88z"></path>
        </symbol>
        <symbol id="icon-ampersand">
            <title>ampersand</title>
            <path
                d="M294.784 1024c-75.488 0-151.008-28.736-208.64-86.112-114.88-115.136-114.88-302.368 0-417.248l259.616-254.016c14.752-14.88 23.264-35.264 23.264-57.12 0-21.76-8.512-42.24-23.744-57.76-31.744-31.744-83.488-31.616-115.488 0.128-31.52 31.744-31.52 83.488 0.224 115.264l-90.624 90.624c-81.6-81.76-81.6-214.624-0.096-296.384 81.984-81.888 214.752-81.76 296.448-0.128 39.744 39.616 61.504 92.384 61.504 148.384s-21.76 108.64-61.504 148.128l-259.552 253.888c-64.64 64.512-64.64 170.496 0.64 235.616 64.992 65.12 171.008 64.992 236.256 0 64.928-65.12 64.928-171.136 0-236.128l-45.504-45.248 139.2-139.136 90.496 90.496-53.504 53.504c72.512 113.984 59.264 267.488-40.256 367.008-57.536 57.504-133.248 86.24-208.736 86.24v0z"></path>
        </symbol>
        <symbol id="icon-info">
            <title>info</title>
            <path
                d="M64 512c35.36 0 64 28.64 64 64v256c0 35.36-28.64 64-64 64h-64v128h512v-128h-63.744c-35.264 0-64.256-28.64-64.256-64l-0.128-448h-383.872v128h64zM128 128c0-70.692 57.308-128 128-128s128 57.308 128 128c0 70.692-57.308 128-128 128s-128-57.308-128-128z"></path>
        </symbol>
        <symbol id="icon-question-mark">
            <title>question-mark</title>
            <path
                d="M179.2 960c0-35.346 28.654-64 64-64s64 28.654 64 64c0 35.346-28.654 64-64 64s-64-28.654-64-64zM245.632 831.264c-42.752 0-82.88-16.64-113.12-46.88s-46.88-70.368-46.88-113.12 16.64-82.88 46.88-113.12l214.016-214.016c24.224-24.192 37.472-56.32 37.472-90.496s-13.248-66.304-37.504-90.496c-49.888-49.92-131.072-50.016-180.928 0-24.256 24.192-37.568 56.288-37.568 90.496h-128c0-68.384 26.688-132.704 75.136-181.088 96.64-96.736 265.12-96.672 361.888 0.064 48.352 48.288 74.976 112.576 74.976 181.024 0 68.384-26.624 132.64-75.008 180.992l-213.984 214.016c-12.448 12.512-12.448 32.736 0 45.248 12.512 12.512 32.736 12.512 45.248 0 8.128-8.128 9.376-17.76 9.376-22.624h128c0 42.752-16.64 82.88-46.88 113.12s-70.368 46.88-113.12 46.88v0z"></path>
        </symbol>
        <symbol id="icon-pilcrow">
            <title>pilcrow</title>
            <path d="M768 0h-512c-141.376 0-256 114.624-256 256s114.624 256 256 256v512h128v-896h128v896h128v-896h128v-128z"></path>
        </symbol>
        <symbol id="icon-hash">
            <title>hash</title>
            <path
                d="M896 384v-128h-160.128l32-256h-128l-32 256h-255.936l32-256h-128l-32 256h-223.936v128h207.936l-31.936 256h-176v128h160l-32 256h128l32-256h255.936l-32 256h128.064l32-256h224v-128h-208l31.872-256h176.128zM559.936 640h-255.936l31.936-256h255.936l-31.936 256z"></path>
        </symbol>
        <symbol id="icon-left-quote">
            <title>left-quote</title>
            <path d="M1024 896v-384h-256c0-141.12 114.752-256 256-256v-128c-211.744 0-384 172.256-384 384v384h384zM384 896v-384h-256c0-141.12 114.752-256 256-256v-128c-211.744 0-384 172.256-384 384v384h384z"></path>
        </symbol>
        <symbol id="icon-right-quote">
            <title>right-quote</title>
            <path d="M0 128v384h256c0 141.12-114.752 256-256 256v128c211.744 0 384-172.256 384-384v-384h-384zM640 128v384h256c0 141.12-114.752 256-256 256v128c211.744 0 384-172.256 384-384v-384h-384z"></path>
        </symbol>
        <symbol id="icon-left-quote-alt">
            <title>left-quote-alt</title>
            <path d="M1024 896v-768l-384 384v384zM384 896v-768l-384 384v384z"></path>
        </symbol>
        <symbol id="icon-right-quote-alt">
            <title>right-quote-alt</title>
            <path d="M0 128v768l384-384v-384zM640 128v768l384-384v-384z"></path>
        </symbol>
        <symbol id="icon-article">
            <title>article</title>
            <path d="M1024 128h-1024v-128h1024zM640 384h-640v-128h640zM1024 768h-1024v-128h1024zM768 1024h-768v-128h768zM1024 960c0 35.36-28.704 64-63.936 64-35.456 0-64.064-28.64-64.064-64s28.608-64 64.064-64c35.232 0 63.936 28.64 63.936 64z"></path>
        </symbol>
        <symbol id="icon-read-more">
            <title>read-more</title>
            <path
                d="M1024 128h-1024v-128h1024zM640 384h-640v-128h640zM1024 640h-1024v-128h1024zM0 960c0-35.346 28.654-64 64-64s64 28.654 64 64c0 35.346-28.654 64-64 64s-64-28.654-64-64zM512 960c0-35.346 28.654-64 64-64s64 28.654 64 64c0 35.346-28.654 64-64 64s-64-28.654-64-64zM256 960c0-35.346 28.654-64 64-64s64 28.654 64 64c0 35.346-28.654 64-64 64s-64-28.654-64-64z"></path>
        </symbol>
        <symbol id="icon-list">
            <title>list</title>
            <path
                d="M0 73.138c0-40.393 32.745-73.138 73.138-73.138s73.138 32.745 73.138 73.138c0 40.393-32.745 73.138-73.138 73.138s-73.138-32.745-73.138-73.138zM0 365.728c0-40.393 32.745-73.138 73.138-73.138s73.138 32.745 73.138 73.138c0 40.393-32.745 73.138-73.138 73.138s-73.138-32.745-73.138-73.138zM0 658.282c0-40.393 32.745-73.138 73.138-73.138s73.138 32.745 73.138 73.138c0 40.393-32.745 73.138-73.138 73.138s-73.138-32.745-73.138-73.138zM0 950.87c0-40.393 32.745-73.138 73.138-73.138s73.138 32.745 73.138 73.138c0 40.393-32.745 73.138-73.138 73.138s-73.138-32.745-73.138-73.138zM292.59 0h877.622v146.276h-877.622zM292.59 292.59h877.622v146.276h-877.622zM292.59 585.142h877.622v146.278h-877.622zM292.59 877.732h877.622v146.278h-877.622z"></path>
        </symbol>
        <symbol id="icon-list-nested">
            <title>list-nested</title>
            <path
                d="M0 73.142c0-40.396 32.747-73.143 73.143-73.143s73.143 32.747 73.143 73.143c0 40.396-32.747 73.143-73.143 73.143s-73.143-32.747-73.143-73.143zM292.572 0h877.714v146.286h-877.714zM292.572 365.714c0-40.396 32.747-73.143 73.143-73.143s73.143 32.747 73.143 73.143c0 40.396-32.747 73.143-73.143 73.143s-73.143-32.747-73.143-73.143zM585.142 292.572h585.144v146.286h-585.144zM292.572 950.858c0-40.396 32.747-73.143 73.143-73.143s73.143 32.747 73.143 73.143c0 40.396-32.747 73.143-73.143 73.143s-73.143-32.747-73.143-73.143zM585.142 877.714h585.144v146.286h-585.144zM585.142 658.286c0-40.396 32.747-73.143 73.143-73.143s73.143 32.747 73.143 73.143c0 40.396-32.747 73.143-73.143 73.143s-73.143-32.747-73.143-73.143zM877.714 585.142h292.572v146.286h-292.572z"></path>
        </symbol>
        <symbol id="icon-book">
            <title>book</title>
            <path d="M128 0c-70.4 0-128 57.6-128 128v768c0 70.4 57.6 128 128 128h768v-1024h-768zM768 896h-512v-768h128v256l128-128 128 128v-256h128v768z"></path>
        </symbol>
        <symbol id="icon-book-alt">
            <title>book-alt</title>
            <path d="M1024 128h-128v-128h-768c-70.4 0-128 57.6-128 128v768c0 70.4 57.6 128 128 128h768v-640h128l-128-128 128-128zM768 896h-512v-768h512v768zM384 256h256v128h-256z"></path>
        </symbol>
        <symbol id="icon-book-alt2">
            <title>book-alt2</title>
            <path
                d="M512 192c0 0-128-128-512-128v768c388 0 512 128 512 128s124-128 512-128v-768c-384 0-512 128-512 128zM128 192c162.688 13.632 262.496 51.264 320 81.76v515.488c-57.504-30.368-157.312-68-320-81.76v-515.488zM896 707.488c-162.752 13.76-262.496 51.328-320 81.76v-515.488c57.504-30.496 157.248-68.128 320-81.76v515.488z"></path>
        </symbol>
        <symbol id="icon-pen">
            <title>pen</title>
            <path
                d="M948.992 75.008c-49.856-50.016-115.36-75.008-180.992-75.008-65.504 0-131.008 24.992-180.992 75.008l-586.016 585.984-0.992 363.008h361.984l587.008-587.008c100-100 100-261.984 0-361.984zM308.992 896h-52.992v-128h-127.264l0.128-53.76 548.64-548.736 180.992 180.992-549.504 549.504z"></path>
        </symbol>
        <symbol id="icon-pen-alt-stroke">
            <title>pen-alt-stroke</title>
            <path
                d="M948.992 75.008c-49.984-50.016-115.488-75.008-180.992-75.008s-131.008 24.992-180.992 75.008l-586.016 585.984-0.992 363.008h361.984l587.008-587.008c100-100 100-261.984 0-361.984zM308.992 896h-1.376c49.984-49.984 49.984-132 0-182.016-47.872-47.872-123.488-48.512-173.76-4.736l542.528-542.496 180.992 180.992-548.384 548.256z"></path>
        </symbol>
        <symbol id="icon-pen-alt-fill">
            <title>pen-alt-fill</title>
            <path
                d="M948.992 75.008c-99.872-100-262.112-100-361.984 0l-586.016 585.984-0.992 363.008h361.984l587.008-587.008c100-100 100-261.984 0-361.984zM307.616 896h-180.992v-182.016c49.984-49.984 131.008-49.984 180.992 0s50.016 132.032 0 182.016zM856.128 346.496l-180.992-180.992c49.984-49.984 131.008-49.984 180.992 0s49.984 131.008 0 180.992z"></path>
        </symbol>
        <symbol id="icon-pen-alt2">
            <title>pen-alt2</title>
            <path
                d="M986.466 37.502c-49.982-49.982-131.004-49.982-180.986 0l-483.984 484.144c43.262 11.264 83.262 32.99 115.74 65.502 32.99 32.99 54.014 73.246 65.246 115.484l483.984-484.144c50.014-49.982 50.014-131.002 0-180.986zM346.742 858.63c49.982-49.982 49.982-131.004 0-180.986s-131.004-49.982-180.986 0l-165.756 346.356 346.742-165.37z"></path>
        </symbol>
        <symbol id="icon-brush">
            <title>brush</title>
            <path
                d="M986.432 37.504c-49.984-49.984-131.008-49.984-180.992 0l-364.8 364.736c84.512 30.112 151.008 96.64 180.992 181.12l364.8-364.864c50.016-49.984 50.016-131.008 0-180.992zM511.872 682.624c0-94.24-76.512-170.624-170.752-170.624s-170.624 76.384-170.624 170.624l0.128 0.128c-0.128 126.24-68.736 236.384-170.624 295.36l0.512 0.64c50.112 28.736 108.128 45.248 170.112 45.248 188.512 0 341.376-152.864 341.376-341.376h-0.128z"></path>
        </symbol>
        <symbol id="icon-brush-alt">
            <title>brush-alt</title>
            <path
                d="M384 768c0-70.752-57.376-128-128-128-70.752 0-128 57.248-128 128v0.256c0 94.624-51.488 177.12-128 221.376l0.512 0.384c37.504 21.6 80.992 33.984 127.488 33.984 141.376 0 256-114.624 256-256v0zM986.432 37.504c-49.984-49.984-131.008-49.984-180.992 0l-483.936 484c88.256 23.616 157.504 92.736 180.992 181.12l483.936-484.128c50.016-49.984 50.016-131.008 0-180.992z"></path>
        </symbol>
        <symbol id="icon-eyedropper">
            <title>eyedropper</title>
            <path
                d="M948.96 437.888c99.872-99.808 99.872-261.76 0-361.504-49.888-49.888-115.36-74.88-180.736-74.88-65.312 0-130.816 24.992-180.672 74.88l-18.88 18.88-95.168-95.264-90.24 90.304 95.264 95.2-478.528 478.816v231.936l125.76 127.744h237.248l476.832-476.992 92 92.064 90.368-90.24-92.128-92.064 18.88-18.88zM330.24 875.744c1.504-48.512-15.264-97.12-52.128-134.016-33.888-33.984-78.112-50.624-122.624-52.128l413.408-413.536 180.576 180.448-419.232 419.232z"></path>
        </symbol>
        <symbol id="icon-layers-alt">
            <title>layers-alt</title>
            <path d="M0 768l512.032 128 511.968-128v128l-511.968 128-512.032-128zM0 512l512.032 128 511.968-128v128l-511.968 128-512.032-128zM0 256l512.032 128 511.968-128v128l-511.968 128-512.032-128zM0 0l512.032 128 511.968-128v128l-511.968 128-512.032-128z"></path>
        </symbol>
        <symbol id="icon-layers">
            <title>layers</title>
            <path d="M0 704l512.032 128 511.968-128v128l-511.968 128-512.032-128zM0 448l512.032 128 511.968-128v128l-511.968 128-512.032-128zM0 192l512.032-128 511.968 128v128l-511.968 128-512.032-128z"></path>
        </symbol>
        <symbol id="icon-image">
            <title>image</title>
            <path d="M256 768v-256l128-128 128 128 256-256 256 256v256zM128 896v-896l-128 128v896h896l128-128z"></path>
        </symbol>
        <symbol id="icon-camera">
            <title>camera</title>
            <path
                d="M512 640c0-70.692 57.308-128 128-128s128 57.308 128 128c0 70.692-57.308 128-128 128s-128-57.308-128-128zM896 256l-105.248-212.576c-8.64-25.248-32.512-43.424-60.768-43.424h-175.744c-28.576 0-52.672 18.624-60.928 44.32l-109.184 211.68h-256.128c-70.688 0-128 57.312-128 128v640h1024v-640c0-70.688-57.248-128-128-128zM192 512c-35.36 0-64-28.64-64-64s28.64-64 64-64 64 28.64 64 64-28.64 64-64 64zM640 896c-141.376 0-256-114.624-256-256s114.624-256 256-256 256 114.624 256 256-114.624 256-256 256z"></path>
        </symbol>
        <symbol id="icon-aperture">
            <title>aperture</title>
            <path
                d="M677.504 447.36l182.112-309.248c-91.36-85.056-212.864-138.112-347.616-138.112-31.936 0-62.88 3.808-93.184 9.376l258.688 437.984zM638.496 640h367.36c10.656-41.12 18.144-83.488 18.144-128 0-123.936-45.76-236.064-119.136-324.64l-266.368 452.64zM528 320l-173.056-292.864c-144 46.688-260.448 153.536-316.928 292.864h489.984zM500.256 704l172.512 291.744c142.368-47.488 257.248-153.632 313.248-291.744h-485.76zM387.36 384h-369.248c-10.688 41.12-18.112 83.488-18.112 128 0 124.512 46.24 237.12 120.192 326.016l267.168-454.016zM349.376 574.752l-183.808 312.256c91.296 84.256 212.32 136.992 346.432 136.992 33.312 0 65.76-3.744 97.248-9.76l-259.872-439.488z"></path>
        </symbol>
        <symbol id="icon-aperture-alt">
            <title>aperture-alt</title>
            <path
                d="M969.888 287.136l-319.136 319.136h363.744c5.76-30.784 9.504-62.016 9.504-94.272 0-81.056-20.512-156.736-54.112-224.864zM673.76 487.68l262.496-262.368c-62.496-92.128-155.008-160.672-262.496-196.672v459.040zM535.936 673.76l262.56 262.624c92.256-62.368 160.864-155.008 196.864-262.624h-459.424zM606.176 375.808v-366.304c-30.624-5.696-61.92-9.504-94.176-9.504-81.76 0-158.016 20.928-226.56 55.072l320.736 320.736zM417.824 651.264v363.264c30.624 5.728 61.92 9.472 94.176 9.472 80.992 0 156.512-20.512 224.64-54.016l-318.816-318.72zM350.176 536.736l-262.176 262.144c62.368 92 154.816 160.512 262.176 196.512v-458.656zM9.504 417.824c-5.696 30.624-9.504 61.92-9.504 94.176 0 81.248 20.64 156.992 54.24 225.12l319.328-319.328h-364.064zM223.872 88.992c-91.36 62.368-159.424 154.336-195.232 261.184h456.448l-261.216-261.184z"></path>
        </symbol>
        <symbol id="icon-chart">
            <title>chart</title>
            <path
                d="M439.712 620.736l-320.256-320c-159.264 184.128-159.264 455.904 0 640l320.256-320zM640.032 133.056v468.672l-331.264 331.392c74.496 55.616 164.992 90.88 264.992 90.88 248.736 0 450.24-201.248 450.24-449.888 0.032-225.856-167.424-408.864-383.968-441.056zM512 512.512v-512.512c-139.488 8.64-265.504 62.016-367.264 145.184l367.264 367.328z"></path>
        </symbol>
        <symbol id="icon-chart-alt">
            <title>chart-alt</title>
            <path
                d="M465.056 621.504l-338.496-338.496c-168.736 194.752-168.736 482.24 0 676.992l338.496-338.496zM512 576v-576c-156.992 9.76-298.496 69.76-412.704 163.264l412.704 412.736zM576.064 128.512v473.984l-332.256 332.256c74.496 54.752 164.256 89.248 263.52 89.248 250.176 0 452.672-202.496 452.672-452.256 0-226.496-167.264-409.984-383.936-443.232z"></path>
        </symbol>
        <symbol id="icon-bars">
            <title>bars</title>
            <path d="M768 0h256v1024h-256zM384 256h256v768h-256zM0 512h256v512h-256z"></path>
        </symbol>
        <symbol id="icon-bars-alt">
            <title>bars-alt</title>
            <path d="M768 0h128v1024h-128zM512 256h128v768h-128zM256 512h128v512h-128zM0 768h128v256h-128z"></path>
        </symbol>
        <symbol id="icon-eye">
            <title>eye</title>
            <path
                d="M512 128c-282.752 0-512 379.008-512 379.008s229.248 388.992 512 388.992 512-388.992 512-388.992-229.248-379.008-512-379.008zM512 768c-141.376 0-256-114.624-256-256s114.624-256 256-256 256 114.624 256 256-114.624 256-256 256zM384 512c0-70.692 57.308-128 128-128s128 57.308 128 128c0 70.692-57.308 128-128 128s-128-57.308-128-128z"></path>
        </symbol>
        <symbol id="icon-user">
            <title>user</title>
            <path d="M384 512c-212 0-384 172-384 384 0 70.752 57.248 128 128 128h512c70.752 0 128-57.248 128-128 0-212-172-384-384-384zM192 192c0-106.039 85.961-192 192-192s192 85.961 192 192c0 106.039-85.961 192-192 192s-192-85.961-192-192z"></path>
        </symbol>
        <symbol id="icon-home">
            <title>home</title>
            <path d="M512 0l-512 512h128v512h768v-512h128l-512-512zM768 896h-192v-192h-128v192h-192v-459.008l256-180.992 256 180.992v459.008z"></path>
        </symbol>
        <symbol id="icon-clock">
            <title>clock</title>
            <path
                d="M512 128c211.744 0 384 172.256 384 384s-172.256 384-384 384-384-172.256-384-384 172.256-384 384-384zM512 0c-282.752 0-512 229.248-512 512s229.248 512 512 512 512-229.248 512-512-229.248-512-512-512v0zM685.504 594.496l-109.504-109.632v-228.864h-128.736v255.744c0 19.264 8.864 35.872 22.24 47.744l125.504 125.504 90.496-90.496z"></path>
        </symbol>
        <symbol id="icon-lock-stroke">
            <title>lock-stroke</title>
            <path
                d="M448.128 0c-176.32 0-319.936 143.488-319.936 320v64h-128.192v448c0 105.76 86.24 192 191.936 192h384.064c106.016 0 192-86.24 192-192v-512c0-176.512-143.488-320-319.872-320zM256.192 320c0-105.984 86.176-192 191.936-192 105.888 0 191.872 86.016 191.872 192v64h-383.808v-64zM576 896h-384.064c-35.264 0-64-28.736-64-64v-320h512.064v320c0 35.264-28.512 64-64 64zM448 704c0 35.264-28.736 64-64 64-35.488 0-64-28.736-64-64 0-35.488 28.512-64 64-64 35.264 0 64 28.512 64 64z"></path>
        </symbol>
        <symbol id="icon-lock-fill">
            <title>lock-fill</title>
            <path
                d="M448 0c-176.256 0-319.872 143.488-319.872 320v64h-128.128v448c0 105.888 86.112 192 192 192h384c105.888 0 192-86.112 192-192v-512c0-176.512-143.616-320-320-320zM383.872 768c-35.232 0-63.872-28.64-63.872-64s28.64-64 63.872-64c35.36 0 64 28.64 64 64s-28.608 64-64 64zM640 384h-383.872v-64c0-105.888 86.112-192 191.872-192 105.888 0 192 86.112 192 192v64z"></path>
        </symbol>
        <symbol id="icon-unlock-stroke">
            <title>unlock-stroke</title>
            <path
                d="M448.128 0c-176.448 0-319.936 143.616-319.936 320h128c0-105.76 86.048-192 191.936-192s191.872 86.24 191.872 192v64h-640v448c0 105.984 86.112 192 191.936 192h384.064c105.888 0 192-86.016 192-192v-512c0-176.384-143.488-320-319.872-320zM576 896h-384.064c-35.264 0-64-28.64-64-64v-320h512.064v320c0 35.36-28.736 64-64 64zM448 704c0 35.488-28.64 64-64 64s-64-28.512-64-64c0-35.264 28.64-64 64-64s64 28.736 64 64z"></path>
        </symbol>
        <symbol id="icon-unlock-fill">
            <title>unlock-fill</title>
            <path
                d="M448.128 0c-176.512 0-319.872 143.488-319.872 320h127.872c0-105.888 86.016-192 192-192 105.76 0 191.872 86.112 191.872 192v64h-640v448c0 105.888 86.24 192 192 192h384c105.76 0 192-86.112 192-192v-512c0-176.512-143.616-320-319.872-320zM384 768c-35.264 0-64-28.64-64-64s28.736-64 64-64c35.488 0 64 28.64 64 64s-28.512 64-64 64z"></path>
        </symbol>
        <symbol id="icon-tag-stroke">
            <title>tag-stroke</title>
            <path
                d="M0 0v424.736l599.264 599.264c0 0 0-345.376 0-424.64 79.264 0 424.736 0 424.736 0l-599.264-599.36h-424.736zM377.504 113.984c24.736 24.64 252.128 252.256 371.264 371.36-99.264 0-263.488 0-263.488 0s0 164.256 0 263.264c-119.168-118.976-346.528-346.496-371.296-370.976 0-33.76 0-190.752 0-263.616 72.896-0.032 229.76-0.032 263.52-0.032zM374.368 275.616c0 54.496-44.256 98.752-98.624 98.752-54.496 0-98.752-44.256-98.752-98.752 0-54.368 44.256-98.496 98.752-98.496 54.368 0 98.624 44.128 98.624 98.496z"></path>
        </symbol>
        <symbol id="icon-tag-fill">
            <title>tag-fill</title>
            <path d="M424.864 0h-424.864v424.864l599.008 599.136v-424.864h424.992l-599.136-599.136zM233.984 355.872c-67.264 0-121.76-54.496-121.76-121.76s54.496-121.76 121.76-121.76 121.76 54.496 121.76 121.76-54.496 121.76-121.76 121.76z"></path>
        </symbol>
        <symbol id="icon-sun-stroke">
            <title>sun-stroke</title>
            <path
                d="M512.032 384c70.496 0 128 57.44 128 128s-57.504 128-128 128-128-57.44-128-128 57.504-128 128-128zM512.032 256c-141.376 0-256 114.624-256 256s114.624 256 256 256c141.376 0 255.968-114.624 255.968-256s-114.592-256-255.968-256v0zM448 64c0-35.346 28.654-64 64-64s64 28.654 64 64c0 35.346-28.654 64-64 64s-64-28.654-64-64zM128 192c0-35.346 28.654-64 64-64s64 28.654 64 64c0 35.346-28.654 64-64 64s-64-28.654-64-64zM64 448c35.36 0 64 28.64 64 64 0 35.424-28.64 64-64 64s-64-28.576-64-64c0-35.36 28.64-64 64-64zM128 832c0-35.346 28.654-64 64-64s64 28.654 64 64c0 35.346-28.654 64-64 64s-64-28.654-64-64zM448 960c0-35.488 28.64-64 64-64 35.456 0 64 28.512 64 64 0 35.264-28.544 64-64 64-35.36 0-64-28.736-64-64zM768 832c0-35.346 28.654-64 64-64s64 28.654 64 64c0 35.346-28.654 64-64 64s-64-28.654-64-64zM960 576c-35.328 0-64-28.672-64-64 0-35.424 28.672-64 64-64s64 28.576 64 64c0 35.328-28.672 64-64 64zM768 192c0-35.346 28.654-64 64-64s64 28.654 64 64c0 35.346-28.654 64-64 64s-64-28.654-64-64z"></path>
        </symbol>
        <symbol id="icon-sun-fill">
            <title>sun-fill</title>
            <path
                d="M512.032 256c-141.376 0-256 114.624-256 256s114.624 256 256 256c141.376 0 255.968-114.624 255.968-256s-114.592-256-255.968-256v0zM448 64c0-35.346 28.654-64 64-64s64 28.654 64 64c0 35.346-28.654 64-64 64s-64-28.654-64-64zM128 192c0-35.346 28.654-64 64-64s64 28.654 64 64c0 35.346-28.654 64-64 64s-64-28.654-64-64zM64 448c35.36 0 64 28.64 64 64 0 35.424-28.64 64-64 64s-64-28.576-64-64c0-35.36 28.64-64 64-64zM128 832c0-35.346 28.654-64 64-64s64 28.654 64 64c0 35.346-28.654 64-64 64s-64-28.654-64-64zM448 960c0-35.488 28.64-64 64-64 35.456 0 64 28.512 64 64 0 35.264-28.544 64-64 64-35.36 0-64-28.736-64-64zM768 832c0-35.346 28.654-64 64-64s64 28.654 64 64c0 35.346-28.654 64-64 64s-64-28.654-64-64zM960 576c-35.328 0-64-28.672-64-64 0-35.424 28.672-64 64-64s64 28.576 64 64c0 35.328-28.672 64-64 64zM768 192c0-35.346 28.654-64 64-64s64 28.654 64 64c0 35.346-28.654 64-64 64s-64-28.654-64-64z"></path>
        </symbol>
        <symbol id="icon-moon-stroke">
            <title>moon-stroke</title>
            <path
                d="M188.64 292.736c27.136 286.688 256 515.488 542.624 542.496-61.12 38.752-132.864 60.736-208 60.736-218.016 0.032-395.264-177.216-395.264-395.296 0-75.104 22.016-146.784 60.64-207.936zM379.008 0c-218.368 63.008-379.008 262.048-379.008 500.672 0 289.088 234.24 523.328 523.264 523.328 238.624 0 437.76-160.736 500.736-379.008-69.76 40.256-149.504 64.992-235.744 64.992-262.016 0-474.24-212.448-474.24-474.304-0.032-86.24 24.736-165.984 64.992-235.68v0z"></path>
        </symbol>
        <symbol id="icon-moon-fill">
            <title>moon-fill</title>
            <path
                d="M788.256 709.888c-262.016 0-474.24-212.384-474.24-474.24 0-86.24 24.736-166.016 64.992-235.616-218.368 62.976-379.008 261.984-379.008 500.608 0 288.992 234.24 523.36 523.264 523.36 238.624 0 437.76-160.736 500.736-379.008-69.76 40.128-149.504 64.896-235.744 64.896z"></path>
        </symbol>
        <symbol id="icon-cloud">
            <title>cloud</title>
            <path
                d="M768 320c-12.128 0-23.616 1.952-35.264 3.552-44.608-78.88-127.104-131.552-220.736-131.552-95.616 0-178.112 53.312-222.112 131.2-11.264-1.504-22.528-3.2-33.888-3.2-141.12 0-256 114.816-256 256 0 141.248 114.88 256 256 256h512c141.12 0 256-114.752 256-256 0-141.184-114.88-256-256-256zM768 704h-512c-70.624 0-128-57.504-128-128 0-70.176 62.112-124.32 128.128-126.24 0.256 30.176 5.504 59.808 16 87.808l119.872-44.864c-5.376-14.208-8-29.28-8-44.704 0-70.56 57.376-128 128-128 41.376 0 78.88 20.512 102.368 52.448-61.728 46.752-102.368 120.192-102.368 203.552h128c0-70.56 57.376-128 128-128s128 57.44 128 128c0 70.496-57.376 128-128 128z"></path>
        </symbol>
        <symbol id="icon-rain">
            <title>rain</title>
            <path
                d="M767.936 192c-12 0-23.456 1.952-35.296 3.552-44.448-78.88-127.008-131.552-220.64-131.552-95.584 0-178.080 53.312-222.080 131.2-11.296-1.504-22.56-3.2-33.92-3.2-141.12 0-256 114.816-256 256s114.88 256 256 256h511.936c141.248 0 256-114.816 256-256s-114.752-256-256-256zM767.936 576h-511.936c-70.624 0-128-57.44-128-128 0-70.176 62.112-124.32 128.128-126.24 0.288 30.176 5.504 59.808 16 87.808l119.872-44.864c-5.376-14.208-8-29.28-8-44.704 0-70.56 57.376-128 128-128 41.376 0 78.88 20.512 102.368 52.448-61.696 46.752-102.368 120.192-102.368 203.552h128c0-70.56 57.44-128 127.936-128 70.752 0 128 57.44 128 128s-57.248 128-128 128zM104.992 942.016c-24 24-63.008 24-87.008 0s-24-63.008 0-87.008 174.016-87.008 174.016-87.008-63.008 150.016-87.008 174.016zM361.12 942.016c-24 24-62.88 24-87.008 0-24-24-24-63.008 0-87.008 24.128-24 174.016-87.008 174.016-87.008s-62.88 150.016-87.008 174.016zM616.96 942.016c-24 24-63.008 24-87.008 0s-24-63.008 0-87.008 173.984-87.008 173.984-87.008-62.976 150.016-86.976 174.016z"></path>
        </symbol>
        <symbol id="icon-umbrella">
            <title>umbrella</title>
            <path
                d="M512 0c-282.24 0-512 229.696-512 512h128c0-26.432 21.632-48 48-48 26.496 0 48 21.568 48 48h128c0-26.432 21.632-48 48-48 26.496 0 48 21.568 48 48v320c0 35.264-28.64 64-64 64-35.264 0-64-28.736-64-64h-128c0 105.888 86.24 192 192 192 105.984 0 192-86.112 192-192v-320c0-26.432 21.632-48 48-48 26.496 0 47.936 21.568 47.936 48h128c0-26.432 21.76-48 48-48 26.496 0 48 21.568 48 48h128c0-282.304-229.504-512-511.936-512z"></path>
        </symbol>
        <symbol id="icon-star">
            <title>star</title>
            <path d="M708.384 628l315.616-244h-384l-128-384-128 384h-384l316 243.008-124 396.992 320.512-245.76 319.744 245.76z"></path>
        </symbol>
        <symbol id="icon-map-pin-stroke">
            <title>map-pin-stroke</title>
            <path
                d="M320 128c51.264 0 99.488 20 135.744 56.32 36.256 36.192 56.256 84.416 56.256 135.68s-20 99.488-55.36 134.816c-5.376 5.312-71.616 71.2-136.64 174.112-64.736-102.752-130.752-168.384-135.744-173.248-36.256-36.192-56.256-84.416-56.256-135.68s20-99.488 56.256-135.744 84.48-56.256 135.744-56.256zM320 0c-81.888 0-163.744 31.264-226.24 93.76-124.992 124.928-124.992 327.552 0 452.512 0-0.032 226.24 221.728 226.24 477.728 0-256 226.24-477.76 226.24-477.76 124.992-124.928 124.992-327.552 0-452.512-62.496-62.464-144.352-93.728-226.24-93.728v0zM256 320c0-35.346 28.654-64 64-64s64 28.654 64 64c0 35.346-28.654 64-64 64s-64-28.654-64-64z"></path>
        </symbol>
        <symbol id="icon-map-pin-fill">
            <title>map-pin-fill</title>
            <path
                d="M546.24 93.76c-124.992-124.992-327.488-124.992-452.512 0-124.992 124.928-124.992 327.616 0 452.48 0.032 0 226.272 221.76 226.272 477.76 0-256 226.24-477.76 226.24-477.76 125.024-124.864 125.024-327.552 0-452.48zM320 448c-70.752 0-128-57.248-128-128s57.248-128 128-128 128 57.248 128 128-57.248 128-128 128z"></path>
        </symbol>
        <symbol id="icon-map-pin-alt">
            <title>map-pin-alt</title>
            <path d="M256 0c-141.376 0-256 114.624-256 256s256 768 256 768 256-626.624 256-768-114.624-256-256-256zM256 384c-70.688 0-128-57.312-128-128s57.312-128 128-128 128 57.312 128 128-57.312 128-128 128z"></path>
        </symbol>
        <symbol id="icon-target">
            <title>target</title>
            <path
                d="M576.736 447.2h185.248c-23.488-90.752-94.496-161.824-185.248-185.248v185.248zM576.736 576.8v185.184c90.752-23.36 161.76-94.496 185.248-185.184h-185.248zM447.136 447.2v-185.248c-90.752 23.424-161.888 94.496-185.248 185.248h185.248zM447.136 576.8h-185.248c23.36 90.688 94.496 161.824 185.248 185.184v-185.184zM576.736 129.696c162.368 27.488 289.984 155.136 317.504 317.504h129.76c-29.632-233.952-213.248-417.632-447.264-447.2v129.696zM129.632 447.2c27.488-162.4 155.104-290.016 317.504-317.504v-129.696c-233.888 29.568-417.632 213.248-447.136 447.2h129.632zM447.136 894.24c-162.368-27.488-289.984-155.008-317.504-317.44h-129.632c29.504 233.952 213.248 417.696 447.136 447.2v-129.76zM894.24 576.8c-27.488 162.432-155.136 289.952-317.504 317.44v129.76c234.016-29.504 417.632-213.248 447.264-447.2h-129.76z"></path>
        </symbol>
        <symbol id="icon-download">
            <title>download</title>
            <path d="M0 896h768v128h-768zM512 576v-576h-256v576h-128l256 320 256-320z"></path>
        </symbol>
        <symbol id="icon-upload">
            <title>upload</title>
            <path d="M0 0h768v128h-768zM256 448v576h256v-576h128l-256-320-256 320z"></path>
        </symbol>
        <symbol id="icon-cloud-download">
            <title>cloud-download</title>
            <path
                d="M768 128c-12 0-23.616 1.888-35.264 3.616-44.608-78.976-127.104-131.616-220.736-131.616-95.616 0-178.176 53.376-222.112 131.136-11.264-1.504-22.464-3.136-33.888-3.136-141.184 0-256 114.88-256 256s114.816 256 256 256h192v192h-128l192 192 192-192h-128v-192h192c141.248 0 256-114.88 256-256s-114.752-256-256-256zM768 512h-512c-70.56 0-128-57.376-128-128 0-70.112 62.176-124.384 128.128-126.24 0.256 30.112 5.504 59.872 16 87.872l119.872-44.992c-5.312-14.144-8-29.28-8-44.64 0-70.624 57.44-128 128-128 41.44 0 78.816 20.512 102.496 52.384-61.856 46.752-102.496 120.256-102.496 203.616h128c0-70.624 57.504-128 128-128s128 57.376 128 128-57.504 128-128 128z"></path>
        </symbol>
        <symbol id="icon-cloud-upload">
            <title>cloud-upload</title>
            <path
                d="M768 128c-12 0-23.616 1.984-35.264 3.488-44.608-78.752-127.104-131.488-220.736-131.488-95.616 0-178.176 53.248-222.112 131.264-11.264-1.504-22.464-3.264-33.888-3.264-141.184 0-256 114.752-256 256s114.816 256 256 256h512c141.248 0 256-114.752 256-256s-114.752-256-256-256zM768 512h-512c-70.56 0-128-57.504-128-128 0-70.24 62.176-124.256 128.128-126.24 0.256 30.24 5.504 59.744 16 87.744l119.872-44.736c-5.312-14.272-8-29.28-8-44.768 0-70.496 57.44-128 128-128 41.44 0 78.816 20.512 102.496 52.512-61.856 46.752-102.496 120.128-102.496 203.488h128c0-70.496 57.504-128 128-128s128 57.504 128 128-57.504 128-128 128zM512 640l-192 192h128v192h128v-192h128z"></path>
        </symbol>
        <symbol id="icon-fork">
            <title>fork</title>
            <path
                d="M640 0v124c0 51.264-20 99.488-56.128 135.616l-362.112 360.128c-57.248 57.12-88.768 132.128-92.256 212.256h-129.504l192 192 192-192h-126.624c3.36-46.016 21.888-88.736 54.752-121.76l362.112-360c60.512-60.48 93.76-140.736 93.76-226.24v-124h-128zM766.496 832c-3.488-80.128-35.136-155.136-92.384-212.512l-71.36-70.88-90.752 90.272 71.744 71.36c32.992 32.864 51.488 75.744 54.88 121.76h-126.624l192 192 192-192h-129.504z"></path>
        </symbol>
        <symbol id="icon-paperclip">
            <title>paperclip</title>
            <path
                d="M553.376 489.344l-90.528-90.528-128 128c-62.496 62.496-62.496 163.808 0 226.272 62.496 62.496 163.776 62.496 226.272 0l323.904-316.128c99.936-99.968 99.936-262.016 0-362.016-100-99.968-262.080-99.968-362.016 0l-355.872 348.16c-137.472 137.44-137.472 360.32 0 497.824 137.472 137.472 360.352 137.472 497.792 0l192-192-90.528-90.528-191.968 192c-87.456 87.424-229.312 87.424-316.8 0-87.456-87.424-87.456-229.312 0-316.768l355.872-348.192c49.984-49.984 131.040-49.984 180.992 0 50.016 50.016 50.016 131.104 0 181.024l-323.872 316.128c-12.512 12.512-32.736 12.512-45.248 0s-12.512-32.736 0-45.248l128-128z"></path>
        </symbol>
    </defs>
</svg>
