<svg
xmlns="http://www.w3.org/2000/svg"
xmlns:rdf="http://www.w3.org/1999/02/22-rdf-syntax-ns#"
xmlns:dc="http://purl.org/dc/elements/1.1/"
xmlns:cc="http://creativecommons.org/ns#"
width="720"
height="1008"

version="1.1"
style="fill:black;stroke:none">
<title>Gnome Icon Theme Symbolic [Categories Set]</title>
<desc> This package contains a set of icons used by the GNOME desktop. The icons are used in the panel menu, and in nautilus and other applications, to represent the different applications, files, directories, and devices.</desc>
<metadata>
    <rdf:RDF>
    <cc:Work rdf:about="">
    <dc:format>image/svg+xml</dc:format>
    <dc:type rdf:resource="http://purl.org/dc/dcmitype/StillImage" />
    <dc:title>Gnome Icon Theme Symbolic [Categories Set]</dc:title>
    <dc:date>2017-12-09</dc:date>
    <dc:creator>
    <cc:Agent>
    <dc:title>Gnome</dc:title>
</cc:Agent>
</dc:creator>
<dc:rights>
<cc:Agent>
<dc:title>Creative Commons - Attribution Share Alike</dc:title>
</cc:Agent>
</dc:rights>
<dc:language>English</dc:language>

<dc:source>https://launchpad.net/gnome-icon-theme-symbolic</dc:source>
<dc:description>This package contains a set of icons used by the GNOME desktop. The icons are used in the panel menu, and in nautilus and other applications, to represent the different applications, files, directories, and devices.</dc:description>
</cc:Work>
</rdf:RDF>
</metadata>
<defs>
<symbol id="icon-system-help-symbolic">
<title>system-help-symbolic</title>
<path d="M3.938 0c-2.182 0-3.938 1.755-3.938 3.938v24.125c0 2.182 1.755 3.938 3.938 3.938h24.063c1.108 0 2-0.892 2-2v-22c0-1.108-0.892-2-2-2h-24c-1.108 0-2-0.892-2-2s0.892-2 2-2h24c0-1.117-0.883-2-2-2zM16 8.125c5.453 0 9.875 4.416 9.875 9.875s-4.422 9.875-9.875 9.875c-5.453 0-9.875-4.416-9.875-9.875s4.422-9.875 9.875-9.875zM16 10.125c-1.274 0-2.44 0.348-3.5 0.875l1.438 3c0.627-0.325 1.312-0.563 2.063-0.563s1.436 0.238 2.063 0.563l1.438-3c-1.060-0.527-2.226-0.875-3.5-0.875zM9 14.5c-0.527 1.060-0.875 2.224-0.875 3.5 0 1.296 0.332 2.49 0.875 3.563l3-1.5c-0.325-0.627-0.563-1.311-0.563-2.063 0-0.722 0.198-1.391 0.5-2zM23.063 14.5l-3 1.5c0.302 0.609 0.5 1.278 0.5 2 0 0.751-0.237 1.436-0.563 2.063l3 1.5c0.543-1.072 0.875-2.266 0.875-3.563 0-1.266-0.293-2.446-0.813-3.5zM16 15.438c-1.434 0-2.563 1.124-2.563 2.563s1.129 2.563 2.563 2.563c1.434 0 2.563-1.124 2.563-2.563s-1.129-2.563-2.563-2.563zM18.063 22c-0.627 0.325-1.312 0.563-2.063 0.563-0.722 0-1.391-0.198-2-0.5l-1.5 3c1.054 0.519 2.236 0.813 3.5 0.813 1.274 0 2.44-0.348 3.5-0.875z"></path>
<path d="M16 10.063c-1.284 0-2.49 0.273-3.563 0.813l1.485 3.065c0.781-0.357 1.098-0.424 2.084-0.492 1.093-0.004 1.439 0.27 2.053 0.467l1.44-3.040c-1.072-0.539-2.216-0.813-3.5-0.813zM8.875 14.5c-0.531 1.078-0.875 2.271-0.875 3.563 0 1.318 0.386 2.531 0.938 3.625l3.054-1.552c-0.316-0.559-0.473-0.992-0.559-2.114 0.086-0.993 0.123-0.941 0.461-1.976zM23.125 14.5l-2.994 1.489c0.301 0.742 0.398 0.963 0.447 2.019-0.012 0.459 0.030 1.059-0.534 2.17l3.019 1.509c0.552-1.094 0.875-2.307 0.875-3.625 0-1.291-0.281-2.484-0.813-3.563zM16.055 22.579c-0.949-0.080-1.235-0.059-2.024-0.467l-1.594 3.138c1.072 0.539 2.278 0.875 3.562 0.875s2.428-0.336 3.5-0.875l-1.492-3.133c-0.791 0.39-0.867 0.346-1.953 0.462z"></path>
<path d="M18.581 18.017c0 1.413-1.149 2.559-2.566 2.559s-2.566-1.146-2.566-2.559v0c0-1.413 1.149-2.559 2.566-2.559s2.566 1.146 2.566 2.559v0z"></path>
</symbol>
<symbol id="icon-preferences-system-symbolic">
<title>preferences-system-symbolic</title>
<path d="M7.098 0.181c-0.799 0-1.573 0.183-2.287 0.431l3.77 3.759c0.775 0.773 0.775 2.001 0 2.773l-1.421 1.417c-0.775 0.773-2.006 0.773-2.781 0l-3.77-3.759c-0.249 0.712-0.433 1.484-0.433 2.28 0 3.812 3.099 6.903 6.922 6.903 0.799 0 1.573-0.183 2.287-0.431l2.348 2.342c0.018-0 0.040-0 0.062-0s0.043 0 0.065 0l-0.003-0 4.141-4.129-2.41-2.404c0.249-0.712 0.433-1.484 0.433-2.28 0-3.812-3.099-6.903-6.922-6.903zM20.199 15.958l-4.141 4.129c0.011 0.027 0.032 0.088 0.052 0.15l0.010 0.035 2.287 2.28c-0.249 0.712-0.433 1.484-0.433 2.28 0 3.812 3.099 6.903 6.922 6.903 0.867 0 1.707-0.203 2.472-0.493l-4.017-4.006c-0.775-0.773-0.775-2.062 0-2.835l1.36-1.356c0.387-0.386 0.916-0.616 1.421-0.616s1.034 0.23 1.421 0.616l3.893 3.883c0.21-0.659 0.371-1.367 0.371-2.095 0-3.812-3.099-6.903-6.922-6.903-0.799 0-1.573 0.183-2.287 0.431l-2.41-2.404z"></path>
<path d="M27.716 0l-3.085 2.875c-0.903 0.842-1.058 2.298-0.533 3.413l-11.776 11.991c-0.002 0-0.005 0-0.007 0-0.019 0-0.039 0-0.058 0.001l0.003-0c-0.39-0.199-0.851-0.316-1.339-0.316-0.12 0-0.239 0.007-0.356 0.021l0.014-0.001c-0.686 0.098-1.284 0.417-1.732 0.88l-0.001 0.001-7.892 7.995c-0.533 0.538-0.863 1.278-0.863 2.094 0 1.646 1.338 2.98 2.988 2.98 0.835 0 1.59-0.342 2.133-0.893l0-0 7.892-7.995c0.562-0.542 0.911-1.301 0.911-2.141 0-0.487-0.117-0.946-0.325-1.352l0.008 0.017 11.777-11.93c1.116 0.497 2.547 0.294 3.414-0.584l2.834-3.121-4.008-3.935z"></path>
</symbol>
<symbol id="icon-preferences-other-symbolic">
<title>preferences-other-symbolic</title>
<path d="M0.004 24c0.008-0.448 0.225-1.061 0.608-1.409l4.323-4.233c0.465-0.487 1.573-0.585 2.022-0.314 0.161 0.004 2.271 1.263 2.576 1.731 1.233 1.892-0.688 3.655-2.348 3.094l-0.699-0.423-3.205 3.143c-1.274 1.053-3.383 0.184-3.278-1.59z"></path>
<path d="M23.238 0.237c0.779-0.203 1.581-0.222 2.341-0.162l-2.719 4.612c-0.559 0.948-0.245 2.141 0.708 2.695l1.749 1.016c0.953 0.554 2.155 0.241 2.714-0.707l2.719-4.612c0.424 0.629 0.801 1.332 1.004 2.106 0.973 3.705-1.263 7.496-4.993 8.468-0.779 0.203-1.581 0.222-2.341 0.162l-1.604 2.229-6.819-0.045c0 0 3.037-5.155 3.254-5.189-0.424-0.629-0.801-1.332-1.004-2.106-0.973-3.705 1.263-7.496 4.993-8.468z"></path>
<path d="M7.198 1.438c-0.46 0.094-0.887 0.262-1.311 0.438-0.033 1.249 0.174 2.884-0.312 3.312-0.477 0.422-2.074 0.069-3.308-0.063-0.262 0.473-0.47 0.97-0.624 1.5 0.955 0.792 2.278 1.678 2.309 2.313 0.032 0.642-1.251 1.61-2.122 2.5 0.206 0.516 0.5 0.987 0.811 1.438 1.215-0.253 2.729-0.747 3.245-0.375 0.526 0.379 0.53 2.011 0.686 3.25 0.498 0.15 1.024 0.209 1.56 0.25 0.562-1.109 1.133-2.64 1.747-2.813 0.631-0.177 1.924 0.916 2.996 1.563 0.437-0.303 0.825-0.674 1.186-1.063-0.507-1.145-1.44-2.584-1.186-3.188s1.948-0.939 3.12-1.375c0.008-0.147 0.062-0.288 0.062-0.438 0-0.383-0.069-0.758-0.125-1.125-1.21-0.322-2.93-0.483-3.245-1.063-0.313-0.576 0.483-2.123 0.874-3.313-0.402-0.357-0.838-0.674-1.311-0.938-1 0.75-2.165 1.989-2.808 1.875-0.633-0.112-1.324-1.639-1.997-2.688-0.080 0.014-0.17-0.016-0.25 0zM8.446 5.188c1.861 0 3.37 1.511 3.37 3.375s-1.509 3.375-3.37 3.375c-1.861 0-3.37-1.511-3.37-3.375s1.509-3.375 3.37-3.375z"></path>
<path d="M5.994 18h19.971l0.016 12.125c0 0.984-0.944 1.875-1.989 1.875h-15.984c-1.077 0-1.997-0.859-1.997-2z"></path>
<path d="M31.922 23.954c-0.008-0.448-0.225-1.061-0.608-1.409l-4.323-4.233c-0.465-0.487-1.573-0.585-2.022-0.314-0.161 0.004-2.271 1.263-2.576 1.731-1.233 1.892 0.688 3.655 2.348 3.094l0.699-0.423 3.205 3.143c1.274 1.053 3.383 0.185 3.278-1.59z"></path>
</symbol>
<symbol id="icon-applications-utilities-symbolic">
<title>applications-utilities-symbolic</title>
<path d="M5.867 0h0.265c3.24 0 5.867 2.674 5.867 5.972v20.056c0 3.298-2.627 5.972-5.867 5.972h-0.265c-3.24 0-5.867-2.674-5.867-5.972v-20.056c0-3.298 2.627-5.972 5.867-5.972z"></path>
<path d="M10.813 0c1.756 1.426 2.938 3.584 2.938 6v2h4.25c-0.148-2.185 2.497-4 4-4 1.361 0 2 0.023 2 2v2h2.438c2.457-1.2 3.563-3.938 3.563-5.375 0-1.472-4.771-2.625-7.375-2.625z"></path>
<path d="M14 10.001v8.625c5.532 5.323 12.25 4.813 12.25 4.813s0.706-3.042-3.812-8.063l-4.75-5.375h-3.563c-0.043 0.004-0.082-0.004-0.125 0zM19.95 15.065l3.367 3.474c-3.598 0.331-4.302-1.713-3.367-3.474z"></path>
</symbol>
<symbol id="icon-applications-science-symbolic">
<title>applications-science-symbolic</title>
<path d="M9.812 0.188c-1.015 0.105-1.8 0.956-1.8 1.99 0 0.756 0.42 1.415 1.039 1.755l0.010 0.005 0.938 0.5v5.5c-0.252 0.398-0.511 0.748-0.875 1.375-0.545 0.94-1.214 2.081-1.938 3.375-1.446 2.588-3.081 5.632-4.375 8-1.141 2.088-1.124 4.883 0.563 7 0.020 0.026 0.043 0.037 0.062 0.062 1.348 1.78 3.433 2.25 5.188 2.25h14.75c1.754 0 3.84-0.47 5.188-2.25 0.018-0.023 0.044-0.039 0.062-0.062 1.673-2.099 1.674-4.855 0.563-6.938-0.008-0.018 0.008-0.045 0-0.062-2.335-4.756-4.944-8.436-7.125-12.813v-5.375l1-0.563c0.62-0.348 1.032-1.001 1.032-1.75 0-1.105-0.896-2-2-2-0.011 0-0.022 0-0.033 0l0.002-0h-12.063c-0.028-0.001-0.061-0.002-0.094-0.002s-0.066 0.001-0.098 0.002l0.005-0zM14 4.188h4.063v6.25c-0 0.009-0 0.019-0 0.029 0 0.307 0.069 0.598 0.193 0.858l-0.005-0.012c2.403 4.914 5.151 8.64 7.375 13.188 0.025 0.054 0.045 0.095 0.068 0.135l-0.005-0.010c0.479 0.877 0.52 1.762-0.187 2.625-0.054 0.025-0.095 0.045-0.135 0.068l0.010-0.005c-0.289 0.396-0.919 0.688-2 0.688h-14.75c-1.081 0-1.711-0.291-2-0.688-0.030-0.017-0.071-0.038-0.113-0.057l-0.012-0.005c-0.707-0.863-0.667-1.748-0.187-2.625 1.292-2.363 2.941-5.433 4.375-8 0.717-1.283 1.411-2.405 1.938-3.313s0.947-1.677 1-1.75c0.227-0.313 0.366-0.702 0.375-1.123l0-0.002v-6.25z"></path>
<path opacity="0.25" d="M12.437 18.003l-4.438 7.998h16l-4.438-7.998h-7.125z"></path>
</symbol>
<symbol id="icon-applications-multimedia-symbolic">
<title>applications-multimedia-symbolic</title>
<path d="M18 16v8.562c-0.589-0.342-1.27-0.563-2-0.563-2.209 0-4 1.791-4 4s1.791 4 4 4c2.209 0 4-1.791 4-4v-10h8v6.562c-0.589-0.342-1.27-0.563-2-0.563-2.209 0-4 1.791-4 4s1.791 4 4 4c2.209 0 4-1.791 4-4v-12h-12z"></path>
<path d="M3.938 0c0 0-1.938 2-1.938 4v24c0 2.019-2 4-2 4h2c0 0 0.846-0.854 1.438-2h2c-0.592 1.146-1.438 2-1.438 2h2c0 0 2-2.043 2-4v-4h2v-2h-2v-10h16v2h6v-10c0-2 1.938-4 1.938-4h-6c0 0-1.938 2-1.938 4v6h-16v-6c0-2 1.938-4 1.938-4zM4.563 2h2c-0.306 0.612-0.563 1.304-0.563 2h-2c0-0.696 0.257-1.388 0.563-2zM26.563 2h2c-0.306 0.612-0.563 1.304-0.563 2h-2c0-0.696 0.257-1.388 0.563-2zM4 6h2v2h-2zM26 6h2v2h-2zM4 10h2v2h-2zM26 10h2v2h-2zM4 14h2v2h-2zM4 18h2v2h-2zM4 22h2v2h-2zM4 26h2v2h-2z"></path>
</symbol>
<symbol id="icon-applications-graphics-symbolic">
<title>applications-graphics-symbolic</title>
<path d="M15.784 0.005c-4.22 0.059-9.89 1.604-9.795 6.561 0.1 5.172 5.835 3.323 6.301 5.437 0.071-0.090 0.177-0.164 0.25-0.25 0.395-0.427 0.79-0.775 1.185-1.187 0.625-0.705 1.273-1.358 1.934-2.062 2.213-2.356 2.308-2.5 7.592-6.499-2.069-1.242-4.516-1.931-6.594-2-0.266-0.010-0.592-0.004-0.873 0zM11.978 3.067c1.654 0 2.995 1.343 2.995 2.999s-1.341 2.999-2.995 2.999c-1.654 0-2.995-1.343-2.995-2.999s1.341-2.999 2.995-2.999zM26.516 4.391c-2.837 4.467-4.734 7.112-6.739 9.175-1.279 1.315-2.326 2.623-3.244 3.562-1.678 1.78-3.876 3.882-6.301 6.186 0.127 2.938 1.622 5.493 6.488 6.436 7.796 1.512 16.054-3.648 15.222-14.123-0.357-4.496-2.81-8.563-5.426-11.237zM27.201 12.003c1.098 0 1.996 0.895 1.996 2s-0.899 2-1.996 2c-1.098 0-1.996-0.895-1.996-2s0.899-2 1.996-2zM25.953 18.002c1.098 0 1.996 0.895 1.996 2s-0.899 2-1.996 2c-1.098 0-1.996-0.895-1.996-2s0.899-2 1.996-2zM15.971 22.002c1.098 0 1.996 0.895 1.996 2s-0.899 2-1.996 2c-1.098 0-1.996-0.895-1.996-2s0.899-2 1.996-2zM21.96 22.002c1.098 0 1.996 0.895 1.996 2s-0.899 2-1.996 2c-1.098 0-1.996-0.895-1.996-2s0.899-2 1.996-2z"></path>
<path d="M0 26.998c3.104 0.001 2.787-3.575 4.295-4.571 1.747-1.154 3.277 0.276 3.583 1.453 0.386 1.485-0.234 3.263-2.26 3.769-2.147 0.537-5.323 0.553-5.617-0.651z"></path>
<path d="M28.074 0.005c-3.599 2.598-8.413 6.604-12.23 10.667-0.346 0.369-0.681 0.725-1.009 1.094-0.207 0.216-0.424 0.392-0.63 0.615-0.131 0.153-0.252 0.326-0.378 0.479-3.746 4.14-7.439 9.361-9.834 13.265 5.955-4.595 9.832-8.329 12.293-10.941 0.481-0.492 1.059-1.133 1.702-1.846 2.407-2.669 5.85-6.875 10.086-13.334z"></path>
</symbol>
<symbol id="icon-applications-games-symbolic">
<title>applications-games-symbolic</title>
<path d="M7.569 4.038c-0.485 0.002-1.042 0.133-1.612 0.438-2.075 1.093-3.984 4.672-5.021 9.313-0.884 3.942-1.209 9.332-0.682 11.5 0.459 1.863 1.254 2.688 2.666 2.688 2.092-0.036 4.719-2.364 6.385-5.5 1.205-1.736 4.001-2.525 6.695-2.438 2.694-0.094 5.49 0.702 6.695 2.438 1.667 3.136 4.293 5.464 6.385 5.5 1.412 0 2.206-0.824 2.666-2.688 0.527-2.168 0.202-7.558-0.682-11.5-1.037-4.641-2.947-8.22-5.021-9.313-1.139-0.609-2.080-0.591-2.914 0-1.054 0.753-3.252 1.559-7.129 1.563s-6.075-0.81-7.129-1.563c-0.417-0.296-0.817-0.44-1.302-0.438zM8.065 10.038h1.984v2h1.984v2h-1.984v2h-1.984v-2h-1.984v-2h1.984v-2zM22.943 10.038c0.548 0 0.992 0.448 0.992 1s-0.444 1-0.992 1c-0.548 0-0.992-0.448-0.992-1s0.444-1 0.992-1zM20.959 12.038c0.548 0 0.992 0.448 0.992 1s-0.444 1-0.992 1c-0.548 0-0.992-0.448-0.992-1s0.444-1 0.992-1zM24.927 12.038c0.548 0 0.992 0.448 0.992 1s-0.444 1-0.992 1c-0.548 0-0.992-0.448-0.992-1s0.444-1 0.992-1zM22.943 14.038c0.548 0 0.992 0.448 0.992 1s-0.444 1-0.992 1c-0.548 0-0.992-0.448-0.992-1s0.444-1 0.992-1z"></path>
</symbol>
<symbol id="icon-applications-engineering-symbolic">
<title>applications-engineering-symbolic</title>
<path d="M15.994 16c-7.997 0-11.995 6-11.995 12h-3.499c-0.5 0-0.5 0.314-0.5 0.5v3c0 0.5 0.276 0.5 0.5 0.5h30.988c0.391 0.012 0.5-0.259 0.5-0.5v-3c0.042-0.292 0-0.5-0.5-0.5h-3.499c0-6-3.998-12-11.995-12zM15.994 22c4.7 0 5.998 3.523 5.998 6h-11.995c0-2.395 1.405-6 5.998-6z"></path>
<path d="M29.977 1.2c-0.566-0.48-1.248-0.838-1.933-1.123l-0.043 4.464c-0.010 0.917-0.904 1.459-2.011 1.459h-1.999c-1.108-0.014-2.006-0.619-1.997-1.536l0.043-4.464c-0.691 0.266-1.379 0.607-1.954 1.073-2.755 2.228-2.79 5.898-0.080 8.196 0.566 0.48 1.248 0.838 1.933 1.123 0.056 0.023 0.056 4.108 0.056 4.108 2.979 1.5 4.702 3.5 5.998 5.5v-9.496c0.691-0.266 1.333-0.642 1.909-1.108 2.755-2.228 2.79-5.898 0.080-8.196z"></path>
</symbol>
</defs>
</svg>
