<svg
xmlns="http://www.w3.org/2000/svg"
xmlns:rdf="http://www.w3.org/1999/02/22-rdf-syntax-ns#"
xmlns:dc="http://purl.org/dc/elements/1.1/"
xmlns:cc="http://creativecommons.org/ns#"
width="720"
height="1008"
viewBox="0,0,720,1008"
version="1.1"
style="fill:black;stroke:none">
<title>Gnome Icon Theme Symbolic [Action Set]</title>
<desc> This package contains a set of icons used by the GNOME desktop. The icons are used in the panel menu, and in nautilus and other applications, to represent the different applications, files, directories, and devices.</desc>
<metadata>
    <rdf:RDF>
    <cc:Work rdf:about="">
    <dc:format>image/svg+xml</dc:format>
    <dc:type rdf:resource="http://purl.org/dc/dcmitype/StillImage" />
    <dc:title>Gnome Icon Theme Symbolic [Action Set]</dc:title>
    <dc:date>2017-12-09</dc:date>
    <dc:creator>
    <cc:Agent>
    <dc:title>Gnome</dc:title>
</cc:Agent>
</dc:creator>
<dc:rights>
<cc:Agent>
<dc:title>Creative Commons - Attribution Share Alike</dc:title>
</cc:Agent>
</dc:rights>
<dc:language>English</dc:language>

<dc:source>https://launchpad.net/gnome-icon-theme-symbolic</dc:source>
<dc:description>This package contains a set of icons used by the GNOME desktop. The icons are used in the panel menu, and in nautilus and other applications, to represent the different applications, files, directories, and devices.</dc:description>
</cc:Work>
</rdf:RDF>
</metadata>
<defs>
    <symbol id="icon-zoom-out-symbolic" viewBox="0 0 32 32">
        <title>zoom-out-symbolic</title>
        <path  d="M6.373 4c-1.325 0-2.375 1.098-2.375 2.438v19.125c0 1.34 1.050 2.438 2.375 2.438h19.25c1.325 0 2.375-1.098 2.375-2.438v-19.125c0-1.34-1.050-2.438-2.375-2.438h-19.25zM9.998 14h12v4h-12v-4z"></path>
    </symbol>
    <symbol id="icon-zoom-original-symbolic" viewBox="0 0 32 32">
        <title>zoom-original-symbolic</title>
        <path  d="M6.373 4c-1.325 0-2.375 1.098-2.375 2.438v19.125c0 1.34 1.050 2.438 2.375 2.438h19.25c1.325 0 2.375-1.098 2.375-2.438v-19.125c0-1.34-1.050-2.438-2.375-2.438h-19.25zM13.998 10h4v12h-4v-8h-2v-2c1.389 0 2-0.695 2-2z"></path>
    </symbol>
    <symbol id="icon-zoom-in-symbolic" viewBox="0 0 32 32">
        <title>zoom-in-symbolic</title>
        <path  d="M6.373 4c-1.325 0-2.375 1.098-2.375 2.438v19.125c0 1.34 1.050 2.438 2.375 2.438h19.25c1.325 0 2.375-1.098 2.375-2.438v-19.125c0-1.34-1.050-2.438-2.375-2.438h-19.25zM13.998 10h4v4h4v4h-4v4h-4v-4h-4v-4h4v-4z"></path>
    </symbol>
    <symbol id="icon-zoom-fit-best-symbolic" viewBox="0 0 32 32">
        <title>zoom-fit-best-symbolic</title>
        <path  d="M6.373 4c-1.325 0-2.375 1.098-2.375 2.438v19.125c0 1.34 1.050 2.438 2.375 2.438h19.25c1.325 0 2.375-1.098 2.375-2.438v-19.125c0-1.34-1.050-2.438-2.375-2.438zM7.998 8h6v4h-2v2h-4zM17.998 8h6v6h-4v-2h-2zM7.998 18h4v2h2v4h-6zM19.998 18h4v6h-6v-4h2z"></path>
    </symbol>
    <symbol id="icon-window-restore-symbolic" viewBox="0 0 32 32">
        <title>window-restore-symbolic</title>
        <path  d="M10 10v12h12v-12h-12zM14 14h4v4h-4v-4z"></path>
    </symbol>
    <symbol id="icon-window-minimize-symbolic" viewBox="0 0 32 32">
        <title>window-minimize-symbolic</title>
        <path  d="M8 20.018h16v3.977h-16v-3.977z"></path>
    </symbol>
    <symbol id="icon-window-maximize-symbolic" viewBox="0 0 32 32">
        <title>window-maximize-symbolic</title>
        <path  d="M8 8v16h16v-16h-16zM12 12h8v8h-8v-8z"></path>
    </symbol>
    <symbol id="icon-window-close-symbolic" viewBox="0 0 32 32">
        <title>window-close-symbolic</title>
        <path  d="M8 8h2c0.021-0 0.042-0.001 0.063 0 0.51 0.022 1.020 0.257 1.375 0.625l4.563 4.563 4.625-4.563c0.531-0.461 0.893-0.611 1.375-0.625h2v2c0 0.573-0.069 1.101-0.5 1.5l-4.563 4.563 4.5 4.5c0.376 0.376 0.562 0.907 0.563 1.438v2h-2c-0.531-0-1.061-0.186-1.438-0.563l-4.563-4.563-4.563 4.563c-0.376 0.376-0.907 0.563-1.438 0.563h-2v-2c0-0.531 0.186-1.061 0.563-1.438l4.563-4.5-4.563-4.563c-0.421-0.389-0.606-0.938-0.563-1.5v-2z"></path>
    </symbol>
    <symbol id="icon-view-restore-symbolic" viewBox="0 0 32 32">
        <title>view-restore-symbolic</title>
        <path  d="M21.628 0.054c-0.9 0.207-1.561 1.001-1.561 1.949 0 0.017 0 0.034 0.001 0.051l-0-0.002v7.989c0 1.103 0.894 1.997 1.997 1.997h7.989c0.008 0 0.018 0 0.028 0 1.103 0 1.997-0.894 1.997-1.997s-0.894-1.997-1.997-1.997c-0.010 0-0.020 0-0.030 0l0.002-0h-5.992v-5.992c0-0.014 0.001-0.031 0.001-0.048 0-1.103-0.894-1.997-1.997-1.997-0.155 0-0.306 0.018-0.451 0.051l0.013-0.003z"></path>
        <path  d="M29.804 0.054c-0.466 0.052-0.876 0.256-1.186 0.562l0-0-7.989 7.989c-0.367 0.367-0.595 0.875-0.595 1.436 0 1.121 0.909 2.030 2.030 2.030 0.561 0 1.068-0.227 1.436-0.595l7.989-7.989c0.392-0.366 0.636-0.885 0.636-1.462 0-1.103-0.894-1.997-1.997-1.997-0.114 0-0.227 0.010-0.336 0.028l0.012-0.002z"></path>
        <path  d="M20.068 10.040h1.997v1.997h-1.997v-1.997z"></path>
        <path  d="M1.905 12.037c-1.020 0.099-1.81 0.951-1.81 1.989 0 0.003 0 0.006 0 0.009v-0 15.978c0 1.103 0.894 1.997 1.997 1.997h15.978c1.103-0 1.997-0.894 1.997-1.997v0-15.978c-0-1.103-0.894-1.997-1.997-1.997h-15.978c-0.028-0.001-0.061-0.002-0.094-0.002s-0.066 0.001-0.098 0.002l0.005-0zM4.090 16.032h11.983v11.983h-11.983v-11.983z"></path>
        <path  d="M1.905 16.032c-1.063 0.051-1.906 0.926-1.906 1.997 0 1.104 0.895 1.999 1.999 1.999 0.033 0 0.066-0.001 0.098-0.002l-0.005 0h15.978c0.008 0 0.018 0 0.028 0 1.103 0 1.997-0.894 1.997-1.997s-0.894-1.997-1.997-1.997c-0.010 0-0.020 0-0.030 0l0.002-0h-15.978c-0.028-0.001-0.061-0.002-0.094-0.002s-0.066 0.001-0.098 0.002l0.005-0z"></path>
        <path  d="M30.054 10.040h1.997v1.997h-1.997v-1.997z"></path>
        <path  d="M20.068 0.054h1.997v1.997h-1.997v-1.997z"></path>
        <path  d="M18.071 30.012h1.997v1.997h-1.997v-1.997z"></path>
        <path  d="M0.096 30.012h1.997v1.997h-1.997v-1.997z"></path>
    </symbol>
    <symbol id="icon-view-refresh-symbolic" viewBox="0 0 32 32">
        <title>view-refresh-symbolic</title>
        <path  d="M25.813 3.938c-0.098 0.018-0.182 0.040-0.264 0.066l0.014-0.004c-0.901 0.207-1.563 1.002-1.563 1.952 0 0.017 0 0.034 0.001 0.051l-0-0.003v3.375c-0.764-1.156-1.699-2.164-2.813-3-2.311-1.734-5.064-2.505-7.75-2.375-0.384 0.018-0.744 0.071-1.125 0.125-3.044 0.435-5.956 2.046-7.938 4.688-3.962 5.283-2.845 12.85 2.438 16.813s12.85 2.845 16.813-2.438c0.235-0.325 0.375-0.731 0.375-1.17 0-0.006-0-0.012-0-0.018v0.001c0.004-0.047 0.006-0.101 0.006-0.156s-0.002-0.109-0.007-0.163l0 0.007v-1.688h-1.812c-0.028-0.001-0.061-0.002-0.094-0.002s-0.066 0.001-0.098 0.002l0.005-0c-0.003 0-0.006-0-0.009-0-0.659 0-1.245 0.317-1.612 0.807l-0.004 0.005c-2.665 3.553-7.634 4.228-11.188 1.563s-4.228-7.634-1.563-11.188c2.665-3.553 7.634-4.228 11.188-1.563 0.859 0.644 1.539 1.466 2.063 2.375h-2.875c-1.105 0-2 0.895-2 2v0c-0.008 0.066-0.012 0.142-0.012 0.219s0.004 0.153 0.013 0.228l-0.001-0.009v1.563h12v-10c0.006-0.056 0.009-0.121 0.009-0.188s-0.003-0.131-0.009-0.196l0.001 0.008v-1.625h-1.625c-0.15-0.040-0.322-0.063-0.5-0.063-0.022 0-0.044 0-0.066 0.001l0.003-0z"></path>
    </symbol>
    <symbol id="icon-view-paged-symbolic" viewBox="0 0 32 32">
        <title>view-paged-symbolic</title>
        <path  d="M2 0v26h24v-26h-24zM6 4h16v18h-16v-18z"></path>
        <path  d="M28.001 6v22h-20v4h24v-26z"></path>
        <path  opacity="0.35"  d="M17.25 8h-6.5c-0.414 0-0.75 0.336-0.75 0.75v2.5c0 0.414 0.336 0.75 0.75 0.75h6.5c0.414 0 0.75-0.336 0.75-0.75v-2.5c0-0.414-0.336-0.75-0.75-0.75z"></path>
        <path  opacity="0.35"  d="M17.25 14h-6.5c-0.414 0-0.75 0.336-0.75 0.75v2.5c0 0.414 0.336 0.75 0.75 0.75h6.5c0.414 0 0.75-0.336 0.75-0.75v-2.5c0-0.414-0.336-0.75-0.75-0.75z"></path>
    </symbol>
    <symbol id="icon-view-more-symbolic" viewBox="0 0 32 32">
        <title>view-more-symbolic</title>
        <path  d="M12.769 0h6.462c0.425 0 0.769 0.45 0.769 1.005v5.991c0 0.555-0.344 1.005-0.769 1.005h-6.462c-0.425 0-0.769-0.45-0.769-1.005v-5.991c0-0.555 0.344-1.005 0.769-1.005z"></path>
        <path  d="M12.769 12h6.462c0.425 0 0.769 0.45 0.769 1.005v5.991c0 0.555-0.344 1.005-0.769 1.005h-6.462c-0.425 0-0.769-0.45-0.769-1.005v-5.991c0-0.555 0.344-1.005 0.769-1.005z"></path>
        <path  d="M12.769 24h6.462c0.425 0 0.769 0.45 0.769 1.005v5.991c0 0.555-0.344 1.005-0.769 1.005h-6.462c-0.425 0-0.769-0.45-0.769-1.005v-5.991c0-0.555 0.344-1.005 0.769-1.005z"></path>
    </symbol>
    <symbol id="icon-view-list-symbolic" viewBox="0 0 32 32">
        <title>view-list-symbolic</title>
        <path  d="M6 6h19.999v4h-19.999v-4z"></path>
        <path  d="M6 14h19.999v4h-19.999v-4z"></path>
        <path  d="M6 22h19.999v4h-19.999v-4z"></path>
    </symbol>
    <symbol id="icon-view-grid-symbolic" viewBox="0 0 32 32">
        <title>view-grid-symbolic</title>
        <path  d="M6.769 6h2.462c0.425 0 0.769 0.339 0.769 0.758v2.485c0 0.418-0.344 0.758-0.769 0.758h-2.462c-0.425 0-0.769-0.339-0.769-0.758v-2.485c0-0.418 0.344-0.758 0.769-0.758z"></path>
        <path  d="M14.769 6h2.462c0.425 0 0.769 0.339 0.769 0.758v2.485c0 0.418-0.344 0.758-0.769 0.758h-2.462c-0.425 0-0.769-0.339-0.769-0.758v-2.485c0-0.418 0.344-0.758 0.769-0.758z"></path>
        <path  d="M22.769 6h2.462c0.425 0 0.769 0.339 0.769 0.758v2.485c0 0.418-0.344 0.758-0.769 0.758h-2.462c-0.425 0-0.769-0.339-0.769-0.758v-2.485c0-0.418 0.344-0.758 0.769-0.758z"></path>
        <path  d="M6.769 14.031h2.462c0.425 0 0.769 0.339 0.769 0.758v2.485c0 0.418-0.344 0.758-0.769 0.758h-2.462c-0.425 0-0.769-0.339-0.769-0.758v-2.485c0-0.418 0.344-0.758 0.769-0.758z"></path>
        <path  d="M14.769 14.031h2.462c0.425 0 0.769 0.339 0.769 0.758v2.485c0 0.418-0.344 0.758-0.769 0.758h-2.462c-0.425 0-0.769-0.339-0.769-0.758v-2.485c0-0.418 0.344-0.758 0.769-0.758z"></path>
        <path  d="M22.769 14.031h2.462c0.425 0 0.769 0.339 0.769 0.758v2.485c0 0.418-0.344 0.758-0.769 0.758h-2.462c-0.425 0-0.769-0.339-0.769-0.758v-2.485c0-0.418 0.344-0.758 0.769-0.758z"></path>
        <path  d="M6.769 22h2.462c0.425 0 0.769 0.339 0.769 0.758v2.485c0 0.418-0.344 0.758-0.769 0.758h-2.462c-0.425 0-0.769-0.339-0.769-0.758v-2.485c0-0.418 0.344-0.758 0.769-0.758z"></path>
        <path  d="M14.769 22h2.462c0.425 0 0.769 0.339 0.769 0.758v2.485c0 0.418-0.344 0.758-0.769 0.758h-2.462c-0.425 0-0.769-0.339-0.769-0.758v-2.485c0-0.418 0.344-0.758 0.769-0.758z"></path>
        <path  d="M22.769 22h2.462c0.425 0 0.769 0.339 0.769 0.758v2.485c0 0.418-0.344 0.758-0.769 0.758h-2.462c-0.425 0-0.769-0.339-0.769-0.758v-2.485c0-0.418 0.344-0.758 0.769-0.758z"></path>
    </symbol>
    <symbol id="icon-view-fullscreen-symbolic" viewBox="0 0 32 32">
        <title>view-fullscreen-symbolic</title>
        <path  d="M3.562 18c-0.901 0.207-1.563 1.002-1.563 1.952 0 0.017 0 0.034 0.001 0.051l-0-0.003v8c0 1.105 0.895 2 2 2h8c0.008 0 0.018 0 0.028 0 1.105 0 2-0.896 2-2s-0.896-2-2-2c-0.010 0-0.020 0-0.030 0l0.002-0h-6v-6c0-0.014 0.001-0.031 0.001-0.048 0-1.105-0.896-2-2-2-0.155 0-0.306 0.018-0.451 0.051l0.013-0.003z"></path>
        <path  d="M12.75 17c-0.466 0.052-0.877 0.257-1.188 0.563l0-0-9 9c-0.368 0.368-0.596 0.876-0.596 1.438 0 1.123 0.91 2.033 2.033 2.033 0.561 0 1.070-0.228 1.438-0.596l9-9c0.392-0.366 0.637-0.886 0.637-1.464 0-1.105-0.896-2-2-2-0.115 0-0.227 0.010-0.336 0.028l0.012-0.002z"></path>
        <path  d="M2 28h2v2h-2v-2z"></path>
        <path  d="M19.812 2c-1.065 0.051-1.908 0.927-1.908 2 0 1.106 0.896 2.002 2.002 2.002 0.033 0 0.066-0.001 0.098-0.002l-0.005 0h6v6c-0 0.008-0 0.018-0 0.028 0 1.105 0.896 2 2 2s2-0.896 2-2c0-0.010-0-0.020-0-0.030l0 0.002v-8c-0-1.105-0.895-2-2-2h-8c-0.028-0.001-0.061-0.002-0.094-0.002s-0.066 0.001-0.098 0.002l0.005-0z"></path>
        <path  d="M28 2h2v2h-2v-2z"></path>
        <path  d="M27.562 2c-0.396 0.091-0.736 0.289-0.999 0.562l-0.001 0.001-9 8.938c-0.368 0.368-0.596 0.876-0.596 1.438 0 1.123 0.91 2.033 2.033 2.033 0.561 0 1.070-0.228 1.438-0.596v0l9-8.938c0.431-0.369 0.703-0.914 0.703-1.523 0-1.105-0.896-2-2-2-0.206 0-0.405 0.031-0.592 0.089l0.014-0.004z"></path>
        <path  d="M2 18h2v2h-2v-2z"></path>
        <path  d="M12 28h2v2h-2v-2z"></path>
        <path  d="M28 12h2v2h-2v-2z"></path>
        <path  d="M18 2h2v2h-2v-2z"></path>
    </symbol>
    <symbol id="icon-view-dual-symbolic" viewBox="0 0 32 32">
        <title>view-dual-symbolic</title>
        <path  d="M0 2v26h12c0.351 0 1.051 0.303 1.625 0.688s0.938 0.75 0.938 0.75l1.438 1.438 1.438-1.5c0 0 1.793-1.375 2.563-1.375h12v-26h-12c-1.753 0-3.12 0.695-4.063 1.375-0.060-0.041-0.062-0.021-0.125-0.062-0.921-0.608-2.156-1.313-3.813-1.313h-12zM4 6h8c0.276 0 1.030 0.295 1.625 0.688s1 0.75 1 0.75l1.438 1.375 1.375-1.438c0 0 1.8-1.375 2.563-1.375h8v18h-8c-1.754 0-3.12 0.695-4.063 1.375-0.039-0.027-0.022-0.035-0.062-0.062-0.921-0.616-2.205-1.313-3.875-1.313h-8v-18z"></path>
        <path  opacity="0.35"  d="M11.25 9.999h-4.5c-0.414 0-0.75 0.336-0.75 0.75v2.5c0 0.414 0.336 0.75 0.75 0.75h4.5c0.414 0 0.75-0.336 0.75-0.75v-2.5c0-0.414-0.336-0.75-0.75-0.75z"></path>
        <path  opacity="0.35"  d="M11.25 15.999h-4.5c-0.414 0-0.75 0.336-0.75 0.75v2.5c0 0.414 0.336 0.75 0.75 0.75h4.5c0.414 0 0.75-0.336 0.75-0.75v-2.5c0-0.414-0.336-0.75-0.75-0.75z"></path>
        <path  opacity="0.35"  d="M25.25 9.999h-4.5c-0.414 0-0.75 0.336-0.75 0.75v2.5c0 0.414 0.336 0.75 0.75 0.75h4.5c0.414 0 0.75-0.336 0.75-0.75v-2.5c0-0.414-0.336-0.75-0.75-0.75z"></path>
        <path  opacity="0.35"  d="M25.25 15.999h-4.5c-0.414 0-0.75 0.336-0.75 0.75v2.5c0 0.414 0.336 0.75 0.75 0.75h4.5c0.414 0 0.75-0.336 0.75-0.75v-2.5c0-0.414-0.336-0.75-0.75-0.75z"></path>
    </symbol>
    <symbol id="icon-view-continuous-symbolic" viewBox="0 0 32 32">
        <title>view-continuous-symbolic</title>
        <path  opacity="0.35"  d="M19.25 22h-6.5c-0.414 0-0.75 0.336-0.75 0.75v2.5c0 0.414 0.336 0.75 0.75 0.75h6.5c0.414 0 0.75-0.336 0.75-0.75v-2.5c0-0.414-0.336-0.75-0.75-0.75z"></path>
        <path  opacity="0.35"  d="M19.25 0h-6.5c-0.414 0-0.75 0.336-0.75 0.75v2.5c0 0.414 0.336 0.75 0.75 0.75h6.5c0.414 0 0.75-0.336 0.75-0.75v-2.5c0-0.414-0.336-0.75-0.75-0.75z"></path>
        <path  opacity="0.35"  d="M19.25 28h-6.5c-0.414 0-0.75 0.336-0.75 0.75v2.5c0 0.414 0.336 0.75 0.75 0.75h6.5c0.414 0 0.75-0.336 0.75-0.75v-2.5c0-0.414-0.336-0.75-0.75-0.75z"></path>
        <path  opacity="0.35"  d="M19.25 6h-6.5c-0.414 0-0.75 0.336-0.75 0.75v2.5c0 0.414 0.336 0.75 0.75 0.75h6.5c0.414 0 0.75-0.336 0.75-0.75v-2.5c0-0.414-0.336-0.75-0.75-0.75z"></path>
        <path  d="M28 14h-24v4h24v-4z"></path>
    </symbol>
    <symbol id="icon-tab-new-symbolic" viewBox="0 0 32 32">
        <title>tab-new-symbolic</title>
        <path  d="M6 4c0 0-4 0-4 4v16h-2v4h6v-20h20v20h6v-4h-2v-16c0 0 0-4-4-4z"></path>
        <path  d="M10 16h12v4h-12v-4z"></path>
        <path  d="M18 12v12h-4v-12h4z"></path>
    </symbol>
    <symbol id="icon-system-shutdown-symbolic" viewBox="0 0 32 32">
        <title>system-shutdown-symbolic</title>
        <path  d="M9.662 3.67c-0.262 0.049-0.496 0.142-0.704 0.272l0.008-0.005c-2.105 1.218-3.859 2.929-5.083 5.030-3.875 6.654-1.623 15.283 5.029 19.159s15.279 1.623 19.154-5.030c3.875-6.654 1.623-15.283-5.029-19.159-0.292-0.174-0.643-0.276-1.018-0.276-1.112 0-2.014 0.902-2.014 2.015 0 0.739 0.397 1.384 0.99 1.735l0.009 0.005c4.786 2.789 6.373 8.859 3.585 13.646s-8.857 6.374-13.643 3.586c-4.766-2.777-6.377-8.815-3.638-13.593l0.054-0.054c0.874-1.501 2.135-2.769 3.638-3.639 0.591-0.354 0.981-0.992 0.981-1.72 0-1.104-0.894-1.998-1.998-1.998-0.113 0-0.224 0.009-0.332 0.028l0.012-0.002z"></path>
        <path  d="M15.539 0.048c-0.9 0.207-1.561 1.001-1.561 1.95 0 0.017 0 0.034 0.001 0.051l-0-0.002v9.99c-0 0.008-0 0.018-0 0.028 0 1.104 0.895 1.998 1.998 1.998s1.998-0.895 1.998-1.998c0-0.010-0-0.020-0-0.030l0 0.002v-9.99c0-0.014 0.001-0.031 0.001-0.048 0-1.104-0.895-1.998-1.998-1.998-0.155 0-0.306 0.018-0.451 0.051l0.013-0.003z"></path>
    </symbol>
    <symbol id="icon-system-run-symbolic" viewBox="0 0 32 32">
        <title>system-run-symbolic</title>
        <path  d="M22.75 0.5c-0.48 0.871-0.935 2.012-1.438 2.875-0.188-0.014-0.371-0.063-0.563-0.063-0.665 0-1.32 0.097-1.938 0.25-0.61-0.766-1.261-1.796-1.875-2.563-0.569 0.21-1.105 0.453-1.625 0.75 0.192 0.965 0.554 2.142 0.75 3.125-0.686 0.498-1.252 1.064-1.75 1.75-0.983-0.196-2.16-0.558-3.125-0.75-0.297 0.52-0.54 1.056-0.75 1.625 0.766 0.614 1.797 1.265 2.563 1.875-0.153 0.617-0.25 1.273-0.25 1.938 0 0.191 0.049 0.375 0.063 0.563-0.863 0.502-2.005 0.958-2.875 1.438 0.102 0.55 0.257 1.107 0.438 1.625 0.983-0.020 2.199-0.189 3.188-0.187 0.374 0.784 0.841 1.508 1.438 2.125-0.344 0.936-0.896 2.017-1.25 2.938 0.426 0.351 0.899 0.652 1.375 0.938 0.738-0.64 1.551-1.543 2.313-2.188 0.756 0.345 1.577 0.531 2.438 0.625 0.329 0.954 0.609 2.176 0.938 3.125 0.603-0.004 1.174-0.028 1.75-0.125 0.161-0.986 0.221-2.237 0.375-3.25 0.82-0.234 1.623-0.534 2.313-1 0.849 0.529 1.798 1.258 2.625 1.75 0.447-0.381 0.869-0.803 1.25-1.25-0.492-0.827-1.221-1.776-1.75-2.625 0.466-0.69 0.766-1.492 1-2.313 1.013-0.154 2.264-0.214 3.25-0.375 0.097-0.576 0.122-1.147 0.125-1.75-0.949-0.329-2.171-0.608-3.125-0.938-0.094-0.86-0.28-1.681-0.625-2.438 0.645-0.762 1.547-1.574 2.188-2.313-0.285-0.476-0.586-0.949-0.938-1.375-0.92 0.354-2.002 0.906-2.938 1.25-0.617-0.596-1.341-1.063-2.125-1.438-0.002-0.989 0.168-2.205 0.188-3.188-0.518-0.181-1.075-0.335-1.625-0.438zM20.75 7.313c2.209 0 4 1.791 4 4s-1.791 4-4 4c-2.209 0-4-1.791-4-4s1.791-4 4-4z"></path>
        <path  d="M7.375 15.5c-0.46 0.094-0.888 0.262-1.313 0.438-0.033 1.249 0.174 2.884-0.313 3.313-0.478 0.422-2.077 0.069-3.313-0.063-0.263 0.473-0.471 0.97-0.625 1.5 0.956 0.792 2.281 1.678 2.313 2.313 0.032 0.642-1.253 1.61-2.125 2.5 0.207 0.516 0.5 0.987 0.813 1.438 1.217-0.253 2.733-0.747 3.25-0.375 0.527 0.379 0.53 2.011 0.688 3.25 0.499 0.15 1.025 0.209 1.562 0.25 0.563-1.109 1.135-2.64 1.75-2.813 0.631-0.177 1.927 0.916 3 1.563 0.437-0.303 0.826-0.674 1.188-1.063-0.508-1.145-1.442-2.584-1.188-3.188s1.951-0.939 3.125-1.375c0.009-0.147 0.063-0.288 0.063-0.438 0-0.383-0.069-0.758-0.125-1.125-1.212-0.322-2.934-0.483-3.25-1.063-0.313-0.576 0.484-2.123 0.875-3.313-0.402-0.357-0.839-0.674-1.313-0.938-1.002 0.75-2.169 1.989-2.813 1.875-0.634-0.112-1.326-1.639-2-2.688-0.080 0.014-0.171-0.016-0.25 0zM8.625 19.25c1.864 0 3.375 1.511 3.375 3.375s-1.511 3.375-3.375 3.375c-1.864 0-3.375-1.511-3.375-3.375s1.511-3.375 3.375-3.375z"></path>
    </symbol>
    <symbol id="icon-send-to-symbolic" viewBox="0 0 32 32">
        <title>send-to-symbolic</title>
        <path  d="M11.938 25.938c0 3.279-2.658 5.938-5.938 5.938s-5.938-2.658-5.938-5.938v0c0-3.279 2.658-5.938 5.938-5.938s5.938 2.658 5.938 5.938v0z"></path>
        <path  d="M12 0l-8.009 5.201 4.676 0.727-4.020 11.613c4.482-0.866 8.769 1.52 9.797 6.505l9.288-9.202 2.267 3.39 2-10.234-9.628 0.391 2.543 3.135-8.915 5.49 1.215-9.967 4.431 0.909z"></path>
    </symbol>
    <symbol id="icon-process-stop-symbolic" viewBox="0 0 32 32">
        <title>process-stop-symbolic</title>
        <path  d="M11.375 4l-0.625 0.563-6.188 6.125-0.563 0.625v9.25l0.563 0.625 6.188 6.25 0.625 0.563h9.25l0.625-0.563 6.188-6.25 0.563-0.625v-9.25l-0.563-0.625-6.188-6.125-0.625-0.563h-9.25zM13.062 8h5.938l5 5v5.938l-5.063 5.063h-5.875l-5.063-5.063v-5.938l5.063-5z"></path>
        <path  d="M13.713 10l-3.713 3.678v4.578l3.713 3.743h4.578l3.709-3.743v-4.578l-3.709-3.678h-4.578z"></path>
    </symbol>
    <symbol id="icon-object-select-symbolic" viewBox="0 0 32 32">
        <title>object-select-symbolic</title>
        <path  d="M23.882 7.872l-9.878 9.878-3.876-3.876-4.251 4.251 8.128 8.128 14.13-14.13-4.251-4.251z"></path>
    </symbol>
    <symbol id="icon-object-rotate-right-symbolic" viewBox="0 0 32 32">
        <title>object-rotate-right-symbolic</title>
        <path  d="M6 6v4h9c1.681 0 3 1.319 3 3v11h4v-11c0-3.842-3.158-7-7-7h-9z"></path>
        <path  d="M12 18h2c0.514 0 1.057 0.26 1.438 0.625l4.562 4.563 4.563-4.563c0.381-0.365 0.924-0.625 1.438-0.625h2v2c0 0.619-0.181 1.105-0.563 1.5l-7.438 7.313-7.438-7.313c-0.382-0.395-0.563-0.881-0.563-1.5z"></path>
    </symbol>
    <symbol id="icon-object-rotate-left-symbolic" viewBox="0 0 32 32">
        <title>object-rotate-left-symbolic</title>
        <path  d="M4 18v2c0 0.531 0.186 1.061 0.563 1.438l7.438 7.438c0 0 4.958-4.958 7.437-7.438 0.376-0.376 0.562-0.907 0.563-1.438v-2h-2c-0.531 0-1.061 0.186-1.438 0.563l-4.563 4.563-4.563-4.563c-0.376-0.376-0.907-0.563-1.438-0.563z"></path>
        <path  d="M17 6c-3.842 0-7 3.158-7 7v11h4v-11c0-1.681 1.319-3 3-3h9v-4h-9z"></path>
    </symbol>
    <symbol id="icon-object-flip-vertical-symbolic" viewBox="0 0 32 32">
        <title>object-flip-vertical-symbolic</title>
        <path  d="M14 6v20h4v-20h-4z"></path>
        <path  d="M8 20v2c0 0.531 0.186 1.061 0.563 1.438l7.437 7.438c0 0 4.958-4.958 7.438-7.438 0.376-0.376 0.562-0.907 0.563-1.438v-2h-2c-0.531 0-1.061 0.186-1.438 0.563l-4.563 4.563-4.563-4.563c-0.376-0.376-0.907-0.563-1.438-0.563z"></path>
        <path  d="M8.001 12v-2c0-0.531 0.186-1.061 0.563-1.438l7.438-7.438c0 0 4.958 4.958 7.438 7.438 0.376 0.376 0.562 0.907 0.563 1.438v2h-2c-0.531 0-1.061-0.186-1.438-0.563l-4.563-4.563-4.563 4.563c-0.376 0.376-0.907 0.563-1.438 0.563z"></path>
    </symbol>
    <symbol id="icon-object-flip-horizontal-symbolic" viewBox="0 0 32 32">
        <title>object-flip-horizontal-symbolic</title>
        <path  d="M6 14v4h20v-4h-20z"></path>
        <path  d="M20 8v2c0 0.514 0.26 1.057 0.625 1.438l4.563 4.563-4.563 4.563c-0.365 0.381-0.625 0.924-0.625 1.438v2h2c0.619 0 1.105-0.181 1.5-0.563l7.313-7.438-7.313-7.438c-0.395-0.382-0.881-0.563-1.5-0.563z"></path>
        <path  d="M12 8v2c0 0.514-0.26 1.057-0.625 1.438l-4.563 4.563 4.563 4.563c0.365 0.381 0.625 0.924 0.625 1.438v2h-2c-0.619 0-1.105-0.181-1.5-0.563l-7.313-7.438 7.313-7.438c0.395-0.382 0.881-0.563 1.5-0.563z"></path>
    </symbol>
    <symbol id="icon-media-view-subtitles-symbolic" viewBox="0 0 32 32">
        <title>media-view-subtitles-symbolic</title>
        <path  d="M5 6c-2.77 0-5 2.23-5 5v10c0 2.77 2.23 5 5 5h14.125c2.77 0 4.96-2.23 5-5v-4.75l7.875-6.25h-8c-0.465-2.283-2.451-4-4.875-4zM4 16h16v2h-16zM4 20h10v2h-10z"></path>
    </symbol>
    <symbol id="icon-media-skip-forward-symbolic" viewBox="0 0 32 32">
        <title>media-skip-forward-symbolic</title>
        <path  d="M2 8c0.355 0.016 0.702 0.118 1 0.313l10 6c0.565 0.359 0.875 1.023 0.875 1.688s-0.31 1.328-0.875 1.688l-10 6c-0.298 0.194-0.645 0.297-1 0.313h-2v-16h1.688z"></path>
        <path  d="M28 8v16h4v-16z"></path>
        <path  d="M16 8c0.355 0.016 0.702 0.118 1 0.313l10 6c0.565 0.359 0.875 1.023 0.875 1.688s-0.31 1.328-0.875 1.688l-10 6c-0.298 0.194-0.645 0.297-1 0.313h-2v-16h1.688z"></path>
    </symbol>
    <symbol id="icon-media-skip-forward-rtl-symbolic" viewBox="0 0 32 32">
        <title>media-skip-forward-rtl-symbolic</title>
        <path  d="M30 8c-0.355 0.016-0.702 0.118-1 0.313l-10 6c-0.565 0.359-0.875 1.023-0.875 1.688s0.31 1.328 0.875 1.688l10 6c0.298 0.194 0.645 0.297 1 0.313h2v-16h-1.688z"></path>
        <path  d="M4 8v16h-4v-16z"></path>
        <path  d="M16 8c-0.355 0.016-0.702 0.118-1 0.313l-10 6c-0.565 0.359-0.875 1.023-0.875 1.688s0.31 1.328 0.875 1.688l10 6c0.298 0.194 0.645 0.297 1 0.313h2v-16h-1.688z"></path>
    </symbol>
    <symbol id="icon-media-skip-backward-symbolic" viewBox="0 0 32 32">
        <title>media-skip-backward-symbolic</title>
        <path  d="M30 8c-0.355 0.016-0.702 0.118-1 0.313l-10 6c-0.565 0.359-0.875 1.023-0.875 1.688s0.31 1.328 0.875 1.688l10 6c0.298 0.194 0.645 0.297 1 0.313h2v-16h-1.688z"></path>
        <path  d="M4 8v16h-4v-16z"></path>
        <path  d="M16 8c-0.355 0.016-0.702 0.118-1 0.313l-10 6c-0.565 0.359-0.875 1.023-0.875 1.688s0.31 1.328 0.875 1.688l10 6c0.298 0.194 0.645 0.297 1 0.313h2v-16h-1.688z"></path>
    </symbol>
    <symbol id="icon-media-skip-backward-rtl-symbolic" viewBox="0 0 32 32">
        <title>media-skip-backward-rtl-symbolic</title>
        <path  d="M2 8c0.355 0.016 0.702 0.118 1 0.313l10 6c0.565 0.359 0.875 1.023 0.875 1.688s-0.31 1.328-0.875 1.688l-10 6c-0.298 0.194-0.645 0.297-1 0.313h-2v-16h1.688z"></path>
        <path  d="M28 8v16h4v-16z"></path>
        <path  d="M16 8c0.355 0.016 0.702 0.118 1 0.313l10 6c0.565 0.359 0.875 1.023 0.875 1.688s-0.31 1.328-0.875 1.688l-10 6c-0.298 0.194-0.645 0.297-1 0.313h-2v-16h1.688z"></path>
    </symbol>
    <symbol id="icon-media-seek-forward-symbolic" viewBox="0 0 32 32">
        <title>media-seek-forward-symbolic</title>
        <path  d="M3.875 8c0.355 0.016 0.702 0.118 1 0.313l10 6c0.565 0.359 0.875 1.023 0.875 1.688s-0.31 1.328-0.875 1.688l-10 6c-0.298 0.194-0.645 0.297-1 0.313h-2v-16h1.688z"></path>
        <path  d="M17.875 8c0.355 0.016 0.702 0.118 1 0.313l10 6c0.565 0.359 0.875 1.023 0.875 1.688s-0.31 1.328-0.875 1.688l-10 6c-0.298 0.194-0.645 0.297-1 0.313h-2v-16h1.688z"></path>
    </symbol>
    <symbol id="icon-media-seek-forward-rtl-symbolic" viewBox="0 0 32 32">
        <title>media-seek-forward-rtl-symbolic</title>
        <path  d="M28 8c-0.355 0.016-0.702 0.118-1 0.313l-10 6c-0.565 0.359-0.875 1.023-0.875 1.688s0.31 1.328 0.875 1.688l10 6c0.298 0.194 0.645 0.297 1 0.313h2v-16h-1.688z"></path>
        <path  d="M14 8c-0.355 0.016-0.702 0.118-1 0.313l-10 6c-0.565 0.359-0.875 1.023-0.875 1.688s0.31 1.328 0.875 1.688l10 6c0.298 0.194 0.645 0.297 1 0.313h2v-16h-1.688z"></path>
    </symbol>
    <symbol id="icon-media-seek-backward-symbolic" viewBox="0 0 32 32">
        <title>media-seek-backward-symbolic</title>
        <path  d="M28 8c-0.355 0.016-0.702 0.118-1 0.313l-10 6c-0.565 0.359-0.875 1.023-0.875 1.688s0.31 1.328 0.875 1.688l10 6c0.298 0.194 0.645 0.297 1 0.313h2v-16h-1.688z"></path>
        <path  d="M14 8c-0.355 0.016-0.702 0.118-1 0.313l-10 6c-0.565 0.359-0.875 1.023-0.875 1.688s0.31 1.328 0.875 1.688l10 6c0.298 0.194 0.645 0.297 1 0.313h2v-16h-1.688z"></path>
    </symbol>
    <symbol id="icon-media-seek-backward-rtl-symbolic" viewBox="0 0 32 32">
        <title>media-seek-backward-rtl-symbolic</title>
        <path  d="M3.875 8c0.355 0.016 0.702 0.118 1 0.313l10 6c0.565 0.359 0.875 1.023 0.875 1.688s-0.31 1.328-0.875 1.688l-10 6c-0.298 0.194-0.645 0.297-1 0.313h-2v-16h1.688z"></path>
        <path  d="M17.875 8c0.355 0.016 0.702 0.118 1 0.313l10 6c0.565 0.359 0.875 1.023 0.875 1.688s-0.31 1.328-0.875 1.688l-10 6c-0.298 0.194-0.645 0.297-1 0.313h-2v-16h1.688z"></path>
    </symbol>
    <symbol id="icon-media-record-symbolic" viewBox="0 0 32 32">
        <title>media-record-symbolic</title>
        <path  d="M16 6.035c-5.499 0-9.965 4.466-9.965 9.965s4.466 9.965 9.965 9.965c5.499 0 9.965-4.466 9.965-9.965s-4.466-9.965-9.965-9.965z"></path>
    </symbol>
    <symbol id="icon-media-playback-stop-symbolic" viewBox="0 0 32 32">
        <title>media-playback-stop-symbolic</title>
        <path  d="M8 8v16h16v-16h-16z"></path>
    </symbol>
    <symbol id="icon-media-playback-start-symbolic" viewBox="0 0 32 32">
        <title>media-playback-start-symbolic</title>
        <path  d="M8 6v20h2c0.35 0.002 0.696-0.078 1-0.25l14-8c0.621-0.344 0.938-1.047 0.938-1.75s-0.316-1.406-0.938-1.75l-14-8c-0.304-0.173-0.65-0.253-1-0.25h-0.188z"></path>
    </symbol>
    <symbol id="icon-media-playback-start-rtl-symbolic" viewBox="0 0 32 32">
        <title>media-playback-start-rtl-symbolic</title>
        <path  d="M24 6v20h-2c-0.35 0.002-0.696-0.078-1-0.25l-14-8c-0.621-0.344-0.938-1.047-0.938-1.75s0.316-1.406 0.938-1.75l14-8c0.304-0.173 0.65-0.253 1-0.25h0.188z"></path>
    </symbol>
    <symbol id="icon-media-playback-pause-symbolic" viewBox="0 0 32 32">
        <title>media-playback-pause-symbolic</title>
        <path  d="M8 8v16h6v-16h-6z"></path>
        <path  d="M18 8v16h6v-16h-6z"></path>
    </symbol>
    <symbol id="icon-media-eject-symbolic" viewBox="0 0 32 32">
        <title>media-eject-symbolic</title>
        <path  d="M28 22h-24v4h24z"></path>
        <path  d="M16 4c-0.532 0-1.066 0.178-1.438 0.563l-10 10c-0.312 0.318-0.514 0.744-0.563 1.188v2.25h24v-2.25c-0.048-0.444-0.25-0.869-0.563-1.188l-10-10c-0.371-0.384-0.906-0.563-1.438-0.563z"></path>
    </symbol>
    <symbol id="icon-mark-location-symbolic" viewBox="0 0 32 32">
        <title>mark-location-symbolic</title>
        <path  d="M16 0c-5.523 0-10 4.477-10 10 0 0.69 0.054 1.349 0.187 2 0.75 5.679 7.865 9.852 9.875 17.938 1.971-7.971 9.996-13.836 10-19.938h-0.062c0-5.523-4.477-10-10-10zM16 4c3.314 0 6 2.686 6 6s-2.686 6-6 6c-3.314 0-6-2.686-6-6s2.686-6 6-6z"></path>
    </symbol>
    <symbol id="icon-mail-send-symbolic" viewBox="0 0 32 32">
        <title>mail-send-symbolic</title>
        <path  d="M2 0v4c1.105 0 2 0.895 2 2s-0.895 2-2 2v2c1.105 0 2 0.895 2 2s-0.895 2-2 2v2c1.105 0 2 0.895 2 2s-0.895 2-2 2v2c1.105 0 2 0.895 2 2s-0.895 2-2 2v4h4c0-1.105 0.895-2 2-2s2 0.895 2 2h2c0-1.105 0.895-2 2-2s2 0.895 2 2h2c0-1.105 0.895-2 2-2s2 0.895 2 2h2c0-1.105 0.895-2 2-2s2 0.895 2 2h4v-4c-1.105 0-2-0.895-2-2s0.895-2 2-2v-2c-1.105 0-2-0.895-2-2s0.895-2 2-2v-2c-1.105 0-2-0.895-2-2s0.895-2 2-2v-2c-1.105 0-2-0.895-2-2s0.895-2 2-2v-4h-4c0 1.105-0.895 2-2 2s-2-0.895-2-2h-2c0 1.105-0.895 2-2 2s-2-0.895-2-2h-2c0 1.105-0.895 2-2 2s-2-0.895-2-2h-2c0 1.105-0.895 2-2 2s-2-0.895-2-2h-4zM6 4h22v22h-4v-4.125c0-2.133-1.557-3.961-3.438-4.5-0.988 0.959-2.141 1.375-3.563 1.375s-2.575-0.416-3.563-1.375c-1.553 0.559-3.435 1.954-3.438 4.438v4.188h-4v-22z"></path>
        <path  d="M21.615 12.615c0 2.549-2.066 4.615-4.615 4.615s-4.615-2.066-4.615-4.615v0c0-2.549 2.066-4.615 4.615-4.615s4.615 2.066 4.615 4.615v0z"></path>
    </symbol>
    <symbol id="icon-mail-send-receive-symbolic" viewBox="0 0 32 32">
        <title>mail-send-receive-symbolic</title>
        <path  d="M18 14l-0-2c-0-0.531-0.186-1.061-0.562-1.438l-6.563-6.563h-1.75l-6.563 6.563c-0.376 0.376-0.562 0.907-0.562 1.438l-0 2h2c0.531 0 1.061-0.186 1.438-0.562l4.562-4.563 4.563 4.563c0.376 0.376 0.907 0.563 1.437 0.563h2z"></path>
        <path  d="M8 8v14h4v-14h-4z"></path>
        <path  d="M30 16l-0 2c-0 0.531-0.186 1.061-0.562 1.438l-6.563 6.563h-1.75l-6.563-6.563c-0.376-0.376-0.562-0.907-0.562-1.438l-0-2h2c0.531-0 1.061 0.186 1.438 0.562l4.562 4.563 4.563-4.563c0.376-0.376 0.907-0.563 1.438-0.563h2z"></path>
        <path  d="M20 8v14h4v-14h-4z"></path>
    </symbol>
    <symbol id="icon-mail-mark-important-symbolic" viewBox="0 0 32 32">
        <title>mail-mark-important-symbolic</title>
        <path  d="M3.561 3.438c-0.926 0.188-1.613 0.995-1.613 1.962 0 0.652 0.312 1.231 0.795 1.596l0.005 0.004 11.25 8.999 11.25-8.999c0.459-0.37 0.751-0.932 0.751-1.562 0-1.105-0.896-2.001-2.001-2.001-0.475 0-0.911 0.165-1.254 0.441l0.004-0.003-8.75 7-8.75-7c-0.347-0.296-0.8-0.476-1.296-0.476-0.139 0-0.274 0.014-0.405 0.041l0.013-0.002z"></path>
        <path  d="M1.625 2.002c-0.917 0.175-1.641 1.067-1.625 2v17.999c0 1.047 0.953 2 2 2h12v-4h-10v-13.999h20l-0 7.999h4l0-9.999c-0-1.047-0.953-2-2-2h-24c-0.062-0.002-0.125-0.002-0.187 0-0.062-0.002-0.125-0.002-0.187 0z"></path>
        <path  d="M17.75 16.138c-0.985 0-1.75 0.758-1.75 1.735v12.391c0 0.976 0.765 1.735 1.75 1.735h12.5c0.985 0 1.75-0.758 1.75-1.735v-12.391c0-0.976-0.765-1.735-1.75-1.735h-12.5zM22 18.121h4v7.931h-4v-7.931zM22 28.034h4v1.983h-4v-1.983z"></path>
    </symbol>
    <symbol id="icon-list-remove-symbolic" viewBox="0 0 32 32">
        <title>list-remove-symbolic</title>
        <path  d="M6 14h19.999v4h-19.999v-4z"></path>
    </symbol>
    <symbol id="icon-list-remove-all-symbolic" viewBox="0 0 32 32">
        <title>list-remove-all-symbolic</title>
        <path  d="M6 6h19.999v4h-19.999v-4z"></path>
        <path  d="M20 14h6v4h-6v-4z"></path>
        <path  d="M20 22h6v4h-6v-4z"></path>
        <path  d="M1.999 12.125v15.938h16v-15.938h-16zM3.999 14.125h12v11.938h-12v-11.938z"></path>
        <path  d="M6.062 18v4h8.063v-4h-8.063z"></path>
    </symbol>
    <symbol id="icon-list-add-symbolic" viewBox="0 0 32 32">
        <title>list-add-symbolic</title>
        <path  d="M14 6v8h-8v4h8v8h4v-8h8v-4h-8v-8h-4z"></path>
    </symbol>
    <symbol id="icon-insert-text-symbolic" viewBox="0 0 32 32">
        <title>insert-text-symbolic</title>
        <path  d="M22 24h-2c-0.514 0-1.057 0.236-1.438 0.567l-2.562 2.326-2.563-2.326c-0.38-0.332-0.924-0.567-1.438-0.567h-2l-0 1.816c0 0.562 0.18 1.003 0.563 1.362l5.438 4.823 5.437-4.823c0.382-0.359 0.563-0.8 0.563-1.362v-1.816z"></path>
        <path  d="M8-0v4h12c0.856 0 2 1.228 2 2v2h-10c-1.839 0-3.471 0.768-4.5 1.938s-1.513 2.621-1.5 4.063c0.013 1.441 0.538 2.905 1.563 4.063s2.621 1.938 4.438 1.938h14v-14c0-3.269-2.64-6-6-6h-12zM12 12h10v4h-10c-0.796 0-1.134-0.22-1.438-0.563s-0.558-0.879-0.563-1.438c-0.005-0.559 0.209-1.107 0.5-1.438s0.655-0.563 1.5-0.563z"></path>
    </symbol>
    <symbol id="icon-insert-object-symbolic" viewBox="0 0 32 32">
        <title>insert-object-symbolic</title>
        <path  d="M16-0l-9.999 6.285v9.43l9.999 6.285 10.001-6.285v-9.43zM16 12l-7.29-4.352 7.29-4.584 7.293 4.584z"></path>
        <path  d="M22 24h-2c-0.514 0-1.057 0.236-1.438 0.567l-2.563 2.326-2.563-2.326c-0.38-0.332-0.924-0.567-1.438-0.567h-2l-0 1.816c0 0.562 0.18 1.003 0.563 1.362l5.438 4.823 5.438-4.823c0.382-0.359 0.563-0.8 0.563-1.362v-1.816z"></path>
    </symbol>
    <symbol id="icon-insert-link-symbolic" viewBox="0 0 32 32">
        <title>insert-link-symbolic</title>
        <path  d="M22.027 23.998h-2.002c-0.514 0-1.058 0.217-1.439 0.523l-2.566 2.143-2.566-2.143c-0.381-0.306-0.925-0.523-1.439-0.523h-2.002l-0 1.673c0 0.518 0.181 0.924 0.563 1.254l5.489 5.073 5.399-5.073c0.382-0.331 0.563-0.737 0.563-1.254v-1.673z"></path>
        <path  d="M19.63 8.087c-0.854 0.201-1.484 1.010-1.484 1.978 0 1.11 0.828 2.011 1.854 2.022h9.886c0.083 0.014 0.179 0.022 0.277 0.022 1.035 0 1.874-0.905 1.874-2.022s-0.839-2.022-1.874-2.022c-0.098 0-0.193 0.008-0.287 0.024l0.010-0.001h-9.885c-0.056-0.006-0.12-0.010-0.185-0.010s-0.13 0.004-0.193 0.011l0.008-0.001z"></path>
        <path  d="M1.628 8.087c-0.901 0.205-1.58 1.199-1.488 2.179s0.942 1.811 1.863 1.821h9.843c1.072 0.171 2.17-0.841 2.17-2s-1.099-2.171-2.17-2h-9.843c-0.124-0.014-0.25-0.014-0.374 0z"></path>
        <path  d="M12.131 1.928c-1.71 0.259-3.141 1.391-3.817 2.941-0.142 0.326-0.237 0.692-0.313 1.064h16.026c-0.052-0.251-0.107-0.526-0.188-0.751-0.694-1.937-2.541-3.254-4.693-3.254h-6.265c-0.254 0-0.507-0.037-0.751 0zM8.001 13.942c0.471 2.266 2.483 4.005 4.881 4.005h6.265c2.398 0 4.409-1.738 4.881-4.005z"></path>
    </symbol>
    <symbol id="icon-insert-image-symbolic" viewBox="0 0 32 32">
        <title>insert-image-symbolic</title>
        <path  d="M4 0v18h24v-18zM8 4h16v10h-16z"></path>
        <path  opacity="0.35"  d="M10 10c4.641 2 6.089-3.319 12 0v2h-12z"></path>
        <path  d="M22.007 22.078h-2.002c-0.514 0-1.058 0.26-1.439 0.626l-2.565 2.565-2.565-2.565c-0.381-0.366-0.925-0.626-1.439-0.626h-2.002l-0 2.002c0 0.62 0.181 1.106 0.563 1.502l5.444 5.319 5.444-5.319c0.382-0.396 0.563-0.882 0.563-1.502v-2.002z"></path>
    </symbol>
    <symbol id="icon-go-up-symbolic" viewBox="0 0 32 32">
        <title>go-up-symbolic</title>
        <path  d="M16 9.188l-1.438 1.375-10 10c-0.368 0.368-0.596 0.876-0.596 1.438 0 1.123 0.91 2.033 2.033 2.033 0.561 0 1.070-0.228 1.438-0.596l8.563-8.563 8.563 8.563c0.368 0.368 0.876 0.596 1.438 0.596 1.123 0 2.033-0.91 2.033-2.033 0-0.561-0.228-1.070-0.596-1.438l-10-10-1.438-1.375z"></path>
        <path  d="M28 24v-2c0 1.105-0.895 2-2 2h2c-1.105 0-2-0.895-2-2v2c0-1.105 0.895-2 2-2h-2c1.105 0 2 0.895 2 2z"></path>
        <path  d="M6 24v-2c0 1.105-0.895 2-2 2h2c-1.105 0-2-0.895-2-2v2c0-1.105 0.895-2 2-2h-2c1.105 0 2 0.895 2 2z"></path>
    </symbol>
    <symbol id="icon-go-top-symbolic" viewBox="0 0 32 32">
        <title>go-top-symbolic</title>
        <path  d="M16 11.188l-1.438 1.375-10 10c-0.368 0.368-0.596 0.876-0.596 1.438 0 1.123 0.91 2.033 2.033 2.033 0.561 0 1.070-0.228 1.438-0.596l8.563-8.563 8.563 8.563c0.368 0.368 0.876 0.596 1.438 0.596 1.123 0 2.033-0.91 2.033-2.033 0-0.561-0.228-1.070-0.596-1.438l-10-10-1.438-1.375z"></path>
        <path  d="M28 10v-4h-24v4h24z"></path>
        <path  d="M28 26v-2c0 1.105-0.895 2-2 2h2c-1.105 0-2-0.895-2-2v2c0-1.105 0.895-2 2-2h-2c1.105 0 2 0.895 2 2z"></path>
        <path  d="M6 26v-2c0 1.105-0.895 2-2 2h2c-1.105 0-2-0.895-2-2v2c0-1.105 0.895-2 2-2h-2c1.105 0 2 0.895 2 2z"></path>
    </symbol>
    <symbol id="icon-go-previous-symbolic" viewBox="0 0 32 32">
        <title>go-previous-symbolic</title>
        <path  d="M21.75 4c-0.466 0.052-0.877 0.257-1.188 0.563l0-0-10 10-1.375 1.438 1.375 1.438 10 10c0.368 0.368 0.876 0.596 1.438 0.596 1.123 0 2.033-0.91 2.033-2.033 0-0.561-0.228-1.070-0.596-1.438l-8.563-8.563 8.563-8.563c0.392-0.366 0.637-0.886 0.637-1.464 0-1.105-0.896-2-2-2-0.115 0-0.227 0.010-0.336 0.028l0.012-0.002z"></path>
        <path  d="M24 4h-2c1.105 0 2 0.895 2 2v-2c0 1.105-0.895 2-2 2h2c-1.105 0-2-0.895-2-2v2c0-1.105 0.895-2 2-2z"></path>
        <path  d="M24 26h-2c1.105 0 2 0.895 2 2v-2c0 1.105-0.895 2-2 2h2c-1.105 0-2-0.895-2-2v2c0-1.105 0.895-2 2-2z"></path>
    </symbol>
    <symbol id="icon-go-previous-rtl-symbolic" viewBox="0 0 32 32">
        <title>go-previous-rtl-symbolic</title>
        <path  d="M9.562 4c-0.941 0.175-1.643 0.99-1.643 1.968 0 0.58 0.247 1.103 0.642 1.468l0.001 0.001 8.563 8.563-8.563 8.563c-0.368 0.368-0.596 0.876-0.596 1.438 0 1.123 0.91 2.033 2.033 2.033 0.561 0 1.070-0.228 1.438-0.596l10-10 1.375-1.438-1.375-1.438-10-10c-0.364-0.377-0.874-0.611-1.439-0.611-0.155 0-0.305 0.018-0.45 0.051l0.013-0.003z"></path>
        <path  d="M8 4h2c-1.105 0-2 0.895-2 2v-2c0 1.105 0.895 2 2 2h-2c1.105 0 2-0.895 2-2v2c0-1.105-0.895-2-2-2z"></path>
        <path  d="M8 26h2c-1.105 0-2 0.895-2 2v-2c0 1.105 0.895 2 2 2h-2c1.105 0 2-0.895 2-2v2c0-1.105-0.895-2-2-2z"></path>
    </symbol>
    <symbol id="icon-go-next-symbolic" viewBox="0 0 32 32">
        <title>go-next-symbolic</title>
        <path  d="M9.562 4c-0.941 0.175-1.643 0.99-1.643 1.968 0 0.58 0.247 1.103 0.642 1.468l0.001 0.001 8.563 8.563-8.563 8.563c-0.368 0.368-0.596 0.876-0.596 1.438 0 1.123 0.91 2.033 2.033 2.033 0.561 0 1.070-0.228 1.438-0.596l10-10 1.375-1.438-1.375-1.438-10-10c-0.364-0.377-0.874-0.611-1.439-0.611-0.155 0-0.305 0.018-0.45 0.051l0.013-0.003z"></path>
        <path  d="M8 4h2c-1.105 0-2 0.895-2 2v-2c0 1.105 0.895 2 2 2h-2c1.105 0 2-0.895 2-2v2c0-1.105-0.895-2-2-2z"></path>
        <path  d="M8 26h2c-1.105 0-2 0.895-2 2v-2c0 1.105 0.895 2 2 2h-2c1.105 0 2-0.895 2-2v2c0-1.105-0.895-2-2-2z"></path>
    </symbol>
    <symbol id="icon-go-next-rtl-symbolic" viewBox="0 0 32 32">
        <title>go-next-rtl-symbolic</title>
        <path  d="M21.75 4c-0.466 0.052-0.877 0.257-1.188 0.563l0-0-10 10-1.375 1.438 1.375 1.438 10 10c0.368 0.368 0.876 0.596 1.438 0.596 1.123 0 2.033-0.91 2.033-2.033 0-0.561-0.228-1.070-0.596-1.438l-8.563-8.563 8.563-8.563c0.392-0.366 0.637-0.886 0.637-1.464 0-1.105-0.896-2-2-2-0.115 0-0.227 0.010-0.336 0.028l0.012-0.002z"></path>
        <path  d="M24 4h-2c1.105 0 2 0.895 2 2v-2c0 1.105-0.895 2-2 2h2c-1.105 0-2-0.895-2-2v2c0-1.105 0.895-2 2-2z"></path>
        <path  d="M24 26h-2c1.105 0 2 0.895 2 2v-2c0 1.105-0.895 2-2 2h2c-1.105 0-2-0.895-2-2v2c0-1.105 0.895-2 2-2z"></path>
    </symbol>
    <symbol id="icon-go-last-symbolic" viewBox="0 0 32 32">
        <title>go-last-symbolic</title>
        <path  d="M7.562 4c-0.941 0.175-1.643 0.99-1.643 1.968 0 0.58 0.247 1.103 0.642 1.468l0.001 0.001 8.563 8.563-8.563 8.563c-0.368 0.368-0.596 0.876-0.596 1.438 0 1.123 0.91 2.033 2.033 2.033 0.561 0 1.070-0.228 1.438-0.596l10-10 1.375-1.438-1.375-1.438-10-10c-0.364-0.377-0.874-0.611-1.439-0.611-0.155 0-0.305 0.018-0.45 0.051l0.013-0.003z"></path>
        <path  d="M22 4h4v24h-4v-24z"></path>
        <path  d="M6 4h2c-1.105 0-2 0.895-2 2v-2c0 1.105 0.895 2 2 2h-2c1.105 0 2-0.895 2-2v2c0-1.105-0.895-2-2-2z"></path>
        <path  d="M6 26h2c-1.105 0-2 0.895-2 2v-2c0 1.105 0.895 2 2 2h-2c1.105 0 2-0.895 2-2v2c0-1.105-0.895-2-2-2z"></path>
    </symbol>
    <symbol id="icon-go-last-rtl-symbolic" viewBox="0 0 32 32">
        <title>go-last-rtl-symbolic</title>
        <path  d="M23.75 4c-0.466 0.052-0.877 0.257-1.188 0.563l0-0-10 10-1.375 1.438 1.375 1.438 10 10c0.368 0.368 0.876 0.596 1.438 0.596 1.123 0 2.033-0.91 2.033-2.033 0-0.561-0.228-1.070-0.596-1.438l-8.563-8.563 8.563-8.563c0.392-0.366 0.637-0.886 0.637-1.464 0-1.105-0.896-2-2-2-0.115 0-0.227 0.010-0.336 0.028l0.012-0.002z"></path>
        <path  d="M10 4h-4v24h4v-24z"></path>
        <path  d="M26 4h-2c1.105 0 2 0.895 2 2v-2c0 1.105-0.895 2-2 2h2c-1.105 0-2-0.895-2-2v2c0-1.105 0.895-2 2-2z"></path>
        <path  d="M26 26h-2c1.105 0 2 0.895 2 2v-2c0 1.105-0.895 2-2 2h2c-1.105 0-2-0.895-2-2v2c0-1.105 0.895-2 2-2z"></path>
    </symbol>
    <symbol id="icon-go-jump-symbolic" viewBox="0 0 32 32">
        <title>go-jump-symbolic</title>
        <path  d="M13 4c-3.842 0-7 3.158-7 7v1h4v-1c0-1.681 1.319-3 3-3s3 1.319 3 3v13h4v-13c0-3.842-3.158-7-7-7z"></path>
        <path  d="M26 18h-2c-0.514 0-1.057 0.26-1.438 0.625l-4.563 4.563-4.563-4.563c-0.381-0.365-0.924-0.625-1.438-0.625h-2v2c0 0.619 0.181 1.105 0.563 1.5l7.438 7.313 7.438-7.313c0.382-0.395 0.563-0.881 0.563-1.5z"></path>
    </symbol>
    <symbol id="icon-go-jump-rtl-symbolic" viewBox="0 0 32 32">
        <title>go-jump-rtl-symbolic</title>
        <path  d="M19 4c-3.842 0-7 3.158-7 7v13h4v-13c0-1.681 1.319-3 3-3s3 1.319 3 3v1h4v-1c0-3.842-3.158-7-7-7z"></path>
        <path  d="M6 18h2c0.514 0 1.057 0.26 1.438 0.625l4.563 4.563 4.563-4.563c0.381-0.365 0.924-0.625 1.438-0.625h2v2c0 0.619-0.181 1.105-0.563 1.5l-7.438 7.313-7.438-7.313c-0.382-0.395-0.563-0.881-0.563-1.5z"></path>
    </symbol>
    <symbol id="icon-go-home-symbolic" viewBox="0 0 32 32">
        <title>go-home-symbolic</title>
        <path  d="M5.574 10.001c-0.901 0.207-1.563 1.002-1.563 1.951 0 0.017 0 0.034 0.001 0.051l-0-0.002v13.996c0 1.104 0.895 1.999 2 2h19.995c1.104-0 1.999-0.895 2-2v0-13.996c0-0.008 0-0.018 0-0.028 0-1.104-0.895-2-2-2s-2 0.895-2 2c0 0.010 0 0.020 0 0.030l-0-0.002v11.997h-15.996v-11.997c0-0.014 0.001-0.031 0.001-0.048 0-1.104-0.895-2-2-2-0.155 0-0.306 0.018-0.451 0.051l0.013-0.003z"></path>
        <path  d="M15.821 2.003c-0.379 0.035-0.721 0.17-1.005 0.379l0.006-0.004-13.996 9.998c-0.503 0.37-0.825 0.96-0.825 1.625 0 1.111 0.901 2.012 2.012 2.012 0.446 0 0.859-0.145 1.193-0.391l-0.006 0.004 12.809-9.123 12.809 9.123c0.328 0.242 0.741 0.388 1.187 0.388 1.111 0 2.012-0.901 2.012-2.012 0-0.665-0.322-1.254-0.819-1.621l-0.006-0.004-13.997-9.998c-0.326-0.24-0.736-0.385-1.179-0.385-0.069 0-0.137 0.004-0.204 0.010l0.008-0.001z"></path>
        <path  d="M12.010 16h5.999v11.997h-5.998v-11.997z"></path>
        <path  d="M30.006 14h2c-1.104 0-2 0.895-2 1.999v-1.999c0 1.104 0.895 1.999 2 1.999h-2c1.104 0 2-0.895 2-1.999v1.999c0-1.104-0.895-1.999-2-1.999z"></path>
        <path  d="M0.013 14h2c-1.104 0-2 0.895-2 1.999v-1.999c0 1.104 0.895 1.999 2 1.999h-2c1.104 0 2-0.895 2-1.999v1.999c0-1.104-0.895-1.999-2-1.999z"></path>
    </symbol>
    <symbol id="icon-go-first-symbolic" viewBox="0 0 32 32">
        <title>go-first-symbolic</title>
        <path  d="M23.75 4c-0.466 0.052-0.877 0.257-1.188 0.563l0-0-10 10-1.375 1.438 1.375 1.438 10 10c0.368 0.368 0.876 0.596 1.438 0.596 1.123 0 2.033-0.91 2.033-2.033 0-0.561-0.228-1.070-0.596-1.438l-8.563-8.563 8.563-8.563c0.392-0.366 0.637-0.886 0.637-1.464 0-1.105-0.896-2-2-2-0.115 0-0.227 0.010-0.336 0.028l0.012-0.002z"></path>
        <path  d="M10 4h-4v24h4v-24z"></path>
        <path  d="M26 4h-2c1.105 0 2 0.895 2 2v-2c0 1.105-0.895 2-2 2h2c-1.105 0-2-0.895-2-2v2c0-1.105 0.895-2 2-2z"></path>
        <path  d="M26 26h-2c1.105 0 2 0.895 2 2v-2c0 1.105-0.895 2-2 2h2c-1.105 0-2-0.895-2-2v2c0-1.105 0.895-2 2-2z"></path>
    </symbol>
    <symbol id="icon-go-first-rtl-symbolic" viewBox="0 0 32 32">
        <title>go-first-rtl-symbolic</title>
        <path  d="M7.562 4c-0.941 0.175-1.643 0.99-1.643 1.968 0 0.58 0.247 1.103 0.642 1.468l0.001 0.001 8.563 8.563-8.563 8.563c-0.368 0.368-0.596 0.876-0.596 1.438 0 1.123 0.91 2.033 2.033 2.033 0.561 0 1.070-0.228 1.438-0.596l10-10 1.375-1.438-1.375-1.438-10-10c-0.364-0.377-0.874-0.611-1.439-0.611-0.155 0-0.305 0.018-0.45 0.051l0.013-0.003z"></path>
        <path  d="M22 4h4v24h-4v-24z"></path>
        <path  d="M6 4h2c-1.105 0-2 0.895-2 2v-2c0 1.105 0.895 2 2 2h-2c1.105 0 2-0.895 2-2v2c0-1.105-0.895-2-2-2z"></path>
        <path  d="M6 26h2c-1.105 0-2 0.895-2 2v-2c0 1.105 0.895 2 2 2h-2c1.105 0 2-0.895 2-2v2c0-1.105-0.895-2-2-2z"></path>
    </symbol>
    <symbol id="icon-go-down-symbolic" viewBox="0 0 32 32">
        <title>go-down-symbolic</title>
        <path  d="M5.562 8c-0.941 0.175-1.643 0.99-1.643 1.968 0 0.58 0.247 1.103 0.642 1.468l0.001 0.001 10 10 1.438 1.375 1.438-1.375 10-10c0.368-0.368 0.596-0.876 0.596-1.438 0-1.123-0.91-2.033-2.033-2.033-0.561 0-1.070 0.228-1.438 0.596l-8.563 8.563-8.563-8.563c-0.364-0.377-0.874-0.611-1.439-0.611-0.155 0-0.305 0.018-0.45 0.051l0.013-0.003z"></path>
        <path  d="M28 8v2c0-1.105-0.895-2-2-2h2c-1.105 0-2 0.895-2 2v-2c0 1.105 0.895 2 2 2h-2c1.105 0 2-0.895 2-2z"></path>
        <path  d="M6 8v2c0-1.105-0.895-2-2-2h2c-1.105 0-2 0.895-2 2v-2c0 1.105 0.895 2 2 2h-2c1.105 0 2-0.895 2-2z"></path>
    </symbol>
    <symbol id="icon-go-bottom-symbolic" viewBox="0 0 32 32">
        <title>go-bottom-symbolic</title>
        <path  d="M5.562 6c-0.941 0.175-1.643 0.99-1.643 1.968 0 0.58 0.247 1.103 0.642 1.468l0.001 0.001 10 10 1.438 1.375 1.438-1.375 10-10c0.368-0.368 0.596-0.876 0.596-1.438 0-1.123-0.91-2.033-2.033-2.033-0.561 0-1.070 0.228-1.438 0.596l-8.563 8.563-8.563-8.563c-0.364-0.377-0.874-0.611-1.439-0.611-0.155 0-0.305 0.018-0.45 0.051l0.013-0.003z"></path>
        <path  d="M28 22v4h-24v-4h24z"></path>
        <path  d="M28 6v2c0-1.105-0.895-2-2-2h2c-1.105 0-2 0.895-2 2v-2c0 1.105 0.895 2 2 2h-2c1.105 0 2-0.895 2-2z"></path>
        <path  d="M6 6v2c0-1.105-0.895-2-2-2h2c-1.105 0-2 0.895-2 2v-2c0 1.105 0.895 2 2 2h-2c1.105 0 2-0.895 2-2z"></path>
    </symbol>
    <symbol id="icon-format-text-underline-symbolic" viewBox="0 0 32 32">
        <title>format-text-underline-symbolic</title>
        <path  d="M8 4v4h12c0.856 0 2 1.228 2 2v2h-10c-1.839 0-3.471 0.768-4.5 1.938s-1.513 2.621-1.5 4.063c0.012 1.441 0.538 2.905 1.563 4.063s2.621 1.938 4.438 1.938h14v-14c0-3.269-2.64-6-6-6h-12zM12 16h10v4h-10c-0.796 0-1.134-0.22-1.438-0.563s-0.558-0.879-0.563-1.438c-0.004-0.559 0.209-1.107 0.5-1.438s0.655-0.563 1.5-0.563z"></path>
        <path  d="M4 26v4h24v-4h-24z"></path>
    </symbol>
    <symbol id="icon-format-text-strikethrough-symbolic" viewBox="0 0 32 32">
        <title>format-text-strikethrough-symbolic</title>
        <path  d="M8 6v4h12c0.856 0 2 1.228 2 2h4c0-3.269-2.64-6-6-6h-12zM6 20c0.012 1.441 0.538 2.905 1.563 4.063s2.621 1.938 4.437 1.938h14v-6h-4v2h-10c-0.796 0-1.134-0.22-1.438-0.563s-0.558-0.879-0.563-1.438h-4z"></path>
        <path  d="M2 14v4h28v-4h-28z"></path>
    </symbol>
    <symbol id="icon-format-text-italic-symbolic" viewBox="0 0 32 32">
        <title>format-text-italic-symbolic</title>
        <path  d="M9 6v4h12c0.856 0 1.188 0.535 0.938 1.438l-0.688 2.563h-10.5c-3.677 0-6.25 2.705-7 5.5-0.375 1.398-0.324 2.958 0.5 4.313s2.496 2.188 4.313 2.188h13.5l0.438-1.438 3.313-12c0.869-3.138-1.452-6.563-4.813-6.563h-12zM10.75 18h9.375l-1.125 4h-10.438c-0.796 0-0.849-0.167-0.938-0.313s-0.162-0.585 0-1.188c0.323-1.205 1.436-2.5 3.125-2.5z"></path>
    </symbol>
    <symbol id="icon-format-text-direction-rtl-symbolic" viewBox="0 0 32 32">
        <title>format-text-direction-rtl-symbolic</title>
        <path  d="M12 0.099v4h12c0.856 0 2 1.228 2 2v2h-10c-1.839 0-3.471 0.768-4.5 1.938s-1.513 2.621-1.5 4.063c0.012 1.441 0.538 2.905 1.563 4.063s2.621 1.938 4.438 1.938h14v-14c0-3.269-2.64-6-6-6h-12zM16 12.099h10v4h-10c-0.796 0-1.134-0.22-1.438-0.563s-0.558-0.879-0.563-1.438c-0.004-0.559 0.209-1.107 0.5-1.438s0.655-0.563 1.5-0.563z"></path>
        <path  d="M8 30l-2-0c-0.531-0-1.061-0.186-1.438-0.562l-4.563-4.563v-1.75l4.563-4.563c0.376-0.376 0.907-0.562 1.438-0.562l2-0v2c0 0.531-0.186 1.061-0.562 1.438l-2.563 2.562 2.563 2.563c0.376 0.376 0.562 0.907 0.562 1.438v2z"></path>
        <path  d="M4 22v4h25.875v-4h-25.875z"></path>
    </symbol>
    <symbol id="icon-format-text-direction-ltr-symbolic" viewBox="0 0 32 32">
        <title>format-text-direction-ltr-symbolic</title>
        <path  d="M4 0v4h12c0.856 0 2 1.228 2 2v2h-10c-1.839 0-3.471 0.768-4.5 1.938s-1.513 2.621-1.5 4.063c0.012 1.441 0.538 2.905 1.563 4.063s2.621 1.938 4.438 1.938h14v-14c0-3.269-2.64-6-6-6h-12zM8 12h10v4h-10c-0.796 0-1.134-0.22-1.438-0.563s-0.558-0.879-0.563-1.438c-0.004-0.559 0.209-1.107 0.5-1.438s0.655-0.563 1.5-0.563z"></path>
        <path  d="M24 30l2-0c0.531-0 1.061-0.186 1.438-0.562l4.563-4.563v-1.75l-4.563-4.563c-0.376-0.376-0.907-0.562-1.438-0.562l-2-0v2c-0 0.531 0.186 1.061 0.562 1.438l2.563 2.562-2.563 2.563c-0.376 0.376-0.563 0.907-0.563 1.438v2z"></path>
        <path  d="M1.875 22v4h26.125v-4h-26.125z"></path>
    </symbol>
    <symbol id="icon-format-text-bold-symbolic" viewBox="0 0 32 32">
        <title>format-text-bold-symbolic</title>
        <path  d="M10 6v4h12c0.856 0 2 1.228 2 2v2h-10c-1.839 0-3.471 0.768-4.5 1.938s-1.513 2.621-1.5 4.063c0.012 1.441 0.538 2.905 1.563 4.063s2.621 1.938 4.438 1.938h14v-14c0-3.269-2.64-6-6-6h-12zM14 18h10v4h-10c-0.796 0-1.134-0.22-1.438-0.563s-0.558-0.879-0.563-1.438c-0.004-0.559 0.209-1.107 0.5-1.438s0.655-0.563 1.5-0.563z"></path>
        <path  d="M8 6v4h10c0.856 0 2 1.228 2 2v2h-10c-1.839 0-3.471 0.768-4.5 1.938s-1.513 2.621-1.5 4.063c0.012 1.441 0.538 2.905 1.563 4.063s2.621 1.938 4.438 1.938h14v-14c0-3.269-2.64-6-6-6h-10zM10 18h10v4h-10c-0.796 0-1.134-0.22-1.438-0.563s-0.558-0.879-0.563-1.438c-0.004-0.559 0.209-1.107 0.5-1.438s0.655-0.563 1.5-0.563z"></path>
    </symbol>
    <symbol id="icon-format-justify-right-symbolic" viewBox="0 0 32 32">
        <title>format-justify-right-symbolic</title>
        <path  d="M10 6h15.999v4h-15.999v-4z"></path>
        <path  d="M6 14h19.999v4h-19.999v-4z"></path>
        <path  d="M18 22h8v4h-8v-4z"></path>
    </symbol>
    <symbol id="icon-format-justify-left-symbolic" viewBox="0 0 32 32">
        <title>format-justify-left-symbolic</title>
        <path  d="M6 6h15.999v4h-15.999v-4z"></path>
        <path  d="M6 14h19.999v4h-19.999v-4z"></path>
        <path  d="M6 22h7.999v4h-7.999v-4z"></path>
    </symbol>
    <symbol id="icon-format-justify-fill-symbolic" viewBox="0 0 32 32">
        <title>format-justify-fill-symbolic</title>
        <path  d="M6 6h19.999v4h-19.999v-4z"></path>
        <path  d="M6 14h19.999v4h-19.999v-4z"></path>
        <path  d="M6 22h19.999v4h-19.999v-4z"></path>
    </symbol>
    <symbol id="icon-format-justify-center-symbolic" viewBox="0 0 32 32">
        <title>format-justify-center-symbolic</title>
        <path  d="M8 6h15.999v4h-15.999v-4z"></path>
        <path  d="M6 14h19.999v4h-19.999v-4z"></path>
        <path  d="M12 22h7.999v4h-7.999v-4z"></path>
    </symbol>
    <symbol id="icon-format-indent-more-symbolic" viewBox="0 0 32 32">
        <title>format-indent-more-symbolic</title>
        <path  d="M16 6h10v4h-10v-4z"></path>
        <path  d="M16 14h12v4h-12v-4z"></path>
        <path  d="M4 22h13.999v4h-13.999v-4z"></path>
        <path  d="M4 6v2c0 0.514 0.26 1.057 0.625 1.438l2.563 2.563-2.563 2.563c-0.365 0.381-0.625 0.924-0.625 1.438v2h2c0.619 0 1.105-0.181 1.5-0.563l5.312-5.438-5.313-5.438c-0.395-0.382-0.881-0.563-1.5-0.563h-2z"></path>
    </symbol>
    <symbol id="icon-format-indent-more-rtl-symbolic" viewBox="0 0 32 32">
        <title>format-indent-more-rtl-symbolic</title>
        <path  d="M16 6h-10v4h10v-4z"></path>
        <path  d="M16 14h-12v4h12v-4z"></path>
        <path  d="M28 22h-13.999v4h13.999v-4z"></path>
        <path  d="M28 6v2c0 0.514-0.26 1.057-0.625 1.438l-2.563 2.563 2.563 2.563c0.365 0.381 0.625 0.924 0.625 1.438v2h-2c-0.619 0-1.105-0.181-1.5-0.563l-5.313-5.438 5.313-5.438c0.395-0.382 0.881-0.563 1.5-0.563h2z"></path>
    </symbol>
    <symbol id="icon-format-indent-less-symbolic" viewBox="0 0 32 32">
        <title>format-indent-less-symbolic</title>
        <path  d="M14 6h-10v4h10v-4z"></path>
        <path  d="M16 14h-12v4h12v-4z"></path>
        <path  d="M28 22h-13.999v4h13.999v-4z"></path>
        <path  d="M28 6v2c0 0.514-0.26 1.057-0.625 1.438l-2.563 2.563 2.563 2.563c0.365 0.381 0.625 0.924 0.625 1.438v2h-2c-0.619 0-1.105-0.181-1.5-0.563l-5.313-5.438 5.313-5.438c0.395-0.382 0.881-0.563 1.5-0.563h2z"></path>
    </symbol>
    <symbol id="icon-format-indent-less-rtl-symbolic" viewBox="0 0 32 32">
        <title>format-indent-less-rtl-symbolic</title>
        <path  d="M16 6h10v4h-10v-4z"></path>
        <path  d="M16 14h12v4h-12v-4z"></path>
        <path  d="M4 22h13.999v4h-13.999v-4z"></path>
        <path  d="M4 6v2c0 0.514 0.26 1.057 0.625 1.438l2.563 2.563-2.563 2.563c-0.365 0.381-0.625 0.924-0.625 1.438v2h2c0.619 0 1.105-0.181 1.5-0.563l5.312-5.438-5.313-5.438c-0.395-0.382-0.881-0.563-1.5-0.563h-2z"></path>
    </symbol>
    <symbol id="icon-find-location-symbolic" viewBox="0 0 32 32">
        <title>find-location-symbolic</title>
        <path  d="M14.815 0.016c-0.458 0.087-0.821 0.533-0.812 1v1.187c-6.321 0.492-11.352 5.506-11.874 11.812h-1c-0.062-0.006-0.125-0.006-0.187 0-0.524 0.048-0.987 0.6-0.937 1.125s0.601 0.926 1.125 0.875h1c0.465 6.364 5.511 11.504 11.874 11.999v1c-0.008 0.528 0.473 1.062 1 1.062s1.007-0.534 1-1.062v-1c6.405-0.475 11.5-5.654 11.937-12.062h1.062c0.527 0.008 1-0.472 1-1s-0.473-1.007-1-1h-1.062c-0.552-6.292-5.615-11.28-11.937-11.749v-1.187c0.010-0.592-0.607-1.111-1.187-1zM15.003 6.141c4.984 0 8.999 3.959 8.999 8.937s-4.015 8.999-8.999 8.999c-0.043 0-0.083 0.001-0.125 0-4.925-0.067-8.812-4.064-8.812-8.999 0.001-0.020 0-0.043 0-0.062 0.034-4.949 3.974-8.874 8.937-8.874z"></path>
        <path  d="M22.032 15.033c0 3.876-3.137 7.017-7.006 7.017s-7.006-3.142-7.006-7.017v0c0-3.876 3.137-7.017 7.006-7.017s7.006 3.142 7.006 7.017v0z"></path>
    </symbol>
    <symbol id="icon-edit-undo-symbolic" viewBox="0 0 32 32">
        <title>edit-undo-symbolic</title>
        <path  d="M8 12v4h13c1.681 0 3 1.319 3 3s-1.319 3-3 3h-1v4h1c3.842 0 7-3.158 7-7s-3.158-7-7-7h-13z"></path>
        <path  d="M14 6.044v2c0 0.514-0.26 1.057-0.625 1.438l-4.563 4.563 4.563 4.563c0.365 0.381 0.625 0.924 0.625 1.438v2h-2c-0.619 0-1.105-0.181-1.5-0.563l-7.313-7.438 7.313-7.438c0.395-0.382 0.881-0.563 1.5-0.563z"></path>
    </symbol>
    <symbol id="icon-edit-undo-rtl-symbolic" viewBox="0 0 32 32">
        <title>edit-undo-rtl-symbolic</title>
        <path  d="M11 12c-3.842 0-7 3.158-7 7s3.158 7 7 7h1v-4h-1c-1.681 0-3-1.319-3-3s1.319-3 3-3h13v-4h-13z"></path>
        <path  d="M18 6v2c0 0.514 0.26 1.057 0.625 1.438l4.563 4.563-4.563 4.563c-0.365 0.381-0.625 0.924-0.625 1.438v2h2c0.619 0 1.105-0.181 1.5-0.563l7.313-7.438-7.313-7.438c-0.395-0.382-0.881-0.563-1.5-0.563z"></path>
    </symbol>
    <symbol id="icon-edit-select-symbolic" viewBox="0 0 32 32">
        <title>edit-select-symbolic</title>
        <path  d="M4 10v2c0 0.514 0.26 1.057 0.625 1.438l2.563 2.563-2.563 2.563c-0.365 0.381-0.625 0.924-0.625 1.438v2h2c0.619 0 1.105-0.181 1.5-0.563l5.312-5.438-5.313-5.438c-0.395-0.382-0.881-0.563-1.5-0.563h-2z"></path>
        <path  d="M28 10v2c0 0.514-0.26 1.057-0.625 1.438l-2.563 2.563 2.563 2.563c0.365 0.381 0.625 0.924 0.625 1.438v2h-2c-0.619 0-1.105-0.181-1.5-0.563l-5.313-5.438 5.313-5.438c0.395-0.382 0.881-0.563 1.5-0.563h2z"></path>
    </symbol>
    <symbol id="icon-edit-select-all-symbolic" viewBox="0 0 32 32">
        <title>edit-select-all-symbolic</title>
        <path  d="M5.866 2.001c-1.015 0.079-1.883 1.035-1.865 2.054v25.891c-0.016 1.080 0.973 2.070 2.052 2.054h19.896c1.079 0.016 2.067-0.974 2.052-2.054v-19.916c-0.008-0.534-0.237-1.062-0.622-1.431l-5.969-5.975c-0.369-0.385-0.896-0.615-1.43-0.622h-13.927c-0.062-0.002-0.124-0.002-0.187 0zM8.042 6.109h11.938v3.983h-11.938zM8.042 14.076h15.917v3.983h-15.917zM8.042 22.042h15.917v3.983h-15.917z"></path>
    </symbol>
    <symbol id="icon-edit-redo-symbolic" viewBox="0 0 32 32">
        <title>edit-redo-symbolic</title>
        <path  d="M11 12c-3.842 0-7 3.158-7 7s3.158 7 7 7h1v-4h-1c-1.681 0-3-1.319-3-3s1.319-3 3-3h13v-4h-13z"></path>
        <path  d="M18 6v2c0 0.514 0.26 1.057 0.625 1.438l4.563 4.563-4.563 4.563c-0.365 0.381-0.625 0.924-0.625 1.438v2h2c0.619 0 1.105-0.181 1.5-0.563l7.313-7.438-7.313-7.438c-0.395-0.382-0.881-0.563-1.5-0.563z"></path>
    </symbol>
    <symbol id="icon-edit-redo-rtl-symbolic" viewBox="0 0 32 32">
        <title>edit-redo-rtl-symbolic</title>
        <path  d="M8 12v4h13c1.681 0 3 1.319 3 3s-1.319 3-3 3h-1v4h1c3.842 0 7-3.158 7-7s-3.158-7-7-7h-13z"></path>
        <path  d="M14 6.044v2c0 0.514-0.26 1.057-0.625 1.438l-4.563 4.563 4.563 4.563c0.365 0.381 0.625 0.924 0.625 1.438v2h-2c-0.619 0-1.105-0.181-1.5-0.563l-7.313-7.438 7.313-7.438c0.395-0.382 0.881-0.563 1.5-0.563z"></path>
    </symbol>
    <symbol id="icon-edit-paste-symbolic" viewBox="0 0 32 32">
        <title>edit-paste-symbolic</title>
        <path  d="M8.061 10.064v13.935h9.998l3.981-3.973-0.044-9.961-13.935-0z"></path>
        <path  d="M11.059 0.003h8.002c0.586 0 1.060 0.475 1.060 1.060v5.878c0 0.586-0.475 1.060-1.060 1.060h-8.002c-0.586 0-1.060-0.475-1.060-1.060v-5.878c0-0.586 0.475-1.060 1.060-1.060z"></path>
        <path  d="M4.999 2.003c-0.586 0-1.293 0.072-2 0.625s-1.062 1.537-1.062 2.25v24.058c0 0.768 0.255 1.63 0.875 2.25 0.571 0.571 1.418 0.772 2.187 0.75v0.063h19.934c0.726 0 1.52-0.256 2.125-0.812s0.937-1.421 0.937-2.25v-24.183c0-0.667-0.238-1.459-0.812-2s-1.338-0.75-1.937-0.75h-3.312v3.999h2.062v21.996h-18.059v-21.996h1.937v-3.999h-2.874z"></path>
    </symbol>
    <symbol id="icon-edit-find-symbolic" viewBox="0 0 32 32">
        <title>edit-find-symbolic</title>
        <path  d="M13.015 2.054c-6.058 0-11.021 4.958-11.021 11.009s4.964 11.009 11.021 11.009c6.058 0 11.021-4.958 11.021-11.009s-4.964-11.009-11.021-11.009zM13.015 6.071c3.895 0 6.999 3.101 6.999 6.991s-3.104 6.991-6.999 6.991c-3.895 0-6.999-3.101-6.999-6.991s3.104-6.991 6.999-6.991z"></path>
        <path  d="M19.625 18.063c-0.941 0.175-1.643 0.99-1.643 1.968 0 0.58 0.247 1.103 0.642 1.468l0.001 0.001 8 8c0.362 0.355 0.859 0.574 1.407 0.574 1.111 0 2.011-0.9 2.011-2.011 0-0.563-0.232-1.072-0.605-1.438l-0-0-8-8c-0.363-0.37-0.869-0.6-1.428-0.6-0.136 0-0.269 0.014-0.397 0.039l0.013-0.002z"></path>
    </symbol>
    <symbol id="icon-edit-delete-symbolic" viewBox="0 0 32 32">
        <title>edit-delete-symbolic</title>
        <path  d="M16 2.063c-7.707 0-13.938 6.231-13.938 13.938s6.231 13.938 13.938 13.938c7.707 0 13.938-6.231 13.938-13.938s-6.231-13.938-13.938-13.938zM10 10h2c0.021-0 0.042-0.001 0.063 0 0.51 0.022 1.020 0.257 1.375 0.625l2.563 2.563 2.625-2.563c0.531-0.461 0.893-0.611 1.375-0.625h2v2c0 0.573-0.069 1.101-0.5 1.5l-2.563 2.563 2.5 2.5c0.376 0.376 0.562 0.907 0.563 1.438v2h-2c-0.531-0-1.061-0.186-1.438-0.563l-2.563-2.563-2.563 2.563c-0.376 0.376-0.907 0.563-1.438 0.563h-2v-2c0-0.531 0.186-1.061 0.563-1.438l2.563-2.5-2.563-2.563c-0.421-0.389-0.606-0.938-0.563-1.5v-2z"></path>
    </symbol>
    <symbol id="icon-edit-cut-symbolic" viewBox="0 0 32 32">
        <title>edit-cut-symbolic</title>
        <path  d="M7 17.974c-3.809 0-6.985 3.15-6.985 7.026s3.175 7.026 6.985 7.026c3.809 0 6.985-3.15 6.985-7.026s-3.175-7.026-6.985-7.026zM7 22.026c1.714 0 3.015 1.327 3.015 2.974s-1.302 2.974-3.015 2.974c-1.714 0-3.015-1.327-3.015-2.974s1.302-2.974 3.015-2.974z"></path>
        <path  d="M25 17.974c-3.809 0-6.985 3.15-6.985 7.026s3.175 7.026 6.985 7.026c3.809 0 6.985-3.15 6.985-7.026s-3.175-7.026-6.985-7.026zM25 22.026c1.714 0 3.015 1.327 3.015 2.974s-1.302 2.974-3.015 2.974c-1.714 0-3.015-1.327-3.015-2.974s1.302-2.974 3.015-2.974z"></path>
        <path  d="M6.192 0c-2.121 1.108-2.813 3.518-1.589 5.438l8.841 14.563-3.493 4.736 2.828 4.17 3.22-4.969 3.157 4.969 2.802-3.994-3.404-4.913 8.841-14.563c1.224-1.919 0.532-4.33-1.589-5.438l-9.808 16-9.808-16z"></path>
    </symbol>
    <symbol id="icon-edit-copy-symbolic" viewBox="0 0 32 32">
        <title>edit-copy-symbolic</title>
        <path  d="M14 14v13.937h10l3.982-3.974-0.044-9.963-13.938-0z"></path>
        <path  d="M4 4v15.937l8 0.063v-8h6l-0.063-8-13.938-0z"></path>
    </symbol>
    <symbol id="icon-edit-clear-symbolic" viewBox="0 0 32 32">
        <title>edit-clear-symbolic</title>
        <path  d="M12 4l-12 12 12 12h18.071c1.061-0.044 1.929-0.984 1.929-2v-20c0-1.062-0.691-2-2.018-2h-17.982zM14 10h2c0.021-0 0.042-0.001 0.063 0 0.51 0.022 1.020 0.257 1.375 0.625l2.562 2.563 2.625-2.563c0.531-0.461 0.893-0.611 1.375-0.625h2v2c0 0.573-0.069 1.101-0.5 1.5l-2.563 2.563 2.5 2.5c0.376 0.376 0.562 0.907 0.563 1.438v2h-2c-0.531-0-1.061-0.186-1.438-0.563l-2.563-2.563-2.563 2.563c-0.376 0.376-0.907 0.563-1.438 0.563h-2v-2c0-0.531 0.186-1.061 0.563-1.438l2.563-2.5-2.563-2.563c-0.421-0.389-0.606-0.938-0.563-1.5v-2z"></path>
    </symbol>
    <symbol id="icon-edit-clear-rtl-symbolic" viewBox="0 0 32 32">
        <title>edit-clear-rtl-symbolic</title>
        <path  d="M20 4l12 12-12 12h-18.071c-1.061-0.044-1.929-0.984-1.929-2v-20c0-1.062 0.691-2 2.018-2h17.982zM18 10h-2c-0.021-0-0.042-0.001-0.063 0-0.51 0.022-1.020 0.257-1.375 0.625l-2.562 2.563-2.625-2.563c-0.531-0.461-0.893-0.611-1.375-0.625h-2v2c0 0.573 0.069 1.101 0.5 1.5l2.563 2.563-2.5 2.5c-0.376 0.376-0.562 0.907-0.563 1.438v2h2c0.531-0 1.061-0.186 1.438-0.563l2.563-2.563 2.563 2.563c0.376 0.376 0.907 0.563 1.438 0.563h2v-2c0-0.531-0.186-1.061-0.563-1.438l-2.563-2.5 2.563-2.563c0.421-0.389 0.606-0.938 0.563-1.5v-2z"></path>
    </symbol>
    <symbol id="icon-edit-clear-all-symbolic" viewBox="0 0 32 32">
        <title>edit-clear-all-symbolic</title>
        <path  d="M21.75 0.125c-0.596 0.117-1.089 0.487-1.37 0.99l-0.005 0.010-6.625 11.25c-0.167 0.287-0.266 0.632-0.266 1 0 1.113 0.902 2.016 2.016 2.016 0.745 0 1.396-0.404 1.745-1.006l0.005-0.010 6.625-11.25c0.185-0.297 0.294-0.658 0.294-1.044 0-1.105-0.896-2-2-2-0.148 0-0.293 0.016-0.432 0.047l0.013-0.002z"></path>
        <path  d="M11.063 9.438l9.895 6.108c1.207 0.629 1.375 1.784 0.418 3.017l-1.25 1.625-13.188-7.75 1.102-2.123c0.578-1.17 1.509-1.632 3.023-0.877z"></path>
        <path  d="M7.11 15.155c0 0-5.709 6.072-2.665 9.398 3.375 3.688 9.516 3.535 11.726 3.446h8.017c-3.75-0.75-7.674-3.631-5.805-6.489z"></path>
    </symbol>
    <symbol id="icon-document-send-symbolic" viewBox="0 0 32 32">
        <title>document-send-symbolic</title>
        <path  d="M5.873 1.998c-1.264 0.091-2.053 1.44-1.873 2.622 0.006 8.491 0.042 16.983 0.062 25.473 0.114 1.248 1.383 2.051 2.56 1.873 6.499-0.006 12.981-0.043 19.48-0.062 1.247-0.114 2.051-1.382 1.873-2.56-0.009-6.505-0.032-13.038-0.062-19.542-0.188-1.195-1.329-1.826-2.060-2.685-1.603-1.577-3.106-3.208-4.745-4.745-0.98-0.606-2.219-0.291-3.309-0.375h-11.925zM15.988 9.115l7.43 7.43c0.376 0.376 0.562 0.906 0.562 1.436v1.998h-1.998c-0.53 0-1.060-0.186-1.436-0.562l-2.56-2.56 0.062 11.238-4.246 0.125 0.125-11.301-2.497 2.497c-0.376 0.376-0.906 0.562-1.436 0.562h-1.998v-1.998c0-0.53 0.186-1.060 0.562-1.436l7.43-7.43z"></path>
    </symbol>
    <symbol id="icon-document-save-symbolic" viewBox="0 0 32 32">
        <title>document-save-symbolic</title>
        <path  d="M8.813 18c-0.264 0.060-0.483 0.219-0.623 0.434l-0.002 0.004-2 3c-0.17 0.179-0.275 0.422-0.275 0.689 0 0.552 0.448 1 1 1 0.394 0 0.734-0.227 0.897-0.558l0.003-0.006 2-3c0.116-0.161 0.185-0.362 0.185-0.58 0-0.552-0.448-1-1-1-0.065 0-0.129 0.006-0.191 0.018l0.006-0.001zM22.813 18c-0.465 0.092-0.811 0.497-0.811 0.982 0 0.218 0.070 0.419 0.188 0.583l-0.002-0.003 2 3c0.166 0.337 0.506 0.564 0.9 0.564 0.552 0 1-0.448 1-1 0-0.267-0.105-0.51-0.276-0.689l0 0-2-3c-0.181-0.273-0.488-0.451-0.836-0.451-0.058 0-0.115 0.005-0.17 0.014l0.006-0.001z"></path>
        <path  d="M14 2v11.125l-2.563-2.563c-0.376-0.376-0.907-0.562-1.438-0.563h-2v2c0 0.531 0.186 1.061 0.563 1.438l6.563 6.563h1.75l6.563-6.563c0.376-0.376 0.562-0.907 0.563-1.438v-2h-2c-0.531 0-1.061 0.186-1.438 0.563l-2.563 2.563v-11.125z"></path>
        <path  d="M6 22v8h20v-8zM12.688 24.875c0.042-0.002 0.083-0.002 0.125 0 0.582-0.111 1.198 0.408 1.188 1v0.125h4v-0.125c-0.008-0.528 0.472-1.014 1-1.014s1.007 0.486 1 1.014v0.125c0 1.091-0.909 2-2 2h-4c-1.091 0-2-0.909-2-2v-0.125c-0.022-0.434 0.274-0.865 0.688-1z"></path>
    </symbol>
    <symbol id="icon-document-save-as-symbolic" viewBox="0 0 32 32">
        <title>document-save-as-symbolic</title>
        <path  d="M8 10v2c0 0.531 0.186 1.061 0.563 1.438l6.563 6.563h1.75l6.563-6.563c0.376-0.376 0.562-0.907 0.563-1.438v-2h-2c-0.531 0-1.061 0.186-1.438 0.563l-4.563 4.563-4.563-4.563c-0.376-0.376-0.907-0.562-1.438-0.563h-2z"></path>
        <path  d="M14 6v10h4v-10h-4z"></path>
        <path  d="M6 22v8h20v-8zM12.688 24.875c0.042-0.002 0.083-0.002 0.125 0 0.582-0.111 1.198 0.408 1.188 1v0.125h4v-0.125c-0.008-0.528 0.472-1.014 1-1.014s1.007 0.486 1 1.014v0.125c0 1.091-0.909 2-2 2h-4c-1.091 0-2-0.909-2-2v-0.125c-0.022-0.434 0.274-0.865 0.688-1z"></path>
        <path  d="M6 0c-1.091 0-2 0.909-2 2v4c0 1.091 0.909 2 2 2h20c1.091 0 2-0.909 2-2v-4c0-1.091-0.909-2-2-2h-20zM6 2h20v4h-20v-4z"></path>
        <path  d="M8.812 18c-0.264 0.060-0.483 0.219-0.623 0.434l-0.002 0.004-2 3c-0.17 0.179-0.275 0.422-0.275 0.689 0 0.552 0.448 1 1 1 0.394 0 0.734-0.227 0.897-0.558l0.003-0.006 2-3c0.116-0.161 0.185-0.362 0.185-0.58 0-0.552-0.448-1-1-1-0.065 0-0.129 0.006-0.191 0.018l0.006-0.001zM22.812 18c-0.465 0.092-0.811 0.497-0.811 0.982 0 0.218 0.070 0.419 0.188 0.583l-0.002-0.003 2 3c0.166 0.337 0.506 0.564 0.9 0.564 0.552 0 1-0.448 1-1 0-0.267-0.105-0.51-0.276-0.689l0 0-2-3c-0.181-0.273-0.488-0.451-0.836-0.451-0.058 0-0.115 0.005-0.17 0.014l0.006-0.001z"></path>
    </symbol>
    <symbol id="icon-document-properties-symbolic" viewBox="0 0 32 32">
        <title>document-properties-symbolic</title>
        <path  d="M13.985 27.971h-5.931v-21.977h9.116l6.805 6.805v11.145l3.996 6.025v-18.044c-0.004-0.536-0.235-1.067-0.624-1.436l-7.929-7.867c-0.369-0.389-0.9-0.62-1.436-0.624h-11.925c-1.046 0-1.998 0.952-1.998 1.998v25.911c0 1.046 0.952 1.998 1.998 1.998h10.021z"></path>
        <path  d="M18.020 15.709c-0.649-0.118-1.332-0.091-1.986-0.006l1.95 3.454c0.401 0.709-0.047 1.524-0.899 2.016l-1.538 0.888c-0.86 0.478-1.818 0.415-2.219-0.295l-1.949-3.454c-0.413 0.512-0.791 1.080-1.027 1.694-1.13 2.938 0.473 5.777 3.579 6.342 0.649 0.118 1.332 0.091 1.986 0.006 0.053-0.008 3.034 5.524 3.034 5.524l7.002 0.124-5.329-8.251c0.413-0.512 0.741-1.086 0.977-1.7 1.13-2.938-0.473-5.777-3.579-6.342z"></path>
    </symbol>
    <symbol id="icon-document-page-setup-symbolic" viewBox="0 0 32 32">
        <title>document-page-setup-symbolic</title>
        <path  d="M4 12v14h24.040zM8 18.107l6.231 3.955h-6.231z"></path>
        <path  d="M6.032 2.029c-1.047 0-2 0.953-2 2v5.125l4 2.375v-5.5h9.125l6.813 6.813v7.25l4 2.375v-10.5c-0.004-0.537-0.235-1.068-0.625-1.438l-7.938-7.875c-0.369-0.39-0.901-0.621-1.438-0.625zM4.032 28.029v1.938c0 1.047 0.953 2 2 2h19.938c1.047-0 2-0.953 2-2v-1.938z"></path>
    </symbol>
    <symbol id="icon-document-open-symbolic" viewBox="0 0 32 32">
        <title>document-open-symbolic</title>
        <path  d="M1.063 10c-0.578 0-1.063 0.484-1.063 1.063v19.875c0 0.597 0.465 1.062 1.063 1.062h27.625c0.597 0 1.063-0.465 1.063-1.062l2.25-9.832c0-0.578-0.484-1.062-1.063-1.062h-23.188l-1.75 6.957c0 0.554-0.446 1-1 1s-1-0.446-1-1v-9.993c0-0.554 0.446-1 1-1h0.932v-6.007z"></path>
        <path  d="M9.625 2c-0.917 0.175-1.641 1.067-1.625 2v14h4v-12h8v6h6v6h4v-6.875c0.012-0.528-0.195-1.058-0.563-1.438l-7.125-7.125c-0.38-0.367-0.909-0.575-1.438-0.563h-10.875c-0.062-0.002-0.125-0.002-0.187 0-0.062-0.002-0.125-0.002-0.187 0z"></path>
    </symbol>
    <symbol id="icon-document-open-recent-symbolic" viewBox="0 0 32 32">
        <title>document-open-recent-symbolic</title>
        <path  d="M15 0.027c-8.261 0-14.973 6.713-14.973 14.973s6.713 14.973 14.973 14.973c8.261 0 14.973-6.713 14.973-14.973s-6.713-14.973-14.973-14.973zM15 3.973c6.099 0 11.027 4.928 11.027 11.027s-4.928 11.027-11.027 11.027c-6.099 0-11.027-4.928-11.027-11.027s4.928-11.027 11.027-11.027z"></path>
        <path  d="M20.813 8c-0.201 0.054-0.371 0.164-0.499 0.311l-0.001 0.001-5.313 5.313-3.313-3.313c-0.179-0.289-0.494-0.478-0.853-0.478-0.552 0-1 0.448-1 1 0 0.359 0.19 0.674 0.474 0.851l0.004 0.002 4 4c0.179 0.17 0.421 0.274 0.688 0.274s0.509-0.104 0.688-0.274l-0 0 6-6c0.177-0.18 0.286-0.428 0.286-0.7 0-0.552-0.448-1-1-1-0.057 0-0.113 0.005-0.167 0.014l0.006-0.001z"></path>
    </symbol>
    <symbol id="icon-content-loading-symbolic" viewBox="0 0 32 32">
        <title>content-loading-symbolic</title>
        <path  d="M10 16c0 2.209-1.791 4-4 4s-4-1.791-4-4v0c0-2.209 1.791-4 4-4s4 1.791 4 4v0z"></path>
        <path  d="M20 16c0 2.209-1.791 4-4 4s-4-1.791-4-4v0c0-2.209 1.791-4 4-4s4 1.791 4 4v0z"></path>
        <path  d="M30 16c0 2.209-1.791 4-4 4s-4-1.791-4-4v0c0-2.209 1.791-4 4-4s4 1.791 4 4v0z"></path>
    </symbol>
    <symbol id="icon-call-start-symbolic" viewBox="0 0 32 32">
        <title>call-start-symbolic</title>
        <path  d="M24.601 4.003c-1.543 0.086-2.666 1.369-3.632 2.444-0.933 1.204-1.885 2.518-2.148 4.051-0.001 0.458 0.568 0.681 0.817 1.037 0.942 0.847 1.911 2.135 1.313 3.453-0.843 1.674-2.436 2.784-3.665 4.158-0.995 0.999-2.27 2.358-3.824 1.782-1.153-0.438-1.831-1.501-2.73-2.226-1.243 0.096-2.34 0.868-3.38 1.505-1.333 0.967-2.713 2.154-3.197 3.786-0.284 1.299 1.080 1.997 1.925 2.681 2.108 1.527 4.941 1.729 7.35 0.855 3.881-1.378 7.008-4.247 9.763-7.218 2.354-2.677 4.602-5.816 4.903-9.479 0.207-2.576-1.106-5.131-3.091-6.713l-0.2-0.079-0.204-0.036z"></path>
    </symbol>
    <symbol id="icon-call-end-symbolic" viewBox="0 0 32 32">
        <title>call-end-symbolic</title>
        <path  d="M6.688 7.042c-2.404 0.576-3.986 2.197-4.375 4.875-0.107 1.126-0.56 2.69 0.5 3.438 1.416 0.846 3.148 0.707 4.688 0.438 1.123-0.297 1.603-0.405 2.5-1.25 0 0-0.104-2.141 0.375-3.313 3.862-1.621 7.62-1.501 11.375 0 0.479 1.172 0.375 3.313 0.375 3.313 0.897 0.845 1.377 0.953 2.5 1.25 1.539 0.27 3.271 0.409 4.688-0.438 1.060-0.748 0.607-2.312 0.5-3.438-0.389-2.678-1.971-4.299-4.375-4.875-6.276-1.182-12.553-1.449-18.75 0z"></path>
        <path  d="M22 22h-2c-0.514 0-1.057 0.26-1.438 0.625l-2.562 2.562-2.563-2.563c-0.38-0.366-0.924-0.625-1.438-0.625h-2l-0 2c0 0.619 0.181 1.105 0.563 1.5l5.437 5.313 5.437-5.313c0.382-0.395 0.563-0.881 0.563-1.5v-2z"></path>
    </symbol>
    <symbol id="icon-bookmark-new-symbolic" viewBox="0 0 32 32">
        <title>bookmark-new-symbolic</title>
        <path  d="M16 1.375c-2.001-0.008-3.126 7.081-4.75 8.25s-8.687-0.025-9.313 1.875c-0.626 1.901 5.764 5.157 6.375 7.063s-2.676 8.256-1.063 9.438c1.614 1.182 6.686-3.883 8.688-3.875s7.002 5.169 8.625 4c1.623-1.17-1.626-7.599-1-9.5s7.048-5.095 6.438-7c-0.611-1.905-7.698-0.755-9.313-1.938s-2.687-8.305-4.688-8.313zM14 10h4v4h4v4h-4v4h-4v-4h-4v-4h4z"></path>
    </symbol>
    <symbol id="icon-bookmark-add-symbolic" viewBox="0 0 32 32">
        <title>bookmark-add-symbolic</title>
        <path  d="M4 0v26l8-8 8 8v-10h-4v-8h4v-8z"></path>
        <path  d="M22 6v4h-4v4h4v4h4v-4h4v-4h-4v-4h-4z"></path>
    </symbol>
    <symbol id="icon-action-unavailable-symbolic" viewBox="0 0 32 32">
        <title>action-unavailable-symbolic</title>
        <path  d="M16 2.063c-7.72 0-14 6.311-14 14s6.28 13.938 14 13.938c7.72 0 14-6.249 14-13.938s-6.28-14-14-14zM16 6.063c2.146 0 4.124 0.741 5.75 1.875l-13.875 13.875c-1.168-1.621-1.875-3.582-1.875-5.75 0-5.531 4.446-10 10-10zM24.5 10.813c0.956 1.53 1.563 3.306 1.563 5.25 0 5.531-4.509 9.938-10.063 9.938-1.914 0-3.67-0.591-5.188-1.5l13.688-13.688z"></path>
    </symbol>
</defs>
</svg>
