<svg
xmlns="http://www.w3.org/2000/svg"
xmlns:rdf="http://www.w3.org/1999/02/22-rdf-syntax-ns#"
xmlns:dc="http://purl.org/dc/elements/1.1/"
xmlns:cc="http://creativecommons.org/ns#"
width="720"
height="1008"
viewBox="0,0,720,1008"
version="1.1"
style="fill:black;stroke:none">
<title>Gnome Icon Theme Symbolic [Mimetypes Set]</title>
<desc> This package contains a set of icons used by the GNOME desktop. The icons are used in the panel menu, and in nautilus and other applications, to represent the different applications, files, directories, and devices.</desc>
<metadata>
  <rdf:RDF>
  <cc:Work rdf:about="">
  <dc:format>image/svg+xml</dc:format>
  <dc:type rdf:resource="http://purl.org/dc/dcmitype/StillImage" />
  <dc:title>Gnome Icon Theme Symbolic [Mimetypes Set]</dc:title>
  <dc:date>2017-12-09</dc:date>
  <dc:creator>
  <cc:Agent>
  <dc:title>Gnome</dc:title>
</cc:Agent>
</dc:creator>
<dc:rights>
<cc:Agent>
<dc:title>Creative Commons - Attribution Share Alike</dc:title>
</cc:Agent>
</dc:rights>
<dc:language>English</dc:language>

<dc:source>https://launchpad.net/gnome-icon-theme-symbolic</dc:source>
<dc:description>This package contains a set of icons used by the GNOME desktop. The icons are used in the panel menu, and in nautilus and other applications, to represent the different applications, files, directories, and devices.</dc:description>
</cc:Work>
</rdf:RDF>
</metadata>
<defs>
  <symbol id="icon-x-office-calendar-symbolic" viewBox="0 0 32 32">
    <title>x-office-calendar-symbolic</title>
    <path d="M4 0c-2.105 0-4 1.69-4 3.875v22.25c0 2.185 1.895 3.875 4 3.875h22c2.105 0 4-1.69 4-3.875v-22.25c0-2.185-1.895-3.875-4-3.875h-22zM4 10h6.063v4h-6.063v-4zM12.063 10h5.938v4h-5.938v-4zM20 10h6v4h-6v-4zM4 16h6.063v4h-6.063v-4zM12.063 16h5.938v4h-5.938v-4zM20 16h6v4h-6v-4zM4 22h6.063v4h-6.063v-4zM12.063 22h5.938v4h-5.938v-4zM20 22h6v4h-6v-4z"></path>
    <path opacity="0.35" d="M20 16h6v4h-6v-4z"></path>
  </symbol>
  <symbol id="icon-video-x-generic-symbolic" viewBox="0 0 32 32">
    <title>video-x-generic-symbolic</title>
    <path d="M4.062 8h15.938c1.104 0 2 0.895 2 2v14c0 1.105-0.895 2-2 2h-15.938c-1.104 0-2-0.895-2-2v-14c0-1.105 0.895-2 2-2z"></path>
    <path d="M22 16.939l6.939-6.939h1.062v14h-1z"></path>
  </symbol>
  <symbol id="icon-text-x-generic-symbolic" viewBox="0 0 32 32">
    <title>text-x-generic-symbolic</title>
    <path d="M5.625 2c-0.932 0.183-1.625 0.993-1.625 1.965 0 0.012 0 0.025 0 0.037l-0-0.002v26c0 1.105 0.895 2 2 2h20c1.105-0 2-0.895 2-2v0-18.875c0-0.014 0.001-0.030 0.001-0.046 0-0.541-0.215-1.032-0.564-1.392l0 0.001-7.125-7.125c-0.36-0.348-0.85-0.563-1.391-0.563-0.016 0-0.033 0-0.049 0.001l0.002-0h-12.875c-0.028-0.001-0.061-0.002-0.094-0.002s-0.066 0.001-0.098 0.002l0.005-0c-0.028-0.001-0.061-0.002-0.094-0.002s-0.066 0.001-0.098 0.002l0.005-0zM8 6h10v6h6v16h-16v-22z"></path>
  </symbol>
  <symbol id="icon-package-x-generic-symbolic" viewBox="0 0 32 32">
    <title>package-x-generic-symbolic</title>
    <path d="M6 16h20v14.118c0 0.984-0.945 1.875-1.992 1.875h-16.008c-1.078 0-2-0.859-2-2z"></path>
    <path d="M13.375 5.938c-0.536 0.073-0.996 0.348-1.309 0.746l-0.003 0.004-5.625 6.938c-0.273 0.339-0.438 0.774-0.438 1.248 0 0.001 0 0.001 0 0.002v-0 2c-0 0.008-0 0.018-0 0.028 0 1.105 0.896 2 2 2s2-0.896 2-2c0-0.010-0-0.020-0-0.030l0 0.002v-1.313l5.188-6.313c0.319-0.353 0.514-0.823 0.514-1.339 0-1.105-0.896-2-2-2-0.115 0-0.229 0.010-0.339 0.029l0.012-0.002z"></path>
    <path d="M17.813 11.938c-0.010-0-0.021-0-0.033-0-1.105 0-2 0.896-2 2 0 1.094 0.879 1.983 1.969 2l0.002 0 4.313 0.75v0.313c-0 0.008-0 0.018-0 0.028 0 1.105 0.896 2 2 2s2-0.896 2-2c0-0.010-0-0.020-0-0.030l0 0.002v-2c0-0.011 0-0.023 0-0.035 0-0.972-0.693-1.782-1.613-1.963l-0.013-0.002-6-1c-0.153-0.042-0.328-0.066-0.509-0.066-0.041 0-0.081 0.001-0.122 0.004l0.006-0z"></path>
  </symbol>
  <symbol id="icon-inode-directory-symbolic" viewBox="0 0 32 32">
    <title>inode-directory-symbolic</title>
    <path d="M1.063 2c-0.578 0-1.063 0.484-1.063 1.063v27.875c0 0.597 0.465 1.062 1.063 1.062h29.875c0.597 0 1.063-0.465 1.063-1.062v-17.875c0-0.578-0.484-1.062-1.063-1.062h-24.938v15c0 0.554-0.446 1-1 1s-1-0.446-1-1v-16c0-0.554 0.446-1 1-1h23v-2.812c0-0.654-0.533-1.188-1.188-1.188h-14.813v-2.938c0-0.578-0.484-1.063-1.063-1.063z"></path>
  </symbol>
  <symbol id="icon-audio-x-generic-symbolic" viewBox="0 0 32 32">
    <title>audio-x-generic-symbolic</title>
    <path d="M7.008 16.027c-3.842 0-7.007 3.1-7.007 6.942s3.164 7.007 7.007 7.007c3.842 0 7.007-3.164 7.007-7.007s-3.164-6.942-7.007-6.942zM7.008 20.013c1.681 0 3.021 1.276 3.021 2.957s-1.341 3.021-3.021 3.021c-1.681 0-3.021-1.341-3.021-3.021s1.341-2.957 3.021-2.957z"></path>
    <path d="M23.008 16.027c-3.842 0-7.007 3.1-7.007 6.942s3.164 7.007 7.007 7.007c3.842 0 7.007-3.164 7.007-7.007s-3.164-6.942-7.007-6.942zM23.008 20.013c1.681 0 3.021 1.276 3.021 2.957s-1.341 3.021-3.021 3.021c-1.681 0-3.021-1.341-3.021-3.021s1.341-2.957 3.021-2.957z"></path>
    <path d="M10 4h4v19.031h-4v-19.031z"></path>
    <path d="M26 4h4v19.125h-4v-19.125z"></path>
    <path d="M10 4h20v4h-20v-4z"></path>
  </symbol>
  <symbol id="icon-application-x-appliance-symbolic" viewBox="0 0 32 32">
    <title>application-x-appliance-symbolic</title>
    <path d="M8.046 4.085c0 2.222-1.801 4.023-4.023 4.023s-4.023-1.801-4.023-4.023v0c0-2.222 1.801-4.023 4.023-4.023s4.023 1.801 4.023 4.023v0z"></path>
    <path d="M8.046 27.911c0 2.222-1.801 4.023-4.023 4.023s-4.023-1.801-4.023-4.023v0c0-2.222 1.801-4.023 4.023-4.023s4.023 1.801 4.023 4.023v0z"></path>
    <path d="M31.996 27.911c0 2.222-1.801 4.023-4.023 4.023s-4.023-1.801-4.023-4.023v0c0-2.222 1.801-4.023 4.023-4.023s4.023 1.801 4.023 4.023v0z"></path>
    <path d="M31.996 4.023c0 2.222-1.801 4.023-4.023 4.023s-4.023-1.801-4.023-4.023v0c0-2.222 1.801-4.023 4.023-4.023s4.023 1.801 4.023 4.023v0z"></path>
    <path d="M2.12 2.121v27.879h27.879v-27.879h-27.879zM6.112 6.112h19.896v19.896h-19.896v-19.896z"></path>
    <path d="M9.916 10.042v11.975h12.1v-11.975h-12.1zM11.912 12.037h8.108v7.983h-8.108v-7.983z"></path>
    <path d="M24.012 20.988c0 1.671-1.354 3.025-3.025 3.025s-3.025-1.354-3.025-3.025v0c0-1.671 1.354-3.025 3.025-3.025s3.025 1.354 3.025 3.025v0z"></path>
    <path d="M14.033 20.988c0 1.671-1.354 3.025-3.025 3.025s-3.025-1.354-3.025-3.025v0c0-1.671 1.354-3.025 3.025-3.025s3.025 1.354 3.025 3.025v0z"></path>
    <path d="M14.033 11.071c0 1.671-1.354 3.025-3.025 3.025s-3.025-1.354-3.025-3.025v0c0-1.671 1.354-3.025 3.025-3.025s3.025 1.354 3.025 3.025v0z"></path>
    <path d="M24.137 11.071c0 1.671-1.354 3.025-3.025 3.025s-3.025-1.354-3.025-3.025v0c0-1.671 1.354-3.025 3.025-3.025s3.025 1.354 3.025 3.025v0z"></path>
    <path d="M21.704 20.395l-1.372 1.372 6.798 6.861 1.434-1.434-6.861-6.798z"></path>
    <path d="M11.164 20.395l-6.798 6.798 1.372 1.434 6.861-6.861-1.434-1.372z"></path>
    <path d="M27.131 4.428l-6.798 6.798 1.372 1.434 6.861-6.861-1.434-1.372z"></path>
    <path d="M5.738 4.428l-1.372 1.372 6.798 6.861 1.434-1.434-6.861-6.798z"></path>
  </symbol>
  <symbol id="icon-application-rss+xml-symbolic" viewBox="0 0 32 32">
    <title>application-rss+xml-symbolic</title>
    <path d="M12 24c0 2.209-1.791 4-4 4s-4-1.791-4-4v0c0-2.209 1.791-4 4-4s4 1.791 4 4v0z"></path>
    <path d="M4 4v2c0 1.1 0.907 2 2 2 9.941 0 18 8.059 18 18 0 1.1 0.907 2 2 2h2v-2c0-12.15-9.85-22-22-22h-2zM4 12v2c0 1.1 0.907 2 2 2 5.523 0 10 4.477 10 10 0 1.1 0.907 2 2 2h2v-2c0-7.732-6.268-14-14-14h-2z"></path>
  </symbol>
  <symbol id="icon-application-certificate-symbolic" viewBox="0 0 32 32">
    <title>application-certificate-symbolic</title>
    <path d="M4 4c-1.047 0-2 0.953-2 2v20c0 1.047 0.953 2 2 2h6v-4c0 0-3.986-0.042-4 0v-16h22l0.001 16h-2.001v4h4.001c1.039 0 1.999-0.87 1.999-2v-20c0.001-0.933-0.874-2-2-2z"></path>
    <path d="M23.998 16.126c-0.071 3.259-2.729 5.874-5.999 5.874s-5.928-2.615-5.999-5.868l-0-0.007c-0.001-0.037-0.001-0.082-0.001-0.126 0-3.314 2.686-6 6-6s6 2.686 6 6c0 0.044-0 0.088-0.001 0.132l0-0.007z"></path>
    <path d="M16 18l-4 14h2l4-4 4 4h2l-4-14z"></path>
  </symbol>
</defs>
</svg>
