<svg
xmlns="http://www.w3.org/2000/svg"
xmlns:rdf="http://www.w3.org/1999/02/22-rdf-syntax-ns#"
xmlns:dc="http://purl.org/dc/elements/1.1/"
xmlns:cc="http://creativecommons.org/ns#"
width="720"
height="1008"
viewBox="0,0,720,1008"
version="1.1"
style="fill:black;stroke:none">
<title>Gnome Icon Theme Symbolic [Places Set]</title>
<desc> This package contains a set of icons used by the GNOME desktop. The icons are used in the panel menu, and in nautilus and other applications, to represent the different applications, files, directories, and devices.</desc>
<metadata>
  <rdf:RDF>
  <cc:Work rdf:about="">
  <dc:format>image/svg+xml</dc:format>
  <dc:type rdf:resource="http://purl.org/dc/dcmitype/StillImage" />
  <dc:title>Gnome Icon Theme Symbolic [Places Set]</dc:title>
  <dc:date>2017-12-09</dc:date>
  <dc:creator>
  <cc:Agent>
  <dc:title>Gnome</dc:title>
</cc:Agent>
</dc:creator>
<dc:rights>
<cc:Agent>
<dc:title>Creative Commons - Attribution Share Alike</dc:title>
</cc:Agent>
</dc:rights>
<dc:language>English</dc:language>

<dc:source>https://launchpad.net/gnome-icon-theme-symbolic</dc:source>
<dc:description>This package contains a set of icons used by the GNOME desktop. The icons are used in the panel menu, and in nautilus and other applications, to represent the different applications, files, directories, and devices.</dc:description>
</cc:Work>
</rdf:RDF>
</metadata>
<defs>
  <symbol id="icon-user-trash-symbolic" viewBox="0 0 32 32">
    <title>user-trash-symbolic</title>
    <path d="M6 10v18h18v-18h4v18c0 4-4 4-4 4h-18c-4 0-4-4-4-4v-18zM14 12h2v12h-2zM18 12h2v12h-2zM10 12h2v12h-2zM8 0c-4 0-4 4-4 4h-4v4h30v-4h-4c0-4-4-4-4-4h-14zM8 2h14v2h-14v-2z"></path>
  </symbol>
  <symbol id="icon-user-home-symbolic" viewBox="0 0 32 32">
    <title>user-home-symbolic</title>
    <path d="M5.574 10.001c-0.901 0.207-1.563 1.002-1.563 1.951 0 0.017 0 0.034 0.001 0.051l-0-0.002v13.997c0 1.104 0.895 1.999 2 2h19.995c1.104-0 1.999-0.895 2-2v0-13.996c0-0.008 0-0.018 0-0.028 0-1.104-0.895-2-2-2s-2 0.895-2 2c0 0.010 0 0.020 0 0.030l-0-0.002v11.997h-15.996v-11.997c0-0.014 0.001-0.031 0.001-0.048 0-1.104-0.895-2-2-2-0.155 0-0.306 0.018-0.451 0.051l0.013-0.003z"></path>
    <path d="M15.821 2.003c-0.379 0.035-0.721 0.17-1.005 0.379l0.006-0.004-13.996 9.998c-0.503 0.37-0.825 0.96-0.825 1.625 0 1.111 0.901 2.012 2.012 2.012 0.446 0 0.859-0.145 1.193-0.391l-0.006 0.004 12.809-9.123 12.809 9.123c0.328 0.242 0.741 0.388 1.187 0.388 1.111 0 2.012-0.901 2.012-2.012 0-0.665-0.322-1.254-0.819-1.621l-0.006-0.004-13.997-9.998c-0.326-0.24-0.736-0.385-1.179-0.385-0.069 0-0.137 0.004-0.204 0.010l0.008-0.001z"></path>
    <path d="M12.010 16h5.999v11.997h-5.998v-11.997z"></path>
    <path d="M30.006 14h2c-1.104 0-2 0.895-2 1.999v-1.999c0 1.104 0.895 1.999 2 1.999h-2c1.104 0 2-0.895 2-1.999v1.999c0-1.104-0.895-1.999-2-1.999z"></path>
    <path d="M0.013 14h1.999c-1.104 0-2 0.895-2 1.999v-1.999c0 1.104 0.895 1.999 2 1.999h-2c1.104 0 2-0.895 2-1.999v1.999c0-1.104-0.895-1.999-2-1.999z"></path>
  </symbol>
  <symbol id="icon-user-desktop-symbolic" viewBox="0 0 32 32">
    <title>user-desktop-symbolic</title>
    <path d="M1.063 2c-0.578 0-1.063 0.484-1.063 1.063v27.875c0 0.597 0.465 1.062 1.063 1.062h29.875c0.597 0 1.063-0.465 1.063-1.062v-17.875c0-0.578-0.484-1.062-1.063-1.062h-24.938v15c0 0.554-0.446 1-1 1s-1-0.446-1-1v-16c0-0.554 0.446-1 1-1h23v-2.812c0-0.654-0.533-1.188-1.188-1.188h-14.813v-2.938c0-0.578-0.484-1.063-1.063-1.063z"></path>
  </symbol>
  <symbol id="icon-user-bookmarks-symbolic" viewBox="0 0 32 32">
    <title>user-bookmarks-symbolic</title>
    <path d="M24.577 28.101c-1.623 1.169-6.647-3.937-8.647-3.945s-7.069 5.056-8.683 3.874c-1.614-1.182 1.69-7.538 1.080-9.443s-6.993-5.16-6.367-7.061c0.625-1.9 7.691-0.722 9.314-1.891s2.747-8.245 4.748-8.238c2 0.008 3.063 7.092 4.676 8.274s8.691 0.064 9.302 1.97c0.611 1.905-5.798 5.105-6.424 7.004s2.624 8.285 1.001 9.455z"></path>
  </symbol>
  <symbol id="icon-start-here-symbolic" viewBox="0 0 32 32">
    <title>start-here-symbolic</title>
    <path d="M27.259 0c-6.648 0-7.895 9.469-4.155 9.469s10.804-9.469 4.155-9.469z"></path>
    <path d="M16.22 8.296c1.991 0.122 4.176-7.599 0.433-7.114-3.741 0.486-2.426 6.992-0.433 7.114z"></path>
    <path d="M7.093 13.093c1.416-0.623 0.182-6.721-2.226-5.058-2.407 1.663 0.81 5.681 2.226 5.058z"></path>
    <path d="M11.084 9.902c1.686-0.344 1.778-7.259-1.228-6.019s-0.456 6.363 1.228 6.019v0z"></path>
    <path d="M19.888 25.378c0.299 2.285-1.676 3.413-3.61 1.94-6.158-4.688 10.195-7.027 9.117-13.432-0.895-5.316-17.207-3.68-19.065 4.639-1.257 5.627 5.176 13.432 11.888 13.432 3.302 0 7.111-2.982 7.824-6.759 0.544-2.88-6.404-1.726-6.154 0.18v0z"></path>
  </symbol>
  <symbol id="icon-network-workgroup-symbolic" viewBox="0 0 32 32">
    <title>network-workgroup-symbolic</title>
    <path d="M3.5 8c-1.904 0-3.5 1.596-3.5 3.5v9c0 1.904 1.596 3.5 3.5 3.5h0.25l-3 6h18.5l-3-6h0.25c1.904 0 3.5-1.596 3.5-3.5v-9c0-1.904-1.596-3.5-3.5-3.5h-13zM4 12h12v8h-12v-8z"></path>
    <path d="M15.5 2c-1.904 0-3.5 1.596-3.5 3.5v0.5h16v8h-6v6.5c0 1.318-0.503 2.54-1.313 3.5h10.563l-3-6h0.25c1.904 0 3.5-1.596 3.5-3.5v-9c0-1.904-1.596-3.5-3.5-3.5h-13z"></path>
  </symbol>
  <symbol id="icon-network-server-symbolic" viewBox="0 0 32 32">
    <title>network-server-symbolic</title>
    <path d="M12 24v4h-11.063c-0.526 0-0.938 0.411-0.938 0.938v2.125c0 0.526 0.412 0.938 0.938 0.938 8.708 0 17.417 0 26.125 0 0.526 0 0.938-0.412 0.938-0.938v-2.125c0-0.526-0.412-0.938-0.938-0.938h-11.063v-4z"></path>
    <path d="M8 0c-2.181 0-4 1.819-4 4v16c0 2.181 1.819 4 4 4h12c2.181 0 4-1.819 4-4v-16c0-2.181-1.819-4-4-4h-12zM8 4h12v16h-12v-16z"></path>
    <path d="M10 6h8v2h-8v-2z"></path>
    <path d="M16 10h2v2h-2v-2z"></path>
  </symbol>
  <symbol id="icon-folder-videos-symbolic" viewBox="0 0 32 32">
    <title>folder-videos-symbolic</title>
    <path d="M4.062 8h15.938c1.104 0 2 0.895 2 2v14c0 1.105-0.895 2-2 2h-15.938c-1.104 0-2-0.895-2-2v-14c0-1.105 0.895-2 2-2z"></path>
    <path d="M22 16.939l6.939-6.939h1.062v14h-1z"></path>
  </symbol>
  <symbol id="icon-folder-templates-symbolic" viewBox="0 0 32 32">
    <title>folder-templates-symbolic</title>
    <path d="M6 18h2v2h-2v-2z"></path>
    <path d="M4 20h2v2h-2v-2z"></path>
    <path d="M6 22h2v2h-2v-2z"></path>
    <path d="M4 24h2v2h-2v-2z"></path>
    <path d="M6 26h2v2h-2v-2z"></path>
    <path d="M4 28h2v2h-2v-2z"></path>
    <path d="M8 28h2v2h-2v-2z"></path>
    <path d="M12 28h2v2h-2v-2z"></path>
    <path d="M16 28h2v2h-2v-2z"></path>
    <path d="M20 28h2v2h-2v-2z"></path>
    <path d="M5.625 2c-0.917 0.175-1.641 1.067-1.625 2v16h4v-14h10v6h6v15.995h4v-16.87c0.012-0.528-0.195-1.058-0.563-1.438l-7.125-7.125c-0.38-0.367-0.909-0.575-1.438-0.563h-12.875c-0.062-0.002-0.125-0.002-0.187 0-0.062-0.002-0.125-0.002-0.187 0z"></path>
    <path d="M6 30h2v2h-2v-2z"></path>
    <path d="M10 30h2v2h-2v-2z"></path>
    <path d="M14 30h2v2h-2v-2z"></path>
    <path d="M18 30h2v2h-2v-2z"></path>
    <path d="M22 30h2v2h-2v-2z"></path>
    <path d="M24 27.625h2v2.375h-2v-2.375z"></path>
  </symbol>
  <symbol id="icon-folder-symbolic" viewBox="0 0 32 32">
    <title>folder-symbolic</title>
    <path d="M1.063 2c-0.578 0-1.063 0.484-1.063 1.063v27.875c0 0.597 0.465 1.062 1.063 1.062h29.875c0.597 0 1.063-0.465 1.063-1.062v-17.875c0-0.578-0.484-1.062-1.063-1.062h-24.938v15c0 0.554-0.446 1-1 1s-1-0.446-1-1v-16c0-0.554 0.446-1 1-1h23v-2.812c0-0.654-0.533-1.188-1.188-1.188h-14.813v-2.938c0-0.578-0.484-1.063-1.063-1.063z"></path>
  </symbol>
  <symbol id="icon-folder-saved-search-symbolic" viewBox="0 0 32 32">
    <title>folder-saved-search-symbolic</title>
    <path d="M13.015 1.991c-6.058 0-11.021 4.958-11.021 11.009s4.964 11.009 11.021 11.009c6.058 0 11.021-4.958 11.021-11.009s-4.964-11.009-11.021-11.009zM13.015 6.009c3.895 0 6.999 3.101 6.999 6.991s-3.104 6.991-6.999 6.991c-3.895 0-6.999-3.101-6.999-6.991s3.104-6.991 6.999-6.991z"></path>
    <path d="M19.624 18c-0.941 0.175-1.643 0.99-1.643 1.968 0 0.58 0.247 1.103 0.642 1.468l0.001 0.001 8 8c0.362 0.355 0.859 0.574 1.407 0.574 1.111 0 2.011-0.9 2.011-2.011 0-0.563-0.232-1.072-0.605-1.438l-0-0-8-8c-0.363-0.37-0.869-0.6-1.428-0.6-0.136 0-0.269 0.014-0.397 0.039l0.013-0.002z"></path>
  </symbol>
  <symbol id="icon-folder-remote-symbolic" viewBox="0 0 32 32">
    <title>folder-remote-symbolic</title>
    <path d="M1.063 0c-0.578 0-1.063 0.484-1.063 1.063v21.875c0 0.597 0.465 1.062 1.063 1.062h10.938v4h-11.063c-0.526 0-0.938 0.411-0.938 0.938v2.125c0 0.526 0.412 0.938 0.938 0.938 8.708 0 17.417 0 26.125 0 0.526 0 0.938-0.412 0.938-0.938v-2.125c0-0.526-0.412-0.938-0.938-0.938h-11.063v-4h10.938c0.597 0 1.063-0.465 1.063-1.062v-11.875c0-0.578-0.484-1.062-1.063-1.062h-20.938v9c0 0.554-0.446 1-1 1s-1-0.446-1-1v-10c0-0.554 0.446-1 1-1h19v-2.813c0-0.654-0.533-1.188-1.188-1.188h-12.75v-2.938c0-0.578-0.484-1.063-1.063-1.063z"></path>
  </symbol>
  <symbol id="icon-folder-publicshare-symbolic" viewBox="0 0 32 32">
    <title>folder-publicshare-symbolic</title>
    <path d="M11.938 15.938c0 3.279-2.658 5.938-5.938 5.938s-5.938-2.658-5.938-5.938v0c0-3.279 2.658-5.938 5.938-5.938s5.938 2.658 5.938 5.938v0z"></path>
    <path d="M31.875 25.938c0 3.279-2.658 5.938-5.938 5.938s-5.938-2.658-5.938-5.938v0c0-3.279 2.658-5.938 5.938-5.938s5.938 2.658 5.938 5.938v0z"></path>
    <path d="M31.875 5.938c0 3.279-2.658 5.938-5.938 5.938s-5.938-2.658-5.938-5.938v0c0-3.279 2.658-5.938 5.938-5.938s5.938 2.658 5.938 5.938v0z"></path>
    <path d="M25.25 4.313l-20.125 9.75-3.625 1.813 3.625 1.813 20.063 10.125 1.813-3.625-16.438-8.313 16.438-8-1.75-3.563z"></path>
  </symbol>
  <symbol id="icon-folder-pictures-symbolic" viewBox="0 0 32 32">
    <title>folder-pictures-symbolic</title>
    <path d="M12 4c-1.1 0-2 0.9-2 2v2h-6c-1.104 0-2 0.9-2 2v16c0 1.1 0.896 2 2 2h24c1.104 0 2-0.9 2-2v-16c0-1.1-0.896-2-2-2h-6v-2c0-1.1-0.9-2-2-2h-8zM16 10c4.418 0 8 3.582 8 8s-3.582 8-8 8c-4.418 0-8-3.582-8-8s3.582-8 8-8zM16 14c-2.209 0-4 1.791-4 4s1.791 4 4 4c2.209 0 4-1.791 4-4s-1.791-4-4-4z"></path>
  </symbol>
  <symbol id="icon-folder-music-symbolic" viewBox="0 0 32 32">
    <title>folder-music-symbolic</title>
    <path d="M7.008 16.027c-3.842 0-7.007 3.1-7.007 6.942s3.164 7.007 7.007 7.007c3.842 0 7.007-3.164 7.007-7.007s-3.164-6.942-7.007-6.942zM7.008 20.013c1.681 0 3.021 1.276 3.021 2.957s-1.341 3.021-3.021 3.021c-1.681 0-3.021-1.341-3.021-3.021s1.341-2.957 3.021-2.957z"></path>
    <path d="M23.008 16.027c-3.842 0-7.007 3.1-7.007 6.942s3.164 7.007 7.007 7.007c3.842 0 7.007-3.164 7.007-7.007s-3.164-6.942-7.007-6.942zM23.008 20.013c1.681 0 3.021 1.276 3.021 2.957s-1.341 3.021-3.021 3.021c-1.681 0-3.021-1.341-3.021-3.021s1.341-2.957 3.021-2.957z"></path>
    <path d="M10 4h4v19.031h-4v-19.031z"></path>
    <path d="M26 4h4v19.125h-4v-19.125z"></path>
    <path d="M10 4h20v4h-20v-4z"></path>
  </symbol>
  <symbol id="icon-folder-download-symbolic" viewBox="0 0 32 32">
    <title>folder-download-symbolic</title>
    <path d="M4 16.006v2c-0 0.021-0.001 0.042 0 0.063 0.022 0.51 0.257 1.020 0.625 1.375l10.438 10.563 1.938-0.006 10.438-10.556c0.376-0.376 0.563-0.907 0.563-1.438v-2h-3.414c-0.531 0-1.061 0.186-1.438 0.563l-6.901 7.431-0.216 3-0.248-3-6.958-7.431c-0.389-0.421-0.939-0.606-1.5-0.563z"></path>
    <path d="M15 14h2c0.552 0 1 0.448 1 1v2c0 0.552-0.448 1-1 1h-2c-0.552 0-1-0.448-1-1v-2c0-0.552 0.448-1 1-1z"></path>
    <path d="M16 2c1.105 0 2 0.895 2 2s-0.895 2-2 2c-1.105 0-2-0.895-2-2s0.895-2 2-2z"></path>
    <path d="M15.375 8h1.25c0.759 0 1.375 0.616 1.375 1.375v1.25c0 0.759-0.616 1.375-1.375 1.375h-1.25c-0.759 0-1.375-0.616-1.375-1.375v-1.25c0-0.759 0.616-1.375 1.375-1.375z"></path>
  </symbol>
  <symbol id="icon-folder-documents-symbolic" viewBox="0 0 32 32">
    <title>folder-documents-symbolic</title>
    <path d="M5.625 2c-0.932 0.183-1.625 0.993-1.625 1.965 0 0.012 0 0.025 0 0.037l-0-0.002v26c0 1.105 0.895 2 2 2h20c1.105-0 2-0.895 2-2v0-18.875c0-0.014 0.001-0.030 0.001-0.046 0-0.541-0.215-1.032-0.564-1.392l0 0.001-7.125-7.125c-0.36-0.348-0.85-0.563-1.391-0.563-0.016 0-0.033 0-0.049 0.001l0.002-0h-12.875c-0.028-0.001-0.061-0.002-0.094-0.002s-0.066 0.001-0.098 0.002l0.005-0c-0.028-0.001-0.061-0.002-0.094-0.002s-0.066 0.001-0.098 0.002l0.005-0zM8 6h10v6h6v16h-16v-22z"></path>
  </symbol>
</defs>
</svg>
