<svg
xmlns="http://www.w3.org/2000/svg"
xmlns:rdf="http://www.w3.org/1999/02/22-rdf-syntax-ns#"
xmlns:dc="http://purl.org/dc/elements/1.1/"
xmlns:cc="http://creativecommons.org/ns#"
width="720"
height="1008"

version="1.1"
style="fill:black;stroke:none">
<title>Gnome Icon Theme Symbolic [Emotes Set]</title>
<desc> This package contains a set of icons used by the GNOME desktop. The icons are used in the panel menu, and in nautilus and other applications, to represent the different applications, files, directories, and devices.</desc>
<metadata>
  <rdf:RDF>
  <cc:Work rdf:about="">
  <dc:format>image/svg+xml</dc:format>
  <dc:type rdf:resource="http://purl.org/dc/dcmitype/StillImage" />
  <dc:title>Gnome Icon Theme Symbolic [Emotes Set]</dc:title>
  <dc:date>2017-12-09</dc:date>
  <dc:creator>
  <cc:Agent>
  <dc:title>Gnome</dc:title>
</cc:Agent>
</dc:creator>
<dc:rights>
<cc:Agent>
<dc:title>Creative Commons - Attribution Share Alike</dc:title>
</cc:Agent>
</dc:rights>
<dc:language>English</dc:language>

<dc:source>https://launchpad.net/gnome-icon-theme-symbolic</dc:source>
<dc:description>This package contains a set of icons used by the GNOME desktop. The icons are used in the panel menu, and in nautilus and other applications, to represent the different applications, files, directories, and devices.</dc:description>
</cc:Work>
</rdf:RDF>
</metadata>
  <defs>
    <symbol id="icon-face-yawn-symbolic">
      <title>face-yawn-symbolic</title>
      <path d="M16 2c-7.732 0-14 6.268-14 14s6.268 14 14 14c7.732 0 14-6.268 14-14s-6.268-14-14-14zM11.063 8c1.469 0 2.938 0.892 2.938 2.625-3-0.677-6.25 3.466-6 0 0.125-1.733 1.594-2.625 3.063-2.625zM20.938 8c1.469 0 2.938 0.892 3.063 2.625 0.25 3.466-3-0.677-6 0 0-1.733 1.469-2.625 2.938-2.625zM16 14c2.761 0 5 2.686 5 6s-2.239 6-5 6c-2.761 0-5-2.686-5-6s2.239-6 5-6z"></path>
    </symbol>
    <symbol id="icon-face-worried-symbolic">
      <title>face-worried-symbolic</title>
      <path d="M16 2c-7.732 0-14 6.268-14 14s6.268 14 14 14c7.732 0 14-6.268 14-14s-6.268-14-14-14zM12 10c1.117 0 2.063 0.946 2.063 2.063v1.938c0 1.117-0.946 2-2.063 2s-2-0.883-2-2v-1.938c0-1.117 0.883-2.063 2-2.063zM20 10c1.117 0 2 0.946 2 2.063v1.938c0 1.117-0.883 2-2 2s-2-0.883-2-2v-1.938c0-1.117 0.883-2.063 2-2.063zM26 21.886c-1.531-0.856-3.224-1.842-4.951-1.88-1.306 0.039-2.478 1.308-3.049 1.394-1.083 0.627-3.119 0.393-4 0-1.834-0.874-1.842-1.361-3.087-1.401-1.705 0.038-3.663 0.809-4.913 1.886v-1c0.843-2.172 4.762-4.089 8-1.742 0.698 0.44 0.855 0.533 2.030 0.673 0.319 0.111 1.185-0.068 1.97-0.673 3.163-2.307 6.584-0.237 8 1.742z"></path>
    </symbol>
    <symbol id="icon-face-wink-symbolic">
      <title>face-wink-symbolic</title>
      <path d="M16 2c-7.732 0-14 6.268-14 14s6.268 14 14 14c7.732 0 14-6.268 14-14s-6.268-14-14-14zM12 10c1.117 0 2.063 0.946 2.063 2.063v1.938c0 1.117-0.946 2-2.063 2s-2-0.883-2-2v-1.938c0-1.117 0.883-2.063 2-2.063zM18.875 12h1.813c1.045 0 1.938 0.432 1.938 1s-0.893 1-1.938 1h-1.813c-1.045 0-1.875-0.432-1.875-1s0.83-1 1.875-1zM6 18.125c1.431 2.149 4.47 3.875 10 3.875 4.905 0 8.422-1.501 10-3.875v1c0 1.362-1.676 4.813-10 4.813-7.762 0-10-3.747-10-4.813v-1z"></path>
    </symbol>
    <symbol id="icon-face-uncertain-symbolic">
      <title>face-uncertain-symbolic</title>
      <path d="M16 2c-7.732 0-14 6.268-14 14s6.268 14 14 14c7.732 0 14-6.268 14-14s-6.268-14-14-14zM12 10c1.117 0 2.063 0.946 2.063 2.063v1.938c0 1.117-0.946 2-2.063 2s-2-0.883-2-2v-1.938c0-1.117 0.883-2.063 2-2.063zM20 10c1.117 0 2 0.946 2 2.063v1.938c0 1.117-0.883 2-2 2s-2-0.883-2-2v-1.938c0-1.117 0.883-2.063 2-2.063zM8 18l16 4v2l-16-4v-2z"></path>
    </symbol>
    <symbol id="icon-face-tired-symbolic">
      <title>face-tired-symbolic</title>
      <path d="M16 2c-7.732 0-14 6.268-14 14s6.268 14 14 14c7.732 0 14-6.268 14-14s-6.268-14-14-14zM13.25 13.5c0.363-0.107 0.699 0.125 0.75 0.5s-0.2 0.768-0.563 0.875l-5.563 1.625c-0.363 0.107-0.699-0.063-0.75-0.438s0.2-0.768 0.563-0.875l5.563-1.688zM18.5 13.5c0.083-0.012 0.159-0.027 0.25 0l5.563 1.688c0.363 0.107 0.614 0.5 0.563 0.875s-0.387 0.544-0.75 0.438l-5.563-1.625c-0.363-0.107-0.614-0.5-0.563-0.875 0.038-0.281 0.251-0.467 0.5-0.5zM8.813 20h14.375c0.443 0 0.813 0.446 0.813 1s-0.369 1-0.813 1h-14.375c-0.443 0-0.813-0.446-0.813-1s0.369-1 0.813-1z"></path>
    </symbol>
    <symbol id="icon-face-surprised-symbolic">
      <title>face-surprised-symbolic</title>
      <path d="M16 2c-7.732 0-14 6.268-14 14s6.268 14 14 14c7.732 0 14-6.268 14-14s-6.268-14-14-14zM12 10c1.117 0 2.063 0.946 2.063 2.063v1.938c0 1.117-0.946 2-2.063 2s-2-0.883-2-2v-1.938c0-1.117 0.883-2.063 2-2.063zM20 10c1.117 0 2 0.946 2 2.063v1.938c0 1.117-0.883 2-2 2s-2-0.883-2-2v-1.938c0-1.117 0.883-2.063 2-2.063zM16 19.188c2.118 0 3.858 1.842 3.875 4.063 0 2.233-1.745 4.063-3.875 4.063s-3.875-1.83-3.875-4.063c0-2.233 1.745-4.063 3.875-4.063z"></path>
    </symbol>
    <symbol id="icon-face-smirk-symbolic">
      <title>face-smirk-symbolic</title>
      <path d="M16.031 2c-7.732 0-14 6.268-14 14s6.268 14 14 14c7.732 0 14-6.268 14-14s-6.268-14-14-14zM12.031 10c1.117 0 2.063 0.946 2.063 2.063v1.938c0 1.117-0.946 2-2.063 2s-2-0.883-2-2v-1.938c0-1.117 0.883-2.063 2-2.063zM20.031 10c1.117 0 2 0.946 2 2.063v1.938c0 1.117-0.883 2-2 2s-2-0.883-2-2v-1.938c0-1.117 0.883-2.063 2-2.063zM7.206 15.437c1.559 6.612 9.386 8.865 15.411 6.574 0.014 1.196-0.39 2.194-2.309 2.572-4.331 0.852-10.322-0.285-13.36-5.187-1.332-2.149-0.254-3.37 0.258-3.959z"></path>
    </symbol>
    <symbol id="icon-face-smile-symbolic">
      <title>face-smile-symbolic</title>
      <path d="M16 2c-7.732 0-14 6.268-14 14s6.268 14 14 14c7.732 0 14-6.268 14-14s-6.268-14-14-14zM12 10c1.117 0 2.063 0.946 2.063 2.063v1.938c0 1.117-0.946 2-2.063 2s-2-0.883-2-2v-1.938c0-1.117 0.883-2.063 2-2.063zM20 10c1.117 0 2 0.946 2 2.063v1.938c0 1.117-0.883 2-2 2s-2-0.883-2-2v-1.938c0-1.117 0.883-2.063 2-2.063zM6 18.14c1.993 1.274 8.033 1.834 10 1.834s7.609 0.102 10-1.834v1c0 1.362-3.488 2.809-10 2.809s-10-1.744-10-2.809z"></path>
    </symbol>
    <symbol id="icon-face-smile-big-symbolic">
      <title>face-smile-big-symbolic</title>
      <path d="M16 2c-7.732 0-14 6.268-14 14s6.268 14 14 14c7.732 0 14-6.268 14-14s-6.268-14-14-14zM12 10c1.117 0 2.063 0.946 2.063 2.063v1.938c0 1.117-0.946 2-2.063 2s-2-0.883-2-2v-1.938c0-1.117 0.883-2.063 2-2.063zM20 10c1.117 0 2 0.946 2 2.063v1.938c0 1.117-0.883 2-2 2s-2-0.883-2-2v-1.938c0-1.117 0.883-2.063 2-2.063zM6 18.063c4 2.607 15.974 2.607 20.063 0l-0.062 1.063c-0.073 0.859-2 6.75-10 6.813s-10-5.56-10-6.625v-1.25z"></path>
    </symbol>
    <symbol id="icon-face-sick-symbolic">
      <title>face-sick-symbolic</title>
      <path d="M16 2c-7.732 0-14 6.268-14 14s6.268 14 14 14c7.732 0 14-6.268 14-14s-6.268-14-14-14zM8.625 9.375c0.084 0.006 0.168 0.014 0.25 0.062l2.25 1.313 2.313-1.313c0.331-0.183 0.681-0.042 0.813 0.313s-0.044 0.816-0.375 1l-1.438 0.813 1.438 0.813c0.328 0.188 0.449 0.585 0.313 0.938s-0.484 0.438-0.813 0.25l-2.25-1.25-2.313 1.25c-0.331 0.184-0.681 0.105-0.813-0.25s0.044-0.816 0.375-1l1.375-0.813-1.375-0.75c-0.328-0.188-0.511-0.647-0.375-1 0.102-0.265 0.375-0.4 0.625-0.375zM18.938 9.375c0.084 0.006 0.168 0.014 0.25 0.062l2.25 1.313 2.313-1.313c0.331-0.183 0.681-0.042 0.813 0.313s-0.044 0.816-0.375 1l-1.438 0.813 1.438 0.813c0.328 0.188 0.511 0.585 0.375 0.938s-0.547 0.438-0.875 0.25l-2.25-1.313-2.313 1.313c-0.331 0.184-0.681 0.105-0.813-0.25s0.044-0.816 0.375-1l1.438-0.813-1.438-0.813c-0.328-0.188-0.511-0.585-0.375-0.938 0.102-0.265 0.375-0.4 0.625-0.375zM10.25 18.063c1.208-0.108 2.536 0.182 3.75 1.063 0.698 0.44 0.825 0.548 2 0.688 0.319 0.111 1.214-0.082 2-0.688 0.561-0.409 1.123-0.591 1.688-0.75 2.619-0.735 5.148 0.872 6.313 2.5v1c-1.023-0.572-2.121-1.196-3.25-1.563l0.938 1.875c0.656 1.295 0.264 2.798-0.875 3.375s-2.594-0.018-3.25-1.313l-1.188-2.313c-0.102-0.202-0.135-0.417-0.187-0.625-0.053 0.021-0.142 0.056-0.187 0.062-1.083 0.627-3.119 0.393-4 0-1.834-0.874-1.818-1.335-3.063-1.375-1.705 0.038-3.687 0.798-4.938 1.875v-1c0.527-1.357 2.237-2.633 4.25-2.813z"></path>
    </symbol>
    <symbol id="icon-face-shutmouth-symbolic">
      <title>face-shutmouth-symbolic</title>
      <path d="M16 2c-7.732 0-14 6.268-14 14s6.268 14 14 14c7.732 0 14-6.268 14-14s-6.268-14-14-14zM12 10c1.117 0 2.063 0.946 2.063 2.063v1.938c0 1.117-0.946 2-2.063 2s-2-0.883-2-2v-1.938c0-1.117 0.883-2.063 2-2.063zM20 10c1.117 0 2 0.946 2 2.063v1.938c0 1.117-0.883 2-2 2s-2-0.883-2-2v-1.938c0-1.117 0.883-2.063 2-2.063zM8 18l8 2 8-2c0.165 1.181-0.322 2.108-1.343 2.336l-2.657 0.664 2.618 0.654c1.429 0.383 1.382 1.498 1.382 2.346l-8-2-8 2c-0.131-1.262 0.075-1.966 1.040-2.26l2.96-0.74-3.008-0.67c-0.949-0.256-1.158-1.362-0.992-2.33z"></path>
    </symbol>
    <symbol id="icon-face-sad-symbolic">
      <title>face-sad-symbolic</title>
      <path d="M16 2c-7.732 0-14 6.268-14 14s6.268 14 14 14c7.732 0 14-6.268 14-14s-6.268-14-14-14zM12 10c1.117 0 2.063 0.946 2.063 2.063v1.938c0 1.117-0.946 2-2.063 2s-2-0.883-2-2v-1.938c0-1.117 0.883-2.063 2-2.063zM20 10c1.117 0 2 0.946 2 2.063v1.938c0 1.117-0.883 2-2 2s-2-0.883-2-2v-1.938c0-1.117 0.883-2.063 2-2.063zM26 21.886c-1.993-1.274-8.033-1.834-10-1.834s-7.609-0.102-10 1.834v-1c0-1.362 3.488-2.809 10-2.809s10 1.744 10 2.809z"></path>
    </symbol>
    <symbol id="icon-face-raspberry-symbolic">
      <title>face-raspberry-symbolic</title>
      <path d="M16 2c-7.732 0-14 6.268-14 14s6.268 14 14 14c7.732 0 14-6.268 14-14s-6.268-14-14-14zM12 10c1.117 0 2.063 0.946 2.063 2.063v1.938c0 1.117-0.946 2-2.063 2s-2-0.883-2-2v-1.938c0-1.117 0.883-2.063 2-2.063zM20 10c1.117 0 2 0.946 2 2.063v1.938c0 1.117-0.883 2-2 2s-2-0.883-2-2v-1.938c0-1.117 0.883-2.063 2-2.063zM6 18.125c1.993 1.274 8.033 1.875 10 1.875 0.984 0 2.857 0.029 4.813-0.187s3.992-0.719 5.188-1.688v1c0 0.883-1.507 1.838-4.313 2.375l0.5 1.063c0.558 1.207 0.167 2.551-0.875 3.063l-0.5 0.25c-1.042 0.511-2.35-0.059-2.938-1.25l-1.25-2.563c-0.034-0.069-0.038-0.070-0.062-0.125-0.192 0.002-0.365 0-0.563 0-6.512 0-10-1.747-10-2.813v-1z"></path>
    </symbol>
    <symbol id="icon-face-plain-symbolic">
      <title>face-plain-symbolic</title>
      <path d="M16 2c-7.732 0-14 6.268-14 14s6.268 14 14 14c7.732 0 14-6.268 14-14s-6.268-14-14-14zM12 10c1.117 0 2.063 0.946 2.063 2.063v1.938c0 1.117-0.946 2-2.063 2s-2-0.883-2-2v-1.938c0-1.117 0.883-2.063 2-2.063zM20 10c1.117 0 2 0.946 2 2.063v1.938c0 1.117-0.883 2-2 2s-2-0.883-2-2v-1.938c0-1.117 0.883-2.063 2-2.063zM7 20h18c0.554 0 1 0.446 1 1s-0.446 1-1 1h-18c-0.554 0-1-0.446-1-1s0.446-1 1-1z"></path>
    </symbol>
    <symbol id="icon-face-monkey-symbolic">
      <title>face-monkey-symbolic</title>
      <path d="M15.688 0.062c-2.455 1.468-2.125 3.265-1.813 4.063-3.615 0.537-7.098 2.622-8.25 6.375-0.567-0.423-1.176-0.688-1.875-0.688-2.068 0-3.75 2.165-3.75 4.75s1.682 4.688 3.75 4.688c0.933 0 1.771-0.423 2.438-1.125 5.438-2.547 14.185-2.933 19.75 0.062 0.639 0.645 1.422 1.063 2.313 1.063 2.068 0 3.75-2.103 3.75-4.688s-1.682-4.75-3.75-4.75c-0.857 0-1.622 0.386-2.25 1-1.015-3.404-3.68-5.82-7.625-6.563-0.341-1.277-0.569-3.832 3.25-3.563-4.339-1.586-5.438 3.25-5.438 3.25-0.531-0.234-1.931-1.277-0.5-3.875zM12.938 10.125c0.76 0 1.438 1.293 1.438 2.938s-0.678 3-1.438 3c-0.76 0-1.313-1.355-1.313-3s0.553-2.938 1.313-2.938zM18.938 10.125c0.76 0 1.438 1.293 1.438 2.938s-0.678 3-1.438 3c-0.76 0-1.313-1.355-1.313-3s0.553-2.938 1.313-2.938zM4 11.938c0.512 0 0.948 0.299 1.313 0.688-0.066 1.058-0.037 2.237 0.25 3.5-0.383 0.587-0.904 1-1.563 1-1.144 0-2.063-1.133-2.063-2.563s0.919-2.625 2.063-2.625zM28.063 11.938c1.144 0 2.125 1.195 2.125 2.625s-0.981 2.563-2.125 2.563c-0.745 0-1.318-0.524-1.688-1.25 0.11-0.96 0.074-1.87 0-2.75 0.376-0.7 0.969-1.188 1.688-1.188z"></path>
      <path d="M15.938 17.938c-7.76 0-14.063 3.134-14.063 7s6.302 7 14.063 7c7.76 0 14.062-3.134 14.062-7s-6.302-7-14.063-7zM6 22.063c0 0 0.734 4.063 9.938 4.063 8.773 0 10.188-4 10.188-4s-0.079 5.953-10.188 5.875c-10.296-0.080-9.938-5.938-9.938-5.938z"></path>
    </symbol>
    <symbol id="icon-face-laugh-symbolic">
      <title>face-laugh-symbolic</title>
      <path d="M16 2c-7.732 0-14 6.268-14 14s6.268 14 14 14c7.732 0 14-6.268 14-14s-6.268-14-14-14zM11.062 9.438c1.469 0 2.938 0.892 2.938 2.625-3-0.677-6.25 3.466-6 0 0.125-1.733 1.594-2.625 3.063-2.625zM20.937 9.438c1.469 0 2.938 0.892 3.063 2.625 0.25 3.466-3-0.677-6 0 0-1.733 1.469-2.625 2.938-2.625zM6 18.063c4 2.607 15.974 2.607 20.063 0l-0.062 1.063c-0.073 0.859-2 6.75-10 6.813s-10-5.56-10-6.625v-1.25z"></path>
    </symbol>
    <symbol id="icon-face-kiss-symbolic">
      <title>face-kiss-symbolic</title>
      <path d="M16 2c-7.732 0-14 6.268-14 14s6.268 14 14 14c7.732 0 14-6.268 14-14s-6.268-14-14-14zM11.063 10c1.469 0 2.938 0.45 2.938 2.183-5.121-1.207-4.836 3.377-6 0.442-0.641-1.615 1.594-2.625 3.063-2.625zM20.938 10c1.469 0 3.409 0.922 3.063 2.625-0.634 3.112-1.055-1.914-6-0.442 0-1.733 1.469-2.183 2.938-2.183zM14 16c0.821-0.020 1.499 0.267 2.063 0.688 0.564-0.42 1.304-0.713 2.125-0.688 1.263 0.040 1.813 1.52 1.812 2.375-0.001 1.55 0.951 1.53 2 1.656-1.268 0.302-1.974 2.45-1.969 3.531 0.010 1.944-1.861 2.512-4.031 2.5-2.171-0.008-3.974-0.502-3.969-2.469 0.002-0.815-0.705-3.181-2.063-3.531 1.358-0.186 2.031-0.5 2.031-1.719 0-1.618 1.058-2.321 2-2.344z"></path>
      <path d="M18 20.548c-0.339 0.16-0.642 0.32-0.644 0.544-0.036 0.54-0.748 0.962-1.344 0.959-0.596-0.002-1.188-0.419-1.188-0.959 0.002-0.224-0.223-0.379-0.544-0.544 1.058-0.791 2.506-0.677 3.72 0z"></path>
    </symbol>
    <symbol id="icon-face-embarrassed-symbolic">
      <title>face-embarrassed-symbolic</title>
      <path d="M16 2c-7.732 0-14 6.268-14 14s6.268 14 14 14c7.732 0 14-6.268 14-14s-6.268-14-14-14zM11.063 12.354c1.469 0 2.938 0.892 2.938 2.625-3-0.677-6.25 3.466-6 0 0.125-1.733 1.594-2.625 3.063-2.625zM20.938 12.354c1.469 0 2.938 0.892 3.063 2.625 0.25 3.466-3-0.677-6 0 0-1.733 1.469-2.625 2.938-2.625zM8.939 17.47c0.83 0 1.5 0.67 1.5 1.5s-0.67 1.5-1.5 1.5c-0.83 0-1.5-0.67-1.5-1.5s0.67-1.5 1.5-1.5zM22.972 17.47c0.83 0 1.5 0.67 1.5 1.5s-0.67 1.5-1.5 1.5c-0.83 0-1.5-0.67-1.5-1.5s0.67-1.5 1.5-1.5zM14.792 21.995h2.344c0.412 0 1.094 0.446 1.094 1s-0.681 1.031-1.094 1.031h-2.344c-0.412 0-0.969-0.477-0.969-1.031s0.556-1 0.969-1z"></path>
    </symbol>
    <symbol id="icon-face-devilish-symbolic">
      <title>face-devilish-symbolic</title>
      <path d="M16 2c-3.304 0-6.355 1.148-8.75 3.063-2.268-0.888-4.187-1.898-5.375-2.938l-0.187 1.188c-0.067 0.542 0.206 3.026 2.312 5.5-1.263 2.103-2 4.555-2 7.188 0 7.732 6.268 14 14 14s14-6.268 14-14c0-2.581-0.719-4.986-1.938-7.063 2.022-2.436 2.378-4.779 2.313-5.313l-0.187-1.188c-1.157 1.012-2.997 1.942-5.188 2.813-0.012-0.010-0.051 0.010-0.062 0-2.43-2.030-5.524-3.25-8.938-3.25zM12 10c1.117 0 2.063 0.946 2.063 2.063v1.938c0 1.117-0.946 2-2.063 2s-2-0.883-2-2v-1.938c0-1.117 0.883-2.063 2-2.063zM20 10c1.117 0 2 0.946 2 2.063v1.938c0 1.117-0.883 2-2 2s-2-0.883-2-2v-1.938c0-1.117 0.883-2.063 2-2.063zM24 19.956c-0.058 0.688-1.85 6.006-8 6.019-5.577 0.012-8-5.117-8-5.969z"></path>
    </symbol>
    <symbol id="icon-face-crying-symbolic">
      <title>face-crying-symbolic</title>
      <path d="M16 2c-7.732 0-14 6.268-14 14s6.268 14 14 14c7.732 0 14-6.268 14-14s-6.268-14-14-14zM12 10c1.117 0 2.063 0.819 2.063 1.75v1.563c0 0.931-0.946 1.688-2.063 1.688s-2-0.757-2-1.688v-1.563c0-0.931 0.883-1.75 2-1.75zM20 10c1.117 0 2 0.757 2 1.688v1.625c0 0.931-0.883 1.688-2 1.688s-2-0.757-2-1.688v-1.625c0-0.931 0.883-1.688 2-1.688zM23.5 14.563c2.416 0.897 4.093 1.873 4.438 3.125s-0.612 2.483-1.875 2.5c-1.038 0.014-1.537-0.431-1.875-1.75-0.333-1.32 0.166-2.585-0.688-3.875zM15.938 19.938c5.177 0 7.938 1.96 7.938 3.125v1.063c-1.584-1.393-6.374-2-7.938-2s-6.037-0.118-7.938 2v-1.063c0-1.489 2.761-3.125 7.938-3.125z"></path>
    </symbol>
    <symbol id="icon-face-cool-symbolic">
      <title>face-cool-symbolic</title>
      <path d="M16 2c-7.732 0-14 6.268-14 14s6.268 14 14 14c7.732 0 14-6.268 14-14s-6.268-14-14-14zM4.438 10.063c7.825-0.075 15.943-0 23.125 0 0 3.284-2.499 5.938-5.563 5.938-2.551 0-4.665-1.861-5.313-4.375h-1.375c-0.647 2.514-2.762 4.375-5.313 4.375-3.063 0-5.563-2.654-5.563-5.938zM6 18.125c1.431 2.149 4.47 3.875 10 3.875 4.905 0 8.422-1.501 10-3.875v1c0 1.362-1.676 4.813-10 4.813-7.762 0-10-3.747-10-4.813v-1z"></path>
    </symbol>
    <symbol id="icon-face-confused-symbolic">
      <title>face-confused-symbolic</title>
      <path d="M16 2c-7.732 0-14 6.268-14 14s6.268 14 14 14c7.732 0 14-6.268 14-14s-6.268-14-14-14zM12 10c1.117 0 2.063 0.946 2.063 2.063v1.938c0 1.117-0.946 2-2.063 2s-2-0.883-2-2v-1.938c0-1.117 0.883-2.063 2-2.063zM20 10c1.117 0 2 0.946 2 2.063v1.938c0 1.117-0.883 2-2 2s-2-0.883-2-2v-1.938c0-1.117 0.883-2.063 2-2.063zM9.187 17.625c0.129-0.018-0.558 0.026-0.425 0.062 8.962-0.062 2.9 5.163 13.174 5.287 0.535 0.145 0.832 0.715 0.688 1.25s-0.653 0.832-1.188 0.688c-9.895-0.028-5.813-5.412-12.375-5.287-0.535-0.145-0.832-0.715-0.688-1.25 0.109-0.401 0.426-0.698 0.813-0.75z"></path>
    </symbol>
    <symbol id="icon-face-angry-symbolic">
      <title>face-angry-symbolic</title>
      <path d="M16 2c-7.732 0-14 6.268-14 14s6.268 14 14 14c7.732 0 14-6.268 14-14s-6.268-14-14-14zM8 10.25c0 0 0.948 1.678 2.5 1.688h3.5v2.063c0 1.112-1.334 2-3 2s-3-0.888-3-2zM24 10.25v3.75c0 1.112-1.334 2-3 2s-3-0.888-3-2v-2.063h3.438c1.552-0.010 2.563-1.688 2.563-1.688zM16.063 18c6.512 0 6 0.768 6 1.523v0.532h-12.063v-0.576c0-0.699-0.449-1.479 6.063-1.479z"></path>
    </symbol>
    <symbol id="icon-face-angel-symbolic">
      <title>face-angel-symbolic</title>
      <path d="M4.375 8.188c-1.51 2.234-2.375 4.913-2.375 7.813 0 7.732 6.268 14 14 14s14-6.268 14-14c0-2.899-0.865-5.578-2.375-7.813-0.398 0.271-0.849 0.502-1.25 0.688-1.7 0.788-3.709 1.125-5.875 1.125h-9c-2.166 0-4.175-0.337-5.875-1.125-0.401-0.186-0.852-0.416-1.25-0.688zM12 12c1.117 0 2.063 0.946 2.063 2.063v1.938c0 1.117-0.946 2-2.063 2s-2-0.883-2-2v-1.938c0-1.117 0.883-2.063 2-2.063zM20 12c1.117 0 2 0.946 2 2.063v1.938c0 1.117-0.883 2-2 2s-2-0.883-2-2v-1.938c0-1.117 0.883-2.063 2-2.063zM6 18.125c1.431 2.149 4.47 3.875 10 3.875 4.905 0 8.422-1.501 10-3.875v1c0 1.362-1.676 4.813-10 4.813-7.762 0-10-3.747-10-4.813z"></path>
      <path d="M11.5 0c-1.917 0-3.653 0.376-5 1s-2.5 1.59-2.5 3c0 1.41 1.153 2.376 2.5 3s3.083 1 5 1h9c1.917 0 3.653-0.376 5-1s2.5-1.59 2.5-3c0-1.41-1.153-2.376-2.5-3s-3.083-1-5-1h-9zM11.5 2h9c1.668 0 3.194 0.352 4.188 0.813s1.313 0.935 1.313 1.188c0 0.252-0.319 0.727-1.313 1.188s-2.519 0.813-4.188 0.813h-9c-1.668 0-3.194-0.352-4.188-0.813s-1.313-0.935-1.313-1.188c0-0.252 0.319-0.727 1.313-1.188s2.519-0.813 4.188-0.813z"></path>
    </symbol>
  </defs>
</svg>
