<svg
xmlns="http://www.w3.org/2000/svg"
xmlns:rdf="http://www.w3.org/1999/02/22-rdf-syntax-ns#"
xmlns:dc="http://purl.org/dc/elements/1.1/"
xmlns:cc="http://creativecommons.org/ns#"
width="720"
height="1008"

version="1.1"
style="fill:black;stroke:none">
<title>Gnome Icon Theme Symbolic [Apps Set]</title>
<desc> This package contains a set of icons used by the GNOME desktop. The icons are used in the panel menu, and in nautilus and other applications, to represent the different applications, files, directories, and devices.</desc>
<metadata>
    <rdf:RDF>
    <cc:Work rdf:about="">
    <dc:format>image/svg+xml</dc:format>
    <dc:type rdf:resource="http://purl.org/dc/dcmitype/StillImage" />
    <dc:title>Gnome Icon Theme Symbolic [Apps Set]</dc:title>
    <dc:date>2017-12-09</dc:date>
    <dc:creator>
    <cc:Agent>
    <dc:title>Gnome</dc:title>
</cc:Agent>
</dc:creator>
<dc:rights>
<cc:Agent>
<dc:title>Creative Commons - Attribution Share Alike</dc:title>
</cc:Agent>
</dc:rights>
<dc:language>English</dc:language>

<dc:source>https://launchpad.net/gnome-icon-theme-symbolic</dc:source>
<dc:description>This package contains a set of icons used by the GNOME desktop. The icons are used in the panel menu, and in nautilus and other applications, to represent the different applications, files, directories, and devices.</dc:description>
</cc:Work>
</rdf:RDF>
</metadata>
<defs>
<symbol id="icon-web-browser-symbolic">
<title>web-browser-symbolic</title>
<path  d="M15.997 9.693v20.756l-4.687-4.575-2.678 5.468c-0.656 1.479-4.066 0.29-3.097-1.688l2.65-5.677h-5.914l13.726-14.284z"></path>
<path  d="M14.31 2.128c-7.651 0.92-13.155 7.914-12.185 15.559 0.262 2.069 0.587 2.763 0.587 2.763l3.349-3.263c-0.662-5.506 3.242-10.461 8.748-11.122s10.461 3.242 11.122 8.748c0.627 5.215-2.782 10.048-7.936 11.060l0.062 3.999c0 0 1.041-0.212 1.247-0.262 6.83-1.667 11.41-8.253 10.563-15.297-0.92-7.651-7.907-13.105-15.559-12.185z"></path>
<path  opacity="0.3"  d="M8.224 15.63v-0.411l-0.396 0.037c0.033-0.262 0.066-0.523 0.099-0.785h-0.231l-0.231 0.299-0.231 0.112-0.331-0.186-0.033-0.411 0.066-0.449 0.496-0.374h0.396l0.066-0.225 0.496 0.112 0.364 0.449 0.066-0.748 0.628-0.523 0.231-0.561 0.463-0.187 0.264-0.374 0.595-0.113 0.298-0.448c-0.297 0-0.595 0-0.892 0l0.562-0.262h0.396l0.562-0.187 0.066-0.224-0.198-0.187-0.231-0.075 0.066-0.224-0.165-0.336-0.397 0.149 0.066-0.299-0.463-0.262-0.363 0.635 0.033 0.225-0.363 0.15-0.232 0.486-0.099-0.449-0.628-0.262-0.099-0.336 0.826-0.486 0.364-0.336 0.033-0.411-0.198-0.112-0.264-0.038-0.165 0.411c0 0-0.276 0.054-0.347 0.072-0.907 0.836-2.741 2.64-3.167 6.047 0.016 0.079 0.309 0.537 0.309 0.537l0.694 0.411 0.694 0.187zM15.626 7.068l-0.859-0.337-0.991 0.112-1.223 0.336-0.231 0.225 0.76 0.523v0.299l-0.297 0.299 0.397 0.786 0.264-0.15 0.331-0.523c0.51-0.158 0.968-0.337 1.453-0.561l0.397-1.009zM20.683 7.752l-0.75 0.187-0.437 0.312v0.25l-0.75 0.5 0.187 0.687 0.437-0.312 0.25 0.312 0.312 0.187 0.187-0.562-0.125-0.312 0.125-0.187 0.437-0.375h0.187l-0.187 0.437v0.375c0.178-0.048 0.318-0.102 0.5-0.125l-0.5 0.375v0.25l-0.625 0.437-0.562-0.125v-0.312l-0.25 0.125 0.125 0.312h-0.437l-0.25 0.437-0.312 0.312-0.187 0.062v0.375l0.062 0.312h-0.062v1.062l0.125-0.062 0.187-0.437 0.375-0.25 0.062-0.187 0.562-0.125 0.312 0.375 0.375 0.187-0.187 0.375 0.312-0.062 0.125-0.437-0.375-0.437h0.125l0.437 0.312 0.062 0.437 0.312 0.437 0.125-0.625 0.187-0.062c0.192 0.199 0.338 0.463 0.5 0.687h0.562l0.375 0.25-0.5 0.5h-0.5l-0.687-0.187h-0.375l-0.25 0.312-0.687-0.75-0.5-0.125-0.75 0.125-0.312 0.187v4.811l0.062 0.062 0.5-0.312 0.187 0.187h0.562l0.25 0.312-0.187 0.625 0.375 0.375v0.75l0.25 0.5-0.187 0.5c-0.018 0.323 0 0.614 0 0.937 0.159 0.438 0.287 0.871 0.437 1.312l0.125 0.687v0.375h0.25l0.437-0.25h0.5l0.75-0.875-0.062-0.312 0.5-0.437-0.375-0.375 0.437-0.375 0.437-0.25 0.187-0.25-0.125-0.5v-1.187l0.375-0.75 0.375-0.5 0.5-1.125v-0.312c-0.233 0.029-0.459 0.046-0.687 0.062-0.144 0.010-0.289 0-0.437 0-0.247-0.519-0.436-1.019-0.625-1.562l-0.312-0.375-0.187-0.625 0.125-0.125 0.437 0.5 0.5 1.125 0.312 0.312-0.125 0.437 0.312 0.312 0.5-0.5 0.625-0.437 0.312-0.375v-0.437c-0.078-0.146-0.109-0.291-0.187-0.437l-0.312 0.375-0.25-0.312-0.375-0.25v-0.562l0.437 0.437 0.437-0.062c0.203 0.185 0.384 0.415 0.562 0.625l0.312-0.375c0-0.349-0.399-2.040-1.25-3.499s-2.312-2.812-2.312-2.812l-0.125 0.187-0.437 0.437-0.5-0.5h0.5l0.25-0.25-0.937-0.187-0.5-0.187z"></path>
</symbol>
<symbol id="icon-utilities-terminal-symbolic">
<title>utilities-terminal-symbolic</title>
<path  d="M4.375 0c-2.411 0-4.375 2.033-4.375 4.438v21.125c0 2.404 1.964 4.438 4.375 4.438h23.25c2.411 0 4.375-2.033 4.375-4.438v-21.125c0-2.404-1.964-4.438-4.375-4.438h-23.25zM4.375 4h23.25c0.246 0 0.375 0.162 0.375 0.438v21.125c0 0.276-0.129 0.438-0.375 0.438h-23.25c-0.246 0-0.375-0.162-0.375-0.438v-21.125c0-0.276 0.129-0.438 0.375-0.438z"></path>
<path  d="M8.625 11.813c-0.524 0.136-0.905 0.605-0.905 1.163 0 0.357 0.156 0.678 0.404 0.898l0.001 0.001 3.125 3.125-3.125 3.125c-0.224 0.224-0.362 0.533-0.362 0.875 0 0.683 0.554 1.237 1.237 1.237 0.342 0 0.651-0.139 0.875-0.362v0l4-4c0.233-0.219 0.379-0.53 0.379-0.875s-0.145-0.656-0.378-0.874l-0.001-0.001-4-4c-0.219-0.231-0.528-0.374-0.871-0.374-0.136 0-0.266 0.023-0.388 0.064l0.008-0.002z"></path>
<path  d="M16 20h6v2h-6v-2z"></path>
</symbol>
<symbol id="icon-utilities-system-monitor-symbolic">
<title>utilities-system-monitor-symbolic</title>
<path  d="M4.375 0c-2.41 0-4.375 2.036-4.375 4.438v21.125c0 2.402 1.965 4.438 4.375 4.438h23.25c2.41 0 4.375-2.036 4.375-4.438v-21.125c0-2.402-1.965-4.438-4.375-4.438h-23.25zM4.375 4h23.25c0.241 0 0.375 0.16 0.375 0.438v21.125c0 0.277-0.134 0.438-0.375 0.438h-23.25c-0.241 0-0.375-0.16-0.375-0.438v-21.125c0-0.277 0.134-0.438 0.375-0.438z"></path>
<path  d="M18.625 7.938c-0.333 0.097-0.59 0.354-0.686 0.68l-0.002 0.007-3.375 12.188-1.75-2.375c-0.18-0.262-0.476-0.433-0.812-0.438h-6.001v2h5.5l2.625 3.563c0.185 0.24 0.472 0.393 0.794 0.393 0.447 0 0.826-0.293 0.954-0.698l0.002-0.007 3.063-10.875 2.125 6.938c0.134 0.399 0.502 0.682 0.937 0.688h4.001v-2h-3.25l-2.875-9.375c-0.122-0.424-0.507-0.73-0.963-0.73-0.102 0-0.201 0.015-0.294 0.044l0.007-0.002z"></path>
</symbol>
<symbol id="icon-user-info-symbolic">
<title>user-info-symbolic</title>
<path  d="M15.11 12.187c-1.411 1.247-3.078 1.813-5.109 1.813s-3.706-0.581-5.117-1.828c-2.219 0.727-4.872 2.576-4.875 5.805l-0.008 6.023c-0.001 1.108 0.892 2 2 2h12v-10c-0.022-0.655 0.72-1.996 2-2l2.281-0.008c-1.43-1.211-2.314-1.58-3.172-1.805z"></path>
<path  d="M16 6c0 3.314-2.686 6-6 6s-6-2.686-6-6v0c0-3.314 2.686-6 6-6s6 2.686 6 6v0z"></path>
<path  d="M17.751 16c-0.985 0-1.75 0.765-1.75 1.75v12.5c0 0.985 0.765 1.75 1.75 1.75h12.5c0.985 0 1.75-0.765 1.75-1.75v-12.5c0-0.985-0.765-1.75-1.75-1.75zM22.001 18h4v2h-4zM22.001 22h4v8h-4z"></path>
</symbol>
<symbol id="icon-text-editor-symbolic">
<title>text-editor-symbolic</title>
<path  d="M10.004 20l13.996-14c2 0 4 2 4 4l-14 14h-4z"></path>
<path  d="M26 4c2 0 4 2 4 4l2-2c0-2-1.504-4-4-4z"></path>
<path  d="M2.188 0c-1.137 0-2.187 1.006-2.188 2.125v27.75c0 1.119 1.050 2.125 2.188 2.125h21.625c1.115-0 2.148-0.969 2.188-2.063 0.001-0.022 0-0.041 0-0.062v-13.875l-4 4v8h-18v-24h10l4 4 3.063-3.063-4.375-4.25c-0.401-0.417-0.979-0.683-1.563-0.688z"></path>
</symbol>
<symbol id="icon-system-users-symbolic">
<title>system-users-symbolic</title>
<path  d="M26.577 19.375c-0.988 0.959-2.155 1.394-3.577 1.394s-2.594-0.447-3.582-1.406c-1.553 0.559-3.41 1.981-3.413 4.465l-0.005 4.633c-0.001 0.852 0.624 1.538 1.4 1.538h11.2c0.776 0 1.4-0.686 1.4-1.538v-4.615c0-2.133-1.543-3.932-3.423-4.471z"></path>
<path  d="M27.615 14.615c0 2.549-2.066 4.615-4.615 4.615s-4.615-2.066-4.615-4.615v0c0-2.549 2.066-4.615 4.615-4.615s4.615 2.066 4.615 4.615v0z"></path>
<path  d="M12.576 11.375c-0.988 0.959-2.155 1.394-3.577 1.394s-2.594-0.447-3.582-1.406c-1.553 0.559-3.41 1.981-3.413 4.465l-0.005 4.633c-0.001 0.852 0.624 1.538 1.4 1.538h11.471c0.124-0.79 0.523-1.445 1.129-2v-4.154c0-2.133-1.543-3.932-3.423-4.471z"></path>
<path  d="M13.615 6.615c0 2.549-2.066 4.615-4.615 4.615s-4.615-2.066-4.615-4.615v0c0-2.549 2.066-4.615 4.615-4.615s4.615 2.066 4.615 4.615v0z"></path>
</symbol>
<symbol id="icon-system-software-install-symbolic">
<title>system-software-install-symbolic</title>
<path  d="M6 16h20v14.118c0 0.984-0.945 1.875-1.992 1.875h-16.008c-1.078 0-2-0.859-2-2z"></path>
<path  d="M13.375 5.937c-0.536 0.073-0.996 0.348-1.309 0.746l-0.003 0.004-5.625 6.937c-0.273 0.339-0.438 0.774-0.438 1.248 0 0.001 0 0.001 0 0.002v-0 2c-0 0.008-0 0.018-0 0.028 0 1.105 0.896 2 2 2s2-0.896 2-2c0-0.010-0-0.020-0-0.030l0 0.002v-1.313l5.188-6.313c0.319-0.353 0.514-0.823 0.514-1.339 0-1.105-0.896-2-2-2-0.115 0-0.229 0.010-0.339 0.029l0.012-0.002z"></path>
<path  d="M17.813 11.937c-0.010-0-0.021-0-0.033-0-1.105 0-2 0.896-2 2 0 1.094 0.879 1.983 1.969 2l0.002 0 4.313 0.75v0.313c-0 0.008-0 0.018-0 0.028 0 1.105 0.896 2 2 2s2-0.896 2-2c0-0.010-0-0.020-0-0.030l0 0.002v-2c0-0.011 0-0.023 0-0.035 0-0.972-0.693-1.782-1.613-1.963l-0.013-0.002-6-1c-0.153-0.042-0.328-0.066-0.509-0.066-0.041 0-0.081 0.001-0.122 0.004l0.006-0z"></path>
</symbol>
<symbol id="icon-system-file-manager-symbolic">
<title>system-file-manager-symbolic</title>
<path  d="M6.375 0c-2.41 0-4.375 2.036-4.375 4.438v23.125c0 2.402 1.965 4.438 4.375 4.438h19.25c2.41 0 4.375-2.036 4.375-4.438v-23.125c0-2.402-1.965-4.438-4.375-4.438h-19.25zM6 6h20v22h-20v-22zM8 8v8h16.063v-8h-16.063zM12.687 10.875c0.019-0.001 0.040-0.002 0.063-0.002s0.044 0.001 0.065 0.002l-0.003-0c0.056-0.011 0.121-0.018 0.188-0.018 0.552 0 1 0.448 1 1 0 0.006-0 0.012-0 0.019v-0.001 0.125h4v-0.125c-0-0.004-0-0.009-0-0.014 0-0.552 0.448-1 1-1s1 0.448 1 1c0 0.005-0 0.010-0 0.015v-0.001 0.125c0 1.091-0.909 2-2 2h-4c-1.091 0-2-0.909-2-2v-0.125c-0.001-0.015-0.001-0.032-0.001-0.050 0-0.441 0.285-0.815 0.682-0.948l0.007-0.002zM8.062 18v8h16.063v-8h-16.063zM12.687 20.875c0.019-0.001 0.040-0.002 0.063-0.002s0.044 0.001 0.065 0.002l-0.003-0c0.056-0.011 0.121-0.018 0.188-0.018 0.552 0 1 0.448 1 1 0 0.006-0 0.012-0 0.019v-0.001 0.125h4v-0.125c-0-0.004-0-0.009-0-0.014 0-0.552 0.448-1 1-1s1 0.448 1 1c0 0.005-0 0.010-0 0.015v-0.001 0.125c0 1.091-0.909 2-2 2h-4c-1.091 0-2-0.909-2-2v-0.125c-0.001-0.015-0.001-0.032-0.001-0.050 0-0.441 0.285-0.815 0.682-0.948l0.007-0.002z"></path>
</symbol>
<symbol id="icon-preferences-system-time-symbolic">
<title>preferences-system-time-symbolic</title>
<path  d="M15 0.027c-8.261 0-14.973 6.713-14.973 14.973s6.713 14.973 14.973 14.973c8.261 0 14.973-6.713 14.973-14.973s-6.713-14.973-14.973-14.973zM15 3.973c6.099 0 11.027 4.928 11.027 11.027s-4.928 11.027-11.027 11.027c-6.099 0-11.027-4.928-11.027-11.027s4.928-11.027 11.027-11.027z"></path>
<path  d="M8.625 7.938c-0.432 0.117-0.744 0.505-0.744 0.967 0 0.283 0.117 0.538 0.306 0.72l0 0 6.188 6.125c0.035 0.021 0.076 0.042 0.118 0.060l0.007 0.002c0.035 0.021 0.076 0.042 0.118 0.060l0.007 0.002c0.035 0.021 0.076 0.042 0.118 0.060l0.007 0.002c0.009 0 0.020 0.001 0.031 0.001s0.022-0 0.033-0.001l-0.002 0c0.035 0.021 0.076 0.042 0.118 0.060l0.007 0.002c0.028 0.003 0.061 0.004 0.094 0.004s0.066-0.002 0.098-0.005l-0.004 0h5.875c0.004 0 0.009 0 0.014 0 0.552 0 1-0.448 1-1s-0.448-1-1-1c-0.005 0-0.010 0-0.015 0h-5.499l-5.938-5.75c-0.184-0.204-0.449-0.331-0.744-0.331-0.069 0-0.136 0.007-0.2 0.020l0.006-0.001z"></path>
</symbol>
<symbol id="icon-preferences-system-sharing-symbolic">
<title>preferences-system-sharing-symbolic</title>
<path  d="M11.938 15.938c0 3.279-2.658 5.938-5.938 5.938s-5.938-2.658-5.938-5.938v0c0-3.279 2.658-5.938 5.938-5.938s5.938 2.658 5.938 5.938v0z"></path>
<path  d="M31.875 25.938c0 3.279-2.658 5.938-5.938 5.938s-5.938-2.658-5.938-5.938v0c0-3.279 2.658-5.938 5.938-5.938s5.938 2.658 5.938 5.938v0z"></path>
<path  d="M31.875 5.938c0 3.279-2.658 5.938-5.938 5.938s-5.938-2.658-5.938-5.938v0c0-3.279 2.658-5.938 5.938-5.938s5.938 2.658 5.938 5.938v0z"></path>
<path  d="M25.25 4.313l-20.125 9.75-3.625 1.813 3.625 1.813 20.063 10.125 1.813-3.625-16.438-8.313 16.438-8-1.75-3.563z"></path>
</symbol>
<symbol id="icon-preferences-system-search-symbolic">
<title>preferences-system-search-symbolic</title>
<path  d="M13.015 1.991c-6.058 0-11.021 4.958-11.021 11.009s4.964 11.009 11.021 11.009c6.058 0 11.021-4.958 11.021-11.009s-4.964-11.009-11.021-11.009zM13.015 6.009c3.895 0 6.999 3.101 6.999 6.991s-3.104 6.991-6.999 6.991c-3.895 0-6.999-3.101-6.999-6.991s3.104-6.991 6.999-6.991z"></path>
<path  d="M19.624 18c-0.941 0.175-1.643 0.99-1.643 1.968 0 0.58 0.247 1.103 0.642 1.468l0.001 0.001 8 8c0.362 0.355 0.859 0.574 1.407 0.574 1.111 0 2.011-0.9 2.011-2.011 0-0.563-0.232-1.072-0.605-1.438l-0-0-8-8c-0.363-0.37-0.869-0.6-1.428-0.6-0.136 0-0.269 0.014-0.397 0.039l0.013-0.002z"></path>
</symbol>
<symbol id="icon-preferences-system-privacy-symbolic">
<title>preferences-system-privacy-symbolic</title>
<path  d="M1.942 9.948v10h8.125v-10zM5.942 13.823l2-1.875v6h-2z"></path>
<path  d="M3.942 1.948c-1.22 0-2 0.843-2 1.938v0.062h2v-2zM3.942 3.948v2h2v-2h-2zM5.942 3.948h2v-2h-2v2zM7.942 3.948v2h2v-2h-2zM7.942 5.948h-2v2h2v-2zM3.942 5.948h-2v2h2v-2z"></path>
<path  d="M12.13 1.948v2h1.875v-2h-1.875zM14.005 3.948v2h2v-2h-2zM16.005 3.948h2v-2h-2v2zM18.005 3.948v2h2v-2h-2zM18.005 5.948h-2v2h2v-2zM14.005 5.948h-1.875v2h1.875v-2z"></path>
<path  d="M22.13 1.948v2h1.813v-2zM23.942 3.948v2h2v-2zM25.942 3.948h2v-2h-2zM27.942 3.948v2h2v-2zM27.942 5.948h-2v2h2zM23.942 5.948h-1.813v2h1.813z"></path>
<path  d="M12.13 9.948v10h7.875v-10zM13.942 11.948h2.094c1.556 0 1.906 0.795 1.906 1.986 0 0.153-0.046 0.234-0.125 0.452l-0.813 1.563h0.938v2.125h-4.063l2.056-3.812c0.094-0.187-0.002-0.305-0.119-0.313h-1.875z"></path>
<path  d="M22.13 9.948v10h7.875v-10zM23.942 11.948h4.063l-0.062 1v1.125l-0.438 0.875 0.375 0.688 0.125 0.25v2.063h-4.063v-2h1.813l-0.25-0.438-0.25-0.5 0.25-0.5 0.312-0.562h-1.875z"></path>
<path  d="M27.942 27.948c1.22 0 2-0.843 2-1.938v-0.062h-2v2zM27.942 25.948v-2h-2v2h2zM25.942 25.948h-2v2h2v-2zM23.942 25.948v-2h-2v2h2zM23.942 23.948h2v-2h-2v2zM27.942 23.948h2v-2h-2v2z"></path>
<path  d="M19.755 27.948v-2h-1.875v2h1.875zM17.88 25.948v-2h-2v2h2zM15.88 25.948h-2v2h2v-2zM13.88 25.948v-2h-2v2h2zM13.88 23.948h2v-2h-2v2zM17.88 23.948h1.875v-2h-1.875v2z"></path>
<path  d="M9.755 27.948v-2h-1.813v2zM7.942 25.948v-2h-2v2zM5.942 25.948h-2v2h2zM3.942 25.948v-2h-2v2zM3.942 23.948h2v-2h-2zM7.942 23.948h1.813v-2h-1.813z"></path>
</symbol>
<symbol id="icon-preferences-system-notifications-symbolic">
<title>preferences-system-notifications-symbolic</title>
<path opacity="0.5"  d="M17.817 7.948c0.037 0.334 0.125 0.656 0.125 1 0 4.971-4.029 9-9 9-0.235 0-0.457-0.045-0.688-0.062v4.438c0 2.008 1.617 3.625 3.625 3.625l3.090-0 4 4.094 4.125-4.094h3.222c2.008 0 3.625-1.617 3.625-3.625v-10.75c0-2.008-1.617-3.625-3.625-3.625z"></path>
<path  d="M8.942 1.948c-3.866 0-7 3.134-7 7s3.134 7 7 7c3.866 0 7-3.134 7-7s-3.134-7-7-7zM7.88 3.948h2.063l-0.125 2.75c-0.003 0.019-0.005 0.040-0.005 0.063s0.002 0.044 0.005 0.065l-0-0.002c-0.001 0.009-0.001 0.020-0.001 0.031s0 0.022 0.001 0.033l-0-0.001c0.041 0.118 0.132 0.209 0.247 0.249l0.003 0.001c0.009 0.001 0.020 0.001 0.031 0.001s0.022-0 0.033-0.001l-0.001 0c0.019 0.003 0.040 0.005 0.063 0.005s0.044-0.002 0.065-0.005l-0.002 0c0.019 0.003 0.040 0.005 0.063 0.005s0.044-0.002 0.065-0.005l-0.002 0c0.023-0.019 0.044-0.039 0.062-0.062l0.001-0.001 2.313-1.5 1 1.813-2.438 1.25c-0.009-0.001-0.020-0.001-0.031-0.001s-0.022 0-0.033 0.001l0.001-0c-0.023 0.019-0.044 0.039-0.062 0.062l-0.001 0.001c-0.035 0.053-0.057 0.117-0.062 0.186l-0 0.001c-0.003 0.019-0.005 0.040-0.005 0.063s0.002 0.044 0.005 0.065l-0-0.002c-0.001 0.009-0.001 0.020-0.001 0.031s0 0.022 0.001 0.033l-0-0.001c0.014 0.048 0.036 0.089 0.063 0.126l-0.001-0.001c0.019 0.023 0.039 0.044 0.062 0.062l0.001 0.001c0.019 0.023 0.039 0.044 0.062 0.062l0.001 0.001 2.5 1.25-1.063 1.813-2.313-1.562c-0.009-0.001-0.020-0.001-0.031-0.001s-0.022 0-0.033 0.001l0.001-0c-0.036-0.027-0.077-0.048-0.122-0.062l-0.003-0.001c-0.019-0.003-0.040-0.005-0.063-0.005s-0.044 0.002-0.065 0.005l0.002-0c-0.107 0.027-0.196 0.095-0.249 0.186l-0.001 0.002c-0.023 0.019-0.044 0.039-0.062 0.062l-0.001 0.001c-0.001 0.009-0.001 0.020-0.001 0.031s0 0.022 0.001 0.033l-0-0.001c-0.003 0.019-0.005 0.040-0.005 0.063s0.002 0.044 0.005 0.065l-0-0.002 0.125 2.75h-2.063l0.187-2.75c-0.005-0.070-0.028-0.134-0.063-0.189l0.001 0.002c-0.014-0.048-0.036-0.089-0.063-0.126l0.001 0.001c-0.036-0.027-0.077-0.048-0.122-0.062l-0.003-0.001c-0.036-0.027-0.077-0.048-0.122-0.062l-0.003-0.001c-0.009-0.001-0.020-0.001-0.031-0.001s-0.022 0-0.033 0.001l0.001-0c-0.070 0.005-0.134 0.028-0.189 0.063l0.002-0.001-2.375 1.563-1-1.813 2.5-1.25c0.023-0.019 0.044-0.039 0.062-0.062l0.001-0.001c0.023-0.019 0.044-0.039 0.062-0.062l0.001-0.001c0.027-0.036 0.048-0.077 0.062-0.122l0.001-0.003c0.001-0.009 0.001-0.020 0.001-0.031s-0-0.022-0.001-0.033l0 0.001c0.003-0.019 0.005-0.040 0.005-0.063s-0.002-0.044-0.005-0.065l0 0.002c0.001-0.009 0.001-0.020 0.001-0.031s-0-0.022-0.001-0.033l0 0.001c-0.014-0.048-0.036-0.089-0.063-0.126l0.001 0.001c-0.019-0.023-0.039-0.044-0.062-0.062l-0.001-0.001c-0.009-0.001-0.020-0.001-0.031-0.001s-0.022 0-0.033 0.001l0.001-0-2.5-1.25 1-1.813 2.375 1.5c0.019 0.023 0.039 0.044 0.062 0.062l0.001 0.001c0.019 0.003 0.040 0.005 0.063 0.005s0.044-0.002 0.065-0.005l-0.002 0c0.019 0.003 0.040 0.005 0.063 0.005s0.044-0.002 0.065-0.005l-0.002 0c0.009 0.001 0.020 0.001 0.031 0.001s0.022-0 0.033-0.001l-0.001 0c0.023-0.019 0.044-0.039 0.062-0.062l0.001-0.001c0.023-0.019 0.044-0.039 0.062-0.062l0.001-0.001c0.023-0.019 0.044-0.039 0.062-0.062l0.001-0.001c0.001-0.009 0.001-0.020 0.001-0.031s-0-0.022-0.001-0.033l0 0.001c0.027-0.036 0.048-0.077 0.062-0.122l0.001-0.003c0.001-0.009 0.001-0.020 0.001-0.031s-0-0.022-0.001-0.033l0 0.001-0.187-2.751z"></path>
</symbol>
<symbol id="icon-preferences-system-network-symbolic">
<title>preferences-system-network-symbolic</title>
<path  d="M3.5 8c-1.904 0-3.5 1.596-3.5 3.5v9c0 1.904 1.596 3.5 3.5 3.5h0.25l-3 6h18.5l-3-6h0.25c1.904 0 3.5-1.596 3.5-3.5v-9c0-1.904-1.596-3.5-3.5-3.5h-13zM4 12h12v8h-12v-8z"></path>
<path  d="M15.499 2c-1.904 0-3.5 1.596-3.5 3.5v0.5h16v8h-6v6.5c0 1.318-0.503 2.54-1.313 3.5h10.563l-3-6h0.25c1.904 0 3.5-1.596 3.5-3.5v-9c0-1.904-1.596-3.5-3.5-3.5h-13z"></path>
</symbol>
<symbol id="icon-preferences-system-network-proxy-symbolic">
<title>preferences-system-network-proxy-symbolic</title>
<path  d="M9.918 17.269v4.732h-7.182c-0.413 0-0.737 0.41-0.737 0.934v2.117c0 0.524 0.323 0.934 0.737 0.934 6.842 0 13.684 0 20.527 0 0.413 0 0.737-0.41 0.737-0.934v-2.117c0-0.524-0.323-0.934-0.737-0.934h-7.31v-4.732z"></path>
<path  d="M7.6 0c-1.902 0-3.6 1.587-3.6 3.492v13.227c0 1.905 1.697 3.492 3.736 3.492h10.528c2.038 0 3.736-1.587 3.736-3.492v-13.227c0-1.905-1.698-3.492-3.736-3.492zM8 4h10c0 0.633 0-0.632 0 0v12h-10c0 0 0 0.088 0 0v-12c0-0.088 0 0 0 0z"></path>
<path  d="M10 5.943h6v2.004h-6v-2.004z"></path>
<path  d="M14 9.952h2v2.004h-2v-2.004z"></path>
<path  d="M18.458 6c0.14 0 0 0.418 0 0.952v2.157c0 0.534 0.14 0.952 0.32 0.952 2.968 0 5.935 0 8.903 0 0.179 0 0.319-0.418 0.319-0.952v-2.157c0-0.534-0.14-0.952-0.319-0.952-0.32 0-9.171 0.126-9.223 0z"></path>
<path  d="M11.947 23.248c0.158-0.119 0.504 0.077 0.788 0.446l1.146 1.492c0.284 0.369 0.382 0.752 0.223 0.87-2.624 1.969-5.247 3.938-7.871 5.908-0.158 0.119-0.504-0.077-0.788-0.446l-1.146-1.492c-0.284-0.369-0.382-0.752-0.223-0.87 0 0 7.893-5.786 7.871-5.908z"></path>
<path  d="M14.053 23.248c-0.158-0.119-0.504 0.077-0.788 0.446l-1.146 1.492c-0.284 0.369-0.382 0.752-0.223 0.87 2.624 1.969 5.247 3.938 7.871 5.908 0.158 0.119 0.504-0.077 0.788-0.446l1.146-1.492c0.284-0.369 0.382-0.752 0.223-0.87 0 0-7.893-5.786-7.871-5.908z"></path>
</symbol>
<symbol id="icon-preferences-desktop-wallpaper-symbolic">
<title>preferences-desktop-wallpaper-symbolic</title>
<path  d="M24 2c3.324 0 6 2.676 6 6v12c0 3.324-2.676 6-6 6h-16c-3.324 0-6-2.676-6-6v-12c0-3.324 2.676-6 6-6h16zM24 6h-16c-1.108 0-2 0.892-2 2v12c0 1.108 0.892 2 2 2h16c1.108 0 2-0.892 2-2v-12c0-1.108-0.892-2-2-2z"></path>
<path  d="M16 28c-10 0-10 2-10 2 0 2 2 2 2 2h16c2 0 2-2 2-2s0-2-10-2z"></path>
<path  opacity="0.35"  d="M16 8v10l-8 0v2h16v-12z"></path>
<path  d="M14 8l-6 8h6z"></path>
</symbol>
<symbol id="icon-preferences-desktop-screensaver-symbolic">
<title>preferences-desktop-screensaver-symbolic</title>
<path  d="M24.217 12c1.239 1.502 1.991 3.421 1.991 5.52 0 4.798-3.89 8.688-8.688 8.688-2.099 0-4.019-0.752-5.52-1.991 1.050 4.478 5.066 7.783 9.864 7.783 5.598 0 10.136-4.538 10.136-10.136 0-4.798-3.305-8.814-7.783-9.864z"></path>
<path  d="M13.023 5.581v0c0.796 0 1.442 0.646 1.442 1.442v0c0 0.796-0.646 1.442-1.442 1.442v0c-0.796 0-1.442-0.646-1.442-1.442v0c0-0.796 0.646-1.442 1.442-1.442z"></path>
<path  d="M21.023 7.625v0c0.772 0 1.398 0.626 1.398 1.398v0c0 0.772-0.626 1.398-1.398 1.398v0c-0.772 0-1.398-0.626-1.398-1.398v0c0-0.772 0.626-1.398 1.398-1.398z"></path>
<path  d="M15.023 11.581v0c0.796 0 1.442 0.646 1.442 1.442v0c0 0.796-0.646 1.442-1.442 1.442v0c-0.796 0-1.442-0.646-1.442-1.442v0c0-0.796 0.646-1.442 1.442-1.442z"></path>
<path  d="M7.010 17.010l-1.49-4.51-4.51-1.49 4.51-1.49 1.49-4.51 1.49 4.51 4.51 1.49-4.51 1.49z"></path>
</symbol>
<symbol id="icon-preferences-desktop-remote-desktop-symbolic">
<title>preferences-desktop-remote-desktop-symbolic</title>
<path  d="M24 2c3.324 0 6 2.676 6 6v12c0 3.324-2.676 6-6 6h-16c-3.324 0-6-2.676-6-6v-12c0-3.324 2.676-6 6-6h16zM24 6h-16c-1.108 0-2 0.892-2 2v12c0 1.108 0.892 2 2 2h16c1.108 0 2-0.892 2-2v-12c0-1.108-0.892-2-2-2z"></path>
<path  d="M16 28c-10 0-10 2-10 2 0 2 2 2 2 2h16c2 0 2-2 2-2s0-2-10-2z"></path>
<path  d="M9 10c0 0-1 0-1 1v8c0 1 1 1 1 1h8c1 0 1-1 1-1v-8c0-1-0.875-1-1-1zM10 13.997h6v4h-6z"></path>
<path  d="M21 8c0 0-1 0-1 1l-0 1.969c0 0 0 0.999 1 1l2 0.002c0 0 1 0 1-1l0-1.969c0 0 0-0.999-1-1z"></path>
</symbol>
<symbol id="icon-preferences-desktop-locale-symbolic">
<title>preferences-desktop-locale-symbolic</title>
<path  d="M9.392 4.468c-7.164 0-9.332 2.8-9.332 2.8v20.099c0 0 2.167-2.153 9.332-2.153 5.832 0 8.944 2.153 14.356 2.153 4.178 0 6.389-2.8 6.389-2.8v-20.099c0 0-2.282 2.082-6.46 2.082-6.747 0-7.952-2.082-14.285-2.082zM15.255 10.011c2.658 0 4.75 2.161 4.75 4.875s-2.092 4.937-4.75 4.937c-2.658 0-4.813-2.223-4.813-4.938s2.155-4.875 4.813-4.875zM6.13 11.948l1.938 2.063-1.875-0.062 1.875 2-1.938-0.062 1.938 2.063-2-0.062 0.062-2h-0.062l0.062-1.938h-0.062zM15.255 11.948c-1.588 0-2.938 1.316-2.938 2.938s1.35 2.937 2.938 2.937c1.588 0 2.875-1.316 2.875-2.938s-1.287-2.938-2.875-2.938zM24.005 11.948v2l0.062 1.938h-0.062l0.062 2-2 0.062 1.938-2.063-1.938 0.062 1.875-2-1.875 0.062zM8.13 17.886l1.938 2.063-2-0.062zM22.005 17.886l0.062 2-2 0.062zM10.13 19.886l1.938 2.063-2-0.062zM20.005 19.886l0.062 2-2 0.062z"></path>
</symbol>
<symbol id="icon-preferences-desktop-keyboard-shortcuts-symbolic">
<title>preferences-desktop-keyboard-shortcuts-symbolic</title>
<path  d="M3.003 16c-1.664 0-3.003 1.338-3.003 3v8c0 1.662 1.34 3 3.003 3h18.020c1.664 0 3.003-1.338 3.003-3v-8c0-1.662-1.34-3-3.003-3zM3.129 18c6.371 0.537 12.231 0.461 17.77 0 0.605-0.050 1.126 0.519 1.126 1.125v5.75c0 0.606-0.523 1.057-1.126 1.125-6.008 0.679-11.929 0.654-17.77 0-0.603-0.067-1.126-0.519-1.126-1.125v-5.75c0-0.606 0.522-1.176 1.126-1.125z"></path>
<path  d="M19.022 0c-1.664 0-3.003 1.338-3.003 3v8c0 1.662 1.34 3 3.003 3h8.009c1.664 0 3.003-1.338 3.003-3v-8c0-1.662-1.34-3-3.003-3zM19.147 2c2.586 0.256 5.173 0.244 7.759 0 0.604-0.057 1.126 0.519 1.126 1.125v5.75c0 0.606-0.524 1.051-1.126 1.125-2.509 0.307-5.083 0.358-7.759 0-0.601-0.081-1.126-0.519-1.126-1.125v-5.75c0-0.606 0.523-1.185 1.126-1.125z"></path>
<path  d="M3.003 2c-1.664 0-3.003 1.338-3.003 3v6c0 1.662 1.34 3 3.003 3h8.009c1.664 0 3.003-1.338 3.003-3v-6c0-1.662-1.34-3-3.003-3zM3.129 4c3.384 0.399 5.696 0.262 7.759 0 0.602-0.076 1.126 0.519 1.126 1.125v5.75c0 0.606-0.525 1.048-1.126 1.125-2.43 0.313-4.996 0.354-7.759 0-0.602-0.077-1.126-0.519-1.126-1.125v-5.75c0-0.606 0.524-1.196 1.126-1.125z"></path>
</symbol>
<symbol id="icon-preferences-desktop-display-symbolic">
<title>preferences-desktop-display-symbolic</title>
<path  d="M24 2c3.324 0 6 2.676 6 6v12c0 3.324-2.676 6-6 6h-16c-3.324 0-6-2.676-6-6v-12c0-3.324 2.676-6 6-6h16zM24 6h-16c-1.108 0-2 0.892-2 2v12c0 1.108 0.892 2 2 2h16c1.108 0 2-0.892 2-2v-12c0-1.108-0.892-2-2-2z"></path>
<path  d="M16 28c-10 0-10 2-10 2 0 2 2 2 2 2h16c2 0 2-2 2-2s0-2-10-2z"></path>
<path  d="M6 4l-2 19.049 24-1.049zM8.037 11.992l9.963 8.008-9.93 0.051z"></path>
</symbol>
<symbol id="icon-preferences-desktop-accessibility-symbolic">
<title>preferences-desktop-accessibility-symbolic</title>
<path  d="M16 0c-8.837 0-16 7.163-16 16s7.163 16 16 16c8.837 0 16-7.163 16-16s-7.163-16-16-16zM16 3.886c2.243 0 4.060 1.818 4.060 4.060s-1.818 4.060-4.060 4.060c-2.243 0-4.060-1.818-4.060-4.060s1.818-4.060 4.060-4.060zM6.405 12.127c6.413-0.092 12.826-0.031 19.239 0.023 0 0 0.862-0.016 0.862 0.848v0.417c0 0.452-0.471 0.576-0.471 0.576l-5.97 1.156v4.222l2.709 7.813c0.274 0.451-0.317 0.58-0.317 0.58l-1.053 0.010c-0.506 0-0.696-0.426-0.696-0.426l-4.144-7.183c-0.445-1.008-0.472-0.88-0.893 0.002l-4.338 7.172c-0.145 0.435-0.711 0.445-0.711 0.445l-1.141-0.018c0 0-0.417-0.012-0.321-0.418l2.775-7.978v-4.222l-5.784-1.11c-0.465-0.157-0.658-0.589-0.658-0.589v-0.435c0 0-0.019-0.887 0.911-0.887z"></path>
</symbol>
<symbol id="icon-preferences-color-symbolic">
<title>preferences-color-symbolic</title>
<path  d="M16 2.014c-4.406 0-7.986 3.58-7.986 7.986s3.58 7.986 7.986 7.986c4.406 0 7.986-3.58 7.986-7.986s-3.58-7.986-7.986-7.986zM16 4.119c3.253 0 5.881 2.628 5.881 5.881s-2.628 5.881-5.881 5.881c-3.253 0-5.881-2.628-5.881-5.881s2.628-5.881 5.881-5.881z"></path>
<path  d="M8 16.014c-4.406 0-7.986 3.58-7.986 7.986s3.58 7.986 7.986 7.986c4.406 0 7.986-3.58 7.986-7.986s-3.58-7.986-7.986-7.986zM8 18.119c3.253 0 5.881 2.628 5.881 5.881s-2.628 5.881-5.881 5.881c-3.253 0-5.881-2.628-5.881-5.881s2.628-5.881 5.881-5.881z"></path>
<path  d="M31.997 24c0 4.417-3.581 7.998-7.998 7.998s-7.998-3.581-7.998-7.998v0c0-4.417 3.581-7.998 7.998-7.998s7.998 3.581 7.998 7.998v0z"></path>
<path  opacity="0.364035"  d="M14.934 24c0 3.829-3.104 6.933-6.933 6.933s-6.933-3.104-6.933-6.933v0c0-3.829 3.104-6.933 6.933-6.933s6.933 3.104 6.933 6.933v0z"></path>
</symbol>
<symbol id="icon-help-browser-symbolic">
<title>help-browser-symbolic</title>
<path  d="M16 0c-8.829 0-16 7.171-16 16s7.171 16 16 16c8.829 0 16-7.171 16-16s-7.171-16-16-16zM16 4c6.683 0 12 5.317 12 12s-5.317 12-12 12c-6.683 0-12-5.317-12-12s5.317-12 12-12z"></path>
<path  d="M14.688 10c-2.572 0-4.688 2.115-4.688 4.688v2.625c0 2.572 2.115 4.688 4.688 4.688h2.625c2.572 0 4.688-2.115 4.688-4.688v-2.625c0-2.572-2.115-4.688-4.688-4.688h-2.625zM14.688 12h2.625c1.499 0 2.688 1.189 2.688 2.688v2.625c0 1.499-1.189 2.688-2.688 2.688h-2.625c-1.499 0-2.688-1.189-2.688-2.688v-2.625c0-1.499 1.189-2.688 2.688-2.688z"></path>
<path  d="M9.438 2.875c-3.021 1.215-5.362 3.597-6.563 6.625l7.5 3.75c0.504-1.281 1.485-2.341 2.75-2.875l-3.688-7.5zM22.563 2.875l-3.688 7.5c1.265 0.534 2.246 1.594 2.75 2.875l7.5-3.75c-1.2-3.028-3.542-5.41-6.563-6.625zM10.375 18.875l-7.5 3.75c1.214 2.977 3.578 5.3 6.563 6.5l3.75-7.5c-1.254-0.511-2.287-1.504-2.813-2.75zM21.625 18.875c-0.526 1.246-1.559 2.239-2.813 2.75l3.75 7.5c2.985-1.2 5.348-3.523 6.563-6.5l-7.5-3.75z"></path>
</symbol>
<symbol id="icon-goa-panel-symbolic">
<title>goa-panel-symbolic</title>
<path  d="M8.063 2v8h-6c-1.091 0-1.938 0.847-1.938 1.938s0.847 2 1.938 2h6v4.125h-6c-1.091 0-1.938 0.847-1.938 1.938s0.847 2 1.938 2h6v8l2-0.187c7.35-0.689 11.534-8.046 11.875-13.75 0.473-0.133 1.061 0.022 1.375 0.375v0.062c0.329 0.315 0.749 0.822 1.25 1.313s1.207 0.958 2.125 1.063c0.944 0.080 1.777-0.316 2.313-0.938 0.523-0.606 0.799-1.415 0.75-2.25-0-0.022 0.001-0.041 0-0.062-0.073-2.018-1.469-3.383-2.438-4.438-0.655-0.718-1.038-1.583-0.813-2.25 0.196-0.572 0.925-0.983 1.625-0.938h0.125c1.146-0.040 1.41 0.006 2.625 0v-2c-1.124 0.006-1.473-0.037-2.625 0-0.027 0.001-0.034-0.001-0.062 0-1.487-0.073-3.023 0.735-3.563 2.313-0.573 1.693 0.344 3.257 1.25 4.25 1.013 1.102 1.852 2.104 1.875 3.188h0.062c0.020 0.254-0.116 0.647-0.313 0.875s-0.396 0.332-0.625 0.313c-0.334-0.038-0.589-0.222-0.938-0.563-0.34-0.332-0.708-0.784-1.188-1.25-0.014-0.014-0.049 0.014-0.062 0-0.731-0.791-1.805-1.214-2.813-1.125-0.893-6.237-5.824-10.938-11.813-11.813l-2-0.187zM10.063 6.188c4.085 0.855 7.41 4.238 7.937 8.625 0.627 5.216-2.783 10.050-7.938 11.063v-19.688z"></path>
<path  opacity="0.3"  d="M12.688 7.75c-1.556-0.262-2.424 2.672-0.589 1.639-0.046-1.86 1.363 0.182 0.153 0.532-0.91 0.179-1.311-0.141-1.885 0.91-0.714 0.744-0.363 2.387 0.639 1.014 0.78-0.578 1.259 1.567 1.183-0.042 0.149 0.328 0.751 1.019 1.21 0.717 1.133 0.222 1.244 1.324-0.032 1.058-1.271 0.231-3.302-1.876-3.326 0.524 0.040 1.3 0.014 2.6 0.022 3.9 1.906-0.694 1.917 2.155 1.828 3.44 0.185 1.006 0.326 3.798 1.85 2.413 0.981-1.393 1.871-2.745 1.695-4.507 0.463-0.701 1.912-2.726 0.126-2.592-0.668-0.516-1.396-3.439-0.377-1.624 0.092 1.533 1.478 1.963 2.059 0.417 0.701-0.786-1.838-0.95-0.617-1.396 0.897 1.14 1.863 0.052 1.059-0.989-0.747-1.597-1.679-4.351-3.443-4.594-0.542 0.442-0.992-0.268-0.246-0.4-0.373-0.271-0.926-0.155-1.308-0.418z"></path>
</symbol>
<symbol id="icon-gnome-power-manager-symbolic">
<title>gnome-power-manager-symbolic</title>
<path  d="M6.937 0c-0.981 0-1.592 0.458-2.062 0.939s-0.875 1.119-0.875 2.067l0 0.994h-4v28c0 0 14 0 14 0v-4l-9.901 0.099-0.099-20.099h4c0-1.331 0-4 0-4h6l-0 4h4l0 2h4l-0-6h-4v-0.806c-0.048-0.863-0.34-1.508-0.813-2.067-0.447-0.53-1.253-1.061-2.312-1.065v-0.063h-7.937z"></path>
<path  d="M12 20h4c0.553-2.207 2.13-7.448 6-8h6v4h4v4h-4v4h4v4h-4v4h-6c-3.87-0.552-5.447-5.793-6-8h-4z"></path>
</symbol>
<symbol id="icon-bluetooth-symbolic">
<title>bluetooth-symbolic</title>
<path  d="M13.721 0.019c-0.99 0.128-1.746 0.966-1.746 1.98 0 0.005 0 0.011 0 0.016v-0.001 7.11l-2.557-2.557c-0.367-0.367-0.874-0.594-1.435-0.594-1.12 0-2.029 0.908-2.029 2.029 0 0.56 0.227 1.067 0.594 1.435l5.426 5.426v2.245l-5.426 5.426c-0.367 0.367-0.594 0.874-0.594 1.435 0 1.12 0.908 2.029 2.029 2.029 0.56 0 1.067-0.227 1.435-0.594l2.557-2.557v7.11c-0 0.014-0.001 0.030-0.001 0.047 0 1.102 0.894 1.996 1.996 1.996 0.563 0 1.071-0.233 1.434-0.608l7.984-7.984c0.375-0.363 0.608-0.872 0.608-1.434s-0.233-1.071-0.608-1.434l-0.001-0-4.553-4.553 4.553-4.553c0.375-0.363 0.608-0.872 0.608-1.434s-0.233-1.071-0.608-1.434l-0.001-0.001-7.983-7.983c-0.361-0.359-0.858-0.581-1.407-0.581-0.098 0-0.194 0.007-0.287 0.021l0.011-0.001zM15.966 6.88l3.118 3.119-3.119 3.119v-6.237zM15.966 18.855l3.118 3.119-3.119 3.119v-6.237z"></path>
<path  d="M5.988 6.007h1.996v1.996h-1.996v-1.996z"></path>
<path  d="M5.988 23.969h1.996v1.996h-1.996v-1.996z"></path>
<path  d="M11.975 29.957h1.996v1.996h-1.996v-1.996z"></path>
<path  d="M11.975 0.019h1.996v1.996h-1.996v-1.996z"></path>
</symbol>
<symbol id="icon-applets-screenshooter-symbolic">
<title>applets-screenshooter-symbolic</title>
<path  d="M28 0c2.4 0 4 1.597 4 4v8h-4v-7.5c0-0.248-0.113-0.5-0.375-0.5h-23.25c-0.262 0-0.375 0.252-0.375 0.5v23.5c-2.4 0-4-1.847-4-4.25v-19.75c0-2.403 1.6-4 4-4z"></path>
<path  d="M14.5 12c-0.943 0-1.486 1.084-1.5 2v2h-5c-0.937 0.13-2 1.083-2 2v12c0 0.917 1.054 2 2 2h20c0.946 0 2-1.083 2-2v-12c0-0.917-1.054-2-2-2h-5v-2c0-0.917-0.682-2-1.625-2zM18 18c3.314 0 6 2.686 6 6s-2.686 6-6 6c-3.314 0-6-2.686-6-6s2.686-6 6-6z"></path>
<path  d="M22 24c0 2.209-1.791 4-4 4s-4-1.791-4-4v0c0-2.209 1.791-4 4-4s4 1.791 4 4v0z"></path>
</symbol>
<symbol id="icon-accessories-text-editor-symbolic">
<title>accessories-text-editor-symbolic</title>
<path  d="M10.809 12.005c-0.514 0.048-0.913 0.477-0.913 0.999 0 0.554 0.449 1.003 1.003 1.003 0.034 0 0.068-0.002 0.101-0.005l-0.004 0h11.988c0.004 0 0.009 0 0.014 0 0.552 0 0.999-0.447 0.999-0.999s-0.447-0.999-0.999-0.999c-0.005 0-0.010 0-0.015 0h-11.987c-0.028-0.003-0.061-0.004-0.094-0.004s-0.066 0.002-0.098 0.005l0.004-0z"></path>
<path  d="M10.809 16.001c-0.514 0.048-0.913 0.477-0.913 0.999 0 0.554 0.449 1.003 1.003 1.003 0.034 0 0.068-0.002 0.101-0.005l-0.004 0h9.99c0.004 0 0.009 0 0.014 0 0.552 0 0.999-0.447 0.999-0.999s-0.447-0.999-0.999-0.999c-0.005 0-0.010 0-0.015 0h-9.989c-0.028-0.003-0.061-0.004-0.094-0.004s-0.066 0.002-0.098 0.005l0.004-0z"></path>
<path  d="M10.809 19.997c-0.514 0.048-0.913 0.477-0.913 0.999 0 0.554 0.449 1.003 1.003 1.003 0.034 0 0.068-0.002 0.101-0.005l-0.004 0h11.988c0.004 0 0.009 0 0.014 0 0.552 0 0.999-0.447 0.999-0.999s-0.447-0.999-0.999-0.999c-0.005 0-0.010 0-0.015 0h-11.987c-0.028-0.003-0.061-0.004-0.094-0.004s-0.066 0.002-0.098 0.005l0.004-0z"></path>
<path  d="M10.809 23.993c-0.514 0.048-0.913 0.477-0.913 0.999 0 0.554 0.449 1.003 1.003 1.003 0.034 0 0.068-0.002 0.101-0.005l-0.004 0h5.994c0.004 0 0.009 0 0.014 0 0.552 0 0.999-0.447 0.999-0.999s-0.447-0.999-0.999-0.999c-0.005 0-0.010 0-0.015 0h-5.993c-0.028-0.003-0.061-0.004-0.094-0.004s-0.066 0.002-0.098 0.005l0.004-0z"></path>
<path  d="M7.999 2.016c-2.179 0-3.996 1.817-3.996 3.996v21.977c0 2.179 1.817 3.996 3.996 3.996h17.981c2.179 0 3.996-1.817 3.996-3.996v-21.977c0-2.179-1.817-3.996-3.996-3.996 0 8.658 0 17.315 0 25.973h-17.981c0-8.658 0-17.315 0-25.973z"></path>
<path  d="M10.809 0.018c-0.465 0.091-0.812 0.496-0.812 0.981 0 0.006 0 0.012 0 0.019v-0.001 5.994c-0 0.004-0 0.009-0 0.014 0 0.552 0.447 0.999 0.999 0.999s0.999-0.447 0.999-0.999c0-0.005-0-0.010-0-0.015v0.001-5.994c0-0.005 0-0.011 0-0.018 0-0.552-0.447-0.999-0.999-0.999-0.066 0-0.131 0.006-0.194 0.019l0.006-0.001z"></path>
<path  d="M14.804 0.018c-0.465 0.091-0.812 0.496-0.812 0.981 0 0.006 0 0.012 0 0.019v-0.001 5.994c-0 0.004-0 0.009-0 0.014 0 0.552 0.447 0.999 0.999 0.999s0.999-0.447 0.999-0.999c0-0.005-0-0.010-0-0.015v0.001-5.994c0-0.005 0-0.011 0-0.018 0-0.552-0.447-0.999-0.999-0.999-0.066 0-0.131 0.006-0.194 0.019l0.006-0.001z"></path>
<path  d="M18.8 0.018c-0.465 0.091-0.812 0.496-0.812 0.981 0 0.006 0 0.012 0 0.019v-0.001 5.994c-0 0.004-0 0.009-0 0.014 0 0.552 0.447 0.999 0.999 0.999s0.999-0.447 0.999-0.999c0-0.005-0-0.010-0-0.015v0.001-5.994c0-0.005 0-0.011 0-0.018 0-0.552-0.447-0.999-0.999-0.999-0.066 0-0.131 0.006-0.194 0.019l0.006-0.001z"></path>
<path  d="M22.796 0.018c-0.465 0.091-0.812 0.496-0.812 0.981 0 0.006 0 0.012 0 0.019v-0.001 5.994c-0 0.004-0 0.009-0 0.014 0 0.552 0.447 0.999 0.999 0.999s0.999-0.447 0.999-0.999c0-0.005-0-0.010-0-0.015v0.001-5.994c0-0.005 0-0.011 0-0.018 0-0.552-0.447-0.999-0.999-0.999-0.066 0-0.131 0.006-0.194 0.019l0.006-0.001z"></path>
</symbol>
<symbol id="icon-accessories-dictionary-symbolic">
<title>accessories-dictionary-symbolic</title>
<path  d="M19.129 2.261c-1.128 0.177-2.48 0.757-4 1.563-3.087-1.697-5.491-1.767-7.5-1.25-2.129 0.548-3.856 1.393-6.563 1.313h-1v21.625h1c2.644 0 4.933-1.22 7.063-1.75s3.965-0.574 6.313 1.5l0.625 0.563 0.688-0.563c2.334-2.127 4.096-2.099 6.188-1.563s4.342 1.795 7 1.813h1.063v-21.625h-1c-3.015 0-4.592-0.897-6.563-1.438-0.985-0.27-2.044-0.387-3.313-0.187zM19.379 4.198c0.964-0.159 1.743-0.037 2.563 0.187 1.443 0.396 3.338 1.173 6.063 1.375v17.5c-1.732-0.259-3.514-0.974-5.563-1.5-2.214-0.568-4.821-0.333-7.375 1.625-2.574-1.91-5.2-2.119-7.438-1.563-2.070 0.515-3.832 1.192-5.563 1.438v-17.5c2.528-0.151 4.464-0.839 6.063-1.25 1.839-0.473 3.47-0.57 6.5 1.25l0.5 0.25 0.5-0.25c1.64-0.935 2.786-1.403 3.75-1.563z"></path>
<path  d="M14.067 4.698h2v19.207h-2v-19.207z"></path>
<path  d="M26.004 4.948v22.813l-21.938 0.125v-22.875h-4v26.938l2-0.062 27.938-0.125v-26.813h-4z"></path>
<path opacity="0.3"  d="M1.817 29.448v-4.375l8.439-2.261 4.454 1.194 5.006-1.341 7.483 2.005v4.904z"></path>
</symbol>
<symbol id="icon-accessories-character-map-symbolic">
<title>accessories-character-map-symbolic</title>
<path  d="M7.405 2c-3.066 0-5.438 2.639-5.438 5.688v16.688c0 3.049 2.372 5.688 5.438 5.688h17.158c3.066 0 5.5-2.639 5.5-5.688v-16.688c0-3.049-2.434-5.688-5.5-5.688zM8.967 4.063c7.053 0.512 10.634 0.268 14.095 0 1.508-0.117 3.063 1.232 3.063 2.875v14.75c0 1.331-1.062 2.191-2.375 2.375-5.673 0.794-9.506 0.88-15.345 0-1.311-0.198-2.375-1.044-2.375-2.375v-14.688c0-1.643 1.429-3.047 2.938-2.938z"></path>
<path  d="M21.062 11.938l-5.813 0.125 0.062 2 5.687-0.125c0.414 0.032 0.679 0.192 0.813 0.313s0.25 0.219 0.25 0.563v1.188h-5c-0.906-0.050-1.782 0.314-2.313 0.875-0.543 0.574-0.786 1.328-0.813 2.063s0.167 1.518 0.688 2.125c0.509 0.593 1.389 0.947 2.313 0.938 0.022-0 0.041 0.001 0.062 0h6.938v-1l0.125-6.188c0-0.805-0.324-1.565-0.875-2.063s-1.265-0.756-2-0.813h-0.125zM16.937 18h5.062l-0.062 2h-5c-0.44 0.014-0.611-0.087-0.75-0.25s-0.261-0.455-0.25-0.75c0.010-0.295 0.155-0.584 0.313-0.75s0.287-0.28 0.688-0.25z"></path>
<path  d="M22.687 6.063l-6 2 0.625 1.875 6-2-0.625-1.875z"></path>
</symbol>
<symbol id="icon-accessories-calculator-symbolic">
<title>accessories-calculator-symbolic</title>
<path  d="M4.063 0c-1.084 0-2 0.658-2 1.875v28.25c0 1.173 0.753 1.875 2 1.875h26.063c1.040 0 1.875-0.702 1.875-1.875v-28.25c0-1.084-0.791-1.875-1.875-1.875h-26.063zM6 4.063h22.063v5.938h-22.063v-5.938zM6.375 12h3.25c0.222 0 0.375 0.153 0.375 0.375v3.25c0 0.222-0.153 0.375-0.375 0.375h-3.25c-0.222 0-0.375-0.153-0.375-0.375v-3.25c0-0.222 0.153-0.375 0.375-0.375zM12.375 12h3.25c0.222 0 0.375 0.153 0.375 0.375v3.25c0 0.222-0.153 0.375-0.375 0.375h-3.25c-0.222 0-0.375-0.153-0.375-0.375v-3.25c0-0.222 0.153-0.375 0.375-0.375zM18.375 12h3.25c0.222 0 0.375 0.153 0.375 0.375v3.25c0 0.222-0.153 0.375-0.375 0.375h-3.25c-0.222 0-0.375-0.153-0.375-0.375v-3.25c0-0.222 0.153-0.375 0.375-0.375zM24.375 12h3.25c0.222 0 0.375 0.153 0.375 0.375v3.25c0 0.222-0.153 0.375-0.375 0.375h-3.25c-0.222 0-0.375-0.153-0.375-0.375v-3.25c0-0.222 0.153-0.375 0.375-0.375zM6.375 18h3.25c0.222 0 0.375 0.153 0.375 0.375v3.25c0 0.222-0.153 0.375-0.375 0.375h-3.25c-0.222 0-0.375-0.153-0.375-0.375v-3.25c0-0.222 0.153-0.375 0.375-0.375zM12.375 18h3.25c0.222 0 0.375 0.153 0.375 0.375v3.25c0 0.222-0.153 0.375-0.375 0.375h-3.25c-0.222 0-0.375-0.153-0.375-0.375v-3.25c0-0.222 0.153-0.375 0.375-0.375zM18.375 18h3.25c0.222 0 0.375 0.153 0.375 0.375v3.25c0 0.222-0.153 0.375-0.375 0.375h-3.25c-0.222 0-0.375-0.153-0.375-0.375v-3.25c0-0.222 0.153-0.375 0.375-0.375zM24.375 18h3.25c0.222 0 0.375 0.153 0.375 0.375v3.25c0 0.222-0.153 0.375-0.375 0.375h-3.25c-0.222 0-0.375-0.153-0.375-0.375v-3.25c0-0.222 0.153-0.375 0.375-0.375zM6.375 24h3.25c0.222 0 0.375 0.153 0.375 0.375v3.25c0 0.222-0.153 0.375-0.375 0.375h-3.25c-0.222 0-0.375-0.153-0.375-0.375v-3.25c0-0.222 0.153-0.375 0.375-0.375zM12.375 24h3.25c0.222 0 0.375 0.153 0.375 0.375v3.25c0 0.222-0.153 0.375-0.375 0.375h-3.25c-0.222 0-0.375-0.153-0.375-0.375v-3.25c0-0.222 0.153-0.375 0.375-0.375zM18.375 24h3.25c0.222 0 0.375 0.153 0.375 0.375v3.25c0 0.222-0.153 0.375-0.375 0.375h-3.25c-0.222 0-0.375-0.153-0.375-0.375v-3.25c0-0.222 0.153-0.375 0.375-0.375zM24.375 24h3.25c0.222 0 0.375 0.153 0.375 0.375v3.25c0 0.222-0.153 0.375-0.375 0.375h-3.25c-0.222 0-0.375-0.153-0.375-0.375v-3.25c0-0.222 0.153-0.375 0.375-0.375z"></path>
</symbol>
</defs>
</svg>
