<svg
xmlns="http://www.w3.org/2000/svg"
xmlns:rdf="http://www.w3.org/1999/02/22-rdf-syntax-ns#"
xmlns:dc="http://purl.org/dc/elements/1.1/"
xmlns:cc="http://creativecommons.org/ns#"
width="720"
height="1008"

version="1.1"
style="fill:black;stroke:none">
<title>Gnome Icon Theme Symbolic [Devices Set]</title>
<desc> This package contains a set of icons used by the GNOME desktop. The icons are used in the panel menu, and in nautilus and other applications, to represent the different applications, files, directories, and devices.</desc>
<metadata>
    <rdf:RDF>
    <cc:Work rdf:about="">
    <dc:format>image/svg+xml</dc:format>
    <dc:type rdf:resource="http://purl.org/dc/dcmitype/StillImage" />
    <dc:title>Gnome Icon Theme Symbolic [Devices Set]</dc:title>
    <dc:date>2017-12-09</dc:date>
    <dc:creator>
    <cc:Agent>
    <dc:title>Gnome</dc:title>
</cc:Agent>
</dc:creator>
<dc:rights>
<cc:Agent>
<dc:title>Creative Commons - Attribution Share Alike</dc:title>
</cc:Agent>
</dc:rights>
<dc:language>English</dc:language>

<dc:source>https://launchpad.net/gnome-icon-theme-symbolic</dc:source>
<dc:description>This package contains a set of icons used by the GNOME desktop. The icons are used in the panel menu, and in nautilus and other applications, to represent the different applications, files, directories, and devices.</dc:description>
</cc:Work>
</rdf:RDF>
</metadata>
<defs>
<symbol id="icon-video-display-symbolic">
<title>video-display-symbolic</title>
<path d="M6 2c-3.324 0-6 2.676-6 6v14c0 3.324 2.676 6 6 6h20c3.324 0 6-2.676 6-6v-14c0-3.324-2.676-6-6-6zM6 6h20c1.108 0 2 0.892 2 2v14c0 1.108-0.892 2-2 2h-20c-1.108 0-2-0.892-2-2v-14c0-1.108 0.892-2 2-2z"></path>
<path d="M16 32c6 0 8-2 8-2h-16c0 0 2 2 8 2z"></path>
</symbol>
<symbol id="icon-scanner-symbolic">
<title>scanner-symbolic</title>
<path d="M6 0c-1.157 0-2.12 0.398-2.938 1.125-0.409 0.363-0.779 0.836-1 1.5s-0.224 1.548 0.125 2.25l2 4c0.176 0.355 0.406 0.855 0.75 1.375 0.48-0.146 0.988-0.25 1.5-0.25h19.125c0.512 0 1.020 0.104 1.5 0.25 0.344-0.521 0.574-1.020 0.75-1.375l2-4c0.349-0.702 0.346-1.586 0.125-2.25s-0.591-1.137-1-1.5c-0.818-0.727-1.781-1.125-2.938-1.125h-20zM6.25 4h19.5l-1.563 3.125c-0.236 0.474-0.354 0.742-0.438 0.875h-15.5c-0.084-0.133-0.202-0.401-0.438-0.875l-1.563-3.125z"></path>
<path d="M8 12c-0.975 0-1.87 0.288-2.625 0.875s-1.375 1.564-1.375 2.688v16.438h24v-16.438c0-1.124-0.62-2.101-1.375-2.688s-1.65-0.875-2.625-0.875zM8 14h16v12h-16zM22 28h2v2h-2z"></path>
<path opacity="0.35" d="M6 8h20v-4h-20v4z"></path>
<path d="M10 22.063h12v2h-12v-2z"></path>
<path opacity="0.35" d="M10 16.063h12v1.938l-12 2z"></path>
</symbol>
<symbol id="icon-printer-symbolic">
<title>printer-symbolic</title>
<path d="M4 8c-1 0-2 1-2 2v8c0 1 1 2 2 2h2v-4h20v4h2c1 0 2-1 2-2v-8c0-1-1-2-2-2h-24z"></path>
<path d="M8 2v4h16v-4h-16z"></path>
<path d="M8 18v10h16v-10h-16zM10 20h12v2h-12v-2zM10 24h10v2h-10v-2z"></path>
</symbol>
<symbol id="icon-printer-network-symbolic">
<title>printer-network-symbolic</title>
<path d="M12 24v4h-11.063c-0.526 0-0.938 0.411-0.938 0.938v2.125c0 0.526 0.412 0.938 0.938 0.938 8.708 0 17.417 0 26.125 0 0.526 0 0.938-0.412 0.938-0.938v-2.125c0-0.526-0.412-0.938-0.938-0.938h-11.063v-4z"></path>
<path d="M8.094 4.25v11.74h11.906v-7.865l-4-3.875zM4 16.022v7.916h19.938v-7.916h-1.906l-0.004 1.96-16.058 0.070v-2.031z"></path>
</symbol>
<symbol id="icon-phone-symbolic">
<title>phone-symbolic</title>
<path d="M12 2c-2.018 0.010-2 2-2 2v22c0 2 2 2 2 2h8c2 0 2-2 2-2v-16c0.002-1.108-0.892-2-2-2h-6v-4c0 0-0.018-1.989-2-2zM12 10h8v6.063l-8-0.062zM12 18h2v2h2v-2h2v2h2v2h-2v2h2v2h-2v-2h-2v2h-2v-2h-2v-2h2v-2h-2zM14 22v2h2v-2zM16 22h2v-2h-2z"></path>
</symbol>
<symbol id="icon-phone-apple-iphone-symbolic">
<title>phone-apple-iphone-symbolic</title>
<path d="M10.938 2c-1.642 0-2.938 1.296-2.938 2.938v22.125c0 1.642 1.296 2.938 2.938 2.938h10.25c1.642 0 2.938-1.296 2.938-2.938v-22.125c0-1.642-1.296-2.938-2.938-2.938zM10 4h12.125v22h-12.125z"></path>
</symbol>
<symbol id="icon-network-wireless-symbolic">
<title>network-wireless-symbolic</title>
<path d="M9.529 19.667c0.115 0.927 1.047 1.643 2.18 1.643 0.623 0 1.185-0.217 1.584-0.564l0.001-0.001c1.506-1.255 3.906-1.255 5.412 0 0.403 0.461 1.048 0.758 1.777 0.758 1.21 0 2.191-0.817 2.191-1.826 0-0.607-0.356-1.145-0.903-1.477l-0.006-0.004c-3.18-2.65-8.349-2.65-11.529 0-0.438 0.335-0.711 0.814-0.711 1.346 0 0.044 0.002 0.087 0.005 0.13l-0-0.006z"></path>
<path d="M5.41 15.666c0.236 0.838 1.053 1.448 2.026 1.448 0.59 0 1.123-0.224 1.503-0.585l0.001-0.001c3.888-3.564 10.229-3.564 14.116 0 0.386 0.427 0.964 0.696 1.611 0.696 1.154 0 2.089-0.857 2.089-1.915 0-0.593-0.294-1.123-0.756-1.475l-0.003-0.003c-5.484-5.028-14.514-5.028-19.998 0-0.399 0.349-0.646 0.841-0.646 1.385 0 0.159 0.021 0.314 0.061 0.462l-0.003-0.013z"></path>
<path d="M0.928 11.333c0.158 0.932 1.016 1.636 2.050 1.636 0.52 0 0.995-0.178 1.359-0.471l-0.003 0.002c0.064-0.053 0.122-0.107 0.177-0.165l0.002-0.002c6.349-5.902 16.599-5.902 22.948 0 0.375 0.534 1.015 0.881 1.742 0.881 1.146 0 2.075-0.863 2.075-1.929 0-0.676-0.374-1.271-0.94-1.615l-0.008-0.005c-7.934-7.376-20.751-7.376-28.685 0-0.447 0.356-0.728 0.881-0.728 1.467 0 0.070 0.004 0.14 0.012 0.208l-0.001-0.008z"></path>
<path d="M20 26c0 2.209-1.791 4-4 4s-4-1.791-4-4v0c0-2.209 1.791-4 4-4s4 1.791 4 4v0z"></path>
</symbol>
<symbol id="icon-network-wired-symbolic">
<title>network-wired-symbolic</title>
<path d="M6 2c-2.216 0-4 1.784-4 4v20c0 2.216 1.784 4 4 4h20c2.216 0 4-1.784 4-4v-20c0-2.216-1.784-4-4-4zM12 6h8c1.108 0 1.935 0.894 2 2v2h2c1.108 0 2 0.892 2 2v12c0 1.108-0.892 2-2 2h-16c-1.108 0-2-0.892-2-2v-12c0-1.108 0.892-2 2-2h2v-2c0-1.108 0.892-2 2-2z"></path>
<path opacity="0.35" d="M10 24h12v4h-12v-4z"></path>
</symbol>
<symbol id="icon-multimedia-player-symbolic">
<title>multimedia-player-symbolic</title>
<path d="M8.938 2c-1.642 0-2.938 1.296-2.938 2.938v22.125c0 1.642 1.296 2.938 2.938 2.938h14.125c1.642 0 2.938-1.296 2.938-2.938v-22.125c0-1.642-1.296-2.938-2.938-2.938h-14.125zM8 4h16v10h-16v-10zM16 16c3.314 0 6 2.686 6 6s-2.686 6-6 6c-3.314 0-6-2.686-6-6s2.686-6 6-6z"></path>
<path d="M19 22c0 1.657-1.343 3-3 3s-3-1.343-3-3v0c0-1.657 1.343-3 3-3s3 1.343 3 3v0z"></path>
</symbol>
<symbol id="icon-multimedia-player-apple-ipod-touch-symbolic">
<title>multimedia-player-apple-ipod-touch-symbolic</title>
<path d="M10.938 2c-1.642 0-2.938 1.296-2.938 2.938v22.125c0 1.642 1.296 2.938 2.938 2.938h10.25c1.642 0 2.938-1.296 2.938-2.938v-22.125c0-1.642-1.296-2.938-2.938-2.938zM10 4h12.125v22h-12.125z"></path>
</symbol>
<symbol id="icon-media-zip-symbolic">
<title>media-zip-symbolic</title>
<path d="M6.375 0c-2.403 0-4.375 1.975-4.375 4.375v23.25c0 2.4 1.972 4.375 4.375 4.375h19.25c2.403 0 4.375-1.975 4.375-4.375v-23.25c0-2.4-1.972-4.375-4.375-4.375h-19.25zM6.375 4h19.25c0.248 0 0.375 0.113 0.375 0.375v23.25c0 0.262-0.127 0.375-0.375 0.375h-19.25c-0.248 0-0.375-0.113-0.375-0.375v-23.25c0-0.262 0.127-0.375 0.375-0.375z"></path>
<path d="M15.688 6c-0.531 0.022-1.089 0.117-1.625 0.25-4.289 1.062-6.874 5.399-5.813 9.688 0.9 3.634 4.151 6.045 7.731 6.051 0.336 0.001 0.675-0.020 1.015-0.063l-0.778-5.959c-0.069 0.020-0.141 0.034-0.219 0.034-1.105 0-2-0.895-2-2s0.895-2 2-2c1.105 0 2 0.895 2 2 0 0.235-0.057 0.45-0.145 0.65l5.401 2.774c0.772-1.66 0.94-3.561 0.494-5.361-0.929-3.753-4.345-6.214-8.063-6.063z"></path>
<path d="M17.322 16l2.678 8c1.469 4.112 6 0.769 2.993-2z"></path>
</symbol>
<symbol id="icon-media-removable-symbolic">
<title>media-removable-symbolic</title>
<path d="M24 12v10.123c0 5.472-3.568 9.877-8 9.877s-8-4.405-8-9.877v-10.123z"></path>
<path d="M10 2v8h12v-8h-12zM12 4h2v2h-2v-2zM18 4h2v2h-2v-2z"></path>
</symbol>
<symbol id="icon-media-optical-symbolic">
<title>media-optical-symbolic</title>
<path d="M15.978 1.991c-7.685 0-13.987 6.302-13.987 13.987s6.302 14.031 13.987 14.031c7.685 0 14.031-6.347 14.031-14.031s-6.347-13.987-14.031-13.987zM15.978 10.009c3.361 0 6.013 2.608 6.013 5.969s-2.652 6.013-6.013 6.013c-3.361 0-5.969-2.652-5.969-6.013s2.608-5.969 5.969-5.969z"></path>
<path d="M16.010 12.012c-2.197 0-4.026 1.796-4.026 3.993s1.829 3.993 4.026 3.993c2.197 0 3.993-1.796 3.993-3.993s-1.796-3.993-3.993-3.993zM16.010 14.008c1.116 0 1.997 0.88 1.997 1.997s-0.88 1.997-1.997 1.997c-1.116 0-1.997-0.88-1.997-1.997s0.88-1.997 1.997-1.997z"></path>
</symbol>
<symbol id="icon-media-optical-dvd-symbolic">
<title>media-optical-dvd-symbolic</title>
<path d="M15.978 1.991c-7.685 0-13.987 6.302-13.987 13.987s6.302 14.031 13.987 14.031c7.685 0 14.031-6.347 14.031-14.031s-6.347-13.987-14.031-13.987zM15.978 10.009c3.361 0 6.013 2.608 6.013 5.969s-2.652 6.013-6.013 6.013c-3.361 0-5.969-2.652-5.969-6.013s2.608-5.969 5.969-5.969z"></path>
<path d="M16.010 12.012c-2.197 0-4.026 1.796-4.026 3.993s1.829 3.993 4.026 3.993c2.197 0 3.993-1.796 3.993-3.993s-1.796-3.993-3.993-3.993zM16.010 14.008c1.116 0 1.997 0.88 1.997 1.997s-0.88 1.997-1.997 1.997c-1.116 0-1.997-0.88-1.997-1.997s0.88-1.997 1.997-1.997z"></path>
</symbol>
<symbol id="icon-media-optical-cd-audio-symbolic">
<title>media-optical-cd-audio-symbolic</title>
<path d="M15.978 1.991c-7.685 0-13.987 6.302-13.987 13.987s6.302 14.031 13.987 14.031c7.685 0 14.031-6.347 14.031-14.031s-6.347-13.987-14.031-13.987zM15.978 10.009c3.361 0 6.013 2.608 6.013 5.969s-2.652 6.013-6.013 6.013c-3.361 0-5.969-2.652-5.969-6.013s2.608-5.969 5.969-5.969z"></path>
<path d="M16.010 12.012c-2.197 0-4.026 1.796-4.026 3.993s1.829 3.993 4.026 3.993c2.197 0 3.993-1.796 3.993-3.993s-1.796-3.993-3.993-3.993zM16.010 14.008c1.116 0 1.997 0.88 1.997 1.997s-0.88 1.997-1.997 1.997c-1.116 0-1.997-0.88-1.997-1.997s0.88-1.997 1.997-1.997z"></path>
</symbol>
<symbol id="icon-media-optical-bd-symbolic">
<title>media-optical-bd-symbolic</title>
<path d="M15.978 1.991c-7.685 0-13.987 6.302-13.987 13.987s6.302 14.031 13.987 14.031c7.685 0 14.031-6.347 14.031-14.031s-6.347-13.987-14.031-13.987zM15.978 10.009c3.361 0 6.013 2.608 6.013 5.969s-2.652 6.013-6.013 6.013c-3.361 0-5.969-2.652-5.969-6.013s2.608-5.969 5.969-5.969z"></path>
<path d="M16.010 12.012c-2.197 0-4.026 1.796-4.026 3.993s1.829 3.993 4.026 3.993c2.197 0 3.993-1.796 3.993-3.993s-1.796-3.993-3.993-3.993zM16.010 14.008c1.116 0 1.997 0.88 1.997 1.997s-0.88 1.997-1.997 1.997c-1.116 0-1.997-0.88-1.997-1.997s0.88-1.997 1.997-1.997z"></path>
</symbol>
<symbol id="icon-media-floppy-symbolic">
<title>media-floppy-symbolic</title>
<path d="M5.938 2c-2.151 0-3.938 1.787-3.938 3.938v18.938l0.625 0.563 3.375 3.375v-22.813h20v20h-4v4h4.063c2.151 0 3.938-1.787 3.938-3.938v-20.125c0-2.151-1.787-3.938-3.938-3.938z"></path>
<path d="M10 18c-1.108 0-2 0.892-2 2v8c0 1.108 0.892 2 2 2h8c1.108 0 2-0.892 2-2v-8c0-1.108-0.892-2-2-2h-8zM10 20h4v8h-4v-8z"></path>
</symbol>
<symbol id="icon-media-flash-symbolic">
<title>media-flash-symbolic</title>
<path d="M7.125 4c-1.697 0-3.125 1.428-3.125 3.125v17.75c0 1.697 1.428 3.125 3.125 3.125h15.75c1.697 0 3.125-1.428 3.125-3.125v-16.625l-0.563-0.563-2.875-3.063-0.563-0.625h-0.875zM8 8h12.25l1.75 1.875v14.125h-14z"></path>
<path d="M11.868 10.137h6.265c1.035 0 1.867 0.833 1.867 1.867v4.099c0 1.035-0.833 1.867-1.867 1.867h-6.265c-1.035 0-1.867-0.833-1.867-1.867v-4.099c0-1.035 0.833-1.867 1.867-1.867z"></path>
</symbol>
<symbol id="icon-input-touchpad-symbolic">
<title>input-touchpad-symbolic</title>
<path d="M6.063 2c-3.338 0-6.063 2.724-6.063 6.063v15.875c0 3.338 2.724 6.063 6.063 6.063h17.875c3.338 0 6.063-2.724 6.063-6.063v-15.875c0-3.338-2.724-6.063-6.063-6.063h-17.875zM6.063 6h17.875c1.192 0 2.063 0.871 2.063 2.063v11.938h-22v-11.938c0-1.192 0.871-2.063 2.063-2.063zM4 22h10v4h-7.938c-1.192 0-2.063-0.871-2.063-2.063v-1.938zM16 22h10v1.938c0 1.192-0.871 2.063-2.063 2.063h-7.938v-4z"></path>
<path opacity="0.35" d="M4 6h22v14h-22v-14z"></path>
</symbol>
<symbol id="icon-input-tablet-symbolic">
<title>input-tablet-symbolic</title>
<path d="M16.502 0.010l-2.004 0.055 0.062 1c0.094 0.931-0.405 1.939-1.187 2.437-0.706 0.498-1.81 0.397-3.187 0.437-0.697 0.006-1.406 0.168-2.062 0.562s-1.3 1.094-1.437 2c-0.317 1.785 0.908 3.266 2.312 3.562 1.614 0.352 3.289 0.151 5.249 0 0.512-0.039 1.201 0.041 1.625 0.25 0.667 0.521 0.569 0.806 0.562 1.75h-11.311l-0.437 1.437-3.937 13.998-0.75 2.562h33.058l-0.75-2.562-3.812-13.623-2.937 4.437 2.25 7.749h-22.56l2.875-9.999h6.499c0.020-0.021 0.041-0.042 0.062-0.062l2.687-1.75 1.062-2.125v-1c-0.006-1.223-0.811-2.193-1.687-2.625s-1.86-0.501-2.687-0.437c-1.992 0.154-3.479 0.25-4.624 0h-0.062c-0.399-0.084-0.835-0.419-0.687-1.25 0.038-0.249 0.155-0.393 0.437-0.562s0.705-0.31 1.062-0.312h0.062c1.128-0.033 2.754 0.235 4.187-0.812 1.637-1.197 2.307-2.79 2.125-4.249z"></path>
<path d="M26.748 4.142c0 0-5.038 7.012-8.080 11.936l-2.811 2.334 0.075 3.147-1.526 2.49 1.391-0.002 1.48-1.167 3.349-0.925 1.19-2.962 8.369-12.728z"></path>
<path d="M29.943 4.879c0 0.717-0.582 1.299-1.299 1.299s-1.299-0.582-1.299-1.299v0c0-0.717 0.582-1.299 1.299-1.299s1.299 0.582 1.299 1.299v0z"></path>
</symbol>
<symbol id="icon-input-mouse-symbolic">
<title>input-mouse-symbolic</title>
<path d="M9.356 7.997c-1.861-0.006-3.367 1.529-3.376 3.449 0.036 1.487 0.044 3.011 0.030 4.533l5.837 0.031 0.038-7.999-2.529-0.012zM14.166 8.020l-0.038 7.999 5.837 0.031c0.030-1.529 0.060-3.063 0.073-4.533 0.006-1.92-1.482-3.474-3.343-3.483l-2.529-0.012zM6.001 18.171c-0.023 1.662-0.074 2.998-0.075 4.527-0.018 4.018 3.1 7.269 6.994 7.288s7.044-3.199 7.063-7.217c-0.071-1.671-0.092-3.014-0.075-4.598z"></path>
<path d="M16.116 0.018c-0.908 0.099-1.766 0.442-2.497 0.999-0.975 0.742-1.623 1.908-1.623 3.372-0.008 0.528 0.471 1.013 0.999 1.013s1.006-0.485 0.999-1.013c0-0.897 0.343-1.406 0.874-1.811s1.326-0.6 2.123-0.562c0.797 0.038 1.567 0.308 2.123 0.812s0.937 1.168 0.937 2.248c0 4.326 2.925 7.011 5.994 6.93 1.712-0.045 3.373-0.953 4.495-2.622l-1.124-1.998c-0.75 1.829-2.133 2.588-3.434 2.622-1.919 0.050-3.933-1.458-3.933-4.932 0-1.582-0.673-2.885-1.623-3.746s-2.16-1.253-3.372-1.311c-0.303-0.014-0.634-0.033-0.937 0zM29.976 3.952c-0.001 0.021-0.001 0.042 0 0.062 0 0.091 0.002 0.161 0 0.25l1.561 2.747c0.023-0.082 0.042-0.166 0.062-0.25zM29.976 4.701c-0.012 0.212-0.040 0.427-0.062 0.624l1.436 2.435c0.047-0.125 0.083-0.244 0.125-0.375zM29.851 5.7c-0.028 0.18-0.089 0.333-0.125 0.499l1.311 2.248c0.059-0.122 0.134-0.247 0.187-0.375zM29.664 6.574c-0.047 0.178-0.13 0.338-0.187 0.499l1.186 2.060c0.080-0.13 0.176-0.236 0.25-0.375z"></path>
</symbol>
<symbol id="icon-input-keyboard-symbolic">
<title>input-keyboard-symbolic</title>
<path d="M2 4c-1.108 0-2 0.892-2 2v20c0 1.108 0.892 2 2 2h28c1.108 0 2-0.892 2-2v-20c0-1.108-0.892-2-2-2zM4 8h4v4h-4zM10 8h4v4h-4zM16 8h4v4h-4zM22 8h4v4h-4zM6 14h4v4h-4zM12 14h4v4h-4zM18 14h4v4h-4zM24 14h4v4h-4zM4 20h4v4h-4zM10 20h12v4h-12zM24 20h6v4h-6z"></path>
</symbol>
<symbol id="icon-input-gaming-symbolic">
<title>input-gaming-symbolic</title>
<path d="M6.313 8c-3.491 0-6.313 3.582-6.313 8s2.822 8 6.313 8c3.491 0 6.313-3.582 6.313-8s-2.822-8-6.313-8zM6 12h2v2h2v2h-2v2h-2v-2h-2v-2h2v-2z"></path>
<path d="M25.688 8c-3.491 0-6.313 3.582-6.313 8s2.822 8 6.313 8c3.491 0 6.313-3.582 6.313-8s-2.822-8-6.313-8zM23 11c1.105 0 2 0.895 2 2s-0.895 2-2 2c-1.105 0-2-0.895-2-2s0.895-2 2-2zM27 15c1.105 0 2 0.895 2 2s-0.895 2-2 2c-1.105 0-2-0.895-2-2s0.895-2 2-2z"></path>
<path d="M6 8v4h2v2h2v2h-2v2h-2v2h20l-0.185-1.226c-0.584-0.349-1.259-1.069-1.259-1.799s0.712-1.56 1.296-1.91l0.148-7.066zM23 11c1.105 0 2 0.895 2 2s-0.895 2-2 2c-1.105 0-2-0.895-2-2s0.895-2 2-2z"></path>
</symbol>
<symbol id="icon-input-dialpad-symbolic">
<title>input-dialpad-symbolic</title>
<path d="M7 0c0 0-3 0-3 3v18c0 3 3 3 3 3h3v4c0 1.108 0.892 2 2 2h8c1.108 0 2-0.892 2-2v-4h3c3 0 3-3 3-3v-18c0-3-3-3-3-3zM8 4h4v4h-4zM14 4h4v4h-4zM20 4h4v4h-4zM8 10h4v4h-4zM14 10h4v4h-4zM20 10h4v4h-4zM8 16h4v4h-4zM14 16h4v4h-4zM20 16h4v4h-4zM14 22h4v4h-4z"></path>
</symbol>
<symbol id="icon-headphones-symbolic">
<title>headphones-symbolic</title>
<path d="M8.126 18.168l-0.302 0.088c1.975-0.577 4.060 0.551 4.657 2.52l1.35 4.452c0.597 1.969-0.52 4.033-2.495 4.611l0.302-0.088c-1.975 0.577-4.060-0.551-4.657-2.52l-1.35-4.452c-0.597-1.969 0.52-4.033 2.495-4.611z"></path>
<path d="M15.937 2c-6.611 0-12.048 6.017-11.937 11.438 0.096 4.731 1.617 9.391 2 10.563 3.166 0 0 0 3.051 0-2.323-4.583-2.098-10.312-2.098-10.312 0-4.745 4.013-8.625 8.984-8.625s9 3.654 8.984 8.563c-0.047 3.348-0.343 5.317-2.010 10.375h3.141c0.449-1.289 1.948-6.381 1.948-10.563 0-5.66-5.452-11.438-12.063-11.438z"></path>
<path d="M23.874 18.233l0.302 0.088c-1.975-0.577-4.060 0.551-4.657 2.52l-1.35 4.452c-0.597 1.969 0.52 4.033 2.495 4.611l-0.302-0.088c1.975 0.577 4.060-0.551 4.657-2.52l1.35-4.452c0.597-1.969-0.52-4.033-2.495-4.611z"></path>
</symbol>
<symbol id="icon-drive-removable-media-symbolic">
<title>drive-removable-media-symbolic</title>
<path d="M5 2c-2.77 0-5 2.23-5 5v16c0 2.77 2.23 5 5 5h22c2.77 0 5-2.23 5-5v-16c0-2.77-2.23-5-5-5zM5 20h23v3c0 0.554-0.446 1-1 1h-22c-0.554 0-1-0.446-1-1v-3z"></path>
</symbol>
<symbol id="icon-drive-optical-symbolic">
<title>drive-optical-symbolic</title>
<path d="M5 2c-2.77 0-5 2.23-5 5v16c0 2.77 2.23 5 5 5v-4c-0.554 0-1-0.446-1-1v-3h24v3c0 0.554-0.446 1-1 1v4c2.77 0 5-2.23 5-5v-16c0-2.77-2.23-5-5-5h-22z"></path>
<path d="M5.75 22.078c0 5.382 4.598 9.809 10.232 9.809s10.268-4.427 10.268-9.809h-4.034c0 3.305-2.775 5.955-6.234 5.955s-6.198-2.65-6.198-5.955z"></path>
<path d="M12.001 22c0 2.197 1.803 4 4 4s4-1.803 4-4h-2c0 1.116-0.884 2-2 2s-2-0.884-2-2h-2z"></path>
</symbol>
<symbol id="icon-drive-multidisk-symbolic">
<title>drive-multidisk-symbolic</title>
<path d="M7.313 0c-2.837 0-5.188 2.351-5.188 5.188v24.75h28v-24.75c0-2.836-2.351-5.188-5.188-5.188h-17.625zM7.313 4h17.625c0.689 0 1.188 0.497 1.188 1.188v20.75h-20v-20.75c0-0.69 0.499-1.188 1.188-1.188z"></path>
<path d="M10 8.063v2h12v-2h-12z"></path>
<path d="M10 12v2h12v-2h-12z"></path>
<path d="M10 16v2h12v-2h-12z"></path>
<path d="M10 20v2h12v-2h-12z"></path>
</symbol>
<symbol id="icon-drive-multidisk-alt2-symbolic">
<title>drive-multidisk-alt2-symbolic</title>
<path d="M6.356 0c-2.398 0-4.366 1.971-4.366 4.366v1.622h3.992v-1.622c0-0.261 0.127-0.374 0.374-0.374h19.21c0.247 0 0.374 0.113 0.374 0.374v1.622h3.992v-1.622c0-2.395-1.968-4.366-4.366-4.366h-19.21z"></path>
<path d="M6.356 23.95c-2.398 0-4.366 2.033-4.366 4.428v3.617h3.992v-3.617c0-0.261 0.127-0.437 0.374-0.437h19.21c0.247 0 0.374 0.175 0.374 0.437v3.555h3.992v-3.555c0-2.395-1.968-4.428-4.366-4.428h-19.21z"></path>
<path d="M6.356 7.983c-2.398 0-4.366 1.971-4.366 4.366v1.622h3.992v-1.622c0-0.261 0.127-0.374 0.374-0.374h19.21c0.247 0 0.374 0.113 0.374 0.374v1.622h3.992v-1.622c0-2.395-1.968-4.366-4.366-4.366h-19.21z"></path>
<path d="M6.356 15.967c-2.398 0-4.366 1.971-4.366 4.366v1.622h3.992v-1.622c0-0.261 0.127-0.374 0.374-0.374h19.21c0.247 0 0.374 0.113 0.374 0.374v1.622h3.992v-1.622c0-2.395-1.968-4.366-4.366-4.366h-19.21z"></path>
</symbol>
<symbol id="icon-drive-multidisk-alt-symbolic">
<title>drive-multidisk-alt-symbolic</title>
<path d="M7.313 0c-2.837 0-5.188 2.351-5.188 5.188v24.75h28v-24.75c0-2.836-2.351-5.188-5.188-5.188h-17.625zM7.313 4h17.625c0.689 0 1.188 0.497 1.188 1.188v20.75h-20v-20.75c0-0.69 0.499-1.188 1.188-1.188z"></path>
<path d="M10 8.063v2h12v-2h-12z"></path>
<path d="M10 12v2h12v-2h-12z"></path>
<path d="M10 16v2h12v-2h-12z"></path>
<path d="M10 20v2h12v-2h-12z"></path>
</symbol>
<symbol id="icon-drive-harddisk-usb-symbolic">
<title>drive-harddisk-usb-symbolic</title>
<path d="M6.375 0c-2.403 0-4.375 1.975-4.375 4.375v23.25c0 2.4 1.972 4.375 4.375 4.375h19.25c2.403 0 4.375-1.975 4.375-4.375v-23.25c0-2.4-1.972-4.375-4.375-4.375h-19.25zM6.375 4h19.25c0.248 0 0.375 0.113 0.375 0.375v23.25c0 0.262-0.127 0.375-0.375 0.375h-19.25c-0.248 0-0.375-0.113-0.375-0.375v-23.25c0-0.262 0.127-0.375 0.375-0.375z"></path>
<path d="M15.688 6c-0.531 0.022-1.089 0.117-1.625 0.25-4.289 1.062-6.874 5.399-5.813 9.688 0.9 3.634 4.151 6.045 7.731 6.051 0.336 0.001 0.675-0.020 1.015-0.063l-0.778-5.959c-0.069 0.020-0.141 0.034-0.219 0.034-1.105 0-2-0.895-2-2s0.895-2 2-2c1.105 0 2 0.895 2 2 0 0.235-0.057 0.45-0.145 0.65l5.401 2.774c0.772-1.66 0.94-3.561 0.494-5.361-0.929-3.753-4.345-6.214-8.063-6.063z"></path>
<path d="M17.322 16l2.678 8c1.469 4.112 6 0.769 2.993-2z"></path>
</symbol>
<symbol id="icon-drive-harddisk-system-symbolic">
<title>drive-harddisk-system-symbolic</title>
<path d="M6.375 0c-2.403 0-4.375 1.975-4.375 4.375v23.25c0 2.4 1.972 4.375 4.375 4.375h19.25c2.403 0 4.375-1.975 4.375-4.375v-23.25c0-2.4-1.972-4.375-4.375-4.375h-19.25zM6.375 4h19.25c0.248 0 0.375 0.113 0.375 0.375v23.25c0 0.262-0.127 0.375-0.375 0.375h-19.25c-0.248 0-0.375-0.113-0.375-0.375v-23.25c0-0.262 0.127-0.375 0.375-0.375z"></path>
<path d="M15.688 6c-0.531 0.022-1.089 0.117-1.625 0.25-4.289 1.062-6.874 5.399-5.813 9.688 0.9 3.634 4.151 6.045 7.731 6.051 0.336 0.001 0.675-0.020 1.015-0.063l-0.778-5.959c-0.069 0.020-0.141 0.034-0.219 0.034-1.105 0-2-0.895-2-2s0.895-2 2-2c1.105 0 2 0.895 2 2 0 0.235-0.057 0.45-0.145 0.65l5.401 2.774c0.772-1.66 0.94-3.561 0.494-5.361-0.929-3.753-4.345-6.214-8.063-6.063z"></path>
<path d="M17.322 16l2.678 8c1.469 4.112 6 0.769 2.993-2z"></path>
</symbol>
<symbol id="icon-drive-harddisk-symbolic">
<title>drive-harddisk-symbolic</title>
<path d="M6.375 0c-2.403 0-4.375 1.975-4.375 4.375v23.25c0 2.4 1.972 4.375 4.375 4.375h19.25c2.403 0 4.375-1.975 4.375-4.375v-23.25c0-2.4-1.972-4.375-4.375-4.375h-19.25zM6.375 4h19.25c0.248 0 0.375 0.113 0.375 0.375v23.25c0 0.262-0.127 0.375-0.375 0.375h-19.25c-0.248 0-0.375-0.113-0.375-0.375v-23.25c0-0.262 0.127-0.375 0.375-0.375z"></path>
<path d="M15.688 6c-0.531 0.022-1.089 0.117-1.625 0.25-4.289 1.062-6.874 5.399-5.813 9.688 0.9 3.634 4.151 6.045 7.731 6.051 0.336 0.001 0.675-0.020 1.015-0.063l-0.778-5.959c-0.069 0.020-0.141 0.034-0.219 0.034-1.105 0-2-0.895-2-2s0.895-2 2-2c1.105 0 2 0.895 2 2 0 0.235-0.057 0.45-0.145 0.65l5.401 2.774c0.772-1.66 0.94-3.561 0.494-5.361-0.929-3.753-4.345-6.214-8.063-6.063z"></path>
<path d="M17.322 16l2.678 8c1.469 4.112 6 0.769 2.993-2z"></path>
</symbol>
<symbol id="icon-drive-harddisk-ieee1394-symbolic">
<title>drive-harddisk-ieee1394-symbolic</title>
<path d="M6.375 0c-2.403 0-4.375 1.975-4.375 4.375v23.25c0 2.4 1.972 4.375 4.375 4.375h19.25c2.403 0 4.375-1.975 4.375-4.375v-23.25c0-2.4-1.972-4.375-4.375-4.375h-19.25zM6.375 4h19.25c0.248 0 0.375 0.113 0.375 0.375v23.25c0 0.262-0.127 0.375-0.375 0.375h-19.25c-0.248 0-0.375-0.113-0.375-0.375v-23.25c0-0.262 0.127-0.375 0.375-0.375z"></path>
<path d="M15.688 6c-0.531 0.022-1.089 0.117-1.625 0.25-4.289 1.062-6.874 5.399-5.813 9.688 0.9 3.634 4.151 6.045 7.731 6.051 0.336 0.001 0.675-0.020 1.015-0.063l-0.778-5.959c-0.069 0.020-0.141 0.034-0.219 0.034-1.105 0-2-0.895-2-2s0.895-2 2-2c1.105 0 2 0.895 2 2 0 0.235-0.057 0.45-0.145 0.65l5.401 2.774c0.772-1.66 0.94-3.561 0.494-5.361-0.929-3.753-4.345-6.214-8.063-6.063z"></path>
<path d="M17.322 16l2.678 8c1.469 4.112 6 0.769 2.993-2z"></path>
</symbol>
<symbol id="icon-display-projector-symbolic">
<title>display-projector-symbolic</title>
<path d="M1.996 10c-1.106 0-1.996 1.046-1.996 2.313v9.125c0 1.266 0.831 2.563 1.937 2.563h2c0 1.266 0.949 2 2.055 2h1.992c1.106 0 1.953-0.734 1.953-2h11.976c0 1.266 0.933 2 2.039 2h1.988c1.106 0 1.996-0.734 1.996-2h2.004c1.106 0 1.996-1.296 1.996-2.563v-9.125c0-1.266-0.89-2.313-1.996-2.313zM2.994 12.384c0.551 0 0.998 1.854 0.998 4.616s-0.447 4.476-0.998 4.476c-0.551 0-0.998-1.715-0.998-4.476s0.447-4.616 0.998-4.616zM6.986 12.384c0.551 0 0.998 2.239 0.998 5s-0.517 4.082-1.068 4.082c-0.551 0-0.928-1.704-0.928-4.465s0.447-4.616 0.998-4.616zM10.909 12.384c0.551 0 1.068 1.855 1.068 4.616s-0.447 4.465-0.998 4.465c-0.551 0-0.998-1.704-0.998-4.465s0.377-4.616 0.928-4.616zM24.951 12c2.756 0 4.99 2.239 4.99 5s-2.234 5-4.99 5c-2.756 0-4.99-2.239-4.99-5s2.234-5 4.99-5z"></path>
<path d="M27.937 17c0 1.657-1.343 3-3 3s-3-1.343-3-3v0c0-1.657 1.343-3 3-3s3 1.343 3 3v0z"></path>
</symbol>
<symbol id="icon-computer-symbolic">
<title>computer-symbolic</title>
<path d="M24 2c3.324 0 6 2.676 6 6v12c0 3.324-2.676 6-6 6h-16c-3.324 0-6-2.676-6-6v-12c0-3.324 2.676-6 6-6h16zM24 6h-16c-1.108 0-2 0.892-2 2v12c0 1.108 0.892 2 2 2h16c1.108 0 2-0.892 2-2v-12c0-1.108-0.892-2-2-2z"></path>
<path d="M16 28c-10 0-10 2-10 2 0 2 2 2 2 2h16c2 0 2-2 2-2s0-2-10-2z"></path>
</symbol>
<symbol id="icon-computer-apple-ipad-symbolic">
<title>computer-apple-ipad-symbolic</title>
<path d="M4.938 2c-1.642 0-2.938 1.296-2.938 2.938v22.125c0 1.642 1.296 2.938 2.938 2.938h18.125c1.642 0 2.938-1.296 2.938-2.938v-22.125c0-1.642-1.296-2.938-2.938-2.938zM4 4h20v22h-20z"></path>
</symbol>
<symbol id="icon-colorimeter-colorhug-symbolic">
<title>colorimeter-colorhug-symbolic</title>
<path d="M14.118 0.018c-0.908 0.099-1.766 0.442-2.497 0.999-0.975 0.742-1.623 1.908-1.623 3.372v10.614c0 0 0.471 1.013 0.999 1.013s0.999-1.013 0.999-1.013v-10.614c0-0.897 0.343-1.406 0.874-1.811s1.326-0.6 2.123-0.562c0.797 0.038 1.567 0.308 2.123 0.812s0.937 1.168 0.937 2.248c0 4.326 2.925 7.011 5.994 6.93 1.712-0.045 3.373-0.953 4.495-2.622l-1.124-1.998c-0.75 1.829-2.133 2.588-3.434 2.622-1.919 0.050-3.933-1.458-3.933-4.932 0-1.582-0.673-2.885-1.623-3.746s-2.16-1.253-3.372-1.311c-0.303-0.014-0.634-0.033-0.937 0zM27.978 4.014c0 0.091 0.002 0.161 0 0.25l1.561 2.747c0.023-0.082 0.042-0.166 0.062-0.25zM27.978 4.701c-0.012 0.212-0.040 0.427-0.062 0.624l1.436 2.435c0.047-0.125 0.083-0.244 0.125-0.375zM27.854 5.7c-0.028 0.18-0.089 0.333-0.125 0.499l1.311 2.248c0.059-0.122 0.134-0.247 0.187-0.375zM27.666 6.574c-0.047 0.178-0.131 0.338-0.187 0.499l1.186 2.060c0.080-0.13 0.176-0.236 0.25-0.375z"></path>
<path d="M5.456 12.006h11.080c0.802 0 1.453 0.65 1.453 1.453v13.078c0 0.802-0.65 1.453-1.453 1.453h-11.080c-0.802 0-1.452-0.65-1.452-1.453v-13.078c0-0.802 0.65-1.453 1.452-1.453z"></path>
</symbol>
<symbol id="icon-camera-web-symbolic">
<title>camera-web-symbolic</title>
<path d="M4.062 8h15.938c1.104 0 2 0.895 2 2v14c0 1.105-0.895 2-2 2h-15.938c-1.104 0-2-0.895-2-2v-14c0-1.105 0.895-2 2-2z"></path>
<path d="M22 16.939l6.939-6.939h1.062v14h-1z"></path>
</symbol>
<symbol id="icon-camera-video-symbolic">
<title>camera-video-symbolic</title>
<path d="M23.003 2c3.866 0 7 3.134 7 7 0 2.239-1.052 4.219-2.688 5.5 0.42 0.366 0.688 0.897 0.688 1.5-0.004 4 0 6.104 0 12 0 1.108-0.892 2-2 2h-18c-1.108 0-2-0.892-2-2v-4.313l-5.125 3.813c-0.039 0.026-0.081 0.047-0.125 0.062-0.062 0.010-0.126 0.010-0.187 0-0.041 0.004-0.084 0.004-0.125 0-0.044-0.016-0.086-0.036-0.125-0.062-0.044-0.016-0.086-0.036-0.125-0.062-0.022-0.020-0.043-0.040-0.062-0.062-0.022-0.020-0.043-0.040-0.062-0.062-0.026-0.039-0.047-0.081-0.062-0.125-0.004-0.041-0.004-0.084 0-0.125v-12.125c-0.004-0.041-0.004-0.084 0-0.125 0.016-0.044 0.036-0.086 0.062-0.125 0.020-0.022 0.040-0.043 0.062-0.062 0.020-0.022 0.040-0.043 0.062-0.062 0.020-0.022 0.040-0.043 0.062-0.062 0.020-0.022 0.040-0.043 0.062-0.062 0.039-0.026 0.081-0.047 0.125-0.062 0.062-0.010 0.126-0.010 0.187 0 0.021-0.001 0.042-0.001 0.062 0 0.022 0.020 0.043 0.040 0.062 0.062 0.044 0.016 0.086 0.036 0.125 0.062l5.125 3.812v-2.313c0-0.603 0.268-1.134 0.688-1.5-1.636-1.281-2.688-3.261-2.688-5.5 0-3.866 3.134-7 7-7 2.567 0 4.782 1.377 6 3.438 1.218-2.061 3.433-3.438 6-3.438zM23.003 6c-1.657 0-3 1.343-3 3s1.343 3 3 3c1.657 0 3-1.343 3-3s-1.343-3-3-3zM11.003 6c-1.657 0-3 1.343-3 3s1.343 3 3 3c1.657 0 3-1.343 3-3s-1.343-3-3-3zM17.003 12.563c-0.316 0.535-0.683 1.006-1.125 1.438h2.25c-0.442-0.431-0.809-0.903-1.125-1.438z"></path>
</symbol>
<symbol id="icon-camera-photo-symbolic">
<title>camera-photo-symbolic</title>
<path d="M12 4c-1.1 0-2 0.9-2 2v2h-6c-1.104 0-2 0.9-2 2v16c0 1.1 0.896 2 2 2h24c1.104 0 2-0.9 2-2v-16c0-1.1-0.896-2-2-2h-6v-2c0-1.1-0.9-2-2-2h-8zM16 10c4.418 0 8 3.582 8 8s-3.582 8-8 8c-4.418 0-8-3.582-8-8s3.582-8 8-8zM16 14c-2.209 0-4 1.791-4 4s1.791 4 4 4c2.209 0 4-1.791 4-4s-1.791-4-4-4z"></path>
</symbol>
<symbol id="icon-audio-speakers-symbolic">
<title>audio-speakers-symbolic</title>
<path d="M2 10h4.969l5.938-6 1.094 0.031v24l-0.951 0.002-6.081-6.033h-4.969z"></path>
<path d="M23.75 2c-0.466 0.052-0.877 0.257-1.188 0.563l0-0-4 4c-0.368 0.368-0.596 0.876-0.596 1.438 0 1.123 0.91 2.033 2.033 2.033 0.561 0 1.070-0.228 1.438-0.596l4-4c0.392-0.366 0.637-0.886 0.637-1.464 0-1.105-0.896-2-2-2-0.115 0-0.227 0.010-0.336 0.028l0.012-0.002z"></path>
<path d="M19.562 22c-0.941 0.175-1.643 0.99-1.643 1.968 0 0.58 0.247 1.103 0.642 1.468l0.001 0.001 4 4c0.368 0.368 0.876 0.596 1.438 0.596 1.123 0 2.033-0.91 2.033-2.033 0-0.561-0.228-1.070-0.596-1.438l-4-4c-0.364-0.377-0.874-0.611-1.439-0.611-0.155 0-0.305 0.018-0.45 0.051l0.013-0.003z"></path>
<path d="M19.812 14c-1.065 0.051-1.908 0.927-1.908 2 0 1.106 0.896 2.002 2.002 2.002 0.033 0 0.066-0.001 0.098-0.002l-0.005 0 8.063 0.062c0.008 0 0.018 0 0.028 0 1.105 0 2-0.896 2-2s-0.896-2-2-2c-0.010 0-0.020 0-0.030 0l0.002-0-8.063-0.062c-0.028-0.001-0.061-0.002-0.094-0.002s-0.066 0.001-0.098 0.002l0.005-0z"></path>
<path d="M18 8h2v2h-2v-2z"></path>
<path d="M18 22h2v2h-2v-2z"></path>
</symbol>
<symbol id="icon-audio-input-microphone-symbolic">
<title>audio-input-microphone-symbolic</title>
<path d="M7 10c-0.552 0-1 0.448-1 1v5.938c0 3.937 2.516 7.249 6 8.5v2.563h-4c-1.13 0-2 0.98-2 2v2h18v-2c-0-1.169-0.953-2-2-2h-4v-2.563c3.484-1.251 6-4.563 6-8.5v-5.938c0-0.552-0.448-1-1-1s-1 0.448-1 1c0 0.138 0.012 0.255 0.062 0.375v5.563c0 3.928-3.158 7.063-7.063 7.063s-7-3.134-7-7.063v-5.938c0-0.552-0.448-1-1-1zM15 1.974c2.77 0 5 2.23 5 5v10.026c0 2.77-2.23 5-5 5s-5-2.23-5-5v-10.026c0-2.77 2.23-5 5-5z"></path>
</symbol>
<symbol id="icon-audio-headset-symbolic">
<title>audio-headset-symbolic</title>
<path d="M15.936 0.001c-6.611 0-12.047 6.016-11.937 11.437 0.123 6.044 1.867 9.39 2.25 10.562 3.166 0-0.25 0 2.801 0-2.323-4.583-2.098-10.312-2.098-10.312 0-4.745 4.013-8.624 8.984-8.624s8.999 3.841 8.984 8.749c-0.047 3.348-0.343 4.567-2.010 9.624h3.141c0.449-1.289 1.948-4.131 1.948-9.812 0-5.659-5.452-11.624-12.062-11.624z"></path>
<path d="M24.64 13.963l1.115 0.311c-1.981-0.553-4.091 0.587-4.713 2.547l-0.853 2.686c-0.622 1.96 0.479 3.996 2.459 4.549l-1.115-0.311c1.981 0.553 4.091-0.587 4.713-2.547l0.853-2.686c0.622-1.96-0.479-3.996-2.459-4.549z"></path>
<path d="M7.462 13.963l-1.115 0.311c1.981-0.553 4.091 0.587 4.713 2.547l0.853 2.686c0.622 1.96-0.479 3.996-2.459 4.549l1.115-0.311c-1.981 0.553-4.091-0.587-4.713-2.547l-0.853-2.686c-0.622-1.96 0.479-3.996 2.459-4.549z"></path>
<path d="M14.093 27.939h3.875c1.087 0 1.969 0.881 1.969 1.969s-0.881 1.969-1.969 1.969h-3.875c-1.087 0-1.969-0.881-1.969-1.969s0.881-1.969 1.969-1.969z"></path>
<path d="M25.186 18.814c-0.471 0.087-0.823 0.495-0.823 0.984 0 0.444 0.29 0.821 0.691 0.951l0.007 0.002 2.937 1.062-0.063 3.5c-0.010 1.064-0.272 1.735-0.625 2.125s-0.804 0.562-1.437 0.562h-8.312c-0.004-0-0.009-0-0.014-0-0.552 0-1 0.448-1 1s0.448 1 1 1c0.005 0 0.010-0 0.015-0h8.311c1.095 0 2.185-0.42 2.937-1.25s1.112-2.018 1.125-3.437l0.063-4.187v-0.687l-0.625-0.25-3.562-1.312c-0.12-0.055-0.259-0.086-0.407-0.086-0.077 0-0.153 0.009-0.225 0.025l0.007-0.001z"></path>
</symbol>
<symbol id="icon-audio-headphones-symbolic">
<title>audio-headphones-symbolic</title>
<path d="M8.126 18.168l-0.302 0.088c1.975-0.577 4.060 0.551 4.657 2.52l1.35 4.452c0.597 1.969-0.52 4.033-2.495 4.611l0.302-0.088c-1.975 0.577-4.060-0.551-4.657-2.52l-1.35-4.452c-0.597-1.969 0.52-4.033 2.495-4.611z"></path>
<path d="M15.937 2c-6.611 0-12.048 6.017-11.937 11.438 0.096 4.731 1.617 9.391 2 10.563 3.166 0 0 0 3.051 0-2.323-4.583-2.098-10.312-2.098-10.312 0-4.745 4.013-8.625 8.984-8.625s9 3.654 8.984 8.563c-0.047 3.348-0.343 5.317-2.010 10.375h3.141c0.449-1.289 1.948-6.381 1.948-10.563 0-5.66-5.452-11.438-12.063-11.438z"></path>
<path d="M23.874 18.233l0.302 0.088c-1.975-0.577-4.060 0.551-4.657 2.52l-1.35 4.452c-0.597 1.969 0.52 4.033 2.495 4.611l-0.302-0.088c1.975 0.577 4.060-0.551 4.657-2.52l1.35-4.452c0.597-1.969-0.52-4.033-2.495-4.611z"></path>
</symbol>
<symbol id="icon-audio-card-symbolic">
<title>audio-card-symbolic</title>
<path d="M25.786 1.998c-1.020 0.099-1.811 0.952-1.811 1.989 0 0.003 0 0.006 0 0.009v-0 25.973c-0 0.008-0 0.018-0 0.028 0 1.104 0.895 1.998 1.998 1.998s1.998-0.895 1.998-1.998c0-0.010-0-0.020-0-0.030l0 0.002v-23.975h1.998c0.008 0 0.018 0 0.028 0 1.104 0 1.998-0.895 1.998-1.998s-0.895-1.998-1.998-1.998c-0.010 0-0.020 0-0.030 0l0.002-0h-3.996c-0.028-0.001-0.061-0.002-0.094-0.002s-0.066 0.001-0.098 0.002l0.005-0z"></path>
<path d="M25.973 11.988v5.994h5.994v-5.994h-5.994zM27.971 13.985h1.998v1.998h-1.998v-1.998z"></path>
<path d="M25.973 19.979v5.994h5.994v-5.994h-5.994zM27.971 21.977h1.998v1.998h-1.998v-1.998z"></path>
<path d="M0 7.992v23.975h19.979v-3.996h1.998v-3.996h-5.994v3.996h-11.988v-15.983h5.994v-3.996h-9.99z"></path>
<path d="M11.988 1.998l9.99 7.992h-5.994v9.053h-3.996z"></path>
<path d="M15.974 18.99c0 2.753-2.232 4.985-4.985 4.985s-4.985-2.232-4.985-4.985v0c0-2.753 2.232-4.985 4.985-4.985s4.985 2.232 4.985 4.985v0z"></path>
</symbol>
</defs>
</svg>
