<svg
xmlns="http://www.w3.org/2000/svg"
xmlns:rdf="http://www.w3.org/1999/02/22-rdf-syntax-ns#"
xmlns:dc="http://purl.org/dc/elements/1.1/"
xmlns:cc="http://creativecommons.org/ns#"
width="720"
height="1008"

version="1.1"
style="fill:black;stroke:none">
<title>Gnome Icon Theme Symbolic [Emblems Set]</title>
<desc> This package contains a set of icons used by the GNOME desktop. The icons are used in the panel menu, and in nautilus and other applications, to represent the different applications, files, directories, and devices.</desc>
<metadata>
  <rdf:RDF>
  <cc:Work rdf:about="">
  <dc:format>image/svg+xml</dc:format>
  <dc:type rdf:resource="http://purl.org/dc/dcmitype/StillImage" />
  <dc:title>Gnome Icon Theme Symbolic [Emblems Set]</dc:title>
  <dc:date>2017-12-09</dc:date>
  <dc:creator>
  <cc:Agent>
  <dc:title>Gnome</dc:title>
</cc:Agent>
</dc:creator>
<dc:rights>
<cc:Agent>
<dc:title>Creative Commons - Attribution Share Alike</dc:title>
</cc:Agent>
</dc:rights>
<dc:language>English</dc:language>

<dc:source>https://launchpad.net/gnome-icon-theme-symbolic</dc:source>
<dc:description>This package contains a set of icons used by the GNOME desktop. The icons are used in the panel menu, and in nautilus and other applications, to represent the different applications, files, directories, and devices.</dc:description>
</cc:Work>
</rdf:RDF>
</metadata>
<defs>
  <symbol id="icon-emblem-videos-symbolic">
    <title>emblem-videos-symbolic</title>
    <path d="M4.062 8h15.938c1.104 0 2 0.895 2 2v14c0 1.105-0.895 2-2 2h-15.938c-1.104 0-2-0.895-2-2v-14c0-1.105 0.895-2 2-2z"></path>
    <path d="M22 16.939l6.939-6.939h1.062v14h-1z"></path>
  </symbol>
  <symbol id="icon-emblem-system-symbolic">
    <title>emblem-system-symbolic</title>
    <path d="M16 2c-0.441 0-0.882 0.023-1.313 0.062l-0.813 4.188c-0.669 0.147-1.326 0.352-1.938 0.625l-3.063-2.938c-0.777 0.46-1.454 1.028-2.125 1.625l1.813 3.813c-0.445 0.498-0.848 1.045-1.188 1.625l-4.188-0.563c-0.355 0.818-0.617 1.673-0.813 2.563l3.688 2c-0.034 0.336-0.062 0.655-0.062 1s0.028 0.664 0.062 1l-3.688 2c0.195 0.89 0.457 1.745 0.813 2.563l4.188-0.563c0.339 0.58 0.743 1.127 1.188 1.625l-1.813 3.813c0.671 0.597 1.348 1.165 2.125 1.625l3.063-2.938c0.611 0.273 1.269 0.478 1.938 0.625l0.813 4.188c0.431 0.040 0.871 0.062 1.313 0.062s0.882-0.023 1.313-0.062l0.813-4.188c0.669-0.147 1.326-0.352 1.938-0.625l3.063 2.938c0.777-0.46 1.454-1.028 2.125-1.625l-1.813-3.813c0.445-0.498 0.849-1.045 1.188-1.625l4.188 0.563c0.355-0.818 0.617-1.673 0.813-2.563l-3.688-2c0.034-0.336 0.062-0.655 0.062-1s-0.028-0.664-0.062-1l3.688-2c-0.195-0.89-0.457-1.745-0.813-2.563l-4.188 0.563c-0.339-0.58-0.743-1.127-1.188-1.625l1.813-3.813c-0.671-0.597-1.348-1.165-2.125-1.625l-3.063 2.938c-0.611-0.273-1.269-0.478-1.938-0.625l-0.813-4.188c-0.431-0.040-0.871-0.062-1.313-0.062zM16 10c3.314 0 6 2.686 6 6s-2.686 6-6 6c-3.314 0-6-2.686-6-6s2.686-6 6-6z"></path>
  </symbol>
  <symbol id="icon-emblem-synchronizing-symbolic">
    <title>emblem-synchronizing-symbolic</title>
    <path d="M29.804 4.001c-0.085 0.016-0.168 0.036-0.25 0.062-0.894 0.2-1.585 1.084-1.563 2v3.375c0.008 2.625 0.008 2.625-3.125 2.625h-2.875c-1.047 0-2 0.953-2 2-0.016 0.145-0.016 0.292 0 0.438v1.563h12v-10c0.012-0.125 0.012-0.25 0-0.375v-1.625h-1.625c-0.183-0.047-0.373-0.068-0.563-0.062z"></path>
    <path d="M0.009 16v10c-0.012 0.125-0.012 0.25 0 0.375v1.625h1.625c0.183 0.047 0.373 0.068 0.563 0.062 0.085-0.016 0.168-0.036 0.25-0.062 0.894-0.2 1.585-1.084 1.563-2v-3.375c-0.009-2.625-0.009-2.625 3.125-2.625h2.875c1.047-0 2-0.953 2-2 0.016-0.145 0.016-0.292 0-0.438v-1.563z"></path>
    <path d="M16 2c-6.306 0-11.639 4.251-13.375 10h4.188c1.547-3.53 5.076-6 9.188-6s7.641 2.47 9.188 6h4.188c-1.736-5.749-7.069-10-13.375-10zM2.625 20c1.736 5.749 7.069 10 13.375 10s11.639-4.251 13.375-10h-4.188c-1.547 3.53-5.076 6-9.188 6s-7.641-2.47-9.188-6h-4.188z"></path>
  </symbol>
  <symbol id="icon-emblem-shared-symbolic">
    <title>emblem-shared-symbolic</title>
    <path d="M11.938 15.938c0 3.279-2.658 5.938-5.938 5.938s-5.938-2.658-5.938-5.938v0c0-3.279 2.658-5.938 5.938-5.938s5.938 2.658 5.938 5.938v0z"></path>
    <path d="M31.875 25.938c0 3.279-2.658 5.938-5.938 5.938s-5.938-2.658-5.938-5.938v0c0-3.279 2.658-5.938 5.938-5.938s5.938 2.658 5.938 5.938v0z"></path>
    <path d="M31.875 5.938c0 3.279-2.658 5.938-5.938 5.938s-5.938-2.658-5.938-5.938v0c0-3.279 2.658-5.938 5.938-5.938s5.938 2.658 5.938 5.938v0z"></path>
    <path d="M25.25 4.313l-20.125 9.75-3.625 1.813 3.625 1.813 20.063 10.125 1.813-3.625-16.438-8.313 16.438-8-1.75-3.563z"></path>
  </symbol>
  <symbol id="icon-emblem-photos-symbolic">
    <title>emblem-photos-symbolic</title>
    <path d="M26.001 10v4h2v10h-20v4h24v-18z"></path>
    <path d="M0 4v18h24v-18zM4 8h16v10h-16z"></path>
    <path opacity="0.35" d="M6 14c4.642 2 6.089-3.319 12 0v2h-12z"></path>
  </symbol>
  <symbol id="icon-emblem-ok-symbolic">
    <title>emblem-ok-symbolic</title>
    <path d="M23.875 7.875l-9.875 9.875-3.875-3.875-4.25 4.25 8.125 8.125 14.125-14.125-4.25-4.25z"></path>
  </symbol>
  <symbol id="icon-emblem-music-symbolic">
    <title>emblem-music-symbolic</title>
    <path d="M7.008 16.027c-3.842 0-7.007 3.1-7.007 6.942s3.164 7.007 7.007 7.007c3.842 0 7.007-3.164 7.007-7.007s-3.164-6.942-7.007-6.942zM7.008 20.013c1.681 0 3.021 1.276 3.021 2.957s-1.341 3.021-3.021 3.021c-1.681 0-3.021-1.341-3.021-3.021s1.341-2.957 3.021-2.957z"></path>
    <path d="M23.008 16.027c-3.842 0-7.007 3.1-7.007 6.942s3.164 7.007 7.007 7.007c3.842 0 7.007-3.164 7.007-7.007s-3.164-6.942-7.007-6.942zM23.008 20.013c1.681 0 3.021 1.276 3.021 2.957s-1.341 3.021-3.021 3.021c-1.681 0-3.021-1.341-3.021-3.021s1.341-2.957 3.021-2.957z"></path>
    <path d="M10 4h4v19.031h-4v-19.031z"></path>
    <path d="M26 4h4v19.125h-4v-19.125z"></path>
    <path d="M10 4h20v4h-20v-4z"></path>
  </symbol>
  <symbol id="icon-emblem-important-symbolic">
    <title>emblem-important-symbolic</title>
    <path d="M16 2c-7.732 0-14 6.268-14 14s6.268 14 14 14c7.732 0 14-6.268 14-14s-6.268-14-14-14zM15.813 5.938c0.057-0.006 0.122-0.009 0.189-0.009 1.105 0 2 0.896 2 2 0 0.025-0 0.050-0.001 0.075l0-0.004v10c0 0.008 0 0.018 0 0.028 0 1.105-0.896 2-2 2s-2-0.896-2-2c0-0.010 0-0.020 0-0.030l-0 0.002v-10c-0-0.014-0.001-0.031-0.001-0.048 0-0.95 0.662-1.745 1.55-1.949l0.013-0.003c0.068-0.023 0.152-0.044 0.238-0.061l0.012-0.002zM16 22c1.105 0 2 0.895 2 2s-0.895 2-2 2c-1.105 0-2-0.895-2-2s0.895-2 2-2z"></path>
  </symbol>
  <symbol id="icon-emblem-favorite-symbolic">
    <title>emblem-favorite-symbolic</title>
    <path d="M30 11.532c0-4.15-3.375-7.514-7.538-7.514-2.743 0-5.142 1.46-6.461 3.643-1.319-2.183-3.719-3.643-6.462-3.643-4.164 0-7.538 3.364-7.538 7.514 0 2.159 0.916 4.105 2.379 5.475h-0.002l11.45 10.992 11.793-10.992c1.464-1.37 2.379-3.316 2.379-5.475z"></path>
  </symbol>
  <symbol id="icon-emblem-documents-symbolic">
    <title>emblem-documents-symbolic</title>
    <path d="M4 0c-2.181 0-4 1.819-4 4v18c0 2.181 1.819 4 4 4h14c2.181 0 4-1.819 4-4v-18c0-2.181-1.819-4-4-4h-14zM4 4h14v18h-14v-18z"></path>
    <path d="M24 6v4h2v18h-18c0 2.181 1.819 4 4 4h14c2.181 0 4-1.819 4-4v-18c0-2.181-1.819-4-4-4z"></path>
    <path d="M7 6h6c0.552 0 1 0.448 1 1s-0.448 1-1 1h-6c-0.552 0-1-0.448-1-1s0.448-1 1-1z"></path>
    <path d="M7 10h8c0.552 0 1 0.448 1 1s-0.448 1-1 1h-8c-0.552 0-1-0.448-1-1s0.448-1 1-1z"></path>
    <path d="M7 14h4c0.552 0 1 0.448 1 1s-0.448 1-1 1h-4c-0.552 0-1-0.448-1-1s0.448-1 1-1z"></path>
    <path d="M7 18h8c0.552 0 1 0.448 1 1s-0.448 1-1 1h-8c-0.552 0-1-0.448-1-1s0.448-1 1-1z"></path>
  </symbol>
  <symbol id="icon-emblem-default-symbolic">
    <title>emblem-default-symbolic</title>
    <path d="M16.071 2c-7.678 0-13.883 6.27-13.883 14s6.206 14 13.883 14c7.678 0 13.942-6.27 13.942-14 0-0.778-0.112-1.532-0.233-2.275l-12.867 11.527-8.107-8.11 4.251-4.172 3.857 4.119 10.123-9.722c-2.545-3.274-6.518-5.367-10.967-5.367z"></path>
  </symbol>
</defs>
</svg>
