<?xml version="1.0" encoding="UTF-8" standalone="no"?>
<svg xmlns:rdf="http://www.w3.org/1999/02/22-rdf-syntax-ns#" xmlns="http://www.w3.org/2000/svg" version="1.0" xmlns:cc="http://creativecommons.org/ns#" xmlns:dc="http://purl.org/dc/elements/1.1/" viewBox="0 0 324.00104 526.97852">
<path opacity=".25" d="m76.641826 347.99089h168.92059v168.92059h-168.92059z"/>
<path d="m162.70193 0.0019612c-0.34197 0.0076-0.68799 0.03851-1.03516 0.0918-5.25705 0.807-10.08525 11.294575-25.25195 54.863281-3.78383 10.869609-7.92523 19.763672-9.20312 19.763672-1.27786 0-16.41203-8.171933-33.630864-18.160157-17.2188-9.988223-32.90633-18.160156-34.86328-18.160156-7.14045 0-6.0317 7.76834 6.05664 42.437505 6.78141 19.448974 12.32812 36.212044 12.32812 37.251954 0 1.81106-38.79045 10.41255-64.16601 14.22851-9.8486103 1.48105-12.24591 2.7935-12.85547 7.03516-0.58118 4.04421 1.86227 6.68864 10.89453 11.78516 6.40506 3.61409 17.35099 10.2358 24.32226 14.71484 6.97125 4.47903 13.17295 8.14453 13.78321 8.14453 0.61024 0 4.90552 2.23926 9.54492 4.97657l8.43555 4.97656-25.2461 31.31836c-13.88561 17.22464-25.24609 32.35342-25.24609 33.62109 0 4.51778 4.9858 5.2305 18.74023 2.67969 23.94917-4.44145 64.07412-10.09386 65.009774-9.1582 0.49149 0.49149 1.05603 19.07799 1.2539 41.30273 0.35345 39.70128 0.45078 40.4082 5.59766 40.4082 3.76736 0 11.87195-8.16045 28.85742-29.05664 12.99029-15.98116 24.60333-29.05664 25.80664-29.05664s13.19685 13.07548 26.65235 29.05664c33.8625 40.21865 33.89843 40.20496 33.89843-12.10742 0-33.39682 0.63107-41.16211 3.34375-41.16211 1.83894 0 17.76812 2.17827 35.39844 4.8418 36.60581 5.53028 46.00781 5.96656 46.00781 2.13476 0-1.48947-10.89721-16.1233-24.21484-32.51953-13.31763-16.39626-24.21289-30.73594-24.21289-31.86523s14.67012-10.73873 32.60156-21.35547c25.85005-15.30516 32.62115-20.40142 32.68946-24.60352 0.0733-4.50981-1.6288-5.52963-11.41602-6.83984-25.20435-3.37413-67.16765-12.6178-66.74609-14.70313 0.24614-1.21757 6.19772-18.895254 13.22461-39.285154 10.3208-29.947898 12.13782-37.468192 9.45703-39.125003-4.50385-2.783533-6.63331-1.818965-40.91602 18.513669-16.44219 9.751655-30.79124 17.730469-31.88476 17.730469-1.09353 0-3.6732-4.631023-5.73438-10.291016-6.83083-18.75728-21.15305-58.667748-22.21875-61.916015-0.5047-1.538335-2.66873-2.564732-5.0625-2.511719zm-0.87109 60.189453c0.83375 0 4.53942 8.962073 8.23633 19.914062 7.62347 22.584424 10.41707 28.513684 13.43359 28.513684 1.15972 0 11.54781-5.55396 23.08398-12.343754 11.53614-6.78981 21.44989-11.87239 22.0293-11.29297 0.57941 0.57941-2.21896 10.11684-6.21875 21.193364-10.2586 28.40878-9.95672 30.77416 4.22852 33.05078 6.32587 1.01526 12.04701 1.99607 12.71289 2.18164 0.66588 0.18555 6.91054 1.19358 13.87695 2.24023 6.96638 1.04662 12.1908 2.6718 11.61133 3.60938-0.57946 0.93761-9.90745 6.93321-20.73047 13.32422-10.823 6.39104-20.2464 13.09823-20.93945 14.90429-0.69308 1.80607 5.38808 11.61158 13.51367 21.79102 8.1256 10.17942 14.77344 19.35344 14.77344 20.38672-0.00001 2.10656-16.14506 0.59508-29.05665-2.72071-4.66117-1.197-11.44895-2.18205-15.08593-2.18945-8.02731-0.0164-8.89754 2.84423-9.73242 32.01563l-0.60547 21.13476-15.73829-19.29883c-8.65645-10.6144-17.38628-19.30773-19.39843-19.31835-2.01217-0.0106-10.64867 8.69746-19.19336 19.35156-8.54469 10.65411-15.76223 19.37109-16.03711 19.37109-1.9066 0-3.42311-14.10782-3.45117-32.08398l-0.0332-21.18555-6.66015 0.0137c-3.66235 0.007-10.47165 1.00012-15.13281 2.20703-4.661174 1.2069-13.716214 2.91199-20.123054 3.78907l-11.65039 1.59375 8.75976-11.67188c4.81694-6.41961 11.90111-15.83289 15.74414-20.91992 3.84306-5.08702 6.478864-10.53563 5.85743-12.10742-1.01287-2.56198-9.58494-8.0411-34.19922-21.85938-4.38254-2.46032-7.44887-5.31337-6.81446-6.33984 0.6344-1.0265 6.35321-2.63892 12.70899-3.58399 31.206924-4.64027 36.980474-6.22155 36.980474-10.12109 0-2.0439-3.26838-12.97737-7.26367-24.29688-3.995294-11.319504-7.263684-21.686864-7.263684-23.039064s4.63103 0.24614 10.291024 3.55274c25.1003 14.663714 33.86509 18.956414 36.51172 17.878904 1.55889-0.63467 6.57514-11.613604 11.14648-24.398434 4.57131-12.784863 8.99439-23.246102 9.82813-23.246102zm-85.189464 277.73243a10.068976 10.068976 0 0 0 -10.06836 10.06641v168.92188a10.068976 10.068976 0 0 0 10.06836 10.0664h168.92188a10.068976 10.068976 0 0 0 10.06641 -10.0664v-168.92188a10.068976 10.068976 0 0 0 -10.06641 -10.06641h-168.92188zm10.06836 20.13477h148.78516v148.78516h-148.78516v-148.78516z"/>
</svg>
