<?xml version="1.0" encoding="UTF-8" standalone="no"?>
<svg xmlns:rdf="http://www.w3.org/1999/02/22-rdf-syntax-ns#" xmlns="http://www.w3.org/2000/svg" height="529.26611" width="234.50102" version="1.0" xmlns:cc="http://creativecommons.org/ns#" xmlns:dc="http://purl.org/dc/elements/1.1/" viewBox="0 0 234.50102 529.26612">
<path d="m78.39479 315.57992-1.29541-151.01315-77.09938-0.51761v-39.31677-37.316765l76.65632-1.3892 1.38923-84.656348 78.40995-1.370077v86.156825h78.04552v38.575565 38.57556h-78.04552v154.02069c-24.80011-2.85201-53.90038 4.64601-78.06071-1.74872z"/>
<path opacity=".25" d="m32.57476 350.27847h168.92059v168.92059h-168.92059z"/>
<path d="m78.04502 0.000487v86.156258h-78.04492v38.576165 38.57422h78.04492v154.02148c24.80011-2.85201 53.90021 4.64668 78.06054-1.74805l1.29688-151.01367 77.09766-0.51758v-39.3164-37.316405l-76.65626-1.39062-1.38867-84.656252-78.41015-1.369141zm-45.47071 340.21093a10.068976 10.068976 0 0 0 -10.06836 10.06641v168.92188a10.068976 10.068976 0 0 0 10.06836 10.06641h168.92188a10.068976 10.068976 0 0 0 10.06641 -10.06641v-168.92188a10.068976 10.068976 0 0 0 -10.06641 -10.06641h-168.92188zm10.06836 20.13477h148.78516v148.78516h-148.78516v-148.78516z"/>
</svg>
