<?xml version="1.0" encoding="UTF-8" standalone="no"?>
<svg xmlns:rdf="http://www.w3.org/1999/02/22-rdf-syntax-ns#" xmlns="http://www.w3.org/2000/svg" version="1.0" xmlns:cc="http://creativecommons.org/ns#" xmlns:dc="http://purl.org/dc/elements/1.1/" viewBox="0 0 539.41187 565.44751">
<path opacity=".25" d="m203.25859 562.11552c-30.92068-8.06884-57.65056-24.22167-82.78558-50.02724-40.036016-41.10412-61.903183-85.09399-74.852102-150.5791-7.385543-37.35009-7.398095-38.25916-0.596723-43.23247 13.932696-10.18784 19.439595-6.51644 24.113385 16.07622 24.357654 117.74211 100.66187 194.28406 174.89151 175.4364 22.13843-5.62118 43.25875-26.87429 49.61218-49.92415 8.19216-29.72073-6.23979-81.07946-31.32633-111.48054l-8.91525-10.8039-15.07042 15.52901c-15.93722 16.42223-35.57799 29.95802-43.5031 29.98093-4.76522 0.0138-26.5215-43.99128-26.5215-53.64332 0-2.82666 10.3482-9.87041 22.99601-15.6527 35.49363-16.22692 50.59118-34.50414 50.59118-61.24608 0-17.40336-3.06804-23.47214-14.98059-29.63236-15.33883-7.93202-40.879-6.57545-71.83294 3.81545-15.07083 5.05915-28.26377 9.19842-29.31762 9.19842-2.71254 0-23.68449-47.46061-23.68449-53.5992 0-10.53081 22.74529-17.72812 60.70943-19.21034 34.81935-1.35944 37.87578-0.86751 56.96279 9.16838 23.98806 12.61286 41.82197 34.45144 49.64427 60.79199 6.3799 21.4834 7.29809 49.44998 2.07461 63.18877-5.56317 14.63218 1.51217 14.74588 20.40083 0.32783 20.6384-15.75362 34.59887-21.92731 57.27282-25.32748 16.34901-2.45167 17.15571-3.165 21.62267-19.11946 10.66194-38.08066 38.90221-60.55909 76.75628-61.09583 28.258-0.40068 44.14473 5.40932 60.44996 22.10739 21.52496 22.04355 29.23386 48.65382 31.11159 107.3932 2.33073 72.91106-7.46129 112.31982-35.97879 144.79951-24.58133 27.99657-63.24925 38.3441-93.41849 24.99882-25.46066-11.26246-32.17679-28.73814-35.09912-91.32898-1.87726-40.20777-3.44162-49.77093-9.1786-56.1102-8.87704-9.80905-14.32893-9.58276-38.33177 1.59115l-19.67884 9.16103 7.89693 11.95938c51.30273 77.69437 40.67928 162.29623-23.97048 190.89389-20.35994 9.00615-64.29586 11.79787-88.06371 5.59558zm265.90975-131.18534c26.52524-16.1725 44.08965-61.63076 40.23563-104.13344-2.51911-27.78136-18.69197-60.52821-35.33677-71.55002-22.53431-14.92172-53.48777-10.00976-73.77775 11.70761l-9.01317 9.64728 7.07191 11.85862c5.88448 9.86744 7.26806 20.50789 8.23997 63.36967 1.36467 60.18168 1.92523 63.73354 12.10001 76.66871 9.69872 12.32991 32.44815 13.42571 50.48017 2.43157zm-183.10436-248.96895c-9.0955-3.18219-23.43528-10.53176-31.8661-16.33235-16.83412-11.58215-49.09962-46.66762-49.09962-53.39081 0-2.33157 4.2384-7.01632 9.41865-10.41056 9.21983-6.041073 9.73329-5.887119 24.32218 7.29308 19.33268 17.46591 37.14982 24.74404 60.70234 24.79642 21.10252 0.0469 46.51618-12.1837 59.43047-28.60158 3.98065-5.06055 8.47645-9.200969 9.99071-9.200969 2.92886 0 42.0741 32.208429 46.85403 38.551169 4.60799 6.11458-33.55971 37.98104-55.18017 46.07033-23.38205 8.74833-51.7383 9.21424-74.57249 1.22527zm1.29389-82.287439c-9.82898-10.349782-18.33237-20.080649-18.89646-21.624182-0.56411-1.543521 7.45184-10.736146 17.81326-20.42802l18.8389-17.621589 19.59542 19.35203c10.7775 10.643611 18.70822 21.199738 17.6238 23.458013-1.08439 2.258311-9.87643 11.210484-19.53784 19.893777l-17.56622 15.78771-17.87086-18.817739z"/>
<path d="m163.25859 522.11552c-30.92068-8.06884-57.65056-24.22167-82.785576-50.02724-40.036025-41.10412-61.903187-85.09399-74.852106-150.5791-7.3855426-37.35009-7.3980946-38.25916-0.5967226-43.23247 13.932696-10.18784 19.439595-6.51644 24.113385 16.07622 24.35765 117.74211 100.66187 194.28406 174.89151 175.4364 22.13843-5.62118 43.25875-26.87429 49.61218-49.92415 8.19216-29.72073-6.23979-81.07946-31.32633-111.48054l-8.91525-10.8039-15.07042 15.52901c-15.93722 16.42223-35.57799 29.95802-43.5031 29.98093-4.76522 0.0138-26.5215-43.99128-26.5215-53.64332 0-2.82666 10.3482-9.87041 22.99601-15.6527 35.49363-16.22692 50.59118-34.50414 50.59118-61.24608 0-17.40336-3.06804-23.47214-14.98059-29.63236-15.33883-7.93202-40.879-6.57545-71.83294 3.81545-15.07083 5.05915-28.263766 9.19842-29.317616 9.19842-2.712544 0-23.684494-47.46061-23.684494-53.5992 0-10.53081 22.745294-17.72812 60.70943-19.21034 34.81935-1.35944 37.87578-0.86751 56.96279 9.16838 23.98806 12.61286 41.82197 34.45144 49.64427 60.79199 6.3799 21.4834 7.29809 49.44998 2.07461 63.18877-5.56317 14.63218 1.51217 14.74588 20.40083 0.32783 20.6384-15.75362 34.59887-21.92731 57.27282-25.32748 16.34901-2.45167 17.15571-3.165 21.62267-19.11946 10.66194-38.08066 38.90221-60.55909 76.75628-61.09583 28.258-0.40068 44.14473 5.40932 60.44996 22.10739 21.52496 22.04355 29.23386 48.65382 31.11159 107.3932 2.33073 72.91106-7.46129 112.31982-35.97879 144.79951-24.58133 27.99657-63.24925 38.3441-93.41849 24.99882-25.46066-11.26246-32.17679-28.73814-35.09912-91.32898-1.87726-40.20777-3.44162-49.77093-9.1786-56.1102-8.87704-9.80905-14.32893-9.58276-38.33177 1.59115l-19.67884 9.16103 7.89693 11.95938c51.30273 77.69437 40.67928 162.29623-23.97048 190.89389-20.35994 9.00615-64.29586 11.79787-88.06371 5.59558zm265.90975-131.18534c26.52524-16.1725 44.08965-61.63076 40.23563-104.13344-2.51911-27.78136-18.69197-60.52821-35.33677-71.55002-22.53431-14.92172-53.48777-10.00976-73.77775 11.70761l-9.01317 9.64728 7.07191 11.85862c5.88448 9.86744 7.26806 20.50789 8.23997 63.36967 1.36467 60.18168 1.92523 63.73354 12.10001 76.66871 9.69872 12.32991 32.44815 13.42571 50.48017 2.43157zm-183.10436-248.96895c-9.0955-3.18219-23.43528-10.53176-31.8661-16.33235-16.83412-11.58215-49.09962-46.667623-49.09962-53.390808 0-2.331576 4.2384-7.016328 9.41865-10.410568 9.21983-6.041066 9.73329-5.887119 24.32218 7.293083 19.33268 17.46591 37.14982 24.74404 60.70234 24.79642 21.10252 0.04691 46.51618-12.1837 59.43047-28.601577 3.98065-5.060557 8.47645-9.200973 9.99071-9.200973 2.92886 0 42.0741 32.20843 46.85403 38.55117 4.60799 6.114583-33.55971 37.981043-55.18017 46.070333-23.38205 8.74833-51.7383 9.21424-74.57249 1.22527zm1.29389-82.287444c-9.82898-10.349777-18.33237-20.080644-18.89646-21.624177-0.56411-1.543521 7.45184-10.736146 17.81326-20.42802l18.8389-17.621589 19.59542 19.35203c10.7775 10.643611 18.70822 21.199738 17.6238 23.458013-1.08439 2.258311-9.87643 11.210484-19.53784 19.893779l-17.56622 15.787705-17.87086-18.817741z"/>
</svg>
