<?xml version="1.0" encoding="UTF-8" standalone="no"?>
<svg xmlns:rdf="http://www.w3.org/1999/02/22-rdf-syntax-ns#" xmlns="http://www.w3.org/2000/svg" height="538.37109" width="319.48648" version="1.0" xmlns:cc="http://creativecommons.org/ns#" xmlns:dc="http://purl.org/dc/elements/1.1/" viewBox="0 0 319.48648 538.3711">
<path opacity=".25" d="m77.959122 359.38346h168.92059v168.92059h-168.92059z"/>
<path d="m169.5993 0-12.05078 11.273437c-6.62847 6.200151-11.75737 12.080923-11.39649 13.068359 0.36086 0.987436 5.80199 7.212954 12.08985 13.833985l11.43164 12.037109 11.23828-10.099609c6.18066-5.554932 11.80434-11.281858 12.49805-12.726563 0.69373-1.444683-4.37878-8.196855-11.27344-15.005859l-12.53711-12.380859zm40.8457 35.898437c-0.9687 0-3.8441 2.649347-6.39062 5.886719-8.26162 10.502963-24.51968 18.326886-38.01953 18.296875-15.06718-0.03349-26.46441-4.689866-38.83204-15.863281-9.3329-8.431728-9.66236-8.530648-15.56054-4.666016-3.31394 2.17139-6.02539 5.168586-6.02539 6.660156 0 4.300999 20.64092 26.746843 31.41015 34.15625 5.39343 3.710789 14.56807 8.411526 20.38672 10.447266 14.60763 5.11075 32.74696 4.81334 47.70508-0.7832 13.83119-5.174942 38.24864-25.561 35.30078-29.47266-3.05785-4.057619-28.10093-24.662109-29.97461-24.662109zm-118.52148 42.511719c-3.5065-0.0075-7.80629 0.136096-13.375 0.353515-24.28668 0.948222-38.83789 5.552221-38.83789 12.289065 0 3.92703 13.41706 34.289064 15.15234 34.289064 0.67419 0 9.11464-2.6483 18.75586-5.88476 19.80206-6.64734 36.140468-7.51378 45.953128-2.43945 7.62078 3.94085 9.58398 7.82167 9.58398 18.95507 0 17.10754-9.659 28.80084-32.365238 39.18164-8.09114 3.69909-14.71093 8.20539-14.71093 10.01368 0 6.17468 13.91835 34.32523 16.96679 34.3164 5.069908-0.0147 17.634608-8.67394 27.830078-19.17968l9.64063-9.9336 5.70312 6.91016c16.04853 19.44838 25.28177 52.30521 20.04102 71.31836-4.06445 14.74561-17.57573 28.34148-31.73828 31.9375-47.486688 12.05735-96.300578-36.90769-111.88282-112.23047-2.98995-14.45313-6.51266-16.8026-15.42578-10.28516-4.35102 3.18156-4.34387 3.76239 0.38086 27.65625 8.2837702 41.89258 22.27265 70.03468 47.88477 96.33008 16.07955 16.50852 33.18016 26.84206 52.960938 32.00391 15.20493 3.96777 43.31113 2.1814 56.33593-3.58008 41.35819-18.29469 48.15372-72.41597 15.33399-122.11914l-5.05078-7.65039 12.58789-5.86133c15.35525-7.14825 18.84455-7.29268 24.52343-1.01758 3.67011 4.0554 4.67017 10.17254 5.8711 35.89453 1.86949 40.04103 6.16526 51.22089 22.45312 58.42578 19.30007 8.53734 44.03835 1.91798 59.76368-15.99218 18.2434-20.77813 24.50665-45.98966 23.01562-92.63282-1.20123-37.57716-6.13225-54.59932-19.90234-68.70117-10.43089-10.6822-20.59448-14.398914-38.67188-14.142584-24.21627 0.34337-42.28278 14.722774-49.10351 39.083994-2.85763 10.2065-3.37314 10.66207-13.83204 12.23047-14.50513 2.17518-23.43573 6.12511-36.63867 16.20312-12.08358 9.22361-16.60968 9.15162-13.05078-0.20898 3.3416-8.78908 2.75327-26.68032-1.32812-40.42383-5.00413-16.85075-16.41202-30.821834-31.75782-38.890634-9.15785-4.815173-12.5469-6.196187-23.066398-6.21875zm167.91406 53.800784c6.27696 0.11331 12.43978 1.9086 17.8457 5.48829 10.64812 7.05095 20.99589 28.00095 22.60742 45.77343 2.46552 27.1901-8.77132 56.26926-25.74023 66.61524-11.53556 7.03325-26.08844 6.33308-32.29297-1.55469-6.50908-8.27497-6.86917-10.54703-7.74219-49.04687-0.62175-27.41983-1.50702-34.2266-5.27148-40.53907l-4.52344-7.58593 5.76563-6.17188c8.11252-8.68324 18.88996-13.16736 29.35156-12.97852zm-181.87891 217.10547a10.068976 10.068976 0 0 0 -10.06836 10.06641v168.92188a10.068976 10.068976 0 0 0 10.06836 10.0664h168.92188a10.068976 10.068976 0 0 0 10.06641 -10.0664v-168.92188a10.068976 10.068976 0 0 0 -10.06641 -10.06641h-168.92188zm10.06836 20.13477h148.78516v148.78516h-148.78516v-148.78516z"/>
</svg>
