<?xml version="1.0" encoding="UTF-8" standalone="no"?>
<svg xmlns:rdf="http://www.w3.org/1999/02/22-rdf-syntax-ns#" xmlns="http://www.w3.org/2000/svg" version="1.0" xmlns:cc="http://creativecommons.org/ns#" xmlns:dc="http://purl.org/dc/elements/1.1/" viewBox="0 0 528.12299 535.08795">
<path opacity=".25" d="m239.97152 531.44788c-9.03385-1.79625-26.58896-6.83815-39.01133-11.20429-63.66525-22.37651-125.14401-85.39216-148.08499-151.78692-8.003416-23.16297-13.166156-48.38503-12.862363-82.34822 0.296596-33.98722 4.858947-55.79156 12.862366-78.95454 21.871226-63.2987 77.192617-122.80084 138.19503-148.63874 22.16147-9.38659 71.39126-18.515845 99.84734-18.515845 42.41286 0 122.71911 26.814284 138.97774 46.404715 8.31197 10.01534 0.58015 10.35481-40.37964 1.77289-32.77945-6.86795-43.65318-7.50134-68.99836-4.01908-72.97738 10.02655-138.62884 65.024078-164.86657 138.11198-12.37732 34.47828-12.42471 96.48228-0.0998 130.74026 25.51622 70.92493 90.15114 126.38886 161.537 138.61675 22.15421 3.79484 32.31362 3.1851 68.67019-4.12137 23.46812-4.71629 44.19372-7.10764 46.05683-5.3141 4.33841 4.17639-15.17718 18.06445-43.79414 31.16577-42.25455 19.34474-103.87355 26.87423-148.0492 18.09074zm135.56286-163.19748c-1.24268-2.01071 2.31631-17.1091 7.90889-33.55194 5.5926-16.44288 10.16837-30.40179 10.16837-31.01979 0-0.61795-11.98071-9.67282-26.62378-20.12191-14.64309-10.44911-26.62379-20.60522-26.62379-22.56915 0-1.9639 15.20627-4.10608 33.79171-4.76043l33.79174-1.18961 10.64771-30.51435c5.8563-16.78293 12.58591-31.16044 14.95482-31.95005 2.36886-0.78961 9.2487 13.40262 15.28843 31.53833l10.98134 32.97404h34.82071c19.20665 0 34.20844 1.67267 33.45532 3.73023-0.75092 2.05164-12.88521 12.18535-26.9651 22.51935-14.07988 10.33404-25.59979 20.34756-25.59979 22.25231 0 1.9048 3.68637 14.17783 8.19193 27.2735 7.8892 22.9304 10.41731 38.91167 6.15546 38.91167-1.12009 0-13.30353-8.29433-27.07439-18.43185-13.77083-10.13753-26.75701-18.43184-28.85815-18.43184-2.10116 0-13.41827 7.0317-25.1492 15.62603-28.36128 20.77806-30.62448 21.98343-33.26223 17.71546z"/>
<path d="m250.91702 0.000005c-28.45608 0-77.68619 9.129035-99.84766 18.515625-61.002411 25.8379-116.32213 85.33997-138.19336 148.63867-8.0034201 23.16298-12.566687 44.96786-12.863283 78.95508-0.303793 33.96319 4.859863 59.18468 12.863282 82.34765 22.940971 66.39476 84.41874 129.4106 148.08399 151.78711 12.42237 4.36614 29.97786 9.40688 39.01171 11.20313 44.17565 8.78349 105.79428 1.2549 148.04883-18.08984 28.61696-13.10133 48.13333-26.98963 43.79492-31.16602-1.86311-1.79354-22.58852 0.59816-46.05664 5.31445-36.35657 7.30647-46.51571 7.91594-68.66992 4.1211-71.38586-12.22789-136.02089-67.69226-161.53711-138.61719-12.32491-34.25798-12.27771-96.26196 0.0996-130.74024 26.23773-73.0879 91.88786-128.08476 164.86524-138.11132 25.34518-3.482256 36.22055-2.848418 69 4.019532 40.95979 8.581915 48.69087 8.241896 40.3789-1.773438-16.25862-19.590435-96.56564-46.4043-138.9785-46.4043zm143.00781 149.32616c-0.34287-0.0181-0.69265 0.0155-1.04297 0.11524-8.73183 6.28708-10.41257 18.60874-15.02539 27.8125-4.19722 11.49934-8.09111 23.13383-12.18945 34.67969-22.0883 1.88211-45.49246-1.01891-66.72071 5.87109-5.35963 6.32531 5.56284 11.27118 9.1543 15.37305 13.52923 11.09747 28.26651 20.53346 41.94336 31.49414-5.81787 21.21975-16.54736 41.76187-17.76172 63.88476 3.65069 9.81736 14.80603 1.77264 19.91406-2.10351 13.95309-9.21158 27.00178-21.28571 42.0293-28.14649 19.21441 10.27388 35.54215 25.92854 54.72852 36.51758 8.5723 0.24598 6.0885-11.84406 5.07421-17.31445-3.16573-17.6044-11.96596-34.74564-14.82617-51.89258 15.76552-16.22189 36.70589-26.40457 51.74414-43.33594 0.96481-8.49723-11.51249-6.44417-16.91601-7.76172-17.29034-1.10924-34.6308-0.39147-51.94336-0.5957-8.20107-21.14689-11.94549-44.89933-25.375-63.38672-0.78698-0.63209-1.7585-1.15669-2.78711-1.21094z"/>
</svg>
