<?xml version="1.0" encoding="UTF-8" standalone="no"?>
<svg xmlns:rdf="http://www.w3.org/1999/02/22-rdf-syntax-ns#" xmlns="http://www.w3.org/2000/svg" version="1.0" xmlns:cc="http://creativecommons.org/ns#" xmlns:dc="http://purl.org/dc/elements/1.1/" viewBox="0 0 308.39279 522.19531">
<path opacity=".25" d="m66.38734 343.20767h168.92059v168.92059h-168.92059z"/>
<path d="m157.59978 0c-17.87306 0-48.79538 5.733248-62.71484 11.628906-38.31518 16.228592-73.06167 53.601917-86.79883 93.359384-5.02689 14.5485-7.89183 28.2427-8.07812 49.58984-0.19081 21.33204 3.05123 37.17416 8.07812 51.72266 14.40906 41.70206 53.02403 81.28141 93.01172 95.33594 7.8024 2.74234 18.82785 5.9089 24.50195 7.0371 27.74641 5.51685 66.44851 0.78896 92.98829-11.36133 17.97411-8.22885 30.23273-16.95301 27.50781-19.57617-1.17021-1.12651-14.18758 0.37563-28.92774 3.3379-22.8353 4.58913-29.21596 4.97334-43.13086 2.58983-44.83695-7.68025-85.43437-42.517-101.46093-87.06445-7.74112-21.51719-7.71161-60.46162 0.0625-82.11718 16.47973-45.90599 57.71421-80.450446 103.55078-86.748055 15.91913-2.187187 22.74935-1.788322 43.33789 2.52539 25.72655 5.390236 30.58397 5.177279 25.36328-1.113281-10.21193-12.304606-60.65181-29.146479-87.29102-29.146479zm89.82032 93.791015c-0.21536-0.0113-0.43427 0.01-0.6543 0.0723-5.4844 3.94887-6.54022 11.687925-9.4375 17.468755-2.63624 7.22264-5.08211 14.52938-7.65625 21.78124-13.8735 1.18214-28.57294-0.64006-41.90625 3.6875-3.36635 3.97288 3.49423 7.07989 5.75 9.65625 8.49761 6.97024 17.75342 12.89692 26.34375 19.78125-3.65416 13.32797-10.39352 26.22977-11.15625 40.125 2.29297 6.16621 9.29949 1.11427 12.50781-1.32031 8.76383-5.78573 16.95976-13.37048 26.39844-17.67969 12.06843 6.45295 22.32418 16.2866 34.375 22.9375 5.3842 0.15451 3.82457-7.43909 3.1875-10.875-1.98837-11.0572-7.51602-21.82388-9.3125-32.59375 9.90221-10.18885 23.05458-16.58428 32.5-27.21875 0.60599-5.33705-7.23109-4.04746-10.625-4.875-10.85994-0.69671-21.7511-0.24672-32.625-0.375-5.15103-13.2822-7.50252-28.2007-15.9375-39.812495-0.4943-0.39701-1.10589-0.7257-1.75195-0.75977zm-181.03321 239.3496a10.068976 10.068976 0 0 0 -10.06836 10.06642v168.92187a10.068976 10.068976 0 0 0 10.06836 10.06641h168.92188a10.068976 10.068976 0 0 0 10.06641 -10.06641v-168.92187a10.068976 10.068976 0 0 0 -10.06641 -10.06642h-168.92188zm10.06836 20.13477h148.78516v148.78517h-148.78516v-148.78517z"/>
</svg>
