<?xml version="1.0" encoding="UTF-8" standalone="no"?>
<svg xmlns:rdf="http://www.w3.org/1999/02/22-rdf-syntax-ns#" xmlns="http://www.w3.org/2000/svg" version="1.0" xmlns:cc="http://creativecommons.org/ns#" xmlns:dc="http://purl.org/dc/elements/1.1/" viewBox="0 0 202.33357 534.1875">
<path opacity=".25" d="m10.06793 355.2005h168.92059v168.92059h-168.92059z"/>
<path d="m95.73242 0c-9.71849 0-13.50301 1.181635-18.44922 5.765625-3.42241 3.17179-6.22265 7.835778-6.22265 10.363281 0 3.385348-1.19846 4.282387-4.54883 3.40625-6.67971-1.746796-20.77116 3.579815-24.83985 9.388672-2.5169 3.593397-3.53515 11.210173-3.53515 26.455078v21.41211l-6.80274-1c-9.68681-1.421725-23.43753 5.714157-25.55859 13.263671-0.95605 3.40289-1.51454 44.285723-1.73828 90.847663-0.21083 43.87791-0.56287 53.32898 0.51758 77.9375 0.30715 6.99602 5.88476 20.38281 5.88476 20.38281 6.81126 14.53752 27.15367 36.40537 40.13672 43.14648 4.15297 2.15631 12.31243 5.31123 18.13281 7.00977 17.20811 5.0218 46.84008 2.6512 62.47461-4.99805 17.47125-8.54789 34.24672-25.8644 43.75586-45.16601 0 0 5.0105-10.75082 7.3086-28.55274 2.29807-17.80192 1.88476-42.65429 1.88476-42.65429 1.43139-57.90077 2.7583-66.25988 12.90039-81.20508 3.28415-4.83948 5.65026-11.00755 5.25781-13.70703-1.30248-8.95931-36.635-16.509643-48.20312-4.49024-0.96588-3.75468-0.64197-14.220393-1.23438-31.291017-1.01214-29.607254-0.73431-30.013972-7.1289-34.783203-3.94464-2.942009-10.36664-4.919169-16.46094-5.066406l-9.99414-0.242188-1.18359-13.169921c-1.62437-18.061027-6.46466-23.052731-22.35352-23.052731zm1.11133 16.648438c6.83142 0.02674 7.14062 11.908832 7.14062 75.353519v70.263673h7.05469 7.05469v-51.57031c0-43.745126 0.56049-52.128857 3.69531-55.263679 2.03251-2.032524 5.60729-3.695313 7.94336-3.695313 9.27103 0 9.88782 4.380388 9.32031 66.291022l-0.54687 59.52343h6.84375 6.84375l1.17773-22.74023c1.01697-19.64829 1.92117-23.53421 6.65235-28.57031 5.5272-5.88341 16.86133-9.82492 16.86133-5.86328-0.00001 1.17831-1.78846 5.53053-3.97657 9.66992-3.28115 6.20716-4.24672 17.62211-5.50195 65.14062-1.25974 47.68956-2.25436 59.43991-5.78125 68.19922-8.22515 20.42775-22.05462 35.30925-40.6582 43.75196-33.18734 15.06109-74.31776-0.32685-92.63282-34.6543-5.40489-10.13026-5.49274-11.45447-6.18164-94.3457l-0.69922-84.072273 5.40235 0.0352c10.55276 0.0704 11.11843 1.92933 11.80469 38.865233l0.65234 35.17773 6.4668 0.74415c7.41608 0.85333 7.0592 2.37172 6.48828-27.52735-0.2319-12.14371 0.33464-40.36458 1.25976-62.712892 1.47682-35.674865 2.1782-40.762265 5.7461-41.695313 2.23512-0.584484 5.80194-0.0909 7.92578 1.097656 3.42314 1.915693 3.86133 8.955359 3.86133 62.011719v59.85157h8.23046 8.23047v-70.392583c0-68.876036 0.1039-70.424239 4.81641-71.919924 1.75195-0.556049 3.24078-0.958078 4.50586-0.953125zm-4.93555 161.24805c-16.4182-0.0872-32.36588 7.23217-42.89843 19.95898-15.88788 17.59337-19.02859 44.49441-10.65626 66.21875 6.07802 13.65035 18.08436 24.23676 30.92969 31.4082 14.51904 7.11613 32.19002 5.36785 46.78907-0.0332 15.68133-7.03907 27.45241-21.63312 33.68554-37.2832 5.33529-17.17517 6.7013-37.70087-3.43554-53.49805-11.54666-16.33753-30.94935-27.17829-51.125-26.65625-1.09726-0.0722-2.19452-0.10942-3.28907-0.11523zm-81.83984 167.23633a10.068976 10.068976 0 0 0 -10.06836 10.0664v168.92188a10.068976 10.068976 0 0 0 10.06836 10.0664h168.92187a10.068976 10.068976 0 0 0 10.06641 -10.0664v-168.92188a10.068976 10.068976 0 0 0 -10.06641 -10.0664h-168.92187zm10.06836 20.13476h148.78515v148.78516h-148.78515v-148.78516z"/>
</svg>
