<?xml version="1.0" encoding="UTF-8" standalone="no"?>
<svg xmlns:rdf="http://www.w3.org/1999/02/22-rdf-syntax-ns#" xmlns="http://www.w3.org/2000/svg" version="1.0" xmlns:cc="http://creativecommons.org/ns#" xmlns:dc="http://purl.org/dc/elements/1.1/" viewBox="0 0 349.52274 556.11096">
<path opacity=".25" d="m183.31771 40c-15.15227 0-21.0539 1.845207-28.76562 8.992188-5.33594 4.945194-9.70118 12.215579-9.70118 16.15625 0 5.278175-1.86622 6.676552-7.08984 5.310547-10.41446-2.723467-32.3869 5.580036-38.730466 14.636718-3.92414 5.60253-5.51172 17.479437-5.51172 41.248047v33.38281l-10.60547-1.55664c-15.10288-2.21664-36.54067 8.90716-39.84765 20.67774-1.4906 5.30551-2.36211 69.04703-2.71094 141.64258-0.32871 68.41084-0.87791 83.14413 0.80664 121.51171 0.47888 10.90762 9.17188 31.78125 9.17188 31.78125 10.61955 22.66571 42.33796 56.76131 62.580066 67.27149 6.47497 3.36194 19.19683 8.27951 28.27149 10.92773 26.82947 7.82958 73.03017 4.13312 97.40625-7.79297 27.23973-13.32717 53.39483-40.32447 68.2207-70.41796 0 0 7.80958-16.76229 11.39258-44.51758 3.58297-27.75529 2.93945-66.50391 2.93945-66.50391 2.23171-90.27412 4.30252-103.30609 20.11524-126.60742 5.12037-7.54532 8.80914-17.16228 8.19726-21.37109-2.03073-13.96862-57.11823-25.73966-75.15429-7-1.50592-5.85399-1.0041-22.17396-1.92774-48.78907-1.57804-46.16121-1.14336-46.79467-11.11328-54.23047-6.15016-4.58694-16.16429-7.668877-25.66602-7.898427l-15.58007-0.37696-1.84766-20.535156c-2.53259-28.159276-10.077-35.941407-34.84961-35.941407zm1.73242 25.957031c10.651 0.04169 11.13281 18.568602 11.13281 117.48633v109.54688h11 10.99805v-80.40039c0-68.2038 0.87417-81.27651 5.76172-86.16407 3.16892-3.16895 8.74256-5.76172 12.38477-5.76172 14.45459 0 15.4141 6.82952 14.52929 103.35547l-0.84961 92.80274h10.66993 10.66992l1.83398-35.45508c1.58557-30.634 2.99658-36.69109 10.37305-44.54297 8.61756-9.17298 26.29101-15.31728 26.29101-9.14063 0 1.83714-2.7916 8.62042-6.20312 15.07422-5.1157 9.67769-6.61911 27.4775-8.57617 101.56446-1.96408 74.35365-3.51679 92.67328-9.01563 106.33008-12.82398 31.84926-34.38545 55.04973-63.39062 68.21289-51.74298 23.48203-115.87044-0.50681-144.42578-54.02735-8.42686-15.79427-8.56264-17.86045-9.63672-147.09765l-1.08789-131.07813 8.42187 0.0547c16.453 0.1097 17.33238 3.00828 18.40235 60.5957l1.01953 54.84375 10.083976 1.16016c11.56254 1.33044 11.00341 3.70015 10.11328-42.91602-0.36156-18.93348 0.52248-62.9337 1.96485-97.77734 2.30254-55.62132 3.3962-63.555037 8.95898-65.009767 3.48481-0.91129 9.0461-0.14022 12.35742 1.71289 5.33708 2.986777 6.01953 13.962477 6.01953 96.683597v93.31445h12.83399 12.83203v-109.74805c0-107.38585 0.16241-109.80087 7.50977-112.13281 2.7315-0.866946 5.05103-1.494049 7.02343-1.486329zm-7.69531 251.4043c-25.59792-0.13594-50.46326 11.27849-66.88477 31.12109-24.771066 27.43014-29.668676 69.37138-16.615226 103.24219 9.476336 21.28251 28.197226 37.78763 48.224606 48.96875 22.6369 11.09487 50.18759 8.37006 72.94922-0.0508 24.44904-10.97474 42.80134-33.73054 52.51953-58.13086 8.31834-26.77811 10.44711-58.77854-5.35742-83.4082-18.0026-25.47214-48.25276-42.37447-79.70899-41.56055-1.71075-0.11266-3.42042-0.17258-5.12695-0.18164z"/>
<path d="m143.31771 0c-15.15227 0-21.0539 1.845207-28.76562 8.992188-5.33594 4.945194-9.70118 12.215579-9.70118 16.15625 0 5.278175-1.86622 6.676552-7.089836 5.310547-10.41446-2.723467-32.3869 5.580036-38.73047 14.636718-3.92414 5.602535-5.51172 17.479434-5.51172 41.248046v33.382811l-10.60547-1.55664c-15.10288-2.21664-36.54067 8.90716-39.84765 20.67774-1.4906 5.30551-2.36211 69.04703-2.71094 141.64258-0.32871 68.41084-0.87791 83.14413 0.80664004 121.51171 0.47888 10.90762 9.17188 31.78125 9.17188 31.78125 10.61955 22.66571 42.33796 56.76131 62.58007 67.27149 6.47497 3.36194 19.19683 8.27951 28.271486 10.92773 26.82947 7.82958 73.03017 4.13312 97.40625-7.79297 27.23973-13.32717 53.39483-40.32447 68.2207-70.41796 0 0 7.80958-16.76229 11.39258-44.51758 3.58297-27.75529 2.93945-66.50391 2.93945-66.50391 2.23171-90.27412 4.30252-103.30609 20.11524-126.60742 5.12037-7.54532 8.80914-17.16228 8.19726-21.37109-2.03073-13.96862-57.11823-25.73966-75.15429-7-1.50592-5.85399-1.0041-22.17396-1.92774-48.78907-1.57804-46.161208-1.14336-46.794676-11.11328-54.230467-6.15016-4.586941-16.16429-7.668888-25.66602-7.898437l-15.58007-0.376953-1.84766-20.535156c-2.53259-28.159276-10.077-35.941407-34.84961-35.941407zm1.73242 25.957031c10.651 0.04169 11.13281 18.568602 11.13281 117.48633v109.54688h11 10.99805v-80.40039c0-68.2038 0.87417-81.276507 5.76172-86.164075 3.16892-3.168948 8.74256-5.761716 12.38477-5.761716 14.45459 0 15.4141 6.829516 14.52929 103.35547l-0.84961 92.80274h10.66993 10.66992l1.83398-35.45508c1.58557-30.634 2.99658-36.69109 10.37305-44.54297 8.61756-9.17298 26.29101-15.31728 26.29101-9.14063 0 1.83714-2.7916 8.62042-6.20312 15.07422-5.1157 9.67769-6.61911 27.4775-8.57617 101.56446-1.96408 74.35365-3.51679 92.67328-9.01563 106.33008-12.82398 31.84926-34.38545 55.04973-63.39062 68.21289-51.74298 23.48203-115.87044-0.50681-144.42578-54.02735-8.42686-15.79427-8.56264-17.86045-9.63672-147.09765l-1.08789-131.07813 8.42187 0.0547c16.453 0.1097 17.33238 3.00828 18.40235 60.5957l1.01953 54.84375 10.08398 1.16016c11.56254 1.33044 11.00341 3.70015 10.11328-42.91602-0.36156-18.93348 0.52248-62.9337 1.96485-97.77734 2.30254-55.621333 3.3962-63.55504 8.95898-65.009775 3.48481-0.911288 9.0461-0.140214 12.35742 1.712891 5.337076 2.986786 6.019526 13.962474 6.019526 96.683604v93.31445h12.83399 12.83203v-109.74805c0-107.38585 0.1624-109.80087 7.50977-112.13281 2.7315-0.866946 5.05103-1.494049 7.02343-1.486329zm-7.69531 251.4043c-25.59792-0.13594-50.463256 11.27849-66.884766 31.12109-24.77107 27.43014-29.66868 69.37138-16.61523 103.24219 9.47634 21.28251 28.19723 37.78763 48.224606 48.96875 22.6369 11.09487 50.18759 8.37006 72.94922-0.0508 24.44904-10.97474 42.80134-33.73054 52.51953-58.13086 8.31834-26.77811 10.44711-58.77854-5.35742-83.4082-18.0026-25.47214-48.25276-42.37447-79.70899-41.56055-1.71075-0.11266-3.42042-0.17258-5.12695-0.18164z"/>
</svg>
