<?xml version="1.0" encoding="UTF-8" standalone="no"?>
<svg xmlns:rdf="http://www.w3.org/1999/02/22-rdf-syntax-ns#" xmlns="http://www.w3.org/2000/svg" version="1.0" xmlns:cc="http://creativecommons.org/ns#" xmlns:dc="http://purl.org/dc/elements/1.1/" viewBox="0 0 292.54688 535.31445">
<path opacity=".25" d="m59.82466 356.32682h168.92059v168.92059h-168.92059z"/>
<path d="m145.4121 0c-0.97405 0-12.43073 18.562785-25.45898 41.251953l-23.6875 41.253907-48.13281 0.0039c-34.853 0.0025-48.13281 0.803507-48.13281 2.904296 0 1.59567 9.49886 19.316924 21.10742 39.380864 11.60859 20.06391 21.8603 38.46003 22.78125 40.88086 1.14195 3.00184-5.62798 17.09809-21.28907 44.32617-12.62991 21.95812-22.25197 41.07414-21.38281 42.48047 0.98483 1.59349 19.18923 2.5648 48.31445 2.57813l46.73438 0.0215 23.75391 41.21289c13.06452 22.66749 24.52121 41.22455 25.45898 41.23633 2.59655 0.0326 9.38155-10.50907 30.96875-48.11133l19.73828-34.38086h48.17969c33.66857 0 48.18164-0.83571 48.18164-2.77734 0-1.52818-10.50219-20.9722-23.33789-43.20899l-23.33789-40.43164 23.22851-39.92773c12.77554-21.96089 23.27773-41.335684 23.3379-43.054694 0.0838-2.39606-11.13638-3.126953-48.07227-3.126953h-48.17969l-19.73828-34.378906c-21.69367-37.787715-28.36374-48.132827-31.03516-48.132827zm0.86133 52.507813c1.16223 0 16.25196 26.40028 16.25196 28.433593 0 0.86401-7.31307 1.570313-16.25196 1.570313-8.9389 0-16.25195-0.706303-16.25195-1.570313 0-2.033313 15.08971-28.433593 16.25195-28.433593zm-101.46093 57.509777h17.5332 17.53515l-8.06054 14.96093c-4.43279 8.22838-8.62294 14.96609-9.31055 14.97266-0.68761 0.007-4.95126-6.72598-9.47461-14.96094l-8.22265-14.97265zm167.52539 0h17.5332 17.53515l-8.06054 14.96093c-4.43279 8.22838-8.62099 14.96609-9.3086 14.97266-0.68761 0.007-4.95126-6.72598-9.4746-14.96094l-8.22461-14.97265zm-100.72071 1.25h34.76758 34.76758l16.19922 28.52734 16.19726 28.5293-7.06054 12.72656c-3.88313 7.00053-11.4757 20.32472-16.8711 29.60742l-9.80859 16.87695h-33.33985c-23.70527 0-34.04183-0.90265-35.77343-3.125-4.75781-6.10628-30.68164-53.49506-30.68164-56.08593 0-1.44893 7.10982-14.87966 15.80078-29.84571l15.80273-27.21093zm-49.10742 86.32226c0.68761 0 4.95126 6.73768 9.47461 14.97266l8.22461 14.97265h-17.69922-17.69726l8.22265-14.97265c4.52335-8.23498 8.787-14.97266 9.47461-14.97266zm167.52734 0c0.68761 0 4.95126 6.73768 9.47461 14.97266l8.22266 14.97265h-17.69727-17.69921l8.22461-14.97265c4.52335-8.23498 8.78699-14.97266 9.4746-14.97266zm-83.76367 57.44922c8.93889 0 16.25196 0.7063 16.25196 1.57031 0 0.86402-3.45704 7.61663-7.6836 15.00391-4.22657 7.38727-8.08262 13.43164-8.56836 13.43164-1.16224 0-16.25195-26.40223-16.25195-28.43555 0-0.86401 7.31305-1.57031 16.25195-1.57031zm-86.44922 91.2207a10.068976 10.068976 0 0 0 -10.06836 10.06641v168.92188a10.068976 10.068976 0 0 0 10.06836 10.0664h168.92188a10.068976 10.068976 0 0 0 10.06641 -10.0664v-168.92188a10.068976 10.068976 0 0 0 -10.06641 -10.06641h-168.92188zm10.06836 20.13477h148.78516v148.78516h-148.78516v-148.78516z"/>
</svg>
