<?xml version="1.0" encoding="UTF-8" standalone="no"?>
<svg xmlns:rdf="http://www.w3.org/1999/02/22-rdf-syntax-ns#" xmlns="http://www.w3.org/2000/svg" height="557.55322" width="488.4436" version="1.0" xmlns:cc="http://creativecommons.org/ns#" xmlns:dc="http://purl.org/dc/elements/1.1/" viewBox="0 0 488.44361 557.55322">
<path opacity=".25" d="m223.3986 494.20534-36.49173-63.31462-71.79642-0.0329c-44.743766-0.0204-72.711183-1.51291-74.224133-3.96093-1.335251-2.16049 13.447237-31.52805 32.849987-65.26131 24.05942-41.82925 34.459666-63.48338 32.705346-68.09498-1.41483-3.71901-17.163576-31.98093-34.997336-62.80421-17.833693-30.82332-32.424915-58.04807-32.424915-60.49941 0-3.22735 20.400655-4.45848 73.943741-4.46225l73.94373-0.005 36.39038-63.37516c20.01472-34.856337 37.61469-63.375161 39.11107-63.375161 4.10398 0 14.35107 15.892209 47.67807 73.943741l30.32188 52.81694h74.01767c56.74294 0 73.97846 1.1206 73.84967 4.80156-0.0924 2.64083-16.22605 32.40494-35.85253 66.14245l-35.68448 61.34089 35.85248 62.11162c19.71891 34.16136 35.85253 64.0324 35.85253 66.38006 0 2.98284-22.29418 4.26852-74.01767 4.26852h-74.01767l-30.32188 52.81694c-33.16343 57.76665-43.58776 73.96094-47.57672 73.91095-1.44066-0.0181-19.04064-28.52453-39.11107-63.34756zm53.49531-37.91961c6.49309-11.34874 11.80563-21.72006 11.80563-23.04741 0-1.32733-11.2356-2.41331-24.96801-2.41331-13.73242 0-24.96801 1.08598-24.96801 2.41331 0 3.1237 23.18251 43.68148 24.96801 43.68148 0.74622 0 6.66931-9.28534 13.16238-20.63407zm-127.28848-90.71611c-6.94903-12.65103-13.49887-23.00183-14.55523-23.00183-1.05634 0-7.60616 10.3508-14.55519 23.00183l-12.63458 23.00181h27.18977 27.18978l-12.63455-23.00181zm180.71421-2.92651c8.2887-14.2606 19.95117-34.72756 25.91665-45.48215l10.84625-19.55385-24.88365-43.8265-24.88362-43.82651h-53.41275-53.41272l-24.27547 41.80304c-13.35152 22.99167-24.27549 43.6243-24.27549 45.85022 0 3.98023 39.82628 76.78174 47.1355 86.16254 2.66017 3.41408 18.54073 4.80153 54.95807 4.80153h51.21689l15.07034-25.92832zm76.64836 2.92651c-6.94903-12.65103-13.49885-23.00183-14.55519-23.00183-1.05636 0-7.6062 10.3508-14.55524 23.00183l-12.63451 23.00181h27.18975 27.18977l-12.63458-23.00181zm-257.61557-134.55265 12.3816-22.98349h-26.93679-26.93681l12.63458 23.00184c6.94903 12.651 13.49885 22.99354 14.55519 22.98343 1.05636-0.0101 7.49234-10.3609 14.30223-23.00178zm257.36257 0 12.38162-22.98349h-26.9368-26.93676l12.63451 23.00184c6.94904 12.651 13.49888 22.99354 14.55524 22.98343 1.05634-0.0101 7.4923-10.3609 14.30219-23.00178zm-118.01546-67.65038c0-3.12368-23.18253-43.68146-24.96801-43.68146-1.7855 0-24.96801 40.55778-24.96801 43.68146 0 1.32733 11.23559 2.41332 24.96801 2.41332 13.73241 0 24.96801-1.08599 24.96801-2.41332z"/>
<path d="m184.3792 455.18594-36.49173-63.31462-71.796416-0.0329c-44.743764-0.0205-72.711186-1.51292-74.224136-3.96094-1.335251-2.16049 13.44724-31.52805 32.849989-65.26131 24.059417-41.82925 34.459667-63.48338 32.705347-68.09498-1.41482-3.71901-17.16358-31.98093-34.997333-62.80421-17.833699-30.82332-32.424921-58.04807-32.424921-60.49941 0-3.22735 20.400658-4.45848 73.943744-4.46225l73.943726-0.005 36.39038-63.375165c20.01472-34.856332 37.61469-63.375155 39.11107-63.375155 4.10398 0 14.35108 15.892209 47.67807 73.943738l30.32188 52.816942h74.01767c56.74294 0 73.97846 1.1206 73.84967 4.80156-0.0924 2.64083-16.22604 32.40494-35.85253 66.14245l-35.68448 61.34089 35.85248 62.11162c19.71891 34.16136 35.85253 64.0324 35.85253 66.38006 0 2.98284-22.29418 4.26852-74.01767 4.26852h-74.01767l-30.32188 52.81694c-33.16343 57.76665-43.58776 73.96094-47.57672 73.91095-1.44066-0.0181-19.04064-28.52453-39.11107-63.34756zm53.49531-37.91961c6.4931-11.34874 11.80564-21.72006 11.80564-23.04741 0-1.32733-11.23561-2.41331-24.96802-2.41331-13.73242 0-24.96801 1.08598-24.96801 2.41331 0 3.1237 23.18251 43.68148 24.96801 43.68148 0.74622 0 6.66931-9.28534 13.16238-20.63407zm-127.28847-90.71611c-6.94904-12.65102-13.498876-23.00183-14.555236-23.00183-1.05634 0-7.60616 10.35081-14.55519 23.00183l-12.63458 23.00181h27.18977 27.189786l-12.63455-23.00181zm180.7142-2.92651c8.2887-14.2606 19.95117-34.72756 25.91665-45.48215l10.84625-19.55385-24.88365-43.8265-24.88362-43.82651h-53.41275-53.41272l-24.27547 41.80305c-13.35152 22.99166-24.27549 43.62429-24.27549 45.85021 0 3.98023 39.82628 76.78174 47.13551 86.16254 2.66016 3.41408 18.54072 4.80153 54.95806 4.80153h51.21689l15.07034-25.92832zm76.64836 2.92651c-6.94903-12.65102-13.49885-23.00183-14.55519-23.00183-1.05636 0-7.6062 10.35081-14.55523 23.00183l-12.63452 23.00181h27.18975 27.18977l-12.63458-23.00181zm-257.61557-134.55265 12.3816-22.98349h-26.936786-26.93681l12.63458 23.00184c6.94903 12.651 13.49885 22.99354 14.55519 22.98343 1.05636-0.0101 7.492336-10.3609 14.302226-23.00178zm257.36257 0 12.38162-22.98349h-26.9368-26.93676l12.63452 23.00184c6.94903 12.651 13.49887 22.99354 14.55523 22.98343 1.05634-0.0101 7.4923-10.3609 14.30219-23.00178zm-118.01545-67.65038c0-3.12368-23.18254-43.681458-24.96802-43.681458-1.7855 0-24.96801 40.557778-24.96801 43.681458 0 1.32733 11.23559 2.41332 24.96801 2.41332 13.73241 0 24.96802-1.08599 24.96802-2.41332z"/>
</svg>
