<?xml version="1.0" encoding="UTF-8" standalone="no"?>
<svg xmlns:rdf="http://www.w3.org/1999/02/22-rdf-syntax-ns#" xmlns="http://www.w3.org/2000/svg" height="512.22375" width="332.23917" version="1.0" xmlns:cc="http://creativecommons.org/ns#" xmlns:dc="http://purl.org/dc/elements/1.1/" viewBox="0 0 332.23917 512.22376">
<path opacity=".25" d="m84.444498 333.23615h168.92059v168.92059h-168.92059z"/>
<path d="m6.6198378 0.00112628c-3.12213-0.03314-5.55979 0.6646-6.48047 2.154297-0.76028 1.230166 1.66748 6.444796 5.39453 11.589844 3.72705 5.145049 7.9298002 13.937329 9.3398402 19.537109 1.99736 7.932251 4.62098 11.542612 11.87891 16.345703 5.12374 3.390725 10.33993 6.166016 11.58984 6.166016s2.9459 3.592137 3.76953 7.98243c1.64356 8.76084 1.51227 8.71317 32.92383 11.92382 16.34319 1.67046 19.80414 6.13616 10.51172 13.56446-4.58948 3.66883-8.25448 4.19203-22.8418 3.25586-10.65087-0.68351-17.95086-0.18602-18.86133 1.28711-1.90366 3.08022-0.94033 25.494095 1.1875 27.626955 0.88709 0.88916 11.82785 1.85751 24.3125 2.15234l22.69922 0.53516v12.17187c0 11.42952-0.42515 12.31694-6.98437 14.60352-8.12912 2.83381-8.16014 2.96003-3.21875 12.51562 3.21415 6.21549 3.70741 16.05683 3.375 67.33594-0.25587 39.47091 0.47564 61.67359 2.13672 64.77735 3.35418 6.26732 19.787662 6.73026 22.927732 0.64648 1.15659-2.24084 2.67319-41.60911 3.36914-87.48633 0.69595-45.87725 1.62778-83.77622 2.07031-84.21875 0.44253-0.44256 24.63111-1.14488 53.75391-1.5625l52.95117-0.75976-0.002 16.41406c-0.001 9.02736-1.14779 17.55793-2.54688 18.95703-1.68965 1.68964-1.79575 3.99499-0.3164 6.86719 1.22497 2.37831 2.92613 32.01899 3.77929 65.86718 0.97816 38.80697 2.49042 62.67356 4.09376 64.60547 3.93914 4.74636 24.49517 4.00451 27.2871-0.98437 1.40345-2.50782 1.75431-26.78743 0.92188-63.84375l-1.34375-59.79688 6.31055-7.49804c7.08495-8.41997 6.05067-10.90997-6.17383-14.86133-7.09053-2.2919-7.61158-3.19971-8.26172-14.38672l-0.69531-11.93945 22.79882-0.38672c12.53895-0.21195 23.45527-1.12378 24.25782-2.02735 3.07601-3.4632 4.14727-25.717395 1.3457-27.949215-1.70832-1.36089-9.01694-1.44248-18.96289-0.21094-14.87914 1.84239-16.61397 1.59978-21.53516-3.02344-2.94382-2.76557-5.35156-6.28679-5.35156-7.82422 0-3.1581 9.90645-5.59321 24.1543-5.9375 16.03391-0.38744 20.78927-2.64784 22.92773-10.90039 1.06773-4.12053 2.98336-7.49219 4.25586-7.49219 5.04284 0 23.16211-19.31113 23.16211-24.685547 0-3.007164 2.09229-8.899307 4.64844-13.091797 10.41295-17.078788 4.45325-22.262766-15.08203-13.121094-8.04204 3.763321-21.29382 7.8955977-29.44922 9.1835937-8.15541 1.287997-19.54254 3.468586-25.30469 4.845703-5.76214 1.377095-39.28689 3.016402-74.5 3.642578-52.81068 0.939148-68.71436 0.440519-90.798832-2.849609-14.72548-2.193782-30.16155-4.35761-34.30273-4.808594-9.990232-1.087917-28.549902-6.6801207-37.455082-11.285157-4.50652-2.3304207-9.65185-3.5804317-13.66601-3.6230467zm130.93945 76.746099h17.3457v9.3125 9.3125l-13.38672-0.0742c-10.61223-0.0583-14.65505-1.19032-19.50195-5.46094-4.59048-4.04465-5.57739-6.34635-3.95898-9.23828 1.70468-3.04611 5.78483-3.85156 19.50195-3.85156zm47.61133 0h17.46093c15.18133 0 17.46094 0.54015 17.46094 4.13867 0 2.27638-2.108 5.94317-4.68359 8.14844-3.19803 2.73822-8.73454 4.00976-17.46094 4.00976h-12.77734v-8.14843-8.14844zm-100.72657 246.42188a10.068976 10.068976 0 0 0 -10.06836 10.06641v168.92188a10.068976 10.068976 0 0 0 10.06836 10.0664h168.92188a10.068976 10.068976 0 0 0 10.06641 -10.0664v-168.92188a10.068976 10.068976 0 0 0 -10.06641 -10.06641h-168.92188zm10.06836 20.13477h148.78516v148.78516h-148.78516v-148.78516z"/>
</svg>
