<?xml version="1.0" encoding="UTF-8" standalone="no"?>
<svg xmlns:rdf="http://www.w3.org/1999/02/22-rdf-syntax-ns#" xmlns="http://www.w3.org/2000/svg" version="1.0" xmlns:cc="http://creativecommons.org/ns#" xmlns:dc="http://purl.org/dc/elements/1.1/" viewBox="0 0 257.51633 527.53491">
<path opacity=".25" d="m42.831249 348.54727h168.92059v168.92059h-168.92059z"/>
<path d="m128.36596 0.00170247c-2.51562-0.07331-4.77673 2.221684-7.6582 6.748047-2.53693 3.9851625-10.41986 12.410926-17.51758 18.724608-8.671161 7.713352-12.447001 12.922027-11.509771 15.875 0.97697 3.078179-1.45269 5.926864-8.10937 9.511719-11.47698 6.180783-25.25806 22.464811-32.47656 38.376961-7.3933 16.297432-7.3933 49.270922 0 65.568362 7.22209 15.92004 21.00159 32.19755 32.49414 38.38671 8.60448 4.6338 9.3692 5.9315 7.95117 13.49024-1.30018 6.9305-0.62066 8.66501 3.96094 10.11914 9.776211 3.10287 21.308591 14.67829 21.308591 21.38672 0 3.49406-0.9988 6.35156-2.2207 6.35156-5.25451 0-39.884701-26.90534-53.351571-41.45117-16.74862-18.09051-24.45795-32.8491-30.35937-58.11524-6.58865-28.2085-0.4144-51.197582 18.49414-68.861326 14.80891-13.833986 3.95829-18.350853-13.57422-5.650396-23.79999 17.240648-35.90585 41.80598-35.79687 72.63868 0.11909028 33.70499 10.77789 62.89762 35.11328 96.16992 13.97792 19.11118 21.0957 31.95667 21.0957 38.07422 0 7.34258 7.22361 4.31633 22.05664-9.24024 14.13959-12.92278 14.79586-13.20939 21.804691-9.53711l7.22656 3.78516-10.830081 5.52539c-18.07338 9.22034-27.95167 30.0718-18.65234 39.37109 8.63295 8.63298 24.927701-1.4767 22.537111-13.98242-1.041131-5.44619 0.17163-7.54923 6.13086-10.63086 4.08612-2.11302 8.08235-3.84179 8.8789-3.84179 3.17212 0 1.03475 22.72019-2.58789 27.50976-5.18058 6.84935-4.88847 10.00489 1.70313 18.38477 7.54025 9.58587 21.77832 8.74808 29.57617-1.74024 5.15726-6.93669 5.19336-7.59515 0.91992-16.55664-4.16541-8.73501-6.21714-27.59765-3.00195-27.59765 0.79653 0 4.79082 1.72877 8.87695 3.84179 5.95922 3.08163 7.1739 5.18467 6.13281 10.63086-2.39063 12.50572 13.90413 22.61541 22.53711 13.98242 4.95536-4.95537 3.70972-19.1443-2.35742-26.85742-3.03528-3.85874-10.37993-9.4958-16.32226-12.52734l-10.80469-5.51172 7.22656-3.78516c7.00883-3.67228 7.66509-3.38567 21.80469 9.53711 8.01815 7.32814 16.07478 13.32422 17.90234 13.32422s4.68586-4.55501 6.35352-10.12109c1.66766-5.5661 8.76432-17.71817 15.76953-27.00586 28.12113-37.28365 38.58909-64.85504 38.42383-101.20117-0.15284-33.61198-10.33373-54.060402-36.27149-72.849618-17.29136-12.525795-27.93556-7.828264-13.28125 5.861332 3.76078 3.513194 9.98477 11.722974 13.83203 18.244144 6.01626 10.197642 6.95093 14.621102 6.66993 31.617182-0.53553 32.39038-13.05965 59.1681-39.62305 84.71875-12.93466 12.44151-42.10199 33.84766-46.11914 33.84766-1.20891 0-2.19922-2.8575-2.19922-6.35156 0-6.71742 11.53824-18.28498 21.3418-21.39649 4.4976-1.42749 5.27045-3.2142 4.04297-9.35156-1.19052-5.95253-0.31799-8.23012 4.05468-10.57031 11.19131-5.98942 29.17203-24.90516 35.98438-37.85547 6.05655-11.51358 6.98633-16.43283 6.98633-36.99219 0-20.55935-0.92978-25.480572-6.98633-36.994142-6.7717-12.873067-24.77798-31.856839-35.82227-37.76758-3.34767-1.791597-4.94392-4.68582-4.18554-7.585938 0.83205-3.181727-2.05452-7.15599-8.98243-12.367187-5.61493-4.223561-13.61625-12.207752-17.77929-17.742188-4.78195-6.35726-7.95952-9.481371-10.81055-9.564453zm28.50586 65.515625 7.49805 3.876953c15.44388 7.986348 28.84961 32.45116 28.84961 52.64844 0 14.55303-7.04691 29.24327-21.60157 45.03321-15.45345 16.76503-15.2957 16.85987-21.91797-13.11524-5.0025-22.64316-4.39385-37.42942 2.85743-69.412112l4.31445-19.031251zm-58.724611 1.810547c3.633581-0.133858 5.031781 7.405644 9.306641 28.101564 5.17741 25.065482 5.17676 43.692772-0.002 63.585942-2.24848 8.63709-4.95966 16.57651-6.02539 17.64453-3.812871 3.82099-20.479191-10.81696-28.117191-24.69531-14.65096-26.621-9.08438-55.731622 14.7793-77.291023 4.89468-4.42205 7.87844-7.265388 10.05859-7.345703zm-55.31641 271.15235a10.068976 10.068976 0 0 0 -10.06836 10.06641v168.92188a10.068976 10.068976 0 0 0 10.06836 10.0664h168.92188a10.068976 10.068976 0 0 0 10.06641 -10.0664v-168.92188a10.068976 10.068976 0 0 0 -10.06641 -10.06641h-168.92188zm10.06836 20.13477h148.78516v148.78516h-148.78516v-148.78516z"/>
</svg>
