<?xml version="1.0" encoding="UTF-8" standalone="no"?>
<svg xmlns:rdf="http://www.w3.org/1999/02/22-rdf-syntax-ns#" xmlns="http://www.w3.org/2000/svg" version="1.0" xmlns:cc="http://creativecommons.org/ns#" xmlns:dc="http://purl.org/dc/elements/1.1/" viewBox="0 0 350.2207 350.21875">
<path opacity=".0625" d="m21.12283 28.27912 299.34442-1.43161v295.04959l-301.49184-9.30547z"/>
<path opacity=".25" d="m37.58594 20a17.587242 17.587242 0 0 0 -17.58594 17.58399v295.05078a17.587242 17.587242 0 0 0 17.58594 17.58398h295.05078a17.587242 17.587242 0 0 0 17.58399 -17.58398v-295.05078a17.587242 17.587242 0 0 0 -17.58399 -17.58399h-295.05078zm17.58594 35.16992h259.8789v259.87891h-259.8789v-259.87891z"/>
<path opacity=".25" d="m17.58634 17.58458h295.04959v295.04959h-295.04959z"/>
<path d="m17.58594 0c-9.71139 0.00071-17.58414 7.8726-17.58594 17.58399v295.05078c0.002 9.71138 7.87456 17.58326 17.58594 17.58398h295.05078c9.71062-0.002 17.58219-7.87336 17.58399-17.58398v-295.05078c-0.002-9.71063-7.87336-17.5822-17.58399-17.58399zm17.58594 35.16992h259.8789v259.87891h-259.8789z"/>
</svg>
