<?xml version="1.0" encoding="UTF-8" standalone="no"?>
<svg xmlns:rdf="http://www.w3.org/1999/02/22-rdf-syntax-ns#" xmlns="http://www.w3.org/2000/svg" version="1.0" xmlns:cc="http://creativecommons.org/ns#" xmlns:dc="http://purl.org/dc/elements/1.1/" viewBox="0 0 355.74939 491.8046">
<path d="m184.24757 0.00772682c-1.25239 0.02008-2.52571 0.142715-3.79492 0.242188-52.40732 2.88001-72.52562 73.64139-30.21876 103.91602 40.60554 31.13525 101.37281-6.370615 91.11133-56.955078-5.13775-28.061427-28.78988-47.657001-57.09765-47.203129zm-156.29492 64.982428a28.33921 28.33921 0 0 0 -21.05469 46.867185l73.41992 87.41992a28.33921 28.33921 0 0 0 23.474607 10.05664l70.63476-4.4375 31.87891 124.94531a64.502124 64.502124 0 0 0 1.23242 4.20898l-86.23047 77.80079a39.20547 39.20547 0 0 0 -11.58593 43.36718 35.902127 35.902127 0 0 0 36.73242 36.57618l173.27734-1.87305a35.902127 35.902127 0 1 0 -0.77734 -71.79297l-75.73633 0.81836 76.24023-56.51367a39.20547 39.20547 0 0 0 13.93555 -45.22461 64.502124 64.502124 0 0 0 -2.10156 -19.25586l-32.60156-127.78516a64.502124 64.502124 0 0 0 -60.45508 -49.40039 64.502124 64.502124 0 0 0 -54.54297 26.76367l-69.17773 4.34571-64.220707-76.466795a28.33921 28.33921 0 0 0 -22.34179 -10.41992z"/>
</svg>
