<?xml version="1.0" encoding="UTF-8" standalone="no"?>
<svg xmlns:rdf="http://www.w3.org/1999/02/22-rdf-syntax-ns#" xmlns="http://www.w3.org/2000/svg" version="1.0" xmlns:cc="http://creativecommons.org/ns#" xmlns:dc="http://purl.org/dc/elements/1.1/" viewBox="0 0 576.44501 577.45154">
<path d="m64.571 0.06355556c-41.335 0-64.571 21.371-64.571 65.036v450.123c0 40.844 20.895 62.229 62.192 62.229h452.024c41.307 0 62.229-20.315 62.229-62.229v-450.123c0-42.601-20.922-65.036-63.521-65.036-0.004 0-448.495-0.143-448.353 0z"/>
<path fill="#fff" d="m144.10655 78.983056a2.1293943 2.1293943 0 0 0 -1.86719 1.230469l-88.894532 191.75976a2.1293943 2.1293943 0 0 0 1.931641 3.02539h15.958984l-29.400391 53.4004a2.1293943 2.1293943 0 0 0 1.865235 3.15625h19.378906l-35.041015 57.98242a2.1293943 2.1293943 0 0 0 2.136718 3.20702l89.910154-13.4746v95.73828a2.1293943 2.1293943 0 0 0 2.12891 2.12891h21.95703a2.1293943 2.1293943 0 0 0 0.11523 -0.006 2.1293943 2.1293943 0 0 0 0.006 0 2.1293943 2.1293943 0 0 0 0.14453 0.006h21.95704a2.1293943 2.1293943 0 0 0 2.1289 -2.12891v-95.73828l90.04297 13.4746a2.1293943 2.1293943 0 0 0 2.13672 -3.20702l-35.04102-57.98242h19.2461a2.1293943 2.1293943 0 0 0 1.86523 -3.15625l-29.40039-53.4004h16.0918a2.1293943 2.1293943 0 0 0 1.92969 -3.02539l-89.02553-191.75976a2.1293943 2.1293943 0 0 0 -2.08008 -1.226563 2.1293943 2.1293943 0 0 0 -0.18164 -0.0039zm261.07226 17.185547c-25.78497-0.43585-52.92638 13.832707-58.41211 43.074227-2.32265 12.38073-4.26195 16.36111-18.91601 16.61523-45.14248 0.78284-64.34147 67.14353-26.20313 98.41992 3.77898 3.09912 1.60283 5.78977-11.11914 15.46485-64.74575 49.23923 4.96962 147.49141 71.19336 100.33593 9.69549-6.90379 11.23217-6.98046 13.41992-1.27929 4.6179 12.03405 2.56565 69.81859-3.19531 88.96093l-5.75195 19.04493h34.63867c3.42918 0 5.14366 0.012 7.92383 0 2.81489 0.0125 4.56825 0 8.05273 0h34.63867l-5.625-19.04493c-5.76097-19.14234-7.94021-76.92688-3.32226-88.96093 2.18775-5.70117 3.72443-5.6245 13.41992 1.27929 66.22375 47.15548 135.93911-51.0967 71.19336-100.33593-12.72197-9.67508-15.55504-13.71391-10.99219-15.46485 38.13833-14.63508 17.70296-90.98054-26.33008-98.41992-14.45148-2.44155-16.46641-4.2345-18.78906-16.61523-5.74546-30.62582-35.30159-44.726118-62.11719-42.818368-1.22216-0.08753-2.47611-0.235049-3.70703-0.255859z"/>
</svg>
