<?xml version="1.0" encoding="UTF-8" standalone="no"?>
<svg xmlns:rdf="http://www.w3.org/1999/02/22-rdf-syntax-ns#" xmlns="http://www.w3.org/2000/svg" version="1.0" xmlns:cc="http://creativecommons.org/ns#" xmlns:dc="http://purl.org/dc/elements/1.1/" viewBox="0 0 576.44501 577.45154">
<path d="m64.571 0.06355556c-41.335 0-64.571 21.371-64.571 65.036v450.123c0 40.844 20.895 62.229 62.192 62.229h452.024c41.307 0 62.229-20.315 62.229-62.229v-450.123c0-42.601-20.922-65.036-63.521-65.036-0.004 0-448.495-0.143-448.353 0z"/>
<path style="color-rendering:auto;text-decoration-color:#000000;color:#000000;isolation:auto;mix-blend-mode:normal;shape-rendering:auto;solid-color:#000000;block-progression:tb;text-decoration-line:none;image-rendering:auto;white-space:normal;text-indent:0;text-transform:none;text-decoration-style:solid" fill-rule="evenodd" fill="#fff" d="m294.10655 78.983056a2.1293943 2.1293943 0 0 0 -1.86719 1.230469l-88.89453 191.75976a2.1293943 2.1293943 0 0 0 2.48828 2.95118l24.25781-6.56446-38.1875 59.92188a2.1293943 2.1293943 0 0 0 2.29492 3.21289l27.79883-6.70703-43.89844 64.65625a2.1293943 2.1293943 0 0 0 2.07618 3.30078l89.91015-13.47461v95.73828a2.1293943 2.1293943 0 0 0 2.12891 2.12891h21.95703a2.1293943 2.1293943 0 0 0 0.11523 -0.006 2.1293943 2.1293943 0 0 0 0.006 0 2.1293943 2.1293943 0 0 0 0.14453 0.006h21.95704a2.1293943 2.1293943 0 0 0 2.1289 -2.12891v-95.73828l90.04297 13.4746a2.1293943 2.1293943 0 0 0 2.07617 -3.30077l-43.89453-64.65039 27.65821 6.70116a2.1293943 2.1293943 0 0 0 2.32226 -3.17383l-36.3125-59.89258 22.45703 6.48633a2.1293943 2.1293943 0 0 0 2.52149 -2.94141l-89.02553-191.75974a2.1293943 2.1293943 0 0 0 -2.08008 -1.226563 2.1293943 2.1293943 0 0 0 -0.18164 -0.0039z"/>
</svg>
