<?xml version="1.0" encoding="UTF-8" standalone="no"?>
<svg xmlns:rdf="http://www.w3.org/1999/02/22-rdf-syntax-ns#" xmlns="http://www.w3.org/2000/svg" version="1.0" xmlns:cc="http://creativecommons.org/ns#" xmlns:dc="http://purl.org/dc/elements/1.1/" viewBox="0 0 576.44501 577.45154">
<path d="m64.571 0.06355556c-41.335 0-64.571 21.371-64.571 65.036v450.123c0 40.844 20.895 62.229 62.192 62.229h452.024c41.307 0 62.229-20.315 62.229-62.229v-450.123c0-42.601-20.922-65.036-63.521-65.036-0.004 0-448.495-0.143-448.353 0z"/>
<path fill="#fff" d="m285.1786 96.168736c-25.78497-0.43585-52.92619 13.832474-58.41192 43.073994-2.32265 12.38073-4.26272 16.36197-18.91678 16.61609-45.14248 0.78284-64.34062 67.14194-26.20228 98.41833 3.77898 3.09912 1.60198 5.79066-11.11999 15.46574-64.74575 49.23923 4.96978 147.49106 71.19352 100.33558 9.69549-6.90379 11.23293-6.97933 13.42068-1.27816 4.6179 12.03405 2.56556 69.81761-3.1954 88.95995l-5.75172 19.04458h34.63815c3.42918 0 5.14442 0.012 7.92459 0 2.81489 0.0125 4.56792 0 8.0524 0h34.63815l-5.6239-19.04458c-5.76097-19.14234-7.94117-76.9259-3.32322-88.95995 2.18775-5.70117 3.72519-5.62563 13.42068 1.27816 66.22375 47.15548 135.93927-51.09635 71.19352-100.33558-12.72197-9.67508-15.55502-13.7148-10.99217-15.46574 38.13833-14.63508 17.70294-90.97895-26.3301-98.41833-14.45148-2.44155-16.46631-4.23536-18.78896-16.61609-5.74546-30.62582-35.30299-44.726124-62.11859-42.818374-1.22216-0.08753-2.47574-0.23481-3.70666-0.25562z"/>
</svg>
