<?xml version="1.0" encoding="UTF-8" standalone="no"?>
<svg xmlns:rdf="http://www.w3.org/1999/02/22-rdf-syntax-ns#" xmlns="http://www.w3.org/2000/svg" version="1.0" xmlns:cc="http://creativecommons.org/ns#" xmlns:dc="http://purl.org/dc/elements/1.1/" viewBox="0 0 576.44501 577.45154">
<defs>
<style type="text/css">.fil0 {fill:#EF7900}</style>
</defs>
<path d="m64.571 0.06355556c-41.335 0-64.571 21.371-64.571 65.036v450.123c0 40.844 20.894 62.229 62.192 62.229h452.024c41.307 0 62.229-20.316 62.229-62.229v-450.123c0-42.601-20.922-65.036-63.522-65.036-0.003 0-448.494-0.143-448.352 0z"/>
<path fill="#fff" d="m207.59873 92.477197c-4.19922-0.01729-8.40033 0.03142-12.59765 0.07227-39.22077-0.83704-81.18491 5.735085-111.32422 32.742183-17.84714 15.20614-33.763021 33.63045-55.269531 43.75782-2.650844 3.00967 2.800086 3.75932 4.90625 3 9.019234-2.2793 15.956025-9.35176 24.078125-13.84375 15.98596-10.61568 29.676487-23.92998 42.574217-37.94335 13.17695-9.53662 29.86978-12.00718 45.25977-16.3711 24.51897-5.322344 49.90978-8.780693 74.99414-6.654303 17.9245 4.576343 29.12992 21.095093 44.84375 29.968753 15.17614 9.89259 31.52486 18.7369 45.25 30.25 1.11555-1.92439-0.91505-5.53366-1.15625-7.84375-3.15304-7.06153-11.43345-9.86687-17.1875-14.53125-15.56308-9.47905-31.54849-18.77016-44.28125-31.81249-7.39152-7.118796-17.21364-11.069473-27.5-10.468763-4.19329-0.2217-8.39062-0.30498-12.58985-0.322265zm153.67969 84.568363c-18.3712 0.59518-37.24028 3.30167-53.875 11.21875-11.25487 7.22101-22.36174 14.50288-33.40625 22.03125-1.46855 1.05996-6.63905 5.09345-2.09375 3.0625 23.14953-7.60492 43.81165-22.25887 68.19336-26.47656 20.60973-5.15501 44.5532-7.48589 63.05664 4.88281 12.34319 7.70967 22.99577 18.05648 36.3125 24.25 14.27752 7.77103 24.71792 24.76074 41.09375 26.75-16.38702-23.13213-44.74624-33.04716-64.58984-52.78516-14.71539-13.83429-35.85589-12.62894-54.69141-12.93359zm-130.47851 67.24219c-0.61567-0.004-1.23219 0.00002-1.84961 0.0137-31.62382 2.61225-64.40785 9.42394-89.71094 29.65625-17.03503 12.8395-31.04283 29.79358-50.070313 39.6875-1.92089 2.78152 2.84221 7.28577 4.9375 3.78125 24.245003-13.1651 41.551303-35.81632 64.843753-50.21875 22.74862-11.9244 48.95265-14.49799 74.09375-17.625 17.57282-0.89735 36.19959 4.8049 47.5625 18.71875 15.26441 12.85776 34.81496 19.83178 48.8125 34.1875 6.33889 5.2207 11.49959 13.49618 19.4375 15.4375-0.53075-5.86255-6.28126-9.81487-9.53125-14.34375-14.02641-15.2832-32.85089-24.47094-49.75-35.9375-9.35849-7.95098-17.80344-19.73581-31.37891-19.94336-9.11488-1.44445-18.16156-3.36017-27.39648-3.41406z"/>
</svg>
