<?xml version="1.0" encoding="UTF-8" standalone="no"?>
<svg xmlns:rdf="http://www.w3.org/1999/02/22-rdf-syntax-ns#" xmlns="http://www.w3.org/2000/svg" version="1.0" xmlns:cc="http://creativecommons.org/ns#" xmlns:dc="http://purl.org/dc/elements/1.1/" viewBox="0 0 576.44501 577.45154">
<defs>
<style type="text/css">.fil0 {fill:#EF7900}</style>
</defs>
<path d="m64.571 0.06355556c-41.335 0-64.571 21.371-64.571 65.036v450.123c0 40.844 20.894 62.229 62.192 62.229h452.024c41.307 0 62.229-20.316 62.229-62.229v-450.123c0-42.601-20.922-65.036-63.522-65.036-0.003 0-448.494-0.143-448.352 0z"/>
<path fill="#fff" d="m179.90538 75.34829c-3.02662-0.08513-0.51741 25.089 0.16601 39.77149 1.00037 21.39177-0.39919 30.07654-0.0371 77.88086h-0.004c-3.65378 48.31213-2.14468 66.90234 5.43164 66.90234 21.83952 0 8.72958-177.24695-5.24805-184.4668-0.1094-0.05651-0.21096-0.08514-0.30859-0.08789zm-84.310552 35.95508c-0.88077 0.68506 13.662652 17.32454 21.156252 38.38086 10.12377 28.44677 18.25195 49.74978 18.25195 84.10938 0 14.36034 4.00354 26.10937 8.89649 26.10937 25.87379 0-5.35157-113.67255-38.8379-141.38476-6.41499-5.30885-9.122143-7.48291-9.466792-7.21485zm175.13867 0c-0.34465-0.26806-3.04985 1.906-9.46484 7.21485-33.48633 27.71221-64.71169 141.38476-38.83789 141.38476 4.89295 0 8.89453-11.74903 8.89453-26.10937 0-34.3596 8.12818-55.66261 18.25195-84.10938 7.4936-21.05632 22.03702-37.6958 21.15625-38.38086zm-192.11719 71.51367c-2.18323-0.21512 7.750324 6.48441 13.244141 21.73438 5.743427 15.9429 7.556637 30.40906 7.556637 39.25976h0.002c0 8.85072 4.00159 16.0918 8.89453 16.0918 11.32654 0 13.16927-8.91698 1.3457-42.83398-5.23483-15.01671-17.2095-29.1078-24.20703-31.79297-4.033609-1.54784-6.108194-2.38728-6.835938-2.45899zm209.09571 0c-0.72775 0.0717-2.80038 0.91115-6.83399 2.45899-6.99753 2.68517-18.9722 16.77626-24.20703 31.79297-11.82358 33.917-9.9828 42.83398 1.34375 42.83398 4.89294 0 8.89648-7.24108 8.89648-16.0918 0-8.8507 1.81321-23.31686 7.55665-39.25976 5.49381-15.24997 15.42737-21.9495 13.24414-21.73438zm-47.1543 99.4668c-6.16712-0.0202-12.33395-0.01-18.49805 0.004-28.7682 0.42228-57.64821 0.5111-86.31445 2.60742-2.70507 0.43595-4.05128 4.4504-1.08984 5.58789 14.32726 3.21782 29.29205 2.53333 43.93554 3.29297 40.22877 0.85238 80.5559 1.2527 120.71094-1.59961 2.83845-0.56816 8.41495-0.6304 7.80664-4.71094-1.96973-3.87654-7.56793-2.58301-11.0957-3.34765-18.44898-1.42874-36.95374-1.77337-55.45508-1.83399zm51.4707 33.24219c-5.14442-0.0376-10.2932 0.0721-15.4043 0.12695-11.73052 0.48378-23.69822 0.3916-35.19531 2.76367-2.88537 1.6697-1.19072 6.25334 2.00391 6.17774 17.49808 4.03041 35.74752 2.75762 53.61133 2.74609 7.66155-0.34655 15.65865-0.50284 22.85351-3.19922 2.85708-1.90147 0.9129-6.46745-2.375-6.25-8.35849-1.8294-16.92011-2.30251-25.49414-2.36523z"/>
</svg>
