<?xml version="1.0" encoding="UTF-8" standalone="no"?>
<svg xmlns:rdf="http://www.w3.org/1999/02/22-rdf-syntax-ns#" xmlns="http://www.w3.org/2000/svg" version="1.0" xmlns:cc="http://creativecommons.org/ns#" xmlns:dc="http://purl.org/dc/elements/1.1/" viewBox="0 0 576.44501 577.45154">
<path d="m64.571 0.06355556c-41.335 0-64.571 21.371-64.571 65.036v450.123c0 40.844 20.895 62.229 62.192 62.229h452.024c41.307 0 62.229-20.315 62.229-62.229v-450.123c0-42.601-20.922-65.036-63.521-65.036-0.004 0-448.495-0.143-448.353 0z"/>
<path style="color-rendering:auto;text-decoration-color:#000000;color:#000000;isolation:auto;mix-blend-mode:normal;shape-rendering:auto;solid-color:#000000;block-progression:tb;text-decoration-line:none;image-rendering:auto;white-space:normal;text-indent:0;text-transform:none;text-decoration-style:solid" fill="#fff" d="m288.1085 40.772118c-29.38499-0.295566-47.22939 27.892575-44.10547 56.777344-0.16883 40.376748 0.33673 77.162818-0.3418 116.99024-13.21471 9.76426-30.53771 16.56208-46.62695 28.83203l0.76758-0.53125c-46.75281 29.18728-95.34945 56.48804-141.75391 87.64258-1.398612 0.93906-2.537353 2.21619-3.310547 3.71289-5.863873 11.35168-6.352547 23.08522-6.015625 33.52734l0.490235 31.03516c1.783616 9.32063 9.350963 15.58495 16.947265 17.69336 6.780801 1.88206 14.191945 1.12919 20.609375-2.75391 54.221227-16.79204 107.32406-35.95139 160.97851-52.26172 0.15857 18.00583 0.6875 35.78509 0.16602 53.17383l0.0215-0.42187c-0.51395 7.10141-0.1817 12.89695-0.64844 16.48437-5.13848 5.09621-12.25093 9.74188-19.90234 15.23243-8.50371 6.10214-17.76516 13.64415-23.00586 25.57812-0.26135 0.59476-0.46413 1.21357-0.60547 1.84766-3.28834 14.7682-0.74349 28.01142-1.4082 38.67578-0.0358 0.57763-0.0214 1.15728 0.043 1.73242 0.83568 7.48081 4.78861 13.76966 10.59179 17.99023 5.80319 4.22058 14.59903 6.11891 22.41407 2.44141l-1.22266 0.48047c16.76313-5.33706 34.2324-9.96481 51.54492-16.28125l0.006-0.002c5.94785-2.16389 12.77781-1.48437 19.38867 1.41211 0.35637 0.15658 0.72157 0.29223 1.09375 0.40624 17.8441 5.44336 37.66915 15.19722 60.69727 14.87891 1.41995-0.0194 2.81948-0.341 4.10547-0.94336 8.17109-3.82849 12.20714-12.16033 13.17773-18.80078-0.50681-12.66654 1.59135-26.83402-0.3262-37.87109-1.54255-8.43282-5.91248-17.60758-14.72265-23.26563l0.86914 0.625c-10.93284-8.80406-21.94724-16.28269-31.23243-24.625-0.57495-23.12052-1.08199-46.68439-0.25976-69.08008 18.64233 6.02764 37.22518 11.55132 55.14844 17.91016 0.072 0.0256 0.14425 0.0503 0.21679 0.0742 39.56563 13.03016 79.26526 27.53384 120.48438 38.01367 1.34822 0.34292 2.75315 0.40079 4.125 0.16992 9.07197-1.52737 15.26267-8.86625 17.57031-15.81054 0.69914-23.50484 3.4595-52.73446-5.2793-67.56641-0.68683-1.09997-1.58103-2.05586-2.63281-2.81445-35.2187-25.40325-73.46251-44.4291-108.41421-66.94525-0.089-0.0574-0.1788-0.1134-0.26953-0.16796-27.34456-16.40685-54.65819-32.86434-81.94141-49.36719l-0.54669-118.63491c-1.12852-12.521368-1.68335-19.183137-3.60765-28.533063-5.41794-17.246195-25.03894-27.312912-43.2773-26.660159zm0.5625 19.972657c17.603-0.202295 27.36248 11.284457 27.00295 35.530085l0.69432 126.09882c0.49596 2.84942 2.2012 5.3446 4.67578 6.8418 28.68327 17.35771 57.40072 34.65282 86.14648 51.90039l-0.26953-0.16797c35.50363 22.8717 72.6233 41.52962 105.61133 65.01563 4.37652 2.27988 5.42583 39.97275 2.5644 49.19141-0.32225 0.96974-0.51072 1.42156-0.73047 1.74414-38.89731-10.09452-77.2293-23.96818-116.21284-36.80664l0.21485 0.0742c-22.90288-8.12552-45.91315-14.4607-68.02344-22.05664-6.23498-2.14147-12.80002 2.23006-13.22852 8.8086-1.86447 28.73859-0.94822 59.23249-0.23633 88.08203 0.0654 2.6288 1.16353 5.12607 3.05664 6.95117 11.64433 11.22783 24.51667 19.55622 35.54297 28.43555 0.27835 0.2237 0.56848 0.43233 0.86914 0.625 3.40568 2.18719 4.95789 5.12827 5.85547 10.03515 0.58986 9.84883 1.42289 22.22797 0.20898 31.38086-0.19963 1.36577-0.30563 2.05337-0.52539 2.51367-16.05204-0.61282-33.06274-8.16232-51.82813-13.88671l1.09571 0.40625c-10.26033-4.49545-22.50431-6.16629-34.26172-1.88477l-0.006 0.002c-16.17714 5.90257-33.38117 10.48075-50.76563 16.01563-0.41831 0.13311-0.82739 0.29361-1.22461 0.48047-0.80485 0.37873-0.92949 0.35705-2.13476-0.51953-1.15009-0.83644-2.19078-2.65499-2.40235-3.8418 0.61378-12.84991-0.92163-23.99887 0.8125-33.03906 3.07534-6.34115 8.54152-11.26188 15.8711-16.52149 7.66895-5.50314 17.06413-11.05495 24.92187-19.86914 0.93202-1.04556 1.63403-2.27523 2.06055-3.60937 3.05463-9.55668 1.47869-17.83702 1.85547-23.04297 0.0101-0.14046 0.0173-0.28112 0.0215-0.42188 0.68665-22.89593-0.51315-45.28559-0.27734-67.1914 0.0712-6.71969-6.3729-11.59596-12.82031-9.70118-59.12238 17.38248-116.63144 38.56216-174.73816 56.52731-3.888723 1.38806-8.159363 4.36027-10.927734 0.70703-1.705028-5.58541-0.285434-18.98238-0.427734-28.47461-0.124987-8.33736 0.320382-15.34558 2.943359-21.57813 44.814219-29.90504 92.301759-56.70352 138.73828-85.69335 0.26399-0.16504 0.52012-0.34232 0.76757-0.53125 14.24364-10.86247 33.70711-17.7365 50.88086-32.09961 2.2196-1.85583 3.52675-4.58195 3.58399-7.47461 0.83028-42.48523 0.1871-80.82016 0.375-122.9629-0.76647-16.985391 6.6704-37.109434 24.07618-35.984373 0.19795 0.0033 0.39596 0.000676 0.59375-0.0078z"/>
</svg>
