<?xml version="1.0" encoding="UTF-8" standalone="no"?>
<svg xmlns:rdf="http://www.w3.org/1999/02/22-rdf-syntax-ns#" xmlns="http://www.w3.org/2000/svg" version="1.0" xmlns:cc="http://creativecommons.org/ns#" xmlns:dc="http://purl.org/dc/elements/1.1/" viewBox="0 0 576.44501 577.45154">
<path d="m64.571 0.06355556c-41.335 0-64.571 21.371-64.571 65.036v450.123c0 40.844 20.895 62.229 62.192 62.229h452.024c41.307 0 62.229-20.315 62.229-62.229v-450.123c0-42.601-20.922-65.036-63.521-65.036-0.004 0-448.495-0.143-448.353 0z"/>
<path opacity=".5" style="color-rendering:auto;text-decoration-color:#000000;color:#000000;isolation:auto;mix-blend-mode:normal;shape-rendering:auto;solid-color:#000000;block-progression:tb;text-decoration-line:none;image-rendering:auto;white-space:normal;text-indent:0;text-transform:none;text-decoration-style:solid" fill="#fff" d="m81.579203 152.694a8.3004725 8.3004725 0 0 0 -8.300781 8.30078v54.58789a8.3004725 8.3004725 0 0 0 8.300781 8.29883h127.08789a8.3004725 8.3004725 0 0 0 8.29883 -8.29883v-54.58789a8.3004725 8.3004725 0 0 0 -8.29883 -8.30078h-127.08789z"/>
<path opacity=".25" style="color-rendering:auto;text-decoration-color:#000000;color:#000000;isolation:auto;mix-blend-mode:normal;shape-rendering:auto;solid-color:#000000;block-progression:tb;text-decoration-line:none;image-rendering:auto;white-space:normal;text-indent:0;text-transform:none;text-decoration-style:solid" fill="#fff" d="m37.393656 365.66275a10.38486 10.38486 0 0 0 -10.384765 10.38281v118.79688a10.38486 10.38486 0 0 0 10.384765 10.38476h501.16015a10.38486 10.38486 0 0 0 10.38477 -10.38476v-118.79688a10.38486 10.38486 0 0 0 -10.38477 -10.38281h-501.16015z"/>
<path fill="#fff" d="m522.54795 48.174462c-3.02889 0.05075-6.22562 1.09679-9.33398 3.462891l-69.94727 53.439457-131.71484-51.216801-25.66992 19.611328 105.82617 72.474613-51.92969 39.67383-34.43945-8.79688-20.30078 15.50977 37.11914 26.33594 15.65234 42.73633 20.30078-15.50977 0.38672-35.77539 51.92969-39.67383 42.09766 121.14453 25.66992-19.61133-15.85156-141.93554 69.48046-53.082038c13.8407-10.552953 3.8498-29.007028-9.27539-28.78711zm-385.59765 14.720703a3.6900436 3.6900436 0 0 0 -3.68946 3.689453v84.109382h-55.566402a4.4154224 4.4154224 0 0 0 -4.416016 4.41601v14.55664a4.4154224 4.4154224 0 0 0 4.416016 4.41407h134.85742a4.4154224 4.4154224 0 0 0 4.41406 -4.41407v-14.55664a4.4154224 4.4154224 0 0 0 -4.41406 -4.41601h-55.91992v-84.109382a3.6900436 3.6900436 0 0 0 -3.68946 -3.689453h-15.99218zm-59.255862 149.22852a4.4154224 4.4154224 0 0 0 -4.416016 4.41602v14.55664a4.4154224 4.4154224 0 0 0 0.765625 2.48242c2.561939 13.24687 6.715694 28.5157 15.099609 41.31641h-5.11914c-5.934794 0.00027-10.745829 4.8113-10.746094 10.74609v80.00782h-35.892578a10.38486 10.38486 0 0 0 -10.384766 10.38281v118.80469a10.38486 10.38486 0 0 0 10.384766 10.38476h372.23047a10.38486 10.38486 0 0 0 10.38477 -10.38476v-57.61329h90.2793v57.61329a10.38486 10.38486 0 0 0 10.38476 10.38476h17.89648a10.38486 10.38486 0 0 0 10.38477 -10.38476v-118.80469a10.38486 10.38486 0 0 0 -10.38477 -10.38281h-38.29101v-24.42774a7.0393377 7.0393377 0 0 0 -7.03906 -7.03711h-152.92578a7.0393377 7.0393377 0 0 0 -7.03907 7.03711v24.42774h-116.30078v-80.00782c-0.00026-5.93479-4.8113-10.74583-10.74609-10.74609h-6.02344c8.09711-12.78408 11.62553-26.78474 15.40234-38.5293a10.746569 10.746569 0 0 0 0.47852 -2.61914 4.4154224 4.4154224 0 0 0 0.88867 -2.65039v-14.55664a4.4154224 4.4154224 0 0 0 -4.41406 -4.41602h-134.85742zm-25.171876 177.98633h90.244138v20.23243h-90.244138v-20.23243zm125.09571 0h90.24218v20.23243h-90.24218v-20.23243zm122.20117 0h90.24218v20.23243h-90.24218v-20.23243zm120.19922 0h90.24218v20.23243h-90.24218v-20.23243zm-367.51368 47.11328h90.279298v43.06642h-90.279298v-43.06642zm125.24414 0h90.2793v43.06642h-90.2793v-43.06642zm122.05079 0h90.27929v43.06642h-90.27929v-43.06642z"/>
</svg>
