<?xml version="1.0" encoding="UTF-8" standalone="no"?>
<svg xmlns:rdf="http://www.w3.org/1999/02/22-rdf-syntax-ns#" xmlns="http://www.w3.org/2000/svg" version="1.0" xmlns:cc="http://creativecommons.org/ns#" xmlns:dc="http://purl.org/dc/elements/1.1/" viewBox="0 0 576.44501 577.45154">
<path d="m64.571 0.06355556c-41.335 0-64.571 21.371-64.571 65.036v450.123c0 40.844 20.895 62.229 62.192 62.229h452.024c41.307 0 62.229-20.315 62.229-62.229v-450.123c0-42.601-20.922-65.036-63.521-65.036-0.004 0-448.495-0.143-448.353 0z"/>
<path fill="#fff" d="m264.00578 82.229363c0.06-34 51.309-34 51.275 0.958v142.69151l199.764 120.064v52.717l-198.805-65.43v106.647l46.008 35.944v41.694l-70.927-22.046-70.927 22.046v-41.694l45.529-35.944v-106.647l-198.827 65.43v-52.717l196.91-120.064v-143.64951z"/>
</svg>
