<?xml version="1.0" encoding="UTF-8" standalone="no"?>
<svg xmlns:rdf="http://www.w3.org/1999/02/22-rdf-syntax-ns#" xmlns="http://www.w3.org/2000/svg" version="1.0" xmlns:cc="http://creativecommons.org/ns#" xmlns:dc="http://purl.org/dc/elements/1.1/" viewBox="0 0 576.44501 577.45154">
<path d="m64.571 0.06355556c-41.335 0-64.571 21.371-64.571 65.036v450.123c0 40.844 20.894 62.229 62.192 62.229h452.024c41.307 0 62.229-20.316 62.229-62.229v-450.123c0-42.601-20.922-65.036-63.522-65.036-0.003 0-448.494-0.143-448.352 0z"/>
<path opacity=".1" style="color-rendering:auto;text-decoration-color:#000000;color:#000000;isolation:auto;mix-blend-mode:normal;shape-rendering:auto;solid-color:#000000;block-progression:tb;text-decoration-line:none;text-decoration-style:solid;image-rendering:auto;white-space:normal;text-indent:0;text-transform:none" d="m80.319438 241.51236a20.002 20.002 0 0 0 -20 20v257.38672a20.002 20.002 0 0 0 20 20h161.2207a20.002 20.002 0 0 0 20 -20v-257.38672a20.002 20.002 0 0 0 -20 -20h-161.2207z" fill="#fff"/>
<path fill="#fff" d="m525.08116 52.588525c-3.02889 0.05075-6.22563 1.09679-9.33399 3.46289l-69.94726 53.437505-131.71485-51.214848-25.66992 19.611328 105.82617 72.47461-51.92969 39.67383-34.43945-8.79883-20.30273 15.51172 37.12109 26.33399 15.65039 42.73828 20.30274-15.51172 0.38672-35.77344 51.92968-39.67383 42.09766 121.14453 25.66992-19.61132-15.85156-141.93555 69.48047-53.083989c13.84069-10.552953 3.84979-29.005075-9.27539-28.785156zm-458.09571 170.85548a18.690393 18.690393 0 0 0 -18.689453 18.6875v280.32812a18.690393 18.690393 0 1 0 37.376953 0v-261.63867h153.2461v261.63867a18.690393 18.690393 0 1 0 37.37695 0v-280.32812a18.690393 18.690393 0 0 0 -18.68945 -18.6875h-190.6211z"/>
</svg>
