<?xml version="1.0" encoding="UTF-8" standalone="no"?>
<svg xmlns:rdf="http://www.w3.org/1999/02/22-rdf-syntax-ns#" xmlns="http://www.w3.org/2000/svg" version="1.0" xmlns:cc="http://creativecommons.org/ns#" xmlns:dc="http://purl.org/dc/elements/1.1/" viewBox="0 0 576.44501 577.45154">
<path d="m64.571 0.06355556c-41.335 0-64.571 21.371-64.571 65.036v450.123c0 40.844 20.895 62.229 62.192 62.229h452.024c41.307 0 62.229-20.315 62.229-62.229v-450.123c0-42.601-20.922-65.036-63.521-65.036-0.004 0-448.495-0.143-448.353 0z"/>
<path style="color-rendering:auto;text-decoration-color:#000000;color:#000000;isolation:auto;mix-blend-mode:normal;shape-rendering:auto;solid-color:#000000;block-progression:tb;text-decoration-line:none;text-decoration-style:solid;image-rendering:auto;white-space:normal;text-indent:0;text-transform:none" d="m289.81944 41.850244c-9.77037-0.0913-19.75145 3.029189-27.68164 10.007812-7.9302 6.978623-13.11117 18.077412-13.13282 30.345703a15.0015 15.0015 0 0 0 0 0.02539v129.3711l-192.32031 117.26562a20.002 20.002 0 0 0 -9.589844 17.07617v52.71875a20.002 20.002 0 0 0 26.251953 18.9961l177.57617-58.4375v73.38867l-39.82422 31.43945a15.0015 15.0015 0 0 0 -5.70507 11.77344v41.69336a15.0015 15.0015 0 0 0 19.45312 14.32422l66.47461-20.66211 66.47461 20.66211a15.0015 15.0015 0 0 0 19.45117 -14.32422v-41.69336a15.0015 15.0015 0 0 0 -5.76562 -11.82031l-40.24219-31.43946v-73.33984l177.55273 58.43555a20.002 20.002 0 0 0 26.25196 -18.9961v-52.71875a20.002 20.002 0 0 0 -9.69727 -17.14062l-195.0664-117.24219v-128.35742c0.0121-12.40454-5.02424-23.600897-12.87305-30.769535-7.84882-7.168638-17.81752-10.490736-27.58789-10.582031z" fill="#fff"/>
</svg>
