<?xml version="1.0" encoding="UTF-8" standalone="no"?>
<svg xmlns:rdf="http://www.w3.org/1999/02/22-rdf-syntax-ns#" xmlns="http://www.w3.org/2000/svg" version="1.0" xmlns:cc="http://creativecommons.org/ns#" xmlns:dc="http://purl.org/dc/elements/1.1/" viewBox="0 0 576.44501 577.45154">
<path d="m64.571 0.06355556c-41.335 0-64.571 21.371-64.571 65.036v450.123c0 40.844 20.896 62.229 62.192 62.229h452.024c41.307 0 62.229-20.314 62.229-62.229v-450.123c0-42.601-20.922-65.036-63.521-65.036-0.004 0-448.495-0.143-448.353 0z"/>
<path fill="#fff" d="m164.9835 6.3443837c-15.15391 0-27.58789 12.433973-27.58789 27.587891v282.86328c0 15.15392 12.43398 27.58789 27.58789 27.58789h113.51562v190.20313h-77.65039a15.0015 15.0015 0 1 0 0 30h181.03125a15.0015 15.0015 0 1 0 0 -30h-74.58203v-190.20313h112.91211c15.15391 0 27.58789-12.43397 27.58789-27.58789v-282.86328c0-15.153918-12.43398-27.587891-27.58789-27.587891h-255.22656zm0 15h255.22656c7.10337 0 12.58789 5.484523 12.58789 12.587891v282.86328c0 7.10336-5.48452 12.58789-12.58789 12.58789h-255.22656c-7.10337 0-12.58789-5.48453-12.58789-12.58789v-282.86328c0-7.103368 5.48452-12.587891 12.58789-12.587891zm128.94531 29.951172c0.32324 0 0.65972 0.01305 0.98633 0.01563 0.32889-0.0026 0.66087-0.01563 0.98633-0.01563h-1.97266zm0.98633 0.01563c-22.95139 0.181844-54.04825 6.64478-67.02734 12.052734-13.16508 5.48545-21.9431 10.97221-24.68555 24.685547l-9.87305 76.033203v104.75h17.01172v16.42773c0 20.03034 29.30078 20.03033 29.30078 0v-16.42773h54.12305 0.16406 56.25977v16.42773c0 20.03034 29.3164 20.03033 29.3164 0v-16.42773h17.00977v-104.75l-9.87109-76.033203c-2.74245-13.713345-11.52241-19.200105-24.6875-24.685555-12.98035-5.408478-44.08896-11.872097-67.04102-12.052734zm-41.78711 19.191406h40.80078 42.78907c8.22846 0 8.22846 12.335938 0 12.335938h-42.87891-40.71094c-8.22846 0-8.22846-12.335938 0-12.335938zm-18.19336 24.804688h58.9043 59.05664c8.69202 0 10.96618 4.412056 12.02148 11.11133l7.69141 55.13867c0.71652 5.28515-0.82309 10.5293-8.125 10.5293h-70.55469-70.58203c-7.30191 0-8.82588-5.24416-8.10937-10.5293l7.6914-55.13867c1.05531-6.699284 3.31383-11.11133 12.00586-11.11133zm-9.92773 110.56251c7.7649-0.00002 16.05273 8.30346 16.05273 16.06835 0 7.76491-8.28783 16.05469-16.05273 16.05469-7.7649 0.00001-16.06836-8.28979-16.06836-16.05469s8.30346-16.06835 16.06836-16.06835zm139.83203 0c7.76491 0 16.05272 8.30346 16.05273 16.06835 0 7.7649-8.28782 16.0547-16.05273 16.05469-7.76489 0-16.06837-8.28978-16.06836-16.05469 0-7.7649 8.30347-16.06837 16.06836-16.06835z"/>
</svg>
