<?xml version="1.0" encoding="UTF-8" standalone="no"?>
<svg xmlns:rdf="http://www.w3.org/1999/02/22-rdf-syntax-ns#" xmlns="http://www.w3.org/2000/svg" version="1.0" xmlns:cc="http://creativecommons.org/ns#" xmlns:dc="http://purl.org/dc/elements/1.1/" viewBox="0 0 576.44501 577.45154">
<path d="m64.571 0.06355556c-41.335 0-64.571 21.371-64.571 65.036v450.123c0 40.844 20.896 62.229 62.192 62.229h452.024c41.307 0 62.229-20.314 62.229-62.229v-450.123c0-42.601-20.922-65.036-63.521-65.036-0.004 0-448.495-0.143-448.353 0z"/>
<path fill="#fff" d="m288.921 32.858056c0.67637 0 1.37906 0.02587 2.0625 0.03125 0.68817-0.0055 1.3815-0.03125 2.0625-0.03125h-4.125zm2.0625 0.03125c-48.02485 0.380502-113.09179 13.902829-140.25 25.21875-27.54737 11.478075-45.91781 22.961674-51.65625 51.656254l-20.65625 159.09375v219.1875h35.59375v34.375c0 41.91264 61.3125 41.91262 61.3125 0v-34.375h113.25 0.34375 117.71875v34.375c0 41.91264 61.34375 41.91262 61.34375 0v-34.375h35.59375v-219.1875l-20.65625-159.09375c-5.73844-28.69458-24.10887-40.178181-51.65625-51.656254-27.16086-11.317022-92.25504-24.840778-140.28125-25.21875zm-87.4375 40.15625h85.375 89.53125c17.2177 0.000004 17.21771 25.8125 0 25.8125h-89.71875-85.1875c-17.2177 0-17.21771-25.8125 0-25.8125zm-46.4375 51.906254h131.625 136.125c18.18768 0 22.94807 9.23202 25.15625 23.25l16.09375 115.375c1.49927 11.05895-1.72106 22.03124-17 22.03125h-160.1875-156.0625c-15.27895 0-18.46802-10.97231-16.96875-22.03125l16.09375-115.375c2.2082-14.01798 6.93731-23.25 25.125-23.25zm-12.40625 235.53125c16.24773-0.00001 29.40625 13.18977 29.40625 29.4375 0 16.24774-13.15852 29.40625-29.40625 29.40625-16.24773 0.00001-29.4375-13.15852-29.4375-29.40625 0-16.24772 13.18977-29.4375 29.4375-29.4375zm292.59375 0c16.24773 0 29.40624 13.18978 29.40625 29.4375 0 16.24773-13.15852 29.40626-29.40625 29.40625-16.24773 0-29.43751-13.15851-29.4375-29.40625 0-16.24773 13.18978-29.43751 29.4375-29.4375z"/>
</svg>
