<?xml version="1.0" encoding="UTF-8" standalone="no"?>
<svg xmlns:rdf="http://www.w3.org/1999/02/22-rdf-syntax-ns#" xmlns="http://www.w3.org/2000/svg" version="1.0" xmlns:cc="http://creativecommons.org/ns#" xmlns:dc="http://purl.org/dc/elements/1.1/" viewBox="0 0 576.44501 577.45154">
<defs>
<style type="text/css">.fil0 {fill:#EF7900}</style>
</defs>
<path d="m64.571 0.06355556c-41.335 0-64.571 21.371-64.571 65.036v450.123c0 40.844 20.894 62.229 62.192 62.229h452.024c41.307 0 62.229-20.316 62.229-62.229v-450.123c0-42.601-20.922-65.036-63.522-65.036-0.003 0-448.494-0.143-448.352 0z"/>
<path fill="#fff" d="m168.10459 19.330712c-10.69513 0.000397-20.00156 3.873585-27.92382 11.595703-7.92154 7.722865-11.89024 17.107616-11.89063 28.189453 0.00038 11.094645 3.96909 20.527836 11.89063 28.25 7.92226 7.722801 17.22869 11.564778 27.92382 11.564458 0.39434 0 0.79351-0.0198 1.1836-0.0293 0.39452 0.0109 0.78278 0.0296 1.18164 0.0293 10.69514 0.00032 20.00159-3.841658 27.92383-11.564458 7.92155-7.722164 11.86095-17.155355 11.86132-28.25-0.00036-11.081837-3.93977-20.466588-11.86132-28.189453-7.92224-7.722118-17.22869-11.595306-27.92383-11.595703-0.39875 0.000009-0.78725 0.02131-1.18164 0.03125-0.38999-0.0095-0.78936-0.03125-1.1836-0.03125zm228 0c-10.69513 0.000397-20.00156 3.873585-27.92382 11.595703-7.92154 7.722865-11.89024 17.107616-11.89063 28.189453 0.00038 11.094645 3.96909 20.527836 11.89063 28.25 7.92226 7.722801 17.22869 11.564778 27.92382 11.564458 0.39434 0 0.79351-0.0198 1.1836-0.0293 0.39452 0.0109 0.78278 0.0296 1.18164 0.0293 10.69514 0.00032 20.00159-3.841658 27.92383-11.564458 7.92155-7.722164 11.86095-17.155355 11.86132-28.25-0.00036-11.081837-3.93977-20.466588-11.86132-28.189453-7.92224-7.722118-17.22869-11.595306-27.92383-11.595703-0.39875 0.000009-0.78725 0.02131-1.18164 0.03125-0.38999-0.0095-0.78936-0.03125-1.1836-0.03125zm-258.29101 88.503908c-2.41909 0.00007-4.60489 0.27115-6.56641 0.79883a33.927916 33.927916 0 0 0 -3.875 -0.14844 33.927916 33.927916 0 0 0 -33.099608 34.69727l0.710938 79.12695a33.927916 33.927916 0 0 0 23.83984 33.00977v9.91015 3.01758l50.46485-1.48047 50.49219 1.48047v-3.01758-11.41797a33.927916 33.927916 0 0 0 19.87695 -32.12304l-0.70899-79.12696a33.927916 33.927916 0 0 0 -31.88672 -33.98632c-1.88809-0.47812-3.96879-0.74018-6.27148-0.74024h-62.97656zm228 0c-2.41909 0.00007-4.60489 0.27115-6.56641 0.79883a33.927916 33.927916 0 0 0 -3.875 -0.14844 33.927916 33.927916 0 0 0 -33.09961 34.69727l0.71094 79.12695a33.927916 33.927916 0 0 0 23.83984 33.00977v9.91015 3.01758l50.46485-1.48047 50.49219 1.48047v-3.01758-11.41797a33.927916 33.927916 0 0 0 19.87695 -32.12304l-0.70899-79.12696a33.927916 33.927916 0 0 0 -31.88672 -33.98632c-1.88808-0.47812-3.96879-0.74018-6.27148-0.74024h-62.97656zm-153.95313 172.42383c-21.26228 0-32.5409 11.60793-37.74804 25.19531l-27.64063 71.3711c-10.95741 1.40503-30.38086 14.26718-30.38086 38.63281v90.76172h26.9043v29.02539c0 35.71056 50.5371 35.28999 50.53711 0v-29.02539h90.9082 0.0293 90.91015v29.02539c0 35.28999 50.53682 35.71056 50.53711 0v-29.02539h26.9043v-90.76172c0-24.36561-19.42326-37.22778-30.38086-38.63281l-27.67187-71.3711c-5.20713-13.58738-16.48561-25.19531-37.74805-25.19531h-39.07422-66.53906-39.54688zm-0.32226 25.99023h72.84375 0.0586 0.0293 72.875c9.11198 0.0849 13.01559 5.78394 15.61914 13.67383l20.83398 56.16602h-109.32812-0.0293-0.0586-109.29688l20.83399-56.16602c2.60358-7.88989 6.5062-13.58897 15.61914-13.67383zm-42.46485 97.15626c12.89334 0 23.33985 10.75842 23.33985 24.04687-0.00001 13.2894-10.44651 24.07422-23.33985 24.07422-12.8924 0-23.33789-10.78484-23.33789-24.07422 0-13.28842 10.44549-24.04687 23.33789-24.04687zm230.76563 0c12.89335 0 23.33798 10.75845 23.33789 24.04687 0 13.28938-10.44454 24.07422-23.33789 24.07422-12.89238 0-23.36914-10.78482-23.36914-24.07422 0-13.28845 10.47676-24.04687 23.36914-24.04687z"/>
</svg>
