<?xml version="1.0" encoding="UTF-8" standalone="no"?>
<svg xmlns:rdf="http://www.w3.org/1999/02/22-rdf-syntax-ns#" xmlns="http://www.w3.org/2000/svg" version="1.0" xmlns:cc="http://creativecommons.org/ns#" xmlns:dc="http://purl.org/dc/elements/1.1/" viewBox="0 0 576.44501 577.45154">
<path d="m64.571 0.06355556c-41.335 0-64.571 21.371-64.571 65.036v450.123c0 40.844 20.895 62.229 62.192 62.229h452.024c41.307 0 62.229-20.315 62.229-62.229v-450.123c0-42.601-20.922-65.036-63.521-65.036-0.004 0-448.495-0.143-448.353 0z"/>
<path fill="#fff" d="m294.53623 43.826806c-23.11855 2.497733-107.34406 41.067657-109.84179 239.49219-2.61391 209.1125 86.66523 253.08434 110.07422 252.67773v-138.07226c-19.28482 0-23.11911-20.96998-27.5918-64.30274-2.84625-28.69488-3.71755-64.12803 0-99.38672 2.73008-24.74498 7.2604-48.9082 27.47461-48.9082l-0.11524-141.5zm24.74415 0v141.5l39.03515 0.11523 0.11524-0.11523c8.94536 0 15.33593-7.26093 15.33593-15.45117h0.11524s-0.11524-110.71391-0.11524-110.83008c0-8.480674-6.91335-15.21875-15.33593-15.21875h-39.15039zm0 353.92383v138.41992s39.03515 0.11617 39.03515 0h0.11524v0.0586c8.94536 0 15.33593-7.26093 15.33593-15.45117l0.11524-0.11719s-0.11524-107.57523-0.11524-107.6914c0-8.48067-6.91335-15.21875-15.33593-15.21875h-39.15039z"/>
</svg>
