<?xml version="1.0" encoding="UTF-8" standalone="no"?>
<svg xmlns:rdf="http://www.w3.org/1999/02/22-rdf-syntax-ns#" xmlns="http://www.w3.org/2000/svg" version="1.0" xmlns:cc="http://creativecommons.org/ns#" xmlns:dc="http://purl.org/dc/elements/1.1/" viewBox="0 0 576.44501 577.45154">
<path d="m64.571 0.06355556c-41.335 0-64.571 21.371-64.571 65.036v450.123c0 40.844 20.895 62.229 62.192 62.229h452.024c41.307 0 62.229-20.315 62.229-62.229v-450.123c0-42.601-20.922-65.036-63.521-65.036-0.004 0-448.495-0.143-448.353 0z"/>
<path fill="#fff" d="m284.11303 148.83812c-7.05159 0.00032-13.22148-2.64392-18.50967-7.93272-5.28876-5.28815-7.93299-11.65522-7.93272-19.10126-0.00027-7.05095 2.64396-13.21786 7.93272-18.50073 5.28819-5.282124 11.45808-7.923372 18.50967-7.923754 7.4454 0.000382 13.80949 2.64163 19.09231 7.923754 5.28219 5.28287 7.92344 11.44978 7.92376 18.50073-0.00032 7.44604-2.64157 13.81311-7.92376 19.10126-5.28282 5.2888-11.64691 7.93304-19.09231 7.93272zm200.90845 143.91836c-1.56612-9.40555-7.44021-14.10841-17.62229-14.10858-4.70931 0.00017-9.01778 1.9602-12.9254 5.88006l-65.21861 61.09538c-4.69728 3.90823-7.04572 8.60511-7.04532 14.09067-0.0004 9.40582 4.30806 15.47711 12.92539 18.21387l16.45703 5.28849c-8.22295 22.32521-21.34254 41.41751-39.35884 57.27692-18.01704 15.85947-38.77356 26.13763-62.2696 30.83453v-289.59357c26.2329-11.36544 39.34952-31.34213 39.34987-59.93011-0.00035-17.61596-6.36445-32.788196-19.09231-45.51678-12.72853-12.727805-28.09796-19.091899-46.10837-19.09231-17.62854 0.000411-32.80377 6.364505-45.52574 19.09231-12.72246 12.728584-19.08358 27.90082-19.08334 45.51678-0.00024 28.58798 13.31358 48.56467 39.94146 59.93011v290.18516c-23.89103-4.69688-45.23615-14.97804-64.03542-30.84349-18.79968-15.86539-32.31069-35.15189-40.53306-57.85955l16.45704-5.28849c8.60479-2.73676 12.90728-8.80805 12.90747-18.21387-0.00019-5.09117-2.15144-9.78806-6.45373-14.09067l-65.79228-61.09538c-3.92017-3.91986-8.22863-5.87989-12.925407-5.88006-10.182661 0.00017-16.056747 4.70303-17.622287 14.10858l-14.090651 88.70304c-0.394462 1.94815-0.591693 3.31659-0.591546 4.10529-0.000073 12.53706 6.45964 18.80554 19.37914 18.80549 1.959928 0.00005 3.722757-0.19709 5.288488-0.59155l15.273843-5.28847c12.53685 37.59902 34.9576 68.3409 67.26229 92.2257 32.30432 23.88475 68.82169 35.82715 109.5522 35.82721 40.33553-0.00006 76.95448-12.13666 109.85697-36.40984 31.71848-23.49639 53.84641-54.04405 66.38385-91.64307l15.27385 5.28847c1.56514 0.39446 3.32797 0.59169 5.28848 0.59155 12.91892 0.00005 19.37863-6.26843 19.37914-18.80549-0.00051-0.78877-0.1977-2.15714-0.59159-4.10529l-14.09066-88.70304z"/>
</svg>
