<?xml version="1.0" encoding="UTF-8" standalone="no"?>
<svg xmlns:rdf="http://www.w3.org/1999/02/22-rdf-syntax-ns#" xmlns="http://www.w3.org/2000/svg" version="1.0" xmlns:cc="http://creativecommons.org/ns#" xmlns:dc="http://purl.org/dc/elements/1.1/" viewBox="0 0 576.44501 577.45154">
<path d="m64.571 0.06355556c-41.335 0-64.571 21.371-64.571 65.036v450.123c0 40.844 20.895 62.229 62.192 62.229h452.024c41.307 0 62.229-20.315 62.229-62.229v-450.123c0-42.601-20.922-65.036-63.521-65.036-0.004 0-448.495-0.143-448.353 0z"/>
<path fill-rule="evenodd" fill="#fff" d="m438.07334 59.582665-98.26757 26.804688 28.11523 98.990237 37.39258 20.88672-18.88281-71.83594c73.07503 39.53518 98.35606 136.19826 72.94335 199.0293l34.18555 12.5957c38.02007-114.0734-18.65107-200.95182-88.70508-243.40625l71.8125-20.832033-38.59375-22.232422zm-170.50195 17.65625c-117.95409 23.347495-165.45504 115.55862-167.72461 197.44142l-53.611327-52.12306-0.244141 44.53906 71.878908 72.16602 72.14844-73.37696-0.33008-42.83007-53.10742 51.92968c-1.76151-83.06555 69.76427-152.83178 136.94336-161.80468l-5.95313-35.94141zm81.51758 302.21484-36.83789 21.85157 71.60547 19.73828c-70.88115 43.34574-167.1706 16.67476-208.74805-36.84962l-28.05664 23.24023c79.56239 90.15597 183.15015 84.7674 255.03906 45.5l-18.04101 72.56445 38.60351-22.21484 26.16016-98.43945-99.72461-25.39063z"/>
</svg>
