<?xml version="1.0" encoding="UTF-8" standalone="no"?>
<svg xmlns:rdf="http://www.w3.org/1999/02/22-rdf-syntax-ns#" xmlns="http://www.w3.org/2000/svg" version="1.0" xmlns:cc="http://creativecommons.org/ns#" xmlns:dc="http://purl.org/dc/elements/1.1/" viewBox="0 0 576.44501 577.45154">
<path d="m64.571 0.06355556c-41.335 0-64.571 21.371-64.571 65.036v450.123c0 40.844 20.895 62.229 62.192 62.229h452.024c41.307 0 62.229-20.315 62.229-62.229v-450.123c0-42.601-20.922-65.036-63.521-65.036-0.004 0-448.495-0.143-448.353 0z"/>
<path fill-rule="evenodd" fill="#fff" d="m141.68858 59.582665-38.5957 22.232422 71.8125 20.832033c-70.05402 42.45443-126.7232 129.33285-88.70313 243.40625l34.18359-12.5957c-25.412698-62.83104-0.12971-159.49412 72.94532-199.0293l-18.88477 71.83594 37.39453-20.88672 28.11328-98.990237-98.26562-26.804688zm170.5 17.65625-5.95117 35.941415c67.17909 8.9729 138.70487 78.73913 136.94336 161.80468l-53.10743-51.92968-0.33203 42.83007 72.14844 73.37696 71.88086-72.16602-0.24414-44.53906-53.61328 52.12305c-2.26957-81.8828-49.77052-174.09392-167.72461-197.44142zm-81.51563 302.21484-99.72656 25.39063 26.16016 98.43945 38.60547 22.21484-18.04102-72.56445c71.88891 39.2674 175.47667 44.65597 255.03906-45.5l-28.05664-23.24023c-41.57745 53.52438-137.86885 80.19536-208.75 36.84961l71.60742-19.73828-36.83789-21.85157z"/>
</svg>
