<?xml version="1.0" encoding="UTF-8" standalone="no"?>
<svg xmlns:rdf="http://www.w3.org/1999/02/22-rdf-syntax-ns#" xmlns="http://www.w3.org/2000/svg" version="1.0" xmlns:cc="http://creativecommons.org/ns#" xmlns:dc="http://purl.org/dc/elements/1.1/" viewBox="0 0 576.44501 577.45154">
<defs>
<style type="text/css">.fil0 {fill:#EF7900}</style>
</defs>
<path d="m64.571 0.06355556c-41.335 0-64.571 21.371-64.571 65.036v450.123c0 40.844 20.894 62.229 62.192 62.229h452.024c41.307 0 62.229-20.316 62.229-62.229v-450.123c0-42.601-20.922-65.036-63.522-65.036-0.003 0-448.494-0.143-448.352 0z"/>
<path fill="#fff" d="m453.44639 26.5104a15.0015 15.0015 0 0 0 -14.77344 15.21289v13.5c-20.08659 2.404208-35.30477 8.636858-45.61914 18.72461-11.43113 11.180312-17.1465 24.562246-17.14648 40.14649-0.00002 15.68135 5.77291 28.50654 17.31836 38.47656 10.40686 8.98709 25.56675 15.64553 45.44726 19.99219v83.58594c-9.16316-1.88789-16.71089-5.96934-22.64257-12.24805-7.31598-7.74377-12.17373-18.77937-14.57422-33.10547l-30.86524 4.64648c1.60034 19.06916 8.63187 33.90265 21.0918 44.50196 11.2399 9.56155 26.91312 15.70327 46.99023 18.45117v28.37109a15.0015 15.0015 0 1 0 30 0v-28.21289c20.49381-1.7673 36.72989-8.42345 48.69336-19.98828 12.91699-12.48687 19.37679-27.24874 19.37696-44.28515-0.00017-16.64911-5.88824-30.1046-17.66211-40.36524-11.36538-9.90418-28.17899-16.82175-50.40821-20.77344v-75.451173c7.53207 1.951686 13.70618 5.299678 18.51563 10.050781 5.82973 5.759642 9.65915 13.576042 11.48828 23.449222l32.06445-3.91992c-2.85795-15.874634-9.88752-28.216619-21.08984-37.025395-10.22644-8.040815-23.89379-13.086083-40.97852-15.158203v-13.363282a15.0015 15.0015 0 0 0 -15.22656 -15.21289zm-407.27148 30.951172v369.87501h48.947266v-150.3711h94.865238c52.31047 0.00015 88.47397-10.89156 108.49023-32.67383 20.01568-21.78191 30.02312-48.39958 30.02344-79.85351-0.00032-18.3337-3.7419-35.15429-11.22656-50.46094-7.48527-15.306024-17.36807-27.206653-29.64649-35.701175-12.27899-8.493825-27.50049-14.255211-45.66601-17.283203-12.95175-2.354454-31.70645-3.530881-56.26368-3.53125h-139.52343zm392.49804 20.164062v69.343756c-8.86419-2.91222-16.08781-6.67242-21.61328-11.3125-6.85872-5.75931-10.28912-13.6254-10.28906-23.59571-0.00006-8.7116 3.31521-16.382858 9.94531-23.013671 5.39137-5.391743 12.71051-9.198298 21.95703-11.421875zm-343.55078 23.484376h94.613278c22.20241 0.00032 37.42392 1.093 45.66602 3.2793 12.78308 3.53255 23.08657 10.80732 30.9082 21.82422 7.82111 11.0175 11.7302 24.26401 11.73047 39.73828-0.00027 21.36185-6.64398 37.92923-19.93164 49.70313-13.28817 11.77432-35.74354 17.6623-67.36523 17.6621h-95.621098v-132.20703zm373.55078 77.68555c13.0933 3.88238 22.27257 8.4737 27.51758 13.77734 5.88687 5.95313 8.82993 13.81726 8.83008 23.59375-0.00015 11.13177-3.88519 20.35198-11.6582 27.66016-6.67082 6.27173-14.90396 10.41717-24.68946 12.44727v-77.47852zm-192.78711 148.66602c-17.15458 0-26.25391 9.36572-30.45507 20.32812l-22.30079 57.58203c-8.84053 1.13359-24.51367 11.51154-24.51367 31.16992v73.22657h21.70703v23.41796c0 28.81157 40.77538 28.47226 40.77539 0v-23.41796h73.34571 0.0234 73.3457v23.41796c0 28.47225 40.77516 28.81158 40.77539 0v-23.41796h21.70508v-73.22657c0-19.65837-15.67104-30.03633-24.51172-31.16992l-22.32422-57.58203c-4.20115-10.9624-13.30232-20.32812-30.45703-20.32812h-31.52539-53.6836-31.90625zm-0.26172 20.96875h58.77149 0.0488 0.0234 58.79492c7.35162 0.0685 10.50099 4.66562 12.60156 11.03125l16.80859 45.3164h-88.20507-0.0234-0.0488-88.18164l16.81055-45.3164c2.10059-6.36563 5.24721-10.96279 12.5996-11.03125zm-34.25976 78.38671c10.40245 0 18.83008 8.67917 18.83008 19.4004-0.00001 10.72199-8.42763 19.42382-18.83008 19.42382-10.40169 0-18.83008-8.70184-18.83008-19.42382 0-10.72122 8.42839-19.4004 18.83008-19.4004zm186.18359 0c10.40246 0 18.83015 8.67919 18.83008 19.4004 0 10.72197-8.42762 19.42382-18.83008 19.42382-10.40168 0-18.85351-8.70183-18.85351-19.42382 0-10.72123 8.45183-19.4004 18.85351-19.4004z"/>
</svg>
