<?xml version="1.0" encoding="UTF-8" standalone="no"?>
<svg xmlns:rdf="http://www.w3.org/1999/02/22-rdf-syntax-ns#" xmlns="http://www.w3.org/2000/svg" version="1.0" xmlns:cc="http://creativecommons.org/ns#" xmlns:dc="http://purl.org/dc/elements/1.1/" viewBox="0 0 576.44501 577.45154">
<defs>
<style type="text/css">.fil0 {fill:#EF7900}</style>
</defs>
<path d="m64.571 0.06355556c-41.335 0-64.571 21.371-64.571 65.036v450.123c0 40.844 20.894 62.229 62.192 62.229h452.024c41.307 0 62.229-20.316 62.229-62.229v-450.123c0-42.601-20.922-65.036-63.522-65.036-0.003 0-448.494-0.143-448.352 0z"/>
<path fill="#fff" d="m49.465922 51.117822v369.87501h48.947268v-150.3711h94.86523c52.31047 0.00015 88.47398-10.89156 108.49024-32.67383 20.01568-21.78191 30.02311-48.39958 30.02343-79.85351-0.00032-18.3337-3.7419-35.15429-11.22656-50.46094-7.48527-15.306018-17.36806-27.206655-29.64648-35.701175-12.27899-8.49383-27.5005-14.25326-45.66602-17.28125-12.95175-2.35445-31.70644-3.532843-56.26367-3.533203h-139.52344zm48.947268 43.648437h94.61328c22.20241 0.00032 37.42391 1.092997 45.66601 3.279297 12.78308 3.532554 23.08462 10.807324 30.90625 21.824224 7.82111 11.0175 11.73216 24.26401 11.73243 39.73828-0.00027 21.36185-6.64398 37.92923-19.93164 49.70312-13.28817 11.77432-35.74355 17.66231-67.36524 17.66211h-95.62109v-132.20703zm270.40039 163.55664c-2.65923 0.056-5.32672 0.56242-7.90039 1.58789-16.63777 4.72175-22.90357 26.7045-10.94141 38.86133 0.35382 40.40892 0.50305 80.82045 1.0957 121.22656 19.22429 0.003 85.70723-2.32817 98.40235 0.46485 12.77374 25.41301 43.52636 87.91814 46.95703 93.29492 13.60611-4.50324 34.96012-14.68479 48.49023-19.39648 0.69853 0.5796 0.53829-18.88459-5.77148-18.35743-5.75867 0.35638-16.75813 8.63675-31.9082 10.40821-14.4225-28.23882-28.16817-57.03327-42.45508-85.4336-24.86067-0.0191-65.54252 0.0497-90.46289-0.0664 0.11247-0.78906-3.85979-10.04194 1.07812-21.08008h66.20313v-21.08008c-22.52915-0.29809-45.22726 0.9855-67.6211-0.75586-1.00858-15.96514-0.64106-32.00887-0.24218-47.99609 5.55259-7.54795 22.0085-10.87914 21.28711-24.56836 2.26224-14.62128-11.85112-27.4119-26.21094-27.10938zm-40.29492 102.33204c-30.24891 14.53408-53.09522 44.48854-54.78711 77.58789-3.49095 29.19372 9.6081 58.71983 32.27929 77.83398 15.85399 13.77425 36.63412 22.36479 66.34766 25.5625 33.03538 2.20589 65.73041-13.34235 86.13672-38.13281 12.07283-8.10742 0.1472-26.48424-5.44727-30.82422-13.38116 21.12637-33.51924 39.68368-58.9414 45.86328-33.90695 9.22577-71.9199-9.68704-86.94336-39.83594-14.20129-26.53343-9.279-62.05029 13.1875-82.87109 3.18325-4.38614 11.87748-6.12779 10.59765-12.47266-0.85888-7.31323 2.37088-18.41041-2.42968-22.71093z"/>
</svg>
