<?xml version="1.0" encoding="UTF-8" standalone="no"?>
<svg xmlns:rdf="http://www.w3.org/1999/02/22-rdf-syntax-ns#" xmlns="http://www.w3.org/2000/svg" version="1.0" xmlns:cc="http://creativecommons.org/ns#" xmlns:dc="http://purl.org/dc/elements/1.1/" viewBox="0 0 576.44501 577.45154">
<defs>
<style type="text/css">.fil0 {fill:#EF7900}</style>
</defs>
<path d="m64.571 0.06355556c-41.335 0-64.571 21.371-64.571 65.036v450.123c0 40.844 20.894 62.229 62.192 62.229h452.024c41.307 0 62.229-20.316 62.229-62.229v-450.123c0-42.601-20.922-65.036-63.522-65.036-0.003 0-448.494-0.143-448.352 0z"/>
<path opacity=".25" style="color:#000000;text-indent:0;block-progression:tb;text-decoration-line:none;text-transform:none" d="m143.63975 72.514306c-2.96969 0.000344-5.93136 1.21261-8.03125 3.3125s-3.31216 5.061557-3.3125 8.03125v79.531254h78.21875v-18.65625h12.65625v-72.218754h-79.53125zm173.71875 25.03125v47.281254c18.857 0.36599 32.05747 1.6765 37.9375 3.21875 0.0238 0.006 0.0702 0.025 0.0937 0.0312 9.94545 2.76578 17.86239 7.60582 24.53125 15.09375h31.59375v-72.531254c-12.82231-6.612996-27.46266-11.210818-43.7187-13.93745-0.0574-0.01043-0.12999-0.02086-0.1875-0.03125-12.82779-2.316595-29.37944-3.598377-50.03869-4.008934l-0.21131 24.883934zm94.46875 65.937504v94.15625h54.46875c5.9589-16.20324 8.96856-33.76548 8.96875-52.4375-0.00025-14.56188-1.94586-28.51457-5.875-41.71875h-57.5625zm-38.4375 93.84375c-11.10955 8.0114-29.66215 13.40694-56.03125 14.46875v72.25c38.70047-0.96398 70.28607-7.33666 94.15625-20.15625v-66.5625h-38.125zm-241.09375 0.21875v94.15625h78.21875v-7.5h12.65625v-72.1875h-12.65625v-14.46875h-78.21875zm0 188.3125v57.59375c0.00034 2.96969 1.21261 5.93136 3.3125 8.03125s5.06156 3.31216 8.03125 3.3125h55.53125c2.96969-0.00034 5.93136-1.21261 8.03125-3.3125s3.31216-5.06156 3.3125-8.03125v-57.59375h-78.21875z" fill="#fff"/>
<path opacity=".25" style="color:#000000;text-indent:0;block-progression:tb;text-decoration-line:none;text-transform:none" d="m142.921 72.920556a11.345066 11.345066 0 0 0 -11.34375 11.34375v419.5625a11.345066 11.345066 0 0 0 11.34375 11.34375h55.5a11.345066 11.345066 0 0 0 11.34375 -11.34375v-159.21875h96.28125c60.91521 0.00017 105.39986-12.4151 131.4375-40.75 24.54634-26.71237 37.03087-60.16267 37.03125-98.25-0.00039-22.34127-4.59935-43.24942-13.875-62.21875-9.2028-18.81807-21.71176-34.00753-37.375-44.843754-15.51745-10.73399-34.40527-17.778716-56.21875-21.4375-0.0574-0.01043-0.12999-0.02086-0.1875-0.03125-15.9176-2.874586-37.56905-4.155825-65.6875-4.15625h-158.25zm11.34375 22.6875h146.90625c27.49503 0.000416 48.3613 1.36725 61.8125 3.8125a11.345066 11.345066 0 0 0 0.15625 0.0312c19.31888 3.220244 34.92333 9.244814 47.21875 17.750004 12.1939 8.43604 22.09534 20.24824 29.875 36.15625 7.70547 15.75819 11.59342 32.99601 11.59375 52.25-0.00034 33.27491-10.19754 60.20012-31.0625 82.90625-19.37498 21.0844-56.95264 33.40642-114.71875 33.40625h-107.625a11.345066 11.345066 0 0 0 -11.34375 11.34375v159.21875h-32.8125v-396.875zm44.15625 26.812504a11.345066 11.345066 0 0 0 -11.34375 11.34375v149.96875a11.345066 11.345066 0 0 0 11.34375 11.34375h108.46875c37.27941 0.00024 65.55179-6.55618 83.96875-22.875 17.62215-15.61457 26.40592-38.29021 26.40625-64.875-0.00033-19.46502-5.0517-37.11397-15.375-51.65625-10.23022-14.40943-24.46573-24.46948-41.3125-29.125a11.345066 11.345066 0 0 0 -0.0937 -0.0312c-11.78959-3.12732-29.16017-4.09338-54.71875-4.09375h-107.34375zm11.34375 22.6875h96c24.70328 0.00035 41.81106 1.49064 48.78125 3.3125 0.0312 0.008 0.0942 0.0231 0.125 0.0312 12.09166 3.36889 21.22976 9.79538 28.71875 20.34375 7.42116 10.45408 11.18723 22.88847 11.1875 38.53125-0.00027 21.88069-6.25654 36.77715-18.78125 47.875-11.73106 10.3946-34.4428 17.18772-68.90625 17.1875h-97.125v-127.28125z" fill="#fff"/>
</svg>
