<?xml version="1.0" encoding="UTF-8" standalone="no"?>
<svg xmlns:rdf="http://www.w3.org/1999/02/22-rdf-syntax-ns#" xmlns="http://www.w3.org/2000/svg" version="1.0" xmlns:cc="http://creativecommons.org/ns#" xmlns:dc="http://purl.org/dc/elements/1.1/" viewBox="0 0 576.44501 577.45154">
<defs>
<style type="text/css">.fil0 {fill:#EF7900}</style>
</defs>
<path d="m64.571 0.06355556c-41.335 0-64.571 21.371-64.571 65.036v450.123c0 40.844 20.894 62.229 62.192 62.229h452.024c41.307 0 62.229-20.316 62.229-62.229v-450.123c0-42.601-20.922-65.036-63.522-65.036-0.003 0-448.494-0.143-448.352 0z"/>
<path style="color-rendering:auto;text-decoration-color:#000000;color:#000000;isolation:auto;mix-blend-mode:normal;shape-rendering:auto;solid-color:#000000;block-progression:tb;text-decoration-line:none;text-decoration-style:solid;image-rendering:auto;white-space:normal;text-indent:0;text-transform:none" d="m143.65342 72.518212a11.345066 11.345066 0 0 0 -11.34375 11.34375v419.58399a11.345066 11.345066 0 0 0 11.34375 11.34375h55.52539a11.345066 11.345066 0 0 0 11.34375 -11.34375v-159.23828h96.27149c60.91521 0.00017 105.38618-12.39753 131.42383-40.73242 24.54633-26.71237 37.04844-60.17244 37.04882-98.25977-0.00038-22.34127-4.61302-43.25723-13.88867-62.22656-9.2028-18.81807-21.70395-34.00753-37.36719-44.843755-15.54284-10.751559-34.45171-17.795538-56.31054-21.449223-15.92664-2.886928-37.59581-4.177309-65.77149-4.177735h-158.27539zm66.86914 72.201178h95.98438c24.75569 0.00035 41.88831 1.50296 48.83008 3.33008 12.13045 3.36291 21.28006 9.80004 28.78515 20.37109 7.42116 10.45408 11.21458 22.86894 11.21485 38.51172-0.00028 21.88068-6.26436 36.79473-18.78907 47.89258-11.73105 10.3946-34.43108 17.18186-68.89453 17.18164h-97.13086v-127.28711z" fill="#fff"/>
</svg>
