<?xml version="1.0" encoding="UTF-8" standalone="no"?>
<svg xmlns:rdf="http://www.w3.org/1999/02/22-rdf-syntax-ns#" xmlns="http://www.w3.org/2000/svg" version="1.0" xmlns:cc="http://creativecommons.org/ns#" xmlns:dc="http://purl.org/dc/elements/1.1/" viewBox="0 0 576.44501 577.45154">
<defs>
<style type="text/css">.fil0 {fill:#EF7900}</style>
</defs>
<path d="m64.571 0.06355556c-41.335 0-64.571 21.371-64.571 65.036v450.123c0 40.844 20.894 62.229 62.192 62.229h452.024c41.307 0 62.229-20.316 62.229-62.229v-450.123c0-42.601-20.922-65.036-63.522-65.036-0.003 0-448.494-0.143-448.352 0z"/>
<path opacity=".75" style="color:#000000;text-indent:0;block-progression:tb;text-decoration-line:none;text-transform:none" d="m143.63975 72.514306c-2.96969 0.000344-5.93136 1.21261-8.03125 3.3125s-3.31216 5.061557-3.3125 8.03125v22.468754h35.34375v-33.812504h-24zm66.9375 0v32.281254h41.9375v-32.281254h-41.9375zm85.375 0v31.437504h41.9375v-30.500004c-10.57833-0.621737-22.50588-0.937297-35.96875-0.9375h-5.96875zm87.46875 7.5v22.375004h41.9375v-3.281254c-0.44747-0.32047-0.89101-0.65553-1.34375-0.96875-11.68631-8.083846-25.27424-14.096476-40.59375-18.125zm42.1875 21.281254v41.9375h35.90625c-0.0406-0.0835-0.0842-0.16656-0.125-0.25-8.34712-17.06835-19.42012-31.13026-33.09375-41.6875h-2.6875zm-172.34375 1.875v41.5625h41.9375v-41.5625h-41.9375zm86.59375 0.15625v41.9375h41.9375v-41.9375h-41.9375zm-171.46875 2.46875v41.9375h41.9375v-41.9375h-41.9375zm215.03125 38.53125v23.15625c0.22871 0.31047 0.46177 0.61955 0.6875 0.9375 3.81915 5.37997 6.68646 11.28673 8.5625 17.875h32.6875v-41.96875h-41.9375zm-251.125 3.9375v41.9375h35.34375v-41.9375h-35.34375zm334.78125 8.21875v28.71875h-41.46875v41.9375h41.9375v-40.78125h6.5625c-1.27365-10.34276-3.60565-20.32068-7.03125-29.875zm-298.6875 33.1875v41.9375h41.9375v-41.9375h-41.9375zm224.4375 38.5625c-1.96737 7.4184-5.11475 13.77047-9.40625 19.28125v22.65625h41.9375v-41.9375h-32.53125zm74.25 0.0625v27.21875c3.03778-8.69868 5.21097-17.79141 6.5625-27.21875h-6.5625zm-334.78125 3.84375v41.9375h35.34375v-41.9375h-35.34375zm293.3125 36.9375v41.9375h4.8125c2.75072-2.37047 5.35005-4.88555 7.78125-7.53125 9.62418-10.47344 17.38517-21.98197 23.28125-34.40625h-35.875zm-87.71875 0.8125c-5.48781 0.84654-11.41609 1.47494-17.875 1.8125h17.875v-1.8125zm1.96875 1.21875v41.9375h41.9375v-41.9375h-41.9375zm-129.28125 0.90625v0.5625h41.9375v-0.5625h-41.9375zm42.6875 0v40.84375h41.9375v-40.84375h-41.9375zm-84.875 1.53125v41.9375h41.9375v-41.9375h-41.9375zm215.03125 38.5625v23c16.35904-4.70846 30.37381-11.33752 41.9375-20.03125v-2.96875h-41.9375zm-87.46875 1.53125v30.5625h10.84375c10.89398 0.00003 21.26395-0.40621 31.09375-1.21875v-29.34375h-41.9375zm-85.375 0.875v29.6875h41.9375v-29.6875h-41.9375zm-78.28125 1.5v41.96875h35.34375v-41.96875h-35.34375zm36.09375 41.4375v41.9375h41.9375v-41.9375h-41.9375zm-36.09375 42.46875v41.9375h35.34375v-41.9375h-35.34375zm36.09375 41.40625v41.9375h41.9375v-41.9375h-41.9375zm-36.09375 42.46875v19.65625c0.00034 2.96969 1.21261 5.93136 3.3125 8.03125s5.06156 3.31216 8.03125 3.3125h24v-31h-35.34375z" fill="#fff"/>
<path opacity=".5" style="color:#000000;text-indent:0;block-progression:tb;text-decoration-line:none;text-transform:none" d="m143.6255 71.14063a11.345066 11.345066 0 0 0 -11.34375 11.3438v419.5937a11.345066 11.345066 0 0 0 11.34375 11.3438h55.53125a11.345066 11.345066 0 0 0 11.34375 -11.3438v-159.25h96.28125c60.9152 0.0002 105.3686-12.3838 131.40624-40.7187 24.54634-26.7124 37.06212-60.1939 37.0625-98.2813-0.00039-22.3412-4.59935-43.2494-13.875-62.2187-9.2028-18.8181-21.71176-34.0076-37.375-44.843804-15.51745-10.734-34.40527-17.7787-56.21875-21.4375-0.0574-0.01-0.12999-0.021-0.1875-0.031-15.9176-2.8746-37.56905-4.1559-65.68749-4.1563h-158.28125zm11.34375 22.687496h146.9375c27.49502 0.0004 48.36129 1.3673 61.81249 3.8125a11.345066 11.345066 0 0 0 0.15625 0.031c19.31888 3.220304 34.92333 9.244804 47.21875 17.750004 12.1939 8.4361 22.09534 20.2483 29.875 36.1563 7.70547 15.7582 11.59342 32.996 11.59375 52.25-0.00034 33.2749-10.19754 60.2313-31.0625 82.9375-19.37498 21.0844-56.95264 33.3751-114.71874 33.375h-107.625a11.345066 11.345066 0 0 0 -11.34375 11.3437v159.25h-32.84375v-396.9062zm44.1875 26.843804a11.345066 11.345066 0 0 0 -11.34375 11.3437v149.9688a11.345066 11.345066 0 0 0 11.34375 11.3437h108.46875c37.2794 0.0003 65.55178-6.5874 83.96874-22.9062 17.62215-15.6146 26.40592-38.2902 26.40625-64.875-0.00033-19.465-5.08295-37.0827-15.40625-51.625-10.23022-14.4095-24.43448-24.4695-41.28125-29.125a11.345066 11.345066 0 0 0 -0.0937 -0.031c-11.78959-3.1273-29.16017-4.0934-54.71874-4.0938h-107.34375zm11.34375 22.6875h96c24.72938 0.0003 41.82519 1.488 48.78124 3.3125 0.0238 0.01 0.0702 0.025 0.0937 0.031 12.10617 3.3666 21.22373 9.7869 28.71875 20.3437 7.42116 10.4541 11.21848 22.8572 11.21875 38.5-0.00027 21.8807-6.25654 36.8084-18.78125 47.9063-11.73106 10.3946-34.4428 17.1877-68.90624 17.1875h-97.125v-127.2813z" fill="#fff"/>
</svg>
