<?xml version="1.0" encoding="UTF-8" standalone="no"?>
<svg xmlns:rdf="http://www.w3.org/1999/02/22-rdf-syntax-ns#" xmlns="http://www.w3.org/2000/svg" version="1.0" xmlns:cc="http://creativecommons.org/ns#" xmlns:dc="http://purl.org/dc/elements/1.1/" viewBox="0 0 576.44501 577.45154">
<path d="m64.571 0.06355556c-41.335 0-64.571 21.371-64.571 65.036v450.123c0 40.844 20.894 62.229 62.192 62.229h452.024c41.307 0 62.229-20.316 62.229-62.229v-450.123c0-42.601-20.922-65.036-63.522-65.036-0.003 0-448.494-0.143-448.352 0z"/>
<path style="color-rendering:auto;text-decoration-color:#000000;color:#000000;isolation:auto;mix-blend-mode:normal;shape-rendering:auto;solid-color:#000000;block-progression:tb;text-decoration-line:none;text-decoration-style:solid;image-rendering:auto;white-space:normal;text-indent:0;text-transform:none" d="m201.24131 37.943994c-1.06561-0.01242-2.13205-0.0036-3.19922 0.02734-50.17764-0.275663-91.40672 50.868837-80.80664 99.888676 7.0383 40.72844 45.8947 73.79725 88.1211 69.70508 27.49909-1.73241 52.83902-17.69382 67.07422-40.94726 3.81836-2.65386 8.98727-2.39781 16.11328-1.75586 7.42143 0.66855 17.03178 1.5696 24.85547-5.15821a5.7884258 5.7884258 0 0 0 0.38867 -0.36523c7.9817-8.25912 13.94083-17.08027 21.62695-20.65235 2.2412 1.0363 4.33293 2.69503 6.70313 5.26563 2.88883 3.1331 6.00499 7.2079 10.9082 10.19336a5.7884258 5.7884258 0 0 0 6.13281 -0.0703c5.06645-3.24596 8.11887-7.70155 11.03906-10.75196 2.33991-2.44424 4.08248-3.80341 6.19922-4.25781 5.00544 3.67472 9.45715 10.31267 17.125 15.42383a5.7884258 5.7884258 0 0 0 6.33008 0.0586c5.20882-3.33274 8.39996-7.94626 11.47656-11.15625 2.51298-2.62193 4.43567-4.09552 6.74414-4.57031 2.16797 1.53903 4.33934 3.68602 6.83399 6.35352 2.96994 3.17571 6.44773 6.89462 11.64844 9.1289a5.7884258 5.7884258 0 0 0 6.16015 -1.01953c10.73667-9.68362 21.97407-19.89914 31.33203-31.92773a5.7884258 5.7884258 0 0 0 1.21875 -3.58203c-0.0293-5.85948-3.81807-9.7646-6.7832-12.43555s-5.64892-4.85152-6.50195-6.150394a5.7884258 5.7884258 0 0 0 -1.00782 -1.164067c-2.91635-2.573835-6.31315-7.171765-10.83789-11.210955-4.41875-3.944589-10.94962-7.414466-18.51367-6.019531-14.65528 1.143503-30.27889-0.407809-46.32617 0.220703-37.19251-0.01498-74.481 0.832423-111.14453-0.863281-8.02554-7.795395-13.9615-21.105309-27.99609-28.265625-13.1958-8.733247-28.92985-13.755121-44.91407-13.941406zm-36.56836 63.324226c0.45704 0.01 0.91691 0.0375 1.38086 0.084a5.7884258 5.7884258 0 0 0 0.72071 0.0254c17.072-0.42509 27.94473 25.37847 15.54882 37.15235a5.7884258 5.7884258 0 0 0 -0.29882 0.30468c-10.10865 11.12465-33.22939 7.48757-37.46485-7.38672a5.7884258 5.7884258 0 0 0 -0.10937 -0.34179c-4.60289-13.04127 6.05438-30.13335 20.22265-29.83789zm49.19336 136.2207c-23.77468 0-36.38655 12.97898-42.20898 28.17187l-30.90821 79.80469c-12.25216 1.57106-33.9707 15.9545-33.9707 43.19922v101.48438h30.08203v32.45703c0 39.9302 56.50975 39.45993 56.50977 0v-32.45703h101.65234 0.0312 101.65235v32.45703c0 39.45993 56.50944 39.9302 56.50976 0v-32.45703h30.08203v-101.48438c0-27.2447-21.71832-41.62816-33.9707-43.19922l-30.94141-79.80469c-5.82241-15.19289-18.43412-28.17187-42.20898-28.17187h-43.69141-74.40039-44.21875zm-0.36328 29.0625h81.45313 0.0664 0.0312 81.48633c10.18867 0.0949 14.55169 6.46688 17.46289 15.28906l23.29688 62.80274h-122.2461-0.0312-0.0664-122.21289l23.29687-62.80274c2.91123-8.82218 7.27315-15.19418 17.46289-15.28906zm-47.48047 108.63476c14.41684 0 26.09571 12.03003 26.09571 26.88868-0.00001 14.85969-11.67887 26.91992-26.09571 26.91992-14.41579 0-26.09765-12.06024-26.09765-26.91992 0-14.85862 11.68186-26.88868 26.09765-26.88868zm258.03125 0c14.41686 0 26.09775 12.03006 26.09766 26.88868 0 14.85968-11.6808 26.91992-26.09766 26.91992-14.41578 0-26.1289-12.06023-26.1289-26.91992 0-14.85865 11.71312-26.88867 26.1289-26.88868z" fill="#fff"/>
</svg>
