<?xml version="1.0" encoding="UTF-8" standalone="no"?>
<svg xmlns:rdf="http://www.w3.org/1999/02/22-rdf-syntax-ns#" xmlns="http://www.w3.org/2000/svg" version="1.0" xmlns:cc="http://creativecommons.org/ns#" xmlns:dc="http://purl.org/dc/elements/1.1/" viewBox="0 0 576.44501 577.45154">
<path d="m64.571 0.06355556c-41.335 0-64.571 21.371-64.571 65.036v450.123c0 40.844 20.895 62.229 62.192 62.229h452.024c41.307 0 62.229-20.315 62.229-62.229v-450.123c0-42.601-20.922-65.036-63.521-65.036-0.004 0-448.495-0.143-448.353 0z"/>
<path fill="#fff" d="m316.0753 18.795556a6.1784351 6.1784351 0 0 0 -4.18555 1.806641l-73.82422 73.822265c-73.95118 20.639858-130.99063 82.168098-145.12305 158.5879h-66.83789a6.1784351 6.1784351 0 0 0 -4.367188 10.54687l73.253906 73.25586c18.163808 76.79999 80.038718 136.859 157.81836 152.37305v66.8457a6.1784351 6.1784351 0 0 0 10.54688 4.36914l71.77734-71.77734c78.11398-16.69836 139.7-78.42836 156.18359-156.6211h65.85157a6.1784351 6.1784351 0 0 0 4.36914 -10.54687l-69.43555-69.43555c-16.02019-84.2705-84.25224-150.23456-169.66602-162.85156v-64.201172a6.1784351 6.1784351 0 0 0 -6.36132 -6.173828zm6.36132 96.845704c71.0324 12.00975 127.52823 66.20412 142.91797 136.01368l-69.01757 69.82812a6.1784351 6.1784351 0 0 0 4.39257 10.52148h63.79883c-15.77427 65.08332-67.43518 115.98155-132.94726 130.65235l-68.25-67.45703a6.1784351 6.1784351 0 0 0 -4.47071 -1.78125 6.1784351 6.1784351 0 0 0 -6.05078 6.17578v62.8789c-65.50433-15.00697-117.01902-66.2752-132.38867-131.63867l66.51758-67.30078a6.1784351 6.1784351 0 0 0 -4.39453 -10.52148h-62.95899c13.68518-64.49059 62.39516-115.88002 125.36524-133.39649l66.96484 66.1875a6.1784351 6.1784351 0 0 0 10.52148 -4.39453v-65.76758zm-29.81835 98.14063a76.262909 76.262909 0 0 0 -76.26368 76.26367 76.262909 76.262909 0 0 0 76.26368 76.26172 76.262909 76.262909 0 0 0 76.26171 -76.26172 76.262909 76.262909 0 0 0 -76.26171 -76.26367z"/>
</svg>
