<?xml version="1.0" encoding="UTF-8" standalone="no"?>
<svg xmlns:rdf="http://www.w3.org/1999/02/22-rdf-syntax-ns#" xmlns="http://www.w3.org/2000/svg" version="1.0" xmlns:cc="http://creativecommons.org/ns#" xmlns:dc="http://purl.org/dc/elements/1.1/" viewBox="0 0 576.44501 577.45154">
<defs>
<style type="text/css">.fil0 {fill:#EF7900}</style>
</defs>
<path d="m64.571 0.06355556c-41.335 0-64.571 21.371-64.571 65.036v450.123c0 40.844 20.894 62.229 62.192 62.229h452.024c41.307 0 62.229-20.316 62.229-62.229v-450.123c0-42.601-20.922-65.036-63.522-65.036-0.003 0-448.494-0.143-448.352 0z"/>
<path d="m237.94242 193.6003h-28.07428c-34.28655 0-61.61356 28.07189-61.61356 62.3592v126.95323c0 27.42951 17.61437 50.46896 42.23507 58.63217v19.62729h21.86289v-15.65222h152.79188v15.65222h21.86289v-18.8816c25.71705-7.5828 44.47061-31.1192 44.47061-59.37786v-126.95323c0-34.28731-27.32622-62.3592-61.61348-62.3592h-32.04855-99.87347zm75.0293 0h-49.93712 49.93712zm-117.01635 30.30985h183.10176c13.04142 0 24.34729 10.3121 24.34729 23.35349v86.45764c0 13.04138-11.30587 23.35351-24.34729 23.35351h-183.10176c-13.04138 0-24.09844-10.31213-24.09844-23.35351v-86.45764c0-13.04139 11.05706-23.35349 24.09844-23.35349zm6.70833 150.80438c10.75893 0 19.37841 8.86756 19.37841 19.62649 0 10.75886-8.61948 19.37841-19.37841 19.37841s-19.37841-8.61955-19.37841-19.37841c0-10.75893 8.61948-19.62649 19.37841-19.62649zm169.68515 0c10.75886 0 19.62728 8.86756 19.62728 19.62649 0 10.75886-8.86842 19.37841-19.62728 19.37841-10.75892 0-19.37848-8.61955-19.37848-19.37841 0-10.75893 8.61956-19.62649 19.37848-19.62649z" fill="#fff"/>
<path opacity=".5" style="color-rendering:auto;text-decoration-color:#000000;color:#000000;isolation:auto;mix-blend-mode:normal;shape-rendering:auto;solid-color:#000000;block-progression:tb;text-decoration-line:none;text-decoration-style:solid;image-rendering:auto;white-space:normal;text-indent:0;text-transform:none" d="m51.362406 36.811181v39.75h477.00781v-39.75h-477.00781zm238.5039 61.275391c-124.89513-0.000003-226.58789 101.69276-226.58789 226.5879 0 124.89513 101.69276 226.58789 226.58789 226.58789s226.58789-101.69276 226.58789-226.58789-101.69276-226.5879-226.58789-226.5879zm0 41.539068c102.44565 0 185.04883 82.60317 185.04883 185.04883 0 102.44565-82.60318 185.04882-185.04883 185.04882-102.44565 0.00001-185.04883-82.60317-185.04883-185.04882 0-102.44566 82.60318-185.04883 185.04883-185.04883z" fill="#fff"/>
</svg>
