<?xml version="1.0" encoding="UTF-8" standalone="no"?>
<svg xmlns:rdf="http://www.w3.org/1999/02/22-rdf-syntax-ns#" xmlns="http://www.w3.org/2000/svg" version="1.0" xmlns:cc="http://creativecommons.org/ns#" xmlns:dc="http://purl.org/dc/elements/1.1/" viewBox="0 0 576.44501 577.45154">
<path d="m64.571 0.06355556c-41.335 0-64.571 21.371-64.571 65.036v450.123c0 40.844 20.895 62.229 62.192 62.229h452.024c41.307 0 62.229-20.315 62.229-62.229v-450.123c0-42.601-20.922-65.036-63.521-65.036-0.004 0-448.495-0.143-448.353 0z"/>
<circle opacity=".6" cx="292.7616" cy="117.9781" r="87.460312" fill="#fff"/>
<circle opacity=".2" cx="292.7616" cy="289.97809" r="87.460312" fill="#fff"/>
<circle opacity=".3" cx="292.7616" cy="459.97809" r="87.460312" fill="#fff"/>
<path style="color:#000000;text-indent:0;block-progression:tb;text-decoration-line:none;text-transform:none" d="m294.43077 12.125634c-1.18461-0.01267-2.36393 0.0026-3.5293 0.03125-51.99153-0.07654-99.20199 43.921847-101.84961 96.048836-0.00028 0.005 0.00028 0.009 0 0.0137-1.60709 25.95632 0.15437 51.6792-0.51172 77.06445v0.0566 0.0566c0.21249 95.82593-0.63779 191.71145 0.50391 287.61133l0.002 0.15625 0.0137 0.15625c4.3319 47.83607 44.91369 88.96238 92.91211 93.24609 45.26312 5.05687 91.69758-21.96995 108.04102-64.77734 8.62628-20.84953 8.41713-43.33938 7.70312-64.57812v-0.0234c-0.27331-110.29287 0.62327-220.64006-0.53515-331l-0.002-0.16016-0.0137-0.1582c-4.29855-47.520549-44.32303-88.475855-92.00391-93.068365-3.56006-0.405064-7.13451-0.637318-10.73046-0.675781zm-0.0723 32.972656c40.4635 0 73.20117 32.737658 73.20117 73.20118 0 40.4635-32.73581 73.17382-73.20117 73.17382s-73.17187-32.70847-73.17188-73.17382c0-40.465377 32.70838-73.20118 73.17188-73.20118zm0 170.83594c40.4635 0 73.20117 32.73767 73.20117 73.20117 0 40.46351-32.73581 73.17188-73.20117 73.17188s-73.17187-32.70652-73.17188-73.17188c0-40.46535 32.70838-73.20117 73.17188-73.20117zm0 170.83399c40.4635 0 73.20117 32.73962 73.20117 73.20312s-32.73581 73.17188-73.20117 73.17188-73.17187-32.70652-73.17188-73.17188c0-40.46536 32.70838-73.20312 73.17188-73.20312z" fill="#fff"/>
</svg>
