<?xml version="1.0" encoding="UTF-8" standalone="no"?>
<svg xmlns:rdf="http://www.w3.org/1999/02/22-rdf-syntax-ns#" xmlns="http://www.w3.org/2000/svg" version="1.0" xmlns:cc="http://creativecommons.org/ns#" xmlns:dc="http://purl.org/dc/elements/1.1/" viewBox="0 0 576.44501 577.45154">
<path d="m64.571 0.06355556c-41.335 0-64.571 21.371-64.571 65.036v450.123c0 40.844 20.895 62.229 62.192 62.229h452.024c41.307 0 62.229-20.315 62.229-62.229v-450.123c0-42.601-20.922-65.036-63.521-65.036-0.004 0-448.495-0.143-448.353 0z"/>
<path style="color-rendering:auto;text-decoration-color:#000000;color:#000000;isolation:auto;mix-blend-mode:normal;shape-rendering:auto;solid-color:#000000;block-progression:tb;text-decoration-line:none;image-rendering:auto;white-space:normal;text-indent:0;text-transform:none;text-decoration-style:solid" fill-rule="evenodd" fill="#fff" d="m91.649516 77.701806c-6.906564 0-12.595917 3.090187-16.59375 7.220703s-6.655543 9.171463-8.990235 13.955077l-0.06445 0.13281-0.05859 0.13868c-18.378768 44.177544-37.418195 77.559214-44.289069 138.86328l-0.02344 0.19531-0.0059 0.19727c-1.397274 42.53786-3.519046 84.85788-2.964844 128.63085 0.01129 14.82233 8.082339 31.66883 19.292969 45.45704 11.21839 13.79775 25.734805 24.84958 40.947266 24.84961h485.31446v-57.10352l-2.85938-0.69727v-33.5664l2.85938 0.55078v-23.18555l-3.48047-1.10937c-98.2851-31.3083-180.63343-94.45302-226.3359-206.88477l-0.0254-0.0645c-8.5707-21.907699-26.2535-36.036108-48.88672-37.568369l-0.16992-0.01172h-193.66601zm-1.185547 38.583984c0.0013 0.002-0.01073 0.0114-0.02344 0.0195h186.64258c-0.05 0 0.28895-0.0249 1.1875 0.76757s2.1303 2.30811 3.39453 4.37696c2.52846 4.1377 5.23374 10.40255 7.83008 17.46289 5.18877 14.11003 10.03356 31.36987 14.5625 43.48242 0.95543 2.60769 1.13985 6.9233 0.4375 9.92578-0.35118 1.50124-0.92447 2.65075-1.26758 3.08789-0.0897 0.11431-0.0459 0.0854-0.0586 0.11524h-242.78321c0.145471 0.18062-0.116685-0.00001-0.199219 0h0.199219c-0.01228-0.0153-0.0086-0.0161-0.02734-0.0371-0.240678-0.2696-0.748749-1.12249-1.095703-2.41602-0.677442-2.52566-0.715531-6.54548 0.1875-10.30859 6.061122-12.13503 12.233-29.1673 18.162109-43.28711 3.022002-7.19671 5.991819-13.615 8.607422-17.92383 1.307802-2.15442 2.548546-3.76995 3.41211-4.60742 0.457941-0.44411 0.737462-0.59321 0.808593-0.63867h-0.341797c0.24418 0 0.360107-0.0288 0.365235-0.0195zm265.31641 108.38868c10.08343 10.67336 20.57788 22.41176 30.88476 29.83398v70.48438l-27.26562-12.49024c-2.82364-28.82795-3.3755-58.25753-3.61914-87.82812zm61.98046 56.52929c9.30315 7.18938 15.85102 11.05634 24.89258 17.49805l0.46094 52.00391-25.31055-10.60743c-0.5353-25.53655-0.10777-36.75245-0.043-58.89453zm-336.43945 18.28907h0.002c0.04368-0.002 0.332451 0.006 0.882812 0.006 9.575689 0.0001 17.228517 7.62727 17.228517 17.19336 0.00015 9.56604-7.66249 17.22657-17.228517 17.22657-9.565715 0.00007-17.226562-7.66059-17.226562-17.22657 0.000115-9.26545 7.214798-16.73785 16.341797-17.19921zm183.4707 0c0.0437-0.002 0.33441 0.006 0.88477 0.006 9.57576 0.0001 17.22656 7.62725 17.22656 17.19336 0.00018 9.56602-7.66055 17.22657-17.22656 17.22657-9.56564 0.00007-17.22656-7.6606-17.22656-17.22657 0.00017-9.26549 7.21481-16.73785 16.34179-17.19921zm206.10352 15.05664 24.56445 10.01757v42.01172c-8.98556-1.36883-17.24843-3.66859-24.56445-7.17968v-44.84961zm48.86523 19.99804 17.46485 4.49219v36.98047c-6.03643-0.48004-11.90894-1.29271-17.46485-3.06641v-38.40625zm-278.55078 109.16797v22.91602h-101.86718v-22.84766h-69.507819v23.12305h-46.142578l-0.06836 32.53125h324.72461c45.69412-20.58096 125.52463-46.52954 210.86524-50.11914v-5.60352h-318.00391z"/>
</svg>
