<?xml version="1.0" encoding="UTF-8" standalone="no"?>
<svg xmlns:rdf="http://www.w3.org/1999/02/22-rdf-syntax-ns#" xmlns="http://www.w3.org/2000/svg" version="1.0" xmlns:cc="http://creativecommons.org/ns#" xmlns:dc="http://purl.org/dc/elements/1.1/" viewBox="0 0 576.44501 577.45154">
<path d="m64.571 0.06355556c-41.335 0-64.571 21.371-64.571 65.036v450.123c0 40.844 20.895 62.229 62.192 62.229h452.024c41.307 0 62.229-20.315 62.229-62.229v-450.123c0-42.601-20.922-65.036-63.521-65.036-0.004 0-448.495-0.143-448.353 0z"/>
<path opacity=".2" style="color-rendering:auto;text-decoration-color:#000000;color:#000000;isolation:auto;mix-blend-mode:normal;shape-rendering:auto;solid-color:#000000;block-progression:tb;text-decoration-line:none;image-rendering:auto;white-space:normal;text-indent:0;text-transform:none;text-decoration-style:solid" fill="#fff" d="m291.23155 118.5104c-70.04416 0-133.45435 9.52776-179.90625 25.21289-23.22596 7.84257-42.232525 17.1885-55.847659 28.0586-13.615135 10.8701-22.169922 23.77002-22.169922 38.05469 0 11.55839 5.681178 22.33151 14.980469 31.64843 9.299289 9.31693 22.310201 17.52386 38.359374 24.80664 25.078318 11.38003 57.728148 20.4211 95.275388 26.47266l-81.50976 191.50781a6.3899684 6.3899684 0 0 0 5.8789 8.89063h373.48243a6.3899684 6.3899684 0 0 0 5.96484 -8.67774l-74.27539-193.59765c32.95732-5.98821 61.76235-14.33244 84.37305-24.59571 16.04477-7.28291 29.05186-15.49143 38.34765-24.80859s14.97266-20.08911 14.97266-31.64648c0-14.28467-8.55479-27.18459-22.16992-38.05469-13.61514-10.8701-32.62171-20.21603-55.84766-28.0586-46.45191-15.68513-109.86405-25.21289-179.9082-25.21289z"/>
<path style="color-rendering:auto;text-decoration-color:#000000;color:#000000;isolation:auto;mix-blend-mode:normal;shape-rendering:auto;solid-color:#000000;block-progression:tb;text-decoration-line:none;image-rendering:auto;white-space:normal;text-indent:0;text-transform:none;text-decoration-style:solid" fill="#fff" d="m291.23936 115.5729c-70.31137 0-133.96475 9.5375-180.8457 25.36914-23.440487 7.91583-42.718316 17.35164-56.740238 28.54688s-23.271484 24.88797-23.271484 40.34375c-0.000001 11.23746 5.010898 21.75703 13.007812 30.72656s19.019016 16.77322 32.519531 23.78516c23.779289 12.35056 55.414379 22.22673 92.435549 29.09961l-81.734377 203.13672a11.646319 11.646319 0 1 0 21.607427 8.69336l85.91601-213.52735a11.646319 11.646319 0 0 0 -11.12109 -16.13867 11.646319 11.646319 0 0 0 -3.91407 0.82812c-38.96904-6.69024-71.80644-16.78754-94.601558-28.62695-12.119565-6.2947-21.351307-13.08709-27.201172-19.64844-5.849865-6.56134-8.28125-12.51068-8.28125-18.32812 0-8.0012 4.828219-16.65303 16.263672-25.7832 11.435452-9.13018 28.996615-17.99884 51.076168-25.45508 44.15913-14.91248 106.27365-24.39063 174.88477-24.39063s130.7276 9.47815 174.88672 24.39063c22.07956 7.45624 39.64072 16.3249 51.07617 25.45508 11.43545 9.13017 16.26367 17.782 16.26367 25.7832 0 11.41239-10.75807 24.83778-34.10351 37.25195-22.00078 11.69915-53.79326 21.76768-91.63868 28.58789a11.646319 11.646319 0 0 0 -1.24023 -0.0723 11.646319 11.646319 0 0 0 -5.08789 1.17187c-0.2259 0.0379-0.44558 0.0795-0.67188 0.11719a9.3170556 9.3170556 0 0 0 -4.36132 16.4707l85.26757 211.91407a11.646319 11.646319 0 1 0 21.60743 -8.69336l-82.26758-204.45895c34.87289-6.95363 64.64911-16.62584 87.14062-28.58594 25.38591-13.49921 42.85408-30.71405 43.80664-51.92187a9.3170556 9.3170556 0 0 0 0.18164 -1.78125c0-15.45578-9.24956-29.14851-23.27148-40.34375s-33.29976-20.63105-56.74023-28.54688c-46.88096-15.83164-110.5363-25.36914-180.84766-25.36914zm-3.19336 156.66016-2 33.59375h12.84375l-2-33.59375h-8.84375zm-4 75.3125-2 53.75h20.84375l-2-53.75h-16.84375zm-4 99.46875-2 55.75h28.84375l-2-55.75h-24.84375z"/>
</svg>
