<?xml version="1.0" encoding="UTF-8" standalone="no"?>
<svg xmlns:rdf="http://www.w3.org/1999/02/22-rdf-syntax-ns#" xmlns="http://www.w3.org/2000/svg" version="1.0" xmlns:cc="http://creativecommons.org/ns#" xmlns:dc="http://purl.org/dc/elements/1.1/" viewBox="0 0 576.44501 577.45154">
<path d="m64.571 0.06355556c-41.335 0-64.571 21.371-64.571 65.036v450.123c0 40.844 20.895 62.229 62.192 62.229h452.024c41.307 0 62.229-20.315 62.229-62.229v-450.123c0-42.601-20.922-65.036-63.521-65.036-0.004 0-448.495-0.143-448.353 0z"/>
<path style="color-rendering:auto;text-decoration-color:#000000;color:#000000;isolation:auto;mix-blend-mode:normal;shape-rendering:auto;solid-color:#000000;block-progression:tb;text-decoration-line:none;image-rendering:auto;white-space:normal;text-indent:0;text-transform:none;text-decoration-style:solid" fill="#fff" d="m302.80967 33.543603c-1.33856 0.02806-2.69009 0.113188-4.04883 0.238281-40.13237 2.803186-55.39491 57.154238-22.76367 80.492196 31.35424 24.02733 78.16943-4.72223 70.69336-43.695321-3.55001-20.519576-19.80222-35.318709-39.91211-36.929687-1.30458-0.104509-2.63018-0.133526-3.96875-0.105469zm-32.0957 95.322267a50.010353 50.010353 0 0 0 -2.02539 0.0332 50.010353 50.010353 0 0 0 -17.96875 4.12695 21.972204 21.972204 0 0 0 -7.68164 3.78906l-69.56836 52.08008a21.972204 21.972204 0 0 0 -7.91016 11.39062l-21.9707 74.73438a21.972204 21.972204 0 1 0 42.15625 12.39258l19.9082-67.72266 7.83594-5.86523-11.30664 63.00781a30.397128 30.397128 0 0 0 -1.61719 10.78906l2.19336 117.72266a30.397128 30.397128 0 0 0 0.0684 1.25586l-46.37699 100.14454a30.536054 30.536054 0 1 0 55.41406 25.66211l50.45117-108.94922a30.536054 30.536054 0 0 0 1.13672 -23.75586l-0.99023-53.13477 41.86132 57.76563a30.397128 30.397128 0 0 0 2.28516 2.82617l13.70312 113.5586a27.835951 27.835951 0 1 0 55.26563 -6.66993l-15.35547-127.22851a27.835951 27.835951 0 0 0 -1.16601 -5.52344 30.397128 30.397128 0 0 0 -5.50977 -12.63281l-53.08789-73.26172 8.16211-45.49219a21.972204 21.972204 0 0 0 1.45898 1.41797l46.38282 40.01563a21.972204 21.972204 0 1 0 28.70312 -33.26954l-42.54492-36.70312-23.875-55.66406a50.010353 50.010353 0 0 0 -48.03125 -36.83985z"/>
</svg>
