<?xml version="1.0" encoding="UTF-8" standalone="no"?>
<svg xmlns:rdf="http://www.w3.org/1999/02/22-rdf-syntax-ns#" xmlns="http://www.w3.org/2000/svg" version="1.0" xmlns:cc="http://creativecommons.org/ns#" xmlns:dc="http://purl.org/dc/elements/1.1/" viewBox="0 0 576.44501 577.45154">
<path d="m64.571 0.06355556c-41.335 0-64.571 21.371-64.571 65.036v450.123c0 40.844 20.895 62.229 62.192 62.229h452.024c41.307 0 62.229-20.315 62.229-62.229v-450.123c0-42.601-20.922-65.036-63.521-65.036-0.004 0-448.495-0.143-448.353 0z"/>
<path opacity=".2" d="m35.445451 369.03425c-0.08571-1.02565 69.224709 24.16161 69.224709 24.16161l-43.502553 31.94493 55.828283 35.65946-54.234861 16.13949 55.727091 34.90236 52.38012-14.94517 13.31213 21.12122 54.45406 17.90259 92.45979-6.28331 57.50355-17.7402 70.88798 8.26257 15.72334-15.80953 31.85972-4.17604 34.077-28.23041-37.70221-52.74628-123.9823-46.80303 127.60751-28.2304-55.82829-14.11519-95.70561 0.74289-107.30633 9.65778-71.05416-2.22873-25.37649 12.6294s-94.203086 15.23888-116.35248 18.18399" fill-rule="evenodd" fill="#fff"/>
<path style="color-rendering:auto;text-decoration-color:#000000;color:#000000;isolation:auto;mix-blend-mode:normal;shape-rendering:auto;solid-color:#000000;block-progression:tb;text-decoration-line:none;image-rendering:auto;white-space:normal;text-indent:0;text-transform:none;text-decoration-style:solid" fill-rule="evenodd" fill="#fff" d="m258.62022 29.129546a7.7425101 7.7425101 0 0 0 -7.74024 7.75l0.0332 34.74414-78.83985-20.47071a7.4665311 7.4665311 0 0 0 -2.21875 -0.23047 7.4665311 7.4665311 0 0 0 -3.98632 1.375l-17.99219 12.8125a7.4665311 7.4665311 0 0 0 -2.125 9.83204l17.3789 29.912104a7.4665311 7.4665311 0 0 0 4.50977 3.45703l83.33008 22.50586 0.004 5.05274-122.39257 32.63672a7.7851627 7.7851627 0 0 0 -3.98243 2.54492l-28.751949 34.59375a7.7851627 7.7851627 0 0 0 2.142578 11.74414l28.078121 15.94727a7.7851627 7.7851627 0 0 0 6.22071 0.64453l118.74219-38.06836 0.1289 134.47656-3.2168 0.28906-70.46289-2.21093a9.7585632 9.7585632 0 0 0 -4.65234 1.01757l-24.04297 11.96485c-2.67184 0.43156-92.844311 14.99399-114.25195 17.85547-0.04834 0.005-0.02752-0.007-0.07813-0.002-0.460073 0.0492-1.115468 0.14931-1.931641 0.40625a9.7585632 9.7585632 0 0 0 -3.447265 16.83789 9.7585632 9.7585632 0 0 0 0.392578 0.3125 9.7585632 9.7585632 0 0 0 0.1875 0.14453 9.7585632 9.7585632 0 0 0 5.177734 1.89454c0.255472 0.076 0.316271 0.0874 0.648438 0.1914 1.723328 0.53933 4.384677 1.42456 7.587891 2.51953 6.406424 2.18994 15.042725 5.23516 23.68164 8.3125 8.680879 3.0923 10.879772 3.90634 17.376953 6.25196l-28.736329 21.10156a9.7585632 9.7585632 0 0 0 0.523438 16.08789l37.841797 24.17187-33.779297 10.05079a9.7585632 9.7585632 0 0 0 -2.396485 17.62304l55.728507 34.90235a9.7585632 9.7585632 0 0 0 7.85547 1.11328l45.34766-12.93946 9.41211 14.93555a9.7585632 9.7585632 0 0 0 5.20703 4.06641l54.45508 17.90234a9.7585632 9.7585632 0 0 0 3.7089 0.46489l92.45898-6.28321a9.7585632 9.7585632 0 0 0 2.21485 -0.41015l55.54101-17.13477 68.84571 8.02539a9.7585632 9.7585632 0 0 0 8.04687 -2.8125l13.375-13.44726 28.5586-3.74415a9.7585632 9.7585632 0 0 0 4.95703 -2.16015l34.07617-28.23047a9.7585632 9.7585632 0 0 0 1.71289 -13.1875l-37.70117-52.74609a9.7585632 9.7585632 0 0 0 -4.49219 -3.45508l-93.31641-35.22656 95.60352-21.1504a9.7585632 9.7585632 0 0 0 0.2832 -18.98828l-55.82812-14.11523a9.7585632 9.7585632 0 0 0 -2.4668 -0.29688l-95.70508 0.74219a9.7585632 9.7585632 0 0 0 -0.80078 0.0391l-50.55664 4.55078v-139.13281l113.20703 21.77735a7.7851627 7.7851627 0 0 0 6.10547 -1.38868l25.00781-18.5332a7.7851627 7.7851627 0 0 0 1.4375 -11.12695l-25.68359-32.00781a7.7851627 7.7851627 0 0 0 -5.07031 -2.84766l-115.00391-14.91016v-2.72265l81.88281-22.11328a7.4665311 7.4665311 0 0 0 4.50977 -3.457044l17.3789-29.91406a7.4665311 7.4665311 0 0 0 -2.125 -9.83203l-17.99218-12.81058a7.4665311 7.4665311 0 0 0 -4.18946 -1.38282 7.4665311 7.4665311 0 0 0 -2.01562 0.23828l-77.44922 20.10938v-28.69727a7.7425101 7.7425101 0 0 0 -7.74219 -7.74218h-37.74023zm191.44336 310.68554 14.69726 3.7168-87.4082 19.33594a9.7585632 9.7585632 0 0 0 -1.33789 18.65625l121.21289 45.75586 30.69727 42.94531-24.91407 20.64062-29.07031 3.8086a9.7585632 9.7585632 0 0 0 -5.65039 2.79492l-12.38086 12.44922-66.18164-7.71289a9.7585632 9.7585632 0 0 0 -4.00586 0.36718l-56.41992 17.40625-89.42969 6.07813-49.30859-16.21289-11.44141-18.15039a9.7585632 9.7585632 0 0 0 -10.93164 -4.17969l-48.20312 13.75391-33.746098-21.13477 33.537108-9.98047a9.7585632 9.7585632 0 0 0 2.4707 -17.57617l-43.830073-27.99609 32.027343-23.51954a9.7585632 9.7585632 0 0 0 -2.44336 -17.0371s-15.946783-5.77514-31.654296-11.38868c35.489846-5.51613 77.007816-12.15234 77.007816-12.15234a9.7585632 9.7585632 0 0 0 2.78906 -0.89648l23.17773-11.53516 68.59961 2.15039a9.7585632 9.7585632 0 0 0 1.17969 -0.0332l2.07422-0.1875 0.0957 100.21093a7.7425101 7.7425101 0 0 0 7.74219 7.73438h37.3457a7.7425101 7.7425101 0 0 0 7.74219 -7.74219v-104.96679l51.9082-4.67188 94.05274-0.73047z"/>
</svg>
