<?xml version="1.0" encoding="UTF-8" standalone="no"?>
<svg xmlns:rdf="http://www.w3.org/1999/02/22-rdf-syntax-ns#" xmlns="http://www.w3.org/2000/svg" version="1.0" xmlns:cc="http://creativecommons.org/ns#" xmlns:dc="http://purl.org/dc/elements/1.1/" viewBox="0 0 576.44501 577.45154">
<defs>
<style type="text/css">.fil0 {fill:#EF7900}</style>
</defs>
<path d="m64.571 0.06355556c-41.335 0-64.571 21.371-64.571 65.036v450.123c0 40.844 20.894 62.229 62.192 62.229h452.024c41.307 0 62.229-20.316 62.229-62.229v-450.123c0-42.601-20.922-65.036-63.522-65.036-0.003 0-448.494-0.143-448.352 0z"/>
<path opacity=".1" d="m32.998986 406.42993c2.367196-5.48093 32.404879-47.87543 66.750284-94.2099 49.25528-66.44891 74.61409-89.47895 120.04961-109.0248 71.12554-30.59742 142.32874-32.35525 168.26002-4.15402 61.33558 66.70455 124.63054 142.87846 142.85807 171.92632 34.40213 55.71502-22.68994 62.23235-174.08769 65.9581-80.61454 2.31281-85.24178 0.87361-168.92323 1.7133-39.07364-1.12238-156.3614-19.74053-154.90706-32.209z" fill="#fff"/>
<path fill="#fff" d="m326.421 179.01626c-31.02989-0.19156-68.8376 7.92481-106.62305 24.17969-45.43552 19.54585-70.79355 42.57453-120.04883 109.02344-34.3454 46.33447-64.382799 88.73001-66.749995 94.21094-2.367186 5.48071 4.992066 8.13235 16.353516 5.89257 11.361558-2.23966 44.009694-38.54699 72.552739-80.68359 42.86749-63.28294 62.58013-81.16294 113.29882-102.76953 103.19238-43.96067 103.53133-43.83056 214.625 82.05664 25.93022 29.38318 55.89052 65.95331 66.57813 81.26758 27.11157 38.84806 40.19577 19.70713 14.50976-21.22656-18.22753-29.04787-81.52184-105.22124-142.85742-171.92579-12.15529-13.21932-34.25936-19.85636-61.63867-20.02539zm-58.44727 99.69141c-28.50769 0-118.69921 102.40238-118.69921 134.76953 0 3.66748 63.64685 6.66797 141.4375 6.66797 77.79066 0 141.4375-3.11199 141.4375-6.91406 0-3.8022-16.61386-30.04655-36.91993-58.32227-34.40845-47.91292-81.6499-76.20117-127.25586-76.20117z"/>
</svg>
