<?xml version="1.0" encoding="UTF-8" standalone="no"?>
<svg xmlns:rdf="http://www.w3.org/1999/02/22-rdf-syntax-ns#" xmlns="http://www.w3.org/2000/svg" version="1.0" xmlns:cc="http://creativecommons.org/ns#" xmlns:dc="http://purl.org/dc/elements/1.1/" viewBox="0 0 576.44501 577.45154">
<path d="m64.571 0.06355556c-41.335 0-64.571 21.371-64.571 65.036v450.123c0 40.844 20.895 62.229 62.192 62.229h452.024c41.307 0 62.229-20.315 62.229-62.229v-450.123c0-42.601-20.922-65.036-63.521-65.036-0.004 0-448.495-0.143-448.353 0z"/>
<path style="color:#000000;block-progression:tb;text-decoration-line:none;text-transform:none;text-indent:0" fill="#fff" d="m93.671 31.608056c-2.92825 0.0023-5.591443 2.6655-5.59375 5.59375v518.65625c0.0023 2.92825 2.6655 5.59144 5.59375 5.59375h16.40625c2.92825-0.002 5.59144-2.6655 5.59375-5.59375v-223.41211c0.20093 0.17778 0.38977 0.36066 0.59375 0.53711 5.89631 5.10038 13.58165 9.76272 22.03125 13.875 16.8992 8.22456 36.44716 14.21875 50.6875 14.21875 18.38144 0 40.00616-7.16111 61.09375-14.0625s41.70047-13.5 55.34375-13.5 30.07778 6.49103 47.75 13.40625 36.65102 14.15625 56.4375 14.15625c38.951 0 82.1875-22.03125 82.1875-22.03125 1.84545-0.92311 3.09127-2.93656 3.09375-5v-288.0625c-0.004-1.894847-1.04419-3.75609-2.65625-4.751953-1.61205-0.995863-3.74135-1.09275-5.4375-0.248047 0 0-42.59019 20.84375-77.1875 20.84375-16.98768 0-34.77407-6.531159-52.34375-13.40625s-34.8419-14.15625-51.84375-14.15625-37.76304 7.173584-58.8125 14.0625-42.2968 13.5-57.625 13.5c-15.307 0-34.85293-6.660338-50.21875-13.5-10.34808-4.606155-18.70502-9.149874-23.125-11.660156-0.30009-2.709488-2.814-5.056429-5.5625-5.058594h-16.40625z"/>
</svg>
