<?xml version="1.0" encoding="UTF-8" standalone="no"?>
<svg xmlns:rdf="http://www.w3.org/1999/02/22-rdf-syntax-ns#" xmlns="http://www.w3.org/2000/svg" version="1.0" xmlns:cc="http://creativecommons.org/ns#" xmlns:dc="http://purl.org/dc/elements/1.1/" viewBox="0 0 576.44501 577.45154">
<path d="m64.571 0.06355556c-41.335 0-64.571 21.371-64.571 65.036v450.123c0 40.844 20.895 62.229 62.192 62.229h452.024c41.307 0 62.229-20.315 62.229-62.229v-450.123c0-42.601-20.922-65.036-63.521-65.036-0.004 0-448.495-0.143-448.353 0z"/>
<path style="color-rendering:auto;text-decoration-color:#000000;color:#000000;isolation:auto;mix-blend-mode:normal;shape-rendering:auto;solid-color:#000000;block-progression:tb;text-decoration-line:none;image-rendering:auto;white-space:normal;text-indent:0;text-transform:none;text-decoration-style:solid" fill="#fff" d="m43.674906 47.920556a2.1089138 2.1089138 0 0 0 -1.099609 0.326172c-0.340901 0.215608-0.607452 0.693926-0.789063 1.195312l-0.08789-0.06836s-16.806075 50.85964 11.425781 88.55079c14.45868 21.892 49.744015 43.95968 82.265625 54.42773l38.19336 41.88477c-6.29197-3.37166-13.15733-6.56654-20.74414-9.28516-21.23721-7.61001-45.7712-6.82709-64.929689-4.43945-9.579243 1.19382-17.818993 2.80162-23.599609 4.00195-2.890308 0.60016-5.174273 1.09998-6.654297 1.38672-0.630226 0.1221-1.023027 0.18097-1.289063 0.21484a2.1089138 2.1089138 0 0 0 -2.451171 1.16407c-0.153781 0.33778-0.10706 0.97965 0.0625 1.57617l-0.132813-0.006s19.507545 56.8187 63.875002 72.91601c12.89825 5.55726 32.38855 7.27565 51.0957 3.85938 17.74732-3.24099 34.78772-11.26748 44.24219-25.62891 25.72283 29.86621 49.3291 49.78417 71.21094 63.60156-24.87542-2.43819-49.97512-2.9012-74.87305-0.24804a2.1089138 2.1089138 0 0 0 -0.0996 0.0138c-19.23922 2.98524-34.0343 11.24075-48.82031 21.29883-14.78602 10.05807-29.62697 21.92163-49.23242 32.52539a2.1089138 2.1089138 0 0 0 -0.17383 0.10547c-1.84574 1.24249-4.88105 4.03641-8.14844 6.71875-1.63369 1.34116-3.27701 2.62536-4.664062 3.56054-1.387048 0.93518-2.680555 1.44579-2.740235 1.45313a2.1089138 2.1089138 0 0 0 -0.806641 3.91406c36.501078 21.34784 72.823398 55.27065 109.10547 59.43164 69.1543 7.93092 133.82566-42.10492 133.93945-103.8164 13.67319 4.48768 26.66266 7.75425 38.96485 11.07617 24.26604 6.55246 39.86647 13.65641 62.7832 33.05078 22.63368 19.15483 40.77328 51.01403 67.77735 107.68164a2.1089138 2.1089138 0 0 0 2.38085 1.14648l23.29297-5.41601a2.1089138 2.1089138 0 0 0 1.42578 -2.96094c-27.56229-57.83883-52.83267-91.85503-78.08789-113.22851-25.26136-21.37856-50.25136-29.58932-75.16406-36.31641-5.81439-1.57005-8.44172-1.5644-10.65625-1.5918-1.41972-0.0176-3.11108-0.22849-5.36914-0.70898 26.82472-19.13647 37.31802-62.96617 28.55859-108.12305-9.19139-47.38375-39.81933-96.56154-96.37109-120.54687a2.1089138 2.1089138 0 0 0 -2.8125 1.23828c-33.30734 94.1463-6.21822 164.24492 32.85742 213.39257-29.51283-14.09091-71.13225-41.17308-107.09961-84.46093 29.72607-30.87969 40.46198-64.14702 33.66602-97.54492-6.90281-33.92298-31.5196-67.765124-71.25391-99.986336a2.1089138 2.1089138 0 0 0 -3.23242 0.734374c-18.48189 38.940072-23.14925 70.215462-19.47852 97.107422 2.58336 18.92575 9.32088 35.59982 18.0625 51.25782l-27.26757-29.95117c-0.0977-15.12639-2.87031-45.68756-22.45508-71.60743-13.54122-17.921395-34.802553-33.746931-52.496103-45.308585-8.846775-5.780826-16.806192-10.484624-22.4375-13.794921-2.815654-1.65515-5.055643-2.967192-6.494141-3.863282-0.657232-0.409413-1.093246-0.707365-1.34375-0.892578a2.1089138 2.1089138 0 0 0 -1.830078 -1.017578z"/>
</svg>
