<?xml version="1.0" encoding="UTF-8" standalone="no"?>
<svg xmlns:rdf="http://www.w3.org/1999/02/22-rdf-syntax-ns#" xmlns="http://www.w3.org/2000/svg" version="1.0" xmlns:cc="http://creativecommons.org/ns#" xmlns:dc="http://purl.org/dc/elements/1.1/" viewBox="0 0 576.44501 577.45154">
<defs>
<style type="text/css">.fil0 {fill:#EF7900}</style>
</defs>
<path d="m64.571 0.06355556c-41.335 0-64.571 21.371-64.571 65.036v450.123c0 40.844 20.894 62.229 62.192 62.229h452.024c41.307 0 62.229-20.316 62.229-62.229v-450.123c0-42.601-20.922-65.036-63.522-65.036-0.003 0-448.494-0.143-448.352 0z"/>
<path style="color-rendering:auto;text-decoration-color:#000000;color:#000000;isolation:auto;mix-blend-mode:normal;shape-rendering:auto;solid-color:#000000;block-progression:tb;text-decoration-line:none;text-decoration-style:solid;image-rendering:auto;white-space:normal;text-indent:0;text-transform:none" d="m216.43077 61.682275a10.001 10.001 0 0 0 -5.95704 1.808593c-35.05509 24.579106-71.39633 48.199032-103.16601 79.324222a10.001 10.001 0 0 0 -0.12305 0.12305c-29.86493 30.29597-49.127779 67.62365-72.400389 99.49023a10.001 10.001 0 0 0 2.181641 13.97657l52.824219 38.52929a10.001 10.001 0 0 0 14.109379 -2.3789l53.06836-76.48438c1.11259 1.35797 2.49546 2.99079 4.46093 4.86914l-0.13086-0.12695c57.52237 57.0392 114.42417 114.93572 171.78516 172.39062l-0.0156-0.0137 127.25196 127.98828a10.001 10.001 0 0 0 14.22851 -0.0469l22.54493-22.97266a10.001 10.001 0 0 0 -0.22071 -14.22656l-130.3594-124.82221 0.0137 0.0156c-58.52395-56.26985-117.48246-112.07457-175.59378-168.51364l0.13281 0.13086c-1.91472-1.9295-3.57455-3.28235-4.95312-4.36915l75.4707-54.49804a10.001 10.001 0 0 0 2.11328 -14.15235l-39.51562-52.08789a10.001 10.001 0 0 0 -7.75 -3.953125zm165.11132 1.541015a10.001 10.001 0 0 0 -6.83593 2.47461l-51.59375 45.21875a10.001 10.001 0 0 0 -0.4375 14.63477l62.84961 62.08789c-23.82352 25.80411-47.76325 51.53626-71.78125 77.2168a10.001 10.001 0 0 0 0.48242 14.14453c5.98081 5.57807 11.95355 11.15604 17.92969 16.74219a10.001 10.001 0 0 0 14.30273 -0.66016c24.16543-27.18331 48.39777-54.30264 72.72461-81.28906 2.86984 1.85371 6.73864 4.80001 10.67969 8.18945 4.15931 3.57716 8.34628 7.50332 11.6289 10.78516 3.28262 3.28183 6.09012 6.71712 5.74024 6.19336a10.001 10.001 0 0 0 3.65234 3.29101l84.59375 44.59375a10.001 10.001 0 0 0 11.69727 -15.93359c-0.0655-0.0589 0.25499 0.25368 0.20898 0.17969-0.31446-0.50586-0.88843-1.5168-1.57227-2.82227-1.36761-2.61094-3.2262-6.44286-5.35546-10.99414-4.25853-9.10257-9.64017-21.14451-15.07422-33.27149-5.43406-12.12697-10.91991-24.33985-15.48438-33.97265-2.28223-4.8164-4.32527-8.97428-6.08984-12.27539-0.88229-1.65056-1.68642-3.08088-2.50391-4.37696-0.81463-1.29155-1.23549-2.29536-3.35351-4.14843l-0.006-0.004c-6.88467-6.03524-15.17777-13.48386-23.35938-20.83008l10.21875-9.95117a10.001 10.001 0 0 0 -0.51758 -14.79883l-13.78125-11.65625a10.001 10.001 0 0 0 -13.46484 0.5l-10.52539 10.33594c-21.96841-20.30041-43.7762-41.147835-57.875-56.396488a10.001 10.001 0 0 0 -7.09766 -3.207032zm-135.6914 278.53321a10.001 10.001 0 0 0 -6.99219 3.17187c-4.22907 4.53366-8.4768 9.06967-12.72461 13.63281l-123.23633 131.82813a10.001 10.001 0 0 0 0.56641 14.21875l23.78125 21.6875a10.001 10.001 0 0 0 14.21094 -0.74219l119.95312-134.82812 0.0156-0.0156c3.9758-4.45016 7.90638-8.89731 11.83593-13.30468a10.001 10.001 0 0 0 -0.50976 -13.83985c-6.53585-6.32586-13.07056-12.67071-19.63086-19.00781a10.001 10.001 0 0 0 -7.26953 -2.80078z" fill="#fff"/>
</svg>
