<?xml version="1.0" encoding="UTF-8" standalone="no"?>
<svg xmlns:rdf="http://www.w3.org/1999/02/22-rdf-syntax-ns#" xmlns="http://www.w3.org/2000/svg" version="1.0" xmlns:cc="http://creativecommons.org/ns#" xmlns:dc="http://purl.org/dc/elements/1.1/" viewBox="0 0 576.44501 577.45154">
<path d="m64.571 0.06355556c-41.335 0-64.571 21.371-64.571 65.036v450.123c0 40.844 20.895 62.229 62.192 62.229h452.024c41.307 0 62.229-20.315 62.229-62.229v-450.123c0-42.601-20.922-65.036-63.521-65.036-0.004 0-448.495-0.143-448.353 0z"/>
<path opacity=".25" style="color:#000000;block-progression:tb;text-decoration-line:none;text-transform:none;text-indent:0" fill="#fff" d="m341.56206 93.611142-9.15838 19.461578-7.37759 15.64557c-25.61304 54.30455-51.32914 108.58615-77.08309 162.81576-12.33777-16.95592-24.68047-33.88847-37.14234-50.75272l-8.90399-12.08399-7.88639 12.71998c-48.53493 77.68046-96.591951 155.64381-145.38938 233.03006l-9.667185 15.39117 18.189573 0.127c152.38887 1.29247 304.77571 2.50256 457.15611 3.81599l16.28158 0.127-6.99599-14.62798c-57.42622-122.18154-115.17872-244.17324-172.86454-366.20784l-9.15839-19.461578z"/>
<path style="color:#000000;block-progression:tb;text-decoration-line:none;text-transform:none;text-indent:0" fill="#fff" d="m341.55381 93.600244-9.19336 19.494146c-2.45923 5.21523-4.91776 10.43132-7.37695 15.64648-24.5768 52.10756-49.21775 104.18005-73.92383 156.21875-1.0311 2.17161-2.05861 4.34614-3.08984 6.51758-12.32848-16.94297-24.67061-33.87704-37.12305-50.72852l-8.88867-12.02929-0.0215 0.0332-0.0391-0.0547-7.88672 12.71875c-48.53493 77.68046-96.593192 155.645-145.39062 233.03125l-3.962891 6.31055-5.732422 9.08984 18.261719 0.1543c152.38886 1.29246 304.77584 2.50298 457.15626 3.81641l16.17968 0.13867-0.0234-0.0488h0.082l-4.76563-9.96484-2.17578-4.62891c-57.42617-122.18237-115.18911-244.19393-172.87496-366.22853l-8.69141-18.38868-0.51172-1.085938-0.002 0.002-0.006-0.01367zm0.008 172.3672c3.08194 0.008 6.12583 1.5073 8.01368 3.94335 9.10177 11.46459 17.96176 20.83725 21.49804 22.25977 1.76814 0.71146 1.33609 0.82423 3.17969-0.38281 1.84361-1.20724 5.56489-5.10881 9.66602-13.10157 1.72914-3.32832 5.40787-5.52125 9.1582-5.46874 3.7503 0.0525 7.39585 2.34923 9.03125 5.7246l82.93555 175.53516c3.02239 6.21309-2.37851 14.71968-9.28711 14.62891l-374.73047-3.18164c-3.57812-0.0493-7.052842-2.07829-8.775392-5.21485-1.722387-3.13657-1.624581-7.25697 0.253906-10.30273l73.775206-118.42383c3.20096-5.16472 11.43329-6.16066 15.77343-1.9082 6.57613 6.51992 12.26982 9.97205 19.08008 10.43164 6.81026 0.45958 16.35106-2.09279 30.40039-12.4668 4.30879-3.24882 11.21085-2.20872 14.37305 2.16406l6.48828 8.90235 26.71094-56.47657c1.56222-3.41367 5.15245-5.84744 8.90429-5.97851 3.75185-0.13106 7.48832 2.04755 9.28516 5.34375 2.64347 4.79704 5.27638 7.46925 7.25 8.64844 1.97361 1.17899 3.24969 1.38998 5.59766 0.89062 4.69593-0.99871 13.75128-7.43439 23.15039-21.11523 1.82985-2.69004 5.01451-4.40436 8.26757-4.45117z"/>
</svg>
