<?xml version="1.0" encoding="UTF-8" standalone="no"?>
<svg xmlns:rdf="http://www.w3.org/1999/02/22-rdf-syntax-ns#" xmlns="http://www.w3.org/2000/svg" version="1.0" xmlns:cc="http://creativecommons.org/ns#" xmlns:dc="http://purl.org/dc/elements/1.1/" viewBox="0 0 576.44501 577.45154">
<path d="m64.571 0.06355556c-41.335 0-64.571 21.371-64.571 65.036v450.123c0 40.844 20.895 62.229 62.192 62.229h452.024c41.307 0 62.229-20.315 62.229-62.229v-450.123c0-42.601-20.922-65.036-63.521-65.036-0.004 0-448.495-0.143-448.353 0z"/>
<path style="color-rendering:auto;text-decoration-color:#000000;color:#000000;isolation:auto;mix-blend-mode:normal;shape-rendering:auto;solid-color:#000000;block-progression:tb;text-decoration-line:none;image-rendering:auto;white-space:normal;text-indent:0;text-transform:none;text-decoration-style:solid" fill-rule="evenodd" fill="#fff" d="m263.02842 32.965478a9.3494351 9.3494351 0 0 0 -9.34765 9.357422l0.0391 41.955078-95.19922-24.71875a9.0161775 9.0161775 0 0 0 -2.68164 -0.279297 9.0161775 9.0161775 0 0 0 -4.81445 1.662109l-21.72461 15.470704a9.0161775 9.0161775 0 0 0 -2.56641 11.873046l20.98633 36.1211a9.0161775 9.0161775 0 0 0 5.44531 4.17383l100.62305 27.17382 0.006 6.10157-147.79493 39.41406a9.4009396 9.4009396 0 0 0 -4.80664 3.07422l-34.718746 41.77148a9.4009396 9.4009396 0 0 0 2.585938 14.18164l33.906248 19.25782a9.4009396 9.4009396 0 0 0 7.51172 0.77734l143.38672-45.9707 0.29297 307.05468a9.3494351 9.3494351 0 0 0 9.34765 9.33985h45.09571a9.3494351 9.3494351 0 0 0 9.34961 -9.34961v-318.41992l136.70312 26.29687a9.4009396 9.4009396 0 0 0 7.75196 -1.97656l33.90624-27.9375a9.4009396 9.4009396 0 0 0 0.50782 -14.0586l-34.71875-33.09179a9.4009396 9.4009396 0 0 0 -5.27735 -2.51758l-138.87322-18.00195v-3.29102l98.8789-26.70312a9.0161775 9.0161775 0 0 0 5.44336 -4.17578l20.98633-36.121103a9.0161775 9.0161775 0 0 0 -2.56641 -11.873047l-21.7246-15.470703a9.0161775 9.0161775 0 0 0 -5.06055 -1.669922 9.0161775 9.0161775 0 0 0 -2.4336 0.289063l-93.52343 24.28125v-34.650391a9.3494351 9.3494351 0 0 0 -9.34961 -9.349609h-45.57227z"/>
</svg>
