<?xml version="1.0" encoding="UTF-8" standalone="no"?>
<svg xmlns:rdf="http://www.w3.org/1999/02/22-rdf-syntax-ns#" xmlns="http://www.w3.org/2000/svg" version="1.0" xmlns:cc="http://creativecommons.org/ns#" xmlns:dc="http://purl.org/dc/elements/1.1/" viewBox="0 0 576.44501 577.45154">
<path d="m64.571 0.06355556c-41.335 0-64.571 21.371-64.571 65.036v450.123c0 40.844 20.895 62.229 62.192 62.229h452.024c41.307 0 62.229-20.315 62.229-62.229v-450.123c0-42.601-20.922-65.036-63.521-65.036-0.004 0-448.495-0.143-448.353 0z"/>
<path fill="#fff" d="m504.29532 372.04782-61.09538-0.57363 42.8815-42.8815c4.302-4.31429 6.45324-9.40558 6.45374-15.27385-0.0005-5.8799-2.15473-10.87557-6.4627-14.987-4.30896-4.11111-9.39725-6.16673-15.26488-6.16691-5.88055 0.00018-10.97182 1.9602-15.27385 5.88007l-42.8815 43.45518v-61.07747c-0.00042-5.87987-2.05606-10.97414-6.1669-15.2828-4.11169-4.30827-9.30455-6.46251-15.57861-6.46271-5.86852 0.0002-10.85821 2.15444-14.96908 6.46271-4.11166 4.30866-6.16729 9.40293-6.16691 15.2828v61.07747l-43.4731-43.45518c-3.92038-3.91987-8.81445-5.87989-14.68225-5.88007-6.27478 0.00018-11.46764 2.0558-15.57861 6.16691-4.11156 4.11143-6.1672 9.1071-6.1669 14.987-0.0003 5.86827 2.15692 10.95956 6.47166 15.27385l42.88151 43.45518h-61.0954c-5.88034 0.00008-10.97163 2.05572-15.27384 6.1669-4.30275 4.11135-6.454 9.10701-6.45374 14.987-0.00026 5.88016 2.15099 10.97143 6.45374 15.27386 4.30221 4.30254 9.3935 6.45378 15.27384 6.45374h61.0954l-42.88151 42.8815c-4.31474 4.31444-6.47196 9.40573-6.47166 15.27385-0.0003 5.88005 2.05534 10.97432 6.1669 15.2828 4.11097 4.30845 9.30383 6.46268 15.57861 6.46271 5.8678-0.00003 10.76187-2.15726 14.68225-6.47166l43.4731-42.88151v60.50379c-0.00038 6.27442 2.05525 11.46728 6.16691 15.57861 4.11087 4.11121 9.10056 6.16685 14.96908 6.1669 6.27406-0.00005 11.46692-2.05569 15.57861-6.1669 4.11084-4.11133 6.16648-9.30419 6.1669-15.57861v-60.50379l42.8815 42.88151c4.30203 4.3144 9.3933 6.47163 15.27385 6.47166 6.26203-0.00003 11.44892-2.15426 15.56068-6.46271 4.11077-4.30848 6.1664-9.40275 6.1669-15.2828-0.0005-5.86812-2.15174-10.95941-6.45374-15.27385l-42.8815-42.8815h61.09538c5.86761 0.00004 10.8573-2.1512 14.96909-6.45374 4.11074-4.30243 6.16637-9.3937 6.16691-15.27386-0.00054-5.87999-2.05617-10.87565-6.16691-14.987-4.11179-4.11118-9.10148-6.16682-14.96909-6.1669zm-232.63931-119.25073 0.59155-141.56992c-0.00028-5.86775-2.15452-10.95604-6.46271-15.264883-4.30874-4.308091-9.39702-6.462312-15.26488-6.462694-5.88032 0.000382-10.97459 2.154603-15.28281 6.462694-4.30871 4.308843-6.46293 9.397133-6.4627 15.264883v89.29463l-126.29607-126.29605c-4.302599-4.302099-9.393871-6.453339-15.273846-6.453736-5.868211 0.000397-10.857901 2.151637-14.969084 6.453736-4.111345 4.302878-6.166981 9.39415-6.166907 15.273846-0.000074 5.86849 1.95398 10.959764 5.862146 15.273844l126.29607 126.29605h-89.27671c-5.88018 0.00024-10.974452 2.05588-15.282808 6.16691-4.308575 4.11151-6.462797 9.29838-6.462709 15.56069-0.000088 5.88027 2.154134 10.87594 6.462709 14.987 4.308356 4.11148 9.402628 6.1671 15.282808 6.16691h141.56991c5.86786 0.00019 10.85755-2.05543 14.96909-6.16691 4.11099-4.11106 6.16663-9.10673 6.16691-14.987z"/>
</svg>
