<?xml version="1.0" encoding="UTF-8" standalone="no"?>
<svg xmlns:rdf="http://www.w3.org/1999/02/22-rdf-syntax-ns#" xmlns="http://www.w3.org/2000/svg" version="1.0" xmlns:cc="http://creativecommons.org/ns#" xmlns:dc="http://purl.org/dc/elements/1.1/" viewBox="0 0 576.44501 577.45154">
<defs>
<style type="text/css">.fil0 {fill:#EF7900}</style>
</defs>
<path d="m64.571 0.06355556c-41.335 0-64.571 21.371-64.571 65.036v450.123c0 40.844 20.894 62.229 62.192 62.229h452.024c41.307 0 62.229-20.316 62.229-62.229v-450.123c0-42.601-20.922-65.036-63.522-65.036-0.003 0-448.494-0.143-448.352 0z"/>
<path opacity=".25" d="m132.9351 97.462945h306.30673c11.12864 0 20.0878 8.959165 20.0878 20.087805v112.55946c0 11.12864-8.95916 20.0878-20.0878 20.0878h-306.30673c-11.12864 0-20.0878-8.95916-20.0878-20.0878v-112.55946c0-11.12864 8.95916-20.087805 20.0878-20.087805z" fill="#fff"/>
<path style="color-rendering:auto;text-decoration-color:#000000;color:#000000;isolation:auto;mix-blend-mode:normal;shape-rendering:auto;solid-color:#000000;block-progression:tb;text-decoration-line:none;text-decoration-style:solid;image-rendering:auto;white-space:normal;text-indent:0;text-transform:none" d="m107.89952 48.193994a12.50125 12.50125 0 0 0 -12.312504 12.675781v197.25a12.50125 12.50125 0 0 0 12.500004 12.5h45.52343l-19.51172 268.23633a15.0015 15.0015 0 1 0 29.91993 2.17578l1.41015-19.39453 120.13477-62.63672 123.85547 64.57617a7.50075 7.50075 0 0 0 1.47265 0.59375l1.22657 16.86133a15.0015 15.0015 0 1 0 29.92187 -2.17578l-19.51367-268.23633h41.5625a12.50125 12.50125 0 0 0 12.5 -12.5v-197.25a12.50125 12.50125 0 1 0 -25 0v18.654297c-14.69846 5.559937-31.30337 6.814633-46.13672 0.896484-18.0263-5.888049-37.56631-14.062583-56.39844-7.005859-18.06502 5.24326-37.83105 13.608486-56.53906 6.099609-12.04712-3.716987-23.72468-10.37888-36.6875-10.03125-23.3967 1.432579-43.65381 20.158486-67.78125 15.375-18.40629-3.498855-35.77402-17.695712-55.15625-11.34375-4.18092 1.004098-8.25737 2.344087-12.30273 3.783203v-16.427734a12.50125 12.50125 0 0 0 -12.6875 -12.675781zm149.53906 52.148446c4.57508-0.0444 9.17608 0.58855 13.79492 2.17187 16.81737 5.05171 34.48132 15.36389 52.36719 8.84961 19.54962-5.56561 40.53501-14.263208 60.94531-7.09961 18.85087 5.22448 38.75818 15.87394 58.375 8.40625 2.24292-1.29473 6.16068-1.52709 8.66797-2.76953v135.71875h-331.00195v-138.07813c14.35834-4.79275 30.05846-7.18084 44.05273-0.30859 14.21319 5.72511 29.8914 13.10727 45.25 6.9375 15.21034-4.88356 31.20925-13.66967 47.54883-13.82812zm-73.74805 170.27734h208.75586l0.11328 1.54883-106.63086 49.55273-102.49023-47.6289 0.25195-3.47266zm210.0332 17.54687 6.29883 86.57813-96.29883-44.75195 90-41.82618zm-211.44921 1.92383 85.85937 39.90235-91.86914 42.69335 6.00977-82.5957zm103.65429 48.17188 105.08789 48.83789-105.45312 54.98242-105.10938-54.80273 105.47461-49.01758zm115.81641 60.16211 7.88086 108.34375-107.83985-56.22657 99.95899-52.11718zm-227.53516 2.51562 95.13086 49.60156-102.63281 53.51172 7.50195-103.11328z" fill="#fff"/>
</svg>
