<?xml version="1.0" encoding="UTF-8" standalone="no"?>
<svg xmlns:rdf="http://www.w3.org/1999/02/22-rdf-syntax-ns#" xmlns="http://www.w3.org/2000/svg" version="1.0" xmlns:cc="http://creativecommons.org/ns#" xmlns:dc="http://purl.org/dc/elements/1.1/" viewBox="0 0 576.44501 577.45154">
<defs>
<style type="text/css">.fil0 {fill:#EF7900}</style>
</defs>
<path d="m64.571 0.06355556c-41.335 0-64.571 21.371-64.571 65.036v450.123c0 40.844 20.894 62.229 62.192 62.229h452.024c41.307 0 62.229-20.316 62.229-62.229v-450.123c0-42.601-20.922-65.036-63.522-65.036-0.003 0-448.494-0.143-448.352 0z"/>
<path style="color-rendering:auto;text-decoration-color:#000000;color:#000000;isolation:auto;mix-blend-mode:normal;shape-rendering:auto;solid-color:#000000;block-progression:tb;text-decoration-line:none;text-decoration-style:solid;image-rendering:auto;white-space:normal;text-indent:0;text-transform:none" d="m425.03428 36.832665a2.6214145 2.3504701 0 0 0 -1.56445 4.125c35.70334 28.536638 54.77987 70.207245 51.73437 113.00586-3.0455 42.79862-27.87535 81.95668-67.33398 106.19336a2.6217005 2.3507266 0 1 0 2.96289 3.8789c40.78486-25.05127 66.45565-65.53631 69.60351-109.77342 3.14788-44.23711-16.57516-87.318688-53.47851-116.81446a2.6214145 2.3504701 0 0 0 -1.66211 -0.615235 2.6214145 2.3504701 0 0 0 -0.26172 0zm-247.83203 0.214844a2.6214145 2.3504701 0 0 0 -1.66211 0.617188c-36.90335 29.495772-56.62638 72.577343-53.47852 116.81445 3.14787 44.23711 28.81866 84.72021 69.60352 109.77149a2.6214145 2.3504701 0 1 0 2.96289 -3.87696c-39.45863-24.23668-64.28848-63.39669-67.33398-106.19531s16.03103-84.469223 51.73437-113.00586a2.6214145 2.3504701 0 0 0 -1.82617 -4.125zm205.30859 35.125a2.6214145 2.3504701 0 0 0 -1.55273 4.214844c25.26147 17.916454 39.11654 45.792867 37.08594 74.615237s-19.68854 54.91416-47.26367 69.83789a2.6217048 2.3507304 0 1 0 2.70898 4.02539c29.04216-15.71767 47.64848-43.21066 49.78711-73.5664 2.13863-30.35575-12.46102-59.728041-39.06641-78.597664a2.6214145 2.3504701 0 0 0 -1.69922 -0.529297zm-162.52343 0.216797a2.6214145 2.3504701 0 0 0 -1.69727 0.527344c-26.60539 18.869623-41.20504 48.24191-39.06641 78.59766 2.13863 30.35574 20.743 57.84874 49.78516 73.56641a2.6214145 2.3504701 0 1 0 2.70899 -4.02344c-27.57513-14.92373-45.23112-41.01552-47.26172-69.83789s11.82446-56.700739 37.08593-74.617193a2.6214145 2.3504701 0 0 0 -1.55468 -4.212891zm131.52929 35.244144a2.6261434 2.1797127 0 0 0 -1.55664 3.90625c12.39472 8.13751 19.19165 20.79581 18.19532 33.88672-0.99634 13.09089-9.65758 24.94051-23.1875 31.71875a2.6261434 2.1797127 0 1 0 2.71289 3.73047c14.9996-7.51452 24.61224-20.66095 25.71679-35.17383 1.10455-14.51287-6.43861-28.55864-20.17968-37.58008a2.6261434 2.1797127 0 0 0 -1.70118 -0.48828zm-100.52539 0.19922a2.6261434 2.1797127 0 0 0 -1.70117 0.49023c-13.74107 9.02144-21.28424 23.06721-20.17969 37.58008 1.10455 14.51288 10.7172 27.65931 25.7168 35.17383a2.6261434 2.1797127 0 1 0 2.71289 -3.73242c-13.52993-6.77824-22.19117-18.62591-23.1875-31.7168-0.99633-13.09091 5.80059-25.74921 18.19531-33.88672a2.6261434 2.1797127 0 0 0 -1.55664 -3.9082zm48.58985 14.17969c-14.19287-0.0708-25.80588 9.42716-25.92969 21.20703-0.0912 8.67878 6.08314 16.20479 15.01367 19.62305 0.0163 1.11003 0.0544 2.40107 0.11133 3.875-0.84731 17.96009-5.64296 72.56302-20.76367 137.47851-16.90808 72.58892-46.78211 159.15681-97.53125 226.89844a9.9056297 9.9056297 0 1 0 15.85351 11.87695c14.33671-19.13711 26.99666-39.55668 38.20313-60.61719a7.7116452 7.7116452 0 0 0 1.77734 -1.26562l72.42188-67.03906 72.41992 67.03906a7.7116452 7.7116452 0 0 0 1.98828 1.36914c11.1328 20.86165 23.69528 41.088 37.9043 60.05469a9.9056297 9.9056297 0 1 0 15.85351 -11.87696c-50.74912-67.74167-80.62513-154.3095-97.5332-226.89843-14.98547-64.33494-19.83176-118.57448-20.74219-137.02344 0.046-1.26047 0.075-2.37379 0.0899-3.35352 9.51317-3.06028 16.33127-10.67389 16.48437-19.64843a1.3270179 1.1014271 0 0 0 -0.004 -0.1211 1.3270179 1.1014271 0 0 0 0.004 -0.11328c0.0467-11.78027-11.42821-21.39411-25.62109-21.46484zm-0.84961 129.79297c2.93969 17.27415 6.64154 36.22814 11.3457 56.42382 0.58091 2.49393 1.17827 5.00734 1.78906 7.53321l-12.95898 11.99609-13.22071-12.23828c0.55171-2.28945 1.09201-4.56702 1.61915-6.83008 4.74632-20.37668 8.47383-39.48715 11.42578-56.88476zm-16.50391 77.58593 7.45703 6.9043-12.42773 11.50586c1.74466-6.1985 3.4062-12.34261 4.9707-18.41016zm33.10742 0.23633c1.5176 5.86578 3.12663 11.80566 4.8125 17.79297l-12.01758-11.125 7.20508-6.66797zm-16.42578 15.20508 26.22852 24.28125a7.7116452 7.7116452 0 0 0 -2.06641 1.39648l-24.33398 22.52539-24.33399-22.52539a7.7116452 7.7116452 0 0 0 -1.83594 -1.29296l26.3418-24.38477zm32.42774 39.04101c6.77228 20.30321 14.58744 40.87008 23.60156 61.1875l-44.85156-41.51757 21.25-19.66993zm-65.15235 0.043 21.20117 19.62696-44.6582 41.33984c8.95646-20.24935 16.72352-40.74051 23.45703-60.9668z" fill="#fff"/>
</svg>
