<?xml version="1.0" encoding="UTF-8" standalone="no"?>
<svg xmlns:rdf="http://www.w3.org/1999/02/22-rdf-syntax-ns#" xmlns="http://www.w3.org/2000/svg" version="1.0" xmlns:cc="http://creativecommons.org/ns#" xmlns:dc="http://purl.org/dc/elements/1.1/" viewBox="0 0 576.44501 577.45154">
<defs>
<style type="text/css">.fil0 {fill:#EF7900}</style>
</defs>
<path d="m64.571 0.06355556c-41.335 0-64.571 21.371-64.571 65.036v450.123c0 40.844 20.894 62.229 62.192 62.229h452.024c41.307 0 62.229-20.316 62.229-62.229v-450.123c0-42.601-20.922-65.036-63.522-65.036-0.003 0-448.494-0.143-448.352 0z"/>
<path opacity=".5" style="color-rendering:auto;text-decoration-color:#000000;color:#000000;isolation:auto;mix-blend-mode:normal;shape-rendering:auto;solid-color:#000000;block-progression:tb;text-decoration-line:none;text-decoration-style:solid;image-rendering:auto;white-space:normal;text-indent:0;text-transform:none" d="m36.540141 83.445947-5.292969 8.484375s131.20091 81.763638 259.69531 4.128906c21.47268 12.113702 142.56105 73.916492 260.42774-0.732422l-5.34961-8.449219c-124.66861 78.956793-253.48047-1.43164-253.48047-1.43164l-1.07226 1.71875-1.44727-2.28711c-124.66861 78.956793-253.48047-1.43164-253.48047-1.43164zm0 40.000003-5.292969 8.48438s131.20091 81.76363 259.69531 4.1289c21.47268 12.1137 142.56105 73.91649 260.42774-0.73242l-5.34961-8.44922c-124.66861 78.95679-253.48047-1.43164-253.48047-1.43164l-1.07226 1.71875-1.44727-2.28711c-124.66861 78.95679-253.48047-1.43164-253.48047-1.43164zm0 40-5.292969 8.48438s131.20091 81.76363 259.69531 4.1289c21.47268 12.1137 142.56105 73.91649 260.42774-0.73242l-5.34961-8.44922c-124.66861 78.95679-253.48047-1.43164-253.48047-1.43164l-1.07226 1.71875-1.44727-2.28711c-124.66861 78.95679-253.48047-1.43164-253.48047-1.43164z" fill-rule="evenodd" fill="#fff"/>
<path style="color-rendering:auto;text-decoration-color:#000000;color:#000000;isolation:auto;mix-blend-mode:normal;shape-rendering:auto;solid-color:#000000;block-progression:tb;text-decoration-line:none;text-decoration-style:solid;image-rendering:auto;white-space:normal;text-indent:0;text-transform:none" d="m290.11631 81.602197a9.9056297 9.9056297 0 0 0 -9.47461 9.755859v8.47852c-1.15163 22.484434-6.18228 83.868724-20.68554 154.61718-16.94164 82.64306-46.99891 179.26399-97.47461 246.64063a9.9056297 9.9056297 0 1 0 15.85351 11.87695c13.83058-18.4615 26.08895-38.74432 36.97852-60.11133a7.7116452 7.7116452 0 0 0 3.00195 -1.77148l72.42188-67.03906 72.41992 67.03906a7.7116452 7.7116452 0 0 0 3.16992 1.82031c10.8254 21.18132 23.0013 41.28778 36.72266 59.60352a9.9056297 9.9056297 0 1 0 15.85351 -11.87696c-50.47569-67.37668-80.53493-163.99755-97.47656-246.64062-14.49566-70.71138-19.52848-132.06654-20.68359-154.58008v-7.597656a9.9056297 9.9056297 0 0 0 -1.82422 -5.58789 9.9056297 9.9056297 0 0 0 -8.80274 -4.626953zm0.60938 112.09961c2.87576 19.57029 6.55114 41.12887 11.29492 64.26953 1.65358 8.06634 3.42993 16.26917 5.33008 24.56836l-16.44141 15.2207-16.71289-15.4707c1.83886-8.05706 3.55959-16.02109 5.16602-23.85742 4.78081-23.32129 8.47762-45.039 11.36328-64.73047zm-19.83399 102.60156 10.79492 9.99414-17.55078 16.2461c2.40215-8.80437 4.64806-17.56254 6.75586-26.24024zm39.76953 0.24414c2.06447 8.47257 4.26234 17.02125 6.60743 25.61328l-17.13868-15.86523 10.53125-9.74805zm-19.7539 18.28516 26.23047 24.28125a7.7116452 7.7116452 0 0 0 -2.06641 1.39648l-24.33398 22.52539-24.33399-22.52539a7.7116452 7.7116452 0 0 0 -1.83789 -1.29296l26.3418-24.38477zm34.93359 36.70312c6.95871 22.36485 14.96727 44.70612 24.1836 66.38086l-47.93555-44.37304 23.45898-21.7168a7.7116452 7.7116452 0 0 0 0.29297 -0.29102zm-70.16992 0.0449a7.7116452 7.7116452 0 0 0 0.25586 0.24609l23.45898 21.7168-47.75781 44.20898c9.16157-21.61362 17.12107-43.88317 24.04297-66.17187z" fill-rule="evenodd" fill="#fff"/>
</svg>
