<?xml version="1.0" encoding="UTF-8" standalone="no"?>
<svg xmlns:rdf="http://www.w3.org/1999/02/22-rdf-syntax-ns#" xmlns="http://www.w3.org/2000/svg" version="1.0" xmlns:cc="http://creativecommons.org/ns#" xmlns:dc="http://purl.org/dc/elements/1.1/" viewBox="0 0 576.44501 577.45154">
<path d="m64.571 0.06355556c-41.335 0-64.571 21.371-64.571 65.036v450.123c0 40.844 20.895 62.229 62.192 62.229h452.024c41.307 0 62.229-20.315 62.229-62.229v-450.123c0-42.601-20.922-65.036-63.521-65.036-0.004 0-448.495-0.143-448.353 0z"/>
<path fill="#fff" d="m219.0167 78.391259a43.70733 43.70733 0 0 0 -43.70703 43.707031 43.70733 43.70733 0 0 0 43.70703 43.70704 43.70733 43.70733 0 0 0 43.70703 -43.70704 43.70733 43.70733 0 0 0 -43.70703 -43.707031zm100.11914 72.250001c-7.32069-0.072-15.14034 3.77634-20.82812 13.16211l-28.14649 45.9961-66.93359-37.01368c-46.39613-25.85826-66.01953 16.99024-66.01953 16.99024l-52.574219 90.04687c-8.92453 18.70719-0.972657 26.77344-0.972657 26.77344l-25.972656-0.0566v98.16992h0.115234c10.240331 0 20.078552-2.34558 28.888672-6.29297 9.03895-4.17622 19.279706-6.63671 29.863286-6.63671s20.82489 2.46049 29.80664 6.63671c8.86732 3.94739 18.76439 6.23438 29.11914 6.23438 10.29753 0 20.19378-2.28699 29.0039-6.23438 8.98174-4.17622 19.22249-6.63671 29.86328-6.63671s20.76713 2.46049 29.86329 6.63671c8.75291 3.94739 18.7064 6.23438 29.0039 6.23438 10.2976 0 20.25296-2.28699 29.00586-6.23438 9.0961-4.17622 19.27912-6.63671 29.91992-6.63671s20.76569 2.46049 29.80469 6.63671c8.8673 3.94739 18.765 6.23438 29.0625 6.23438 10.3548 0 20.1951-2.28699 29.0625-6.23438 8.9817-4.17622 19.22109-6.63671 29.80469-6.63671 9.0962 0 17.90681 1.71681 25.91601 4.86328 12.9863-14.18772 20.99414-33.06646 20.99414-53.71875 0-44.05058-35.63941-79.69141-79.63281-79.69141l-8.92578 0.97266c-9.7827 39.70273-49.48437 41.41796-49.48437 41.41796l-181.8086-0.0566-15.21875-8.92578 36.67188-61.49804 40.10351 23.16992c24.02756 15.56073 36.55469-6.23633 36.55469-6.23633l40.21875-65.56055c11.76171-19.14162-1.13891-35.72755-16.12891-35.875zm-202.46484 284.61719c-10.58358 0-20.824331 2.46049-29.863281 6.63672-8.81012 3.94739-18.706367 6.29297-29.003907 6.29297v43.47851c10.297541 0 20.193787-2.28893 29.003907-6.23632 9.03895-4.17622 19.279701-6.63672 29.863281-6.63672s20.82295 2.4605 29.80469 6.63672c8.86733 3.94739 18.7644 6.23632 29.11914 6.23632 10.29754 0 20.19574-2.28893 29.00586-6.23632 8.98174-4.17622 19.16528-6.63672 29.86328-6.63672 10.58358 0 20.76517 2.4605 29.86133 6.63672 8.75291 3.94739 18.70836 6.23632 29.00586 6.23632 10.2976 0 20.251-2.28893 29.0039-6.23632 9.0961-4.17622 19.22192-6.63672 29.91992-6.63672 10.5836 0 20.76765 2.4605 29.80664 6.63672 8.86731 3.94739 18.76305 6.23632 29.06055 6.23632 10.3548 0 20.1952-2.28893 29.0625-6.23632 8.9817-4.17622 19.16584-6.63672 29.80664-6.63672s20.82372 2.4605 29.91992 6.63672c8.7529 3.94739 18.64977 6.23632 28.94727 6.23632v-43.47851c-10.2975 0-20.19437-2.34558-28.94727-6.29297-9.0962-4.17623-19.22192-6.63672-29.91992-6.63672-10.5835 0-20.82494 2.46049-29.80664 6.63672-8.8673 3.94739-18.7077 6.29297-29.0625 6.29297-10.2975 0-20.19324-2.34558-29.06055-6.29297-9.03899-4.17623-19.16584-6.63672-29.80664-6.63672-10.6407 0-20.82382 2.46049-29.91992 6.63672-8.7529 3.94739-18.7063 6.29297-29.0039 6.29297-10.2975 0-20.25295-2.34558-29.00586-6.29297-9.09616-4.17623-19.22054-6.63672-29.86133-6.63672s-20.88154 2.46049-29.86328 6.63672c-8.81012 3.94739-18.70832 6.29297-29.00586 6.29297-10.35474 0-20.25181-2.34558-29.11914-6.29297-8.98174-4.17623-19.22111-6.63672-29.80469-6.63672z"/>
</svg>
