<?xml version="1.0" encoding="UTF-8" standalone="no"?>
<svg xmlns:rdf="http://www.w3.org/1999/02/22-rdf-syntax-ns#" xmlns="http://www.w3.org/2000/svg" version="1.0" xmlns:cc="http://creativecommons.org/ns#" xmlns:dc="http://purl.org/dc/elements/1.1/" viewBox="0 0 576.44501 577.45154">
<path d="m64.571 0.06355556c-41.335 0-64.571 21.371-64.571 65.036v450.123c0 40.844 20.895 62.229 62.192 62.229h452.024c41.307 0 62.229-20.315 62.229-62.229v-450.123c0-42.601-20.922-65.036-63.521-65.036-0.004 0-448.495-0.143-448.353 0z"/>
<path style="color-rendering:auto;text-decoration-color:#000000;color:#000000;isolation:auto;mix-blend-mode:normal;shape-rendering:auto;solid-color:#000000;block-progression:tb;text-decoration-line:none;text-decoration-style:solid;image-rendering:auto;white-space:normal;text-indent:0;text-transform:none" d="m308.27842 32.389306-20.35156 29.650391c-5.03927 6.979406-3.87347 12.986688 3.49609 18.02539 6.96701 4.258762 12.97046 3.094913 18.00977-3.49414l11.63867-17.441407 181.39063 119.19922-148.2461 26.73828c-5.4297 1.15952-9.79183 3.96851-13.08594 8.42774-3.29458 4.45971-4.16506 9.20922-2.61523 14.24805l31.97266 125.00195-104.65039 156.40625c-1.9401 3.47761-2.91032 7.15719-2.91016 11.03711-0.00016 6.19825 2.22982 11.52678 6.68945 15.98633 4.45931 4.45939 9.78779 6.68937 15.98633 6.68945 8.13803-0.00008 14.72827-3.87326 19.76758-11.62109l109.29687-164.55274 5.82032 22.67774-16.26953 123.26171c-0.78104 6.19826 0.57269 11.72237 4.0625 16.57227 3.48919 4.84974 8.33259 7.85436 14.53124 9.01367 6.20981 1.15915 11.9295-0.10061 17.15821-3.7793 5.22798-3.67884 8.2326-8.62389 9.01367-14.83398l16.85547-126.1543c0.38999-4.27014 0.007-8.73007-1.15235-13.3789l-37.22656-148.26172 97.10938-17.44141c5.03866-0.76863 9.10742-3.38399 12.20703-7.84375 3.09872-4.45919 4.25878-9.2087 3.47851-14.24804-1.15967-5.03883-4.06458-9.30317-8.71289-12.79297l-223.26367-147.0918zm-247.10937 11.679688v10.472656 477.98047h32.740234v-349.83789l161.7832-65.85937-161.7832-60.203132v-12.552734h-32.740234zm286.05664 74.357426c-10.45694 0.00032-19.36913 3.58786-26.73828 10.76172-7.3696 7.17454-11.05489 15.99664-11.05469 26.46484-0.0002 10.45702 3.68509 19.27142 11.05469 26.44531 7.36915 7.17447 16.28134 10.76197 26.73828 10.76172 10.46828 0.00025 19.48209-3.58725 27.04101-10.76172 7.55836-7.17389 11.33761-15.98829 11.33789-26.44531-0.00028-10.4682-3.77953-19.2903-11.33789-26.46484-7.55892-7.17386-16.57273-10.7614-27.04101-10.76172z" fill="#fff"/>
</svg>
