<?xml version="1.0" encoding="UTF-8" standalone="no"?>
<svg xmlns:rdf="http://www.w3.org/1999/02/22-rdf-syntax-ns#" xmlns="http://www.w3.org/2000/svg" version="1.0" xmlns:cc="http://creativecommons.org/ns#" xmlns:dc="http://purl.org/dc/elements/1.1/" viewBox="0 0 576.44501 577.45154">
<path d="m64.571 0.06355556c-41.335 0-64.571 21.371-64.571 65.036v450.123c0 40.844 20.895 62.229 62.192 62.229h452.024c41.307 0 62.229-20.315 62.229-62.229v-450.123c0-42.601-20.922-65.036-63.521-65.036-0.004 0-448.495-0.143-448.353 0z"/>
<path opacity=".8" style="color-rendering:auto;text-decoration-color:#000000;color:#000000;isolation:auto;mix-blend-mode:normal;shape-rendering:auto;solid-color:#000000;block-progression:tb;text-decoration-line:none;image-rendering:auto;white-space:normal;text-indent:0;text-transform:none;text-decoration-style:solid" fill="#fff" d="m292.57725 6.8268056v5.0000004 58.65625h24.5625v-63.65625h-24.5625z"/>
<path style="color-rendering:auto;text-decoration-color:#000000;color:#000000;isolation:auto;mix-blend-mode:normal;shape-rendering:auto;solid-color:#000000;block-progression:tb;text-decoration-line:none;image-rendering:auto;white-space:normal;text-indent:0;text-transform:none;text-decoration-style:solid" fill="#fff" d="m304.07725 61.490868c-25.48159 0-46.27344 20.830204-46.27344 46.304692 0 16.42199 8.60558 30.93809 21.57031 39.13867a7.337209 7.337209 0 0 0 6.39649 0.70117l3.08789 77.91016a21.072856 21.072856 0 0 0 1.6875 7.4375l22.98047 53.80273a33.095671 33.095671 0 0 0 -2.41797 6.72852l-33.28125 132.625a33.095671 33.095671 0 0 0 -0.0195 0.0898l-102.69925 84.37895a27.093672 27.093672 0 1 0 34.40625 41.84375l102.94727-84.58203a33.095671 33.095671 0 0 0 29.55273 -25.63672l33.28125-132.625a33.095671 33.095671 0 0 0 -23.48242 -40.46289l-21.01758-49.19336-2.93359-74.79492a7.337209 7.337209 0 0 0 5.59375 -1.60156c10.30883-8.47733 16.92578-21.39042 16.92578-35.75977 0-25.481592-20.8231-46.304691-46.30469-46.304692zm0 14.671876c17.54449 0 31.63281 14.088326 31.63281 31.632816 0 7.09985-2.39364 13.55999-6.32422 18.81641-6.31636-6.24751-15.05849-9.88296-24.29296-9.38868-9.89099 0.21165-18.22987 5.29739-23.78126 12.4668-5.46296-5.66884-8.83593-13.34766-8.83593-21.89453 0-17.551594 14.05707-31.632816 31.60156-31.632816zm58.5 108.85157c-10.36024 0.00037-19.2621 3.32747-26.71875 10 0.22002 7.02329 0.47423 14.05023 0.8125 21.0625 4.17853 15.44412 12.08556 29.94654 18.03125 44.90625 0.46033 1.38583 1.00295 2.73066 1.5625 4.09375 2.0412 0.29228 4.1441 0.43756 6.3125 0.4375 10.81672 0.00032 20.23768-3.90815 28.25-11.71875 8.01162-7.80997 11.99963-17.31048 12-28.53125-0.00037-11.20784-3.98838-20.72058-12-28.53125-8.01232-7.80992-17.43328-11.71835-28.25-11.71875z"/>
</svg>
