<?xml version="1.0" encoding="UTF-8" standalone="no"?>
<svg xmlns:rdf="http://www.w3.org/1999/02/22-rdf-syntax-ns#" xmlns="http://www.w3.org/2000/svg" version="1.0" xmlns:cc="http://creativecommons.org/ns#" xmlns:dc="http://purl.org/dc/elements/1.1/" viewBox="0 0 576.44501 577.45154">
<path d="m64.571 0.06355556c-41.335 0-64.571 21.371-64.571 65.036v450.123c0 40.844 20.895 62.229 62.192 62.229h452.024c41.307 0 62.229-20.315 62.229-62.229v-450.123c0-42.601-20.922-65.036-63.521-65.036-0.004 0-448.495-0.143-448.353 0z"/>
<path fill="#fff" d="m135.70811 146.8815c-3.90656 0-7.13477 3.23015-7.13477 7.13672v74.85156c0 3.90657 3.22821 7.13476 7.13477 7.13476h4.12695c3.90656 0 7.13672-3.22819 7.13672-7.13476v-74.85156c0-3.90657-3.23016-7.13672-7.13672-7.13672h-4.12695zm325.92773 0c-3.90655 0-7.1367 3.23015-7.13672 7.13672v74.85156c0.00001 3.90657 3.23017 7.13476 7.13672 7.13476h4.12696c3.90655 0 7.13476-3.22819 7.13476-7.13476v-74.85156c0-3.90657-3.22821-7.13672-7.13476-7.13672h-4.12696zm-295.35937 64.08984c-11.30874 0.00026-16.96301 5.82149-16.96289 17.46484-0.00012 4.32474 1.49741 8.31997 4.49219 11.98438l38.78711 69.43555c3.9893 3.98967 1.24216 3.03762 7.66992 8.34179l58.82226 16.63477v92.66211l-98.90429 93.91797c-1.00516 2.33479-1.508 4.66357-1.50782 6.98828-0.00018 6.64909 2.49479 12.38781 7.48438 17.21484 4.98921 4.82691 10.81315 7.24019 17.47265 7.24024 11.96825-0.00005 11.93812-1.1469 20.09375-5.50391l97.26563-86.43359 81.63476 85.75781c10.80728 11.41935 14.82808 13.74017 26.79688 13.74023 6.65894-0.00006 12.48486-2.4106 17.47461-7.23242 4.98904-4.82196 7.48206-10.55794 7.48242-17.20703-0.00036-2.33487-0.33427-4.66559-1.00391-6.99023l-89.4746-98.9961v-95.35742l58.11914-16.43555c6.42777-5.30417 3.68062-4.35212 7.66992-8.34179l38.78711-69.43555c2.99477-3.66441 4.4923-7.65964 4.49219-11.98438 0.00011-11.64335-5.65416-17.46458-16.9629-17.46484-5.31918 0.00026-9.97325 2.16211-13.96289 6.48633l-36.5625 64.35156-55.17187 13.57617c-0.76088-0.0729-1.54122-0.12302-2.36524-0.12304h-63.375l-47.76562-13.45313-36.5625-64.35156c-3.98964-4.32422-8.64372-6.48607-13.96289-6.48633zm136.20508 9.95313c-9.30908 0.00033-17.20689 3.24406-23.69336 9.73047-6.48697 6.48704-9.72876 14.38484-9.72852 23.69335-0.00024 9.31924 3.24155 17.22059 9.72852 23.70704 6.48647 6.48698 14.38428 9.73072 23.69336 9.73046 8.98367 0.00026 16.80251-3.24348 23.45703-9.73046 6.65393-6.48645 9.98212-14.3878 9.98242-23.70704-0.0003-9.30851-3.32849-17.20631-9.98242-23.69335-6.65452-6.48642-14.47336-9.73014-23.45703-9.73047z"/>
<path opacity=".5" style="color-rendering:auto;text-decoration-color:#000000;color:#000000;isolation:auto;mix-blend-mode:normal;shape-rendering:auto;solid-color:#000000;block-progression:tb;text-decoration-line:none;image-rendering:auto;white-space:normal;text-indent:0;text-transform:none;text-decoration-style:solid" fill="#fff" d="m133.83116 19.1979v128.48243h8.6914v-128.48243h-8.6914zm325.92773 0v128.48243h8.69141v-128.48243h-8.69141z"/>
</svg>
