<?xml version="1.0" encoding="UTF-8" standalone="no"?>
<svg xmlns:rdf="http://www.w3.org/1999/02/22-rdf-syntax-ns#" xmlns="http://www.w3.org/2000/svg" version="1.0" xmlns:cc="http://creativecommons.org/ns#" xmlns:dc="http://purl.org/dc/elements/1.1/" viewBox="0 0 576.44501 577.45154">
<path d="m64.571 0.06355556c-41.335 0-64.571 21.371-64.571 65.036v450.123c0 40.844 20.895 62.229 62.192 62.229h452.024c41.307 0 62.229-20.315 62.229-62.229v-450.123c0-42.601-20.922-65.036-63.521-65.036-0.004 0-448.495-0.143-448.353 0z"/>
<path fill="#fff" d="m223.60924 359.12242 11.15062 70.50708c1.57733 11.74821 8.62864 18.59635 21.15393 20.5444 8.61666 1.18324 16.15498-1.26078 22.61497-7.33217 6.45942-6.07126 9.10365-13.41537 7.93272-22.03234l-13.517-85.17141c-1.5659-9.01118-6.45999-15.27967-14.68225-18.80548l-61.09538-27.60766 38.77621-67.54911 19.37914 24.66761c1.56536 2.35464 3.91978 4.11747 7.06325 5.28849l73.4292 21.15392c1.94772 0.77703 3.70457 1.16547 5.27055 1.16532 5.48531 0.00019 10.18817-2.15403 14.10859-6.46269 3.91968-4.30827 5.87969-9.20534 5.88007-14.69122-0.00038-9.78795-4.70324-16.24766-14.10859-19.37914l-63.44383-18.78755-48.16997-58.17328c-6.65715-7.82783-16.0569-12.7219-28.19927-14.68225-21.14216-3.13093-37.0016 4.30879-47.57838 22.31918l-53.45846 92.23467c-3.52577 5.88028-5.0914 13.12279-4.69689 21.72758l1.75685 116.90229-40.53305 86.9462c-1.565702 3.52563-2.53974 6.45968-2.922115 8.80218-1.183238 7.44566 0.379335 14.00695 4.687925 19.6839 4.308385 5.67684 10.185467 9.10688 17.631246 10.29011 12.524935 1.94802 21.333074-2.36044 26.424484-12.9254l44.65627-95.17469c1.56547-3.5256 2.34828-7.24247 2.34844-11.15064l-0.59154-72.26393 68.73231 29.9561zm249.07843-292.5336-24.09396 109.26537-41.12465 17.0307-35.83616 100.44525 34.07931 76.96083-9.39377 29.9561-79.30927 23.50237-4.69689 35.24457-126.29607 31.13928 1.16532 21.13599h308.39904c5.48517-0.00004 10.08943-1.85848 13.81279-5.5753 3.72233-3.71691 5.58375-8.31819 5.58428-13.80384v-415.90754l-42.28991-9.393783zm-241.44151 69.89757c10.57671 0.00032 19.77925-3.81813 27.60766-11.45539 7.82787-7.63657 11.74194-16.93473 11.74222-27.894489-0.00028-10.57658-3.91435-19.782104-11.74222-27.616617-7.82841-7.833706-17.03095-11.750772-27.60766-11.751183-10.97157 0.000411-20.27571 3.917477-27.91241 11.751183-7.63713 7.834513-11.45558 17.040037-11.45539 27.616617-0.00019 10.959759 3.81826 20.257919 11.45539 27.894489 7.6367 7.63726 16.94084 11.45571 27.91241 11.45539zm-137.46461 107.50851 58.74694-101.03684c3.91988-6.65659 2.55146-11.74786-4.10529-15.27385l-18.80549-11.16856c-6.65703-3.90774-11.74831-2.53334-15.27384 4.12322l-58.746941 101.03686c-3.908151 6.65715-2.533747 11.74842 4.123226 15.27384l18.78755 11.15062c6.656812 3.92027 11.748098 2.55184 15.273845-4.10529z"/>
</svg>
