<?xml version="1.0" encoding="UTF-8" standalone="no"?>
<svg xmlns:rdf="http://www.w3.org/1999/02/22-rdf-syntax-ns#" xmlns="http://www.w3.org/2000/svg" version="1.0" xmlns:cc="http://creativecommons.org/ns#" xmlns:dc="http://purl.org/dc/elements/1.1/" viewBox="0 0 576.44501 577.45154">
<path d="m64.571 0.06355556c-41.335 0-64.571 21.371-64.571 65.036v450.123c0 40.844 20.895 62.229 62.192 62.229h452.024c41.307 0 62.229-20.315 62.229-62.229v-450.123c0-42.601-20.922-65.036-63.521-65.036-0.004 0-448.495-0.143-448.353 0z"/>
<path fill="#fff" d="m476.34483 40.633447a45.352856 45.352856 0 0 0 -45.35352 45.353515 45.352856 45.352856 0 0 0 45.35352 45.353518 45.352856 45.352856 0 0 0 45.35156 -45.353518 45.352856 45.352856 0 0 0 -45.35156 -45.353515zm-294.14063 75.349613c-12.22043 0-22.15429 9.86852-22.15429 22.1543 0 12.2858 9.93386 22.15429 22.15429 22.15429l158.34375 0.25977-66.72265 66.39648c-9.54111 9.73714-14.37696 20.71482-14.37696 35.0918 0 13.78883 5.48968 26.07545 14.63868 35.09375l100.96484 101.75 0.13086 82.14453c0 15.42258 12.48187 27.9707 28.03516 27.9707 14.11558 0 27.90429-16.33842 27.90429-27.9707v-114.29687c0-7.9727-3.33271-15.16157-8.6914-20.32422l-67.04883-66.85156 88.9414-88.94141c16.72959-20.84661 7.90625-45.87695 7.90625-45.87695-9.27968-27.77372-40.71289-28.6875-40.71289-28.6875l-229.3125-0.0664zm71.88477 186.90039-132.26758 132.53125c-9.99855 8.03804-13.26611 22.21855-7.25391 34.04688 6.86174 13.52743 23.52531 18.88607 37.05274 11.95898 1.8298-0.98025 3.52924-2.09145 5.09766-3.39844l135.79687-135.99414-32.60937-32.47851c-2.09119-2.02584-4.05196-4.24807-5.81641-6.66602zm-198.92578 124.88477-11.958985 12.15429 87.373045 87.43946c18.82079 14.57303 38.49219-10.71875 38.49219-10.71875l-12.22071-12.28516-6.59961 6.59961c-6.60034 6.46963-12.15624-0.32617-12.15624-0.32617l-82.92969-82.86328zm418.37109 72.92968v9.28125c0 9.27968-8.88672 8.36329-8.88672 8.36329h-117.17383v17.05664h123.70899c23.65667-3.0061 19.66992-34.70118 19.66992-34.70118h-17.31836z"/>
</svg>
