<?xml version="1.0" encoding="UTF-8" standalone="no"?>
<svg xmlns:rdf="http://www.w3.org/1999/02/22-rdf-syntax-ns#" xmlns="http://www.w3.org/2000/svg" version="1.0" xmlns:cc="http://creativecommons.org/ns#" xmlns:dc="http://purl.org/dc/elements/1.1/" viewBox="0 0 576.44501 577.45154">
<path d="m64.571 0.06355556c-41.335 0-64.571 21.371-64.571 65.036v450.123c0 40.844 20.895 62.229 62.192 62.229h452.024c41.307 0 62.229-20.315 62.229-62.229v-450.123c0-42.601-20.922-65.036-63.521-65.036-0.004 0-448.495-0.143-448.353 0z"/>
<path fill="#fff" d="m208.2301 165.27723c10.95918-1.56532 19.76733-6.55801 26.42447-14.97804 6.65666-8.41942 9.20231-18.11496 7.63693-29.08664-1.17149-10.56466-5.96696-19.27421-14.38646-26.128682-8.41996-6.853734-18.11551-9.497963-29.08664-7.932717-10.9596 1.171636-19.76774 6.065692-26.42448 14.682259-6.65707 8.61728-9.20272 18.21423-7.63691 28.79083 1.17105 10.95972 5.96653 19.76788 14.38645 26.42447 8.41954 6.65722 18.11509 9.40005 29.08664 8.22852zm323.08129 185.04301c-0.39493-0.39431-54.43896-27.81069-162.13223-82.2493l-41.12465-53.44054c-6.65724-5.87981-13.11695-5.4914-19.37916 1.16532-3.92035 4.69714-4.50597 9.78842-1.75683 15.27385l30.54769 39.34988-25.27715 57.58168-66.36594-16.45703-2.94003-24.07603 54.62371-6.47166c11.74788-1.56545 17.62198-7.82796 17.6223-18.78755-0.00032-5.09108-2.15456-9.59674-6.46271-13.51699-4.30878-3.91983-9.00864-5.48545-14.09962-4.6969l-55.80691 6.45375-5.27054-41.10673c-1.18338-10.57669-6.08349-19.29222-14.70019-26.1466-8.61715-6.85382-18.2081-9.49806-28.77292-7.93272-10.97152 1.17149-19.78566 6.06561-26.44239 14.68225-6.65707 8.61721-9.39991 18.21414-8.22851 28.79085l11.76014 95.74836c1.56545 12.53713 7.63674 22.13406 18.21388 28.79084l-87.53778 10.57696-27.016069 67.54914c13.708129-6.26247 26.824742-9.39373 39.349879-9.39379 12.14246 0.00006 24.08783 2.73692 35.83617 8.21059 7.05115 3.1313 14.49087 4.69693 22.31918 4.69689 7.83991 0.00004 15.28561-1.56559 22.33711-4.69689 11.35359-5.47367 23.29298-8.21053 35.81824-8.21059 7.44546 0.00006 17.3352 2.1513 29.66926 6.45374 12.33354 4.30254 21.82888 6.45378 28.48608 6.45374 7.8398 0.00004 15.2855-1.56559 22.33712-4.69689 11.74786-5.47367 23.88446-8.21053 36.40983-8.21059 7.83973 0.00006 15.38104 1.17428 22.62393 3.52267 7.24215 2.3485 14.38906 4.89115 21.44076 7.62795 99.86512-26.62757 149.79788-47.97268 149.79842-64.03541-0.00054-3.90799-1.96056-6.84204-5.88007-8.80218zm-71.67235 97.50522c-7.05176 0.00001-16.84291 2.15425-29.37347 6.46269-12.53143 4.30849-22.12538 6.46271-28.78187 6.46271-7.05171 0-16.84286-2.15422-29.37348-6.46271-12.53137-4.30844-22.12532-6.46268-28.78187-6.46269-7.05165 0.00001-16.8428 2.15425-29.37347 6.46269-12.53132 4.30849-22.32247 6.46271-29.37348 6.46271-7.03963 0-16.7292-2.15422-29.06871-6.46271-12.34003-4.30844-22.03557-6.46268-29.08663-6.46269-7.03958 0.00001-16.72915 2.15425-29.06872 6.46269-12.33997 4.30849-22.0355 6.46271-29.08663 6.46271-7.03952 0-16.72909-2.15422-29.06872-6.46271-12.33991-4.30844-22.03544-6.46268-29.08663-6.46269-7.05142 0.00001-16.842568 2.15425-29.373466 6.46269-12.531089 4.30849-22.32224 6.46271-29.37347 6.46271v42.88151c7.05123-0.00005 16.842381-2.15427 29.37347-6.46271 12.530898-4.30849 22.322046-6.46273 29.373466-6.4627 6.65679-0.00003 16.25373 2.15421 28.79084 6.4627 12.53683 4.30844 22.32499 6.46266 29.36451 6.46271 7.05113-0.00005 16.74666-2.15427 29.08663-6.46271 12.33957-4.30849 22.02914-6.46273 29.06872-6.4627 7.05106-0.00003 16.7466 2.15421 29.08663 6.4627 12.33951 4.30844 22.02908 6.46266 29.06871 6.46271 7.05101-0.00005 16.84216-2.15427 29.37348-6.46271 12.53067-4.30849 22.32182-6.46273 29.37347-6.4627 6.65655-0.00003 16.2505 2.15421 28.78187 6.4627 12.53062 4.30844 22.32177 6.46266 29.37348 6.46271 6.65649-0.00005 16.25044-2.15427 28.78187-6.46271 12.53056-4.30849 22.32171-6.46273 29.37347-6.4627 7.05084-0.00003 16.74339 2.15421 29.07768 6.4627 12.3333 4.30844 22.02585 6.46266 29.07767 6.46271v-42.88151c-7.05182 0-16.74437-2.15422-29.07767-6.46271-12.33429-4.30844-22.02684-6.46268-29.07768-6.46269z"/>
</svg>
