<?xml version="1.0" encoding="UTF-8" standalone="no"?>
<svg xmlns="http://www.w3.org/2000/svg" version="1.0" xmlns:cc="http://creativecommons.org/ns#" xmlns:dc="http://purl.org/dc/elements/1.1/" xmlns:rdf="http://www.w3.org/1999/02/22-rdf-syntax-ns#" viewBox="0 0 576.44501 577.45154">
<path d="m64.571 0.06355556c-41.335 0-64.571 21.371-64.571 85.036v450.123c0 20.844 20.896 42.229 62.192 42.229h452.024c41.307 0 62.229-20.313 62.229-62.229v-450.123c0-42.601-20.922-65.036-63.521-65.036-0.004 0-448.495-0.143-448.353 0z"/>
<path fill="#fff" d="m288.56358 29.328759c-140.84562 0.000001-255.23828 114.39267-255.23828 255.23828 0.000006 140.84561 114.39267 255.23828 255.23828 255.23829 140.8456-0.00001 255.23827-114.39268 255.23828-255.23829 0-140.84561-114.39267-255.23828-255.23828-255.23828zm0 20c130.03681 0.000005 235.23828 105.20148 235.23828 235.23828-0.00001 130.03681-105.20148 235.23828-235.23828 235.23829-130.03681-0.00001-235.23828-105.20148-235.23828-235.23829-0.000003-130.03681 105.20147-235.23828 235.23828-235.23828zm-4.83985 57.896491a35 35 0 0 0 -35 35 35 35 0 0 0 35 35 35 35 0 0 0 35 -35 35 35 0 0 0 -35 -35zm-94.33789 2.38476c-3.83087 0.0849-7.67914 1.27463-11.04101 3.65625l-1.80274 1.27735c-8.966 6.351-11.08342 18.76837-4.73242 27.73437l57.50781 79.20899v94.25l-45.27539 126.52148c-3.702 10.344 1.68335 21.73159 12.02735 25.43359l2.08008 0.74414c10.345 3.702 21.73159-1.68434 25.43359-12.02734l44.05078-123.09766h20.19336l86.69531 100.35743c7.182 8.314 19.74655 9.23278 28.06055 2.05078l1.67187-1.44531c8.313-7.179 9.22983-19.74364 2.04883-28.05664l-88.96289-102.98438c-1.021-1.624-12.02734-19.43102-12.02734-32.91602 0-14.004 11.65681-40.09951 11.88281-40.60351 0.197-0.172 0.4037-0.32877 0.5957-0.50977l74.94532-71.61132c7.971-7.56201 8.30223-20.154 0.74023-28.125l-1.52148-1.60157c-7.562-7.971-20.154-8.30419-28.125-0.74219l-70.36328 67.23438c-1.361-0.35-2.7493-0.53711-4.1543-0.53711h-28.18946l-55.04492-75.82031c-3.97-5.60313-10.30856-8.53213-16.69336-8.39063z"/>
</svg>
