<?xml version="1.0" encoding="UTF-8" standalone="no"?>
<svg xmlns:rdf="http://www.w3.org/1999/02/22-rdf-syntax-ns#" xmlns="http://www.w3.org/2000/svg" version="1.0" xmlns:cc="http://creativecommons.org/ns#" xmlns:dc="http://purl.org/dc/elements/1.1/" viewBox="0 0 576.44501 577.45154">
<defs>
<style type="text/css">.fil0 {fill:#EF7900}</style>
</defs>
<path d="m64.571 0.06355556c-41.335 0-64.571 21.371-64.571 65.036v450.123c0 40.844 20.894 62.229 62.192 62.229h452.024c41.307 0 62.229-20.316 62.229-62.229v-450.123c0-42.601-20.922-65.036-63.522-65.036-0.003 0-448.494-0.143-448.352 0z"/>
<path opacity=".5" d="m88.213326 509.08055 35.852144-235.5766 28.10793-16.83019 27.49507 17.27906s31.17338 237.98265 28.24669 236.55518c-2.92668-1.42745-119.11649 0.71374-119.70183-1.42745z" fill-rule="evenodd" fill="#fff"/>
<path style="color-rendering:auto;text-decoration-color:#000000;color:#000000;isolation:auto;mix-blend-mode:normal;shape-rendering:auto;solid-color:#000000;block-progression:tb;text-decoration-line:none;text-decoration-style:solid;image-rendering:auto;white-space:normal;text-indent:0;text-transform:none" d="m316.64561 30.31704-20.35156 29.648438c-5.03927 6.97941-3.87542 12.988634 3.49414 18.027344 6.96701 4.25876 12.97046 3.092956 18.00976-3.496094l11.64063-17.441406 181.38867 119.19922-148.24414 26.74024c-5.4297 1.15951-9.79184 3.9685-13.08594 8.42773-3.29459 4.45971-4.16702 9.20923-2.61719 14.24805l31.97266 125-104.65039 156.4082c-1.9401 3.47761-2.90836 7.15525-2.9082 11.03516-0.00016 6.19826 2.22787 11.52873 6.6875 15.98828 4.45931 4.45939 9.78975 6.68742 15.98828 6.6875 8.13803-0.00008 14.72631-3.87325 19.76562-11.62109l109.29883-164.55078 5.82031 22.67578-16.27148 123.26172c-0.78103 6.19826 0.5727 11.72236 4.0625 16.57226 3.4892 4.84975 8.33454 7.85436 14.5332 9.01367 6.2098 1.15915 11.92754-0.10053 17.15625-3.77929 5.22798-3.67885 8.2326-8.62194 9.01367-14.83203l16.85743-126.15626c0.39003-4.27014 0.003-8.72811-1.1543-13.37695l-37.22461-148.26367 97.10937-17.44141c5.03867-0.76863 9.10743-3.384 12.20704-7.84375 3.09873-4.45919 4.25683-9.20674 3.47656-14.24609-1.15967-5.03882-4.06263-9.30317-8.71094-12.79297l-223.26367-147.0918zm38.94531 86.03711c-10.45693 0.00033-19.36913 3.58592-26.73828 10.75977-7.3696 7.17454-11.05489 15.99664-11.05469 26.46484-0.0002 10.45701 3.68509 19.27337 11.05469 26.44727 7.36915 7.17446 16.28135 10.76 26.73828 10.75976 10.46829 0.00024 19.4821-3.5853 27.04102-10.75976 7.55836-7.1739 11.3376-15.99026 11.33789-26.44727-0.00029-10.4682-3.77953-19.2903-11.33789-26.46484-7.55892-7.17385-16.57273-10.75944-27.04102-10.75977zm-285.6914 56.35157a6.6105081 6.6105081 0 0 0 -4.767578 1.77929l-32.625 30.53125a6.6105081 6.6105081 0 0 0 0.216796 9.84766l96.154296 82.32812-96.154296 82.32813a6.6105081 6.6105081 0 0 0 -0.216796 9.84766l32.625 30.53125a6.6105081 6.6105081 0 0 0 9.847656 -0.91602l76.999996-104.98242 77 104.98242a6.6105081 6.6105081 0 0 0 9.84766 0.91602l32.625-30.53125a6.6105081 6.6105081 0 0 0 -0.2168 -9.84766l-96.15429-82.32813 96.15429-82.32812a6.6105081 6.6105081 0 0 0 0.2168 -9.84766l-32.625-30.53125a6.6105081 6.6105081 0 0 0 -9.84766 0.91797l-77 104.98047-76.999996-104.98047a6.6105081 6.6105081 0 0 0 -5.080078 -2.69726zm82.080074 120.43359 4.18946 4.05273-4.18946 4.05274-4.18945-4.05274 4.18945-4.05273z" fill-rule="evenodd" fill="#fff"/>
</svg>
