<?xml version="1.0" encoding="UTF-8" standalone="no"?>
<svg xmlns:rdf="http://www.w3.org/1999/02/22-rdf-syntax-ns#" xmlns="http://www.w3.org/2000/svg" version="1.0" xmlns:cc="http://creativecommons.org/ns#" xmlns:dc="http://purl.org/dc/elements/1.1/" viewBox="0 0 576.44501 577.45154">
<path d="m64.571 0.06355556c-41.335 0-64.571 21.371-64.571 65.036v450.123c0 40.844 20.895 62.229 62.192 62.229h452.024c41.307 0 62.229-20.315 62.229-62.229v-450.123c0-42.601-20.922-65.036-63.521-65.036-0.004 0-448.495-0.143-448.353 0z"/>
<path style="color-rendering:auto;text-decoration-color:#000000;color:#000000;isolation:auto;mix-blend-mode:normal;shape-rendering:auto;solid-color:#000000;block-progression:tb;text-decoration-line:none;image-rendering:auto;white-space:normal;text-indent:0;text-transform:none;text-decoration-style:solid" fill-rule="evenodd" fill="#fff" d="m114.796 59.881494a5.0005 5.0005 0 0 0 -5 5v463.29493a5.0005 5.0005 0 0 0 5 5h14.63477a5.0005 5.0005 0 0 0 5 -5v-199.57227c0.18208 0.1612 0.35412 0.32636 0.53906 0.48633 5.26682 4.55586 12.14584 8.72909 19.69336 12.40235 15.09503 7.3465 32.53582 12.70312 45.25586 12.70312 16.41902 0 35.75357-6.40181 54.58984-12.56641 18.83627-6.16459 37.24102-12.06836 49.42773-12.06836 12.18674 0 26.87463 5.79572 42.66016 11.97266 15.78553 6.17695 32.73609 12.66211 50.41016 12.66211 34.79257 0 73.40625-19.68945 73.40625-19.68945a5.0005 5.0005 0 0 0 2.76562 -4.47071v-257.31055a5.0005 5.0005 0 0 0 -7.23633 -4.472657s-38.03186 18.632813-68.93554 18.632813c-15.17407 0-31.0717-5.831555-46.76563-11.972656-15.69393-6.141104-31.11796-12.66211-46.30469-12.66211-15.18671 0-33.73489 6.412955-52.5371 12.566406-18.80222 6.153452-37.78872 12.06836-51.48047 12.06836-13.67282 0-31.1184-5.947185-44.84375-12.056641-9.40354-4.185717-16.78062-8.216261-20.66992-10.429687a5.0005 5.0005 0 0 0 -4.97461 -4.517578h-14.63477zm181.85156 12.933593v76.812503a2.50025 2.50025 0 0 0 2.71875 2.49024c1.60217-0.14096 3.17287-0.24805 4.57031-0.24805 21.38608 0 47.79033 16.54674 75.4336 22.52734a2.50025 2.50025 0 0 0 3.02734 -2.44336v-76.447266c4.80792 0.861556 9.67929 1.378906 14.60938 1.378906 25.75907 0 53.44441-10.745372 66.17187-16.34961v79.33594c-8.45707 3.92754-38.90458 17.10938-66.17187 17.10938-3.7338 0-7.49261-0.32228-11.24805-0.91016a2.50025 2.50025 0 0 0 -2.88477 2.46875v82.12109a2.50025 2.50025 0 0 0 2.11329 2.46875c3.98237 0.62341 7.9975 0.97266 12.01953 0.97266 26.66823 0 55.13555-11.61615 66.17187-16.5957v79.30859c-6.83273 3.19152-38.5908 17.38086-66.17187 17.38086-4.80665 0-9.687-0.58894-14.60938-1.58398v-77.58789a2.50025 2.50025 0 0 0 -1.9707 -2.44532c-26.37071-5.70528-52.63725-22.63867-76.49024-22.63867-1.64488 0-3.34507 0.11917-5.00976 0.26563a2.50025 2.50025 0 0 0 -2.2793 2.49023v77.31641c-13.65294 1.54223-29.35564 6.91213-45.24804 12.11328-14.01722 4.58745-28.13407 9.03887-40.08594 11.00976v-76.74414a2.50025 2.50025 0 0 0 -2.81446 -2.47851c-3.03712 0.38691-5.92754 0.66406-8.58007 0.66406-14.36411 0-31.98421-6.09643-45.86133-12.27344-8.22294-3.66021-14.79568-7.14994-19.06055-9.52148l-0.5664-79.59766v-13.23242c0.71819 0.70327 1.46422 1.40129 2.26367 2.08984 5.02889 4.33133 11.74997 8.42781 19.14648 12.0293 14.79303 7.20299 32.12185 12.43555 44.07813 12.43555 2.99647 0 6.07973-0.3062 9.21093-0.70508a2.50025 2.50025 0 0 0 2.1836 -2.47852v-77.333985c13.63409-1.962139 28.56209-6.878917 43.19531-11.667968 15.38682-5.035686 30.48187-9.893654 42.13867-11.50586zm-2.36523 80.386723a2.50025 2.50025 0 0 0 -0.30469 0.0273c-23.99167 3.6689-55.80662 18.02814-80.80469 22.42188a2.50025 2.50025 0 0 0 -2.06836 2.46094v82.12109a2.50025 2.50025 0 0 0 2.9336 2.46289c26.08919-4.58552 58.01149-18.93541 80.69531-22.4043a2.50025 2.50025 0 0 0 2.12305 -2.4707v-82.12109a2.50025 2.50025 0 0 0 -2.57422 -2.49805z"/>
</svg>
