<?xml version="1.0" encoding="UTF-8" standalone="no"?>
<svg xmlns:rdf="http://www.w3.org/1999/02/22-rdf-syntax-ns#" xmlns="http://www.w3.org/2000/svg" version="1.0" xmlns:cc="http://creativecommons.org/ns#" xmlns:dc="http://purl.org/dc/elements/1.1/" viewBox="0 0 576.44501 577.45154">
<path d="m64.571 0.06355556c-41.335 0-64.571 21.371-64.571 65.036v450.123c0 40.844 20.895 62.229 62.192 62.229h452.024c41.307 0 62.229-20.315 62.229-62.229v-450.123c0-42.601-20.922-65.036-63.521-65.036-0.004 0-448.495-0.143-448.353 0z"/>
<path fill="#fff" d="m138.74327 28.803368-23.11524 0.144532 127.16602 223.46485 16.44922-12.02735-120.5-211.58203zm-41.519536 197.74219a57.532909 57.532909 0 0 0 -57.533203 57.5332 57.532909 57.532909 0 0 0 57.533203 57.53125 57.532909 57.532909 0 0 0 57.533206 -57.53125 57.532909 57.532909 0 0 0 -57.533206 -57.5332zm192.44727 13.4375c-6.8052 0.0577-13.62674 2.3766-19.26953 7.06836l-129.55664 92.24219c-18.8395 15.86863-22.24522 51.66245-6.52149 70.50195l93.61719 93.69141s25.50469 33.25881 67.53125 2.9707l119.26953-84.19922 93.40039 0.14453c21.81033 0 39.34571-17.53536 39.34571-39.3457 0-21.66543-17.53538-39.34375-39.34571-39.34375l-111.95117-0.14649c-8.91255 0-16.66536 3.84033-23.47656 8.76758l-86.66016 60.93946-59.5625-58.91016 82.9668-60.7207c12.8978-10.79648 14.56387-29.99869 3.83984-42.89649-6.15453-7.17349-14.87741-10.83786-23.62695-10.76367zm10.875 73.00586-16.30469 11.88476 31.01367 54.63477 16.30274-12.17383-31.01172-54.3457zm122.52148 126.45898c-1.12001 0.0386-2.24852 0.39101-3.2539 1.07032l-78.11133 56.73632c-2.60854 1.95641-3.11618 5.65142-1.30469 8.1875l10.58008 14.70899c1.95641 2.60854 5.65142 3.11618 8.1875 1.30469l78.11133-56.73633c2.60855-1.95641 3.11617-5.65142 1.30469-8.1875l-10.58008-14.70899c-1.22276-1.63033-3.06691-2.43939-4.9336-2.375z"/>
</svg>
