<?xml version="1.0" encoding="UTF-8" standalone="no"?>
<svg xmlns:rdf="http://www.w3.org/1999/02/22-rdf-syntax-ns#" xmlns="http://www.w3.org/2000/svg" version="1.0" xmlns:cc="http://creativecommons.org/ns#" xmlns:dc="http://purl.org/dc/elements/1.1/" viewBox="0 0 576.44501 577.45154">
<path d="m64.571 0.06355556c-41.335 0-64.571 21.371-64.571 65.036v450.123c0 40.844 20.895 62.229 62.192 62.229h452.024c41.307 0 62.229-20.315 62.229-62.229v-450.123c0-42.601-20.922-65.036-63.521-65.036-0.004 0-448.495-0.143-448.353 0z"/>
<path fill="#fff" d="m464.33593 478.96474c-7.03982-0.00002-16.72938 2.15422-29.06871 6.46271-12.34021 4.30844-22.03576 6.46266-29.08663 6.46269-7.03976-0.00003-16.82792-2.15425-29.36452-6.46269-12.53736-4.30849-22.13429-6.46273-28.79083-6.46271-7.0397-0.00002-16.82786 2.15422-29.36452 6.46271-12.53728 4.30844-22.32545 6.46266-29.36451 6.46269-6.66914-0.00003-16.26907-2.15425-28.79979-6.46269-12.53127-4.30849-22.31644-6.46273-29.35556-6.46271-7.05152-0.00002-16.74707 2.15422-29.08662 6.46271-12.33998 4.30844-22.03553 6.46266-29.08664 6.46269-7.03953-0.00003-16.7291-2.15425-29.06871-6.46269-12.33992-4.30849-22.03547-6.46273-29.08664-6.46271-7.03947-0.00002-16.827624 2.15422-29.364514 6.46271-12.537066 4.30844-22.133997 6.46266-28.790838 6.46269v42.88151c6.656841-0.00008 16.253772-2.1543 28.790838-6.4627 12.53689-4.30853 22.325044-6.46277 29.364514-6.46271 7.05117-0.00006 16.74672 2.15418 29.08664 6.46271 12.33961 4.3084 22.02918 6.46262 29.06871 6.4627 7.05111-0.00008 16.74666-2.1543 29.08664-6.4627 12.33955-4.30853 22.0351-6.46277 29.08662-6.46271 7.03912-0.00006 16.82429 2.15418 29.35556 6.46271 12.53072 4.3084 22.13065 6.46262 28.79979 6.4627 7.03906-0.00008 16.82723-2.1543 29.36451-6.4627 12.53666-4.30853 22.32482-6.46277 29.36452-6.46271 6.65654-0.00006 16.25347 2.15418 28.79083 6.46271 12.5366 4.3084 22.32476 6.46262 29.36452 6.4627 7.05087-0.00008 16.74642-2.1543 29.08663-6.4627 12.33933-4.30853 22.02889-6.46277 29.06871-6.46271 7.05083-0.00006 16.74637 2.15418 29.08664 6.46271 12.33927 4.3084 22.02883 6.46262 29.06871 6.4627v-42.88151c-7.03988-0.00003-16.72944-2.15425-29.06871-6.46269-12.34027-4.30849-22.03581-6.46273-29.08664-6.46271zm-128.64451-448.21209-265.51753 324.26447h265.51753v-324.26447zm24.66763 74.61238v249.65209h159.21012c0.77631-7.05118 1.16473-13.90528 1.16526-20.56233-0.00052-49.72945-17.6228-96.91937-52.86687-141.5699-30.15374-38.76993-65.98988-67.94318-107.50851-87.51986zm-227.33293 273.15446v64.03541c6.27432 1.94809 12.74001 4.09935 19.39708 6.45374 6.65675 2.35443 13.50487 3.53165 20.5444 3.53163 7.05111 0.00002 16.84226-2.15422 29.37347-6.46271 12.53078-4.30844 22.1307-6.46266 28.79979-6.46269 7.03912 0.00003 16.82429 2.15425 29.35556 6.46269 12.53072 4.30849 22.13065 6.46273 28.79979 6.46271 7.03906 0.00002 16.82723-2.15422 29.36451-6.46271 12.53666-4.30844 22.32482-6.46266 29.36452-6.46269 6.65654 0.00003 16.25347 2.15425 28.79083 6.46269 12.5366 4.30849 22.32476 6.46273 29.36452 6.46271-0.00042 0.00002 1.9596-0.19723 5.88006-0.59154-0.00041 0.00001-0.00041 0.00001 0 0-0.00041 0.00001 0.0984 0.00001 0.29577 0 0.19679 0.00001 0.68377 0.00001 1.4611 0 0.78833-0.39432 1.67277-0.59155 2.6532-0.59155 0.97954 0.00002 3.03522-0.39431 6.16691-1.18324 9.39334-4.30246 20.74712-11.15059 34.06139-20.5444l41.12466-51.11001h-364.79754z"/>
</svg>
