<?xml version="1.0" encoding="UTF-8" standalone="no"?>
<svg xmlns:rdf="http://www.w3.org/1999/02/22-rdf-syntax-ns#" xmlns="http://www.w3.org/2000/svg" version="1.0" xmlns:cc="http://creativecommons.org/ns#" xmlns:dc="http://purl.org/dc/elements/1.1/" viewBox="0 0 576.44501 577.45154">
<path d="m64.571 0.06355556c-41.335 0-64.571 21.371-64.571 65.036v450.123c0 40.844 20.895 62.229 62.192 62.229h452.024c41.307 0 62.229-20.315 62.229-62.229v-450.123c0-42.601-20.922-65.036-63.521-65.036-0.004 0-448.495-0.143-448.353 0z"/>
<path fill="#fff" d="m213.0128 37.8229c-12.02407 0.00039-22.39354 4.249557-31.10742 12.748047-8.71433 8.49936-13.07248 18.766644-13.07227 30.802734-0.00021 12.44187 4.35793 22.911579 13.07227 31.410159 8.71388 8.49931 19.08335 12.75034 31.10742 12.75 12.02355 0.00034 22.2874-4.25069 30.79297-12.75 8.50497-8.49858 12.75746-18.968289 12.75781-31.410159-0.00035-12.03609-4.25284-22.303374-12.75781-30.802734-8.50557-8.49849-18.76942-12.747657-30.79297-12.748047zm283.30664 80.34961-238.53711 5.12696s-17.22132 6.29706-23.88281 9.92382l14.57617 5.3711c0.40471 0.41802 0.81639 0.83654 1.23437 1.2539 1.65772 3.31636 2.90459 7.05013 3.74024 11.20118 0.41737 4.13904-0.62021 8.90351-3.11328 14.29492-0.0003 0.83564-0.41887 1.87322-1.25391 3.11328-5.79702 8.70806-14.50455 13.06281-26.12305 13.0625h-59.72656v160.49805l-34.21094 170.46679c-1.24057 6.63202 0.006 12.74898 3.74024 18.34961 3.73351 5.6005 8.91655 9.02128 15.54882 10.26172 6.63189 1.24027 12.7469-0.003 18.34766-3.73047 5.60037-3.72746 9.23039-8.91391 10.88867-15.55859l34.83789-176.67578h16.17578l34.83594 176.67578c1.24 6.64468 4.66084 11.83113 10.26172 15.55859 5.60024 3.72733 11.92644 4.97074 18.97656 3.73047 6.22671-1.24044 11.30759-4.66122 15.24414-10.26172 3.93586-5.60063 5.07561-11.71759 3.41797-18.34961l-34.21093-171.69922v-143.71679l22.45117-29.06055 23.21875-1.54297 18.47265-24.02539 155.79883-8.68164-0.70898-15.58594zm-382.21875 18.5625c-0.4178 0.0003-2.9047 0.82865-7.46094 2.48633-7.88525 2.89868-11.828255 8.08173-11.828125 15.54883-0.00013 10.78376 6.429775 16.17609 19.289065 16.17578h108.85937c13.69419 0.00031 20.12411-6.013 19.28906-18.03711-0.41796-10.78316-6.84788-16.17353-19.28906-16.17383h-108.85937z"/>
</svg>
