<?xml version="1.0" encoding="UTF-8" standalone="no"?>
<svg xmlns:rdf="http://www.w3.org/1999/02/22-rdf-syntax-ns#" xmlns="http://www.w3.org/2000/svg" version="1.0" xmlns:cc="http://creativecommons.org/ns#" xmlns:dc="http://purl.org/dc/elements/1.1/" viewBox="0 0 576.44501 577.45154">
<path d="m64.571 0.06355556c-41.335 0-64.571 21.371-64.571 65.036v450.123c0 40.844 20.895 62.229 62.192 62.229h452.024c41.307 0 62.229-20.315 62.229-62.229v-450.123c0-42.601-20.922-65.036-63.521-65.036-0.004 0-448.495-0.143-448.353 0z"/>
<path fill="#fff" d="m503.21743 511.86087h-391.222v16.45704h391.222c10.97083-0.00006 20.37356-3.91712 28.20822-11.75118 7.83357-7.83416 11.75062-17.23689 11.75118-28.20821h-15.86544c-0.00054 6.65689-2.34898 12.23817-7.04533 16.74385-4.69741 4.50563-10.38028 6.75846-17.04863 6.7585zm-92.80832-387.70829c10.57652 0.00034 19.78205-3.81812 27.61661-11.45538 7.83366-7.63657 11.75072-16.934728 11.75118-27.894491-0.00046-10.970968-3.91752-20.275093-11.75118-27.91242-7.83456-7.636504-17.04009-11.454969-27.61661-11.45538-10.95983 0.000411-20.25797 3.818876-27.89451 11.45538-7.63729 7.637327-11.45576 16.941452-11.45538 27.91242-0.00038 10.959763 3.81809 20.257921 11.45538 27.894491 7.63654 7.63726 16.93468 11.45572 27.89451 11.45538zm-258.47221 352.46372c4.31427 3.92003 9.60275 5.88006 15.86543 5.88007 7.05113-0.00001 14.49085-2.74285 22.31919-8.22852l-11.74222-12.33381c-3.52584 2.34248-6.8543 3.51371-9.98538 3.51371-3.13143 0-5.48585-0.78276-7.06325-2.34845l-0.57363-0.57363-130.41928-131.01087v22.91078l121.59917 122.19076zm12.9254-261.41224h-133.34139v15.86543h133.34139v-15.86543zm225.57606 273.74605 152.14688-305.459-15.27385-6.47166-153.90373 311.93066h17.0307zm-306.05059-179.75452c-7.445779 0.00014-13.714268 2.35158-18.805467 7.05428-5.09136 4.70301-7.636988 10.77132-7.63693 18.20492-0.000058 7.05144 2.54557 13.02412 7.63693 17.91809 5.091199 4.8942 11.162486 7.34123 18.213877 7.34113h106.32534c4.31423 0.0001 8.2283-0.3883 11.74221-1.16532 9.01111-1.56551 15.2796-4.30836 18.80548-8.22851l52.27527-58.15535 61.09538 58.74694-24.66761 109.83903c-0.78907 2.35442-1.18353 4.31445-1.18324 5.88007-0.00031 7.0513 2.54532 13.12259 7.63693 18.21389 5.09095 5.09126 11.16224 7.6369 18.21388 7.63691 13.31346-0.00001 21.54198-6.85411 24.68554-20.56232l29.95611-133.34139c3.52526-14.10248 1.95963-24.48222-4.69689-31.13928l-53.45846-53.45847 58.15535-67.54912 37.59302 37.59302c3.91961 3.90834 8.42527 5.86238 13.517 5.86215 6.65645 0.00023 13.11616-2.93382 19.37914-8.80218l61.09538-61.09538c3.13073-3.91974 4.69636-8.22821 4.69689-12.92541-0.00053-5.8678-2.05617-10.76188-6.1669-14.68225-4.1118-3.91971-8.91027-5.87974-14.39542-5.88008-5.48619 0.00034-9.79465 1.56597-12.92541 4.69688l-50.51842 50.53636-61.09539-61.09539c-4.69727-4.70848-10.57136-7.0629-17.62229-7.06325h-95.74837c-5.88034 0.00035-10.97163 2.35477-15.27384 7.06325l-65.79228 75.77764c-4.69708 3.90837-7.04552 8.80244-7.04533 14.68226-0.00019 5.48592 1.95685 10.1858 5.87111 14.09962 3.91388 3.91432 8.61374 5.87134 14.09962 5.87111 5.86792 0.00023 10.95919-2.3482 15.27385-7.04533l61.09539-71.08075 35.24458 0.59154-134.52458 156.25217-91.051496-0.59154z"/>
</svg>
