<?xml version="1.0" encoding="UTF-8" standalone="no"?>
<svg xmlns:rdf="http://www.w3.org/1999/02/22-rdf-syntax-ns#" xmlns="http://www.w3.org/2000/svg" version="1.0" xmlns:cc="http://creativecommons.org/ns#" xmlns:dc="http://purl.org/dc/elements/1.1/" viewBox="0 0 576.44501 577.45154">
<path d="m64.571 0.06355556c-41.335 0-64.571 21.371-64.571 65.036v450.123c0 40.844 20.895 62.229 62.192 62.229h452.024c41.307 0 62.229-20.315 62.229-62.229v-450.123c0-42.601-20.922-65.036-63.521-65.036-0.004 0-448.495-0.143-448.353 0z"/>
<path fill="#fff" d="m476.79296 238.70642c10.95891 0.00022 20.25706-3.81823 27.89449-11.45538 7.6364-7.63668 11.45486-16.93482 11.45539-27.89448-0.00053-10.97109-3.81899-20.27521-11.45539-27.91242-7.63743-7.63663-16.93558-11.45509-27.89449-11.45538-10.57743 0.00029-19.78296 3.81875-27.61662 11.45538-7.83457 7.63721-11.75162 16.94133-11.75118 27.91242-0.00044 10.95966 3.91661 20.2578 11.75118 27.89448 7.83366 7.63715 17.03919 11.4556 27.61662 11.45538zm35.83617 269.04916-14.10858-8.22851c-4.69739 7.8281-11.5515 11.74217-20.56233 11.74221-4.30297-0.00004-8.41424-1.17119-12.33381-3.5137l-413.54118-243.19835-8.22851 14.09067 413.5591 243.19834c6.26205 3.5256 13.11017 5.28842 20.5444 5.28849 15.27334-0.00007 26.8303-6.45977 34.67091-19.37915zm-330.73613-188.57463c2.35423 0.3946 5.68267-0.19107 9.98536-1.75686l113.3886-37.00142c10.95907-3.91986 17.02738-9.99115 18.20492-18.21388 1.17692-8.22234 1.56827-12.728 1.17428-13.51699l-17.0307-61.68699 68.1407 40.53306 8.22852 59.33853c1.56524 10.57714 6.06492 18.01685 13.49908 22.31919l88.70304 51.7016c3.13075 1.96013 6.26201 2.94015 9.39377 2.94004 5.87956 0.00011 10.77663-2.05851 14.69122-6.17586 3.91355-4.11715 5.87058-8.91262 5.8711-14.38647-0.00052-7.83996-3.52019-13.71405-10.55903-17.62229l-70.50708-41.12465-7.63693-105.73374c-1.17166-14.10231-7.23698-24.28485-18.19595-30.54769l-101.62844-59.930131c-9.40603-5.473339-19.20018-8.210192-29.38244-8.210588-18.40537 0.000396-32.69919 7.44011-42.88149 22.319189-5.86838 9.01168-8.80243 18.79984-8.8022 29.36451-0.00023 4.6972 0.58538 9.40007 1.75685 14.10858l27.60766 89.8683-82.82296 26.4424c-11.74838 3.52585-18.40528 12.14278-19.97074 25.85081-2.35458 18.40526 7.23639 28.77903 28.77292 31.12135z"/>
</svg>
