<?xml version="1.0" encoding="UTF-8" standalone="no"?>
<svg xmlns:rdf="http://www.w3.org/1999/02/22-rdf-syntax-ns#" xmlns="http://www.w3.org/2000/svg" version="1.0" xmlns:cc="http://creativecommons.org/ns#" xmlns:dc="http://purl.org/dc/elements/1.1/" viewBox="0 0 576.44501 577.45154">
<path d="m64.571 0.06355556c-41.335 0-64.571 21.371-64.571 65.036v450.123c0 40.844 20.895 62.229 62.192 62.229h452.024c41.307 0 62.229-20.315 62.229-62.229v-450.123c0-42.601-20.922-65.036-63.521-65.036-0.004 0-448.495-0.143-448.353 0z"/>
<path style="color:#000000;block-progression:tb;text-decoration-line:none;text-transform:none;text-indent:0" fill="#fff" d="m291.55772 149.5104c-67.73755 0-129.02237 7.64569-174.78906 20.56836-22.883349 6.46133-41.872156 14.08382-56.480472 23.83594-14.608315 9.75211-26.550782 23.17007-26.550782 40.59961 0 8.62899 2.92963 16.2739 7.658203 22.97852l24.248047 141.79882a13.748887 13.748887 0 0 0 8.773438 10.74805c4.132422 5.73156 9.665439 10.68617 15.751953 14.87109 12.719833 8.74584 29.252623 15.5843 49.177733 21.37891 21.48408 6.24797 46.9295 11.10351 75.03906 14.26758v8.95508c0 7.7333 9.97308 13.95898 22.36133 13.95898h119.34961c12.38825 0 22.36133-6.22568 22.36133-13.95898v-10.13282c24.24596-3.14298 46.30755-7.57136 65.2832-13.08984 19.92509-5.79461 36.5087-12.63307 49.22852-21.37891 6.22782-4.28207 11.89559-9.36556 16.06836-15.26757a13.748887 13.748887 0 0 0 7.70703 -10.18946l26.39258-144.00781c3.91922-6.20257 6.29297-13.16786 6.29297-20.93164 0-17.42954-11.94246-30.8475-26.55079-40.59961-14.60831-9.75212-33.65181-17.37461-56.53515-23.83594-45.76669-12.92267-107.04958-20.56836-174.78711-20.56836zm0 34.28125c65.02777 0 123.953 7.58446 165.1914 19.22852 20.6192 5.82203 36.78316 12.79193 46.50391 19.28125 9.72078 6.48932 11.28516 10.89865 11.28516 12.21289s-1.56438 5.77631-11.28516 12.26563c-9.72075 6.48931-25.8847 13.46117-46.50391 19.2832-41.2384 11.64406-100.16363 19.22851-165.1914 19.22851-65.02778 0-123.90026-7.58445-165.13867-19.22851-20.61921-5.82203-36.837828-12.79388-46.558597-19.2832-9.720766-6.48931-11.230469-10.95139-11.230469-12.26563s1.509703-5.72357 11.230469-12.21289c9.720769-6.48932 25.939387-13.45922 46.558597-19.28125 41.23841-11.64406 100.11089-19.22852 165.13867-19.22852zm218.66992 98.70508-20.52539 112a13.748887 13.748887 0 0 0 -0.22461 3.66016c-24.66889 15.55713-63.79537 27.90236-111.01953 34.79492v-32.9707c0.6253-65.07936-148.97163-75.61835-164.07227 0v34.29297c-52.01369-6.61403-95.15457-19.71707-121.4375-36.53321a13.748887 13.748887 0 0 0 -0.203125 -3.08203l-19.119137-111.80859c12.249423 6.22495 26.682622 11.50471 43.142582 16.15234 45.76669 12.92266 107.05151 20.56836 174.78906 20.56836 67.73753 0 129.02042-7.6457 174.78711-20.56836 16.77134-4.73555 31.47074-10.12643 43.88281-16.50586z"/>
<path opacity=".5" style="color-rendering:auto;text-decoration-color:#000000;color:#000000;isolation:auto;mix-blend-mode:normal;shape-rendering:auto;solid-color:#000000;block-progression:tb;text-decoration-line:none;image-rendering:auto;white-space:normal;text-indent:0;text-transform:none;text-decoration-style:solid" fill="#fff" d="m248.33897 163.71744a5.0005 5.0005 0 0 0 -0.49219 0.0215l-12.91406 1.17187a5.0005 5.0005 0 0 0 -4.44531 5.98829l14.8789 72.33007c-19.30976 1.27889-38.5892 3.24308-57.73047 6.14649l-30.16796-65.5586a5.0005 5.0005 0 0 0 -5.23438 -2.86132l-16.16797 2.25781a5.0005 5.0005 0 0 0 -3.41406 7.80859l42.10156 60.51953c-18.22162 3.18122-36.30893 7.1461-54.12695 12.29493a5.0005 5.0005 0 0 0 0.19531 9.6582c66.61762 16.37586 135.6924 19.58893 203.73828 17.64648a5.0005 5.0005 0 0 0 0.0566 -0.002c49.63302-1.96783 99.78668-6.87075 148-20.4043a5.0005 5.0005 0 0 0 -0.0781 -9.64843c-18.45328-4.86384-37.15367-8.55738-55.97461-11.4629l40.76758-58.60156a5.0005 5.0005 0 0 0 -3.41407 -7.80859l-16.16797-2.25781a5.0005 5.0005 0 0 0 -5.23437 2.86132l-29.375 63.83204c-19.37197-2.55875-38.85827-4.22027-58.36133-5.19532l14.7168-71.55468a5.0005 5.0005 0 0 0 -4.44531 -5.98829l-12.91407-1.17187a5.0005 5.0005 0 0 0 -5.4414 4.66602l-4.61131 73.51565c-12.47925-0.43711-24.95469-0.66973-37.39844-0.625a5.0005 5.0005 0 0 0 -0.0449 0c-12.21547 0.15491-24.46082 0.5771-36.70313 1.20117l-4.64648-74.09179a5.0005 5.0005 0 0 0 -4.95117 -4.6875z"/>
</svg>
