<?xml version="1.0" encoding="UTF-8" standalone="no"?>
<svg xmlns:rdf="http://www.w3.org/1999/02/22-rdf-syntax-ns#" xmlns="http://www.w3.org/2000/svg" version="1.0" xmlns:cc="http://creativecommons.org/ns#" xmlns:dc="http://purl.org/dc/elements/1.1/" viewBox="0 0 576.44501 577.45154">
<path d="m64.571 0.06355556c-41.335 0-64.571 21.371-64.571 65.036v450.123c0 40.844 20.896 62.229 62.192 62.229h452.024c41.307 0 62.229-20.314 62.229-62.229v-450.123c0-42.601-20.922-65.036-63.521-65.036-0.004 0-448.495-0.143-448.353 0z"/>
<path style="color-rendering:auto;text-decoration-color:#000000;color:#000000;isolation:auto;mix-blend-mode:normal;shape-rendering:auto;solid-color:#000000;block-progression:tb;text-decoration-line:none;text-decoration-style:solid;image-rendering:auto;white-space:normal;text-indent:0;text-transform:none" d="m295.68467 32.434228c-3.21299-0.04995-6.44542 0.772748-10.25781 2.447266l-252.24219 75.236336-1.121094 0.52929c-9.669472 4.56352-13.685547 10.8944-13.685547 21.58985v21.12304c0 5.34772 2.573976 12.60441 8.873047 16.59961 5.540901 3.51434 12.139458 3.34334 16.941406 1.69727l250.54296-74.730475c-0.43618-0.127877-0.81609-0.433609-2.51757-1.300781l1.13671 0.578125 1.81446 0.59375 1.85937-0.554687 1.1211-0.529297c-1.72742 0.815258-2.11435 1.10677-2.55469 1.222656l231.00195 75.558599v0.53906h1.64844l4.93359 1.61328c4.73018 1.77956 11.40041 2.20166 17.13867-1.31445 6.53566-4.00471 9.06836-11.40751 9.06836-16.69336v-16.39453-4.72852c0-10.5717-3.74374-16.69695-13.17187-21.50195l-1.13672-0.57813-240.31641-78.605468c-3.2492-1.427607-6.20923-2.351916-9.07617-2.396484zm173.17188 180.53125c-0.5293-0.0103-1.077-0.00023-1.64258 0.0293-18.4933 1.1217-75.16286 24.15484-94.10742 32.1875-18.9471 7.73653-15.49809 8.62375-17.98633 14.4707-2.43185 5.67003-0.62191 8.32676 3.67773 20.25781 4.18554 11.99 11.36955 28.82019 21.54688 51.14649l-129.40039 69.04297c11.9336-5.6726 24.43403-7.85649 37.72265-6.55274 13.23478 1.29732 25.78916 14.05303 41.625 14.11328 15.77814-0.29356 35.45915-15.05827 52.70899-15.12109 17.30492 0.0628 35.8566 13.29342 49.76953 14.64844 13.68602 1.00631 23.81135-1.53721 31.44531-8.0918l-59.21289-130.28906c16.45759-6.14307 30.70936-11.69319 43.66211-16.6543 12.78097-5.19827 29.63425-6.85167 32.91602-13.40625 2.90352-6.52361 3.68367-25.46295-12.72461-25.78125zm14.57226 74.39258c-19.9496 0-36.13867 16.90738-36.13867 37.74023s16.19036 37.73829 36.13867 37.73829 36.13867-16.90544 36.13867-37.73829-16.1891-37.74023-36.13867-37.74023zm-407.41797 53.17383c-0.462961-0.001-0.913108 0.009-1.34961 0.0332-13.914199 0.76789-18.946291 17.66003-12.046875 26.10547 6.900704 8.20956 36.024871 16.59831 53.105471 22.85547 16.96651 5.91103 32.57544 10.27763 47.90234 13.11328 11.99001-5.60977 23.01944-8.44577 33.53906-8.26758 10.46323 0.2346 20.7562 7.73556 28.90039 9.09571 8.03135 1.18195 14.30968 0.35435 19.06055-2.24415-38.62877-15.88712-71.37539-28.58347-99.99219-38.74414-27.88768-9.95616-54.76735-21.90816-69.119136-21.94726zm118.97657 66.64062c-0.46184-0.007-0.9258-0.003-1.39063 0.0117-15.2705 0.59353-32.01063 12.40435-46.9414 13.11328-15.0436 0.23715-28.67495-10.98299-41.96485-11.10351-13.402719-0.23587-28.446862 8.20874-37.496092 10.09961-9.049247 1.71524-14.761615 1.89334-16.910157 0.5332v31.30273c2.148542 1.35757 7.86091 1.18271 16.910157-0.53125 9.04923-1.89085 24.092102-10.33745 37.496092-10.10156 13.29118 0.11921 26.92124 11.33999 41.96485 11.10156 14.93077-0.58843 31.6709-12.69724 46.9414-13.11132 14.87439-0.5897 28.16582 10.39497 43.1543 10.63086 15.21409 0.1205 30.65303-9.91985 46.9414-9.625 16.06145 0.23459 32.40546 11.15991 48.80664 11.10351 16.11785-0.3551 31.38826-11.99143 48.18555-12.10937 16.8537-0.0564 35.40338 11.34125 51.91992 11.63867 16.28582 0 33.14386-10.69397 45.07618-11.10547 11.6503-0.5333 18.04051 7.02868 25.05273 8.56445 6.89942 1.47679 12.1597 1.71162 16.23242 0.47071v-31.30274c-4.07272 1.2435-9.333 1.00481-16.23242-0.4707-7.01222-1.59602-13.40243-9.0365-25.05273-8.625-11.93361 0.41408-28.79036 11.10547-45.07618 11.10547-16.51654-0.35125-35.06622-11.57813-51.91992-11.57813-16.79729 0.11921-32.0677 11.75428-48.18555 12.10938-16.40118 0.0577-32.74519-10.86765-48.80664-11.10352-16.28837-0.41278-31.72731 9.68886-46.9414 9.56836-14.51885-0.28439-27.44687-10.38394-41.76367-10.58594zm0 52.38867c-0.46184-0.006-0.9258-0.003-1.39063 0.0117-15.2705 0.58968-32.01063 12.4018-46.9414 13.11328-15.0436 0.2346-28.67495-10.98752-41.96485-11.10546-13.402719-0.2346-28.446862 8.21069-37.496092 10.10156-9.049247 1.83317-14.761615 1.77127-16.910157 0.47266v31.30273c2.148542 1.2986 7.86091 1.36051 16.910157-0.47266 9.04923-1.89215 24.092102-10.33616 37.496092-10.10156 13.29118 0.11793 26.92124 11.34007 41.96485 11.10547 14.93077-0.71147 31.6709-12.52359 46.9414-13.11328 14.87439-0.47303 28.16582 10.27741 43.1543 10.57226 15.21409 0.11794 30.65303-9.98242 46.9414-9.56836 16.06145 0.23717 32.40546 11.16377 48.80664 11.10352 16.11785-0.35255 31.38826-11.99204 48.18555-12.10742 16.8537 0 35.40338 11.22363 51.91992 11.57617 16.28582 0 33.14386-10.69072 45.07618-11.10352 11.6503-0.41406 18.04051 7.02575 25.05273 8.62305 6.89942 1.47681 12.1597 1.71423 16.23242 0.47461v-31.30273c-4.07272 1.12042-9.333 0.94555-16.23242-0.53125-7.01222-1.53449-13.40243-9.09842-25.05273-8.56641-11.93361 0.41278-28.79036 11.10352-45.07618 11.10352-16.51654-0.35254-35.06622-11.57618-51.91992-11.57618-16.79729 0.11922-32.0677 11.75491-48.18555 12.10743-16.40118 0.0602-32.74519-10.86636-48.80664-11.10352-16.28837-0.41408-31.72731 9.68629-46.9414 9.56836-14.51885-0.28564-27.44687-10.38321-41.76367-10.58399z" fill="#fff"/>
<path style="color-rendering:auto;text-decoration-color:#000000;color:#000000;isolation:auto;mix-blend-mode:normal;shape-rendering:auto;solid-color:#000000;block-progression:tb;text-decoration-line:none;text-decoration-style:solid;image-rendering:auto;white-space:normal;text-indent:0;text-transform:none" d="m295.16905 66.193994 0.42578 0.138671c-0.14945 0.03933-0.71178 0.03355-0.85938-0.0098l0.4336-0.128906z" fill="#fff"/>
</svg>
