<?xml version="1.0" encoding="UTF-8" standalone="no"?>
<svg xmlns:rdf="http://www.w3.org/1999/02/22-rdf-syntax-ns#" xmlns="http://www.w3.org/2000/svg" version="1.0" xmlns:cc="http://creativecommons.org/ns#" xmlns:dc="http://purl.org/dc/elements/1.1/" viewBox="0 0 576.44501 577.45154">
<path d="m64.571 0.06355556c-41.335 0-64.571 21.371-64.571 65.036v450.123c0 40.844 20.895 62.229 62.192 62.229h452.024c41.307 0 62.229-20.315 62.229-62.229v-450.123c0-42.601-20.922-65.036-63.521-65.036-0.004 0-448.495-0.143-448.353 0z"/>
<path fill="#fff" d="m184.85264 34.486962 159.64648 407.73829 175.3711-110.57617c-10.48451-167.26475-192.13543-278.20463-335.01758-297.16212zm-74.36719 193.71876a28.954357 28.954357 0 0 0 -28.953122 28.95507 28.954357 28.954357 0 0 0 28.953122 28.95313 28.954357 28.954357 0 0 0 28.95508 -28.95313 28.954357 28.954357 0 0 0 -28.95508 -28.95507zm256.71094 10.17187c48.71652-0.0857 110.51139 13.38983 141.27539 72.05859 0.97531 1.95061 2.07227 3.96335 2.07227 6.21876 0 4.75461-3.83997 8.59374-8.47266 8.59374-2.37731 0-4.93794-0.73031-6.03516-2.49804-7.31479-12.49609-51.93453-90.58188-188.96484-59.79883-1.28009 0.36571-2.01206 0.48828-3.41406 0.48828-4.6327 0-8.47266-3.83996-8.47266-8.47265 0-3.2307 1.6448-6.40083 4.50977-7.49805 6.95856-2.62494 34.1696-9.03316 67.50195-9.0918zm-122.91016 31.76758c-2.01155 0-3.90133 0.48695-4.63281 0.97461l-46.20508 20.96875-67.29687 0.12305c-16.70208 0-30.294923 13.5924-30.294923 30.35546 0 2.49921 0.304494 4.8766 0.914062 7.25391l30.662111 69.85742c4.75461 10.48451 15.35948 17.73828 27.55078 17.73828h82.83984l47.66797 45.77735c7.68053 7.13192 19.68993 6.64496 26.88281-0.97461 7.13191-7.74146 6.70593-19.75091-0.9746-26.88281l-54.86133-52.11719c-3.41355-2.98688-7.25372-4.87695-12.80078-4.87695h-56.01953l-25.35743-56.32422h30.23438s6.27824-0.36519 9.63086-2.98633l50.22851-22.61524c3.71836-2.62114 6.2168-7.01019 6.2168-11.88671 0-7.8634-6.46041-14.38477-14.38477-14.38477zm-125.14453 214.20117c-10.85026 0-21.15143 2.4995-30.294919 6.64453-8.960618 4.02313-18.956888 6.40039-29.441406 6.40039v44.19336c10.423562 0 20.480788-2.37724 29.441406-6.40039 9.143489-4.26695 19.444659-6.76758 30.294919-6.76758 10.78932 0 21.15144 2.50063 30.29492 6.76758 8.9606 4.02315 19.0198 6.40039 29.44336 6.40039 10.42358 0 20.48079-2.37724 29.44141-6.40039 9.20443-4.26695 19.50561-6.76758 30.29492-6.76758 10.85027 0 21.15297 2.50063 30.35742 6.76758 8.89964 4.02315 18.9573 6.40039 29.38086 6.40039s20.54175-2.37724 29.44141-6.40039c9.20443-4.26695 19.56658-6.76758 30.29492-6.76758 10.85026 0 21.21395 2.50063 30.35742 6.76758 8.89966 4.02315 19.01783 6.40039 29.44141 6.40039 10.42356 0 20.48081-2.37724 29.44141-6.40039 9.14348-4.26695 19.50755-6.76758 30.29687-6.76758 10.7893 0 21.15144 2.50063 30.29492 6.76758 8.96062 4.02315 19.01783 6.40039 29.44141 6.40039v-44.19336c-10.36262 0-20.48079-2.37726-29.44141-6.40039-9.14348-4.14503-19.50562-6.64453-30.29492-6.64453-10.78932 0-21.15339 2.4995-30.29687 6.64453-8.9606 4.02313-19.01785 6.40039-29.44141 6.40039-10.42358 0-20.54175-2.37726-29.44141-6.40039-9.14347-4.14503-19.50716-6.64453-30.35742-6.64453-10.72834 0-21.09049 2.4995-30.29492 6.64453-8.89966 4.02313-18.95689 6.40039-29.44141 6.40039-10.3626 0-20.48122-2.37726-29.38086-6.40039-9.20445-4.14503-19.50715-6.64453-30.35742-6.64453-10.78931 0-21.09049 2.4995-30.29492 6.64453-8.96062 4.02313-19.01783 6.40039-29.44141 6.40039-10.42356 0-20.48276-2.37726-29.44336-6.40039-9.14349-4.14503-19.5056-6.64453-30.29492-6.64453z"/>
</svg>
