<?xml version="1.0" encoding="UTF-8" standalone="no"?>
<svg 
    xmlns="http://www.w3.org/2000/svg"
    xmlns:svg="http://www.w3.org/2000/svg"
    xmlns:rdf="http://www.w3.org/1999/02/22-rdf-syntax-ns#" 
    xmlns:ns2="http://creativecommons.org/ns#" 
    xmlns:dc="http://purl.org/dc/elements/1.1/" 
    xmlns:cc="http://creativecommons.org/ns#"         
    xmlns:xlink="http://www.w3.org/1999/xlink" 
    version="1.1"
    id="svg2"
    style="fill:black;stroke:none">
    <title>SJJB Map Icons [Education Set]</title>
    <desc>These map icons are an attempt to create a simple consistent set of vector icons suitable for cartographic use.</desc>
    <metadata>
        <rdf:RDF>
            <cc:Work rdf:about="">
                <dc:format>image/svg+xml</dc:format>
                <dc:type rdf:resource="http://purl.org/dc/dcmitype/StillImage"/>
                <dc:title>SJJB Map Icons [Education Set]</dc:title>
                <dc:date>2017-01-07</dc:date>
                <dc:creator>
                    <cc:Agent>
                        <dc:title>SJJB Management</dc:title>
                    </cc:Agent>
                </dc:creator>
                <dc:rights>
                    <cc:Agent>
                        <dc:title>Map icons CC-0 from SJJB Management</dc:title>
                    </cc:Agent>
                </dc:rights>
                <dc:language>English</dc:language>

                <dc:source>http://www.sjjb.co.uk/mapicons/introduction</dc:source>
                <dc:description>These map icons are an attempt to create a simple consistent set of vector icons suitable for cartographic use.</dc:description>
            </cc:Work>
        </rdf:RDF>
    </metadata>

    <defs>
        <symbol id="college" viewBox="0 0 458.27149 478.10217">
            <title>college</title>
            <path
                opacity=".75"
                d="m225.87305 0a15.394957 15.394957 0 0 0 -14 9.59375l-39.59375 93.71875h33.4375l21.9375-51.9375 22 51.9375h33.4375l-39.71875-93.71875a15.394957 15.394957 0 0 0 -15.8125 -9.5 15.394957 15.394957 0 0 0 -1.6875 -0.09375zm-160.90625 377.3125-32.65625 79a15.394957 15.394957 0 1 0 28.4375 11.75l37.5-90.75h-33.28125zm290.03125 0 6.09375 9.875 33.375 80.875a15.399125 15.399125 0 1 0 28.46875 -11.75l-32.65625-79h-35.28125z"/>
            <path
                d="m10.261719 93.058594a10.263305 10.263305 0 0 0 -10.261719 10.261716v273.98633a10.263305 10.263305 0 0 0 10.261719 10.26367h437.74805a10.263305 10.263305 0 0 0 10.26172 -10.26367v-273.98633a10.263305 10.263305 0 0 0 -10.26172 -10.261716h-437.74805zm316.87305 53.744136c1.1537-0.006 2.31665 0.009 3.46875 0.0488 7.88726-0.11941 15.96189 0.30645 23.68555 1.36719 36.18418 4.93808 67.52886 35.08868 71.83984 71.54687 5.19228 28.67854-4.01309 61.16608-29.74219 77.45704h36.62891v35.65039h-83.85352v-38.23828c28.16775-18.29131 36.78811-58.17587 23.19727-88.05469-9.46122-27.14063-48.59986-34.07962-68.51953-14.50391-26.12217 29.01687-19.46195 81.36057 13.52929 102.5586v38.24023h-69.78906c-13.02705 3.22698-16.41527-3.18699-14.06641-15.33594 1.36791-8.3996-5.04094-24.57616 8.98633-20.3164 8.42664-0.36229 20.85512 0.72967 26.76367-0.53711-29.9042-19.67126-36.42841-60.92773-24.9082-92.79102 10.89695-35.13803 47.01428-56.90177 82.7793-57.0918zm-299.27539 3.32032h46.982418c0.0125 14.94432-0.0347 29.88983 0.0488 44.83398-1.16558 21.33163 3.29544 45.07698 21.68359 58.3125 0.57786-34.37897 0.21686-68.76525 0.29297-103.14648h47.029303v103.29297c6.70866-5.30038 12.22548-11.74721 15.9707-19.4375 10.56784-26.48967 4.63848-56.04848 6.10547-83.85547h46.98047c-0.93206 28.71522 3.39122 58.19843-4.78516 86.15039-8.94346 28.26485-32.78669 56.11906-64.125 58.89844-0.23849 12.56619-0.11788 25.13359-0.14648 37.70117h-47.029303v-37.65235c-21.46292-1.42079-39.07031-16.11957-51.23044-32.7207-23.496945-31.18232-16.965185-72.53437-17.679682-109.05469l-0.09766-3.32226z"/>
        </symbol>
        <symbol id="college_vocational" viewBox="0 0 458.27149 478.10217">
            <title>college_vocational</title>
            <path
                opacity=".75"
                d="m225.87305 0a15.394957 15.394957 0 0 0 -14 9.59375l-39.59375 93.71875h33.4375l21.9375-51.9375 22 51.9375h33.4375l-39.71875-93.71875a15.394957 15.394957 0 0 0 -15.8125 -9.5 15.394957 15.394957 0 0 0 -1.6875 -0.09375zm-160.90625 377.3125-32.65625 79a15.394957 15.394957 0 1 0 28.4375 11.75l37.5-90.75h-33.28125zm290.03125 0 6.09375 9.875 33.375 80.875a15.399125 15.399125 0 1 0 28.46875 -11.75l-32.65625-79h-35.28125z"/>
            <path
                d="m10.261719 93.058594a10.263305 10.263305 0 0 0 -10.261719 10.261716v273.98633a10.263305 10.263305 0 0 0 10.261719 10.26367h437.74805a10.263305 10.263305 0 0 0 10.26172 -10.26367v-273.98633a10.263305 10.263305 0 0 0 -10.26172 -10.261716h-437.74805zm95.351561 80.326176c1.69835 0.0412 3.34687 0.99781 4.22657 2.45117l15.65234 25.88281 0.24414 0.36719c4.78146 6.64604 7.56889 13.56104 11.30274 17.64258 89.82523-0.87913 179.62769-1.76933 269.45507-2.63477 0.0837-0.005 0.16259 0.004 0.2461 0 16.92664-0.82745 30.13203 14.31093 29.74219 30.44727h0.0293c0.005 0.0932-0.004 0.18237 0 0.27539-0.002 0.0718 0.003 0.14309 0 0.21484h-0.0293c0.5794 16.08438-12.60875 30.50193-29.03907 30.50781-0.0715 0.002-0.14143 0.002-0.21289 0-65.13349-2.59913-130.20404-6.36399-195.23828-9.40429-0.0102-0.00038-0.0211 0.0004-0.0312 0-25.28242-0.95992-50.58503-3.00229-75.35156-3.33789-10.12741 12.78879-19.26602 27.15885-29.37305 40.89257-1.13787 1.56225-3.22065 2.37219-5.11523 1.99024l-73.697322-14.73438c-2.310209-0.46827-4.121032-2.72725-4.074219-5.08398l0.367188-21.01172c0.04789-2.64171 2.473136-5.00836 5.115234-4.99219 17.206486 0.025 34.424546 1.04048 50.939456 0.55078 4.28276-6.4769 8.32975-13.39795 11.70117-20.24804-3.0979-6.98411-6.98289-14.08828-11.02734-20.67383-16.99259-1.05278-34.57739-0.65011-52.195317-1.22656-2.641712-0.0793-4.97847-2.53333-4.929687-5.17579l0.367187-23.0039c0.04312-2.3123 1.862707-4.46877 4.134766-4.90039l75.687504-14.70313c0.36278-0.0706 0.73406-0.10158 1.10351-0.0918zm302.25977 64.8457c-0.22207-0.002-0.44801 0.0109-0.67383 0.0293-0.13226 0.0154-0.26537 0.0263-0.39844 0.0312-6.21112 0.0169-11.03827 7.0329-8.91406 12.86523 0.0345 0.11122 0.065 0.22263 0.0918 0.33594 2.00971 6.95647 13.27749 8.55081 17.12305 2.38867 0.0946-0.1481 0.19722-0.29022 0.30664-0.42774 4.31272-5.51819-0.65101-15.16258-7.53516-15.22265z"/>
        </symbol>
        <symbol id="nursery" viewBox="0 0 361.35037 513.7146">
            <title>nursery</title>
            <path
                d="m180.67957 0c-40.0746 0-72.56055 32.487909-72.56055 72.562503 0 40.073377 32.48595 72.562497 72.56055 72.562497 40.07337 0 72.56054-32.48912 72.56054-72.562497 0-40.074594-32.48717-72.562503-72.56054-72.562503zm-44.04883 156.33398c-13.68271 0-22.30365 4.97667-30.18164 12.79883l-97.128906 97.31446c-26.544838 26.54848 9.3758103 60.52848 35.87695 34.02734l58.660156-59.04883v55.38477h76.70312 0.0723 76.17188v-55.68946l60.19726 60.32422c24.23971 25.53126 61.13087-8.77343 35.85938-34.04492l-98.11524-98.26758c-8.10741-7.97389-17.33683-12.79883-31.01953-12.79883h-43.09375-0.0723-43.92968zm-32.76172 169.19922s-49.032536 49.08528-49.085936 49.13868c-15.78026 15.78027-11.70958 43.52454 3.00977 58.54492l68.583976 71.3125c26.46836 26.46836 61.77798-10.13953 36.18359-35.73633l-43.36718-43.36523 42.32226-42.24415-57.64648-57.65039zm152.61914 0-57.64648 57.65039 42.32226 42.24415-43.36523 43.36523c-25.59438 25.5968 9.71328 62.20469 36.18164 35.73633l68.58593-71.3125c14.71935-15.02038 18.78809-42.76465 3.00782-58.54492-0.0534-0.0534-49.08594-49.13868-49.08594-49.13868z"/>
        </symbol>
        <symbol id="nursery2" viewBox="0 0 537.11176 421.36725">
            <title>nursery2</title>
            <path
                opacity=".9"
                d="m527.80219 233.7179c-0.48529 0.0407-0.96695 0.12451-1.4375 0.25l-150.125 36.78125c-3.34121 0.82744-5.98179 3.94332-6.25 7.375l-10.53125 134.34375c-0.20848 2.66076 0.95557 5.38481 3.03125 7.0625s5.00463 2.26184 7.5625 1.5l138.40625-40.875c2.94641-0.86617 5.29415-3.50422 5.8125-6.53125l22.1875-130.25c0.42465-2.44876-0.34106-5.08691-2-6.9375-1.65894-1.85058-4.17581-2.87423-6.65625-2.71875zm-55.34375 43.1875c4.16129-0.0518 7.62431 0.56682 10.375 1.875 6.28711 2.99034 10.04402 9.0023 11.21875 18.0625l-30.96875 13.40625c-0.29409-3.48785-1.52026-5.80946-3.6875-6.96875-2.16743-1.15909-5.35449-1.11646-9.5625 0.15625-5.31274 1.60698-9.95398 4.91911-13.9375 9.9375-3.98362 5.01852-6.68257 11.62213-8.09375 19.78125-1.25768 7.27116-0.60849 12.27466 2 15.0625 2.6084 2.78794 6.45024 3.43365 11.5 1.90625 4.20799-1.27275 7.95833-3.48217 11.21875-6.625 3.26028-3.14274 6.01368-7.28998 8.25-12.4375l29.875-5.5625c-2.84497 7.22524-6.62312 13.86397-11.3125 19.9375-4.68957 6.0736-10.24696 11.38072-16.6875 15.90625-6.44067 4.52547-14.2324 8.15328-23.4375 10.9375-8.88959 2.68879-16.13484 4.0523-21.75 4.09375-5.61522 0.0415-10.22867-1.21934-13.8125-3.84375-3.58391-2.62433-6.14864-6.2089-7.65625-10.75-1.50763-4.54106-1.50763-11.19186 0-19.90625 1.57442-9.10271 4.35165-17.09022 8.34375-24.03125 2.92462-5.09259 6.56195-9.97077 10.90625-14.625 4.34426-4.65408 8.66354-8.46102 12.90625-11.375 6.72987-4.61292 14.96617-8.41565 24.75-11.375 7.69283-2.32676 14.21227-3.4959 19.5625-3.5625z"/>
            <path
                opacity=".9"
                d="m153.48969 47.905396c-2.27628-0.0446-4.55062 0.88663-6.125 2.53125-1.57439 1.64462-2.42509 3.97783-2.28125 6.25l9.34375 148.34375c0.18507 2.96826 2.10735 5.76429 4.8125 7l123.84375 56.65625c2.48702 1.13403 5.53492 0.93184 7.84375-0.53125 2.30883-1.46308 3.8073-4.14188 3.84375-6.875l2.34375-160.625c0.0501-3.492564-2.36827-6.881004-5.6875-7.968754l-135.5-44.375c-0.78606-0.25638-1.61078-0.39383-2.4375-0.40625zm37.375 55.843754c2.56726-0.0582 5.75916 0.40333 9.59375 1.375 5.11273 1.29567 10.6895 3.27402 16.6875 5.96875 9.62826 4.32594 17.35748 8.42626 23.25 12.28125 5.89237 3.85515 10.87812 8.59705 14.9375 14.25 2.85066 3.93186 5.1797 8.71111 6.96875 14.375 1.78886 5.66396 2.77723 10.77697 2.96875 15.28125l1.78125 42.21875c0.1913 4.50428 0.61031 8.1917 1.21875 10.96875 0.6082 2.77699 1.83534 6.49843 3.6875 11.21875l-30.15625-13.53125c-1.31484-3.00612-2.17065-5.23084-2.59375-6.6875-0.42325-1.45683-0.88937-3.66558-1.375-6.59375-4.01263 2.73334-8.05279 4.13558-12.125 4.25-5.57003 0.0895-12.10128-1.5259-19.625-4.90625-9.99665-4.49134-17.71799-10.54278-23.125-18.15625-5.40705-7.61351-8.26455-15.31505-8.59375-23.0625-0.3088-7.26697 1.30723-12.40007 4.84375-15.40625 3.5365-3.00611 10.26647-3.38904 20.21875-1.15625 11.93113 2.65063 19.65693 4.22243 23.1875 4.71875 3.53047 0.49641 7.26536 0.75524 11.1875 0.75-0.19146-4.50427-1.13622-8.02795-2.84375-10.5625-1.70766-2.53448-4.61492-4.71863-8.71875-6.5625-5.26141-2.36382-9.16975-3.17736-11.71875-2.4375-1.98818 0.57958-3.53839 2.64214-4.625 6.21875l-30.84375-17.5c0.89718-5.60575 2.34082-9.65505 4.375-12.1875 2.03418-2.53227 5.06834-4.16751 9.0625-4.90625 0.71681-0.13447 1.51925-0.19935 2.375-0.21875zm22.25 64.53125c-2.02342 0.0503-3.45398 0.36662-4.28125 0.9375-1.70469 1.17819-2.48223 3.0401-2.375 5.5625 0.12245 2.88277 1.09705 5.62637 2.9375 8.25 1.84035 2.62368 4.45506 4.71348 7.875 6.25 3.5777 1.60743 6.88125 2.09901 9.875 1.5 2.99363-0.59914 5.05086-2.03894 6.21875-4.3125 1.16775-2.27361 1.66265-5.68561 1.46875-10.25l-0.25-5.84375c-4.34305-0.18392-8.86466-0.69897-13.59375-1.46875-3.21997-0.47464-5.85158-0.67531-7.875-0.625z"/>
            <path
                opacity=".75"
                d="m440.10971 158.96736c-0.60744 0.002-1.21463 0.0715-1.80689 0.2065l-43.98501 10.01537-6.84424 17.95006-48.92074 36.15987-9.48977 14.39723 42.43624 47.18579c1.99028 2.19986 5.22505 3.18884 8.10522 2.47803l151.26299-37.37693c2.92586-0.73167 5.34936-3.19071 6.03836-6.12692 0.689-2.9362-0.3877-6.21658-2.6827-8.17337l-88.79602-74.80548c-1.47769-1.22928-3.3953-1.91813-5.31744-1.91015z"/>
            <path
                opacity=".75"
                d="m97.153067 144.41992c-1.91591-0.0224-3.83259 0.64755-5.31744 1.85852l-87.608631 71.29495c-2.354223 1.91725-3.502227 5.20388-2.853728 8.16997 0.648498 2.96608 3.063356 5.47374 6.00289 6.23357l145.48092 36.80905c2.82348 0.70907 5.99717-0.21232 8.00197-2.32315l41.24885-43.159-15.95231-7.22758-23.77787-15.75483-10.14015-43.97599-53.432493-11.71901c-0.54185-0.12418-1.09626-0.19348-1.65201-0.2065z"/>
            <path opacity=".6" stroke-linejoin="round" d="m395.14901 45.640946-106.30201 54.903214-1.75223 161.20524 97.54086-67.16885 10.51338-148.9396z" stroke="#fff" stroke-linecap="round" stroke-width="16.520189"/>
            <path
                opacity=".6"
                d="m339.91541 226.17921-45.90613 30.77984-2.32315 65.86795c-0.0805 1.8914 0.51393 3.80461 1.65202 5.31743l67.78441 89.36391c2.00793 2.64714 5.71344 3.8692 8.90218 2.93591s5.65058-3.96043 5.91436-7.27246l10.53162-133.14241c0.17592-2.2608-0.62946-4.58109-2.16827-6.2467l-44.38704-47.60347z"/>
            <path
                opacity=".9"
                d="m7.8021867 215.7179c-2.326622 0.13332-4.589116 1.29437-6.03125 3.125-1.442134 1.83062-2.040076 4.30057-1.625 6.59375l23.34375 129.65625c0.543838 3.03831 2.933761 5.66849 5.90625 6.5l134.34375 37.375c2.55318 0.7176 5.45311 0.1239 7.5-1.5625 2.04689-1.68639 3.18456-4.41919 2.96875-7.0625l-10.53125-130.25c-0.27672-3.41286-2.89812-6.50849-6.21875-7.34375l-147.1875-36.8125c-0.8057083-0.19628-1.6410833-0.2703-2.4687503-0.21875zm21.46875 29.625 33.53125 7.75 6.4375 34.28125c2.778022-2.11643 6.117255-3.40556 10.0625-3.875 3.9452-0.46935 8.4813-0.11514 13.59375 1.0625 10.551063 2.43064 19.854133 7.56726 27.937503 15.4375 8.08318 7.87029 13.23697 17.6895 15.4375 29.4375 1.46686 7.83201 1.16227 14.38763-0.875 19.625-2.03749 5.23735-5.57138 8.6796-10.59375 10.34375-5.02258 1.66402-10.92041 1.72234-17.71875 0.15625-5.81951-1.34059-11.334293-3.62691-16.562503-6.8125-3.94749-2.45979-8.46256-6.39781-13.59375-11.84375l1.96875 10.59375-31.09375-7.15625-18.53125-99zm52.65625 56.90625c-2.30704 0.0849-4.19574 0.77476-5.65625 2.09375-2.336849 2.1105-2.99138 5.99858-1.9375 11.625 1.154984 6.16661 3.399277 10.93033 6.71875 14.34375 3.3194 3.41346 7.1096 5.63523 11.40625 6.625 3.9702 0.9146 7.03659 0.29053 9.218753-1.8125 2.18204-2.10302 2.70552-6.34458 1.5-12.78125-1.06235-5.67145-3.14612-10.1429-6.281253-13.40625-3.13526-3.2633-6.62233-5.32297-10.375-6.1875-1.69281-0.38995-3.20953-0.55096-4.59375-0.5z"/>
            <path opacity=".75" d="m264.31578 8.2600108-109.66044 46.580155 134.19166 45.11992 105.13385-55.3413-129.66507-36.358775z"/>
            <path
                opacity=".6"
                d="m187.13648 216.48925-37.58344 38.51269c-1.64732 1.68654-2.51749 4.10367-2.32315 6.4532l11.0995 130.25138c0.28624 3.28715 2.73596 6.27965 5.90183 7.20948 3.16586 0.92984 6.84474-0.26266 8.86309-2.87293l65.97751-85.85337c1.14165-1.45868 1.77121-3.3103 1.75527-5.16256l-0.87763-64.63524-52.81298-23.90265z"/>
            <path
                d="m264.09516 0.00304783a8.2609207 8.2609207 0 0 0 -3.00781 0.654297l-109.66211 46.580081a8.2609207 8.2609207 0 0 0 -3.23438 2.46484 8.2609207 8.2609207 0 0 0 -3.09375 6.97071l6.26758 99.480474-52.560553-11.52735a8.260921 8.260921 0 0 0 -1.65039 -0.20703 8.260921 8.260921 0 0 0 -5.31836 1.85938l-85.628903 69.68554a8.2609207 8.2609207 0 0 0 -6.076172 9.46289l23.363281 129.66407a8.2609207 8.2609207 0 0 0 5.914063 6.49414l134.33789 37.38086a8.2609207 8.2609207 0 0 0 2.73828 0.27539 8.260921 8.260921 0 0 0 6.61133 -3.19922l65.97656-85.85156a8.260921 8.260921 0 0 0 1.75586 -5.16407l-0.76172-56.02734 41.76563 19.10938a8.2609207 8.2609207 0 0 0 9.94726 0.44335l1.86719-1.28515-1.95898 55.56054c-0.0805 1.8914 0.5123 3.80359 1.65039 5.31641l66.625 87.83399a8.2609207 8.2609207 0 0 0 10.07422 5.05468l138.42773-40.88476a8.2609207 8.2609207 0 0 0 5.80273 -6.53516l21.73047-127.53125c0.40865-0.69293 0.72399-1.43956 0.90821-2.22461 0.689-2.9362-0.38666-6.21704-2.68164-8.17383l-88.79688-74.80468c-1.47769-1.22928-3.39622-1.91814-5.31836-1.91016-0.60744 0.002-1.21438 0.0701-1.80664 0.20508l-43.58398 9.8789 8.66992-122.83007a8.2609207 8.2609207 0 0 0 -3.42774 -7.28516 8.2609207 8.2609207 0 0 0 -3.75 -2.27148l-129.66406-36.359387a8.2609207 8.2609207 0 0 0 -2.45117 -0.302735zm0.7793 16.994148 106.90429 29.97461-83.65039 44.03125-110.22851-37.0625 86.97461-36.94336zm121 42.73047-9.19922 130.30468-81.14649 55.88086 1.52344-140.31054 88.82227-45.875004zm-223.52344 8.07031 118.14844 38.703124-2.06446 141.88477-107.8164-49.33008-8.26758-131.25781zm-63.183603 93.865234 53.275393 11.63086 2 31.73438a8.2609207 8.2609207 0 0 0 4.80665 6.99218l21.41406 9.79883-28.34961 29.64258-37.19141-9.29883-87.714844-22.16406 71.759761-58.33594zm338.77344 14.54688 73.08985 61.5-130.5293 31.99609-35.34766-37.9082 44.16602-30.41406a8.2609207 8.2609207 0 0 0 3.55469 -6.22266l0.625-8.85938 44.4414-10.09179zm-240.42773 53.31836 25.92578 11.86328 0.8164 61.00195-51.26367 66.64844-8.98437-105.21289 33.50586-34.30078zm-178.85938 5.54687 80.76172 20.18945 48.287113 12.2168 9.07422 112.39649l-117.94532-32.81836-20.177733-111.98438zm312.77539 6.17188 36.65235 39.27343 1.55273 1.98243-4.89258 62.50195-3.56836 45.24414-52.86328-69.69336 2.27149-64.95117 20.84765-14.35742zm186.60547 11.90625-19.18945 112.60742-121.97656 36.02734 2.7539-35.17968 6.39258-80.83204 132.01953-32.62304z"/>
        </symbol>
        <symbol id="nursery3" viewBox="0 0 476.12885 497.62934">
            <title>nursery3</title>
            <path
                opacity=".9"
                d="m15.521898 88.291312c-4.195247-0.0822-8.3869183 1.63409-11.288544 4.66517-2.901644 3.03108-4.469507 7.331248-4.204406 11.518918l17.220788 273.40161c0.341089 5.47059 3.883904 10.62375 8.86957 12.9012l228.24744 104.41902c4.58364 2.09005 10.20101 1.71741 14.45624-0.9791 4.25524-2.6965 7.01696-7.6336 7.08414-12.67082l4.3196-296.03629c0.0923-6.43689-4.36479-12.68188-10.48222-14.68663l-249.73023-81.784348c-1.44873-0.47251-2.968712-0.72584-4.492379-0.74873zm68.883151 102.92157c4.73153-0.10724 10.61429 0.74335 17.681551 2.53417 9.4229 2.38795 19.70104 6.03411 30.75552 11.00057 17.74515 7.97282 31.99031 15.52983 42.85039 22.63468 10.8598 7.10515 20.04867 15.8446 27.53022 26.26314 5.25385 7.24653 9.54633 16.05482 12.8436 26.49352 3.29692 10.43883 5.11851 19.86225 5.47149 28.16377l3.28289 77.81031c0.35257 8.30151 1.12482 15.09753 2.24619 20.21571 1.12093 5.11807 3.38258 11.97679 6.79616 20.67647l-55.57879-24.93847c-2.42329-5.54036-4.00057-9.64058-4.78036-12.32525-0.78006-2.68497-1.63913-6.75576-2.53416-12.15246-7.39539 5.03762-14.84151 7.62199-22.34671 7.83287-10.26572 0.16495-22.30299-2.81228-36.16941-9.04236-18.424101-8.27766-32.654751-19.43063-42.620011-33.46246-9.96535-14.03191-15.2318-28.22606-15.83852-42.50483-0.56913-13.39322 2.40926-22.85367 8.92716-28.39414 6.51787-5.54034 18.92139-6.24609 37.263721-2.131 21.9894 4.88518 36.22826 7.78205 42.7352 8.69679 6.50675 0.91489 13.39025 1.39192 20.61887 1.38227-0.35287-8.3015-2.09409-14.79574-5.24111-19.46698-3.14727-4.67112-8.50543-8.69657-16.0689-12.09487-9.69692-4.35658-16.9001-5.85596-21.59798-4.49238-3.66427 1.06818-6.52135 4.86954-8.524 11.46133l-56.845881-32.25298c1.65353-10.33155 4.3142-17.79453 8.06325-22.4619 3.74905-4.66704 9.34109-7.68084 16.70243-9.04235 1.3211-0.24784 2.80002-0.36741 4.37719-0.40317zm41.007361 118.93287c-3.72921 0.0927-6.36578 0.67569-7.89046 1.72784-3.14179 2.17144-4.57481 5.60299-4.37719 10.25184 0.22568 5.31303 2.0219 10.36956 5.4139 15.20498 3.39181 4.83551 8.21079 8.68707 14.51384 11.51892 6.5938 2.96254 12.68233 3.86853 18.19989 2.76454 5.51735-1.10423 9.30888-3.75782 11.46133-7.94805 2.1522-4.19033 3.06431-10.47874 2.70695-18.89104l-0.46076-10.77019c-8.00436-0.33897-16.33781-1.28822-25.05365-2.70695-5.9345-0.87477-10.78463-1.24461-14.51385-1.15189z"/>
            <path
                d="m219.37154 0.00534234a15.225104 15.225104 0 0 0 -5.54688 1.207032l-202.10546 85.847658a15.225104 15.225104 0 0 0 -5.9648453 4.54297 15.225104 15.225104 0 0 0 -5.699218 12.847658l17.222652 273.42382a15.225104 15.225104 0 0 0 8.859375 12.88672l225.91992 103.36914a15.225104 15.225104 0 0 0 18.33593 0.82032l179.7715-123.79492a15.225104 15.225104 0 0 0 6.55078 -11.4668l19.37695-274.5a15.225104 15.225104 0 0 0 -6.32421 -13.4336 15.225104 15.225104 0 0 0 -6.90429 -4.17968l-238.97657-67.009771a15.225104 15.225104 0 0 0 -4.51562 -0.560547zm1.43945 31.320313 197.02149 55.244147-154.16797 81.152338-203.1543-68.306638 160.30078-68.089847zm223.00196 78.755865-16.95313 240.15429-149.55859 102.98828 2.81054-258.5957 163.70118-84.54687zm-411.95899 14.87304 217.75 71.33203-3.80273 261.49805-198.70899-90.91797-15.238279-241.91211z"/>
            <path
                opacity=".6"
                d="m459.99654 68.921362c-2.10641 0.124-4.18563 0.69204-6.0625 1.65625l-195.9375 101.1875c-4.8811 2.52971-8.16728 7.87756-8.21875 13.375l-3.25 297.09375c-0.0694 5.5507 3.1632 11.01503 8.0625 13.625 4.89931 2.60997 11.24457 2.24797 15.8125-0.90625l179.75-123.78125c3.75454-2.58077 6.23988-6.92421 6.5625-11.46875l19.375-274.5c0.3072-4.30696-1.30827-8.7104-4.34375-11.78125s-7.43977-4.75729-11.75-4.5zm-51.75 153.59375c0.68844-0.001 1.3525 0.0145 2 0.0625 10.35975 0.76779 17.21511 6.61198 20.46875 17.625l-46.6875 32.1875c-1.00361-4.31649-3.28395-6.69607-6.875-7.125-3.59131-0.4286-8.60498 1.23397-15.03125 4.90625-8.11335 4.63658-14.91402 11.08529-20.40625 19.4375-5.49238 8.35248-8.73114 18.10107-9.6875 29.21875-0.85241 9.90777 0.99316 16.01583 5.53125 18.3125 4.53793 2.29686 10.69452 1.25074 18.40625-3.15625 6.42625-3.67234 11.94894-8.3347 16.59375-13.9375 4.64461-5.60265 8.34048-12.23805 11.0625-19.90625l46.15625-21.65625c-3.35797 10.62048-8.24778 20.98689-14.6875 31.03125-6.44 10.04452-14.34517 19.52132-23.78125 28.4375-9.43631 8.91619-21.19243 17.37287-35.25 25.40625-13.57576 7.75806-24.76167 12.99933-33.59375 15.78125-8.83216 2.78201-16.2958 3.39498-22.34375 1.78125-6.04805-1.61358-10.61046-4.95789-13.6875-10.03125-3.07707-5.07327-4.11527-13.56333-3.09375-25.4375 1.06703-12.40344 4.19859-23.99789 9.40625-34.8125 3.81398-7.93247 8.78967-15.93805 14.90625-24 6.11654-8.0618 12.3048-14.99365 18.53125-20.78125 9.87796-9.16854 22.27739-18.02394 37.21875-26.5625 19.58022-11.18927 34.51711-16.75999 44.84375-16.78125z"/>
            <path
                opacity=".75"
                d="m219.37154 0.01510834c-1.89621 0.04667-3.78298 0.451737-5.53125 1.1875l-202.125 85.843754c-5.6579963 2.38678-9.5170023 8.48871-9.2812503 14.624998 0.235752 6.13629 4.550556 11.89812 10.375 13.84375l247.34375 83.15625c3.89056 1.30341 8.30802 0.94493 11.9375-0.96875l193.75-102c5.348-2.81749 8.66578-9.05111 8.03125-15.0625-0.63454-6.01138-5.18161-11.42368-11-13.0625l-238.96875-67.000002c-1.47077-0.413427-3.00403-0.603764-4.53125-0.5625zm42.46875 64.218754c1.15078 0.006 2.32109 0.0344 3.5 0.0625 18.86252 0.45021 38.78788 4.31343 59.78125 11.625 13.99549 4.87452 24.58241 9.95902 31.75 15.25 7.16739 5.29109 10.30533 10.249318 9.40625 14.874998-0.89938 4.62574-5.10346 8.65915-12.625 12.0625-6.43858 2.91334-14.19466 4.92797-23.25 6.0625-6.92715 0.81575-16.75211 0.90371-29.46875 0.28125l18.96875 6.59375-34.40625 15.5625-176.875-61.593748 37.09375-16.78125 61.3125 21.34375c-1.47713-3.45369-1.18319-6.68091 0.90625-9.6875 2.08953-3.00655 5.96881-5.7843 11.625-8.34375 10.94404-4.95185 25.0195-7.39822 42.28125-7.3125zm-1.9375 22.78125c-6.32685-0.0472-11.3358 0.76246-14.96875 2.40625-4.99434 2.25988-6.60004 4.94153-4.8125 8.09375 1.7877 3.152318 7.72702 6.498308 17.78125 9.999998 11.01949 3.83794 20.54816 5.89813 28.59375 6.21875 8.04562 0.32074 14.43383-0.56778 19.1875-2.71875 4.39262-1.98755 5.63768-4.51985 3.75-7.5625-1.88772-3.04253-8.56044-6.556448-20.0625-10.562498-10.13472-3.52971-19.02349-5.44888-26.6875-5.78125-0.958-0.0415-1.87741-0.087-2.78125-0.0937z"/>
        </symbol>
        <symbol id="school" viewBox="0 0 458.27149 477.78143">
            <title>school</title>
            <path
                opacity=".75"
                d="m225.8876 0.00080068249a15.394957 15.394957 0 0 0 -14.02735 9.605469l-47.16211 111.66015-19.78125 42.99805-1.57422 141.63086-64.201173 37.02734-46.835934 113.39453a15.394957 15.394957 0 1 0 28.455074 11.75391l42.837893-103.71289 70.33399-40.56445 1.69726-152.62305 17.24024-37.47852 34.76953-82.318352 27.67188 65.314452-4.19922 92.18945 109.94336 178.26758 33.42578 80.92578a15.394957 15.394957 0 1 0 28.45508 -11.75391l-34.37305-83.2207-106.26367-172.30078 4.08398-89.68555-43.00976-101.51953a15.394957 15.394957 0 0 0 -15.73438 -9.5078083 15.394957 15.394957 0 0 0 -1.75195 -0.082030018z"/>
            <path
                d="m10.261719 93.056123a10.263305 10.263305 0 0 0 -10.261719 10.261717v273.98633a10.263305 10.263305 0 0 0 10.261719 10.26367h437.74805a10.263305 10.263305 0 0 0 10.26172 -10.26367v-273.98633a10.263305 10.263305 0 0 0 -10.26172 -10.261717h-437.74805zm69.960938 36.140627c12.26115 0.0001 22.099883 0.71056 29.537113 2.08398 7.43703 1.37362 13.64141 4.24073 18.59961 8.59571 3.48395 3.01515 6.23203 7.2674 8.24219 12.79492 2.00992 5.52768 3.01549 10.81873 3.01562 15.84375v47.10937c-0.00013 5.02511 0.3243 8.98646 0.96094 11.83399 0.6364 2.84757 2.02576 6.48216 4.16992 10.90429h-38.38867c-1.54113-2.7471-2.54475-4.84659-3.01367-6.28711-0.4691-1.44062-0.94124-3.7167-1.41016-6.79882-5.360163 5.15911-10.710893 8.85345-16.003913 11.06445-7.23619 2.94803-15.6259 4.42578-25.20703 4.42578-12.73027 0-22.39063-2.95548-28.990232-8.85156-6.59963-5.89615-9.910164-13.16346-9.910156-21.80664-0.00001-8.10712 2.395247-14.78558 7.152344-20.01172 4.757069-5.22604 13.530854-9.09453 26.328124-11.64063 15.34323-3.082 25.27003-5.23892 29.82617-6.47851 4.55601-1.23946 9.40197-2.86489 14.49414-4.875-0.00008-5.025-1.03242-8.54066-3.10937-10.55078-2.07714-2.00995-5.74273-3.01358-10.96875-3.01367-6.70017 0.00008-11.72225 1.06307-15.07227 3.20703-2.61309 1.67511-4.74162 4.83596-6.34961 9.45898l-39.093747-4.13672c1.474013-6.83404 3.602248-12.21119 6.382813-16.13086 2.780533-3.91947 6.799274-7.31612 12.025394-10.19726 3.75203-2.07693 8.89087-3.67144 15.45703-4.81055 6.56607-1.13892 13.68798-1.73231 21.32617-1.73242zm280.96289 0c17.42023 0.00011 30.6843 3.13422 39.83008 9.36523 9.14555 6.23121 15.58825 15.32913 19.27344 27.32227l-38.51563 5.13086c-1.20611-4.55602-3.39176-7.98135-6.57422-10.29297-3.18265-2.31145-7.4681-3.46475-12.82812-3.46484-6.76718 0.00008-12.23046 2.42374-16.41797 7.28125-4.18763 4.85766-6.28716 12.21338-6.28711 22.0625-0.00006 8.7772 2.06851 15.42443 6.22265 19.98046 4.15403 4.55612 9.47406 6.86136 15.90626 6.86133 5.36 0.00003 9.85031-1.38964 13.50195-4.13672 3.65148-2.74703 6.39987-6.97087 8.20898-12.66601l38.86914 4.42383c-2.14417 8.10718-5.65981 15.14072-10.55078 21.07031-4.8912 5.92959-11.12594 10.53915-18.73047 13.82226-7.60473 3.283-17.2651 4.90625-28.99023 4.90625-11.32326 0-20.74757-1.06327-28.28516-3.17382-7.53767-2.11053-14.03972-5.50685-19.46679-10.23047-5.42714-4.72356-9.68164-10.2794-12.76368-16.64453-3.08207-6.36509-4.6172-14.81475-4.61718-25.33399 0-10.98814 1.85924-20.11671 5.61132-27.41992 2.74702-5.36 6.50071-10.17698 11.25782-14.43164 4.75707-4.25451 9.66238-7.41505 14.6875-9.49219 7.9731-3.28296 18.19592-4.93934 30.6582-4.93945zm-261.56055 58.49414c-5.62818 2.01008-11.50844 3.78324-17.60547 5.32422-8.30821 2.2111-13.5683 4.39897-15.77929 6.54297-2.27811 2.21108-3.39849 4.72113-3.39844 7.53515-0.00004 3.21609 1.12259 5.84713 3.36719 7.89063 2.24448 2.04356 5.52181 3.07814 9.87695 3.07812 4.55602 0.00002 8.81277-1.12487 12.73242-3.33593 3.91948-2.21101 6.69628-4.89946 8.33789-8.08204 1.64145-3.18253 2.46867-7.31801 2.46875-12.41015v-6.54297zm77.800783 20.94336h41.30665v51.05469c4.08701-4.28797 8.72531-7.51016 13.91796-9.6543 5.19254-2.14395 10.92251-3.20691 17.22071-3.20703 12.99814 0.00012 23.7544 4.66905 32.26367 14.01562 8.50903 9.34674 12.76354 22.75885 12.76367 40.2461-0.00013 11.65825-1.95195 21.94269-5.83789 30.82031-3.8862 8.87768-9.26335 15.49414-16.13086 19.88281-6.86774 4.38857-14.49017 6.60547-22.86523 6.60547-7.16921 0-13.72838-1.56832-19.69141-4.65039-4.48914-2.41195-9.36322-6.93127-14.65625-13.56445v15.77734h-38.29102v-147.32617zm59.875 68.75586c-5.56115 0.00007-10.08013 2.03771-13.59765 6.1582-3.51759 4.12064-5.29107 10.38467-5.29102 18.75977-0.00005 9.17921 1.74469 15.82673 5.19532 19.94726 3.45051 4.1206 7.79082 6.18949 13.08398 6.18946 4.89101 0.00003 8.99781-2.0382 12.31445-6.0918 3.31648-4.05354 5.00187-10.87972 5.00196-20.46094-0.00008-8.44211-1.62358-14.61523-4.87305-18.56836-3.24964-3.953-7.21098-5.93351-11.83399-5.93359z"/>
        </symbol>
        <symbol id="school_primary" viewBox="0 0 458.27149 477.80451">
            <title>school_primary</title>
            <path
                opacity=".75"
                d="m225.88867 0.00078665082a15.394957 15.394957 0 0 0 -14.02929 9.603516l-47.16211 111.66211-19.7793 42.99805-1.57422 141.63086-64.201173 37.02539-46.837889 113.39648a15.394957 15.394957 0 1 0 28.455079 11.75196l42.837893-103.71094 70.33594-40.56445 1.69531-152.625 17.24023-37.47657 34.77149-82.324219 27.67187 65.318359-4.19922 92.18946 109.94336 178.26757 33.42579 80.92579a15.394957 15.394957 0 1 0 28.45507 -11.75196l-34.375-83.2207-106.26367-172.30078 4.08594-89.68555-43.00977-101.52149a15.394957 15.394957 0 0 0 -15.73633 -9.505859 15.394957 15.394957 0 0 0 -1.75 -0.082029999z"/>
            <path
                d="m10.261719 93.055475a10.263305 10.263305 0 0 0 -10.261719 10.261715v273.98633a10.263305 10.263305 0 0 0 10.261719 10.26367h437.74805a10.263305 10.263305 0 0 0 10.26172 -10.26367v-273.98633a10.263305 10.263305 0 0 0 -10.26172 -10.261715h-437.74805zm69.960938 36.140625c12.26115 0.0001 22.099883 0.71056 29.537113 2.08398 7.43703 1.37362 13.64141 4.24073 18.59961 8.59571 3.48395 3.01515 6.23203 7.2674 8.24219 12.79492 2.00992 5.52768 3.01549 10.81873 3.01562 15.84375v47.10937c-0.00013 5.02511 0.3243 8.98646 0.96094 11.83399 0.6364 2.84757 2.02576 6.48216 4.16992 10.90429h-38.38867c-1.54113-2.7471-2.54475-4.84659-3.01367-6.28711-0.4691-1.44062-0.94124-3.7167-1.41016-6.79882-5.360163 5.15911-10.710893 8.85345-16.003913 11.06445-7.23619 2.94803-15.6259 4.42578-25.20703 4.42578-12.73027 0-22.39063-2.95548-28.990232-8.85156-6.59963-5.89615-9.910164-13.16346-9.910156-21.80664-0.00001-8.10712 2.395247-14.78558 7.152344-20.01172 4.757069-5.22604 13.530854-9.09453 26.328124-11.64063 15.34323-3.082 25.27003-5.23892 29.82617-6.47851 4.55601-1.23946 9.40197-2.86489 14.49414-4.875-0.00008-5.025-1.03242-8.54066-3.10937-10.55078-2.07714-2.00995-5.74273-3.01358-10.96875-3.01367-6.70017 0.00008-11.72225 1.06307-15.07227 3.20703-2.61309 1.67511-4.74162 4.83596-6.34961 9.45898l-39.093747-4.13672c1.474013-6.83404 3.602248-12.21119 6.382813-16.13086 2.780533-3.91947 6.799274-7.31612 12.025394-10.19726 3.75203-2.07693 8.89087-3.67144 15.45703-4.81055 6.56607-1.13892 13.68798-1.73231 21.32617-1.73242zm280.96289 0c17.42023 0.00011 30.6843 3.13422 39.83008 9.36523 9.14555 6.23121 15.58825 15.32913 19.27344 27.32227l-38.51563 5.13086c-1.20611-4.55602-3.39176-7.98135-6.57422-10.29297-3.18265-2.31145-7.4681-3.46475-12.82812-3.46484-6.76718 0.00008-12.23046 2.42374-16.41797 7.28125-4.18763 4.85766-6.28716 12.21338-6.28711 22.0625-0.00006 8.7772 2.06851 15.42443 6.22265 19.98046 4.15403 4.55612 9.47406 6.86136 15.90626 6.86133 5.36 0.00003 9.85031-1.38964 13.50195-4.13672 3.65148-2.74703 6.39987-6.97087 8.20898-12.66601l38.86914 4.42383c-2.14417 8.10718-5.65981 15.14072-10.55078 21.07031-4.8912 5.92959-11.12594 10.53915-18.73047 13.82226-7.60473 3.283-17.2651 4.90625-28.99023 4.90625-11.32326 0-20.74757-1.06327-28.28516-3.17382-7.53767-2.11053-14.03972-5.50685-19.46679-10.23047-5.42714-4.72356-9.68164-10.2794-12.76368-16.64453-3.08207-6.36509-4.6172-14.81475-4.61718-25.33399 0-10.98814 1.85924-20.11671 5.61132-27.41992 2.74702-5.36 6.50071-10.17698 11.25782-14.43164 4.75707-4.25451 9.66238-7.41505 14.6875-9.49219 7.9731-3.28296 18.19592-4.93934 30.6582-4.93945zm-261.56055 58.49414c-5.62818 2.01008-11.50844 3.78324-17.60547 5.32422-8.30821 2.2111-13.5683 4.39897-15.77929 6.54297-2.27811 2.21108-3.39849 4.72113-3.39844 7.53515-0.00004 3.21609 1.12259 5.84713 3.36719 7.89063 2.24448 2.04356 5.52181 3.07814 9.87695 3.07812 4.55602 0.00002 8.81277-1.12487 12.73242-3.33593 3.91948-2.21101 6.69628-4.89946 8.33789-8.08204 1.64145-3.18253 2.46867-7.31801 2.46875-12.41015v-6.54297zm77.800783 20.94336h41.30665v51.05469c4.08701-4.28797 8.72531-7.51016 13.91796-9.6543 5.19254-2.14395 10.92251-3.20691 17.22071-3.20703 12.99814 0.00012 23.7544 4.66905 32.26367 14.01562 8.50903 9.34674 12.76354 22.75885 12.76367 40.2461-0.00013 11.65825-1.95195 21.94269-5.83789 30.82031-3.8862 8.87768-9.26335 15.49414-16.13086 19.88281-6.86774 4.38857-14.49017 6.60547-22.86523 6.60547-7.16921 0-13.72838-1.56832-19.69141-4.65039-4.48914-2.41195-9.36322-6.93127-14.65625-13.56445v15.77734h-38.29102v-147.32617zm59.875 68.75586c-5.56115 0.00007-10.08013 2.03771-13.59765 6.1582-3.51759 4.12064-5.29107 10.38467-5.29102 18.75977-0.00005 9.17921 1.74469 15.82673 5.19532 19.94726 3.45051 4.1206 7.79082 6.18949 13.08398 6.18946 4.89101 0.00003 8.99781-2.0382 12.31445-6.0918 3.31648-4.05354 5.00187-10.87972 5.00196-20.46094-0.00008-8.44211-1.62358-14.61523-4.87305-18.56836-3.24964-3.953-7.21098-5.93351-11.83399-5.93359z"/>
        </symbol>
        <symbol id="school_secondary" viewBox="0 0 458.27149 478.10217">
            <title>school_secondary</title>
            <path
                opacity=".75"
                d="m225.87305 0a15.394957 15.394957 0 0 0 -14 9.59375l-39.59375 93.71875h33.4375l21.9375-51.9375 22 51.9375h33.4375l-39.71875-93.71875a15.394957 15.394957 0 0 0 -15.8125 -9.5 15.394957 15.394957 0 0 0 -1.6875 -0.09375zm-160.90625 377.3125-32.65625 79a15.394957 15.394957 0 1 0 28.4375 11.75l37.5-90.75h-33.28125zm290.03125 0 6.09375 9.875 33.375 80.875a15.399125 15.399125 0 1 0 28.46875 -11.75l-32.65625-79h-35.28125z"/>
            <path
                d="m10.261719 93.058594a10.263305 10.263305 0 0 0 -10.261719 10.261716v273.98633a10.263305 10.263305 0 0 0 10.261719 10.26367h437.74805a10.263305 10.263305 0 0 0 10.26172 -10.26367v-273.98633a10.263305 10.263305 0 0 0 -10.26172 -10.261716h-437.74805zm24.095703 72.076176h40.285155c6.70504 12.19548 13.43021 24.37877 20.12109 36.58203 7.697253-12.19907 15.411263-24.38721 23.115243-36.58203h40.51953c-13.8083 21.30392-27.61928 42.60506-41.42578 63.91015 14.93851 23.80192 29.81088 47.64675 44.77344 71.4336h-39.96875c-8.76273-14.33012-17.75037-28.52087-26.462893-42.88282-8.528 14.31236-17.08086 28.60934-25.67383 42.88282h-38.867189c14.010939-23.40841 28.083669-46.78218 42.056639-70.2129-9.6424-16.41861-19.37177-32.80285-29.06055-49.18359l-9.412105-15.94726zm271.90821 0h37.13281c8.90512 26.3422 17.76173 52.70196 26.69922 79.0332 8.37096-26.34522 16.76797-52.68293 25.12305-79.0332h37.56639l-38.82616 107.89648c-7.88329 16.10376-9.09918 34.43566-15.86915 50.91602-8.50945 22.51405-35.94869 33.90928-58.59571 26.22656-1.90194-7.70081-1.70918-17.25008-2.83593-25.63477-3.01158-8.18267 3.06423-5.22004 8.19141-4.37109 11.30327 2.73428 27.82565-1.42272 29.53321-14.76758-12.59393-44.50359-30.28197-87.67649-45.12696-131.60156l-2.99218-8.66406zm-90.49219 5.04101h33.23633v45.24414h45.28516v32.80274h-45.28516v45.87695h-33.23633v-45.87695h-45.28516v-32.80274h23.86329c6.50899-1.47169 19.03551 3.07478 21.42187-2.51953v-42.72461z"/>
        </symbol>
        <symbol id="university" viewBox="0 0 544.94538 370.90805">
            <title>university</title>
            <path
                d="m253.52987 0.00379506a5.0005 5.0005 0 0 0 -2.4414 0.5293l-248.33203 124.71484a5.0005 5.0005 0 0 0 2.177734 9.46875l309.48633 4.15039a5.0005 5.0005 0 0 0 2.37695 -0.5664l225.46094-117.55274a5.0005 5.0005 0 0 0 -2.11523 -9.42969l-286.61329-11.314455zm192.31055 88.1582a5.0005 5.0005 0 0 0 -2.1875 0.60352l-123.32031 67.132815-185.64453-5.29297a5.0005 5.0005 0 0 0 -4.87891 3.39453l-26.83203 79.28125a5.0005 5.0005 0 0 0 5.79102 6.49024c2.26759-0.49012 2.82082-1.03144 4.73437-1.93945s4.4128-2.11764 7.50195-3.53711c6.1783-2.83896 14.69589-6.51362 25.17969-10.12696 20.96761-7.22667 49.7694-14.18513 83.1875-13.62304 16.70398 0.28095 45.0471 7.00596 68.7168 13.74023 23.66969 6.73427 42.89648 13.39258 42.89648 13.39258a5.0005 5.0005 0 0 0 5.41406 -1.44727s35.81436-40.8878 61.80665-57.03515c12.50288-7.76725 34.85713-13.89385 53.76757-17.70703 18.91044-3.81319 34.42578-5.5254 34.42578-5.5254a5.0005 5.0005 0 0 0 3.24219 -8.23242l-49.81054-57.835935a5.0005 5.0005 0 0 0 -3.99024 -1.73243zm-331.14453 61.441415-30.031251 0.4375c-4.1904 6.98455-7.208762 15.75451-10.4375 26.1875-4.652567 15.0338-8.589858 33.04796-10.90625 51-2.209529 17.12384-3.857263 31.89861-5.091797 44.44531-14.25051 2.2775-25.409288 14.23289-26.455078 28.8418a5.0005 5.0005 0 0 0 -0.01953 0.0527 5.0005 5.0005 0 0 0 -0.126953 0.48243 5.0005 5.0005 0 0 0 -0.08008 0.49414 5.0005 5.0005 0 0 0 -0.0059 0.0664l-4.285156 53.22266a5.0005 5.0005 0 0 0 0.683594 2.875 5.0005 5.0005 0 0 0 0.591797 0.80469 5.0005 5.0005 0 0 0 0.738281 0.66992 5.0005 5.0005 0 0 0 0.859375 0.51172 5.0005 5.0005 0 0 0 0.46289 0.1875 5.0005 5.0005 0 0 0 1.466797 0.27929 5.0005 5.0005 0 0 0 0.5 -0.008 5.0005 5.0005 0 0 0 0.498047 -0.0566 5.0005 5.0005 0 0 0 0.488281 -0.10547 5.0005 5.0005 0 0 0 0.47461 -0.15234 5.0005 5.0005 0 0 0 2.59375 -2.24414 5.0005 5.0005 0 0 0 0.220703 -0.44727 5.0005 5.0005 0 0 0 0.21875 -0.63281l-0.195313 2.42578a5.0005 5.0005 0 0 0 0.685547 2.875 5.0005 5.0005 0 0 0 0.591797 0.80469 5.0005 5.0005 0 0 0 0.738281 0.67187 5.0005 5.0005 0 0 0 0.857422 0.50977 5.0005 5.0005 0 0 0 0.462891 0.18945 5.0005 5.0005 0 0 0 1.46875 0.27735 5.0005 5.0005 0 0 0 0.5 -0.006 5.0005 5.0005 0 0 0 0.496094 -0.0566 5.0005 5.0005 0 0 0 0.490234 -0.10547 5.0005 5.0005 0 0 0 0.474609 -0.1543 5.0005 5.0005 0 0 0 1.173828 -0.64258 5.0005 5.0005 0 0 0 0.455079 1.25781 5.0005 5.0005 0 0 0 0.255859 0.42969 5.0005 5.0005 0 0 0 1.001953 1.10938 5.0005 5.0005 0 0 0 0.832031 0.55273 5.0005 5.0005 0 0 0 0.925782 0.375 5.0005 5.0005 0 0 0 0.980468 0.18359 5.0005 5.0005 0 0 0 2.441407 -0.40429 5.0005 5.0005 0 0 0 0.447265 -0.22461 5.0005 5.0005 0 0 0 0.421875 -0.26758 5.0005 5.0005 0 0 0 0.392578 -0.30664 5.0005 5.0005 0 0 0 0.361329 -0.3457 5.0005 5.0005 0 0 0 0.851562 -1.22852 5.0005 5.0005 0 0 0 0.197266 -0.45898 5.0005 5.0005 0 0 0 0.167968 -0.54102l1.298828-5.57422c0.06243 0.0142 0.126667 0.0237 0.189454 0.0371l-1.226563 5.26563a5.0005 5.0005 0 0 0 -0.115234 0.99218 5.0005 5.0005 0 0 0 0.576172 2.40625 5.0005 5.0005 0 0 0 0.255859 0.42969 5.0005 5.0005 0 0 0 1.001953 1.10938 5.0005 5.0005 0 0 0 0.832031 0.55273 5.0005 5.0005 0 0 0 0.925782 0.375 5.0005 5.0005 0 0 0 0.980468 0.18359 5.0005 5.0005 0 0 0 2.441407 -0.40429 5.0005 5.0005 0 0 0 0.447265 -0.22461 5.0005 5.0005 0 0 0 0.421875 -0.26758 5.0005 5.0005 0 0 0 0.392578 -0.30664 5.0005 5.0005 0 0 0 0.361329 -0.3457 5.0005 5.0005 0 0 0 0.808593 -1.15039 5.0005 5.0005 0 0 0 0.08203 0.48242 5.0005 5.0005 0 0 0 0.134766 0.48242 5.0005 5.0005 0 0 0 0.984375 1.72461 5.0005 5.0005 0 0 0 0.347656 0.35937 5.0005 5.0005 0 0 0 0.794922 0.60547 5.0005 5.0005 0 0 0 0.4375 0.24024 5.0005 5.0005 0 0 0 0.9375 0.34375 5.0005 5.0005 0 0 0 1.488281 0.15039 5.0005 5.0005 0 0 0 0.496094 -0.0488 5.0005 5.0005 0 0 0 0.96875 -0.24609 5.0005 5.0005 0 0 0 0.898438 -0.43164 5.0005 5.0005 0 0 0 0.796875 -0.60352 5.0005 5.0005 0 0 0 0.347656 -0.35938 5.0005 5.0005 0 0 0 0.582031 -0.81054 5.0005 5.0005 0 0 0 0.429688 -0.97461l8.394538-27.64063c0.90111-1.53012 1.76568-3.09916 2.58984-4.70117 5.74727-11.17159 9.81445-22.89444 9.81445-32.32812 0-11.94349-6.7698-22.40251-16.654297-27.73243 1.230521-12.59174 2.893007-27.57313 5.171877-45.23437 2.1652-16.7803 5.90533-33.92028 10.15625-47.65625s10.177531-24.52167 11.687501-26c3.53733-3.46321 6.61602-5.20164 8.625-6.09375 0.44788-0.19889 0.78068-0.32356 1.0625-0.4375zm-47.960939 206.83789-0.466796 1.5332 0.34375-1.47656c0.04061-0.0197 0.08261-0.0367 0.123046-0.0566z"/>
        </symbol>
        <symbol id="college" viewBox="0 0 576.44501 577.45154">
            <title>college</title>
            <path d="m64.571 0.06355556c-41.335 0-64.571 21.371-64.571 65.036v450.123c0 40.844 20.895 62.229 62.192 62.229h452.024c41.307 0 62.229-20.315 62.229-62.229v-450.123c0-42.601-20.922-65.036-63.521-65.036-0.004 0-448.495-0.143-448.353 0z"/>
            <path
                opacity=".75"
                fill="#fff"
                d="m287.171 44.795556a15.394957 15.394957 0 0 0 -14 9.59375l-39.59375 93.718754h33.4375l21.9375-51.937504 22 51.937504h33.4375l-39.71875-93.718754a15.394957 15.394957 0 0 0 -15.8125 -9.5 15.394957 15.394957 0 0 0 -1.6875 -0.09375zm-160.90625 377.3125-32.65625 79a15.394957 15.394957 0 1 0 28.4375 11.75l37.5-90.75h-33.28125zm290.03125 0 6.09375 9.875 33.375 80.875a15.399125 15.399125 0 1 0 28.46875 -11.75l-32.65625-79h-35.28125z"/>
            <path
                fill="#fff"
                d="m71.559672 137.85415a10.263305 10.263305 0 0 0 -10.261719 10.26172v273.98633a10.263305 10.263305 0 0 0 10.261719 10.26367h437.74805a10.263305 10.263305 0 0 0 10.26172 -10.26367v-273.98633a10.263305 10.263305 0 0 0 -10.26172 -10.26172h-437.74805zm316.87305 53.74414c1.1537-0.006 2.31665 0.009 3.46875 0.0488 7.88726-0.11941 15.96189 0.30645 23.68555 1.36719 36.18418 4.93808 67.52886 35.08868 71.83984 71.54687 5.19228 28.67854-4.01309 61.16608-29.74219 77.45704h36.62891v35.65039h-83.85352v-38.23828c28.16775-18.29131 36.78811-58.17587 23.19727-88.05469-9.46122-27.14063-48.59986-34.07962-68.51953-14.50391-26.12217 29.01687-19.46195 81.36057 13.52929 102.5586v38.24023h-69.78906c-13.02705 3.22698-16.41527-3.18699-14.06641-15.33594 1.36791-8.3996-5.04094-24.57616 8.98633-20.3164 8.42664-0.36229 20.85512 0.72967 26.76367-0.53711-29.9042-19.67126-36.42841-60.92773-24.9082-92.79102 10.89695-35.13803 47.01428-56.90177 82.7793-57.0918zm-299.27539 3.32032h46.982418c0.0125 14.94432-0.0347 29.88983 0.0488 44.83398-1.16558 21.33163 3.29544 45.07698 21.68359 58.3125 0.57786-34.37897 0.21686-68.76525 0.29297-103.14648h47.0293v103.29297c6.70866-5.30038 12.22548-11.74721 15.9707-19.4375 10.56784-26.48967 4.63848-56.04848 6.10547-83.85547h46.98047c-0.93206 28.71522 3.39122 58.19843-4.78516 86.15039-8.94346 28.26485-32.78669 56.11906-64.125 58.89844-0.23849 12.56619-0.11788 25.13359-0.14648 37.70117h-47.0293v-37.65235c-21.46292-1.42079-39.07031-16.11957-51.23044-32.7207-23.496945-31.18232-16.965185-72.53437-17.679682-109.05469l-0.09766-3.32226z"/>
        </symbol>
        <symbol id="college_vocational" viewBox="0 0 576.44501 577.45154">
            <title>college_vocational</title>
            <path d="m64.571 0.06355556c-41.335 0-64.571 21.371-64.571 65.036v450.123c0 40.844 20.895 62.229 62.192 62.229h452.024c41.307 0 62.229-20.315 62.229-62.229v-450.123c0-42.601-20.922-65.036-63.521-65.036-0.004 0-448.495-0.143-448.353 0z"/>
            <path
                opacity=".75"
                fill="#fff"
                d="m287.171 44.795556a15.394957 15.394957 0 0 0 -14 9.59375l-39.59375 93.718754h33.4375l21.9375-51.937504 22 51.937504h33.4375l-39.71875-93.718754a15.394957 15.394957 0 0 0 -15.8125 -9.5 15.394957 15.394957 0 0 0 -1.6875 -0.09375zm-160.90625 377.3125-32.65625 79a15.394957 15.394957 0 1 0 28.4375 11.75l37.5-90.75h-33.28125zm290.03125 0 6.09375 9.875 33.375 80.875a15.399125 15.399125 0 1 0 28.46875 -11.75l-32.65625-79h-35.28125z"/>
            <path
                fill="#fff"
                d="m71.559672 137.85415a10.263305 10.263305 0 0 0 -10.261719 10.26172v273.98633a10.263305 10.263305 0 0 0 10.261719 10.26367h437.74805a10.263305 10.263305 0 0 0 10.26172 -10.26367v-273.98633a10.263305 10.263305 0 0 0 -10.26172 -10.26172h-437.74805zm95.351558 80.32618c1.69835 0.0412 3.34687 0.99781 4.22657 2.45117l15.65234 25.88281 0.24414 0.36719c4.78146 6.64604 7.56889 13.56104 11.30274 17.64258 89.82523-0.87913 179.62769-1.76933 269.45507-2.63477 0.0837-0.005 0.16259 0.004 0.2461 0 16.92664-0.82745 30.13203 14.31093 29.74219 30.44727h0.0293c0.005 0.0932-0.004 0.18237 0 0.27539-0.002 0.0718 0.003 0.14309 0 0.21484h-0.0293c0.5794 16.08438-12.60875 30.50193-29.03907 30.50781-0.0715 0.002-0.14143 0.002-0.21289 0-65.13349-2.59913-130.20404-6.36399-195.23828-9.40429-0.0102-0.00038-0.0211 0.0004-0.0312 0-25.28242-0.95992-50.58503-3.00229-75.35156-3.33789-10.12741 12.78879-19.26602 27.15885-29.37305 40.89257-1.13787 1.56225-3.22065 2.37219-5.11523 1.99024l-73.697319-14.73438c-2.310209-0.46827-4.121032-2.72725-4.074219-5.08398l0.367188-21.01172c0.04789-2.64171 2.473136-5.00836 5.115234-4.99219 17.206486 0.025 34.424546 1.04048 50.939456 0.55078 4.28276-6.4769 8.32975-13.39795 11.70117-20.24804-3.0979-6.98411-6.98289-14.08828-11.02734-20.67383-16.99259-1.05278-34.57739-0.65011-52.195317-1.22656-2.641712-0.0793-4.97847-2.53333-4.929687-5.17579l0.367187-23.0039c0.04312-2.3123 1.862707-4.46877 4.134766-4.90039l75.687501-14.70313c0.36278-0.0706 0.73406-0.10158 1.10351-0.0918zm302.25977 64.8457c-0.22207-0.002-0.44801 0.0109-0.67383 0.0293-0.13226 0.0154-0.26537 0.0263-0.39844 0.0312-6.21112 0.0169-11.03827 7.0329-8.91406 12.86523 0.0345 0.11122 0.065 0.22263 0.0918 0.33594 2.00971 6.95647 13.27749 8.55081 17.12305 2.38867 0.0946-0.1481 0.19722-0.29022 0.30664-0.42774 4.31272-5.51819-0.65101-15.16258-7.53516-15.22265z"/>
        </symbol>
        <symbol id="nursery" viewBox="0 0 576.44501 577.45154">
            <title>nursery</title>
            <path d="m64.571 0.06355556c-41.335 0-64.571 21.371-64.571 65.036v450.123c0 40.844 20.894 62.229 62.192 62.229h452.024c41.307 0 62.229-20.316 62.229-62.229v-450.123c0-42.601-20.922-65.036-63.522-65.036-0.003 0-448.494-0.143-448.352 0z"/>
            <path
                fill="#fff"
                d="m281.74327 31.977197c-40.0746 0-72.56055 32.487909-72.56055 72.562503 0 40.07338 32.48595 72.5625 72.56055 72.5625 40.07337 0 72.56054-32.48912 72.56054-72.5625 0-40.074594-32.48717-72.562503-72.56054-72.562503zm-44.04883 156.33398c-13.68271 0-22.30365 4.97667-30.18164 12.79883l-97.12891 97.31446c-26.544838 26.54848 9.37581 60.52848 35.87695 34.02734l58.66016-59.04883v55.38477h76.70312 0.0723 76.17188v-55.68946l60.19726 60.32422c24.23971 25.53126 61.13087-8.77343 35.85938-34.04492l-98.11524-98.26758c-8.10741-7.97389-17.33683-12.79883-31.01953-12.79883h-43.09375-0.0723-43.92968zm-32.76172 169.19922s-49.03254 49.08528-49.08594 49.13868c-15.78026 15.78027-11.70958 43.52454 3.00977 58.54492l68.58398 71.3125c26.46836 26.46836 61.77798-10.13953 36.18359-35.73633l-43.36718-43.36523 42.32226-42.24415-57.64648-57.65039zm152.61914 0-57.64648 57.65039 42.32226 42.24415-43.36523 43.36523c-25.59438 25.5968 9.71328 62.20469 36.18164 35.73633l68.58593-71.3125c14.71935-15.02038 18.78809-42.76465 3.00782-58.54492-0.0534-0.0534-49.08594-49.13868-49.08594-49.13868z"/>
        </symbol>
        <symbol id="nursery2" viewBox="0 0 576.44501 577.45154">
            <title>nursery2</title>
            <path d="m64.571 0.06355556c-41.335 0-64.571 21.371-64.571 65.036v450.123c0 40.844 20.894 62.229 62.192 62.229h452.024c41.307 0 62.229-20.316 62.229-62.229v-450.123c0-42.601-20.922-65.036-63.522-65.036-0.003 0-448.494-0.143-448.352 0z"/>
            <path
                opacity=".9"
                d="m547.4835 317.88931c-0.48529 0.0407-0.96695 0.12451-1.4375 0.25l-150.125 36.78125c-3.34121 0.82744-5.98179 3.94332-6.25 7.375l-10.53125 134.34375c-0.20848 2.66076 0.95557 5.38481 3.03125 7.0625s5.00463 2.26184 7.5625 1.5l138.40625-40.875c2.94641-0.86617 5.29415-3.50422 5.8125-6.53125l22.1875-130.25c0.42465-2.44876-0.34106-5.08691-2-6.9375-1.65894-1.85058-4.17581-2.87423-6.65625-2.71875zm-55.34375 43.1875c4.16129-0.0518 7.62431 0.56682 10.375 1.875 6.28711 2.99034 10.04402 9.0023 11.21875 18.0625l-30.96875 13.40625c-0.29409-3.48785-1.52026-5.80946-3.6875-6.96875-2.16743-1.15909-5.35449-1.11646-9.5625 0.15625-5.31274 1.60698-9.95398 4.91911-13.9375 9.9375-3.98362 5.01852-6.68257 11.62213-8.09375 19.78125-1.25768 7.27116-0.60849 12.27466 2 15.0625 2.6084 2.78794 6.45024 3.43365 11.5 1.90625 4.20799-1.27275 7.95833-3.48217 11.21875-6.625 3.26028-3.14274 6.01368-7.28998 8.25-12.4375l29.875-5.5625c-2.84497 7.22524-6.62312 13.86397-11.3125 19.9375-4.68957 6.0736-10.24696 11.38072-16.6875 15.90625-6.44067 4.52547-14.2324 8.15328-23.4375 10.9375-8.88959 2.68879-16.13484 4.0523-21.75 4.09375-5.61522 0.0415-10.22867-1.21934-13.8125-3.84375-3.58391-2.62433-6.14864-6.2089-7.65625-10.75-1.50763-4.54106-1.50763-11.19186 0-19.90625 1.57442-9.10271 4.35165-17.09022 8.34375-24.03125 2.92462-5.09259 6.56195-9.97077 10.90625-14.625 4.34426-4.65408 8.66354-8.46102 12.90625-11.375 6.72987-4.61292 14.96617-8.41565 24.75-11.375 7.69283-2.32676 14.21227-3.4959 19.5625-3.5625z"
                fill="#fff"/>
            <path
                opacity=".9"
                d="m173.171 132.07681c-2.27628-0.0446-4.55062 0.88663-6.125 2.53125-1.57439 1.64462-2.42509 3.97783-2.28125 6.25l9.34375 148.34375c0.18507 2.96826 2.10735 5.76429 4.8125 7l123.84375 56.65625c2.48702 1.13403 5.53492 0.93184 7.84375-0.53125 2.30883-1.46308 3.8073-4.14188 3.84375-6.875l2.34375-160.625c0.0501-3.49256-2.36827-6.881-5.6875-7.96875l-135.5-44.375c-0.78606-0.25638-1.61078-0.39383-2.4375-0.40625zm37.375 55.84375c2.56726-0.0582 5.75916 0.40333 9.59375 1.375 5.11273 1.29567 10.6895 3.27402 16.6875 5.96875 9.62826 4.32594 17.35748 8.42626 23.25 12.28125 5.89237 3.85515 10.87812 8.59705 14.9375 14.25 2.85066 3.93186 5.1797 8.71111 6.96875 14.375 1.78886 5.66396 2.77723 10.77697 2.96875 15.28125l1.78125 42.21875c0.1913 4.50428 0.61031 8.1917 1.21875 10.96875 0.6082 2.77699 1.83534 6.49843 3.6875 11.21875l-30.15625-13.53125c-1.31484-3.00612-2.17065-5.23084-2.59375-6.6875-0.42325-1.45683-0.88937-3.66558-1.375-6.59375-4.01263 2.73334-8.05279 4.13558-12.125 4.25-5.57003 0.0895-12.10128-1.5259-19.625-4.90625-9.99665-4.49134-17.71799-10.54278-23.125-18.15625-5.40705-7.61351-8.26455-15.31505-8.59375-23.0625-0.3088-7.26697 1.30723-12.40007 4.84375-15.40625 3.5365-3.00611 10.26647-3.38904 20.21875-1.15625 11.93113 2.65063 19.65693 4.22243 23.1875 4.71875 3.53047 0.49641 7.26536 0.75524 11.1875 0.75-0.19146-4.50427-1.13622-8.02795-2.84375-10.5625-1.70766-2.53448-4.61492-4.71863-8.71875-6.5625-5.26141-2.36382-9.16975-3.17736-11.71875-2.4375-1.98818 0.57958-3.53839 2.64214-4.625 6.21875l-30.84375-17.5c0.89718-5.60575 2.34082-9.65505 4.375-12.1875 2.03418-2.53227 5.06834-4.16751 9.0625-4.90625 0.71681-0.13447 1.51925-0.19935 2.375-0.21875zm22.25 64.53125c-2.02342 0.0503-3.45398 0.36662-4.28125 0.9375-1.70469 1.17819-2.48223 3.0401-2.375 5.5625 0.12245 2.88277 1.09705 5.62637 2.9375 8.25 1.84035 2.62368 4.45506 4.71348 7.875 6.25 3.5777 1.60743 6.88125 2.09901 9.875 1.5 2.99363-0.59914 5.05086-2.03894 6.21875-4.3125 1.16775-2.27361 1.66265-5.68561 1.46875-10.25l-0.25-5.84375c-4.34305-0.18392-8.86466-0.69897-13.59375-1.46875-3.21997-0.47464-5.85158-0.67531-7.875-0.625z"
                fill="#fff"/>
            <path
                opacity=".75"
                d="m459.79102 243.13877c-0.60744 0.002-1.21463 0.0715-1.80689 0.2065l-43.98501 10.01537-6.84424 17.95006-48.92074 36.15987-9.48977 14.39723 42.43624 47.18579c1.99028 2.19986 5.22505 3.18884 8.10522 2.47803l151.26299-37.37693c2.92586-0.73167 5.34936-3.19071 6.03836-6.12692 0.689-2.9362-0.3877-6.21658-2.6827-8.17337l-88.79602-74.80548c-1.47769-1.22928-3.3953-1.91813-5.31744-1.91015z"
                fill="#fff"/>
            <path
                opacity=".75"
                d="m116.83438 228.59133c-1.91591-0.0224-3.83259 0.64755-5.31744 1.85852l-87.608631 71.29495c-2.354223 1.91725-3.502227 5.20388-2.853728 8.16997 0.648498 2.96608 3.063356 5.47374 6.00289 6.23357l145.48092 36.80905c2.82348 0.70907 5.99717-0.21232 8.00197-2.32315l41.24885-43.159-15.95231-7.22758-23.77787-15.75483-10.14015-43.97599-53.43249-11.71901c-0.54185-0.12418-1.09626-0.19348-1.65201-0.2065z"
                fill="#fff"/>
            <path opacity=".6" stroke-linejoin="round" d="m414.83032 129.81236-106.30201 54.90321-1.75223 161.20524 97.54086-67.16885 10.51338-148.9396z" stroke="#fff" stroke-linecap="round" stroke-width="16.520189" fill="#fff"/>
            <path
                opacity=".6"
                d="m359.59672 310.35062-45.90613 30.77984-2.32315 65.86795c-0.0805 1.8914 0.51393 3.80461 1.65202 5.31743l67.78441 89.36391c2.00793 2.64714 5.71344 3.8692 8.90218 2.93591s5.65058-3.96043 5.91436-7.27246l10.53162-133.14241c0.17592-2.2608-0.62946-4.58109-2.16827-6.2467l-44.38704-47.60347z"
                fill="#fff"/>
            <path
                opacity=".9"
                d="m27.4835 299.88931c-2.326622 0.13332-4.589116 1.29437-6.03125 3.125-1.442134 1.83062-2.040076 4.30057-1.625 6.59375l23.34375 129.65625c0.543838 3.03831 2.933761 5.66849 5.90625 6.5l134.34375 37.375c2.55318 0.7176 5.45311 0.1239 7.5-1.5625 2.04689-1.68639 3.18456-4.41919 2.96875-7.0625l-10.53125-130.25c-0.27672-3.41286-2.89812-6.50849-6.21875-7.34375l-147.1875-36.8125c-0.805708-0.19628-1.641083-0.2703-2.46875-0.21875zm21.46875 29.625 33.53125 7.75 6.4375 34.28125c2.778022-2.11643 6.117255-3.40556 10.0625-3.875 3.9452-0.46935 8.4813-0.11514 13.59375 1.0625 10.55106 2.43064 19.85413 7.56726 27.9375 15.4375 8.08318 7.87029 13.23697 17.6895 15.4375 29.4375 1.46686 7.83201 1.16227 14.38763-0.875 19.625-2.03749 5.23735-5.57138 8.6796-10.59375 10.34375-5.02258 1.66402-10.92041 1.72234-17.71875 0.15625-5.81951-1.34059-11.33429-3.62691-16.5625-6.8125-3.94749-2.45979-8.46256-6.39781-13.59375-11.84375l1.96875 10.59375-31.09375-7.15625-18.53125-99zm52.65625 56.90625c-2.30704 0.0849-4.19574 0.77476-5.65625 2.09375-2.336849 2.1105-2.99138 5.99858-1.9375 11.625 1.154984 6.16661 3.399277 10.93033 6.71875 14.34375 3.3194 3.41346 7.1096 5.63523 11.40625 6.625 3.9702 0.9146 7.03659 0.29053 9.21875-1.8125 2.18204-2.10302 2.70552-6.34458 1.5-12.78125-1.06235-5.67145-3.14612-10.1429-6.28125-13.40625-3.13526-3.2633-6.62233-5.32297-10.375-6.1875-1.69281-0.38995-3.20953-0.55096-4.59375-0.5z"
                fill="#fff"/>
            <path opacity=".75" d="m283.99709 92.431425-109.66044 46.580155 134.19166 45.11992 105.13385-55.3413-129.66507-36.358775z" fill="#fff"/>
            <path
                opacity=".6"
                d="m206.81779 300.66066-37.58344 38.51269c-1.64732 1.68654-2.51749 4.10367-2.32315 6.4532l11.0995 130.25138c0.28624 3.28715 2.73596 6.27965 5.90183 7.20948 3.16586 0.92984 6.84474-0.26266 8.86309-2.87293l65.97751-85.85337c1.14165-1.45868 1.77121-3.3103 1.75527-5.16256l-0.87763-64.63524-52.81298-23.90265z"
                fill="#fff"/>
            <path
                d="m283.77647 84.174462a8.2609207 8.2609207 0 0 0 -3.00781 0.654297l-109.66211 46.580081a8.2609207 8.2609207 0 0 0 -3.23438 2.46484 8.2609207 8.2609207 0 0 0 -3.09375 6.97071l6.26758 99.48047-52.56055-11.52735a8.260921 8.260921 0 0 0 -1.65039 -0.20703 8.260921 8.260921 0 0 0 -5.31836 1.85938l-85.628903 69.68554a8.2609207 8.2609207 0 0 0 -6.076172 9.46289l23.363281 129.66407a8.2609207 8.2609207 0 0 0 5.914063 6.49414l134.33789 37.38086a8.2609207 8.2609207 0 0 0 2.73828 0.27539 8.260921 8.260921 0 0 0 6.61133 -3.19922l65.97656-85.85156a8.260921 8.260921 0 0 0 1.75586 -5.16407l-0.76172-56.02734 41.76563 19.10938a8.2609207 8.2609207 0 0 0 9.94726 0.44335l1.86719-1.28515-1.95898 55.56054c-0.0805 1.8914 0.5123 3.80359 1.65039 5.31641l66.625 87.83399a8.2609207 8.2609207 0 0 0 10.07422 5.05468l138.42773-40.88476a8.2609207 8.2609207 0 0 0 5.80273 -6.53516l21.73047-127.53125c0.40865-0.69293 0.72399-1.43956 0.90821-2.22461 0.689-2.9362-0.38666-6.21704-2.68164-8.17383l-88.79688-74.80468c-1.47769-1.22928-3.39622-1.91814-5.31836-1.91016-0.60744 0.002-1.21438 0.0701-1.80664 0.20508l-43.58398 9.8789 8.66992-122.83007a8.2609207 8.2609207 0 0 0 -3.42774 -7.28516 8.2609207 8.2609207 0 0 0 -3.75 -2.27148l-129.66406-36.359383a8.2609207 8.2609207 0 0 0 -2.45117 -0.302735zm0.7793 16.994148 106.90429 29.97461-83.65039 44.03125-110.22851-37.0625 86.97461-36.94336zm121 42.73047-9.19922 130.30468-81.14649 55.88086 1.52344-140.31054 88.82227-45.875zm-223.52344 8.07031 118.14844 38.70312-2.06446 141.88477-107.8164-49.33008-8.26758-131.25781zm-63.1836 93.86523 53.27539 11.63086 2 31.73438a8.2609207 8.2609207 0 0 0 4.80665 6.99218l21.41406 9.79883-28.34961 29.64258-37.19141-9.29883-87.714841-22.16406 71.759761-58.33594zm338.77344 14.54688 73.08985 61.5-130.5293 31.99609-35.34766-37.9082 44.16602-30.41406a8.2609207 8.2609207 0 0 0 3.55469 -6.22266l0.625-8.85938 44.4414-10.09179zm-240.42773 53.31836 25.92578 11.86328 0.8164 61.00195-51.26367 66.64844-8.98437-105.21289 33.50586-34.30078zm-178.85938 5.54687 80.761718 20.18945 48.28711 12.2168 9.07422 112.39649l-117.94531-32.81836-20.177738-111.98438zm312.77539 6.17188 36.65235 39.27343 1.55273 1.98243-4.89258 62.50195-3.56836 45.24414-52.86328-69.69336 2.27149-64.95117 20.84765-14.35742zm186.60547 11.90625-19.18945 112.60742-121.97656 36.02734 2.7539-35.17968 6.39258-80.83204 132.01953-32.62304z"
                fill="#fff"/>
        </symbol>
        <symbol id="nursery3" viewBox="0 0 576.44501 577.45154">
            <title>nursery3</title>
            <path d="m64.571 0.06355556c-41.335 0-64.571 21.371-64.571 65.036v450.123c0 40.844 20.894 62.229 62.192 62.229h452.024c41.307 0 62.229-20.316 62.229-62.229v-450.123c0-42.601-20.922-65.036-63.522-65.036-0.003 0-448.494-0.143-448.352 0z"/>
            <path
                opacity=".9"
                d="m67.133859 133.60301c-4.195247-0.0822-8.386918 1.63409-11.288544 4.66517-2.901644 3.03108-4.469507 7.33125-4.204406 11.51892l17.220788 273.40161c0.341089 5.47059 3.883904 10.62375 8.86957 12.9012l228.24744 104.41902c4.58364 2.09005 10.20101 1.71741 14.45624-0.9791 4.25524-2.6965 7.01696-7.6336 7.08414-12.67082l4.3196-296.03629c0.0923-6.43689-4.36479-12.68188-10.48222-14.68663l-249.73023-81.78435c-1.44873-0.47251-2.968712-0.72584-4.492379-0.74873zm68.883151 102.92157c4.73153-0.10724 10.61429 0.74335 17.68155 2.53417 9.4229 2.38795 19.70104 6.03411 30.75552 11.00057 17.74515 7.97282 31.99031 15.52983 42.85039 22.63468 10.8598 7.10515 20.04867 15.8446 27.53022 26.26314 5.25385 7.24653 9.54633 16.05482 12.8436 26.49352 3.29692 10.43883 5.11851 19.86225 5.47149 28.16377l3.28289 77.81031c0.35257 8.30151 1.12482 15.09753 2.24619 20.21571 1.12093 5.11807 3.38258 11.97679 6.79616 20.67647l-55.57879-24.93847c-2.42329-5.54036-4.00057-9.64058-4.78036-12.32525-0.78006-2.68497-1.63913-6.75576-2.53416-12.15246-7.39539 5.03762-14.84151 7.62199-22.34671 7.83287-10.26572 0.16495-22.30299-2.81228-36.16941-9.04236-18.4241-8.27766-32.65475-19.43063-42.62001-33.46246-9.96535-14.03191-15.2318-28.22606-15.83852-42.50483-0.56913-13.39322 2.40926-22.85367 8.92716-28.39414 6.51787-5.54034 18.92139-6.24609 37.26372-2.131 21.9894 4.88518 36.22826 7.78205 42.7352 8.69679 6.50675 0.91489 13.39025 1.39192 20.61887 1.38227-0.35287-8.3015-2.09409-14.79574-5.24111-19.46698-3.14727-4.67112-8.50543-8.69657-16.0689-12.09487-9.69692-4.35658-16.9001-5.85596-21.59798-4.49238-3.66427 1.06818-6.52135 4.86954-8.524 11.46133l-56.84588-32.25298c1.65353-10.33155 4.3142-17.79453 8.06325-22.4619 3.74905-4.66704 9.34109-7.68084 16.70243-9.04235 1.3211-0.24784 2.80002-0.36741 4.37719-0.40317zm41.00736 118.93287c-3.72921 0.0927-6.36578 0.67569-7.89046 1.72784-3.14179 2.17144-4.57481 5.60299-4.37719 10.25184 0.22568 5.31303 2.0219 10.36956 5.4139 15.20498 3.39181 4.83551 8.21079 8.68707 14.51384 11.51892 6.5938 2.96254 12.68233 3.86853 18.19989 2.76454 5.51735-1.10423 9.30888-3.75782 11.46133-7.94805 2.1522-4.19033 3.06431-10.47874 2.70695-18.89104l-0.46076-10.77019c-8.00436-0.33897-16.33781-1.28822-25.05365-2.70695-5.9345-0.87477-10.78463-1.24461-14.51385-1.15189z"
                fill="#fff"/>
            <path
                d="m270.9835 45.31704a15.225104 15.225104 0 0 0 -5.54688 1.207032l-202.10546 85.847658a15.225104 15.225104 0 0 0 -5.964844 4.54297 15.225104 15.225104 0 0 0 -5.699218 12.84766l17.222652 273.42382a15.225104 15.225104 0 0 0 8.859375 12.88672l225.91992 103.36914a15.225104 15.225104 0 0 0 18.33593 0.82032l179.7715-123.79492a15.225104 15.225104 0 0 0 6.55078 -11.4668l19.37695-274.5a15.225104 15.225104 0 0 0 -6.32422 -13.4336 15.225104 15.225104 0 0 0 -6.90429 -4.17968l-238.97657-67.009773a15.225104 15.225104 0 0 0 -4.51562 -0.560547zm1.43945 31.320313 197.02149 55.244147-154.16797 81.15234-203.1543-68.30664 160.30078-68.089847zm223.00196 78.755867-16.95313 240.15429-149.55859 102.98828 2.81054-258.5957 163.70118-84.54687zm-411.95899 14.87304 217.75 71.33203-3.80273 261.49805-198.70899-90.91797-15.238278-241.91211z"
                fill="#fff"/>
            <path
                opacity=".6"
                d="m511.6085 114.23306c-2.10641 0.124-4.18563 0.69204-6.0625 1.65625l-195.9375 101.1875c-4.8811 2.52971-8.16728 7.87756-8.21875 13.375l-3.25 297.09375c-0.0694 5.5507 3.1632 11.01503 8.0625 13.625 4.89931 2.60997 11.24457 2.24797 15.8125-0.90625l179.75-123.78125c3.75454-2.58077 6.23988-6.92421 6.5625-11.46875l19.375-274.5c0.3072-4.30696-1.30827-8.7104-4.34375-11.78125s-7.43977-4.75729-11.75-4.5zm-51.75 153.59375c0.68844-0.001 1.3525 0.0145 2 0.0625 10.35975 0.76779 17.21511 6.61198 20.46875 17.625l-46.6875 32.1875c-1.00361-4.31649-3.28395-6.69607-6.875-7.125-3.59131-0.4286-8.60498 1.23397-15.03125 4.90625-8.11335 4.63658-14.91402 11.08529-20.40625 19.4375-5.49238 8.35248-8.73114 18.10107-9.6875 29.21875-0.85241 9.90777 0.99316 16.01583 5.53125 18.3125 4.53793 2.29686 10.69452 1.25074 18.40625-3.15625 6.42625-3.67234 11.94894-8.3347 16.59375-13.9375 4.64461-5.60265 8.34048-12.23805 11.0625-19.90625l46.15625-21.65625c-3.35797 10.62048-8.24778 20.98689-14.6875 31.03125-6.44 10.04452-14.34517 19.52132-23.78125 28.4375-9.43631 8.91619-21.19243 17.37287-35.25 25.40625-13.57576 7.75806-24.76167 12.99933-33.59375 15.78125-8.83216 2.78201-16.2958 3.39498-22.34375 1.78125-6.04805-1.61358-10.61046-4.95789-13.6875-10.03125-3.07707-5.07327-4.11527-13.56333-3.09375-25.4375 1.06703-12.40344 4.19859-23.99789 9.40625-34.8125 3.81398-7.93247 8.78967-15.93805 14.90625-24 6.11654-8.0618 12.3048-14.99365 18.53125-20.78125 9.87796-9.16854 22.27739-18.02394 37.21875-26.5625 19.58022-11.18927 34.51711-16.75999 44.84375-16.78125z"
                fill="#fff"/>
            <path
                opacity=".75"
                d="m270.9835 45.326806c-1.89621 0.04667-3.78298 0.451737-5.53125 1.1875l-202.125 85.843754c-5.657996 2.38678-9.517002 8.48871-9.28125 14.625s4.550556 11.89812 10.375 13.84375l247.34375 83.15625c3.89056 1.30341 8.30802 0.94493 11.9375-0.96875l193.75-102c5.348-2.81749 8.66578-9.05111 8.03125-15.0625-0.63454-6.01138-5.18161-11.42368-11-13.0625l-238.96875-67.000004c-1.47077-0.413427-3.00403-0.603764-4.53125-0.5625zm42.46875 64.218754c1.15078 0.006 2.32109 0.0344 3.5 0.0625 18.86252 0.45021 38.78788 4.31343 59.78125 11.625 13.99549 4.87452 24.58241 9.95902 31.75 15.25 7.16739 5.29109 10.30533 10.24932 9.40625 14.875-0.89938 4.62574-5.10346 8.65915-12.625 12.0625-6.43858 2.91334-14.19466 4.92797-23.25 6.0625-6.92715 0.81575-16.75211 0.90371-29.46875 0.28125l18.96875 6.59375-34.40625 15.5625-176.875-61.59375 37.09375-16.78125 61.3125 21.34375c-1.47713-3.45369-1.18319-6.68091 0.90625-9.6875 2.08953-3.00655 5.96881-5.7843 11.625-8.34375 10.94404-4.95185 25.0195-7.39822 42.28125-7.3125zm-1.9375 22.78125c-6.32685-0.0472-11.3358 0.76246-14.96875 2.40625-4.99434 2.25988-6.60004 4.94153-4.8125 8.09375 1.7877 3.15232 7.72702 6.49831 17.78125 10 11.01949 3.83794 20.54816 5.89813 28.59375 6.21875 8.04562 0.32074 14.43383-0.56778 19.1875-2.71875 4.39262-1.98755 5.63768-4.51985 3.75-7.5625-1.88772-3.04253-8.56044-6.55645-20.0625-10.5625-10.13472-3.52971-19.02349-5.44888-26.6875-5.78125-0.958-0.0415-1.87741-0.087-2.78125-0.0937z"
                fill="#fff"/>
        </symbol>
        <symbol id="school" viewBox="0 0 576.44501 577.45154">
            <title>school</title>
            <path d="m64.571 0.06355556c-41.335 0-64.571 21.371-64.571 65.036v450.123c0 40.844 20.895 62.229 62.192 62.229h452.024c41.307 0 62.229-20.315 62.229-62.229v-450.123c0-42.601-20.922-65.036-63.521-65.036-0.004 0-448.495-0.143-448.353 0z"/>
            <path
                opacity=".75"
                d="m107.83019 506.99207 44.83749-108.55394 67.26813-38.79503 1.63527-147.12758 18.51055-40.23748 47.25697-111.88531m182.66855 446.59934-33.89984-82.07331-108.10312-175.28418 4.14183-90.93788-41.64728-98.303967"
                stroke="#fff"
                stroke-linecap="round"
                stroke-width="30.786835"
                fill="none"/>
            <path
                fill="#fff"
                d="m71.559672 137.85415a10.263305 10.263305 0 0 0 -10.261719 10.26172v273.98633a10.263305 10.263305 0 0 0 10.261719 10.26367h437.74805a10.263305 10.263305 0 0 0 10.26172 -10.26367v-273.98633a10.263305 10.263305 0 0 0 -10.26172 -10.26172h-437.74805zm69.960938 36.14063c12.26115 0.0001 22.09988 0.71056 29.53711 2.08398 7.43703 1.37362 13.64141 4.24073 18.59961 8.59571 3.48395 3.01515 6.23203 7.2674 8.24219 12.79492 2.00992 5.52768 3.01549 10.81873 3.01562 15.84375v47.10937c-0.00013 5.02511 0.3243 8.98646 0.96094 11.83399 0.6364 2.84757 2.02576 6.48216 4.16992 10.90429h-38.38867c-1.54113-2.7471-2.54475-4.84659-3.01367-6.28711-0.4691-1.44062-0.94124-3.7167-1.41016-6.79882-5.36016 5.15911-10.71089 8.85345-16.00391 11.06445-7.23619 2.94803-15.6259 4.42578-25.20703 4.42578-12.73027 0-22.39063-2.95548-28.990232-8.85156-6.59963-5.89615-9.910164-13.16346-9.910156-21.80664-0.00001-8.10712 2.395247-14.78558 7.152344-20.01172 4.757069-5.22604 13.530854-9.09453 26.328124-11.64063 15.34323-3.082 25.27003-5.23892 29.82617-6.47851 4.55601-1.23946 9.40197-2.86489 14.49414-4.875-0.00008-5.025-1.03242-8.54066-3.10937-10.55078-2.07714-2.00995-5.74273-3.01358-10.96875-3.01367-6.70017 0.00008-11.72225 1.06307-15.07227 3.20703-2.61309 1.67511-4.74162 4.83596-6.34961 9.45898l-39.093747-4.13672c1.474013-6.83404 3.602248-12.21119 6.382813-16.13086 2.780533-3.91947 6.799274-7.31612 12.025394-10.19726 3.75203-2.07693 8.89087-3.67144 15.45703-4.81055 6.56607-1.13892 13.68798-1.73231 21.32617-1.73242zm280.96289 0c17.42023 0.00011 30.6843 3.13422 39.83008 9.36523 9.14555 6.23121 15.58825 15.32913 19.27344 27.32227l-38.51563 5.13086c-1.20611-4.55602-3.39176-7.98135-6.57422-10.29297-3.18265-2.31145-7.4681-3.46475-12.82812-3.46484-6.76718 0.00008-12.23046 2.42374-16.41797 7.28125-4.18763 4.85766-6.28716 12.21338-6.28711 22.0625-0.00006 8.7772 2.06851 15.42443 6.22265 19.98046 4.15403 4.55612 9.47406 6.86136 15.90626 6.86133 5.36 0.00003 9.85031-1.38964 13.50195-4.13672 3.65148-2.74703 6.39987-6.97087 8.20898-12.66601l38.86914 4.42383c-2.14417 8.10718-5.65981 15.14072-10.55078 21.07031-4.8912 5.92959-11.12594 10.53915-18.73047 13.82226-7.60473 3.283-17.2651 4.90625-28.99023 4.90625-11.32326 0-20.74757-1.06327-28.28516-3.17382-7.53767-2.11053-14.03972-5.50685-19.46679-10.23047-5.42714-4.72356-9.68164-10.2794-12.76368-16.64453-3.08207-6.36509-4.6172-14.81475-4.61718-25.33399 0-10.98814 1.85924-20.11671 5.61132-27.41992 2.74702-5.36 6.50071-10.17698 11.25782-14.43164 4.75707-4.25451 9.66238-7.41505 14.6875-9.49219 7.9731-3.28296 18.19592-4.93934 30.6582-4.93945zm-261.56055 58.49414c-5.62818 2.01008-11.50844 3.78324-17.60547 5.32422-8.30821 2.2111-13.5683 4.39897-15.77929 6.54297-2.27811 2.21108-3.39849 4.72113-3.39844 7.53515-0.00004 3.21609 1.12259 5.84713 3.36719 7.89063 2.24448 2.04356 5.52181 3.07814 9.87695 3.07812 4.55602 0.00002 8.81277-1.12487 12.73242-3.33593 3.91948-2.21101 6.69628-4.89946 8.33789-8.08204 1.64145-3.18253 2.46867-7.31801 2.46875-12.41015v-6.54297zm77.80078 20.94336h41.30665v51.05469c4.08701-4.28797 8.72531-7.51016 13.91796-9.6543 5.19254-2.14395 10.92251-3.20691 17.22071-3.20703 12.99814 0.00012 23.7544 4.66905 32.26367 14.01562 8.50903 9.34674 12.76354 22.75885 12.76367 40.2461-0.00013 11.65825-1.95195 21.94269-5.83789 30.82031-3.8862 8.87768-9.26335 15.49414-16.13086 19.88281-6.86774 4.38857-14.49017 6.60547-22.86523 6.60547-7.16921 0-13.72838-1.56832-19.69141-4.65039-4.48914-2.41195-9.36322-6.93127-14.65625-13.56445v15.77734h-38.29102v-147.32617zm59.875 68.75586c-5.56115 0.00007-10.08013 2.03771-13.59765 6.1582-3.51759 4.12064-5.29107 10.38467-5.29102 18.75977-0.00005 9.17921 1.74469 15.82673 5.19532 19.94726 3.45051 4.1206 7.79082 6.18949 13.08398 6.18946 4.89101 0.00003 8.99781-2.0382 12.31445-6.0918 3.31648-4.05354 5.00187-10.87972 5.00196-20.46094-0.00008-8.44211-1.62358-14.61523-4.87305-18.56836-3.24964-3.953-7.21098-5.93351-11.83399-5.93359z"/>
        </symbol>
        <symbol id="school_primary" viewBox="0 0 576.44501 577.45154">
            <title>school_primary</title>
            <path d="m64.571 0.06355556c-41.335 0-64.571 21.371-64.571 65.036v450.123c0 40.844 20.895 62.229 62.192 62.229h452.024c41.307 0 62.229-20.315 62.229-62.229v-450.123c0-42.601-20.922-65.036-63.521-65.036-0.004 0-448.495-0.143-448.353 0z"/>
            <path
                opacity=".75"
                d="m287.18662 44.799462a15.394957 15.394957 0 0 0 -14.02929 9.603516l-47.16211 111.66211-19.7793 42.99805-1.57422 141.63086-64.20117 37.02539-46.837889 113.39648a15.394957 15.394957 0 1 0 28.455079 11.75196l42.83789-103.71094 70.33594-40.56445 1.69531-152.625 17.24023-37.47657 34.77149-82.324222 27.67187 65.318362-4.19922 92.18946 109.94336 178.26757 33.42579 80.92579a15.394957 15.394957 0 1 0 28.45507 -11.75196l-34.375-83.2207-106.26367-172.30078 4.08594-89.68555-43.00977-101.52149a15.394957 15.394957 0 0 0 -15.73633 -9.505859 15.394957 15.394957 0 0 0 -1.75 -0.08203z"
                fill-rule="evenodd"
                fill="#fff"/>
            <path
                fill="#fff"
                d="m71.559672 137.85415a10.263305 10.263305 0 0 0 -10.261719 10.26172v273.98633a10.263305 10.263305 0 0 0 10.261719 10.26367h437.74805a10.263305 10.263305 0 0 0 10.26172 -10.26367v-273.98633a10.263305 10.263305 0 0 0 -10.26172 -10.26172h-437.74805zm69.960938 36.14063c12.26115 0.0001 22.09988 0.71056 29.53711 2.08398 7.43703 1.37362 13.64141 4.24073 18.59961 8.59571 3.48395 3.01515 6.23203 7.2674 8.24219 12.79492 2.00992 5.52768 3.01549 10.81873 3.01562 15.84375v47.10937c-0.00013 5.02511 0.3243 8.98646 0.96094 11.83399 0.6364 2.84757 2.02576 6.48216 4.16992 10.90429h-38.38867c-1.54113-2.7471-2.54475-4.84659-3.01367-6.28711-0.4691-1.44062-0.94124-3.7167-1.41016-6.79882-5.36016 5.15911-10.71089 8.85345-16.00391 11.06445-7.23619 2.94803-15.6259 4.42578-25.20703 4.42578-12.73027 0-22.39063-2.95548-28.990232-8.85156-6.59963-5.89615-9.910164-13.16346-9.910156-21.80664-0.00001-8.10712 2.395247-14.78558 7.152344-20.01172 4.757069-5.22604 13.530854-9.09453 26.328124-11.64063 15.34323-3.082 25.27003-5.23892 29.82617-6.47851 4.55601-1.23946 9.40197-2.86489 14.49414-4.875-0.00008-5.025-1.03242-8.54066-3.10937-10.55078-2.07714-2.00995-5.74273-3.01358-10.96875-3.01367-6.70017 0.00008-11.72225 1.06307-15.07227 3.20703-2.61309 1.67511-4.74162 4.83596-6.34961 9.45898l-39.093747-4.13672c1.474013-6.83404 3.602248-12.21119 6.382813-16.13086 2.780533-3.91947 6.799274-7.31612 12.025394-10.19726 3.75203-2.07693 8.89087-3.67144 15.45703-4.81055 6.56607-1.13892 13.68798-1.73231 21.32617-1.73242zm280.96289 0c17.42023 0.00011 30.6843 3.13422 39.83008 9.36523 9.14555 6.23121 15.58825 15.32913 19.27344 27.32227l-38.51563 5.13086c-1.20611-4.55602-3.39176-7.98135-6.57422-10.29297-3.18265-2.31145-7.4681-3.46475-12.82812-3.46484-6.76718 0.00008-12.23046 2.42374-16.41797 7.28125-4.18763 4.85766-6.28716 12.21338-6.28711 22.0625-0.00006 8.7772 2.06851 15.42443 6.22265 19.98046 4.15403 4.55612 9.47406 6.86136 15.90626 6.86133 5.36 0.00003 9.85031-1.38964 13.50195-4.13672 3.65148-2.74703 6.39987-6.97087 8.20898-12.66601l38.86914 4.42383c-2.14417 8.10718-5.65981 15.14072-10.55078 21.07031-4.8912 5.92959-11.12594 10.53915-18.73047 13.82226-7.60473 3.283-17.2651 4.90625-28.99023 4.90625-11.32326 0-20.74757-1.06327-28.28516-3.17382-7.53767-2.11053-14.03972-5.50685-19.46679-10.23047-5.42714-4.72356-9.68164-10.2794-12.76368-16.64453-3.08207-6.36509-4.6172-14.81475-4.61718-25.33399 0-10.98814 1.85924-20.11671 5.61132-27.41992 2.74702-5.36 6.50071-10.17698 11.25782-14.43164 4.75707-4.25451 9.66238-7.41505 14.6875-9.49219 7.9731-3.28296 18.19592-4.93934 30.6582-4.93945zm-261.56055 58.49414c-5.62818 2.01008-11.50844 3.78324-17.60547 5.32422-8.30821 2.2111-13.5683 4.39897-15.77929 6.54297-2.27811 2.21108-3.39849 4.72113-3.39844 7.53515-0.00004 3.21609 1.12259 5.84713 3.36719 7.89063 2.24448 2.04356 5.52181 3.07814 9.87695 3.07812 4.55602 0.00002 8.81277-1.12487 12.73242-3.33593 3.91948-2.21101 6.69628-4.89946 8.33789-8.08204 1.64145-3.18253 2.46867-7.31801 2.46875-12.41015v-6.54297zm77.80078 20.94336h41.30665v51.05469c4.08701-4.28797 8.72531-7.51016 13.91796-9.6543 5.19254-2.14395 10.92251-3.20691 17.22071-3.20703 12.99814 0.00012 23.7544 4.66905 32.26367 14.01562 8.50903 9.34674 12.76354 22.75885 12.76367 40.2461-0.00013 11.65825-1.95195 21.94269-5.83789 30.82031-3.8862 8.87768-9.26335 15.49414-16.13086 19.88281-6.86774 4.38857-14.49017 6.60547-22.86523 6.60547-7.16921 0-13.72838-1.56832-19.69141-4.65039-4.48914-2.41195-9.36322-6.93127-14.65625-13.56445v15.77734h-38.29102v-147.32617zm59.875 68.75586c-5.56115 0.00007-10.08013 2.03771-13.59765 6.1582-3.51759 4.12064-5.29107 10.38467-5.29102 18.75977-0.00005 9.17921 1.74469 15.82673 5.19532 19.94726 3.45051 4.1206 7.79082 6.18949 13.08398 6.18946 4.89101 0.00003 8.99781-2.0382 12.31445-6.0918 3.31648-4.05354 5.00187-10.87972 5.00196-20.46094-0.00008-8.44211-1.62358-14.61523-4.87305-18.56836-3.24964-3.953-7.21098-5.93351-11.83399-5.93359z"/>
        </symbol>
        <symbol id="school_secondary" viewBox="0 0 576.44501 577.45154">
            <title>school_secondary</title>
            <path d="m64.571 0.06355556c-41.335 0-64.571 21.371-64.571 65.036v450.123c0 40.844 20.895 62.229 62.192 62.229h452.024c41.307 0 62.229-20.315 62.229-62.229v-450.123c0-42.601-20.922-65.036-63.521-65.036-0.004 0-448.495-0.143-448.353 0z"/>
            <path
                opacity=".75"
                fill="#fff"
                d="m287.171 44.795556a15.394957 15.394957 0 0 0 -14 9.59375l-39.59375 93.718754h33.4375l21.9375-51.937504 22 51.937504h33.4375l-39.71875-93.718754a15.394957 15.394957 0 0 0 -15.8125 -9.5 15.394957 15.394957 0 0 0 -1.6875 -0.09375zm-160.90625 377.3125-32.65625 79a15.394957 15.394957 0 1 0 28.4375 11.75l37.5-90.75h-33.28125zm290.03125 0 6.09375 9.875 33.375 80.875a15.399125 15.399125 0 1 0 28.46875 -11.75l-32.65625-79h-35.28125z"/>
            <path
                fill="#fff"
                d="m71.559672 137.85415a10.263305 10.263305 0 0 0 -10.261719 10.26172v273.98633a10.263305 10.263305 0 0 0 10.261719 10.26367h437.74805a10.263305 10.263305 0 0 0 10.26172 -10.26367v-273.98633a10.263305 10.263305 0 0 0 -10.26172 -10.26172h-437.74805zm24.095703 72.07618h40.285155c6.70504 12.19548 13.43021 24.37877 20.12109 36.58203 7.69725-12.19907 15.41126-24.38721 23.11524-36.58203h40.51953c-13.8083 21.30392-27.61928 42.60506-41.42578 63.91015 14.93851 23.80192 29.81088 47.64675 44.77344 71.4336h-39.96875c-8.76273-14.33012-17.75037-28.52087-26.46289-42.88282-8.528 14.31236-17.08086 28.60934-25.67383 42.88282h-38.867189c14.010939-23.40841 28.083669-46.78218 42.056639-70.2129-9.6424-16.41861-19.37177-32.80285-29.06055-49.18359l-9.412105-15.94726zm271.9082 0h37.13281c8.90512 26.3422 17.76173 52.70196 26.69922 79.0332 8.37096-26.34522 16.76797-52.68293 25.12305-79.0332h37.56639l-38.82616 107.89648c-7.88329 16.10376-9.09918 34.43566-15.86915 50.91602-8.50945 22.51405-35.94868 33.90928-58.5957 26.22656-1.90194-7.70081-1.70919-17.25008-2.83594-25.63477-3.01157-8.18267 3.06424-5.22004 8.19141-4.37109 11.30327 2.73428 27.82565-1.42272 29.53321-14.76758-12.59393-44.50359-30.28197-87.67649-45.12696-131.60156l-2.99218-8.66406zm-90.49219 5.04101h33.23633v45.24414h45.28516v32.80274h-45.28516v45.87695h-33.23633v-45.87695h-45.28516v-32.80274h23.86329c6.50899-1.47169 19.03551 3.07478 21.42187-2.51953v-42.72461z"/>
        </symbol>
        <symbol id="university" viewBox="0 0 576.44501 577.45154">
            <title>university</title>
            <path d="m64.571 0.06355556c-41.335 0-64.571 21.371-64.571 65.036v450.123c0 40.844 20.895 62.229 62.192 62.229h452.024c41.307 0 62.229-20.315 62.229-62.229v-450.123c0-42.601-20.922-65.036-63.521-65.036-0.004 0-448.495-0.143-448.353 0z"/>
            <path
                fill-rule="evenodd"
                fill="#fff"
                d="m271.37998 128.7897a5.0005 5.0005 0 0 0 -2.4414 0.5293l-248.33203 124.71484a5.0005 5.0005 0 0 0 2.177734 9.46875l309.48633 4.15039a5.0005 5.0005 0 0 0 2.37695 -0.5664l225.46094-117.55274a5.0005 5.0005 0 0 0 -2.11523 -9.42969l-286.61329-11.31445zm192.31055 88.1582a5.0005 5.0005 0 0 0 -2.1875 0.60352l-123.32031 67.13281-185.64453-5.29297a5.0005 5.0005 0 0 0 -4.87891 3.39453l-26.83203 79.28125a5.0005 5.0005 0 0 0 5.79102 6.49024c2.26759-0.49012 2.82082-1.03144 4.73437-1.93945s4.4128-2.11764 7.50195-3.53711c6.1783-2.83896 14.69589-6.51362 25.17969-10.12696 20.96761-7.22667 49.7694-14.18513 83.1875-13.62304 16.70398 0.28095 45.0471 7.00596 68.7168 13.74023 23.66969 6.73427 42.89648 13.39258 42.89648 13.39258a5.0005 5.0005 0 0 0 5.41406 -1.44727s35.81436-40.8878 61.80665-57.03515c12.50288-7.76725 34.85713-13.89385 53.76757-17.70703 18.91044-3.81319 34.42578-5.5254 34.42578-5.5254a5.0005 5.0005 0 0 0 3.24219 -8.23242l-49.81054-57.83593a5.0005 5.0005 0 0 0 -3.99024 -1.73243zm-331.14453 61.44141-30.03125 0.4375c-4.1904 6.98455-7.208762 15.75451-10.4375 26.1875-4.652567 15.0338-8.589858 33.04796-10.90625 51-2.209529 17.12384-3.857263 31.89861-5.091797 44.44531-14.25051 2.2775-25.409288 14.23289-26.455078 28.8418a5.0005 5.0005 0 0 0 -0.01953 0.0527 5.0005 5.0005 0 0 0 -0.126953 0.48243 5.0005 5.0005 0 0 0 -0.08008 0.49414 5.0005 5.0005 0 0 0 -0.0059 0.0664l-4.285156 53.22266a5.0005 5.0005 0 0 0 0.683594 2.875 5.0005 5.0005 0 0 0 0.591797 0.80469 5.0005 5.0005 0 0 0 0.738281 0.66992 5.0005 5.0005 0 0 0 0.859375 0.51172 5.0005 5.0005 0 0 0 0.46289 0.1875 5.0005 5.0005 0 0 0 1.466797 0.27929 5.0005 5.0005 0 0 0 0.5 -0.008 5.0005 5.0005 0 0 0 0.498047 -0.0566 5.0005 5.0005 0 0 0 0.488281 -0.10547 5.0005 5.0005 0 0 0 0.47461 -0.15234 5.0005 5.0005 0 0 0 2.59375 -2.24414 5.0005 5.0005 0 0 0 0.220703 -0.44727 5.0005 5.0005 0 0 0 0.21875 -0.63281l-0.195313 2.42578a5.0005 5.0005 0 0 0 0.685547 2.875 5.0005 5.0005 0 0 0 0.591797 0.80469 5.0005 5.0005 0 0 0 0.738281 0.67187 5.0005 5.0005 0 0 0 0.857422 0.50977 5.0005 5.0005 0 0 0 0.462891 0.18945 5.0005 5.0005 0 0 0 1.46875 0.27735 5.0005 5.0005 0 0 0 0.5 -0.006 5.0005 5.0005 0 0 0 0.496094 -0.0566 5.0005 5.0005 0 0 0 0.490234 -0.10547 5.0005 5.0005 0 0 0 0.474609 -0.1543 5.0005 5.0005 0 0 0 1.173828 -0.64258 5.0005 5.0005 0 0 0 0.455079 1.25781 5.0005 5.0005 0 0 0 0.255859 0.42969 5.0005 5.0005 0 0 0 1.001953 1.10938 5.0005 5.0005 0 0 0 0.832031 0.55273 5.0005 5.0005 0 0 0 0.925782 0.375 5.0005 5.0005 0 0 0 0.980468 0.18359 5.0005 5.0005 0 0 0 2.441407 -0.40429 5.0005 5.0005 0 0 0 0.447265 -0.22461 5.0005 5.0005 0 0 0 0.421875 -0.26758 5.0005 5.0005 0 0 0 0.392578 -0.30664 5.0005 5.0005 0 0 0 0.361329 -0.3457 5.0005 5.0005 0 0 0 0.851562 -1.22852 5.0005 5.0005 0 0 0 0.197266 -0.45898 5.0005 5.0005 0 0 0 0.167968 -0.54102l1.298828-5.57422c0.06243 0.0142 0.126667 0.0237 0.189454 0.0371l-1.226563 5.26563a5.0005 5.0005 0 0 0 -0.115234 0.99218 5.0005 5.0005 0 0 0 0.576172 2.40625 5.0005 5.0005 0 0 0 0.255859 0.42969 5.0005 5.0005 0 0 0 1.001953 1.10938 5.0005 5.0005 0 0 0 0.832031 0.55273 5.0005 5.0005 0 0 0 0.925782 0.375 5.0005 5.0005 0 0 0 0.980468 0.18359 5.0005 5.0005 0 0 0 2.441407 -0.40429 5.0005 5.0005 0 0 0 0.447265 -0.22461 5.0005 5.0005 0 0 0 0.421875 -0.26758 5.0005 5.0005 0 0 0 0.392578 -0.30664 5.0005 5.0005 0 0 0 0.361329 -0.3457 5.0005 5.0005 0 0 0 0.808593 -1.15039 5.0005 5.0005 0 0 0 0.08203 0.48242 5.0005 5.0005 0 0 0 0.134766 0.48242 5.0005 5.0005 0 0 0 0.984375 1.72461 5.0005 5.0005 0 0 0 0.347656 0.35937 5.0005 5.0005 0 0 0 0.794922 0.60547 5.0005 5.0005 0 0 0 0.4375 0.24024 5.0005 5.0005 0 0 0 0.9375 0.34375 5.0005 5.0005 0 0 0 1.488281 0.15039 5.0005 5.0005 0 0 0 0.496094 -0.0488 5.0005 5.0005 0 0 0 0.96875 -0.24609 5.0005 5.0005 0 0 0 0.898438 -0.43164 5.0005 5.0005 0 0 0 0.796875 -0.60352 5.0005 5.0005 0 0 0 0.347656 -0.35938 5.0005 5.0005 0 0 0 0.582031 -0.81054 5.0005 5.0005 0 0 0 0.429688 -0.97461l8.394538-27.64063c0.90111-1.53012 1.76568-3.09916 2.58984-4.70117 5.74727-11.17159 9.81445-22.89444 9.81445-32.32812 0-11.94349-6.7698-22.40251-16.654297-27.73243 1.230521-12.59174 2.893007-27.57313 5.171877-45.23437 2.1652-16.7803 5.90533-33.92028 10.15625-47.65625s10.17753-24.52167 11.6875-26c3.53733-3.46321 6.61602-5.20164 8.625-6.09375 0.44788-0.19889 0.78068-0.32356 1.0625-0.4375zm-47.960938 206.83789-0.466796 1.5332 0.34375-1.47656c0.04061-0.0197 0.08261-0.0367 0.123046-0.0566z"/>
        </symbol>
    </defs>
</svg>
