<svg xmlns="http://www.w3.org/2000/svg" xmlns:rdf="http://www.w3.org/1999/02/22-rdf-syntax-ns#" xmlns:dc="http://purl.org/dc/elements/1.1/" xmlns:cc="http://creativecommons.org/ns#" version="1.1" style="fill:black;stroke:none">
    <title>SJJB icons [Money Set]</title>
    <desc>These map icons are an attempt to create a simple consistent set of vector icons suitable for cartographic use.</desc>
    <metadata>
        <rdf:RDF>
            <cc:Work rdf:about="">
                <dc:format>image/svg+xml</dc:format>
                <dc:type rdf:resource="http://purl.org/dc/dcmitype/StillImage"/>
                <dc:title>SJJB icons [Money Set]</dc:title>
                <dc:date>2017-01-07</dc:date>
                <dc:creator>
                    <cc:Agent>
                        <dc:title>SJJB Management</dc:title>
                    </cc:Agent>
                </dc:creator>
                <dc:rights>
                    <cc:Agent>
                        <dc:title>Map icons CC-0 from SJJB Management</dc:title>
                    </cc:Agent>
                </dc:rights>
                <dc:language>English</dc:language>

                <dc:source>http://www.sjjb.co.uk/mapicons/introduction</dc:source>
                <dc:description>These map icons are an attempt to create a simple consistent set of vector icons suitable for cartographic use.</dc:description>
            </cc:Work>
        </rdf:RDF>
    </metadata>

    <defs>
        <symbol id="atm" viewBox="0 0 478.97464 462.60449">
            <title>atm</title>
            <path opacity=".1" d="m346.43272 51.578764-158.95898 1.51953-14.78711 40.50586-40.375 0.375c-1.60295 9.296086-122.3125 358.625-122.3125 358.625l403.8125-3.40625-15.58594-40.29492 70.74805-0.59766z"/>
            <path
                opacity=".75"
                d="m48.759771 0a17.924293 17.924293 0 0 0 -17.923828 17.923828v62.923826a17.924293 17.924293 0 0 0 17.923828 17.92188h112.40234a17.924293 17.924293 0 0 0 16.76954 -11.59766c3.79701-10.0672 6.85813-18.29695 9.13867-24.57812l165.88086-1.43164 10.11523 26.15039a17.924293 17.924293 0 0 0 16.7168 11.45703h69.61133a17.924293 17.924293 0 0 0 17.92382 -17.92188v-62.923826a17.924293 17.924293 0 0 0 -17.92382 -17.923828h-400.63477z"/>
            <path
                d="m346.33702 41.578764-158.95898 1.51953a10.001 10.001 0 0 0 -9.75782 8.30078c0.3473-2.0141-0.3675 1.24311-1.3164 4.23828s-2.32092 7.19972-4.04102 12.39844c-1.45841 4.40782-3.29066 9.8793-5.2168 15.61914l-34.82812 0.32422a10.001 10.001 0 0 0 -9.76172 8.30078c0.34711-2.01299-0.36769 1.24304-1.3164 4.23828-0.94874 2.99525-2.31736 7.199616-4.03711 12.398436-3.43951 10.39764-8.28195 24.79419-14.04883 41.81055-11.533759 34.03272-26.770329 78.56389-41.957029 122.80468-30.37342 88.48159-60.548832 175.80665-60.548832 175.80664a10.001 10.001 0 0 0 9.535156 13.26563l403.8125-3.40625a10.001 10.001 0 0 0 9.24219 -13.60742l-10.37109-26.81055 56.29297-0.47656a10.001 10.001 0 0 0 9.37304 -13.24805l-122.54298-356.72461a10.001 10.001 0 0 0 -9.55274 -6.75195zm-7.01953 20.06836 115.68945 336.77539-56.48828 0.47656a10.001 10.001 0 0 0 -0.38672 -0.0137l-206.03711 1.75977-112.89453 0.95312c4.08516-11.8227 27.887599-80.68871 55.962889-162.45703 15.19422-44.25263 30.43774-88.79658 41.99024-122.87695 5.77624-17.040186 10.62834-31.461806 14.09765-41.947266 1.54944-4.68294 2.71595-8.27084 3.67969-11.28906l144.38672-1.38086zm-72.53516 25.93945a15.0015 15.0015 0 0 0 -14.77343 15.210936v13.50195c-20.08702 2.40414-35.30464 8.63477-45.61914 18.72266-11.43113 11.18031-17.14651 24.5642-17.14649 40.14844-0.00002 15.68135 5.77096 28.50654 17.31641 38.47656 10.40704 8.98725 25.56818 15.64553 45.44922 19.99219v83.58398c-9.16316-1.88789-16.71088-5.96934-22.64258-12.24805-7.31597-7.74377-12.17568-18.77938-14.57617-33.10546l-30.86329 4.64648c1.60034 19.06916 8.62992 33.9046 21.08985 44.50391 11.2399 9.56154 26.91507 15.70327 46.99219 18.45117v28.37109a15.0015 15.0015 0 1 0 30 0v-28.21289c20.49304-1.76751 36.73019-8.4257 48.69336-19.99023 12.91698-12.48687 19.37482-27.24679 19.375-44.28321-0.00017-16.64911-5.88629-30.10459-17.66016-40.36523-11.36523-9.90405-28.17941-16.82368-50.4082-20.77539v-75.44922c7.53202 1.95169 13.70619 5.29969 18.51562 10.05078 5.82973 5.75964 9.65915 13.57604 11.48828 23.44922l32.06446-3.91992c-2.85795-15.87463-9.88753-28.21661-21.08985-37.02539-10.22623-8.04065-23.89429-13.08796-40.97851-15.16016v-13.36328a15.0015 15.0015 0 0 0 -15.22657 -15.210936zm-108.42968 16.152346c-34.68008 94.34279-102.74414 304.91601-102.74415 304.91601a10.001 10.001 0 0 0 -0.20312 0.75586 10.001 10.001 0 0 0 9.80469 12.31836l137.06054-1.16992 189.1211-1.59961 7.87695 20.35937-375.20898 3.16602c4.084141-11.82247 27.88358-80.69082 55.95312-162.46094 15.19105-44.25344 30.432309-88.79793 41.982419-122.8789 5.77506-17.04049 10.62514-31.46165 14.09375-41.94727 1.54858-4.68136 2.71236-8.26931 3.67579-11.28711l18.58789-0.17187zm93.65625 34.96093v69.34571c-8.86434-2.91224-16.0897-6.67432-21.61524-11.31446-6.85872-5.75931-10.28717-13.62345-10.28711-23.59375-0.00006-8.71162 3.31521-16.38286 9.94531-23.01367 5.39137-5.39175 12.71051-9.20025 21.95704-11.42383zm30 101.17188c13.09298 3.88234 22.27264 8.47377 27.51757 13.77734 5.88687 5.95313 8.82993 13.81726 8.83008 23.59375-0.00015 11.13177-3.88714 20.35198-11.66015 27.66016-6.6705 6.27143-14.90261 10.41707-24.6875 12.44726v-77.47851z"/>
        </symbol>
        <symbol id="atm2" viewBox="0 0 488.4375 521.64496">
            <title>atm2</title>
            <path opacity=".1" d="m113.49458 80.452898c-1.83158 10.62195-99.786296 429.76647-99.786296 429.76647l461.43518-3.89919-100.01875-427.60336-261.63013 1.736078z"/>
            <path
                d="m375.04883 67.29102-261.63086 1.736328a11.427394 11.427394 0 0 0 -11.1836 9.48438c0.0755-0.43767-0.50138 2.39914-1.3125 6.02148-0.8111 3.62235-1.95415 8.65916-3.3789 14.88867-2.84951 12.459052-6.82569 29.696762-11.54492 50.085942-9.43847 40.77836-21.85275 94.16448-34.210941 147.21875-24.716385 106.10855-49.205078 210.89258-49.205078 210.89258a11.427394 11.427394 0 0 0 11.222657 14.02539l461.43554-3.89844a11.427394 11.427394 0 0 0 11.0293 -14.02929l-100.01953-427.60157a11.427394 11.427394 0 0 0 -11.20117 -8.82422zm-8.97266 22.912118 94.68946 404.8125-432.63086 3.65429c2.963724-12.68313 22.847768-97.75834 45.9082-196.75781 12.35943-53.0596 24.77558-106.45134 34.21875-147.25 4.72158-20.39933 8.70063-37.65047 11.55859-50.14648 1.21057-5.293032 2.10096-9.223992 2.88282-12.697272l243.37304-1.61523zm-121.96289 39.656242a17.14109 17.14109 0 0 0 -16.88086 17.38086v19.1836c-27.27321 2.5585-47.82153 9.76682-61.625 21.63867-14.853 12.77491-22.27933 28.06611-22.27929 45.87305-0.00003 17.91791 7.50041 32.57284 22.50195 43.96484 13.931 10.57938 34.40613 18.33941 61.40234 23.29102v95.4414c-12.9689-1.95043-23.56204-6.73913-31.76953-14.3789-9.50597-8.84823-15.81843-21.45682-18.9375-37.82618l-40.10352 5.3086c2.0794 21.78891 11.21259 38.73857 27.40235 50.84961 15.04217 11.25265 36.18495 18.36966 63.4082 21.36328v28.13672a17.14109 17.14109 0 1 0 34.2793 0v-28.07813c27.73944-1.74182 49.6224-9.39783 65.62109-22.99804 16.78365-14.2678 25.17555-31.13337 25.17578-50.59961-0.00023-19.02369-7.64892-34.39899-22.94726-46.12305-15.16754-11.62327-37.79119-19.65317-67.84961-24.10156v-86.34375c10.8604 2.13367 19.66782 6.12328 26.41015 11.98047 7.57484 6.58111 12.55108 15.51357 14.92774 26.79492l41.66211-4.48047c-3.71347-18.13874-12.84861-32.23956-27.4043-42.30469-13.75513-9.51084-32.29127-15.36382-55.5957-17.5664v-19.0254a17.14109 17.14109 0 0 0 -17.39844 -17.38086zm-16.88086 61.94336v80.375c-12.61665-3.41051-22.76556-7.94282-30.43359-13.60546-8.91186-6.58074-13.36726-15.56862-13.36719-26.96094-0.00007-9.95411 4.30708-18.71839 12.92188-26.29492 7.45477-6.55608 17.75143-11.05713 30.8789-13.51368zm34.2793 115.45899c18.27407 4.56089 30.98172 10.00747 38.10742 16.34375 7.64909 6.80219 11.47246 15.79008 11.47266 26.96094-0.0002 12.71944-5.05055 23.253-15.15039 31.60351-9.19644 7.60338-20.67739 12.46974-34.42969 14.61719v-89.52539z"/>
            <path
                opacity=".5"
                d="m18.03125 0.000004a18.032698 18.032698 0 0 0 -18.03125 18.03125v104.43751a18.032698 18.032698 0 0 0 18.03125 18.03125h77.93359a18.032698 18.032698 0 0 0 17.38282 -13.24023c4.84504-17.58109 8.48517-35.808802 10.95898-48.886722l239.5625-1.5293 10.01758 49.220702a18.032698 18.032698 0 0 0 17.66797 14.43555h78.85156a18.032698 18.032698 0 0 0 18.03125 -18.03125v-104.43751a18.032698 18.032698 0 0 0 -18.03125 -18.03125h-452.375z"/>
        </symbol>
        <symbol id="bank" viewBox="0 0 524.11865 529.76996">
            <title>bank</title>
            <path opacity=".2" d="m262.05915 15.660761-252.05944 191.90742h50.411556v307.86101h151.23601v-126.28812h104.28044l0.00035 126.28812h147.77899v-307.861h50.4119l-252.0598-191.90742z"/>
            <path
                d="m261.56617 0.01215847a10.001 10.001 0 0 0 -5.56445 2.03125l-252.06055 191.90821a10.001 10.001 0 0 0 6.058594 17.95703h40.412109v307.86133a10.001 10.001 0 0 0 10 10h151.23633a10.001 10.001 0 0 0 10 -10v-116.28906h84.2793v116.28906a10.001 10.001 0 0 0 10 10h147.77929a10.001 10.001 0 0 0 10 -10v-307.86133h40.41211a10.001 10.001 0 0 0 6.0586 -17.95703l-252.06055-191.90821a10.001 10.001 0 0 0 -6.55078 -2.03125zm0.49219 22.55664 222.41796 169.33985h-20.76953a10.001 10.001 0 0 0 -10 10v307.86133h-127.77929v-116.28906a10.001 10.001 0 0 0 -10 -10h-104.2793a10.001 10.001 0 0 0 -10 10v116.28906h-131.23633v-307.86133a10.001 10.001 0 0 0 -10 -10h-20.771484l222.41797-169.33985zm-0.46875 43.947266a15.0015 15.0015 0 0 0 -14.77539 15.212892v13.5c-20.0866 2.40421-35.30478 8.636864-45.61915 18.724614-11.43113 11.18032-17.1465 24.56225-17.14648 40.14649-0.00002 15.68135 5.77291 28.50653 17.31836 38.47656 10.40676 8.987 25.56703 15.64747 45.44727 19.99414v83.58398c-9.16232-1.88805-16.71129-5.96976-22.64258-12.24804-7.31597-7.74377-12.17373-18.77938-14.57422-33.10547l-30.86328 4.64648c1.60034 19.06917 8.62991 33.90265 21.08984 44.50196 11.23973 9.5614 26.91356 15.70516 46.99024 18.45312v28.36914a15.0015 15.0015 0 1 0 30 0v-28.21289c20.4938-1.7673 36.73184-8.42344 48.69531-19.98828 12.91699-12.48686 19.37483-27.24874 19.375-44.28516-0.00017-16.64911-5.88629-30.10265-17.66016-40.36328-11.36555-9.90434-28.18043-16.82373-50.41015-20.77539v-75.45117c7.53221 1.95167 13.70805 5.2996 18.51757 10.05078 5.82973 5.75964 9.65915 13.57604 11.48828 23.44922l32.0625-3.91992c-2.85795-15.87462-9.88752-28.21661-21.08984-37.02539-10.22661-8.04094-23.89339-13.086154-40.97851-15.158214v-13.36328a15.0015 15.0015 0 0 0 -15.22461 -15.212892zm-14.77539 51.115246v69.34375c-8.86384-2.91219-16.08798-6.67255-21.61329-11.3125-6.85872-5.75931-10.28717-13.62541-10.28711-23.59571-0.00006-8.71162 3.31326-16.38286 9.94336-23.01367 5.39137-5.39175 12.71051-9.1983 21.95704-11.42187zm30 101.16992c13.09329 3.88237 22.27451 8.4737 27.51953 13.77734 5.88687 5.95313 8.82992 13.81923 8.83007 23.5957-0.00015 11.13178-3.88714 20.35003-11.66015 27.65821-6.67093 6.27183-14.90374 10.41721-24.68945 12.44726v-77.47851z"/>
        </symbol>
        <symbol id="bank2" viewBox="0 0 524.11353 529.76758">
            <title>bank2</title>
            <path opacity=".2" d="m262.0565 15.545518-252.05944 191.90743h50.411556v307.86099h151.23602 104.28079 147.77899v-307.86099h50.4119l-252.0598-191.90743z"/>
            <path
                d="m262.0558 0a10.001 10.001 0 0 0 -6.02344 2.140625l-0.0332-0.09766-252.06055 191.9082a10.001 10.001 0 0 0 6.058594 17.95508h40.412109v307.86133a10.001 10.001 0 0 0 10 10h151.23438 104.28125 147.7793a10.001 10.001 0 0 0 10 -10v-307.86133h40.41211a10.001 10.001 0 0 0 6.05859 -17.95508l-252.06055-191.90818-0.004 0.01367a10.001 10.001 0 0 0 -6.05469 -2.056646zm0.002 22.568359 222.41407 169.33789h-20.76758a10.001 10.001 0 0 0 -10 10v307.86133h-137.7793-104.28125-141.23438v-307.86133a10.001 10.001 0 0 0 -10 -10h-20.769531l222.41792-169.33789zm0.13281 61.333992a23.084784 23.084784 0 0 0 -22.73437 23.408199v13.63867c-29.67958 3.56586-52.54516 12.8174-68.04687 27.97852-17.05252 16.67833-25.62699 36.79216-25.62696 59.95898-0.00003 23.31001 8.68357 42.688 25.99219 57.63477 15.62839 13.49625 38.31783 23.30215 67.68164 29.69336v116.86132c-12.28317-2.68552-22.38536-8.12638-30.41797-16.6289-10.23199-10.83032-17.19966-26.49396-20.65039-47.08789a2.7170355 2.3007614 0 0 0 -3.16797 -1.94141l-44.93554 6.76367a2.7170355 2.3007614 0 0 0 -2.23438 2.42969c2.36288 28.1556 12.81502 50.36937 31.49023 66.25586 16.83622 14.32219 40.2741 23.40836 69.91602 27.4668v19.28515a23.084784 23.084784 0 1 0 46.16406 0v-19.8164c28.21673-3.48394 54.32729-13.04508 70.88672-29.05274 19.21052-18.57083 28.8845-40.69693 28.88477-65.99414-0.00027-24.70016-8.82993-44.98763-26.48438-60.37304-15.94412-13.89426-43.16395-23.54481-73.28711-29.50586v-104.45508c9.2706 2.82591 17.94746 6.75684 22.8418 11.59179 8.08023 7.98312 13.49627 18.92676 16.10351 33a2.7170355 2.3007614 0 0 0 3.07422 1.92188l46.68555-5.70703a2.7170355 2.3007614 0 0 0 2.29688 -2.625c-4.22956-23.49337-14.72068-42.01808-31.54302-55.24609-14.06975-11.06275-36.09124-18.07681-59.45899-21.56836v-14.47852a23.084784 23.084784 0 0 0 -23.42969 -23.408199zm-22.73437 74.539059v95.61328c-11.95818-4.05706-21.70791-9.17797-29.12695-15.4082-9.42967-7.91815-14.17586-18.6488-14.17578-32.71875-0.00008-12.18982 4.56172-22.74626 13.83593-32.02149 7.21717-7.21766 17.0382-12.32758 29.4668-15.46484zm46.16406 149.49805c16.3073 5.08269 30.16619 10.85958 35.92969 16.6875 8.10127 8.19244 12.2205 19.03543 12.2207 32.8789-0.0002 15.75434-5.4209 28.52336-16.27929 38.73242-7.44212 6.99689-19.4699 12.17931-31.8711 15.41407v-103.71289z"/>
        </symbol>
        <symbol id="currency_exchange" viewBox="0 0 436.61133 477.10547">
            <title>currency_exchange</title>
            <path
                opacity=".5"
                d="m208.68466 24.359039v0.0625h10.25v-0.0625h-10.25zm10.25-17.9375v24.90625c10.49994 0.65635 18.53899 3.15635 24.09375 7.46875 5.55461 4.312594 9.15616 10.218844 10.84375 17.718754l-26.15625 4.125c-1.31255-3.32805-2.47662-5.61711-3.53125-6.90625-1.05474-1.28898-2.81256-2.59366-5.25-3.90625v20.3125c14.24994 3.79693 23.78117 7.81256 28.5625 12.03125 6.32804 5.67193 9.46866 12.87504 9.46875 21.593747-0.00008 5.1094-1.1329 9.7969-3.40625 14.0625-2.27352 4.26564-5.17977 7.82814-8.71875 10.6875-3.53914 2.85938-7.29695 4.92969-11.28125 6.21875-3.98443 1.28906-8.85944 2.04688-14.625 2.28125v13.28125h-10.25v-13.28125c-6.89066-0.60938-12.49222-1.72656-16.78125-3.34375-4.28909-1.61718-7.97658-3.85937-11.09375-6.71875-3.1172-2.85937-5.53126-5.9453-7.21875-9.25-1.68751-3.30467-2.96876-7.28122-3.8125-11.96875l28.40625-3.3125c0.84373 4.64065 2.00777 8.00003 3.4375 10.0625 1.42966 2.06252 3.78121 3.87502 7.0625 5.46875v-24.812497c-9.46878-2.62495-16.19534-4.89058-20.15625-6.8125-3.96096-1.92182-7.40627-5.00776-10.3125-9.25-2.90625-4.24213-4.34376-9.40618-4.34375-15.5-0.00001-8.34367 2.91405-15.33585 8.75-20.9375 5.83591-5.601464 14.53122-8.703034 26.0625-9.312504v-24.90625h-197.84375v157.8125h403.8125v-157.8125h-195.71875zm-10.25 43.062504c-3.00004 0.98446-5.10941 2.20321-6.28125 3.65625-1.1719 1.45321-1.75004 3.15633-1.75 5.125-0.00003 2.06258 0.61715 3.85164 1.8125 5.375 1.19528 1.52351 3.26559 2.81257 6.21875 3.84375v-18zm10.25 46.6875v22.499997c3.98432-0.89061 6.89838-2.36717 8.75-4.40625 1.8515-2.03904 2.78118-4.31247 2.78125-6.84375-0.00006-2.20309-0.7735-4.24216-2.34375-6.09375-1.57037-1.851527-4.64069-3.562457-9.1875-5.156247z"/>
            <path
                d="m6.26954 0a5.0005 5.0005 0 0 0 -5 5v164.2461a5.0005 5.0005 0 0 0 5 5h298.87109c-16.81573 14.57446-27.4668 36.07512-27.4668 60.05664 0 43.86023 35.60853 79.46876 79.46875 79.46875 43.86022 0 79.46875-35.60851 79.46875-79.46875 0-23.99227-10.66971-45.48896-27.50195-60.05664h8.78125a5.0005 5.0005 0 0 0 5 -5v-164.2461a5.0005 5.0005 0 0 0 -5 -5h-411.62109zm5 10h401.62109v154.2461h-18.28906c-11.16419-5.98061-23.91591-9.38087-37.45899-9.38086-0.68532 0-1.38132-0.0173-2.0625 0-12.78612 0.3243-24.81276 3.69476-35.41406 9.38086h-308.39648v-154.2461zm350.59179 171.49024c8.95305 0.00009 18.03117 2.40635 27.21875 7.1875l-6.3125 25.53125c-6.37508-5.85931-13.03132-8.81242-19.96875-8.8125-9.09381 0.00007-15.25005 4.09383-18.4375 12.25h25.3125l-3.03125 12.78125h-24.75c-0.0938 0.93754-0.12504 2.31255-0.125 4.09375v3.71875h26.15625l-3.03125 12.8125h-21.3125c2.76557 8.76564 8.76557 13.12502 18 13.125 10.12492 0.00001 19.59366-3.28123 28.40625-9.84375v26.25c-7.31259 5.01561-16.1407 7.49999-26.5 7.5-16.73442-0.00002-29.10941-3.79687-37.125-11.4375-8.01564-7.64062-12.90626-16.17185-14.6875-25.59375h-12.71875l3.375-12.8125h7.71875c-0.0938-0.70306-0.12501-1.93745-0.125-3.71875-0.00001-1.87494 0.0312-3.24995 0.125-4.09375h-9.34375l3.3125-12.78125h7.65625c6.09373-24.09365 22.81246-36.15615 50.1875-36.15625zm-284.45508 37.42187c-42.91414 1.08845-77.406254 36.26261-77.406254 79.4375 0 43.86023 35.608534 79.46876 79.468754 79.46875 43.860216 0 79.468746-35.60851 79.468746-79.46875 0-43.86022-35.60852-79.43751-79.468746-79.4375-0.68532 0-1.38132-0.0173-2.0625 0zm0.84375 20.625c8.06244 0.00009 14.44524 0.91416 19.15625 2.71875 4.710856 1.80478 8.679606 4.80478 11.937496 9 3.25773 4.19539 5.49991 9.26571 6.71875 15.21875l-26.843746 4.21875c-1.35944-5.01553-2.92975-8.32804-4.6875-9.96875-1.75787-1.64055-3.75005-2.46866-6-2.46875-2.7188 0.0001-4.93755 0.87508-6.625 2.65625-1.68755 1.78132-2.5313 4.31258-2.53125 7.59375-0.00005 1.73444 0.17184 3.41413 0.5 5.03125 0.32808 1.61724 1.45308 5.43757 3.375 11.4375h21.3125v16.8125h-18.84375c-0.23442 3.9844-0.9688 7.56254-2.1875 10.75-0.98442 2.43754-2.60942 4.96878-4.90625 7.59375 2.62495-0.60934 4.87495-0.90623 6.75-0.90625 2.39057 0.00001 5.49995 0.46877 9.34375 1.40625 5.24994 1.21876 9.45306 1.81253 12.59375 1.8125 2.57805 0.00004 4.788986-0.21091 6.687496-0.65625 1.89836-0.44527 4.40617-1.37497 7.5-2.78125l9.5625 20.9375c-4.64071 2.34374-8.70321 3.98437-12.21875 4.875-3.51571 0.89061-7.31258 1.31249-11.343746 1.3125-4.40632-0.00002-9.42194-0.76562-15.09375-2.3125-7.45318-2.06248-12.0938-3.26563-13.875-3.59375-1.78129-0.32813-3.68754-0.46875-5.75-0.46875-6.0469-0.00001-12.71878 2.10937-20.03125 6.375l-9.09375-19.96875c9.84373-7.07811 14.78123-14.14059 14.78125-21.21875-0.00002-0.37495-0.0625-1.42184-0.15625-3.15625h-14.625v-16.8125h10.5c-1.78127-6.18742-2.79689-9.76556-3.03125-10.75-0.28126-1.49994-0.43752-3.3593-0.4375-5.5625-0.00002-5.85928 1.57029-11.1171 4.6875-15.78125 3.11716-4.66395 7.22653-8.04678 12.3125-10.15625 5.0859-2.10928 11.93746-3.1874 20.5625-3.1875zm161.47852 78.66211c-42.91415 1.08846-77.40625 36.26261-77.40625 79.4375 0 43.86024 35.60853 79.46876 79.46875 79.46875 43.86021-0.00003 79.46875-35.60851 79.46875-79.46875-0.00001-43.86021-35.60852-79.43751-79.46875-79.4375-0.68533 0.00001-1.38132-0.0173-2.0625 0zm-46.71875 34h32.125l16.125 35 15.875-35h32.21875l-24.5625 44.4375h20.90625v15.53125h-29.625v8.5h29.625v15.75h-29.625v18.84375h-29.25v-18.84375h-30.09375v-15.75h30.09375v-8.5h-30.09375v-15.53125h21.53125l-25.25-44.4375z"/>
        </symbol>
        <symbol id="atm" viewBox="0 0 576.44501 577.45154">
            <title>atm</title>
            <path d="m64.571 0.06355556c-41.335 0-64.571 21.371-64.571 65.036v450.123c0 40.844 20.895 62.229 62.192 62.229h452.024c41.307 0 62.229-20.315 62.229-62.229v-450.123c0-42.601-20.922-65.036-63.521-65.036-0.004 0-448.495-0.143-448.353 0z"/>
            <path opacity=".1" d="m399.94834 114.36392-158.95898 1.51953-14.78711 40.50586-40.375 0.375c-1.60295 9.29609-122.3125 358.625-122.3125 358.625l403.8125-3.40625-15.58594-40.29492 70.74805-0.59766z" fill-rule="evenodd" fill="#fff"/>
            <path
                opacity=".75"
                d="m102.27539 62.785156a17.924293 17.924293 0 0 0 -17.923828 17.923828v62.923826a17.924293 17.924293 0 0 0 17.923828 17.92188h112.40234a17.924293 17.924293 0 0 0 16.76954 -11.59766c3.79701-10.0672 6.85813-18.29695 9.13867-24.57812l165.88086-1.43164 10.11523 26.15039a17.924293 17.924293 0 0 0 16.7168 11.45703h69.61133a17.924293 17.924293 0 0 0 17.92382 -17.92188v-62.923826a17.924293 17.924293 0 0 0 -17.92382 -17.923828h-400.63477z"
                fill="#fff"/>
            <path
                d="m399.85264 104.36392-158.95898 1.51953a10.001 10.001 0 0 0 -9.75782 8.30078c0.3473-2.0141-0.3675 1.24311-1.3164 4.23828s-2.32092 7.19972-4.04102 12.39844c-1.45841 4.40782-3.29066 9.8793-5.2168 15.61914l-34.82812 0.32422a10.001 10.001 0 0 0 -9.76172 8.30078c0.34711-2.01299-0.36769 1.24304-1.3164 4.23828-0.94874 2.99525-2.31736 7.19962-4.03711 12.39844-3.43951 10.39764-8.28195 24.79419-14.04883 41.81055-11.53376 34.03272-26.77033 78.56389-41.95703 122.80468-30.37342 88.48159-60.548832 175.80665-60.548832 175.80664a10.001 10.001 0 0 0 9.535156 13.26563l403.8125-3.40625a10.001 10.001 0 0 0 9.24219 -13.60742l-10.37109-26.81055 56.29297-0.47656a10.001 10.001 0 0 0 9.37304 -13.24805l-122.54297-356.72461a10.001 10.001 0 0 0 -9.55274 -6.75195zm-7.01953 20.06836 115.68945 336.77539-56.48828 0.47656a10.001 10.001 0 0 0 -0.38672 -0.0137l-206.03711 1.75977-112.89453 0.95312c4.08516-11.8227 27.8876-80.68871 55.96289-162.45703 15.19422-44.25263 30.43774-88.79658 41.99024-122.87695 5.77624-17.04019 10.62834-31.46181 14.09765-41.94727 1.54944-4.68294 2.71595-8.27084 3.67969-11.28906l144.38672-1.38086zm-72.53516 25.93945a15.0015 15.0015 0 0 0 -14.77343 15.21094v13.50195c-20.08702 2.40414-35.30464 8.63477-45.61914 18.72266-11.43113 11.18031-17.14651 24.5642-17.14649 40.14844-0.00002 15.68135 5.77096 28.50654 17.31641 38.47656 10.40704 8.98725 25.56818 15.64553 45.44922 19.99219v83.58398c-9.16316-1.88789-16.71088-5.96934-22.64258-12.24805-7.31597-7.74377-12.17568-18.77938-14.57617-33.10546l-30.86329 4.64648c1.60034 19.06916 8.62992 33.9046 21.08985 44.50391 11.2399 9.56154 26.91507 15.70327 46.99219 18.45117v28.37109a15.0015 15.0015 0 1 0 30 0v-28.21289c20.49304-1.76751 36.73019-8.4257 48.69336-19.99023 12.91698-12.48687 19.37482-27.24679 19.375-44.28321-0.00017-16.64911-5.88629-30.10459-17.66016-40.36523-11.36523-9.90405-28.17941-16.82368-50.4082-20.77539v-75.44922c7.53202 1.95169 13.70619 5.29969 18.51562 10.05078 5.82973 5.75964 9.65915 13.57604 11.48828 23.44922l32.06446-3.91992c-2.85795-15.87463-9.88753-28.21661-21.08985-37.02539-10.22623-8.04065-23.89429-13.08796-40.97851-15.16016v-13.36328a15.0015 15.0015 0 0 0 -15.22657 -15.21094zm-108.42968 16.15235c-34.68008 94.34279-102.74414 304.91601-102.74415 304.91601a10.001 10.001 0 0 0 -0.20312 0.75586 10.001 10.001 0 0 0 9.80469 12.31836l137.06054-1.16992 189.1211-1.59961 7.87695 20.35937-375.20898 3.16602c4.084141-11.82247 27.883583-80.69082 55.953123-162.46094 15.19105-44.25344 30.43231-88.79793 41.98242-122.8789 5.77506-17.04049 10.62514-31.46165 14.09375-41.94727 1.54858-4.68136 2.71236-8.26931 3.67579-11.28711l18.58789-0.17187zm93.65625 34.96093v69.34571c-8.86434-2.91224-16.0897-6.67432-21.61524-11.31446-6.85872-5.75931-10.28717-13.62345-10.28711-23.59375-0.00006-8.71162 3.31521-16.38286 9.94531-23.01367 5.39137-5.39175 12.71051-9.20025 21.95704-11.42383zm30 101.17188c13.09298 3.88234 22.27264 8.47377 27.51757 13.77734 5.88687 5.95313 8.82993 13.81726 8.83008 23.59375-0.00015 11.13177-3.88714 20.35198-11.66015 27.66016-6.6705 6.27143-14.90261 10.41707-24.6875 12.44726v-77.47851z"
                fill-rule="evenodd"
                fill="#fff"/>
        </symbol>
        <symbol id="atm2" viewBox="0 0 576.44501 577.45154">
            <title>atm2</title>
            <path d="m64.571 0.0635556c-41.335 0-64.571 21.371-64.571 65.036v450.123c0 40.844 20.895 62.229 62.192 62.229h452.024c41.307 0 62.229-20.315 62.229-62.229v-450.123c0-42.601-20.922-65.036-63.521-65.036-0.004 0-448.495-0.143-448.353 0z"/>
            <path opacity=".1" d="m157.57183 110.4672c-1.83158 10.62195-99.786296 429.76647-99.786296 429.76647l461.43518-3.89919-100.01875-427.60336-261.63013 1.73608z" fill-rule="evenodd" fill="#fff"/>
            <path
                d="m419.12608 97.305322-261.63086 1.736328a11.427394 11.427394 0 0 0 -11.1836 9.48438c0.0755-0.43767-0.50138 2.39914-1.3125 6.02148-0.8111 3.62235-1.95415 8.65916-3.3789 14.88867-2.84951 12.45905-6.82569 29.69676-11.54492 50.08594-9.43847 40.77836-21.85275 94.16448-34.210941 147.21875-24.716385 106.10855-49.205078 210.89258-49.205078 210.89258a11.427394 11.427394 0 0 0 11.222657 14.02539l461.43554-3.89844a11.427394 11.427394 0 0 0 11.0293 -14.02929l-100.01953-427.60157a11.427394 11.427394 0 0 0 -11.20117 -8.824218zm-8.97266 22.912118 94.68946 404.8125-432.63086 3.65429c2.963724-12.68313 22.847768-97.75834 45.908204-196.75781 12.35943-53.0596 24.77558-106.45134 34.21875-147.25 4.72158-20.39933 8.70063-37.65047 11.55859-50.14648 1.21057-5.29303 2.10096-9.22399 2.88282-12.69727l243.37304-1.61523zm-121.96289 39.65624a17.14109 17.14109 0 0 0 -16.88086 17.38086v19.1836c-27.27321 2.5585-47.82153 9.76682-61.625 21.63867-14.853 12.77491-22.27933 28.06611-22.27929 45.87305-0.00003 17.91791 7.50041 32.57284 22.50195 43.96484 13.931 10.57938 34.40613 18.33941 61.40234 23.29102v95.4414c-12.9689-1.95043-23.56204-6.73913-31.76953-14.3789-9.50597-8.84823-15.81843-21.45682-18.9375-37.82618l-40.10352 5.3086c2.0794 21.78891 11.21259 38.73857 27.40235 50.84961 15.04217 11.25265 36.18495 18.36966 63.4082 21.36328v28.13672a17.14109 17.14109 0 1 0 34.2793 0v-28.07813c27.73944-1.74182 49.6224-9.39783 65.62109-22.99804 16.78365-14.2678 25.17555-31.13337 25.17578-50.59961-0.00023-19.02369-7.64892-34.39899-22.94726-46.12305-15.16754-11.62327-37.79119-19.65317-67.84961-24.10156v-86.34375c10.8604 2.13367 19.66782 6.12328 26.41015 11.98047 7.57484 6.58111 12.55108 15.51357 14.92774 26.79492l41.66211-4.48047c-3.71347-18.13874-12.84861-32.23956-27.4043-42.30469-13.75513-9.51084-32.29127-15.36382-55.5957-17.5664v-19.0254a17.14109 17.14109 0 0 0 -17.39844 -17.38086zm-16.88086 61.94336v80.375c-12.61665-3.41051-22.76556-7.94282-30.43359-13.60546-8.91186-6.58074-13.36726-15.56862-13.36719-26.96094-0.00007-9.95411 4.30708-18.71839 12.92188-26.29492 7.45477-6.55608 17.75143-11.05713 30.8789-13.51368zm34.2793 115.45899c18.27407 4.56089 30.98172 10.00747 38.10742 16.34375 7.64909 6.80219 11.47246 15.79008 11.47266 26.96094-0.0002 12.71944-5.05055 23.253-15.15039 31.60351-9.19644 7.60338-20.67739 12.46974-34.42969 14.61719v-89.52539z"
                fill-rule="evenodd"
                fill="#fff"/>
            <path
                opacity=".5"
                d="m62.1085 30.014306a18.032698 18.032698 0 0 0 -18.03125 18.03125v104.4375a18.032698 18.032698 0 0 0 18.03125 18.03125h77.93359a18.032698 18.032698 0 0 0 17.38282 -13.24023c4.84504-17.58109 8.48517-35.8088 10.95898-48.88672l239.5625-1.5293 10.01758 49.2207a18.032698 18.032698 0 0 0 17.66797 14.43555h78.85156a18.032698 18.032698 0 0 0 18.03125 -18.03125v-104.4375a18.032698 18.032698 0 0 0 -18.03125 -18.031254h-452.375z"
                fill="#fff"/>
        </symbol>
        <symbol id="bank" viewBox="0 0 576.44501 577.45154">
            <title>bank</title>
            <path d="m64.571 0.06355556c-41.335 0-64.571 21.371-64.571 65.036v450.123c0 40.844 20.895 62.229 62.192 62.229h452.024c41.307 0 62.229-20.315 62.229-62.229v-450.123c0-42.601-20.922-65.036-63.521-65.036-0.004 0-448.495-0.143-448.353 0z"/>
            <path opacity=".2" d="m287.15031 34.172675-252.05944 191.90742h50.411556v307.861h151.236v-126.28812h104.28044l0.00035 126.28812h147.77899v-307.86099h50.4119l-252.0598-191.90742z" fill-rule="evenodd" fill="#fff"/>
            <path
                fill-rule="evenodd"
                fill="#fff"
                d="m286.65733 18.524072a10.001 10.001 0 0 0 -5.56445 2.03125l-252.06055 191.90821a10.001 10.001 0 0 0 6.058594 17.95703h40.412109v307.86133a10.001 10.001 0 0 0 10 10h151.23633a10.001 10.001 0 0 0 10 -10v-116.28906h84.2793v116.28906a10.001 10.001 0 0 0 10 10h147.77929a10.001 10.001 0 0 0 10 -10v-307.86133h40.41211a10.001 10.001 0 0 0 6.0586 -17.95703l-252.06055-191.90821a10.001 10.001 0 0 0 -6.55078 -2.03125zm0.49219 22.55664 222.41796 169.33985h-20.76953a10.001 10.001 0 0 0 -10 10v307.86133h-127.77929v-116.28906a10.001 10.001 0 0 0 -10 -10h-104.2793a10.001 10.001 0 0 0 -10 10v116.28906h-131.23633v-307.86133a10.001 10.001 0 0 0 -10 -10h-20.771484l222.41797-169.33985zm-0.46875 43.947266a15.0015 15.0015 0 0 0 -14.77539 15.212892v13.5c-20.0866 2.40421-35.30478 8.63686-45.61915 18.72461-11.43113 11.18032-17.1465 24.56225-17.14648 40.14649-0.00002 15.68135 5.77291 28.50653 17.31836 38.47656 10.40676 8.987 25.56703 15.64747 45.44727 19.99414v83.58398c-9.16232-1.88805-16.71129-5.96976-22.64258-12.24804-7.31597-7.74377-12.17373-18.77938-14.57422-33.10547l-30.86328 4.64648c1.60034 19.06917 8.62991 33.90265 21.08984 44.50196 11.23973 9.5614 26.91356 15.70516 46.99024 18.45312v28.36914a15.0015 15.0015 0 1 0 30 0v-28.21289c20.4938-1.7673 36.73184-8.42344 48.69531-19.98828 12.91699-12.48686 19.37483-27.24874 19.375-44.28516-0.00017-16.64911-5.88629-30.10265-17.66016-40.36328-11.36555-9.90434-28.18043-16.82373-50.41015-20.77539v-75.45117c7.53221 1.95167 13.70805 5.2996 18.51757 10.05078 5.82973 5.75964 9.65915 13.57604 11.48828 23.44922l32.0625-3.91992c-2.85795-15.87462-9.88752-28.21661-21.08984-37.02539-10.22661-8.04094-23.89339-13.08615-40.97851-15.15821v-13.36328a15.0015 15.0015 0 0 0 -15.22461 -15.212892zm-14.77539 51.115242v69.34375c-8.86384-2.91219-16.08798-6.67255-21.61329-11.3125-6.85872-5.75931-10.28717-13.62541-10.28711-23.59571-0.00006-8.71162 3.31326-16.38286 9.94336-23.01367 5.39137-5.39175 12.71051-9.1983 21.95704-11.42187zm30 101.16992c13.09329 3.88237 22.27451 8.4737 27.51953 13.77734 5.88687 5.95313 8.82992 13.81923 8.83007 23.5957-0.00015 11.13178-3.88714 20.35003-11.66015 27.65821-6.67093 6.27183-14.90374 10.41721-24.68945 12.44726v-77.47851z"/>
        </symbol>
        <symbol id="bank2" viewBox="0 0 576.44501 577.45154">
            <title>bank2</title>
            <path d="m64.571 0.06355556c-41.335 0-64.571 21.371-64.571 65.036v450.123c0 40.844 20.895 62.229 62.192 62.229h452.024c41.307 0 62.229-20.315 62.229-62.229v-450.123c0-42.601-20.922-65.036-63.521-65.036-0.004 0-448.495-0.143-448.353 0z"/>
            <path opacity=".2" d="m285.24006 37.843027-252.05944 191.90743h50.411556v307.86099h151.23601 104.28079 147.77899v-307.86099h50.4119l-252.0598-191.90743z" fill-rule="evenodd" fill="#fff"/>
            <path
                fill="#fff"
                d="m285.23936 22.297509a10.001 10.001 0 0 0 -6.02344 2.140625l-0.0332-0.09766-252.06055 191.90821a10.001 10.001 0 0 0 6.058594 17.95508h40.412109v307.86133a10.001 10.001 0 0 0 10 10h151.23438 104.28125 147.7793a10.001 10.001 0 0 0 10 -10v-307.86133h40.41211a10.001 10.001 0 0 0 6.05859 -17.95508l-252.06055-191.9082-0.004 0.01367a10.001 10.001 0 0 0 -6.05469 -2.056641zm0.002 22.568359 222.41407 169.33789h-20.76758a10.001 10.001 0 0 0 -10 10v307.86133h-137.7793-104.28125-141.23438v-307.86133a10.001 10.001 0 0 0 -10 -10h-20.769531l222.41792-169.33789zm0.13281 61.333992a23.084784 23.084784 0 0 0 -22.73437 23.4082v13.63867c-29.67958 3.56586-52.54516 12.8174-68.04687 27.97852-17.05252 16.67833-25.62699 36.79216-25.62696 59.95898-0.00003 23.31001 8.68357 42.688 25.99219 57.63477 15.62839 13.49625 38.31783 23.30215 67.68164 29.69336v116.86132c-12.28317-2.68552-22.38536-8.12638-30.41797-16.6289-10.23199-10.83032-17.19966-26.49396-20.65039-47.08789a2.7170355 2.3007614 0 0 0 -3.16797 -1.94141l-44.93554 6.76367a2.7170355 2.3007614 0 0 0 -2.23438 2.42969c2.36288 28.1556 12.81502 50.36937 31.49023 66.25586 16.83622 14.32219 40.2741 23.40836 69.91602 27.4668v19.28515a23.084784 23.084784 0 1 0 46.16406 0v-19.8164c28.21673-3.48394 54.32729-13.04508 70.88672-29.05274 19.21052-18.57083 28.8845-40.69693 28.88477-65.99414-0.00027-24.70016-8.82993-44.98763-26.48438-60.37304-15.94412-13.89426-43.16395-23.54481-73.28711-29.50586v-104.45508c9.2706 2.82591 17.94746 6.75684 22.8418 11.59179 8.08023 7.98312 13.49627 18.92676 16.10351 33a2.7170355 2.3007614 0 0 0 3.07422 1.92188l46.68555-5.70703a2.7170355 2.3007614 0 0 0 2.29688 -2.625c-4.22956-23.49337-14.72068-42.01808-31.54302-55.24609-14.06975-11.06275-36.09124-18.07681-59.45899-21.56836v-14.47852a23.084784 23.084784 0 0 0 -23.42969 -23.4082zm-22.73437 74.53906v95.61328c-11.95818-4.05706-21.70791-9.17797-29.12695-15.4082-9.42967-7.91815-14.17586-18.6488-14.17578-32.71875-0.00008-12.18982 4.56172-22.74626 13.83593-32.02149 7.21717-7.21766 17.0382-12.32758 29.4668-15.46484zm46.16406 149.49805c16.3073 5.08269 30.16619 10.85958 35.92969 16.6875 8.10127 8.19244 12.2205 19.03543 12.2207 32.8789-0.0002 15.75434-5.4209 28.52336-16.27929 38.73242-7.44212 6.99689-19.4699 12.17931-31.8711 15.41407v-103.71289z"/>
        </symbol>
        <symbol id="currency_exchange" viewBox="0 0 576.44501 577.45154">
            <title>currency_exchange</title>
            <path d="m64.571 0.06355556c-41.335 0-64.571 21.371-64.571 65.036v450.123c0 40.844 20.895 62.229 62.192 62.229h452.024c41.307 0 62.229-20.315 62.229-62.229v-450.123c0-42.601-20.922-65.036-63.521-65.036-0.004 0-448.495-0.143-448.353 0z"/>
            <path
                opacity=".5"
                fill="#fff"
                d="m285.87714 84.892876v0.0625h10.25v-0.0625h-10.25zm10.25-17.9375v24.90625c10.49994 0.65635 18.53899 3.15635 24.09375 7.46875 5.55461 4.312594 9.15616 10.218844 10.84375 17.718754l-26.15625 4.125c-1.31255-3.32805-2.47662-5.61711-3.53125-6.90625-1.05474-1.28898-2.81256-2.59366-5.25-3.90625v20.3125c14.24994 3.79693 23.78117 7.81256 28.5625 12.03125 6.32804 5.67193 9.46866 12.87504 9.46875 21.59375-0.00008 5.1094-1.1329 9.7969-3.40625 14.0625-2.27352 4.26564-5.17977 7.82814-8.71875 10.6875-3.53914 2.85938-7.29695 4.92969-11.28125 6.21875-3.98443 1.28906-8.85944 2.04688-14.625 2.28125v13.28125h-10.25v-13.28125c-6.89066-0.60938-12.49222-1.72656-16.78125-3.34375-4.28909-1.61718-7.97658-3.85937-11.09375-6.71875-3.1172-2.85937-5.53126-5.9453-7.21875-9.25-1.68751-3.30467-2.96876-7.28122-3.8125-11.96875l28.40625-3.3125c0.84373 4.64065 2.00777 8.00003 3.4375 10.0625 1.42966 2.06252 3.78121 3.87502 7.0625 5.46875v-24.8125c-9.46878-2.62495-16.19534-4.89058-20.15625-6.8125-3.96096-1.92182-7.40627-5.00776-10.3125-9.25-2.90625-4.24213-4.34376-9.40618-4.34375-15.5-0.00001-8.34367 2.91405-15.33585 8.75-20.9375 5.83591-5.601464 14.53122-8.703034 26.0625-9.312504v-24.90625h-197.84375v157.8125h403.8125v-157.8125h-195.71875zm-10.25 43.062504c-3.00004 0.98446-5.10941 2.20321-6.28125 3.65625-1.1719 1.45321-1.75004 3.15633-1.75 5.125-0.00003 2.06258 0.61715 3.85164 1.8125 5.375 1.19528 1.52351 3.26559 2.81257 6.21875 3.84375v-18zm10.25 46.6875v22.5c3.98432-0.89061 6.89838-2.36717 8.75-4.40625 1.8515-2.03904 2.78118-4.31247 2.78125-6.84375-0.00006-2.20309-0.7735-4.24216-2.34375-6.09375-1.57037-1.85153-4.64069-3.56246-9.1875-5.15625z"/>
            <path
                fill="#fff"
                d="m83.462016 60.533837a5.0005 5.0005 0 0 0 -5 5v164.2461a5.0005 5.0005 0 0 0 5 5h298.87109c-16.81573 14.57446-27.4668 36.07512-27.4668 60.05664 0 43.86023 35.60853 79.46876 79.46875 79.46875 43.86022 0 79.46875-35.60851 79.46875-79.46875 0-23.99227-10.66971-45.48896-27.50195-60.05664h8.78125a5.0005 5.0005 0 0 0 5 -5v-164.2461a5.0005 5.0005 0 0 0 -5 -5h-411.62109zm5 10h401.62109v154.2461h-18.28906c-11.16419-5.98061-23.91591-9.38087-37.45899-9.38086-0.68532 0-1.38132-0.0173-2.0625 0-12.78612 0.3243-24.81276 3.69476-35.41406 9.38086h-308.39648v-154.2461zm350.59179 171.49024c8.95305 0.00009 18.03117 2.40635 27.21875 7.1875l-6.3125 25.53125c-6.37508-5.85931-13.03132-8.81242-19.96875-8.8125-9.09381 0.00007-15.25005 4.09383-18.4375 12.25h25.3125l-3.03125 12.78125h-24.75c-0.0938 0.93754-0.12504 2.31255-0.125 4.09375v3.71875h26.15625l-3.03125 12.8125h-21.3125c2.76557 8.76564 8.76557 13.12502 18 13.125 10.12492 0.00001 19.59366-3.28123 28.40625-9.84375v26.25c-7.31259 5.01561-16.1407 7.49999-26.5 7.5-16.73442-0.00002-29.10941-3.79687-37.125-11.4375-8.01564-7.64062-12.90626-16.17185-14.6875-25.59375h-12.71875l3.375-12.8125h7.71875c-0.0938-0.70306-0.12501-1.93745-0.125-3.71875-0.00001-1.87494 0.0312-3.24995 0.125-4.09375h-9.34375l3.3125-12.78125h7.65625c6.09373-24.09365 22.81246-36.15615 50.1875-36.15625zm-284.45508 37.42187c-42.91414 1.08845-77.40625 36.26261-77.40625 79.4375 0 43.86023 35.60853 79.46876 79.46875 79.46875 43.86022 0 79.46875-35.60851 79.46875-79.46875 0-43.86022-35.60852-79.43751-79.46875-79.4375-0.68532 0-1.38132-0.0173-2.0625 0zm0.84375 20.625c8.06244 0.00009 14.44524 0.91416 19.15625 2.71875 4.71086 1.80478 8.67961 4.80478 11.9375 9 3.25773 4.19539 5.49991 9.26571 6.71875 15.21875l-26.84375 4.21875c-1.35944-5.01553-2.92975-8.32804-4.6875-9.96875-1.75787-1.64055-3.75005-2.46866-6-2.46875-2.7188 0.0001-4.93755 0.87508-6.625 2.65625-1.68755 1.78132-2.5313 4.31258-2.53125 7.59375-0.00005 1.73444 0.17184 3.41413 0.5 5.03125 0.32808 1.61724 1.45308 5.43757 3.375 11.4375h21.3125v16.8125h-18.84375c-0.23442 3.9844-0.9688 7.56254-2.1875 10.75-0.98442 2.43754-2.60942 4.96878-4.90625 7.59375 2.62495-0.60934 4.87495-0.90623 6.75-0.90625 2.39057 0.00001 5.49995 0.46877 9.34375 1.40625 5.24994 1.21876 9.45306 1.81253 12.59375 1.8125 2.57805 0.00004 4.78899-0.21091 6.6875-0.65625 1.89836-0.44527 4.40617-1.37497 7.5-2.78125l9.5625 20.9375c-4.64071 2.34374-8.70321 3.98437-12.21875 4.875-3.51571 0.89061-7.31258 1.31249-11.34375 1.3125-4.40632-0.00002-9.42194-0.76562-15.09375-2.3125-7.45318-2.06248-12.0938-3.26563-13.875-3.59375-1.78129-0.32813-3.68754-0.46875-5.75-0.46875-6.0469-0.00001-12.71878 2.10937-20.03125 6.375l-9.09375-19.96875c9.84373-7.07811 14.78123-14.14059 14.78125-21.21875-0.00002-0.37495-0.0625-1.42184-0.15625-3.15625h-14.625v-16.8125h10.5c-1.78127-6.18742-2.79689-9.76556-3.03125-10.75-0.28126-1.49994-0.43752-3.3593-0.4375-5.5625-0.00002-5.85928 1.57029-11.1171 4.6875-15.78125 3.11716-4.66395 7.22653-8.04678 12.3125-10.15625 5.0859-2.10928 11.93746-3.1874 20.5625-3.1875zm161.47852 78.66211c-42.91415 1.08846-77.40625 36.26261-77.40625 79.4375 0 43.86024 35.60853 79.46876 79.46875 79.46875 43.86021-0.00003 79.46875-35.60851 79.46875-79.46875-0.00001-43.86021-35.60852-79.43751-79.46875-79.4375-0.68533 0.00001-1.38132-0.0173-2.0625 0zm-46.71875 34h32.125l16.125 35 15.875-35h32.21875l-24.5625 44.4375h20.90625v15.53125h-29.625v8.5h29.625v15.75h-29.625v18.84375h-29.25v-18.84375h-30.09375v-15.75h30.09375v-8.5h-30.09375v-15.53125h21.53125l-25.25-44.4375z"/>
        </symbol>
    </defs>
</svg>
