<?xml version="1.0" encoding="UTF-8" standalone="no"?>
<svg 
    xmlns="http://www.w3.org/2000/svg"
    xmlns:svg="http://www.w3.org/2000/svg"
    xmlns:rdf="http://www.w3.org/1999/02/22-rdf-syntax-ns#" 
    xmlns:ns2="http://creativecommons.org/ns#" 
    xmlns:dc="http://purl.org/dc/elements/1.1/" 
    xmlns:cc="http://creativecommons.org/ns#"         
    xmlns:xlink="http://www.w3.org/1999/xlink" 
    version="1.1"
    id="svg2"
    style="fill:black;stroke:none">
    <title>SJJB Map Icons [Accommodation Set]</title>
    <desc>These map icons are an attempt to create a simple consistent set of vector icons suitable for cartographic use.</desc>
    <metadata>
        <rdf:RDF>
            <cc:Work rdf:about="">
                <dc:format>image/svg+xml</dc:format>
                <dc:type rdf:resource="http://purl.org/dc/dcmitype/StillImage"/>
                <dc:title>SJJB Map Icons [Accommodation Set]</dc:title>
                <dc:date>2017-01-07</dc:date>
                <dc:creator>
                    <cc:Agent>
                        <dc:title>SJJB Management</dc:title>
                    </cc:Agent>
                </dc:creator>
                <dc:rights>
                    <cc:Agent>
                        <dc:title>Map icons CC-0 from SJJB Management</dc:title>
                    </cc:Agent>
                </dc:rights>
                <dc:language>English</dc:language>

                <dc:source>http://www.sjjb.co.uk/mapicons/introduction</dc:source>
                <dc:description>These map icons are an attempt to create a simple consistent set of vector icons suitable for cartographic use.</dc:description>
            </cc:Work>
        </rdf:RDF>
    </metadata>

    <defs>
        <symbol id="alpinehut">
            <title>alpinehut</title>
            <path d="m64.571 0.06355556c-41.335 0-64.571 21.371-64.571 65.036v450.123c0 40.844 20.895 62.229 62.192 62.229h452.024c41.307 0 62.229-20.315 62.229-62.229v-450.123c0-42.601-20.922-65.036-63.521-65.036-0.004 0-448.495-0.143-448.353 0z"/>
            <path
                fill="#fff"
                d="m286.47959 23.199853a11.473319 11.473319 0 0 0 -5.2832 1.347656l-256.62695 136.86914a11.473319 11.473319 0 0 0 -2.716797 18.23047l17.097656 17.11328a11.473319 11.473319 0 0 0 12.414062 2.52735l19.148438-7.73828v287.45507a12.58387 12.58387 0 0 0 12.583984 12.58204h31.996097a12.58387 12.58387 0 0 0 12.58203 -12.58204v-308.13086a12.58387 12.58387 0 0 0 -0.22461 -2.33203l7.83593-3.16601 151.20704-17.89453 150.87109 18.1582 5.52539 2.22852a12.58387 12.58387 0 0 0 -0.37695 3.00585v308.13086a12.58387 12.58387 0 0 0 12.58398 12.58204h31.9961a12.58387 12.58387 0 0 0 12.58203 -12.58204v-288.23242l22.07421 8.9043a11.473319 11.473319 0 0 0 12.47657 -2.60156l17.18359-17.49805a11.473319 11.473319 0 0 0 -2.78711 -18.16016l-256.62695-136.86914a11.473319 11.473319 0 0 0 -5.51563 -1.347656zm28.92774 167.57227c-8.68156 0.00033-16.04515 3.10018-22.08789 9.29883-6.04311 6.19928-9.0646 13.48254-9.06446 21.85156-0.00014 8.67222 3.02135 16.02962 9.06446 22.07227 6.04274 6.0432 13.40633 9.06471 22.08789 9.06445 8.36914 0.00026 15.64929-3.02125 21.84375-9.06445 6.19403-6.04265 9.29276-13.40005 9.29297-22.07227-0.00021-8.36902-3.09894-15.65228-9.29297-21.85156-6.19446-6.19865-13.47461-9.2985-21.84375-9.29883zm-85.82031 44.76953c-2.71148 0.0266-4.94005 1.68651-6.6836 4.97852l-46.48437 79.94922c-3.09243 5.26766-2.00579 9.29438 3.26172 12.08398l14.86718 8.82422c5.26738 3.10201 9.29608 2.01961 12.08594-3.24805l46.48438-79.94921c3.10172-5.2672 2.01929-9.29591-3.24805-12.08594l-14.88086-8.83594c-1.97534-1.15954-3.77546-1.73278-5.40234-1.7168zm60.67773 21.16602c-13.72378-0.33806-24.24727 5.72743-31.57031 18.19727l-42.30078 72.98437c-2.78987 4.65295-4.02895 10.38262-3.7168 17.19141l1.39062 92.50195-32.07421 68.79883c-1.23891 2.78975-2.00993 5.11126-2.3125 6.96484-0.93628 5.89158 0.30168 11.08412 3.71093 15.57617 3.40914 4.49195 8.0595 7.20631 13.95118 8.14258 9.91071 1.54142 16.87948-1.86869 20.9082-10.22851l35.33594-75.3086c1.2387-2.78973 1.8573-5.73178 1.85742-8.82422l-0.4668-57.17968 35.84375 48.42578 10.36914 85.14648c1.24812 9.29613 6.82728 14.71637 16.73828 16.25781 6.81819 0.93625 12.78288-0.99863 17.89453-5.80273 5.11119-4.80406 7.2039-10.61515 6.27735-17.43359l-12.24024-96.75196c-1.23906-7.13036-5.56199-11.4446-9.6875-17.19726l-31.73242-44.25 30.68164-53.44922 15.33594 19.51758c1.23864 1.86318 3.10053 3.25893 5.58789 4.18554l30.58398 14.85352v179.92969a6.4341765 6.4341765 0 1 0 12.86719 0v-177.91797c2.34401-0.81249 4.46339-2.24536 6.34961-4.31836 3.10155-3.40904 4.65206-7.28414 4.65234-11.625-0.00029-7.74499-3.72178-12.8561-11.16406-15.33399l-26.56445-14.86718-38.11523-46.03125c-5.26766-6.19399-12.70649-10.06601-22.31446-11.61719-2.09117-0.30968-4.11563-0.48882-6.07617-0.53711z"/>
        </symbol>
        <symbol id="bed_and_breakfast">
            <title>bed_and_breakfast</title>
            <path d="m64.571 0.06355556c-41.335 0-64.571 21.371-64.571 65.036v450.123c0 40.844 20.895 62.229 62.192 62.229h452.024c41.307 0 62.229-20.315 62.229-62.229v-450.123c0-42.601-20.922-65.036-63.521-65.036-0.004 0-448.495-0.143-448.353 0z"/>
            <path opacity=".25" d="m287.78374 27.953167-258.15672 228.08455h51.631005v294.60312h154.89438v-173.86539h106.80297l0.00036 173.86539h151.35374v-294.60312h51.63135l-258.15708-228.08455z"  fill="#fff"/>
            <path
                fill="#fff"
                d="m287.78428 21.551415a6.4033087 6.4033087 0 0 0 -4.21484 1.669922l-0.0254-0.06641-258.15624 228.08399a6.4033087 6.4033087 0 0 0 4.238281 11.20117h45.228516v288.20117a6.4033087 6.4033087 0 0 0 6.404297 6.40235h154.89258a6.4033087 6.4033087 0 0 0 6.4043 -6.40235v-167.46289h93.99609l0.002 167.46289a6.4033087 6.4033087 0 0 0 6.40235 6.40235h151.35351a6.4033087 6.4033087 0 0 0 6.40235 -6.40235v-288.20117h45.22851a6.4033087 6.4033087 0 0 0 4.24024 -11.20117l-258.15826-228.08399v0.002a6.4033087 6.4033087 0 0 0 -4.23828 -1.605469zm-0.002 14.945313 241.24219 213.13867h-34.71485a6.4033087 6.4033087 0 0 0 -6.40234 6.40235v288.20117h-138.54883v-167.46289a6.4033087 6.4033087 0 0 0 -6.40234 -6.40235h-106.80469a6.4033087 6.4033087 0 0 0 -6.40235 6.40235v167.46289h-142.08789v-288.20117a6.4033087 6.4033087 0 0 0 -6.402343 -6.40235h-34.714844l241.23834-213.13867zm-2.63472 183.07813c-11.3438 0.00011-19.80472 2.36728-25.38281 7.10156-5.57815 4.73446-8.36722 10.75789-8.36719 18.07031-0.00003 3.46882 0.7031 6.87898 2.10938 10.23047 1.40622 3.35163 3.98433 7.30085 7.73437 11.84766-8.95316 3.60943-15.39845 8.02739-19.33593 13.2539-3.93751 5.2266-5.90627 10.76956-5.90626 16.62891 0 8.15626 3.35155 15.09376 10.05469 20.8125 6.70309 5.71875 16.92183 8.57812 30.65625 8.57812 8.76556 0 16.59369-1.03125 23.48438-3.09375 4.96867-1.5 9.93742-3.89062 14.90625-7.17187 2.39053 1.40625 5.09756 3.09375 8.12109 5.0625 3.02334 1.96875 5.94131 3.70312 8.75391 5.20312l15.39843-17.71875c-2.06261-1.17186-3.75012-2.17966-5.0625-3.02343l-10.75781-7.38282c1.96864-3.37497 3.49208-6.30465 4.57031-8.78906 1.07801-2.48434 2.20302-5.78902 3.375-9.91406l-22.35937-4.99219c-1.03134 3.23442-2.27352 6.30473-3.72656 9.21094-5.43758-4.31246-10.66414-8.97652-15.67969-13.99219 6.0468-3.98432 10.24211-6.98432 12.58594-9 2.34366-2.01556 4.34757-4.64056 6.01172-7.875 1.66397-3.2343 2.496-6.6093 2.49609-10.125-0.00009-6.28116-2.71884-11.67177-8.15625-16.17187-5.43758-4.49989-13.94539-6.74989-25.52344-6.75zm-161.22656 1.75781v103.07812h54.98438c2.34367 0 7.10148-0.46875 14.27343-1.40625 5.39054-0.70312 9.42178-1.82812 12.09375-3.375 4.3124-2.48437 7.71084-5.85936 10.19532-10.125 2.48426-4.26561 3.72646-9.07029 3.72656-14.41406-0.0001-6.56247-1.7462-12.01167-5.23828-16.34765-3.49228-4.33589-8.9415-7.39449-16.34766-9.17579 4.87491-1.68744 8.57803-3.98432 11.10938-6.89062 3.79676-4.35931 5.69521-9.58587 5.69531-15.67969-0.0001-7.26554-2.66025-13.35929-7.98047-18.28125-5.3204-4.92178-12.9493-7.38271-22.88672-7.38281h-59.625zm239.90625 0v103.07812h54.98437c2.34368 0 7.10149-0.46875 14.27344-1.40625 5.39054-0.70312 9.42178-1.82812 12.09375-3.375 4.3124-2.48437 7.71083-5.85936 10.19531-10.125 2.48427-4.26561 3.72647-9.07029 3.72657-14.41406-0.0001-6.56247-1.7462-12.01167-5.23828-16.34765-3.49228-4.33589-8.9415-7.39449-16.34766-9.17579 4.87491-1.68744 8.57803-3.98432 11.10937-6.89062 3.79677-4.35931 5.69522-9.58587 5.69532-15.67969-0.0001-7.26554-2.66025-13.35929-7.98047-18.28125-5.3204-4.92178-12.9493-7.38271-22.88672-7.38281h-59.625zm-77.48437 13.71094c2.95306 0.00009 5.27336 0.7618 6.96093 2.28515 1.68743 1.52352 2.53118 3.38681 2.53125 5.58985-0.00007 2.10946-1.00789 4.34773-3.02344 6.71484-2.01568 2.36726-4.87505 4.55866-8.57812 6.57422-5.1563-5.53118-7.73443-9.74993-7.73438-12.65625-0.00005-2.2968 0.91401-4.28897 2.74219-5.97656 1.82807-1.68741 4.19525-2.53116 7.10157-2.53125zm-130.28907 7.17187h14.0625c4.82806 0.00008 8.21478 0.84383 10.16016 2.53125 1.94525 1.68758 2.9179 4.03132 2.91797 7.03125-0.00007 3.23444-0.97272 5.7071-2.91797 7.41797-1.94538 1.711-5.4024 2.56648-10.37109 2.56641h-13.85157v-19.54688zm239.90625 0h14.0625c4.82806 0.00008 8.21478 0.84383 10.16016 2.53125 1.94525 1.68758 2.9179 4.03132 2.91797 7.03125-0.00007 3.23444-0.97272 5.7071-2.91797 7.41797-1.94538 1.711-5.40241 2.56648-10.3711 2.56641h-13.85156v-19.54688zm-121.92187 39.02344c9.51557 9.00003 17.32025 15.84377 23.41406 20.53125-6.37506 3.98439-12.11724 5.97657-17.22656 5.97656-4.73442 0.00001-8.57817-1.33592-11.53125-4.00781-2.95316-2.67186-4.42973-5.71873-4.42969-9.14063-0.00004-2.20309 0.64449-4.28903 1.93359-6.25781 1.28902-1.96871 3.90231-4.3359 7.83985-7.10156zm-117.98438 0.14062h16.17188c5.57806 0.00004 9.4804 0.92583 11.70703 2.77735 2.22649 1.8516 3.33976 4.30081 3.33984 7.34765-0.00008 3.28128-1.12508 5.89457-3.375 7.83985-2.25007 1.94534-6.11725 2.91799-11.60156 2.91797h-16.24219v-20.88282zm239.90625 0h16.17188c5.57806 0.00004 9.4804 0.92583 11.70703 2.77735 2.22649 1.8516 3.33976 4.30081 3.33984 7.34765-0.00008 3.28128-1.12508 5.89457-3.375 7.83985-2.25007 1.94534-6.11725 2.91799-11.60156 2.91797h-16.24219v-20.88282z"/>
        </symbol>
        <symbol id="bed_and_breakfast2">
            <title>bed_and_breakfast2</title>
            <path d="m64.571 0.06355556c-41.335 0-64.571 21.371-64.571 65.036v450.123c0 40.844 20.895 62.229 62.192 62.229h452.024c41.307 0 62.229-20.315 62.229-62.229v-450.123c0-42.601-20.922-65.036-63.521-65.036-0.004 0-448.495-0.143-448.353 0z"/>
            <path
                fill="#fff"
                d="m19.094111 208.21436h99.932659c16.65531 0.00017 29.44148 4.12474 38.35859 12.37373 8.91679 8.24932 13.37525 18.46254 13.37541 30.63973-0.00016 10.21337-3.18199 18.97318-9.54545 26.27947-4.24257 4.87101-10.44909 8.72062-18.61954 11.54882 12.41288 2.98549 21.54588 8.11174 27.399 15.37877 5.8528 7.2672 8.77929 16.40018 8.77947 27.39901-0.00018 8.95626-2.08211 17.009-6.24579 24.15823-4.16404 7.14931-9.85987 12.80586-17.08755 16.96971-4.47826 2.59261-11.23471 4.47812-20.26935 5.65657-12.02032 1.57125-19.99452 2.35689-23.92255 2.35689h-92.154899v-172.76093zm53.855232 67.76093h23.215476c8.327621 0.00011 14.121661-1.43367 17.382151-4.30134 3.26028-2.86744 4.89047-7.01167 4.89057-12.43266-0.0001-5.02794-1.63029-8.95608-4.89057-11.7845-3.26049-2.82816-8.93669-4.2423-17.02862-4.24243h-23.569007v32.76093zm0 67.87879h27.222197c9.19182 0.00004 15.6733-1.63014 19.44445-4.89058 3.77092-3.26031 5.65644-7.64023 5.65657-13.13972-0.00013-5.10656-1.86602-9.2115-5.59764-12.31482-3.73188-3.10318-10.27228-4.6548-19.62121-4.65487h-27.104367v34.99999zm261.68592-46.90235 37.47476 8.36701c-1.96428 6.91365-3.84981 12.45236-5.65657 16.61616-1.80715 4.16391-4.36045 9.07411-7.65993 14.73063l18.0303 12.37374c2.19958 1.41417 5.02786 3.10327 8.48484 5.06734l-25.80807 29.69697c-4.71398-2.51402-9.60456-5.42086-14.67174-8.72053-5.06749-3.29966-9.60453-6.12794-13.61109-8.48486-8.32786 5.49945-16.65558 9.50617-24.98317 12.02021-11.54893 3.45678-24.66901 5.18518-39.36025 5.18518-23.01916 0-40.14597-4.79236-51.38048-14.37709-11.2346-9.58473-16.85188-21.21212-16.85185-34.88217-0.00003-9.82038 3.29963-19.11048 9.89897-27.87036 6.5993-8.75974 17.40175-16.16434 32.40743-22.21382-6.28514-7.62054-10.60612-14.23949-12.96299-19.85689-2.35693-5.61716-3.53539-11.33266-3.53534-17.14646-0.00005-12.25577 4.67447-22.35115 14.02355-30.2862 9.349-7.93475 23.52968-11.90219 42.54211-11.90237 19.40503 0.00018 33.66428 3.77123 42.77777 11.31313 9.1132 7.54226 13.66988 16.57704 13.67003 27.1044-0.00015 5.89237-1.39465 11.54893-4.1835 16.96968-2.78914 5.42099-6.14773 9.82055-10.07576 13.19866-3.92829 3.37832-10.95972 8.40637-21.09427 15.08418 8.40616 8.40636 17.16598 16.22342 26.27947 23.45118 2.43532-4.87087 4.51723-10.01676 6.24578-15.43772zm-55.15151-30.28618c6.20641-3.37813 10.99878-7.05096 14.37711-11.01853 3.3781-3.96732 5.06723-7.71873 5.06735-11.25423-0.00012-3.69232-1.41427-6.81522-4.24243-9.36868-2.8284-2.55315-6.71729-3.82981-11.66667-3.82996-4.87104 0.00015-8.83848 1.4143-11.90236 4.24242-3.06406 2.82843-4.59605 6.16736-4.59597 10.01685-0.00008 4.87104 4.32091 11.94175 12.96297 21.21213zm-17.08754 41.95284c-6.5994 4.63531-10.97931 8.60277-13.13972 11.90236-2.16056 3.29971-3.24083 6.79579-3.24076 10.48821-0.00007 5.73518 2.4747 10.84179 7.42424 15.31988 4.94943 4.47814 11.39162 6.71717 19.3266 6.71716 8.56332 0.00001 18.18734-3.3389 28.87206-10.01682-10.21334-7.85631-23.29415-19.32655-39.24242-34.41079zm140.19097-100.40403h99.93267c16.65531 0.00017 29.44149 4.12474 38.35858 12.37373 8.91679 8.24932 13.37527 18.46254 13.37543 30.63973-0.00016 10.21337-3.18199 18.97318-9.54545 26.27947-4.24258 4.87101-10.44909 8.72062-18.61953 11.54882 12.41286 2.98549 21.54586 8.11174 27.39899 15.37877 5.85279 7.2672 8.77929 16.40018 8.77945 27.39901-0.00016 8.95626-2.08209 17.009-6.24577 24.15823-4.16405 7.14931-9.85988 12.80586-17.08756 16.96971-4.47827 2.59261-11.23469 4.47812-20.26934 5.65657-12.02033 1.57125-19.99452 2.35689-23.92257 2.35689h-92.1549v-172.76093zm53.85524 67.76093h23.21548c8.32763 0.00011 14.12166-1.43367 17.38216-4.30134 3.26027-2.86744 4.89045-7.01167 4.89057-12.43266-0.00012-5.02794-1.6303-8.95608-4.89057-11.7845-3.2605-2.82816-8.93669-4.2423-17.02862-4.24243h-23.56902v32.76093zm0 67.87879h27.22221c9.19182 0.00004 15.6733-1.63014 19.44446-4.89058 3.7709-3.26031 5.65642-7.64023 5.65656-13.13972-0.00014-5.10656-1.86602-9.2115-5.59765-12.31482-3.73188-3.10318-10.27226-4.6548-19.62121-4.65487h-27.10437v34.99999z"/>
        </symbol>
        <symbol id="camping">
            <title>camping</title>
            <path
                d="m64.969216 0.06383604c-41.589917 0-64.969216 21.465317-64.969216 65.323023v452.10953c0 41.02425 21.023862 62.50363 62.575544 62.50363h454.81168c41.56175 0 62.61277-20.40465 62.61277-62.50363v-452.10953c0-42.789011-21.05102-65.323023-63.91274-65.323023-0.004 0-451.26091-0.1436311-451.11803 0z"/>
            <path

                d="m261.21739 56.143808-23.39141 12.311911 36.21612 68.564941c-0.0263 0.054-0.0322 0.0686-0.059 0.12358-1.43799 2.95731-3.5862 7.22615-6.30426 12.53164-5.43613 10.61097-13.16952 25.41181-22.4108 42.94455-18.48256 35.06546-43.00979 81.08581-67.48983 126.84445-48.96011 91.5173-97.737742 182.00087-97.737742 182.00087l-10.505799 19.48797 94.734961-0.15694 23.63706 0.18244 0.11595-0.22167 203.84906-0.33743 0.2928 0.5591 92.34138-0.71211 21.87432-0.0353-0.0707-0.13144 0.71729-0.006-10.97353-19.33289-191.36434-362.31267 35.82112-67.552681-23.3698-12.349182-27.38072 51.637043-28.54213-54.040182zm28.81726 229.20044c21.9178 73.8212 67.85326 168.35687 88.22238 208.70218l-176.58822 0.29229c20.28818-40.16903 66.39194-134.98449 88.36584-208.99447z"
                fill="#fff"/>
        </symbol>
        <symbol id="caravan_park">
            <title>caravan_park</title>
            <path
                d="m64.969216 0.06383604c-41.589917 0-64.969216 21.465317-64.969216 65.323023v452.10953c0 41.02425 21.023862 62.50363 62.575544 62.50363h454.81168c41.56175 0 62.61277-20.40465 62.61277-62.50363v-452.10953c0-42.789011-21.05102-65.323023-63.91274-65.323023-0.004 0-451.26091-0.1436311-451.11803 0z"/>
            <path
                fill="#fff"
                d="m438.35512 249.78934c-0.00044 11.40411-5.51393 17.10605-16.54048 17.10586h-58.514c-11.03937 0.00019-16.55888-5.70175-16.55852-17.10586v-27.7295c-0.00036-11.01952 5.51915-16.5294 16.55852-16.52967h58.514c11.02655 0.00027 16.54004 5.51015 16.54048 16.52967v27.7295zm-166.66749 0.59416c-0.00028 11.00797-5.71819 16.51185-17.15376 16.51165h-126.47972c-11.03914 0.0002-16.55863-5.50368-16.55851-16.51165v-28.3237c-0.00012-11.01952 5.51937-16.52941 16.55851-16.52967h126.47972c11.43557 0.00026 17.15348 5.51015 17.15376 16.52967v28.3237zm259.47099 132.75947h-42.56876v-147.50653c-0.00049-22.81955-7.97912-42.09513-23.9359-57.82679-15.95773-15.73108-35.16777-23.59677-57.63015-23.59709h-276.60673c-22.85977 0.00032-42.169016 7.86601-57.927775 23.59709-15.758921 15.73166-23.638337 35.00724-23.638278 57.82679v104.43578c-0.000059 16.51775 5.910253 30.67659 17.730966 42.47655 11.820565 11.8001 26.004114 17.70013 42.550727 17.70006h95.1664c1.17827-16.91371 7.87621-31.27063 20.0939-43.07076 12.21723-11.79991 26.99603-17.69993 44.33645-17.70006 16.94303 0.00013 31.61961 5.90015 44.02979 17.70006 12.40954 11.80013 19.01129 25.95898 19.80529 42.47656h215.13456c-0.00057-11.00769-5.51405-16.51157-16.54049-16.51166zm-262.42915 41.28812c-5.5198 0.00006-10.24864-1.96561-14.18659-5.897-3.93847-3.9313-5.90758-8.65191-5.90731-14.16186-0.00027-5.89395 1.96884-10.71059 5.90731-14.44994 3.93795-3.7392 8.66679-5.60885 14.18659-5.60893 5.50719 0.00008 10.23304 1.86973 14.17755 5.60893 3.94394 3.73935 5.91604 8.55599 5.91634 14.44994-0.0003 5.50995-1.9724 10.23056-5.91634 14.16186-3.94451 3.93139-8.67036 5.89706-14.17755 5.897zm0-66.65882c-13.0114 0.00012-24.0474 4.52265-33.10804 13.56765-9.06112 9.04518-13.59156 20.05595-13.59133 33.03231-0.00023 12.59237 4.53021 23.41106 13.59133 32.45611 9.06064 9.04513 20.09664 13.56767 33.10804 13.56766 12.60198 0.00001 23.43656-4.52253 32.50376-13.56766 9.06658-9.04505 13.60003-19.86374 13.60035-32.45611-0.00032-12.97636-4.53377-23.98713-13.60035-33.03231-9.0672-9.045-19.90178-13.56753-32.50376-13.56765z"/>
        </symbol>
        <symbol id="chalet">
            <title>chalet</title>
            <path d="m64.571 0.06355556c-41.335 0-64.571 21.371-64.571 65.036v450.123c0 40.844 20.895 62.229 62.192 62.229h452.02401c41.307 0 62.229-20.315 62.229-62.229v-450.123c0-42.601-20.922-65.036-63.521-65.036-0.004 0-448.49501-0.143-448.35301 0z"/>
            <path
                opacity=".25"
                d="m401.45426 184.69592-7.4306 15.69324-5.98576 12.61614c-20.78097 43.7896-41.64557 87.56068-62.54087 131.28985-10.01018-13.67275-20.02434-27.32667-30.13521-40.92551l-7.22419-9.74416-6.39857 10.25702c-39.37851 62.63924-78.36927 125.5066-117.96076 187.9086l-7.84341 12.411 14.758 0.1024c123.63974 1.04221 247.27784 2.01799 370.91071 3.07711l13.20996 0.1024-5.67615-11.79557c-46.5924-98.52362-93.44952-196.89415-140.25255-295.29928l-7.4306-15.69324z"
                fill="#fff"/>
            <path
                opacity=".62000002"
                d="m401.45426 184.69592-7.4306 15.69324-5.98576 12.61614c-20.78097 43.7896-41.64557 87.56068-62.54087 131.28985-10.01018-13.67275-20.02434-27.32667-30.13521-40.92551l-7.22419-9.74416-6.39857 10.25702c-39.37851 62.63924-78.36927 125.5066-117.96076 187.9086l-7.84341 12.411 14.758 0.1024c123.63974 1.04221 247.27784 2.01799 370.91071 3.07711l13.20996 0.1024-5.67615-11.79557c-46.5924-98.52362-93.44952-196.89415-140.25255-295.29928l-7.4306-15.69324zm0 138.98262c2.50051 0.007 4.97008 1.21532 6.50177 3.17968 7.38466 9.24471 14.57213 16.80271 17.44127 17.94978 1.43457 0.57371 1.08427 0.66578 2.58007-0.30754 1.49579-0.97348 4.51598-4.11961 7.84341-10.56473 1.40293-2.68386 4.38778-4.45286 7.43059-4.41052 3.04279 0.0423 6.00053 1.89386 7.3274 4.61566l67.2882 141.54687c2.4522 5.01006-1.92855 11.86877-7.5338 11.79558l-304.03533-2.56442c-2.90309-0.0397-5.72341-1.67615-7.12099-4.20538-1.39745-2.52923-1.31769-5.85218 0.2064-8.30819l59.85761-95.49285c2.59707-4.16468 9.27579-4.96762 12.79714-1.53856 5.3355 5.25747 9.95495 8.04016 15.48041 8.41076s13.26662-1.68658 24.66546-10.05188c3.49592-2.61976 9.09628-1.78239 11.66191 1.74369l5.26334 7.17992 21.67258-45.54117c1.2675-2.75269 4.18016-4.71511 7.2242-4.8208 3.04403-0.10569 6.07595 1.64999 7.5338 4.30795 2.14477 3.86819 4.28128 6.02391 5.88255 6.97477 1.60128 0.95071 2.63592 1.12066 4.54093 0.71799 3.81001-0.80533 11.15699-5.99482 18.7829-17.02665 1.48463-2.16917 4.06883-3.55221 6.70818-3.58996z"
                fill="#fff"/>
            <path fill="#fff" d="m185.07684 69.967565-163.44541 140.3758h32.688862v210.56359h98.067475v-107.00635h67.6196l0.00022 107.00635h95.8258v-210.56359h32.68906l-163.44561-140.3758z" />
        </symbol>
        <symbol id="chalet2">
            <title>chalet2</title>
            <path d="m64.571 0.06355556c-41.335 0-64.571 21.371-64.571 65.036v450.123c0 40.844 20.895 62.229 62.192 62.229h452.024c41.307 0 62.229-20.315 62.229-62.229v-450.123c0-42.601-20.922-65.036-63.521-65.036-0.004 0-448.495-0.143-448.353 0z"/>
            <path

                fill="#fff"
                d="m184.40147 35.318994-162.44336 140.37501h32.488282v210.56445h97.466798v-107.00586h67.20508v107.00586h95.23828v-210.56445h32.48828l-162.44336-140.37501zm225.04883 263.20509-136.89649 237.10937 273.91797 0.21094-137.02148-237.32031z"/>
        </symbol>
        <symbol id="hostel">
            <title>hostel</title>
            <path d="m64.571 0.06355556c-41.335 0-64.571 21.371-64.571 65.036v450.123c0 40.844 20.895 62.229 62.192 62.229h452.024c41.307 0 62.229-20.315 62.229-62.229v-450.123c0-42.601-20.922-65.036-63.521-65.036-0.004 0-448.495-0.143-448.353 0z"/>
            <path
                fill="#fff"
                d="m45.688578 23.520165a17.916291 17.916291 0 0 0 -17.761719 18.052735l-3.197265 494.72852a17.916291 17.916291 0 1 0 35.828125 0.23047l0.224609-34.89453 453.57617 3.02539-0.18359 22.00781a17.916291 17.916291 0 1 0 35.82812 0.29883l3.19922-384.48633a17.916291 17.916291 0 0 0 -18.0332 -18.31641 17.916291 17.916291 0 0 0 -17.79493 18.01953l-0.75585 90.93165-454.08008-3.02735 1.216792-188.28516a17.916291 17.916291 0 0 0 -18.066406 -18.285155zm133.69922 39c-26.23785 0-50.48242 20.769438-50.48242 49.490235 0 28.7208 24.24457 49.52932 50.48242 49.5293 26.23786 0 50.48047-20.8085 50.48047-49.5293 0-28.720797-24.24261-49.490235-50.48047-49.490235zm79.88281 77.611335c-20.00615 0-36.65234 16.64619-36.65234 36.65234s16.64619 36.6543 36.65234 36.6543h169.36133c20.00615 0 36.65429-16.64815 36.65429-36.6543s-16.64814-36.65234-36.65429-36.65234h-169.36133zm-133.00391 32.5957c-10.00736 0-18.53515 8.5278-18.53515 18.53516s8.52779 18.5332 18.53515 18.5332h73.39649c10.00736 0 18.53515-8.52584 18.53515-18.5332s-8.52779-18.53516-18.53515-18.53516h-73.39649zm-63.960936 93.19141 454.01367 3.02734-1.66406 199.88867-453.64063-3.02539 1.291016-199.89062zm112.53515 31.04687c-26.23786 0-50.48047 20.76944-50.48047 49.49024s24.24261 49.52736 50.48047 49.52734c26.23786 0 50.48242-20.80654 50.48242-49.52734s-24.24456-49.49024-50.48242-49.49024zm79.88477 77.60938c-20.00615 0-36.6543 16.64815-36.6543 36.65429 0 20.00615 16.64815 36.6543 36.6543 36.6543h169.36133c20.00614 0 36.65429-16.64815 36.65429-36.6543 0-20.00614-16.64815-36.65429-36.65429-36.65429h-169.36133zm-133.00391 32.5957c-10.00736 0-18.53516 8.5278-18.53516 18.53516s8.5278 18.53515 18.53516 18.53515h73.39649c10.00735 0 18.53515-8.52779 18.53515-18.53515s-8.5278-18.53516-18.53515-18.53516h-73.39649z"/>
        </symbol>
        <symbol id="hotel">
            <title>hotel</title>
            <path d="m64.571 0.06355556c-41.335 0-64.571 21.371-64.571 65.036v450.123c0 40.844 20.895 62.229 62.192 62.229h452.024c41.307 0 62.229-20.315 62.229-62.229v-450.123c0-42.601-20.922-65.036-63.521-65.036-0.004 0-448.495-0.143-448.353 0z"/>
            <path opacity=".35096154" d="m293.15036 38.426679-187.04668 191.97616h37.40909v287.96408h112.22826v-146.34051h77.38377l0.00026 146.34051h109.6629v-287.96408h37.40934l-187.04694-191.97616z"  fill="#fff"/>
            <path
                fill="#fff"
                d="m168.12998 243.17447c-29.92046 0-57.5664 22.61028-57.5664 53.87695 0 31.26666 27.64594 53.91799 57.5664 53.91797 29.92046 0 57.56836-22.65131 57.56836-53.91797 0-31.26667-27.6479-53.87695-57.56836-53.87695zm-124.12304 34.15429-3.001954 234.15235 33.619141 0.43164 0.902344-70.38281 425.91797 2.83984-1.13672 57.99219 33.61523 0.66015 3.00196-153.10156-33.61524-0.6582-1.20508 61.49023-426.14648-2.8418 1.667969-130.15039-33.61914-0.43164zm211.9414 42.42383c-22.01752 0-40.34765 18.32818-40.34765 40.3457 0 22.01753 18.33013 40.34571 40.34765 40.34571h195.12696c22.01752 0 40.34765-18.32818 40.34765-40.34571 0-22.01752-18.33013-40.3457-40.34765-40.3457h-195.12696zm-150.85351 35.54297c-11.101384 0-20.562502 9.46112-20.562502 20.5625s9.461118 20.56445 20.562502 20.56445h84.05469c11.10138 0 20.56445-9.46307 20.56445-20.56445s-9.46307-20.5625-20.56445-20.5625h-84.05469z"/>
        </symbol>
        <symbol id="hotel2">
            <title>hotel2</title>
            <path d="m64.571 0.06355556c-41.335 0-64.571 21.371-64.571 65.036v450.123c0 40.844 20.895 62.229 62.192 62.229h452.024c41.307 0 62.229-20.315 62.229-62.229v-450.123c0-42.601-20.922-65.036-63.521-65.036-0.004 0-448.495-0.143-448.353 0z"/>
            <path
                fill="#fff"
                d="m160.2003 139.35025c-31.88425 0-61.34571 24.0933-61.34571 57.41211s29.46146 57.459 61.34571 57.45898c31.88424 0 61.34375-24.14017 61.34375-57.45898s-29.45951-57.41211-61.34375-57.41211zm-114.39453 33.375a17.916291 17.916291 0 0 0 -17.876958 17.93945l-3.199218 249.52148a17.916291 17.916291 0 1 0 35.826172 0.45899l0.960937-75.00195 453.87305 3.02539-1.21094 61.79883a17.916291 17.916291 0 1 0 35.82227 0.70312l3.19921-163.14844a17.916291 17.916291 0 0 0 -17.82619 -18.52148 17.916291 17.916291 0 0 0 -17.99609 17.81836l-1.28515 65.52539-454.11524-3.02735 1.777343-138.69336a17.916291 17.916291 0 0 0 -17.949208 -18.39843zm207.97461 63.14648c-23.46263 0-42.99415 19.53348-42.99415 42.9961 0 23.46261 19.53153 42.99414 42.99415 42.99414h207.93554c23.46262 0 42.99414-19.53153 42.99414-42.99414 0-23.46262-19.53152-42.9961-42.99414-42.9961h-207.93554zm-160.75391 37.87695c-11.830005 0-21.91211 10.08406-21.91211 21.91407 0 11.83 10.082105 21.91211 21.91211 21.91211h89.57226c11.83001 0 21.91407-10.08211 21.91407-21.91211 0-11.83001-10.08406-21.91406-21.91407-21.91407h-89.57226z"/>
        </symbol>
        <symbol id="motel">
            <title>motel</title>
            <path d="m64.571 0.06355556c-41.335 0-64.571 21.371-64.571 65.036v450.123c0 40.844 20.895 62.229 62.192 62.229h452.024c41.307 0 62.229-20.315 62.229-62.229v-450.123c0-42.601-20.922-65.036-63.521-65.036-0.004 0-448.495-0.143-448.353 0z"/>
            <path
                opacity=".2" fill="#fff"
                d="m29.161234 333.51431a5.4872335 5.4872335 0 0 0 -5.486328 5.48828v184.55664a5.4872335 5.4872335 0 0 0 5.486328 5.48828h519.81641a5.4872335 5.4872335 0 0 0 5.48828 -5.48828v-184.55664a5.4872335 5.4872335 0 0 0 -5.48828 -5.48828h-519.81641z"/>
            <path
                fill="#fff"
                d="m189.23936 39.338525c-24.74605 0-47.54688 18.708558-47.54688 44.449219 0 25.740666 22.80083 44.449226 47.54688 44.449226 24.74604 0 47.54687-18.70856 47.54687-44.449226 0-25.740661-22.80083-44.449219-47.54687-44.449219zm-88.60742 25.826172a13.876537 13.876537 0 0 0 -13.845706 13.894531l-2.476562 193.25977a13.876537 13.876537 0 1 0 27.748048 0.35547l0.74414-58.0918 351.53516 2.3457-0.93946 47.86328a13.876537 13.876537 0 1 0 27.74414 0.54493l2.47852-126.36329a13.876537 13.876537 0 0 0 -13.80664 -14.34375 13.876537 13.876537 0 0 0 -13.9375 13.80079l-0.9961 50.75-351.72265-2.34375 1.37695-107.42188a13.876537 13.876537 0 0 0 -13.90234 -14.25zm161.08203 48.908203c-18.17228 0-33.30078 15.12851-33.30078 33.30078 0 18.17229 15.1285 33.30079 33.30078 33.30079h161.05078c18.17228 0 33.29883-15.1285 33.29883-33.30079 0-18.17226-15.12655-33.30078-33.29883-33.30078h-161.05078zm-124.50781 29.33594c-9.16259 0-16.97071 7.81008-16.97071 16.97266s7.80812 16.97265 16.97071 16.97265h69.37695c9.16258 0 16.9707-7.81007 16.9707-16.97265s-7.80812-16.97266-16.9707-16.97266h-69.37695zm-117.21094 181.85156v20h537.06445v-20h-537.06445zm15.474609 92.26563v19.46875h38.933594v-19.46875h-38.933594zm77.867191 0v19.46875h38.93554v-19.46875h-38.93554zm77.86914 0v19.46875h38.93359v-19.46875h-38.93359zm77.86718 0v19.46875h38.9336v-19.46875h-38.9336zm77.86914 0v19.46875h38.9336v-19.46875h-38.9336zm77.86719 0v19.46875h38.9336v-19.46875h-38.9336zm77.86719 0v19.46875h38.93555v-19.46875h-38.93555zm-482.68164 95.73437v20h537.06445v-20h-537.06445z"/>
        </symbol>
        <symbol id="shelter">
            <title>shelter</title>
            <path d="m64.571 0.06355556c-41.335 0-64.571 21.371-64.571 65.036v450.123c0 40.844 20.895 62.229 62.192 62.229h452.024c41.307 0 62.229-20.315 62.229-62.229v-450.123c0-42.601-20.922-65.036-63.521-65.036-0.004 0-448.495-0.143-448.353 0z"/>
            <path
                fill="#fff"
                d="m524.26866 58.213525a8.948725 8.948725 0 0 0 -6.19922 2.59375l-54.37891 52.402345a8.948725 8.948725 0 1 0 12.41602 12.88672l54.38086-52.4043a8.948725 8.948725 0 0 0 -6.21875 -15.478515zm-113.36133 6.828125a8.948725 8.948725 0 0 0 -6.15039 2.707031l-73.49219 73.492189a8.948725 8.948725 0 1 0 12.6543 12.6543l73.49218-73.492192a8.948725 8.948725 0 0 0 -6.5039 -15.361328zm-196.40625 1.085937a8.948725 8.948725 0 0 0 -6.10938 2.800781l-43.17578 44.492192a8.948725 8.948725 0 1 0 12.84375 12.46289l43.17578-44.494144a8.948725 8.948725 0 0 0 -6.73437 -15.261719zm-94.81641 6.789063a8.948725 8.948725 0 0 0 -6.15039 2.707031l-59.652342 59.652349a8.948725 8.948725 0 1 0 12.654296 12.6543l59.652346-59.652352a8.948725 8.948725 0 0 0 -6.50391 -15.361328zm186.83203 36.86329a8.948725 8.948725 0 0 0 -6.15039 2.70703l-73.49414 73.49414a8.948725 8.948725 0 1 0 12.6543 12.65429l73.49219-73.49414a8.948725 8.948725 0 0 0 -6.50196 -15.36132zm-74.56445 14.91406a8.948725 8.948725 0 0 0 -6.15234 2.70703l-73.49219 73.49219a8.948725 8.948725 0 1 0 12.6543 12.65429l73.49218-73.49218a8.948725 8.948725 0 0 0 -6.50195 -15.36133zm-91.38867 16.82226a8.948725 8.948725 0 0 0 -6.15235 2.70703l-73.492183 73.49415a8.948725 8.948725 0 1 0 12.654297 12.65234l73.492186-73.49219a8.948725 8.948725 0 0 0 -6.50195 -15.36133zm383.70508 6.17578a8.948725 8.948725 0 0 0 -6.19922 2.59375l-54.37891 52.40235a8.948725 8.948725 0 1 0 12.41602 12.88476l54.38086-52.40234a8.948725 8.948725 0 0 0 -6.21875 -15.47852zm-83.53516 6.82813a8.948725 8.948725 0 0 0 -6.15039 2.70703l-73.49219 73.49219a8.948725 8.948725 0 1 0 12.6543 12.65429l73.49219-73.49218a8.948725 8.948725 0 0 0 -6.50391 -15.36133zm-81.48047 23.31055a8.948725 8.948725 0 0 0 -6.19922 2.59375l-36.58593 35.26757a8.948725 8.948725 0 0 0 -2.71485 5.0625l-25.14258-13.41015a10.001 10.001 0 0 0 -4.80664 -1.17578 10.001 10.001 0 0 0 -4.60547 1.17578l-223.69531 119.30469a10.001 10.001 0 0 0 -2.36914 15.89257l14.904297 14.91602a10.001 10.001 0 0 0 10.820312 2.20312l60.828121-24.58007v179.34961a10.001 10.001 0 0 0 10 10h29.82618a10.001 10.001 0 0 0 10 -10v-188.76758l94.30078-11.16016 94.48242 11.36914v188.5586a10.001 10.001 0 0 0 10 10h29.82617a10.001 10.001 0 0 0 10 -10v-178.93946l60.75977 24.50781a10.001 10.001 0 0 0 10.875 -2.26757l14.97851-15.25196a10.001 10.001 0 0 0 -2.42968 -15.83007l-96.0586-51.23047a8.948725 8.948725 0 0 0 0.0645 -0.0586l25.38086-23.40234a8.948725 8.948725 0 0 0 -5.875 -15.61133 8.948725 8.948725 0 0 0 -6.25586 2.45508l-25.38085 23.40234a8.948725 8.948725 0 0 0 -2.86329 5.25196l-72.60156-38.72071a8.948725 8.948725 0 0 0 0.17188 -0.16015l36.58593-35.26563a8.948725 8.948725 0 0 0 -6.2207 -15.47851zm166.93359 41.79101a8.948725 8.948725 0 0 0 -6.18359 2.63477l-56.35547 55.03711a8.948725 8.948725 0 1 0 12.50196 12.80468l56.35742-55.03906a8.948725 8.948725 0 0 0 -6.32032 -15.4375zm-415.44921 11.37305a8.948725 8.948725 0 0 0 -6.15235 2.70703l-57.673826 57.67578a8.948725 8.948725 0 1 0 12.654297 12.6543l57.673829-57.67578a8.948725 8.948725 0 0 0 -6.50195 -15.36133zm173.46289 254.21094c-28.06346 0.0105-56.11656 14.46186-64.97461 43.32812a5.0005 5.0005 0 0 0 4.78125 6.4668h120.45508a5.0005 5.0005 0 0 0 4.77734 -6.4707c-8.90126-28.9036-36.97561-43.33476-65.03906-43.32422z"/>
        </symbol>
        <symbol id="shelter2">
            <title>shelter2</title>
            <path d="m64.571 0.06355556c-41.335 0-64.571 21.371-64.571 65.036v450.123c0 40.844 20.895 62.229 62.192 62.229h452.024c41.307 0 62.229-20.315 62.229-62.229v-450.123c0-42.601-20.922-65.036-63.521-65.036-0.004 0-448.495-0.143-448.353 0z"/>
            <path
                fill="#fff"
                d="m368.5167 21.762353a9.6013924 9.6013924 0 0 0 -6.55468 3.003906l-46.32422 47.738281a9.6013924 9.6013924 0 1 0 13.77929 13.371094l46.32422-47.738281a9.6013924 9.6013924 0 0 0 -7.22461 -16.375zm-128.98242 10.847656a9.6013924 9.6013924 0 0 0 -6.59961 2.904297l-78.85351 78.853524a9.6013924 9.6013924 0 1 0 13.57617 13.57812l78.85351-78.853519a9.6013924 9.6013924 0 0 0 -6.97656 -16.482422zm-106.73437 29.986328a9.6013924 9.6013924 0 0 0 -6.59961 2.904297l-78.853519 78.851566a9.6013924 9.6013924 0 1 0 13.578125 13.57813l78.851564-78.853524a9.6013924 9.6013924 0 0 0 -6.97656 -16.480469zm411.6914 6.625a9.6013924 9.6013924 0 0 0 -6.65234 2.78125l-58.3457 56.224613a9.6013924 9.6013924 0 1 0 13.32421 13.82617l58.34571-56.224611a9.6013924 9.6013924 0 0 0 -6.67188 -16.607422zm-89.62695 7.326172a9.6013924 9.6013924 0 0 0 -6.59961 2.904297l-78.85352 78.851564a9.6013924 9.6013924 0 1 0 13.57618 13.57813l78.85351-78.853522a9.6013924 9.6013924 0 0 0 -6.97656 -16.480469zm-180.89648 17.095703a9.6013924 9.6013924 0 0 0 -6.59961 2.904297l-78.85352 78.853521a9.6013924 9.6013924 0 1 0 13.57813 13.57617l78.85156-78.85156a9.6013924 9.6013924 0 0 0 -6.97656 -16.482428zm78.28124 14.425788a9.6013924 9.6013924 0 0 0 -6.65039 2.7832l-39.2539 37.83789a9.6013924 9.6013924 0 1 0 13.32617 13.82422l39.25195-37.83984a9.6013924 9.6013924 0 0 0 -6.67383 -16.60547zm194.29883 38.32812a9.6013924 9.6013924 0 0 0 -6.63281 2.82617l-60.4668 59.05274a9.6013924 9.6013924 0 1 0 13.41407 13.73633l60.46875-59.05274a9.6013924 9.6013924 0 0 0 -6.78321 -16.5625zm-433.81445 26.30664a9.6013924 9.6013924 0 0 0 -6.59961 2.90625l-61.880859 61.88086a9.6013924 9.6013924 0 1 0 13.576172 13.57617l61.880857-61.88086a9.6013924 9.6013924 0 0 0 -6.97656 -16.48242zm332.51562 1.40235a9.6013924 9.6013924 0 0 0 -6.71289 2.63476l-27.23242 25.10938a9.6013924 9.6013924 0 1 0 13.01758 14.11523l27.23047-25.10937a9.6013924 9.6013924 0 0 0 -6.30274 -16.75zm-152.23828 19.70117a9.3620726 9.3620726 0 0 0 -4.31054 1.09961l-209.4043 111.68359a9.3620726 9.3620726 0 0 0 -2.216797 14.875l13.951172 13.96485a9.3620726 9.3620726 0 0 0 10.128905 2.0625l43.08399-17.41016v205.32422a9.8737118 9.8737118 0 0 0 9.87304 9.87305h26.89649a9.8737118 9.8737118 0 0 0 9.87304 -9.87305v-218.09961l102.13477-12.08789 100.75195 12.125v218.0625a9.8737118 9.8737118 0 0 0 9.87305 9.87305h26.89648a9.8737118 9.8737118 0 0 0 9.87305 -9.87305v-205.57617l44.57227 17.97851a9.3620726 9.3620726 0 0 0 10.18164 -2.12305l14.01953-14.27734a9.3620726 9.3620726 0 0 0 -2.27344 -14.81836l-209.4043-111.68359a9.3620726 9.3620726 0 0 0 -4.5 -1.09961z"/>
        </symbol>
        <symbol id="youth_hostel">
            <title>youth_hostel</title>
            <path d="m64.571 0.06355556c-41.335 0-64.571 21.371-64.571 65.036v450.123c0 40.844 20.895 62.229 62.192 62.229h452.024c41.307 0 62.229-20.315 62.229-62.229v-450.123c0-42.601-20.922-65.036-63.521-65.036-0.004 0-448.495-0.143-448.353 0z"/>
            <path opacity=".35096154" d="m370.47738 63.96724-187.04668 191.97616h37.40909v247.96408h112.22826v-146.34051h77.38377l0.00026 146.34051h109.6629v-247.96408h37.40934l-187.04694-191.97616z"  fill="#fff"/>
            <path
                fill="#fff"
                d="m370.4707 58.966797a5.0005 5.0005 0 0 0 -3.57422 1.509765l-170.28906 174.77735-56.22265-121.09766a2.1293943 2.1293943 0 0 0 -2.04688 -1.22656 2.1293943 2.1293943 0 0 0 -0.0215 0 2.1293943 2.1293943 0 0 0 -0.19141 -0.004 2.1293943 2.1293943 0 0 0 -1.86914 1.23242l-88.892559 191.75986a2.1293943 2.1293943 0 0 0 1.931641 3.02344h15.957031l-29.400391 53.40039a2.1293943 2.1293943 0 0 0 1.865235 3.15625h19.378906l-35.041015 57.98437a2.1293943 2.1293943 0 0 0 2.138671 3.20703l89.908201-13.47265v95.73437a2.1293943 2.1293943 0 0 0 2.12891 2.13086h21.95703a2.1293943 2.1293943 0 0 0 0.11328 -0.006 2.1293943 2.1293943 0 0 0 0.002 0 2.1293943 2.1293943 0 0 0 0.15039 0.006h21.95704a2.1293943 2.1293943 0 0 0 2.13086 -2.13086v-95.73633l53.29882 7.97657v82.71484a5.0005 5.0005 0 0 0 5 5h112.22852a5.0005 5.0005 0 0 0 5 -5v-141.33984h67.38476v141.33984a5.0005 5.0005 0 0 0 5 5h109.66211a5.0005 5.0005 0 0 0 5 -5v-242.96289h32.41016a5.0005 5.0005 0 0 0 3.58008 -8.49024l-187.04693-191.97656a5.0005 5.0005 0 0 0 -3.58789 -1.509765zm0.008 12.164062 175.19531 179.8125h-25.5586a5.0005 5.0005 0 0 0 -5 5v242.96289h-99.66211v-141.33984a5.0005 5.0005 0 0 0 -5 -5h-77.38476a5.0005 5.0005 0 0 0 -5 5v141.33984h-102.22852v-76.21875l26.74219 4.00195a2.1293943 2.1293943 0 0 0 2.13672 -3.20703l-28.87891-47.78711v-10.19726h13.08399a2.1293943 2.1293943 0 0 0 1.86523 -3.15625l-14.94922-27.15235v-26.24804h1.64063a2.1293943 2.1293943 0 0 0 1.93164 -3.02539l-3.57227-7.69532v-42.27734a5.0005 5.0005 0 0 0 -5 -5h-16.94922l-2.77734-5.98242 169.36506-173.83008zm-161.9455 189.8125h7.30664v15.73828l-7.30664-15.73828zm2.85547 47.99805h4.45117v8.08398l-4.45117-8.08398z"/>
        </symbol>
        <symbol id="alpinehut">
            <title>alpinehut</title>
            <path
                d="m267.98246 0.00062008874a11.473319 11.473319 0 0 0 -5.2832 1.347656l-256.62695 136.86914a11.473319 11.473319 0 0 0 -2.716797 18.23047l17.097656 17.11328a11.473319 11.473319 0 0 0 12.414062 2.52735l19.148438-7.73828v287.45507a12.58387 12.58387 0 0 0 12.583984 12.58204h31.996097a12.58387 12.58387 0 0 0 12.582031 -12.58204v-308.13086a12.58387 12.58387 0 0 0 -0.22461 -2.33203l7.83593-3.16601 151.20704-17.89453 150.87109 18.1582 5.52539 2.22852a12.58387 12.58387 0 0 0 -0.37695 3.00585v308.13086a12.58387 12.58387 0 0 0 12.58398 12.58204h31.9961a12.58387 12.58387 0 0 0 12.58203 -12.58204v-288.23242l22.07421 8.9043a11.473319 11.473319 0 0 0 12.47657 -2.60156l17.18359-17.49805a11.473319 11.473319 0 0 0 -2.78711 -18.16016l-256.62695-136.86914a11.473319 11.473319 0 0 0 -5.51563 -1.3476599zm28.92774 167.57227c-8.68156 0.00033-16.04515 3.10018-22.08789 9.29883-6.04311 6.19928-9.0646 13.48254-9.06446 21.85156-0.00014 8.67222 3.02135 16.02962 9.06446 22.07227 6.04274 6.0432 13.40633 9.06471 22.08789 9.06445 8.36914 0.00026 15.64929-3.02125 21.84375-9.06445 6.19403-6.04265 9.29276-13.40005 9.29297-22.07227-0.00021-8.36902-3.09894-15.65228-9.29297-21.85156-6.19446-6.19865-13.47461-9.2985-21.84375-9.29883zm-85.82031 44.76953c-2.71148 0.0266-4.94005 1.68651-6.6836 4.97852l-46.48437 79.94922c-3.09243 5.26766-2.00579 9.29438 3.26172 12.08398l14.86718 8.82422c5.26738 3.10201 9.29608 2.01961 12.08594-3.24805l46.48438-79.94921c3.10172-5.2672 2.01929-9.29591-3.24805-12.08594l-14.88086-8.83594c-1.97534-1.15954-3.77546-1.73278-5.40234-1.7168zm60.67773 21.16602c-13.72378-0.33806-24.24727 5.72743-31.57031 18.19727l-42.30078 72.98437c-2.78987 4.65295-4.02895 10.38262-3.7168 17.19141l1.39062 92.50195-32.07421 68.79883c-1.23891 2.78975-2.00993 5.11126-2.3125 6.96484-0.93628 5.89158 0.30168 11.08412 3.71093 15.57617 3.40914 4.49195 8.0595 7.20631 13.95118 8.14258 9.91071 1.54142 16.87948-1.86869 20.9082-10.22851l35.33594-75.3086c1.2387-2.78973 1.8573-5.73178 1.85742-8.82422l-0.4668-57.17968 35.84375 48.42578 10.36914 85.14648c1.24812 9.29613 6.82728 14.71637 16.73828 16.25781 6.81819 0.93625 12.78288-0.99863 17.89453-5.80273 5.11119-4.80406 7.2039-10.61515 6.27735-17.43359l-12.24024-96.75196c-1.23906-7.13036-5.56199-11.4446-9.6875-17.19726l-31.73242-44.25 30.68164-53.44922 15.33594 19.51758c1.23864 1.86318 3.10053 3.25893 5.58789 4.18554l30.58398 14.85352v179.92969a6.4341765 6.4341765 0 1 0 12.86719 0v-177.91797c2.34401-0.81249 4.46339-2.24536 6.34961-4.31836 3.10155-3.40904 4.65206-7.28414 4.65234-11.625-0.00029-7.74499-3.72178-12.8561-11.16406-15.33399l-26.56445-14.86718-38.11523-46.03125c-5.26766-6.19399-12.70649-10.06601-22.31446-11.61719-2.09117-0.30968-4.11563-0.48882-6.07617-0.53711z"/>
        </symbol>
        <symbol id="bed_and_breakfast">
            <title>bed_and_breakfast</title>
            <path opacity=".25" d="m264.55863 6.401752-258.15672 228.08455h51.631004v294.60312h154.89439v-173.86538h106.80297l0.00036 173.86538h151.35374v-294.60311h51.63135l-258.15709-228.08456z"/>
            <path
                d="m264.55917 0a6.4033087 6.4033087 0 0 0 -4.21484 1.669922l-0.0254-0.06641-258.15624 228.08399a6.4033087 6.4033087 0 0 0 4.238281 11.20117h45.228516v288.20117a6.4033087 6.4033087 0 0 0 6.404297 6.40235h154.89258a6.4033087 6.4033087 0 0 0 6.4043 -6.40235v-167.46289h93.99609l0.002 167.46289a6.4033087 6.4033087 0 0 0 6.40235 6.40235h151.35351a6.4033087 6.4033087 0 0 0 6.40235 -6.40235v-288.20117h45.22851a6.4033087 6.4033087 0 0 0 4.24024 -11.20117l-258.15826-228.08399v0.002a6.4033087 6.4033087 0 0 0 -4.23828 -1.605467zm-0.002 14.945313 241.24219 213.13867h-34.71485a6.4033087 6.4033087 0 0 0 -6.40234 6.40235v288.20117h-138.54883v-167.46289a6.4033087 6.4033087 0 0 0 -6.40234 -6.40235h-106.80469a6.4033087 6.4033087 0 0 0 -6.40235 6.40235v167.46289h-142.0879v-288.20117a6.4033087 6.4033087 0 0 0 -6.402343 -6.40235h-34.714844l241.23835-213.13867zm-2.63472 183.07813c-11.3438 0.00011-19.80472 2.36728-25.38281 7.10156-5.57815 4.73446-8.36722 10.75789-8.36719 18.07031-0.00003 3.46882 0.7031 6.87898 2.10938 10.23047 1.40622 3.35164 3.98433 7.30085 7.73437 11.84766-8.95316 3.60943-15.39845 8.02739-19.33593 13.2539-3.93751 5.2266-5.90627 10.76956-5.90626 16.62891 0 8.15626 3.35155 15.09376 10.05469 20.8125 6.70309 5.71875 16.92183 8.57812 30.65625 8.57812 8.76556 0 16.59369-1.03125 23.48438-3.09375 4.96867-1.5 9.93742-3.89062 14.90625-7.17187 2.39053 1.40625 5.09756 3.09375 8.12109 5.0625 3.02334 1.96875 5.94131 3.70312 8.75391 5.20312l15.39843-17.71875c-2.06261-1.17185-3.75012-2.17966-5.0625-3.02343l-10.75781-7.38282c1.96864-3.37497 3.49208-6.30464 4.57031-8.78906 1.07801-2.48433 2.20302-5.78902 3.375-9.91406l-22.35937-4.99219c-1.03134 3.23442-2.27352 6.30473-3.72656 9.21094-5.43758-4.31246-10.66414-8.97652-15.67969-13.99219 6.0468-3.98432 10.24211-6.98432 12.58594-9 2.34366-2.01556 4.34757-4.64056 6.01172-7.875 1.66397-3.2343 2.496-6.6093 2.49609-10.125-0.00009-6.28116-2.71884-11.67177-8.15625-16.17187-5.43758-4.49989-13.94539-6.74989-25.52344-6.75zm-161.22656 1.75781v103.07812h54.98438c2.34367 0 7.10148-0.46875 14.27343-1.40625 5.39054-0.70312 9.42178-1.82812 12.09375-3.375 4.3124-2.48437 7.71084-5.85935 10.19532-10.125 2.48426-4.2656 3.72646-9.07029 3.72656-14.41406-0.0001-6.56247-1.7462-12.01166-5.23828-16.34765-3.49228-4.33589-8.9415-7.39449-16.34766-9.17579 4.87491-1.68743 8.57803-3.98432 11.10938-6.89062 3.79676-4.35931 5.69521-9.58587 5.69531-15.67969-0.0001-7.26554-2.66025-13.35929-7.98047-18.28125-5.3204-4.92178-12.9493-7.38271-22.88672-7.38281h-59.625zm239.90625 0v103.07812h54.98437c2.34368 0 7.10149-0.46875 14.27344-1.40625 5.39054-0.70312 9.42178-1.82812 12.09375-3.375 4.3124-2.48437 7.71083-5.85935 10.19531-10.125 2.48427-4.2656 3.72647-9.07029 3.72657-14.41406-0.0001-6.56247-1.7462-12.01166-5.23828-16.34765-3.49228-4.33589-8.9415-7.39449-16.34766-9.17579 4.87491-1.68743 8.57803-3.98432 11.10937-6.89062 3.79677-4.35931 5.69522-9.58587 5.69532-15.67969-0.0001-7.26554-2.66025-13.35929-7.98047-18.28125-5.3204-4.92178-12.9493-7.38271-22.88672-7.38281h-59.625zm-77.48437 13.71094c2.95306 0.00009 5.27336 0.7618 6.96093 2.28515 1.68743 1.52352 2.53118 3.38681 2.53125 5.58985-0.00007 2.10946-1.00789 4.34773-3.02344 6.71484-2.01568 2.36726-4.87505 4.55866-8.57812 6.57422-5.1563-5.53118-7.73443-9.74993-7.73438-12.65625-0.00005-2.2968 0.91401-4.28897 2.74219-5.97656 1.82807-1.68741 4.19525-2.53116 7.10157-2.53125zm-130.28907 7.17187h14.0625c4.82806 0.00008 8.21478 0.84383 10.16016 2.53125 1.94525 1.68758 2.9179 4.03132 2.91797 7.03125-0.00007 3.23444-0.97272 5.70711-2.91797 7.41798-1.94538 1.711-5.4024 2.56648-10.37109 2.56641h-13.85157v-19.54688zm239.90625 0h14.0625c4.82806 0.00008 8.21478 0.84383 10.16016 2.53125 1.94525 1.68758 2.9179 4.03132 2.91797 7.03125-0.00007 3.23444-0.97272 5.70711-2.91797 7.41798-1.94538 1.711-5.40241 2.56648-10.3711 2.56641h-13.85156v-19.54688zm-121.92187 39.02344c9.51557 9.00003 17.32025 15.84377 23.41406 20.53125-6.37506 3.98439-12.11724 5.97657-17.22656 5.97656-4.73442 0.00001-8.57817-1.33592-11.53125-4.00781-2.95316-2.67186-4.42973-5.71873-4.42969-9.14063-0.00004-2.20308 0.64449-4.28903 1.93359-6.25781 1.28902-1.96871 3.90231-4.33589 7.83985-7.10156zm-117.98438 0.14062h16.17188c5.57806 0.00005 9.4804 0.92584 11.70703 2.77736 2.22649 1.8516 3.33976 4.30081 3.33984 7.34764-0.00008 3.28128-1.12508 5.89457-3.375 7.83986-2.25007 1.94533-6.11725 2.91798-11.60156 2.91797h-16.24219v-20.88282zm239.90625 0h16.17188c5.57806 0.00005 9.4804 0.92584 11.70703 2.77736 2.22649 1.8516 3.33976 4.30081 3.33984 7.34764-0.00008 3.28128-1.12508 5.89457-3.375 7.83986-2.25007 1.94533-6.11725 2.91798-11.60156 2.91797h-16.24219v-20.88282z"/>
        </symbol>
        <symbol id="bed_and_breakfast2">
            <title>bed_and_breakfast2</title>
            <path
                d="m0 2.94614h99.932659c16.655311 0.00017 29.441481 4.12474 38.358591 12.37373 8.91679 8.24932 13.37525 18.46254 13.37541 30.63973-0.00016 10.21337-3.18199 18.97318-9.54545 26.27947-4.24257 4.87101-10.44909 8.72062-18.61954 11.54882 12.41288 2.98549 21.54588 8.11174 27.399 15.37877 5.8528 7.2672 8.77929 16.40018 8.77947 27.39901-0.00018 8.95626-2.08211 17.009-6.24579 24.15823-4.16404 7.14931-9.85987 12.80586-17.08755 16.96971-4.47826 2.59261-11.23471 4.47812-20.26935 5.65657-12.02032 1.57125-19.994521 2.35689-23.922551 2.35689h-92.154899v-172.76093zm53.855232 67.76093h23.215476c8.327621 0.00011 14.121661-1.43367 17.382151-4.30134 3.26028-2.86744 4.89047-7.01167 4.89057-12.43266-0.0001-5.02794-1.63029-8.95608-4.89057-11.7845-3.26049-2.82816-8.93669-4.2423-17.02862-4.24243h-23.569007v32.76093zm0 67.87879h27.222197c9.19182 0.00004 15.6733-1.63014 19.444451-4.89058 3.77092-3.26031 5.65644-7.64023 5.65657-13.13972-0.00013-5.10656-1.86602-9.2115-5.59764-12.31482-3.731881-3.10318-10.272281-4.6548-19.621211-4.65487h-27.104367v34.99999zm261.68592-46.90235 37.47476 8.36701c-1.96428 6.91365-3.84981 12.45236-5.65657 16.61616-1.80715 4.16391-4.36045 9.07411-7.65993 14.73063l18.0303 12.37374c2.19958 1.41417 5.02786 3.10327 8.48484 5.06734l-25.80807 29.69697c-4.71398-2.51402-9.60456-5.42086-14.67174-8.72053-5.06749-3.29966-9.60453-6.12794-13.61109-8.48486-8.32786 5.49945-16.65558 9.50617-24.98317 12.02021-11.54893 3.45678-24.66901 5.18518-39.36025 5.18518-23.01916 0-40.14597-4.79236-51.38048-14.37709-11.2346-9.58473-16.85188-21.21212-16.85185-34.88217-0.00003-9.82038 3.29963-19.11048 9.89897-27.87036 6.5993-8.75974 17.40175-16.16434 32.40743-22.21382-6.28514-7.62054-10.60612-14.23949-12.96299-19.85689-2.35693-5.61716-3.53539-11.33266-3.53534-17.14646-0.00005-12.25577 4.67447-22.35115 14.02355-30.2862 9.349-7.93475 23.52968-11.90219 42.54211-11.90237 19.40503 0.00018 33.66428 3.77123 42.77777 11.31313 9.1132 7.54226 13.66988 16.57704 13.67003 27.1044-0.00015 5.89237-1.39465 11.54893-4.1835 16.96968-2.78914 5.42099-6.14773 9.82055-10.07576 13.19866-3.92829 3.37832-10.95972 8.40637-21.09427 15.08418 8.40616 8.40636 17.16598 16.22342 26.27947 23.45118 2.43532-4.87087 4.51723-10.01676 6.24578-15.43772zm-55.15151-30.28618c6.20641-3.37813 10.99878-7.05096 14.37711-11.01853 3.3781-3.96732 5.06723-7.71873 5.06735-11.25423-0.00012-3.69232-1.41427-6.81522-4.24243-9.36868-2.8284-2.55315-6.71729-3.82981-11.66667-3.82996-4.87104 0.00015-8.83848 1.4143-11.90236 4.24242-3.06406 2.82843-4.59605 6.16736-4.59597 10.01685-0.00008 4.87104 4.32091 11.94175 12.96297 21.21213zm-17.08754 41.95284c-6.5994 4.63531-10.97931 8.60277-13.13972 11.90236-2.16056 3.29971-3.24083 6.79579-3.24076 10.48821-0.00007 5.73518 2.4747 10.84179 7.42424 15.31988 4.94943 4.47814 11.39162 6.71717 19.3266 6.71716 8.56332 0.00001 18.18734-3.3389 28.87206-10.01682-10.21334-7.85631-23.29415-19.32655-39.24242-34.41079zm140.19097-100.40403h99.93267c16.65531 0.00017 29.44149 4.12474 38.35858 12.37373 8.91679 8.24932 13.37527 18.46254 13.37543 30.63973-0.00016 10.21337-3.18199 18.97318-9.54545 26.27947-4.24258 4.87101-10.44909 8.72062-18.61953 11.54882 12.41286 2.98549 21.54586 8.11174 27.39899 15.37877 5.85279 7.2672 8.77929 16.40018 8.77945 27.39901-0.00016 8.95626-2.08209 17.009-6.24577 24.15823-4.16405 7.14931-9.85988 12.80586-17.08756 16.96971-4.47827 2.59261-11.23469 4.47812-20.26934 5.65657-12.02033 1.57125-19.99452 2.35689-23.92257 2.35689h-92.1549v-172.76093zm53.85524 67.76093h23.21548c8.32763 0.00011 14.12166-1.43367 17.38216-4.30134 3.26027-2.86744 4.89045-7.01167 4.89057-12.43266-0.00012-5.02794-1.6303-8.95608-4.89057-11.7845-3.2605-2.82816-8.93669-4.2423-17.02862-4.24243h-23.56902v32.76093zm0 67.87879h27.22221c9.19182 0.00004 15.6733-1.63014 19.44446-4.89058 3.7709-3.26031 5.65642-7.64023 5.65656-13.13972-0.00014-5.10656-1.86602-9.2115-5.59765-12.31482-3.73188-3.10318-10.27226-4.6548-19.62121-4.65487h-27.10437v34.99999z"/>
        </symbol>
        <symbol id="camping">
            <title>camping</title>
            <path
                d="m191.68272 0-23.39141 12.311911 36.21612 68.564941c-0.0263 0.054-0.0322 0.0686-0.059 0.12358-1.43799 2.95731-3.5862 7.22615-6.30426 12.53164-5.43613 10.610968-13.16952 25.411808-22.4108 42.944548-18.48256 35.06546-43.00979 81.08581-67.48983 126.84445-48.960109 91.5173-97.737741 182.00087-97.737741 182.00087l-10.5058 19.48797 94.734961-0.15694 23.637059 0.18244 0.11595-0.22167 203.84906-0.33743 0.2928 0.5591 92.34138-0.71211 21.87432-0.0353-0.0707-0.13144 0.71729-0.006-10.97353-19.33289-191.36434-362.31267 35.82112-67.552679-23.3698-12.349182-27.38072 51.637043-28.54213-54.040182zm28.81726 229.20044c21.9178 73.8212 67.85326 168.35687 88.22238 208.70218l-176.58822 0.29229c20.28818-40.16903 66.39194-134.98449 88.36584-208.99447z"/>
        </symbol>
        <symbol id="caravan_park">
            <title>caravan_park</title>
            <path
                d="m389.50409 95.57678c-0.00044 11.40411-5.51393 17.10605-16.54048 17.10586h-58.514c-11.03937 0.00019-16.55888-5.70175-16.55852-17.10586v-27.7295c-0.00036-11.01952 5.51915-16.5294 16.55852-16.52967h58.514c11.02655 0.00027 16.54004 5.51015 16.54048 16.52967v27.7295zm-166.66749 0.59416c-0.00028 11.00797-5.71819 16.51185-17.15376 16.51165h-126.47972c-11.03914 0.0002-16.55863-5.50368-16.55851-16.51165v-28.3237c-0.00012-11.01952 5.51937-16.52941 16.55851-16.52967h126.47972c11.43557 0.00026 17.15348 5.51015 17.15376 16.52967v28.3237zm259.47099 132.75947h-42.56876v-147.50653c-0.00049-22.81955-7.97912-42.09513-23.9359-57.82679-15.95773-15.73108-35.16777-23.59677-57.63015-23.59709h-276.60673c-22.859767 0.00032-42.169013 7.86601-57.927772 23.59709-15.758921 15.73166-23.638337 35.00724-23.638278 57.82679v104.43578c-0.000058999558 16.51775 5.910253 30.67659 17.730966 42.47655 11.820565 11.8001 26.004114 17.70013 42.550727 17.70006h95.166397c1.17827-16.91371 7.87621-31.27063 20.0939-43.07076 12.21723-11.79991 26.99603-17.69993 44.33645-17.70006 16.94303 0.00013 31.61961 5.90015 44.02979 17.70006 12.40954 11.80013 19.01129 25.95898 19.80529 42.47656h215.13456c-0.00057-11.00769-5.51405-16.51157-16.54049-16.51166zm-262.42915 41.28812c-5.5198 0.00006-10.24864-1.96561-14.18659-5.897-3.93847-3.9313-5.90758-8.65191-5.90731-14.16186-0.00027-5.89395 1.96884-10.71059 5.90731-14.44994 3.93795-3.7392 8.66679-5.60885 14.18659-5.60893 5.50719 0.00008 10.23304 1.86973 14.17755 5.60893 3.94394 3.73935 5.91604 8.55599 5.91634 14.44994-0.0003 5.50995-1.9724 10.23056-5.91634 14.16186-3.94451 3.93139-8.67036 5.89706-14.17755 5.897zm0-66.65882c-13.0114 0.00012-24.0474 4.52265-33.10804 13.56765-9.06112 9.04518-13.59156 20.05595-13.59133 33.03231-0.00023 12.59237 4.53021 23.41106 13.59133 32.45611 9.06064 9.04513 20.09664 13.56767 33.10804 13.56766 12.60198 0.00001 23.43656-4.52253 32.50376-13.56766 9.06658-9.04505 13.60003-19.86374 13.60035-32.45611-0.00032-12.97636-4.53377-23.98713-13.60035-33.03231-9.0672-9.045-19.90178-13.56753-32.50376-13.56765z"/>
        </symbol>
        <symbol id="chalet">
            <title>chalet</title>
            <path
                opacity=".25"
                d="m379.82283 114.72836-7.4306 15.69324-5.98576 12.61614c-20.78097 43.7896-41.64557 87.56068-62.54087 131.28985-10.01018-13.67275-20.02434-27.32667-30.13521-40.92551l-7.22419-9.74416-6.39857 10.25702c-39.37851 62.63924-78.36927 125.5066-117.96076 187.9086l-7.84341 12.411 14.758 0.1024c123.63974 1.04221 247.27784 2.01799 370.91071 3.07711l13.20996 0.1024-5.67615-11.79557c-46.5924-98.52362-93.44952-196.89415-140.25255-295.29928l-7.4306-15.69324z"/>
            <path
                opacity=".62000002"
                d="m379.82283 114.72836-7.4306 15.69324-5.98576 12.61614c-20.78097 43.7896-41.64557 87.56068-62.54087 131.28985-10.01018-13.67275-20.02434-27.32667-30.13521-40.92551l-7.22419-9.74416-6.39857 10.25702c-39.37851 62.63924-78.36927 125.5066-117.96076 187.9086l-7.84341 12.411 14.758 0.1024c123.63974 1.04221 247.27784 2.01799 370.91071 3.07711l13.20996 0.1024-5.67615-11.79557c-46.5924-98.52362-93.44952-196.89415-140.25255-295.29928l-7.4306-15.69324zm0 138.98262c2.50051 0.007 4.97008 1.21532 6.50177 3.17968 7.38466 9.24471 14.57213 16.80271 17.44127 17.94978 1.43457 0.57371 1.08427 0.66578 2.58007-0.30754 1.49579-0.97348 4.51598-4.11961 7.84341-10.56473 1.40293-2.68386 4.38778-4.45286 7.43059-4.41052 3.04279 0.0423 6.00053 1.89386 7.3274 4.61566l67.2882 141.54687c2.4522 5.01006-1.92855 11.86877-7.5338 11.79558l-304.03533-2.56442c-2.90309-0.0397-5.72341-1.67615-7.12099-4.20538-1.39745-2.52923-1.31769-5.85218 0.2064-8.30819l59.85761-95.49285c2.59707-4.16468 9.27579-4.96762 12.79714-1.53856 5.3355 5.25747 9.95495 8.04016 15.48041 8.41075 5.52546 0.37061 13.26662-1.68658 24.66546-10.05187 3.49592-2.61976 9.09628-1.7824 11.66191 1.74369l5.26334 7.17992 21.67258-45.54118c1.2675-2.75268 4.18016-4.71511 7.2242-4.8208 3.04403-0.10569 6.07595 1.64999 7.5338 4.30795 2.14477 3.86819 4.28128 6.02391 5.88255 6.97477 1.60128 0.95071 2.63592 1.12066 4.54093 0.71799 3.81001-0.80533 11.15699-5.99482 18.7829-17.02665 1.48463-2.16917 4.06883-3.55221 6.70818-3.58996z"/>
            <path d="m163.44541 0-163.44541 140.3758h32.688862v210.5636h98.067478v-107.00635h67.6196l0.00022 107.00635h95.8258v-210.56359h32.68906l-163.44561-140.37581z"/>
        </symbol>
        <symbol id="chalet2">
            <title>chalet2</title>
            <path d="m162.44336 0-162.44336 140.37501h32.488282v210.56445h97.466798v-107.00586h67.20508v107.00586h95.23828v-210.56445h32.48828l-162.44336-140.37501zm225.04883 263.20509-136.89649 237.10937 273.91797 0.21094-137.02148-237.32031z"/>
        </symbol>
        <symbol id="hostel">
            <title>hostel</title>
            <path
                d="m20.962872 0.00066123333a17.916291 17.916291 0 0 0 -17.761719 18.052735l-3.1972648 494.72852a17.916291 17.916291 0 1 0 35.828125 0.23047l0.224609-34.89453 453.57617 3.02539-0.18359 22.00781a17.916291 17.916291 0 1 0 35.82812 0.29883l3.19922-384.48633a17.916291 17.916291 0 0 0 -18.0332 -18.31641 17.916291 17.916291 0 0 0 -17.79493 18.01953l-0.75585 90.93165-454.08008-3.02735 1.216794-188.28516a17.916291 17.916291 0 0 0 -18.066406 -18.285159zm133.69922 39c-26.23785 0-50.48242 20.769438-50.48242 49.490235 0 28.720804 24.24457 49.529324 50.48242 49.529304 26.23786 0 50.48047-20.8085 50.48047-49.529304 0-28.720797-24.24261-49.490235-50.48047-49.490235zm79.88281 77.611339c-20.00615 0-36.65234 16.64619-36.65234 36.65234s16.64619 36.6543 36.65234 36.6543h169.36133c20.00615 0 36.65429-16.64815 36.65429-36.6543s-16.64814-36.65234-36.65429-36.65234h-169.36133zm-133.00391 32.5957c-10.007356 0-18.535146 8.5278-18.535146 18.53516s8.52779 18.5332 18.535146 18.5332h73.39649c10.00736 0 18.53515-8.52584 18.53515-18.5332s-8.52779-18.53516-18.53515-18.53516h-73.39649zm-63.960934 93.19141 454.01366 3.02734-1.66406 199.88867-453.64062-3.02539 1.291016-199.89062zm112.53514 31.04687c-26.23786 0-50.480466 20.76944-50.480466 49.49024s24.242606 49.52736 50.480466 49.52734c26.23786 0 50.48242-20.80654 50.48242-49.52734s-24.24456-49.49024-50.48242-49.49024zm79.88477 77.60938c-20.00615 0-36.6543 16.64815-36.6543 36.65429 0 20.00615 16.64815 36.6543 36.6543 36.6543h169.36133c20.00614 0 36.65429-16.64815 36.65429-36.6543 0-20.00614-16.64815-36.65429-36.65429-36.65429h-169.36133zm-133.00391 32.5957c-10.00736 0-18.53516 8.5278-18.53516 18.53516s8.5278 18.53515 18.53516 18.53515h73.396486c10.00735 0 18.53515-8.52779 18.53515-18.53515s-8.5278-18.53516-18.53515-18.53516h-73.396486z"/>
        </symbol>
        <symbol id="hotel">
            <title>hotel</title>
            <path opacity=".35096154" d="m252.14537 0-187.04668 191.97616h37.409086v287.96408h112.22826v-146.34051h77.38377l0.00026 146.34051h109.6629v-287.96408h37.40934l-187.04694-191.97616z"/>
            <path
                d="m127.12499 204.74779c-29.920456 0-57.566396 22.61028-57.566396 53.87695 0 31.26666 27.64594 53.91799 57.566396 53.91797 29.92046 0 57.56836-22.65131 57.56836-53.91797 0-31.26667-27.6479-53.87695-57.56836-53.87695zm-124.12304 34.15429-3.001954 234.15235l33.619141 0.43164 0.902344-70.38281 425.91796 2.83984-1.13672 57.99219 33.61523 0.66015 3.00196-153.10156-33.61524-0.6582-1.20508 61.49023-426.14648-2.8418 1.667969-130.15039-33.61914-0.43164zm211.9414 42.42383c-22.01752 0-40.34765 18.32818-40.34765 40.3457 0 22.01753 18.33013 40.34571 40.34765 40.34571h195.12696c22.01752 0 40.34765-18.32818 40.34765-40.34571 0-22.01752-18.33013-40.3457-40.34765-40.3457h-195.12696zm-150.85351 35.54297c-11.101384 0-20.562502 9.46112-20.562502 20.5625s9.461118 20.56445 20.562502 20.56445h84.054686c11.10138 0 20.56445-9.46307 20.56445-20.56445s-9.46307-20.5625-20.56445-20.5625h-84.054686z"/>
        </symbol>
        <symbol id="hotel2">
            <title>hotel2</title>
            <path
                d="m135.47711 0c-31.88425 0-61.345715 24.0933-61.345715 57.41211s29.461465 57.459 61.345715 57.45898c31.88424 0 61.34375-24.14017 61.34375-57.45898s-29.45951-57.41211-61.34375-57.41211zm-114.39454 33.375a17.916291 17.916291 0 0 0 -17.876958 17.93945l-3.199218 249.52148a17.916291 17.916291 0 1 0 35.826172 0.45899l0.960937-75.00195 453.87305 3.02539-1.21094 61.79883a17.916291 17.916291 0 1 0 35.82227 0.70312l3.19921-163.14844a17.916291 17.916291 0 0 0 -17.82619 -18.52148 17.916291 17.916291 0 0 0 -17.99609 17.81836l-1.28515 65.52539-454.11524-3.02735 1.777341-138.69336a17.916291 17.916291 0 0 0 -17.949208 -18.39843zm207.97462 63.14648c-23.46263 0-42.99415 19.53348-42.99415 42.9961 0 23.46261 19.53153 42.99414 42.99415 42.99414h207.93554c23.46262 0 42.99414-19.53153 42.99414-42.99414 0-23.46262-19.53152-42.9961-42.99414-42.9961h-207.93554zm-160.75392 37.87695c-11.830005 0-21.91211 10.08406-21.91211 21.91407 0 11.83 10.082105 21.91211 21.91211 21.91211h89.572265c11.83001 0 21.91407-10.08211 21.91407-21.91211 0-11.83001-10.08406-21.91406-21.91407-21.91407h-89.572265z"/>
        </symbol>
        <symbol id="motel">
            <title>motel</title>
            <path
                opacity=".2"
                d="m9.166014 294.17579a5.4872335 5.4872335 0 0 0 -5.486328 5.48827v184.55664a5.4872335 5.4872335 0 0 0 5.486328 5.48828h519.81641a5.4872335 5.4872335 0 0 0 5.48828 -5.48828v-184.55664a5.4872335 5.4872335 0 0 0 -5.48828 -5.48828h-519.81641z"/>
            <path
                d="m169.24414 0c-24.74605 0-47.54688 18.708558-47.54688 44.449219 0 25.740666 22.80083 44.449226 47.54688 44.449226 24.74604 0 47.54687-18.70856 47.54687-44.449226 0-25.740661-22.80083-44.449219-47.54687-44.449219zm-88.60742 25.826172a13.876537 13.876537 0 0 0 -13.845706 13.894531l-2.476562 193.25978a13.876537 13.876537 0 1 0 27.748048 0.35547l0.74414-58.0918 351.53516 2.3457-0.93946 47.86327a13.876537 13.876537 0 1 0 27.74414 0.54494l2.47852-126.3633a13.876537 13.876537 0 0 0 -13.80664 -14.34375 13.876537 13.876537 0 0 0 -13.9375 13.80079l-0.9961 50.750005-351.72265-2.34375 1.37695-107.42189a13.876537 13.876537 0 0 0 -13.90234 -14.25zm161.08203 48.908203c-18.17228 0-33.30078 15.12851-33.30078 33.300785 0 18.17229 15.1285 33.30078 33.30078 33.30078h161.05078c18.17228 0 33.29883-15.12849 33.29883-33.30078 0-18.172265-15.12655-33.300785-33.29883-33.300785h-161.05078zm-124.50781 29.335935c-9.16259 0-16.97071 7.81008-16.97071 16.97266s7.80812 16.97265 16.97071 16.97265h69.37695c9.16258 0 16.9707-7.81007 16.9707-16.97264 0-9.16258-7.80812-16.97266-16.9707-16.97266h-69.37695zm-117.21094 181.85156v20h537.06445v-20h-537.06445zm15.474609 92.26563v19.46875h38.933594v-19.46875h-38.933594zm77.867191 0v19.46875h38.93554v-19.46875h-38.93554zm77.86914 0v19.46875h38.93359v-19.46875h-38.93359zm77.86718 0v19.46875h38.9336v-19.46875h-38.9336zm77.86914 0v19.46875h38.9336v-19.46875h-38.9336zm77.86719 0v19.46875h38.9336v-19.46875h-38.9336zm77.86719 0v19.46875h38.93555v-19.46875h-38.93555zm-482.68164 95.73437v20h537.06445v-20h-537.06445z"/>
        </symbol>
        <symbol id="shelter">
            <title>shelter</title>
            <path
                d="m480.0628 0.00056327342a8.948725 8.948725 0 0 0 -6.19922 2.59375l-54.37891 52.402343a8.948725 8.948725 0 1 0 12.41602 12.88672l54.38086-52.404298a8.948725 8.948725 0 0 0 -6.21875 -15.478515zm-113.36133 6.828125a8.948725 8.948725 0 0 0 -6.15039 2.707031l-73.49219 73.492187a8.948725 8.948725 0 1 0 12.6543 12.6543l73.49218-73.49219a8.948725 8.948725 0 0 0 -6.5039 -15.361328zm-196.40625 1.085937a8.948725 8.948725 0 0 0 -6.10938 2.8007807l-43.17578 44.49219a8.948725 8.948725 0 1 0 12.84375 12.46289l43.17578-44.494142a8.948725 8.948725 0 0 0 -6.73437 -15.261719zm-94.816411 6.7890627a8.948725 8.948725 0 0 0 -6.15039 2.707031l-59.652342 59.652347a8.948725 8.948725 0 1 0 12.654296 12.6543l59.652346-59.65235a8.948725 8.948725 0 0 0 -6.50391 -15.361328zm186.83203 36.863288a8.948725 8.948725 0 0 0 -6.15039 2.70703l-73.49414 73.494144a8.948725 8.948725 0 1 0 12.6543 12.65429l73.49219-73.494144a8.948725 8.948725 0 0 0 -6.50196 -15.36132zm-74.56445 14.91406a8.948725 8.948725 0 0 0 -6.15234 2.70703l-73.49219 73.492194a8.948725 8.948725 0 1 0 12.6543 12.65429l73.49218-73.492184a8.948725 8.948725 0 0 0 -6.50195 -15.36133zm-91.388671 16.82226a8.948725 8.948725 0 0 0 -6.15235 2.70703l-73.492183 73.494154a8.948725 8.948725 0 1 0 12.654297 12.65234l73.492187-73.492194a8.948725 8.948725 0 0 0 -6.501951 -15.36133zm383.70508 6.17578a8.948725 8.948725 0 0 0 -6.19922 2.59375l-54.37891 52.402354a8.948725 8.948725 0 1 0 12.41602 12.88476l54.38086-52.40234a8.948725 8.948725 0 0 0 -6.21875 -15.478524zm-83.53516 6.82813a8.948725 8.948725 0 0 0 -6.15039 2.70703l-73.49219 73.492194a8.948725 8.948725 0 1 0 12.6543 12.65429l73.49219-73.49218a8.948725 8.948725 0 0 0 -6.50391 -15.361334zm-81.48047 23.310554a8.948725 8.948725 0 0 0 -6.19922 2.59375l-36.58593 35.26757a8.948725 8.948725 0 0 0 -2.71485 5.0625l-25.14258-13.41015a10.001 10.001 0 0 0 -4.80664 -1.17578 10.001 10.001 0 0 0 -4.60547 1.17578l-223.69531 119.30469a10.001 10.001 0 0 0 -2.3691395 15.89257l14.904296 14.91602a10.001 10.001 0 0 0 10.820312 2.20312l60.828121-24.58007v179.34961a10.001 10.001 0 0 0 10.000001 10h29.82618a10.001 10.001 0 0 0 10 -10v-188.76758l94.30078-11.16016 94.48242 11.36914v188.5586a10.001 10.001 0 0 0 10 10h29.82617a10.001 10.001 0 0 0 10 -10v-178.93946l60.75977 24.50781a10.001 10.001 0 0 0 10.875 -2.26757l14.97851-15.25196a10.001 10.001 0 0 0 -2.42968 -15.83007l-96.0586-51.23047a8.948725 8.948725 0 0 0 0.0645 -0.0586l25.38086-23.40234a8.948725 8.948725 0 0 0 -5.875 -15.61133 8.948725 8.948725 0 0 0 -6.25586 2.45508l-25.38085 23.40234a8.948725 8.948725 0 0 0 -2.86329 5.25196l-72.60156-38.72071a8.948725 8.948725 0 0 0 0.17188 -0.16015l36.58593-35.26563a8.948725 8.948725 0 0 0 -6.2207 -15.47851zm166.93359 41.79101a8.948725 8.948725 0 0 0 -6.18359 2.63477l-56.35547 55.03711a8.948725 8.948725 0 1 0 12.50196 12.80468l56.35742-55.03906a8.948725 8.948725 0 0 0 -6.32032 -15.4375zm-415.44921 11.37305a8.948725 8.948725 0 0 0 -6.15235 2.70703l-57.673826 57.67578a8.948725 8.948725 0 1 0 12.654296 12.6543l57.673829-57.67578a8.948725 8.948725 0 0 0 -6.50195 -15.36133zm173.46289 254.21094c-28.06346 0.0105-56.11656 14.46186-64.97461 43.32812a5.0005 5.0005 0 0 0 4.78125 6.4668h120.45508a5.0005 5.0005 0 0 0 4.77734 -6.4707c-8.90126-28.9036-36.97561-43.33476-65.03906-43.32422z"/>
        </symbol>
        <symbol id="shelter2">
            <title>shelter2</title>
            <path
                d="m327.20052 0.00960725a9.6013924 9.6013924 0 0 0 -6.55468 3.003906l-46.32422 47.738281a9.6013924 9.6013924 0 1 0 13.77929 13.371094l46.32422-47.738281a9.6013924 9.6013924 0 0 0 -7.22461 -16.375zm-128.98242 10.847656a9.6013924 9.6013924 0 0 0 -6.59961 2.904297l-78.85351 78.853524a9.6013924 9.6013924 0 1 0 13.57617 13.578116l78.85351-78.853515a9.6013924 9.6013924 0 0 0 -6.97656 -16.482422zm-106.73437 29.986328a9.6013924 9.6013924 0 0 0 -6.59961 2.904297l-78.853519 78.851562a9.6013924 9.6013924 0 1 0 13.578125 13.57813l78.851564-78.85352a9.6013924 9.6013924 0 0 0 -6.97656 -16.480469zm411.6914 6.625a9.6013924 9.6013924 0 0 0 -6.65234 2.78125l-58.3457 56.224609a9.6013924 9.6013924 0 1 0 13.32421 13.82617l58.34571-56.224607a9.6013924 9.6013924 0 0 0 -6.67188 -16.607422zm-89.62695 7.326172a9.6013924 9.6013924 0 0 0 -6.59961 2.904297l-78.85352 78.85156a9.6013924 9.6013924 0 1 0 13.57618 13.57813l78.85351-78.853518a9.6013924 9.6013924 0 0 0 -6.97656 -16.480469zm-180.89648 17.095703a9.6013924 9.6013924 0 0 0 -6.59961 2.904297l-78.85352 78.853517a9.6013924 9.6013924 0 1 0 13.57813 13.57617l78.85156-78.851556a9.6013924 9.6013924 0 0 0 -6.97656 -16.482428zm78.28124 14.425788a9.6013924 9.6013924 0 0 0 -6.65039 2.7832l-39.2539 37.837886a9.6013924 9.6013924 0 1 0 13.32617 13.82422l39.25195-37.83984a9.6013924 9.6013924 0 0 0 -6.67383 -16.605466zm194.29883 38.328116a9.6013924 9.6013924 0 0 0 -6.63281 2.82617l-60.4668 59.05274a9.6013924 9.6013924 0 1 0 13.41407 13.73633l60.46875-59.05274a9.6013924 9.6013924 0 0 0 -6.78321 -16.5625zm-433.81445 26.30664a9.6013924 9.6013924 0 0 0 -6.59961 2.90625l-61.880859 61.88086a9.6013924 9.6013924 0 1 0 13.576172 13.57617l61.880857-61.88086a9.6013924 9.6013924 0 0 0 -6.97656 -16.48242zm332.51562 1.40235a9.6013924 9.6013924 0 0 0 -6.71289 2.63476l-27.23242 25.10938a9.6013924 9.6013924 0 1 0 13.01758 14.11523l27.23047-25.10937a9.6013924 9.6013924 0 0 0 -6.30274 -16.75zm-152.23828 19.70117a9.3620726 9.3620726 0 0 0 -4.31054 1.09961l-209.4043 111.68359a9.3620726 9.3620726 0 0 0 -2.216797 14.875l13.951172 13.96485a9.3620726 9.3620726 0 0 0 10.128905 2.0625l43.08399-17.41016v205.32422a9.8737118 9.8737118 0 0 0 9.87304 9.87305h26.89649a9.8737118 9.8737118 0 0 0 9.87304 -9.87305v-218.09961l102.13477-12.08789 100.75195 12.125v218.0625a9.8737118 9.8737118 0 0 0 9.87305 9.87305h26.89648a9.8737118 9.8737118 0 0 0 9.87305 -9.87305v-205.57617l44.57227 17.97851a9.3620726 9.3620726 0 0 0 10.18164 -2.12305l14.01953-14.27734a9.3620726 9.3620726 0 0 0 -2.27344 -14.81836l-209.4043-111.68359a9.3620726 9.3620726 0 0 0 -4.5 -1.09961z"/>
        </symbol>
        <symbol id="youth_hostel">
            <title>youth_hostel</title>
            <path opacity=".35096154" d="m348.72956 5.0004485-187.04668 191.97616h37.40909v247.96408h112.22826v-146.34051h77.38377l0.00026 146.34051h109.6629v-247.96408h37.40934l-187.04694-191.97616z"/>
            <path
                d="m348.72288 0.0000054963181a5.0005 5.0005 0 0 0 -3.57422 1.509765l-170.28906 174.77735-56.22265-121.09766a2.1293943 2.1293943 0 0 0 -2.04688 -1.22656 2.1293943 2.1293943 0 0 0 -0.0215 0 2.1293943 2.1293943 0 0 0 -0.19141 -0.004 2.1293943 2.1293943 0 0 0 -1.86914 1.23242l-88.892559 191.75986a2.1293943 2.1293943 0 0 0 1.931641 3.02344h15.957031l-29.400391 53.40039a2.1293943 2.1293943 0 0 0 1.865235 3.15625h19.378906l-35.041015 57.98437a2.1293943 2.1293943 0 0 0 2.138671 3.20703l89.908201-13.47265v95.73437a2.1293943 2.1293943 0 0 0 2.12891 2.13086h21.95703a2.1293943 2.1293943 0 0 0 0.11328 -0.006 2.1293943 2.1293943 0 0 0 0.002 0 2.1293943 2.1293943 0 0 0 0.15039 0.006h21.95704a2.1293943 2.1293943 0 0 0 2.13086 -2.13086v-95.73633l53.29882 7.97657v82.71484a5.0005 5.0005 0 0 0 5 5h112.22852a5.0005 5.0005 0 0 0 5 -5v-141.33984h67.38476v141.33984a5.0005 5.0005 0 0 0 5 5h109.66211a5.0005 5.0005 0 0 0 5 -5v-242.96289h32.41016a5.0005 5.0005 0 0 0 3.58008 -8.49024l-187.04693-191.97656a5.0005 5.0005 0 0 0 -3.58789 -1.5097645zm0.008 12.164062 175.19531 179.8125h-25.5586a5.0005 5.0005 0 0 0 -5 5v242.96289h-99.66211v-141.33984a5.0005 5.0005 0 0 0 -5 -5h-77.38476a5.0005 5.0005 0 0 0 -5 5v141.33984h-102.22852v-76.21875l26.74219 4.00195a2.1293943 2.1293943 0 0 0 2.13672 -3.20703l-28.87891-47.78711v-10.19726h13.08399a2.1293943 2.1293943 0 0 0 1.86523 -3.15625l-14.94922-27.15235v-26.24804h1.64063a2.1293943 2.1293943 0 0 0 1.93164 -3.02539l-3.57227-7.69532v-42.27734a5.0005 5.0005 0 0 0 -5 -5h-16.94922l-2.77734-5.98242 169.36506-173.83008zm-161.9455 189.8125h7.30664v15.73828l-7.30664-15.73828zm2.85547 47.99805h4.45117v8.08398l-4.45117-8.08398z"/>
        </symbol>
    </defs>
</svg>
