<svg xmlns="http://www.w3.org/2000/svg" xmlns:rdf="http://www.w3.org/1999/02/22-rdf-syntax-ns#" xmlns:dc="http://purl.org/dc/elements/1.1/" xmlns:cc="http://creativecommons.org/ns#" version="1.1" style="fill:black;stroke:none">
    <title>SJJB Map Icons [Barrier Set]</title>
    <desc>These map icons are an attempt to create a simple consistent set of vector icons suitable for cartographic use.</desc>
    <metadata>
        <rdf:RDF>
            <cc:Work rdf:about="">
                <dc:format>image/svg+xml</dc:format>
                <dc:type rdf:resource="http://purl.org/dc/dcmitype/StillImage"/>
                <dc:title>SJJB Map Icons [Barrier Set]</dc:title>
                <dc:date>2017-01-07</dc:date>
                <dc:creator>
                    <cc:Agent>
                        <dc:title>SJJB Management</dc:title>
                    </cc:Agent>
                </dc:creator>
                <dc:rights>
                    <cc:Agent>
                        <dc:title>Map icons CC-0 from SJJB Management</dc:title>
                    </cc:Agent>
                </dc:rights>
                <dc:language>English</dc:language>

                <dc:source>http://www.sjjb.co.uk/mapicons/introduction</dc:source>
                <dc:description>These map icons are an attempt to create a simple consistent set of vector icons suitable for cartographic use.</dc:description>
            </cc:Work>
        </rdf:RDF>
    </metadata>

    <defs>

        <symbol id="blocks" viewBox="0 0 465.19751 318.93164">
            <title>blocks</title>
            <path
                d="m22.283203 0.00586214c-7.250925 0.17302-13.016227 4.26117-16.716797 9.75781-3.700571 5.4966499-5.566406 12.4198-5.566406 19.08204v260.9746c0 15.4951 12.616243 28.11133 28.111328 28.11133h121.97656c15.49509 0 28.11133-12.61624 28.11133-28.11133v-0.0469l-8.00195-220.53516c-0.0154-7.4059-1.82651-13.70094-6.12305-18.75-4.315-5.07073-10.88883-8.78138-20.08008-11.84765l-0.006-0.002-115.13476-37.79687-0.07227-0.0195c-2.251198-0.60087-4.42557-0.86586-6.498047-0.81641zm307.31446 75.72656c-15.44464 0-28.02564 12.53511-28.10743 27.960938l-14.49218 187.02539v0.10156c0 15.4951 12.61624 28.11133 28.11133 28.11133h0.01l121.9668-1c15.49508 0 28.11133-12.61624 28.11133-28.11133v-0.0137l-2-178.47461c0-15.442068-12.53079-28.021518-27.95313-28.107418l-105.55469-7.49219h-0.0918z"/>
        </symbol>
        <symbol id="bollard" viewBox="0 0 223.22186 372.04166">
            <title>bollard</title>
            <path
                d="m112.07114 0.00524864c-0.73215-0.008-1.4649-0.007-2.19727 0.004-22.99324 0.34994-45.70097 10.15441-61.72266 26.65039-16.02169 16.49597-25.16065 39.48094-24.83984 62.47461v214.49023c-3.17188 0.65536-6.28203 1.38922-9.3125 2.22071-9.7302496 2.77657-13.80296 7.51073-13.96875 12.39062-0.17418 5.12692 0.4737 19.2781 0.25 31.77539-1.62269 6.05032 4.48475 12.59232 17.78125 15.31446 23.39858 6.31671 52.67083 5.54107 79.37305 6.57421 36.35684 0.45655 74.4707 0.16629 108.00195-6.38867 10.07169-2.73632 16.91141-7.80559 17.66797-12.91211 0.065-0.12455 0.10598-0.25673 0.0976-0.40429-0.0107-11.62152 0.0838-22.64941-0.0645-33.85352-0.0396-2.99468-1.44312-5.95572-5.85742-8.47851-4.69874-2.96678-11.02528-5.05222-18.1875-6.56641v-214.16211c0.32691-23.4363-9.18919-46.85505-25.77148-63.41992-16.0641-16.04721-38.55335-25.45617-61.25-25.70899z"/>
        </symbol>
        <symbol id="cattle_grid" viewBox="0 0 486.42728 178.99654">
            <title>cattle_grid</title>
            <path
                d="m75.215586 0.0009a9.0009 9.0009 0 1 0 0 18h335.99219a9.0009 9.0009 0 1 0 0 -18h-335.99219zm-20 45.4961a10.001 10.001 0 1 0 0 20h375.99415a10.001 10.001 0 1 0 0 -20h-375.99415zm-20.001949 48.49804a12.50125 12.50125 0 1 0 0 25h415.99805a12.50125 12.50125 0 1 0 0 -25h-415.99805zm-20 55a15.0015 15.0015 0 1 0 0 30h456a15.0015 15.0015 0 1 0 0 -30h-456z"/>
        </symbol>
        <symbol id="cycle_barrier" viewBox="0 0 479.4039 395.59232">
            <title>cycle_barrier</title>
            <path
                d="m319.93144 0.00060191785a25.0025 25.0025 0 0 0 -24.38477 30.04883l66.00196 344.84961a25.0025 25.0025 0 1 0 49.10742 -9.39844l-41.06641-214.57617h74.8125v226.875a17.50175 17.50175 0 1 0 35 0v-287.55078a17.50175 17.50175 0 0 0 -17.76367 -17.74609 17.50175 17.50175 0 0 0 -17.23633 17.74609v25.675778h-81.51172l-18.23437-95.275388a25.0025 25.0025 0 0 0 -24.72461 -20.648438zm-161.21289 0.0080000022a25.0025 25.0025 0 0 0 -23.97071 20.64062l-18.23437 95.275388h-81.51172v-25.675778a17.50175 17.50175 0 0 0 -17.763672 -17.74627 17.50175 17.50175 0 0 0 -17.236328 17.74609v287.55078a17.50175 17.50175 0 1 0 35 0v-226.875h74.8125l-41.066411 214.57617a25.0025 25.0025 0 1 0 49.107431 9.39844l66-344.84961a25.0025 25.0025 0 0 0 -25.13672 -30.041008z"/>
        </symbol>
        <symbol id="entrance" viewBox="0 0 477.04105 340.61844">
            <title>entrance</title>
            <path
                d="m252.82029 0a20.02155 20.02155 0 0 0 -20.01953 20.01953v300.29297a20.02155 20.02155 0 1 0 40.03906 0v-280.27343h164.16015v280.27343a20.02155 20.02155 0 1 0 40.03907 0v-300.29297a20.02155 20.02155 0 0 0 -20.01953 -20.01953h-204.19922zm-109.96289 70.71094a21.426571 21.426571 0 0 0 -18.98438 31.58008l23.10742 44.4375h-125.29492a21.426571 21.426571 0 0 0 -21.492186 24.29687 21.426571 21.426571 0 0 0 21.492187 24.21875h125.29492l-23.10742 44.4375a21.426571 21.426571 0 1 0 38.01563 19.76954l39.38867-75.74805a21.426571 21.426571 0 0 0 2.20703 -12.76563 21.426571 21.426571 0 0 0 -2.20703 -12.66797l-39.38867-75.74609a21.426571 21.426571 0 0 0 -19.03125 -11.8125z"/>
            <path opacity=".1" d="m267.10523 29.60355h172.7027v286.89438h-172.7027z"/>
        </symbol>
        <symbol id="exit" viewBox="0 0 476.88324 340.61832">
            <title>exit</title>
            <path
                d="m20.021549 0a20.02155 20.02155 0 0 0 -20.019531 20.01953v300.29297a20.02155 20.02155 0 1 0 40.039064 0v-280.27343h164.16015v280.27343a20.02155 20.02155 0 1 0 40.03907 0v-300.29297a20.02155 20.02155 0 0 0 -20.01953 -20.01953h-204.19922zm396.03711 70.71094a21.426571 21.426571 0 0 0 -18.98438 31.58008l23.10742 44.4375h-125.29492a21.426571 21.426571 0 0 0 -21.49219 24.29687 21.426571 21.426571 0 0 0 21.49219 24.21875h125.29492l-23.10742 44.4375a21.426571 21.426571 0 1 0 38.01563 19.76954l39.38867-75.74805a21.426571 21.426571 0 0 0 2.20703 -12.76563 21.426571 21.426571 0 0 0 -2.20703 -12.66797l-39.38867-75.74609a21.426571 21.426571 0 0 0 -19.03125 -11.8125z"/>
            <path opacity=".1" d="m34.306484 32.66854h172.7027v283.82937h-172.7027z"/>
        </symbol>
        <symbol id="gate" viewBox="0 0 507.31848 354.34787">
            <title>gate</title>
            <path
                d="m412.00201 0.0002463184a27.345246 27.345246 0 0 0 -19.0664 7.63086l-79.84375 74.60938h-285.3125a27.345246 27.345246 0 1 0 0 54.685544h226.78906l-84.42188 78.88672h-142.36718a27.345246 27.345246 0 1 0 0 54.6836h83.847654l-38.828124 36.2832a27.345246 27.345246 0 1 0 37.335944 39.95703l81.58984-76.24023h287.81445a27.345246 27.345246 0 1 0 0 -54.6836h-229.29492l84.42187-78.88672h144.87305a27.345246 27.345246 0 1 0 0 -54.685544h-86.35156l37.08398-34.65235a27.345246 27.345246 0 0 0 -18.26953 -47.58789z"/>
        </symbol>
        <symbol id="kissing_gate" viewBox="0 0 478.19885 482.20639">
            <title>kissing_gate</title>
            <path
                opacity=".75"
                fill="#7f7f7f"
                d="m197.00019 16.0015v120.22071c-49.17001 1.24041-93.45166 8.13866-127.08398 19.00977-18.62366 6.01979-34.01193 13.18999-45.427736 21.91406s-19.488281 19.839-19.488282 32.85547h20c0-4.65654 3.008072-10.37523 11.63086-16.96485 8.622788-6.58961 22.230278-13.21148 39.437498-18.77343 34.414438-11.12391 83.128578-18.26172 136.93164-18.26172v-10h14v-130.00001h-30zm16 216.00196c-55.54997 0-105.83666 7.19062-143.08398 19.23047-18.62366 6.01993-34.011946 13.1899-45.427736 21.91406-11.415785 8.72417-19.488276 19.83901-19.488276 32.85547h20c0-4.65654 3.008057-10.37513 11.63086-16.96484s22.230288-13.21137 39.437498-18.77344c34.414428-11.12415 83.128608-18.26172 136.93164-18.26172v-20zm0 97c-55.54994 0-105.83667 7.19088-143.08398 19.23047-18.62366 6.0198-34.01193 13.18999-45.427736 21.91406-11.4158 8.72407-19.488276 19.83901-19.488276 32.85547h20c0-4.65654 3.008072-10.37522 11.63086-16.96484s22.230278-13.21149 39.437498-18.77344c34.414438-11.12391 83.128578-18.26172 136.93164-18.26172v-20z"/>
            <path
                d="m213.00019 0.0015c-55.98666 0-106.66556 7.204144-144.62109 19.472656-18.977768 6.134257-34.813673 13.441536-46.927734 22.699219-12.11406 9.257691-21.451172 21.721681-21.451172 36.828131v324.99805a15.0015 15.0015 0 0 0 0.13476578 2.08398c1.169425 13.72377 10.037337 25.12652 21.316406 33.74609 12.114061 9.25769 27.949966 16.56301 46.927736 22.69727 37.123788 11.99966 86.434108 19.13554 140.96289 19.44336a15.0015 15.0015 0 0 0 5.99219 -0.14063 15.0015 15.0015 0 0 0 11.66601 -20.7207v-312.22656a15.0015 15.0015 0 0 0 -14 -20.88086c-53.36634 0-101.68831-7.12259-135.39453-18.01758-16.85311-5.44749-30.012966-11.932284-37.937499-17.988284-7.924533-6.05601-9.667969-10.42759-9.667969-12.99414 0-2.56656 1.743436-6.93618 9.667969-12.99219 7.924533-6.056 21.084389-12.54079 37.937499-17.98828 33.70621-10.894994 82.02819-18.019536 135.39453-18.019536a15.0015 15.0015 0 1 0 0 -30zm249.56446 63.007816a15.0015 15.0015 0 0 0 -4.39063 0.79297l-191.00391 65.000004a15.0015 15.0015 0 0 0 -10.16796 14.20117v104.68555a15.0015 15.0015 0 0 0 0 4.73047v99.26953a15.0015 15.0015 0 0 0 0 4.73047v108.58008a15.0015 15.0015 0 0 0 19.83398 14.20117l191.00195-65a15.0015 15.0015 0 0 0 10.16797 -14.20117v-108.64454a15.0015 15.0015 0 0 0 0 -4.79492v-99.20703a15.0015 15.0015 0 0 0 0 -4.79492v-104.55469a15.0015 15.0015 0 0 0 -15.4414 -14.99414zm-25.81446 39.773444-44.09179 90.31836-105.65625 35.95508v-75.3125l149.74804-50.96094zm-406.75 18.88476c10.702619 6.57849 23.58043 12.07992 38.37891 16.86328 34.301148 11.08731 79.010638 18.01652 128.62109 19.25196v81.96484c-47.00761-1.32707-89.18425-8.06715-119.93164-18.00586-17.20722-5.56201-30.814689-12.18384-39.4375-18.77344-3.337112-2.55023-5.824569-4.96777-7.63086-7.24609v-74.05469zm418.00586 3.65039v48.94727l-28.65625 9.75195 28.65625-58.69922zm0 80.63672v72.3125l-89.54687 30.47266 42.33593-86.71875 47.21094-16.06641zm-418.00586 16.13672c10.840734 7.28511 24.64349 13.42175 40.91602 18.68164 33.404738 10.79766 77.312868 17.67614 126.08398 18.98438v83.04101c-47.80997-1.18938-90.74949-7.97557-121.93164-18.05468-17.20722-5.56196-30.814712-12.18382-39.4375-18.77344-2.244965-1.71563-4.101063-3.37047-5.63086-4.96485v-78.91406zm344.10547 9.01367-42.33594 86.71875-44.76757 15.23438v-72.31055l87.10351-29.64258zm73.90039 78.85157v79.30273l-154.52734 52.58789 46.42773-95.10351 108.09961-36.78711zm-418.00586 16.43945c10.520821 6.71678 23.62526 12.43641 38.91602 17.37891 33.860178 10.94475 78.514188 17.86025 128.08398 19.03125v88.95898c-46.96842-1.26343-89.09483-7.98932-119.39453-17.7832-16.85311-5.4475-30.012968-11.93423-37.937501-17.99024-7.924533-6.056-9.667969-10.42564-9.667969-12.99218v-76.60352zm283.2168 29.42969-26.21484 53.69922v-44.77735l26.21484-8.92187z"/>
        </symbol>
        <symbol id="lift_gate" viewBox="0 0 460.28125 341.96875">
            <title>lift_gate</title>
            <path d="m431.5957 7.375a27.345246 27.345246 0 0 0 -7.32226 0.72266l-369.52735 82.38086a27.345246 27.345246 0 1 0 11.89844 53.375l369.52734-82.38086a27.345246 27.345246 0 0 0 -4.57617 -54.09766z"/>
            <path
                opacity=".75"
                d="m17.71875 0c-4.638711 0.00017-9.251186 1.90744-12.53125 5.1875-3.280064 3.28007-5.187328 7.89254-5.1875 12.53125v306.53125c0.000172 4.63871 1.907436 9.25118 5.1875 12.53125 3.280064 3.28006 7.892539 5.18733 12.53125 5.1875h44.84375c4.63871-0.00017 9.25118-1.90744 12.53125-5.1875 3.28006-3.28007 5.18733-7.89254 5.1875-12.53125v-154.46875c-22.41541 6.88237-49.301098 0.78606-63.78125-18.25-21.960654-26.26887-10.755335-72.68933 21.625-84.9375 14.04957-3.25379 28.10405-6.47794 42.15625-9.71875v-39.15625c-0.00017-4.63871-1.90744-9.25118-5.1875-12.53125-3.28007-3.28006-7.89254-5.18733-12.53125-5.1875h-44.84375zm376.5 143c-3.72291-0.002-7.42414 1.52961-10.05664 4.16211s-4.16376 6.33373-4.16211 10.05664v170.53125c-0.002 3.72291 1.52961 7.42414 4.16211 10.05664s6.33373 4.16376 10.05664 4.16211h51.84375c3.72291 0.002 7.42414-1.52961 10.05664-4.16211s4.16376-6.33373 4.16211-10.05664v-170.53125c0.002-3.72291-1.52961-7.42414-4.16211-10.05664s-6.33373-4.16376-10.05664-4.16211h-51.84375z"/>
        </symbol>
        <symbol id="steps" viewBox="0 0 367.39063 399.3226">
            <title>steps</title>
            <path
                d="m144.58789 11.291347v20.74804h10.37109 57.47266 10.37109v-20.74804h-10.37109-57.47266-10.37109zm-19.28516 37.16406v30.98242h15.48438 85.8164 15.48438v-30.98242h-15.48438-85.8164-15.48438zm-26.84375 54.179693v45.22265h22.60156 125.26954 22.60156v-45.22265h-22.60156-125.26954-22.60156zm-40.60351 82.46484v66.76758h33.36914 184.9414 33.36914v-66.76758h-33.36914-184.9414-33.36914zm-57.85547 116.75977v97.46289h48.71093 269.96876 48.71093v-97.46289h-48.71093-269.96876-48.71093z"/>
            <path
                opacity=".2"
                d="m157.39648 0.00032744987a0.23825481 0.23825481 0 0 0 -0.13476 0.0586l-12.47071 11.00196a0.23825481 0.23825481 0 0 0 0.15625 0.41601l77.4961 0.14063a0.23825481 0.23825481 0 0 0 0.1582 -0.41602l-12.40234-11.14062a0.23825481 0.23825481 0 0 0 -0.15821 -0.0606h-52.62109a0.23825481 0.23825481 0 0 0 -0.0234 0zm-12.93359 31.5957a0.35574709 0.35574709 0 0 0 -0.23633 0.0898l-18.62109 16.42578a0.35574709 0.35574709 0 0 0 0.23437 0.62109l115.71094 0.20899a0.35574709 0.35574709 0 0 0 0.23828 -0.61914l-18.51758-16.63477a0.35574709 0.35574709 0 0 0 -0.23828 -0.0918h-78.57031zm-18.03711 46.42774a0.51930136 0.51930136 0 0 0 -0.34375 0.1289l-27.18555 23.978523a0.51930136 0.51930136 0 0 0 0.34375 0.9082l168.9082 0.30469a0.51930136 0.51930136 0 0 0 0.34766 -0.9043l-27.03125-24.283203a0.51930136 0.51930136 0 0 0 -0.3457 -0.13281h-114.69336zm-27.28125 70.742193a0.7666725 0.7666725 0 0 0 -0.50781 0.1914l-40.13282 35.39844a0.7666725 0.7666725 0 0 0 0.50586 1.3418l249.36914 0.45117a0.7666725 0.7666725 0 0 0 0.51368 -1.33594l-39.90821-35.84961a0.7666725 0.7666725 0 0 0 -0.51172 -0.19726h-169.32812zm-38.87305 100.05468a1.1191493 1.1191493 0 0 0 -0.74023 0.28125l-58.58399 51.67188a1.1191493 1.1191493 0 0 0 0.73828 1.95898l364.01563 0.65821a1.1191493 1.1191493 0 0 0 0.75 -1.95118l-58.25586-52.33203a1.1191493 1.1191493 0 0 0 -0.74805 -0.28711h-247.17578z"/>
        </symbol>
        <symbol id="stile" viewBox="0 0 502.4375 354.62732">
            <title>stile</title>
            <path
                opacity=".75"
                d="m54.34375 0.0023301c-5.230735 0.0817-10.387465 2.30883-14.03125 6.0625-3.643786 3.75368-5.729924 8.9878999-5.65625 14.21875v20 8.84375h-9.3125c-6.603908-0.0934-13.203214 2.5505-17.90625 7.1875-4.703037 4.637-7.4375 11.20793-7.4375 17.8125s2.734463 13.1755 7.4375 17.8125c4.703036 4.637 11.302342 7.2809 17.90625 7.1875h9.3125v75.5625h-9.3125c-6.603908-0.0934-13.203214 2.5505-17.90625 7.1875-4.703037 4.637-7.4375 11.20793-7.4375 17.8125s2.734463 13.1755 7.4375 17.8125c4.703036 4.637 11.302342 7.2809 17.90625 7.1875h9.3125v46.28125 20 20h40v-20-20-46.28125h94.3125v-28.0625-1-1h175.375v30.0625h86.3125v46.28125 20 20h40v-20-20-46.28125h6.4375c6.60391 0.0934 13.20321-2.5505 17.90625-7.1875s7.4375-11.20793 7.4375-17.8125-2.73446-13.1755-7.4375-17.8125-11.30234-7.2809-17.90625-7.1875h-6.4375v-75.5625h6.4375c6.60391 0.0934 13.20321-2.5505 17.90625-7.1875s7.4375-11.20793 7.4375-17.8125-2.73446-13.1755-7.4375-17.8125-11.30234-7.2809-17.90625-7.1875h-6.4375v-8.84375-20c0.0751-5.33502-2.0993-10.66761-5.875-14.4375-3.7757-3.7699-9.10261-5.92711-14.4375-5.84375-5.23073 0.0817-10.38746 2.30883-14.03125 6.0625-3.64378 3.75368-5.72992 8.9878999-5.65625 14.21875v20 8.84375h-356v-8.84375-20c0.0751-5.33502-2.0993-10.66761-5.875-14.4375-3.7757-3.7699-9.10261-5.92711-14.4375-5.84375zm20.3125 99.125h356v75.5625h-356v-75.5625z"/>
            <path d="m196.97266 222.62733v50h119.36718v-50h-119.36718zm-33.31641 82v50h25 140 25v-50h-25-140-25z"/>
        </symbol>
        <symbol id="toll_booth" viewBox="0 0 460.28125 472.76563">
            <title>toll_booth</title>
            <path
                d="m431.5957 7.373049a27.345246 27.345246 0 0 0 -7.32226 0.72461l-369.52735 82.378905a27.345246 27.345246 0 1 0 11.89844 53.374996l369.52734-82.378896a27.345246 27.345246 0 0 0 -4.57617 -54.099615zm-198.66601 164.80273a16.963055 16.963055 0 0 0 -16.70703 17.20118v9.87695c-21.70558 2.61206-38.38939 9.36026-49.77539 20.49609-12.53503 12.25999-18.89847 27.14313-18.89844 44.26563-0.00003 17.22807 6.45117 31.57847 19.16406 42.55664 11.46026 9.89676 28.03331 17.06757 49.50977 21.75195v85.60547c-9.14694-1.98583-16.65596-6.03435-22.57422-12.29883-7.50775-7.94677-12.59029-19.38045-15.11719-34.46094a1.8372221 1.8372221 0 0 0 -2.08398 -1.5117l-33.02149 4.9707a1.8372221 1.8372221 0 0 0 -1.55664 1.9707c1.74304 20.76948 9.48787 37.19024 23.20313 48.85742 12.35149 10.50716 29.46797 17.14583 51.15039 20.1211v14.02734a16.963055 16.963055 0 1 0 33.92382 0v-14.42383c20.62807-2.55235 39.70149-9.52463 51.86133-21.27929 14.11984-13.64967 21.29082-30.00795 21.29102-48.69922-0.0002-18.24567-6.5577-33.2693-19.52539-44.57031-11.69209-10.18889-31.57939-17.24349-53.62696-21.61329v-76.46679c6.90663 2.09835 13.3942 5.00444 17.00782 8.57422 5.93213 5.86082 9.87046 13.83483 11.77539 24.11718a1.8372221 1.8372221 0 0 0 2.02929 1.48828l34.30469-4.19531a1.8372221 1.8372221 0 0 0 1.58594 -2.14844c-3.12134-17.33762-10.89126-31.02158-23.23828-40.73046-10.30482-8.10245-26.38279-13.23023-43.46485-15.78907v-10.49218a16.963055 16.963055 0 0 0 -17.21679 -17.20118zm-16.70703 54.89844v70.00195c-8.8845-3.00186-16.1413-6.79178-21.62696-11.39843-6.93824-5.82609-10.35162-13.59207-10.35156-23.83789-0.00006-8.8544 3.29254-16.51252 10.10156-23.32227 5.32279-5.32315 12.62666-9.1223 21.87696-11.44336zm33.92382 109.81055c4.14246 1.26371 8.09819 2.57971 11.63868 3.96875 6.78753 2.66294 12.19893 5.59943 14.98437 8.41601 5.94475 6.01167 8.91586 13.86214 8.91602 23.95313-0.00016 11.48214-3.91743 20.75385-11.89453 28.2539-5.49187 5.16332-14.43449 9.01022-23.64454 11.4043v-75.99609z"/>
            <path
                opacity=".75"
                d="m17.71875 0.000002c-4.63871 0.00017-9.25119 1.907441-12.53125 5.1875-3.28007 3.28007-5.18733 7.89254-5.1875 12.53125v306.53125c0.00017 4.63871 1.90743 9.25118 5.1875 12.53125 3.28006 3.28006 7.89254 5.18733 12.53125 5.1875h44.84375c4.63871-0.00017 9.25118-1.90744 12.53125-5.1875 3.28006-3.28007 5.18733-7.89254 5.1875-12.53125v-154.46875c-22.41541 6.88237-49.3011 0.78606-63.78125-18.25-21.96066-26.26887-10.75534-72.689326 21.625-84.937496 14.04957-3.25379 28.10405-6.47794 42.15625-9.71875v-39.156254c-0.00017-4.63871-1.90744-9.25118-5.1875-12.53125-3.28007-3.280059-7.89254-5.187329-12.53125-5.1875h-44.84375zm376.5 143c-3.72291-0.002-7.42414 1.52961-10.05664 4.16211s-4.16376 6.33373-4.16211 10.05664v170.53125c-0.002 3.72291 1.52961 7.42219 4.16211 10.05469s6.33373 4.16571 10.05664 4.16406h51.84375c3.72291 0.002 7.42414-1.53156 10.05664-4.16406s4.16376-6.33178 4.16211-10.05469v-170.53125c0.002-3.72291-1.52961-7.42414-4.16211-10.05664s-6.33373-4.16376-10.05664-4.16211h-51.84375z"/>
        </symbol>
        <symbol id="blocks" viewBox="0 0 576.44501 577.45154">
            <title>blocks</title>
            <path d="m64.571 0.06355556c-41.335 0-64.571 21.371-64.571 65.036v450.123c0 40.844 20.895 62.229 62.192 62.229h452.024c41.307 0 62.229-20.315 62.229-62.229v-450.123c0-42.601-20.922-65.036-63.521-65.036-0.004 0-448.495-0.143-448.353 0z"/>
            <path
                fill="#fff"
                d="m89.604594 148.30923c-7.250925 0.17302-13.016227 4.26117-16.716797 9.75781-3.700571 5.49665-5.566406 12.4198-5.566406 19.08204v260.9746c0 15.4951 12.616243 28.11133 28.111328 28.11133h121.97656c15.49509 0 28.11133-12.61624 28.11133-28.11133v-0.0469l-8.00195-220.53516c-0.0154-7.4059-1.82651-13.70094-6.12305-18.75-4.315-5.07073-10.88883-8.78138-20.08008-11.84765l-0.006-0.002-115.13476-37.79687-0.07227-0.0195c-2.251198-0.60087-4.42557-0.86586-6.498047-0.81641zm307.31446 75.72656c-15.44464 0-28.02564 12.53511-28.10743 27.96094l-14.49218 187.02539v0.10156c0 15.4951 12.61624 28.11133 28.11133 28.11133h0.01l121.9668-1c15.49508 0 28.11133-12.61624 28.11133-28.11133v-0.0137l-2-178.47461c0-15.44207-12.53079-28.02152-27.95313-28.10742l-105.55469-7.49219h-0.0918z"/>
        </symbol>
        <symbol id="bollard" viewBox="0 0 576.44501 577.45154">
            <title>bollard</title>
            <path d="m64.571 0.06355556c-41.335 0-64.571 21.371-64.571 65.036v450.123c0 40.844 20.894 62.229 62.192 62.229h452.024c41.307 0 62.229-20.316 62.229-62.229v-450.123c0-42.601-20.922-65.036-63.522-65.036-0.003 0-448.494-0.143-448.352 0z"/>
            <path
                d="m290.49327 107.91665c-0.73215-0.008-1.4649-0.007-2.19727 0.004-22.99324 0.34994-45.70097 10.15441-61.72266 26.65039-16.02169 16.49597-25.16065 39.48094-24.83984 62.47461v214.49023c-3.17188 0.65536-6.28203 1.38922-9.3125 2.22071-9.73025 2.77657-13.80296 7.51073-13.96875 12.39062-0.17418 5.12692 0.4737 19.2781 0.25 31.77539-1.62269 6.05032 4.48475 12.59232 17.78125 15.31446 23.39858 6.31671 52.67083 5.54107 79.37305 6.57421 36.35684 0.45655 74.4707 0.16629 108.00195-6.38867 10.07169-2.73632 16.91141-7.80559 17.66797-12.91211 0.065-0.12455 0.10598-0.25673 0.0976-0.40429-0.0107-11.62152 0.0838-22.64941-0.0645-33.85352-0.0396-2.99468-1.44312-5.95572-5.85742-8.47851-4.69874-2.96678-11.02528-5.05222-18.1875-6.56641v-214.16211c0.32691-23.4363-9.18919-46.85505-25.77148-63.41992-16.0641-16.04721-38.55335-25.45617-61.25-25.70899z"
                fill="#fff"/>
        </symbol>
        <symbol id="cattle_grid" viewBox="0 0 576.44501 577.45154">
            <title>cattle_grid</title>
            <path d="m64.571 0.06355556c-41.335 0-64.571 21.371-64.571 65.036v450.123c0 40.844 20.895 62.229 62.192 62.229h452.024c41.307 0 62.229-20.315 62.229-62.229v-450.123c0-42.601-20.922-65.036-63.521-65.036-0.004 0-448.495-0.143-448.353 0z"/>
            <path
                fill="#fff"
                d="m125.41123 319.54165a9.0009 9.0009 0 1 0 0 18h335.99219a9.0009 9.0009 0 1 0 0 -18h-335.99219zm-20 45.4961a10.001 10.001 0 1 0 0 20h375.99415a10.001 10.001 0 1 0 0 -20h-375.99415zm-20.001949 48.49804a12.50125 12.50125 0 1 0 0 25h415.99805a12.50125 12.50125 0 1 0 0 -25h-415.99805zm-20 55a15.0015 15.0015 0 1 0 0 30h456a15.0015 15.0015 0 1 0 0 -30h-456z"/>
        </symbol>
        <symbol id="cycle_barrier" viewBox="0 0 576.44501 577.45154">
            <title>cycle_barrier</title>
            <path d="m64.571 0.06355556c-41.335 0-64.571 21.371-64.571 65.036v450.123c0 40.844 20.895 62.229 62.192 62.229h452.024c41.307 0 62.229-20.315 62.229-62.229v-450.123c0-42.601-20.922-65.036-63.521-65.036-0.004 0-448.495-0.143-448.353 0z"/>
            <path
                fill="#fff"
                d="m371.46983 124.41665a25.0025 25.0025 0 0 0 -24.38477 30.04883l66.00196 344.84961a25.0025 25.0025 0 1 0 49.10742 -9.39844l-41.06641-214.57617h74.8125v226.875a17.50175 17.50175 0 1 0 35 0v-287.55078a17.50175 17.50175 0 0 0 -17.76367 -17.74609 17.50175 17.50175 0 0 0 -17.23633 17.74609v25.67578h-81.51172l-18.23437-95.27539a25.0025 25.0025 0 0 0 -24.72461 -20.64844zm-161.21289 0.008a25.0025 25.0025 0 0 0 -23.97071 20.64062l-18.23437 95.27539h-81.511719v-25.67578a17.50175 17.50175 0 0 0 -17.763672 -17.74627 17.50175 17.50175 0 0 0 -17.236328 17.74609v287.55078a17.50175 17.50175 0 1 0 35 0v-226.875h74.812499l-41.06641 214.57617a25.0025 25.0025 0 1 0 49.10743 9.39844l66-344.84961a25.0025 25.0025 0 0 0 -25.13672 -30.04101z"/>
        </symbol>
        <symbol id="entrance" viewBox="0 0 576.44501 577.45154">
            <title>entrance</title>
            <path d="m64.571 0.06355556c-41.335 0-64.571 21.371-64.571 65.036v450.123c0 40.844 20.894 62.229 62.192 62.229h452.024c41.307 0 62.229-20.316 62.229-62.229v-450.123c0-42.601-20.922-65.036-63.522-65.036-0.003 0-448.494-0.143-448.352 0z"/>
            <path
                d="m282.8878 118.79165a20.02155 20.02155 0 0 0 -20.01953 20.01953v300.29297a20.02155 20.02155 0 1 0 40.03906 0v-280.27343h164.16015v280.27343a20.02155 20.02155 0 1 0 40.03907 0v-300.29297a20.02155 20.02155 0 0 0 -20.01953 -20.01953h-204.19922zm-109.96289 70.71094a21.426571 21.426571 0 0 0 -18.98438 31.58008l23.10742 44.4375h-125.29492a21.426571 21.426571 0 0 0 -21.492187 24.29687 21.426571 21.426571 0 0 0 21.492187 24.21875h125.29492l-23.10742 44.4375a21.426571 21.426571 0 1 0 38.01563 19.76954l39.38867-75.74805a21.426571 21.426571 0 0 0 2.20703 -12.76563 21.426571 21.426571 0 0 0 -2.20703 -12.66797l-39.38867-75.74609a21.426571 21.426571 0 0 0 -19.03125 -11.8125z"
                fill="#fff"/>
            <path opacity=".1" d="m297.17274 148.3952h172.7027v286.89438h-172.7027z" fill="#fff"/>
        </symbol>
        <symbol id="exit" viewBox="0 0 576.44501 577.45154">
            <title>exit</title>
            <path d="m64.571 0.06355556c-41.335 0-64.571 21.371-64.571 65.036v450.123c0 40.844 20.894 62.229 62.192 62.229h452.024c41.307 0 62.229-20.316 62.229-62.229v-450.123c0-42.601-20.922-65.036-63.522-65.036-0.003 0-448.494-0.143-448.352 0z"/>
            <path
                d="m82.887797 118.79165a20.02155 20.02155 0 0 0 -20.019531 20.01953v300.29297a20.02155 20.02155 0 1 0 40.039064 0v-280.27343h164.16015v280.27343a20.02155 20.02155 0 1 0 40.03907 0v-300.29297a20.02155 20.02155 0 0 0 -20.01953 -20.01953h-204.19922zm396.03711 70.71094a21.426571 21.426571 0 0 0 -18.98438 31.58008l23.10742 44.4375h-125.29492a21.426571 21.426571 0 0 0 -21.49219 24.29687 21.426571 21.426571 0 0 0 21.49219 24.21875h125.29492l-23.10742 44.4375a21.426571 21.426571 0 1 0 38.01563 19.76954l39.38867-75.74805a21.426571 21.426571 0 0 0 2.20703 -12.76563 21.426571 21.426571 0 0 0 -2.20703 -12.66797l-39.38867-75.74609a21.426571 21.426571 0 0 0 -19.03125 -11.8125z"
                fill="#fff"/>
            <path opacity=".1" d="m97.172732 151.46019h172.7027v283.82937h-172.7027z" fill="#fff"/>
        </symbol>
        <symbol id="gate" viewBox="0 0 580 580">
            <title>gate</title>
            <path d="m66.275 1.768c-41.335 0-64.571 21.371-64.571 65.036v450.123c0 40.844 20.894 62.229 62.192 62.229h452.024c41.307 0 62.229-20.316 62.229-62.229v-450.123c0-42.601-20.922-65.036-63.522-65.036-0.003 0-448.494-0.143-448.352 0z"/>
            <path
                d="m452.91406 116.91992a27.345246 27.345246 0 0 0 -19.0664 7.63086l-79.84375 74.60938h-285.3125a27.345246 27.345246 0 1 0 0 54.68554h226.78906l-84.42188 78.88672h-142.36718a27.345246 27.345246 0 1 0 0 54.6836h83.847654l-38.82812 36.2832a27.345246 27.345246 0 1 0 37.33594 39.95703l81.58984-76.24023h287.81445a27.345246 27.345246 0 1 0 0 -54.6836h-229.29492l84.42187-78.88672h144.87305a27.345246 27.345246 0 1 0 0 -54.68554h-86.35156l37.08398-34.65235a27.345246 27.345246 0 0 0 -18.26953 -47.58789z"
                fill="#fff"/>
        </symbol>
        <symbol id="kissing_gate" viewBox="0 0 576.44501 577.45154">
            <title>kissing_gate</title>
            <path d="m64.571 0.06355556c-41.335 0-64.571 21.371-64.571 65.036v450.123c0 40.844 20.895 62.229 62.192 62.229h452.024c41.307 0 62.229-20.315 62.229-62.229v-450.123c0-42.601-20.922-65.036-63.521-65.036-0.004 0-448.495-0.143-448.353 0z"/>
            <path
                opacity=".75"
                fill="#7f7f7f"
                d="m244.89756 69.031884v120.22071c-49.17001 1.24041-93.45166 8.13866-127.08398 19.00977-18.62366 6.01979-34.01193 13.18999-45.427736 21.91406s-19.488281 19.839-19.488282 32.85547h20c0-4.65654 3.008072-10.37523 11.63086-16.96485 8.622788-6.58961 22.230278-13.21148 39.437498-18.77343 34.41444-11.12391 83.12858-18.26172 136.93164-18.26172v-10h14v-130.00001h-30zm16 216.00196c-55.54997 0-105.83666 7.19062-143.08398 19.23047-18.62366 6.01993-34.011946 13.1899-45.427736 21.91406-11.415791 8.72417-19.488282 19.83901-19.488282 32.85547h20c0-4.65654 3.008057-10.37513 11.63086-16.96484s22.230288-13.21137 39.437498-18.77344c34.41443-11.12415 83.12861-18.26172 136.93164-18.26172v-20zm0 97c-55.54994 0-105.83667 7.19088-143.08398 19.23047-18.62366 6.0198-34.01193 13.18999-45.427736 21.91406s-19.488282 19.83901-19.488282 32.85547h20c0-4.65654 3.008072-10.37522 11.63086-16.96484s22.230278-13.21149 39.437498-18.77344c34.41444-11.12391 83.12858-18.26172 136.93164-18.26172v-20z"/>
            <path
                fill="#fff"
                d="m260.89756 53.031884c-55.98666 0-106.66556 7.204144-144.62109 19.472656-18.97777 6.134257-34.813675 13.441536-46.927736 22.699219-12.11406 9.257691-21.451172 21.721681-21.451172 36.828131v324.99805a15.0015 15.0015 0 0 0 0.134766 2.08398c1.169425 13.72377 10.037337 25.12652 21.316406 33.74609 12.114061 9.25769 27.949966 16.56301 46.927736 22.69727 37.12379 11.99966 86.43411 19.13554 140.96289 19.44336a15.0015 15.0015 0 0 0 5.99219 -0.14063 15.0015 15.0015 0 0 0 11.66601 -20.7207v-312.22656a15.0015 15.0015 0 0 0 -14 -20.88086c-53.36634 0-101.68831-7.12259-135.39453-18.01758-16.85311-5.44749-30.012966-11.93228-37.937499-17.98828-7.924533-6.05601-9.667969-10.42759-9.667969-12.99414 0-2.56656 1.743436-6.93618 9.667969-12.99219 7.924533-6.056 21.084389-12.54079 37.937499-17.98828 33.70621-10.894994 82.02819-18.019536 135.39453-18.019536a15.0015 15.0015 0 1 0 0 -30zm249.56446 63.007816a15.0015 15.0015 0 0 0 -4.39063 0.79297l-191.00391 65a15.0015 15.0015 0 0 0 -10.16796 14.20117v104.68555a15.0015 15.0015 0 0 0 0 4.73047v99.26953a15.0015 15.0015 0 0 0 0 4.73047v108.58008a15.0015 15.0015 0 0 0 19.83398 14.20117l191.00195-65a15.0015 15.0015 0 0 0 10.16797 -14.20117v-108.64454a15.0015 15.0015 0 0 0 0 -4.79492v-99.20703a15.0015 15.0015 0 0 0 0 -4.79492v-104.55469a15.0015 15.0015 0 0 0 -15.4414 -14.99414zm-25.81446 39.77344-44.09179 90.31836-105.65625 35.95508v-75.3125l149.74804-50.96094zm-406.75 18.88476c10.702619 6.57849 23.58043 12.07992 38.37891 16.86328 34.30115 11.08731 79.01064 18.01652 128.62109 19.25196v81.96484c-47.00761-1.32707-89.18425-8.06715-119.93164-18.00586-17.20722-5.56201-30.814689-12.18384-39.4375-18.77344-3.337112-2.55023-5.824569-4.96777-7.63086-7.24609v-74.05469zm418.00586 3.65039v48.94727l-28.65625 9.75195 28.65625-58.69922zm0 80.63672v72.3125l-89.54687 30.47266 42.33593-86.71875 47.21094-16.06641zm-418.00586 16.13672c10.840734 7.28511 24.64349 13.42175 40.91602 18.68164 33.40474 10.79766 77.31287 17.67614 126.08398 18.98438v83.04101c-47.80997-1.18938-90.74949-7.97557-121.93164-18.05468-17.20722-5.56196-30.814712-12.18382-39.4375-18.77344-2.244965-1.71563-4.101063-3.37047-5.63086-4.96485v-78.91406zm344.10547 9.01367-42.33594 86.71875-44.76757 15.23438v-72.31055l87.10351-29.64258zm73.90039 78.85157v79.30273l-154.52734 52.58789 46.42773-95.10351 108.09961-36.78711zm-418.00586 16.43945c10.520821 6.71678 23.62526 12.43641 38.91602 17.37891 33.86018 10.94475 78.51419 17.86025 128.08398 19.03125v88.95898c-46.96842-1.26343-89.09483-7.98932-119.39453-17.7832-16.85311-5.4475-30.012968-11.93423-37.937501-17.99024-7.924533-6.056-9.667969-10.42564-9.667969-12.99218v-76.60352zm283.2168 29.42969-26.21484 53.69922v-44.77735l26.21484-8.92187z"/>
        </symbol>
        <symbol id="lift_gate" viewBox="0 0 576.44501 577.45154">
            <title>lift_gate</title>
            <path d="m64.571 0.06355556c-41.335 0-64.571 21.371-64.571 65.036v450.123c0 40.844 20.894 62.229 62.192 62.229h452.024c41.307 0 62.229-20.316 62.229-62.229v-450.123c0-42.601-20.922-65.036-63.522-65.036-0.003 0-448.494-0.143-448.352 0z"/>
            <path
                d="m493.92295 127.57681a27.345246 27.345246 0 0 0 -7.32226 0.72266l-369.52735 82.38086a27.345246 27.345246 0 1 0 11.89844 53.375l369.52734-82.38086a27.345246 27.345246 0 0 0 -4.57617 -54.09766z"
                fill="#fff"/>
            <path
                opacity=".75"
                d="m80.046 120.20181c-4.638711 0.00017-9.251186 1.90744-12.53125 5.1875-3.280064 3.28007-5.187328 7.89254-5.1875 12.53125v306.53125c0.000172 4.63871 1.907436 9.25118 5.1875 12.53125 3.280064 3.28006 7.892539 5.18733 12.53125 5.1875h44.84375c4.63871-0.00017 9.25118-1.90744 12.53125-5.1875 3.28006-3.28007 5.18733-7.89254 5.1875-12.53125v-154.46875c-22.41541 6.88237-49.301098 0.78606-63.78125-18.25-21.960654-26.26887-10.755335-72.68933 21.625-84.9375 14.04957-3.25379 28.10405-6.47794 42.15625-9.71875v-39.15625c-0.00017-4.63871-1.90744-9.25118-5.1875-12.53125-3.28007-3.28006-7.89254-5.18733-12.53125-5.1875h-44.84375zm376.5 143c-3.72291-0.002-7.42414 1.52961-10.05664 4.16211s-4.16376 6.33373-4.16211 10.05664v170.53125c-0.002 3.72291 1.52961 7.42414 4.16211 10.05664s6.33373 4.16376 10.05664 4.16211h51.84375c3.72291 0.002 7.42414-1.52961 10.05664-4.16211s4.16376-6.33373 4.16211-10.05664v-170.53125c0.002-3.72291-1.52961-7.42414-4.16211-10.05664s-6.33373-4.16376-10.05664-4.16211h-51.84375z"
                fill="#fff"/>
        </symbol>
        <symbol id="steps" viewBox="0 0 576.44501 577.45154">
            <title>steps</title>
            <path d="m64.571 0.06355556c-41.335 0-64.571 21.371-64.571 65.036v450.123c0 40.844 20.894 62.229 62.192 62.229h452.024c41.307 0 62.229-20.316 62.229-62.229v-450.123c0-42.601-20.922-65.036-63.522-65.036-0.003 0-448.494-0.143-448.352 0z"/>
            <path
                d="m254.93858 152.98697v20.74804h10.37109 57.47266 10.37109v-20.74804h-10.37109-57.47266-10.37109zm-19.28516 37.16406v30.98242h15.48438 85.8164 15.48438v-30.98242h-15.48438-85.8164-15.48438zm-26.84375 54.17969v45.22265h22.60156 125.26954 22.60156v-45.22265h-22.60156-125.26954-22.60156zm-40.60351 82.46484v66.76758h33.36914 184.9414 33.36914v-66.76758h-33.36914-184.9414-33.36914zm-57.85547 116.75977v97.46289h48.71093 269.96876 48.71093v-97.46289h-48.71093-269.96876-48.71093z"
                fill="#fff"/>
            <path
                opacity=".2"
                d="m267.74717 141.69595a0.23825481 0.23825481 0 0 0 -0.13476 0.0586l-12.47071 11.00196a0.23825481 0.23825481 0 0 0 0.15625 0.41601l77.4961 0.14063a0.23825481 0.23825481 0 0 0 0.1582 -0.41602l-12.40234-11.14062a0.23825481 0.23825481 0 0 0 -0.15821 -0.0606h-52.62109a0.23825481 0.23825481 0 0 0 -0.0234 0zm-12.93359 31.5957a0.35574709 0.35574709 0 0 0 -0.23633 0.0898l-18.62109 16.42578a0.35574709 0.35574709 0 0 0 0.23437 0.62109l115.71094 0.20899a0.35574709 0.35574709 0 0 0 0.23828 -0.61914l-18.51758-16.63477a0.35574709 0.35574709 0 0 0 -0.23828 -0.0918h-78.57031zm-18.03711 46.42774a0.51930136 0.51930136 0 0 0 -0.34375 0.1289l-27.18555 23.97852a0.51930136 0.51930136 0 0 0 0.34375 0.9082l168.9082 0.30469a0.51930136 0.51930136 0 0 0 0.34766 -0.9043l-27.03125-24.2832a0.51930136 0.51930136 0 0 0 -0.3457 -0.13281h-114.69336zm-27.28125 70.74219a0.7666725 0.7666725 0 0 0 -0.50781 0.1914l-40.13282 35.39844a0.7666725 0.7666725 0 0 0 0.50586 1.3418l249.36914 0.45117a0.7666725 0.7666725 0 0 0 0.51368 -1.33594l-39.90821-35.84961a0.7666725 0.7666725 0 0 0 -0.51172 -0.19726h-169.32812zm-38.87305 100.05468a1.1191493 1.1191493 0 0 0 -0.74023 0.28125l-58.58399 51.67188a1.1191493 1.1191493 0 0 0 0.73828 1.95898l364.01563 0.65821a1.1191493 1.1191493 0 0 0 0.75 -1.95118l-58.25586-52.33203a1.1191493 1.1191493 0 0 0 -0.74805 -0.28711h-247.17578z"
                fill="#fff"/>
        </symbol>
        <symbol id="stile" viewBox="0 0 576.44501 577.45154">
            <title>stile</title>
            <path d="m64.571 0.06355556c-41.335 0-64.571 21.371-64.571 65.036v450.123c0 40.844 20.894 62.229 62.192 62.229h452.024c41.307 0 62.229-20.316 62.229-62.229v-450.123c0-42.601-20.922-65.036-63.522-65.036-0.003 0-448.494-0.143-448.352 0z"/>
            <path
                opacity=".75"
                d="m95.9835 136.67056c-5.230735 0.0817-10.387465 2.30883-14.03125 6.0625-3.643786 3.75368-5.729924 8.9879-5.65625 14.21875v20 8.84375h-9.3125c-6.603908-0.0934-13.203214 2.5505-17.90625 7.1875-4.703037 4.637-7.4375 11.20793-7.4375 17.8125s2.734463 13.1755 7.4375 17.8125c4.703036 4.637 11.302342 7.2809 17.90625 7.1875h9.3125v75.5625h-9.3125c-6.603908-0.0934-13.203214 2.5505-17.90625 7.1875-4.703037 4.637-7.4375 11.20793-7.4375 17.8125s2.734463 13.1755 7.4375 17.8125c4.703036 4.637 11.302342 7.2809 17.90625 7.1875h9.3125v46.28125 20 20h40v-20-20-46.28125h94.3125v-28.0625-1-1h175.375v30.0625h86.3125v46.28125 20 20h40v-20-20-46.28125h6.4375c6.60391 0.0934 13.20321-2.5505 17.90625-7.1875s7.4375-11.20793 7.4375-17.8125-2.73446-13.1755-7.4375-17.8125-11.30234-7.2809-17.90625-7.1875h-6.4375v-75.5625h6.4375c6.60391 0.0934 13.20321-2.5505 17.90625-7.1875s7.4375-11.20793 7.4375-17.8125-2.73446-13.1755-7.4375-17.8125-11.30234-7.2809-17.90625-7.1875h-6.4375v-8.84375-20c0.0751-5.33502-2.0993-10.66761-5.875-14.4375-3.7757-3.7699-9.10261-5.92711-14.4375-5.84375-5.23073 0.0817-10.38746 2.30883-14.03125 6.0625-3.64378 3.75368-5.72992 8.9879-5.65625 14.21875v20 8.84375h-356v-8.84375-20c0.0751-5.33502-2.0993-10.66761-5.875-14.4375-3.7757-3.7699-9.10261-5.92711-14.4375-5.84375zm20.3125 99.125h356v75.5625h-356v-75.5625z"
                fill="#fff"/>
            <path
                d="m238.61241 359.29556v50h119.36718v-50h-119.36718zm-33.31641 82v50h25 140 25v-50h-25-140-25z"
                fill="#fff"/>
        </symbol>
        <symbol id="toll_booth" viewBox="0 0 576.44501 577.45154">
            <title>toll_booth</title>
            <path d="m64.571 0.06355556c-41.335 0-64.571 21.371-64.571 65.036v450.123c0 40.844 20.894 62.229 62.192 62.229h452.024c41.307 0 62.229-20.316 62.229-62.229v-450.123c0-42.601-20.922-65.036-63.522-65.036-0.003 0-448.494-0.143-448.352 0z"/>
            <path
                d="m490.98545 65.332665a27.345246 27.345246 0 0 0 -7.32226 0.72461l-369.52735 82.378905a27.345246 27.345246 0 1 0 11.89844 53.375l369.52734-82.3789a27.345246 27.345246 0 0 0 -4.57617 -54.099615zm-198.66601 164.80274a16.963055 16.963055 0 0 0 -16.70703 17.20118v9.87695c-21.70558 2.61206-38.38939 9.36026-49.77539 20.49609-12.53503 12.25999-18.89847 27.14313-18.89844 44.26563-0.00003 17.22807 6.45117 31.57847 19.16406 42.55664 11.46026 9.89676 28.03331 17.06757 49.50977 21.75195v85.60547c-9.14694-1.98583-16.65596-6.03435-22.57422-12.29883-7.50775-7.94677-12.59029-19.38045-15.11719-34.46094a1.8372221 1.8372221 0 0 0 -2.08398 -1.51171l-33.02149 4.9707a1.8372221 1.8372221 0 0 0 -1.55664 1.9707c1.74304 20.76948 9.48787 37.19024 23.20313 48.85742 12.35149 10.50716 29.46797 17.14583 51.15039 20.1211v14.02734a16.963055 16.963055 0 1 0 33.92382 0v-14.42383c20.62807-2.55235 39.70149-9.52463 51.86133-21.27929 14.11984-13.64967 21.29082-30.00794 21.29102-48.69922-0.0002-18.24567-6.5577-33.2693-19.52539-44.57031-11.69209-10.18889-31.57939-17.24349-53.62696-21.61329v-76.46679c6.90663 2.09835 13.3942 5.00444 17.00782 8.57422 5.93213 5.86082 9.87046 13.83483 11.77539 24.11718a1.8372221 1.8372221 0 0 0 2.02929 1.48828l34.30469-4.19531a1.8372221 1.8372221 0 0 0 1.58594 -2.14844c-3.12134-17.33762-10.89126-31.02158-23.23828-40.73046-10.30482-8.10245-26.38279-13.23023-43.46485-15.78907v-10.49218a16.963055 16.963055 0 0 0 -17.21679 -17.20118zm-16.70703 54.89844v70.00195c-8.8845-3.00186-16.1413-6.79179-21.62696-11.39843-6.93824-5.82609-10.35162-13.59207-10.35156-23.83789-0.00006-8.8544 3.29254-16.51252 10.10156-23.32227 5.32279-5.32315 12.62666-9.1223 21.87696-11.44336zm33.92382 109.81055c4.14246 1.26371 8.09819 2.57971 11.63868 3.96875 6.78753 2.66294 12.19893 5.59943 14.98437 8.41601 5.94475 6.01167 8.91586 13.86214 8.91602 23.95313-0.00016 11.48214-3.91743 20.75385-11.89453 28.2539-5.49187 5.16332-14.43449 9.01022-23.64454 11.4043v-75.99609z"
                fill="#fff"/>
            <path
                opacity=".75"
                d="m77.1085 57.959618c-4.63871 0.00017-9.25119 1.907441-12.53125 5.1875-3.28007 3.28007-5.18733 7.89254-5.1875 12.53125v306.53125c0.00017 4.63871 1.90743 9.25118 5.1875 12.53125 3.28006 3.28006 7.89254 5.18733 12.53125 5.1875h44.84375c4.63871-0.00017 9.25118-1.90744 12.53125-5.1875 3.28006-3.28007 5.18733-7.89254 5.1875-12.53125v-154.46875c-22.41541 6.88237-49.3011 0.78606-63.78125-18.25-21.96066-26.26887-10.75534-72.68933 21.625-84.9375 14.04957-3.25379 28.10405-6.47794 42.15625-9.71875v-39.156252c-0.00017-4.63871-1.90744-9.25118-5.1875-12.53125-3.28007-3.280059-7.89254-5.187329-12.53125-5.1875h-44.84375zm376.5 143c-3.72291-0.002-7.42414 1.52961-10.05664 4.16211s-4.16376 6.33373-4.16211 10.05664v170.53125c-0.002 3.72291 1.52961 7.42219 4.16211 10.05469s6.33373 4.16571 10.05664 4.16406h51.84375c3.72291 0.002 7.42414-1.53156 10.05664-4.16406s4.16376-6.33178 4.16211-10.05469v-170.53125c0.002-3.72291-1.52961-7.42414-4.16211-10.05664s-6.33373-4.16376-10.05664-4.16211h-51.84375z"
                fill="#fff"/>
        </symbol>
    </defs>
</svg>
