<svg xmlns="http://www.w3.org/2000/svg" xmlns:rdf="http://www.w3.org/1999/02/22-rdf-syntax-ns#" xmlns:dc="http://purl.org/dc/elements/1.1/" xmlns:cc="http://creativecommons.org/ns#" version="1.1" style="fill:black;stroke:none">
    <title>SJJB Map Icons [Power Set]</title>
    <desc>These map icons are an attempt to create a simple consistent set of vector icons suitable for cartographic use.</desc>
    <metadata>
        <rdf:RDF>
            <cc:Work rdf:about="">
                <dc:format>image/svg+xml</dc:format>
                <dc:type rdf:resource="http://purl.org/dc/dcmitype/StillImage"/>
                <dc:title>SJJB Map Icons [Power Set]</dc:title>
                <dc:date>2017-01-07</dc:date>
                <dc:creator>
                    <cc:Agent>
                        <dc:title>SJJB Management</dc:title>
                    </cc:Agent>
                </dc:creator>
                <dc:rights>
                    <cc:Agent>
                        <dc:title>Map icons CC-0 from SJJB Management</dc:title>
                    </cc:Agent>
                </dc:rights>
                <dc:language>English</dc:language>

                <dc:source>http://www.sjjb.co.uk/mapicons/introduction</dc:source>
                <dc:description>These map icons are an attempt to create a simple consistent set of vector icons suitable for cartographic use.</dc:description>
            </cc:Work>
        </rdf:RDF>
    </metadata>

    <defs>
        <symbol id="station_coal" viewBox="0 0 438.65705 488.92938">
            <title>station_coal</title>
            <path
                d="m29.05938 142.36688a5.0005 5.0005 0 0 0 -5.03711 5.47266c10.16824 106.9599 2.63072 209.53927-23.914058 335.05468a5.0005 5.0005 0 0 0 4.892578 6.03516h32 160.125 32a5.0005 5.0005 0 0 0 2.4707 -0.65625h202.87696a4.1848347 4.1848347 0 0 0 4.18359 -4.18359v-120.63282a4.1848347 4.1848347 0 0 0 -4.18359 -4.18359h-221.28321c-8.81031-73.67366-9.72256-141.62282-3.08593-211.43359a5.0005 5.0005 0 0 0 -6.98047 -5.05469c-32.09946 14.02635-60.06498 12.1199-86.06055 13.98437-25.99557-1.86447-53.96109 0.042-86.06055-13.98437a5.0005 5.0005 0 0 0 -1.94336 -0.41797z"/>
            <path
                opacity=".4"
                d="m136.85017 9.4277179c-22.00326-3.436701-28.0807 12.785799-27.97827 18.04867-5.32997-8.089035-24.5936 15.148323-17.91034 21.462271-0.7794 0.613341-1.366 1.258416-1.74592 1.917349-13.89092 9.78924-6.34037 9.301568-5.71389 16.431828-3.47451 4.09351-6.57275 5.93636-1.84459 15.96064-1.87493 5.57785-3.41485 8.9053 2.19713 13.7545-2.92822 3.749604-7.35452 5.779624-4.31745 10.665174 0.0174 0.13886 0.0386 0.2773 0.0636 0.41527-1.95957 1.85611-3.03539 4.03208-3.04032 6.17496 6.55571 19.80606 71.8174 11.69855 72.2113 8.2555 4.02723-0.86113 3.38093-7.77632 2.69151-8.64412 15.6607 1.44171 25.01994-4.12398 26.65434-16.851094 0.94187-1.17462 1.47943-2.25955 1.57641-3.24705 17.19926 1.06953 20.93567-9.45181 22.50918-13.92515 0.0611-0.12501 0.11452-0.24883 0.16143-0.37162 7.05666 5.91637 33.29443 4.7897 37.31051-4.33224 15.70952 1.09653 22.329-5.53437 21.47046-15.530929 0.29615-0.917348 0.62766-1.881493 0.88781-2.808391 6.56062-2.916305 8.98225-10.845485 5.6124-17.223469 4.27371-4.691159-2.87778-8.756072-4.63497-9.977797-1.88-11.509791-7.89536-13.617398-18.28921-12.037347-5.41053-8.9636791-22.05149-5.546813-26.1589-2.808025-4.28734-6.5547191-11.1206-14.606341-29.93219-11.36472-6.68009-5.796758-13.66985-3.466067-17.91327 1.760417-4.34369-7.134247-11.88059-5.439126-17.25209-0.104602-4.60492-5.423762-12.89111-2.735391-16.6149 4.380037z"/>
        </symbol>
        <symbol id="station_gas" viewBox="0 0 394.49622 517.20899">
            <title>station_gas</title>
            <path
                opacity=".1"
                d="m84.836027 5.856993c-10.80773 76.359075-45.09298 77.055125-48.8522 116.52688-3.77609 39.64877 36.56723 64.10915 43.21262 65.77082 0 0-18.95202-21.91604-17.17009-40.62632 1.23393-12.95625 6.56627-17.6464 16.63131-31.82575 7.23396-10.19102 15.40314-24.175282 21.408743-44.829088 21.37225 18.711476 30.53726 29.599008 34.80719 52.192818 4.26995 22.59387-13.36251 63.22023-13.36251 63.22023 63.77562-48.07193 47.43739-121.45689-36.675063-180.42958z"/>
            <path
                opacity=".2"
                d="m79.196447 188.15469s-18.95202-21.91604-17.17009-40.62632c1.23393-12.95625 6.56627-17.6464 16.63131-31.82575 7.23396-10.19102 15.40314-24.175292 21.408743-44.829093 21.37225 18.711481 30.53726 29.599003 34.80719 52.192823 4.26995 22.59386-13.36251 63.22023-13.36251 63.22023-15.24995 10.83433-25.510263 6.63227-42.314643 1.86811z"/>
            <path
                d="m82.295047 0-0.76367 5.388672c-5.33545 37.696128-16.23376 56.178756-26.48633 70.634766-10.25257 14.45602-20.4126 25.357722-22.38281 46.044922-2.00053 21.00546 7.71654 37.98992 18.57226 49.7129 5.42786 5.86149 11.15862 10.46061 16.00782 13.73632 4.84919 3.27571 8.3849 5.18496 11.14453 5.875l10.23437 2.5586-6.90039-7.97852s-4.54134-5.25616-8.88867-12.7832-8.25782-17.22258-7.48438-25.34375c0.57756-6.06432 1.98419-9.79665 4.54297-14.05078s6.39528-8.98528 11.48828-16.16016c6.74845-9.50704 14.26079-22.614812 20.189463-40.828122 18.2114 16.31382 26.16184 26.435392 30.02539 46.878902 1.91156 10.11476-1.18564 25.73653-4.99805 38.50977-3.81241 12.77323-8.14648 22.76172-8.14648 22.76172l-5.04102 11.61523 10.11133-7.62109c32.64897-24.60971 45.2556-56.5507 38.37891-89.474612-6.8767-32.923917-32.64068-66.550009-75.146493-96.351568l-4.45703-3.125zm4.91211 11.800781c38.902013 28.343918 62.012493 59.616846 68.158203 89.041019 5.66463 27.12083-2.56087 52.84381-26.26953 74.70313 1.2744-3.54537 2.54623-6.92399 3.89453-11.44141 3.93633-13.18841 7.5205-29.17714 5.16211-41.65625-4.3954-23.257762-14.38947-35.261362-35.88867-54.083989l-3.939453-3.449219-1.46289 5.027344c-5.89183 20.262522-13.83948 33.847084-20.92578 43.830084-4.97204 7.00447-8.8335 11.70719-11.76563 16.58203-2.93213 4.87485-4.80847 9.96744-5.46484 16.85938-1.00849 10.58911 3.66446 21.2059 8.34765 29.31445 0.22905 0.39658 0.41293 0.58797 0.64258 0.97266-3.7164-2.7767-7.68866-6.06653-11.56445-10.25196-10.03327-10.83482-18.59978-25.90356-16.82422-44.54687 1.78901-18.78454 10.64985-27.968642 21.18164-42.818362 10.0037-14.105123 20.95005-33.09906 26.71875-68.082037zm-59.82422 178.84571a4.7119227 4.7119227 0 0 0 -4.74609 5.1582c9.58142 100.78728 2.47773 197.44679-22.535159 315.71875a4.7119227 4.7119227 0 0 0 4.609379 5.68555h30.15429 132.03906 30.15235a4.7119227 4.7119227 0 0 0 2.32617 -0.61914h191.16992a3.9433293 3.9433293 0 0 0 3.94336 -3.94141v-113.66992a3.9433293 3.9433293 0 0 0 -3.94336 -3.94336h-208.51367c-8.30148-69.42142-9.15982-133.44891-2.90625-199.23047a4.7119227 4.7119227 0 0 0 -6.57812 -4.76367c-30.54947 13.34906-47.36589 11.43024-71.66993 13.17578-24.304033-1.74554-41.122393 0.17328-71.671873-13.17578a4.7119227 4.7119227 0 0 0 -1.83008 -0.39453z"/>
        </symbol>
        <symbol id="station_solar" viewBox="0 0 504.42743 512.16327">
            <title>station_solar</title>
            <path
                d="m347.55397 0.00113108a10.001 10.001 0 0 0 -9.84961 10.142578v47.853516a10.001 10.001 0 1 0 20 0v-47.853516a10.001 10.001 0 0 0 -10.15039 -10.142578zm-69.5625 16.507813a10.001 10.001 0 0 0 -8.83204 14.757812l22.16211 42.414063a10.001 10.001 0 1 0 17.72461 -9.263672l-22.16211-42.414063a10.001 10.001 0 0 0 -8.89257 -5.49414zm140.28711 1.736328a10.001 10.001 0 0 0 -8.59375 5.490234l-22.16211 42.414063a10.001 10.001 0 1 0 17.72656 9.261718l22.16211-42.414062a10.001 10.001 0 0 0 -9.13281 -14.751953zm-196.52344 51.005859a10.001 10.001 0 0 0 -4.80664 18.578126l40.71875 25.142583a10.001 10.001 0 1 0 10.50781 -17.017583l-40.71875-25.142579a10.001 10.001 0 0 0 -5.70117 -1.560547zm252.75781 1.72461a10.001 10.001 0 0 0 -5.39844 1.566406l-40.71875 25.14258a10.001 10.001 0 1 0 10.50782 17.017583l40.71875-25.142583a10.001 10.001 0 0 0 -5.10938 -18.583986zm-125.64648 11.751956c-39.95383 0-72.45118 32.497353-72.45118 72.451173 0 39.95383 32.49735 72.44922 72.45118 72.44922 39.95382 0 72.44922-32.49539 72.44922-72.44922 0-39.95382-32.4954-72.451173-72.44922-72.451173zm-98.74805 62.359383-47.85352 0.0918a10.001 10.001 0 1 0 0.0371 20l47.85547-0.0918a10.001 10.001 0 1 0 -0.0391 -20zm244.14844 0.98437-47.85352 0.0918a10.001 10.001 0 1 0 0.0371 20l47.85547-0.0918a10.001 10.001 0 1 0 -0.0391 -20zm-231.20117 50.64063a10.001 10.001 0 0 0 -5.39844 1.5664l-40.71875 25.14258a10.001 10.001 0 1 0 10.50781 17.01562l40.71875-25.14062a10.001 10.001 0 0 0 -5.10937 -18.58398zm170.13671 0.004a10.001 10.001 0 0 0 -4.80664 18.58008l40.71875 25.14062a10.001 10.001 0 1 0 10.50782 -17.01562l-40.71875-25.14258a10.001 10.001 0 0 0 -5.70118 -1.5625zm-36.84765 35.35938a10.001 10.001 0 0 0 -8.83203 14.75586l22.16211 42.41406a10.001 10.001 0 1 0 17.72656 -9.26172l-22.16211-42.41406a10.001 10.001 0 0 0 -8.89453 -5.49414zm-96.44141 0.004a10.001 10.001 0 0 0 -8.5918 5.49024l-22.16211 42.41386a10.001 10.001 0 1 0 17.72461 9.26172l22.16211-42.41406a10.001 10.001 0 0 0 -9.13281 -14.75196zm48.80274 7.03125a10.001 10.001 0 0 0 -9.81836 9.28516 10.001 10.001 0 0 0 -1.19336 4.85547v47.85547a10.001 10.001 0 0 0 19.9707 0.85547 10.001 10.001 0 0 0 1.19141 -4.85547v-47.85547a10.001 10.001 0 0 0 -10.15039 -10.14083zm-300.10547 120.94316c-6.18495-0.009-12.106888 4.46701-13.785156 10.41992l-6.541016 23.06055h61.716792l4.10156-33.48047h-45.49218zm69.367182 0-4.10351 33.48047h73.43359l2.2168-33.48047h-71.54688zm95.23633 0-2.21875 33.48047h69.92188l-2.21875-33.48047h-65.48438zm89.17383 0 2.2168 33.48047h73.43359l-4.10351-33.48047h-71.54688zm95.42188 0 4.10156 33.48047h61.7168l-6.54102-23.06055c-1.67827-5.95291-7.6002-10.42799-13.78516-10.41992h-45.49218zm-374.21875 52.40235-10.015625 35.47851h70.033202l4.35938-35.47851h-64.376957zm88.251959 0-4.36133 35.47851h76.38867l2.32813-35.47851h-74.35547zm98.04492 0-2.32812 35.47851h76.79296l-2.32812-35.47851h-72.13672zm95.82617 0 2.32813 35.47851h76.38867l-4.36133-35.47851h-74.35547zm98.23047 0 4.35938 35.47851h70.0332l-10.01563-35.47851h-64.37695zm-396.42969 56.76562-6.984375 24.72266c-1.20612 4.23593-0.324707 9.01356 2.328125 12.52929 2.652834 3.51572 7.015632 5.68695 11.419922 5.68946h61.457031l5.28515-42.94141h-73.505853zm97.343745 0-5.248042 42.94141h80.009762l2.84571-42.94141h-77.60743zm101.29688 0-2.8457 42.94141h85.29296l-2.8457-42.94141h-79.60156zm103.29101 0 2.84571 42.94141h80.00976l-5.24804-42.94141h-77.60743zm101.44532 0 5.28515 42.94141h61.45703c4.40428-0.002 8.7671-2.17374 11.41993-5.68946 2.65284-3.51573 3.53424-8.29336 2.32812-12.52929l-6.98437-24.72266h-73.50586z"/>
        </symbol>
        <symbol id="station_water" viewBox="0 0 522 385.97461">
            <title>station_water</title>
            <path
                opacity=".6"
                d="m0.00781 32.041024v35.04687h178.95117v-35.04687h-178.95117zm-0.0078 53.17773v35.062496h175.96875c0.99274-1.10931 1.95852-2.2494 3-3.3125v-31.749996h-178.96875zm231.31641 20.095696a3.9771285 3.9771285 0 0 0 -1.57227 0.28321l-18.30469 7.32226a3.9771285 3.9771285 0 0 0 -0.85156 0.46875l-21.9668 15.86524a3.9771285 3.9771285 0 0 0 -0.42382 6.09375l54.61132 52.32421a3.9771285 3.9771285 0 0 0 1.45899 0.88282 3.9771285 3.9771285 0 0 0 0.0898 1.41406l18.15235 72.1543a3.9771285 3.9771285 0 0 0 5.33398 2.72265l18.30469-7.32226a3.9771285 3.9771285 0 0 0 0.85156 -0.46875l21.9668-15.86328a3.9771285 3.9771285 0 0 0 0.42383 -6.09571l-54.61133-52.32422a3.9771285 3.9771285 0 0 0 -1.45899 -0.88281 3.9771285 3.9771285 0 0 0 -0.0898 -1.41406l-18.15234-72.1543a3.9771285 3.9771285 0 0 0 -3.76172 -3.00586zm-231.31642 33.0918v34.90625h151.75c0.31349-2.47394 0.63121-4.96192 1.125-7.375 0.65498-3.20079 1.4485-6.32699 2.40625-9.40625s2.06846-6.09 3.3125-9.03125 2.64239-5.80698 4.15625-8.59375c0.094-0.1731 0.21746-0.32753 0.3125-0.5h-163.0625zm0 53.03125v35.0625h159.78125c-0.37854-0.82943-0.83154-1.62716-1.1875-2.46875-1.24404-2.94125-2.35475-5.95199-3.3125-9.03125s-1.75127-6.20546-2.40625-9.40625-1.16427-6.47541-1.5-9.78125c-0.14642-1.44181-0.1353-2.91546-0.21875-4.375h-151.15625zm0 53.25v35.0625h178.96875v-25.1875c-1.96442-2.00519-3.86801-4.08316-5.65625-6.25-0.96158-1.16517-1.81071-2.41569-2.71875-3.625h-170.59375zm403.14648 49.02344c-7.24011 0-13.96825 1.60114-20.11914 4.48437-5.89461 2.62695-12.55719 4.23047-19.54101 4.23047-6.91976 0-13.52022-1.60352-19.54297-4.23047l7.17773 31.78125c3.97245 1.08922 8.1365 1.60156 12.36524 1.60157 7.0479 0 13.6464-1.47462 19.54101-4.10157 6.08681-2.88323 12.87903-4.48437 20.11914-4.48437 7.17604 0 13.9038 1.60114 20.05469 4.48437 5.89461 2.62695 12.62128 4.10156 19.54102 4.10157 6.91976 0 13.52022-1.47462 19.54297-4.10157 6.02275-2.88323 12.94272-4.48437 20.05468-4.48437 7.11197 0 13.96629 1.60114 20.11719 4.48437 5.8946 2.62695 12.55914 4.10156 19.54297 4.10157v-29.15235c-7.0479 0-13.64837-1.60352-19.54297-4.23047-6.08683-2.88323-12.94114-4.48437-20.11719-4.48437-7.17603 0-14.03193 1.60114-20.05468 4.48437-6.02275 2.62695-12.62321 4.23047-19.54297 4.23047-6.91974 0-13.64641-1.60352-19.54102-4.23047-6.15089-2.88323-12.94272-4.48437-20.05469-4.48437zm-403.13867 4.16601v35.04688h178.95117v-35.04688h-178.95117zm403.13867 49.58985c-7.24011 0-13.96825 1.60308-20.11914 4.48633-5.89461 2.62695-12.55719 4.22851-19.54101 4.22851-2.62695 0-5.25391-0.25696-7.88086-0.76953l6.72656 29.92187h1.1543c7.0479 0 13.6464-1.47462 19.54101-4.10156 6.08681-2.88323 12.87903-4.48437 20.11914-4.48437 7.17604 0 13.9038 1.60114 20.05469 4.48437 5.89461 2.62694 12.62128 4.10156 19.54102 4.10156 6.91976 0 13.52022-1.47462 19.54297-4.10156 6.02275-2.88323 12.94272-4.48437 20.05468-4.48437 7.11197 0 13.96629 1.60114 20.11719 4.48437 5.8946 2.62694 12.55914 4.10156 19.54297 4.10156v-29.15234c-7.0479 0-13.64837-1.60157-19.54297-4.22851-6.08683-2.88325-12.94114-4.48633-20.11719-4.48633-7.17603 0-14.03193 1.60308-20.05468 4.48633-6.02275 2.62695-12.62321 4.22851-19.54297 4.22851-6.91974 0-13.64641-1.60157-19.54102-4.22851-6.15089-2.88325-12.94272-4.48633-20.05469-4.48633zm-403.13867 3.46093v35.04688h178.95117v-35.04688h-178.95117z"/>
            <path
                d="m231.4375 0-28.78125 0.125v99.031254c2.69051-1.44923 5.44764-2.80148 8.28125-4 2.94125-1.24404 5.95199-2.35475 9.03125-3.3125s6.20546-1.75127 9.40625-2.40625 6.47541-1.16427 9.78125-1.5 6.66809-0.5 10.0625-0.5 6.72541 0.16427 10.03125 0.5 6.58046 0.84502 9.78125 1.5c0.0849 0.0174 0.16513 0.0449 0.25 0.0625l-17.90625-76.218754c-3.26766-7.752674-11.03152-13.28125-19.9375-13.28125zm17.76758 103.26367c-45.51471 0-82.50391 36.98921-82.50391 82.50391 0 45.51472 36.9892 82.5039 82.50391 82.5039s82.5039-36.98918 82.5039-82.5039c0-45.5147-36.98919-82.50391-82.5039-82.50391zm0 8.58203c40.87677 0 73.92187 33.04512 73.92187 73.92188 0 40.87678-33.0451 73.92187-73.92187 73.92187s-73.92188-33.04509-73.92188-73.92187c0-40.87676 33.04511-73.92188 73.92188-73.92188zm0 64.16602c-5.38171 0-9.75391 4.37415-9.75391 9.75586s4.3722 9.75586 9.75391 9.75586 9.75586-4.37415 9.75586-9.75586-4.37414-9.75586-9.75586-9.75586zm60.82617 86.92578c-1.91113 1.5087-3.82174 3.00895-5.84375 4.375-2.61581 1.76721-5.30698 3.42364-8.09375 4.9375s-5.68375 2.88096-8.625 4.125-5.95199 2.35475-9.03125 3.3125-6.20546 1.75127-9.40625 2.40625-6.47541 1.16427-9.78125 1.5-6.63684 0.5-10.03125 0.5-6.75666-0.16427-10.0625-0.5-6.58046-0.84502-9.78125-1.5-6.32699-1.4485-9.40625-2.40625-6.09-2.06846-9.03125-3.3125c-2.83346-1.19845-5.59088-2.51961-8.28125-3.96875v113.5h136.28125l-28.90625-122.96875z"/>
        </symbol>
        <symbol id="station_wind" viewBox="0 0 326.66086 521.1806">
            <title>station_wind</title>
            <path
                opacity=".8"
                d="m100.59251 146.39346a3.9433293 3.9433293 0 0 0 -3.939449 3.79492l-13.78125 365.9375a3.9433293 3.9433293 0 0 0 3.88281 4.0918c84.489559 1.2057 150.2346 0.9375 235.96289 0.9375a3.9433293 3.9433293 0 0 0 3.94336 -3.94336v-113.65625a3.9433293 3.9433293 0 0 0 -3.94336 -3.94336h-179.77344l-5.84765-249.36719a3.9433293 3.9433293 0 0 0 -3.94141 -3.85156h-32.5625z"/>
            <path
                d="m57.301491 0.00283086c-0.18684-0.01123-0.36527 0.01083-0.53125 0.06836-10.62233 3.681915 33.10692 146.54772 30.98438 157.5879-2.12254 11.04017-95.708782 127.50697-87.20898 134.86523 8.4997998 7.35826 110.36008-101.94504 120.98242-105.62695 10.62233-3.68192 158.2798 19.13392 160.40234 8.09375s-143.467-44.60464-151.9668-51.96289c-8.36699-7.24329-60.890629-142.31804-72.662109-143.0254z"/>
        </symbol>
        <symbol id="substation" viewBox="0 0 493.76172 442.84961">
            <title>substation</title>
            <path opacity=".25" d="m8.584491 8.343943h473.76155v422.84986h-473.76155z"/>
            <path
                d="m10 0.0000020000001a10.001 10.001 0 0 0 -10 10v422.84961a10.001 10.001 0 0 0 10 10h473.76172a10.001 10.001 0 0 0 10 -10v-422.84961a10.001 10.001 0 0 0 -10 -10h-473.76172zm10 20h453.76172v402.84961h-453.76172l0.000004-402.84961zm54.082036 27.923832c-0.0755 0-4.77307 0.00091-9.48829 0.002-2.35761 0.00031-4.716245-0.00052-6.492183 0-0.88797 0.00025-1.629233 0.002-2.154297 0.002-0.262532 0.00016-0.47116-0.00017-0.617188 0-0.07301 0.00009-0.130667-0.0001-0.173828 0-0.04316 0.0001 0.323865-0.0119-0.207031 0.002a6.0561824 6.0561824 0 1 0 0.314453 12.10743c-0.523658 0.0136-0.112683 0.002-0.07813 0.002 0.03457-0.00008 0.0895 0.00008 0.160157 0 0.141317-0.00017 0.348077 0.00015 0.609374 0 0.522593-0.00032 1.263054-0.002 2.150391-0.002 1.774667-0.0005 4.132952-0.002 6.490232-0.002 4.71458-0.00062 9.44548 0 9.48633 0 5.89463 0 10.54296 4.64835 10.54296 10.54297 0 5.89463-4.64834 10.54297-10.54296 10.54297-0.047 0-0.12849 0.00014-0.24414-0.002a6.0561824 6.0561824 0 0 0 -6.23633 6.22851 6.0561824 6.0561824 0 0 0 6.28906 6.14844c0.0459-0.001 0.10972-0.002 0.19142-0.002 5.89462 0 10.54296 4.64836 10.54296 10.542966 0 5.89464-4.64833 10.54492-10.54296 10.54492-0.047 0-0.1285-0.002-0.24414-0.004a6.0561824 6.0561824 0 0 0 -6.23243 6.30469 6.0561824 6.0561824 0 0 0 6.28516 6.41797c0.0459-0.001 0.10972-0.002 0.19141-0.002 5.89462 0 10.54296 4.64835 10.54296 10.54296 0 5.89463-4.64833 10.54297-10.54296 10.54297-0.047 0-0.1285 0.00015-0.24414-0.002a6.0561824 6.0561824 0 0 0 -6.23633 6.22852 6.0561824 6.0561824 0 0 0 6.28906 6.14843c0.0459-0.001 0.10972-0.002 0.19141-0.002 5.89462 0 10.54296 4.65031 10.54296 10.54492 0 5.89463-4.64833 10.54297-10.54296 10.54297l-9.48633-0.002c-2.35734-0.00038-4.715355-0.00092-6.490242-0.002-0.887443-0.00023-1.629336 0.00025-2.152344 0-0.261504-0.00012-0.467267 0.00013-0.609375 0-0.142107-0.00012-0.8261-0.012-0.132812 0a6.0561824 6.0561824 0 1 0 -0.208984 12.10938c0.707764 0.0122 0.184842 0.002 0.330078 0.002 0.145235 0.00013 0.35291-0.00012 0.615234 0 0.524649 0.00025 1.268386-0.00023 2.15625 0 1.77573 0.00047 4.132675 0.002 6.490235 0.002 4.71511 0.00075 9.39541 0.002 9.48829 0.002 12.43998 0 22.65429-10.21433 22.65429-22.6543 0-6.63348-2.95714-12.57392-7.55469-16.73047 4.59755-4.15655 7.55469-10.09698 7.55469-16.73047 0-6.73022-3.04925-12.74001-7.76367-16.90234 4.71424-4.16233 7.76367-10.17225 7.76367-16.90234 0-6.633146-2.95755-12.571986-7.55469-16.728516 4.59755-4.15655 7.55469-10.09698 7.55469-16.73047 0-12.43997-10.21431-22.65429-22.65429-22.65429zm104.11914 0c-12.43997 0-22.6543 10.21432-22.6543 22.65429 0 6.63349 2.95716 12.57392 7.55469 16.73047-4.59714 4.15653-7.55469 10.09538-7.55469 16.728516 0 6.73008 3.04942 12.74001 7.76367 16.90234-4.71443 4.16233-7.76367 10.17212-7.76367 16.90234 0 6.63349 2.95716 12.57392 7.55469 16.73047-4.59753 4.15655-7.55469 10.09699-7.55469 16.73047 0 12.43997 10.21433 22.6543 22.6543 22.6543 0.0929 0 4.77511-0.00091 9.49023-0.002 2.35755-0.00037 4.71451-0.00091 6.49023-0.002 0.88786-0.00023 1.62965 0.00025 2.1543 0 0.26232-0.00012 0.47001 0.00013 0.61524 0 0.14524-0.00013-0.37761 0.0104 0.33007-0.002a6.0561824 6.0561824 0 1 0 -0.20898 -12.10938c0.69319-0.012 0.0112-0.00012-0.13086 0-0.14211 0.00013-0.34983-0.00012-0.61133 0-0.52301 0.00025-1.26489-0.00023-2.15234 0-1.77488 0.00047-4.13094 0.002-6.48828 0.002-4.71468 0.00075-9.46478 0.002-9.48828 0.002-5.89462 0-10.54297-4.64834-10.54297-10.54297 0-5.89461 4.64835-10.54492 10.54297-10.54492 0.0817 0 0.14548 0.00066 0.1914 0.002a6.0561824 6.0561824 0 0 0 6.29102 -6.19726 6.0561824 6.0561824 0 0 0 -6.23828 -6.17969c-0.11564 0.002-0.19714 0.002-0.24414 0.002-5.89462 0-10.54297-4.64834-10.54297-10.54297 0-5.89461 4.64835-10.54296 10.54297-10.54296 0.0817 0 0.14548 0.00068 0.1914 0.002a6.0561824 6.0561824 0 0 0 6.28711 -6.3125 6.0561824 6.0561824 0 0 0 -6.23437 -6.41016c-0.11564 0.002-0.19714 0.004-0.24414 0.004-5.89462 0-10.54297-4.65029-10.54297-10.54492 0-5.894606 4.64835-10.542966 10.54297-10.542966 0.0817 0 0.14548 0.00066 0.1914 0.002a6.0561824 6.0561824 0 0 0 6.29102 -6.19726 6.0561824 6.0561824 0 0 0 -6.23828 -6.17969c-0.11564 0.002-0.19714 0.002-0.24414 0.002-5.89462 0-10.54297-4.64834-10.54297-10.54297 0-5.89462 4.64835-10.54297 10.54297-10.54297 0.0409 0 4.77371-0.00062 9.48828 0 2.35729 0.00031 4.71361 0.00091 6.48828 0.002 0.88734 0.00026 1.62974 0.004 2.15234 0.004 0.26129 0.00015 0.46807-0.00017 0.60938 0 0.0707 0.00008 0.12558-0.00008 0.16015 0 0.0346 0.00008 0.44542 0.01-0.0781-0.004a6.0561824 6.0561824 0 1 0 0.3125 -12.10743c-0.53083-0.0137-0.16387-0.002-0.20703-0.002-0.0432-0.0001-0.10081 0.00009-0.17383 0-0.14602-0.00017-0.35271 0.00016-0.61523 0-0.52506-0.00032-1.26829-0.002-2.15626-0.002-1.77593-0.00052-4.13263 0.00031-6.49023 0-4.71522-0.00063-9.41469-0.002-9.49023-0.002zm-64.14649 1.48632a6.0561824 6.0561824 0 0 0 -5.96484 6.14063v131.71484a6.0561824 6.0561824 0 1 0 12.11133 0v-131.71484a6.0561824 6.0561824 0 0 0 -6.14649 -6.14063zm25.35156 0a6.0561824 6.0561824 0 0 0 -5.96484 6.14063v131.71484a6.0561824 6.0561824 0 1 0 12.11133 0v-131.71484a6.0561824 6.0561824 0 0 0 -6.14649 -6.14063zm172.67579 2.51368c-0.0755 0-4.77307 0.00091-9.48829 0.002-2.35761 0.00031-4.71624-0.00052-6.49218 0-0.88797 0.00025-1.62925 0.002-2.1543 0.002-0.26255 0.00016-0.47116-0.00017-0.61719 0-0.073 0.00009-0.13067-0.0001-0.17383 0-0.0432 0.0001 0.3238-0.0119-0.20703 0.002a6.0561824 6.0561824 0 1 0 0.31446 12.10743c-0.52359 0.0136-0.11274 0.002-0.0781 0.002 0.0346-0.00008 0.0895 0.00008 0.16016 0 0.14132-0.00017 0.34807 0.00015 0.60937 0 0.52259-0.00032 1.26305-0.002 2.15039-0.002 1.77467-0.0005 4.13295-0.002 6.49024-0.002 4.71458-0.00062 9.44548 0 9.48633 0 5.89463 0 10.54296 4.64835 10.54296 10.54297 0 5.89461-4.64834 10.54297-10.54296 10.54297-0.047 0-0.1285 0.00014-0.24414-0.002a6.0561824 6.0561824 0 0 0 -6.23633 6.22851 6.0561824 6.0561824 0 0 0 6.28906 6.14844c0.0459-0.001 0.10971-0.002 0.19141-0.002 5.89463 0 10.54296 4.648346 10.54296 10.542966 0 5.89463-4.64834 10.54492-10.54296 10.54492-0.047 0-0.1285-0.002-0.24414-0.004a6.0561824 6.0561824 0 0 0 -6.23243 6.30469 6.0561824 6.0561824 0 0 0 6.28516 6.41797c0.0459-0.001 0.10971-0.002 0.19141-0.002 5.89463 0 10.54296 4.64834 10.54296 10.54296 0 5.89461-4.64834 10.54297-10.54296 10.54297-0.047 0-0.1285 0.00015-0.24414-0.002a6.0561824 6.0561824 0 0 0 -6.23633 6.22852 6.0561824 6.0561824 0 0 0 6.28906 6.14843c0.0459-0.001 0.10971-0.002 0.19141-0.002 5.89463 0 10.54296 4.65029 10.54296 10.54492s-4.64833 10.54297-10.54296 10.54297l-9.48633-0.002c-2.35734-0.00038-4.71536-0.00092-6.49024-0.002-0.88745-0.00023-1.62933 0.00025-2.15234 0-0.2615-0.00012-0.46727 0.00013-0.60938 0-0.14211-0.00012-0.82601-0.012-0.13281 0a6.0561824 6.0561824 0 1 0 -0.20898 12.10938c0.70768 0.0122 0.18484 0.002 0.33008 0.002 0.14524 0.00013 0.3529-0.00012 0.61523 0 0.52463 0.00025 1.26839-0.00023 2.15625 0 1.77574 0.00047 4.13267 0.002 6.49023 0.002 4.71511 0.00075 9.39541 0.002 9.48829 0.002 12.43998 0 22.65429-10.21433 22.65429-22.6543 0-6.63349-2.95715-12.57392-7.55469-16.73047 4.59754-4.15655 7.55469-10.09698 7.55469-16.73047 0-6.73022-3.04925-12.74001-7.76367-16.90234 4.71424-4.16233 7.76367-10.17226 7.76367-16.90234 0-6.63315-2.95755-12.571996-7.55469-16.728516 4.59754-4.15655 7.55469-10.09699 7.55469-16.73047 0-12.43997-10.21431-22.65429-22.65429-22.65429zm104.11914 0c-12.43997 0-22.6543 10.21432-22.6543 22.65429 0 6.63348 2.95716 12.57392 7.55469 16.73047-4.59714 4.15652-7.55469 10.095376-7.55469 16.728516 0 6.73008 3.04942 12.74001 7.76367 16.90234-4.71443 4.16233-7.76367 10.17212-7.76367 16.90234 0 6.63349 2.95716 12.57392 7.55469 16.73047-4.59753 4.15655-7.55469 10.09698-7.55469 16.73047 0 12.43997 10.21433 22.6543 22.6543 22.6543 0.0929 0 4.77512-0.00091 9.49023-0.002 2.35755-0.00037 4.7145-0.00091 6.49023-0.002 0.88786-0.00023 1.62965 0.00025 2.1543 0 0.26232-0.00012 0.47001 0.00013 0.61524 0 0.14524-0.00013-0.37761 0.0104 0.33007-0.002a6.0561824 6.0561824 0 1 0 -0.20898 -12.10938c0.69319-0.012 0.0112-0.00012-0.13086 0-0.14211 0.00013-0.34983-0.00012-0.61133 0-0.52301 0.00025-1.26489-0.00023-2.15234 0-1.77488 0.00047-4.13094 0.002-6.48828 0.002-4.71468 0.00075-9.46478 0.002-9.48828 0.002-5.89462 0-10.54297-4.64834-10.54297-10.54297s4.64835-10.54492 10.54297-10.54492c0.0817 0 0.14551 0.00066 0.1914 0.002a6.0561824 6.0561824 0 0 0 6.29102 -6.19726 6.0561824 6.0561824 0 0 0 -6.23828 -6.17969c-0.11563 0.002-0.19714 0.002-0.24414 0.002-5.89462 0-10.54297-4.64836-10.54297-10.54297 0-5.89462 4.64835-10.54296 10.54297-10.54296 0.0817 0 0.14551 0.00068 0.1914 0.002a6.0561824 6.0561824 0 0 0 6.28711 -6.3125 6.0561824 6.0561824 0 0 0 -6.23437 -6.41016c-0.11563 0.002-0.19714 0.004-0.24414 0.004-5.89462 0-10.54297-4.65029-10.54297-10.54492 0-5.89462 4.64835-10.542966 10.54297-10.542966 0.0817 0 0.14551 0.00066 0.1914 0.002a6.0561824 6.0561824 0 0 0 6.29102 -6.19726 6.0561824 6.0561824 0 0 0 -6.23828 -6.17969c-0.11563 0.002-0.19714 0.002-0.24414 0.002-5.89462 0-10.54297-4.64836-10.54297-10.54297 0-5.89462 4.64835-10.54297 10.54297-10.54297 0.0409 0 4.77371-0.00062 9.48828 0 2.35729 0.00031 4.71361 0.00091 6.48828 0.002 0.88734 0.00026 1.62974 0.004 2.15234 0.004 0.26129 0.00015 0.46807-0.00017 0.60938 0 0.0707 0.00008 0.12558-0.00008 0.16015 0 0.0346 0.00008 0.44356 0.01-0.0801-0.004a6.0561824 6.0561824 0 1 0 0.31445 -12.10743c-0.53083-0.0137-0.16387-0.002-0.20703-0.002-0.0432-0.0001-0.10081 0.00009-0.17383 0-0.14602-0.00017-0.35271 0.00016-0.61523 0-0.52506-0.00032-1.26828-0.002-2.15626-0.002-1.77593-0.00052-4.13263 0.00031-6.49023 0-4.71522-0.00063-9.41469-0.002-9.49023-0.002zm-64.14649 1.48632a6.0561824 6.0561824 0 0 0 -5.96484 6.14063v131.71484a6.0561824 6.0561824 0 1 0 12.11133 0v-131.71484a6.0561824 6.0561824 0 0 0 -6.14649 -6.14063zm25.35156 0a6.0561824 6.0561824 0 0 0 -5.96484 6.14063v131.71484a6.0561824 6.0561824 0 1 0 12.11133 0v-131.71484a6.0561824 6.0561824 0 0 0 -6.14649 -6.14063zm-303.32421 194.51368c-0.0755 0-4.77307 0.00091-9.48829 0.002-2.35761 0.00031-4.716245-0.00052-6.492183 0-0.88797 0.00025-1.629233 0.002-2.154297 0.002-0.262532 0.00016-0.47116-0.00017-0.617188 0-0.07301 0.00009-0.130667-0.0001-0.173828 0-0.04316 0.0001 0.323865-0.0118-0.207031 0.002a6.0561824 6.0561824 0 1 0 0.314453 12.10743c-0.523658 0.0136-0.112683 0.002-0.07813 0.002 0.03457-0.00008 0.0895 0.00008 0.160157 0 0.141317-0.00017 0.348077 0.00015 0.609374 0 0.522593-0.00032 1.263054-0.002 2.150391-0.002 1.774667-0.00051 4.132952-0.002 6.490232-0.002 4.71458-0.00062 9.44548 0 9.48633 0 5.89463 0 10.54296 4.64835 10.54296 10.54297 0 5.89461-4.64834 10.54297-10.54296 10.54297-0.047 0-0.12849 0.00014-0.24414-0.002a6.0561824 6.0561824 0 0 0 -6.23633 6.22851 6.0561824 6.0561824 0 0 0 6.28906 6.14844c0.0459-0.001 0.10972-0.002 0.19142-0.002 5.89463 0 10.54296 4.64835 10.54296 10.54297s-4.64834 10.54492-10.54296 10.54492c-0.047 0-0.1285-0.002-0.24414-0.004a6.0561824 6.0561824 0 0 0 -6.23243 6.30469 6.0561824 6.0561824 0 0 0 6.28516 6.41797c0.0459-0.001 0.10972-0.002 0.19141-0.002 5.89463 0 10.54296 4.64834 10.54296 10.54296 0 5.89461-4.64834 10.54297-10.54296 10.54297-0.047 0-0.1285 0.00015-0.24414-0.002a6.0561824 6.0561824 0 0 0 -6.23633 6.22852 6.0561824 6.0561824 0 0 0 6.28906 6.14843c0.0459-0.001 0.10972-0.002 0.19141-0.002 5.89463 0 10.54296 4.65029 10.54296 10.54492s-4.64833 10.54297-10.54296 10.54297l-9.48633-0.002c-2.35734-0.00038-4.715355-0.00092-6.490242-0.002-0.887443-0.00023-1.629336 0.00025-2.152344 0-0.261504-0.00012-0.467267 0.00013-0.609375 0-0.142107-0.00012-0.8261-0.012-0.132812 0a6.0561824 6.0561824 0 1 0 -0.208984 12.10938c0.707764 0.0122 0.184842 0.002 0.330078 0.002 0.145235 0.00013 0.35291-0.00012 0.615234 0 0.524649 0.00025 1.268386-0.00023 2.15625 0 1.77573 0.00047 4.132675 0.002 6.490235 0.002 4.71511 0.00075 9.39541 0.002 9.48829 0.002 12.43998 0 22.65429-10.21433 22.65429-22.6543 0-6.63349-2.95714-12.57392-7.55469-16.73047 4.59755-4.15655 7.55469-10.09698 7.55469-16.73047 0-6.73022-3.04925-12.74001-7.76367-16.90234 4.71424-4.16233 7.76367-10.17225 7.76367-16.90234 0-6.63315-2.95755-12.572-7.55469-16.72852 4.59755-4.15655 7.55469-10.09699 7.55469-16.73047 0-12.43997-10.21431-22.65429-22.65429-22.65429zm104.11914 0c-12.43997 0-22.6543 10.21432-22.6543 22.65429 0 6.63348 2.95716 12.57392 7.55469 16.73047-4.59714 4.15652-7.55469 10.09537-7.55469 16.72852 0 6.73008 3.04942 12.74001 7.76367 16.90234-4.71443 4.16233-7.76367 10.17212-7.76367 16.90234 0 6.63349 2.95716 12.57392 7.55469 16.73047-4.59753 4.15655-7.55469 10.09698-7.55469 16.73047 0 12.43997 10.21433 22.6543 22.6543 22.6543 0.0929 0 4.77511-0.00091 9.49023-0.002 2.35755-0.00037 4.71451-0.00091 6.49023-0.002 0.88786-0.00023 1.62965 0.00025 2.1543 0 0.26232-0.00012 0.47001 0.00013 0.61524 0 0.14524-0.00013-0.37761 0.0104 0.33007-0.002a6.0561824 6.0561824 0 1 0 -0.20898 -12.10938c0.69319-0.012 0.0112-0.00012-0.13086 0-0.14211 0.00013-0.34983-0.00012-0.61133 0-0.52301 0.00025-1.26489-0.00023-2.15234 0-1.77488 0.00047-4.13094 0.002-6.48828 0.002-4.71468 0.00075-9.46478 0.002-9.48828 0.002-5.89462 0-10.54297-4.64834-10.54297-10.54297s4.64835-10.54492 10.54297-10.54492c0.0817 0 0.14548 0.00066 0.1914 0.002a6.0561824 6.0561824 0 0 0 6.29102 -6.19726 6.0561824 6.0561824 0 0 0 -6.23828 -6.17969c-0.11564 0.002-0.19714 0.002-0.24414 0.002-5.89462 0-10.54297-4.64836-10.54297-10.54297 0-5.89462 4.64835-10.54296 10.54297-10.54296 0.0817 0 0.14548 0.00068 0.1914 0.002a6.0561824 6.0561824 0 0 0 6.28711 -6.3125 6.0561824 6.0561824 0 0 0 -6.23437 -6.41016c-0.11564 0.002-0.19714 0.004-0.24414 0.004-5.89462 0-10.54297-4.65029-10.54297-10.54492 0-5.89461 4.64835-10.54297 10.54297-10.54297 0.0817 0 0.14548 0.00066 0.1914 0.002a6.0561824 6.0561824 0 0 0 6.29102 -6.19726 6.0561824 6.0561824 0 0 0 -6.23828 -6.17969c-0.11564 0.002-0.19714 0.002-0.24414 0.002-5.89462 0-10.54297-4.64836-10.54297-10.54297 0-5.89462 4.64835-10.54297 10.54297-10.54297 0.0409 0 4.77371-0.00062 9.48828 0 2.35729 0.00031 4.71361 0.00092 6.48828 0.002 0.88734 0.00027 1.62974 0.004 2.15234 0.004 0.26129 0.00015 0.46807-0.00017 0.60938 0 0.0707 0.00008 0.12558-0.00008 0.16015 0 0.0346 0.00008 0.44542 0.01-0.0781-0.004a6.0561824 6.0561824 0 1 0 0.3125 -12.10743c-0.53083-0.0138-0.16387-0.002-0.20703-0.002-0.0432-0.0001-0.10081 0.00009-0.17383 0-0.14602-0.00017-0.35271 0.00016-0.61523 0-0.52506-0.00032-1.26829-0.002-2.15626-0.002-1.77593-0.00052-4.13263 0.00031-6.49023 0-4.71522-0.00063-9.41469-0.002-9.49023-0.002zm133.88086 0c-0.0755 0-4.77307 0.00091-9.48829 0.002-2.35761 0.00031-4.71624-0.00052-6.49218 0-0.88797 0.00025-1.62925 0.002-2.1543 0.002-0.26255 0.00016-0.47116-0.00017-0.61719 0-0.073 0.00009-0.13067-0.0001-0.17383 0-0.0432 0.0001 0.3238-0.0118-0.20703 0.002a6.0561824 6.0561824 0 1 0 0.31446 12.10743c-0.52359 0.0136-0.11274 0.002-0.0781 0.002 0.0346-0.00008 0.0895 0.00008 0.16016 0 0.14132-0.00017 0.34807 0.00015 0.60937 0 0.52259-0.00032 1.26305-0.002 2.15039-0.002 1.77467-0.00051 4.13295-0.002 6.49024-0.002 4.71458-0.00062 9.44548 0 9.48633 0 5.89463 0 10.54296 4.64835 10.54296 10.54297 0 5.89461-4.64834 10.54297-10.54296 10.54297-0.047 0-0.1285 0.00014-0.24414-0.002a6.0561824 6.0561824 0 0 0 -6.23633 6.22851 6.0561824 6.0561824 0 0 0 6.28906 6.14844c0.0459-0.001 0.10971-0.002 0.19141-0.002 5.89463 0 10.54296 4.64835 10.54296 10.54297s-4.64834 10.54492-10.54296 10.54492c-0.047 0-0.1285-0.002-0.24414-0.004a6.0561824 6.0561824 0 0 0 -6.23243 6.30469 6.0561824 6.0561824 0 0 0 6.28516 6.41797c0.0459-0.001 0.10971-0.002 0.19141-0.002 5.89463 0 10.54296 4.64834 10.54296 10.54296 0 5.89461-4.64834 10.54297-10.54296 10.54297-0.047 0-0.1285 0.00015-0.24414-0.002a6.0561824 6.0561824 0 0 0 -6.23633 6.22852 6.0561824 6.0561824 0 0 0 6.28906 6.14843c0.0459-0.001 0.10971-0.002 0.19141-0.002 5.89463 0 10.54296 4.65029 10.54296 10.54492s-4.64833 10.54297-10.54296 10.54297l-9.48633-0.002c-2.35734-0.00038-4.71536-0.00092-6.49024-0.002-0.88745-0.00023-1.62933 0.00025-2.15234 0-0.2615-0.00012-0.46727 0.00013-0.60938 0-0.14211-0.00012-0.82601-0.012-0.13281 0a6.0561824 6.0561824 0 1 0 -0.20898 12.10938c0.70768 0.0122 0.18484 0.002 0.33008 0.002 0.14524 0.00013 0.3529-0.00012 0.61523 0 0.52463 0.00025 1.26839-0.00023 2.15625 0 1.77574 0.00047 4.13267 0.002 6.49023 0.002 4.71511 0.00075 9.39541 0.002 9.48829 0.002 12.43998 0 22.65429-10.21433 22.65429-22.6543 0-6.63349-2.95715-12.57392-7.55469-16.73047 4.59754-4.15655 7.55469-10.09698 7.55469-16.73047 0-6.73022-3.04925-12.74001-7.76367-16.90234 4.71424-4.16233 7.76367-10.17225 7.76367-16.90234 0-6.63315-2.95755-12.572-7.55469-16.72852 4.59754-4.15655 7.55469-10.09699 7.55469-16.73047 0-12.43997-10.21431-22.65429-22.65429-22.65429zm104.11914 0c-12.43997 0-22.6543 10.21432-22.6543 22.65429 0 6.63348 2.95716 12.57392 7.55469 16.73047-4.59714 4.15652-7.55469 10.09537-7.55469 16.72852 0 6.73008 3.04942 12.74001 7.76367 16.90234-4.71443 4.16233-7.76367 10.17212-7.76367 16.90234 0 6.63349 2.95716 12.57392 7.55469 16.73047-4.59753 4.15655-7.55469 10.09698-7.55469 16.73047 0 12.43997 10.21433 22.6543 22.6543 22.6543 0.0929 0 4.77512-0.00091 9.49023-0.002 2.35755-0.00037 4.7145-0.00091 6.49023-0.002 0.88786-0.00023 1.62965 0.00025 2.1543 0 0.26232-0.00012 0.47001 0.00013 0.61524 0 0.14524-0.00013-0.37761 0.0104 0.33007-0.002a6.0561824 6.0561824 0 1 0 -0.20898 -12.10938c0.69319-0.012 0.0112-0.00012-0.13086 0-0.14211 0.00013-0.34983-0.00012-0.61133 0-0.52301 0.00025-1.26489-0.00023-2.15234 0-1.77488 0.00047-4.13094 0.002-6.48828 0.002-4.71468 0.00075-9.46478 0.002-9.48828 0.002-5.89462 0-10.54297-4.64834-10.54297-10.54297s4.64835-10.54492 10.54297-10.54492c0.0817 0 0.14551 0.00066 0.1914 0.002a6.0561824 6.0561824 0 0 0 6.29102 -6.19726 6.0561824 6.0561824 0 0 0 -6.23828 -6.17969c-0.11563 0.002-0.19714 0.002-0.24414 0.002-5.89462 0-10.54297-4.64836-10.54297-10.54297 0-5.89462 4.64835-10.54296 10.54297-10.54296 0.0817 0 0.14551 0.00068 0.1914 0.002a6.0561824 6.0561824 0 0 0 6.28711 -6.3125 6.0561824 6.0561824 0 0 0 -6.23437 -6.41016c-0.11563 0.002-0.19714 0.004-0.24414 0.004-5.89462 0-10.54297-4.65029-10.54297-10.54492 0-5.89461 4.64835-10.54297 10.54297-10.54297 0.0817 0 0.14551 0.00066 0.1914 0.002a6.0561824 6.0561824 0 0 0 6.29102 -6.19726 6.0561824 6.0561824 0 0 0 -6.23828 -6.17969c-0.11563 0.002-0.19714 0.002-0.24414 0.002-5.89462 0-10.54297-4.64836-10.54297-10.54297 0-5.89462 4.64835-10.54297 10.54297-10.54297 0.0409 0 4.77371-0.00062 9.48828 0 2.35729 0.00031 4.71361 0.00092 6.48828 0.002 0.88734 0.00027 1.62974 0.004 2.15234 0.004 0.26129 0.00015 0.46807-0.00017 0.60938 0 0.0707 0.00008 0.12558-0.00008 0.16015 0 0.0346 0.00008 0.44356 0.01-0.0801-0.004a6.0561824 6.0561824 0 1 0 0.31445 -12.10743c-0.53083-0.0138-0.16387-0.002-0.20703-0.002-0.0432-0.0001-0.10081 0.00009-0.17383 0-0.14602-0.00017-0.35271 0.00016-0.61523 0-0.52506-0.00032-1.26828-0.002-2.15626-0.002-1.77593-0.00052-4.13263 0.00031-6.49023 0-4.71522-0.00063-9.41469-0.002-9.49023-0.002zm-302.14649 1.48632a6.0561824 6.0561824 0 0 0 -5.96484 6.14063v131.71484a6.0561824 6.0561824 0 1 0 12.11133 0v-131.71484a6.0561824 6.0561824 0 0 0 -6.14649 -6.14063zm25.35156 0a6.0561824 6.0561824 0 0 0 -5.96484 6.14063v131.71484a6.0561824 6.0561824 0 1 0 12.11133 0v-131.71484a6.0561824 6.0561824 0 0 0 -6.14649 -6.14063zm212.64844 0a6.0561824 6.0561824 0 0 0 -5.96484 6.14063v131.71484a6.0561824 6.0561824 0 1 0 12.11133 0v-131.71484a6.0561824 6.0561824 0 0 0 -6.14649 -6.14063zm25.35156 0a6.0561824 6.0561824 0 0 0 -5.96484 6.14063v131.71484a6.0561824 6.0561824 0 1 0 12.11133 0v-131.71484a6.0561824 6.0561824 0 0 0 -6.14649 -6.14063z"/>
        </symbol>
        <symbol id="tower_high" viewBox="0 0 527.57227 435.55222">
            <title>tower_high</title>
            <path
                opacity=".5"
                d="m12.699219 0-12.699219 20.363286s132.5537 82.533214 263.54297 6.24414c30.41721 16.20492 148.84911 70.0744 264.02929-2.87305l-12.84179-20.275392c-121.01376 76.642052-246.03125-1.458985-246.03125-1.458984l-4.77539 7.658203-5.19336-8.199219c-121.01376 76.642052-246.03125-1.458984-246.03125-1.458984zm0 74.000006l-12.699219 20.36328s132.5537 82.533214 263.54297 6.244144c30.41721 16.20492 148.84911 70.0744 264.02929-2.873054l-12.84179-20.27539c-121.01376 76.642054-246.03125-1.45898-246.03125-1.45898l-4.77539 7.6582-5.19336-8.19922c-121.01376 76.642054-246.03125-1.45898-246.03125-1.45898z"/>
            <path
                d="m262.57226 0.095703a9.9056297 9.9056297 0 0 0 -9.47461 9.755859v8.47852c-1.15163 22.484434-6.18228 83.868728-20.68554 154.61719-16.94164 82.64306-46.99891 179.26399-97.47461 246.64063a9.9056297 9.9056297 0 1 0 15.85351 11.87695c13.83058-18.4615 26.08895-38.74432 36.97852-60.11133a7.7116452 7.7116452 0 0 0 3.00195 -1.77148l72.42188-67.03906 72.41992 67.03906a7.7116452 7.7116452 0 0 0 3.16992 1.82031c10.8254 21.18132 23.0013 41.28778 36.72266 59.60352a9.9056297 9.9056297 0 1 0 15.85351 -11.87696c-50.47569-67.37668-80.53493-163.99755-97.47656-246.64062-14.49566-70.71138-19.52848-132.06654-20.68359-154.58009v-7.597656a9.9056297 9.9056297 0 0 0 -1.82422 -5.587888 9.9056297 9.9056297 0 0 0 -8.80274 -4.626953zm0.60938 112.09962c2.87576 19.57029 6.55114 41.12887 11.29492 64.26953 1.65358 8.06634 3.42993 16.26917 5.33008 24.56836l-16.44141 15.2207-16.71289-15.4707c1.83886-8.05706 3.55959-16.02109 5.16602-23.85742 4.78081-23.32129 8.47762-45.039 11.36328-64.73047zm-19.83399 102.60156 10.79492 9.99414-17.55078 16.2461c2.40215-8.80437 4.64806-17.56254 6.75586-26.24024zm39.76953 0.24414c2.06447 8.47257 4.26234 17.02125 6.60743 25.61328l-17.13868-15.86523 10.53125-9.74805zm-19.7539 18.28516 26.23047 24.28125a7.7116452 7.7116452 0 0 0 -2.06641 1.39648l-24.33398 22.52539-24.33399-22.52539a7.7116452 7.7116452 0 0 0 -1.83789 -1.29296l26.3418-24.38477zm34.93359 36.70312c6.95871 22.36485 14.96727 44.70612 24.1836 66.38086l-47.93555-44.37304 23.45898-21.7168a7.7116452 7.7116452 0 0 0 0.29297 -0.29102zm-70.16992 0.0449a7.7116452 7.7116452 0 0 0 0.25586 0.24609l23.45898 21.7168-47.75781 44.20898c9.16157-21.61362 17.12107-43.88317 24.04297-66.17187z"/>
            <path
                opacity=".5"
                d="m11.642578 1.697265-10.583984 16.968751s132.15684 82.309064 262.43164 5.65625c28.49809 15.38249 147.43188 70.92322 263.01172-2.27734l-10.70117-16.896489c-122.058 77.303399-248.15821-1.451172-248.15821-1.451172l-3.71874 5.960938-4.12305-6.509766c-122.058 77.303399-248.1582-1.451172-248.1582-1.451172zm0 74.000001-10.583984 16.96875s132.15684 82.309064 262.43164 5.65625c28.49809 15.382494 147.43188 70.923224 263.01172-2.27734l-10.70117-16.89648c-122.058 77.303384-248.15821-1.45118-248.15821-1.45118l-3.71874 5.96094-4.12305-6.50976c-122.058 77.303394-248.1582-1.45118-248.1582-1.45118z"/>
        </symbol>
        <symbol id="tower_high2" viewBox="0 0 522.60352 444.57257">
            <title>tower_high2</title>
            <path
                d="m251.21484 0.00073621533a12.50125 12.50125 0 0 0 -12.36523 12.625l-0.0625 14.277344-48.52539-0.208984a12.50125 12.50125 0 1 0 -0.10743 25.000008l48.5254 0.20898-0.18555 42.99805-48.23242-0.20703a12.50125 12.50125 0 1 0 -0.10743 24.999996l48.23243 0.20703-0.14844 34.54687a12.50125 12.50125 0 0 0 -0.6582 1.47071l-102.55274 271.5371a12.50125 12.50125 0 1 0 23.38867 8.83204l16.39063-43.39649 87.58008-70.94336 86.46093 70.03711 16.73243 44.30274a12.50125 12.50125 0 1 0 23.38671 -8.83204l-102.55078-271.5371a12.50125 12.50125 0 0 0 -1.17187 -2.38868l0.14258-33.42578 50.42382 0.2168a12.50125 12.50125 0 1 0 0.10743 -24.999996l-50.42383-0.2168 0.18555-42.99804 50.13085 0.21484a12.50125 12.50125 0 1 0 0.10743 -25.000005l-50.13086-0.214844 0.0625-14.373047a12.50125 12.50125 0 0 0 -12.63477 -12.732422 12.50125 12.50125 0 0 0 -10.85937 6.5820322 12.50125 12.50125 0 0 0 -11.14063 -6.582032zm10.50391 164.42187a12.50125 12.50125 0 0 0 2.35156 3.08984l15.26367 40.41797-16.77539 15.5293-17.60742-16.29883 15.34961-40.64648a12.50125 12.50125 0 0 0 1.41797 -2.0918zm-21.54688 55.39063 13.16406 12.18359-27.31445 25.28711 14.15039-37.4707zm43.94141 0.76757 13.25781 35.10743-25.5918-23.69141 12.33399-11.41602zm-21.55469 19.95313 35.39063 32.76172-35.5625 28.80469-35.37891-28.65821 35.55078-32.9082zm-46.7207 43.70898 34.29687 27.78125-64.52929 52.27149 30.23242-80.05274zm92.5 0.48243 29.70898 78.66406-63.4082-51.36524 33.69922-27.29882z"/>
            <path
                opacity=".5"
                d="m11.08789 30.811283-11.08789 13.15625s25.589968 21.644881 63.59375 32.623051c38.00378 10.97817 89.75721 10.94211 139.05859-31.251954l-11.18555-13.070316c-44.88704 38.41611-88.89031 37.67446-123.09765 27.79297-34.207341-9.88148-57.281252-29.250001-57.281252-29.250001zm500.42773 0s-23.07391 19.368521-57.28125 29.250001c-34.20734 9.88149-78.21061 10.62314-123.09765-27.79297l-11.1875 13.070316c49.30137 42.194064 101.05676 42.230124 139.06054 31.251954s63.59375-32.623051 63.59375-32.623051l-11.08789-13.15625zm-500.42773 71.999997-11.08789 13.15625s25.589968 21.64488 63.59375 32.62305c38.00378 10.97817 89.75721 10.94211 139.05859-31.25195l-11.18555-13.07032c-44.88704 38.41611-88.89031 37.67446-123.09765 27.79297-34.207339-9.88148-57.28125-29.25-57.28125-29.25zm500.42773 0s-23.07391 19.36852-57.28125 29.25c-34.20734 9.88149-78.21061 10.62314-123.09765-27.79297l-11.1875 13.07032c49.30137 42.19406 101.05676 42.23012 139.06054 31.25195s63.59375-32.62305 63.59375-32.62305l-11.08789-13.15625z"/>
        </symbol>
        <symbol id="tower_low" viewBox="0 0 520.33399 462.84961">
            <title>tower_low</title>
            <path
                opacity=".75"
                d="m5.507812 61.804691-5.507812 6.98438s26.669382 21.05476 66.191406 31.736319c39.522024 10.68156 92.547694 10.88839 144.04101-30.343749l-5.56055-6.9414c-49.17779 39.378029-98.50097 38.877309-136.16015 28.69922-37.659185-10.1781-63.003911-30.13477-63.003912-30.13477zm308.99805 1.98438-5.50391 7.01562s26.81252 21.05456 66.54102 31.734379c39.7285 10.67981 93.02226 10.89064 144.79101-30.339849l-5.55664-6.97656c-49.4449 39.379689-99.05129 38.884919-136.91992 28.70508-37.86862-10.17984-63.35156-30.13867-63.35156-30.13867z"/>
            <path d="m235.30469 0v20 28.816411h-49.59961a15.611673 15.611673 0 1 0 0 31.21875h49.59961v362.81445 20h40v-20-362.81445h52.72265a15.611673 15.611673 0 1 0 0 -31.21875h-52.72265v-28.816411-20h-40z"/>
        </symbol>
        <symbol id="transformer" viewBox="0 0 323.30911 305.66397">
            <title>transformer</title>
            <path
                d="m50.611593 0.00286924c-0.1644 0-10.18291 0.00053-20.24023 0.002-5.02866 0.00069-10.0562 0.00093-13.84375 0.002-1.89378 0.00049-3.47874 0.00095-4.59766 0.002-0.55946 0.00028-1.00107 0.002-1.31054 0.002-0.3095 0.0003 0.6889-0.0259-0.6855501 0.002a10.001 10.001 0 1 0 0.40429 19.99609c-1.3435501 0.0272-0.003 0.002 0.30079 0.002 0.30341-0.00029 0.74486-0.002 1.30273-0.002 1.11574-0.00056 2.69688-0.00095 4.58984-0.002 3.78593-0.00099 8.81551-0.00096 13.84375-0.002l20.23633-0.002c14.1495 0 25.4043 11.25675 25.4043 25.40625s-11.2548 25.4043-25.4043 25.4043c-0.16768 0-0.34825-0.002-0.54101-0.006a10.001 10.001 0 0 0 -10.32813 10.27343 10.001 10.001 0 0 0 10.32813 10.29883c0.19276-0.004 0.37333-0.006 0.54101-0.006 14.1495 0 25.4043 11.254801 25.4043 25.404301s-11.2548 25.40625-25.4043 25.40625c-0.16768 0-0.34825-0.002-0.54101-0.006a10.001 10.001 0 0 0 -10.31446 10.58399 10.001 10.001 0 0 0 10.31446 10.72265c0.19276-0.004 0.37333-0.006 0.54101-0.006 14.1495 0 25.4043 11.25675 25.4043 25.40625s-11.2548 25.4043-25.4043 25.4043c-0.16768 0-0.34825-0.002-0.54101-0.006a10.001 10.001 0 0 0 -10.32813 10.27344 10.001 10.001 0 0 0 10.32813 10.29882c0.19276-0.004 0.37333-0.006 0.54101-0.006 14.1495 0 25.4043 11.25479 25.4043 25.40429s-11.2548 25.40625-25.4043 25.40625c-0.0838 0-10.17983-0.00053-20.23633-0.002-5.02824-0.00069-10.05782-0.003-13.84375-0.004-1.89296-0.00049-3.4741 0.00056-4.58984 0-0.55787-0.00028-0.99932-0.002-1.30273-0.002-0.30342-0.00029-1.6443401-0.0253-0.30079 0.002a10.001 10.001 0 1 0 -0.4042901 19.9961c1.3744501 0.0278 0.3760601 0.002 0.6855501 0.002 0.30948 0.0003 0.75108 0.002 1.31054 0.002 1.11892 0.00056 2.70388-0.00049 4.59766 0 3.78755 0.00099 8.81509 0.003 13.84375 0.004 10.05732 0.001 20.07583 0.002 20.24023 0.002 24.9583 0 45.4043-20.44795 45.4043-45.40625 0-14.5132-7.03397-27.3566-17.72852-35.68554 10.69418-8.32897 17.72852-21.17068 17.72852-35.6836 0-14.71923-7.21925-27.74034-18.17383-36.05273 10.95515-8.31235 18.17383-21.33501 18.17383-36.05469 0-14.5132-7.03397-27.356601-17.72852-35.685551 10.69418-8.32896 17.72852-21.17068 17.72852-35.68359 0-24.9583-20.446-45.40625-45.4043-45.40625zm222.08594 0c-24.9583 0-45.4043 20.44795-45.4043 45.40625 0 14.51273 7.03458 27.35461 17.72852 35.68359-10.69431 8.32896-17.72852 21.172531-17.72852 35.685551 0 14.71952 7.21888 27.74232 18.17383 36.05469-10.95439 8.3124-18.17383 21.33365-18.17383 36.05273 0 14.51273 7.03458 27.35462 17.72852 35.6836-10.69431 8.32896-17.72852 21.17253-17.72852 35.68554 0 24.9583 20.446 45.40625 45.4043 45.40625 0.16441 0 10.18292-0.00053 20.24023-0.002 5.02866-0.00069 10.0562-0.003 13.84375-0.004 1.89378-0.00049 3.47874 0.00056 4.59766 0 0.55946-0.00028 1.00106-0.002 1.31055-0.002 0.30949-0.0003-0.68879 0.026 0.68554-0.002a10.001 10.001 0 1 0 -0.40429 -19.9961c1.34346-0.0272 0.005-0.002-0.29883-0.002-0.30342 0.00029-0.74488 0.002-1.30273 0.002-1.11575 0.00056-2.69884-0.00049-4.5918 0-3.78593 0.00099-8.81355 0.003-13.8418 0.004l-20.23828 0.002c-14.1495 0-25.4043-11.25675-25.4043-25.40625s11.2548-25.40429 25.4043-25.40429c0.16769 0 0.34827 0.002 0.54102 0.006a10.001 10.001 0 0 0 10.33007 -10.30664 10.001 10.001 0 0 0 -10.33007 -10.26562c-0.19275 0.004-0.37333 0.006-0.54102 0.006-14.1495 0-25.4043-11.2548-25.4043-25.4043s11.2548-25.40625 25.4043-25.40625c0.16769 0 0.34827 0.002 0.54102 0.006a10.001 10.001 0 0 0 10.3164 -10.59765 10.001 10.001 0 0 0 -10.3164 -10.70899c-0.19275 0.004-0.37333 0.006-0.54102 0.006-14.1495 0-25.4043-11.25675-25.4043-25.40625s11.2548-25.404301 25.4043-25.404301c0.16769 0 0.34827 0.002 0.54102 0.006a10.001 10.001 0 0 0 10.33007 -10.30664 10.001 10.001 0 0 0 -10.33007 -10.26562c-0.19275 0.004-0.37333 0.006-0.54102 0.006-14.1495 0-25.4043-11.2548-25.4043-25.4043s11.2548-25.40625 25.4043-25.40625c0.0838 0 10.18179 0.00053 20.23828 0.002 5.02825 0.00069 10.05587 0.00093 13.8418 0.002 1.89296 0.00049 3.47605 0.00095 4.5918 0.002 0.55786 0.00028 0.99931 0.002 1.30273 0.002 0.30342 0.0003 1.64229 0.0252 0.29883-0.002a10.001 10.001 0 1 0 0.40429 -19.99609c-1.37433-0.0278-0.37605-0.002-0.68554-0.002-0.30949-0.0003-0.75109-0.002-1.31055-0.002-1.11892-0.00056-2.70388-0.00095-4.59766-0.002-3.78755-0.00099-8.81509-0.00096-13.84375-0.002-10.05731-0.001-20.07582-0.002-20.24023-0.002zm-136.78125 3.21289a10.001 10.001 0 0 0 -9.84961 10.14258v280.94922a10.001 10.001 0 1 0 20 0v-280.94922a10.001 10.001 0 0 0 -10.15039 -10.142581zm54.07227 0a10.001 10.001 0 0 0 -9.84961 10.14258v280.94922a10.001 10.001 0 1 0 20 0v-280.94922a10.001 10.001 0 0 0 -10.15039 -10.142581z"/>
        </symbol>
        <symbol id="station_coal" viewBox="0 0 576.44501 577.45154">
            <title>station_coal</title>
            <path d="m64.571 0.06355556c-41.335 0-64.571 21.371-64.571 65.036v450.123c0 40.844 20.894 62.229 62.192 62.229h452.024c41.307 0 62.229-20.316 62.229-62.229v-450.123c0-42.601-20.922-65.036-63.522-65.036-0.003 0-448.494-0.143-448.352 0z"/>
            <path
                d="m103.69834 177.38931a5.0005 5.0005 0 0 0 -5.03711 5.47266c10.16824 106.9599 2.63072 209.53927-23.914058 335.05468a5.0005 5.0005 0 0 0 4.892578 6.03516h32 160.125 32a5.0005 5.0005 0 0 0 2.4707 -0.65625h202.87696a4.1848347 4.1848347 0 0 0 4.18359 -4.18359v-120.63282a4.1848347 4.1848347 0 0 0 -4.18359 -4.18359h-221.28321c-8.81031-73.67366-9.72256-141.62282-3.08593-211.43359a5.0005 5.0005 0 0 0 -6.98047 -5.05469c-32.09946 14.02635-60.06498 12.1199-86.06055 13.98437-25.99557-1.86447-53.96109 0.042-86.06055-13.98437a5.0005 5.0005 0 0 0 -1.94336 -0.41797z"
                fill="#fff"/>
            <path
                opacity=".4"
                d="m211.48913 44.450152c-22.00326-3.436701-28.0807 12.785799-27.97827 18.04867-5.32997-8.089035-24.5936 15.148323-17.91034 21.462271-0.7794 0.613341-1.366 1.258416-1.74592 1.917349-13.89092 9.78924-6.34037 9.301568-5.71389 16.431828-3.47451 4.09351-6.57275 5.93636-1.84459 15.96064-1.87493 5.57785-3.41485 8.9053 2.19713 13.7545-2.92822 3.7496-7.35452 5.77962-4.31745 10.66517 0.0174 0.13886 0.0386 0.2773 0.0636 0.41527-1.95957 1.85611-3.03539 4.03208-3.04032 6.17496 6.55571 19.80606 71.8174 11.69855 72.2113 8.2555 4.02723-0.86113 3.38093-7.77632 2.69151-8.64412 15.6607 1.44171 25.01994-4.12398 26.65434-16.85109 0.94187-1.17462 1.47943-2.25955 1.57641-3.24705 17.19926 1.06953 20.93567-9.45181 22.50918-13.92515 0.0611-0.12501 0.11452-0.24883 0.16143-0.37162 7.05666 5.91637 33.29443 4.7897 37.31051-4.33224 15.70952 1.09653 22.329-5.53437 21.47046-15.530929 0.29615-0.917348 0.62766-1.881493 0.88781-2.808391 6.56062-2.916305 8.98225-10.845485 5.6124-17.223469 4.27371-4.691159-2.87778-8.756072-4.63497-9.977797-1.88-11.509791-7.89536-13.617398-18.28921-12.037347-5.41053-8.963679-22.05149-5.546813-26.1589-2.808025-4.28734-6.554719-11.1206-14.606341-29.93219-11.36472-6.68009-5.796758-13.66985-3.466067-17.91327 1.760417-4.34369-7.134247-11.88059-5.439126-17.25209-0.104602-4.60492-5.423762-12.89111-2.735391-16.6149 4.380037z"
                fill="#fff"/>
        </symbol>
        <symbol id="station_gas" viewBox="0 0 576.44501 577.45154">
            <title>station_gas</title>
            <path d="m64.571 0.06355556c-41.335 0-64.571 21.371-64.571 65.036v450.123c0 40.844 20.894 62.229 62.192 62.229h452.024c41.307 0 62.229-20.316 62.229-62.229v-450.123c0-42.601-20.922-65.036-63.522-65.036-0.003 0-448.494-0.143-448.352 0z"/>
            <path
                opacity=".1"
                d="m181.55573 30.599815c-10.80773 76.359075-45.09298 77.055125-48.8522 116.52688-3.77609 39.64877 36.56723 64.10915 43.21262 65.77082 0 0-18.95202-21.91604-17.17009-40.62632 1.23393-12.95625 6.56627-17.6464 16.63131-31.82575 7.23396-10.19102 15.40314-24.17529 21.40874-44.829091 21.37225 18.711481 30.53726 29.599001 34.80719 52.192821 4.26995 22.59386-13.36251 63.22023-13.36251 63.22023 63.77562-48.07194 47.43739-121.45689-36.67506-180.42958z"
                fill-rule="evenodd"
                fill="#fff"/>
            <path
                opacity=".2"
                d="m175.91615 212.89751s-18.95202-21.91604-17.17009-40.62632c1.23393-12.95625 6.56627-17.6464 16.63131-31.82575 7.23396-10.19102 15.40314-24.17529 21.40874-44.829091 21.37225 18.711481 30.53726 29.599001 34.80719 52.192821 4.26995 22.59386-13.36251 63.22023-13.36251 63.22023-15.24995 10.83433-25.51026 6.63227-42.31464 1.86811z"
                fill-rule="evenodd"
                fill="#fff"/>
            <path
                d="m179.01475 24.742822-0.76367 5.388672c-5.33545 37.696128-16.23376 56.178756-26.48633 70.634766-10.25257 14.45602-20.4126 25.35772-22.38281 46.04492-2.00053 21.00546 7.71654 37.98992 18.57226 49.7129 5.42786 5.86149 11.15862 10.46061 16.00782 13.73632 4.84919 3.27571 8.3849 5.18496 11.14453 5.875l10.23437 2.5586-6.90039-7.97852s-4.54134-5.25616-8.88867-12.7832-8.25782-17.22258-7.48438-25.34375c0.57756-6.06432 1.98419-9.79665 4.54297-14.05078s6.39528-8.98528 11.48828-16.16016c6.74845-9.50704 14.26079-22.61481 20.18946-40.82812 18.2114 16.31382 26.16184 26.43539 30.02539 46.8789 1.91156 10.11476-1.18564 25.73653-4.99805 38.50977-3.81241 12.77323-8.14648 22.76172-8.14648 22.76172l-5.04102 11.61523 10.11133-7.62109c32.64897-24.60971 45.2556-56.5507 38.37891-89.47461-6.8767-32.923917-32.64068-66.550009-75.14649-96.351568l-4.45703-3.125zm4.91211 11.800781c38.90201 28.343918 62.01249 59.616846 68.1582 89.041017 5.66463 27.12083-2.56087 52.84381-26.26953 74.70313 1.2744-3.54537 2.54623-6.92399 3.89453-11.44141 3.93633-13.18841 7.5205-29.17714 5.16211-41.65625-4.3954-23.25776-14.38947-35.26136-35.88867-54.083987l-3.93945-3.449219-1.46289 5.027344c-5.89183 20.262522-13.83948 33.847082-20.92578 43.830082-4.97204 7.00447-8.8335 11.70719-11.76563 16.58203-2.93213 4.87485-4.80847 9.96744-5.46484 16.85938-1.00849 10.58911 3.66446 21.2059 8.34765 29.31445 0.22905 0.39658 0.41293 0.58797 0.64258 0.97266-3.7164-2.7767-7.68866-6.06653-11.56445-10.25196-10.03327-10.83482-18.59978-25.90356-16.82422-44.54687 1.78901-18.78454 10.64985-27.96864 21.18164-42.81836 10.0037-14.105123 20.95005-33.09906 26.71875-68.082037zm-59.82422 178.84571a4.7119227 4.7119227 0 0 0 -4.74609 5.1582c9.58142 100.78728 2.47773 197.44679-22.535159 315.71875a4.7119227 4.7119227 0 0 0 4.609379 5.68555h30.15429 132.03906 30.15235a4.7119227 4.7119227 0 0 0 2.32617 -0.61914h191.16992a3.9433293 3.9433293 0 0 0 3.94336 -3.94141v-113.66992a3.9433293 3.9433293 0 0 0 -3.94336 -3.94336h-208.51367c-8.30148-69.42142-9.15982-133.44891-2.90625-199.23047a4.7119227 4.7119227 0 0 0 -6.57812 -4.76367c-30.54947 13.34906-47.36589 11.43024-71.66993 13.17578-24.30403-1.74554-41.12239 0.17328-71.67187-13.17578a4.7119227 4.7119227 0 0 0 -1.83008 -0.39453z"
                fill="#fff"/>
        </symbol>
        <symbol id="station_solar" viewBox="0 0 576.44501 577.45154">
            <title>station_solar</title>
            <path d="m64.571 0.06355556c-41.335 0-64.571 21.371-64.571 65.036v450.123c0 40.844 20.894 62.229 62.192 62.229h452.024c41.307 0 62.229-20.316 62.229-62.229v-450.123c0-42.601-20.922-65.036-63.522-65.036-0.003 0-448.494-0.143-448.352 0z"/>
            <path
                d="m388.89366 21.188134a10.001 10.001 0 0 0 -9.84961 10.142578v47.853516a10.001 10.001 0 1 0 20 0v-47.853516a10.001 10.001 0 0 0 -10.15039 -10.142578zm-69.5625 16.507813a10.001 10.001 0 0 0 -8.83204 14.757812l22.16211 42.414063a10.001 10.001 0 1 0 17.72461 -9.263672l-22.16211-42.414063a10.001 10.001 0 0 0 -8.89257 -5.49414zm140.28711 1.736328a10.001 10.001 0 0 0 -8.59375 5.490234l-22.16211 42.414063a10.001 10.001 0 1 0 17.72656 9.261718l22.16211-42.414062a10.001 10.001 0 0 0 -9.13281 -14.751953zm-196.52344 51.005859a10.001 10.001 0 0 0 -4.80664 18.578126l40.71875 25.14258a10.001 10.001 0 1 0 10.50781 -17.01758l-40.71875-25.142579a10.001 10.001 0 0 0 -5.70117 -1.560547zm252.75781 1.72461a10.001 10.001 0 0 0 -5.39844 1.566406l-40.71875 25.14258a10.001 10.001 0 1 0 10.50782 17.01758l40.71875-25.14258a10.001 10.001 0 0 0 -5.10938 -18.583986zm-125.64648 11.751956c-39.95383 0-72.45118 32.49735-72.45118 72.45117 0 39.95383 32.49735 72.44922 72.45118 72.44922 39.95382 0 72.44922-32.49539 72.44922-72.44922 0-39.95382-32.4954-72.45117-72.44922-72.45117zm-98.74805 62.35938-47.85352 0.0918a10.001 10.001 0 1 0 0.0371 20l47.85547-0.0918a10.001 10.001 0 1 0 -0.0391 -20zm244.14844 0.98437-47.85352 0.0918a10.001 10.001 0 1 0 0.0371 20l47.85547-0.0918a10.001 10.001 0 1 0 -0.0391 -20zm-231.20117 50.64063a10.001 10.001 0 0 0 -5.39844 1.5664l-40.71875 25.14258a10.001 10.001 0 1 0 10.50781 17.01562l40.71875-25.14062a10.001 10.001 0 0 0 -5.10937 -18.58398zm170.13671 0.004a10.001 10.001 0 0 0 -4.80664 18.58008l40.71875 25.14062a10.001 10.001 0 1 0 10.50782 -17.01562l-40.71875-25.14258a10.001 10.001 0 0 0 -5.70118 -1.5625zm-36.84765 35.35938a10.001 10.001 0 0 0 -8.83203 14.75586l22.16211 42.41406a10.001 10.001 0 1 0 17.72656 -9.26172l-22.16211-42.41406a10.001 10.001 0 0 0 -8.89453 -5.49414zm-96.44141 0.004a10.001 10.001 0 0 0 -8.5918 5.49024l-22.16211 42.41386a10.001 10.001 0 1 0 17.72461 9.26172l22.16211-42.41406a10.001 10.001 0 0 0 -9.13281 -14.75196zm48.80274 7.03125a10.001 10.001 0 0 0 -9.81836 9.28516 10.001 10.001 0 0 0 -1.19336 4.85547v47.85547a10.001 10.001 0 0 0 19.9707 0.85547 10.001 10.001 0 0 0 1.19141 -4.85547v-47.85547a10.001 10.001 0 0 0 -10.15039 -10.14083zm-300.10547 120.94316c-6.18495-0.009-12.106888 4.46701-13.785156 10.41992l-6.541016 23.06055h61.716795l4.10156-33.48047h-45.492183zm69.367183 0-4.10351 33.48047h73.43359l2.2168-33.48047h-71.54688zm95.23633 0-2.21875 33.48047h69.92188l-2.21875-33.48047h-65.48438zm89.17383 0 2.2168 33.48047h73.43359l-4.10351-33.48047h-71.54688zm95.42188 0 4.10156 33.48047h61.7168l-6.54102-23.06055c-1.67827-5.95291-7.6002-10.42799-13.78516-10.41992h-45.49218zm-374.21875 52.40235-10.015625 35.47851h70.033199l4.35938-35.47851h-64.376954zm88.251954 0-4.36133 35.47851h76.38867l2.32813-35.47851h-74.35547zm98.04492 0-2.32812 35.47851h76.79296l-2.32812-35.47851h-72.13672zm95.82617 0 2.32813 35.47851h76.38867l-4.36133-35.47851h-74.35547zm98.23047 0 4.35938 35.47851h70.0332l-10.01563-35.47851h-64.37695zm-396.42969 56.76562-6.984375 24.72266c-1.20612 4.23593-0.324707 9.01356 2.328125 12.52929 2.652834 3.51572 7.015632 5.68695 11.419922 5.68946h61.457034l5.28515-42.94141h-73.505856zm97.343746 0-5.24804 42.94141h80.00976l2.84571-42.94141h-77.60743zm101.29688 0-2.8457 42.94141h85.29296l-2.8457-42.94141h-79.60156zm103.29101 0 2.84571 42.94141h80.00976l-5.24804-42.94141h-77.60743zm101.44532 0 5.28515 42.94141h61.45703c4.40428-0.002 8.7671-2.17374 11.41993-5.68946 2.65284-3.51573 3.53424-8.29336 2.32812-12.52929l-6.98437-24.72266h-73.50586z"
                fill="#fff"/>
        </symbol>
        <symbol id="station_water" viewBox="0 0 576.44501 577.45154">
            <title>station_water</title>
            <path d="m64.571 0.06355556c-41.335 0-64.571 21.371-64.571 65.036v450.123c0 40.844 20.895 62.229 62.192 62.229h452.024c41.307 0 62.229-20.315 62.229-62.229v-450.123c0-42.601-20.922-65.036-63.521-65.036-0.004 0-448.495-0.143-448.353 0z"/>
            <path
                opacity=".6"
                fill="#fff"
                d="m31.022562 117.18033v35.04687h178.95117v-35.04687h-178.95117zm-0.0078 53.17773v35.0625h175.96875c0.99274-1.10931 1.95852-2.2494 3-3.3125v-31.75h-178.96875zm231.31641 20.0957a3.9771285 3.9771285 0 0 0 -1.57227 0.28321l-18.30469 7.32226a3.9771285 3.9771285 0 0 0 -0.85156 0.46875l-21.9668 15.86524a3.9771285 3.9771285 0 0 0 -0.42382 6.09375l54.61132 52.32421a3.9771285 3.9771285 0 0 0 1.45899 0.88282 3.9771285 3.9771285 0 0 0 0.0898 1.41406l18.15235 72.1543a3.9771285 3.9771285 0 0 0 5.33398 2.72265l18.30469-7.32226a3.9771285 3.9771285 0 0 0 0.85156 -0.46875l21.9668-15.86328a3.9771285 3.9771285 0 0 0 0.42383 -6.09571l-54.61133-52.32422a3.9771285 3.9771285 0 0 0 -1.45899 -0.88281 3.9771285 3.9771285 0 0 0 -0.0898 -1.41406l-18.15234-72.1543a3.9771285 3.9771285 0 0 0 -3.76172 -3.00586zm-231.31642 33.0918v34.90625h151.75c0.31349-2.47394 0.63121-4.96192 1.125-7.375 0.65498-3.20079 1.4485-6.32699 2.40625-9.40625s2.06846-6.09 3.3125-9.03125 2.64239-5.80698 4.15625-8.59375c0.094-0.1731 0.21746-0.32753 0.3125-0.5h-163.0625zm0 53.03125v35.0625h159.78125c-0.37854-0.82943-0.83154-1.62716-1.1875-2.46875-1.24404-2.94125-2.35475-5.95199-3.3125-9.03125s-1.75127-6.20546-2.40625-9.40625-1.16427-6.47541-1.5-9.78125c-0.14642-1.44181-0.1353-2.91546-0.21875-4.375h-151.15625zm0 53.25v35.0625h178.96875v-25.1875c-1.96442-2.00519-3.86801-4.08316-5.65625-6.25-0.96158-1.16517-1.81071-2.41569-2.71875-3.625h-170.59375zm403.14648 49.02344c-7.24011 0-13.96825 1.60114-20.11914 4.48437-5.89461 2.62695-12.55719 4.23047-19.54101 4.23047-6.91976 0-13.52022-1.60352-19.54297-4.23047l7.17773 31.78125c3.97245 1.08922 8.1365 1.60156 12.36524 1.60157 7.0479 0 13.6464-1.47462 19.54101-4.10157 6.08681-2.88323 12.87903-4.48437 20.11914-4.48437 7.17604 0 13.9038 1.60114 20.05469 4.48437 5.89461 2.62695 12.62128 4.10156 19.54102 4.10157 6.91976 0 13.52022-1.47462 19.54297-4.10157 6.02275-2.88323 12.94272-4.48437 20.05468-4.48437 7.11197 0 13.96629 1.60114 20.11719 4.48437 5.8946 2.62695 12.55914 4.10156 19.54297 4.10157v-29.15235c-7.0479 0-13.64837-1.60352-19.54297-4.23047-6.08683-2.88323-12.94114-4.48437-20.11719-4.48437-7.17603 0-14.03193 1.60114-20.05468 4.48437-6.02275 2.62695-12.62321 4.23047-19.54297 4.23047-6.91974 0-13.64641-1.60352-19.54102-4.23047-6.15089-2.88323-12.94272-4.48437-20.05469-4.48437zm-403.13867 4.16601v35.04688h178.95117v-35.04688h-178.95117zm403.13867 49.58985c-7.24011 0-13.96825 1.60308-20.11914 4.48633-5.89461 2.62695-12.55719 4.22851-19.54101 4.22851-2.62695 0-5.25391-0.25696-7.88086-0.76953l6.72656 29.92187h1.1543c7.0479 0 13.6464-1.47462 19.54101-4.10156 6.08681-2.88323 12.87903-4.48437 20.11914-4.48437 7.17604 0 13.9038 1.60114 20.05469 4.48437 5.89461 2.62694 12.62128 4.10156 19.54102 4.10156 6.91976 0 13.52022-1.47462 19.54297-4.10156 6.02275-2.88323 12.94272-4.48437 20.05468-4.48437 7.11197 0 13.96629 1.60114 20.11719 4.48437 5.8946 2.62694 12.55914 4.10156 19.54297 4.10156v-29.15234c-7.0479 0-13.64837-1.60157-19.54297-4.22851-6.08683-2.88325-12.94114-4.48633-20.11719-4.48633-7.17603 0-14.03193 1.60308-20.05468 4.48633-6.02275 2.62695-12.62321 4.22851-19.54297 4.22851-6.91974 0-13.64641-1.60157-19.54102-4.22851-6.15089-2.88325-12.94272-4.48633-20.05469-4.48633zm-403.13867 3.46093v35.04688h178.95117v-35.04688h-178.95117z"/>
            <path
                fill="#fff"
                d="m262.45225 85.139306-28.78125 0.125v99.031254c2.69051-1.44923 5.44764-2.80148 8.28125-4 2.94125-1.24404 5.95199-2.35475 9.03125-3.3125s6.20546-1.75127 9.40625-2.40625 6.47541-1.16427 9.78125-1.5 6.66809-0.5 10.0625-0.5 6.72541 0.16427 10.03125 0.5 6.58046 0.84502 9.78125 1.5c0.0849 0.0174 0.16513 0.0449 0.25 0.0625l-17.90625-76.218754c-3.26766-7.752674-11.03152-13.28125-19.9375-13.28125zm17.76758 103.26367c-45.51471 0-82.50391 36.98921-82.50391 82.50391 0 45.51472 36.9892 82.5039 82.50391 82.5039s82.5039-36.98918 82.5039-82.5039c0-45.5147-36.98919-82.50391-82.5039-82.50391zm0 8.58203c40.87677 0 73.92187 33.04512 73.92187 73.92188 0 40.87678-33.0451 73.92187-73.92187 73.92187s-73.92188-33.04509-73.92188-73.92187c0-40.87676 33.04511-73.92188 73.92188-73.92188zm0 64.16602c-5.38171 0-9.75391 4.37415-9.75391 9.75586s4.3722 9.75586 9.75391 9.75586 9.75586-4.37415 9.75586-9.75586-4.37414-9.75586-9.75586-9.75586zm60.82617 86.92578c-1.91113 1.5087-3.82174 3.00895-5.84375 4.375-2.61581 1.76721-5.30698 3.42364-8.09375 4.9375s-5.68375 2.88096-8.625 4.125-5.95199 2.35475-9.03125 3.3125-6.20546 1.75127-9.40625 2.40625-6.47541 1.16427-9.78125 1.5-6.63684 0.5-10.03125 0.5-6.75666-0.16427-10.0625-0.5-6.58046-0.84502-9.78125-1.5-6.32699-1.4485-9.40625-2.40625-6.09-2.06846-9.03125-3.3125c-2.83346-1.19845-5.59088-2.51961-8.28125-3.96875v113.5h136.28125l-28.90625-122.96875z"/>
        </symbol>
        <symbol id="station_wind" viewBox="0 0 576.44501 577.45154">
            <title>station_wind</title>
            <path d="m64.571 0.06355556c-41.335 0-64.571 21.371-64.571 65.036v450.123c0 40.844 20.894 62.229 62.192 62.229h452.024c41.307 0 62.229-20.316 62.229-62.229v-450.123c0-42.601-20.922-65.036-63.522-65.036-0.003 0-448.494-0.143-448.352 0z"/>
            <path
                opacity=".8"
                d="m203.13975 172.57095a3.9433293 3.9433293 0 0 0 -3.93945 3.79492l-13.78125 365.9375a3.9433293 3.9433293 0 0 0 3.88281 4.0918c84.48956 1.2057 150.2346 0.9375 235.96289 0.9375a3.9433293 3.9433293 0 0 0 3.94336 -3.94336v-113.65625a3.9433293 3.9433293 0 0 0 -3.94336 -3.94336h-179.77344l-5.84765-249.36719a3.9433293 3.9433293 0 0 0 -3.94141 -3.85156h-32.5625z"
                fill="#fff"/>
            <path
                d="m159.84873 26.180322c-0.18684-0.01123-0.36527 0.01083-0.53125 0.06836-10.62233 3.681915 33.10692 146.54772 30.98438 157.5879-2.12254 11.04017-95.708782 127.50697-87.20898 134.86523 8.4998 7.35826 110.36008-101.94504 120.98242-105.62695 10.62233-3.68192 158.2798 19.13392 160.40234 8.09375s-143.467-44.60464-151.9668-51.96289c-8.36699-7.24329-60.89063-142.31804-72.66211-143.0254z"
                fill-rule="evenodd"
                fill="#fff"/>
        </symbol>
        <symbol id="substation" viewBox="0 0 576.44501 577.45154">
            <title>substation</title>
            <path d="m64.571 0.06355556c-41.335 0-64.571 21.371-64.571 65.036v450.123c0 40.844 20.894 62.229 62.192 62.229h452.024c41.307 0 62.229-20.316 62.229-62.229v-450.123c0-42.601-20.922-65.036-63.522-65.036-0.003 0-448.494-0.143-448.352 0z"/>
            <path opacity=".25" d="m47.793475 84.492379h473.76154v422.84986h-473.76154z" fill="#fff"/>
            <path
                d="m49.208984 76.148438a10.001 10.001 0 0 0 -10 10v422.84961a10.001 10.001 0 0 0 10 10h473.76172a10.001 10.001 0 0 0 10 -10v-422.84961a10.001 10.001 0 0 0 -10 -10.000002h-473.76172zm10 20h453.76172v402.84961h-453.76172l0.000004-402.84961zm54.082036 27.923832c-0.0755 0-4.77307 0.00091-9.48829 0.00195-2.35761 0.00031-4.716245-0.00052-6.492183 0-0.88797 0.00025-1.629233 0.00195-2.154297 0.00195-0.262532 0.00016-0.47116-0.00017-0.617188 0-0.073009 0.00009-0.130667-0.0001-0.173828 0-0.04316 0.0001 0.323865-0.01185-0.207031 0.00195a6.0561824 6.0561824 0 1 0 0.314453 12.10743c-0.523658 0.0136-0.112683 0.00195-0.078125 0.00195 0.03457-0.00008 0.089501 0.00008 0.160157 0 0.141317-0.00017 0.348077 0.00015 0.609374 0 0.522593-0.00032 1.263054-0.00195 2.150391-0.00195 1.774667-0.0005 4.132947-0.00196 6.490237-0.00196 4.71458-0.00062 9.44548 0 9.48633 0 5.89463 0 10.54296 4.64835 10.54296 10.54297 0 5.89463-4.64834 10.54297-10.54296 10.54297-0.047 0-0.12849 0.00014-0.24414-0.00195a6.0561824 6.0561824 0 0 0 -6.23633 6.22851 6.0561824 6.0561824 0 0 0 6.28906 6.14844c0.0459-0.001 0.10972-0.00195 0.19141-0.00195 5.89462 0 10.54296 4.64836 10.54296 10.54297 0 5.89464-4.64833 10.54492-10.54296 10.54492-0.047 0-0.1285-0.00191-0.24414-0.00391a6.0561824 6.0561824 0 0 0 -6.23243 6.30469 6.0561824 6.0561824 0 0 0 6.28516 6.41797c0.0459-0.001 0.10972-0.00195 0.19141-0.00195 5.89462 0 10.54296 4.64835 10.54296 10.54296 0 5.89463-4.64833 10.54297-10.54296 10.54297-0.047 0-0.1285 0.00015-0.24414-0.00195a6.0561824 6.0561824 0 0 0 -6.23633 6.22852 6.0561824 6.0561824 0 0 0 6.28906 6.14843c0.0459-0.001 0.10972-0.00195 0.19141-0.00195 5.89462 0 10.54296 4.65031 10.54296 10.54492 0 5.89463-4.64833 10.54297-10.54296 10.54297l-9.48633-0.00195c-2.35734-0.00038-4.71535-0.00092-6.490237-0.00196-0.887443-0.00023-1.629336 0.00025-2.152344 0-0.261504-0.00012-0.467267 0.00013-0.609375 0-0.142107-0.00012-0.8261-0.012-0.132812 0a6.0561824 6.0561824 0 1 0 -0.208984 12.10938c0.707764 0.0122 0.184842 0.00195 0.330078 0.00195 0.145235 0.00013 0.35291-0.00012 0.615234 0 0.524649 0.00025 1.268386-0.00023 2.15625 0 1.77573 0.00047 4.13267 0.00196 6.49023 0.00196 4.71511 0.00075 9.39541 0.00195 9.48829 0.00195 12.43998 0 22.65429-10.21433 22.65429-22.6543 0-6.63348-2.95714-12.57392-7.55469-16.73047 4.59755-4.15655 7.55469-10.09698 7.55469-16.73047 0-6.73022-3.04925-12.74001-7.76367-16.90234 4.71424-4.16233 7.76367-10.17225 7.76367-16.90234 0-6.63315-2.95755-12.57199-7.55469-16.72852 4.59755-4.15655 7.55469-10.09698 7.55469-16.73047 0-12.43997-10.21431-22.65429-22.65429-22.65429zm104.11914 0c-12.43997 0-22.6543 10.21432-22.6543 22.65429 0 6.63349 2.95716 12.57392 7.55469 16.73047-4.59714 4.15653-7.55469 10.09538-7.55469 16.72852 0 6.73008 3.04942 12.74001 7.76367 16.90234-4.71443 4.16233-7.76367 10.17212-7.76367 16.90234 0 6.63349 2.95716 12.57392 7.55469 16.73047-4.59753 4.15655-7.55469 10.09699-7.55469 16.73047 0 12.43997 10.21433 22.6543 22.6543 22.6543 0.0929 0 4.77511-0.00091 9.49023-0.00195 2.35755-0.00037 4.71451-0.00091 6.49023-0.00196 0.88786-0.00023 1.62965 0.00025 2.1543 0 0.26232-0.00012 0.47001 0.00013 0.61524 0 0.14524-0.00013-0.37761 0.01035 0.33007-0.00195a6.0561824 6.0561824 0 1 0 -0.20898 -12.10938c0.69319-0.012 0.0112-0.00012-0.13086 0-0.14211 0.00013-0.34983-0.00012-0.61133 0-0.52301 0.00025-1.26489-0.00023-2.15234 0-1.77488 0.00047-4.13094 0.00196-6.48828 0.00196-4.71468 0.00075-9.46478 0.00195-9.48828 0.00195-5.89462 0-10.54297-4.64834-10.54297-10.54297 0-5.89461 4.64835-10.54492 10.54297-10.54492 0.0817 0 0.14548 0.00066 0.1914 0.00195a6.0561824 6.0561824 0 0 0 6.29102 -6.19726 6.0561824 6.0561824 0 0 0 -6.23828 -6.17969c-0.11564 0.002-0.19714 0.00195-0.24414 0.00195-5.89462 0-10.54297-4.64834-10.54297-10.54297 0-5.89461 4.64835-10.54296 10.54297-10.54296 0.0817 0 0.14548 0.00068 0.1914 0.00195a6.0561824 6.0561824 0 0 0 6.28711 -6.3125 6.0561824 6.0561824 0 0 0 -6.23437 -6.41016c-0.11564 0.002-0.19714 0.00391-0.24414 0.00391-5.89462 0-10.54297-4.65029-10.54297-10.54492 0-5.89461 4.64835-10.54297 10.54297-10.54297 0.0817 0 0.14548 0.00066 0.1914 0.00195a6.0561824 6.0561824 0 0 0 6.29102 -6.19726 6.0561824 6.0561824 0 0 0 -6.23828 -6.17969c-0.11564 0.002-0.19714 0.00195-0.24414 0.00195-5.89462 0-10.54297-4.64834-10.54297-10.54297 0-5.89462 4.64835-10.54297 10.54297-10.54297 0.0409 0 4.77371-0.00062 9.48828 0 2.35729 0.00031 4.71361 0.00091 6.48828 0.00196 0.88734 0.00026 1.62974 0.0039 2.15234 0.0039 0.26129 0.00015 0.46807-0.00017 0.60938 0 0.0707 0.00008 0.12558-0.00008 0.16015 0 0.0346 0.00008 0.44542 0.0097-0.07812-0.0039a6.0561824 6.0561824 0 1 0 0.3125 -12.10743c-0.53083-0.0137-0.16387-0.00195-0.20703-0.00195-0.0432-0.0001-0.10081 0.00009-0.17383 0-0.14602-0.00017-0.35271 0.00016-0.61523 0-0.52506-0.00032-1.26829-0.00195-2.15626-0.00195-1.77593-0.00052-4.13263 0.00031-6.49023 0-4.71522-0.00063-9.41469-0.00195-9.49023-0.00195zm-64.14649 1.48632a6.0561824 6.0561824 0 0 0 -5.96484 6.14063v131.71484a6.0561824 6.0561824 0 1 0 12.11133 0v-131.71484a6.0561824 6.0561824 0 0 0 -6.14649 -6.14063zm25.35156 0a6.0561824 6.0561824 0 0 0 -5.96484 6.14063v131.71484a6.0561824 6.0561824 0 1 0 12.11133 0v-131.71484a6.0561824 6.0561824 0 0 0 -6.14649 -6.14063zm172.67579 2.51368c-0.0755 0-4.77307 0.00091-9.48829 0.00195-2.35761 0.00031-4.71624-0.00052-6.49218 0-0.88797 0.00025-1.62925 0.00195-2.1543 0.00195-0.26255 0.00016-0.47116-0.00017-0.61719 0-0.073 0.00009-0.13067-0.0001-0.17383 0-0.0432 0.0001 0.3238-0.01194-0.20703 0.00195a6.0561824 6.0561824 0 1 0 0.31446 12.10743c-0.52359 0.0136-0.11274 0.00195-0.07813 0.00195 0.0346-0.00008 0.08951 0.00008 0.16016 0 0.14132-0.00017 0.34807 0.00015 0.60937 0 0.52259-0.00032 1.26305-0.00195 2.15039-0.00195 1.77467-0.0005 4.13295-0.00196 6.49024-0.00196 4.71458-0.00062 9.44548 0 9.48633 0 5.89463 0 10.54296 4.64835 10.54296 10.54297 0 5.89461-4.64834 10.54297-10.54296 10.54297-0.047 0-0.1285 0.00014-0.24414-0.00195a6.0561824 6.0561824 0 0 0 -6.23633 6.22851 6.0561824 6.0561824 0 0 0 6.28906 6.14844c0.0459-0.001 0.10971-0.00195 0.19141-0.00195 5.89463 0 10.54296 4.64835 10.54296 10.54297 0 5.89463-4.64834 10.54492-10.54296 10.54492-0.047 0-0.1285-0.00191-0.24414-0.00391a6.0561824 6.0561824 0 0 0 -6.23243 6.30469 6.0561824 6.0561824 0 0 0 6.28516 6.41797c0.0459-0.001 0.10971-0.00195 0.19141-0.00195 5.89463 0 10.54296 4.64834 10.54296 10.54296 0 5.89461-4.64834 10.54297-10.54296 10.54297-0.047 0-0.1285 0.00015-0.24414-0.00195a6.0561824 6.0561824 0 0 0 -6.23633 6.22852 6.0561824 6.0561824 0 0 0 6.28906 6.14843c0.0459-0.001 0.10971-0.00195 0.19141-0.00195 5.89463 0 10.54296 4.65029 10.54296 10.54492s-4.64833 10.54297-10.54296 10.54297l-9.48633-0.00195c-2.35734-0.00038-4.71536-0.00092-6.49024-0.00196-0.88745-0.00023-1.62933 0.00025-2.15234 0-0.2615-0.00012-0.46727 0.00013-0.60938 0-0.14211-0.00012-0.82601-0.012-0.13281 0a6.0561824 6.0561824 0 1 0 -0.20898 12.10938c0.70768 0.0122 0.18484 0.00195 0.33008 0.00195 0.14524 0.00013 0.3529-0.00012 0.61523 0 0.52463 0.00025 1.26839-0.00023 2.15625 0 1.77574 0.00047 4.13267 0.00196 6.49023 0.00196 4.71511 0.00075 9.39541 0.00195 9.48829 0.00195 12.43998 0 22.65429-10.21433 22.65429-22.6543 0-6.63349-2.95715-12.57392-7.55469-16.73047 4.59754-4.15655 7.55469-10.09698 7.55469-16.73047 0-6.73022-3.04925-12.74001-7.76367-16.90234 4.71424-4.16233 7.76367-10.17226 7.76367-16.90234 0-6.63315-2.95755-12.572-7.55469-16.72852 4.59754-4.15655 7.55469-10.09699 7.55469-16.73047 0-12.43997-10.21431-22.65429-22.65429-22.65429zm104.11914 0c-12.43997 0-22.6543 10.21432-22.6543 22.65429 0 6.63348 2.95716 12.57392 7.55469 16.73047-4.59714 4.15652-7.55469 10.09538-7.55469 16.72852 0 6.73008 3.04942 12.74001 7.76367 16.90234-4.71443 4.16233-7.76367 10.17212-7.76367 16.90234 0 6.63349 2.95716 12.57392 7.55469 16.73047-4.59753 4.15655-7.55469 10.09698-7.55469 16.73047 0 12.43997 10.21433 22.6543 22.6543 22.6543 0.0929 0 4.77512-0.00091 9.49023-0.00195 2.35755-0.00037 4.7145-0.00091 6.49023-0.00196 0.88786-0.00023 1.62965 0.00025 2.1543 0 0.26232-0.00012 0.47001 0.00013 0.61524 0 0.14524-0.00013-0.37761 0.01035 0.33007-0.00195a6.0561824 6.0561824 0 1 0 -0.20898 -12.10938c0.69319-0.012 0.0112-0.00012-0.13086 0-0.14211 0.00013-0.34983-0.00012-0.61133 0-0.52301 0.00025-1.26489-0.00023-2.15234 0-1.77488 0.00047-4.13094 0.00196-6.48828 0.00196-4.71468 0.00075-9.46478 0.00195-9.48828 0.00195-5.89462 0-10.54297-4.64834-10.54297-10.54297s4.64835-10.54492 10.54297-10.54492c0.0817 0 0.14551 0.00066 0.1914 0.00195a6.0561824 6.0561824 0 0 0 6.29102 -6.19726 6.0561824 6.0561824 0 0 0 -6.23828 -6.17969c-0.11563 0.002-0.19714 0.00195-0.24414 0.00195-5.89462 0-10.54297-4.64836-10.54297-10.54297 0-5.89462 4.64835-10.54296 10.54297-10.54296 0.0817 0 0.14551 0.00068 0.1914 0.00195a6.0561824 6.0561824 0 0 0 6.28711 -6.3125 6.0561824 6.0561824 0 0 0 -6.23437 -6.41016c-0.11563 0.002-0.19714 0.00391-0.24414 0.00391-5.89462 0-10.54297-4.65029-10.54297-10.54492 0-5.89462 4.64835-10.54297 10.54297-10.54297 0.0817 0 0.14551 0.00066 0.1914 0.00195a6.0561824 6.0561824 0 0 0 6.29102 -6.19726 6.0561824 6.0561824 0 0 0 -6.23828 -6.17969c-0.11563 0.002-0.19714 0.00195-0.24414 0.00195-5.89462 0-10.54297-4.64836-10.54297-10.54297 0-5.89462 4.64835-10.54297 10.54297-10.54297 0.0409 0 4.77371-0.00062 9.48828 0 2.35729 0.00031 4.71361 0.00091 6.48828 0.00196 0.88734 0.00026 1.62974 0.0039 2.15234 0.0039 0.26129 0.00015 0.46807-0.00017 0.60938 0 0.0707 0.00008 0.12558-0.00008 0.16015 0 0.0346 0.00008 0.44356 0.0097-0.08007-0.0039a6.0561824 6.0561824 0 1 0 0.31445 -12.10743c-0.53083-0.0137-0.16387-0.00195-0.20703-0.00195-0.0432-0.0001-0.10081 0.00009-0.17383 0-0.14602-0.00017-0.35271 0.00016-0.61523 0-0.52506-0.00032-1.26828-0.00195-2.15626-0.00195-1.77593-0.00052-4.13263 0.00031-6.49023 0-4.71522-0.00063-9.41469-0.00195-9.49023-0.00195zm-64.14649 1.48632a6.0561824 6.0561824 0 0 0 -5.96484 6.14063v131.71484a6.0561824 6.0561824 0 1 0 12.11133 0v-131.71484a6.0561824 6.0561824 0 0 0 -6.14649 -6.14063zm25.35156 0a6.0561824 6.0561824 0 0 0 -5.96484 6.14063v131.71484a6.0561824 6.0561824 0 1 0 12.11133 0v-131.71484a6.0561824 6.0561824 0 0 0 -6.14649 -6.14063zm-303.32421 194.51368c-0.0755 0-4.77307 0.00091-9.48829 0.00195-2.35761 0.00031-4.716245-0.00052-6.492183 0-0.88797 0.00025-1.629233 0.00195-2.154297 0.00195-0.262532 0.00016-0.47116-0.00017-0.617188 0-0.073009 0.00009-0.130667-0.0001-0.173828 0-0.04316 0.0001 0.323865-0.01184-0.207031 0.00195a6.0561824 6.0561824 0 1 0 0.314453 12.10743c-0.523658 0.0136-0.112683 0.00195-0.078125 0.00195 0.03457-0.00008 0.089501 0.00008 0.160157 0 0.141317-0.00017 0.348077 0.00015 0.609374 0 0.522593-0.00032 1.263054-0.00195 2.150391-0.00195 1.774667-0.00051 4.132947-0.00196 6.490237-0.00196 4.71458-0.00062 9.44548 0 9.48633 0 5.89463 0 10.54296 4.64835 10.54296 10.54297 0 5.89461-4.64834 10.54297-10.54296 10.54297-0.047 0-0.12849 0.00014-0.24414-0.00195a6.0561824 6.0561824 0 0 0 -6.23633 6.22851 6.0561824 6.0561824 0 0 0 6.28906 6.14844c0.0459-0.001 0.10972-0.00195 0.19141-0.00195 5.89463 0 10.54296 4.64835 10.54296 10.54297s-4.64834 10.54492-10.54296 10.54492c-0.047 0-0.1285-0.00191-0.24414-0.00391a6.0561824 6.0561824 0 0 0 -6.23243 6.30469 6.0561824 6.0561824 0 0 0 6.28516 6.41797c0.0459-0.001 0.10972-0.00195 0.19141-0.00195 5.89463 0 10.54296 4.64834 10.54296 10.54296 0 5.89461-4.64834 10.54297-10.54296 10.54297-0.047 0-0.1285 0.00015-0.24414-0.00195a6.0561824 6.0561824 0 0 0 -6.23633 6.22852 6.0561824 6.0561824 0 0 0 6.28906 6.14843c0.0459-0.001 0.10972-0.00195 0.19141-0.00195 5.89463 0 10.54296 4.65029 10.54296 10.54492s-4.64833 10.54297-10.54296 10.54297l-9.48633-0.00195c-2.35734-0.00038-4.71535-0.00092-6.490237-0.00196-0.887443-0.00023-1.629336 0.00025-2.152344 0-0.261504-0.00012-0.467267 0.00013-0.609375 0-0.142107-0.00012-0.8261-0.012-0.132812 0a6.0561824 6.0561824 0 1 0 -0.208984 12.10938c0.707764 0.0122 0.184842 0.00195 0.330078 0.00195 0.145235 0.00013 0.35291-0.00012 0.615234 0 0.524649 0.00025 1.268386-0.00023 2.15625 0 1.77573 0.00047 4.13267 0.00196 6.49023 0.00196 4.71511 0.00075 9.39541 0.00195 9.48829 0.00195 12.43998 0 22.65429-10.21433 22.65429-22.6543 0-6.63349-2.95714-12.57392-7.55469-16.73047 4.59755-4.15655 7.55469-10.09698 7.55469-16.73047 0-6.73022-3.04925-12.74001-7.76367-16.90234 4.71424-4.16233 7.76367-10.17225 7.76367-16.90234 0-6.63315-2.95755-12.572-7.55469-16.72852 4.59755-4.15655 7.55469-10.09699 7.55469-16.73047 0-12.43997-10.21431-22.65429-22.65429-22.65429zm104.11914 0c-12.43997 0-22.6543 10.21432-22.6543 22.65429 0 6.63348 2.95716 12.57392 7.55469 16.73047-4.59714 4.15652-7.55469 10.09537-7.55469 16.72852 0 6.73008 3.04942 12.74001 7.76367 16.90234-4.71443 4.16233-7.76367 10.17212-7.76367 16.90234 0 6.63349 2.95716 12.57392 7.55469 16.73047-4.59753 4.15655-7.55469 10.09698-7.55469 16.73047 0 12.43997 10.21433 22.6543 22.6543 22.6543 0.0929 0 4.77511-0.00091 9.49023-0.00195 2.35755-0.00037 4.71451-0.00091 6.49023-0.00196 0.88786-0.00023 1.62965 0.00025 2.1543 0 0.26232-0.00012 0.47001 0.00013 0.61524 0 0.14524-0.00013-0.37761 0.01035 0.33007-0.00195a6.0561824 6.0561824 0 1 0 -0.20898 -12.10938c0.69319-0.012 0.0112-0.00012-0.13086 0-0.14211 0.00013-0.34983-0.00012-0.61133 0-0.52301 0.00025-1.26489-0.00023-2.15234 0-1.77488 0.00047-4.13094 0.00196-6.48828 0.00196-4.71468 0.00075-9.46478 0.00195-9.48828 0.00195-5.89462 0-10.54297-4.64834-10.54297-10.54297s4.64835-10.54492 10.54297-10.54492c0.0817 0 0.14548 0.00066 0.1914 0.00195a6.0561824 6.0561824 0 0 0 6.29102 -6.19726 6.0561824 6.0561824 0 0 0 -6.23828 -6.17969c-0.11564 0.002-0.19714 0.00195-0.24414 0.00195-5.89462 0-10.54297-4.64836-10.54297-10.54297 0-5.89462 4.64835-10.54296 10.54297-10.54296 0.0817 0 0.14548 0.00068 0.1914 0.00195a6.0561824 6.0561824 0 0 0 6.28711 -6.3125 6.0561824 6.0561824 0 0 0 -6.23437 -6.41016c-0.11564 0.002-0.19714 0.00391-0.24414 0.00391-5.89462 0-10.54297-4.65029-10.54297-10.54492 0-5.89461 4.64835-10.54297 10.54297-10.54297 0.0817 0 0.14548 0.00066 0.1914 0.00195a6.0561824 6.0561824 0 0 0 6.29102 -6.19726 6.0561824 6.0561824 0 0 0 -6.23828 -6.17969c-0.11564 0.002-0.19714 0.00195-0.24414 0.00195-5.89462 0-10.54297-4.64836-10.54297-10.54297 0-5.89462 4.64835-10.54297 10.54297-10.54297 0.0409 0 4.77371-0.00062 9.48828 0 2.35729 0.00031 4.71361 0.00092 6.48828 0.00196 0.88734 0.00027 1.62974 0.0039 2.15234 0.0039 0.26129 0.00015 0.46807-0.00017 0.60938 0 0.0707 0.00008 0.12558-0.00008 0.16015 0 0.0346 0.00008 0.44542 0.0097-0.07812-0.0039a6.0561824 6.0561824 0 1 0 0.3125 -12.10743c-0.53083-0.0138-0.16387-0.00195-0.20703-0.00195-0.0432-0.0001-0.10081 0.00009-0.17383 0-0.14602-0.00017-0.35271 0.00016-0.61523 0-0.52506-0.00032-1.26829-0.00195-2.15626-0.00195-1.77593-0.00052-4.13263 0.00031-6.49023 0-4.71522-0.00063-9.41469-0.00195-9.49023-0.00195zm133.88086 0c-0.0755 0-4.77307 0.00091-9.48829 0.00195-2.35761 0.00031-4.71624-0.00052-6.49218 0-0.88797 0.00025-1.62925 0.00195-2.1543 0.00195-0.26255 0.00016-0.47116-0.00017-0.61719 0-0.073 0.00009-0.13067-0.0001-0.17383 0-0.0432 0.0001 0.3238-0.01184-0.20703 0.00195a6.0561824 6.0561824 0 1 0 0.31446 12.10743c-0.52359 0.0136-0.11274 0.00195-0.07813 0.00195 0.0346-0.00008 0.08951 0.00008 0.16016 0 0.14132-0.00017 0.34807 0.00015 0.60937 0 0.52259-0.00032 1.26305-0.00195 2.15039-0.00195 1.77467-0.00051 4.13295-0.00196 6.49024-0.00196 4.71458-0.00062 9.44548 0 9.48633 0 5.89463 0 10.54296 4.64835 10.54296 10.54297 0 5.89461-4.64834 10.54297-10.54296 10.54297-0.047 0-0.1285 0.00014-0.24414-0.00195a6.0561824 6.0561824 0 0 0 -6.23633 6.22851 6.0561824 6.0561824 0 0 0 6.28906 6.14844c0.0459-0.001 0.10971-0.00195 0.19141-0.00195 5.89463 0 10.54296 4.64835 10.54296 10.54297s-4.64834 10.54492-10.54296 10.54492c-0.047 0-0.1285-0.00191-0.24414-0.00391a6.0561824 6.0561824 0 0 0 -6.23243 6.30469 6.0561824 6.0561824 0 0 0 6.28516 6.41797c0.0459-0.001 0.10971-0.00195 0.19141-0.00195 5.89463 0 10.54296 4.64834 10.54296 10.54296 0 5.89461-4.64834 10.54297-10.54296 10.54297-0.047 0-0.1285 0.00015-0.24414-0.00195a6.0561824 6.0561824 0 0 0 -6.23633 6.22852 6.0561824 6.0561824 0 0 0 6.28906 6.14843c0.0459-0.001 0.10971-0.00195 0.19141-0.00195 5.89463 0 10.54296 4.65029 10.54296 10.54492s-4.64833 10.54297-10.54296 10.54297l-9.48633-0.00195c-2.35734-0.00038-4.71536-0.00092-6.49024-0.00196-0.88745-0.00023-1.62933 0.00025-2.15234 0-0.2615-0.00012-0.46727 0.00013-0.60938 0-0.14211-0.00012-0.82601-0.012-0.13281 0a6.0561824 6.0561824 0 1 0 -0.20898 12.10938c0.70768 0.0122 0.18484 0.00195 0.33008 0.00195 0.14524 0.00013 0.3529-0.00012 0.61523 0 0.52463 0.00025 1.26839-0.00023 2.15625 0 1.77574 0.00047 4.13267 0.00196 6.49023 0.00196 4.71511 0.00075 9.39541 0.00195 9.48829 0.00195 12.43998 0 22.65429-10.21433 22.65429-22.6543 0-6.63349-2.95715-12.57392-7.55469-16.73047 4.59754-4.15655 7.55469-10.09698 7.55469-16.73047 0-6.73022-3.04925-12.74001-7.76367-16.90234 4.71424-4.16233 7.76367-10.17225 7.76367-16.90234 0-6.63315-2.95755-12.572-7.55469-16.72852 4.59754-4.15655 7.55469-10.09699 7.55469-16.73047 0-12.43997-10.21431-22.65429-22.65429-22.65429zm104.11914 0c-12.43997 0-22.6543 10.21432-22.6543 22.65429 0 6.63348 2.95716 12.57392 7.55469 16.73047-4.59714 4.15652-7.55469 10.09537-7.55469 16.72852 0 6.73008 3.04942 12.74001 7.76367 16.90234-4.71443 4.16233-7.76367 10.17212-7.76367 16.90234 0 6.63349 2.95716 12.57392 7.55469 16.73047-4.59753 4.15655-7.55469 10.09698-7.55469 16.73047 0 12.43997 10.21433 22.6543 22.6543 22.6543 0.0929 0 4.77512-0.00091 9.49023-0.00195 2.35755-0.00037 4.7145-0.00091 6.49023-0.00196 0.88786-0.00023 1.62965 0.00025 2.1543 0 0.26232-0.00012 0.47001 0.00013 0.61524 0 0.14524-0.00013-0.37761 0.01035 0.33007-0.00195a6.0561824 6.0561824 0 1 0 -0.20898 -12.10938c0.69319-0.012 0.0112-0.00012-0.13086 0-0.14211 0.00013-0.34983-0.00012-0.61133 0-0.52301 0.00025-1.26489-0.00023-2.15234 0-1.77488 0.00047-4.13094 0.00196-6.48828 0.00196-4.71468 0.00075-9.46478 0.00195-9.48828 0.00195-5.89462 0-10.54297-4.64834-10.54297-10.54297s4.64835-10.54492 10.54297-10.54492c0.0817 0 0.14551 0.00066 0.1914 0.00195a6.0561824 6.0561824 0 0 0 6.29102 -6.19726 6.0561824 6.0561824 0 0 0 -6.23828 -6.17969c-0.11563 0.002-0.19714 0.00195-0.24414 0.00195-5.89462 0-10.54297-4.64836-10.54297-10.54297 0-5.89462 4.64835-10.54296 10.54297-10.54296 0.0817 0 0.14551 0.00068 0.1914 0.00195a6.0561824 6.0561824 0 0 0 6.28711 -6.3125 6.0561824 6.0561824 0 0 0 -6.23437 -6.41016c-0.11563 0.002-0.19714 0.00391-0.24414 0.00391-5.89462 0-10.54297-4.65029-10.54297-10.54492 0-5.89461 4.64835-10.54297 10.54297-10.54297 0.0817 0 0.14551 0.00066 0.1914 0.00195a6.0561824 6.0561824 0 0 0 6.29102 -6.19726 6.0561824 6.0561824 0 0 0 -6.23828 -6.17969c-0.11563 0.002-0.19714 0.00195-0.24414 0.00195-5.89462 0-10.54297-4.64836-10.54297-10.54297 0-5.89462 4.64835-10.54297 10.54297-10.54297 0.0409 0 4.77371-0.00062 9.48828 0 2.35729 0.00031 4.71361 0.00092 6.48828 0.00196 0.88734 0.00027 1.62974 0.0039 2.15234 0.0039 0.26129 0.00015 0.46807-0.00017 0.60938 0 0.0707 0.00008 0.12558-0.00008 0.16015 0 0.0346 0.00008 0.44356 0.0097-0.08007-0.0039a6.0561824 6.0561824 0 1 0 0.31445 -12.10743c-0.53083-0.0138-0.16387-0.00195-0.20703-0.00195-0.0432-0.0001-0.10081 0.00009-0.17383 0-0.14602-0.00017-0.35271 0.00016-0.61523 0-0.52506-0.00032-1.26828-0.00195-2.15626-0.00195-1.77593-0.00052-4.13263 0.00031-6.49023 0-4.71522-0.00063-9.41469-0.00195-9.49023-0.00195zm-302.14649 1.48632a6.0561824 6.0561824 0 0 0 -5.96484 6.14063v131.71484a6.0561824 6.0561824 0 1 0 12.11133 0v-131.71484a6.0561824 6.0561824 0 0 0 -6.14649 -6.14063zm25.35156 0a6.0561824 6.0561824 0 0 0 -5.96484 6.14063v131.71484a6.0561824 6.0561824 0 1 0 12.11133 0v-131.71484a6.0561824 6.0561824 0 0 0 -6.14649 -6.14063zm212.64844 0a6.0561824 6.0561824 0 0 0 -5.96484 6.14063v131.71484a6.0561824 6.0561824 0 1 0 12.11133 0v-131.71484a6.0561824 6.0561824 0 0 0 -6.14649 -6.14063zm25.35156 0a6.0561824 6.0561824 0 0 0 -5.96484 6.14063v131.71484a6.0561824 6.0561824 0 1 0 12.11133 0v-131.71484a6.0561824 6.0561824 0 0 0 -6.14649 -6.14063z"
                fill="#fff"/>
        </symbol>
        <symbol id="tower_high" viewBox="0 0 576.44501 577.45154">
            <title>tower_high</title>
            <path d="m64.571 0.06355556c-41.335 0-64.571 21.371-64.571 65.036v450.123c0 40.844 20.894 62.229 62.192 62.229h452.024c41.307 0 62.229-20.316 62.229-62.229v-450.123c0-42.601-20.922-65.036-63.522-65.036-0.003 0-448.494-0.143-448.352 0z"/>
            <path
                opacity=".5"
                d="m40.243266 81.506494-12.699219 20.363286s132.5537 82.53321 263.54297 6.24414c30.41721 16.20492 148.84911 70.0744 264.02929-2.87305l-12.84179-20.275392c-121.01376 76.642052-246.03125-1.458985-246.03125-1.458984l-4.77539 7.658203-5.19336-8.199219c-121.01376 76.642052-246.03125-1.458984-246.03125-1.458984zm0 74.000006-12.699219 20.36328s132.5537 82.53321 263.54297 6.24414c30.41721 16.20492 148.84911 70.0744 264.02929-2.87305l-12.84179-20.27539c-121.01376 76.64205-246.03125-1.45898-246.03125-1.45898l-4.77539 7.6582-5.19336-8.19922c-121.01376 76.64205-246.03125-1.45898-246.03125-1.45898z"
                fill="#fff"/>
            <path
                d="m290.11631 81.602197a9.9056297 9.9056297 0 0 0 -9.47461 9.755859v8.47852c-1.15163 22.484434-6.18228 83.868724-20.68554 154.61718-16.94164 82.64306-46.99891 179.26399-97.47461 246.64063a9.9056297 9.9056297 0 1 0 15.85351 11.87695c13.83058-18.4615 26.08895-38.74432 36.97852-60.11133a7.7116452 7.7116452 0 0 0 3.00195 -1.77148l72.42188-67.03906 72.41992 67.03906a7.7116452 7.7116452 0 0 0 3.16992 1.82031c10.8254 21.18132 23.0013 41.28778 36.72266 59.60352a9.9056297 9.9056297 0 1 0 15.85351 -11.87696c-50.47569-67.37668-80.53493-163.99755-97.47656-246.64062-14.49566-70.71138-19.52848-132.06654-20.68359-154.58008v-7.597656a9.9056297 9.9056297 0 0 0 -1.82422 -5.58789 9.9056297 9.9056297 0 0 0 -8.80274 -4.626953zm0.60938 112.09961c2.87576 19.57029 6.55114 41.12887 11.29492 64.26953 1.65358 8.06634 3.42993 16.26917 5.33008 24.56836l-16.44141 15.2207-16.71289-15.4707c1.83886-8.05706 3.55959-16.02109 5.16602-23.85742 4.78081-23.32129 8.47762-45.039 11.36328-64.73047zm-19.83399 102.60156 10.79492 9.99414-17.55078 16.2461c2.40215-8.80437 4.64806-17.56254 6.75586-26.24024zm39.76953 0.24414c2.06447 8.47257 4.26234 17.02125 6.60743 25.61328l-17.13868-15.86523 10.53125-9.74805zm-19.7539 18.28516 26.23047 24.28125a7.7116452 7.7116452 0 0 0 -2.06641 1.39648l-24.33398 22.52539-24.33399-22.52539a7.7116452 7.7116452 0 0 0 -1.83789 -1.29296l26.3418-24.38477zm34.93359 36.70312c6.95871 22.36485 14.96727 44.70612 24.1836 66.38086l-47.93555-44.37304 23.45898-21.7168a7.7116452 7.7116452 0 0 0 0.29297 -0.29102zm-70.16992 0.0449a7.7116452 7.7116452 0 0 0 0.25586 0.24609l23.45898 21.7168-47.75781 44.20898c9.16157-21.61362 17.12107-43.88317 24.04297-66.17187z"
                fill-rule="evenodd"
                fill="#fff"/>
            <path
                opacity=".5"
                d="m39.186625 83.203759-10.583984 16.968751s132.15684 82.30906 262.43164 5.65625c28.49809 15.38249 147.43188 70.92322 263.01172-2.27734l-10.70117-16.896489c-122.058 77.303399-248.15821-1.451172-248.15821-1.451172l-3.71874 5.960938-4.12305-6.509766c-122.058 77.303399-248.1582-1.451172-248.1582-1.451172zm0 74.000001-10.583984 16.96875s132.15684 82.30906 262.43164 5.65625c28.49809 15.38249 147.43188 70.92322 263.01172-2.27734l-10.70117-16.89648c-122.058 77.30338-248.15821-1.45118-248.15821-1.45118l-3.71874 5.96094-4.12305-6.50976c-122.058 77.30339-248.1582-1.45118-248.1582-1.45118z"
                fill="#fff"/>
        </symbol>
        <symbol id="tower_high2" viewBox="0 0 576.44501 577.45154">
            <title>tower_high2</title>
            <path d="m64.571 0.06355556c-41.335 0-64.571 21.371-64.571 65.036v450.123c0 40.844 20.894 62.229 62.192 62.229h452.024c41.307 0 62.229-20.316 62.229-62.229v-450.123c0-42.601-20.922-65.036-63.522-65.036-0.003 0-448.494-0.143-448.352 0z"/>
            <path
                d="m279.56553 54.299462a12.50125 12.50125 0 0 0 -12.36523 12.625l-0.0625 14.277344-48.52539-0.208984a12.50125 12.50125 0 1 0 -0.10743 25.000008l48.5254 0.20898-0.18555 42.99805-48.23242-0.20703a12.50125 12.50125 0 1 0 -0.10743 25l48.23243 0.20703-0.14844 34.54687a12.50125 12.50125 0 0 0 -0.6582 1.47071l-102.55274 271.5371a12.50125 12.50125 0 1 0 23.38867 8.83204l16.39063-43.39649 87.58008-70.94336 86.46093 70.03711 16.73243 44.30274a12.50125 12.50125 0 1 0 23.38671 -8.83204l-102.55078-271.5371a12.50125 12.50125 0 0 0 -1.17187 -2.38868l0.14258-33.42578 50.42382 0.2168a12.50125 12.50125 0 1 0 0.10743 -25l-50.42383-0.2168 0.18555-42.99804 50.13085 0.21484a12.50125 12.50125 0 1 0 0.10743 -25.000005l-50.13086-0.214844 0.0625-14.373047a12.50125 12.50125 0 0 0 -12.63477 -12.732422 12.50125 12.50125 0 0 0 -10.85937 6.582032 12.50125 12.50125 0 0 0 -11.14063 -6.582032zm10.50391 164.42188a12.50125 12.50125 0 0 0 2.35156 3.08984l15.26367 40.41797-16.77539 15.5293-17.60742-16.29883 15.34961-40.64648a12.50125 12.50125 0 0 0 1.41797 -2.0918zm-21.54688 55.39063 13.16406 12.18359-27.31445 25.28711 14.15039-37.4707zm43.94141 0.76757 13.25781 35.10743-25.5918-23.69141 12.33399-11.41602zm-21.55469 19.95313 35.39063 32.76172-35.5625 28.80469-35.37891-28.65821 35.55078-32.9082zm-46.7207 43.70898 34.29687 27.78125-64.52929 52.27149 30.23242-80.05274zm92.5 0.48243 29.70898 78.66406-63.4082-51.36524 33.69922-27.29882z"
                fill="#fff"/>
            <path
                opacity=".5"
                d="m39.438578 85.110009-11.08789 13.15625s25.589968 21.644881 63.59375 32.623051 89.757212 10.94211 139.05859-31.251954l-11.18555-13.070316c-44.88704 38.41611-88.89031 37.67446-123.09765 27.79297-34.207341-9.88148-57.281252-29.250001-57.281252-29.250001zm500.42773 0s-23.07391 19.368521-57.28125 29.250001c-34.20734 9.88149-78.21061 10.62314-123.09765-27.79297l-11.1875 13.070316c49.30137 42.194064 101.05676 42.230124 139.06054 31.251954s63.59375-32.623051 63.59375-32.623051l-11.08789-13.15625zm-500.42773 72.000001-11.08789 13.15625s25.589968 21.64488 63.59375 32.62305 89.757212 10.94211 139.05859-31.25195l-11.18555-13.07032c-44.88704 38.41611-88.89031 37.67446-123.09765 27.79297-34.207339-9.88148-57.28125-29.25-57.28125-29.25zm500.42773 0s-23.07391 19.36852-57.28125 29.25c-34.20734 9.88149-78.21061 10.62314-123.09765-27.79297l-11.1875 13.07032c49.30137 42.19406 101.05676 42.23012 139.06054 31.25195s63.59375-32.62305 63.59375-32.62305l-11.08789-13.15625z"
                fill="#fff"/>
        </symbol>
        <symbol id="tower_low" viewBox="0 0 576.44501 577.45154">
            <title>tower_low</title>
            <path d="m64.571 0.06355556c-41.335 0-64.571 21.371-64.571 65.036v450.123c0 40.844 20.894 62.229 62.192 62.229h452.024c41.307 0 62.229-20.316 62.229-62.229v-450.123c0-42.601-20.922-65.036-63.522-65.036-0.003 0-448.494-0.143-448.352 0z"/>
            <path
                opacity=".75"
                d="m36.647562 130.19595-5.507812 6.98438s26.669382 21.05476 66.191406 31.73632 92.547694 10.88839 144.04101-30.34375l-5.56055-6.9414c-49.17779 39.37803-98.50097 38.87731-136.16015 28.69922-37.659181-10.1781-63.003907-30.13477-63.003908-30.13477zm308.99805 1.98438-5.50391 7.01562s26.81252 21.05456 66.54102 31.73438c39.7285 10.67981 93.02226 10.89064 144.79101-30.33985l-5.55664-6.97656c-49.4449 39.37969-99.05129 38.88492-136.91992 28.70508-37.86862-10.17984-63.35156-30.13867-63.35156-30.13867z"
                fill="#fff"/>
            <path d="m266.44444 68.391259v20 28.816411h-49.59961a15.611673 15.611673 0 1 0 0 31.21875h49.59961v362.81445 20h40v-20-362.81445h52.72265a15.611673 15.611673 0 1 0 0 -31.21875h-52.72265v-28.816411-20h-40z" fill="#fff"/>
        </symbol>
        <symbol id="transformer" viewBox="0 0 576.44501 577.45154">
            <title>transformer</title>
            <path d="m64.571 0.06355556c-41.335 0-64.571 21.371-64.571 65.036v450.123c0 40.844 20.894 62.229 62.192 62.229h452.024c41.307 0 62.229-20.316 62.229-62.229v-450.123c0-42.601-20.922-65.036-63.522-65.036-0.003 0-448.494-0.143-448.352 0z"/>
            <path
                d="m174.27256 132.08267c-0.1644 0-10.18291 0.00053-20.24023 0.002-5.02866 0.00069-10.0562 0.00093-13.84375 0.002-1.89378 0.00049-3.47874 0.00095-4.59766 0.002-0.55946 0.00028-1.00107 0.002-1.31054 0.002-0.3095 0.0003 0.6889-0.0259-0.68555 0.002a10.001 10.001 0 1 0 0.40429 19.99609c-1.34355 0.0272-0.003 0.002 0.30079 0.002 0.30341-0.00029 0.74486-0.002 1.30273-0.002 1.11574-0.00056 2.69688-0.00095 4.58984-0.002 3.78593-0.00099 8.81551-0.00096 13.84375-0.002l20.23633-0.002c14.1495 0 25.4043 11.25675 25.4043 25.40625s-11.2548 25.4043-25.4043 25.4043c-0.16768 0-0.34825-0.002-0.54101-0.006a10.001 10.001 0 0 0 -10.32813 10.27343 10.001 10.001 0 0 0 10.32813 10.29883c0.19276-0.004 0.37333-0.006 0.54101-0.006 14.1495 0 25.4043 11.2548 25.4043 25.4043s-11.2548 25.40625-25.4043 25.40625c-0.16768 0-0.34825-0.002-0.54101-0.006a10.001 10.001 0 0 0 -10.31446 10.58399 10.001 10.001 0 0 0 10.31446 10.72265c0.19276-0.004 0.37333-0.006 0.54101-0.006 14.1495 0 25.4043 11.25675 25.4043 25.40625s-11.2548 25.4043-25.4043 25.4043c-0.16768 0-0.34825-0.002-0.54101-0.006a10.001 10.001 0 0 0 -10.32813 10.27344 10.001 10.001 0 0 0 10.32813 10.29882c0.19276-0.004 0.37333-0.006 0.54101-0.006 14.1495 0 25.4043 11.25479 25.4043 25.40429s-11.2548 25.40625-25.4043 25.40625c-0.0838 0-10.17983-0.00053-20.23633-0.002-5.02824-0.00069-10.05782-0.003-13.84375-0.004-1.89296-0.00049-3.4741 0.00056-4.58984 0-0.55787-0.00028-0.99932-0.002-1.30273-0.002-0.30342-0.00029-1.64434-0.0253-0.30079 0.002a10.001 10.001 0 1 0 -0.40429 19.9961c1.37445 0.0278 0.37606 0.002 0.68555 0.002 0.30948 0.0003 0.75108 0.002 1.31054 0.002 1.11892 0.00056 2.70388-0.00049 4.59766 0 3.78755 0.00099 8.81509 0.003 13.84375 0.004 10.05732 0.001 20.07583 0.002 20.24023 0.002 24.9583 0 45.4043-20.44795 45.4043-45.40625 0-14.5132-7.03397-27.3566-17.72852-35.68554 10.69418-8.32897 17.72852-21.17068 17.72852-35.6836 0-14.71923-7.21925-27.74034-18.17383-36.05273 10.95515-8.31235 18.17383-21.33501 18.17383-36.05469 0-14.5132-7.03397-27.3566-17.72852-35.68555 10.69418-8.32896 17.72852-21.17068 17.72852-35.68359 0-24.9583-20.446-45.40625-45.4043-45.40625zm222.08594 0c-24.9583 0-45.4043 20.44795-45.4043 45.40625 0 14.51273 7.03458 27.35461 17.72852 35.68359-10.69431 8.32896-17.72852 21.17253-17.72852 35.68555 0 14.71952 7.21888 27.74232 18.17383 36.05469-10.95439 8.3124-18.17383 21.33365-18.17383 36.05273 0 14.51273 7.03458 27.35462 17.72852 35.6836-10.69431 8.32896-17.72852 21.17253-17.72852 35.68554 0 24.9583 20.446 45.40625 45.4043 45.40625 0.16441 0 10.18292-0.00053 20.24023-0.002 5.02866-0.00069 10.0562-0.003 13.84375-0.004 1.89378-0.00049 3.47874 0.00056 4.59766 0 0.55946-0.00028 1.00106-0.002 1.31055-0.002 0.30949-0.0003-0.68879 0.026 0.68554-0.002a10.001 10.001 0 1 0 -0.40429 -19.9961c1.34346-0.0272 0.005-0.002-0.29883-0.002-0.30342 0.00029-0.74488 0.002-1.30273 0.002-1.11575 0.00056-2.69884-0.00049-4.5918 0-3.78593 0.00099-8.81355 0.003-13.8418 0.004l-20.23828 0.002c-14.1495 0-25.4043-11.25675-25.4043-25.40625s11.2548-25.40429 25.4043-25.40429c0.16769 0 0.34827 0.002 0.54102 0.006a10.001 10.001 0 0 0 10.33007 -10.30664 10.001 10.001 0 0 0 -10.33007 -10.26562c-0.19275 0.004-0.37333 0.006-0.54102 0.006-14.1495 0-25.4043-11.2548-25.4043-25.4043s11.2548-25.40625 25.4043-25.40625c0.16769 0 0.34827 0.002 0.54102 0.006a10.001 10.001 0 0 0 10.3164 -10.59765 10.001 10.001 0 0 0 -10.3164 -10.70899c-0.19275 0.004-0.37333 0.006-0.54102 0.006-14.1495 0-25.4043-11.25675-25.4043-25.40625s11.2548-25.4043 25.4043-25.4043c0.16769 0 0.34827 0.002 0.54102 0.006a10.001 10.001 0 0 0 10.33007 -10.30664 10.001 10.001 0 0 0 -10.33007 -10.26562c-0.19275 0.004-0.37333 0.006-0.54102 0.006-14.1495 0-25.4043-11.2548-25.4043-25.4043s11.2548-25.40625 25.4043-25.40625c0.0838 0 10.18179 0.00053 20.23828 0.002 5.02825 0.00069 10.05587 0.00093 13.8418 0.002 1.89296 0.00049 3.47605 0.00095 4.5918 0.002 0.55786 0.00028 0.99931 0.002 1.30273 0.002 0.30342 0.0003 1.64229 0.0252 0.29883-0.002a10.001 10.001 0 1 0 0.40429 -19.99609c-1.37433-0.0278-0.37605-0.002-0.68554-0.002-0.30949-0.0003-0.75109-0.002-1.31055-0.002-1.11892-0.00056-2.70388-0.00095-4.59766-0.002-3.78755-0.00099-8.81509-0.00096-13.84375-0.002-10.05731-0.001-20.07582-0.002-20.24023-0.002zm-136.78125 3.21289a10.001 10.001 0 0 0 -9.84961 10.14258v280.94922a10.001 10.001 0 1 0 20 0v-280.94922a10.001 10.001 0 0 0 -10.15039 -10.14258zm54.07227 0a10.001 10.001 0 0 0 -9.84961 10.14258v280.94922a10.001 10.001 0 1 0 20 0v-280.94922a10.001 10.001 0 0 0 -10.15039 -10.14258z"
                fill="#fff"/>
        </symbol>
    </defs>
</svg>
