<?xml version="1.0" encoding="UTF-8" standalone="no"?>
<svg 
    xmlns="http://www.w3.org/2000/svg"
    xmlns:svg="http://www.w3.org/2000/svg"
    xmlns:rdf="http://www.w3.org/1999/02/22-rdf-syntax-ns#" 
    xmlns:ns2="http://creativecommons.org/ns#" 
    xmlns:dc="http://purl.org/dc/elements/1.1/" 
    xmlns:cc="http://creativecommons.org/ns#"         
    xmlns:xlink="http://www.w3.org/1999/xlink" 
    version="1.1"
    id="svg2"
    style="fill:black;stroke:none">
    <title>SJJB Map Icons [Water Set]</title>
    <desc>These map icons are an attempt to create a simple consistent set of vector icons suitable for cartographic use.</desc>
    <metadata>
        <rdf:RDF>
            <cc:Work rdf:about="">
                <dc:format>image/svg+xml</dc:format>
                <dc:type rdf:resource="http://purl.org/dc/dcmitype/StillImage"/>
                <dc:title>SJJB Map Icons [Water Set]</dc:title>
                <dc:date>2017-01-07</dc:date>
                <dc:creator>
                    <cc:Agent>
                        <dc:title>SJJB Management</dc:title>
                    </cc:Agent>
                </dc:creator>
                <dc:rights>
                    <cc:Agent>
                        <dc:title>Map icons CC-0 from SJJB Management</dc:title>
                    </cc:Agent>
                </dc:rights>
                <dc:language>English</dc:language>

                <dc:source>http://www.sjjb.co.uk/mapicons/introduction</dc:source>
                <dc:description>These map icons are an attempt to create a simple consistent set of vector icons suitable for cartographic use.</dc:description>
            </cc:Work>
        </rdf:RDF>
    </metadata>

    <defs>
        <symbol id="dam">
            <title>dam</title>
            <path
                d="m231.42578 0-28.76757 0.128907v385.77539h136.28125l-87.58594-372.64062c-3.26766-7.752678-11.02176-13.263676-19.92774-13.263676zm-231.42578 32.035165v35.04687h178.95117v-35.04687zm0 53.18164v35.046865h178.95117v-35.046865zm0 53.177725v34.91992h178.95117v-34.91992zm0 53.05078v35.04883h178.95117v-35.04883zm0 53.24414v35.04688h178.95117v-35.04688zm403.13867 49.01563c-7.24011 0-13.96825 1.60114-20.11914 4.48437-5.89461 2.62695-12.55719 4.23047-19.54101 4.23047-6.91976 0-13.52022-1.60352-19.54297-4.23047l7.17773 31.78125c3.97245 1.08922 8.1365 1.60157 12.36524 1.60157 7.0479 0 13.6464-1.47462 19.54101-4.10157 6.08681-2.88323 12.87903-4.48437 20.11914-4.48437 7.17604 0 13.9038 1.60114 20.05469 4.48437 5.89461 2.62695 12.62128 4.10157 19.54102 4.10157 6.91976 0 13.52022-1.47462 19.54297-4.10157 6.02275-2.88323 12.94272-4.48437 20.05468-4.48437 7.11197 0 13.96629 1.60114 20.11719 4.48437 5.8946 2.62695 12.55914 4.10157 19.54297 4.10157v-29.15235c-7.0479 0-13.64837-1.60352-19.54297-4.23047-6.08683-2.88323-12.94114-4.48437-20.11719-4.48437-7.17603 0-14.03193 1.60114-20.05468 4.48437-6.02275 2.62695-12.62321 4.23047-19.54297 4.23047-6.91974 0-13.64641-1.60352-19.54102-4.23047-6.15089-2.88323-12.94272-4.48437-20.05469-4.48437zm-403.13867 4.16601v35.04688h178.95117v-35.04688zm403.13867 49.58985c-7.24011 0-13.96825 1.60308-20.11914 4.48633-5.89461 2.62696-12.55719 4.22852-19.54101 4.22852-2.62695 0-5.25391-0.25696-7.88086-0.76953l6.72656 29.92187h1.1543c7.0479 0 13.6464-1.47462 19.54101-4.10156 6.08681-2.88323 12.87903-4.48437 20.11914-4.48437 7.17604 0 13.9038 1.60114 20.05469 4.48437 5.89461 2.62694 12.62128 4.10156 19.54102 4.10156 6.91976 0 13.52022-1.47462 19.54297-4.10156 6.02275-2.88323 12.94272-4.48437 20.05468-4.48437 7.11197 0 13.96629 1.60114 20.11719 4.48437 5.8946 2.62694 12.55914 4.10156 19.54297 4.10156v-29.15234c-7.0479 0-13.64837-1.60156-19.54297-4.22851-6.08683-2.88325-12.94114-4.48633-20.11719-4.48633-7.17603 0-14.03193 1.60308-20.05468 4.48633-6.02275 2.62695-12.62321 4.22851-19.54297 4.22851-6.91974 0-13.64641-1.60156-19.54102-4.22851-6.15089-2.88325-12.94272-4.48633-20.05469-4.48634zm-403.13867 3.46093v35.04688h178.95117v-35.04688z"/>
        </symbol>
        <symbol id="tower">
            <title>tower</title>
            <path
                d="m0 0v191.00586a10.001 10.001 0 0 0 10 10h112.76367c-0.98236 7.2778-2.83962 18.34623-5.63867 31.30274-4.37436 20.24848-10.92924 46.00019-19.55664 73.59765-17.2548 55.19492-43.06526 117.87301-75.29492 158.66406a9.9056297 9.9056297 0 1 0 15.54297 12.28126c7.05614-8.93053 13.73518-18.66885 20.05664-28.97266a7.7636571 7.7636571 0 0 0 1.875 -1.07813l111.95703-84.68554 110.75586 83.77539c6.67776 11.04317 13.76218 21.45687 21.27148 30.96094a9.9056297 9.9056297 0 1 0 15.54297 -12.28126c-32.22966-40.79106-58.04011-103.46914-75.29492-158.66406-8.6274-27.59746-15.18228-53.34917-19.55664-73.59765-2.79904-12.95651-4.6563-24.02494-5.63867-31.30274h117.89844a10.001 10.001 0 0 0 10 -10v-191.00586h-20v181.00586h-306.6836v-181.00586zm85.81445 6.074219c-0.46183-0.0066-0.9258-0.003-1.39062 0.01172-15.2705 0.59353-32.00672 12.41607-46.9375 13.125-0.27162 0.0043-0.54179 0.0031-0.8125 0v31.281253c0.2708 0.003 0.54078 0.0356 0.8125 0.0312 14.93078-0.58844 31.667-12.710923 46.9375-13.125003 14.87439-0.5897 28.16777 10.389113 43.15625 10.625003 15.21408 0.12049 30.64913-9.919853 46.9375-9.625003 16.06146 0.2346 32.41131 11.181403 48.8125 11.125003 16.11786-0.35509 31.39021-12.007063 48.1875-12.125003 12.40782-0.04153 25.74175 6.125003 38.5 9.500003v-31.375003c-12.75825-3.35024-26.09219-9.4375-38.5-9.4375-16.79728 0.11921-32.06965 11.7699-48.1875 12.125-16.40118 0.05769-32.75105-10.85788-48.8125-11.09375-16.28836-0.41278-31.72341 9.683-46.9375 9.5625-14.51886-0.284386-27.44859-10.402282-41.76563-10.605469zm0.0156 58.386723c-0.46183-0.006-0.94143 0.0165-1.40625 0.0312-15.2705 0.58967-32.00672 12.38226-46.9375 13.09375-0.27162 0.004-0.54179 0.003-0.8125 0v31.312498c0.2707 0.003 0.54088 0.004 0.8125 0 14.93078-0.71148 31.667-12.535308 46.9375-13.124998 14.87439-0.47303 28.16777 10.298898 43.15625 10.593748 15.21408 0.11793 30.64913-9.976558 46.9375-9.562498 16.06146 0.23717 32.41131 11.153998 48.8125 11.093748 16.11786-0.35255 31.39021-12.009618 48.1875-12.124998 12.40782 0 25.74175 6.087838 38.5 9.437498v-31.281248c-12.75881-3.34956-26.0916-9.4375-38.5-9.4375-16.79728 0.11921-32.06965 11.74123-48.1875 12.09375-16.40118 0.0602-32.75105-10.85659-48.8125-11.09375-16.28836-0.41408-31.72341 9.68043-46.9375 9.5625-14.51886-0.28564-27.43319-10.39297-41.75-10.59375zm57.03906 136.54492h55.81055c0.58539 5.3047 1.63976 11.82605 3.12695 19.59375l-31.5039 29.16406-30.69922-28.41992c1.56486-8.10406 2.66363-14.86778 3.26562-20.33789zm62.47461 36.75977c3.63108 16.66045 8.63739 36.66044 14.97461 58.29687l-38.97461-36.08008zm-69.29883 0.72461 23.2168 21.49218-37.67969 34.88086c6.08228-20.87072 10.91296-40.16537 14.46289-56.37304zm34.25782 31.71289 43.69921 40.45117-42.29687 31.99414-43.83984-33.16211zm-54.01172 49.99609 42.54687 32.18164-82.88086 62.69141c14.66696-29.47222 26.87747-61.33675 36.77735-91.58008zm109.2832 1.16797 3.66016 3.38867c9.57445 29.10319 21.27934 59.6426 35.2539 88.07617l-79.91601-60.45117z"/>
        </symbol>
        <symbol id="weir">
            <title>weir</title>
            <path
                d="m71.457027 0.01130999c-22.544364 0.48558-43.57564 15.11797-65.3125 15-0.209808-0.005-0.41528-0.0237-0.625-0.0312v43.625c22.240383-0.13504 43.756463-15.47358 66.9375-15 23.44843 0.64019 48.815303 16.91337 71.781253 18.03125 22.65836 0.61862 46.53922-13.62893 63.15625-13.75 8.93013-0.0735 15.52357 3.11103 21.29102 6.40234 3.35239 2.95177 6.90459 6.3534 10.58398 10.42383 5.4828 17.66839 1.73412 42.61914 8.42773 62.46094 7.27785 19.4899 11.44842 27.60578 18.70899 47.59766 0.313 0.88045 5.27711 12.84968 7.40039 18.16601-0.096-0.009-0.19013-0.01-0.28711-0.0195v43.71875c0.40337 0.0285 0.81332 0.0451 1.21875 0.0625 21.16268 0.74556 43.00554-12.62271 65.65625-11.59375 22.33727 0.93646 44.71025 16.76797 67.53125 17.3125 22.43815 0.11817 44.06307-15.47396 67.4375-15 10.92376 0.26166 22.26914 3.98713 33.59375 8v-44.03125c-10.91701-3.81786-21.84664-7.27505-32.375-7.5625-23.37449-0.47218-45.06186 15.18069-67.5 15.0625-22.82106-0.54273-45.16278-16.37424-67.5-17.3125-0.7077-0.0373-1.38757-0.0842-2.09375-0.0937-0.6841-0.009-1.34851-0.0152-2.03125 0-6.11803 0.1363-12.18149 1.23488-18.19336 2.69141-0.79987-3.74457-2.05752-8.201-3.88867-13.58985-7.26055-19.9919-18.90572-37.18393-26.18359-56.67383-6.69361-19.84178 2.39434-42.65946-3.0879-60.32617-3.11005-11.01961-7.86941-18.44993-13.1289-23.54883-1.1912-2.34558-6.06068-6.57999-18.14258-13.86523-13.96893-9.87582-30.05205-12.11015-46.28125-11.8125-16.61883 0.12095-40.4354 14.36862-63.09375 13.75-22.96596-1.11788-48.364063-17.45357-71.812503-18.09375-0.73045-0.0148-1.46026-0.0157-2.1875 0zm273.65625 269.875c-21.89129-0.29547-43.0924 12.34726-63.59375 11.625-0.8101-0.038-1.60417-0.10752-2.40625-0.1875v43.71875c0.40337 0.0285 0.81332 0.0763 1.21875 0.0937 21.16268 0.74557 43.0368-12.65395 65.6875-11.625 22.33727 0.93647 44.67899 16.76797 67.5 17.3125 22.43815 0.11817 44.09432-15.47395 67.46875-15 9.11534 0.21834 18.52347 2.86553 27.96875 6.0625v-44c-9.0369-2.99128-18.02651-5.41808-26.75-5.65625-23.37449-0.47219-45.06187 15.1807-67.5 15.0625-22.82106-0.54272-45.16278-16.37424-67.5-17.3125-0.7077-0.0373-1.38757-0.0842-2.09375-0.0937z"/>
            <path
                opacity=".75"
                d="m169.6875 81.17147c-1.30524-0.0168-2.63236-0.0107-3.98242 0.0156-16.06678 0.31367-35.39748 3.64374-59.28321 8.62305-21.084593-0.0232-74.506333 0.70136-101.05468 1.43359a5.5208085 5.5208085 0 0 0 -5.36719 5.51758v241.3125a5.5208085 5.5208085 0 0 0 5.519531 5.51953h237.43164a5.5208085 5.5208085 0 0 0 5.50977 -5.87109c-7.83146-122.7212-9.11214-189.75683-26.29102-225.55664-8.58944-17.89991-22.41475-27.73209-41.30664-30.22657-3.54223-0.4677-7.26007-0.71707-11.17578-0.76757z"/>
        </symbol>
        <symbol id="dam">
            <title>dam</title>
            <path d="m64.571 0.06355556c-41.335 0-64.571 21.371-64.571 65.036v450.123c0 40.844 20.895 62.229 62.192 62.229h452.024c41.307 0 62.229-20.315 62.229-62.229v-450.123c0-42.601-20.922-65.036-63.521-65.036-0.004 0-448.495-0.143-448.353 0z"/>
            <path
                fill="#fff"
                d="m262.44834 85.145165-28.76757 0.128907v385.7754h136.28125l-87.58594-372.64063c-3.26766-7.752675-11.02176-13.263673-19.92774-13.263673zm-231.42578 32.035165v35.04687h178.95117v-35.04687h-178.95117zm0 53.18164v35.04687h178.95117v-35.04687h-178.95117zm0 53.17773v34.91992h178.95117v-34.91992h-178.95117zm0 53.05078v35.04883h178.95117v-35.04883h-178.95117zm0 53.24414v35.04688h178.95117v-35.04688h-178.95117zm403.13867 49.01563c-7.24011 0-13.96825 1.60114-20.11914 4.48437-5.89461 2.62695-12.55719 4.23047-19.54101 4.23047-6.91976 0-13.52022-1.60352-19.54297-4.23047l7.17773 31.78125c3.97245 1.08922 8.1365 1.60157 12.36524 1.60157 7.0479 0 13.6464-1.47462 19.54101-4.10157 6.08681-2.88323 12.87903-4.48437 20.11914-4.48437 7.17604 0 13.9038 1.60114 20.05469 4.48437 5.89461 2.62695 12.62128 4.10157 19.54102 4.10157 6.91976 0 13.52022-1.47462 19.54297-4.10157 6.02275-2.88323 12.94272-4.48437 20.05468-4.48437 7.11197 0 13.96629 1.60114 20.11719 4.48437 5.8946 2.62695 12.55914 4.10157 19.54297 4.10157v-29.15235c-7.0479 0-13.64837-1.60352-19.54297-4.23047-6.08683-2.88323-12.94114-4.48437-20.11719-4.48437-7.17603 0-14.03193 1.60114-20.05468 4.48437-6.02275 2.62695-12.62321 4.23047-19.54297 4.23047-6.91974 0-13.64641-1.60352-19.54102-4.23047-6.15089-2.88323-12.94272-4.48437-20.05469-4.48437zm-403.13867 4.16601v35.04688h178.95117v-35.04688h-178.95117zm403.13867 49.58985c-7.24011 0-13.96825 1.60308-20.11914 4.48633-5.89461 2.62695-12.55719 4.22851-19.54101 4.22851-2.62695 0-5.25391-0.25696-7.88086-0.76953l6.72656 29.92187h1.1543c7.0479 0 13.6464-1.47462 19.54101-4.10156 6.08681-2.88323 12.87903-4.48437 20.11914-4.48437 7.17604 0 13.9038 1.60114 20.05469 4.48437 5.89461 2.62694 12.62128 4.10156 19.54102 4.10156 6.91976 0 13.52022-1.47462 19.54297-4.10156 6.02275-2.88323 12.94272-4.48437 20.05468-4.48437 7.11197 0 13.96629 1.60114 20.11719 4.48437 5.8946 2.62694 12.55914 4.10156 19.54297 4.10156v-29.15234c-7.0479 0-13.64837-1.60156-19.54297-4.22851-6.08683-2.88325-12.94114-4.48633-20.11719-4.48633-7.17603 0-14.03193 1.60308-20.05468 4.48633-6.02275 2.62695-12.62321 4.22851-19.54297 4.22851-6.91974 0-13.64641-1.60156-19.54102-4.22851-6.15089-2.88325-12.94272-4.48633-20.05469-4.48633zm-403.13867 3.46093v35.04688h178.95117v-35.04688h-178.95117z"/>
        </symbol>
        <symbol id="tower">
            <title>tower</title>
            <path d="m64.571 0.06355556c-41.335 0-64.571 21.371-64.571 65.036v450.123c0 40.844 20.894 62.229 62.192 62.229h452.024c41.307 0 62.229-20.316 62.229-62.229v-450.123c0-42.601-20.922-65.036-63.522-65.036-0.003 0-448.494-0.143-448.352 0z"/>
            <path
                d="m112.74717 58.990868v10 181.00586a10.001 10.001 0 0 0 10 10h112.76367c-0.98236 7.2778-2.83962 18.34623-5.63867 31.30274-4.37436 20.24848-10.92924 46.00019-19.55664 73.59765-17.2548 55.19492-43.06526 117.87301-75.29492 158.66406a9.9056297 9.9056297 0 1 0 15.54297 12.28126c7.05614-8.93053 13.73518-18.66885 20.05664-28.97266a7.7636571 7.7636571 0 0 0 1.875 -1.07813l111.95703-84.68554 110.75586 83.77539c6.67776 11.04317 13.76218 21.45687 21.27148 30.96094a9.9056297 9.9056297 0 1 0 15.54297 -12.28126c-32.22966-40.79106-58.04011-103.46914-75.29492-158.66406-8.6274-27.59746-15.18228-53.34917-19.55664-73.59765-2.79904-12.95651-4.6563-24.02494-5.63867-31.30274h117.89844a10.001 10.001 0 0 0 10 -10v-181.00586-10h-20v10 171.00586h-306.6836v-171.00586-10h-20zm85.81445 6.074219c-0.46183-0.0066-0.9258-0.003-1.39062 0.01172-15.2705 0.59353-32.00672 12.41607-46.9375 13.125-0.27162 0.0043-0.54179 0.0031-0.8125 0v31.281253c0.2708 0.003 0.54078 0.0356 0.8125 0.0312 14.93078-0.58844 31.667-12.710923 46.9375-13.125003 14.87439-0.5897 28.16777 10.389113 43.15625 10.625003 15.21408 0.12049 30.64913-9.919853 46.9375-9.625003 16.06146 0.2346 32.41131 11.181403 48.8125 11.125003 16.11786-0.35509 31.39021-12.007063 48.1875-12.125003 12.40782-0.04153 25.74175 6.125003 38.5 9.500003v-31.375003c-12.75825-3.35024-26.09219-9.4375-38.5-9.4375-16.79728 0.11921-32.06965 11.7699-48.1875 12.125-16.40118 0.05769-32.75105-10.85788-48.8125-11.09375-16.28836-0.41278-31.72341 9.683-46.9375 9.5625-14.51886-0.284386-27.44859-10.402282-41.76563-10.605469zm0.0156 58.386723c-0.46183-0.006-0.94143 0.0165-1.40625 0.0312-15.2705 0.58967-32.00672 12.38226-46.9375 13.09375-0.27162 0.004-0.54179 0.003-0.8125 0v31.3125c0.2707 0.003 0.54088 0.004 0.8125 0 14.93078-0.71148 31.667-12.53531 46.9375-13.125 14.87439-0.47303 28.16777 10.2989 43.15625 10.59375 15.21408 0.11793 30.64913-9.97656 46.9375-9.5625 16.06146 0.23717 32.41131 11.154 48.8125 11.09375 16.11786-0.35255 31.39021-12.00962 48.1875-12.125 12.40782 0 25.74175 6.08784 38.5 9.4375v-31.28125c-12.75881-3.34956-26.0916-9.4375-38.5-9.4375-16.79728 0.11921-32.06965 11.74123-48.1875 12.09375-16.40118 0.0602-32.75105-10.85659-48.8125-11.09375-16.28836-0.41408-31.72341 9.68043-46.9375 9.5625-14.51886-0.28564-27.43319-10.39297-41.75-10.59375zm57.03906 136.54492h55.81055c0.58539 5.3047 1.63976 11.82605 3.12695 19.59375l-31.5039 29.16406-30.69922-28.41992c1.56486-8.10406 2.66363-14.86778 3.26562-20.33789zm62.47461 36.75977c3.63108 16.66045 8.63739 36.66044 14.97461 58.29687l-38.97461-36.08008 24-22.21679zm-69.29883 0.72461 23.2168 21.49218-37.67969 34.88086c6.08228-20.87072 10.91296-40.16537 14.46289-56.37304zm34.25782 31.71289 43.69921 40.45117-42.29687 31.99414-43.83984-33.16211 42.4375-39.2832zm-54.01172 49.99609 42.54687 32.18164-82.88086 62.69141c14.66696-29.47222 26.87747-61.33675 36.77735-91.58008l3.55664-3.29297zm109.2832 1.16797 3.66016 3.38867c9.57445 29.10319 21.27934 59.6426 35.2539 88.07617l-79.91601-60.45117 41.00195-31.01367z"
                fill-rule="evenodd"
                fill="#fff"/>
        </symbol>
        <symbol id="weir">
            <title>weir</title>
            <path d="m64.571 0.06355556c-41.335 0-64.571 21.371-64.571 65.036v450.123c0 40.844 20.895 62.229 62.192 62.229h452.024c41.307 0 62.229-20.315 62.229-62.229v-450.123c0-42.601-20.922-65.036-63.521-65.036-0.004 0-448.495-0.143-448.353 0z"/>
            <path
                fill-rule="evenodd"
                fill="#fff"
                d="m103.296 136.85806c-22.544364 0.48558-43.57564 15.11797-65.3125 15-0.209808-0.005-0.41528-0.0237-0.625-0.0312v43.625c22.240383-0.13504 43.756463-15.47358 66.9375-15 23.44843 0.64019 48.8153 16.91337 71.78125 18.03125 22.65836 0.61862 46.53922-13.62893 63.15625-13.75 8.93013-0.0735 15.52357 3.11103 21.29102 6.40234 3.35239 2.95177 6.90459 6.3534 10.58398 10.42383 5.4828 17.66839 1.73412 42.61914 8.42773 62.46094 7.27785 19.4899 11.44842 27.60578 18.70899 47.59766 0.313 0.88045 5.27711 12.84968 7.40039 18.16601-0.096-0.009-0.19013-0.01-0.28711-0.0195v43.71875c0.40337 0.0285 0.81332 0.0451 1.21875 0.0625 21.16268 0.74556 43.00554-12.62271 65.65625-11.59375 22.33727 0.93646 44.71025 16.76797 67.53125 17.3125 22.43815 0.11817 44.06307-15.47396 67.4375-15 10.92376 0.26166 22.26914 3.98713 33.59375 8v-44.03125c-10.91701-3.81786-21.84664-7.27505-32.375-7.5625-23.37449-0.47218-45.06186 15.18069-67.5 15.0625-22.82106-0.54273-45.16278-16.37424-67.5-17.3125-0.7077-0.0373-1.38757-0.0842-2.09375-0.0937-0.6841-0.009-1.34851-0.0152-2.03125 0-6.11803 0.1363-12.18149 1.23488-18.19336 2.69141-0.79987-3.74457-2.05752-8.201-3.88867-13.58985-7.26055-19.9919-18.90572-37.18393-26.18359-56.67383-6.69361-19.84178 2.39434-42.65946-3.0879-60.32617-3.11005-11.01961-7.86941-18.44993-13.1289-23.54883-1.1912-2.34558-6.06068-6.57999-18.14258-13.86523-13.96893-9.87582-30.05205-12.11015-46.28125-11.8125-16.61883 0.12095-40.4354 14.36862-63.09375 13.75-22.96596-1.11788-48.36406-17.45357-71.8125-18.09375-0.73045-0.0148-1.46026-0.0157-2.1875 0zm273.65625 269.875c-21.89129-0.29547-43.0924 12.34726-63.59375 11.625-0.8101-0.038-1.60417-0.10752-2.40625-0.1875v43.71875c0.40337 0.0285 0.81332 0.0763 1.21875 0.0937 21.16268 0.74557 43.0368-12.65395 65.6875-11.625 22.33727 0.93647 44.67899 16.76797 67.5 17.3125 22.43815 0.11817 44.09432-15.47395 67.46875-15 9.11534 0.21834 18.52347 2.86553 27.96875 6.0625v-44c-9.0369-2.99128-18.02651-5.41808-26.75-5.65625-23.37449-0.47219-45.06187 15.1807-67.5 15.0625-22.82106-0.54272-45.16278-16.37424-67.5-17.3125-0.7077-0.0373-1.38757-0.0842-2.09375-0.0937z"/>
            <path
                opacity=".75"
                fill="#fff"
                d="m201.52647 218.01822c-1.30524-0.0168-2.63236-0.0107-3.98242 0.0156-16.06678 0.31367-35.39748 3.64374-59.28321 8.62305-21.08459-0.0232-74.50633 0.70136-101.05468 1.43359a5.5208085 5.5208085 0 0 0 -5.367187 5.51758v241.3125a5.5208085 5.5208085 0 0 0 5.519531 5.51953h237.43164a5.5208085 5.5208085 0 0 0 5.50977 -5.87109c-7.83146-122.7212-9.11214-189.75683-26.29102-225.55664-8.58944-17.89991-22.41475-27.73209-41.30664-30.22657-3.54223-0.4677-7.26007-0.71707-11.17578-0.76757z"/>
        </symbol>
    </defs>
</svg>
