<?xml version="1.0" encoding="UTF-8" standalone="no"?>
<svg 
    xmlns="http://www.w3.org/2000/svg"
    xmlns:svg="http://www.w3.org/2000/svg"
    xmlns:rdf="http://www.w3.org/1999/02/22-rdf-syntax-ns#" 
    xmlns:ns2="http://creativecommons.org/ns#" 
    xmlns:dc="http://purl.org/dc/elements/1.1/" 
    xmlns:cc="http://creativecommons.org/ns#"         
    xmlns:xlink="http://www.w3.org/1999/xlink" 
    version="1.1"
    id="svg2"
    style="fill:black;stroke:none">
    <title>SJJB Map Icons [Land Use Set]</title>
    <desc>These map icons are an attempt to create a simple consistent set of vector icons suitable for cartographic use.</desc>
    <metadata>
        <rdf:RDF>
            <cc:Work rdf:about="">
                <dc:format>image/svg+xml</dc:format>
                <dc:type rdf:resource="http://purl.org/dc/dcmitype/StillImage"/>
                <dc:title>SJJB Map Icons [Land Use Set]</dc:title>
                <dc:date>2017-01-07</dc:date>
                <dc:creator>
                    <cc:Agent>
                        <dc:title>SJJB Management</dc:title>
                    </cc:Agent>
                </dc:creator>
                <dc:rights>
                    <cc:Agent>
                        <dc:title>Map icons CC-0 from SJJB Management</dc:title>
                    </cc:Agent>
                </dc:rights>
                <dc:language>English</dc:language>

                <dc:source>http://www.sjjb.co.uk/mapicons/introduction</dc:source>
                <dc:description>These map icons are an attempt to create a simple consistent set of vector icons suitable for cartographic use.</dc:description>
            </cc:Work>
        </rdf:RDF>
    </metadata>

    <defs>
        <symbol id="coniferous" viewBox="0 0 233.27638 398.15561">
            <title>coniferous</title>
            <path
                d="m116.37446 0.00131142a2.1293943 2.1293943 0 0 0 -1.86719 1.230469l-88.89453 191.75977a2.1293943 2.1293943 0 0 0 2.48828 2.95118l24.25781-6.56446-38.1875 59.92188a2.1293943 2.1293943 0 0 0 2.29492 3.21289l27.79883-6.70703-43.89844 64.65625a2.1293943 2.1293943 0 0 0 2.07618 3.30078l89.91015-13.47461v95.73828a2.1293943 2.1293943 0 0 0 2.12891 2.12891h21.95703a2.1293943 2.1293943 0 0 0 0.11523 -0.006 2.1293943 2.1293943 0 0 0 0.006 0 2.1293943 2.1293943 0 0 0 0.14453 0.006h21.95704a2.1293943 2.1293943 0 0 0 2.1289 -2.12891v-95.73828l90.04297 13.4746a2.1293943 2.1293943 0 0 0 2.07617 -3.30077l-43.89453-64.65039 27.65821 6.70116a2.1293943 2.1293943 0 0 0 2.32226 -3.17383l-36.3125-59.89259 22.45703 6.48634a2.1293943 2.1293943 0 0 0 2.52149 -2.94142l-89.02553-191.75974a2.1293943 2.1293943 0 0 0 -2.08008 -1.226563 2.1293943 2.1293943 0 0 0 -0.18164 -0.0039z"/>
        </symbol>
        <symbol id="coniferous_and_deciduous" viewBox="0 0 525.17292 398.15561">
            <title>coniferous_and_deciduous</title>
            <path
                d="m116.37503 0.00132142a2.1293943 2.1293943 0 0 0 -1.86719 1.230469l-88.894533 191.75977a2.1293943 2.1293943 0 0 0 1.931641 3.02539h15.958984l-29.400391 53.4004a2.1293943 2.1293943 0 0 0 1.865235 3.15625h19.378906l-35.041015 57.98242a2.1293943 2.1293943 0 0 0 2.136718 3.20702l89.910154-13.4746v95.73828a2.1293943 2.1293943 0 0 0 2.12891 2.12891h21.957031a2.1293943 2.1293943 0 0 0 0.11523 -0.006 2.1293943 2.1293943 0 0 0 0.006 0 2.1293943 2.1293943 0 0 0 0.14453 0.006h21.95704a2.1293943 2.1293943 0 0 0 2.1289 -2.12891v-95.73828l90.04297 13.4746a2.1293943 2.1293943 0 0 0 2.13672 -3.20702l-35.04102-57.98242h19.2461a2.1293943 2.1293943 0 0 0 1.86523 -3.15625l-29.40039-53.4004h16.0918a2.1293943 2.1293943 0 0 0 1.92969 -3.02539l-89.02553-191.75977a2.1293943 2.1293943 0 0 0 -2.08008 -1.226563 2.1293943 2.1293943 0 0 0 -0.18164 -0.0039zm261.07226 17.185547c-25.78497-0.43585-52.92638 13.832707-58.41211 43.074227-2.32265 12.38073-4.26195 16.36111-18.91601 16.61523-45.14248 0.78284-64.34147 67.143535-26.20313 98.419925 3.77898 3.09912 1.60283 5.78977-11.11914 15.46485-64.74575 49.23923 4.96962 147.49141 71.19336 100.33593 9.69549-6.90379 11.23217-6.98046 13.41992-1.27929 4.6179 12.03405 2.56565 69.81859-3.19531 88.96093l-5.75195 19.04493h34.63867c3.42918 0 5.14366 0.012 7.92383 0 2.81489 0.0125 4.56825 0 8.05273 0h34.63867l-5.625-19.04493c-5.76097-19.14234-7.94021-76.92688-3.32226-88.96093 2.18775-5.70117 3.72443-5.6245 13.41992 1.27929 66.22375 47.15548 135.93911-51.0967 71.19336-100.33593-12.72197-9.67508-15.55504-13.71391-10.99219-15.46485 38.13833-14.63508 17.70296-90.980545-26.33008-98.419925-14.45148-2.44155-16.46641-4.2345-18.78906-16.61523-5.74546-30.62582-35.30159-44.726118-62.11719-42.818368-1.22216-0.08753-2.47611-0.235049-3.70703-0.255859z"/>
        </symbol>
        <symbol id="deciduous" viewBox="0 0 288.16751 380.65134">
            <title>deciduous</title>
            <path
                d="m140.44099 0.00968848c-25.78497-0.43585-52.926186 13.832474-58.411916 43.073994-2.32265 12.38073-4.26272 16.36197-18.91678 16.61609-45.14248 0.78284-64.34062 67.141938-26.20228 98.418328 3.77898 3.09912 1.60198 5.79066-11.11999 15.46574-64.74575 49.23923 4.96978 147.49106 71.19352 100.33558 9.695486-6.90379 11.232926-6.97933 13.420676-1.27816 4.6179 12.03405 2.56556 69.81761-3.1954 88.95995l-5.75172 19.04458h34.63815c3.42918 0 5.14442 0.012 7.92459 0 2.81489 0.0125 4.56792 0 8.0524 0h34.63815l-5.6239-19.04458c-5.76097-19.14234-7.94117-76.9259-3.32322-88.95995 2.18775-5.70117 3.72519-5.62563 13.42068 1.27816 66.22375 47.15548 135.93927-51.09635 71.19352-100.33558-12.72197-9.67508-15.55502-13.7148-10.99217-15.46574 38.13833-14.63508 17.70294-90.978948-26.3301-98.418328-14.45148-2.44155-16.46631-4.23536-18.78896-16.61609-5.74546-30.62582-35.30299-44.726124-62.11859-42.818374-1.22216-0.08753-2.47574-0.23481-3.70666-0.25562z"/>
        </symbol>
        <symbol id="grass" viewBox="0 0 375.46152 341.32416">
            <title>grass</title>
            <path
                d="m287.43291 0.00036911081a5.8277736 5.8277736 0 0 0 -5.76367 5.886724l-0.32812 83.39844a5.8277736 5.8277736 0 1 0 11.65429 0.0449l0.32813-83.39844a5.8277736 5.8277736 0 0 0 -5.89063 -5.9316439zm-45.2539 27.148444a5.8277736 5.8277736 0 0 0 -5.38086 8.08398l22.74414 56.36914a5.8277736 5.8277736 0 1 0 10.80859 -4.36132l-22.74609-56.36719a5.8277736 5.8277736 0 0 0 -5.42578 -3.72461zm94.63867 2.31445a5.8277736 5.8277736 0 0 0 -5.49805 3.3418l-26.37109 54.06055a5.8277736 5.8277736 0 1 0 10.47461 5.10937l26.37109-54.06055a5.8277736 5.8277736 0 0 0 -4.97656 -8.45117zm32.58399 20.99805a5.8277736 5.8277736 0 0 0 -3.98633 1.80469l-32.30469 32.96289a5.8277736 5.8277736 0 1 0 8.32422 8.1582l32.30273-32.96484a5.8277736 5.8277736 0 0 0 -4.33593 -9.96094zm-163.57813 0.98633a5.8277736 5.8277736 0 0 0 -4.05859 10.00586l31.97461 31.97461a5.8277736 5.8277736 0 1 0 8.24023 -8.24024l-31.97461-31.97461a5.8277736 5.8277736 0 0 0 -4.18164 -1.76562zm-118.39063 44.55273a5.8277736 5.8277736 0 0 0 -5.76367 5.886717l-0.32812 83.39844a5.8277736 5.8277736 0 1 0 11.65429 0.0449l0.32813-83.39844a5.8277736 5.8277736 0 0 0 -5.89063 -5.931637zm-45.2539 27.148437a5.8277736 5.8277736 0 0 0 -5.38086 8.08398l22.74414 56.36914a5.8277736 5.8277736 0 1 0 10.80859 -4.36132l-22.74609-56.36719a5.8277736 5.8277736 0 0 0 -5.42578 -3.72461zm94.638669 2.31445a5.8277736 5.8277736 0 0 0 -5.49805 3.3418l-26.37109 54.06055a5.8277736 5.8277736 0 1 0 10.47461 5.10937l26.37109-54.06055a5.8277736 5.8277736 0 0 0 -4.97656 -8.45117zm32.58399 20.99805a5.8277736 5.8277736 0 0 0 -3.98633 1.80469l-32.30469 32.96289a5.8277736 5.8277736 0 1 0 8.32422 8.1582l32.30273-32.96484a5.8277736 5.8277736 0 0 0 -4.33593 -9.96094zm-163.57813 0.98633a5.8277736 5.8277736 0 0 0 -4.05859 10.00586l31.97461 31.97461a5.8277736 5.8277736 0 1 0 8.24023 -8.24024l-31.97461-31.97461a5.8277736 5.8277736 0 0 0 -4.1816399 -1.76562zm185.60937 98.55273a5.8277736 5.8277736 0 0 0 -5.76367 5.88672l-0.32812 83.39844a5.8277736 5.8277736 0 1 0 11.65429 0.0449l0.32813-83.39844a5.8277736 5.8277736 0 0 0 -5.89063 -5.93164zm-45.2539 27.14844a5.8277736 5.8277736 0 0 0 -5.38086 8.08398l22.74414 56.36914a5.8277736 5.8277736 0 1 0 10.80859 -4.36132l-22.74609-56.36719a5.8277736 5.8277736 0 0 0 -5.42578 -3.72461zm94.63867 2.31445a5.8277736 5.8277736 0 0 0 -5.49805 3.3418l-26.37109 54.06055a5.8277736 5.8277736 0 1 0 10.47461 5.10937l26.37109-54.06055a5.8277736 5.8277736 0 0 0 -4.97656 -8.45117zm32.58399 20.99805a5.8277736 5.8277736 0 0 0 -3.98633 1.80469l-32.30469 32.96289a5.8277736 5.8277736 0 1 0 8.32422 8.1582l32.30273-32.96484a5.8277736 5.8277736 0 0 0 -4.33593 -9.96094zm-163.57813 0.98633a5.8277736 5.8277736 0 0 0 -4.05859 10.00586l31.97461 31.97461a5.8277736 5.8277736 0 1 0 8.24023 -8.24024l-31.97461-31.97461a5.8277736 5.8277736 0 0 0 -4.18164 -1.76562z"/>
        </symbol>
        <symbol id="hills" viewBox="0 0 452.86444 226.23323">
            <title>hills</title>
            <path
                d="m179.9035 0.00358457c-4.19922-0.01729-8.40033 0.03142-12.59765 0.07227-39.22077-0.83704-81.184911 5.735085-111.32422 32.742183-17.84714 15.20614-33.763021 33.63045-55.269531 43.75782-2.650844 3.00967 2.800086 3.75932 4.90625 3 9.0192342-2.2793 15.956025-9.35176 24.078125-13.84375 15.98596-10.61568 29.676487-23.92998 42.574217-37.94335 13.176949-9.53662 29.86978-12.00718 45.25977-16.3711 24.51897-5.3223444 49.90978-8.7806934 74.99414-6.6543034 17.9245 4.576343 29.12992 21.095093 44.84375 29.968753 15.17614 9.89259 31.52486 18.7369 45.25 30.25 1.11555-1.92439-0.91505-5.53366-1.15625-7.84375-3.15304-7.06153-11.43345-9.86687-17.1875-14.53125-15.56308-9.47905-31.54849-18.77016-44.28125-31.81249-7.39152-7.1187964-17.21364-11.069473-27.5-10.468763-4.19329-0.2217-8.39062-0.30498-12.58985-0.322265zm153.67969 84.568363c-18.3712 0.59518-37.24028 3.30167-53.875 11.21875-11.25487 7.221012-22.36174 14.502882-33.40625 22.031252-1.46855 1.05996-6.63905 5.09345-2.09375 3.0625 23.14953-7.60492 43.81165-22.258872 68.19336-26.476562 20.60973-5.15501 44.5532-7.48589 63.05664 4.88281 12.34319 7.709672 22.99577 18.056482 36.3125 24.250002 14.27752 7.77103 24.71792 24.76074 41.09375 26.75-16.38702-23.13213-44.74624-33.04716-64.58984-52.785162-14.71539-13.83429-35.85589-12.62894-54.69141-12.93359zm-130.47851 67.242192c-0.61567-0.004-1.23219 0.00002-1.84961 0.0137-31.62382 2.61225-64.40785 9.42394-89.71094 29.65625-17.035031 12.8395-31.042831 29.79358-50.070314 39.6875-1.92089 2.78152 2.84221 7.28577 4.9375 3.78125 24.245003-13.1651 41.551304-35.81632 64.843754-50.21875 22.74862-11.9244 48.95265-14.49799 74.09375-17.625 17.57282-0.89735 36.19959 4.8049 47.5625 18.71875 15.26441 12.85776 34.81496 19.83178 48.8125 34.1875 6.33889 5.2207 11.49959 13.49618 19.4375 15.4375-0.53075-5.86255-6.28126-9.81487-9.53125-14.34375-14.02641-15.2832-32.85089-24.47094-49.75-35.9375-9.35849-7.95098-17.80344-19.73581-31.37891-19.94336-9.11488-1.44445-18.16156-3.36017-27.39648-3.41406z"/>
        </symbol>
        <symbol id="quarry" viewBox="0 0 554.50745 520.57392">
            <title>quarry</title>
            <path
                d="m227.71599 0.00389602c-0.44632-0.01104-0.90319 0.001-1.36914 0.04102a4.3504349 4.3504349 0 0 0 -0.35351 0.04492c-3.64345 0.617976-9.03987 0.244514-14.58203 0.92187398-5.54216 0.677362-11.88384 2.983024-15.31836 9.244141a4.3504349 4.3504349 0 0 0 -0.36719 0.892578c-4.08615 14.244367 9.78601 28.235606 23.9668 25.398438 4.44181 0.355699 10.16688 1.306546 16.01757 0.947265 5.92264-0.363698 12.44989-2.417783 16.56641-8.300781a4.3504349 4.3504349 0 0 0 0.77539 -2.197265c0.47628-6.977213-3.09582-12.638246-7.34961-16.650391-4.25378-4.012146-9.3228-6.874283-13.20117-9.263672a4.3504349 4.3504349 0 0 0 -1.06836 -0.47460898c-1.13138-0.328222-2.37784-0.570387-3.7168-0.603516zm-0.59961 8.710938c0.38945-0.02835 0.93803 0.07239 1.4961 0.197265 3.87899 2.38041 8.09967 4.91193 11.12109 7.761719 2.82308 2.662711 4.39594 5.241139 4.5625 8.460937-2.20774 2.47268-5.09795 3.428848-9.11914 3.675782-4.53309 0.278369-9.95089-0.567296-14.99609-0.957032a4.3504349 4.3504349 0 0 0 -1.48828 0.142579c-7.38471 2.030366-16.32726-6.559914-14.65235-13.990235 1.81622-2.93572 4.33809-3.857587 8.42774-4.357422 4.22414-0.516273 9.46625-0.108785 14.64843-0.933593zm-78.20703 19.753906a4.3504349 4.3504349 0 0 0 -1.15625 0.113281c-1.39652 0.329358-4.1289 0.06645-7.34961-0.06445-3.2207-0.130905-7.50454 0.04216-10.86914 3.18164a4.3504349 4.3504349 0 0 0 -1.29883 4.03125c0.89468 4.482169 4.53562 7.476013 8.02735 8.570313 3.11317 0.975661 6.21021 0.860464 9.0332 0.306641 1.64988 0.02877 4.43727 0.53685 7.38672 0.855468 2.96656 0.320467 6.32442 0.696656 9.70117-1.316406a4.3504349 4.3504349 0 0 0 1.08789 -6.554687c-3.18735-3.749518-7.74423-8.206394-14.1289-9.083985a4.3504349 4.3504349 0 0 0 -0.4336 -0.03906zm106.44141 23.027344c-0.31306-0.0041-0.6267 0.0078-0.94141 0.04102-0.62941 0.06649-1.26194 0.215311-1.90039 0.472656-1.27689 0.514691-2.6848 1.615431-3.28515 3.363282-0.60036 1.74785-0.0924 3.735894 0.78125 4.951171 0.87104 1.211682 1.97377 1.907815 3.13672 2.400391 3.70488 1.576522 7.25235 1.367618 10.12109 1.220703s5.12059-0.219731 6.8125 0.324219a4.3504349 4.3504349 0 0 0 0.26953 0.07813c1.32736 0.334648 2.12137 0.703745 4.04297 0.308594 0.9608-0.197576 2.83547-1.07453 3.52734-2.988282 0.69188-1.913751 0.0251-3.265783-0.35937-3.958984-0.76887-1.386401-1.39702-1.766369-2.07032-2.308594-0.59994-0.48316-1.23644-0.899856-1.88476-1.294922-3.30598-2.33305-7.00128-2.618897-9.93164-2.5625-2.95864 0.05694-5.43184 0.318524-7.16992 0.04102a4.3504349 4.3504349 0 0 0 -0.21094 -0.0293c-0.31197-0.03426-0.62444-0.05445-0.9375-0.05859zm-0.22266 8.677734c0.094 0.01501 0.16843 0.000116 0.26172 0.01367 0.009-0.000001-0.0678 0.01376-0.0508 0.01563l-0.21094-0.0293zm186.22266 7.322266c-0.31306-0.0041-0.6267 0.0078-0.94141 0.04102-0.62941 0.06649-1.26194 0.215311-1.90039 0.472656-1.27689 0.514691-2.6848 1.615431-3.28515 3.363282-0.60036 1.74785-0.0924 3.735894 0.78125 4.951171 0.87104 1.211682 1.97377 1.907815 3.13672 2.400391 3.70488 1.576522 7.25235 1.367618 10.12109 1.220703s5.12059-0.219731 6.8125 0.324219a4.3504349 4.3504349 0 0 0 0.26953 0.07813c1.32736 0.334648 2.12137 0.703745 4.04297 0.308594 0.9608-0.197576 2.83547-1.074531 3.52734-2.988282 0.69188-1.913749 0.0251-3.265783-0.35937-3.958984-0.76887-1.386401-1.39702-1.766369-2.07032-2.308594-0.59994-0.48316-1.23644-0.899856-1.88476-1.294922-3.30598-2.33305-7.00128-2.618897-9.93164-2.5625-2.95864 0.05694-5.43184 0.318524-7.16992 0.04102a4.3504349 4.3504349 0 0 0 -0.21094 -0.0293c-0.31197-0.03426-0.62444-0.05445-0.9375-0.05859zm-0.22266 8.677734c0.094 0.01501 0.16843 0.000116 0.26172 0.01367 0.009-0.000001-0.0678 0.01376-0.0508 0.01563l-0.21094-0.0293zm-293.82422 20.830082c-0.25898 0.005-0.52559 0.0229-0.80078 0.0547a4.3504349 4.3504349 0 0 0 -0.54297 0.0977c-2.67999 0.6609-6.9457 0.33635-11.59961 0.54297-4.65389 0.20663-10.33132 1.33091-14.12109 6.14453a4.3504349 4.3504349 0 0 0 -0.82617 1.74219c-1.3171 5.88607 1.07005 11.59378 4.98828 15.4375 3.61823 3.54944 8.97303 5.60433 14.44922 4.45899 3.82909 0.12746 8.55583 0.98623 13.58984 1.07226 5.06295 0.0865 10.7422-0.74811 15.49414-4.61523a4.3504349 4.3504349 0 0 0 1.56446 -3.95508c-0.72649-5.3765-3.9477-9.37852-7.31446-12.33984-3.36675-2.96134-7.04247-5.17558-9.68554-7.17383a4.3504349 4.3504349 0 0 0 -1.00977 -0.56836c-0.95975-0.38325-2.37262-0.93644-4.18555-0.89844zm0.73829 8.59766-0.34375 0.0625-0.0352-0.0215c0.13018-0.0297 0.24843-0.009 0.37891-0.041zm-0.46289 0.0508c0.0121 0.009 0.023 0.0163 0.0352 0.0254l-0.11523 0.0215c-0.0762 0.009 0.2373 0.0929 0.28711 0.10547 3.01915 2.23265 6.23664 4.24825 8.65234 6.37305 1.68956 1.4861 2.74178 2.96099 3.49023 4.5039-2.09344 0.9148-4.47873 1.22273-7.33984 1.17383-4.06831-0.0695-8.74545-0.92463-13.54687-1.07422a4.3504349 4.3504349 0 0 0 -1.4336 0.19532c-2.42987 0.75959-5.03628-0.12655-7.11328-2.16407-1.79702-1.76285-2.7565-4.15341-2.6543-6.32031 1.59802-1.48065 3.66525-1.95767 6.90625-2.10156 3.63928-0.16158 8.14067 0.3118 12.83204-0.73828zm336.7246 6.35156c-0.25898 0.005-0.52559 0.0229-0.80078 0.0547a4.3504349 4.3504349 0 0 0 -0.54297 0.0977c-2.67999 0.6609-6.94569 0.33635-11.59961 0.54297-4.6539 0.20663-10.33132 1.33091-14.12109 6.14453a4.3504349 4.3504349 0 0 0 -0.82617 1.74219c-1.3171 5.88607 1.07005 11.59378 4.98828 15.4375 3.61823 3.54944 8.97303 5.60433 14.44922 4.45899 3.82909 0.12746 8.55583 0.98623 13.58984 1.07226 5.06295 0.0865 10.7422-0.74811 15.49414-4.61523a4.3504349 4.3504349 0 0 0 1.56446 -3.95508c-0.72649-5.3765-3.9477-9.37852-7.31446-12.33984-3.36675-2.96134-7.04247-5.17558-9.68554-7.17383a4.3504349 4.3504349 0 0 0 -1.00977 -0.56836c-0.95975-0.38325-2.37262-0.93644-4.18555-0.89844zm0.73829 8.59766-0.34375 0.0625-0.0352-0.0215c0.13018-0.0297 0.24843-0.009 0.37891-0.041zm-0.46289 0.0508c0.0121 0.009 0.0231 0.0163 0.0351 0.0254l-0.11523 0.0215c-0.0762 0.009 0.2373 0.0929 0.28711 0.10547 3.01915 2.23265 6.23664 4.24825 8.65234 6.37305 1.68956 1.4861 2.74178 2.96099 3.49023 4.5039-2.09344 0.9148-4.47873 1.22273-7.33984 1.17383-4.06831-0.0695-8.74545-0.92463-13.54687-1.07422a4.3504349 4.3504349 0 0 0 -1.4336 0.19532c-2.42987 0.75959-5.03628-0.12655-7.11328-2.16407-1.79702-1.76285-2.7565-4.15341-2.6543-6.32031 1.59802-1.48065 3.66525-1.95767 6.90625-2.10156 3.63928-0.16158 8.14067 0.3118 12.83204-0.73828zm-451.86329 9.35156c-0.44632-0.011-0.903193 0.001-1.369141 0.041a4.3504349 4.3504349 0 0 0 -0.353515 0.0449c-3.643451 0.61798-9.039871 0.24451-14.582032 0.92187s-11.883836 2.98303-15.318359 9.24414a4.3504349 4.3504349 0 0 0 -0.36718801 0.89258c-4.086148 14.24437 9.7860083 28.23561 23.966797 25.39844 4.441812 0.3557 10.166888 1.30654 16.017578 0.94726 5.922634-0.36369 12.449888-2.41778 16.566407-8.30078a4.3504349 4.3504349 0 0 0 0.77539 -2.19726c0.476279-6.97721-3.095826-12.63825-7.349609-16.65039-4.253783-4.01215-9.322803-6.8743-13.201172-9.26367a4.3504349 4.3504349 0 0 0 -1.068359 -0.47461c-1.131385-0.32823-2.377839-0.57039-3.716797-0.60352zm-0.59961 8.71094c0.389451-0.0283 0.938022 0.0724 1.496094 0.19726 3.878988 2.38041 8.099673 4.91193 11.121094 7.76172 2.823077 2.66271 4.395941 5.24114 4.5625 8.46094-2.207746 2.47268-5.097951 3.42885-9.119141 3.67578-4.533094 0.27837-9.950894-0.5673-14.996093-0.95703a4.3504349 4.3504349 0 0 0 -1.488282 0.14258c-7.384707 2.03036-16.327255-6.55992-14.652344-13.99024 1.8162153-2.93572 4.3380923-3.85758 8.4277353-4.35742 4.224148-0.51627 9.466255-0.10882 14.648437-0.93359zm506.79297 10.7539a4.3504349 4.3504349 0 0 0 -1.15625 0.11329c-1.39652 0.32935-4.1289 0.0665-7.34961-0.0645-3.2207-0.1309-7.50454 0.0422-10.86914 3.18164a4.3504349 4.3504349 0 0 0 -1.29883 4.03125c0.89468 4.48217 4.53562 7.47603 8.02735 8.57031 3.11317 0.97568 6.21021 0.86047 9.0332 0.30665 1.64988 0.0288 4.43727 0.53685 7.38672 0.85546 2.96656 0.32047 6.32442 0.69666 9.70117-1.3164a4.3504349 4.3504349 0 0 0 1.08789 -6.55469c-3.18735-3.74952-7.74423-8.20639-14.1289-9.08398a4.3504349 4.3504349 0 0 0 -0.4336 -0.0391zm-166 3a4.3504349 4.3504349 0 0 0 -1.15625 0.11329c-1.39652 0.32935-4.1289 0.0665-7.34961-0.0645-3.2207-0.1309-7.50454 0.0422-10.86914 3.18164a4.3504349 4.3504349 0 0 0 -1.29883 4.03125c0.89468 4.48217 4.53562 7.47603 8.02735 8.57031 3.11317 0.97568 6.21021 0.86047 9.0332 0.30665 1.64988 0.0288 4.43727 0.53685 7.38672 0.85546 2.96656 0.32047 6.32442 0.69666 9.70117-1.3164a4.3504349 4.3504349 0 0 0 1.08789 -6.55469c-3.18735-3.74952-7.74423-8.20639-14.1289-9.08398a4.3504349 4.3504349 0 0 0 -0.4336 -0.0391zm-208.55859 42.02735c-0.31306-0.004-0.6267 0.008-0.94141 0.041-0.62941 0.0665-1.26194 0.21531-1.90039 0.47266-1.27689 0.51469-2.6848 1.61543-3.28515 3.36328-0.60036 1.74785-0.0924 3.7359 0.78125 4.95117 0.87104 1.21168 1.97376 1.90782 3.13672 2.40039 3.70488 1.57652 7.25235 1.36762 10.12109 1.22071 2.86874-0.14692 5.12059-0.21973 6.8125 0.32422a4.3504349 4.3504349 0 0 0 0.26953 0.0781c1.32736 0.33465 2.12137 0.70375 4.04297 0.30859 0.9608-0.19757 2.83547-1.07453 3.52734-2.98828 0.69188-1.91375 0.0251-3.26578-0.35937-3.95898-0.76887-1.3864-1.39702-1.76637-2.07032-2.3086-0.59994-0.48316-1.23644-0.89985-1.88476-1.29492-3.30598-2.33305-7.00128-2.61889-9.93164-2.5625-2.95864 0.0569-5.43184 0.31855-7.16992 0.041a4.3504349 4.3504349 0 0 0 -0.21094 -0.0293c-0.31197-0.0343-0.62444-0.0544-0.9375-0.0586zm139.25781 2.5332a4.3504349 4.3504349 0 0 0 -0.0879 0.002c-0.54591-0.0216-1.30898 0.11467-2.10351 0.43164l0.28711-0.18945c-2.4131 0.57997-6.05615 0.27055-10.19336 0.3457-4.13722 0.0752-9.25919 0.83471-13.13086 4.82422a4.3504349 4.3504349 0 0 0 -1.18555 2.41797c-1.50117 10.58241 8.80179 18.99555 18.77734 16.66602 3.24216 0.11779 7.2968 0.8552 11.66993 1.02929 4.45654 0.17742 9.51669-0.31778 13.87109-3.51367a4.3504349 4.3504349 0 0 0 1.53711 -4.92969c-3.06367-8.8596-11.42862-13.27996-17.35742-16.54492a4.3504349 4.3504349 0 0 0 -2.08399 -0.53906zm-139.48047 6.14453c0.094 0.015 0.16843 0.00009 0.26172 0.0137 0.009 0-0.0678 0.0138-0.0508 0.0156l-0.21094-0.0293zm138.49805 2.67578c3.95155 2.23527 7.81924 4.74603 10.21289 7.68164-1.4165 0.30594-3.00945 0.40538-4.85156 0.33203-3.56914-0.14207-7.70122-0.92638-11.98438-1.05078a4.3504349 4.3504349 0 0 0 -1.48632 0.21485c-3.54271 1.16462-7.77537-1.77526-8.43946-5.38867 1.43301-0.84203 3.08435-1.27672 5.5918-1.32227 3.06039-0.0556 6.87025 0.28512 10.95703-0.4668zm-206.7168 29.61914a4.3504349 4.3504349 0 0 0 -1.15625 0.11329c-1.39652 0.32935-4.1289 0.0665-7.34961-0.0645-3.220696-0.1309-7.504541 0.0422-10.869137 3.18164a4.3504349 4.3504349 0 0 0 -1.298828 4.03125c0.894673 4.48217 4.535612 7.47603 8.027344 8.57031 3.113171 0.97567 6.210211 0.86047 9.033201 0.30665 1.64988 0.0288 4.43727 0.53685 7.38672 0.85546 2.966558 0.32047 6.324418 0.69666 9.701168-1.3164a4.3504349 4.3504349 0 0 0 1.08789 -6.55469c-3.18735-3.74952-7.74423-8.20639-14.128898-9.08398a4.3504349 4.3504349 0 0 0 -0.4336 -0.0391zm356.39453 24.53516c-0.25898 0.005-0.52559 0.0229-0.80078 0.0547a4.3504349 4.3504349 0 0 0 -0.54297 0.0976c-2.67999 0.6609-6.94569 0.33635-11.59961 0.54297-4.6539 0.20663-10.33132 1.33091-14.12109 6.14453a4.3504349 4.3504349 0 0 0 -0.82617 1.74219c-1.3171 5.88607 1.07005 11.59378 4.98828 15.4375 3.61823 3.54944 8.97303 5.60433 14.44922 4.45899 3.82909 0.12746 8.55583 0.98623 13.58984 1.07226 5.06295 0.0865 10.7422-0.74811 15.49414-4.61523a4.3504349 4.3504349 0 0 0 1.56446 -3.95508c-0.72649-5.3765-3.9477-9.37853-7.31446-12.33984-3.36675-2.96133-7.04247-5.17558-9.68554-7.17383a4.3504349 4.3504349 0 0 0 -1.00977 -0.56836c-0.95975-0.38325-2.37262-0.93644-4.18555-0.89844zm0.73829 8.59766-0.34375 0.0625-0.0352-0.0215c0.13018-0.0297 0.24843-0.009 0.37891-0.041zm-0.46289 0.0508c0.0121 0.009 0.0231 0.0163 0.0351 0.0254l-0.11523 0.0215c-0.0762 0.009 0.2373 0.0929 0.28711 0.10547 3.01915 2.23265 6.23664 4.24825 8.65234 6.37305 1.68956 1.4861 2.74178 2.96099 3.49023 4.5039-2.09344 0.9148-4.47873 1.22273-7.33984 1.17383-4.06831-0.0695-8.74545-0.92463-13.54687-1.07422a4.3504349 4.3504349 0 0 0 -1.4336 0.19532c-2.42987 0.75959-5.03628-0.12655-7.11328-2.16407-1.79702-1.76285-2.7565-4.15341-2.6543-6.32031 1.59802-1.48065 3.66525-1.95767 6.90625-2.10156 3.63928-0.16158 8.14067 0.3118 12.83204-0.73828zm-189.22852 0.84375c-0.31306-0.004-0.6267 0.008-0.94141 0.041-0.62941 0.0665-1.26194 0.21531-1.90039 0.47266-1.27689 0.51469-2.6848 1.61543-3.28515 3.36328-0.60036 1.74785-0.0924 3.7359 0.78125 4.95117 0.87104 1.21168 1.97377 1.90782 3.13672 2.40039 3.70488 1.57652 7.25235 1.36762 10.12109 1.22071 2.86874-0.14692 5.12059-0.21973 6.8125 0.32422a4.3504349 4.3504349 0 0 0 0.26953 0.0781c1.32736 0.33465 2.12137 0.70375 4.04297 0.30859 0.9608-0.19757 2.83547-1.07453 3.52734-2.98828 0.69188-1.91375 0.0251-3.26578-0.35937-3.95898-0.76887-1.3864-1.39702-1.76637-2.07032-2.3086-0.59994-0.48316-1.23644-0.89985-1.88476-1.29492-3.30598-2.33305-7.00128-2.61889-9.93164-2.5625-2.95864 0.0569-5.43184 0.31855-7.16992 0.041a4.3504349 4.3504349 0 0 0 -0.21094 -0.0293c-0.31197-0.0342-0.62444-0.0544-0.9375-0.0586zm-0.22266 8.67773c0.094 0.015 0.16843 0.00009 0.26172 0.0137 0.009 0-0.0678 0.0138-0.0508 0.0156l-0.21094-0.0293zm-64.82422 6.83008c-0.25898 0.005-0.52559 0.0229-0.80078 0.0547a4.3504349 4.3504349 0 0 0 -0.54297 0.0976c-2.67999 0.6609-6.94569 0.33635-11.59961 0.54297-4.65389 0.20663-10.33132 1.33091-14.12109 6.14453a4.3504349 4.3504349 0 0 0 -0.82617 1.74219c-1.3171 5.88607 1.07005 11.59378 4.98828 15.4375 3.61823 3.54944 8.97303 5.60433 14.44922 4.45899 3.82909 0.12746 8.55583 0.98623 13.58984 1.07226 5.06295 0.0865 10.7422-0.74811 15.49414-4.61523a4.3504349 4.3504349 0 0 0 1.56446 -3.95508c-0.72649-5.3765-3.9477-9.37853-7.31446-12.33984-3.36675-2.96133-7.04247-5.17558-9.68554-7.17383a4.3504349 4.3504349 0 0 0 -1.00977 -0.56836c-0.95975-0.38325-2.37262-0.93644-4.18555-0.89844zm0.73829 8.59766-0.34375 0.0625-0.0352-0.0215c0.13018-0.0297 0.24843-0.009 0.37891-0.041zm-0.46289 0.0508c0.0121 0.009 0.023 0.0163 0.0352 0.0254l-0.11523 0.0215c-0.0762 0.009 0.2373 0.0929 0.28711 0.10547 3.01915 2.23265 6.23664 4.24825 8.65234 6.37305 1.68956 1.4861 2.74178 2.96099 3.49023 4.5039-2.09344 0.9148-4.47873 1.22273-7.33984 1.17383-4.06831-0.0695-8.74545-0.92463-13.54687-1.07422a4.3504349 4.3504349 0 0 0 -1.4336 0.19532c-2.42987 0.75959-5.03628-0.12655-7.11328-2.16407-1.79702-1.76285-2.7565-4.15341-2.6543-6.32031 1.59802-1.48065 3.66525-1.95767 6.90625-2.10156 3.63928-0.16158 8.14067 0.3118 12.83204-0.73828zm141.13671 10.35156c-0.44632-0.011-0.90319 0.001-1.36914 0.041a4.3504349 4.3504349 0 0 0 -0.35351 0.0449c-3.64345 0.61798-9.03987 0.24451-14.58203 0.92187s-11.88384 2.98303-15.31836 9.24414a4.3504349 4.3504349 0 0 0 -0.36719 0.89258c-4.08615 14.24437 9.78601 28.23561 23.9668 25.39844 4.44181 0.3557 10.16688 1.30654 16.01757 0.94726 5.92264-0.36369 12.44989-2.41778 16.56641-8.30078a4.3504349 4.3504349 0 0 0 0.77539 -2.19726c0.47628-6.97721-3.09582-12.63825-7.34961-16.65039-4.25378-4.01215-9.3228-6.87429-13.20117-9.26367a4.3504349 4.3504349 0 0 0 -1.06836 -0.47461c-1.13138-0.32823-2.37784-0.57039-3.7168-0.60352zm-0.59961 8.71094c0.38945-0.0283 0.93803 0.0724 1.4961 0.19726 3.87899 2.38041 8.09967 4.91193 11.12109 7.76172 2.82308 2.66271 4.39594 5.24114 4.5625 8.46094-2.20774 2.47268-5.09795 3.42885-9.11914 3.67578-4.53309 0.27837-9.95089-0.5673-14.99609-0.95703a4.3504349 4.3504349 0 0 0 -1.48828 0.14258c-7.38471 2.03036-16.32726-6.55992-14.65235-13.99024 1.81622-2.93572 4.33809-3.85758 8.42774-4.35742 4.22414-0.51627 9.46625-0.10882 14.64843-0.93359zm-266.50781 1.31445a4.3504349 4.3504349 0 0 0 -0.08789 0.002c-0.545911-0.0216-1.308981 0.11467-2.103515 0.43164l0.287109-0.18945c-2.4131 0.57997-6.056144 0.27055-10.193359 0.3457-4.137215 0.0752-9.259182 0.83471-13.13086 4.82422a4.3504349 4.3504349 0 0 0 -1.185547 2.41797c-1.501171 10.58241 8.801787 18.99555 18.777344 16.66602 3.242158 0.11779 7.296796 0.8552 11.669922 1.02929 4.45656 0.17742 9.516694-0.31778 13.871096-3.51367a4.3504349 4.3504349 0 0 0 1.53711 -4.92969c-3.06367-8.8596-11.428623-13.27996-17.357425-16.54492a4.3504349 4.3504349 0 0 0 -2.083984 -0.53906zm-0.982422 8.82031c3.95155 2.23527 7.819244 4.74603 10.212891 7.68164-1.416499 0.30594-3.009448 0.40538-4.851563 0.33203-3.569135-0.14208-7.701213-0.92638-11.984375-1.05078a4.3504349 4.3504349 0 0 0 -1.486328 0.21485c-3.542706 1.16462-7.775367-1.77526-8.439453-5.38867 1.433012-0.84203 3.084344-1.27672 5.591797-1.32227 3.060393-0.0556 6.870248 0.28512 10.957031-0.4668zm39.2832 58.61914a4.3504349 4.3504349 0 0 0 -1.15625 0.11329c-1.39652 0.32934-4.1289 0.0665-7.34961-0.0645-3.220698-0.1309-7.504538 0.0422-10.869138 3.18164a4.3504349 4.3504349 0 0 0 -1.29883 4.03125c0.89468 4.48217 4.53562 7.47603 8.02735 8.57031 3.113168 0.97567 6.210208 0.86047 9.033198 0.30665 1.64988 0.0288 4.43727 0.53685 7.38672 0.85546 2.96656 0.32047 6.32442 0.69666 9.70117-1.3164a4.3504349 4.3504349 0 0 0 1.08789 -6.55469c-3.18735-3.74952-7.74423-8.20639-14.1289-9.08398a4.3504349 4.3504349 0 0 0 -0.4336 -0.0391zm282.69922 14.56055a4.3504349 4.3504349 0 0 0 -0.0879 0.002c-0.54591-0.0216-1.30898 0.11467-2.10351 0.43164l0.28711-0.18945c-2.4131 0.57997-6.05615 0.27055-10.19336 0.3457-4.13722 0.0752-9.25919 0.83471-13.13086 4.82422a4.3504349 4.3504349 0 0 0 -1.18555 2.41797c-1.50117 10.58241 8.80179 18.99555 18.77734 16.66602 3.24216 0.11779 7.2968 0.8552 11.66993 1.02929 4.45654 0.17742 9.51669-0.31778 13.87109-3.51367a4.3504349 4.3504349 0 0 0 1.53711 -4.92969c-3.06367-8.8596-11.42862-13.27996-17.35742-16.54492a4.3504349 4.3504349 0 0 0 -2.08399 -0.53906zm-0.98242 8.82031c3.95155 2.23527 7.81924 4.74603 10.21289 7.68164-1.4165 0.30594-3.00945 0.40538-4.85156 0.33203-3.56914-0.14208-7.70122-0.92638-11.98438-1.05078a4.3504349 4.3504349 0 0 0 -1.48632 0.21485c-3.54271 1.16462-7.77537-1.77526-8.43946-5.38867 1.43301-0.84203 3.08435-1.27672 5.5918-1.32227 3.06039-0.0556 6.87025 0.28512 10.95703-0.4668zm-123.32227 24.1543c-0.25898 0.005-0.52559 0.0229-0.80078 0.0547a4.3504349 4.3504349 0 0 0 -0.54297 0.0976c-2.67999 0.6609-6.9457 0.33635-11.59961 0.54297-4.6539 0.20663-10.33132 1.33091-14.12109 6.14453a4.3504349 4.3504349 0 0 0 -0.82617 1.74219c-1.3171 5.88607 1.07005 11.59378 4.98828 15.4375 3.61823 3.54944 8.97303 5.60433 14.44922 4.45899 3.82909 0.12746 8.55583 0.98623 13.58984 1.07226 5.06295 0.0865 10.7422-0.74811 15.49414-4.61523a4.3504349 4.3504349 0 0 0 1.56446 -3.95508c-0.72649-5.3765-3.9477-9.37853-7.31446-12.33984-3.36675-2.96133-7.04247-5.17558-9.68554-7.17383a4.3504349 4.3504349 0 0 0 -1.00977 -0.56836c-0.95975-0.38325-2.37262-0.93644-4.18555-0.89844zm212.04688 8.49219c-0.31306-0.004-0.6267 0.008-0.94141 0.041-0.62941 0.0665-1.26194 0.21531-1.90039 0.47266-1.27689 0.51469-2.6848 1.61543-3.28515 3.36328-0.60036 1.74785-0.0924 3.7359 0.78125 4.95117 0.87104 1.21168 1.97377 1.90782 3.13672 2.40039 3.70488 1.57652 7.25235 1.36762 10.12109 1.22071 2.86874-0.14692 5.12059-0.21973 6.8125 0.32422a4.3504349 4.3504349 0 0 0 0.26953 0.0781c1.32736 0.33465 2.12137 0.70375 4.04297 0.30859 0.9608-0.19757 2.83547-1.07453 3.52734-2.98828 0.69188-1.91375 0.0251-3.26578-0.35937-3.95898-0.76887-1.3864-1.39703-1.76637-2.07032-2.3086-0.59993-0.48316-1.23644-0.89985-1.88476-1.29492-3.30598-2.33305-7.00128-2.61889-9.93164-2.5625-2.95864 0.0569-5.43184 0.31855-7.16992 0.041a4.3504349 4.3504349 0 0 0 -0.21094 -0.0293c-0.31197-0.0342-0.62444-0.0544-0.9375-0.0586zm-211.30859 0.10547-0.34375 0.0625-0.0352-0.0215c0.13018-0.0297 0.24843-0.009 0.37891-0.041zm-0.46289 0.0508c0.0121 0.009 0.0231 0.0163 0.0351 0.0254l-0.11523 0.0215c-0.0762 0.009 0.2373 0.0929 0.28711 0.10547 3.01915 2.23265 6.23664 4.24825 8.65234 6.37305 1.68956 1.4861 2.74178 2.96099 3.49023 4.5039-2.09344 0.9148-4.47873 1.22273-7.33984 1.17383-4.06831-0.0695-8.74545-0.92463-13.54687-1.07422a4.3504349 4.3504349 0 0 0 -1.4336 0.19532c-2.42987 0.75959-5.03628-0.12655-7.11328-2.16407-1.79702-1.76285-2.7565-4.15341-2.6543-6.32031 1.59802-1.48065 3.66525-1.95767 6.90625-2.10156 3.63928-0.16158 8.14067 0.3118 12.83204-0.73828zm211.54882 8.52148c0.094 0.015 0.16843 0.00009 0.26172 0.0137 0.009 0-0.0678 0.0138-0.0508 0.0156l-0.21094-0.0293zm-311.77734 24.32227c-0.31306-0.004-0.6267 0.008-0.94141 0.041-0.62941 0.0665-1.26194 0.21531-1.90039 0.47266-1.27689 0.51469-2.6848 1.61543-3.28515 3.36328-0.60036 1.74785-0.0924 3.7359 0.78125 4.95117 0.87104 1.21168 1.97376 1.90782 3.13672 2.40039 3.70488 1.57652 7.25235 1.36762 10.12109 1.22071 2.86874-0.14692 5.12059-0.21973 6.8125 0.32422a4.3504349 4.3504349 0 0 0 0.26953 0.0781c1.32736 0.33465 2.12137 0.70375 4.04297 0.30859 0.9608-0.19757 2.83547-1.07453 3.52734-2.98828 0.69188-1.91375 0.0251-3.26578-0.35937-3.95898-0.76887-1.3864-1.39702-1.76637-2.07032-2.3086-0.59994-0.48316-1.23644-0.89985-1.88476-1.29492-3.30598-2.33305-7.00128-2.61889-9.93164-2.5625-2.95864 0.0569-5.43184 0.31855-7.16992 0.041a4.3504349 4.3504349 0 0 0 -0.21094 -0.0293c-0.31197-0.0342-0.62444-0.0544-0.9375-0.0586zm-0.22266 8.67773c0.094 0.015 0.16843 0.00009 0.26172 0.0137 0.009 0-0.0678 0.0138-0.0508 0.0156l-0.21094-0.0293zm337.58789 3.83008c-0.44632-0.011-0.90319 0.001-1.36914 0.041a4.3504349 4.3504349 0 0 0 -0.35351 0.0449c-3.64345 0.61798-9.03987 0.24451-14.58203 0.92187s-11.88384 2.98303-15.31836 9.24414a4.3504349 4.3504349 0 0 0 -0.36719 0.89258c-4.08615 14.24437 9.78601 28.23561 23.9668 25.39844 4.44181 0.3557 10.16688 1.30654 16.01757 0.94726 5.92264-0.36369 12.44989-2.41778 16.56641-8.30078a4.3504349 4.3504349 0 0 0 0.77539 -2.19726c0.47628-6.97721-3.09582-12.63825-7.34961-16.65039-4.25378-4.01215-9.3228-6.87429-13.20117-9.26367a4.3504349 4.3504349 0 0 0 -1.06836 -0.47461c-1.13138-0.32823-2.37784-0.57039-3.7168-0.60352zm-440.41211 5c-0.258988 0.005-0.525593 0.0229-0.800781 0.0547a4.3504349 4.3504349 0 0 0 -0.542969 0.0976c-2.679998 0.6609-6.945706 0.33635-11.599609 0.54297-4.653903 0.20663-10.33133 1.33091-14.121094 6.14453a4.3504349 4.3504349 0 0 0 -0.826172 1.74219c-1.317098 5.88607 1.070056 11.59378 4.988282 15.4375 3.618233 3.54944 8.973026 5.60433 14.449218 4.45899 3.829093 0.12746 8.555828 0.98623 13.589844 1.07226 5.062947 0.0865 10.742205-0.74811 15.494133-4.61523a4.3504349 4.3504349 0 0 0 1.56446 -3.95508c-0.72649-5.3765-3.947699-9.37853-7.314452-12.33984-3.366754-2.96133-7.042478-5.17558-9.685547-7.17383a4.3504349 4.3504349 0 0 0 -1.009766 -0.56836c-0.95975-0.38325-2.372627-0.93644-4.185547-0.89844zm439.8125 3.71094c0.38945-0.0283 0.93803 0.0724 1.4961 0.19726 3.87899 2.38041 8.09967 4.91193 11.12109 7.76172 2.82308 2.66271 4.39594 5.24114 4.5625 8.46094-2.20774 2.47268-5.09795 3.42885-9.11914 3.67578-4.53309 0.27837-9.95089-0.5673-14.99609-0.95703a4.3504349 4.3504349 0 0 0 -1.48828 0.14258c-7.38471 2.03036-16.32726-6.55992-14.65235-13.99024 1.81622-2.93572 4.33809-3.85758 8.42774-4.35742 4.22414-0.51627 9.46625-0.10882 14.64843-0.93359zm-123.20703 0.7539a4.3504349 4.3504349 0 0 0 -1.15625 0.11329c-1.39652 0.32934-4.1289 0.0665-7.34961-0.0645-3.2207-0.1309-7.50454 0.0422-10.86914 3.18164a4.3504349 4.3504349 0 0 0 -1.29883 4.03125c0.89468 4.48217 4.53562 7.47602 8.02735 8.57031 3.11317 0.97568 6.21021 0.86047 9.0332 0.30665 1.64988 0.0288 4.43727 0.53685 7.38672 0.85546 2.96656 0.32047 6.32442 0.69666 9.70117-1.3164a4.3504349 4.3504349 0 0 0 1.08789 -6.55469c-3.18735-3.74952-7.74423-8.20639-14.1289-9.08398a4.3504349 4.3504349 0 0 0 -0.4336 -0.0391zm-315.86718 4.13282-0.34375 0.0625-0.03516-0.0215c0.130178-0.0297 0.248434-0.009 0.378907-0.041zm-0.462891 0.0508c0.01215 0.009 0.023 0.0163 0.03516 0.0254l-0.115234 0.0215c-0.07624 0.009 0.237307 0.0929 0.287109 0.10547 3.019155 2.23265 6.236647 4.24825 8.652344 6.37305 1.689565 1.4861 2.741777 2.96099 3.490234 4.5039-2.093449 0.9148-4.47873 1.22273-7.339843 1.17383-4.068309-0.0695-8.745451-0.92463-13.546875-1.07422a4.3504349 4.3504349 0 0 0 -1.433594 0.19532c-2.42987 0.75959-5.036277-0.12655-7.113281-2.16407-1.797024-1.76285-2.756496-4.15341-2.654297-6.32031 1.598017-1.48065 3.665249-1.95767 6.90625-2.10156 3.63928-0.16158 8.140672 0.3118 12.832031-0.73828z"/>
        </symbol>
        <symbol id="scrub" viewBox="0 0 436.39551 323.97754">
            <title>scrub</title>
            <path
                d="m326.12841 0.00036911003a5.8277736 5.8277736 0 0 0 -5.76367 5.88672l-0.32812 83.39844a5.8277736 5.8277736 0 1 0 11.65429 0.0449l0.32813-83.39844a5.8277736 5.8277736 0 0 0 -5.89063 -5.9316399zm-45.2539 27.14844a5.8277736 5.8277736 0 0 0 -5.38086 8.08398l22.74414 56.36914a5.8277736 5.8277736 0 1 0 10.80859 -4.36132l-22.74609-56.36719a5.8277736 5.8277736 0 0 0 -5.42578 -3.72461zm94.63867 2.31445a5.8277736 5.8277736 0 0 0 -5.49805 3.3418l-26.37109 54.06055a5.8277736 5.8277736 0 1 0 10.47461 5.10937l26.37109-54.06055a5.8277736 5.8277736 0 0 0 -4.97656 -8.45117zm32.58399 20.99805a5.8277736 5.8277736 0 0 0 -3.98633 1.80469l-32.30469 32.96289a5.8277736 5.8277736 0 1 0 8.32422 8.1582l32.30273-32.96484a5.8277736 5.8277736 0 0 0 -4.33593 -9.96094zm-163.57813 0.98633a5.8277736 5.8277736 0 0 0 -4.05859 10.00586l31.97461 31.97461a5.8277736 5.8277736 0 1 0 8.24023 -8.24024l-31.97461-31.97461a5.8277736 5.8277736 0 0 0 -4.18164 -1.76562zm-118.39063 44.55273a5.8277736 5.8277736 0 0 0 -5.76367 5.886721l-0.32812 83.39844a5.8277736 5.8277736 0 1 0 11.65429 0.0449l0.32813-83.39844a5.8277736 5.8277736 0 0 0 -5.89063 -5.931641zm-45.253895 27.148441a5.8277736 5.8277736 0 0 0 -5.38086 8.08398l22.74414 56.36914a5.8277736 5.8277736 0 1 0 10.808585 -4.36132l-22.746085-56.36719a5.8277736 5.8277736 0 0 0 -5.42578 -3.72461zm94.638665 2.31445a5.8277736 5.8277736 0 0 0 -5.49805 3.3418l-26.37109 54.06055a5.8277736 5.8277736 0 1 0 10.47461 5.10937l26.37109-54.06055a5.8277736 5.8277736 0 0 0 -4.97656 -8.45117zm32.58399 20.99805a5.8277736 5.8277736 0 0 0 -3.98633 1.80469l-32.30469 32.96289a5.8277736 5.8277736 0 1 0 8.32422 8.1582l32.30273-32.96484a5.8277736 5.8277736 0 0 0 -4.33593 -9.96094zm-163.57812 0.98633a5.8277736 5.8277736 0 0 0 -4.05859 10.00586l31.97461 31.97461a5.8277736 5.8277736 0 1 0 8.24023 -8.24024l-31.97461-31.97461a5.8277736 5.8277736 0 0 0 -4.18164 -1.76562zm216.13866 104.52929a6.0006 6.0006 0 1 0 0 12h169.65235a6.0006 6.0006 0 1 0 0 -12h-169.65235zm-254.57226 60a6.0006 6.0006 0 1 0 0 12h376.79687a6.0006 6.0006 0 1 0 0 -12h-376.79687z"/>
        </symbol>
        <symbol id="swamp" viewBox="0 0 242.97472 252.19202">
            <title>swamp</title>
            <path
                d="m101.59749 0.00021535336c-3.026618-0.085130003-0.51741 25.089 0.16601 39.77149 1.00037 21.39177-0.39919 30.07654-0.0371 77.880865h-0.004c-3.653778 48.31213-2.144678 66.90234 5.43164 66.90234 21.83952 0 8.72958-177.24695-5.24805-184.4668-0.1094-0.05651-0.21096-0.08514-0.30859-0.087889997zm-84.31055 35.95508c-0.88077 0.68506 13.662652 17.32454 21.156252 38.38086 10.12377 28.446775 18.25195 49.749785 18.25195 84.109385 0 14.36034 4.00354 26.10937 8.89649 26.10937 25.87379 0-5.35157-113.67256-38.8379-141.38476-6.41499-5.30885-9.122143-7.48291-9.466792-7.21485zm175.13867 0c-0.34465-0.26806-3.04985 1.906-9.46484 7.21485-33.48633 27.71221-64.71169 141.38476-38.83789 141.38476 4.89295 0 8.89453-11.74903 8.89453-26.10937 0-34.3596 8.12818-55.66261 18.25195-84.109385 7.4936-21.05632 22.03702-37.6958 21.15625-38.38086zm-192.11719 71.513675c-2.18323-0.21512 7.750324 6.48441 13.244141 21.73438 5.743427 15.9429 7.556637 30.40906 7.556637 39.25976h0.002c0 8.85072 4.001594 16.0918 8.894534 16.0918 11.32654 0 13.16927-8.91698 1.3457-42.83398-5.23483-15.01671-17.209504-29.1078-24.207034-31.79297-4.033609-1.54784-6.108194-2.38728-6.835938-2.45899zm209.09571 0c-0.72775 0.0717-2.80038 0.91115-6.83399 2.45899-6.99753 2.68517-18.9722 16.77626-24.20703 31.79297-11.82358 33.917-9.9828 42.83398 1.34375 42.83398 4.89294 0 8.89648-7.24108 8.89648-16.0918 0-8.8507 1.81321-23.31686 7.55665-39.25976 5.49381-15.24997 15.42737-21.9495 13.24414-21.73438zm-47.1543 99.4668c-6.16712-0.0202-12.33395-0.01-18.49805 0.004-28.7682 0.42228-57.648208 0.5111-86.314448 2.60742-2.70507 0.43595-4.05128 4.4504-1.08984 5.58789 14.32726 3.21782 29.29205 2.53333 43.935538 3.29297 40.22877 0.85238 80.5559 1.2527 120.71094-1.59961 2.83845-0.56816 8.41495-0.6304 7.80664-4.71094-1.96973-3.87654-7.56793-2.58301-11.0957-3.34765-18.44898-1.42874-36.95374-1.77337-55.45508-1.83399zm51.4707 33.24219c-5.14442-0.0376-10.2932 0.0721-15.4043 0.12695-11.73052 0.48378-23.69822 0.3916-35.19531 2.76367-2.88537 1.6697-1.19072 6.25334 2.00391 6.17774 17.49808 4.03041 35.74752 2.75762 53.61133 2.74609 7.66155-0.34655 15.65865-0.50284 22.85351-3.19922 2.85708-1.90147 0.9129-6.46745-2.375-6.25-8.35849-1.8294-16.92011-2.30251-25.49414-2.36523z"/>
        </symbol>
        <symbol id="coniferous" viewBox="0 0 576.44501 577.45154">
            <title>coniferous</title>
            <path d="m64.571 0.06355556c-41.335 0-64.571 21.371-64.571 65.036v450.123c0 40.844 20.895 62.229 62.192 62.229h452.024c41.307 0 62.229-20.315 62.229-62.229v-450.123c0-42.601-20.922-65.036-63.521-65.036-0.004 0-448.495-0.143-448.353 0z"/>
            <path
                fill-rule="evenodd"
                fill="#fff"
                d="m294.10655 78.983056a2.1293943 2.1293943 0 0 0 -1.86719 1.230469l-88.89453 191.75976a2.1293943 2.1293943 0 0 0 2.48828 2.95118l24.25781-6.56446-38.1875 59.92188a2.1293943 2.1293943 0 0 0 2.29492 3.21289l27.79883-6.70703-43.89844 64.65625a2.1293943 2.1293943 0 0 0 2.07618 3.30078l89.91015-13.47461v95.73828a2.1293943 2.1293943 0 0 0 2.12891 2.12891h21.95703a2.1293943 2.1293943 0 0 0 0.11523 -0.006 2.1293943 2.1293943 0 0 0 0.006 0 2.1293943 2.1293943 0 0 0 0.14453 0.006h21.95704a2.1293943 2.1293943 0 0 0 2.1289 -2.12891v-95.73828l90.04297 13.4746a2.1293943 2.1293943 0 0 0 2.07617 -3.30077l-43.89453-64.65039 27.65821 6.70116a2.1293943 2.1293943 0 0 0 2.32226 -3.17383l-36.3125-59.89258 22.45703 6.48633a2.1293943 2.1293943 0 0 0 2.52149 -2.94141l-89.02553-191.75974a2.1293943 2.1293943 0 0 0 -2.08008 -1.226563 2.1293943 2.1293943 0 0 0 -0.18164 -0.0039z"/>
        </symbol>
        <symbol id="coniferous_and_deciduous" viewBox="0 0 576.44501 577.45154">
            <title>coniferous_and_deciduous</title>
            <path d="m64.571 0.06355556c-41.335 0-64.571 21.371-64.571 65.036v450.123c0 40.844 20.895 62.229 62.192 62.229h452.024c41.307 0 62.229-20.315 62.229-62.229v-450.123c0-42.601-20.922-65.036-63.521-65.036-0.004 0-448.495-0.143-448.353 0z"/>
            <path
                fill="#fff"
                d="m144.10655 78.983056a2.1293943 2.1293943 0 0 0 -1.86719 1.230469l-88.894532 191.75976a2.1293943 2.1293943 0 0 0 1.931641 3.02539h15.958984l-29.400391 53.4004a2.1293943 2.1293943 0 0 0 1.865235 3.15625h19.378906l-35.041015 57.98242a2.1293943 2.1293943 0 0 0 2.136718 3.20702l89.910154-13.4746v95.73828a2.1293943 2.1293943 0 0 0 2.12891 2.12891h21.95703a2.1293943 2.1293943 0 0 0 0.11523 -0.006 2.1293943 2.1293943 0 0 0 0.006 0 2.1293943 2.1293943 0 0 0 0.14453 0.006h21.95704a2.1293943 2.1293943 0 0 0 2.1289 -2.12891v-95.73828l90.04297 13.4746a2.1293943 2.1293943 0 0 0 2.13672 -3.20702l-35.04102-57.98242h19.2461a2.1293943 2.1293943 0 0 0 1.86523 -3.15625l-29.40039-53.4004h16.0918a2.1293943 2.1293943 0 0 0 1.92969 -3.02539l-89.02553-191.75976a2.1293943 2.1293943 0 0 0 -2.08008 -1.226563 2.1293943 2.1293943 0 0 0 -0.18164 -0.0039zm261.07226 17.185547c-25.78497-0.43585-52.92638 13.832707-58.41211 43.074227-2.32265 12.38073-4.26195 16.36111-18.91601 16.61523-45.14248 0.78284-64.34147 67.14353-26.20313 98.41992 3.77898 3.09912 1.60283 5.78977-11.11914 15.46485-64.74575 49.23923 4.96962 147.49141 71.19336 100.33593 9.69549-6.90379 11.23217-6.98046 13.41992-1.27929 4.6179 12.03405 2.56565 69.81859-3.19531 88.96093l-5.75195 19.04493h34.63867c3.42918 0 5.14366 0.012 7.92383 0 2.81489 0.0125 4.56825 0 8.05273 0h34.63867l-5.625-19.04493c-5.76097-19.14234-7.94021-76.92688-3.32226-88.96093 2.18775-5.70117 3.72443-5.6245 13.41992 1.27929 66.22375 47.15548 135.93911-51.0967 71.19336-100.33593-12.72197-9.67508-15.55504-13.71391-10.99219-15.46485 38.13833-14.63508 17.70296-90.98054-26.33008-98.41992-14.45148-2.44155-16.46641-4.2345-18.78906-16.61523-5.74546-30.62582-35.30159-44.726118-62.11719-42.818368-1.22216-0.08753-2.47611-0.235049-3.70703-0.255859z"/>
        </symbol>
        <symbol id="deciduous" viewBox="0 0 576.44501 577.45154">
            <title>deciduous</title>
            <path d="m64.571 0.06355556c-41.335 0-64.571 21.371-64.571 65.036v450.123c0 40.844 20.895 62.229 62.192 62.229h452.024c41.307 0 62.229-20.315 62.229-62.229v-450.123c0-42.601-20.922-65.036-63.521-65.036-0.004 0-448.495-0.143-448.353 0z"/>
            <path
                fill="#fff"
                d="m285.1786 96.168736c-25.78497-0.43585-52.92619 13.832474-58.41192 43.073994-2.32265 12.38073-4.26272 16.36197-18.91678 16.61609-45.14248 0.78284-64.34062 67.14194-26.20228 98.41833 3.77898 3.09912 1.60198 5.79066-11.11999 15.46574-64.74575 49.23923 4.96978 147.49106 71.19352 100.33558 9.69549-6.90379 11.23293-6.97933 13.42068-1.27816 4.6179 12.03405 2.56556 69.81761-3.1954 88.95995l-5.75172 19.04458h34.63815c3.42918 0 5.14442 0.012 7.92459 0 2.81489 0.0125 4.56792 0 8.0524 0h34.63815l-5.6239-19.04458c-5.76097-19.14234-7.94117-76.9259-3.32322-88.95995 2.18775-5.70117 3.72519-5.62563 13.42068 1.27816 66.22375 47.15548 135.93927-51.09635 71.19352-100.33558-12.72197-9.67508-15.55502-13.7148-10.99217-15.46574 38.13833-14.63508 17.70294-90.97895-26.3301-98.41833-14.45148-2.44155-16.46631-4.23536-18.78896-16.61609-5.74546-30.62582-35.30299-44.726124-62.11859-42.818374-1.22216-0.08753-2.47574-0.23481-3.70666-0.25562z"/>
        </symbol>
        <symbol id="grass" viewBox="0 0 576.44501 577.45154">
            <title>grass</title>
            <path d="m64.571 0.06355556c-41.335 0-64.571 21.371-64.571 65.036v450.123c0 40.844 20.894 62.229 62.192 62.229h452.024c41.307 0 62.229-20.316 62.229-62.229v-450.123c0-42.601-20.922-65.036-63.522-65.036-0.003 0-448.494-0.143-448.352 0z"/>
            <path
                d="m384.18662 99.065086a5.8277736 5.8277736 0 0 0 -5.76367 5.886724l-0.32812 83.39844a5.8277736 5.8277736 0 1 0 11.65429 0.0449l0.32813-83.39844a5.8277736 5.8277736 0 0 0 -5.89063 -5.931644zm-45.2539 27.148444a5.8277736 5.8277736 0 0 0 -5.38086 8.08398l22.74414 56.36914a5.8277736 5.8277736 0 1 0 10.80859 -4.36132l-22.74609-56.36719a5.8277736 5.8277736 0 0 0 -5.42578 -3.72461zm94.63867 2.31445a5.8277736 5.8277736 0 0 0 -5.49805 3.3418l-26.37109 54.06055a5.8277736 5.8277736 0 1 0 10.47461 5.10937l26.37109-54.06055a5.8277736 5.8277736 0 0 0 -4.97656 -8.45117zm32.58399 20.99805a5.8277736 5.8277736 0 0 0 -3.98633 1.80469l-32.30469 32.96289a5.8277736 5.8277736 0 1 0 8.32422 8.1582l32.30273-32.96484a5.8277736 5.8277736 0 0 0 -4.33593 -9.96094zm-163.57813 0.98633a5.8277736 5.8277736 0 0 0 -4.05859 10.00586l31.97461 31.97461a5.8277736 5.8277736 0 1 0 8.24023 -8.24024l-31.97461-31.97461a5.8277736 5.8277736 0 0 0 -4.18164 -1.76562zm-118.39063 44.55273a5.8277736 5.8277736 0 0 0 -5.76367 5.88672l-0.32812 83.39844a5.8277736 5.8277736 0 1 0 11.65429 0.0449l0.32813-83.39844a5.8277736 5.8277736 0 0 0 -5.89063 -5.93164zm-45.2539 27.14844a5.8277736 5.8277736 0 0 0 -5.38086 8.08398l22.74414 56.36914a5.8277736 5.8277736 0 1 0 10.80859 -4.36132l-22.74609-56.36719a5.8277736 5.8277736 0 0 0 -5.42578 -3.72461zm94.63867 2.31445a5.8277736 5.8277736 0 0 0 -5.49805 3.3418l-26.37109 54.06055a5.8277736 5.8277736 0 1 0 10.47461 5.10937l26.37109-54.06055a5.8277736 5.8277736 0 0 0 -4.97656 -8.45117zm32.58399 20.99805a5.8277736 5.8277736 0 0 0 -3.98633 1.80469l-32.30469 32.96289a5.8277736 5.8277736 0 1 0 8.32422 8.1582l32.30273-32.96484a5.8277736 5.8277736 0 0 0 -4.33593 -9.96094zm-163.57813 0.98633a5.8277736 5.8277736 0 0 0 -4.05859 10.00586l31.97461 31.97461a5.8277736 5.8277736 0 1 0 8.24023 -8.24024l-31.97461-31.97461a5.8277736 5.8277736 0 0 0 -4.18164 -1.76562zm185.60937 98.55273a5.8277736 5.8277736 0 0 0 -5.76367 5.88672l-0.32812 83.39844a5.8277736 5.8277736 0 1 0 11.65429 0.0449l0.32813-83.39844a5.8277736 5.8277736 0 0 0 -5.89063 -5.93164zm-45.2539 27.14844a5.8277736 5.8277736 0 0 0 -5.38086 8.08398l22.74414 56.36914a5.8277736 5.8277736 0 1 0 10.80859 -4.36132l-22.74609-56.36719a5.8277736 5.8277736 0 0 0 -5.42578 -3.72461zm94.63867 2.31445a5.8277736 5.8277736 0 0 0 -5.49805 3.3418l-26.37109 54.06055a5.8277736 5.8277736 0 1 0 10.47461 5.10937l26.37109-54.06055a5.8277736 5.8277736 0 0 0 -4.97656 -8.45117zm32.58399 20.99805a5.8277736 5.8277736 0 0 0 -3.98633 1.80469l-32.30469 32.96289a5.8277736 5.8277736 0 1 0 8.32422 8.1582l32.30273-32.96484a5.8277736 5.8277736 0 0 0 -4.33593 -9.96094zm-163.57813 0.98633a5.8277736 5.8277736 0 0 0 -4.05859 10.00586l31.97461 31.97461a5.8277736 5.8277736 0 1 0 8.24023 -8.24024l-31.97461-31.97461a5.8277736 5.8277736 0 0 0 -4.18164 -1.76562z"
                fill="#fff"/>
        </symbol>
        <symbol id="hills" viewBox="0 0 576.44501 577.45154">
            <title>hills</title>
            <path d="m64.571 0.06355556c-41.335 0-64.571 21.371-64.571 65.036v450.123c0 40.844 20.894 62.229 62.192 62.229h452.024c41.307 0 62.229-20.316 62.229-62.229v-450.123c0-42.601-20.922-65.036-63.522-65.036-0.003 0-448.494-0.143-448.352 0z"/>
            <path
                fill="#fff"
                d="m207.59873 92.477197c-4.19922-0.01729-8.40033 0.03142-12.59765 0.07227-39.22077-0.83704-81.18491 5.735085-111.32422 32.742183-17.84714 15.20614-33.763021 33.63045-55.269531 43.75782-2.650844 3.00967 2.800086 3.75932 4.90625 3 9.019234-2.2793 15.956025-9.35176 24.078125-13.84375 15.98596-10.61568 29.676487-23.92998 42.574217-37.94335 13.17695-9.53662 29.86978-12.00718 45.25977-16.3711 24.51897-5.322344 49.90978-8.780693 74.99414-6.654303 17.9245 4.576343 29.12992 21.095093 44.84375 29.968753 15.17614 9.89259 31.52486 18.7369 45.25 30.25 1.11555-1.92439-0.91505-5.53366-1.15625-7.84375-3.15304-7.06153-11.43345-9.86687-17.1875-14.53125-15.56308-9.47905-31.54849-18.77016-44.28125-31.81249-7.39152-7.118796-17.21364-11.069473-27.5-10.468763-4.19329-0.2217-8.39062-0.30498-12.58985-0.322265zm153.67969 84.568363c-18.3712 0.59518-37.24028 3.30167-53.875 11.21875-11.25487 7.22101-22.36174 14.50288-33.40625 22.03125-1.46855 1.05996-6.63905 5.09345-2.09375 3.0625 23.14953-7.60492 43.81165-22.25887 68.19336-26.47656 20.60973-5.15501 44.5532-7.48589 63.05664 4.88281 12.34319 7.70967 22.99577 18.05648 36.3125 24.25 14.27752 7.77103 24.71792 24.76074 41.09375 26.75-16.38702-23.13213-44.74624-33.04716-64.58984-52.78516-14.71539-13.83429-35.85589-12.62894-54.69141-12.93359zm-130.47851 67.24219c-0.61567-0.004-1.23219 0.00002-1.84961 0.0137-31.62382 2.61225-64.40785 9.42394-89.71094 29.65625-17.03503 12.8395-31.04283 29.79358-50.070313 39.6875-1.92089 2.78152 2.84221 7.28577 4.9375 3.78125 24.245003-13.1651 41.551303-35.81632 64.843753-50.21875 22.74862-11.9244 48.95265-14.49799 74.09375-17.625 17.57282-0.89735 36.19959 4.8049 47.5625 18.71875 15.26441 12.85776 34.81496 19.83178 48.8125 34.1875 6.33889 5.2207 11.49959 13.49618 19.4375 15.4375-0.53075-5.86255-6.28126-9.81487-9.53125-14.34375-14.02641-15.2832-32.85089-24.47094-49.75-35.9375-9.35849-7.95098-17.80344-19.73581-31.37891-19.94336-9.11488-1.44445-18.16156-3.36017-27.39648-3.41406z"/>
        </symbol>
        <symbol id="quary" viewBox="0 0 576.44501 577.45154">
            <title>quary</title>
            <path d="m64.571 0.06355556c-41.335 0-64.571 21.371-64.571 65.036v450.123c0 40.844 20.894 62.229 62.192 62.229h452.024c41.307 0 62.229-20.316 62.229-62.229v-450.123c0-42.601-20.922-65.036-63.522-65.036-0.003 0-448.494-0.143-448.352 0z"/>
            <path
                d="m241.10459 15.826806c-0.44632-0.01104-0.90319 0.001-1.36914 0.04102a4.3504349 4.3504349 0 0 0 -0.35351 0.04492c-3.64345 0.617976-9.03987 0.244514-14.58203 0.921874-5.54216 0.677362-11.88384 2.983024-15.31836 9.244141a4.3504349 4.3504349 0 0 0 -0.36719 0.892578c-4.08615 14.244367 9.78601 28.235606 23.9668 25.398438 4.44181 0.355699 10.16688 1.306546 16.01757 0.947265 5.92264-0.363698 12.44989-2.417783 16.56641-8.300781a4.3504349 4.3504349 0 0 0 0.77539 -2.197265c0.47628-6.977213-3.09582-12.638246-7.34961-16.650391-4.25378-4.012146-9.3228-6.874283-13.20117-9.263672a4.3504349 4.3504349 0 0 0 -1.06836 -0.474609c-1.13138-0.328222-2.37784-0.570387-3.7168-0.603516zm-0.59961 8.710938c0.38945-0.02835 0.93803 0.07239 1.4961 0.197265 3.87899 2.38041 8.09967 4.91193 11.12109 7.761719 2.82308 2.662711 4.39594 5.241139 4.5625 8.460937-2.20774 2.47268-5.09795 3.428848-9.11914 3.675782-4.53309 0.278369-9.95089-0.567296-14.99609-0.957032a4.3504349 4.3504349 0 0 0 -1.48828 0.142579c-7.38471 2.030366-16.32726-6.559914-14.65235-13.990235 1.81622-2.93572 4.33809-3.857587 8.42774-4.357422 4.22414-0.516273 9.46625-0.108785 14.64843-0.933593zm-78.20703 19.753906a4.3504349 4.3504349 0 0 0 -1.15625 0.113281c-1.39652 0.329358-4.1289 0.06645-7.34961-0.06445-3.2207-0.130905-7.50454 0.04216-10.86914 3.18164a4.3504349 4.3504349 0 0 0 -1.29883 4.03125c0.89468 4.482169 4.53562 7.476013 8.02735 8.570313 3.11317 0.975661 6.21021 0.860464 9.0332 0.306641 1.64988 0.02877 4.43727 0.53685 7.38672 0.855468 2.96656 0.320467 6.32442 0.696656 9.70117-1.316406a4.3504349 4.3504349 0 0 0 1.08789 -6.554687c-3.18735-3.749518-7.74423-8.206394-14.1289-9.083985a4.3504349 4.3504349 0 0 0 -0.4336 -0.03906zm106.44141 23.027344c-0.31306-0.0041-0.6267 0.0078-0.94141 0.04102-0.62941 0.06649-1.26194 0.215311-1.90039 0.472656-1.27689 0.514691-2.6848 1.615431-3.28515 3.363282-0.60036 1.74785-0.0924 3.735894 0.78125 4.951171 0.87104 1.211682 1.97377 1.907815 3.13672 2.400391 3.70488 1.576522 7.25235 1.367618 10.12109 1.220703s5.12059-0.219731 6.8125 0.324219a4.3504349 4.3504349 0 0 0 0.26953 0.07813c1.32736 0.334648 2.12137 0.703745 4.04297 0.308594 0.9608-0.197576 2.83547-1.07453 3.52734-2.988282 0.69188-1.913751 0.0251-3.265783-0.35937-3.958984-0.76887-1.386401-1.39702-1.766369-2.07032-2.308594-0.59994-0.48316-1.23644-0.899856-1.88476-1.294922-3.30598-2.33305-7.00128-2.618897-9.93164-2.5625-2.95864 0.05694-5.43184 0.318524-7.16992 0.04102a4.3504349 4.3504349 0 0 0 -0.21094 -0.0293c-0.31197-0.03426-0.62444-0.05445-0.9375-0.05859zm-0.22266 8.677734c0.094 0.01501 0.16843 0.000116 0.26172 0.01367 0.009-0.000001-0.0678 0.01376-0.0508 0.01563l-0.21094-0.0293zm186.22266 7.322266c-0.31306-0.0041-0.6267 0.0078-0.94141 0.04102-0.62941 0.06649-1.26194 0.215311-1.90039 0.472656-1.27689 0.514691-2.6848 1.615431-3.28515 3.363282-0.60036 1.74785-0.0924 3.735894 0.78125 4.951171 0.87104 1.211682 1.97377 1.907815 3.13672 2.400391 3.70488 1.576522 7.25235 1.367618 10.12109 1.220703s5.12059-0.219731 6.8125 0.324219a4.3504349 4.3504349 0 0 0 0.26953 0.07813c1.32736 0.334648 2.12137 0.703745 4.04297 0.308594 0.9608-0.197576 2.83547-1.074531 3.52734-2.988282 0.69188-1.913749 0.0251-3.265783-0.35937-3.958984-0.76887-1.386401-1.39702-1.766369-2.07032-2.308594-0.59994-0.48316-1.23644-0.899856-1.88476-1.294922-3.30598-2.33305-7.00128-2.618897-9.93164-2.5625-2.95864 0.05694-5.43184 0.318524-7.16992 0.04102a4.3504349 4.3504349 0 0 0 -0.21094 -0.0293c-0.31197-0.03426-0.62444-0.05445-0.9375-0.05859zm-0.22266 8.677734c0.094 0.01501 0.16843 0.000116 0.26172 0.01367 0.009-0.000001-0.0678 0.01376-0.0508 0.01563l-0.21094-0.0293zm-293.82422 20.830082c-0.25898 0.005-0.52559 0.0229-0.80078 0.0547a4.3504349 4.3504349 0 0 0 -0.54297 0.0977c-2.67999 0.6609-6.9457 0.33635-11.59961 0.54297-4.65389 0.20663-10.33132 1.33091-14.12109 6.14453a4.3504349 4.3504349 0 0 0 -0.82617 1.74219c-1.3171 5.88607 1.07005 11.59378 4.98828 15.4375 3.61823 3.54944 8.97303 5.60433 14.44922 4.45899 3.82909 0.12746 8.55583 0.98623 13.58984 1.07226 5.06295 0.0865 10.7422-0.74811 15.49414-4.61523a4.3504349 4.3504349 0 0 0 1.56446 -3.95508c-0.72649-5.3765-3.9477-9.37852-7.31446-12.33984-3.36675-2.96134-7.04247-5.17558-9.68554-7.17383a4.3504349 4.3504349 0 0 0 -1.00977 -0.56836c-0.95975-0.38325-2.37262-0.93644-4.18555-0.89844zm0.73829 8.59766-0.34375 0.0625-0.0352-0.0215c0.13018-0.0297 0.24843-0.009 0.37891-0.041zm-0.46289 0.0508c0.0121 0.009 0.023 0.0163 0.0352 0.0254l-0.11523 0.0215c-0.0762 0.009 0.2373 0.0929 0.28711 0.10547 3.01915 2.23265 6.23664 4.24825 8.65234 6.37305 1.68956 1.4861 2.74178 2.96099 3.49023 4.5039-2.09344 0.9148-4.47873 1.22273-7.33984 1.17383-4.06831-0.0695-8.74545-0.92463-13.54687-1.07422a4.3504349 4.3504349 0 0 0 -1.4336 0.19532c-2.42987 0.75959-5.03628-0.12655-7.11328-2.16407-1.79702-1.76285-2.7565-4.15341-2.6543-6.32031 1.59802-1.48065 3.66525-1.95767 6.90625-2.10156 3.63928-0.16158 8.14067 0.3118 12.83204-0.73828zm336.7246 6.35156c-0.25898 0.005-0.52559 0.0229-0.80078 0.0547a4.3504349 4.3504349 0 0 0 -0.54297 0.0977c-2.67999 0.6609-6.94569 0.33635-11.59961 0.54297-4.6539 0.20663-10.33132 1.33091-14.12109 6.14453a4.3504349 4.3504349 0 0 0 -0.82617 1.74219c-1.3171 5.88607 1.07005 11.59378 4.98828 15.4375 3.61823 3.54944 8.97303 5.60433 14.44922 4.45899 3.82909 0.12746 8.55583 0.98623 13.58984 1.07226 5.06295 0.0865 10.7422-0.74811 15.49414-4.61523a4.3504349 4.3504349 0 0 0 1.56446 -3.95508c-0.72649-5.3765-3.9477-9.37852-7.31446-12.33984-3.36675-2.96134-7.04247-5.17558-9.68554-7.17383a4.3504349 4.3504349 0 0 0 -1.00977 -0.56836c-0.95975-0.38325-2.37262-0.93644-4.18555-0.89844zm0.73829 8.59766-0.34375 0.0625-0.0352-0.0215c0.13018-0.0297 0.24843-0.009 0.37891-0.041zm-0.46289 0.0508c0.0121 0.009 0.0231 0.0163 0.0351 0.0254l-0.11523 0.0215c-0.0762 0.009 0.2373 0.0929 0.28711 0.10547 3.01915 2.23265 6.23664 4.24825 8.65234 6.37305 1.68956 1.4861 2.74178 2.96099 3.49023 4.5039-2.09344 0.9148-4.47873 1.22273-7.33984 1.17383-4.06831-0.0695-8.74545-0.92463-13.54687-1.07422a4.3504349 4.3504349 0 0 0 -1.4336 0.19532c-2.42987 0.75959-5.03628-0.12655-7.11328-2.16407-1.79702-1.76285-2.7565-4.15341-2.6543-6.32031 1.59802-1.48065 3.66525-1.95767 6.90625-2.10156 3.63928-0.16158 8.14067 0.3118 12.83204-0.73828zm-451.86329 9.35156c-0.44632-0.011-0.903193 0.001-1.369141 0.041a4.3504349 4.3504349 0 0 0 -0.353515 0.0449c-3.643451 0.61798-9.039871 0.24451-14.582032 0.92187s-11.883836 2.98303-15.318359 9.24414a4.3504349 4.3504349 0 0 0 -0.367188 0.89258c-4.086148 14.24437 9.786008 28.23561 23.966797 25.39844 4.441812 0.3557 10.166888 1.30654 16.017578 0.94726 5.922634-0.36369 12.449888-2.41778 16.566407-8.30078a4.3504349 4.3504349 0 0 0 0.77539 -2.19726c0.476279-6.97721-3.095826-12.63825-7.349609-16.65039-4.253783-4.01215-9.322803-6.8743-13.201172-9.26367a4.3504349 4.3504349 0 0 0 -1.068359 -0.47461c-1.131385-0.32823-2.377839-0.57039-3.716797-0.60352zm-0.59961 8.71094c0.389451-0.0283 0.938022 0.0724 1.496094 0.19726 3.878988 2.38041 8.099673 4.91193 11.121094 7.76172 2.823077 2.66271 4.395941 5.24114 4.5625 8.46094-2.207746 2.47268-5.097951 3.42885-9.119141 3.67578-4.533094 0.27837-9.950894-0.5673-14.996093-0.95703a4.3504349 4.3504349 0 0 0 -1.488282 0.14258c-7.384707 2.03036-16.327255-6.55992-14.652344-13.99024 1.816215-2.93572 4.338092-3.85758 8.427735-4.35742 4.224148-0.51627 9.466255-0.10882 14.648437-0.93359zm506.79297 10.7539a4.3504349 4.3504349 0 0 0 -1.15625 0.11329c-1.39652 0.32935-4.1289 0.0665-7.34961-0.0645-3.2207-0.1309-7.50454 0.0422-10.86914 3.18164a4.3504349 4.3504349 0 0 0 -1.29883 4.03125c0.89468 4.48217 4.53562 7.47603 8.02735 8.57031 3.11317 0.97568 6.21021 0.86047 9.0332 0.30665 1.64988 0.0288 4.43727 0.53685 7.38672 0.85546 2.96656 0.32047 6.32442 0.69666 9.70117-1.3164a4.3504349 4.3504349 0 0 0 1.08789 -6.55469c-3.18735-3.74952-7.74423-8.20639-14.1289-9.08398a4.3504349 4.3504349 0 0 0 -0.4336 -0.0391zm-166 3a4.3504349 4.3504349 0 0 0 -1.15625 0.11329c-1.39652 0.32935-4.1289 0.0665-7.34961-0.0645-3.2207-0.1309-7.50454 0.0422-10.86914 3.18164a4.3504349 4.3504349 0 0 0 -1.29883 4.03125c0.89468 4.48217 4.53562 7.47603 8.02735 8.57031 3.11317 0.97568 6.21021 0.86047 9.0332 0.30665 1.64988 0.0288 4.43727 0.53685 7.38672 0.85546 2.96656 0.32047 6.32442 0.69666 9.70117-1.3164a4.3504349 4.3504349 0 0 0 1.08789 -6.55469c-3.18735-3.74952-7.74423-8.20639-14.1289-9.08398a4.3504349 4.3504349 0 0 0 -0.4336 -0.0391zm-208.55859 42.02735c-0.31306-0.004-0.6267 0.008-0.94141 0.041-0.62941 0.0665-1.26194 0.21531-1.90039 0.47266-1.27689 0.51469-2.6848 1.61543-3.28515 3.36328-0.60036 1.74785-0.0924 3.7359 0.78125 4.95117 0.87104 1.21168 1.97376 1.90782 3.13672 2.40039 3.70488 1.57652 7.25235 1.36762 10.12109 1.22071 2.86874-0.14692 5.12059-0.21973 6.8125 0.32422a4.3504349 4.3504349 0 0 0 0.26953 0.0781c1.32736 0.33465 2.12137 0.70375 4.04297 0.30859 0.9608-0.19757 2.83547-1.07453 3.52734-2.98828 0.69188-1.91375 0.0251-3.26578-0.35937-3.95898-0.76887-1.3864-1.39702-1.76637-2.07032-2.3086-0.59994-0.48316-1.23644-0.89985-1.88476-1.29492-3.30598-2.33305-7.00128-2.61889-9.93164-2.5625-2.95864 0.0569-5.43184 0.31855-7.16992 0.041a4.3504349 4.3504349 0 0 0 -0.21094 -0.0293c-0.31197-0.0343-0.62444-0.0544-0.9375-0.0586zm139.25781 2.5332a4.3504349 4.3504349 0 0 0 -0.0879 0.002c-0.54591-0.0216-1.30898 0.11467-2.10351 0.43164l0.28711-0.18945c-2.4131 0.57997-6.05615 0.27055-10.19336 0.3457-4.13722 0.0752-9.25919 0.83471-13.13086 4.82422a4.3504349 4.3504349 0 0 0 -1.18555 2.41797c-1.50117 10.58241 8.80179 18.99555 18.77734 16.66602 3.24216 0.11779 7.2968 0.8552 11.66993 1.02929 4.45654 0.17742 9.51669-0.31778 13.87109-3.51367a4.3504349 4.3504349 0 0 0 1.53711 -4.92969c-3.06367-8.8596-11.42862-13.27996-17.35742-16.54492a4.3504349 4.3504349 0 0 0 -2.08399 -0.53906zm-139.48047 6.14453c0.094 0.015 0.16843 0.00009 0.26172 0.0137 0.009 0-0.0678 0.0138-0.0508 0.0156l-0.21094-0.0293zm138.49805 2.67578c3.95155 2.23527 7.81924 4.74603 10.21289 7.68164-1.4165 0.30594-3.00945 0.40538-4.85156 0.33203-3.56914-0.14207-7.70122-0.92638-11.98438-1.05078a4.3504349 4.3504349 0 0 0 -1.48632 0.21485c-3.54271 1.16462-7.77537-1.77526-8.43946-5.38867 1.43301-0.84203 3.08435-1.27672 5.5918-1.32227 3.06039-0.0556 6.87025 0.28512 10.95703-0.4668zm-206.7168 29.61914a4.3504349 4.3504349 0 0 0 -1.15625 0.11329c-1.39652 0.32935-4.1289 0.0665-7.34961-0.0645-3.220696-0.1309-7.504541 0.0422-10.869137 3.18164a4.3504349 4.3504349 0 0 0 -1.298828 4.03125c0.894673 4.48217 4.535612 7.47603 8.027344 8.57031 3.113171 0.97567 6.210211 0.86047 9.033201 0.30665 1.64988 0.0288 4.43727 0.53685 7.38672 0.85546 2.96656 0.32047 6.32442 0.69666 9.70117-1.3164a4.3504349 4.3504349 0 0 0 1.08789 -6.55469c-3.18735-3.74952-7.74423-8.20639-14.1289-9.08398a4.3504349 4.3504349 0 0 0 -0.4336 -0.0391zm356.39453 24.53516c-0.25898 0.005-0.52559 0.0229-0.80078 0.0547a4.3504349 4.3504349 0 0 0 -0.54297 0.0976c-2.67999 0.6609-6.94569 0.33635-11.59961 0.54297-4.6539 0.20663-10.33132 1.33091-14.12109 6.14453a4.3504349 4.3504349 0 0 0 -0.82617 1.74219c-1.3171 5.88607 1.07005 11.59378 4.98828 15.4375 3.61823 3.54944 8.97303 5.60433 14.44922 4.45899 3.82909 0.12746 8.55583 0.98623 13.58984 1.07226 5.06295 0.0865 10.7422-0.74811 15.49414-4.61523a4.3504349 4.3504349 0 0 0 1.56446 -3.95508c-0.72649-5.3765-3.9477-9.37853-7.31446-12.33984-3.36675-2.96133-7.04247-5.17558-9.68554-7.17383a4.3504349 4.3504349 0 0 0 -1.00977 -0.56836c-0.95975-0.38325-2.37262-0.93644-4.18555-0.89844zm0.73829 8.59766-0.34375 0.0625-0.0352-0.0215c0.13018-0.0297 0.24843-0.009 0.37891-0.041zm-0.46289 0.0508c0.0121 0.009 0.0231 0.0163 0.0351 0.0254l-0.11523 0.0215c-0.0762 0.009 0.2373 0.0929 0.28711 0.10547 3.01915 2.23265 6.23664 4.24825 8.65234 6.37305 1.68956 1.4861 2.74178 2.96099 3.49023 4.5039-2.09344 0.9148-4.47873 1.22273-7.33984 1.17383-4.06831-0.0695-8.74545-0.92463-13.54687-1.07422a4.3504349 4.3504349 0 0 0 -1.4336 0.19532c-2.42987 0.75959-5.03628-0.12655-7.11328-2.16407-1.79702-1.76285-2.7565-4.15341-2.6543-6.32031 1.59802-1.48065 3.66525-1.95767 6.90625-2.10156 3.63928-0.16158 8.14067 0.3118 12.83204-0.73828zm-189.22852 0.84375c-0.31306-0.004-0.6267 0.008-0.94141 0.041-0.62941 0.0665-1.26194 0.21531-1.90039 0.47266-1.27689 0.51469-2.6848 1.61543-3.28515 3.36328-0.60036 1.74785-0.0924 3.7359 0.78125 4.95117 0.87104 1.21168 1.97377 1.90782 3.13672 2.40039 3.70488 1.57652 7.25235 1.36762 10.12109 1.22071 2.86874-0.14692 5.12059-0.21973 6.8125 0.32422a4.3504349 4.3504349 0 0 0 0.26953 0.0781c1.32736 0.33465 2.12137 0.70375 4.04297 0.30859 0.9608-0.19757 2.83547-1.07453 3.52734-2.98828 0.69188-1.91375 0.0251-3.26578-0.35937-3.95898-0.76887-1.3864-1.39702-1.76637-2.07032-2.3086-0.59994-0.48316-1.23644-0.89985-1.88476-1.29492-3.30598-2.33305-7.00128-2.61889-9.93164-2.5625-2.95864 0.0569-5.43184 0.31855-7.16992 0.041a4.3504349 4.3504349 0 0 0 -0.21094 -0.0293c-0.31197-0.0342-0.62444-0.0544-0.9375-0.0586zm-0.22266 8.67773c0.094 0.015 0.16843 0.00009 0.26172 0.0137 0.009 0-0.0678 0.0138-0.0508 0.0156l-0.21094-0.0293zm-64.82422 6.83008c-0.25898 0.005-0.52559 0.0229-0.80078 0.0547a4.3504349 4.3504349 0 0 0 -0.54297 0.0976c-2.67999 0.6609-6.94569 0.33635-11.59961 0.54297-4.65389 0.20663-10.33132 1.33091-14.12109 6.14453a4.3504349 4.3504349 0 0 0 -0.82617 1.74219c-1.3171 5.88607 1.07005 11.59378 4.98828 15.4375 3.61823 3.54944 8.97303 5.60433 14.44922 4.45899 3.82909 0.12746 8.55583 0.98623 13.58984 1.07226 5.06295 0.0865 10.7422-0.74811 15.49414-4.61523a4.3504349 4.3504349 0 0 0 1.56446 -3.95508c-0.72649-5.3765-3.9477-9.37853-7.31446-12.33984-3.36675-2.96133-7.04247-5.17558-9.68554-7.17383a4.3504349 4.3504349 0 0 0 -1.00977 -0.56836c-0.95975-0.38325-2.37262-0.93644-4.18555-0.89844zm0.73829 8.59766-0.34375 0.0625-0.0352-0.0215c0.13018-0.0297 0.24843-0.009 0.37891-0.041zm-0.46289 0.0508c0.0121 0.009 0.023 0.0163 0.0352 0.0254l-0.11523 0.0215c-0.0762 0.009 0.2373 0.0929 0.28711 0.10547 3.01915 2.23265 6.23664 4.24825 8.65234 6.37305 1.68956 1.4861 2.74178 2.96099 3.49023 4.5039-2.09344 0.9148-4.47873 1.22273-7.33984 1.17383-4.06831-0.0695-8.74545-0.92463-13.54687-1.07422a4.3504349 4.3504349 0 0 0 -1.4336 0.19532c-2.42987 0.75959-5.03628-0.12655-7.11328-2.16407-1.79702-1.76285-2.7565-4.15341-2.6543-6.32031 1.59802-1.48065 3.66525-1.95767 6.90625-2.10156 3.63928-0.16158 8.14067 0.3118 12.83204-0.73828zm141.13671 10.35156c-0.44632-0.011-0.90319 0.001-1.36914 0.041a4.3504349 4.3504349 0 0 0 -0.35351 0.0449c-3.64345 0.61798-9.03987 0.24451-14.58203 0.92187s-11.88384 2.98303-15.31836 9.24414a4.3504349 4.3504349 0 0 0 -0.36719 0.89258c-4.08615 14.24437 9.78601 28.23561 23.9668 25.39844 4.44181 0.3557 10.16688 1.30654 16.01757 0.94726 5.92264-0.36369 12.44989-2.41778 16.56641-8.30078a4.3504349 4.3504349 0 0 0 0.77539 -2.19726c0.47628-6.97721-3.09582-12.63825-7.34961-16.65039-4.25378-4.01215-9.3228-6.87429-13.20117-9.26367a4.3504349 4.3504349 0 0 0 -1.06836 -0.47461c-1.13138-0.32823-2.37784-0.57039-3.7168-0.60352zm-0.59961 8.71094c0.38945-0.0283 0.93803 0.0724 1.4961 0.19726 3.87899 2.38041 8.09967 4.91193 11.12109 7.76172 2.82308 2.66271 4.39594 5.24114 4.5625 8.46094-2.20774 2.47268-5.09795 3.42885-9.11914 3.67578-4.53309 0.27837-9.95089-0.5673-14.99609-0.95703a4.3504349 4.3504349 0 0 0 -1.48828 0.14258c-7.38471 2.03036-16.32726-6.55992-14.65235-13.99024 1.81622-2.93572 4.33809-3.85758 8.42774-4.35742 4.22414-0.51627 9.46625-0.10882 14.64843-0.93359zm-266.50781 1.31445a4.3504349 4.3504349 0 0 0 -0.08789 0.002c-0.545911-0.0216-1.308981 0.11467-2.103515 0.43164l0.287109-0.18945c-2.4131 0.57997-6.056144 0.27055-10.193359 0.3457-4.137215 0.0752-9.259182 0.83471-13.13086 4.82422a4.3504349 4.3504349 0 0 0 -1.185547 2.41797c-1.501171 10.58241 8.801787 18.99555 18.777344 16.66602 3.242158 0.11779 7.296796 0.8552 11.669922 1.02929 4.45656 0.17742 9.516694-0.31778 13.871094-3.51367a4.3504349 4.3504349 0 0 0 1.53711 -4.92969c-3.06367-8.8596-11.428621-13.27996-17.357423-16.54492a4.3504349 4.3504349 0 0 0 -2.083984 -0.53906zm-0.982422 8.82031c3.95155 2.23527 7.819244 4.74603 10.212891 7.68164-1.416499 0.30594-3.009448 0.40538-4.851563 0.33203-3.569135-0.14208-7.701213-0.92638-11.984375-1.05078a4.3504349 4.3504349 0 0 0 -1.486328 0.21485c-3.542706 1.16462-7.775367-1.77526-8.439453-5.38867 1.433012-0.84203 3.084344-1.27672 5.591797-1.32227 3.060393-0.0556 6.870248 0.28512 10.957031-0.4668zm39.2832 58.61914a4.3504349 4.3504349 0 0 0 -1.15625 0.11329c-1.39652 0.32934-4.1289 0.0665-7.34961-0.0645-3.2207-0.1309-7.50454 0.0422-10.86914 3.18164a4.3504349 4.3504349 0 0 0 -1.29883 4.03125c0.89468 4.48217 4.53562 7.47603 8.02735 8.57031 3.11317 0.97567 6.21021 0.86047 9.0332 0.30665 1.64988 0.0288 4.43727 0.53685 7.38672 0.85546 2.96656 0.32047 6.32442 0.69666 9.70117-1.3164a4.3504349 4.3504349 0 0 0 1.08789 -6.55469c-3.18735-3.74952-7.74423-8.20639-14.1289-9.08398a4.3504349 4.3504349 0 0 0 -0.4336 -0.0391zm282.69922 14.56055a4.3504349 4.3504349 0 0 0 -0.0879 0.002c-0.54591-0.0216-1.30898 0.11467-2.10351 0.43164l0.28711-0.18945c-2.4131 0.57997-6.05615 0.27055-10.19336 0.3457-4.13722 0.0752-9.25919 0.83471-13.13086 4.82422a4.3504349 4.3504349 0 0 0 -1.18555 2.41797c-1.50117 10.58241 8.80179 18.99555 18.77734 16.66602 3.24216 0.11779 7.2968 0.8552 11.66993 1.02929 4.45654 0.17742 9.51669-0.31778 13.87109-3.51367a4.3504349 4.3504349 0 0 0 1.53711 -4.92969c-3.06367-8.8596-11.42862-13.27996-17.35742-16.54492a4.3504349 4.3504349 0 0 0 -2.08399 -0.53906zm-0.98242 8.82031c3.95155 2.23527 7.81924 4.74603 10.21289 7.68164-1.4165 0.30594-3.00945 0.40538-4.85156 0.33203-3.56914-0.14208-7.70122-0.92638-11.98438-1.05078a4.3504349 4.3504349 0 0 0 -1.48632 0.21485c-3.54271 1.16462-7.77537-1.77526-8.43946-5.38867 1.43301-0.84203 3.08435-1.27672 5.5918-1.32227 3.06039-0.0556 6.87025 0.28512 10.95703-0.4668zm-123.32227 24.1543c-0.25898 0.005-0.52559 0.0229-0.80078 0.0547a4.3504349 4.3504349 0 0 0 -0.54297 0.0976c-2.67999 0.6609-6.9457 0.33635-11.59961 0.54297-4.6539 0.20663-10.33132 1.33091-14.12109 6.14453a4.3504349 4.3504349 0 0 0 -0.82617 1.74219c-1.3171 5.88607 1.07005 11.59378 4.98828 15.4375 3.61823 3.54944 8.97303 5.60433 14.44922 4.45899 3.82909 0.12746 8.55583 0.98623 13.58984 1.07226 5.06295 0.0865 10.7422-0.74811 15.49414-4.61523a4.3504349 4.3504349 0 0 0 1.56446 -3.95508c-0.72649-5.3765-3.9477-9.37853-7.31446-12.33984-3.36675-2.96133-7.04247-5.17558-9.68554-7.17383a4.3504349 4.3504349 0 0 0 -1.00977 -0.56836c-0.95975-0.38325-2.37262-0.93644-4.18555-0.89844zm212.04688 8.49219c-0.31306-0.004-0.6267 0.008-0.94141 0.041-0.62941 0.0665-1.26194 0.21531-1.90039 0.47266-1.27689 0.51469-2.6848 1.61543-3.28515 3.36328-0.60036 1.74785-0.0924 3.7359 0.78125 4.95117 0.87104 1.21168 1.97377 1.90782 3.13672 2.40039 3.70488 1.57652 7.25235 1.36762 10.12109 1.22071 2.86874-0.14692 5.12059-0.21973 6.8125 0.32422a4.3504349 4.3504349 0 0 0 0.26953 0.0781c1.32736 0.33465 2.12137 0.70375 4.04297 0.30859 0.9608-0.19757 2.83547-1.07453 3.52734-2.98828 0.69188-1.91375 0.0251-3.26578-0.35937-3.95898-0.76887-1.3864-1.39703-1.76637-2.07032-2.3086-0.59993-0.48316-1.23644-0.89985-1.88476-1.29492-3.30598-2.33305-7.00128-2.61889-9.93164-2.5625-2.95864 0.0569-5.43184 0.31855-7.16992 0.041a4.3504349 4.3504349 0 0 0 -0.21094 -0.0293c-0.31197-0.0342-0.62444-0.0544-0.9375-0.0586zm-211.30859 0.10547-0.34375 0.0625-0.0352-0.0215c0.13018-0.0297 0.24843-0.009 0.37891-0.041zm-0.46289 0.0508c0.0121 0.009 0.0231 0.0163 0.0351 0.0254l-0.11523 0.0215c-0.0762 0.009 0.2373 0.0929 0.28711 0.10547 3.01915 2.23265 6.23664 4.24825 8.65234 6.37305 1.68956 1.4861 2.74178 2.96099 3.49023 4.5039-2.09344 0.9148-4.47873 1.22273-7.33984 1.17383-4.06831-0.0695-8.74545-0.92463-13.54687-1.07422a4.3504349 4.3504349 0 0 0 -1.4336 0.19532c-2.42987 0.75959-5.03628-0.12655-7.11328-2.16407-1.79702-1.76285-2.7565-4.15341-2.6543-6.32031 1.59802-1.48065 3.66525-1.95767 6.90625-2.10156 3.63928-0.16158 8.14067 0.3118 12.83204-0.73828zm211.54882 8.52148c0.094 0.015 0.16843 0.00009 0.26172 0.0137 0.009 0-0.0678 0.0138-0.0508 0.0156l-0.21094-0.0293zm-311.77734 24.32227c-0.31306-0.004-0.6267 0.008-0.94141 0.041-0.62941 0.0665-1.26194 0.21531-1.90039 0.47266-1.27689 0.51469-2.6848 1.61543-3.28515 3.36328-0.60036 1.74785-0.0924 3.7359 0.78125 4.95117 0.87104 1.21168 1.97376 1.90782 3.13672 2.40039 3.70488 1.57652 7.25235 1.36762 10.12109 1.22071 2.86874-0.14692 5.12059-0.21973 6.8125 0.32422a4.3504349 4.3504349 0 0 0 0.26953 0.0781c1.32736 0.33465 2.12137 0.70375 4.04297 0.30859 0.9608-0.19757 2.83547-1.07453 3.52734-2.98828 0.69188-1.91375 0.0251-3.26578-0.35937-3.95898-0.76887-1.3864-1.39702-1.76637-2.07032-2.3086-0.59994-0.48316-1.23644-0.89985-1.88476-1.29492-3.30598-2.33305-7.00128-2.61889-9.93164-2.5625-2.95864 0.0569-5.43184 0.31855-7.16992 0.041a4.3504349 4.3504349 0 0 0 -0.21094 -0.0293c-0.31197-0.0342-0.62444-0.0544-0.9375-0.0586zm-0.22266 8.67773c0.094 0.015 0.16843 0.00009 0.26172 0.0137 0.009 0-0.0678 0.0138-0.0508 0.0156l-0.21094-0.0293zm337.58789 3.83008c-0.44632-0.011-0.90319 0.001-1.36914 0.041a4.3504349 4.3504349 0 0 0 -0.35351 0.0449c-3.64345 0.61798-9.03987 0.24451-14.58203 0.92187s-11.88384 2.98303-15.31836 9.24414a4.3504349 4.3504349 0 0 0 -0.36719 0.89258c-4.08615 14.24437 9.78601 28.23561 23.9668 25.39844 4.44181 0.3557 10.16688 1.30654 16.01757 0.94726 5.92264-0.36369 12.44989-2.41778 16.56641-8.30078a4.3504349 4.3504349 0 0 0 0.77539 -2.19726c0.47628-6.97721-3.09582-12.63825-7.34961-16.65039-4.25378-4.01215-9.3228-6.87429-13.20117-9.26367a4.3504349 4.3504349 0 0 0 -1.06836 -0.47461c-1.13138-0.32823-2.37784-0.57039-3.7168-0.60352zm-440.41211 5c-0.258988 0.005-0.525593 0.0229-0.800781 0.0547a4.3504349 4.3504349 0 0 0 -0.542969 0.0976c-2.679998 0.6609-6.945706 0.33635-11.599609 0.54297-4.653903 0.20663-10.33133 1.33091-14.121094 6.14453a4.3504349 4.3504349 0 0 0 -0.826172 1.74219c-1.317098 5.88607 1.070056 11.59378 4.988282 15.4375 3.618233 3.54944 8.973026 5.60433 14.449218 4.45899 3.829093 0.12746 8.555828 0.98623 13.589844 1.07226 5.062947 0.0865 10.742205-0.74811 15.494137-4.61523a4.3504349 4.3504349 0 0 0 1.56446 -3.95508c-0.72649-5.3765-3.947703-9.37853-7.314456-12.33984-3.366754-2.96133-7.042478-5.17558-9.685547-7.17383a4.3504349 4.3504349 0 0 0 -1.009766 -0.56836c-0.95975-0.38325-2.372627-0.93644-4.185547-0.89844zm439.8125 3.71094c0.38945-0.0283 0.93803 0.0724 1.4961 0.19726 3.87899 2.38041 8.09967 4.91193 11.12109 7.76172 2.82308 2.66271 4.39594 5.24114 4.5625 8.46094-2.20774 2.47268-5.09795 3.42885-9.11914 3.67578-4.53309 0.27837-9.95089-0.5673-14.99609-0.95703a4.3504349 4.3504349 0 0 0 -1.48828 0.14258c-7.38471 2.03036-16.32726-6.55992-14.65235-13.99024 1.81622-2.93572 4.33809-3.85758 8.42774-4.35742 4.22414-0.51627 9.46625-0.10882 14.64843-0.93359zm-123.20703 0.7539a4.3504349 4.3504349 0 0 0 -1.15625 0.11329c-1.39652 0.32934-4.1289 0.0665-7.34961-0.0645-3.2207-0.1309-7.50454 0.0422-10.86914 3.18164a4.3504349 4.3504349 0 0 0 -1.29883 4.03125c0.89468 4.48217 4.53562 7.47602 8.02735 8.57031 3.11317 0.97568 6.21021 0.86047 9.0332 0.30665 1.64988 0.0288 4.43727 0.53685 7.38672 0.85546 2.96656 0.32047 6.32442 0.69666 9.70117-1.3164a4.3504349 4.3504349 0 0 0 1.08789 -6.55469c-3.18735-3.74952-7.74423-8.20639-14.1289-9.08398a4.3504349 4.3504349 0 0 0 -0.4336 -0.0391zm-315.86718 4.13282-0.34375 0.0625-0.03516-0.0215c0.130178-0.0297 0.248434-0.009 0.378907-0.041zm-0.462891 0.0508c0.01215 0.009 0.023 0.0163 0.03516 0.0254l-0.115234 0.0215c-0.07624 0.009 0.237307 0.0929 0.287109 0.10547 3.019155 2.23265 6.236647 4.24825 8.652344 6.37305 1.689565 1.4861 2.741777 2.96099 3.490234 4.5039-2.093449 0.9148-4.47873 1.22273-7.339843 1.17383-4.068309-0.0695-8.745451-0.92463-13.546875-1.07422a4.3504349 4.3504349 0 0 0 -1.433594 0.19532c-2.42987 0.75959-5.036277-0.12655-7.113281-2.16407-1.797024-1.76285-2.756496-4.15341-2.654297-6.32031 1.598017-1.48065 3.665249-1.95767 6.90625-2.10156 3.63928-0.16158 8.140672 0.3118 12.832031-0.73828z"
                fill="#fff"/>
        </symbol>
        <symbol id="scrub" viewBox="0 0 576.44501 577.45154">
            <title>scrub</title>
            <path d="m64.571 0.06355556c-41.335 0-64.571 21.371-64.571 65.036v450.123c0 40.844 20.894 62.229 62.192 62.229h452.024c41.307 0 62.229-20.316 62.229-62.229v-450.123c0-42.601-20.922-65.036-63.522-65.036-0.003 0-448.494-0.143-448.352 0z"/>
            <path
                d="m410.18662 135.06509a5.8277736 5.8277736 0 0 0 -5.76367 5.88672l-0.32812 83.39844a5.8277736 5.8277736 0 1 0 11.65429 0.0449l0.32813-83.39844a5.8277736 5.8277736 0 0 0 -5.89063 -5.93164zm-45.2539 27.14844a5.8277736 5.8277736 0 0 0 -5.38086 8.08398l22.74414 56.36914a5.8277736 5.8277736 0 1 0 10.80859 -4.36132l-22.74609-56.36719a5.8277736 5.8277736 0 0 0 -5.42578 -3.72461zm94.63867 2.31445a5.8277736 5.8277736 0 0 0 -5.49805 3.3418l-26.37109 54.06055a5.8277736 5.8277736 0 1 0 10.47461 5.10937l26.37109-54.06055a5.8277736 5.8277736 0 0 0 -4.97656 -8.45117zm32.58399 20.99805a5.8277736 5.8277736 0 0 0 -3.98633 1.80469l-32.30469 32.96289a5.8277736 5.8277736 0 1 0 8.32422 8.1582l32.30273-32.96484a5.8277736 5.8277736 0 0 0 -4.33593 -9.96094zm-163.57813 0.98633a5.8277736 5.8277736 0 0 0 -4.05859 10.00586l31.97461 31.97461a5.8277736 5.8277736 0 1 0 8.24023 -8.24024l-31.97461-31.97461a5.8277736 5.8277736 0 0 0 -4.18164 -1.76562zm-118.39063 44.55273a5.8277736 5.8277736 0 0 0 -5.76367 5.88672l-0.32812 83.39844a5.8277736 5.8277736 0 1 0 11.65429 0.0449l0.32813-83.39844a5.8277736 5.8277736 0 0 0 -5.89063 -5.93164zm-45.2539 27.14844a5.8277736 5.8277736 0 0 0 -5.38086 8.08398l22.74414 56.36914a5.8277736 5.8277736 0 1 0 10.80859 -4.36132l-22.74609-56.36719a5.8277736 5.8277736 0 0 0 -5.42578 -3.72461zm94.63867 2.31445a5.8277736 5.8277736 0 0 0 -5.49805 3.3418l-26.37109 54.06055a5.8277736 5.8277736 0 1 0 10.47461 5.10937l26.37109-54.06055a5.8277736 5.8277736 0 0 0 -4.97656 -8.45117zm32.58399 20.99805a5.8277736 5.8277736 0 0 0 -3.98633 1.80469l-32.30469 32.96289a5.8277736 5.8277736 0 1 0 8.32422 8.1582l32.30273-32.96484a5.8277736 5.8277736 0 0 0 -4.33593 -9.96094zm-163.57813 0.98633a5.8277736 5.8277736 0 0 0 -4.05859 10.00586l31.97461 31.97461a5.8277736 5.8277736 0 1 0 8.24023 -8.24024l-31.97461-31.97461a5.8277736 5.8277736 0 0 0 -4.18164 -1.76562zm216.13867 104.52929a6.0006 6.0006 0 1 0 0 12h169.65235a6.0006 6.0006 0 1 0 0 -12h-169.65235zm-254.57226 60a6.0006 6.0006 0 1 0 0 12h376.79687a6.0006 6.0006 0 1 0 0 -12h-376.79687z"
                fill="#fff"/>
        </symbol>
        <symbol id="swamp" viewBox="0 0 576.44501 577.45154">
            <title>swamp</title>
            <path d="m64.571 0.06355556c-41.335 0-64.571 21.371-64.571 65.036v450.123c0 40.844 20.894 62.229 62.192 62.229h452.024c41.307 0 62.229-20.316 62.229-62.229v-450.123c0-42.601-20.922-65.036-63.522-65.036-0.003 0-448.494-0.143-448.352 0z"/>
            <path
                fill="#fff"
                d="m179.90538 75.34829c-3.02662-0.08513-0.51741 25.089 0.16601 39.77149 1.00037 21.39177-0.39919 30.07654-0.0371 77.88086h-0.004c-3.65378 48.31213-2.14468 66.90234 5.43164 66.90234 21.83952 0 8.72958-177.24695-5.24805-184.4668-0.1094-0.05651-0.21096-0.08514-0.30859-0.08789zm-84.310552 35.95508c-0.88077 0.68506 13.662652 17.32454 21.156252 38.38086 10.12377 28.44677 18.25195 49.74978 18.25195 84.10938 0 14.36034 4.00354 26.10937 8.89649 26.10937 25.87379 0-5.35157-113.67255-38.8379-141.38476-6.41499-5.30885-9.122143-7.48291-9.466792-7.21485zm175.13867 0c-0.34465-0.26806-3.04985 1.906-9.46484 7.21485-33.48633 27.71221-64.71169 141.38476-38.83789 141.38476 4.89295 0 8.89453-11.74903 8.89453-26.10937 0-34.3596 8.12818-55.66261 18.25195-84.10938 7.4936-21.05632 22.03702-37.6958 21.15625-38.38086zm-192.11719 71.51367c-2.18323-0.21512 7.750324 6.48441 13.244141 21.73438 5.743427 15.9429 7.556637 30.40906 7.556637 39.25976h0.002c0 8.85072 4.00159 16.0918 8.89453 16.0918 11.32654 0 13.16927-8.91698 1.3457-42.83398-5.23483-15.01671-17.2095-29.1078-24.20703-31.79297-4.033609-1.54784-6.108194-2.38728-6.835938-2.45899zm209.09571 0c-0.72775 0.0717-2.80038 0.91115-6.83399 2.45899-6.99753 2.68517-18.9722 16.77626-24.20703 31.79297-11.82358 33.917-9.9828 42.83398 1.34375 42.83398 4.89294 0 8.89648-7.24108 8.89648-16.0918 0-8.8507 1.81321-23.31686 7.55665-39.25976 5.49381-15.24997 15.42737-21.9495 13.24414-21.73438zm-47.1543 99.4668c-6.16712-0.0202-12.33395-0.01-18.49805 0.004-28.7682 0.42228-57.64821 0.5111-86.31445 2.60742-2.70507 0.43595-4.05128 4.4504-1.08984 5.58789 14.32726 3.21782 29.29205 2.53333 43.93554 3.29297 40.22877 0.85238 80.5559 1.2527 120.71094-1.59961 2.83845-0.56816 8.41495-0.6304 7.80664-4.71094-1.96973-3.87654-7.56793-2.58301-11.0957-3.34765-18.44898-1.42874-36.95374-1.77337-55.45508-1.83399zm51.4707 33.24219c-5.14442-0.0376-10.2932 0.0721-15.4043 0.12695-11.73052 0.48378-23.69822 0.3916-35.19531 2.76367-2.88537 1.6697-1.19072 6.25334 2.00391 6.17774 17.49808 4.03041 35.74752 2.75762 53.61133 2.74609 7.66155-0.34655 15.65865-0.50284 22.85351-3.19922 2.85708-1.90147 0.9129-6.46745-2.375-6.25-8.35849-1.8294-16.92011-2.30251-25.49414-2.36523z"/>
        </symbol>
    </defs>
</svg>
