<svg xmlns="http://www.w3.org/2000/svg" xmlns:rdf="http://www.w3.org/1999/02/22-rdf-syntax-ns#" xmlns:dc="http://purl.org/dc/elements/1.1/" xmlns:cc="http://creativecommons.org/ns#" version="1.1" style="fill:black;stroke:none">
    <title>SJJB Map Icons [Food Set]</title>
    <desc>These map icons are an attempt to create a simple consistent set of vector icons suitable for cartographic use.</desc>
    <metadata>
        <rdf:RDF>
            <cc:Work rdf:about="">
                <dc:format>image/svg+xml</dc:format>
                <dc:type rdf:resource="http://purl.org/dc/dcmitype/StillImage"/>
                <dc:title>SJJB Map Icons [Food Set]</dc:title>
                <dc:date>2017-01-07</dc:date>
                <dc:creator>
                    <cc:Agent>
                        <dc:title>SJJB Management</dc:title>
                    </cc:Agent>
                </dc:creator>
                <dc:rights>
                    <cc:Agent>
                        <dc:title>Map icons CC-0 from SJJB Management</dc:title>
                    </cc:Agent>
                </dc:rights>
                <dc:language>English</dc:language>

                <dc:source>http://www.sjjb.co.uk/mapicons/introduction</dc:source>
                <dc:description>These map icons are an attempt to create a simple consistent set of vector icons suitable for cartographic use.</dc:description>
            </cc:Work>
        </rdf:RDF>
    </metadata>

    <defs>
        <symbol id="bar" viewBox="0 0 362.14002 410.67401">
            <title>bar</title>
            <path
                d="m361.946 11.5h-0.251c0.287-0.248 0.445-0.498 0.445-0.75 0-5.937-81.067-10.75-181.07-10.75-100.002 0-181.07 4.813-181.07 10.75 0 0.252 0.158 0.502 0.446 0.75h-0.446l160.474 148.535v168.073l-103.962 74.32h0.255c-0.5 0.27-0.765 0.544-0.765 0.821 0 4.102 55.996 7.425 125.07 7.425 69.075 0 125.07-3.323 125.07-7.425 0-0.277-0.266-0.552-0.765-0.821h0.06l-103.962-74.32v-168.072l160.471-148.536zm-175.71 119.639c-2.895 2.679-7.631 2.679-10.526 0l-77.535-71.767996c-2.895-2.679-2.036-4.872 1.909-4.872h161.779c3.944 0 4.804 2.192 1.909 4.872l-77.536 71.767996z"/>
        </symbol>
        <symbol id="biergarten" viewBox="0 0 429.39112 500.92648">
            <title>biergarten</title>
            <path opacity=".1" d="m35.540582 40.920279 119.71194-21.335331 132.2871 13.796881 8.04386 363.39513 18.58841 29.06501s-60.31626 57.03706-152.88947 58.17487c-92.573208 1.13781-145.80436-56.79025-145.80436-56.79025l23.48151-35.95131-3.41899-350.355z"/>
            <path
                d="m172.29531 0.0000087843644c-5.90238 0.00099999564-11.77742 0.072399996-17.625 0.201172-41.02545 0.90342402-82.826248 3.699698-124.53516 17.960937a17.50175 17.50175 0 0 0 -11.835935 16.783203l4.361327 342.05274a15.0015 15.0015 0 0 0 -2.085936 4.92383c-13.262522 12.02137-20.726386 27.62715-20.572266 43.91797 0.1334 14.1006 7.5901 26.43049 17.50586 35.59375 9.915762 9.16325 22.636192 16.18564 37.544922 21.96289 29.81747 11.5545 68.739658 17.91726 111.60547 17.51172 42.86587-0.40554 81.64244-7.50297 111.21875-19.62109 14.78816-6.05905 27.36675-13.32297 37.09961-22.67383 9.73286-9.35081 16.94584-21.81846 16.8125-35.91211-0.15755-16.6604-7.82106-33.08142-22.84961-45.03321a15.0015 15.0015 0 0 0 -0.13672 -0.21289l1.80078 1.28907 0.22461-36.94336 61.96484-6.91993a12.435991 12.435991 0 0 0 1.10938 -0.17578c7.49102-1.53069 15.10283-4.17501 21.42187-9.9082 6.16671-5.59498 10.10128-14.19671 10.69922-23.58594l23.2793-194.08593a12.435991 12.435991 0 0 0 0.0781 -1.97266c-0.37556-9.492743-3.32875-18.619213-9.4414-25.521493-6.11266-6.90225-14.75239-10.99194-24.26367-12.80468a12.435991 12.435991 0 0 0 -2.47266 -0.21875 12.435991 12.435991 0 0 0 -0.38281 0.01l-80.34375 3.41407 0.22851-37.65821a17.50175 17.50175 0 0 0 -12.8828 -16.986568c-43.57755-11.917492-86.21069-15.393797-127.52734-15.386718zm-1.61133 35.003906c35.56884-0.07029 71.13805 2.570586 106.9375 10.935547l-2.05469 339.16406c-24.13328 20.08777-70.12003 30.38763-108.68945 31.63478-38.8456 1.2561-82.913488-6.77576-109.08008-29.30469l-4.335938-339.85353c32.56968-9.238529 66.449308-11.606277 101.97852-12.388668 5.08193-0.111909 10.16288-0.177458 15.24414-0.1875zm214.37891 67.951175c4.27204 1.00301 6.54823 2.36357 7.7207 3.6875 1.21772 1.37501 2.18017 3.47429 2.46094 7.74414l-20.9004 176.97657a15.0015 15.0015 0 0 0 -0.0879 1.07226c-0.18191 3.97066-0.75353 4.29359-1.77539 5.22071-0.99689 0.90447-3.68284 2.29754-8.20507 3.26367l-53.23829 6.51953 1.21875-201.1543 72.80665-3.33008zm-93.23047 308.03125c3.01653 4.84807 4.94003 10.2473 4.95703 12.04493 0.0211 2.23441-0.91722 5.4023-6.06055 10.34375-5.14334 4.94146-14.1669 10.62748-26.12109 15.52539-23.90837 9.79583-59.18304 16.63989-98.2793 17.00976-39.09619 0.36988-74.517788-5.80519-98.628908-15.14844-12.05556-4.67162-21.19474-10.18831-26.4375-15.0332s-6.24064-7.99324-6.26171-10.2207c-0.0185-1.95574 1.99921-7.54617 5.73046-12.94336 34.69057 28.80273 85.070258 35.51775 127.11524 34.1582 40.81331-1.31973 90.75039-8.87925 123.98633-35.73633z"/>
            <path
                opacity=".75"
                d="m164.74216 22.191908c-85.441598 0-132.63699 21.786771-132.63699 26.859331 0 0.21533 0.10677 0.41537 0.35283 0.62725h-0.35283l-5.55379 108.31283h18.58344l-2.7062-76.485163c81.23408 56.309484 134.6429-7.658629 241.05961-2.156179l0.067 78.641343h19.18158l-7.72041-114.93031h-0.23522c0.24521-0.21188 0.39203-0.41193 0.39203-0.62725 0-5.07256-44.98869-20.241851-130.43116-20.241851h0.00006z"/>
        </symbol>
        <symbol id="cafe" viewBox="0 0 469.78888 356.46317">
            <title>cafe</title>
            <path
                d="M 13.689395,8.297215e-5 A 9.3121141,9.3121141 0 0 0 4.4159576,8.109463 c 0,0 -11.237727,85.49269 2.140625,171.685547 6.6891764,43.09642 19.4448234,86.62668 43.8203104,120.12109 24.28676,33.37247 61.014707,56.27791 111.681637,56.25195 4.87925,0.26836 9.52427,0.34032 13.95508,0.26953 4.43081,0.0708 9.07583,-0.001 13.95508,-0.26953 50.66694,0.026 87.39488,-22.87948 111.68164,-56.25195 2.02319,-2.78007 3.95991,-5.63452 5.82617,-8.54688 60.05725,-5.13614 101.15046,-29.27287 126.03906,-58.56445 27.63687,-32.52602 35.75658,-68.7553 36.24024,-92.5332 0.45048,-22.15337 -3.67631,-47.526867 -13.97852,-70.144527 -5.1511,-11.30884 -11.91255,-22.04689 -21.70312,-30.72266 -9.79058,-8.67577 -23.40475,-14.97266 -38.21485,-14.97266 -16.74585,0 -32.17841,4.65665 -45.73632,10.53711 -1.19628,-16.65974 -2.51172,-26.85937 -2.51172,-26.85937 A 9.3121141,9.3121141 0 0 0 338.33978,8.297215e-5 L 176.01361,0.66805297 13.689393,8.297215e-5 Z M 395.85931,70.058683 c 2.96184,0 4.71441,0.6242 7.95313,3.49414 3.23872,2.86994 7.1691,8.30224 10.44141,15.48633 6.54461,14.368167 10.1904,35.274467 9.88476,50.304677 -0.27268,13.40571 -6.14392,41.2618 -25.39453,63.91797 -13.92398,16.38723 -34.62049,31.43029 -68.07227,38.7793 6.81046,-20.03937 11.53114,-41.19327 14.79883,-62.24609 5.17956,-33.37041 6.66227,-66.61178 6.54297,-94.851567 0.38935,-0.21402 0.74331,-0.41823 1.14258,-0.63476 14.09465,-7.64392 32.20957,-14.25 42.70312,-14.25 z"/>
        </symbol>
        <symbol id="drinkingtap" viewBox="0 0 369.37891 507.35352">
            <title>drinkingtap</title>
            <path
                opacity=".98512196"
                d="m219.50976 0c-10.04705 0-18.34961 8.302551-18.34961 18.34961 0 10.047057 8.30256 18.351562 18.34961 18.351562 4.4722 0 8.57012-1.223795 13.20899-2.826172v14.080078c-6.42375 4.123914-11.23103 10.585094-14.52735 17.177735-2.79448 5.588973-4.88021 11.795043-6.25781 18.466803l-20.49219-0.11524-13.85547-0.0781c-42.52082-0.66439-70.85708 23.125274-81.59961 45.953124-10.74252 22.82786-8.83398 44.72071-8.83398 44.72071l49.88867-3.32618s-0.26163-10.6552 4.18555-20.10546 8.66031-17.66864 35.57812-17.24805l0.125 0.002 14.22852 0.0801 23.19336 0.13086c1.08352 3.28333 2.3596 6.42037 3.83984 9.38086 5.48804 10.97608 15.12897 21.63867 29.52735 21.63867s24.0393-10.66259 29.52734-21.63867c1.42374-2.84748 2.65985-5.857 3.7168-9.00391l88.13281 0.49805 0.2832-50.000004-85.79492-0.48438c-1.37662-6.82481-3.48731-13.16993-6.33789-18.871093-3.29632-6.592641-8.1036-13.053821-14.52734-17.177735v-14.208984c4.78762 1.663233 8.98966 2.955078 13.57617 2.955078 10.04705 0 18.34961-8.304505 18.34961-18.351562 0-10.047061-8.30256-18.34961-18.34961-18.34961a7.50075 7.50075 0 0 0 -0.28906 0.0059c-5.52337 0.212085-10.47938 2.21764-16.9004 4.466796-0.86662 0.303562-1.7623 0.637569-2.64453 0.953125a15.0015 15.0015 0 0 0 -8.96679 -2.830078 15.0015 15.0015 0 0 0 -8.41211 2.736328c-0.794-0.283515-1.6019-0.585834-2.38281-0.859375-6.42102-2.249156-11.37898-4.254709-16.90235-4.466796a7.50075 7.50075 0 0 0 -0.28711 -0.0059zm-105.70898 224.10743c-62.85061 0-113.80078 3.02449-113.80078 6.75586 0 0.15838 0.10025 0.31679 0.28125 0.47266h-0.28125l35.51757 270.83398h0.16016c-0.31425 0.16969-0.48047 0.34349-0.48047 0.51758 0 2.57808 35.1929 4.66601 78.60547 4.66601 43.41319 0 78.60547-2.08793 78.60547-4.66601 0-0.17409-0.16686-0.34852-0.48047-0.51758l35.55273-270.83398h-0.1582c0.18038-0.15587 0.28125-0.31428 0.28125-0.47266 0-3.73137-50.95149-6.75586-113.80273-6.75586zm87.36523 22.04883-32.04297 236.21289c-1.81948 1.68373-109.73519 0.89467-111.55468-0.78906l-33.73829-233.84571c57.5856 0.1919 99.05611 3.05411 177.33594-1.57812z"/>
            <path opacity=".1" d="m14.46874 243.31331 194.88741 1.57804-31.56071 249.54928-133.34402 1.57804-29.98268-252.70536z"/>
        </symbol>
        <symbol id="fastfood" viewBox="0 0 469.95761 412.9675">
            <title>fastfood</title>
            <path
                d="m451.74373 0-31.13929 109.85696h-158.60061l38.18462 303.11055h129.80977l38.77621-303.11055h-29.36451l30.54769-104.56847-18.21388-5.288488zm-208.54537 286.67146c3.13097-27.41631-17.62256-42.29573-62.26064-44.63836h-107.50852c-44.638431 2.34263-65.589161 17.22205-62.852234 44.63836h232.6214zm-232.62139 82.2493c-2.736927 27.40448 18.213803 42.08672 62.85223 44.04675h107.50852c44.63808-1.96003 65.39161-16.64227 62.26064-44.04675h-232.62139zm222.63602-61.09538h-213.24226c-5.473779 0.00009-10.170663 1.95712-14.090651 5.8711-3.920107 3.91415-5.880123 8.41683-5.880079 13.50804-0.000043999259 5.88013 1.959972 10.6786 5.880078 14.39541 3.919988 3.71693 8.616872 5.57536 14.090651 5.57532h213.24226c5.4854 0.00004 10.18526-1.85839 14.09963-5.57532 3.91377-3.71681 5.87081-8.51528 5.8711-14.39541-0.00029-5.09121-1.95733-9.59389-5.8711-13.50804-3.91437-3.91398-8.61423-5.87101-14.09963-5.8711z"/>
        </symbol>
        <symbol id="fastfood2" viewBox="0 0 536.62494 451.6875">
            <title>fastfood2</title>
            <path
                opacity=".25"
                d="m268.6875 0c-51.81063 0.0076-105.40993 13.893384-149.96875 37.5-44.206949 23.438324-79.648586 56.464174-95.0625 95.5-8.024414 7.3436-13.896875 15.25066-17.125 23.71875-4.322015 10.57937-6.52365 23.49588-6.53125 36.875 0 12.43823 1.930421 25.27384 6 37.03125-1.308079 7.95557-1.875 15.97102-1.875 23.78125 0 12.94309 1.577036 25.34478 4.09375 36.03125 2.532012 10.70941 5.927815 19.68844 9.875 25.96875l0.28125 0.46875c1.078592 1.8818 2.253769 3.73425 3.53125 5.5625 1.009745 14.6719 3.360783 30.70448 8.5625 41.40625l1.03125 2.15625h0.03125c12.552968 25.02179 42.723975 45.83722 83.6875 60.9375 42.23335 15.49805 96.1747 24.75 155 24.75s112.7979-9.25195 155.03125-24.75c40.96352-15.10028 71.10329-35.91571 83.65625-60.9375h0.0312l1.0625-2.15625c3.09809-6.32621 5.08483-14.43442 6.5-23.09375 1.34633-8.2998 2.10027-17.05143 2.40625-24.96875 3.77889-6.24971 7.02854-14.97027 9.46875-25.3125 2.50907-10.69412 4.09375-23.08816 4.09375-36.03125 0-7.79493-0.58222-15.79378-1.875-23.71875 4.08488-11.78036 6.02325-24.65618 6.03125-37.125-0.008-13.48621-2.24179-26.49208-6.625-37.125-2.8686-7.4048-7.80401-14.34226-14.375-20.875-13.9069-40.588696-49.28178-74.277986-94.06245-97.96875-45.13254-23.851403-99.97047-37.6174-152.875-37.625z"/>
            <path
                d="m268.6875 0c-51.81063 0.0076-105.40993 13.893384-149.96875 37.5-44.206949 23.438324-79.648586 56.464174-95.0625 95.5-8.024414 7.3436-13.896875 15.25066-17.125 23.71875-4.322015 10.57937-6.52365 23.49588-6.53125 36.875 0 12.43823 1.930421 25.27384 6 37.03125-1.308079 7.95557-1.875 15.97102-1.875 23.78125 0 12.94309 1.577036 25.34478 4.09375 36.03125 2.532012 10.70941 5.927815 19.68844 9.875 25.96875l0.28125 0.46875c1.078592 1.8818 2.253769 3.73425 3.53125 5.5625 1.009745 14.6719 3.360783 30.70448 8.5625 41.40625l1.03125 2.15625h0.03125c12.552968 25.02179 42.723975 45.83722 83.6875 60.9375 42.23335 15.49805 96.1747 24.75 155 24.75s112.7979-9.25195 155.03125-24.75c40.96352-15.10028 71.10329-35.91571 83.65625-60.9375h0.0312l1.0625-2.15625c3.09809-6.32621 5.08483-14.43442 6.5-23.09375 1.34633-8.2998 2.10027-17.05143 2.40625-24.96875 3.77889-6.24971 7.02854-14.97027 9.46875-25.3125 2.50907-10.69412 4.09375-23.08816 4.09375-36.03125 0-7.79493-0.58222-15.79378-1.875-23.71875 4.08488-11.78036 6.02325-24.65618 6.03125-37.125-0.008-13.48621-2.24179-26.49208-6.625-37.125-2.8686-7.4048-7.80401-14.34226-14.375-20.875-13.9069-40.588696-49.28178-74.277986-94.06245-97.96875-45.13254-23.851403-99.97047-37.6174-152.875-37.625zm0 7.65625c58.90945-0.0153 120.67493 17.622516 167.40625 47.218754 23.35418 14.77901 42.96349 32.52563 56.65625 52.437496 13.69276 19.92717 21.5 41.96417 21.5 65.59375-0.008 9.01885-2.50466 17.04035-7.125 24.4375-4.24552 6.82344-10.39696 13.06636-18.03125 18.75-0.82615-0.54311-1.55958-0.70606-2.15625-0.84375-0.71141-0.13774-1.30698-0.15625-1.78125-0.15625-0.58137 0-0.95543 0.0472-1.0625 0.0625h-0.15625l-0.125 0.0312c-7.19825 1.30808-12.40082 3.42697-17.28125 5.5-4.90338 2.08069-9.48387 4.08742-16.0625 5.625-5.5842 1.32337-12.63489 2.50201-18.96875 5.53125-3.15927 1.52227-6.18414 3.56126-8.59375 6.4375-1.82061 2.15719-3.27655 4.77561-4.15625 7.8125-17.93062 4.64329-36.97028 8.2206-55.75 10.875-36.45027 5.16347-71.92384 6.9375-96.59375 6.9375-36.54206 0.0153-96.17308-6.70228-147.21875-20.96875-0.67317-1.21628-1.473-2.34036-2.40625-3.28125-4.00074-4.06958-9.42963-5.93052-14.5625-7.4375-5.14051-1.46107-10.2105-2.49548-13.125-3.75-4.02367-1.66762-9.39547-5.28848-15.125-8.5625-5.767786-3.24338-11.97051-6.32135-18.65625-6.37495-1.637006 0-3.292841 0.22088-4.9375 0.6875-0.313641-0.20654-0.655108-0.41847-0.96875-0.625-8.345695-5.66069-14.970143-11.7459-19.4375-18.15625-4.475011-6.42565-6.8049-13.08235-6.8125-20.25 0.0076-23.22415 7.791949-45.20109 21.5-65.28125 20.539138-30.101106 54.43457-55.758826 94.28125-73.78125 39.83904-18.045361 85.60425-28.476359 129.75-28.46875zm-213.375 213.5c4.107827-0.0535 9.482043 2.26927 14.875 5.375 5.431205 3.06748 10.82058 6.78097 15.96875 8.96875 2.76915 1.15509 5.89688 1.9162 9.125 2.75 4.82689 1.22393 9.82168 2.58956 13.1875 4.59375 1.68291 0.99445 2.94679 2.10387 3.75 3.3125 0.70376 1.07094 1.17416 2.22969 1.28125 3.84375h-0.0312c-4.5515 0.0459-10.19901-1.83449-15.875-2.5-5.65304-0.61962-11.69088-0.9375-17.71875-0.9375-2.39432 0-4.792529 0.0492-7.15625 0.15625-6.968771 0.29833-13.523239 2.2634-19.75 5.09375-3.319919 1.52992-5.973031 3.69779-8.375 5.28125-1.246882 0.84145-2.357605 1.48552-3.375 1.90625-0.428377-1.20863-0.883472-2.27915-1.28125-3.28125-0.764958-1.90475-1.348963-3.51941-1.59375-5.53125-0.023-0.22184-0.0313-0.43506-0.0313-0.6875-0.0153-1.32338 0.451185-3.22091 1.09375-5.15625 0.627266-1.95829 1.408375-3.90271 1.875-5.9375 1.10154-4.87279 2.028022-6.81335 3.34375-8.6875 1.262181-1.8053 3.328511-3.8116 6.28125-7.4375l0.75-0.46875c1.147438-0.44368 2.332872-0.65625 3.65625-0.65625zm428.3125 1.875c-0.0688 1.65231-0.19776 3.87033-0.3125 6.21875-0.19889 3.77124-0.3986 7.92682-0.40625 11.09375 0 0.68081 0.0396 1.32488 0.0625 1.90625 0.0918 2.26428 0.50847 5.07347 0.90625 8.15625 0.40543 3.05983 0.78125 6.30604 0.78125 8.9375 0.0383 2.28723-0.39616 4.10857-0.65625 4.4375-0.51252 0.8644-1.05845 1.32927-1.96875 1.75-0.895 0.39778-2.18249 0.63265-3.78125 0.625-3.60295 0.0229-8.50204-1.27819-13-2.96875-4.5209-1.68291-8.63954-3.68101-11.15625-4.84375-5.86723-2.70795-11.9134-6.32018-19.21875-7.78125-1.60641-0.32128-3.10712-0.4139-4.46875-0.40625-1.95829 0.008-3.63316 0.1888-4.75 0.25v-0.0312c0.48957-3.14398 1.57148-5.35925 3.09375-7.1875 2.27958-2.7309 5.80103-4.63968 10.03125-6.0625 4.21492-1.42282 9.00839-2.31106 13.4375-3.34375 7.27475-1.69821 12.46201-3.98881 17.28125-6.03125 4.42911-1.8818 8.54845-3.55601 14.125-4.71875zm-466.21875 22.84375c0.979147 1.55286 2.023458 3.06189 3.125 4.5 29.802781 43.74033 129.44219 75.84375 247.78125 75.84375 118.30846 0 217.92427-32.09513 247.75-75.8125h0.0312c1.0939-1.44577 2.1146-2.94713 3.09375-4.5-16.71435 47.95524-92.46992 86.35911-190.46875 97.71875 0.16064-0.49723 0.26725-1.01938 0.34375-1.5625l0.28125-2.09375-1.625-1.34375c-4.29907-3.49585-9.75239-4.2194-15-4.25-6.35681 0.008-12.79404 1.21584-17.0625 1.8125-9.01121 1.29279-18.77769 3.35175-27.78125 3.34375-1.61406 0-3.22838-0.0734-4.78125-0.21875-10.38049-0.9256-20.63207-3.80684-31.96875-5.375-2.09594-0.29069-4.18586-0.53125-6.31245-0.53125-3.42701-0.008-7.02708 0.64945-10.5 2.53125-1.33103 0.7267-2.93818 1.75637-4.4375 3.15625-0.74201 0.70376-1.47414 1.48196-2.09375 2.46875-0.34423 0.55842-0.65315 1.22674-0.875 1.96875-97.54749-11.52028-172.87745-49.854-189.5-97.65625zm493.5625 75.25c-0.29833 4.72744-0.75604 9.62526-1.40625 14.40625-1.17039 8.62874-3.00559 16.89173-5.46875 22.8125h-0.0625l-1 2.25c-10.18925 22.8493-39.20624 44.07892-80.4375 59.15625-41.17771 15.13087-94.3529 24.28125-152.375 24.28125s-111.18965-9.15038-152.375-24.28125c-41.231259-15.06969-70.248262-36.30695-80.4375-59.15625l-1-2.25h-0.0625c-2.463163-5.92077-4.306016-14.18376-5.46875-22.8125-0.40543-2.98333-0.739916-6.00136-1-9 35.99129 42.56229 129.16319 72.875 238.4375 72.875 113.85641 0 210.20672-32.90391 242.65625-78.28125zm-286.15625 19.9375c1.58346 0 3.35355 0.16976 5.28125 0.4375 10.66352 1.45342 20.99877 4.38951 32.3125 5.4375 1.81295 0.16064 3.6169 0.21875 5.4375 0.21875 10.09745-0.0153 20.21567-2.15872 28.875-3.375 4.51325-0.65021 10.58344-1.75765 15.96875-1.75 2.92214-0.0229 5.55001 0.31984 7.53125 1.03125-0.20654 0.19889-0.42741 0.41081-0.6875 0.625-2.07304 1.72116-5.86466 3.5142-9.78125 5.28125-3.92424 1.8206-8.00397 3.5912-11.125 6.40625-3.90129 3.61825-7.54191 8.36353-11.34375 12.59375-3.77124 4.23787-7.67764 7.84313-11.25 9.28125-1.46872 0.60432-2.93053 0.86735-4.4375 0.875-3.80949 0.0306-8.19768-1.85846-12.34375-4.75-4.15372-2.86859-8.01471-6.62897-10.90625-9.75-3.7636-4.05428-8.46805-8.4908-13.9375-12.09375-5.46945-3.58765-11.73972-6.35287-18.59375-6.78125l-0.75-0.0625c0.19124-0.19124 0.41911-0.40251 0.65625-0.59375 0.73436-0.58137 1.60678-1.10857 2.21875-1.4375 2.21838-1.17804 4.29709-1.57845 6.875-1.59375z"/>
        </symbol>
        <symbol id="fastfood_pizza" viewBox="0 0 453.13281 514.78827">
            <title>fastfood_pizza</title>
            <path opacity=".4" d="m453.1328 423.03035a388.43549 514.76617 0 0 1 -453.1328 -9.92985l231.78262-413.0784z"/>
            <path opacity=".4" d="m446.40807 408.52626a373.97637 497.14276 0 0 1 -436.26542 -9.58989l223.15477-398.93637z"/>
            <path
                opacity=".4"
                d="m186.63862 81.035-12.95898 23.51758-12.95899 23.51758a24.550266 26.851852 28.856326 0 0 25.10157 -1.49805 24.550266 26.851852 28.856326 0 0 12.95898 -23.51758 24.550266 26.851852 28.856326 0 0 -12.14258 -22.01953zm77.58008 64.73242a26.851852 24.550266 0 0 0 -26.85156 24.55078 26.851852 24.550266 0 0 0 26.85156 24.54883 26.851852 24.550266 0 0 0 26.85352 -24.54883 26.851852 24.550266 0 0 0 -26.85352 -24.55078zm90.375 87.78907a26.851852 24.550266 63.121072 0 0 -12.89453 21.58789 26.851852 24.550266 63.121072 0 0 12.14062 23.95117 26.851852 24.550266 63.121072 0 0 25.03321 2.36328l-12.14063-23.95117-12.13867-23.95117zm-177.06641 5.80859a26.851852 24.550266 0 0 0 -26.85351 24.55078 26.851852 24.550266 0 0 0 26.85351 24.55078 26.851852 24.550266 0 0 0 26.85157 -24.55078 26.851852 24.550266 0 0 0 -26.85157 -24.55078zm-120.47265 71.10156-11.56446 24.23438-13.568356 23.15039a24.550266 26.851852 25.510161 0 0 25.644536 -0.94727 24.550266 26.851852 25.510161 0 0 12.91601 -24.34961 24.550266 26.851852 25.510161 0 0 -13.42773 -22.08789zm214.83593 4.08399a26.851852 24.550266 0 0 0 -26.85156 24.55078 26.851852 24.550266 0 0 0 26.85156 24.54883 26.851852 24.550266 0 0 0 26.85352 -24.54883 26.851852 24.550266 0 0 0 -26.85352 -24.55078zm-116.61328 52.16992a26.851852 24.550266 0 0 0 -26.85156 24.54883 26.851852 24.550266 0 0 0 26.85156 24.55078 26.851852 24.550266 0 0 0 26.85157 -24.55078 26.851852 24.550266 0 0 0 -26.85157 -24.54883zm179.52344 35.29101a26.851852 24.550266 0 0 0 -26.85156 24.54883 26.851852 24.550266 0 0 0 26.85156 24.55078 26.851852 24.550266 0 0 0 26.85352 -24.55078 26.851852 24.550266 0 0 0 -26.85352 -24.54883z"/>
        </symbol>
        <symbol id="ice_cream" viewBox="0 0 438.79325 515.78388">
            <title>ice_cream</title>
            <path opacity=".1" d="m147.23819 136.99589-133.24502 364.7944 305.93439-230.4128z"/>
            <path
                opacity=".25"
                d="m235.1981 1.0439291c-3.27758-0.02684-6.58744 0.11255-9.91797 0.425781-53.28845 5.011695-92.76365 52.682251-87.75195 105.97071 5.01169 53.28843 52.68421 92.76169 105.97266 87.75 53.28843-5.0117 92.76169-52.68031 87.75-105.96875-4.69846-49.957925-46.88896-87.775204-96.05274-88.177738z"/>
            <path
                d="m235.22935 0.00291307c-3.31912-0.0255-6.67011 0.116198-10.04492 0.433594-53.99699 5.078332-93.76583 53.104586-88.6875 107.10156 0.57091 6.07038 1.68706 11.95977 3.29101 17.62696a13.995605 13.995605 0 0 0 -5.69531 7.02929l-133.24414 364.79493a13.995605 13.995605 0 0 0 21.564454 15.98047l305.9336-230.41406a13.995605 13.995605 0 0 0 5.16797 -7.86914c5.60255 0.46452 11.31744 0.44615 17.09961-0.0977 53.28844-5.0117 92.76169-52.68031 87.75-105.96875-4.69847-49.95792-46.88896-87.775189-96.05274-88.177729-3.27758-0.0268-6.58549 0.11255-9.91601 0.42578-0.40914 0.0385-0.81516 0.0874-1.22266 0.13086-8.29248-46.520735-48.85868-80.634327-95.94336-80.996101zm-0.0781 11.59375c41.57753 0.297735 77.22658 30.246021 84.58593 71.312508-45.97736 10.55956-78.63164 53.538169-75.28711 101.5625-0.64405 0.0749-1.29061 0.14601-1.93945 0.20703-3.62349 0.34078-7.21408 0.45141-10.75976 0.34961l-75.91797-59.07617a13.995605 13.995605 0 0 0 -4.41602 -2.29297c-1.66926-5.50233-2.81528-11.25567-3.375-17.20703-4.49149-47.75724 30.47129-89.977265 78.22852-94.468758 2.98482-0.280718 5.94716-0.407727 8.88086-0.386719zm-81.35547 148.23438 14.83398 11.54297c3.50617 3.15422 7.23396 6.05624 11.15625 8.68164l117.1211 91.14063-253.53516 190.94921 110.42383-302.31445zm92.15039 36.14258c0.008 0.0396 0.0139 0.0795 0.0215 0.11914l-0.13672-0.10742c0.0383-0.004 0.077-0.007 0.11524-0.0117z"/>
        </symbol>
        <symbol id="pizza" viewBox="0 0 538.57141 526.29633">
            <title>pizza</title>
            <path opacity=".5" d="m522.99698 174.95343a269.2857 263.14815 0 1 1 -183.90126 -165.95706l-69.81002 254.15177z"/>
            <path opacity=".5" d="m500.29732 184.06599a245.49281 247.0222 89.957073 1 1 -167.18432 -154.3989l-65.54576 236.69346z"/>
            <path
                opacity=".4"
                d="m223.00633 47.453234a20 20 0 0 0 -20.58399 19.992188 20 20 0 0 0 40 0 20 20 0 0 0 -19.41601 -19.992188zm87.84179 41.406252a24.550266 26.851852 16.084585 0 0 -18.15039 7.89063 24.550266 26.851852 16.084585 0 0 -7.43945 25.800784 24.550266 26.851852 16.084585 0 0 16.70899 18.79101l7.43945-25.80078 7.43945-25.800784a24.550266 26.851852 16.084585 0 0 -5.99805 -0.88086zm-180.06054 26.544924a20 20 0 0 0 -20.58399 19.99024 20 20 0 0 0 40 0 20 20 0 0 0 -19.41601 -19.99024zm82.50976 36.4004a20 20 0 0 0 -20.58398 19.99218 20 20 0 0 0 40 0 20 20 0 0 0 -19.41602 -19.99218zm193.7168 62.82421-25.32813 8.91602-25.33007 8.91601a24.550266 26.851852 70.607258 0 0 19.72461 15.59766 24.550266 26.851852 70.607258 0 0 25.32812 -8.91601 24.550266 26.851852 70.607258 0 0 5.60547 -24.51368zm-327.18945 9.97852a20 20 0 0 0 -20.583985 19.99219 20 20 0 0 0 39.999995 0 20 20 0 0 0 -19.41601 -19.99219zm100.66211 22.73633a20 20 0 0 0 -20.58399 19.99023 20 20 0 0 0 40 0 20 20 0 0 0 -19.41601 -19.99023zm275.49023 18.51953a20 20 0 0 0 -20.58398 19.99219 20 20 0 0 0 40 0 20 20 0 0 0 -19.41602 -19.99219zm-208.70312 41.25586a20 20 0 0 0 -20.58399 19.99023 20 20 0 0 0 40 0 20 20 0 0 0 -19.41601 -19.99023zm99.49804 0a20 20 0 0 0 -20.58398 19.99023 20 20 0 0 0 40 0 20 20 0 0 0 -19.41602 -19.99023zm-230.54492 21.83984a20 20 0 0 0 -20.583983 19.99219 20 20 0 0 0 40.000003 0 20 20 0 0 0 -19.41602 -19.99219zm296.06641 50.96289a20 20 0 0 0 -20.58399 19.99219 20 20 0 0 0 40 0 20 20 0 0 0 -19.41601 -19.99219zm-235.39649 33.97461a20 20 0 0 0 -20.58398 19.99219 20 20 0 0 0 40 0 20 20 0 0 0 -19.41602 -19.99219zm128.61914 4.85352a20 20 0 0 0 -20.58398 19.99219 20 20 0 0 0 40 0 20 20 0 0 0 -19.41602 -19.99219z"/>
        </symbol>
        <symbol id="pub" viewBox="0 0 362.14002 450.67401">
            <title>pub</title>
            <path
                d="m361.946 11.5h-0.251c0.287-0.248 0.445-0.498 0.445-0.75 0-5.937-81.067-10.75-181.07-10.75-100.002 0-181.07 4.813-181.07 10.75 0 0.252 0.158 0.502 0.446 0.75h-0.446l56.512 430.928h0.255c-0.5 0.27-0.765 0.544-0.765 0.821 0 4.102 55.996 7.425 125.07 7.425 69.075 0 125.07-3.323 125.07-7.425 0-0.277-0.266-0.552-0.765-0.821l56.569-430.928zm-92.85286 399.42255c-2.895 2.679-174.60069 1.42359-177.49569-1.25541l-53.68219-340.25285c95.07744 65.905366 157.60824-8.95098 282.15977-2.51082l-50.98189 344.01908z"/>
            <path opacity=".1" d="m23.02136 52.834074 310.08658 2.51082-50.21645 371.60173-212.1645 2.51083-47.70563-376.62338z"/>
        </symbol>
        <symbol id="restaurant" viewBox="0 0 400.72852 459.4336">
            <title>restaurant</title>
            <path
                d="m93.849605 0c-32.014 0-93.849605 81.133053-93.849605 155.24805 0 59.646 27.223235 110.17462 64.865235 127.64062l-7.79297 176.54492h73.552725l-7.79101-176.54492c37.643-17.466 64.86523-67.99462 64.86523-127.64062 0-74.114997-61.83461-155.24805-93.849605-155.24805zm203.69726 1.509765c-3.875 0-7.01562 3.140625-7.01562 7.015625l-5.13282 204.78906h-19.83398l3.25977-202.78906c0-3.875-3.14257-7.015625-7.01757-7.015625h-4.60547c-3.875 0-7.01758 3.140625-7.01758 7.015625l-10.17383 202.78906c0 59.646 13.71447 82.10822 51.35547 99.57422l-7.79102 146.54492h73.55469l-7.78906-146.54492c37.642-17.466 51.38867-39.92822 51.38867-99.57422l-9.7793-202.8125c0-3.875-3.14353-7.017578-7.01953-7.017578h-4.60547c-3.873 0-7.01757 3.141578-7.01757 7.017578l3.25976 202.8125h-20.25781l-5.13281-204.78906c0-3.875-3.14158-7.015625-7.01758-7.015625h-5.99414c-3.874 0-7.01758 3.140625-7.01758 7.015625l2.77539 204.78906h-25.13672l2.77539-204.78906c0-3.875-3.14258-7.015625-7.01758-7.015625h-5.99609z"/>
        </symbol>
        <symbol id="bar" viewBox="0 0 576.44501 577.45154">
            <title>bar</title>
            <path d="m64.571 0.06355556c-41.335 0-64.571 21.371-64.571 65.036v450.123c0 40.844 20.894 62.229 62.192 62.229h452.024c41.307 0 62.229-20.316 62.229-62.229v-450.123c0-42.601-20.922-65.036-63.522-65.036-0.003 0-448.494-0.143-448.352 0z"/>
            <path
                fill="#fff"
                d="m466.528 96.225556h-0.251c0.287-0.248 0.445-0.498 0.445-0.75 0-5.937-81.067-10.75-181.07-10.75-100.002 0-181.07 4.813-181.07 10.75 0 0.252 0.158 0.502 0.446 0.75h-0.446l160.474 148.535v168.073l-103.962 74.32h0.255c-0.5 0.27-0.765 0.544-0.765 0.821 0 4.102 55.996 7.425 125.07 7.425 69.075 0 125.07-3.323 125.07-7.425 0-0.277-0.266-0.552-0.765-0.821h0.06l-103.962-74.32v-168.072l160.471-148.536zm-175.71 119.639c-2.895 2.679-7.631 2.679-10.526 0l-77.535-71.768c-2.895-2.679-2.036-4.872 1.909-4.872h161.779c3.944 0 4.804 2.192 1.909 4.872l-77.536 71.768z"/>
        </symbol>
        <symbol id="biergarten" viewBox="0 0 576.44501 577.45154">
            <title>biergarten</title>
            <path d="m64.571 0.06355556c-41.335 0-64.571 21.371-64.571 65.036v450.123c0 40.844 20.894 62.229 62.192 62.229h452.024c41.307 0 62.229-20.316 62.229-62.229v-450.123c0-42.601-20.922-65.036-63.522-65.036-0.003 0-448.494-0.143-448.352 0z"/>
            <path
                opacity=".1"
                d="m113.13307 80.038092 119.71194-21.335331 132.2871 13.796881 8.04386 363.39513 18.58841 29.06501s-60.31626 57.03706-152.88947 58.17487-145.80436-56.79025-145.80436-56.79025l23.48151-35.95131-3.41899-350.355z"
                fill-rule="evenodd"
                fill="#fff"/>
            <path
                fill="#fff"
                d="m249.8878 39.117822c-5.90238 0.001-11.77742 0.0724-17.625 0.201172-41.02545 0.903424-82.82625 3.699698-124.53516 17.960937a17.50175 17.50175 0 0 0 -11.835937 16.783203l4.361327 342.05274a15.0015 15.0015 0 0 0 -2.085936 4.92383c-13.262522 12.02137-20.726386 27.62715-20.572266 43.91797 0.1334 14.1006 7.5901 26.43049 17.50586 35.59375 9.915762 9.16325 22.636192 16.18564 37.544922 21.96289 29.81747 11.5545 68.73966 17.91726 111.60547 17.51172 42.86587-0.40554 81.64244-7.50297 111.21875-19.62109 14.78816-6.05905 27.36675-13.32297 37.09961-22.67383 9.73286-9.35081 16.94584-21.81846 16.8125-35.91211-0.15755-16.6604-7.82106-33.08142-22.84961-45.03321a15.0015 15.0015 0 0 0 -0.13672 -0.21289l1.80078 1.28907 0.22461-36.94336 61.96484-6.91993a12.435991 12.435991 0 0 0 1.10938 -0.17578c7.49102-1.53069 15.10283-4.17501 21.42187-9.9082 6.16671-5.59498 10.10128-14.19671 10.69922-23.58594l23.2793-194.08593a12.435991 12.435991 0 0 0 0.0781 -1.97266c-0.37556-9.49274-3.32875-18.61921-9.4414-25.52149-6.11266-6.90225-14.75239-10.99194-24.26367-12.80468a12.435991 12.435991 0 0 0 -2.47266 -0.21875 12.435991 12.435991 0 0 0 -0.38281 0.01l-80.34375 3.41407 0.22851-37.658214a17.50175 17.50175 0 0 0 -12.88279 -16.986568c-43.57755-11.917492-86.21069-15.393797-127.52734-15.386718zm-1.61133 35.003906c35.56884-0.07029 71.13805 2.570586 106.9375 10.935547l-2.05469 339.16406c-24.13328 20.08777-70.12003 30.38762-108.68945 31.63477-38.8456 1.25611-82.91349-6.77576-109.08008-29.30469l-4.33594-339.85352c32.56968-9.238529 66.44931-11.606277 101.97852-12.388668 5.08193-0.111909 10.16288-0.177458 15.24414-0.1875zm214.37891 67.951172c4.27204 1.00301 6.54823 2.36357 7.7207 3.6875 1.21772 1.37501 2.18017 3.47429 2.46094 7.74414l-20.9004 176.97657a15.0015 15.0015 0 0 0 -0.0879 1.07226c-0.18191 3.97066-0.75353 4.29359-1.77539 5.22071-0.99689 0.90447-3.68284 2.29754-8.20507 3.26367l-53.23829 6.51953 1.21875-201.1543 72.80665-3.33008zm-93.23047 308.03125c3.01653 4.84807 4.94003 10.2473 4.95703 12.04493 0.0211 2.23441-0.91722 5.4023-6.06055 10.34375-5.14334 4.94146-14.1669 10.62748-26.12109 15.52539-23.90837 9.79583-59.18304 16.63989-98.2793 17.00976-39.09619 0.36988-74.51779-5.80519-98.62891-15.14844-12.05556-4.67162-21.19474-10.18831-26.4375-15.0332s-6.24064-7.99324-6.26171-10.2207c-0.0185-1.95574 1.99921-7.54617 5.73046-12.94336 34.69057 28.80273 85.07026 35.51775 127.11524 34.1582 40.81331-1.31973 90.75039-8.87925 123.98633-35.73633z"/>
            <path
                opacity=".75"
                fill="#fff"
                d="m242.33465 61.309721c-85.4416 0-132.63699 21.786771-132.63699 26.859331 0 0.21533 0.10677 0.41537 0.35283 0.62725h-0.35283l-5.55379 108.31283h18.58344l-2.7062-76.48516c81.23408 56.30948 134.6429-7.65863 241.05961-2.15618l0.067 78.64134h19.18158l-7.72041-114.93031h-0.23522c0.24521-0.21188 0.39203-0.41193 0.39203-0.62725 0-5.07256-44.98869-20.241851-130.43116-20.241851h0.00006z"/>
        </symbol>
        <symbol id="cafe" viewBox="0 0 576.44501 577.45154">
            <title>cafe</title>
            <path d="m64.571 0.06355556c-41.335 0-64.571 21.371-64.571 65.036v450.123c0 40.844 20.895 62.229 62.192 62.229h452.024c41.307 0 62.229-20.315 62.229-62.229v-450.123c0-42.601-20.922-65.036-63.521-65.036-0.004 0-448.495-0.143-448.353 0z"/>
            <path
                d="m83.772562 114.04165a9.3121141 9.3121141 0 0 0 -9.273437 8.10938s-11.237727 85.49269 2.140625 171.68555c6.689176 43.09642 19.444823 86.62668 43.82031 120.12109 24.28676 33.37247 61.01471 56.27791 111.68164 56.25195 4.87925 0.26836 9.52427 0.34032 13.95508 0.26953 4.43081 0.0708 9.07583-0.001 13.95508-0.26953 50.66694 0.026 87.39488-22.87948 111.68164-56.25195 2.02319-2.78007 3.95991-5.63452 5.82617-8.54688 60.05725-5.13614 101.15046-29.27287 126.03906-58.56445 27.63687-32.52602 35.75658-68.7553 36.24024-92.5332 0.45048-22.15337-3.67631-47.52687-13.97852-70.14453-5.1511-11.30884-11.91255-22.04689-21.70312-30.72266-9.79058-8.67577-23.40475-14.97266-38.21485-14.97266-16.74585 0-32.17841 4.65665-45.73632 10.53711-1.19628-16.65974-2.51172-26.85937-2.51172-26.85937a9.3121141 9.3121141 0 0 0 -9.27149 -8.10938l-162.32617 0.66797-162.32422-0.66797zm382.16992 70.0586c2.96184 0 4.71441 0.6242 7.95313 3.49414s7.1691 8.30224 10.44141 15.48633c6.54461 14.36817 10.1904 35.27447 9.88476 50.30468-0.27268 13.40571-6.14392 41.2618-25.39453 63.91797-13.92398 16.38723-34.62049 31.43029-68.07227 38.7793 6.81046-20.03937 11.53114-41.19327 14.79883-62.24609 5.17956-33.37041 6.66227-66.61178 6.54297-94.85157 0.38935-0.21402 0.74331-0.41823 1.14258-0.63476 14.09465-7.64392 32.20957-14.25 42.70312-14.25z"
                fill-rule="evenodd"
                fill="#fff"/>
        </symbol>
        <symbol id="drinkingtap" viewBox="0 0 576.44501 577.45154">
            <title>drinkingtap</title>
            <path d="m64.571 0.06355556c-41.335 0-64.571 21.371-64.571 65.036v450.123c0 40.844 20.895 62.229 62.192 62.229h452.024c41.307 0 62.229-20.315 62.229-62.229v-450.123c0-42.601-20.922-65.036-63.521-65.036-0.004 0-448.495-0.143-448.353 0z"/>
            <path
                opacity=".98512196"
                fill="#fff"
                d="m391.52842 31.625634c-10.04705 0-18.34961 8.302551-18.34961 18.34961 0 10.047057 8.30256 18.351562 18.34961 18.351562 4.4722 0 8.57012-1.223795 13.20899-2.826172v14.080078c-6.42375 4.123914-11.23103 10.585094-14.52735 17.177735-2.79448 5.588973-4.88021 11.795043-6.25781 18.466803l-20.49219-0.11524-13.85547-0.0781c-42.52082-0.66439-70.85708 23.12527-81.59961 45.95312-10.74252 22.82786-8.83398 44.72071-8.83398 44.72071l49.88867-3.32618s-0.26163-10.6552 4.18555-20.10546 8.66031-17.66864 35.57812-17.24805l0.125 0.002 14.22852 0.0801 23.19336 0.13086c1.08352 3.28333 2.3596 6.42037 3.83984 9.38086 5.48804 10.97608 15.12897 21.63867 29.52735 21.63867s24.0393-10.66259 29.52734-21.63867c1.42374-2.84748 2.65985-5.857 3.7168-9.00391l88.13281 0.49805 0.2832-50-85.79492-0.48438c-1.37662-6.82481-3.48731-13.16993-6.33789-18.871093-3.29632-6.592641-8.1036-13.053821-14.52734-17.177735v-14.208984c4.78762 1.663233 8.98966 2.955078 13.57617 2.955078 10.04705 0 18.34961-8.304505 18.34961-18.351562 0-10.047061-8.30256-18.34961-18.34961-18.34961a7.50075 7.50075 0 0 0 -0.28906 0.0059c-5.52337 0.212085-10.47938 2.21764-16.9004 4.466796-0.86662 0.303562-1.7623 0.637569-2.64453 0.953125a15.0015 15.0015 0 0 0 -8.96679 -2.830078 15.0015 15.0015 0 0 0 -8.41211 2.736328c-0.794-0.283515-1.6019-0.585834-2.38281-0.859375-6.42102-2.249156-11.37898-4.254709-16.90235-4.466796a7.50075 7.50075 0 0 0 -0.28711 -0.0059zm-105.70898 224.10743c-62.85061 0-113.80078 3.02449-113.80078 6.75586 0 0.15838 0.10025 0.31679 0.28125 0.47266h-0.28125l35.51757 270.83398h0.16016c-0.31425 0.16969-0.48047 0.34349-0.48047 0.51758 0 2.57808 35.1929 4.66601 78.60547 4.66601 43.41319 0 78.60547-2.08793 78.60547-4.66601 0-0.17409-0.16686-0.34852-0.48047-0.51758l35.55273-270.83398h-0.1582c0.18038-0.15587 0.28125-0.31428 0.28125-0.47266 0-3.73137-50.95149-6.75586-113.80273-6.75586zm87.36523 22.04883-32.04297 236.21289c-1.81948 1.68373-109.73519 0.89467-111.55468-0.78906l-33.73829-233.84571c57.5856 0.1919 99.05611 3.05411 177.33594-1.57812z"/>
            <path opacity=".1" d="m186.4874 274.93894 194.88741 1.57804-31.56071 249.54928-133.34402 1.57804-29.98268-252.70536z" fill-rule="evenodd" fill="#fff"/>
        </symbol>
        <symbol id="fastfood" viewBox="0 0 576.44501 577.45154">
            <title>fastfood</title>
            <path d="m64.571 0.06355556c-41.335 0-64.571 21.371-64.571 65.036v450.123c0 40.844 20.895 62.229 62.192 62.229h452.024c41.307 0 62.229-20.315 62.229-62.229v-450.123c0-42.601-20.922-65.036-63.521-65.036-0.004 0-448.495-0.143-448.353 0z"/>
            <path
                fill="#fff"
                d="m504.06681 74.694112-31.13929 109.85696h-158.60061l38.18462 303.11055h129.80977l38.77621-303.11055h-29.36451l30.54769-104.56847-18.21388-5.288488zm-208.54537 286.67146c3.13097-27.41631-17.62256-42.29573-62.26064-44.63836h-107.50852c-44.638431 2.34263-65.589161 17.22205-62.852234 44.63836h232.62139zm-232.62139 82.2493c-2.736927 27.40448 18.213803 42.08672 62.85223 44.04675h107.50852c44.63808-1.96003 65.39161-16.64227 62.26064-44.04675h-232.62139zm222.63602-61.09538h-213.24226c-5.473779 0.00009-10.170663 1.95712-14.090651 5.8711-3.920106 3.91415-5.880122 8.41683-5.880078 13.50804-0.000044 5.88013 1.959972 10.6786 5.880078 14.39541 3.919988 3.71693 8.616872 5.57536 14.090651 5.57532h213.24226c5.4854 0.00004 10.18526-1.85839 14.09963-5.57532 3.91377-3.71681 5.87081-8.51528 5.8711-14.39541-0.00029-5.09121-1.95733-9.59389-5.8711-13.50804-3.91437-3.91398-8.61423-5.87101-14.09963-5.8711z"/>
        </symbol>
        <symbol id="fastfood2" viewBox="0 0 576.44501 577.45154">
            <title>fastfood2</title>
            <path d="m64.571 0.06355556c-41.335 0-64.571 21.371-64.571 65.036v450.123c0 40.844 20.895 62.229 62.192 62.229h452.024c41.307 0 62.229-20.315 62.229-62.229v-450.123c0-42.601-20.922-65.036-63.521-65.036-0.004 0-448.495-0.143-448.353 0z"/>
            <path
                opacity=".25"
                d="m288.671 59.389306c-51.81063 0.0076-105.40993 13.893384-149.96875 37.5-44.206949 23.438324-79.648586 56.464174-95.0625 95.500004-8.024414 7.3436-13.896875 15.25066-17.125 23.71875-4.322015 10.57937-6.52365 23.49588-6.53125 36.875 0 12.43823 1.930421 25.27384 6 37.03125-1.308079 7.95557-1.875 15.97102-1.875 23.78125 0 12.94309 1.577036 25.34478 4.09375 36.03125 2.532012 10.70941 5.927815 19.68844 9.875 25.96875l0.28125 0.46875c1.078592 1.8818 2.253769 3.73425 3.53125 5.5625 1.009745 14.6719 3.360783 30.70448 8.5625 41.40625l1.03125 2.15625h0.03125c12.552968 25.02179 42.723975 45.83722 83.6875 60.9375 42.23335 15.49805 96.1747 24.75 155 24.75s112.7979-9.25195 155.03125-24.75c40.96352-15.10028 71.10329-35.91571 83.65625-60.9375h0.0312l1.0625-2.15625c3.09809-6.32621 5.08483-14.43442 6.5-23.09375 1.34633-8.2998 2.10027-17.05143 2.40625-24.96875 3.77889-6.24971 7.02854-14.97027 9.46875-25.3125 2.50907-10.69412 4.09375-23.08816 4.09375-36.03125 0-7.79493-0.58222-15.79378-1.875-23.71875 4.08488-11.78036 6.02325-24.65618 6.03125-37.125-0.008-13.48621-2.24179-26.49208-6.625-37.125-2.8686-7.4048-7.80401-14.34226-14.375-20.875-13.9069-40.5887-49.28178-74.27799-94.06245-97.968754-45.13254-23.851403-99.97047-37.6174-152.875-37.625z"
                fill="#fff"/>
            <path
                fill="#fff"
                d="m288.671 59.389306c-51.81063 0.0076-105.40993 13.893384-149.96875 37.5-44.206949 23.438324-79.648586 56.464174-95.0625 95.500004-8.024414 7.3436-13.896875 15.25066-17.125 23.71875-4.322015 10.57937-6.52365 23.49588-6.53125 36.875 0 12.43823 1.930421 25.27384 6 37.03125-1.308079 7.95557-1.875 15.97102-1.875 23.78125 0 12.94309 1.577036 25.34478 4.09375 36.03125 2.532012 10.70941 5.927815 19.68844 9.875 25.96875l0.28125 0.46875c1.078592 1.8818 2.253769 3.73425 3.53125 5.5625 1.009745 14.6719 3.360783 30.70448 8.5625 41.40625l1.03125 2.15625h0.03125c12.552968 25.02179 42.723975 45.83722 83.6875 60.9375 42.23335 15.49805 96.1747 24.75 155 24.75s112.7979-9.25195 155.03125-24.75c40.96352-15.10028 71.10329-35.91571 83.65625-60.9375h0.0312l1.0625-2.15625c3.09809-6.32621 5.08483-14.43442 6.5-23.09375 1.34633-8.2998 2.10027-17.05143 2.40625-24.96875 3.77889-6.24971 7.02854-14.97027 9.46875-25.3125 2.50907-10.69412 4.09375-23.08816 4.09375-36.03125 0-7.79493-0.58222-15.79378-1.875-23.71875 4.08488-11.78036 6.02325-24.65618 6.03125-37.125-0.008-13.48621-2.24179-26.49208-6.625-37.125-2.8686-7.4048-7.80401-14.34226-14.375-20.875-13.9069-40.5887-49.28178-74.27799-94.06245-97.968754-45.13254-23.851403-99.97047-37.6174-152.875-37.625zm0 7.65625c58.90945-0.0153 120.67493 17.622516 167.40625 47.218754 23.35418 14.77901 42.96349 32.52563 56.65625 52.4375 13.69276 19.92717 21.5 41.96417 21.5 65.59375-0.008 9.01885-2.50466 17.04035-7.125 24.4375-4.24552 6.82344-10.39696 13.06636-18.03125 18.75-0.82615-0.54311-1.55958-0.70606-2.15625-0.84375-0.71141-0.13774-1.30698-0.15625-1.78125-0.15625-0.58137 0-0.95543 0.0472-1.0625 0.0625h-0.15625l-0.125 0.0312c-7.19825 1.30808-12.40082 3.42697-17.28125 5.5-4.90338 2.08069-9.48387 4.08742-16.0625 5.625-5.5842 1.32337-12.63489 2.50201-18.96875 5.53125-3.15927 1.52227-6.18414 3.56126-8.59375 6.4375-1.82061 2.15719-3.27655 4.77561-4.15625 7.8125-17.93062 4.64329-36.97028 8.2206-55.75 10.875-36.45027 5.16347-71.92384 6.9375-96.59375 6.9375-36.54206 0.0153-96.17308-6.70228-147.21875-20.96875-0.67317-1.21628-1.473-2.34036-2.40625-3.28125-4.00074-4.06958-9.42963-5.93052-14.5625-7.4375-5.14051-1.46107-10.2105-2.49548-13.125-3.75-4.02367-1.66762-9.39547-5.28848-15.125-8.5625-5.767786-3.24338-11.97051-6.32135-18.65625-6.37495-1.637006 0-3.292841 0.22088-4.9375 0.6875-0.313641-0.20654-0.655108-0.41847-0.96875-0.625-8.345695-5.66069-14.970143-11.7459-19.4375-18.15625-4.475011-6.42565-6.8049-13.08235-6.8125-20.25 0.0076-23.22415 7.791949-45.20109 21.5-65.28125 20.539138-30.10111 54.43457-55.75883 94.28125-73.781254 39.83904-18.045361 85.60425-28.476359 129.75-28.46875zm-213.375 213.5c4.107827-0.0535 9.482043 2.26927 14.875 5.375 5.431205 3.06748 10.82058 6.78097 15.96875 8.96875 2.76915 1.15509 5.89688 1.9162 9.125 2.75 4.82689 1.22393 9.82168 2.58956 13.1875 4.59375 1.68291 0.99445 2.94679 2.10387 3.75 3.3125 0.70376 1.07094 1.17416 2.22969 1.28125 3.84375h-0.0312c-4.5515 0.0459-10.19901-1.83449-15.875-2.5-5.65304-0.61962-11.69088-0.9375-17.71875-0.9375-2.39432 0-4.792529 0.0492-7.15625 0.15625-6.968771 0.29833-13.523239 2.2634-19.75 5.09375-3.319919 1.52992-5.973031 3.69779-8.375 5.28125-1.246882 0.84145-2.357605 1.48552-3.375 1.90625-0.428377-1.20863-0.883472-2.27915-1.28125-3.28125-0.764958-1.90475-1.348963-3.51941-1.59375-5.53125-0.023-0.22184-0.0313-0.43506-0.0313-0.6875-0.0153-1.32338 0.451185-3.22091 1.09375-5.15625 0.627266-1.95829 1.408375-3.90271 1.875-5.9375 1.10154-4.87279 2.028022-6.81335 3.34375-8.6875 1.262181-1.8053 3.328511-3.8116 6.28125-7.4375l0.75-0.46875c1.147438-0.44368 2.332872-0.65625 3.65625-0.65625zm428.3125 1.875c-0.0688 1.65231-0.19776 3.87033-0.3125 6.21875-0.19889 3.77124-0.3986 7.92682-0.40625 11.09375 0 0.68081 0.0396 1.32488 0.0625 1.90625 0.0918 2.26428 0.50847 5.07347 0.90625 8.15625 0.40543 3.05983 0.78125 6.30604 0.78125 8.9375 0.0383 2.28723-0.39616 4.10857-0.65625 4.4375-0.51252 0.8644-1.05845 1.32927-1.96875 1.75-0.895 0.39778-2.18249 0.63265-3.78125 0.625-3.60295 0.0229-8.50204-1.27819-13-2.96875-4.5209-1.68291-8.63954-3.68101-11.15625-4.84375-5.86723-2.70795-11.9134-6.32018-19.21875-7.78125-1.60641-0.32128-3.10712-0.4139-4.46875-0.40625-1.95829 0.008-3.63316 0.1888-4.75 0.25v-0.0312c0.48957-3.14398 1.57148-5.35925 3.09375-7.1875 2.27958-2.7309 5.80103-4.63968 10.03125-6.0625 4.21492-1.42282 9.00839-2.31106 13.4375-3.34375 7.27475-1.69821 12.46201-3.98881 17.28125-6.03125 4.42911-1.8818 8.54845-3.55601 14.125-4.71875zm-466.21875 22.84375c0.979147 1.55286 2.023458 3.06189 3.125 4.5 29.802781 43.74033 129.44219 75.84375 247.78125 75.84375 118.30846 0 217.92427-32.09513 247.75-75.8125h0.0312c1.0939-1.44577 2.1146-2.94713 3.09375-4.5-16.71435 47.95524-92.46992 86.35911-190.46875 97.71875 0.16064-0.49723 0.26725-1.01938 0.34375-1.5625l0.28125-2.09375-1.625-1.34375c-4.29907-3.49585-9.75239-4.2194-15-4.25-6.35681 0.008-12.79404 1.21584-17.0625 1.8125-9.01121 1.29279-18.77769 3.35175-27.78125 3.34375-1.61406 0-3.22838-0.0734-4.78125-0.21875-10.38049-0.9256-20.63207-3.80684-31.96875-5.375-2.09594-0.29069-4.18586-0.53125-6.31245-0.53125-3.42701-0.008-7.02708 0.64945-10.5 2.53125-1.33103 0.7267-2.93818 1.75637-4.4375 3.15625-0.74201 0.70376-1.47414 1.48196-2.09375 2.46875-0.34423 0.55842-0.65315 1.22674-0.875 1.96875-97.54749-11.52028-172.87745-49.854-189.5-97.65625zm493.5625 75.25c-0.29833 4.72744-0.75604 9.62526-1.40625 14.40625-1.17039 8.62874-3.00559 16.89173-5.46875 22.8125h-0.0625l-1 2.25c-10.18925 22.8493-39.20624 44.07892-80.4375 59.15625-41.17771 15.13087-94.3529 24.28125-152.375 24.28125s-111.18965-9.15038-152.375-24.28125c-41.231259-15.06969-70.248262-36.30695-80.4375-59.15625l-1-2.25h-0.0625c-2.463163-5.92077-4.306016-14.18376-5.46875-22.8125-0.40543-2.98333-0.739916-6.00136-1-9 35.99129 42.56229 129.16319 72.875 238.4375 72.875 113.85641 0 210.20672-32.90391 242.65625-78.28125zm-286.15625 19.9375c1.58346 0 3.35355 0.16976 5.28125 0.4375 10.66352 1.45342 20.99877 4.38951 32.3125 5.4375 1.81295 0.16064 3.6169 0.21875 5.4375 0.21875 10.09745-0.0153 20.21567-2.15872 28.875-3.375 4.51325-0.65021 10.58344-1.75765 15.96875-1.75 2.92214-0.0229 5.55001 0.31984 7.53125 1.03125-0.20654 0.19889-0.42741 0.41081-0.6875 0.625-2.07304 1.72116-5.86466 3.5142-9.78125 5.28125-3.92424 1.8206-8.00397 3.5912-11.125 6.40625-3.90129 3.61825-7.54191 8.36353-11.34375 12.59375-3.77124 4.23787-7.67764 7.84313-11.25 9.28125-1.46872 0.60432-2.93053 0.86735-4.4375 0.875-3.80949 0.0306-8.19768-1.85846-12.34375-4.75-4.15372-2.86859-8.01471-6.62897-10.90625-9.75-3.7636-4.05428-8.46805-8.4908-13.9375-12.09375-5.46945-3.58765-11.73972-6.35287-18.59375-6.78125l-0.75-0.0625c0.19124-0.19124 0.41911-0.40251 0.65625-0.59375 0.73436-0.58137 1.60678-1.10857 2.21875-1.4375 2.21838-1.17804 4.29709-1.57845 6.875-1.59375z"/>
        </symbol>
        <symbol id="fastfood_pizza" viewBox="0 0 576.44501 577.45154">
            <title>fastfood_pizza</title>
            <path d="m64.571 0.06355556c-41.335 0-64.571 21.371-64.571 65.036v450.123c0 40.844 20.895 62.229 62.192 62.229h452.024c41.307 0 62.229-20.315 62.229-62.229v-450.123c0-42.601-20.922-65.036-63.521-65.036-0.004 0-448.495-0.143-448.353 0z"/>
            <path opacity=".4" d="m-510.96596-444.34169a388.43549 514.76617 0 0 1 453.1328 9.92985l-231.78262 413.0784z" transform="scale(-1)" fill="#fff"/>
            <path opacity=".4" d="m504.24123 429.8376a373.97637 497.14276 0 0 1 -436.26542 -9.58989l223.15477-398.93637z" fill="#fff"/>
            <path
                opacity=".4"
                d="m244.47178 102.34634-12.95898 23.51758-12.95899 23.51758a24.550266 26.851852 28.856326 0 0 25.10157 -1.49805 24.550266 26.851852 28.856326 0 0 12.95898 -23.51758 24.550266 26.851852 28.856326 0 0 -12.14258 -22.01953zm77.58008 64.73242a26.851852 24.550266 0 0 0 -26.85156 24.55078 26.851852 24.550266 0 0 0 26.85156 24.54883 26.851852 24.550266 0 0 0 26.85352 -24.54883 26.851852 24.550266 0 0 0 -26.85352 -24.55078zm90.375 87.78907a26.851852 24.550266 63.121072 0 0 -12.89453 21.58789 26.851852 24.550266 63.121072 0 0 12.14062 23.95117 26.851852 24.550266 63.121072 0 0 25.03321 2.36328l-12.14063-23.95117-12.13867-23.95117zm-177.06641 5.80859a26.851852 24.550266 0 0 0 -26.85351 24.55078 26.851852 24.550266 0 0 0 26.85351 24.55078 26.851852 24.550266 0 0 0 26.85157 -24.55078 26.851852 24.550266 0 0 0 -26.85157 -24.55078zm-120.47265 71.10156-11.56446 24.23438-13.568356 23.15039a24.550266 26.851852 25.510161 0 0 25.644536 -0.94727 24.550266 26.851852 25.510161 0 0 12.91601 -24.34961 24.550266 26.851852 25.510161 0 0 -13.42773 -22.08789zm214.83593 4.08399a26.851852 24.550266 0 0 0 -26.85156 24.55078 26.851852 24.550266 0 0 0 26.85156 24.54883 26.851852 24.550266 0 0 0 26.85352 -24.54883 26.851852 24.550266 0 0 0 -26.85352 -24.55078zm-116.61328 52.16992a26.851852 24.550266 0 0 0 -26.85156 24.54883 26.851852 24.550266 0 0 0 26.85156 24.55078 26.851852 24.550266 0 0 0 26.85157 -24.55078 26.851852 24.550266 0 0 0 -26.85157 -24.54883zm179.52344 35.29101a26.851852 24.550266 0 0 0 -26.85156 24.54883 26.851852 24.550266 0 0 0 26.85156 24.55078 26.851852 24.550266 0 0 0 26.85352 -24.55078 26.851852 24.550266 0 0 0 -26.85352 -24.54883z"/>
        </symbol>
        <symbol id="ice_cream" viewBox="0 0 576.44501 577.45154">
            <title>ice_cream</title>
            <path d="m64.571 0.06355556c-41.335 0-64.571 21.371-64.571 65.036v450.123c0 40.844 20.895 62.229 62.192 62.229h452.024c41.307 0 62.229-20.315 62.229-62.229v-450.123c0-42.601-20.922-65.036-63.521-65.036-0.004 0-448.495-0.143-448.353 0z"/>
            <path stroke-linejoin="round" d="m222.94937 172.51119-133.24502 364.7944 305.93439-230.4128z" stroke="#fff" stroke-width="27.988411" fill="none"/>
            <path
                opacity=".25"
                d="m310.90928 36.559228c-3.27758-0.02684-6.58744 0.11255-9.91797 0.425781-53.28845 5.011695-92.76365 52.682251-87.75195 105.97071 5.01169 53.28843 52.68421 92.76169 105.97266 87.75 53.28843-5.0117 92.76169-52.68031 87.75-105.96875-4.69846-49.957926-46.88896-87.775205-96.05274-88.177739z"
                fill="#fff"/>
            <path
                d="m310.94053 35.518212c-3.31912-0.0255-6.67011 0.116198-10.04492 0.433594-53.99699 5.078332-93.76583 53.104586-88.6875 107.10156 0.57091 6.07038 1.68706 11.95977 3.29101 17.62696a13.995605 13.995605 0 0 0 -5.69531 7.02929l-133.24414 364.79493a13.995605 13.995605 0 0 0 21.564453 15.98047l305.9336-230.41406a13.995605 13.995605 0 0 0 5.16797 -7.86914c5.60255 0.46452 11.31744 0.44615 17.09961-0.0977 53.28844-5.0117 92.76169-52.68031 87.75-105.96875-4.69847-49.95792-46.88896-87.77519-96.05274-88.17773-3.27758-0.0268-6.58549 0.11255-9.91601 0.42578-0.40914 0.0385-0.81516 0.0874-1.22266 0.13086-8.29248-46.520732-48.85868-80.634324-95.94336-80.996098zm-0.0781 11.59375c41.57753 0.297735 77.22658 30.246021 84.58593 71.312508-45.97736 10.55956-78.63164 53.53817-75.28711 101.5625-0.64405 0.0749-1.29061 0.14601-1.93945 0.20703-3.62349 0.34078-7.21408 0.45141-10.75976 0.34961l-75.91797-59.07617a13.995605 13.995605 0 0 0 -4.41602 -2.29297c-1.66926-5.50233-2.81528-11.25567-3.375-17.20703-4.49149-47.757241 30.47129-89.977266 78.22852-94.468759 2.98482-0.280718 5.94716-0.407727 8.88086-0.386719zm-81.35547 148.23438 14.83398 11.54297c3.50617 3.15422 7.23396 6.05624 11.15625 8.68164l117.1211 91.14063-253.53516 190.94921 110.42383-302.31445zm92.15039 36.14258c0.008 0.0396 0.0139 0.0795 0.0215 0.11914l-0.13672-0.10742c0.0383-0.004 0.077-0.007 0.11524-0.0117z"
                fill="#fff"/>
        </symbol>
        <symbol id="pizza" viewBox="0 0 576.44501 577.45154">
            <title>pizza</title>
            <path d="m64.571 0.06355556c-41.335 0-64.571 21.371-64.571 65.036v450.123c0 40.844 20.895 62.229 62.192 62.229h452.024c41.307 0 62.229-20.315 62.229-62.229v-450.123c0-42.601-20.922-65.036-63.521-65.036-0.004 0-448.495-0.143-448.353 0z"/>
            <path opacity=".5" d="m539.12259 190.74106a269.2857 263.14815 0 1 1 -183.90126 -165.95706l-69.81002 254.15177z" fill="#fff"/>
            <path opacity=".5" d="m516.42293 199.85362a245.49281 247.0222 89.957073 1 1 -167.18432 -154.3989l-65.54576 236.69346z" fill="#fff"/>
            <path
                opacity=".4"
                d="m239.13194 63.240868a20 20 0 0 0 -20.58399 19.992188 20 20 0 0 0 40 0 20 20 0 0 0 -19.41601 -19.992188zm87.84179 41.406252a24.550266 26.851852 16.084585 0 0 -18.15039 7.89063 24.550266 26.851852 16.084585 0 0 -7.43945 25.80078 24.550266 26.851852 16.084585 0 0 16.70899 18.79101l7.43945-25.80078 7.43945-25.80078a24.550266 26.851852 16.084585 0 0 -5.99805 -0.88086zm-180.06054 26.54492a20 20 0 0 0 -20.58399 19.99024 20 20 0 0 0 40 0 20 20 0 0 0 -19.41601 -19.99024zm82.50976 36.4004a20 20 0 0 0 -20.58398 19.99218 20 20 0 0 0 40 0 20 20 0 0 0 -19.41602 -19.99218zm193.7168 62.82421-25.32813 8.91602-25.33007 8.91601a24.550266 26.851852 70.607258 0 0 19.72461 15.59766 24.550266 26.851852 70.607258 0 0 25.32812 -8.91601 24.550266 26.851852 70.607258 0 0 5.60547 -24.51368zm-327.18945 9.97852a20 20 0 0 0 -20.583985 19.99219 20 20 0 0 0 39.999998 0 20 20 0 0 0 -19.416013 -19.99219zm100.66211 22.73633a20 20 0 0 0 -20.58399 19.99023 20 20 0 0 0 40 0 20 20 0 0 0 -19.41601 -19.99023zm275.49023 18.51953a20 20 0 0 0 -20.58398 19.99219 20 20 0 0 0 40 0 20 20 0 0 0 -19.41602 -19.99219zm-208.70312 41.25586a20 20 0 0 0 -20.58399 19.99023 20 20 0 0 0 40 0 20 20 0 0 0 -19.41601 -19.99023zm99.49804 0a20 20 0 0 0 -20.58398 19.99023 20 20 0 0 0 40 0 20 20 0 0 0 -19.41602 -19.99023zm-230.54492 21.83984a20 20 0 0 0 -20.58398 19.99219 20 20 0 0 0 40 0 20 20 0 0 0 -19.41602 -19.99219zm296.06641 50.96289a20 20 0 0 0 -20.58399 19.99219 20 20 0 0 0 40 0 20 20 0 0 0 -19.41601 -19.99219zm-235.39649 33.97461a20 20 0 0 0 -20.58398 19.99219 20 20 0 0 0 40 0 20 20 0 0 0 -19.41602 -19.99219zm128.61914 4.85352a20 20 0 0 0 -20.58398 19.99219 20 20 0 0 0 40 0 20 20 0 0 0 -19.41602 -19.99219z"/>
        </symbol>
        <symbol id="pub" viewBox="0 0 576.44501 577.45154">
            <title>pub</title>
            <path d="m64.571 0.06355556c-41.335 0-64.571 21.371-64.571 65.036v450.123c0 40.844 20.894 62.229 62.192 62.229h452.024c41.307 0 62.229-20.316 62.229-62.229v-450.123c0-42.601-20.922-65.036-63.522-65.036-0.003 0-448.494-0.143-448.352 0z"/>
            <path
                fill="#fff"
                d="m466.528 76.225556h-0.251c0.287-0.248 0.445-0.498 0.445-0.75 0-5.937-81.067-10.75-181.07-10.75-100.002 0-181.07 4.813-181.07 10.75 0 0.252 0.158 0.502 0.446 0.75h-0.446l56.512 430.928h0.255c-0.5 0.27-0.765 0.544-0.765 0.821 0 4.102 55.996 7.425 125.07 7.425 69.075 0 125.07-3.323 125.07-7.425 0-0.277-0.266-0.552-0.765-0.821l56.569-430.928zm-92.85286 399.42255c-2.895 2.679-174.60069 1.42359-177.49569-1.25541l-53.68219-340.25285c95.07744 65.90537 157.60824-8.95098 282.15977-2.51082l-50.98189 344.01908z"/>
            <path opacity=".1" d="m127.60336 117.55963 310.08658 2.51082-50.21645 371.60173-212.1645 2.51083-47.70563-376.62338z" fill-rule="evenodd" fill="#fff"/>
        </symbol>
        <symbol id="restaurant" viewBox="0 0 576.44501 577.45154">
            <title>restaurant</title>
            <path d="m64.571 0.06355556c-41.335 0-64.571 21.371-64.571 65.036v450.123c0 40.844 20.894 62.229 62.192 62.229h452.024c41.307 0 62.229-20.316 62.229-62.229v-450.123c0-42.601-20.922-65.036-63.522-65.036-0.003 0-448.494-0.143-448.352 0z"/>
            <path
                fill="#fff"
                d="m173.03623 54.008447c-32.014 0-93.849605 81.133053-93.849605 155.24805 0 59.646 27.223235 110.17462 64.865235 127.64062l-7.79297 176.54492h73.55273l-7.79101-176.54492c37.643-17.466 64.86523-67.99462 64.86523-127.64062 0-74.115-61.83461-155.24805-93.84961-155.24805zm203.69727 1.509765c-3.875 0-7.01562 3.140625-7.01562 7.015625l-5.13282 204.78906h-19.83398l3.25976-202.78906c0-3.875-3.14257-7.015625-7.01757-7.015625h-4.60547c-3.875 0-7.01758 3.140625-7.01758 7.015625l-10.17383 202.78906c0 59.646 13.71447 82.10822 51.35547 99.57422l-7.79102 146.54492h73.55469l-7.78906-146.54492c37.642-17.466 51.38867-39.92822 51.38867-99.57422l-9.7793-202.8125c0-3.875-3.14353-7.017578-7.01953-7.017578h-4.60547c-3.873 0-7.01757 3.141578-7.01757 7.017578l3.25976 202.8125h-20.25781l-5.13281-204.78906c0-3.875-3.14158-7.015625-7.01758-7.015625h-5.99414c-3.874 0-7.01758 3.140625-7.01758 7.015625l2.77539 204.78906h-25.13672l2.77539-204.78906c0-3.875-3.14258-7.015625-7.01758-7.015625h-5.99609z"/>
        </symbol>
    </defs>
</svg>
