<svg xmlns="http://www.w3.org/2000/svg" xmlns:rdf="http://www.w3.org/1999/02/22-rdf-syntax-ns#" xmlns:dc="http://purl.org/dc/elements/1.1/" xmlns:cc="http://creativecommons.org/ns#" version="1.1" style="fill:black;stroke:none">
    <title>SJJB Map Icons [Health Set]</title>
    <desc>These map icons are an attempt to create a simple consistent set of vector icons suitable for cartographic use.</desc>
    <metadata>
        <rdf:RDF>
            <cc:Work rdf:about="">
                <dc:format>image/svg+xml</dc:format>
                <dc:type rdf:resource="http://purl.org/dc/dcmitype/StillImage"/>
                <dc:title>SJJB Map Icons [Health Set]</dc:title>
                <dc:date>2017-01-07</dc:date>
                <dc:creator>
                    <cc:Agent>
                        <dc:title>SJJB Management</dc:title>
                    </cc:Agent>
                </dc:creator>
                <dc:rights>
                    <cc:Agent>
                        <dc:title>Map icons CC-0 from SJJB Management</dc:title>
                    </cc:Agent>
                </dc:rights>
                <dc:language>English</dc:language>

                <dc:source>http://www.sjjb.co.uk/mapicons/introduction</dc:source>
                <dc:description>These map icons are an attempt to create a simple consistent set of vector icons suitable for cartographic use.</dc:description>
            </cc:Work>
        </rdf:RDF>
    </metadata>

    <defs>
        <symbol id="dentist" viewBox="0 0 511.2222 506.33304">
            <title>dentist</title>
            <path
                d="m164.07422 0.00760056c-16.14684 0.476451-27.21453 23.225464-11.34376 34.341796 3.53085 2.473098 4.0984 5.40034 4.10352 21.117188 0.003 10.035651 0.62632 35.956282 1.38281 57.601565 1.37539 39.35505 1.3749 39.35547 7.33985 39.35547 5.96494 0 5.96484-0.0002 5.96484-55.843753 0-55.843545 0.0001-55.843237 5.24805-62.080079 9.99681-11.880547 8.523-26.115483-3.33985-32.25-3.19957-1.654565-6.36531-2.330419-9.35546-2.242187zm-44.46876 30.240234c-5.05176 0.208881-12.01734 2.001633-22.238276 5.30664-14.54126 4.702031-21.480887 5.507739-56.962887 6.615235-22.22248 0.693634-40.404297 1.851956-40.404297 2.574219 0 7.167161 16.474847 18.001349 24.363282 16.021484 4.018035-1.008459 5.021484-0.436515 5.021484 2.859375 0 5.458137 7.741377 10.652344 15.873047 10.652344 4.94695 0 7.126134 1.283862 8.939453 5.263672 4.212316 9.245003 15.227314 12.927723 26.005858 8.693363 8.44287-3.31679 9.16167-3.31668 11.5918 0.006 1.42497 1.9483 5.20378 5.26388 8.396476 7.36914 6.01829 3.96845 24.70886 5.218383 38.07617 2.54492 8.35929-1.67187 10.66769-49.576077 2.51368-52.164065-2.225-0.706188-5.97049-4.547823-8.32422-8.537109-3.02327-5.124048-6.35643-7.473639-12.85157-7.205078zm88.66993 0.251953c-7.33704 0.178954-11.07914 3.492546-13.20899 10.203125-0.72979 2.299316-3.65544 4.764577-6.5 5.478516-8.134 2.041505-6.98936 49.062688 1.25391 51.509768 14.21564 4.220063 37.22058 1.04267 44.66211-6.16992 6.86852-6.65723 7.28298-6.77323 13.22265-3.67578 10.82202 5.64349 20.79133 2.88269 26.89454-7.449225 2.87907-4.873832 5.08393-6.11914 10.84179-6.11914 7.64589 0 15.62305-5.914821 15.62305-11.583985 0-2.31457 1.37632-2.842614 5.02148-1.927734 6.72756 1.688514 17.24632-3.999737 21.07032-11.394531 3.07467-5.945746 3.07456-5.946062-37.22071-7.140625-35.51878-1.052981-42.28484-1.833999-57.08593-6.585938-10.98581-3.527037-18.86764-5.283718-24.57422-5.144531zm-86.25391 80.941412c-1.18761 0.0245-2.38178 0.11058-3.57812 0.26172-36.731726 4.64051-44.280502 33.27071-14.11329 53.53125 9.57406 6.43002 13.62945 7.44132 15.79493 3.9375 0.72833-1.17846 6.04423-4.83927 11.81445-8.13477 10.49129-5.99184 10.49117-5.99302 2.47266-7.43945-15.49378-2.79494-25.85938-9.23032-25.85938-16.05469 0-7.54169 5.68341-8.23984 14.42969-1.77343 7.21495 5.33422 22.72228 5.00968 26.20508-0.54883 6.77451-10.81196-9.35179-24.14733-27.16602-23.7793zm85.10156 0.30664c-7.83693-0.16756-15.409 1.73773-20.85742 6.32227-16.87494 14.19932 3.41497 30.84949 21.39453 17.55664 7.5592-5.58875 13.18555-4.77541 13.18555 1.90625 0 9.77511-30.82347 21.01549-57.98047 21.14258-37.48549 0.17545-64.220006 37.26269-43.04492 59.71484 8.47278 8.98375 9.76623 9.08553 23.56055 1.86328 10.75673-5.63189 10.7567-5.63225 4.75586-10.68164-16.52653-13.90615-7.93874-22.23088 28.74023-27.86133 43.2301-6.63609 66.00781-22.23315 66.00781-45.20117 0-13.98942-18.52046-24.39308-35.76172-24.76172zm1.83594 68.6211c-0.74478 0.0362-1.50553 0.36135-2.26562 0.99218-1.68441 1.39794-7.50256 3.14871-12.92969 3.89258-7.97621 1.09327-9.59989 2.00019-8.47071 4.72656 3.33043 8.04122 3.02868 10.3857-2.12109 16.50586-3.518 4.18091-10.82581 8.51711-20.61914 12.23633-37.75177 14.33713-50.7628 33.32873-36.05078 52.61719 6.43925 8.44228 6.23666 8.42828 19.66211 1.46289 10.20391-5.29397 10.51164-5.69892 6.49023-8.51563-12.19093-8.53886-4.24781-18.24818 22.73243-27.78906 30.88523-10.92181 44.24005-24.46221 41.29882-41.87109-1.5478-9.16142-4.49919-14.4146-7.72656-14.25781zm-43.73437 7.73632c-6.2968 0-6.29688 0.00013-6.29688 12.59375 0 6.92648 0.41004 12.59375 0.91211 12.59375 8.00177 0 11.68164-4.61126 11.68164-14.64062 0-10.31918-0.13585-10.54688-6.29687-10.54688zm152.37695 16.95899c-12.99515 0.0882-24.97465 5.68319-35.00195 16.88867-12.60872 14.09011-15.81234 34.53982-19.66993 125.50195-3.55841 83.90782-2.24492 111.09704 5.76563 119.33203 14.37472 14.77774 37.80032 0.97996 59.91406-35.29101 22.17665-36.37412 28.46806-30.09808 15.90039 15.86133-7.89293 28.86401-7.86088 38.43697 0.16602 47.99023 15.33173 18.24722 28.03943 14.4303 54.8457-16.47656 22.96127-31.04517 41.80992-62.76831 63.79883-87.47852 55.75946-62.3272 62.56794-104.08626 21.8457-133.99218-18.51217-13.59518-25.83575-14.56396-54.24219-7.16993-31.5123 8.20246-33.94313 7.4576-60.13671-18.41992-18.08812-17.86998-36.4775-26.85949-53.18555-26.74609zm-122.92578 29.85937c-1.31465-0.07-2.86325 0.62258-5.43164 1.89844-3.39802 1.68797-11.61015 4.72994-18.24805 6.75781-12.06888 3.68701-12.06836 3.68681-12.06836 13.87696s0.00008 10.18922 6.29688 7.99414c5.72064-1.99423 6.29687-3.04632 6.29687-11.50782 0-8.62732 0.30646-9.15096 4.15039-7.09375 13.77898 7.37431 7.67849 18.14832-14.41797 25.46289-24.94389 8.25717-37.89045 29.10234-26.13867 42.0879 4.26372 4.71136 3.35668 4.78158 11.65039-0.88282 5.4019-3.68937 6.77154-5.95951 6.26172-10.375-0.74859-6.48379 2.34466-8.49389 25.3125-16.45117 27.58883-9.5582 36.96784-29.8183 21.9082-47.32617-2.57964-2.999-3.88201-4.35138-5.57226-4.44141zm-9.39258 54.4375c-5.91122-0.18372-14.31913 2.79538-24.30469 8.9668-6.02577 3.72412-2.08469 9.54136 4.2461 6.26758 3.46326-1.79091 6.29687-4.36502 6.29687-5.72071 0-1.80985 0.62077-1.84408 2.33594-0.1289 3.57519 3.57519 0.48723 6.63306-12.49805 12.37305-22.9293 10.13559-28.80183 21.3923-17.91211 34.33398 6.70945 7.97372 10.00851 7.31533 10.92969-2.17969 0.90677-9.34612 3.07298-11.69586 12.39844-13.44531 19.9604-3.74459 27.83398-12.35843 27.83398-30.45313 0-6.48176-3.41495-9.82994-9.32617-10.01367zm4.78516 36.94532c-0.66188-0.0287-1.42177 0.16655-2.2793 0.6289-2.59743 1.40046-9.91831 4.15462-16.26758 6.1211-8.7121 2.69829-11.70867 4.66553-12.21484 8.02148-0.85405 5.6623 1.2412 5.62871 7.35742-0.11719 3.73314-3.50711 4.85742-3.82604 4.85742-1.38086 0 1.75003-9.03257 8.99194-20.07226 16.09375-11.03972 7.10179-19.5297 13.78936-18.86719 14.86133 1.9517 3.15789 49.78761-19.3402 56.0664-26.36914 5.8382-6.5357 6.05303-17.65865 1.41993-17.85937zm-9.75586 31.24414c-15.77943-0.39369-29.98598 23.53811-17.96875 42.98242 1.64491 2.66151 5.95048 0.84698 6.42968-2.70899 0.22048-1.63595 1.0016-10.19677 1.73438-19.02539 1.3323-16.05201 1.33251-16.0526 12.96289-11.96484 13.05915 4.5899 15.78597 3.87583 9.92578-2.59961-4.12399-4.55696-8.66574-6.57336-13.08398-6.68359z"/>
        </symbol>
        <symbol id="doctors" viewBox="0 0 447.40079 547.49664">
            <title>doctors</title>
            <path
                d="m221.21113 545.76437c-20.95962-33.91338 16.62205-77.84493 42.31055-49.45944 7.9851 8.82343 4.26894 9.79674-13.52547 3.54253-15.84758-5.56999-15.84758-5.56999-17.66298 16.3025-0.99849 12.02991-2.06122 23.69639-2.36163 25.92554-0.65297 4.84535-6.51911 7.31545-8.76047 3.68887zm-40.55517-40.87345c-0.90273-1.46067 10.66634-10.57327 25.70907-20.25019 15.04269-9.67693 27.35039-19.54546 27.35039-21.93006 0-3.33179-1.5326-2.89585-6.61937 1.88294-8.33398 7.82938-11.18833 7.87474-10.02462 0.15929 0.68972-4.57282 4.77285-7.25446 16.64399-10.93115 8.65153-2.67954 18.62583-6.43317 22.1651-8.34143 9.34778-5.03999 10.2625 13.30189 1.17092 23.47966-8.5555 9.57763-73.7361 40.23389-76.39548 35.93094zm14.80443-34.17825c-14.83834-17.63435-6.83649-32.97217 24.40702-46.78295 17.69375-7.82131 21.9024-11.98746 17.03083-16.85903-2.33709-2.33709-3.18282-2.29039-3.18282 0.17574 0 1.84723-3.86102 5.35518-8.58005 7.79548-8.62636 4.46088-13.99538-3.46559-5.78466-8.54008 27.21266-16.81836 45.82486-16.23987 45.82486 1.42425 0 24.65589-10.72823 36.39402-37.92629 41.4964-12.70688 2.38382-15.65975 5.58587-16.89531 18.3209-1.2552 12.93793-5.75128 13.83429-14.89358 2.96929zm-11.35194-42.31089c-16.01298-17.69413 1.62676-46.09867 35.61533-57.34988 30.10867-9.96685 38.42136-24.64721 19.64611-34.69545-5.23774-2.80315-5.65447-2.09087-5.65447 9.66473 0 11.52966-0.78511 12.96459-8.58005 15.68194-8.58003 2.99101-8.58003 2.99101-8.58003-10.89411 0-13.8851 0-13.8851 16.44507-18.90902 9.0448-2.76318 20.23334-6.90582 24.86348-9.20585 7.99931-3.9737 8.74571-3.80127 14.99464 3.46351 20.52028 23.85625 7.74143 51.46168-29.85113 64.48572-31.29601 10.84257-35.51133 13.58223-34.4913 22.41707 0.69467 6.01653-1.17221 9.1094-8.53285 14.13653-11.30103 7.71832-10.06505 7.62451-15.8748 1.20481zm-11.73777-58.67503c-20.04664-26.28249-2.31558-52.16024 49.12504-71.69602 13.3444-5.06782 23.30222-10.9777 28.09586-16.67462 7.01707-8.33934 7.42746-11.5338 2.88942-22.49077-1.53864-3.71496 0.67364-4.94908 11.54204-6.43878 7.39502-1.01358 15.32338-3.40138 17.61856-5.30621 5.52378-4.58437 11.02004 2.71267 13.61579 18.0768 4.0077 23.72138-14.19202 42.17293-56.27628 57.055-36.7633 13.00043-47.58463 26.22936-30.97326 37.86441 5.47958 3.83805 5.05987 4.38864-8.844 11.60221-18.29353 9.49104-18.01905 9.51144-26.79317-1.99202zm-9.10288-72.14901c-28.85322-30.59333 7.57437-81.1296 58.65215-81.36867 37.00416-0.17317 79.00578-15.48814 79.00578-28.80772 0-9.10444-7.66823-10.21316-17.96841-2.59791-24.49898 18.11286-52.14616-4.57428-29.15234-23.9223 23.75685-19.99006 77.15089-2.60213 77.15089 25.12442 0 31.29626-31.03704 52.55053-89.94244 61.59288-49.97882 7.67206-61.68048 19.01613-39.16142 37.96467 8.17677 6.88031 8.17677 6.88031-6.48036 14.55432-18.79616 9.84105-20.55884 9.70159-32.10385-2.53969zm53.28754-24.10649c0-17.16007 0-17.16007 8.58003-17.16007 8.39501 0 8.58005 0.3099 8.58005 14.37084 0 13.666-5.01306 19.94932-15.91626 19.94932-0.68412 0-1.24382-7.72204-1.24382-17.16009zm-74.39367-48.3239c-41.10592-27.60705-30.82153-66.61843 19.22919-72.9416 26.08231-3.29508 51.73767 16.32959 41.89132 32.04416-4.74568 7.57403-25.87391 8.01696-35.705 0.74852-11.9177-8.81113-19.66217-7.85903-19.66217 2.41728 0 9.29888 14.12432 18.06794 35.23615 21.87631 10.92605 1.97091 10.92605 1.97091-3.36939 10.13539-7.86252 4.49046-15.10745 9.47829-16.09987 11.08407-2.95068 4.77431-8.47462 3.39741-21.52023-5.36413zm73.42395-71.08165c-1.03078-29.49389-1.87776-64.813604-1.8822-78.48821-0.007-21.415782-0.7825-25.405358-5.59362-28.775198-25.63029-17.952161 0.30247-58.166064 28.20483-43.737182 16.16434 8.3589034 18.17332 27.754055 4.55165 43.942503-7.15086 8.498328-7.15086 8.498328-7.15086 84.590827 0 76.09251 0 76.09251-8.12784 76.09251-8.12785 0-8.12785 0-10.00196-53.62525zm-79.06466-23.78904c-4.35036-2.86863-9.49839-7.38774-11.44005-10.04249-3.3113-4.52731-4.29137-4.52783-15.79565-0.008-14.686858 5.76974-29.695698 0.75308-35.435408-11.84417-2.47082-5.42289-5.44157-7.17179-12.18228-7.17179-11.08023 0-21.62739-7.079454-21.62739-14.516724 0-4.490991-1.36703-5.269237-6.84201-3.895114-10.748788 2.697394-33.19817-12.064886-33.19817-21.83086 0-0.984159 24.774862-2.562687 55.055252-3.507834 48.347808-1.509087 57.804098-2.607303 77.618038-9.014305 31.8333-10.293503 40.4881-9.825118 47.81168 2.587396 3.20719 5.435799 8.3118 10.670539 11.34358 11.63279 11.11066 3.526396 7.96519 68.798851-3.42518 71.076941-18.21433 3.64286-43.68187 1.94158-51.88241-3.46584zm122.1289 2.83741c-11.2323-3.3344-12.79191-67.407202-1.70851-70.188965 3.876-0.972805 7.86089-4.332148 8.85529-7.465206 5.15935-16.255716 17.26801-17.8766 51.4835-6.891575 20.16798 6.474985 29.38852 7.538681 77.78647 8.973464 54.90639 1.62772 54.90639 1.62772 50.71684 9.729398-5.21059 10.076163-19.54387 17.82758-28.71086 15.526806-4.96691-1.246617-6.84202-0.52658-6.84202 2.627274 0 7.72481-10.8701 15.784564-21.2884 15.784564-7.84567 0-10.84973 1.69523-14.77276 8.33633-8.31624 14.07828-21.8991 17.84085-36.64518 10.15102-8.09341-4.22058-8.65975-4.06316-18.0188 5.00797-10.13983 9.82789-41.48532 14.15918-60.85557 8.40892z"/>
        </symbol>
        <symbol id="doctors2" viewBox="0 0 221.95349 558.12586">
            <title>doctors2</title>
            <path
                d="m93.6816 0.00082760371c-5.7405 0.536826-8.07596 6.588128-6.18554 10.873047 0.5118 5.8892 0.98775 11.787113 1.42968 17.6875 7.28552-1.16506 14.64851-1.831564 21.98047-1.964844 10.36577-0.228118 20.95769 0.06426 31.42188 1.177735 0.074-0.801033 0.14515-1.59949 0.2207-2.400391 0.45297-4.612402 4.35146-11.11227-1.18164-14.542969-8.61406-4.8302144-18.97357 3.178758-27.75-0.544922-6.79186-3.1706854-11.53575-10.374725-19.93555-10.285156zm22.56446 36.652344c-27.11161-0.02527-53.53396 6.939322-73.58204 19.621094-20.04806 12.681769-33.83409 31.430302-34.33203 54.300784l-0.002 0.11523 0.004 0.11719c0.89159 22.57146 11.77149 39.28689 27.11328 51.54492 15.34178 12.25803 35.07955 20.38446 54.59179 26.96289 19.51228 6.57844 38.86127 11.60311 53.1875 17.16993 7.16314 2.7834 13.05042 5.72331 16.97657 8.80468 3.92614 3.08138 5.7827 6.00129 6.04687 9.38086 0.39988 5.11559-1.14094 9.02406-4.51758 12.85547-3.37663 3.83141-8.73423 7.38119-15.51367 10.61719-13.55888 6.472-32.5934 11.68545-51.83398 17.81445-19.24058 6.12901-38.74077 13.17185-53.62305 23.99414s-25.11536 25.96935-24.42773 46.70508c0.53967 16.52762 11.07823 29.25189 25.52929 39.06836 14.45164 9.81686 33.0728 17.17155 51.49414 23.62695 18.42135 6.45541 36.672 11.99717 50.02735 17.74805 6.67767 2.87544 12.11703 5.82823 15.6289 8.71875s4.90412 5.36651 4.91211 7.84961c0.0226 7.32183-5.20276 13.69779-15.39843 19.92578s-24.88424 11.79032-41.4668 17.07617c-33.16512 10.5717-73.84243 20.09884-103.28516 34.39258l-3.77539 1.83398 2.21289 3.56836c1.68137 2.71064 3.64635 2.74896 5.78516 3.17578 2.13881 0.42684 4.73593 0.65361 7.87305 0.75391 6.27424 0.2006 14.65215-0.14588 24.51367-1.03125 19.72303-1.77074 45.3172-5.71324 70.8125-11.97656 25.49529-6.26332 50.86323-14.80867 70.21875-26.0293 19.35551-11.22063 33.24603-25.50979 33.42383-43.35156 0.16021-16.07939-10.12275-28.59062-24.4336-38.34375s-32.96248-17.26146-51.48242-24.0625-36.93166-12.88315-50.38672-19.30469c-6.72753-3.21077-12.19666-6.52566-15.74414-9.80469-3.54748-3.27902-5.07165-6.21745-5.04687-9.33593 0.0221-2.77788 1.56348-5.43946 5.32031-8.48633s9.54302-6.11609 16.62695-9.10352c14.16786-5.97485 33.4639-11.72169 52.84375-18.67968 19.37986-6.958 38.88567-15.11133 53.78906-26.38086 14.9034-11.26953 25.3009-26.12742 25.01368-45.37305-0.28684-19.21991-10.93011-33.60625-25.93164-44.36719-15.00153-10.76093-34.45582-18.37716-53.83399-25.19336-19.37816-6.81619-38.71324-12.82199-53.16016-19.82226-7.22345-3.50014-13.19819-7.25295-17.33593-11.26953-4.08998-3.97023-6.36434-8.04362-6.87891-12.75782 0.002-4.93389 1.63952-8.74339 4.61524-12.060538 3.01499-3.36094 7.50513-6.13415 12.92773-8.17188 10.84521-4.075466 25.26914-5.116873 37.4082-3.607425 11.05091 1.374141 22.33683 13.422625 35.75196 24.675783 8.01017 6.71931 20.29 9.59898 27.47461 11.28516 7.60198 1.78417 12.02907 0.82782 17.69336-0.64649 1.55786-0.40546 3.07297-1.94011 3.5371-3.28515 0.46414-1.34504 0.37643-2.40384 0.25391-3.37305-0.24503-1.93842-0.86555-3.70748-1.43359-5.44922-0.36761-1.12716-0.57111-1.95535-0.81836-2.86523 1.34456 0.42655 2.89569 0.98448 4.60742 1.63281 2.0215 0.76565 4.05124 1.54146 6.01758 2.00195 0.98317 0.23025 1.94082 0.41639 3.15039 0.32422 1.20956-0.0922 3.16336-0.74615 4.13672-2.50195 2.12562-3.83429 2.9768-8.579168 2.07617-13.730468 0.90457-12.506579-9.03711-25.751429-23.95508-36.451177-15.1176-10.842933-35.91859-18.97456-58.375-19.080078-7.64438-1.170091-15.35213-1.758477-23.02148-1.765625zm61.18359 25.632812c6.72356 0 12.08984 5.366293 12.08984 12.089844s-5.36629 12.089844-12.08984 12.089844c-6.72354 0-12.08984-5.366296-12.08984-12.089844s5.3663-12.089844 12.08984-12.089844zm-70.62109 33.013678c-0.64604-0.008-1.29321-0.003-1.93946 0.0117-4.11434 0.0911-8.20475 0.63764-12.14843 1.63672 0.34966 9.166958 0.63451 18.327808 0.88671 27.490228 5.58144 2.87551 11.57112 5.25195 17.37305 7.49023 8.08105 3.04565 16.37731 5.85723 24.69336 8.66797 0.40266-10.38192 0.83065-20.75836 1.30664-31.13672-5.07949-4.74874-10.23387-9.40502-16.88086-12.402338-4.26694-1.11447-8.76875-1.70465-13.29101-1.75781zm-20.81641 106.10742c-5.29809 0.11278-10.48896 2.14294-12.41992 6.66016-1.91597 7.33271 4.05692 13.86048 5.54492 20.83007 3.27693 9.27739 6.50319 18.60864 9.33984 28.01368 14.5872-4.61399 29.4566-8.61499 43.54493-14.19336 0.2391-5.28155 0.49706-10.55622 0.83789-15.83008 1.0038-3.85987 2.83145-7.6287 4.41211-11.44141-3.02702-1.11292-6.08889-2.13265-9.01954-3.1875-10.91652-3.61015-22.1553-6.90722-33.29492-10.4375 0.005 0.44355 0.021 0.88848 0.0254 1.33203-2.57397-1.19614-5.79195-1.81379-8.9707-1.74609zm43.96484 108.86914c-11.5183 3.84555-23.02877 7.68096-34.18164 12.27149 0.0174 6.42018 0.0349 12.83727 0.0508 19.25781 11.10279 5.35589 22.80081 9.71525 34.59961 13.9082 2.99753-12.58212 7.67889-24.83558 11.63086-37.16211-0.0387-5.19736-7.26278-7.34759-12.17382-6.22266 0.0243-0.68425 0.0508-1.3684 0.0742-2.05273zm-34.15625 100.79102c-0.0187 4.35477-0.0453 8.70348-0.0742 13.05664-4.8851-0.19487-9.45966 4.4681-6.70312 8.58007 3.86261 9.85118 7.73326 19.91713 7.12305 30.41602 10.48807-3.18497 20.86753-6.608 30.85351-10.83008 0.17365-10.12745 0.38431-20.24532 0.51758-30.37109-5.36449-2.02259-10.8703-3.8181-16.31445-5.58985-5.08328-1.77292-10.23445-3.51379-15.40235-5.26171zm31.14844 96.83789c-10.11105 2.92044-20.37898 5.43836-30.7539 7.57617 0.10158 14.2151 0.22404 28.42971 0.36914 42.64453 11.94059-6.52946 26.15376-12.14293 32.67773-23.84375 1.69737-4.29937-2.73645-8.00419-1.77539-12.35937-0.22144-4.67464-0.39543-9.34168-0.51758-14.01758z"/>
        </symbol>
        <symbol id="hospital" viewBox="0 0 518.2461 518.2461">
            <title>hospital</title>
            <path
                d="m259.12305 0c-142.98155 0-259.12305 116.1415-259.12305 259.12305s116.1415 259.12305 259.12305 259.12305c142.98154 0 259.12305-116.1415 259.12305-259.12305s-116.14151-259.12305-259.12305-259.12305zm0 21.628906c131.2917 0 237.49219 106.20244 237.49219 237.49414s-106.20049 237.49219-237.49219 237.49219c-131.29171 0-237.49219-106.20049-237.49219-237.49219s106.20048-237.49414 237.49219-237.49414zm-40.91797 46.357422a10.001 10.001 0 0 0 -10 10v130.21875h-130.21875a10.001 10.001 0 0 0 -9.999998 10v81.83594a10.001 10.001 0 0 0 9.999998 10h130.21875v130.21875a10.001 10.001 0 0 0 10 10h81.83594a10.001 10.001 0 0 0 10 -10v-130.21875h130.21875a10.001 10.001 0 0 0 10 -10v-81.83594a10.001 10.001 0 0 0 -10 -10h-130.21875v-130.21875a10.001 10.001 0 0 0 -10 -10h-81.83594z"/>
        </symbol>
        <symbol id="hospital_emergency" viewBox="0 0 576.44501 577.45154">
            <title>hospital_emergency</title>
            <path
                d="m287.81553 22.047509c-146.91381 0-266.2168 119.30495-266.2168 266.21875s119.30299 266.2168 266.2168 266.2168c146.9138 0 266.21875-119.303 266.21875-266.2168s-119.30495-266.21875-266.21875-266.21875zm0 19.292969c136.48743-0.000001 246.92578 110.43835 246.92578 246.92578 0 136.48744-110.43835 246.92383-246.92578 246.92383-136.48744 0-246.92578-110.43639-246.92578-246.92383 0-136.48743 110.43834-246.92578 246.92578-246.92578zm0 15.810547c-127.52761 0-231.11719 103.58762-231.11719 231.11524s103.58958 231.11719 231.11719 231.11719 231.11524-103.58957 231.11524-231.11719c0-127.52761-103.58763-231.11524-231.11524-231.11524zm0 19.291015c117.10125-0.000001 211.82227 94.72298 211.82227 211.82422 0 117.10125-94.72102 211.82422-211.82227 211.82422s-211.82422-94.72297-211.82422-211.82422c0-117.10124 94.72297-211.82422 211.82422-211.82422zm-44.55078 31.22657v136.04687h-136.04687v89.10156h136.04687v136.04688h4.85156 84.25v-136.04688h136.04688v-4.85156-84.25h-136.04688v-136.04687h-89.10156z"/>
        </symbol>
        <symbol id="hospital_emergency2" viewBox="0 0 483.39063 377.91992">
            <title>hospital_emergency2</title>
            <path
                d="m442.99024 0c-9.23468 0.000363-17.0598 2.601497-23.47266 7.802734-6.41302 5.20196-9.61919 12.90934-9.61914 23.12305-0.00005 10.21439 2.56491 27.04966 7.69531 50.50391 3.59119 17.59116 5.77138 32.059466 6.54102 43.408196l12.3125 163.42578c3.59114 0.56751 6.28632 0.85164 8.08203 0.85156 1.2825 0.00008 3.2062-0.18998 5.77148-0.56835 1.02596-2.64801 1.66723-4.72892 1.92383-6.24219l3.07813-68.09375c0.51293-18.72566 5.77113-59.48733 15.77539-122.28516 5.13024-32.72256 7.6952-53.43356 7.69531-62.13476-0.00011-9.45711-3.46284-16.78633-10.38867-21.98829-6.92611-5.201233-15.39043-7.802367-25.39453-7.80273zm-254.39063 0.496094c-104.06729 0-188.59961 84.53232-188.59961 188.59961 0 104.0673 84.53232 188.59961 188.59961 188.59961s188.59961-84.53231 188.59961-188.59961c0-104.06729-84.53232-188.59961-188.59961-188.59961zm0 15.74414c95.55899 0 172.85547 77.29649 172.85547 172.85547 0 95.55899-77.29648 172.85547-172.85547 172.85547s-172.85547-77.29648-172.85547-172.85547c0-95.558976 77.29648-172.85547 172.85547-172.85547zm-36.14453 26.33594v3.93555 106.43945h-110.375v72.28906h110.375v110.375h72.28906v-110.375h110.375v-72.28906h-110.375v-110.375h-72.28906zm292.84375 276.61328c-11.28682 0.00004-20.84228 2.88531-28.66602 8.6543-7.8238 5.76911-11.73637 12.62607-11.73632 20.57031-0.00005 6.43108 4.42553 12.95596 13.27539 19.57617 8.84981 6.62025 17.89227 9.92969 27.12695 9.92969 8.465 0 16.92937-3.40351 25.39453-10.21289 8.46494-6.80938 12.69716-13.80837 12.69727-20.99609-0.00011-7.18764-3.6562-13.57241-10.9668-19.15235-7.31087-5.57986-16.35132-8.3691-27.125-8.36914z"/>
        </symbol>
        <symbol id="opticians" viewBox="0 0 540.02698 497.76822">
            <title>opticians</title>
            <path
                d="m367.86607 0.0075371c-15.65354 0.461898-26.38591 22.504523-11 33.28125 3.42297 2.39754 3.96378 5.232059 3.96875 20.46875 0.003 9.729064 0.61037 34.859744 1.34375 55.843753 1.33337 38.15275 1.34228 38.15624 7.125 38.15625 5.78271 0 5.78124 0.0125 5.78125-54.124999 0-54.137524 0.006-54.141201 5.09375-60.187504 9.69141-11.5176 8.25045-25.334139-3.25-31.28125-3.10183-1.604017-6.1637-2.241787-9.0625-2.15625zm-41.98047 29.292969c-0.37034-0.0035-0.75099 0.0033-1.14453 0.01953-4.89744 0.2025-11.62257 1.95221-21.53125 5.15625-14.09702 4.55838-20.85199 5.332581-55.25 6.40625-21.54357 0.67244-39.15625 1.799798-39.15625 2.5 0 6.9482 15.97756 17.450621 23.625 15.53125 3.89528-0.97765 4.875-0.445198 4.875 2.750005 0 5.2914 7.49174 10.34375 15.375 10.34375 4.79582 0 6.89833 1.23552 8.65625 5.09375 4.08363 8.96256 14.76949 12.5425 25.21875 8.4375 8.18494-3.21546 8.89411-3.22104 11.25 0 1.38143 1.88878 5.02985 5.11531 8.125 7.15625 5.83443 3.84722 23.9473 5.02928 36.90625 2.4375 8.10391-1.6208 10.34242-48.053581 2.4375-50.562505-2.15702-0.68462-5.78069-4.413841-8.0625-8.28125-2.74773-4.657042-5.76908-6.936151-11.32422-6.988281zm84.82422 0.269531c-7.11289 0.173487-10.74771 3.369431-12.8125 9.875-0.70749 2.22907-3.52358 4.620372-6.28125 5.3125-7.8855 1.97913-6.77268 47.565184 1.21875 49.937504 13.78135 4.09113 36.06705 1.02349 43.28125-5.96875 6.65868-6.45385 7.05427-6.56532 12.8125-3.5625 10.4914 5.47108 20.177 2.79752 26.09375-7.21875 2.79112-4.72494 4.91805-5.9375 10.5-5.9375 7.41231 0 15.15628-5.75403 15.15625-11.250004 0-2.24387 1.3412-2.73069 4.875-1.84375 6.52204 1.63692 16.69911-3.89362 20.40625-11.0625 2.98074-5.7641 3.00173-5.748178-36.0625-6.90625-34.43368-1.02081-40.99483-1.799476-55.34375-6.40625-10.65019-3.419286-18.31151-5.103685-23.84375-4.96875zm-83.625 78.468753c-1.15133 0.0238-2.30895 0.10348-3.46875 0.25-35.60957 4.49874-42.90185 32.23342-13.65625 51.875 9.28157 6.23358 13.21318 7.24053 15.3125 3.84375 0.70608-1.14246 5.84355-4.71143 11.4375-7.90625 10.17078-5.80879 10.1798-5.78526 2.40625-7.1875-15.02044-2.70955-25.06251-8.97786-25.0625-15.59375 0-7.31129 5.48968-7.98761 13.96875-1.71875 6.99453 5.17126 22.02985 4.85744 25.40625-0.53125 6.56755-10.48166-9.07375-23.38804-26.34375-23.03125zm82.5 0.28125c-7.59751-0.16244-14.93679 1.68052-20.21875 6.125-16.35941 13.76552 3.31972 29.91801 20.75 17.03125 7.32827-5.41802 12.78124-4.63379 12.78125 1.84375 0 9.47648-29.89141 20.37679-56.21875 20.5-36.3403 0.17009-62.24694 36.14003-41.71875 57.90625 8.21393 8.7093 9.47086 8.78286 22.84375 1.78125 10.42811-5.45983 10.44252-5.44861 4.625-10.34375-16.02164-13.48132-7.71466-21.54156 27.84375-27 41.90942-6.43335 63.99999-21.57739 64-43.84375 0-13.56204-17.97297-23.64263-34.6875-24zm1.78125 66.53125c-0.72203 0.0351-1.45062 0.35719-2.1875 0.96875-1.63295 1.35523-7.26992 3.0601-12.53125 3.78125-7.73254 1.05987-9.31344 1.91943-8.21875 4.5625 3.22868 7.79556 2.92993 10.06682-2.0625 16-3.41053 4.05318-10.4746 8.26941-19.96875 11.875-36.59845 13.89913-49.23131 32.30081-34.96875 51 6.24253 8.18437 6.04719 8.15883 19.0625 1.40625 9.89218-5.13224 10.21105-5.51934 6.3125-8.25-11.81849-8.27799-4.12473-17.68808 22.03125-26.9375 29.94168-10.58815 42.88262-23.71672 40.03125-40.59375-1.50052-8.88153-4.37122-13.96449-7.5-13.8125zm-42.375 7.5c-6.10443 0-6.12499 0.01-6.125 12.21875 0 6.71488 0.41952 12.1875 0.90625 12.1875 7.75731 0 11.31249-4.46454 11.3125-14.1875 0-10.00393-0.12095-10.21875-6.09375-10.21875zm28.53125 45.375c-1.27448-0.0679-2.76007 0.60687-5.25 1.84375-3.29421 1.6364-11.25238 4.59659-17.6875 6.5625-11.70017 3.57437-11.71874 3.55867-11.71875 13.4375 0 9.87884 0.0206 9.87802 6.125 7.75 5.54587-1.9333 6.09374-2.95324 6.09375-11.15625 0-8.36376 0.30475-8.86936 4.03125-6.875 13.35803 7.14902 7.42142 17.5964-14 24.6875-24.18185 8.0049-36.70527 28.22364-25.3125 40.8125 4.13346 4.56742 3.2409 4.64759 11.28125-0.84375 5.23687-3.57666 6.55673-5.78191 6.0625-10.0625-0.72572-6.28571 2.29632-8.25458 24.5625-15.96875 26.74598-9.2662 35.81833-28.90201 21.21875-45.875-2.50083-2.90738-3.76763-4.22522-5.40625-4.3125zm-210.11914 0.88086c-7.61765-0.11753-15.1612 0.83068-22.81055 2.55469-20.39826 4.59734-41.75926 14.28617-69.855469 23.66015-40.85558 13.631-67.032786 24.55115-81.564449 35.47852-7.2658316 5.46368-11.9689 11.21721-12.984375 17.93945-1.015476 6.72224 2.15981 13.1628 7.490234 18.72656 4.1938896 4.37749 7.0508986 11.16498 10.664062 28.19532 8.800036 41.47806 30.64845 72.77812 56.494141 87.85742 25.845686 15.0793 56.469646 12.95768 78.386716-11.94141 6.2628-7.11493 14.26745-19.81621 21.04492-32.03711 3.38874-6.11044 6.42142-12.05057 8.65625-17.06445 1.9227-4.31359 3.34814-7.3914 3.72852-10.83789 0.73587 0.0528 1.32576-0.002 4.19726 0.52539 6.00757 1.10396 8.82631 2.59856 9.11915 2.73242-0.0805 0.45324-0.40228 1.5312-1.2793 3.16992-1.77199 3.31099-2.87536 7.31182-2.24805 11.83789 0.62732 4.52608 2.42366 9.73002 5.58594 18.4004 20.18103 55.33298 52.09184 83.37291 98.55859 88.38281 14.64464 2.57811 28.0227 2.52428 41.36914-4.13281a5.0005 5.0005 0 0 0 0.041 -0.0215c25.17488-12.84326 38.52651-29.44757 52.3418-64.67578 3.75184-9.56701 6.02063-14.59226 7.81054-16.95508 1.78992-2.36282 3.03947-2.90313 7.58789-4.4668 6.63343-2.28047 17.12906-7.91047 24.96094-13.13671 7.35062-4.90513 20.01751-12.98535 27.94336-17.82422 8.35046-5.09809 23.16874-15.44725 33.51367-23.37305 1.86261-1.42705 3.16041-1.87938 3.76758-1.96484 0.60717-0.0855 0.62078-0.0564 1.04102 0.24023 0.84048 0.59331 2.64897 3.48826 3.8164 7.57031 1.16743 4.08206 1.94779 9.08318 2.54492 13.49805 0.59714 4.41487 0.76976 7.75067 1.80079 10.84375 1.12409 3.37228 2.57187 6.12312 4.9707 8.14453s6.21354 2.7947 9.17969 1.71484c5.93229-2.15967 8.84908-7.86857 11.37695-15.74414 5.73848-17.87813 7.46694-37.56237 2.28516-51.5-2.59089-6.96881-7.52898-12.88039-14.79102-14.5996-7.26204-1.71923-15.58961 0.67975-25.09766 6.8789-33.90342 22.10468-56.37833 34.34877-74.42968 38.89844-18.05136 4.54967-31.88871 1.96999-50.84961-6.49805-31.24138-13.95254-55.54669-22.19351-76.98243-25.05469-21.43569-2.86117-39.98431-0.17783-58.74414 7.38868-11.17031 4.50538-13.49844 4.83624-20.71093 2.94922-5.65114-1.47855-17.52323-4.04591-26.88672-5.83594-12.86166-2.45879-17.89808-4.85832-28.81836-13.75391-9.08392-7.3997-20.40554-14.34784-31.20117-19.59375s-20.72141-8.89862-28.607419-9.125c-3.09544-0.0888-5.52188-0.35587-7.59961-0.62695 2.28928-1.25835 5.24292-2.72125 9.132809-4.34766 7.06409-2.95357 16.65994-6.4307 28.70703-10.38867 16.66186-5.47412 32.67862-12.11338 48.61133-13.75586s31.74677 1.26072 49.68945 15.54688c7.89865 6.28901 11.67934 9.92199 17.10352 11.01171 2.71209 0.54486 6.21888-0.66209 7.99414-2.52929 1.77525-1.8672 2.62842-3.82385 3.6582-6.08399 1.27495-2.79818 2.34999-5.58284 2.21875-8.85742s-1.78252-6.47605-4.25-9.0332c-4.93496-5.1143-13.19214-9.608-28.14648-17.59375-13.93722-7.44261-26.83908-10.59709-39.53516-10.79297zm199.93164 51.90039c-5.65281 0.1925-13.39329 3.07856-22.46875 8.6875-5.84168 3.61035-2.01239 9.26753 4.125 6.09375 3.35745-1.7362 6.09374-4.24823 6.09375-5.5625 0-1.75457 0.58724-1.78779 2.25-0.125 3.46597 3.46597 0.49482 6.43536-12.09375 12-8.57862 3.79207-14.70553 7.75909-18.375 11.90625 6.17677 2.51294 12.47307 5.06083 18.90625 7.40625 1.31731-0.44859 2.86984-0.8094 4.71875-1.15625 19.35061-3.63019 26.96876-11.98935 26.96875-29.53125 0-6.67648-3.71848-9.93691-10.125-9.71875zm-304.9082 30.74805c11.88411 0.15401 23.187819 4.36784 32.738279 11.64062 15.28073 11.63645 25.84281 31.15544 25.85156 54.53906 0.008 21.03506-5.66265 35.02944-14.17578 41.84766s-20.66257 7.76567-37.078129 0.30859c-19.124607-8.6877-34.449056-32.25738-40.318352-55.19531-2.934648-11.46896-3.511125-22.69163-1.5625-31.39258 1.948625-8.70094 6.018455-14.59815 12.78125-17.42382 7.294432-3.04782 14.633204-4.41663 21.763672-4.32422zm310.62695 5.06445c-0.64165-0.0278-1.35617 0.17678-2.1875 0.625-2.51808 1.35767-9.62596 4.03109-15.78125 5.9375-0.69355 0.2148-1.2857 0.41861-1.90625 0.625 7.04736 2.3703 14.14659 4.43203 21.21875 5.96875 2.83716-6.02346 2.26051-13.0001-1.34375-13.15625zm-120.28125 35.13086c8.36706-0.12237 17.63945 1.09524 26.91211 3.53906 28.25954 7.44785 55.85206 26.38177 61.51953 48.23047 5.96898 23.01095-1.55934 42.87106-16.2207 55.34375-14.66137 12.47269-36.57327 17.46033-60.08008 9.13672-17.62827-6.24205-32.44116-21.60011-41.07617-40.21875s-10.98407-40.26842-4.625-58.54883c3.0263-8.69968 10.36855-13.79807 21.29687-16.16992 2.73208-0.59296 5.66416-0.98437 8.7461-1.17774 1.15572-0.0725 2.33205-0.11728 3.52734-0.13476z"/>
        </symbol>
        <symbol id="pharmacy" viewBox="0 0 393.12891 393.12695">
            <title>pharmacy</title>
            <path
                d="m0 0.0000060000001v10.583984 382.54297h393.1289v-393.12696h-393.1289zm21.16992 21.167968h350.79101v350.79102h-350.79101v-350.79102zm113.96679 32.53907v81.427726h-81.42968v122.85742h81.42968v81.42774h122.85547v-81.42774h81.42969v-122.85742h-81.42969v-81.427726h-122.85547z"/>
        </symbol>
        <symbol id="pharmacy_dispensing" viewBox="0 0 437.12891 437.12891">
            <title>pharmacy_dispensing</title>
            <path
                d="m0 0v10 427.12891h437.1289v-437.12891h-437.1289zm20 20h397.1289v397.12891h-397.1289v-397.12891zm13.529292 12.955078v10.000009 361.42773h371.42969v-371.42774h-371.42969zm20 20.000009h331.42969v331.42773h-331.42969v-331.42773zm104.28711 22.85742v81.427733h-81.429678v122.85742h81.429678v81.42774h122.85547v-81.42774h81.42969v-122.85742h-81.42969v-81.427733h-122.85547z"/>
        </symbol>
        <symbol id="veterinary" viewBox="0 0 505.46945 506.52423">
            <title>veterinary</title>
            <path
                d="m159.0625 0.00736697c-15.65355 0.461893-26.38398 22.51429-10.99805 33.291016 3.42297 2.397544 3.97354 5.23596 3.97852 20.472656 0.003 9.72906 0.60646 34.859749 1.33984 55.843761 1.33337 38.15275 1.33251 38.15234 7.11523 38.15234 5.78271 0 5.78321-0.001 5.78321-54.138672 0-54.137524 0.00027-54.137295 5.08789-60.183601 9.69141-11.517591 8.26216-25.316569-3.23828-31.263669-3.10183-1.604019-6.16956-2.259364-9.06836-2.173828zm-43.11133 29.316406c-4.89744 0.2025-11.64991 1.940492-21.558596 5.144532-14.09702 4.558383-20.82463 5.3404-55.222652 6.414062-21.543579 0.672444-39.169922 1.793943-39.169922 2.494141 0 6.948203 15.9717 17.452583 23.619141 15.533203 3.895284-0.97765 4.869141-0.423716 4.869141 2.771484 0 5.29139 7.503472 10.328133 15.386718 10.328133 4.79582 0 6.908095 1.24333 8.666016 5.10156 4.083629 8.96256 14.763632 12.53273 25.212888 8.42773 8.18494-3.21546 8.88239-3.21518 11.23828 0.006 1.38143 1.88878 5.04352 5.10359 8.13868 7.14453 5.834426 3.84722 23.953166 5.05663 36.912106 2.46485 8.10391-1.6208 10.34241-48.059442 2.4375-50.568366-2.15702-0.684614-5.7885-4.409931-8.07032-8.277344-2.9309-4.967507-6.16228-7.244731-12.45898-6.984375zm85.96289 0.244141c-7.11289 0.173487-10.74381 3.385055-12.80859 9.890625-0.7075 2.229071-3.54117 4.620372-6.29883 5.3125-7.8855 1.979136-6.7766 47.563219 1.21484 49.935549 13.78135 4.09113 36.08269 1.00982 43.29688-5.98242 6.65868-6.45385 7.06209-6.56532 12.82031-3.5625 10.4914 5.47108 20.15551 2.79361 26.07226-7.22266 2.79112-4.72494 4.92782-5.92968 10.50977-5.92968 7.41231 0 15.14648-5.734507 15.14648-11.230476 0-2.24386 1.33339-2.756071 4.86719-1.869141 6.52204 1.63693 16.72057-3.877993 20.42774-11.046875 2.98074-5.764102 2.98025-5.763806-36.08399-6.921875-34.43368-1.020812-40.99484-1.778-55.34375-6.384766-10.65019-3.419285-18.28806-5.123215-23.82031-4.988281zm-83.61914 78.468756c-1.15134 0.0238-2.31091 0.10738-3.47071 0.25391-35.609566 4.49874-42.925286 32.2549-13.67968 51.89648 9.28157 6.23358 13.21122 7.21319 15.31054 3.81641 0.70608-1.14246 5.86114-4.6919 11.45508-7.88672 10.17078-5.80879 10.17004-5.8087 2.39649-7.21094-15.02044-2.70955-25.07032-8.94857-25.07032-15.56445 0-7.31129 5.51116-7.98761 13.99024-1.71875 6.99453 5.17126 22.02594 4.85548 25.40234-0.53321 6.56756-10.48166-9.06398-23.40952-26.33398-23.05273zm82.5 0.29687c-7.59752-0.16244-14.93874 1.68443-20.22071 6.12891-16.35941 13.76552 3.31191 29.90628 20.74219 17.01953 7.32827-5.41802 12.78321-4.62792 12.78321 1.84961 0 9.47648-29.88359 20.37289-56.21094 20.4961-36.3403 0.17009-62.256706 36.12439-41.72852 57.89062 8.21393 8.7093 9.4689 8.80825 22.8418 1.80664 10.42811-5.45983 10.42689-5.46034 4.60937-10.35547-16.02164-13.48132-7.69513-21.55132 27.86329-27.00976 41.90942-6.43335 63.99023-21.55592 63.99023-43.82227 0-13.56204-17.95539-23.64653-34.66992-24.00391zm1.77929 66.5254c-0.72202 0.0351-1.45843 0.34938-2.19531 0.96093-1.63295 1.35523-7.27382 3.05425-12.53515 3.77539-7.73254 1.05987-9.30563 1.937-8.21094 4.58008 3.22868 7.79556 2.9358 10.06877-2.05664 16.00196-3.41053 4.05317-10.49414 8.25768-19.98828 11.86328-36.59845 13.89913-49.21375 32.31056-34.95118 51.00976 6.24253 8.18437 6.0472 8.17056 19.0625 1.41797 9.89218-5.13224 10.19153-5.5252 6.29297-8.25586-11.81849-8.27799-4.12082-17.69004 22.03516-26.93945 29.94168-10.58815 42.89043-23.71476 40.03906-40.5918-1.50051-8.88153-4.36341-13.97426-7.49219-13.82226zm-42.39648 7.5c-6.10443 0-6.10547 0.0001-6.10547 12.20898 0 6.71488 0.39804 12.20898 0.88477 12.20898 7.75731 0 11.32422-4.47039 11.32422-14.19336 0-10.00392-0.13072-10.2246-6.10352-10.2246zm216.12695 42.57812c-5.01086 0.0847-8.36718 0.82031-8.36718 0.82031-20.93275 4.97485-30.72657 28.23243-30.72657 28.23243-9.65634 22.38155-4.67187 45.23242-4.67187 45.23242 7.22801 32.59887 33.57422 27.20312 33.57422 27.20312 17.70676-1.15259 30.60937-22.10351 30.60937-22.10351 14.65636-19.71849 16.50196-37.12891 16.50196-37.12891 3.42888-26.50015-13.00977-36.39648-13.00977-36.39648-8.29051-4.99904-17.46762-5.96834-23.91016-5.85938zm-187.57617 2.81055c-1.27448-0.0679-2.77569 0.60295-5.26562 1.83984-3.29421 1.6364-11.25435 4.58486-17.68946 6.55078-11.70017 3.57437-11.70117 3.57429-11.70117 13.45313s0.001 9.87802 6.10547 7.75c5.54587-1.9333 6.10352-2.95325 6.10352-11.15625 0-8.36376 0.29694-8.87133 4.02343-6.87696 13.35803 7.14902 7.4429 17.59444-13.97851 24.68555-24.18185 8.0049-36.73065 28.21389-25.33789 40.80274 4.13346 4.56742 3.25263 4.63392 11.29297-0.85743 5.23687-3.57666 6.5665-5.778 6.07226-10.05859-0.72572-6.28571 2.27289-8.23504 24.53906-15.94922 26.74598-9.2662 35.83786-28.9059 21.23829-45.8789-2.50083-2.90738-3.76373-4.21741-5.40235-4.30469zm96.9668 10.52539c-8.41314 0.24856-16.78438 4.17344-22.87695 9.93554-12.2049 12.75078-16.48487 30.96308-16.99219 48.12891-0.59368 7.88735 1.50126 15.70581 4.91211 22.76758 5.58365 12.12638 18.24984 20.73892 31.70117 20.66601 9.52436 1.34451 19.56781-2.06324 25.99023-9.30859 5.80706-5.9161 8.64604-13.88571 10.55274-21.78515 4.20787-16.38858 5.29231-34.66504-2.20899-50.29688-4.63699-7.68956-11.46861-14.40169-19.78906-17.99414-3.63145-1.57931-7.46491-2.22626-11.28906-2.11328zm172.30664 36.69726c-14.60301-0.14523-27.2168 7.43555-27.2168 7.43555-24.56983 11.42193-33.04687 45.02344-33.04687 45.02344-3.06811 32.22282 16.35742 36.87305 16.35742 36.87305 16.19074 6.55399 39.78906-7.74024 39.78906-7.74024 21.10533-10.41898 31.01758-29.73633 31.01758-29.73633 15.97422-21.89073-0.76172-39.94336-0.76172-39.94336-7.89842-8.95715-17.37686-11.82497-26.13867-11.91211zm-278.37891 5.55078c-5.73063-0.17811-13.882 2.71049-23.5625 8.69336-5.84168 3.61035-2.0202 9.24995 4.11719 6.07618 3.35745-1.7362 6.10352-4.23262 6.10352-5.54688 0-1.75457 0.60285-1.78778 2.26562-0.125 3.46597 3.46597 0.47138 6.43146-12.11719 11.9961-22.22881 9.82595-27.92226 20.73689-17.36523 33.2832 6.50448 7.73012 9.70267 7.09362 10.5957-2.11133 0.87907-9.06059 2.98093-11.33915 12.02149-13.03516 19.35061-3.63019 26.98242-11.98152 26.98242-29.52343 0-6.28375-3.31039-9.52892-9.04102-9.70704zm4.63867 35.81641c-0.64165-0.0278-1.3796 0.16115-2.21093 0.60938-2.51808 1.35767-9.61423 4.02719-15.76953 5.93359-8.44595 2.61586-11.35109 4.52391-11.8418 7.77734-0.82795 5.48931 1.20344 5.45708 7.13281-0.11328 3.61909-3.39997 4.70899-3.71032 4.70899-1.33984 0 1.69656-8.75657 8.71866-19.45899 15.60351-10.70245 6.88483-18.93328 13.36899-18.29101 14.40821 1.89207 3.06142 48.26654-18.75025 54.35351-25.56446 5.65984-6.33603 5.86851-17.11986 1.37695-17.31445zm158.80274 19.04102c-10.09767 0.0205-19.10232 6.90014-27.57422 11.92383-7.89841 5.63949-17.54626 4.9639-26.66406 4.20117-21.68295-1.25057-46.04542 6.2429-57.71094 25.80273-8.48659 12.60449-9.19048 29.35738-2.42187 42.87305 6.12467 11.05428 12.89295 22.44928 23.82031 29.44922 10.95525 8.27282 24.77945 9.89406 37.63086 13.34375 14.14214 3.30957 21.55584 16.81966 31.64258 25.90429 15.20475 15.18395 38.18911 20.52175 58.92773 16.19922 20.04659-6.42924 36.30165-26.6823 35.14453-48.24609-2.27275-14.90765-9.55874-28.65526-17.57812-41.26367-2.48395-10.5498-2.1153-21.45533-2.74805-32.20313 0.62207-17.22571-13.46724-29.66017-25.98633-39.21875-6.46144-3.68359-13.42421-6.62896-20.75781-8.01562-1.94844-0.52201-3.85467-0.75379-5.72461-0.75zm-168.26172 11.24804c-15.29736-0.38166-29.06807 22.81965-17.41797 41.66993 1.59466 2.5802 5.76786 0.82233 6.23242-2.625 0.21374-1.58597 0.97124-9.88641 1.68164-18.44532 1.2916-15.56162 1.29134-15.56249 12.56641-11.59961 12.66019 4.44968 15.30421 3.75808 9.62305-2.51953-3.99801-4.41775-8.40229-6.3736-12.68555-6.48047zm301.5 19.07032c-3.74398-0.0699-7.51603 0.35886-11.10742 1.09375-12.28941 2.00861-22.99701 9.13675-32.6875 16.5957-10.7616 7.64118-17.33289 20.32568-18.25195 33.40625-0.48677 3.87109-0.26658 7.82113 1.95898 11.1582 4.5851 9.59817 13.79962 17.67161 24.79883 18.07031 15.08796-0.37022 30.02881-5.73959 42.00195-14.92187 7.85464-6.47864 15.19087-14.09039 19.49805-23.4375 4.96913-10.29772 3.71508-23.50434-4.08203-32.07227-1.34238-1.68389-2.89946-3.19734-4.63086-4.47851-5.09832-3.79305-11.25809-5.29761-17.49805-5.41406z"/>
        </symbol>
        <symbol id="dentist" viewBox="0 0 576.44501 577.45154">
            <title>dentist</title>
            <path d="m64.571 0.06355556c-41.335 0-64.571 21.371-64.571 65.036v450.123c0 40.844 20.895 62.229 62.192 62.229h452.024c41.307 0 62.229-20.315 62.229-62.229v-450.123c0-42.601-20.922-65.036-63.521-65.036-0.004 0-448.495-0.143-448.353 0z"/>
            <path
                fill="#fff"
                d="m183.09288 16.818994c-16.14684 0.476451-27.21453 23.225464-11.34376 34.341796 3.53085 2.473098 4.0984 5.40034 4.10352 21.117188 0.003 10.035651 0.62632 35.956282 1.38281 57.601562 1.37539 39.35505 1.3749 39.35547 7.33985 39.35547 5.96494 0 5.96484-0.0002 5.96484-55.84375 0-55.843545 0.0001-55.843237 5.24805-62.080079 9.99681-11.880547 8.523-26.115483-3.33985-32.25-3.19957-1.654565-6.36531-2.330419-9.35546-2.242187zm-44.46876 30.240234c-5.05176 0.208881-12.01734 2.001633-22.23828 5.30664-14.54126 4.702031-21.480887 5.507739-56.962887 6.615235-22.22248 0.693634-40.404297 1.851956-40.404297 2.574219 0 7.167161 16.474847 18.001349 24.363282 16.021484 4.018035-1.008459 5.021484-0.436515 5.021484 2.859375 0 5.458137 7.741377 10.652344 15.873047 10.652344 4.94695 0 7.126134 1.283862 8.939453 5.263672 4.212316 9.245003 15.227314 12.927723 26.005858 8.693363 8.44287-3.31679 9.16167-3.31668 11.5918 0.006 1.42497 1.9483 5.20378 5.26388 8.39648 7.36914 6.01829 3.96845 24.70886 5.21838 38.07617 2.54492 8.35929-1.67187 10.66769-49.576077 2.51368-52.164065-2.225-0.706188-5.97049-4.547823-8.32422-8.537109-3.02327-5.124048-6.35643-7.473639-12.85157-7.205078zm88.66993 0.251953c-7.33704 0.178954-11.07914 3.492546-13.20899 10.203125-0.72979 2.299316-3.65544 4.764577-6.5 5.478516-8.134 2.041505-6.98936 49.062688 1.25391 51.509768 14.21564 4.22006 37.22058 1.04267 44.66211-6.16992 6.86852-6.65723 7.28298-6.77323 13.22265-3.67578 10.82202 5.64349 20.79133 2.88269 26.89454-7.449225 2.87907-4.873832 5.08393-6.11914 10.84179-6.11914 7.64589 0 15.62305-5.914821 15.62305-11.583985 0-2.31457 1.37632-2.842614 5.02148-1.927734 6.72756 1.688514 17.24632-3.999737 21.07032-11.394531 3.07467-5.945746 3.07456-5.946062-37.22071-7.140625-35.51878-1.052981-42.28484-1.833999-57.08593-6.585938-10.98581-3.527037-18.86764-5.283718-24.57422-5.144531zm-86.25391 80.941409c-1.18761 0.0245-2.38178 0.11058-3.57812 0.26172-36.73173 4.64051-44.280506 33.27071-14.11329 53.53125 9.57406 6.43002 13.62945 7.44132 15.79493 3.9375 0.72833-1.17846 6.04423-4.83927 11.81445-8.13477 10.49129-5.99184 10.49117-5.99302 2.47266-7.43945-15.49378-2.79494-25.85938-9.23032-25.85938-16.05469 0-7.54169 5.68341-8.23984 14.42969-1.77343 7.21495 5.33422 22.72228 5.00968 26.20508-0.54883 6.77451-10.81196-9.35179-24.14733-27.16602-23.7793zm85.10156 0.30664c-7.83693-0.16756-15.409 1.73773-20.85742 6.32227-16.87494 14.19932 3.41497 30.84949 21.39453 17.55664 7.5592-5.58875 13.18555-4.77541 13.18555 1.90625 0 9.77511-30.82347 21.01549-57.98047 21.14258-37.48549 0.17545-64.22001 37.26269-43.04492 59.71484 8.47278 8.98375 9.76623 9.08553 23.56055 1.86328 10.75673-5.63189 10.7567-5.63225 4.75586-10.68164-16.52653-13.90615-7.93874-22.23088 28.74023-27.86133 43.2301-6.63609 66.00781-22.23315 66.00781-45.20117 0-13.98942-18.52046-24.39308-35.76172-24.76172zm1.83594 68.6211c-0.74478 0.0362-1.50553 0.36135-2.26562 0.99218-1.68441 1.39794-7.50256 3.14871-12.92969 3.89258-7.97621 1.09327-9.59989 2.00019-8.47071 4.72656 3.33043 8.04122 3.02868 10.3857-2.12109 16.50586-3.518 4.18091-10.82581 8.51711-20.61914 12.23633-37.75177 14.33713-50.7628 33.32873-36.05078 52.61719 6.43925 8.44228 6.23666 8.42828 19.66211 1.46289 10.20391-5.29397 10.51164-5.69892 6.49023-8.51563-12.19093-8.53886-4.24781-18.24818 22.73243-27.78906 30.88523-10.92181 44.24005-24.46221 41.29882-41.87109-1.5478-9.16142-4.49919-14.4146-7.72656-14.25781zm-43.73437 7.73632c-6.2968 0-6.29688 0.00013-6.29688 12.59375 0 6.92648 0.41004 12.59375 0.91211 12.59375 8.00177 0 11.68164-4.61126 11.68164-14.64062 0-10.31918-0.13585-10.54688-6.29687-10.54688zm152.37695 16.95899c-12.99515 0.0882-24.97465 5.68319-35.00195 16.88867-12.60872 14.09011-15.81234 34.53982-19.66993 125.50195-3.55841 83.90782-2.24492 111.09704 5.76563 119.33203 14.37472 14.77774 37.80032 0.97996 59.91406-35.29101 22.17665-36.37412 28.46806-30.09808 15.90039 15.86133-7.89293 28.86401-7.86088 38.43697 0.16602 47.99023 15.33173 18.24722 28.03943 14.4303 54.8457-16.47656 13.49435-15.5586 24.5156-31.70716 24.49024-35.88672-0.0254-4.17955 17.66261-27.39604 39.30859-51.5918 55.75946-62.3272 62.56794-104.08626 21.8457-133.99218-18.51217-13.59518-25.83575-14.56396-54.24219-7.16993-31.5123 8.20246-33.94313 7.4576-60.13671-18.41992-18.08812-17.86998-36.4775-26.85949-53.18555-26.74609zm-122.92578 29.85937c-1.31465-0.07-2.86325 0.62258-5.43164 1.89844-3.39802 1.68797-11.61015 4.72994-18.24805 6.75781-12.06888 3.68701-12.06836 3.68681-12.06836 13.87696s0.00008 10.18922 6.29688 7.99414c5.72064-1.99423 6.29687-3.04632 6.29687-11.50782 0-8.62732 0.30646-9.15096 4.15039-7.09375 13.77898 7.37431 7.67849 18.14832-14.41797 25.46289-24.94389 8.25717-37.89045 29.10234-26.13867 42.0879 4.26372 4.71136 3.35668 4.78158 11.65039-0.88282 5.4019-3.68937 6.77154-5.95951 6.26172-10.375-0.74859-6.48379 2.34466-8.49389 25.3125-16.45117 27.58883-9.5582 36.96784-29.8183 21.9082-47.32617-2.57964-2.999-3.88201-4.35138-5.57226-4.44141zm-9.39258 54.4375c-5.91122-0.18372-14.31913 2.79538-24.30469 8.9668-6.02577 3.72412-2.08469 9.54136 4.2461 6.26758 3.46326-1.79091 6.29687-4.36502 6.29687-5.72071 0-1.80985 0.62077-1.84408 2.33594-0.1289 3.57519 3.57519 0.48723 6.63306-12.49805 12.37305-22.9293 10.13559-28.80183 21.3923-17.91211 34.33398 6.70945 7.97372 10.00851 7.31533 10.92969-2.17969 0.90677-9.34612 3.07298-11.69586 12.39844-13.44531 19.9604-3.74459 27.83398-12.35843 27.83398-30.45313 0-6.48176-3.41495-9.82994-9.32617-10.01367zm4.78516 36.94532c-0.66188-0.0287-1.42177 0.16655-2.2793 0.6289-2.59743 1.40046-9.91831 4.15462-16.26758 6.1211-8.7121 2.69829-11.70867 4.66553-12.21484 8.02148-0.85405 5.6623 1.2412 5.62871 7.35742-0.11719 3.73314-3.50711 4.85742-3.82604 4.85742-1.38086 0 1.75003-9.03257 8.99194-20.07226 16.09375-11.03972 7.10179-19.5297 13.78936-18.86719 14.86133 1.9517 3.15789 49.78761-19.3402 56.0664-26.36914 5.8382-6.5357 6.05303-17.65865 1.41993-17.85937zm-9.75586 31.24414c-15.77943-0.39369-29.98598 23.53811-17.96875 42.98242 1.64491 2.66151 5.95048 0.84698 6.42968-2.70899 0.22048-1.63595 1.0016-10.19677 1.73438-19.02539 1.3323-16.05201 1.33251-16.0526 12.96289-11.96484 13.05915 4.5899 15.78597 3.87583 9.92578-2.59961-4.12399-4.55696-8.66574-6.57336-13.08398-6.68359z"/>
        </symbol>
        <symbol id="doctors" viewBox="0 0 576.44501 577.45154">
            <title>doctors</title>
            <path d="m64.571 0.06355556c-41.335 0-64.571 21.371-64.571 65.036v450.123c0 40.844 20.895 62.229 62.192 62.229h452.024c41.307 0 62.229-20.315 62.229-62.229v-450.123c0-42.601-20.922-65.036-63.521-65.036-0.004 0-448.495-0.143-448.353 0z"/>
            <path
                fill="#fff"
                d="m290.47156 561.80416c-20.95962-33.91338 16.62205-77.84493 42.31055-49.45944 7.9851 8.82343 4.26894 9.79674-13.52547 3.54253-15.84758-5.56999-15.84758-5.56999-17.66298 16.3025-0.99849 12.02991-2.06122 23.69639-2.36163 25.92554-0.65297 4.84535-6.51911 7.31545-8.76047 3.68887zm-40.55517-40.87345c-0.90273-1.46067 10.66634-10.57327 25.70907-20.25019 15.04269-9.67693 27.35039-19.54546 27.35039-21.93006 0-3.33179-1.5326-2.89585-6.61937 1.88294-8.33398 7.82938-11.18833 7.87474-10.02462 0.15929 0.68972-4.57282 4.77285-7.25446 16.64399-10.93115 8.65153-2.67954 18.62583-6.43317 22.1651-8.34143 9.34778-5.03999 10.2625 13.30189 1.17092 23.47966-8.5555 9.57763-73.7361 40.23389-76.39548 35.93094zm14.80443-34.17825c-14.83834-17.63435-6.83649-32.97217 24.40702-46.78295 17.69375-7.82131 21.9024-11.98746 17.03083-16.85903-2.33709-2.33709-3.18282-2.29039-3.18282 0.17574 0 1.84723-3.86102 5.35518-8.58005 7.79548-8.62636 4.46088-13.99538-3.46559-5.78466-8.54008 27.21266-16.81836 45.82486-16.23987 45.82486 1.42425 0 24.65589-10.72823 36.39402-37.92629 41.4964-12.70688 2.38382-15.65975 5.58587-16.89531 18.3209-1.2552 12.93793-5.75128 13.83429-14.89358 2.96929zm-11.35194-42.31089c-16.01298-17.69413 1.62676-46.09867 35.61533-57.34988 30.10867-9.96685 38.42136-24.64721 19.64611-34.69545-5.23774-2.80315-5.65447-2.09087-5.65447 9.66473 0 11.52966-0.78511 12.96459-8.58005 15.68194-8.58003 2.99101-8.58003 2.99101-8.58003-10.89411 0-13.8851 0-13.8851 16.44507-18.90902 9.0448-2.76318 20.23334-6.90582 24.86348-9.20585 7.99931-3.9737 8.74571-3.80127 14.99464 3.46351 20.52028 23.85625 7.74143 51.46168-29.85113 64.48572-31.29601 10.84257-35.51133 13.58223-34.4913 22.41707 0.69467 6.01653-1.17221 9.1094-8.53285 14.13653-11.30103 7.71832-10.06505 7.62451-15.8748 1.20481zm-11.73777-58.67503c-20.04664-26.28249-2.31558-52.16024 49.12504-71.69602 13.3444-5.06782 23.30222-10.9777 28.09586-16.67462 7.01707-8.33934 7.42746-11.5338 2.88942-22.49077-1.53864-3.71496 0.67364-4.94908 11.54204-6.43878 7.39502-1.01358 15.32338-3.40138 17.61856-5.30621 5.52378-4.58437 11.02004 2.71267 13.61579 18.0768 4.0077 23.72138-14.19202 42.17293-56.27628 57.055-36.7633 13.00043-47.58463 26.22936-30.97326 37.86441 5.47958 3.83805 5.05987 4.38864-8.844 11.60221-18.29353 9.49104-18.01905 9.51144-26.79317-1.99202zm-9.10288-72.14901c-28.85322-30.59333 7.57437-81.1296 58.65215-81.36867 37.00416-0.17317 79.00578-15.48814 79.00578-28.80772 0-9.10444-7.66823-10.21316-17.96841-2.59791-24.49898 18.11286-52.14616-4.57428-29.15234-23.9223 23.75685-19.99006 77.15089-2.60213 77.15089 25.12442 0 31.29626-31.03704 52.55053-89.94244 61.59288-49.97882 7.67206-61.68048 19.01613-39.16142 37.96467 8.17677 6.88031 8.17677 6.88031-6.48036 14.55432-18.79616 9.84105-20.55884 9.70159-32.10385-2.53969zm53.28754-24.10649c0-17.16007 0-17.16007 8.58003-17.16007 8.39501 0 8.58005 0.3099 8.58005 14.37084 0 13.666-5.01306 19.94932-15.91626 19.94932-0.68412 0-1.24382-7.72204-1.24382-17.16009zm-74.39367-48.3239c-41.10592-27.60705-30.82153-66.61843 19.22919-72.9416 26.08231-3.29508 51.73767 16.32959 41.89132 32.04416-4.74568 7.57403-25.87391 8.01696-35.705 0.74852-11.9177-8.81113-19.66217-7.85903-19.66217 2.41728 0 9.29888 14.12432 18.06794 35.23615 21.87631 10.92605 1.97091 10.92605 1.97091-3.36939 10.13539-7.86252 4.49046-15.10745 9.47829-16.09987 11.08407-2.95068 4.77431-8.47462 3.39741-21.52023-5.36413zm73.42395-71.08165c-1.03078-29.49389-1.87776-64.8136-1.8822-78.488206-0.007-21.415782-0.7825-25.405358-5.59362-28.775198-25.63029-17.952161 0.30247-58.166064 28.20483-43.737182 16.16434 8.358903 18.17332 27.754055 4.55165 43.942503-7.15086 8.498328-7.15086 8.498328-7.15086 84.590823 0 76.09251 0 76.09251-8.12784 76.09251-8.12785 0-8.12785 0-10.00196-53.62525zm-79.06466-23.78904c-4.35036-2.86863-9.49839-7.38774-11.44005-10.04249-3.3113-4.52731-4.29137-4.52783-15.79565-0.008-14.68686 5.76974-29.6957 0.75308-35.43541-11.84417-2.47082-5.42289-5.44157-7.17179-12.18228-7.17179-11.08023 0-21.62739-7.07945-21.62739-14.51672 0-4.490991-1.36703-5.269237-6.84201-3.895114-10.74879 2.697394-33.198172-12.064886-33.198172-21.83086 0-0.984159 24.774862-2.562687 55.055252-3.507834 48.34781-1.509087 57.8041-2.607303 77.61804-9.014305 31.8333-10.293503 40.4881-9.825118 47.81168 2.587396 3.20719 5.435799 8.3118 10.670539 11.34358 11.63279 11.11066 3.526396 7.96519 68.798847-3.42518 71.076937-18.21433 3.64286-43.68187 1.94158-51.88241-3.46584zm122.1289 2.83741c-11.2323-3.3344-12.79191-67.407198-1.70851-70.188961 3.876-0.972805 7.86089-4.332148 8.85529-7.465206 5.15935-16.255716 17.26801-17.8766 51.4835-6.891575 20.16798 6.474985 29.38852 7.538681 77.78647 8.973464 54.90639 1.62772 54.90639 1.62772 50.71684 9.729398-5.21059 10.076163-19.54387 17.82758-28.71086 15.526806-4.96691-1.246617-6.84202-0.52658-6.84202 2.627274 0 7.72481-10.8701 15.78456-21.2884 15.78456-7.84567 0-10.84973 1.69523-14.77276 8.33633-8.31624 14.07828-21.8991 17.84085-36.64518 10.15102-8.09341-4.22058-8.65975-4.06316-18.0188 5.00797-10.13983 9.82789-41.48532 14.15918-60.85557 8.40892z"/>
        </symbol>
        <symbol id="doctors2" viewBox="0 0 576.44501 577.45154">
            <title>doctors2</title>
            <path d="m64.571 0.06355556c-41.335 0-64.571 21.371-64.571 65.036v450.123c0 40.844 20.895 62.229 62.192 62.229h452.024c41.307 0 62.229-20.315 62.229-62.229v-450.123c0-42.601-20.922-65.036-63.521-65.036-0.004 0-448.495-0.143-448.353 0z"/>
            <path
                fill="#fff"
                d="m273.9542 11.733056c-5.7405 0.536826-8.07596 6.588128-6.18554 10.873047 0.5118 5.8892 0.98775 11.787113 1.42968 17.6875 7.28552-1.16506 14.64851-1.831564 21.98047-1.964844 10.36577-0.228118 20.95769 0.06426 31.42188 1.177735 0.074-0.801033 0.14515-1.59949 0.2207-2.400391 0.45297-4.612402 4.35146-11.11227-1.18164-14.542969-8.61406-4.830214-18.97357 3.178758-27.75-0.544922-6.79186-3.170685-11.53575-10.374725-19.93555-10.285156zm22.56446 36.652344c-27.11161-0.02527-53.53396 6.939322-73.58204 19.621094-20.04806 12.681769-33.83409 31.430302-34.33203 54.300786l-0.002 0.11523 0.004 0.11719c0.89159 22.57146 11.77149 39.28689 27.11328 51.54492 15.34178 12.25803 35.07955 20.38446 54.59179 26.96289 19.51228 6.57844 38.86127 11.60311 53.1875 17.16993 7.16314 2.7834 13.05042 5.72331 16.97657 8.80468 3.92614 3.08138 5.7827 6.00129 6.04687 9.38086 0.39988 5.11559-1.14094 9.02406-4.51758 12.85547-3.37663 3.83141-8.73423 7.38119-15.51367 10.61719-13.55888 6.472-32.5934 11.68545-51.83398 17.81445-19.24058 6.12901-38.74077 13.17185-53.62305 23.99414s-25.11536 25.96935-24.42773 46.70508c0.53967 16.52762 11.07823 29.25189 25.52929 39.06836 14.45164 9.81686 33.0728 17.17155 51.49414 23.62695 18.42135 6.45541 36.672 11.99717 50.02735 17.74805 6.67767 2.87544 12.11703 5.82823 15.6289 8.71875s4.90412 5.36651 4.91211 7.84961c0.0226 7.32183-5.20276 13.69779-15.39843 19.92578s-24.88424 11.79032-41.4668 17.07617c-33.16512 10.5717-73.84243 20.09884-103.28516 34.39258l-3.77539 1.83398 2.21289 3.56836c1.68137 2.71064 3.64635 2.74896 5.78516 3.17578 2.13881 0.42684 4.73593 0.65361 7.87305 0.75391 6.27424 0.2006 14.65215-0.14588 24.51367-1.03125 19.72303-1.77074 45.3172-5.71324 70.8125-11.97656 25.49529-6.26332 50.86323-14.80867 70.21875-26.0293 19.35551-11.22063 33.24603-25.50979 33.42383-43.35156 0.16021-16.07939-10.12275-28.59062-24.4336-38.34375s-32.96248-17.26146-51.48242-24.0625-36.93166-12.88315-50.38672-19.30469c-6.72753-3.21077-12.19666-6.52566-15.74414-9.80469-3.54748-3.27902-5.07165-6.21745-5.04687-9.33593 0.0221-2.77788 1.56348-5.43946 5.32031-8.48633s9.54302-6.11609 16.62695-9.10352c14.16786-5.97485 33.4639-11.72169 52.84375-18.67968 19.37986-6.958 38.88567-15.11133 53.78906-26.38086 14.9034-11.26953 25.3009-26.12742 25.01368-45.37305-0.28684-19.21991-10.93011-33.60625-25.93164-44.36719-15.00153-10.76093-34.45582-18.37716-53.83399-25.19336-19.37816-6.81619-38.71324-12.82199-53.16016-19.82226-7.22345-3.50014-13.19819-7.25295-17.33593-11.26953-4.08998-3.97023-6.36434-8.04362-6.87891-12.75782 0.002-4.93389 1.63952-8.74339 4.61524-12.06054 3.01499-3.36094 7.50513-6.13415 12.92773-8.17188 10.84521-4.075466 25.26914-5.116873 37.4082-3.607425 11.05091 1.374141 22.33683 13.422625 35.75196 24.675785 8.01017 6.71931 20.29 9.59898 27.47461 11.28516 7.60198 1.78417 12.02907 0.82782 17.69336-0.64649 1.55786-0.40546 3.07297-1.94011 3.5371-3.28515 0.46414-1.34504 0.37643-2.40384 0.25391-3.37305-0.24503-1.93842-0.86555-3.70748-1.43359-5.44922-0.36761-1.12716-0.57111-1.95535-0.81836-2.86523 1.34456 0.42655 2.89569 0.98448 4.60742 1.63281 2.0215 0.76565 4.05124 1.54146 6.01758 2.00195 0.98317 0.23025 1.94082 0.41639 3.15039 0.32422 1.20956-0.0922 3.16336-0.74615 4.13672-2.50195 2.12562-3.83429 2.9768-8.57917 2.07617-13.73047 0.90457-12.506579-9.03711-25.751429-23.95508-36.451177-15.1176-10.842933-35.91859-18.97456-58.375-19.080078-7.64438-1.170091-15.35213-1.758477-23.02148-1.765625zm61.18359 25.632812c6.72356 0 12.08984 5.366293 12.08984 12.089844s-5.36629 12.089844-12.08984 12.089844c-6.72354 0-12.08984-5.366296-12.08984-12.089844s5.3663-12.089844 12.08984-12.089844zm-70.62109 33.013678c-0.64604-0.008-1.29321-0.003-1.93946 0.0117-4.11434 0.0911-8.20475 0.63764-12.14843 1.63672 0.34966 9.16696 0.63451 18.32781 0.88671 27.49023 5.58144 2.87551 11.57112 5.25195 17.37305 7.49023 8.08105 3.04565 16.37731 5.85723 24.69336 8.66797 0.40266-10.38192 0.83065-20.75836 1.30664-31.13672-5.07949-4.74874-10.23387-9.40502-16.88086-12.40234-4.26694-1.11447-8.76875-1.70465-13.29101-1.75781zm-20.81641 106.10742c-5.29809 0.11278-10.48896 2.14294-12.41992 6.66016-1.91597 7.33271 4.05692 13.86048 5.54492 20.83007 3.27693 9.27739 6.50319 18.60864 9.33984 28.01368 14.5872-4.61399 29.4566-8.61499 43.54493-14.19336 0.2391-5.28155 0.49706-10.55622 0.83789-15.83008 1.0038-3.85987 2.83145-7.6287 4.41211-11.44141-3.02702-1.11292-6.08889-2.13265-9.01954-3.1875-10.91652-3.61015-22.1553-6.90722-33.29492-10.4375 0.005 0.44355 0.021 0.88848 0.0254 1.33203-2.57397-1.19614-5.79195-1.81379-8.9707-1.74609zm43.96484 108.86914c-11.5183 3.84555-23.02877 7.68096-34.18164 12.27149 0.0174 6.42018 0.0349 12.83727 0.0508 19.25781 11.10279 5.35589 22.80081 9.71525 34.59961 13.9082 2.99753-12.58212 7.67889-24.83558 11.63086-37.16211-0.0387-5.19736-7.26278-7.34759-12.17382-6.22266 0.0243-0.68425 0.0508-1.3684 0.0742-2.05273zm-34.15625 100.79102c-0.0187 4.35477-0.0453 8.70348-0.0742 13.05664-4.8851-0.19487-9.45966 4.4681-6.70312 8.58007 3.86261 9.85118 7.73326 19.91713 7.12305 30.41602 10.48807-3.18497 20.86753-6.608 30.85351-10.83008 0.17365-10.12745 0.38431-20.24532 0.51758-30.37109-5.36449-2.02259-10.8703-3.8181-16.31445-5.58985-5.08328-1.77292-10.23445-3.51379-15.40235-5.26171zm31.14844 96.83789c-10.11105 2.92044-20.37898 5.43836-30.7539 7.57617 0.10158 14.2151 0.22404 28.42971 0.36914 42.64453 11.94059-6.52946 26.15376-12.14293 32.67773-23.84375 1.69737-4.29937-2.73645-8.00419-1.77539-12.35937-0.22144-4.67464-0.39543-9.34168-0.51758-14.01758z"/>
        </symbol>
        <symbol id="hospital" viewBox="0 0 576.44501 577.45154">
            <title>hospital</title>
            <path d="m64.571 0.06355556c-41.335 0-64.571 21.371-64.571 65.036v450.123c0 40.844 20.895 62.229 62.192 62.229h452.024c41.307 0 62.229-20.315 62.229-62.229v-450.123c0-42.601-20.922-65.036-63.521-65.036-0.004 0-448.495-0.143-448.353 0z"/>
            <path
                fill="#fff"
                d="m285.81553 25.143212c-142.98155 0-259.12305 116.1415-259.12305 259.12305s116.1415 259.12305 259.12305 259.12305c142.98154 0 259.12305-116.1415 259.12305-259.12305s-116.14151-259.12305-259.12305-259.12305zm0 21.628906c131.2917 0 237.49219 106.20244 237.49219 237.49414s-106.20049 237.49219-237.49219 237.49219c-131.29171 0-237.49219-106.20049-237.49219-237.49219s106.20048-237.49414 237.49219-237.49414zm-40.91797 46.357422a10.001 10.001 0 0 0 -10 10v130.21875h-130.21875a10.001 10.001 0 0 0 -9.999998 10v81.83594a10.001 10.001 0 0 0 9.999998 10h130.21875v130.21875a10.001 10.001 0 0 0 10 10h81.83594a10.001 10.001 0 0 0 10 -10v-130.21875h130.21875a10.001 10.001 0 0 0 10 -10v-81.83594a10.001 10.001 0 0 0 -10 -10h-130.21875v-130.21875a10.001 10.001 0 0 0 -10 -10h-81.83594z"/>
        </symbol>
        <symbol id="hospital_emergency" viewBox="0 0 576.44501 577.45154">
            <title>hospital_emergency</title>
            <path d="m64.571 0.06355556c-41.335 0-64.571 21.371-64.571 65.036v450.123c0 40.844 20.895 62.229 62.192 62.229h452.024c41.307 0 62.229-20.315 62.229-62.229v-450.123c0-42.601-20.922-65.036-63.521-65.036-0.004 0-448.495-0.143-448.353 0z"/>
            <path
                fill="#fff"
                d="m287.81553 22.047509c-146.91381 0-266.2168 119.30495-266.2168 266.21875s119.30299 266.2168 266.2168 266.2168c146.9138 0 266.21875-119.303 266.21875-266.2168s-119.30495-266.21875-266.21875-266.21875zm0 19.292969c136.48743-0.000001 246.92578 110.43835 246.92578 246.92578 0 136.48744-110.43835 246.92383-246.92578 246.92383-136.48744 0-246.92578-110.43639-246.92578-246.92383 0-136.48743 110.43834-246.92578 246.92578-246.92578zm0 15.810547c-127.52761 0-231.11719 103.58762-231.11719 231.11524s103.58958 231.11719 231.11719 231.11719 231.11524-103.58957 231.11524-231.11719c0-127.52761-103.58763-231.11524-231.11524-231.11524zm0 19.291015c117.10125-0.000001 211.82227 94.72298 211.82227 211.82422 0 117.10125-94.72102 211.82422-211.82227 211.82422s-211.82422-94.72297-211.82422-211.82422c0-117.10124 94.72297-211.82422 211.82422-211.82422zm-44.55078 31.22657v136.04687h-136.04687v89.10156h136.04687v136.04688h4.85156 84.25v-136.04688h136.04688v-4.85156-84.25h-136.04688v-136.04687h-89.10156z"/>
        </symbol>
        <symbol id="hospital_emergency2" viewBox="0 0 576.44501 577.45154">
            <title>hospital_emergency2</title>
            <path d="m64.571 0.06355556c-41.335 0-64.571 21.371-64.571 65.036v450.123c0 40.844 20.895 62.229 62.192 62.229h452.024c41.307 0 62.229-20.315 62.229-62.229v-450.123c0-42.601-20.922-65.036-63.521-65.036-0.004 0-448.495-0.143-448.353 0z"/>
            <path
                fill="#fff"
                d="m480.20616 95.170556c-9.23468 0.000363-17.0598 2.601497-23.47266 7.802734-6.41302 5.20196-9.61919 12.90934-9.61914 23.12305-0.00005 10.21439 2.56491 27.04966 7.69531 50.50391 3.59119 17.59116 5.77138 32.05947 6.54102 43.4082l12.3125 163.42578c3.59114 0.56751 6.28632 0.85164 8.08203 0.85156 1.2825 0.00008 3.2062-0.18998 5.77148-0.56835 1.02596-2.64801 1.66723-4.72892 1.92383-6.24219l3.07813-68.09375c0.51293-18.72566 5.77113-59.48733 15.77539-122.28516 5.13024-32.72256 7.6952-53.43356 7.69531-62.13476-0.00011-9.45711-3.46284-16.78633-10.38867-21.98829-6.92611-5.201237-15.39043-7.802371-25.39453-7.802734zm-254.39063 0.496094c-104.06729 0-188.59961 84.53232-188.59961 188.59961 0 104.0673 84.53232 188.59961 188.59961 188.59961s188.59961-84.53231 188.59961-188.59961c0-104.06729-84.53232-188.59961-188.59961-188.59961zm0 15.74414c95.55899 0 172.85547 77.29649 172.85547 172.85547 0 95.55899-77.29648 172.85547-172.85547 172.85547s-172.85547-77.29648-172.85547-172.85547c0-95.55898 77.29648-172.85547 172.85547-172.85547zm-36.14453 26.33594v3.93555 106.43945h-110.375v72.28906h110.375v110.375h72.28906v-110.375h110.375v-72.28906h-110.375v-110.375h-72.28906zm292.84375 276.61328c-11.28682 0.00004-20.84228 2.88531-28.66602 8.6543-7.8238 5.76911-11.73637 12.62607-11.73632 20.57031-0.00005 6.43108 4.42553 12.95596 13.27539 19.57617 8.84981 6.62025 17.89227 9.92969 27.12695 9.92969 8.465 0 16.92937-3.40351 25.39453-10.21289 8.46494-6.80938 12.69716-13.80837 12.69727-20.99609-0.00011-7.18764-3.6562-13.57241-10.9668-19.15235-7.31087-5.57986-16.35132-8.3691-27.125-8.36914z"/>
        </symbol>
        <symbol id="opticians" viewBox="0 0 576.44501 577.45154">
            <title>opticians</title>
            <path d="m64.571 0.06355556c-41.335 0-64.571 21.371-64.571 65.036v450.123c0 40.844 20.895 62.229 62.192 62.229h452.024c41.307 0 62.229-20.315 62.229-62.229v-450.123c0-42.601-20.922-65.036-63.521-65.036-0.004 0-448.495-0.143-448.353 0z"/>
            <path
                fill="#fff"
                d="m383.20225 38.545556c-15.65354 0.461898-26.38591 22.504523-11 33.28125 3.42297 2.39754 3.96378 5.232059 3.96875 20.46875 0.003 9.729064 0.61037 34.859744 1.34375 55.843754 1.33337 38.15275 1.34228 38.15624 7.125 38.15625 5.78271 0 5.78124 0.0125 5.78125-54.125 0-54.137524 0.006-54.141201 5.09375-60.187504 9.69141-11.5176 8.25045-25.334139-3.25-31.28125-3.10183-1.604017-6.1637-2.241787-9.0625-2.15625zm-41.98047 29.292969c-0.37034-0.0035-0.75099 0.0033-1.14453 0.01953-4.89744 0.2025-11.62257 1.95221-21.53125 5.15625-14.09702 4.55838-20.85199 5.332581-55.25 6.40625-21.54357 0.67244-39.15625 1.799798-39.15625 2.5 0 6.9482 15.97756 17.450621 23.625 15.53125 3.89528-0.97765 4.875-0.445198 4.875 2.750005 0 5.2914 7.49174 10.34375 15.375 10.34375 4.79582 0 6.89833 1.23552 8.65625 5.09375 4.08363 8.96256 14.76949 12.5425 25.21875 8.4375 8.18494-3.21546 8.89411-3.22104 11.25 0 1.38143 1.88878 5.02985 5.11531 8.125 7.15625 5.83443 3.84722 23.9473 5.02928 36.90625 2.4375 8.10391-1.6208 10.34242-48.053581 2.4375-50.562505-2.15702-0.68462-5.78069-4.413841-8.0625-8.28125-2.74773-4.657042-5.76908-6.936151-11.32422-6.988281zm84.82422 0.269531c-7.11289 0.173487-10.74771 3.369431-12.8125 9.875-0.70749 2.22907-3.52358 4.620372-6.28125 5.3125-7.8855 1.97913-6.77268 47.565184 1.21875 49.937504 13.78135 4.09113 36.06705 1.02349 43.28125-5.96875 6.65868-6.45385 7.05427-6.56532 12.8125-3.5625 10.4914 5.47108 20.177 2.79752 26.09375-7.21875 2.79112-4.72494 4.91805-5.9375 10.5-5.9375 7.41231 0 15.15628-5.75403 15.15625-11.250004 0-2.24387 1.3412-2.73069 4.875-1.84375 6.52204 1.63692 16.69911-3.89362 20.40625-11.0625 2.98074-5.7641 3.00173-5.748178-36.0625-6.90625-34.43368-1.02081-40.99483-1.799476-55.34375-6.40625-10.65019-3.419286-18.31151-5.103685-23.84375-4.96875zm-83.625 78.468754c-1.15133 0.0238-2.30895 0.10348-3.46875 0.25-35.60957 4.49874-42.90185 32.23342-13.65625 51.875 9.28157 6.23358 13.21318 7.24053 15.3125 3.84375 0.70608-1.14246 5.84355-4.71143 11.4375-7.90625 10.17078-5.80879 10.1798-5.78526 2.40625-7.1875-15.02044-2.70955-25.06251-8.97786-25.0625-15.59375 0-7.31129 5.48968-7.98761 13.96875-1.71875 6.99453 5.17126 22.02985 4.85744 25.40625-0.53125 6.56755-10.48166-9.07375-23.38804-26.34375-23.03125zm82.5 0.28125c-7.59751-0.16244-14.93679 1.68052-20.21875 6.125-16.35941 13.76552 3.31972 29.91801 20.75 17.03125 7.32827-5.41802 12.78124-4.63379 12.78125 1.84375 0 9.47648-29.89141 20.37679-56.21875 20.5-36.3403 0.17009-62.24694 36.14003-41.71875 57.90625 8.21393 8.7093 9.47086 8.78286 22.84375 1.78125 10.42811-5.45983 10.44252-5.44861 4.625-10.34375-16.02164-13.48132-7.71466-21.54156 27.84375-27 41.90942-6.43335 63.99999-21.57739 64-43.84375 0-13.56204-17.97297-23.64263-34.6875-24zm1.78125 66.53125c-0.72203 0.0351-1.45062 0.35719-2.1875 0.96875-1.63295 1.35523-7.26992 3.0601-12.53125 3.78125-7.73254 1.05987-9.31344 1.91943-8.21875 4.5625 3.22868 7.79556 2.92993 10.06682-2.0625 16-3.41053 4.05318-10.4746 8.26941-19.96875 11.875-36.59845 13.89913-49.23131 32.30081-34.96875 51 6.24253 8.18437 6.04719 8.15883 19.0625 1.40625 9.89218-5.13224 10.21105-5.51934 6.3125-8.25-11.81849-8.27799-4.12473-17.68808 22.03125-26.9375 29.94168-10.58815 42.88262-23.71672 40.03125-40.59375-1.50052-8.88153-4.37122-13.96449-7.5-13.8125zm-42.375 7.5c-6.10443 0-6.12499 0.01-6.125 12.21875 0 6.71488 0.41952 12.1875 0.90625 12.1875 7.75731 0 11.31249-4.46454 11.3125-14.1875 0-10.00393-0.12095-10.21875-6.09375-10.21875zm28.53125 45.375c-1.27448-0.0679-2.76007 0.60687-5.25 1.84375-3.29421 1.6364-11.25238 4.59659-17.6875 6.5625-11.70017 3.57437-11.71874 3.55867-11.71875 13.4375 0 9.87884 0.0206 9.87802 6.125 7.75 5.54587-1.9333 6.09374-2.95324 6.09375-11.15625 0-8.36376 0.30475-8.86936 4.03125-6.875 13.35803 7.14902 7.42142 17.5964-14 24.6875-24.18185 8.0049-36.70527 28.22364-25.3125 40.8125 4.13346 4.56742 3.2409 4.64759 11.28125-0.84375 5.23687-3.57666 6.55673-5.78191 6.0625-10.0625-0.72572-6.28571 2.29632-8.25458 24.5625-15.96875 26.74598-9.2662 35.81833-28.90201 21.21875-45.875-2.50083-2.90738-3.76763-4.22522-5.40625-4.3125zm-210.11914 0.88086c-7.61765-0.11753-15.1612 0.83068-22.81055 2.55469-20.39826 4.59734-41.75926 14.28617-69.85547 23.66015-40.85558 13.631-67.032786 24.55115-81.564449 35.47852-7.265832 5.46368-11.9689 11.21721-12.984375 17.93945-1.015476 6.72224 2.15981 13.1628 7.490234 18.72656 4.19389 4.37749 7.050899 11.16498 10.664062 28.19532 8.800036 41.47806 30.64845 72.77812 56.494141 87.85742 25.845687 15.0793 56.469647 12.95768 78.386717-11.94141 6.2628-7.11493 14.26745-19.81621 21.04492-32.03711 3.38874-6.11044 6.42142-12.05057 8.65625-17.06445 1.9227-4.31359 3.34814-7.3914 3.72852-10.83789 0.73587 0.0528 1.32576-0.002 4.19726 0.52539 6.00757 1.10396 8.82631 2.59856 9.11915 2.73242-0.0805 0.45324-0.40228 1.5312-1.2793 3.16992-1.77199 3.31099-2.87536 7.31182-2.24805 11.83789 0.62732 4.52608 2.42366 9.73002 5.58594 18.4004 20.18103 55.33298 52.09184 83.37291 98.55859 88.38281 14.64464 2.57811 28.0227 2.52428 41.36914-4.13281a5.0005 5.0005 0 0 0 0.041 -0.0215c25.17488-12.84326 38.52651-29.44757 52.3418-64.67578 3.75184-9.56701 6.02063-14.59226 7.81054-16.95508 1.78992-2.36282 3.03947-2.90313 7.58789-4.4668 6.63343-2.28047 17.12906-7.91047 24.96094-13.13671 7.35062-4.90513 20.01751-12.98535 27.94336-17.82422 8.35046-5.09809 23.16874-15.44725 33.51367-23.37305 1.86261-1.42705 3.16041-1.87938 3.76758-1.96484 0.60717-0.0855 0.62078-0.0564 1.04102 0.24023 0.84048 0.59331 2.64897 3.48826 3.8164 7.57031 1.16743 4.08206 1.94779 9.08318 2.54492 13.49805 0.59714 4.41487 0.76976 7.75067 1.80079 10.84375 1.12409 3.37228 2.57187 6.12312 4.9707 8.14453s6.21354 2.7947 9.17969 1.71484c5.93229-2.15967 8.84908-7.86857 11.37695-15.74414 5.73848-17.87813 7.46694-37.56237 2.28516-51.5-2.59089-6.96881-7.52898-12.88039-14.79102-14.5996-7.26204-1.71923-15.58961 0.67975-25.09766 6.8789-33.90342 22.10468-56.37833 34.34877-74.42968 38.89844-18.05136 4.54967-31.88871 1.96999-50.84961-6.49805-31.24138-13.95254-55.54669-22.19351-76.98243-25.05469-21.43569-2.86117-39.98431-0.17783-58.74414 7.38868-11.17031 4.50538-13.49844 4.83624-20.71093 2.94922-5.65114-1.47855-17.52323-4.04591-26.88672-5.83594-12.86166-2.45879-17.89808-4.85832-28.81836-13.75391-9.08392-7.3997-20.40554-14.34784-31.20117-19.59375s-20.72141-8.89862-28.60742-9.125c-3.09544-0.0888-5.52188-0.35587-7.59961-0.62695 2.28928-1.25835 5.24292-2.72125 9.13281-4.34766 7.06409-2.95357 16.65994-6.4307 28.70703-10.38867 16.66186-5.47412 32.67862-12.11338 48.61133-13.75586s31.74677 1.26072 49.68945 15.54688c7.89865 6.28901 11.67934 9.92199 17.10352 11.01171 2.71209 0.54486 6.21888-0.66209 7.99414-2.52929 1.77525-1.8672 2.62842-3.82385 3.6582-6.08399 1.27495-2.79818 2.34999-5.58284 2.21875-8.85742s-1.78252-6.47605-4.25-9.0332c-4.93496-5.1143-13.19214-9.608-28.14648-17.59375-13.93722-7.44261-26.83908-10.59709-39.53516-10.79297zm199.93164 51.90039c-5.65281 0.1925-13.39329 3.07856-22.46875 8.6875-5.84168 3.61035-2.01239 9.26753 4.125 6.09375 3.35745-1.7362 6.09374-4.24823 6.09375-5.5625 0-1.75457 0.58724-1.78779 2.25-0.125 3.46597 3.46597 0.49482 6.43536-12.09375 12-8.57862 3.79207-14.70553 7.75909-18.375 11.90625 6.17677 2.51294 12.47307 5.06083 18.90625 7.40625 1.31731-0.44859 2.86984-0.8094 4.71875-1.15625 19.35061-3.63019 26.96876-11.98935 26.96875-29.53125 0-6.67648-3.71848-9.93691-10.125-9.71875zm-304.9082 30.74805c11.88411 0.15401 23.18782 4.36784 32.73828 11.64062 15.28073 11.63645 25.84281 31.15544 25.85156 54.53906 0.008 21.03506-5.66265 35.02944-14.17578 41.84766s-20.66257 7.76567-37.07813 0.30859c-19.124607-8.6877-34.449056-32.25738-40.318352-55.19531-2.934648-11.46896-3.511125-22.69163-1.5625-31.39258 1.948625-8.70094 6.018455-14.59815 12.78125-17.42382 7.294432-3.04782 14.633204-4.41663 21.763672-4.32422zm310.62695 5.06445c-0.64165-0.0278-1.35617 0.17678-2.1875 0.625-2.51808 1.35767-9.62596 4.03109-15.78125 5.9375-0.69355 0.2148-1.2857 0.41861-1.90625 0.625 7.04736 2.3703 14.14659 4.43203 21.21875 5.96875 2.83716-6.02346 2.26051-13.0001-1.34375-13.15625zm-120.28125 35.13086c8.36706-0.12237 17.63945 1.09524 26.91211 3.53906 28.25954 7.44785 55.85206 26.38177 61.51953 48.23047 5.96898 23.01095-1.55934 42.87106-16.2207 55.34375-14.66137 12.47269-36.57327 17.46033-60.08008 9.13672-17.62827-6.24205-32.44116-21.60011-41.07617-40.21875s-10.98407-40.26842-4.625-58.54883c3.0263-8.69968 10.36855-13.79807 21.29687-16.16992 2.73208-0.59296 5.66416-0.98437 8.7461-1.17774 1.15572-0.0725 2.33205-0.11728 3.52734-0.13476z"/>
        </symbol>
        <symbol id="pharmacy" viewBox="0 0 576.44501 577.45154">
            <title>pharmacy</title>
            <path d="m64.571 0.06355556c-41.335 0-64.571 21.371-64.571 65.036v450.123c0 40.844 20.895 62.229 62.192 62.229h452.024c41.307 0 62.229-20.315 62.229-62.229v-450.123c0-42.601-20.922-65.036-63.521-65.036-0.004 0-448.495-0.143-448.353 0z"/>
            <path
                fill="#fff"
                d="m98.78038 86.617822v10.583984 382.54297h393.1289v-393.12696h-393.1289zm21.16992 21.167968h350.79101v350.79102h-350.79101v-350.79102zm113.96679 32.53907v81.42773h-81.42968v122.85742h81.42968v81.42774h122.85547v-81.42774h81.42969v-122.85742h-81.42969v-81.42773h-122.85547z"/>
        </symbol>
        <symbol id="pharmacy_dispencing" viewBox="0 0 576.44501 577.45154">
            <title>pharmacy_dispencing</title>
            <path d="m64.571 0.06355556c-41.335 0-64.571 21.371-64.571 65.036v450.123c0 40.844 20.895 62.229 62.192 62.229h452.024c41.307 0 62.229-20.315 62.229-62.229v-450.123c0-42.601-20.922-65.036-63.521-65.036-0.004 0-448.495-0.143-448.353 0z"/>
            <path
                fill="#fff"
                d="m76.100688 64.512353v10 427.12891h437.1289v-437.12891h-437.1289zm20 20h397.1289v397.12891h-397.1289v-397.12891zm13.529292 12.955078v10.000009 361.42773h371.42969v-371.42774h-371.42969zm20 20.000009h331.42969v331.42773h-331.42969v-331.42773zm104.28711 22.85742v81.42773h-81.42968v122.85742h81.42968v81.42774h122.85547v-81.42774h81.42969v-122.85742h-81.42969v-81.42773h-122.85547z"/>
        </symbol>
        <symbol id="veterinary" viewBox="0 0 576.44501 577.45154">
            <title>veterinary</title>
            <path d="m64.571 0.06355556c-41.335 0-64.571 21.371-64.571 65.036v450.123c0 40.844 20.895 62.229 62.192 62.229h452.024c41.307 0 62.229-20.315 62.229-62.229v-450.123c0-42.601-20.922-65.036-63.521-65.036-0.004 0-448.495-0.143-448.353 0z"/>
            <path
                fill-rule="evenodd"
                fill="#fff"
                d="m188.23741 29.985009c-15.65355 0.461893-26.38398 22.51429-10.99805 33.291016 3.42297 2.397544 3.97354 5.23596 3.97852 20.472656 0.003 9.72906 0.60646 34.859749 1.33984 55.843759 1.33337 38.15275 1.33251 38.15234 7.11523 38.15234 5.78271 0 5.78321-0.001 5.78321-54.13867 0-54.137524 0.00027-54.137295 5.08789-60.183601 9.69141-11.517594 8.26216-25.316572-3.23828-31.263672-3.10183-1.604019-6.16956-2.259364-9.06836-2.173828zm-43.11133 29.316406c-4.89744 0.2025-11.64991 1.940492-21.5586 5.144532-14.09702 4.558383-20.82463 5.3404-55.222652 6.414062-21.543579 0.672444-39.169922 1.793943-39.169922 2.494141 0 6.948203 15.9717 17.452583 23.619141 15.533203 3.895284-0.97765 4.869141-0.423716 4.869141 2.771484 0 5.29139 7.503472 10.328133 15.386718 10.328133 4.79582 0 6.908095 1.24333 8.666016 5.10156 4.083629 8.96256 14.763632 12.53273 25.212888 8.42773 8.18494-3.21546 8.88239-3.21518 11.23828 0.006 1.38143 1.88878 5.04352 5.10359 8.13868 7.14453 5.83443 3.84722 23.95317 5.05663 36.91211 2.46485 8.10391-1.6208 10.34241-48.059442 2.4375-50.568366-2.15702-0.684614-5.7885-4.409931-8.07032-8.277344-2.9309-4.967507-6.16228-7.244731-12.45898-6.984375zm85.96289 0.244141c-7.11289 0.173487-10.74381 3.385055-12.80859 9.890625-0.7075 2.229071-3.54117 4.620372-6.29883 5.3125-7.8855 1.979136-6.7766 47.563219 1.21484 49.935549 13.78135 4.09113 36.08269 1.00982 43.29688-5.98242 6.65868-6.45385 7.06209-6.56532 12.82031-3.5625 10.4914 5.47108 20.15551 2.79361 26.07226-7.22266 2.79112-4.72494 4.92782-5.92968 10.50977-5.92968 7.41231 0 15.14648-5.734507 15.14648-11.230476 0-2.24386 1.33339-2.756071 4.86719-1.869141 6.52204 1.63693 16.72057-3.877993 20.42774-11.046875 2.98074-5.764102 2.98025-5.763806-36.08399-6.921875-34.43368-1.020812-40.99484-1.778-55.34375-6.384766-10.65019-3.419285-18.28806-5.123215-23.82031-4.988281zm-83.61914 78.468754c-1.15134 0.0238-2.31091 0.10738-3.47071 0.25391-35.60957 4.49874-42.92529 32.2549-13.67968 51.89648 9.28157 6.23358 13.21122 7.21319 15.31054 3.81641 0.70608-1.14246 5.86114-4.6919 11.45508-7.88672 10.17078-5.80879 10.17004-5.8087 2.39649-7.21094-15.02044-2.70955-25.07032-8.94857-25.07032-15.56445 0-7.31129 5.51116-7.98761 13.99024-1.71875 6.99453 5.17126 22.02594 4.85548 25.40234-0.53321 6.56756-10.48166-9.06398-23.40952-26.33398-23.05273zm82.5 0.29687c-7.59752-0.16244-14.93874 1.68443-20.22071 6.12891-16.35941 13.76552 3.31191 29.90628 20.74219 17.01953 7.32827-5.41802 12.78321-4.62792 12.78321 1.84961 0 9.47648-29.88359 20.37289-56.21094 20.4961-36.3403 0.17009-62.25671 36.12439-41.72852 57.89062 8.21393 8.7093 9.4689 8.80825 22.8418 1.80664 10.42811-5.45983 10.42689-5.46034 4.60937-10.35547-16.02164-13.48132-7.69513-21.55132 27.86329-27.00976 41.90942-6.43335 63.99023-21.55592 63.99023-43.82227 0-13.56204-17.95539-23.64653-34.66992-24.00391zm1.77929 66.5254c-0.72202 0.0351-1.45843 0.34938-2.19531 0.96093-1.63295 1.35523-7.27382 3.05425-12.53515 3.77539-7.73254 1.05987-9.30563 1.937-8.21094 4.58008 3.22868 7.79556 2.9358 10.06877-2.05664 16.00196-3.41053 4.05317-10.49414 8.25768-19.98828 11.86328-36.59845 13.89913-49.21375 32.31056-34.95118 51.00976 6.24253 8.18437 6.0472 8.17056 19.0625 1.41797 9.89218-5.13224 10.19153-5.5252 6.29297-8.25586-11.81849-8.27799-4.12082-17.69004 22.03516-26.93945 29.94168-10.58815 42.89043-23.71476 40.03906-40.5918-1.50051-8.88153-4.36341-13.97426-7.49219-13.82226zm-42.39648 7.5c-6.10443 0-6.10547 0.0001-6.10547 12.20898 0 6.71488 0.39804 12.20898 0.88477 12.20898 7.75731 0 11.32422-4.47039 11.32422-14.19336 0-10.00392-0.13072-10.2246-6.10352-10.2246zm216.12695 42.57812c-5.01086 0.0847-8.36718 0.82031-8.36718 0.82031-20.93275 4.97485-30.72657 28.23243-30.72657 28.23243-9.65634 22.38155-4.67187 45.23242-4.67187 45.23242 7.22801 32.59887 33.57422 27.20312 33.57422 27.20312 17.70676-1.15259 30.60937-22.10351 30.60937-22.10351 14.65636-19.71849 16.50196-37.12891 16.50196-37.12891 3.42888-26.50015-13.00977-36.39648-13.00977-36.39648-8.29051-4.99904-17.46762-5.96834-23.91016-5.85938zm-187.57617 2.81055c-1.27448-0.0679-2.77569 0.60295-5.26562 1.83984-3.29421 1.6364-11.25435 4.58486-17.68946 6.55078-11.70017 3.57437-11.70117 3.57429-11.70117 13.45313s0.001 9.87802 6.10547 7.75c5.54587-1.9333 6.10352-2.95325 6.10352-11.15625 0-8.36376 0.29694-8.87133 4.02343-6.87696 13.35803 7.14902 7.4429 17.59444-13.97851 24.68555-24.18185 8.0049-36.73065 28.21389-25.33789 40.80274 4.13346 4.56742 3.25263 4.63392 11.29297-0.85743 5.23687-3.57666 6.5665-5.778 6.07226-10.05859-0.72572-6.28571 2.27289-8.23504 24.53906-15.94922 26.74598-9.2662 35.83786-28.9059 21.23829-45.8789-2.50083-2.90738-3.76373-4.21741-5.40235-4.30469zm96.9668 10.52539c-8.41314 0.24856-16.78438 4.17344-22.87695 9.93554-12.2049 12.75078-16.48487 30.96308-16.99219 48.12891-0.59368 7.88735 1.50126 15.70581 4.91211 22.76758 5.58365 12.12638 18.24984 20.73892 31.70117 20.66601 9.52436 1.34451 19.56781-2.06324 25.99023-9.30859 5.80706-5.9161 8.64604-13.88571 10.55274-21.78515 4.20787-16.38858 5.29231-34.66504-2.20899-50.29688-4.63699-7.68956-11.46861-14.40169-19.78906-17.99414-3.63145-1.57931-7.46491-2.22626-11.28906-2.11328zm172.30664 36.69726c-14.60301-0.14523-27.2168 7.43555-27.2168 7.43555-24.56983 11.42193-33.04687 45.02344-33.04687 45.02344-3.06811 32.22282 16.35742 36.87305 16.35742 36.87305 16.19074 6.55399 39.78906-7.74024 39.78906-7.74024 21.10533-10.41898 31.01758-29.73633 31.01758-29.73633 15.97422-21.89073-0.76172-39.94336-0.76172-39.94336-7.89842-8.95715-17.37686-11.82497-26.13867-11.91211zm-278.37891 5.55078c-5.73063-0.17811-13.882 2.71049-23.5625 8.69336-5.84168 3.61035-2.0202 9.24995 4.11719 6.07618 3.35745-1.7362 6.10352-4.23262 6.10352-5.54688 0-1.75457 0.60285-1.78778 2.26562-0.125 3.46597 3.46597 0.47138 6.43146-12.11719 11.9961-22.22881 9.82595-27.92226 20.73689-17.36523 33.2832 6.50448 7.73012 9.70267 7.09362 10.5957-2.11133 0.87907-9.06059 2.98093-11.33915 12.02149-13.03516 19.35061-3.63019 26.98242-11.98152 26.98242-29.52343 0-6.28375-3.31039-9.52892-9.04102-9.70704zm4.63867 35.81641c-0.64165-0.0278-1.3796 0.16115-2.21093 0.60938-2.51808 1.35767-9.61423 4.02719-15.76953 5.93359-8.44595 2.61586-11.35109 4.52391-11.8418 7.77734-0.82795 5.48931 1.20344 5.45708 7.13281-0.11328 3.61909-3.39997 4.70899-3.71032 4.70899-1.33984 0 1.69656-8.75657 8.71866-19.45899 15.60351-10.70245 6.88483-18.93328 13.36899-18.29101 14.40821 1.89207 3.06142 48.26654-18.75025 54.35351-25.56446 5.65984-6.33603 5.86851-17.11986 1.37695-17.31445zm158.80274 19.04102c-10.09767 0.0205-19.10232 6.90014-27.57422 11.92383-7.89841 5.63949-17.54626 4.9639-26.66406 4.20117-21.68295-1.25057-46.04542 6.2429-57.71094 25.80273-8.48659 12.60449-9.19048 29.35738-2.42187 42.87305 6.12467 11.05428 12.89295 22.44928 23.82031 29.44922 10.95525 8.27282 24.77945 9.89406 37.63086 13.34375 14.14214 3.30957 21.55584 16.81966 31.64258 25.90429 15.20475 15.18395 38.18911 20.52175 58.92773 16.19922 20.04659-6.42924 36.30165-26.6823 35.14453-48.24609-2.27275-14.90765-9.55874-28.65526-17.57812-41.26367-2.48395-10.5498-2.1153-21.45533-2.74805-32.20313 0.62207-17.22571-13.46724-29.66017-25.98633-39.21875-6.46144-3.68359-13.42421-6.62896-20.75781-8.01562-1.94844-0.52201-3.85467-0.75379-5.72461-0.75zm-168.26172 11.24804c-15.29736-0.38166-29.06807 22.81965-17.41797 41.66993 1.59466 2.5802 5.76786 0.82233 6.23242-2.625 0.21374-1.58597 0.97124-9.88641 1.68164-18.44532 1.2916-15.56162 1.29134-15.56249 12.56641-11.59961 12.66019 4.44968 15.30421 3.75808 9.62305-2.51953-3.99801-4.41775-8.40229-6.3736-12.68555-6.48047zm301.5 19.07032c-3.74398-0.0699-7.51603 0.35886-11.10742 1.09375-12.28941 2.00861-22.99701 9.13675-32.6875 16.5957-10.7616 7.64118-17.33289 20.32568-18.25195 33.40625-0.48677 3.87109-0.26658 7.82113 1.95898 11.1582 4.5851 9.59817 13.79962 17.67161 24.79883 18.07031 15.08796-0.37022 30.02881-5.73959 42.00195-14.92187 7.85464-6.47864 15.19087-14.09039 19.49805-23.4375 4.96913-10.29772 3.71508-23.50434-4.08203-32.07227-1.34238-1.68389-2.89946-3.19734-4.63086-4.47851-5.09832-3.79305-11.25809-5.29761-17.49805-5.41406z"/>
        </symbol>
    </defs>
</svg>
