<?xml version="1.0" encoding="UTF-8" standalone="no"?>
<!-- Created with Inkscape (http://www.inkscape.org/) -->

<svg
   xmlns:dc="http://purl.org/dc/elements/1.1/"
   xmlns:cc="http://creativecommons.org/ns#"
   xmlns:rdf="http://www.w3.org/1999/02/22-rdf-syntax-ns#"
   xmlns:svg="http://www.w3.org/2000/svg"
   xmlns="http://www.w3.org/2000/svg"
   xmlns:sodipodi="http://sodipodi.sourceforge.net/DTD/sodipodi-0.dtd"
   xmlns:inkscape="http://www.inkscape.org/namespaces/inkscape"
   version="1.0"
   width="580"
   height="580"
   id="svg2"
   sodipodi:version="0.32"
   inkscape:version="0.48.0 r9654"
   sodipodi:docname="amenity_town_hall2.svg"
   inkscape:output_extension="org.inkscape.output.svg.inkscape">
  <metadata
     id="metadata2975">
    <rdf:RDF>
      <cc:Work
         rdf:about="">
        <dc:format>image/svg+xml</dc:format>
        <dc:type
           rdf:resource="http://purl.org/dc/dcmitype/StillImage" />
        <cc:license
           rdf:resource="http://web.resource.org/cc/PublicDomain" />
        <dc:language>en</dc:language>
        <dc:title />
      </cc:Work>
    </rdf:RDF>
  </metadata>
  <sodipodi:namedview
     inkscape:window-height="1002"
     inkscape:window-width="1278"
     inkscape:pageshadow="2"
     inkscape:pageopacity="0.0"
     guidetolerance="10.0"
     gridtolerance="10.0"
     objecttolerance="10.0"
     borderopacity="1.0"
     bordercolor="#666666"
     pagecolor="#ffffff"
     id="base"
     inkscape:zoom="0.32586207"
     inkscape:cx="730.85358"
     inkscape:cy="-230.65759"
     inkscape:window-x="640"
     inkscape:window-y="24"
     inkscape:current-layer="svg2"
     showgrid="false"
     inkscape:window-maximized="0" />
  <defs
     id="defs4">
    <inkscape:perspective
       sodipodi:type="inkscape:persp3d"
       inkscape:vp_x="0 : 290 : 1"
       inkscape:vp_y="0 : 1000 : 0"
       inkscape:vp_z="580 : 290 : 1"
       inkscape:persp3d-origin="290 : 193.33333 : 1"
       id="perspective2441" />
    <inkscape:perspective
       id="perspective3452"
       inkscape:persp3d-origin="30 : 20 : 1"
       inkscape:vp_z="60 : 30 : 1"
       inkscape:vp_y="0 : 1000 : 0"
       inkscape:vp_x="0 : 30 : 1"
       sodipodi:type="inkscape:persp3d" />
    <symbol
       viewBox="244.5 110 489 219.9"
       id="symbol-university">
      <path
         id="path4460"
         d="M79,43l57,119c0,0,21-96,104-96s124,106,124,106l43-133l82-17L0,17L79,43z" />
      <path
         id="path4462"
         d="M94,176l-21,39"
         stroke-width="20"
         stroke="#000000"
         fill="none" />
      <path
         id="path4464"
         d="M300,19c0,10.5-22.6,19-50.5,19S199,29.5,199,19s22.6-19,50.5-19S300,8.5,300,19z" />
      <path
         id="path4466"
         d="M112,216l-16-38L64,88c0,0-9-8-4-35s16-24,16-24"
         stroke-width="20"
         stroke="#000000"
         ill="none" />
    </symbol>
    <inkscape:perspective
       id="perspective4471"
       inkscape:persp3d-origin="372.04724 : 350.78739 : 1"
       inkscape:vp_z="744.09448 : 526.18109 : 1"
       inkscape:vp_y="0 : 1000 : 0"
       inkscape:vp_x="0 : 526.18109 : 1"
       sodipodi:type="inkscape:persp3d" />
    <inkscape:perspective
       id="perspective4668"
       inkscape:persp3d-origin="6 : 4 : 1"
       inkscape:vp_z="12 : 6 : 1"
       inkscape:vp_y="0 : 1000 : 0"
       inkscape:vp_x="0 : 6 : 1"
       sodipodi:type="inkscape:persp3d" />
    <inkscape:perspective
       id="perspective4904"
       inkscape:persp3d-origin="16 : 10.666667 : 1"
       inkscape:vp_z="32 : 16 : 1"
       inkscape:vp_y="0 : 1000 : 0"
       inkscape:vp_x="0 : 16 : 1"
       sodipodi:type="inkscape:persp3d" />
  </defs>
  <g
     id="g1327">
    <path
       d="M 66.275,1.768 C 24.94,1.768 1.704,23.139 1.704,66.804 L 1.704,516.927 C 1.704,557.771 22.599,579.156 63.896,579.156 L 515.92,579.156 C 557.227,579.156 578.149,558.841 578.149,516.927 L 578.149,66.804 C 578.149,24.203 557.227,1.768 514.628,1.768 C 514.624,1.768 66.133,1.625 66.275,1.768 z "
       style="fill:#111;stroke:#eee;stroke-width:3.40799999"
       id="path1329" />
  </g>
  <g
     id="layer3"
     inkscape:label="Layout"
     style="display:none;stroke:#757575;stroke-opacity:1"
     transform="matrix(48.14969,0,0,48.14969,-536.27327,-33.306752)">
    <rect
       style="fill:none;stroke:#757575;stroke-width:0.10000000000000001;stroke-miterlimit:4;stroke-dasharray:none;stroke-opacity:1;display:inline"
       id="rect4134"
       width="10"
       height="10"
       x="1"
       y="1" />
    <rect
       style="fill:none;stroke:#757575;stroke-width:0.10000000000000001;stroke-miterlimit:4;stroke-dasharray:none;stroke-opacity:1;display:inline"
       id="rect4136"
       width="8"
       height="8"
       x="2"
       y="2" />
  </g>
  <g
     id="g4372"
     transform="translate(-166.49217,52.019299)" />
  <path
     style="font-size:12px;opacity:0.2;fill:#ffffff;fill-opacity:1;fill-rule:evenodd;stroke:#ffffff;stroke-width:1.24141979;stroke-opacity:1"
     d="M 286.94406,44.001595 L 34.884618,235.90902 L 85.296174,235.90902 L 85.296174,543.77001 L 236.53218,543.77001 L 340.81297,543.77001 L 488.59196,543.77001 L 488.59196,235.90902 L 539.00386,235.90902 L 286.94406,44.001595 L 286.94406,44.001595 L 286.94406,44.001595 z"
     id="path645"
     sodipodi:nodetypes="cccccccccccc" />
  <g
     id="g7376">
    <path
       style="font-size:12px;opacity:1;fill:none;fill-opacity:1;fill-rule:evenodd;stroke:#ffffff;stroke-width:20;stroke-linejoin:round;stroke-miterlimit:4;stroke-dasharray:none;stroke-opacity:1"
       d="M 286.94406,34.001595 L 34.884618,225.90902 L 85.296174,225.90902 L 85.296174,543.77001 L 236.53218,543.77001 L 340.81297,543.77001 L 488.59196,543.77001 L 488.59196,225.90902 L 539.00386,225.90902 L 286.94406,34.001595 L 286.94406,34.001595 L 286.94406,34.001595 z"
       id="path3198"
       sodipodi:nodetypes="cccccccccccc" />
  </g>
  <path
     style="opacity:0.5;fill:#ffffff;fill-opacity:1;stroke:#ffffff;stroke-width:10;stroke-linecap:round;stroke-linejoin:round;stroke-miterlimit:4;stroke-opacity:1;stroke-dasharray:none"
     d="m 160.09524,353.29101 257.25925,0 46.05731,39.7736 -349.86683,0 z"
     id="path7610"
     inkscape:connector-curvature="0"
     sodipodi:nodetypes="ccccc" />
  <path
     sodipodi:nodetypes="ccccc"
     inkscape:connector-curvature="0"
     id="path7612"
     d="m 114.09524,515.29101 349.25925,0 0.0573,-100.2264 -349.86683,0 z"
     style="opacity:0.5;fill:#ffffff;fill-opacity:1;stroke:#ffffff;stroke-width:10;stroke-linecap:round;stroke-linejoin:round;stroke-miterlimit:4;stroke-opacity:1;stroke-dasharray:none" />
  <path
     style="font-size:40px;font-style:normal;font-variant:normal;font-weight:normal;font-stretch:normal;text-align:start;line-height:125%;writing-mode:lr-tb;text-anchor:start;opacity:1;fill:#ffffff;fill-opacity:1;stroke:#ffffff;stroke-width:1.38889050000000003;stroke-linecap:round;stroke-linejoin:round;stroke-opacity:1;font-family:NPSPICT3;-inkscape-font-specification:NPSPICT3"
     d="m 209.3125,161.96875 c -9.562,3.6e-4 -17.85459,3.43978 -24.9375,10.34375 -7.08226,6.90464 -10.65591,15.31102 -10.65625,25.21875 3.4e-4,9.91919 3.57399,18.34598 10.65625,25.25 7.08291,6.90459 15.3755,10.34403 24.9375,10.34375 0.35257,0 0.71373,-0.0228 1.0625,-0.0312 0.35271,0.01 0.70589,0.0316 1.0625,0.0312 9.562,2.8e-4 17.88586,-3.43916 24.96875,-10.34375 7.08228,-6.90402 10.59341,-15.33081 10.59375,-25.25 -3.2e-4,-9.90773 -3.51147,-18.31411 -10.59375,-25.21875 -7.08289,-6.90397 -15.40675,-10.34339 -24.96875,-10.34375 -0.3565,1e-5 -0.7099,-0.009 -1.0625,0 -0.34867,-0.008 -0.71003,0 -1.0625,0 z m -27.0625,79.125 c -2.16279,6e-5 -4.1213,0.21573 -5.875,0.6875 -1.1526,-0.10781 -2.31138,-0.14957 -3.46875,-0.125 -7.93484,0.19136 -15.74218,3.6462 -21.21998,9.39007 -5.47779,5.74387 -8.5587,13.70619 -8.37377,21.64118 l 0.65625,70.75 c -5e-5,0.0312 -5e-5,0.0625 0,0.0937 3.22118,-2.31265 6.58636,-4.42 10.21875,-6.1875 39.64445,-1.16447 79.34295,-1.26054 119.0625,-1.15625 l -0.59375,-64.0625 c 0.0245,-7.65168 -2.97678,-15.27235 -8.21239,-20.85241 -5.23562,-5.58007 -12.64988,-9.06017 -20.28761,-9.52259 -1.68805,-0.42747 -3.53502,-0.6562 -5.59375,-0.65625 z"
     id="path8791-2"
     inkscape:connector-curvature="0"
     sodipodi:nodetypes="cccscccsccccccccsccccccsccc" />
  <path
     sodipodi:nodetypes="cccscccsccccccccsccccccsccc"
     inkscape:connector-curvature="0"
     id="path21180"
     d="m 367.24213,161.96875 c 9.562,3.6e-4 17.85459,3.43978 24.9375,10.34375 7.08226,6.90464 10.65591,15.31102 10.65625,25.21875 -3.4e-4,9.91919 -3.57399,18.34598 -10.65625,25.25 -7.08291,6.90459 -15.3755,10.34403 -24.9375,10.34375 -0.35257,0 -0.71373,-0.0228 -1.0625,-0.0312 -0.35271,0.01 -0.70589,0.0316 -1.0625,0.0312 -9.562,2.8e-4 -17.88586,-3.43916 -24.96875,-10.34375 -7.08228,-6.90402 -10.59341,-15.33081 -10.59375,-25.25 3.2e-4,-9.90773 3.51147,-18.31411 10.59375,-25.21875 7.08289,-6.90397 15.40675,-10.34339 24.96875,-10.34375 0.3565,1e-5 0.7099,-0.009 1.0625,0 0.34867,-0.008 0.71003,0 1.0625,0 z m 27.0625,79.125 c 2.16279,6e-5 4.1213,0.21573 5.875,0.6875 1.1526,-0.10781 2.31138,-0.14957 3.46875,-0.125 7.93484,0.19136 15.74218,3.6462 21.21998,9.39007 5.47779,5.74387 8.5587,13.70619 8.37377,21.64118 l -0.65625,70.75 c 5e-5,0.0312 5e-5,0.0625 0,0.0937 -3.22118,-2.31265 -6.58636,-4.42 -10.21875,-6.1875 -39.64445,-1.16447 -79.34295,-1.26054 -119.0625,-1.15625 l 0.59375,-64.0625 c -0.0245,-7.65168 2.97678,-15.27235 8.21239,-20.85241 5.23562,-5.58007 12.64988,-9.06017 20.28761,-9.52259 1.68805,-0.42747 3.53502,-0.6562 5.59375,-0.65625 z"
     style="font-size:40px;font-style:normal;font-variant:normal;font-weight:normal;font-stretch:normal;text-align:start;line-height:125%;writing-mode:lr-tb;text-anchor:start;opacity:1;fill:#ffffff;fill-opacity:1;stroke:#ffffff;stroke-width:1.38889050000000003;stroke-linecap:round;stroke-linejoin:round;stroke-opacity:1;font-family:NPSPICT3;-inkscape-font-specification:NPSPICT3" />
</svg>
