<?xml version="1.0" encoding="UTF-8" standalone="no"?>
<svg xmlns:rdf="http://www.w3.org/1999/02/22-rdf-syntax-ns#" xmlns="http://www.w3.org/2000/svg" version="1.0" xmlns:cc="http://creativecommons.org/ns#" xmlns:dc="http://purl.org/dc/elements/1.1/" viewBox="0 0 576.44501 577.45154">

<path d="m66.275 1.768c-41.335 0-64.571 21.371-64.571 65.036v450.123c0 40.844 20.895 62.229 62.192 62.229h452.024c41.307 0 62.229-20.315 62.229-62.229v-450.123c0-42.601-20.922-65.036-63.521-65.036-0.004 0-448.495-0.143-448.353 0z"/>
<path fill="#fff" d="m288.18359 24.904297a11.473319 11.473319 0 0 0 -5.2832 1.347656l-256.62695 136.86914a11.473319 11.473319 0 0 0 -2.716797 18.23047l17.097656 17.11328a11.473319 11.473319 0 0 0 12.414062 2.52735l19.148438-7.73828v287.45507a12.58387 12.58387 0 0 0 12.583984 12.58204h31.996099a12.58387 12.58387 0 0 0 12.58203 -12.58204v-308.13086a12.58387 12.58387 0 0 0 -0.22461 -2.33203l7.83593-3.16601 151.20704-17.89453 150.87109 18.1582 5.52539 2.22852a12.58387 12.58387 0 0 0 -0.37695 3.00585v308.13086a12.58387 12.58387 0 0 0 12.58398 12.58204h31.9961a12.58387 12.58387 0 0 0 12.58203 -12.58204v-288.23242l22.07421 8.9043a11.473319 11.473319 0 0 0 12.47657 -2.60156l17.18359-17.49805a11.473319 11.473319 0 0 0 -2.78711 -18.16016l-256.62695-136.86914a11.473319 11.473319 0 0 0 -5.51563 -1.347656zm28.92774 167.57226c-8.68156 0.00033-16.04515 3.10018-22.08789 9.29883-6.04311 6.19928-9.0646 13.48254-9.06446 21.85156-0.00014 8.67222 3.02135 16.02962 9.06446 22.07227 6.04274 6.0432 13.40633 9.06471 22.08789 9.06445 8.36914 0.00026 15.64929-3.02125 21.84375-9.06445 6.19403-6.04265 9.29276-13.40005 9.29297-22.07227-0.00021-8.36902-3.09894-15.65228-9.29297-21.85156-6.19446-6.19865-13.47461-9.2985-21.84375-9.29883zm-85.82031 44.76953c-2.71148 0.0266-4.94005 1.68651-6.6836 4.97852l-46.48437 79.94922c-3.09243 5.26766-2.00579 9.29438 3.26172 12.08398l14.86718 8.82422c5.26738 3.10201 9.29608 2.01961 12.08594-3.24805l46.48438-79.94921c3.10172-5.2672 2.01929-9.29591-3.24805-12.08594l-14.88086-8.83594c-1.97534-1.15954-3.77546-1.73278-5.40234-1.7168zm60.67773 21.16602c-13.72378-0.33806-24.24727 5.72743-31.57031 18.19727l-42.30078 72.98437c-2.78987 4.65295-4.02895 10.38262-3.7168 17.19141l1.39062 92.50195-32.07421 68.79883c-1.23891 2.78975-2.00993 5.11126-2.3125 6.96484-0.93628 5.89158 0.30168 11.08412 3.71093 15.57617 3.40914 4.49195 8.0595 7.20631 13.95118 8.14258 9.91071 1.54142 16.87948-1.86869 20.9082-10.22851l35.33594-75.3086c1.2387-2.78973 1.8573-5.73178 1.85742-8.82422l-0.4668-57.17968 35.84375 48.42578 10.36914 85.14648c1.24812 9.29613 6.82728 14.71637 16.73828 16.25781 6.81819 0.93625 12.78288-0.99863 17.89453-5.80273 5.11119-4.80406 7.2039-10.61515 6.27735-17.43359l-12.24024-96.75196c-1.23906-7.13036-5.56199-11.4446-9.6875-17.19726l-31.73242-44.25 30.68164-53.44922 15.33594 19.51758c1.23864 1.86318 3.10053 3.25893 5.58789 4.18554l30.58398 14.85352v179.92969a6.4341765 6.4341765 0 1 0 12.86719 0v-177.91797c2.34401-0.81249 4.46339-2.24536 6.34961-4.31836 3.10155-3.40904 4.65206-7.28414 4.65234-11.625-0.00029-7.74499-3.72178-12.8561-11.16406-15.33399l-26.56445-14.86718-38.11523-46.03125c-5.26766-6.19399-12.70649-10.06601-22.31446-11.61719-2.09117-0.30968-4.11563-0.48882-6.07617-0.53711z"/>
</svg>
