<?xml version="1.0" encoding="UTF-8" standalone="no"?>
<svg xmlns:rdf="http://www.w3.org/1999/02/22-rdf-syntax-ns#" xmlns="http://www.w3.org/2000/svg" version="1.0" xmlns:cc="http://creativecommons.org/ns#" xmlns:dc="http://purl.org/dc/elements/1.1/" viewBox="0 0 580 580">
<path d="m64.969216 0.06383604c-41.589917 0-64.969216 21.465317-64.969216 65.323023v452.10953c0 41.02425 21.023862 62.50363 62.575544 62.50363h454.81168c41.56175 0 62.61277-20.40465 62.61277-62.50363v-452.10953c0-42.789011-21.05102-65.323023-63.91274-65.323023-0.004 0-451.26091-0.1436311-451.11803 0z"/>
<path style="color-rendering:auto;text-decoration-color:#000000;color:#000000;isolation:auto;mix-blend-mode:normal;shape-rendering:auto;solid-color:#000000;block-progression:tb;text-decoration-line:none;text-decoration-style:solid;image-rendering:auto;white-space:normal;text-indent:0;text-transform:none" d="m261.21739 56.143808-23.39141 12.311911 36.21612 68.564941c-0.0263 0.054-0.0322 0.0686-0.059 0.12358-1.43799 2.95731-3.5862 7.22615-6.30426 12.53164-5.43613 10.61097-13.16952 25.41181-22.4108 42.94455-18.48256 35.06546-43.00979 81.08581-67.48983 126.84445-48.96011 91.5173-97.737742 182.00087-97.737742 182.00087l-10.505799 19.48797 94.734961-0.15694 23.63706 0.18244 0.11595-0.22167 203.84906-0.33743 0.2928 0.5591 92.34138-0.71211 21.87432-0.0353-0.0707-0.13144 0.71729-0.006-10.97353-19.33289-191.36434-362.31267 35.82112-67.552681-23.3698-12.349182-27.38072 51.637043-28.54213-54.040182zm28.81726 229.20044c21.9178 73.8212 67.85326 168.35687 88.22238 208.70218l-176.58822 0.29229c20.28818-40.16903 66.39194-134.98449 88.36584-208.99447z" fill-rule="evenodd" fill="#fff"/>
</svg>
