<?xml version="1.0" encoding="UTF-8" standalone="no"?>
<svg xmlns:rdf="http://www.w3.org/1999/02/22-rdf-syntax-ns#" xmlns="http://www.w3.org/2000/svg" version="1.0" xmlns:cc="http://creativecommons.org/ns#" xmlns:dc="http://purl.org/dc/elements/1.1/" viewBox="0 0 580 580">
<path d="m64.969216 0.06383604c-41.589917 0-64.969216 21.465317-64.969216 65.323023v452.10953c0 41.02425 21.023862 62.50363 62.575544 62.50363h454.81168c41.56175 0 62.61277-20.40465 62.61277-62.50363v-452.10953c0-42.789011-21.05102-65.323023-63.91274-65.323023-0.004 0-451.26091-0.1436311-451.11803 0z"/>
<path fill="#fff" d="m438.35512 249.78934c-0.00044 11.40411-5.51393 17.10605-16.54048 17.10586h-58.514c-11.03937 0.00019-16.55888-5.70175-16.55852-17.10586v-27.7295c-0.00036-11.01952 5.51915-16.5294 16.55852-16.52967h58.514c11.02655 0.00027 16.54004 5.51015 16.54048 16.52967v27.7295zm-166.66749 0.59416c-0.00028 11.00797-5.71819 16.51185-17.15376 16.51165h-126.47972c-11.03914 0.0002-16.55863-5.50368-16.55851-16.51165v-28.3237c-0.00012-11.01952 5.51937-16.52941 16.55851-16.52967h126.47972c11.43557 0.00026 17.15348 5.51015 17.15376 16.52967v28.3237zm259.47099 132.75947h-42.56876v-147.50653c-0.00049-22.81955-7.97912-42.09513-23.9359-57.82679-15.95773-15.73108-35.16777-23.59677-57.63015-23.59709h-276.60673c-22.85977 0.00032-42.169016 7.86601-57.927775 23.59709-15.758921 15.73166-23.638337 35.00724-23.638278 57.82679v104.43578c-0.000059 16.51775 5.910253 30.67659 17.730966 42.47655 11.820565 11.8001 26.004114 17.70013 42.550727 17.70006h95.1664c1.17827-16.91371 7.87621-31.27063 20.0939-43.07076 12.21723-11.79991 26.99603-17.69993 44.33645-17.70006 16.94303 0.00013 31.61961 5.90015 44.02979 17.70006 12.40954 11.80013 19.01129 25.95898 19.80529 42.47656h215.13456c-0.00057-11.00769-5.51405-16.51157-16.54049-16.51166zm-262.42915 41.28812c-5.5198 0.00006-10.24864-1.96561-14.18659-5.897-3.93847-3.9313-5.90758-8.65191-5.90731-14.16186-0.00027-5.89395 1.96884-10.71059 5.90731-14.44994 3.93795-3.7392 8.66679-5.60885 14.18659-5.60893 5.50719 0.00008 10.23304 1.86973 14.17755 5.60893 3.94394 3.73935 5.91604 8.55599 5.91634 14.44994-0.0003 5.50995-1.9724 10.23056-5.91634 14.16186-3.94451 3.93139-8.67036 5.89706-14.17755 5.897zm0-66.65882c-13.0114 0.00012-24.0474 4.52265-33.10804 13.56765-9.06112 9.04518-13.59156 20.05595-13.59133 33.03231-0.00023 12.59237 4.53021 23.41106 13.59133 32.45611 9.06064 9.04513 20.09664 13.56767 33.10804 13.56766 12.60198 0.00001 23.43656-4.52253 32.50376-13.56766 9.06658-9.04505 13.60003-19.86374 13.60035-32.45611-0.00032-12.97636-4.53377-23.98713-13.60035-33.03231-9.0672-9.045-19.90178-13.56753-32.50376-13.56765z"/>
</svg>
