<?xml version="1.0" encoding="UTF-8" standalone="no"?>
<svg xmlns:rdf="http://www.w3.org/1999/02/22-rdf-syntax-ns#" xmlns="http://www.w3.org/2000/svg" height="6.4161286in" width="6.4049444in" version="1.0" xmlns:cc="http://creativecommons.org/ns#" xmlns:dc="http://purl.org/dc/elements/1.1/" viewBox="0 0 576.445 577.45159">
<path d="m64.571 0.06355556c-41.335 0-64.571 21.371-64.571 65.036v450.123c0 40.844 20.895 62.229 62.192 62.229h452.02401c41.307 0 62.229-20.315 62.229-62.229v-450.123c0-42.601-20.922-65.036-63.521-65.036-0.004 0-448.49501-0.143-448.35301 0z"/>
<path opacity=".25" style="color:#000000;block-progression:tb;text-decoration-line:none;text-transform:none;text-indent:0" d="m401.45426 184.69592-7.4306 15.69324-5.98576 12.61614c-20.78097 43.7896-41.64557 87.56068-62.54087 131.28985-10.01018-13.67275-20.02434-27.32667-30.13521-40.92551l-7.22419-9.74416-6.39857 10.25702c-39.37851 62.63924-78.36927 125.5066-117.96076 187.9086l-7.84341 12.411 14.758 0.1024c123.63974 1.04221 247.27784 2.01799 370.91071 3.07711l13.20996 0.1024-5.67615-11.79557c-46.5924-98.52362-93.44952-196.89415-140.25255-295.29928l-7.4306-15.69324z" fill="#fff"/>
<path opacity=".62000002" style="color:#000000;block-progression:tb;text-decoration-line:none;text-transform:none;text-indent:0" d="m401.45426 184.69592-7.4306 15.69324-5.98576 12.61614c-20.78097 43.7896-41.64557 87.56068-62.54087 131.28985-10.01018-13.67275-20.02434-27.32667-30.13521-40.92551l-7.22419-9.74416-6.39857 10.25702c-39.37851 62.63924-78.36927 125.5066-117.96076 187.9086l-7.84341 12.411 14.758 0.1024c123.63974 1.04221 247.27784 2.01799 370.91071 3.07711l13.20996 0.1024-5.67615-11.79557c-46.5924-98.52362-93.44952-196.89415-140.25255-295.29928l-7.4306-15.69324zm0 138.98262c2.50051 0.007 4.97008 1.21532 6.50177 3.17968 7.38466 9.24471 14.57213 16.80271 17.44127 17.94978 1.43457 0.57371 1.08427 0.66578 2.58007-0.30754 1.49579-0.97348 4.51598-4.11961 7.84341-10.56473 1.40293-2.68386 4.38778-4.45286 7.43059-4.41052 3.04279 0.0423 6.00053 1.89386 7.3274 4.61566l67.2882 141.54687c2.4522 5.01006-1.92855 11.86877-7.5338 11.79558l-304.03533-2.56442c-2.90309-0.0397-5.72341-1.67615-7.12099-4.20538-1.39745-2.52923-1.31769-5.85218 0.2064-8.30819l59.85761-95.49285c2.59707-4.16468 9.27579-4.96762 12.79714-1.53856 5.3355 5.25747 9.95495 8.04016 15.48041 8.41076s13.26662-1.68658 24.66546-10.05188c3.49592-2.61976 9.09628-1.78239 11.66191 1.74369l5.26334 7.17992 21.67258-45.54117c1.2675-2.75269 4.18016-4.71511 7.2242-4.8208 3.04403-0.10569 6.07595 1.64999 7.5338 4.30795 2.14477 3.86819 4.28128 6.02391 5.88255 6.97477 1.60128 0.95071 2.63592 1.12066 4.54093 0.71799 3.81001-0.80533 11.15699-5.99482 18.7829-17.02665 1.48463-2.16917 4.06883-3.55221 6.70818-3.58996z" fill="#fff"/>
<path fill="#fff" d="m185.07684 69.967565-163.44541 140.3758h32.688862v210.56359h98.067475v-107.00635h67.6196l0.00022 107.00635h95.8258v-210.56359h32.68906l-163.44561-140.3758z" fill-rule="evenodd"/>
</svg>
