<?xml version="1.0" encoding="UTF-8" standalone="no"?>
<svg xmlns:rdf="http://www.w3.org/1999/02/22-rdf-syntax-ns#" xmlns="http://www.w3.org/2000/svg" version="1.0" xmlns:cc="http://creativecommons.org/ns#" xmlns:dc="http://purl.org/dc/elements/1.1/" viewBox="0 0 576.44501 577.45154">
<path d="m64.571 0.0635556c-41.335 0-64.571 21.371-64.571 65.036v450.123c0 40.844 20.895 62.229 62.192 62.229h452.024c41.307 0 62.229-20.315 62.229-62.229v-450.123c0-42.601-20.922-65.036-63.521-65.036-0.004 0-448.495-0.143-448.353 0z"/>
<path d="m45.688578 23.520165a17.916291 17.916291 0 0 0 -17.761719 18.052735l-3.197265 494.72852a17.916291 17.916291 0 1 0 35.828125 0.23047l0.224609-34.89453 453.57617 3.02539-0.18359 22.00781a17.916291 17.916291 0 1 0 35.82812 0.29883l3.19922-384.48633a17.916291 17.916291 0 0 0 -18.0332 -18.31641 17.916291 17.916291 0 0 0 -17.79493 18.01953l-0.75585 90.93165-454.08008-3.02735 1.216794-188.28516a17.916291 17.916291 0 0 0 -18.066406 -18.285155zm133.69922 39c-26.23785 0-50.48242 20.769438-50.48242 49.490235 0 28.7208 24.24457 49.52932 50.48242 49.5293 26.23786 0 50.48047-20.8085 50.48047-49.5293 0-28.720797-24.24261-49.490235-50.48047-49.490235zm79.88281 77.611335c-20.00615 0-36.65234 16.64619-36.65234 36.65234s16.64619 36.6543 36.65234 36.6543h169.36133c20.00615 0 36.65429-16.64815 36.65429-36.6543s-16.64814-36.65234-36.65429-36.65234h-169.36133zm-133.00391 32.5957c-10.00736 0-18.53515 8.5278-18.53515 18.53516s8.52779 18.5332 18.53515 18.5332h73.39649c10.00736 0 18.53515-8.52584 18.53515-18.5332s-8.52779-18.53516-18.53515-18.53516h-73.39649zm-63.960934 93.19141 454.01367 3.02734-1.66406 199.88867-453.64063-3.02539 1.291016-199.89062zm112.53515 31.04687c-26.23786 0-50.48047 20.76944-50.48047 49.49024s24.24261 49.52736 50.48047 49.52734c26.23786 0 50.48242-20.80654 50.48242-49.52734s-24.24456-49.49024-50.48242-49.49024zm79.88477 77.60938c-20.00615 0-36.6543 16.64815-36.6543 36.65429 0 20.00615 16.64815 36.6543 36.6543 36.6543h169.36133c20.00614 0 36.65429-16.64815 36.65429-36.6543 0-20.00614-16.64815-36.65429-36.65429-36.65429h-169.36133zm-133.00391 32.5957c-10.00736 0-18.53516 8.5278-18.53516 18.53516s8.5278 18.53515 18.53516 18.53515h73.39649c10.00735 0 18.53515-8.52779 18.53515-18.53515s-8.5278-18.53516-18.53515-18.53516h-73.39649z" fill="#fff"/>
</svg>
