<?xml version="1.0" encoding="UTF-8" standalone="no"?>
<svg xmlns:rdf="http://www.w3.org/1999/02/22-rdf-syntax-ns#" xmlns="http://www.w3.org/2000/svg" version="1.0" xmlns:cc="http://creativecommons.org/ns#" xmlns:dc="http://purl.org/dc/elements/1.1/" viewBox="0 0 576.44501 577.45154">
<path d="m64.571 0.06355556c-41.335 0-64.571 21.371-64.571 65.036v450.123c0 40.844 20.895 62.229 62.192 62.229h452.024c41.307 0 62.229-20.315 62.229-62.229v-450.123c0-42.601-20.922-65.036-63.521-65.036-0.004 0-448.495-0.143-448.353 0z"/>
<path opacity=".2" d="m29.161234 333.51431a5.4872335 5.4872335 0 0 0 -5.486328 5.48828v184.55664a5.4872335 5.4872335 0 0 0 5.486328 5.48828h519.81641a5.4872335 5.4872335 0 0 0 5.48828 -5.48828v-184.55664a5.4872335 5.4872335 0 0 0 -5.48828 -5.48828h-519.81641z" fill="#fff"/>
<path d="m189.23936 39.338525c-24.74605 0-47.54688 18.708558-47.54688 44.449219 0 25.740666 22.80083 44.449226 47.54688 44.449226 24.74604 0 47.54687-18.70856 47.54687-44.449226 0-25.740661-22.80083-44.449219-47.54687-44.449219zm-88.60742 25.826172a13.876537 13.876537 0 0 0 -13.845706 13.894531l-2.476562 193.25977a13.876537 13.876537 0 1 0 27.748048 0.35547l0.74414-58.0918 351.53516 2.3457-0.93946 47.86328a13.876537 13.876537 0 1 0 27.74414 0.54493l2.47852-126.36329a13.876537 13.876537 0 0 0 -13.80664 -14.34375 13.876537 13.876537 0 0 0 -13.9375 13.80079l-0.9961 50.75-351.72265-2.34375 1.37695-107.42188a13.876537 13.876537 0 0 0 -13.90234 -14.25zm161.08203 48.908203c-18.17228 0-33.30078 15.12851-33.30078 33.30078 0 18.17229 15.1285 33.30079 33.30078 33.30079h161.05078c18.17228 0 33.29883-15.1285 33.29883-33.30079 0-18.17226-15.12655-33.30078-33.29883-33.30078h-161.05078zm-124.50781 29.33594c-9.16259 0-16.97071 7.81008-16.97071 16.97266s7.80812 16.97265 16.97071 16.97265h69.37695c9.16258 0 16.9707-7.81007 16.9707-16.97265s-7.80812-16.97266-16.9707-16.97266h-69.37695zm-117.21094 181.85156v20h537.06445v-20h-537.06445zm15.474609 92.26563v19.46875h38.933594v-19.46875h-38.933594zm77.867192 0v19.46875h38.93554v-19.46875h-38.93554zm77.86914 0v19.46875h38.93359v-19.46875h-38.93359zm77.86718 0v19.46875h38.9336v-19.46875h-38.9336zm77.86914 0v19.46875h38.9336v-19.46875h-38.9336zm77.86719 0v19.46875h38.9336v-19.46875h-38.9336zm77.86719 0v19.46875h38.93555v-19.46875h-38.93555zm-482.68164 95.73437v20h537.06445v-20h-537.06445z" fill="#fff"/>
</svg>
