<?xml version="1.0" encoding="UTF-8" standalone="no"?>
<svg xmlns:rdf="http://www.w3.org/1999/02/22-rdf-syntax-ns#" xmlns="http://www.w3.org/2000/svg" version="1.0" xmlns:cc="http://creativecommons.org/ns#" xmlns:dc="http://purl.org/dc/elements/1.1/" viewBox="0 0 576.44501 577.45154">
<path d="m64.571 0.0635556c-41.335 0-64.571 21.371-64.571 65.036v450.123c0 40.844 20.895 62.229 62.192 62.229h452.024c41.307 0 62.229-20.315 62.229-62.229v-450.123c0-42.601-20.922-65.036-63.521-65.036-0.004 0-448.495-0.143-448.353 0z"/>
<path d="m368.5167 21.762353a9.6013924 9.6013924 0 0 0 -6.55468 3.003906l-46.32422 47.738281a9.6013924 9.6013924 0 1 0 13.77929 13.371094l46.32422-47.738281a9.6013924 9.6013924 0 0 0 -7.22461 -16.375zm-128.98242 10.847656a9.6013924 9.6013924 0 0 0 -6.59961 2.904297l-78.85351 78.853524a9.6013924 9.6013924 0 1 0 13.57617 13.57812l78.85351-78.853519a9.6013924 9.6013924 0 0 0 -6.97656 -16.482422zm-106.73437 29.986328a9.6013924 9.6013924 0 0 0 -6.59961 2.904297l-78.853519 78.851566a9.6013924 9.6013924 0 1 0 13.578125 13.57813l78.851564-78.853524a9.6013924 9.6013924 0 0 0 -6.97656 -16.480469zm411.6914 6.625a9.6013924 9.6013924 0 0 0 -6.65234 2.78125l-58.3457 56.224613a9.6013924 9.6013924 0 1 0 13.32421 13.82617l58.34571-56.224611a9.6013924 9.6013924 0 0 0 -6.67188 -16.607422zm-89.62695 7.326172a9.6013924 9.6013924 0 0 0 -6.59961 2.904297l-78.85352 78.851564a9.6013924 9.6013924 0 1 0 13.57618 13.57813l78.85351-78.853522a9.6013924 9.6013924 0 0 0 -6.97656 -16.480469zm-180.89648 17.095703a9.6013924 9.6013924 0 0 0 -6.59961 2.904297l-78.85352 78.853521a9.6013924 9.6013924 0 1 0 13.57813 13.57617l78.85156-78.85156a9.6013924 9.6013924 0 0 0 -6.97656 -16.482428zm78.28124 14.425788a9.6013924 9.6013924 0 0 0 -6.65039 2.7832l-39.2539 37.83789a9.6013924 9.6013924 0 1 0 13.32617 13.82422l39.25195-37.83984a9.6013924 9.6013924 0 0 0 -6.67383 -16.60547zm194.29883 38.32812a9.6013924 9.6013924 0 0 0 -6.63281 2.82617l-60.4668 59.05274a9.6013924 9.6013924 0 1 0 13.41407 13.73633l60.46875-59.05274a9.6013924 9.6013924 0 0 0 -6.78321 -16.5625zm-433.81445 26.30664a9.6013924 9.6013924 0 0 0 -6.59961 2.90625l-61.880859 61.88086a9.6013924 9.6013924 0 1 0 13.576172 13.57617l61.880857-61.88086a9.6013924 9.6013924 0 0 0 -6.97656 -16.48242zm332.51562 1.40235a9.6013924 9.6013924 0 0 0 -6.71289 2.63476l-27.23242 25.10938a9.6013924 9.6013924 0 1 0 13.01758 14.11523l27.23047-25.10937a9.6013924 9.6013924 0 0 0 -6.30274 -16.75zm-152.23828 19.70117a9.3620726 9.3620726 0 0 0 -4.31054 1.09961l-209.4043 111.68359a9.3620726 9.3620726 0 0 0 -2.216797 14.875l13.951172 13.96485a9.3620726 9.3620726 0 0 0 10.128905 2.0625l43.08399-17.41016v205.32422a9.8737118 9.8737118 0 0 0 9.87304 9.87305h26.89649a9.8737118 9.8737118 0 0 0 9.87304 -9.87305v-218.09961l102.13477-12.08789 100.75195 12.125v218.0625a9.8737118 9.8737118 0 0 0 9.87305 9.87305h26.89648a9.8737118 9.8737118 0 0 0 9.87305 -9.87305v-205.57617l44.57227 17.97851a9.3620726 9.3620726 0 0 0 10.18164 -2.12305l14.01953-14.27734a9.3620726 9.3620726 0 0 0 -2.27344 -14.81836l-209.4043-111.68359a9.3620726 9.3620726 0 0 0 -4.5 -1.09961z" fill="#fff"/>
</svg>
