<?xml version="1.0" encoding="UTF-8" standalone="no"?>
<svg xmlns:rdf="http://www.w3.org/1999/02/22-rdf-syntax-ns#" xmlns="http://www.w3.org/2000/svg" version="1.0" xmlns:cc="http://creativecommons.org/ns#" xmlns:dc="http://purl.org/dc/elements/1.1/" viewBox="0 0 576.44501 577.45154">
<path d="m64.571 0.06355556c-41.335 0-64.571 21.371-64.571 65.036v450.123c0 40.844 20.895 62.229 62.192 62.229h452.024c41.307 0 62.229-20.315 62.229-62.229v-450.123c0-42.601-20.922-65.036-63.521-65.036-0.004 0-448.495-0.143-448.353 0z"/>
<path opacity=".35096154" d="m370.47738 63.96724-187.04668 191.97616h37.40909v247.96408h112.22826v-146.34051h77.38377l0.00026 146.34051h109.6629v-247.96408h37.40934l-187.04694-191.97616z" fill="#fff"/>
<path d="m138.12412 112.92642a2.1293943 2.1293943 0 0 0 -1.86914 1.23242l-88.892574 191.75977a2.1293943 2.1293943 0 0 0 1.931641 3.02343h15.957031l-29.40039 53.4004a2.1293943 2.1293943 0 0 0 1.865234 3.15624h19.378906l-35.041016 57.98438a2.1293943 2.1293943 0 0 0 2.138672 3.20703l89.908206-13.47265v95.73437a2.1293943 2.1293943 0 0 0 2.1289 2.13086h21.95703a2.1293943 2.1293943 0 0 0 0.11329 -0.006 2.1293943 2.1293943 0 0 0 0.002 0 2.1293943 2.1293943 0 0 0 0.15039 0.006h21.95703a2.1293943 2.1293943 0 0 0 2.13086 -2.13086v-95.73633l90.04102 13.47461a2.1293943 2.1293943 0 0 0 2.13672 -3.20703l-35.04102-57.98438h19.24609a2.1293943 2.1293943 0 0 0 1.86524 -3.15624l-29.40039-53.4004h16.09179a2.1293943 2.1293943 0 0 0 1.93164 -3.02539l-89.02739-191.75976a2.1293943 2.1293943 0 0 0 -2.04687 -1.22656 2.1293943 2.1293943 0 0 0 -0.0215 0 2.1293943 2.1293943 0 0 0 -0.19141 -0.004z" fill="#fff"/>
<path d="m370.46983 58.967431a5.0005 5.0005 0 0 0 -3.57422 1.509766l-187.04688 191.97656a5.0005 5.0005 0 0 0 3.58204 8.49024h32.4082v242.96289a5.0005 5.0005 0 0 0 5 5h112.22851a5.0005 5.0005 0 0 0 5 -5v-141.33985h67.38477v141.33985a5.0005 5.0005 0 0 0 5 5h109.66211a5.0005 5.0005 0 0 0 5 -5v-242.96289h32.41016a5.0005 5.0005 0 0 0 3.58007 -8.49024l-187.04687-191.97656a5.0005 5.0005 0 0 0 -3.58789 -1.509766zm0.008 12.164063 175.19531 179.81251h-25.55859a5.0005 5.0005 0 0 0 -5 5v242.96289h-99.66211v-141.33985a5.0005 5.0005 0 0 0 -5 -5h-77.38477a5.0005 5.0005 0 0 0 -5 5v141.33985h-102.22851v-242.96289a5.0005 5.0005 0 0 0 -5 -5h-25.55664l175.19531-179.81251z" fill="#fff"/>
</svg>
