<?xml version="1.0" encoding="UTF-8" standalone="no"?>
<svg xmlns:rdf="http://www.w3.org/1999/02/22-rdf-syntax-ns#" xmlns="http://www.w3.org/2000/svg" version="1.0" xmlns:cc="http://creativecommons.org/ns#" xmlns:dc="http://purl.org/dc/elements/1.1/" viewBox="0 0 504.42743 512.16327">
<defs>
<style type="text/css">.fil0 {fill:#EF7900}</style>
</defs>
<path d="m347.55397 0.00113108a10.001 10.001 0 0 0 -9.84961 10.142578v47.853516a10.001 10.001 0 1 0 20 0v-47.853516a10.001 10.001 0 0 0 -10.15039 -10.142578zm-69.5625 16.507813a10.001 10.001 0 0 0 -8.83204 14.757812l22.16211 42.414063a10.001 10.001 0 1 0 17.72461 -9.263672l-22.16211-42.414063a10.001 10.001 0 0 0 -8.89257 -5.49414zm140.28711 1.736328a10.001 10.001 0 0 0 -8.59375 5.490234l-22.16211 42.414063a10.001 10.001 0 1 0 17.72656 9.261718l22.16211-42.414062a10.001 10.001 0 0 0 -9.13281 -14.751953zm-196.52344 51.005859a10.001 10.001 0 0 0 -4.80664 18.578126l40.71875 25.142583a10.001 10.001 0 1 0 10.50781 -17.017583l-40.71875-25.142579a10.001 10.001 0 0 0 -5.70117 -1.560547zm252.75781 1.72461a10.001 10.001 0 0 0 -5.39844 1.566406l-40.71875 25.14258a10.001 10.001 0 1 0 10.50782 17.017583l40.71875-25.142583a10.001 10.001 0 0 0 -5.10938 -18.583986zm-125.64648 11.751956c-39.95383 0-72.45118 32.497353-72.45118 72.451173 0 39.95383 32.49735 72.44922 72.45118 72.44922 39.95382 0 72.44922-32.49539 72.44922-72.44922 0-39.95382-32.4954-72.451173-72.44922-72.451173zm-98.74805 62.359383-47.85352 0.0918a10.001 10.001 0 1 0 0.0371 20l47.85547-0.0918a10.001 10.001 0 1 0 -0.0391 -20zm244.14844 0.98437-47.85352 0.0918a10.001 10.001 0 1 0 0.0371 20l47.85547-0.0918a10.001 10.001 0 1 0 -0.0391 -20zm-231.20117 50.64063a10.001 10.001 0 0 0 -5.39844 1.5664l-40.71875 25.14258a10.001 10.001 0 1 0 10.50781 17.01562l40.71875-25.14062a10.001 10.001 0 0 0 -5.10937 -18.58398zm170.13671 0.004a10.001 10.001 0 0 0 -4.80664 18.58008l40.71875 25.14062a10.001 10.001 0 1 0 10.50782 -17.01562l-40.71875-25.14258a10.001 10.001 0 0 0 -5.70118 -1.5625zm-36.84765 35.35938a10.001 10.001 0 0 0 -8.83203 14.75586l22.16211 42.41406a10.001 10.001 0 1 0 17.72656 -9.26172l-22.16211-42.41406a10.001 10.001 0 0 0 -8.89453 -5.49414zm-96.44141 0.004a10.001 10.001 0 0 0 -8.5918 5.49024l-22.16211 42.41386a10.001 10.001 0 1 0 17.72461 9.26172l22.16211-42.41406a10.001 10.001 0 0 0 -9.13281 -14.75196zm48.80274 7.03125a10.001 10.001 0 0 0 -9.81836 9.28516 10.001 10.001 0 0 0 -1.19336 4.85547v47.85547a10.001 10.001 0 0 0 19.9707 0.85547 10.001 10.001 0 0 0 1.19141 -4.85547v-47.85547a10.001 10.001 0 0 0 -10.15039 -10.14083zm-300.10547 120.94316c-6.18495-0.009-12.106888 4.46701-13.785156 10.41992l-6.541016 23.06055h61.716792l4.10156-33.48047h-45.49218zm69.367182 0-4.10351 33.48047h73.43359l2.2168-33.48047h-71.54688zm95.23633 0-2.21875 33.48047h69.92188l-2.21875-33.48047h-65.48438zm89.17383 0 2.2168 33.48047h73.43359l-4.10351-33.48047h-71.54688zm95.42188 0 4.10156 33.48047h61.7168l-6.54102-23.06055c-1.67827-5.95291-7.6002-10.42799-13.78516-10.41992h-45.49218zm-374.21875 52.40235-10.015625 35.47851h70.033202l4.35938-35.47851h-64.376957zm88.251959 0-4.36133 35.47851h76.38867l2.32813-35.47851h-74.35547zm98.04492 0-2.32812 35.47851h76.79296l-2.32812-35.47851h-72.13672zm95.82617 0 2.32813 35.47851h76.38867l-4.36133-35.47851h-74.35547zm98.23047 0 4.35938 35.47851h70.0332l-10.01563-35.47851h-64.37695zm-396.42969 56.76562-6.984375 24.72266c-1.20612 4.23593-0.324707 9.01356 2.328125 12.52929 2.652834 3.51572 7.015632 5.68695 11.419922 5.68946h61.457031l5.28515-42.94141h-73.505853zm97.343745 0-5.248042 42.94141h80.009762l2.84571-42.94141h-77.60743zm101.29688 0-2.8457 42.94141h85.29296l-2.8457-42.94141h-79.60156zm103.29101 0 2.84571 42.94141h80.00976l-5.24804-42.94141h-77.60743zm101.44532 0 5.28515 42.94141h61.45703c4.40428-0.002 8.7671-2.17374 11.41993-5.68946 2.65284-3.51573 3.53424-8.29336 2.32812-12.52929l-6.98437-24.72266h-73.50586z"/>
</svg>
