<?xml version="1.0" encoding="UTF-8" standalone="no"?>
<svg xmlns:rdf="http://www.w3.org/1999/02/22-rdf-syntax-ns#" xmlns="http://www.w3.org/2000/svg" version="1.0" xmlns:cc="http://creativecommons.org/ns#" xmlns:dc="http://purl.org/dc/elements/1.1/" viewBox="0 0 522 385.97461">
<path opacity=".6" d="m0.00781 32.041024v35.04687h178.95117v-35.04687h-178.95117zm-0.0078 53.17773v35.062496h175.96875c0.99274-1.10931 1.95852-2.2494 3-3.3125v-31.749996h-178.96875zm231.31641 20.095696a3.9771285 3.9771285 0 0 0 -1.57227 0.28321l-18.30469 7.32226a3.9771285 3.9771285 0 0 0 -0.85156 0.46875l-21.9668 15.86524a3.9771285 3.9771285 0 0 0 -0.42382 6.09375l54.61132 52.32421a3.9771285 3.9771285 0 0 0 1.45899 0.88282 3.9771285 3.9771285 0 0 0 0.0898 1.41406l18.15235 72.1543a3.9771285 3.9771285 0 0 0 5.33398 2.72265l18.30469-7.32226a3.9771285 3.9771285 0 0 0 0.85156 -0.46875l21.9668-15.86328a3.9771285 3.9771285 0 0 0 0.42383 -6.09571l-54.61133-52.32422a3.9771285 3.9771285 0 0 0 -1.45899 -0.88281 3.9771285 3.9771285 0 0 0 -0.0898 -1.41406l-18.15234-72.1543a3.9771285 3.9771285 0 0 0 -3.76172 -3.00586zm-231.31642 33.0918v34.90625h151.75c0.31349-2.47394 0.63121-4.96192 1.125-7.375 0.65498-3.20079 1.4485-6.32699 2.40625-9.40625s2.06846-6.09 3.3125-9.03125 2.64239-5.80698 4.15625-8.59375c0.094-0.1731 0.21746-0.32753 0.3125-0.5h-163.0625zm0 53.03125v35.0625h159.78125c-0.37854-0.82943-0.83154-1.62716-1.1875-2.46875-1.24404-2.94125-2.35475-5.95199-3.3125-9.03125s-1.75127-6.20546-2.40625-9.40625-1.16427-6.47541-1.5-9.78125c-0.14642-1.44181-0.1353-2.91546-0.21875-4.375h-151.15625zm0 53.25v35.0625h178.96875v-25.1875c-1.96442-2.00519-3.86801-4.08316-5.65625-6.25-0.96158-1.16517-1.81071-2.41569-2.71875-3.625h-170.59375zm403.14648 49.02344c-7.24011 0-13.96825 1.60114-20.11914 4.48437-5.89461 2.62695-12.55719 4.23047-19.54101 4.23047-6.91976 0-13.52022-1.60352-19.54297-4.23047l7.17773 31.78125c3.97245 1.08922 8.1365 1.60156 12.36524 1.60157 7.0479 0 13.6464-1.47462 19.54101-4.10157 6.08681-2.88323 12.87903-4.48437 20.11914-4.48437 7.17604 0 13.9038 1.60114 20.05469 4.48437 5.89461 2.62695 12.62128 4.10156 19.54102 4.10157 6.91976 0 13.52022-1.47462 19.54297-4.10157 6.02275-2.88323 12.94272-4.48437 20.05468-4.48437 7.11197 0 13.96629 1.60114 20.11719 4.48437 5.8946 2.62695 12.55914 4.10156 19.54297 4.10157v-29.15235c-7.0479 0-13.64837-1.60352-19.54297-4.23047-6.08683-2.88323-12.94114-4.48437-20.11719-4.48437-7.17603 0-14.03193 1.60114-20.05468 4.48437-6.02275 2.62695-12.62321 4.23047-19.54297 4.23047-6.91974 0-13.64641-1.60352-19.54102-4.23047-6.15089-2.88323-12.94272-4.48437-20.05469-4.48437zm-403.13867 4.16601v35.04688h178.95117v-35.04688h-178.95117zm403.13867 49.58985c-7.24011 0-13.96825 1.60308-20.11914 4.48633-5.89461 2.62695-12.55719 4.22851-19.54101 4.22851-2.62695 0-5.25391-0.25696-7.88086-0.76953l6.72656 29.92187h1.1543c7.0479 0 13.6464-1.47462 19.54101-4.10156 6.08681-2.88323 12.87903-4.48437 20.11914-4.48437 7.17604 0 13.9038 1.60114 20.05469 4.48437 5.89461 2.62694 12.62128 4.10156 19.54102 4.10156 6.91976 0 13.52022-1.47462 19.54297-4.10156 6.02275-2.88323 12.94272-4.48437 20.05468-4.48437 7.11197 0 13.96629 1.60114 20.11719 4.48437 5.8946 2.62694 12.55914 4.10156 19.54297 4.10156v-29.15234c-7.0479 0-13.64837-1.60157-19.54297-4.22851-6.08683-2.88325-12.94114-4.48633-20.11719-4.48633-7.17603 0-14.03193 1.60308-20.05468 4.48633-6.02275 2.62695-12.62321 4.22851-19.54297 4.22851-6.91974 0-13.64641-1.60157-19.54102-4.22851-6.15089-2.88325-12.94272-4.48633-20.05469-4.48633zm-403.13867 3.46093v35.04688h178.95117v-35.04688h-178.95117z"/>
<path d="m231.4375 0-28.78125 0.125v99.031254c2.69051-1.44923 5.44764-2.80148 8.28125-4 2.94125-1.24404 5.95199-2.35475 9.03125-3.3125s6.20546-1.75127 9.40625-2.40625 6.47541-1.16427 9.78125-1.5 6.66809-0.5 10.0625-0.5 6.72541 0.16427 10.03125 0.5 6.58046 0.84502 9.78125 1.5c0.0849 0.0174 0.16513 0.0449 0.25 0.0625l-17.90625-76.218754c-3.26766-7.752674-11.03152-13.28125-19.9375-13.28125zm17.76758 103.26367c-45.51471 0-82.50391 36.98921-82.50391 82.50391 0 45.51472 36.9892 82.5039 82.50391 82.5039s82.5039-36.98918 82.5039-82.5039c0-45.5147-36.98919-82.50391-82.5039-82.50391zm0 8.58203c40.87677 0 73.92187 33.04512 73.92187 73.92188 0 40.87678-33.0451 73.92187-73.92187 73.92187s-73.92188-33.04509-73.92188-73.92187c0-40.87676 33.04511-73.92188 73.92188-73.92188zm0 64.16602c-5.38171 0-9.75391 4.37415-9.75391 9.75586s4.3722 9.75586 9.75391 9.75586 9.75586-4.37415 9.75586-9.75586-4.37414-9.75586-9.75586-9.75586zm60.82617 86.92578c-1.91113 1.5087-3.82174 3.00895-5.84375 4.375-2.61581 1.76721-5.30698 3.42364-8.09375 4.9375s-5.68375 2.88096-8.625 4.125-5.95199 2.35475-9.03125 3.3125-6.20546 1.75127-9.40625 2.40625-6.47541 1.16427-9.78125 1.5-6.63684 0.5-10.03125 0.5-6.75666-0.16427-10.0625-0.5-6.58046-0.84502-9.78125-1.5-6.32699-1.4485-9.40625-2.40625-6.09-2.06846-9.03125-3.3125c-2.83346-1.19845-5.59088-2.51961-8.28125-3.96875v113.5h136.28125l-28.90625-122.96875z"/>
</svg>
