<?xml version="1.0" encoding="UTF-8" standalone="no"?>
<svg xmlns:rdf="http://www.w3.org/1999/02/22-rdf-syntax-ns#" xmlns="http://www.w3.org/2000/svg" height="488.92938" width="438.65704" version="1.0" xmlns:cc="http://creativecommons.org/ns#" xmlns:dc="http://purl.org/dc/elements/1.1/" viewBox="0 0 438.65705 488.92938">
<defs>
<style type="text/css">.fil0 {fill:#EF7900}</style>
</defs>
<path d="m29.05938 142.36688a5.0005 5.0005 0 0 0 -5.03711 5.47266c10.16824 106.9599 2.63072 209.53927-23.914058 335.05468a5.0005 5.0005 0 0 0 4.892578 6.03516h32 160.125 32a5.0005 5.0005 0 0 0 2.4707 -0.65625h202.87696a4.1848347 4.1848347 0 0 0 4.18359 -4.18359v-120.63282a4.1848347 4.1848347 0 0 0 -4.18359 -4.18359h-221.28321c-8.81031-73.67366-9.72256-141.62282-3.08593-211.43359a5.0005 5.0005 0 0 0 -6.98047 -5.05469c-32.09946 14.02635-60.06498 12.1199-86.06055 13.98437-25.99557-1.86447-53.96109 0.042-86.06055-13.98437a5.0005 5.0005 0 0 0 -1.94336 -0.41797z"/>
<path opacity=".4" d="m136.85017 9.4277179c-22.00326-3.436701-28.0807 12.785799-27.97827 18.04867-5.32997-8.089035-24.5936 15.148323-17.91034 21.462271-0.7794 0.613341-1.366 1.258416-1.74592 1.917349-13.89092 9.78924-6.34037 9.301568-5.71389 16.431828-3.47451 4.09351-6.57275 5.93636-1.84459 15.96064-1.87493 5.57785-3.41485 8.9053 2.19713 13.7545-2.92822 3.749604-7.35452 5.779624-4.31745 10.665174 0.0174 0.13886 0.0386 0.2773 0.0636 0.41527-1.95957 1.85611-3.03539 4.03208-3.04032 6.17496 6.55571 19.80606 71.8174 11.69855 72.2113 8.2555 4.02723-0.86113 3.38093-7.77632 2.69151-8.64412 15.6607 1.44171 25.01994-4.12398 26.65434-16.851094 0.94187-1.17462 1.47943-2.25955 1.57641-3.24705 17.19926 1.06953 20.93567-9.45181 22.50918-13.92515 0.0611-0.12501 0.11452-0.24883 0.16143-0.37162 7.05666 5.91637 33.29443 4.7897 37.31051-4.33224 15.70952 1.09653 22.329-5.53437 21.47046-15.530929 0.29615-0.917348 0.62766-1.881493 0.88781-2.808391 6.56062-2.916305 8.98225-10.845485 5.6124-17.223469 4.27371-4.691159-2.87778-8.756072-4.63497-9.977797-1.88-11.509791-7.89536-13.617398-18.28921-12.037347-5.41053-8.9636791-22.05149-5.546813-26.1589-2.808025-4.28734-6.5547191-11.1206-14.606341-29.93219-11.36472-6.68009-5.796758-13.66985-3.466067-17.91327 1.760417-4.34369-7.134247-11.88059-5.439126-17.25209-0.104602-4.60492-5.423762-12.89111-2.735391-16.6149 4.380037z"/>
</svg>
