<?xml version="1.0" encoding="UTF-8" standalone="no"?>
<svg xmlns:rdf="http://www.w3.org/1999/02/22-rdf-syntax-ns#" xmlns="http://www.w3.org/2000/svg" version="1.0" xmlns:cc="http://creativecommons.org/ns#" xmlns:dc="http://purl.org/dc/elements/1.1/" viewBox="0 0 326.66086 521.1806">
<defs>
<style type="text/css">.fil0 {fill:#EF7900}</style>
</defs>
<path opacity=".8" d="m100.59251 146.39346a3.9433293 3.9433293 0 0 0 -3.939449 3.79492l-13.78125 365.9375a3.9433293 3.9433293 0 0 0 3.88281 4.0918c84.489559 1.2057 150.2346 0.9375 235.96289 0.9375a3.9433293 3.9433293 0 0 0 3.94336 -3.94336v-113.65625a3.9433293 3.9433293 0 0 0 -3.94336 -3.94336h-179.77344l-5.84765-249.36719a3.9433293 3.9433293 0 0 0 -3.94141 -3.85156h-32.5625z"/>
<path d="m57.301491 0.00283086c-0.18684-0.01123-0.36527 0.01083-0.53125 0.06836-10.62233 3.681915 33.10692 146.54772 30.98438 157.5879-2.12254 11.04017-95.708782 127.50697-87.20898 134.86523 8.4997998 7.35826 110.36008-101.94504 120.98242-105.62695 10.62233-3.68192 158.2798 19.13392 160.40234 8.09375s-143.467-44.60464-151.9668-51.96289c-8.36699-7.24329-60.890629-142.31804-72.662109-143.0254z"/>
</svg>
