<?xml version="1.0" encoding="UTF-8" standalone="no"?>
<svg xmlns:rdf="http://www.w3.org/1999/02/22-rdf-syntax-ns#" xmlns="http://www.w3.org/2000/svg" version="1.0" xmlns:cc="http://creativecommons.org/ns#" xmlns:dc="http://purl.org/dc/elements/1.1/" viewBox="0 0 522.60352 444.57257">
<defs>
<style type="text/css">.fil0 {fill:#EF7900}</style>
</defs>
<path d="m251.21484 0.00073621533a12.50125 12.50125 0 0 0 -12.36523 12.625l-0.0625 14.277344-48.52539-0.208984a12.50125 12.50125 0 1 0 -0.10743 25.000008l48.5254 0.20898-0.18555 42.99805-48.23242-0.20703a12.50125 12.50125 0 1 0 -0.10743 24.999996l48.23243 0.20703-0.14844 34.54687a12.50125 12.50125 0 0 0 -0.6582 1.47071l-102.55274 271.5371a12.50125 12.50125 0 1 0 23.38867 8.83204l16.39063-43.39649 87.58008-70.94336 86.46093 70.03711 16.73243 44.30274a12.50125 12.50125 0 1 0 23.38671 -8.83204l-102.55078-271.5371a12.50125 12.50125 0 0 0 -1.17187 -2.38868l0.14258-33.42578 50.42382 0.2168a12.50125 12.50125 0 1 0 0.10743 -24.999996l-50.42383-0.2168 0.18555-42.99804 50.13085 0.21484a12.50125 12.50125 0 1 0 0.10743 -25.000005l-50.13086-0.214844 0.0625-14.373047a12.50125 12.50125 0 0 0 -12.63477 -12.732422 12.50125 12.50125 0 0 0 -10.85937 6.5820322 12.50125 12.50125 0 0 0 -11.14063 -6.582032zm10.50391 164.42187a12.50125 12.50125 0 0 0 2.35156 3.08984l15.26367 40.41797-16.77539 15.5293-17.60742-16.29883 15.34961-40.64648a12.50125 12.50125 0 0 0 1.41797 -2.0918zm-21.54688 55.39063 13.16406 12.18359-27.31445 25.28711 14.15039-37.4707zm43.94141 0.76757 13.25781 35.10743-25.5918-23.69141 12.33399-11.41602zm-21.55469 19.95313 35.39063 32.76172-35.5625 28.80469-35.37891-28.65821 35.55078-32.9082zm-46.7207 43.70898 34.29687 27.78125-64.52929 52.27149 30.23242-80.05274zm92.5 0.48243 29.70898 78.66406-63.4082-51.36524 33.69922-27.29882z"/>
<path opacity=".5" d="m11.08789 30.811283-11.08789 13.15625s25.589968 21.644881 63.59375 32.623051c38.00378 10.97817 89.75721 10.94211 139.05859-31.251954l-11.18555-13.070316c-44.88704 38.41611-88.89031 37.67446-123.09765 27.79297-34.207341-9.88148-57.281252-29.250001-57.281252-29.250001zm500.42773 0s-23.07391 19.368521-57.28125 29.250001c-34.20734 9.88149-78.21061 10.62314-123.09765-27.79297l-11.1875 13.070316c49.30137 42.194064 101.05676 42.230124 139.06054 31.251954s63.59375-32.623051 63.59375-32.623051l-11.08789-13.15625zm-500.42773 71.999997-11.08789 13.15625s25.589968 21.64488 63.59375 32.62305c38.00378 10.97817 89.75721 10.94211 139.05859-31.25195l-11.18555-13.07032c-44.88704 38.41611-88.89031 37.67446-123.09765 27.79297-34.207339-9.88148-57.28125-29.25-57.28125-29.25zm500.42773 0s-23.07391 19.36852-57.28125 29.25c-34.20734 9.88149-78.21061 10.62314-123.09765-27.79297l-11.1875 13.07032c49.30137 42.19406 101.05676 42.23012 139.06054 31.25195s63.59375-32.62305 63.59375-32.62305l-11.08789-13.15625z"/>
</svg>
