<?xml version="1.0" encoding="UTF-8" standalone="no"?>
<svg xmlns:rdf="http://www.w3.org/1999/02/22-rdf-syntax-ns#" xmlns="http://www.w3.org/2000/svg" height="462.84961" width="520.33398" version="1.0" xmlns:cc="http://creativecommons.org/ns#" xmlns:dc="http://purl.org/dc/elements/1.1/" viewBox="0 0 520.33399 462.84961">
<defs>
<style type="text/css">.fil0 {fill:#EF7900}</style>
</defs>
<path opacity=".75" d="m5.507812 61.804691-5.507812 6.98438s26.669382 21.05476 66.191406 31.736319c39.522024 10.68156 92.547694 10.88839 144.04101-30.343749l-5.56055-6.9414c-49.17779 39.378029-98.50097 38.877309-136.16015 28.69922-37.659185-10.1781-63.003911-30.13477-63.003912-30.13477zm308.99805 1.98438-5.50391 7.01562s26.81252 21.05456 66.54102 31.734379c39.7285 10.67981 93.02226 10.89064 144.79101-30.339849l-5.55664-6.97656c-49.4449 39.379689-99.05129 38.884919-136.91992 28.70508-37.86862-10.17984-63.35156-30.13867-63.35156-30.13867z"/>
<path d="m235.30469 0v20 28.816411h-49.59961a15.611673 15.611673 0 1 0 0 31.21875h49.59961v362.81445 20h40v-20-362.81445h52.72265a15.611673 15.611673 0 1 0 0 -31.21875h-52.72265v-28.816411-20h-40z"/>
</svg>
