<?xml version="1.0" encoding="UTF-8" standalone="no"?>
<svg xmlns:rdf="http://www.w3.org/1999/02/22-rdf-syntax-ns#" xmlns="http://www.w3.org/2000/svg" version="1.0" xmlns:cc="http://creativecommons.org/ns#" xmlns:dc="http://purl.org/dc/elements/1.1/" viewBox="0 0 323.30911 305.66397">
<defs>
<style type="text/css">.fil0 {fill:#EF7900}</style>
</defs>
<path d="m50.611593 0.00286924c-0.1644 0-10.18291 0.00053-20.24023 0.002-5.02866 0.00069-10.0562 0.00093-13.84375 0.002-1.89378 0.00049-3.47874 0.00095-4.59766 0.002-0.55946 0.00028-1.00107 0.002-1.31054 0.002-0.3095 0.0003 0.6889-0.0259-0.6855501 0.002a10.001 10.001 0 1 0 0.40429 19.99609c-1.3435501 0.0272-0.003 0.002 0.30079 0.002 0.30341-0.00029 0.74486-0.002 1.30273-0.002 1.11574-0.00056 2.69688-0.00095 4.58984-0.002 3.78593-0.00099 8.81551-0.00096 13.84375-0.002l20.23633-0.002c14.1495 0 25.4043 11.25675 25.4043 25.40625s-11.2548 25.4043-25.4043 25.4043c-0.16768 0-0.34825-0.002-0.54101-0.006a10.001 10.001 0 0 0 -10.32813 10.27343 10.001 10.001 0 0 0 10.32813 10.29883c0.19276-0.004 0.37333-0.006 0.54101-0.006 14.1495 0 25.4043 11.254801 25.4043 25.404301s-11.2548 25.40625-25.4043 25.40625c-0.16768 0-0.34825-0.002-0.54101-0.006a10.001 10.001 0 0 0 -10.31446 10.58399 10.001 10.001 0 0 0 10.31446 10.72265c0.19276-0.004 0.37333-0.006 0.54101-0.006 14.1495 0 25.4043 11.25675 25.4043 25.40625s-11.2548 25.4043-25.4043 25.4043c-0.16768 0-0.34825-0.002-0.54101-0.006a10.001 10.001 0 0 0 -10.32813 10.27344 10.001 10.001 0 0 0 10.32813 10.29882c0.19276-0.004 0.37333-0.006 0.54101-0.006 14.1495 0 25.4043 11.25479 25.4043 25.40429s-11.2548 25.40625-25.4043 25.40625c-0.0838 0-10.17983-0.00053-20.23633-0.002-5.02824-0.00069-10.05782-0.003-13.84375-0.004-1.89296-0.00049-3.4741 0.00056-4.58984 0-0.55787-0.00028-0.99932-0.002-1.30273-0.002-0.30342-0.00029-1.6443401-0.0253-0.30079 0.002a10.001 10.001 0 1 0 -0.4042901 19.9961c1.3744501 0.0278 0.3760601 0.002 0.6855501 0.002 0.30948 0.0003 0.75108 0.002 1.31054 0.002 1.11892 0.00056 2.70388-0.00049 4.59766 0 3.78755 0.00099 8.81509 0.003 13.84375 0.004 10.05732 0.001 20.07583 0.002 20.24023 0.002 24.9583 0 45.4043-20.44795 45.4043-45.40625 0-14.5132-7.03397-27.3566-17.72852-35.68554 10.69418-8.32897 17.72852-21.17068 17.72852-35.6836 0-14.71923-7.21925-27.74034-18.17383-36.05273 10.95515-8.31235 18.17383-21.33501 18.17383-36.05469 0-14.5132-7.03397-27.356601-17.72852-35.685551 10.69418-8.32896 17.72852-21.17068 17.72852-35.68359 0-24.9583-20.446-45.40625-45.4043-45.40625zm222.08594 0c-24.9583 0-45.4043 20.44795-45.4043 45.40625 0 14.51273 7.03458 27.35461 17.72852 35.68359-10.69431 8.32896-17.72852 21.172531-17.72852 35.685551 0 14.71952 7.21888 27.74232 18.17383 36.05469-10.95439 8.3124-18.17383 21.33365-18.17383 36.05273 0 14.51273 7.03458 27.35462 17.72852 35.6836-10.69431 8.32896-17.72852 21.17253-17.72852 35.68554 0 24.9583 20.446 45.40625 45.4043 45.40625 0.16441 0 10.18292-0.00053 20.24023-0.002 5.02866-0.00069 10.0562-0.003 13.84375-0.004 1.89378-0.00049 3.47874 0.00056 4.59766 0 0.55946-0.00028 1.00106-0.002 1.31055-0.002 0.30949-0.0003-0.68879 0.026 0.68554-0.002a10.001 10.001 0 1 0 -0.40429 -19.9961c1.34346-0.0272 0.005-0.002-0.29883-0.002-0.30342 0.00029-0.74488 0.002-1.30273 0.002-1.11575 0.00056-2.69884-0.00049-4.5918 0-3.78593 0.00099-8.81355 0.003-13.8418 0.004l-20.23828 0.002c-14.1495 0-25.4043-11.25675-25.4043-25.40625s11.2548-25.40429 25.4043-25.40429c0.16769 0 0.34827 0.002 0.54102 0.006a10.001 10.001 0 0 0 10.33007 -10.30664 10.001 10.001 0 0 0 -10.33007 -10.26562c-0.19275 0.004-0.37333 0.006-0.54102 0.006-14.1495 0-25.4043-11.2548-25.4043-25.4043s11.2548-25.40625 25.4043-25.40625c0.16769 0 0.34827 0.002 0.54102 0.006a10.001 10.001 0 0 0 10.3164 -10.59765 10.001 10.001 0 0 0 -10.3164 -10.70899c-0.19275 0.004-0.37333 0.006-0.54102 0.006-14.1495 0-25.4043-11.25675-25.4043-25.40625s11.2548-25.404301 25.4043-25.404301c0.16769 0 0.34827 0.002 0.54102 0.006a10.001 10.001 0 0 0 10.33007 -10.30664 10.001 10.001 0 0 0 -10.33007 -10.26562c-0.19275 0.004-0.37333 0.006-0.54102 0.006-14.1495 0-25.4043-11.2548-25.4043-25.4043s11.2548-25.40625 25.4043-25.40625c0.0838 0 10.18179 0.00053 20.23828 0.002 5.02825 0.00069 10.05587 0.00093 13.8418 0.002 1.89296 0.00049 3.47605 0.00095 4.5918 0.002 0.55786 0.00028 0.99931 0.002 1.30273 0.002 0.30342 0.0003 1.64229 0.0252 0.29883-0.002a10.001 10.001 0 1 0 0.40429 -19.99609c-1.37433-0.0278-0.37605-0.002-0.68554-0.002-0.30949-0.0003-0.75109-0.002-1.31055-0.002-1.11892-0.00056-2.70388-0.00095-4.59766-0.002-3.78755-0.00099-8.81509-0.00096-13.84375-0.002-10.05731-0.001-20.07582-0.002-20.24023-0.002zm-136.78125 3.21289a10.001 10.001 0 0 0 -9.84961 10.14258v280.94922a10.001 10.001 0 1 0 20 0v-280.94922a10.001 10.001 0 0 0 -10.15039 -10.142581zm54.07227 0a10.001 10.001 0 0 0 -9.84961 10.14258v280.94922a10.001 10.001 0 1 0 20 0v-280.94922a10.001 10.001 0 0 0 -10.15039 -10.142581z"/>
</svg>
