<?xml version="1.0" encoding="UTF-8" standalone="no"?>
<svg xmlns:rdf="http://www.w3.org/1999/02/22-rdf-syntax-ns#" xmlns="http://www.w3.org/2000/svg" version="1.0" xmlns:cc="http://creativecommons.org/ns#" xmlns:dc="http://purl.org/dc/elements/1.1/" viewBox="0 0 576.44501 577.45154">
<path d="m64.571 0.06355556c-41.335 0-64.571 21.371-64.571 65.036v450.123c0 40.844 20.895 62.229 62.192 62.229h452.024c41.307 0 62.229-20.315 62.229-62.229v-450.123c0-42.601-20.922-65.036-63.521-65.036-0.004 0-448.495-0.143-448.353 0z"/>
<path fill="#fff" d="m273.9542 11.733056c-5.7405 0.536826-8.07596 6.588128-6.18554 10.873047 0.5118 5.8892 0.98775 11.787113 1.42968 17.6875 7.28552-1.16506 14.64851-1.831564 21.98047-1.964844 10.36577-0.228118 20.95769 0.06426 31.42188 1.177735 0.074-0.801033 0.14515-1.59949 0.2207-2.400391 0.45297-4.612402 4.35146-11.11227-1.18164-14.542969-8.61406-4.830214-18.97357 3.178758-27.75-0.544922-6.79186-3.170685-11.53575-10.374725-19.93555-10.285156zm22.56446 36.652344c-27.11161-0.02527-53.53396 6.939322-73.58204 19.621094-20.04806 12.681769-33.83409 31.430302-34.33203 54.300786l-0.002 0.11523 0.004 0.11719c0.89159 22.57146 11.77149 39.28689 27.11328 51.54492 15.34178 12.25803 35.07955 20.38446 54.59179 26.96289 19.51228 6.57844 38.86127 11.60311 53.1875 17.16993 7.16314 2.7834 13.05042 5.72331 16.97657 8.80468 3.92614 3.08138 5.7827 6.00129 6.04687 9.38086 0.39988 5.11559-1.14094 9.02406-4.51758 12.85547-3.37663 3.83141-8.73423 7.38119-15.51367 10.61719-13.55888 6.472-32.5934 11.68545-51.83398 17.81445-19.24058 6.12901-38.74077 13.17185-53.62305 23.99414s-25.11536 25.96935-24.42773 46.70508c0.53967 16.52762 11.07823 29.25189 25.52929 39.06836 14.45164 9.81686 33.0728 17.17155 51.49414 23.62695 18.42135 6.45541 36.672 11.99717 50.02735 17.74805 6.67767 2.87544 12.11703 5.82823 15.6289 8.71875s4.90412 5.36651 4.91211 7.84961c0.0226 7.32183-5.20276 13.69779-15.39843 19.92578s-24.88424 11.79032-41.4668 17.07617c-33.16512 10.5717-73.84243 20.09884-103.28516 34.39258l-3.77539 1.83398 2.21289 3.56836c1.68137 2.71064 3.64635 2.74896 5.78516 3.17578 2.13881 0.42684 4.73593 0.65361 7.87305 0.75391 6.27424 0.2006 14.65215-0.14588 24.51367-1.03125 19.72303-1.77074 45.3172-5.71324 70.8125-11.97656 25.49529-6.26332 50.86323-14.80867 70.21875-26.0293 19.35551-11.22063 33.24603-25.50979 33.42383-43.35156 0.16021-16.07939-10.12275-28.59062-24.4336-38.34375s-32.96248-17.26146-51.48242-24.0625-36.93166-12.88315-50.38672-19.30469c-6.72753-3.21077-12.19666-6.52566-15.74414-9.80469-3.54748-3.27902-5.07165-6.21745-5.04687-9.33593 0.0221-2.77788 1.56348-5.43946 5.32031-8.48633s9.54302-6.11609 16.62695-9.10352c14.16786-5.97485 33.4639-11.72169 52.84375-18.67968 19.37986-6.958 38.88567-15.11133 53.78906-26.38086 14.9034-11.26953 25.3009-26.12742 25.01368-45.37305-0.28684-19.21991-10.93011-33.60625-25.93164-44.36719-15.00153-10.76093-34.45582-18.37716-53.83399-25.19336-19.37816-6.81619-38.71324-12.82199-53.16016-19.82226-7.22345-3.50014-13.19819-7.25295-17.33593-11.26953-4.08998-3.97023-6.36434-8.04362-6.87891-12.75782 0.002-4.93389 1.63952-8.74339 4.61524-12.06054 3.01499-3.36094 7.50513-6.13415 12.92773-8.17188 10.84521-4.075466 25.26914-5.116873 37.4082-3.607425 11.05091 1.374141 22.33683 13.422625 35.75196 24.675785 8.01017 6.71931 20.29 9.59898 27.47461 11.28516 7.60198 1.78417 12.02907 0.82782 17.69336-0.64649 1.55786-0.40546 3.07297-1.94011 3.5371-3.28515 0.46414-1.34504 0.37643-2.40384 0.25391-3.37305-0.24503-1.93842-0.86555-3.70748-1.43359-5.44922-0.36761-1.12716-0.57111-1.95535-0.81836-2.86523 1.34456 0.42655 2.89569 0.98448 4.60742 1.63281 2.0215 0.76565 4.05124 1.54146 6.01758 2.00195 0.98317 0.23025 1.94082 0.41639 3.15039 0.32422 1.20956-0.0922 3.16336-0.74615 4.13672-2.50195 2.12562-3.83429 2.9768-8.57917 2.07617-13.73047 0.90457-12.506579-9.03711-25.751429-23.95508-36.451177-15.1176-10.842933-35.91859-18.97456-58.375-19.080078-7.64438-1.170091-15.35213-1.758477-23.02148-1.765625zm61.18359 25.632812c6.72356 0 12.08984 5.366293 12.08984 12.089844s-5.36629 12.089844-12.08984 12.089844c-6.72354 0-12.08984-5.366296-12.08984-12.089844s5.3663-12.089844 12.08984-12.089844zm-70.62109 33.013678c-0.64604-0.008-1.29321-0.003-1.93946 0.0117-4.11434 0.0911-8.20475 0.63764-12.14843 1.63672 0.34966 9.16696 0.63451 18.32781 0.88671 27.49023 5.58144 2.87551 11.57112 5.25195 17.37305 7.49023 8.08105 3.04565 16.37731 5.85723 24.69336 8.66797 0.40266-10.38192 0.83065-20.75836 1.30664-31.13672-5.07949-4.74874-10.23387-9.40502-16.88086-12.40234-4.26694-1.11447-8.76875-1.70465-13.29101-1.75781zm-20.81641 106.10742c-5.29809 0.11278-10.48896 2.14294-12.41992 6.66016-1.91597 7.33271 4.05692 13.86048 5.54492 20.83007 3.27693 9.27739 6.50319 18.60864 9.33984 28.01368 14.5872-4.61399 29.4566-8.61499 43.54493-14.19336 0.2391-5.28155 0.49706-10.55622 0.83789-15.83008 1.0038-3.85987 2.83145-7.6287 4.41211-11.44141-3.02702-1.11292-6.08889-2.13265-9.01954-3.1875-10.91652-3.61015-22.1553-6.90722-33.29492-10.4375 0.005 0.44355 0.021 0.88848 0.0254 1.33203-2.57397-1.19614-5.79195-1.81379-8.9707-1.74609zm43.96484 108.86914c-11.5183 3.84555-23.02877 7.68096-34.18164 12.27149 0.0174 6.42018 0.0349 12.83727 0.0508 19.25781 11.10279 5.35589 22.80081 9.71525 34.59961 13.9082 2.99753-12.58212 7.67889-24.83558 11.63086-37.16211-0.0387-5.19736-7.26278-7.34759-12.17382-6.22266 0.0243-0.68425 0.0508-1.3684 0.0742-2.05273zm-34.15625 100.79102c-0.0187 4.35477-0.0453 8.70348-0.0742 13.05664-4.8851-0.19487-9.45966 4.4681-6.70312 8.58007 3.86261 9.85118 7.73326 19.91713 7.12305 30.41602 10.48807-3.18497 20.86753-6.608 30.85351-10.83008 0.17365-10.12745 0.38431-20.24532 0.51758-30.37109-5.36449-2.02259-10.8703-3.8181-16.31445-5.58985-5.08328-1.77292-10.23445-3.51379-15.40235-5.26171zm31.14844 96.83789c-10.11105 2.92044-20.37898 5.43836-30.7539 7.57617 0.10158 14.2151 0.22404 28.42971 0.36914 42.64453 11.94059-6.52946 26.15376-12.14293 32.67773-23.84375 1.69737-4.29937-2.73645-8.00419-1.77539-12.35937-0.22144-4.67464-0.39543-9.34168-0.51758-14.01758z"/>
</svg>
