<?xml version="1.0" encoding="UTF-8" standalone="no"?>
<svg xmlns:rdf="http://www.w3.org/1999/02/22-rdf-syntax-ns#" xmlns="http://www.w3.org/2000/svg" version="1.0" xmlns:cc="http://creativecommons.org/ns#" xmlns:dc="http://purl.org/dc/elements/1.1/" viewBox="0 0 576.44501 577.45154">
<path d="m64.571 0.06355556c-41.335 0-64.571 21.371-64.571 65.036v450.123c0 40.844 20.895 62.229 62.192 62.229h452.024c41.307 0 62.229-20.315 62.229-62.229v-450.123c0-42.601-20.922-65.036-63.521-65.036-0.004 0-448.495-0.143-448.353 0z"/>
<path style="color-rendering:auto;text-decoration-color:#000000;color:#000000;isolation:auto;mix-blend-mode:normal;shape-rendering:auto;solid-color:#000000;block-progression:tb;text-decoration-line:none;image-rendering:auto;white-space:normal;text-indent:0;text-transform:none;text-decoration-style:solid" fill="#fff" d="m285.81553 25.143212c-142.98155 0-259.12305 116.1415-259.12305 259.12305s116.1415 259.12305 259.12305 259.12305c142.98154 0 259.12305-116.1415 259.12305-259.12305s-116.14151-259.12305-259.12305-259.12305zm0 21.628906c131.2917 0 237.49219 106.20244 237.49219 237.49414s-106.20049 237.49219-237.49219 237.49219c-131.29171 0-237.49219-106.20049-237.49219-237.49219s106.20048-237.49414 237.49219-237.49414zm-40.91797 46.357422a10.001 10.001 0 0 0 -10 10v130.21875h-130.21875a10.001 10.001 0 0 0 -9.999998 10v81.83594a10.001 10.001 0 0 0 9.999998 10h130.21875v130.21875a10.001 10.001 0 0 0 10 10h81.83594a10.001 10.001 0 0 0 10 -10v-130.21875h130.21875a10.001 10.001 0 0 0 10 -10v-81.83594a10.001 10.001 0 0 0 -10 -10h-130.21875v-130.21875a10.001 10.001 0 0 0 -10 -10h-81.83594z"/>
</svg>
