<?xml version="1.0" encoding="UTF-8" standalone="no"?>
<svg xmlns:rdf="http://www.w3.org/1999/02/22-rdf-syntax-ns#" xmlns="http://www.w3.org/2000/svg" version="1.0" xmlns:cc="http://creativecommons.org/ns#" xmlns:dc="http://purl.org/dc/elements/1.1/" viewBox="0 0 576.44501 577.45154">
<path d="m64.571 0.06355556c-41.335 0-64.571 21.371-64.571 65.036v450.123c0 40.844 20.895 62.229 62.192 62.229h452.024c41.307 0 62.229-20.315 62.229-62.229v-450.123c0-42.601-20.922-65.036-63.521-65.036-0.004 0-448.495-0.143-448.353 0z"/>
<path style="color-rendering:auto;text-decoration-color:#000000;color:#000000;isolation:auto;mix-blend-mode:normal;shape-rendering:auto;solid-color:#000000;block-progression:tb;text-decoration-line:none;image-rendering:auto;white-space:normal;text-indent:0;text-transform:none;text-decoration-style:solid" fill="#fff" d="m480.20616 95.170556c-9.23468 0.000363-17.0598 2.601497-23.47266 7.802734-6.41302 5.20196-9.61919 12.90934-9.61914 23.12305-0.00005 10.21439 2.56491 27.04966 7.69531 50.50391 3.59119 17.59116 5.77138 32.05947 6.54102 43.4082l12.3125 163.42578c3.59114 0.56751 6.28632 0.85164 8.08203 0.85156 1.2825 0.00008 3.2062-0.18998 5.77148-0.56835 1.02596-2.64801 1.66723-4.72892 1.92383-6.24219l3.07813-68.09375c0.51293-18.72566 5.77113-59.48733 15.77539-122.28516 5.13024-32.72256 7.6952-53.43356 7.69531-62.13476-0.00011-9.45711-3.46284-16.78633-10.38867-21.98829-6.92611-5.201237-15.39043-7.802371-25.39453-7.802734zm-254.39063 0.496094c-104.06729 0-188.59961 84.53232-188.59961 188.59961 0 104.0673 84.53232 188.59961 188.59961 188.59961s188.59961-84.53231 188.59961-188.59961c0-104.06729-84.53232-188.59961-188.59961-188.59961zm0 15.74414c95.55899 0 172.85547 77.29649 172.85547 172.85547 0 95.55899-77.29648 172.85547-172.85547 172.85547s-172.85547-77.29648-172.85547-172.85547c0-95.55898 77.29648-172.85547 172.85547-172.85547zm-36.14453 26.33594v3.93555 106.43945h-110.375v72.28906h110.375v110.375h72.28906v-110.375h110.375v-72.28906h-110.375v-110.375h-72.28906zm292.84375 276.61328c-11.28682 0.00004-20.84228 2.88531-28.66602 8.6543-7.8238 5.76911-11.73637 12.62607-11.73632 20.57031-0.00005 6.43108 4.42553 12.95596 13.27539 19.57617 8.84981 6.62025 17.89227 9.92969 27.12695 9.92969 8.465 0 16.92937-3.40351 25.39453-10.21289 8.46494-6.80938 12.69716-13.80837 12.69727-20.99609-0.00011-7.18764-3.6562-13.57241-10.9668-19.15235-7.31087-5.57986-16.35132-8.3691-27.125-8.36914z"/>
</svg>
