<?xml version="1.0" encoding="UTF-8" standalone="no"?>
<svg xmlns:rdf="http://www.w3.org/1999/02/22-rdf-syntax-ns#" xmlns="http://www.w3.org/2000/svg" version="1.0" xmlns:cc="http://creativecommons.org/ns#" xmlns:dc="http://purl.org/dc/elements/1.1/" viewBox="0 0 576.44501 577.45154">
<path d="m64.571 0.06355556c-41.335 0-64.571 21.371-64.571 65.036v450.123c0 40.844 20.895 62.229 62.192 62.229h452.024c41.307 0 62.229-20.315 62.229-62.229v-450.123c0-42.601-20.922-65.036-63.521-65.036-0.004 0-448.495-0.143-448.353 0z"/>
<path fill="#fff" d="m98.78038 86.617822v10.583984 382.54297h393.1289v-393.12696h-393.1289zm21.16992 21.167968h350.79101v350.79102h-350.79101v-350.79102zm113.96679 32.53907v81.42773h-81.42968v122.85742h81.42968v81.42774h122.85547v-81.42774h81.42969v-122.85742h-81.42969v-81.42773h-122.85547z"/>
</svg>
