<?xml version="1.0" encoding="UTF-8" standalone="no"?>
<svg xmlns:rdf="http://www.w3.org/1999/02/22-rdf-syntax-ns#" xmlns="http://www.w3.org/2000/svg" version="1.0" xmlns:cc="http://creativecommons.org/ns#" xmlns:dc="http://purl.org/dc/elements/1.1/" viewBox="0 0 576.44501 577.45154">
<path d="m64.571 0.06355556c-41.335 0-64.571 21.371-64.571 65.036v450.123c0 40.844 20.895 62.229 62.192 62.229h452.024c41.307 0 62.229-20.315 62.229-62.229v-450.123c0-42.601-20.922-65.036-63.521-65.036-0.004 0-448.495-0.143-448.353 0z"/>
<path style="color-rendering:auto;text-decoration-color:#000000;color:#000000;isolation:auto;mix-blend-mode:normal;shape-rendering:auto;solid-color:#000000;block-progression:tb;text-decoration-line:none;text-decoration-style:solid;image-rendering:auto;white-space:normal;text-indent:0;text-transform:none" d="m83.772562 114.04165a9.3121141 9.3121141 0 0 0 -9.273437 8.10938s-11.237727 85.49269 2.140625 171.68555c6.689176 43.09642 19.444823 86.62668 43.82031 120.12109 24.28676 33.37247 61.01471 56.27791 111.68164 56.25195 4.87925 0.26836 9.52427 0.34032 13.95508 0.26953 4.43081 0.0708 9.07583-0.001 13.95508-0.26953 50.66694 0.026 87.39488-22.87948 111.68164-56.25195 2.02319-2.78007 3.95991-5.63452 5.82617-8.54688 60.05725-5.13614 101.15046-29.27287 126.03906-58.56445 27.63687-32.52602 35.75658-68.7553 36.24024-92.5332 0.45048-22.15337-3.67631-47.52687-13.97852-70.14453-5.1511-11.30884-11.91255-22.04689-21.70312-30.72266-9.79058-8.67577-23.40475-14.97266-38.21485-14.97266-16.74585 0-32.17841 4.65665-45.73632 10.53711-1.19628-16.65974-2.51172-26.85937-2.51172-26.85937a9.3121141 9.3121141 0 0 0 -9.27149 -8.10938l-162.32617 0.66797-162.32422-0.66797zm382.16992 70.0586c2.96184 0 4.71441 0.6242 7.95313 3.49414s7.1691 8.30224 10.44141 15.48633c6.54461 14.36817 10.1904 35.27447 9.88476 50.30468-0.27268 13.40571-6.14392 41.2618-25.39453 63.91797-13.92398 16.38723-34.62049 31.43029-68.07227 38.7793 6.81046-20.03937 11.53114-41.19327 14.79883-62.24609 5.17956-33.37041 6.66227-66.61178 6.54297-94.85157 0.38935-0.21402 0.74331-0.41823 1.14258-0.63476 14.09465-7.64392 32.20957-14.25 42.70312-14.25z" fill-rule="evenodd" fill="#fff"/>
</svg>
