<?xml version="1.0" encoding="UTF-8" standalone="no"?>
<svg xmlns:rdf="http://www.w3.org/1999/02/22-rdf-syntax-ns#" xmlns="http://www.w3.org/2000/svg" version="1.0" xmlns:cc="http://creativecommons.org/ns#" xmlns:dc="http://purl.org/dc/elements/1.1/" viewBox="0 0 576.44501 577.45154">
<path d="m64.571 0.06355556c-41.335 0-64.571 21.371-64.571 65.036v450.123c0 40.844 20.895 62.229 62.192 62.229h452.024c41.307 0 62.229-20.315 62.229-62.229v-450.123c0-42.601-20.922-65.036-63.521-65.036-0.004 0-448.495-0.143-448.353 0z"/>
<path opacity=".25" d="m288.671 59.389306c-51.81063 0.0076-105.40993 13.893384-149.96875 37.5-44.206949 23.438324-79.648586 56.464174-95.0625 95.500004-8.024414 7.3436-13.896875 15.25066-17.125 23.71875-4.322015 10.57937-6.52365 23.49588-6.53125 36.875 0 12.43823 1.930421 25.27384 6 37.03125-1.308079 7.95557-1.875 15.97102-1.875 23.78125 0 12.94309 1.577036 25.34478 4.09375 36.03125 2.532012 10.70941 5.927815 19.68844 9.875 25.96875l0.28125 0.46875c1.078592 1.8818 2.253769 3.73425 3.53125 5.5625 1.009745 14.6719 3.360783 30.70448 8.5625 41.40625l1.03125 2.15625h0.03125c12.552968 25.02179 42.723975 45.83722 83.6875 60.9375 42.23335 15.49805 96.1747 24.75 155 24.75s112.7979-9.25195 155.03125-24.75c40.96352-15.10028 71.10329-35.91571 83.65625-60.9375h0.0312l1.0625-2.15625c3.09809-6.32621 5.08483-14.43442 6.5-23.09375 1.34633-8.2998 2.10027-17.05143 2.40625-24.96875 3.77889-6.24971 7.02854-14.97027 9.46875-25.3125 2.50907-10.69412 4.09375-23.08816 4.09375-36.03125 0-7.79493-0.58222-15.79378-1.875-23.71875 4.08488-11.78036 6.02325-24.65618 6.03125-37.125-0.008-13.48621-2.24179-26.49208-6.625-37.125-2.8686-7.4048-7.80401-14.34226-14.375-20.875-13.9069-40.5887-49.28178-74.27799-94.06245-97.968754-45.13254-23.851403-99.97047-37.6174-152.875-37.625z" fill="#fff"/>
<path fill="#fff" d="m288.671 59.389306c-51.81063 0.0076-105.40993 13.893384-149.96875 37.5-44.206949 23.438324-79.648586 56.464174-95.0625 95.500004-8.024414 7.3436-13.896875 15.25066-17.125 23.71875-4.322015 10.57937-6.52365 23.49588-6.53125 36.875 0 12.43823 1.930421 25.27384 6 37.03125-1.308079 7.95557-1.875 15.97102-1.875 23.78125 0 12.94309 1.577036 25.34478 4.09375 36.03125 2.532012 10.70941 5.927815 19.68844 9.875 25.96875l0.28125 0.46875c1.078592 1.8818 2.253769 3.73425 3.53125 5.5625 1.009745 14.6719 3.360783 30.70448 8.5625 41.40625l1.03125 2.15625h0.03125c12.552968 25.02179 42.723975 45.83722 83.6875 60.9375 42.23335 15.49805 96.1747 24.75 155 24.75s112.7979-9.25195 155.03125-24.75c40.96352-15.10028 71.10329-35.91571 83.65625-60.9375h0.0312l1.0625-2.15625c3.09809-6.32621 5.08483-14.43442 6.5-23.09375 1.34633-8.2998 2.10027-17.05143 2.40625-24.96875 3.77889-6.24971 7.02854-14.97027 9.46875-25.3125 2.50907-10.69412 4.09375-23.08816 4.09375-36.03125 0-7.79493-0.58222-15.79378-1.875-23.71875 4.08488-11.78036 6.02325-24.65618 6.03125-37.125-0.008-13.48621-2.24179-26.49208-6.625-37.125-2.8686-7.4048-7.80401-14.34226-14.375-20.875-13.9069-40.5887-49.28178-74.27799-94.06245-97.968754-45.13254-23.851403-99.97047-37.6174-152.875-37.625zm0 7.65625c58.90945-0.0153 120.67493 17.622516 167.40625 47.218754 23.35418 14.77901 42.96349 32.52563 56.65625 52.4375 13.69276 19.92717 21.5 41.96417 21.5 65.59375-0.008 9.01885-2.50466 17.04035-7.125 24.4375-4.24552 6.82344-10.39696 13.06636-18.03125 18.75-0.82615-0.54311-1.55958-0.70606-2.15625-0.84375-0.71141-0.13774-1.30698-0.15625-1.78125-0.15625-0.58137 0-0.95543 0.0472-1.0625 0.0625h-0.15625l-0.125 0.0312c-7.19825 1.30808-12.40082 3.42697-17.28125 5.5-4.90338 2.08069-9.48387 4.08742-16.0625 5.625-5.5842 1.32337-12.63489 2.50201-18.96875 5.53125-3.15927 1.52227-6.18414 3.56126-8.59375 6.4375-1.82061 2.15719-3.27655 4.77561-4.15625 7.8125-17.93062 4.64329-36.97028 8.2206-55.75 10.875-36.45027 5.16347-71.92384 6.9375-96.59375 6.9375-36.54206 0.0153-96.17308-6.70228-147.21875-20.96875-0.67317-1.21628-1.473-2.34036-2.40625-3.28125-4.00074-4.06958-9.42963-5.93052-14.5625-7.4375-5.14051-1.46107-10.2105-2.49548-13.125-3.75-4.02367-1.66762-9.39547-5.28848-15.125-8.5625-5.767786-3.24338-11.97051-6.32135-18.65625-6.37495-1.637006 0-3.292841 0.22088-4.9375 0.6875-0.313641-0.20654-0.655108-0.41847-0.96875-0.625-8.345695-5.66069-14.970143-11.7459-19.4375-18.15625-4.475011-6.42565-6.8049-13.08235-6.8125-20.25 0.0076-23.22415 7.791949-45.20109 21.5-65.28125 20.539138-30.10111 54.43457-55.75883 94.28125-73.781254 39.83904-18.045361 85.60425-28.476359 129.75-28.46875zm-213.375 213.5c4.107827-0.0535 9.482043 2.26927 14.875 5.375 5.431205 3.06748 10.82058 6.78097 15.96875 8.96875 2.76915 1.15509 5.89688 1.9162 9.125 2.75 4.82689 1.22393 9.82168 2.58956 13.1875 4.59375 1.68291 0.99445 2.94679 2.10387 3.75 3.3125 0.70376 1.07094 1.17416 2.22969 1.28125 3.84375h-0.0312c-4.5515 0.0459-10.19901-1.83449-15.875-2.5-5.65304-0.61962-11.69088-0.9375-17.71875-0.9375-2.39432 0-4.792529 0.0492-7.15625 0.15625-6.968771 0.29833-13.523239 2.2634-19.75 5.09375-3.319919 1.52992-5.973031 3.69779-8.375 5.28125-1.246882 0.84145-2.357605 1.48552-3.375 1.90625-0.428377-1.20863-0.883472-2.27915-1.28125-3.28125-0.764958-1.90475-1.348963-3.51941-1.59375-5.53125-0.023-0.22184-0.0313-0.43506-0.0313-0.6875-0.0153-1.32338 0.451185-3.22091 1.09375-5.15625 0.627266-1.95829 1.408375-3.90271 1.875-5.9375 1.10154-4.87279 2.028022-6.81335 3.34375-8.6875 1.262181-1.8053 3.328511-3.8116 6.28125-7.4375l0.75-0.46875c1.147438-0.44368 2.332872-0.65625 3.65625-0.65625zm428.3125 1.875c-0.0688 1.65231-0.19776 3.87033-0.3125 6.21875-0.19889 3.77124-0.3986 7.92682-0.40625 11.09375 0 0.68081 0.0396 1.32488 0.0625 1.90625 0.0918 2.26428 0.50847 5.07347 0.90625 8.15625 0.40543 3.05983 0.78125 6.30604 0.78125 8.9375 0.0383 2.28723-0.39616 4.10857-0.65625 4.4375-0.51252 0.8644-1.05845 1.32927-1.96875 1.75-0.895 0.39778-2.18249 0.63265-3.78125 0.625-3.60295 0.0229-8.50204-1.27819-13-2.96875-4.5209-1.68291-8.63954-3.68101-11.15625-4.84375-5.86723-2.70795-11.9134-6.32018-19.21875-7.78125-1.60641-0.32128-3.10712-0.4139-4.46875-0.40625-1.95829 0.008-3.63316 0.1888-4.75 0.25v-0.0312c0.48957-3.14398 1.57148-5.35925 3.09375-7.1875 2.27958-2.7309 5.80103-4.63968 10.03125-6.0625 4.21492-1.42282 9.00839-2.31106 13.4375-3.34375 7.27475-1.69821 12.46201-3.98881 17.28125-6.03125 4.42911-1.8818 8.54845-3.55601 14.125-4.71875zm-466.21875 22.84375c0.979147 1.55286 2.023458 3.06189 3.125 4.5 29.802781 43.74033 129.44219 75.84375 247.78125 75.84375 118.30846 0 217.92427-32.09513 247.75-75.8125h0.0312c1.0939-1.44577 2.1146-2.94713 3.09375-4.5-16.71435 47.95524-92.46992 86.35911-190.46875 97.71875 0.16064-0.49723 0.26725-1.01938 0.34375-1.5625l0.28125-2.09375-1.625-1.34375c-4.29907-3.49585-9.75239-4.2194-15-4.25-6.35681 0.008-12.79404 1.21584-17.0625 1.8125-9.01121 1.29279-18.77769 3.35175-27.78125 3.34375-1.61406 0-3.22838-0.0734-4.78125-0.21875-10.38049-0.9256-20.63207-3.80684-31.96875-5.375-2.09594-0.29069-4.18586-0.53125-6.31245-0.53125-3.42701-0.008-7.02708 0.64945-10.5 2.53125-1.33103 0.7267-2.93818 1.75637-4.4375 3.15625-0.74201 0.70376-1.47414 1.48196-2.09375 2.46875-0.34423 0.55842-0.65315 1.22674-0.875 1.96875-97.54749-11.52028-172.87745-49.854-189.5-97.65625zm493.5625 75.25c-0.29833 4.72744-0.75604 9.62526-1.40625 14.40625-1.17039 8.62874-3.00559 16.89173-5.46875 22.8125h-0.0625l-1 2.25c-10.18925 22.8493-39.20624 44.07892-80.4375 59.15625-41.17771 15.13087-94.3529 24.28125-152.375 24.28125s-111.18965-9.15038-152.375-24.28125c-41.231259-15.06969-70.248262-36.30695-80.4375-59.15625l-1-2.25h-0.0625c-2.463163-5.92077-4.306016-14.18376-5.46875-22.8125-0.40543-2.98333-0.739916-6.00136-1-9 35.99129 42.56229 129.16319 72.875 238.4375 72.875 113.85641 0 210.20672-32.90391 242.65625-78.28125zm-286.15625 19.9375c1.58346 0 3.35355 0.16976 5.28125 0.4375 10.66352 1.45342 20.99877 4.38951 32.3125 5.4375 1.81295 0.16064 3.6169 0.21875 5.4375 0.21875 10.09745-0.0153 20.21567-2.15872 28.875-3.375 4.51325-0.65021 10.58344-1.75765 15.96875-1.75 2.92214-0.0229 5.55001 0.31984 7.53125 1.03125-0.20654 0.19889-0.42741 0.41081-0.6875 0.625-2.07304 1.72116-5.86466 3.5142-9.78125 5.28125-3.92424 1.8206-8.00397 3.5912-11.125 6.40625-3.90129 3.61825-7.54191 8.36353-11.34375 12.59375-3.77124 4.23787-7.67764 7.84313-11.25 9.28125-1.46872 0.60432-2.93053 0.86735-4.4375 0.875-3.80949 0.0306-8.19768-1.85846-12.34375-4.75-4.15372-2.86859-8.01471-6.62897-10.90625-9.75-3.7636-4.05428-8.46805-8.4908-13.9375-12.09375-5.46945-3.58765-11.73972-6.35287-18.59375-6.78125l-0.75-0.0625c0.19124-0.19124 0.41911-0.40251 0.65625-0.59375 0.73436-0.58137 1.60678-1.10857 2.21875-1.4375 2.21838-1.17804 4.29709-1.57845 6.875-1.59375z"/>
</svg>
