<?xml version="1.0" encoding="UTF-8" standalone="no"?>
<svg xmlns:rdf="http://www.w3.org/1999/02/22-rdf-syntax-ns#" xmlns="http://www.w3.org/2000/svg" version="1.0" xmlns:cc="http://creativecommons.org/ns#" xmlns:dc="http://purl.org/dc/elements/1.1/" viewBox="0 0 576.44501 577.45154">
<path d="m64.571 0.06355556c-41.335 0-64.571 21.371-64.571 65.036v450.123c0 40.844 20.895 62.229 62.192 62.229h452.024c41.307 0 62.229-20.315 62.229-62.229v-450.123c0-42.601-20.922-65.036-63.521-65.036-0.004 0-448.495-0.143-448.353 0z"/>
<path stroke-linejoin="round" d="m222.94937 172.51119-133.24502 364.7944 305.93439-230.4128z" stroke="#fff" stroke-width="27.988411" fill="none"/>
<path opacity=".25" style="color-rendering:auto;text-decoration-color:#000000;color:#000000;isolation:auto;mix-blend-mode:normal;shape-rendering:auto;solid-color:#000000;block-progression:tb;text-decoration-line:none;image-rendering:auto;white-space:normal;text-indent:0;text-transform:none;text-decoration-style:solid" d="m310.90928 36.559228c-3.27758-0.02684-6.58744 0.11255-9.91797 0.425781-53.28845 5.011695-92.76365 52.682251-87.75195 105.97071 5.01169 53.28843 52.68421 92.76169 105.97266 87.75 53.28843-5.0117 92.76169-52.68031 87.75-105.96875-4.69846-49.957926-46.88896-87.775205-96.05274-88.177739z" fill="#fff"/>
<path d="m310.94053 35.518212c-3.31912-0.0255-6.67011 0.116198-10.04492 0.433594-53.99699 5.078332-93.76583 53.104586-88.6875 107.10156 0.57091 6.07038 1.68706 11.95977 3.29101 17.62696a13.995605 13.995605 0 0 0 -5.69531 7.02929l-133.24414 364.79493a13.995605 13.995605 0 0 0 21.564453 15.98047l305.9336-230.41406a13.995605 13.995605 0 0 0 5.16797 -7.86914c5.60255 0.46452 11.31744 0.44615 17.09961-0.0977 53.28844-5.0117 92.76169-52.68031 87.75-105.96875-4.69847-49.95792-46.88896-87.77519-96.05274-88.17773-3.27758-0.0268-6.58549 0.11255-9.91601 0.42578-0.40914 0.0385-0.81516 0.0874-1.22266 0.13086-8.29248-46.520732-48.85868-80.634324-95.94336-80.996098zm-0.0781 11.59375c41.57753 0.297735 77.22658 30.246021 84.58593 71.312508-45.97736 10.55956-78.63164 53.53817-75.28711 101.5625-0.64405 0.0749-1.29061 0.14601-1.93945 0.20703-3.62349 0.34078-7.21408 0.45141-10.75976 0.34961l-75.91797-59.07617a13.995605 13.995605 0 0 0 -4.41602 -2.29297c-1.66926-5.50233-2.81528-11.25567-3.375-17.20703-4.49149-47.757241 30.47129-89.977266 78.22852-94.468759 2.98482-0.280718 5.94716-0.407727 8.88086-0.386719zm-81.35547 148.23438 14.83398 11.54297c3.50617 3.15422 7.23396 6.05624 11.15625 8.68164l117.1211 91.14063-253.53516 190.94921 110.42383-302.31445zm92.15039 36.14258c0.008 0.0396 0.0139 0.0795 0.0215 0.11914l-0.13672-0.10742c0.0383-0.004 0.077-0.007 0.11524-0.0117z" style="color-rendering:auto;text-decoration-color:#000000;color:#000000;isolation:auto;mix-blend-mode:normal;shape-rendering:auto;solid-color:#000000;block-progression:tb;text-decoration-line:none;image-rendering:auto;white-space:normal;text-indent:0;text-transform:none;text-decoration-style:solid" fill="#fff"/>
</svg>
