<?xml version="1.0" encoding="UTF-8" standalone="no"?>
<svg xmlns:rdf="http://www.w3.org/1999/02/22-rdf-syntax-ns#" xmlns="http://www.w3.org/2000/svg" version="1.0" xmlns:cc="http://creativecommons.org/ns#" xmlns:dc="http://purl.org/dc/elements/1.1/" viewBox="0 0 576.44501 577.45154">
<path d="m64.571 0.06355556c-41.335 0-64.571 21.371-64.571 65.036v450.123c0 40.844 20.895 62.229 62.192 62.229h452.024c41.307 0 62.229-20.315 62.229-62.229v-450.123c0-42.601-20.922-65.036-63.521-65.036-0.004 0-448.495-0.143-448.353 0z"/>
<path opacity=".5" d="m539.12259 190.74106a269.2857 263.14815 0 1 1 -183.90126 -165.95706l-69.81002 254.15177z" fill="#fff"/>
<path opacity=".5" d="m516.42293 199.85362a245.49281 247.0222 89.957073 1 1 -167.18432 -154.3989l-65.54576 236.69346z" fill="#fff"/>
<path opacity=".4" d="m239.13194 63.240868a20 20 0 0 0 -20.58399 19.992188 20 20 0 0 0 40 0 20 20 0 0 0 -19.41601 -19.992188zm87.84179 41.406252a24.550266 26.851852 16.084585 0 0 -18.15039 7.89063 24.550266 26.851852 16.084585 0 0 -7.43945 25.80078 24.550266 26.851852 16.084585 0 0 16.70899 18.79101l7.43945-25.80078 7.43945-25.80078a24.550266 26.851852 16.084585 0 0 -5.99805 -0.88086zm-180.06054 26.54492a20 20 0 0 0 -20.58399 19.99024 20 20 0 0 0 40 0 20 20 0 0 0 -19.41601 -19.99024zm82.50976 36.4004a20 20 0 0 0 -20.58398 19.99218 20 20 0 0 0 40 0 20 20 0 0 0 -19.41602 -19.99218zm193.7168 62.82421-25.32813 8.91602-25.33007 8.91601a24.550266 26.851852 70.607258 0 0 19.72461 15.59766 24.550266 26.851852 70.607258 0 0 25.32812 -8.91601 24.550266 26.851852 70.607258 0 0 5.60547 -24.51368zm-327.18945 9.97852a20 20 0 0 0 -20.583985 19.99219 20 20 0 0 0 39.999998 0 20 20 0 0 0 -19.416013 -19.99219zm100.66211 22.73633a20 20 0 0 0 -20.58399 19.99023 20 20 0 0 0 40 0 20 20 0 0 0 -19.41601 -19.99023zm275.49023 18.51953a20 20 0 0 0 -20.58398 19.99219 20 20 0 0 0 40 0 20 20 0 0 0 -19.41602 -19.99219zm-208.70312 41.25586a20 20 0 0 0 -20.58399 19.99023 20 20 0 0 0 40 0 20 20 0 0 0 -19.41601 -19.99023zm99.49804 0a20 20 0 0 0 -20.58398 19.99023 20 20 0 0 0 40 0 20 20 0 0 0 -19.41602 -19.99023zm-230.54492 21.83984a20 20 0 0 0 -20.58398 19.99219 20 20 0 0 0 40 0 20 20 0 0 0 -19.41602 -19.99219zm296.06641 50.96289a20 20 0 0 0 -20.58399 19.99219 20 20 0 0 0 40 0 20 20 0 0 0 -19.41601 -19.99219zm-235.39649 33.97461a20 20 0 0 0 -20.58398 19.99219 20 20 0 0 0 40 0 20 20 0 0 0 -19.41602 -19.99219zm128.61914 4.85352a20 20 0 0 0 -20.58398 19.99219 20 20 0 0 0 40 0 20 20 0 0 0 -19.41602 -19.99219z"/>
</svg>
