<?xml version="1.0" encoding="UTF-8" standalone="no"?>
<svg xmlns:rdf="http://www.w3.org/1999/02/22-rdf-syntax-ns#" xmlns="http://www.w3.org/2000/svg" version="1.0" xmlns:cc="http://creativecommons.org/ns#" xmlns:dc="http://purl.org/dc/elements/1.1/" viewBox="0 0 576.44501 577.45154">
<path d="m64.571 0.06355556c-41.335 0-64.571 21.371-64.571 65.036v450.123c0 40.844 20.894 62.229 62.192 62.229h452.024c41.307 0 62.229-20.316 62.229-62.229v-450.123c0-42.601-20.922-65.036-63.522-65.036-0.003 0-448.494-0.143-448.352 0z"/>
<path fill="#fff" d="m466.528 76.225556h-0.251c0.287-0.248 0.445-0.498 0.445-0.75 0-5.937-81.067-10.75-181.07-10.75-100.002 0-181.07 4.813-181.07 10.75 0 0.252 0.158 0.502 0.446 0.75h-0.446l56.512 430.928h0.255c-0.5 0.27-0.765 0.544-0.765 0.821 0 4.102 55.996 7.425 125.07 7.425 69.075 0 125.07-3.323 125.07-7.425 0-0.277-0.266-0.552-0.765-0.821l56.569-430.928zm-92.85286 399.42255c-2.895 2.679-174.60069 1.42359-177.49569-1.25541l-53.68219-340.25285c95.07744 65.90537 157.60824-8.95098 282.15977-2.51082l-50.98189 344.01908z"/>
<path opacity=".1" d="m127.60336 117.55963 310.08658 2.51082-50.21645 371.60173-212.1645 2.51083-47.70563-376.62338z" fill-rule="evenodd" fill="#fff"/>
</svg>
