<?xml version="1.0" encoding="UTF-8" standalone="no"?>
<svg xmlns="http://www.w3.org/2000/svg" version="1.0" xmlns:cc="http://creativecommons.org/ns#" xmlns:dc="http://purl.org/dc/elements/1.1/" xmlns:rdf="http://www.w3.org/1999/02/22-rdf-syntax-ns#" viewBox="0 0 576.44501 577.45154">
<path d="m64.571 0.06355556c-41.335 0-64.571 21.371-64.571 65.036v450.123c0 40.844 20.894 62.229 62.192 62.229h452.024c41.307 0 62.229-20.316 62.229-62.229v-450.123c0-42.601-20.922-65.036-63.522-65.036-0.003 0-448.494-0.143-448.352 0z"/>
<path fill="#fff" d="m173.03623 54.008447c-32.014 0-93.849605 81.133053-93.849605 155.24805 0 59.646 27.223235 110.17462 64.865235 127.64062l-7.79297 176.54492h73.55273l-7.79101-176.54492c37.643-17.466 64.86523-67.99462 64.86523-127.64062 0-74.115-61.83461-155.24805-93.84961-155.24805zm203.69727 1.509765c-3.875 0-7.01562 3.140625-7.01562 7.015625l-5.13282 204.78906h-19.83398l3.25976-202.78906c0-3.875-3.14257-7.015625-7.01757-7.015625h-4.60547c-3.875 0-7.01758 3.140625-7.01758 7.015625l-10.17383 202.78906c0 59.646 13.71447 82.10822 51.35547 99.57422l-7.79102 146.54492h73.55469l-7.78906-146.54492c37.642-17.466 51.38867-39.92822 51.38867-99.57422l-9.7793-202.8125c0-3.875-3.14353-7.017578-7.01953-7.017578h-4.60547c-3.873 0-7.01757 3.141578-7.01757 7.017578l3.25976 202.8125h-20.25781l-5.13281-204.78906c0-3.875-3.14158-7.015625-7.01758-7.015625h-5.99414c-3.874 0-7.01758 3.140625-7.01758 7.015625l2.77539 204.78906h-25.13672l2.77539-204.78906c0-3.875-3.14258-7.015625-7.01758-7.015625h-5.99609z"/>
</svg>
