<svg
    style="fill:black;stroke:none"
    version="1.1"
    xmlns:cc="http://creativecommons.org/ns#"
    xmlns:dc="http://purl.org/dc/elements/1.1/"
    xmlns:rdf="http://www.w3.org/1999/02/22-rdf-syntax-ns#"
    xmlns="http://www.w3.org/2000/svg">
    <title>Automattic Genericons</title>
    <metadata>
        <rdf:RDF>
            <cc:Work rdf:about="">
                <dc:format>image/svg+xml</dc:format>
                <dc:type rdf:resource="http://purl.org/dc/dcmitype/StillImage"/>
                <dc:title>Genericons</dc:title>
                <dc:date>2013-09-08</dc:date>
                <dc:creator>
                    <cc:Agent>
                        <dc:title>Automattic</dc:title>
                    </cc:Agent>
                </dc:creator>
                <dc:rights>
                    <cc:Agent>
                        <dc:title>GPL</dc:title>
                    </cc:Agent>
                </dc:rights>
                <dc:language>English</dc:language>

                <dc:source>https://genericons.com/</dc:source>
                <dc:description>Genericons are vector icons embedded in a webfont designed to be clean and simple keeping with a generic aesthetic.</dc:description>
            </cc:Work>
        </rdf:RDF>
    </metadata>
    <defs>
        <symbol id="404">
            <title>404</title>
            <path
                d="M4.437,4.743L3.563,4.257L0.65,9.5H4.5v2h1v-3H2.35L4.437,4.743z M12.85,8.5l2.088-3.757  l-0.875-0.486L11.15,9.5H15v2h1v-3H12.85z M8.5,5.5C7.119,5.5,6,6.619,6,8s1.119,2.5,2.5,2.5S11,9.381,11,8S9.881,5.5,8.5,5.5z   M8.5,9.5C7.673,9.5,7,8.827,7,8s0.673-1.5,1.5-1.5S10,7.173,10,8S9.327,9.5,8.5,9.5z"/>
        </symbol>
        <symbol id="activity">
            <title>Activity</title>
            <path
                d="M11.332,5.1L10,7.764l-2-4l-2,4l-1-2l-2,4L2.447,8.658L0.658,9.553L3,14.236l2-4l1,2l2-4l2,4 l3.124-6.249C13.082,5.99,13.043,6,13,6C12.303,6,11.689,5.642,11.332,5.1z M13,2.5c-0.829,0-1.5,0.672-1.5,1.5s0.671,1.5,1.5,1.5 s1.5-0.672,1.5-1.5S13.829,2.5,13,2.5z"/>
        </symbol>
        <symbol id="anchor">
            <title>anchor</title>
            <path
                d="M11.986,10.392c-0.721,0.768-1.771,1.32-2.986,1.521V8h1V7H9V5.723C9.596,5.376,10,4.738,10,4 c0-1.104-0.896-2-2-2S6,2.896,6,4c0,0.738,0.405,1.376,1,1.723V7H6v1h1v3.912c-1.214-0.201-2.266-0.754-2.986-1.521L2.86,11.084 C3.91,12.829,5.816,14,8,14c2.185,0,4.09-1.171,5.14-2.916L11.986,10.392z M8,3c0.553,0,1,0.448,1,1S8.553,5,8,5 C7.448,5,7,4.552,7,4S7.448,3,8,3z"/>
        </symbol>
        <symbol id="aside">
            <title>aside</title>
            <path d="M8,2C4.687,2,2,4.687,2,8s2.687,6,6,6s6-2.687,6-6S11.313,2,8,2z M8,10c-1.104,0-2-0.896-2-2 s0.896-2,2-2s2,0.896,2,2S9.104,10,8,10z"/>
        </symbol>
        <symbol id="attachment">
            <title>attachment</title>
            <path
                d="M8.5,2C7.119,2,6,3.119,6,4.5v4C6,9.328,6.671,10,7.5,10C8.328,10,9,9.328,9,8.5V4.969H8V8.5 C8,8.776,7.776,9,7.5,9S7,8.776,7,8.5v-4C7,3.672,7.671,3,8.5,3C9.328,3,10,3.672,10,4.5v5c0,1.381-1.12,2.5-2.5,2.5 C6.119,12,5,10.881,5,9.5V7H4v2.5C4,11.433,5.567,13,7.5,13c1.933,0,3.5-1.567,3.5-3.5v-5C11,3.119,9.881,2,8.5,2z"/>
        </symbol>
        <symbol id="audio">
            <title>audio</title>
            <path
                d="M2,6v4h3l3,3V3L5,6H2z M10.121,5.878L9.414,6.585C9.776,6.948,10,7.448,10,8 c0,0.553-0.224,1.053-0.586,1.414l0.707,0.707C10.664,9.579,11,8.829,11,8C11,7.171,10.664,6.421,10.121,5.878z M11.536,4.464 l-0.707,0.708C11.553,5.895,12,6.896,12,8c0,1.105-0.447,2.105-1.171,2.829l0.707,0.707C12.44,10.632,13,9.382,13,8 C13,6.619,12.44,5.369,11.536,4.464z"/>
        </symbol>
        <symbol id="bold">
            <title>bold</title>
            <path
                d="M4,3h2.802c1.276,0,2.202,0.182,2.779,0.545c0.576,0.363,0.864,0.941,0.864,1.733c0,0.538-0.126,0.979-0.378,1.32 C9.814,6.946,9.479,7.153,9.061,7.223v0.062c0.57,0.127,0.981,0.365,1.234,0.714c0.252,0.349,0.379,0.813,0.379,1.391 c0,0.821-0.297,1.461-0.89,1.921C9.19,11.771,8.386,12,7.368,12H4V3z M6,6.564h1.017c0.518,0,0.892-0.08,1.124-0.24 c0.231-0.16,0.348-0.425,0.348-0.794c0-0.345-0.126-0.592-0.379-0.742C7.857,4.639,7.458,4.563,6.912,4.563H6V6.564z M6,8.079 v2.345h1.152c0.525,0,0.913-0.101,1.163-0.302c0.251-0.201,0.376-0.509,0.376-0.923c0-0.747-0.534-1.121-1.601-1.121H6z"/>
        </symbol>
        <symbol id="book">
            <title>book</title>
            <path d="M12.5,11H13V2H5C3.896,2,3,2.896,3,4v8c0,1.104,0.896,2,2,2h8v-1h-0.5c-0.553,0-1-0.447-1-1 S11.947,11,12.5,11z M5,13c-0.552,0-1-0.447-1-1s0.448-1,1-1h6.39C11.15,11.266,11,11.614,11,12s0.15,0.734,0.39,1H5z"/>
        </symbol>
        <symbol id="bug">
            <title>bug</title>
            <path
                d="M14.5,8H13c0-0.485-0.084-0.946-0.219-1.386C13.543,5.608,14,4.359,14,3V2.5 C14,2.224,13.776,2,13.5,2S13,2.224,13,2.5V3c0,2.761-2.238,5-5,5C5.239,8,3,5.761,3,3V2.5C3,2.224,2.776,2,2.5,2S2,2.224,2,2.5V3 c0,1.364,0.46,2.617,1.227,3.625C3.095,7.063,3,7.518,3,8H1.5C1.224,8,1,8.224,1,8.5S1.224,9,1.5,9h1.601 c0.078,0.381,0.208,0.739,0.367,1.083C2.557,11.135,2,12.5,2,14v0.5C2,14.775,2.224,15,2.5,15S3,14.775,3,14.5V14 c0-1.132,0.386-2.166,1.021-3.001C4.934,12.207,6.369,13,8,13c1.635,0,3.072-0.796,3.984-2.009C12.619,11.829,13,12.868,13,14v0.5 c0,0.275,0.224,0.5,0.5,0.5s0.5-0.225,0.5-0.5V14c0-1.5-0.556-2.866-1.467-3.917C12.691,9.739,12.822,9.381,12.899,9H14.5 C14.776,9,15,8.776,15,8.5S14.776,8,14.5,8z M8,7c1.633,0,3.034-0.985,3.655-2.39C10.742,3.625,9.449,3,8,3 C6.552,3,5.258,3.625,4.345,4.61C4.966,6.015,6.368,7,8,7z"/>
        </symbol>
        <symbol id="cart">
            <title>cart</title>
            <path d="M11,12c-0.553,0-1,0.447-1,1s0.447,1,1,1s1-0.447,1-1S11.553,12,11,12z M5,12c-0.552,0-1,0.447-1,1 s0.448,1,1,1s1-0.447,1-1S5.552,12,5,12z M12,9l2-5H5V2H2v1h2v8h8v-1H5V9H12z"/>
        </symbol>
        <symbol id="category">
            <title>category</title>
            <polygon points="5.5,7 5,8 4,8 5,6 10,6 10,5 6.5,5 6,4 3,4 3,12 11,12 13,7"/>
        </symbol>
        <symbol id="chat">
            <title>chat</title>
            <path d="M13,4v3c0,1.654-1.346,3-3,3H6.914l-1,1H8.5l3.5,3.5V11h1c1.104,0,2-0.896,2-2V6 C15,4.896,14.104,4,13,4z"/>
            <path d="M10,2H2C0.896,2,0,2.896,0,4v3c0,1.104,0.896,2,2,2h1v3.5L6.5,9H10c1.104,0,2-0.896,2-2V4 C12,2.896,11.104,2,10,2z"/>
        </symbol>
        <symbol id="checkmark">
            <title>checkmark</title>
            <polygon points="11,4.25 7.5,8.25 5.75,6.75 4.75,7.75 7,11 8,11 12,5"/>
        </symbol>
        <symbol id="close-alt">
            <title>close-alt</title>
            <polygon points="16,1 15,0 8.5,6.5 2,0 1,1 7.5,7.5 1,14 2,15 8.5,8.5 15,15 16,14 9.5,7.5"/>
        </symbol>
        <symbol id="close">
            <title>close</title>
            <polygon points="12,5 11,4 8.5,6.5 6,4 5,5 7.5,7.5 5,10 6,11 8.5,8.5 11,11 12,10 9.5,7.5"/>
        </symbol>
        <symbol id="cloud-download">
            <title>cloud-download</title>
            <path
                d="M9,11H7v2H5l3,3l3-3H9V11z M13,8h-0.184C12.928,7.686,13,7.353,13,7c0-1.657-1.344-3-3-3 C8.792,4,7.756,4.719,7.281,5.749C6.828,5.287,6.198,5,5.5,5C4.119,5,3,6.119,3,7.5C3,7.671,3.018,7.838,3.05,8H3 c-1.104,0-2,0.896-2,2s0.896,2,2,2h3v-2h4v2h3c1.104,0,2-0.896,2-2S14.104,8,13,8z"/>
        </symbol>
        <symbol id="cloud-upload">
            <title>cloud-upload</title>
            <path
                d="M13,8h-0.184C12.928,7.686,13,7.353,13,7c0-1.657-1.344-3-3-3C8.792,4,7.756,4.719,7.281,5.749 C6.828,5.287,6.198,5,5.5,5C4.119,5,3,6.119,3,7.5C3,7.671,3.018,7.838,3.05,8H3c-1.104,0-2,0.896-2,2s0.896,2,2,2h4v-2H5l3-3l3,3H9 v2h4c1.104,0,2-0.896,2-2S14.104,8,13,8z"/>
        </symbol>
        <symbol id="cloud">
            <title>cloud</title>
            <path
                d="M13,8h-0.184C12.928,7.686,13,7.353,13,7c0-1.657-1.344-3-3-3C8.792,4,7.756,4.719,7.281,5.749 C6.828,5.288,6.198,5,5.5,5C4.119,5,3,6.119,3,7.5C3,7.672,3.017,7.837,3.051,8H3c-1.104,0-2,0.896-2,2s0.896,2,2,2h10 c1.104,0,2-0.896,2-2S14.104,8,13,8z"/>
        </symbol>
        <symbol id="code">
            <title>code</title>
            <polyline points="4,5 2,8 4,11 "/>
            <polyline points="12,5 14,8 12,11 "/>
            <line x1="7" x2="9" y1="12" y2="4"/>
        </symbol>
        <symbol id="codepen">
            <title>codepen</title>
            <path
                d="M13.997,6.11c-0.001-0.008-0.003-0.015-0.004-0.022c-0.003-0.015-0.005-0.029-0.009-0.043 c-0.002-0.009-0.006-0.017-0.008-0.025c-0.005-0.012-0.009-0.024-0.014-0.037c-0.004-0.009-0.008-0.017-0.012-0.025 c-0.005-0.012-0.011-0.022-0.018-0.034c-0.004-0.008-0.01-0.016-0.015-0.023c-0.007-0.011-0.014-0.021-0.021-0.031 c-0.006-0.008-0.012-0.015-0.018-0.022c-0.009-0.01-0.017-0.019-0.026-0.027c-0.006-0.007-0.013-0.014-0.021-0.021 c-0.009-0.009-0.019-0.017-0.029-0.024c-0.007-0.006-0.015-0.012-0.022-0.018c-0.003-0.002-0.006-0.005-0.009-0.007L8.286,2.101 c-0.173-0.115-0.399-0.115-0.572,0L2.228,5.749C2.225,5.751,2.222,5.754,2.219,5.756L2.196,5.773 c-0.01,0.008-0.02,0.016-0.029,0.024C2.16,5.805,2.153,5.812,2.146,5.818C2.137,5.827,2.129,5.836,2.121,5.846 C2.114,5.854,2.108,5.86,2.103,5.868c-0.007,0.01-0.015,0.021-0.021,0.031c-0.005,0.008-0.01,0.016-0.015,0.023 C2.06,5.935,2.054,5.945,2.049,5.957C2.045,5.966,2.041,5.974,2.037,5.982C2.032,5.995,2.028,6.008,2.024,6.02 C2.021,6.028,2.018,6.036,2.016,6.045C2.012,6.059,2.01,6.073,2.007,6.088C2.006,6.096,2.004,6.103,2.003,6.11 C2,6.133,1.998,6.155,1.998,6.178v3.648c0,0.022,0.002,0.045,0.005,0.067C2.004,9.9,2.006,9.908,2.007,9.916 C2.01,9.93,2.012,9.944,2.016,9.959c0.002,0.009,0.005,0.017,0.008,0.024c0.004,0.013,0.008,0.025,0.013,0.038 c0.004,0.009,0.008,0.017,0.012,0.024c0.005,0.012,0.011,0.023,0.018,0.035c0.004,0.008,0.009,0.016,0.015,0.023 c0.007,0.011,0.014,0.021,0.021,0.031c0.006,0.008,0.012,0.015,0.018,0.022c0.008,0.009,0.017,0.019,0.025,0.027 c0.007,0.007,0.014,0.014,0.021,0.021c0.009,0.008,0.019,0.017,0.029,0.024l0.023,0.018c0.003,0.002,0.006,0.004,0.008,0.006 l5.486,3.649C7.801,13.961,7.9,13.989,8,13.989s0.199-0.028,0.286-0.086l5.486-3.649l0.009-0.006 c0.008-0.006,0.016-0.012,0.022-0.018c0.011-0.008,0.021-0.017,0.029-0.024c0.008-0.007,0.015-0.014,0.021-0.021 c0.01-0.009,0.018-0.019,0.026-0.027c0.006-0.008,0.012-0.015,0.018-0.022c0.008-0.011,0.015-0.021,0.021-0.031 c0.005-0.008,0.011-0.016,0.015-0.023c0.007-0.012,0.013-0.023,0.018-0.035c0.004-0.008,0.008-0.016,0.012-0.024 c0.005-0.013,0.009-0.025,0.014-0.038c0.002-0.008,0.006-0.016,0.008-0.024c0.004-0.015,0.006-0.029,0.009-0.043 c0.001-0.008,0.003-0.016,0.004-0.022C14,9.871,14.002,9.849,14.002,9.826V6.178C14.002,6.155,14,6.133,13.997,6.11z M8.516,3.49 l4.042,2.688l-1.806,1.205L8.516,5.891V3.49z M7.484,3.49v2.4L5.248,7.383L3.443,6.178L7.484,3.49z M3.03,7.141L4.32,8.002 L3.03,8.863V7.141z M7.484,12.514L3.443,9.825l1.805-1.204l2.236,1.492V12.514z M8,9.22L6.176,8.002L8,6.784l1.824,1.218L8,9.22z  M8.516,12.514v-2.4l2.236-1.492l1.806,1.204L8.516,12.514z M12.971,8.863L11.68,8.002l1.291-0.861V8.863z"/>
        </symbol>
        <symbol id="cog">
            <title>cog</title>
            <path
                d="M14.75,10.156l-1.81-1.568C12.964,8.393,13,8.201,13,8c0-0.203-0.036-0.395-0.06-0.591l1.809-1.569 l-0.45-1.087l-2.386,0.169c-0.246-0.312-0.525-0.591-0.837-0.836L11.247,1.7L10.159,1.25l-1.57,1.81C8.394,3.037,8.202,3,8,3 S7.606,3.037,7.411,3.06l-1.57-1.81L4.754,1.7l0.17,2.386C4.611,4.332,4.332,4.612,4.086,4.924L1.701,4.754L1.25,5.843l1.809,1.57 C3.036,7.608,3,7.799,3,8c0,0.203,0.036,0.396,0.06,0.592l-1.81,1.569l0.451,1.088l2.387-0.17c0.246,0.312,0.524,0.59,0.836,0.835 L4.754,14.3l1.089,0.451l1.57-1.811C7.608,12.964,7.799,13,8,13c0.203,0,0.396-0.036,0.593-0.06l1.568,1.809l1.088-0.45l-0.17-2.387 c0.312-0.245,0.59-0.524,0.835-0.836l2.386,0.171L14.75,10.156z M10,8c0,1.104-0.896,2-2,2S6,9.104,6,8s0.896-2,2-2S10,6.896,10,8z"/>
        </symbol>
        <symbol id="collapse">
            <title>collapse</title>
            <polygon points="11,11 7.5,7.5 4,11 3,10 7.5,5.5 12,10 "/>
        </symbol>
        <symbol id="comment">
            <title>comment</title>
            <path d="M12,4H4C2.896,4,2,4.896,2,6v3c0,1.104,0.896,2,2,2h1v3.5L8.5,11H12c1.104,0,2-0.896,2-2V6 C14,4.896,13.104,4,12,4z"/>
        </symbol>
        <symbol id="day">
            <title>day</title>
            <path
                d="M11,3V2h-1v1H5V2H4v1H2v10h11V3H11z M12,11c0,0.553-0.447,1-1,1H4c-0.552,0-1-0.447-1-1V6 c0-0.553,0.448-1,1-1h7c0.553,0,1,0.447,1,1V11z M7.5,6h-1C6.224,6,6,6.224,6,6.5S6.224,7,6.5,7H7v3.5C7,10.776,7.224,11,7.5,11 S8,10.776,8,10.5v-4C8,6.224,7.776,6,7.5,6z"/>
        </symbol>
        <symbol id="digg">
            <title>digg</title>
            <path
                d="M13,8c0-0.552-0.448-1-1-1H8.75C8.75,7,9,6,9,4.5C9,3.125,8,2,7.5,2S7,3,7,3c0,3-1.5,5-2.5,5H3v5 c0,0,0.5,0,1,0c1,0,1.5,1,3,1c0.254,0,3.5,0,3.5,0c0.552,0,1-0.448,1-1s-0.448-1-1-1H11c0.552,0,1-0.448,1-1 c0-0.208-0.063-0.399-0.171-0.56c0.39-0.137,0.671-0.504,0.671-0.94c0-0.208-0.063-0.399-0.171-0.56C12.719,8.804,13,8.437,13,8z"/>
        </symbol>
        <symbol id="document">
            <title>document</title>
            <path d="M9,3H8H4v10h8V7V6.949V6L9,3z M11,12H5V4h3v2v1h1h2V12z"/>
        </symbol>
        <symbol id="dot">
            <title>dot</title>
            <path d="M8,6C6.896,6,6,6.896,6,8s0.896,2,2,2s2-0.896,2-2S9.104,6,8,6z"/>
        </symbol>
        <symbol id="downarrow">
            <title>downarrow</title>
            <polygon points="1,0 8.5,7.5 16,0 "/>
        </symbol>
        <symbol id="download">
            <title>download</title>
            <path d="M11,7H9V3H7v4H5l3,3L11,7z M3,11v2h10v-2H3z"/>
        </symbol>
        <symbol id="draggable">
            <title>draggable</title>
            <path
                d="M4,5h1V4H4V5z M6,5h1V4H6V5z M8,5h1V4H8V5z M10,4v1h1V4H10z M4,7h1V6H4V7z M6,7h1V6H6V7z M8,7h1V6H8 V7z M10,7h1V6h-1V7z M4,9h1V8H4V9z M6,9h1V8H6V9z M8,9h1V8H8V9z M10,9h1V8h-1V9z M4,11h1v-1H4V11z M6,11h1v-1H6V11z M8,11h1v-1H8 V11z M10,11h1v-1h-1V11z"/>
        </symbol>
        <symbol id="dribble">
            <title>dribble</title>
            <path
                d="M8,15c-1.625,0-3.125-0.5-4.25-1.5C4.875,11.375,7,9.75,9.25,9c1.125,2.5,1.5,4.25,1.625,5.375C10,14.75,9,15,8,15z M12,13.75c-0.5-2.625-1.375-4.75-1.5-5c1.625-0.25,3-0.25,4.5,0C14.75,10.75,13.625,12.625,12,13.75z M1,7.5 c2.625,0.25,4.375,0,7.25-0.875c0.25,0.5,0.5,1,0.625,1.375c-2.25,0.75-4.75,2.375-6.125,4.625C1.625,11.375,1,9.75,1,8 C1,7.875,1,7.75,1,7.5z M13.75,4C14.5,5,14.875,6.25,15,7.625c-1.125-0.25-3.25-0.375-4.875,0c-0.25-0.5-0.375-0.875-0.75-1.375 C10.875,5.5,12.5,5,13.75,4z M5.25,1.5c1,1.375,1.75,2.625,2.5,4.125c-1.125,0.375-4.25,1-6.5,0.75C1.75,4.125,3.25,2.375,5.25,1.5z M8,1c2,0,3.75,0.875,5,2.125c-1.125,1-3.125,1.625-4.125,2C8,3.625,7.5,2.75,6.5,1.125C7,1.125,7.5,1,8,1z M8,0 C3.625,0,0,3.625,0,8s3.625,8,8,8s8-3.625,8-8S12.375,0,8,0z"/>
        </symbol>
        <symbol id="dropbox">
            <title>dropbox</title>
            <g>
                <polygon points="5.118,1.488 1,4.178 3.848,6.458 8,3.894"/>
                <polygon points="1,8.738 5.118,11.428 8,9.021 3.848,6.458"/>
                <polygon points="8,9.021 10.881,11.428 15,8.738 12.152,6.458"/>
                <polygon points="15,4.178 10.881,1.488 8,3.894 12.152,6.458"/>
                <polygon points="8.008,9.54 5.118,11.938 3.881,11.131 3.881,12.035 8.008,14.512 12.136,12.035 12.136,11.131 10.898,11.938"/>
            </g>
        </symbol>
        <symbol id="dropdown-left">
            <title>dropdown-left</title>
            <polygon points="9,16 16,16 16,9"/>
        </symbol>
        <symbol id="dropdown">
            <title>dropdown</title>
            <polygon points="0,9 0,16 7,16"/>
        </symbol>
        <symbol id="edit">
            <title>edit</title>
            <path d="M10,2.5l-7,7V13h3.5l7-7L10,2.5z M10,4l0.75,0.75L6.104,9.396l-0.75-0.75L10,4z M6,12l-2-2l1-1l0.75,0.75h0
		l0.5,0.5h0L7,11L6,12z M6.604,9.896L11.25,5.25L12,6l-4.646,4.646L6.604,9.896z"/>
        </symbol>
        <symbol id="ellipsis">
            <title>ellipsis</title>
            <path
                d="M3,6.25C2.033,6.25,1.25,7.033,1.25,8c0,0.966,0.783,1.75,1.75,1.75S4.75,8.966,4.75,8
		C4.75,7.033,3.967,6.25,3,6.25z M8,6.25C7.033,6.25,6.25,7.033,6.25,8c0,0.966,0.783,1.75,1.75,1.75c0.966,0,1.75-0.784,1.75-1.75
		C9.75,7.033,8.966,6.25,8,6.25z M13,6.25c-0.966,0-1.75,0.783-1.75,1.75c0,0.966,0.784,1.75,1.75,1.75S14.75,8.966,14.75,8
		C14.75,7.033,13.966,6.25,13,6.25z"/>
        </symbol>
        <symbol id="expand">
            <title>expand</title>
            <polygon points="11,6 7.5,9.5 4,6 3,7 7.5,11.5 12,7"/>
        </symbol>
        <symbol id="external">
            <title>external</title>
            <path d="M10,11H5V6h2l1-1H4v7h7V8l-1,1V11z M8,3v1h3.293L7,8.293L7.707,9L12,4.707V8h1V3H8z"/>
        </symbol>
        <symbol id="facebook-alt">
            <title>facebook-alt</title>
            <path
                d="M9.236,6.064V4.446c0,0.011,0-0.012,0-0.109c0-0.65,0.137-1.043,0.988-1.043 c0.789,0,1.512,0.005,1.512,0.005l0.055-2.208c0,0-0.707-0.091-1.664-0.091C7.762,1,6.735,2.458,6.735,4.044c0,1.052,0,2.02,0,2.02 H5v2.365h1.735V15h2.501V8.429h2.455l0.113-2.365H9.236z"/>
        </symbol>
        <symbol id="facebook">
            <title>facebook</title>
            <path
                d="M13,1H3C1.896,1,1,1.896,1,3v10c0,1.104,0.896,2,2,2h5.655V9.443H6.668V7.417h1.987 c0,0,0-0.948,0-1.85c0-1.36,0.879-2.609,2.907-2.609c0.819,0,1.426,0.078,1.426,0.078l-0.046,1.893c0,0-0.62-0.005-1.297-0.005 c-0.729,0-0.848,0.337-0.848,0.894c0,0.06,0,0.086,0,0.094v0.002v1.503H13l-0.097,2.027h-2.105V15H13c1.104,0,2-0.896,2-2V3 C15,1.896,14.104,1,13,1z"/>
        </symbol>
        <symbol id="fastforward">
            <title>fastforward</title>
            <polygon points="15,8 7,3 7,6.75 1,3 1,13 7,9.25 7,13"/>
        </symbol>
        <symbol id="feed">
            <title>feed</title>
            <path d="M2,6v2c3.309,0,6,2.691,6,6h2C10,9.582,6.418,6,2,6z M2,2v2c5.514,0,10,4.486,10,10h2 C14,7.373,8.627,2,2,2z M3.5,11C2.671,11,2,11.672,2,12.5S2.671,14,3.5,14S5,13.328,5,12.5S4.329,11,3.5,11z"/>
        </symbol>
        <symbol id="flag">
            <title>flag</title>
            <path d="M2,14h2V2H2V14z M12,3c-2,0-2-1-4-1S6,3,5,3v6c1,0,1-1,3-1s2,1,4,1h2V3H12z"/>
        </symbol>
        <symbol id="flickr">
            <title>flickr</title>
            <path d="M11.5,4.75C9.704,4.75,8.25,6.205,8.25,8s1.454,3.25,3.25,3.25S14.75,9.795,14.75,8
		S13.296,4.75,11.5,4.75z M4.5,4.75C2.705,4.75,1.25,6.205,1.25,8c0,1.795,1.455,3.25,3.25,3.25S7.75,9.795,7.75,8
		C7.75,6.205,6.295,4.75,4.5,4.75z"/>
        </symbol>
        <symbol id="foursquare">
            <title>foursquare</title>
            <path
                d="M11.545,2c0,0-5.518,0-6.401,0S4.001,2.664,4.001,3.083s0,10.169,0,10.169
		c0,0.471,0.253,0.646,0.396,0.703c0.143,0.058,0.535,0.106,0.771-0.165c0,0,3.021-3.506,3.073-3.558
		c0.079-0.079,0.079-0.079,0.157-0.079h1.956c0.821,0,0.953-0.586,1.039-0.931c0.047-0.191,0.415-2.057,0.735-3.673l0.405-2.021
		C12.737,2.536,12.485,2,11.545,2z M10.898,5.132c-0.032,0.151-0.223,0.311-0.399,0.311c-0.176,0-2.494,0-2.494,0
		c-0.28,0-0.481,0.191-0.481,0.472V6.22c0,0.28,0.202,0.479,0.483,0.479c0,0,1.918,0,2.117,0s0.393,0.217,0.35,0.429
		c-0.043,0.212-0.244,1.261-0.269,1.377c-0.024,0.116-0.157,0.314-0.393,0.314c-0.198,0-1.728,0-1.728,0
		c-0.314,0-0.41,0.041-0.62,0.302c-0.21,0.262-2.103,2.534-2.103,2.534c-0.019,0.021-0.038,0.016-0.038-0.009V3.711
		c0-0.179,0.156-0.389,0.389-0.389c0,0,4.937,0,5.137,0c0.189,0,0.366,0.178,0.317,0.41L10.898,5.132z"/>
        </symbol>
        <symbol id="fullscreen">
            <title>fullscreen</title>
            <polygon points="1,5 1,2 4,2 "/>
            <rect height="4" width="6" x="5" y="6"/>
            <polygon points="12,2 15,2 15,5"/>
            <polygon points="1,11 1,14 4,14"/>
            <polygon points="12,14 15,14 15,11"/>
            <polygon points="12,5 14,2 15,3"/>
            <polygon points="12,11 15,13 14,14"/>
            <polygon points="1,13 4,11 2,14"/>
            <polygon points="1,3 2,2 4,5"/>
        </symbol>
        <symbol id="gallery">
            <title>gallery</title>
            <path d="M9,5v7h7V5H9z M1,8h7V5H1V8z M5,12h3V9H5V12z M1,12h3V9H1V12z"/>
        </symbol>
        <symbol id="github">
            <title>github</title>
            <path
                d="M8,0C3.582,0,0,3.582,0,8c0,3.535,2.292,6.533,5.471,7.591
c0.4,0.072,0.546-0.174,0.546-0.387c0-0.189-0.007-0.693-0.011-1.359c-2.226,0.482-2.695-1.072-2.695-1.072
c-0.364-0.926-0.888-1.172-0.888-1.172c-0.727-0.496,0.055-0.486,0.055-0.486c0.803,0.057,1.226,0.824,1.226,0.824
c0.713,1.223,1.873,0.871,2.328,0.666c0.073-0.518,0.279-0.869,0.508-1.07c-1.776-0.201-3.644-0.889-3.644-3.954
c0-0.873,0.312-1.587,0.824-2.146C3.637,5.232,3.362,4.419,3.797,3.318c0,0,0.672-0.215,2.2,0.82C6.636,3.96,7.32,3.872,8,3.869
C8.68,3.872,9.364,3.96,10.003,4.138c1.527-1.035,2.198-0.82,2.198-0.82c0.437,1.101,0.162,1.915,0.08,2.117
c0.512,0.559,0.821,1.273,0.821,2.146c0,3.073-1.87,3.75-3.652,3.948c0.287,0.246,0.543,0.734,0.543,1.482
c0,1.068-0.01,1.932-0.01,2.193c0,0.215,0.144,0.463,0.55,0.385C13.71,14.529,16,11.533,16,8C16,3.582,12.418,0,8,0z"/>
        </symbol>
        <symbol id="googleplus-alt">
            <title>googleplus-alt</title>
            <path
                d="M5.7,7v1.6h2.6c-0.1,0.6-0.8,1.9-2.6,1.9c-1.6,0-2.9-1.3-2.9-2.9s1.3-2.9,2.9-2.9c1,0,1.5,0.4,1.8,0.6l1.2-1.2
	c-0.7-0.8-1.8-1.2-3-1.2c-2.4,0-4.6,2.1-4.6,4.6s2.1,4.6,4.6,4.6c2.6,0,4.4-1.8,4.4-4.4C10.1,7.3,10,7,10,7C10,7,5.7,7,5.7,7z M13,7
	V6h-1v1h-1v1h1v1h1V8h1V7H13z"/>
        </symbol>
        <symbol id="handset">
            <title>handset</title>
            <path
                d="M5.7,7v1.6h2.6c-0.1,0.6-0.8,1.9-2.6,1.9c-1.6,0-2.9-1.3-2.9-2.9s1.3-2.9,2.9-2.9c1,0,1.5,0.4,1.8,0.6l1.2-1.2
c-0.7-0.8-1.8-1.2-3-1.2c-2.4,0-4.6,2.1-4.6,4.6s2.1,4.6,4.6,4.6c2.6,0,4.4-1.8,4.4-4.4C10.1,7.3,10,7,10,7C10,7,5.7,7,5.7,7z M13,7
V6h-1v1h-1v1h1v1h1V8h1V7H13z"/>
        </symbol>
        <symbol id="heart">
            <title>heart</title>
            <path d="M11.559,9.6L10,11.158C8.044,10.3,6.413,8.836,5.349,7l1.478-1.478C6.301,4.459,6,3.266,6,2H2 c0,6.627,5.373,12,12,12v-4C13.146,10,12.329,9.85,11.559,9.6z"/>
        </symbol>
        <symbol id="help">
            <title>help</title>
            <path d="M8,13L2.941,8.211C1.774,7.107,1.68,5.217,2.729,3.99c1.05-1.228,2.847-1.327,4.014-0.223L8,4.957
	l1.256-1.19c1.166-1.103,2.964-1.005,4.014,0.223c1.052,1.227,0.956,3.117-0.211,4.222L8,13z"/>
        </symbol>
        <symbol id="hide">
            <title>hide</title>
            <path
                d="M8,2C4.686,2,2,4.687,2,8c0,3.313,2.686,6,6,6c3.313,0,6-2.687,6-6C14,4.687,11.313,2,8,2z M8,12
c-0.553,0-1-0.449-1-1s0.447-1,1-1c0.552,0,1,0.449,1,1S8.552,12,8,12z M10.49,6.97c-0.197,0.306-0.506,0.594-0.936,0.866
C9.195,8.07,8.969,8.242,8.875,8.352C8.783,8.459,8.74,8.588,8.74,8.734V9H7.149V8.555c0-0.336,0.069-0.623,0.206-0.855
c0.14-0.234,0.384-0.46,0.737-0.68C8.371,6.844,8.57,6.685,8.695,6.544C8.816,6.402,8.879,6.24,8.879,6.058
c0-0.145-0.064-0.26-0.199-0.344C8.549,5.629,8.379,5.587,8.17,5.587c-0.522,0-1.131,0.185-1.828,0.554L5.624,4.734
C6.482,4.244,7.378,4,8.314,4c0.768,0,1.375,0.168,1.812,0.506c0.438,0.337,0.654,0.798,0.654,1.38
C10.781,6.305,10.684,6.666,10.49,6.97z"/>
        </symbol>
        <symbol id="hierarchy">
            <title>hierarchy</title>
            <g>
                <path d="M8,11c1.656,0,3-1.344,3-3c0-0.155-0.019-0.305-0.044-0.452l-3.408,3.408
		C7.695,10.981,7.845,11,8,11z"/>
                <path d="M13.252,5.252l-1.061,1.061L13.879,8l-2.907,2.908c-0.79,0.807-1.846,1.251-2.971,1.251
		c-0.484,0-0.947-0.105-1.39-0.266l-1.149,1.148C6.227,13.43,7.084,13.659,8,13.659c1.583,0,3.015-0.652,4.042-1.701L16,8
		L13.252,5.252z"/>
                <path
                    d="M12.547,2.546L11.5,3.593C10.535,2.823,9.331,2.34,8,2.34c-1.585,0-3.016,0.653-4.043,1.703L0,8h0
		l3.546,3.546l-1,1.001l1.007,1.006l9.999-9.999L12.547,2.546z M7,8C6.447,8,6,7.552,6,7s0.447-1,1-1c0.552,0,1,0.448,1,1
		S7.552,8,7,8z M9.603,5.49C9.139,5.189,8.596,5,8,5C6.344,5,5,6.343,5,8c0,0.596,0.189,1.139,0.491,1.604l-0.883,0.883L2.122,8
		l2.907-2.907C5.819,4.285,6.874,3.84,8,3.84c0.889,0,1.72,0.302,2.429,0.824L9.603,5.49z"/>
            </g>
        </symbol>
        <symbol id="home">
            <title>home</title>
            <path d="M2,5h2V3H2V5z M6,3v2h8V3H6z M2,9h2V7H2V9z M11,7H6v2h5V7z M2,13h2v-2H2V13z M6,13h7v-2H6V13z"/>
        </symbol>
        <symbol id="image">
            <title>image</title>
            <path d="M8,3L3,7l1,1v4h8V8l1-1L8,3z M9,11.5H7V8h2V11.5z"/>
        </symbol>
        <symbol id="info">
            <title>info</title>
            <path
                d="M11,5l-1-2H6L5,5L1,6v7h14V6L11,5z M8,11.998c-1.933,0-3.5-1.566-3.5-3.5c0-1.933,1.567-3.5,3.5-3.5
c1.934,0,3.5,1.567,3.5,3.5C11.5,10.432,9.934,11.998,8,11.998z M4,3.5H2v1.251l2-0.5V3.5z M8,5.999c-1.381,0-2.5,1.119-2.5,2.5
c0,1.381,1.119,2.5,2.5,2.5s2.5-1.119,2.5-2.5C10.5,7.118,9.381,5.999,8,5.999z"/>
        </symbol>
        <symbol id="instagram">
            <title>instagram</title>
            <path d="M8,2C4.686,2,2,4.687,2,8c0,3.313,2.686,6,6,6c3.313,0,6-2.687,6-6C14,4.687,11.313,2,8,2z M8,4
	c0.552,0,1,0.448,1,1S8.552,6,8,6C7.447,6,7,5.552,7,5S7.447,4,8,4z M10,12H6v-1h1.25V8H6.249V7H8.75v4H10V12z"/>
        </symbol>
        <symbol id="italic">
            <title>italic</title>
            <path
                d="M13,1H3C1.896,1,1,1.896,1,3v10c0,1.104,0.896,2,2,2h10c1.104,0,2-0.896,2-2V3
C15,1.896,14.104,1,13,1z M8,5c1.656,0,3,1.343,3,3c0,1.656-1.344,3-3,3c-1.657,0-3-1.344-3-3C5,6.343,6.343,5,8,5z M14,13
c0,0.553-0.447,1-1,1H3c-0.552,0-1-0.447-1-1V7h2.142C4.058,7.321,4,7.652,4,8c0,2.209,1.791,4,4,4s4-1.791,4-4
c0-0.348-0.059-0.679-0.142-1H14V13z M14,4c0,0.552-0.447,1-1,1h-1c-0.553,0-1-0.448-1-1V3c0-0.552,0.447-1,1-1h1
c0.553,0,1,0.448,1,1V4z"/>
        </symbol>
        <symbol id="key">
            <title>key</title>
            <polygon points="10.688,5 11,4 7.5,4 7.188,5 8.188,5 6.312,11 5.312,11 5,12 8.5,12 8.812,11 7.812,11
	9.688,5"/>
        </symbol>
        <symbol id="leftarrow">
            <title>leftarrow</title>
            <path
                d="M13.418,4.779l-2.229-2.23c-0.778-0.779-2.042-0.779-2.82,0l-1.82,1.82
c-0.778,0.778-0.778,2.042,0,2.82l0.006,0.006L3,10.749v2.249h2.25l3.557-3.557c0.781,0.754,2.022,0.748,2.792-0.022l1.819-1.82
C14.197,6.82,14.197,5.558,13.418,4.779z M10.499,7.374l-2-2l1.25-1.25l2,2L10.499,7.374z"/>
        </symbol>
        <symbol id="linkedin-alt">
            <title>linkedin-alt</title>
            <polygon points="16,0 8.5,7.5 16,15 "/>
        </symbol>
        <symbol id="linkedin">
            <title>linkedin</title>
            <path
                d="M13,1H3C1.896,1,1,1.896,1,3v10c0,1.104,0.896,2,2,2h10c1.104,0,2-0.896,2-2V3
C15,1.896,14.104,1,13,1z M5.181,13H3.122V6.805h2.059V13z M4.151,5.959H4.138C3.447,5.959,3,5.483,3,4.889
c0-0.607,0.46-1.07,1.165-1.07c0.704,0,1.138,0.463,1.151,1.07C5.316,5.483,4.869,5.959,4.151,5.959z M12.605,13h-2.059V9.686
c0-0.832-0.297-1.4-1.043-1.4c-0.569,0-0.908,0.383-1.057,0.753C8.393,9.17,8.379,9.355,8.379,9.54V13H6.32c0,0,0.027-5.614,0-6.195
h2.059v0.878c0.273-0.422,0.763-1.023,1.855-1.023c1.355,0,2.371,0.886,2.371,2.788V13z"/>
        </symbol>
        <symbol id="link">
            <title>link</title>
            <path
                d="M4.724,14H2.152V6.26h2.572V14z M3.438,5.204H3.422C2.559,5.204,2,4.609,2,3.867
c0-0.759,0.575-1.337,1.456-1.337c0.879,0,1.421,0.579,1.438,1.337C4.894,4.609,4.335,5.204,3.438,5.204z M14,14h-2.572V9.859
c0-1.04-0.37-1.75-1.302-1.75c-0.712,0-1.135,0.478-1.321,0.94C8.738,9.215,8.721,9.447,8.721,9.678V14H6.148
c0,0,0.034-7.014,0-7.74h2.573v1.097c0.342-0.527,0.953-1.278,2.316-1.278C12.73,6.079,14,7.185,14,9.562V14z"/>
        </symbol>
        <symbol id="list">
            <title>list</title>
            <path
                d="M8.5,2C7.119,2,6,3.119,6,4.5v3c0,1.025,0.618,1.903,1.5,2.289V8.61C7.195,8.335,7,7.941,7,7.5v-3
    		C7,3.673,7.673,3,8.5,3S10,3.673,10,4.5v3c0,0.441-0.195,0.835-0.5,1.11v1.179C10.383,9.403,11,8.525,11,7.5v-3
    		C11,3.119,9.881,2,8.5,2z"/>
            <path d="M7.5,5.211V6.39C7.805,6.665,8,7.059,8,7.5v3C8,11.327,7.327,12,6.5,12S5,11.327,5,10.5v-3
    	c0-0.441,0.195-0.835,0.5-1.11V5.211C4.618,5.597,4,6.475,4,7.5v3C4,11.881,5.119,13,6.5,13S9,11.881,9,10.5v-3
    	C9,6.475,8.382,5.597,7.5,5.211z"/>
        </symbol>
        <symbol id="location">
            <title>location</title>
            <path d="M7.5,2C5.015,2,3,4.015,3,6.5c0,1.244,0.505,2.37,1.321,3.185l3.179,3.18l3.179-3.18
    	C11.495,8.87,12,7.744,12,6.5C12,4.015,9.985,2,7.5,2z M7.5,9C6.119,9,5,7.88,5,6.5S6.119,4,7.5,4C8.88,4,10,5.12,10,6.5
    	S8.88,9,7.5,9z"/>
        </symbol>
        <symbol id="lock">
            <title>lock</title>
            <path d="M12,7V6c0-2.209-1.791-4-4-4S4,3.791,4,6v1C3.448,7,3,7.448,3,8v5c0,0.553,0.448,1,1,1h8
    	c0.553,0,1-0.447,1-1V8C13,7.448,12.553,7,12,7z M6,7V6c0-1.104,0.896-2,2-2s2,0.896,2,2v1H6z"/>
        </symbol>
        <symbol id="maximize">
            <title>maximize</title>
            <path d="M2,4v1l6,3l6-3V4H2z M2,6.5V12h12V6.5l-6,3L2,6.5z"/>
        </symbol>
        <symbol id="menu">
            <title>menu</title>
            <path d="M3,4v8h9V4H3z M11,11H4V6h7V11z"/>
        </symbol>
        <symbol id="microphone">
            <title>microphone</title>
            <path d="M0,14h16v-2H0V14z M0,2v2h16V2H0z M0,9h16V7H0V9z"/>
        </symbol>
        <symbol id="minimize">
            <title>minimize</title>
            <path
                d="M8.001,9C8.83,9,9.5,8.328,9.5,7.5v-4C9.5,2.673,8.83,2,8.001,2C7.173,2,6.5,2.673,6.5,3.5v4
    	C6.5,8.328,7.173,9,8.001,9z M10.949,8C10.711,9.418,9.486,10.5,8,10.5c-1.484,0-2.71-1.082-2.949-2.5h-1.5
    	C3.765,9.91,5.165,11.453,7,11.875V14h2v-2.125C10.836,11.453,12.235,9.91,12.449,8H10.949z"/>
        </symbol>
        <symbol id="minus">
            <title>minus</title>
            <rect height="2" width="9" x="3" y="7"/>
        </symbol>
        <symbol id="month">
            <title>month</title>
            <path
                d="M6,11h1v-1H6V11z M6,9h1V8H6V9z M6,7h1V6H6V7z M4,11h1v-1H4V11z M4,9h1V8H4V9z M10,9h1V8h-1V9z M8,7
		h1V6H8V7z M10,7h1V6h-1V7z M11,3V2h-1v1H5V2H4v1H2v10h11V3H11z M12,11c0,0.553-0.447,1-1,1H4c-0.552,0-1-0.447-1-1V6
		c0-0.553,0.448-1,1-1h7c0.553,0,1,0.447,1,1V11z M8,9h1V8H8V9z M8,11h1v-1H8V11z"/>
        </symbol>
        <symbol id="move">
            <title>move</title>
            <polygon points="15,8 12,5 12,7 9,7 9,4 11,4 8,1 5,4 7,4 7,7 4,7 4,5 1,8 4,11 4,9 7,9 7,12 5,12 8,15 11,12 9,12 9,9 12,9 12,11
    	"/>
        </symbol>
        <symbol id="next">
            <title>next</title>
            <polygon points="8,4.646 7.323,5.323 10,8 3,8 3,9 10,9 7.323,11.677 8,12.354 11.854,8.51"/>
        </symbol>
        <symbol id="notice">
            <title>notice</title>
            <path d="M8,2C4.686,2,2,4.687,2,8c0,3.313,2.686,6,6,6c3.313,0,6-2.687,6-6C14,4.687,11.313,2,8,2z M8,12
		c-0.552,0-1-0.447-1-1s0.448-1,1-1c0.553,0,1,0.447,1,1S8.553,12,8,12z M8.697,9H7.3L6.9,4h2.2L8.697,9z"/>
        </symbol>
        <symbol id="paintbrush">
            <title>paintbrush</title>
            <path d="M6,1c0,2-1,3-1,3l0.01,0.021L2.722,6.308c-0.389,0.389-0.389,1.025,0,1.414l2.101,2.102l5-5L6,1z"/>
            <path
                d="M13.58,11.58L11,9h-1L9.5,8.5C9.225,8.225,9.318,7.682,9.707,7.293l0.586-0.586
		c0.389-0.389,0.389-1.025,0-1.414l-0.116-0.116l-5,5l0.116,0.116c0.389,0.389,1.025,0.389,1.414,0l0.586-0.586
		C7.682,9.318,8.225,9.225,8.5,9.5L9,10v1l2.58,2.58c0.257,0.259,0.611,0.42,1.005,0.42C13.366,14,14,13.366,14,12.585
		C14,12.191,13.839,11.836,13.58,11.58z M12.585,13.085c-0.276,0-0.5-0.224-0.5-0.5s0.224-0.5,0.5-0.5s0.5,0.224,0.5,0.5
		S12.861,13.085,12.585,13.085z"/>
        </symbol>
        <symbol id="path">
            <title>path</title>
            <path
                d="M11.235,1.682c0,0-5.695-2.289-9.061,1.521
    	c-2.592,3.54,0.058,6.809,0.058,6.809l1.76-1.566c0,0-1.315-1.567-0.29-3.308c1.354-2.186,4.082-2.012,4.082-2.012
    	s4.35-0.02,4.273,3.694c-0.484,3.346-4.081,2.264-4.081,2.264V4.885H5.541v7.39c-0.347,0.971-1.223,0.59-1.876-0.078v2.186
    	c0,0,1.315,0.986,2.747,0.465c1.431-0.523,1.585-1.721,1.585-1.721v-2.168c0,0,4.042,1.605,6.13-2.727
    	C15.637,3.474,11.235,1.682,11.235,1.682z"/>
        </symbol>
        <symbol id="pause">
            <title>pause</title>
            <path d="M4,13h3V3H4V13z M9,3v10h3V3H9z"/>
        </symbol>
        <symbol id="phone">
            <title>phone</title>
            <path d="M10,2H6C4.896,2,4,2.896,4,4v8c0,1.104,0.896,2,2,2h4c1.104,0,2-0.896,2-2V4C12,2.896,11.104,2,10,2
		z M8,13c-0.552,0-1-0.447-1-1s0.448-1,1-1c0.553,0,1,0.447,1,1S8.553,13,8,13z M11,10H5V4h6V10z"/>
        </symbol>
        <symbol id="picture">
            <title>picture</title>
            <path d="M3,3v10h10V3H3z M6,5c0.552,0,1,0.448,1,1S6.552,7,6,7S5,6.552,5,6S5.448,5,6,5z M12,12H4l2-3
    	l1.5,2.25L11,6l1,1.5V12z"/>
        </symbol>
        <symbol id="pinned">
            <title>pinned</title>
            <path d="M3.732,11.561c-0.783,0.783-0.904,1.189-1.061,1.768c0.578-0.156,0.985-0.277,1.768-1.061l4.242-4.242L7.975,7.318
    	L3.732,11.561z"/>
            <path
                d="M9.293,2.464c0.391,0.391,0.391,1.023,0,1.414L7.879,5.293c-0.391,0.391-1.024,0.391-1.415,0L5.05,6.707l4.243,4.242
    	l1.414-1.414c-0.391-0.391-0.391-1.023,0-1.414l1.414-1.414c0.391-0.391,1.023-0.391,1.414,0l1.414-1.414L10.707,1.05L9.293,2.464z"/>
        </symbol>
        <symbol id="pinterest-alt">
            <title>pinterest-alt</title>
            <path
                d="M8,0C3.582,0,0,3.582,0,8c0,3.275,1.97,6.091,4.789,7.328c-0.022-0.56-0.004-1.229,0.14-1.837
		c0.153-0.649,1.029-4.359,1.029-4.359S5.702,8.621,5.702,7.866c0-1.186,0.688-2.071,1.543-2.071c0.728,0,1.079,0.546,1.079,1.201
		c0,0.731-0.467,1.826-0.707,2.839c-0.2,0.848,0.426,1.54,1.263,1.54c1.517,0,2.536-1.946,2.536-4.253
		c0-1.753-1.181-3.066-3.329-3.066c-2.426,0-3.938,1.81-3.938,3.832c0,0.697,0.206,1.188,0.527,1.568
		c0.148,0.176,0.169,0.246,0.116,0.447c-0.039,0.146-0.127,0.501-0.164,0.642c-0.053,0.203-0.217,0.274-0.4,0.199
		C3.11,10.289,2.59,9.064,2.59,7.688c0-2.273,1.917-4.998,5.718-4.998c3.054,0,5.064,2.21,5.064,4.583
		c0,3.138-1.745,5.483-4.316,5.483c-0.864,0-1.676-0.467-1.955-0.998c0,0-0.464,1.844-0.563,2.2
		c-0.17,0.617-0.502,1.233-0.805,1.713C6.453,15.885,7.212,16,8,16c4.419,0,8-3.581,8-8C16,3.582,12.419,0,8,0z"/>
        </symbol>
        <symbol id="pinterest">
            <title>pinterest</title>
            <path
                d="M8.384,0C3.698,0,1.336,3.358,1.336,6.16c0,1.696,0.642,3.206,2.019,3.766
    	c0.226,0.093,0.428,0.005,0.494-0.245C3.894,9.507,4.003,9.07,4.05,8.89c0.065-0.248,0.041-0.335-0.143-0.552
    	c-0.396-0.468-0.65-1.073-0.65-1.933c0-2.492,1.864-4.723,4.854-4.723c2.647,0,4.103,1.618,4.103,3.779
    	c0,2.843-1.257,5.242-3.126,5.242c-1.031,0-1.803-0.853-1.556-1.897c0.295-1.25,0.871-2.599,0.871-3.5c0-0.807-0.433-1.48-1.33-1.48
    	c-1.054,0-1.902,1.092-1.902,2.553c0,0.931,0.315,1.561,0.315,1.561s-1.079,4.573-1.268,5.373c-0.177,0.749-0.2,1.575-0.172,2.265
    	L5.21,16c0.374-0.591,0.783-1.351,0.993-2.111c0.122-0.439,0.694-2.712,0.694-2.712c0.343,0.654,1.344,1.23,2.409,1.23
    	c3.169,0,5.32-2.891,5.32-6.759C14.626,2.724,12.147,0,8.384,0z"/>
        </symbol>
        <symbol id="play">
            <title>play</title>
            <polygon points="4,3 4,13 12,8"/>
        </symbol>
        <symbol id="plugin">
            <title>plugin</title>
            <path d="M7,3c0-0.553-0.448-1-1-1S5,2.447,5,3v3h2V3z M11,3c0-0.553-0.447-1-1-1S9,2.447,9,3v3h2V3z M3,7
    	c0,2.419,1.718,4.436,4,4.899V14h2v-2.101c2.282-0.464,4-2.48,4-4.899H3z"/>
        </symbol>
        <symbol id="plus">
            <title>plus</title>
            <polygon points="13,7 9,7 9,3 7,3 7,7 3,7 3,9 7,9 7,13 9,13 9,9 13,9 "/>
        </symbol>
        <symbol id="pocket">
            <title>pocket</title>
            <path
                d="M12,2H4C2.896,2,2,2.896,2,4v3c0,3.313,2.687,6,6,6s6-2.687,6-6V4
    	C14,2.896,13.104,2,12,2z M11.707,6.707L8.879,9.535L8.846,9.502C8.671,9.794,8.365,10,8,10S7.329,9.794,7.154,9.502L7.121,9.535
    	L4.293,6.707c-0.391-0.391-0.391-1.024,0-1.414c0.39-0.391,1.023-0.391,1.414,0L8,7.586l2.293-2.293
    	c0.391-0.391,1.023-0.391,1.414,0C12.098,5.683,12.098,6.316,11.707,6.707z"/>
        </symbol>
        <symbol id="polldaddy">
            <title>polldaddy</title>
            <path
                d="M8,1C4.141,1,1,4.141,1,8c0,3.86,3.141,7,7,7c3.86,0,7-3.14,7-7C15,4.141,11.86,1,8,1z M8.694,2.176
    	c1.653,0.059,3.26,0.876,4.338,2.195c0.198,0.234,0.379,0.485,0.542,0.747C12.575,3.864,11.035,3.06,9.308,3.06
    	c-1.65,0-3.127,0.733-4.127,1.892C5.177,4.954,5.174,4.959,5.17,4.962C5.134,4.999,5.099,5.036,5.063,5.073
    	C5.056,5.081,5.049,5.088,5.041,5.096C4.333,5.863,3.898,6.887,3.898,8.011c0,2.371,1.929,4.3,4.3,4.3
    	c0.399,0,0.786-0.057,1.154-0.159c-1.294,0.587-2.892,0.523-4.148-0.227c-1.289-0.762-2.22-2.178-2.403-3.719
    	c-0.206-1.543,0.338-3.183,1.482-4.31C5.406,2.75,7.044,2.094,8.694,2.176z M11.055,8.139c-0.034-1.417-1.111-2.722-2.481-2.922
    	c-1.349-0.24-2.742,0.6-3.116,1.863c-0.19,0.618-0.133,1.293,0.14,1.857c0.273,0.56,0.747,1.016,1.326,1.231
    	c1.165,0.458,2.541-0.189,2.921-1.304c0.415-1.106-0.277-2.396-1.358-2.643C7.423,5.936,6.274,6.751,6.244,7.791
    	C6.208,8.292,6.421,8.786,6.771,9.106c0.351,0.333,0.861,0.467,1.31,0.37c0.452-0.089,0.84-0.39,1.028-0.794
    	c0.189-0.403,0.153-0.879-0.061-1.237c-0.208-0.359-0.601-0.604-1-0.617C7.648,6.808,7.264,7,7.042,7.303
    	C6.814,7.608,6.776,8.021,6.916,8.345c0.003,0.008,0.007,0.015,0.011,0.021c0.135,0.444,0.542,0.77,1.027,0.782
    	c-0.23,0.027-0.472-0.013-0.679-0.128C6.949,8.849,6.709,8.497,6.65,8.117C6.592,7.736,6.713,7.321,6.999,7.04
    	c0.279-0.289,0.692-0.456,1.106-0.424c0.415,0.028,0.811,0.245,1.062,0.601c0.255,0.347,0.357,0.809,0.268,1.241
    	C9.354,8.892,9.065,9.28,8.67,9.518c-0.39,0.238-0.885,0.318-1.34,0.2C6.875,9.605,6.472,9.294,6.221,8.874
    	C5.97,8.459,5.879,7.939,5.983,7.454c0.1-0.49,0.401-0.925,0.823-1.227C7.641,5.609,8.945,5.701,9.68,6.515
    	c0.774,0.77,0.929,2.119,0.284,3.06c-0.614,0.963-1.918,1.46-3.062,1.116C5.755,10.377,4.863,9.236,4.78,7.994
    	C4.731,7.375,4.871,6.736,5.188,6.19c0.313-0.545,0.81-1.003,1.382-1.304c1.148-0.616,2.671-0.52,3.744,0.297
    	c0.876,0.647,1.458,1.694,1.565,2.806c0,0.008,0.001,0.015,0.001,0.021c0,2.03-1.651,3.682-3.682,3.682
    	c-0.481,0-0.941-0.094-1.363-0.263c0.606,0.145,1.244,0.123,1.829-0.055c0.704-0.213,1.326-0.649,1.76-1.226
    	C10.857,9.568,11.089,8.845,11.055,8.139z M8,14.379c-3.517,0-6.378-2.861-6.378-6.379c0-3.352,2.599-6.106,5.888-6.357
    	C7.417,1.654,7.324,1.668,7.232,1.685C5.381,2.002,3.72,3.159,2.808,4.771c-0.916,1.611-0.974,3.633-0.21,5.269
    	c0.739,1.638,2.277,2.909,4.043,3.187c1.748,0.308,3.593-0.338,4.751-1.611c1.203-1.258,1.588-3.17,1.04-4.757
    	c-0.408-1.267-1.383-2.332-2.59-2.832c2.392,0.416,4.322,2.255,4.322,4.747c0,0.703-0.169,1.414-0.46,2.076
    	C12.656,12.939,10.494,14.379,8,14.379z"/>
        </symbol>
        <symbol id="portfolio">
            <title>portfolio</title>
            <path d="M13,6l-0.674-2H9.674L9,6H8l-2,6h6l2-6H13z M10.163,6L10.5,5h1l0.337,1H10.163z M6.326,4H3.674L3,6H2
    	l2,6h1l2-6L6.326,4z M4.163,6L4.5,5h1l0.337,1H4.163z"/>
        </symbol>
        <symbol id="previous">
            <title>previous</title>
            <polygon points="8,4.646 8.677,5.323 6,8 13,8 13,9 6,9 8.677,11.677 8,12.354 4.146,8.5 	"/>
        </symbol>
        <symbol id="print">
            <title>print</title>
            <path d="M2,6v6h2V9h8v3h2V6H2z M11,3H5v2h6V3z M11,11v-1H5v1c0,0.768,0.293,1.535,0.879,2.121L6.758,14h6
    	l-0.879-0.879C11.293,12.535,11,11.768,11,11z"/>
        </symbol>
        <symbol id="quote">
            <title>quote</title>
            <path d="M2,9h3c0,1.104-0.896,2-2,2v2c2.209,0,4-1.791,4-4V4H2V9z M9,4v5h3c0,1.104-0.896,2-2,2v2
    	c2.209,0,4-1.791,4-4V4H9z"/>
        </symbol>
        <symbol id="rating-empty">
            <title>rating-empty</title>
            <path d="M8,4.199L8.922,7h2.902L9.478,8.64l0.925,2.762L8,9.69L5.599,11.4L6.523,8.64L4.177,7h2.901L8,4.199
    	 M8,1L6.354,6H1l4.338,3.031L3.674,14L8,10.918L12.326,14l-1.663-4.969L15,6H9.646L8,1L8,1z"/>
        </symbol>
        <symbol id="rating-full">
            <title>rating-full</title>
            <polygon points="15,6 9.646,6 8,1 6.354,6 1,6 5.338,9.031 3.674,14 8,10.918 12.326,14 10.663,9.031"/>
        </symbol>
        <symbol id="rating-half">
            <title>rating-half</title>
            <path d="M15,6H9.646L8,1L6.354,6H1l4.338,3.031L3.674,14L8,10.918L12.326,14l-1.663-4.969L15,6z M8,9.69
    	V4.199L8.922,7h2.902L9.478,8.64l0.925,2.762L8,9.69z"/>
        </symbol>
        <symbol id="reddit">
            <title>reddit</title>
            <path
                d="M9.562,9.938c-0.297,0.297-0.805,0.438-1.57,0.438c-0.75,0-1.258-0.141-1.555-0.438c-0.156-0.156-0.406-0.156-0.562,0
    	s-0.156,0.414,0,0.57c0.445,0.445,1.141,0.672,2.133,0.672c0.977,0,1.672-0.227,2.117-0.672c0.156-0.156,0.156-0.414,0-0.57
    	S9.719,9.781,9.562,9.938z M6.992,8.328c0-0.484-0.391-0.875-0.875-0.875c-0.477,0-0.867,0.391-0.867,0.875
    	c0,0.477,0.391,0.875,0.867,0.875C6.602,9.203,6.992,8.805,6.992,8.328z M9.883,7.453c-0.484,0-0.875,0.391-0.875,0.875
    	c0,0.477,0.391,0.875,0.875,0.875s0.875-0.398,0.875-0.875C10.758,7.844,10.367,7.453,9.883,7.453z M13.266,7.492
    	c-0.25-0.398-0.602-0.766-1.023-1.078c0.141-0.18,0.344-0.305,0.594-0.305c0.422,0,0.766,0.344,0.766,0.766
    	C13.602,7.133,13.461,7.352,13.266,7.492z M7.977,12.086c-2.727,0-4.945-1.383-4.945-3.086S5.25,5.914,7.977,5.914
    	c2.719,0,4.938,1.383,4.938,3.094C12.914,10.703,10.695,12.086,7.977,12.086z M2.398,6.875c0-0.422,0.344-0.766,0.773-0.766
    	c0.234,0,0.43,0.109,0.57,0.281c-0.43,0.312-0.781,0.672-1.031,1.07C2.523,7.328,2.398,7.117,2.398,6.875z M12.5,1.898
    	c0.328,0,0.602,0.273,0.602,0.602S12.828,3.102,12.5,3.102S11.898,2.828,11.898,2.5S12.172,1.898,12.5,1.898z M14.398,6.875
    	c0-0.867-0.703-1.57-1.562-1.57c-0.531,0-0.992,0.266-1.273,0.672C10.695,5.5,9.625,5.195,8.461,5.133l0.602-3.016l2.047,0.469
    	c0.047,0.734,0.648,1.312,1.391,1.312c0.773,0,1.398-0.625,1.398-1.398S13.273,1.102,12.5,1.102c-0.516,0-0.969,0.289-1.211,0.703
    	L8.844,1.242C8.742,1.219,8.633,1.234,8.539,1.297c-0.094,0.055-0.156,0.148-0.18,0.258l-0.719,3.57
    	C6.43,5.172,5.32,5.477,4.422,5.953c-0.281-0.391-0.734-0.648-1.25-0.648c-0.867,0-1.57,0.703-1.57,1.57
    	c0,0.562,0.305,1.047,0.758,1.32C2.281,8.461,2.234,8.727,2.234,9.008c0,2.141,2.578,3.883,5.742,3.883S13.711,11.148,13.711,9
    	c0-0.266-0.039-0.523-0.109-0.773C14.07,7.953,14.398,7.461,14.398,6.875z"/>
        </symbol>
        <symbol id="refresh">
            <title>refresh</title>
            <path
                d="M3.775,3.775C2.688,4.859,2,6.343,2,8c0,2.972,2.164,5.433,5,5.91v-2.052C5.278,11.412,4,9.861,4,8
    	c0-1.105,0.458-2.095,1.185-2.815L7,7V2H2L3.775,3.775z M14,8c0-2.972-2.164-5.433-5-5.91v2.052C10.722,4.588,12,6.139,12,8
    	c0,1.105-0.458,2.095-1.185,2.815l-1.67-1.67C9.052,9.052,9,9,9,9v5h5c0,0-0.81-0.81-1.775-1.775C13.312,11.14,14,9.657,14,8z"/>
        </symbol>
        <symbol id="reply-alt">
            <title>reply-alt</title>
            <path d="M5,5.5V3L0,8l5,5v-2.5L2.5,8L5,5.5z M11,6H9V3L4,8l5,5v-3h2c1.023,0,2.047,0.391,2.828,1.172
    	L15,12.343V10C15,7.791,13.209,6,11,6z"/>
        </symbol>
        <symbol id="reply-single">
            <title>reply-single</title>
            <path d="M10,6H8V3L3,8l5,5v-3h2c1.023,0,2.047,0.391,2.828,1.172L14,12.343V10C14,7.791,12.209,6,10,6z"/>
        </symbol>
        <symbol id="reply">
            <title>reply</title>
            <polygon points="15,9.5 10,4.5 10,8 5,8 5,2.5 2,5.5 2,11 10,11 10,14.5"/>
        </symbol>
        <symbol id="rewind">
            <title>rewind</title>
            <polygon points="15,3 9,6.75 9,3 1,8 9,13 9,9.25 15,13"/>
        </symbol>
        <symbol id="rightarrow">
            <title>rightarrow</title>
            <polygon points="0,15 7.5,7.5 0,0 "/>
        </symbol>
        <symbol id="search">
            <title>search</title>
            <path
                d="M14,13l-3.866-3.866C10.673,8.393,11,7.487,11,6.5C11,4.015,8.985,2,6.5,2S2,4.015,2,6.5
		S4.015,11,6.5,11c0.987,0,1.893-0.327,2.634-0.866L13,14L14,13z M3,6.5C3,4.567,4.567,3,6.5,3C8.434,3,10,4.567,10,6.5
		S8.434,10,6.5,10C4.567,10,3,8.433,3,6.5z"/>
        </symbol>
        <symbol id="send-to-phone">
            <title>send-to-phone</title>
            <path d="M10,2H6C4.896,2,4,2.896,4,4v1h1V4h6v6H5V9H4v3c0,1.104,0.896,2,2,2h4c1.104,0,2-0.896,2-2V4
		C12,2.896,11.104,2,10,2z M8,13c-0.552,0-1-0.447-1-1s0.448-1,1-1c0.553,0,1,0.447,1,1S8.553,13,8,13z M6,9l3-2L6,5v1H2v2h4V9z"/>
        </symbol>
        <symbol id="send-to-tablet">
            <title>send-to-tablet</title>
            <path d="M5,9l3-2L5,5v1H1v2h4V9z M12,0H4C2.896,0,2,0.896,2,2v3h2V2h8v10H4V9H2v5c0,1.104,0.896,2,2,2h8
		c1.104,0,2-0.896,2-2V2C14,0.896,13.104,0,12,0z M8,15c-0.552,0-1-0.447-1-1s0.448-1,1-1c0.553,0,1,0.447,1,1S8.553,15,8,15z"/>
        </symbol>
        <symbol id="share">
            <title>share</title>
            <path
                d="M11,8c0,1.657-1.343,3-3,3c-0.828,0-1.563-0.351-2.105-0.895c-0.391-0.392-1.023-0.391-1.414,0
    	s-0.391,1.023,0,1.414l-0.005,0.005C5.379,12.431,6.619,13,8,13c2.05,0,3.806-1.235,4.578-3H15V8H11z M8,5
    	c0.829,0,1.563,0.351,2.105,0.895L10.11,5.89c0.391,0.391,1.023,0.391,1.414,0s0.391-1.023,0-1.414C10.621,3.57,9.382,3,8,3
    	C5.951,3,4.194,4.235,3.422,6H1v2h4C5,6.343,6.343,5,8,5z M6.5,8c0,0.829,0.672,1.5,1.5,1.5c0.829,0,1.5-0.671,1.5-1.5
    	S8.829,6.5,8,6.5C7.172,6.5,6.5,7.171,6.5,8z"/>
        </symbol>
        <symbol id="show">
            <title>show</title>
            <path
                d="M12.042,4.042C11.015,2.993,9.584,2.34,8,2.34c-1.585,0-3.016,0.653-4.043,1.703L0,8h0l3.957,3.956
		C4.984,13.007,6.416,13.659,8,13.659c1.583,0,3.015-0.652,4.042-1.701L16,8L12.042,4.042z M10.972,10.908
		c-0.79,0.807-1.846,1.251-2.971,1.251c-1.126,0-2.182-0.444-2.983-1.264L2.122,8l2.907-2.907C5.819,4.285,6.874,3.84,8,3.84
		c1.125,0,2.18,0.444,2.981,1.262L13.879,8L10.972,10.908z M11,8 M5,8c0,1.656,1.344,3,3,3s3-1.344,3-3c0-1.657-1.344-3-3-3
		S5,6.343,5,8 M6,7c0-0.552,0.447-1,1-1c0.552,0,1,0.448,1,1S7.552,8,7,8C6.447,8,6,7.552,6,7z"/>
        </symbol>
        <symbol id="shuffle">
            <title>shuffle</title>
            <path
                d="M13,10h-2c-1.104,0-2-0.896-2-2c0-2.209-1.791-4-4-4H2v2h3c1.104,0,2,0.896,2,2c0,2.209,1.791,4,4,4
    	h2v1l2-2l-2-2V10z M11,6h2v1l2-2l-2-2v1h-2c-0.843,0-1.622,0.263-2.267,0.708c0.447,0.506,0.786,1.1,1,1.756
    	C10.079,6.179,10.517,6,11,6z M5,10H2v2h3c0.843,0,1.622-0.264,2.267-0.708c-0.447-0.506-0.786-1.1-1-1.756
    	C5.921,9.821,5.483,10,5,10z"/>
        </symbol>
        <symbol id="sitemap">
            <title>sitemap</title>
            <path
                d="M14,11.277V10c0-1.657-1.344-3-3-3H9V4.723C9.596,4.376,10,3.738,10,3c0-1.104-0.896-2-2-2
    	S6,1.896,6,3c0,0.738,0.405,1.376,1,1.723V7H5c-1.657,0-3,1.343-3,3v1.277C1.405,11.624,1,12.262,1,13c0,1.104,0.896,2,2,2
    	s2-0.896,2-2c0-0.738-0.405-1.376-1-1.723V10c0-0.553,0.448-1,1-1h2v2.277C6.405,11.624,6,12.262,6,13c0,1.104,0.896,2,2,2
    	s2-0.896,2-2c0-0.738-0.404-1.376-1-1.723V9h2c0.553,0,1,0.447,1,1v1.277c-0.596,0.347-1,0.984-1,1.723c0,1.104,0.896,2,2,2
    	s2-0.896,2-2C15,12.262,14.596,11.624,14,11.277z M8,2c0.552,0,1,0.448,1,1S8.552,4,8,4S7,3.552,7,3S7.448,2,8,2z M3,14
    	c-0.552,0-1-0.447-1-1s0.448-1,1-1s1,0.447,1,1S3.552,14,3,14z M8,14c-0.552,0-1-0.447-1-1s0.448-1,1-1s1,0.447,1,1S8.552,14,8,14z
    	 M13,14c-0.553,0-1-0.447-1-1s0.447-1,1-1s1,0.447,1,1S13.553,14,13,14z"/>
        </symbol>
        <symbol id="skip-ahead">
            <title>skip-ahead</title>
            <path d="M2,13l8-5L2,3V13z M11,3v10h3V3H11z"/>
        </symbol>
        <symbol id="skip-back">
            <title>skip-back</title>
            <path d="M6,8l8,5V3L6,8z M2,13h3V3H2V13z"/>
        </symbol>
        <symbol id="skype">
            <title>skype</title>
            <path
                d="M14.506,9.484c0.101-0.453,0.153-0.927,0.153-1.412c0-3.635-2.947-6.583-6.583-6.583c-0.385,0-0.761,0.036-1.124,0.097
    	C6.362,1.214,5.667,1,4.919,1C2.811,1,1.101,2.71,1.101,4.818c0,0.704,0.192,1.365,0.524,1.929C1.538,7.176,1.49,7.617,1.49,8.072
    	c0,3.635,2.948,6.582,6.583,6.582c0.41,0,0.813-0.039,1.207-0.108C9.817,14.833,10.429,15,11.082,15
    	c2.107,0,3.817-1.711,3.817-3.818C14.902,10.569,14.759,9.997,14.506,9.484z M11.454,11.218c-0.308,0.433-0.752,0.773-1.341,1.015
    	c-0.575,0.24-1.268,0.361-2.055,0.361c-0.944,0-1.737-0.166-2.357-0.493c-0.441-0.24-0.81-0.564-1.084-0.962
    	c-0.281-0.403-0.421-0.807-0.421-1.189c0-0.242,0.092-0.451,0.276-0.622c0.18-0.172,0.412-0.253,0.686-0.253
    	c0.228,0,0.42,0.066,0.582,0.201c0.154,0.127,0.28,0.318,0.385,0.563c0.119,0.268,0.245,0.493,0.38,0.67
    	c0.127,0.17,0.314,0.315,0.551,0.424c0.236,0.113,0.56,0.169,0.958,0.169c0.542,0,0.989-0.116,1.326-0.343
    	c0.327-0.223,0.485-0.492,0.485-0.823c0-0.259-0.082-0.464-0.255-0.626C9.393,9.143,9.155,9.013,8.867,8.925
    	C8.566,8.833,8.164,8.732,7.662,8.628C6.979,8.482,6.397,8.309,5.938,8.112C5.466,7.91,5.084,7.631,4.81,7.286
    	C4.525,6.931,4.386,6.489,4.386,5.964c0-0.498,0.148-0.945,0.445-1.33c0.294-0.385,0.727-0.682,1.278-0.888
    	c0.546-0.202,1.193-0.305,1.933-0.305c0.586,0,1.101,0.069,1.537,0.2c0.431,0.136,0.798,0.32,1.086,0.543
    	c0.29,0.228,0.505,0.468,0.64,0.721c0.126,0.253,0.197,0.503,0.197,0.748c0,0.237-0.091,0.451-0.271,0.634
    	c-0.18,0.188-0.406,0.285-0.679,0.285c-0.245,0-0.434-0.061-0.562-0.175c-0.123-0.109-0.251-0.28-0.396-0.525
    	c-0.166-0.31-0.362-0.56-0.59-0.729c-0.22-0.167-0.591-0.255-1.098-0.255c-0.472,0-0.857,0.097-1.141,0.281
    	c-0.276,0.18-0.408,0.385-0.408,0.629c0,0.148,0.044,0.276,0.131,0.385C6.581,6.296,6.711,6.397,6.882,6.48
    	c0.175,0.087,0.35,0.158,0.53,0.206c0.183,0.053,0.49,0.127,0.91,0.224c0.533,0.113,1.024,0.24,1.457,0.38
    	c0.437,0.14,0.817,0.315,1.123,0.516c0.316,0.206,0.565,0.468,0.744,0.783c0.179,0.316,0.267,0.704,0.267,1.159
    	C11.912,10.291,11.758,10.784,11.454,11.218z"/>
        </symbol>
        <symbol id="spam">
            <title>spam</title>
            <path d="M11,2H5L2,5v6l3,3h6l3-3V5L11,2z M8,12c-0.552,0-1-0.447-1-1s0.448-1,1-1c0.553,0,1,0.447,1,1
		S8.553,12,8,12z M8.697,9H7.3L6.9,4h2.2L8.697,9z"/>
        </symbol>
        <symbol id="spotify">
            <title>spotify</title>
            <path
                d="M8,1C4.1,1,1,4.1,1,8c0,3.9,3.1,7,7,7c3.9,0,7-3.1,7-7C15,4.1,11.9,1,8,1z M10.8,11.3c-0.1,0-0.2,0-0.3-0.1
    	c-1-0.6-2.3-0.9-3.6-0.9c-0.7,0-1.5,0.1-2.2,0.2c-0.1,0-0.3,0.1-0.3,0.1c-0.3,0-0.4-0.2-0.4-0.4c0-0.3,0.2-0.4,0.4-0.5
    	C5.2,9.5,6,9.3,6.9,9.3c1.5,0,2.9,0.4,4.1,1.1c0.2,0.1,0.3,0.2,0.3,0.5C11.3,11.1,11.1,11.3,10.8,11.3z M11.6,9.5
    	c-0.2,0-0.2-0.1-0.4-0.1c-1.1-0.7-2.7-1.1-4.4-1.1c-0.9,0-1.7,0.1-2.3,0.3c-0.1,0-0.2,0.1-0.3,0.1C3.9,8.6,3.6,8.3,3.6,8
    	c0-0.3,0.1-0.5,0.4-0.6c0.8-0.2,1.6-0.4,2.8-0.4c1.8,0,3.6,0.5,5,1.3c0.2,0.1,0.3,0.3,0.3,0.6C12.1,9.2,11.9,9.5,11.6,9.5z
    	 M12.5,7.3c-0.1,0-0.2,0-0.4-0.1C10.8,6.4,8.9,6,7,6C6,6,5.1,6.1,4.2,6.3c-0.1,0-0.2,0.1-0.4,0.1c-0.4,0-0.7-0.3-0.7-0.7
    	c0-0.4,0.2-0.6,0.5-0.7c1-0.3,2.1-0.4,3.3-0.4c2.1,0,4.2,0.4,5.8,1.4c0.2,0.1,0.4,0.3,0.4,0.6C13.1,7,12.8,7.3,12.5,7.3z"/>
        </symbol>
        <symbol id="standard">
            <title>standard</title>
            <path d="M4,5v1h8V5H4z M9,7H4v1h5V7z M10,8h2V7h-2V8z M7,10h5V9H7V10z M6,9H4v1h2V9z M4,12h6v-1H4V12z"/>
        </symbol>
        <symbol id="star">
            <title>star</title>
            <polygon points="14,7.01 9.41,7.018 8,2.833 6.59,7.018 2,7.01 5.718,9.588 4.292,13.768 8,11.175
		11.708,13.768 10.282,9.588"/>
        </symbol>
        <symbol id="status">
            <title>status</title>
            <path d="M11,5c0-1.657-1.344-3-3-3C6.343,2,5,3.343,5,5c0,1.305,0.837,2.403,2,2.816V13l2-1V7.816
    	C10.162,7.403,11,6.305,11,5z"/>
        </symbol>
        <symbol id="stop">
            <title>stop</title>
            <rect height="8" width="8" x="4" y="4"/>
        </symbol>
        <symbol id="stumbleupon">
            <title>stumbleupon</title>
            <path
                d="M8.635,6.371l0.82,0.375l1.222-0.358V5.555C10.634,4.137,9.454,3,8,3
    	C6.551,3,5.375,4.129,5.323,5.539v3.806c0,0.344-0.284,0.623-0.635,0.623S4.053,9.688,4.053,9.345V7.731H2c0,0,0,1.616,0,1.634
    	C2,10.821,3.201,12,4.683,12c1.468,0,2.659-1.158,2.679-2.597l0.003-3.758c0-0.345,0.285-0.624,0.635-0.624s0.635,0.279,0.635,0.624
    	V6.371z M11.947,7.731v1.688c0,0.346-0.284,0.625-0.635,0.625c-0.352,0-0.636-0.279-0.636-0.625V7.764L9.455,8.122l-0.82-0.375V9.39
    	C8.648,10.833,9.844,12,11.317,12C12.799,12,14,10.821,14,9.365c0-0.018,0-1.634,0-1.634H11.947z"/>
        </symbol>
        <symbol id="subscribed">
            <title>subscribed</title>
            <polygon points="12,5 12,4 0,4 0,5 6,8 "/>
            <polygon points="0,6.5 0,12 8,12 8,8.5 6,9.5"/>
            <path d="M15,7h-5C9.447,7,9,7.448,9,8v5c0,0.553,0.447,1,1,1h5c0.553,0,1-0.447,1-1V8
        C16,7.448,15.553,7,15,7z M11.965,13l-2.121-2.121l0.707-0.707l1.414,1.414l2.828-2.828L15.5,9.465L11.965,13z"/>
        </symbol>
        <symbol id="subscribe">
            <title>subscribe</title>
            <path d="M12,5V4H0v1l6,3L12,5z M0,6.5V12h8V8.5l-2,1L0,6.5z M15,7h-5C9.447,7,9,7.448,9,8v5
    	c0,0.553,0.447,1,1,1h5c0.553,0,1-0.447,1-1V8C16,7.448,15.553,7,15,7z M15,11h-2v2h-1v-2h-2v-1h2V8h1v2h2V11z"/>
        </symbol>
        <symbol id="summary">
            <title>summary</title>
            <path
                d="M5.5,8C5.224,8,5,8.224,5,8.5S5.224,9,5.5,9S6,8.776,6,8.5S5.776,8,5.5,8z M5.5,6
    	C5.224,6,5,6.224,5,6.5S5.224,7,5.5,7S6,6.776,6,6.5S5.776,6,5.5,6z M5.5,10C5.224,10,5,10.224,5,10.5S5.224,11,5.5,11
    	S6,10.776,6,10.5S5.776,10,5.5,10z M7,9h3V8H7V9z M7,11h3v-1H7V11z M10,3c0-0.553-0.447-1-1-1H6C5.448,2,5,2.447,5,3H3v10h9V3H10z
    	 M6.5,3h2C8.776,3,9,3.224,9,3.5S8.776,4,8.5,4h-2C6.224,4,6,3.776,6,3.5S6.224,3,6.5,3z M11,12H4V4h1v1h5V4h1V12z M7,7h3V6H7V7z"/>
        </symbol>
        <symbol id="tablet">
            <title>tablet</title>
            <path d="M12,0H4C2.896,0,2,0.896,2,2v12c0,1.104,0.896,2,2,2h8c1.104,0,2-0.896,2-2V2C14,0.896,13.104,0,12,0
    	z M8,15c-0.552,0-1-0.447-1-1s0.448-1,1-1c0.553,0,1,0.447,1,1S8.553,15,8,15z M12,12H4V2h8V12z"/>
        </symbol>
        <symbol id="tag">
            <title>tag</title>
            <path d="M8,4l-6,6l4,4l6-6V4H8z M10,7C9.447,7,9,6.553,9,6s0.447-1,1-1s1,0.447,1,1S10.553,7,10,7z"/>
        </symbol>
        <symbol id="time">
            <title>time</title>
            <path
                d="M7.5,2C4.462,2,2,4.462,2,7.5C2,10.537,4.462,13,7.5,13c3.037,0,5.5-2.463,5.5-5.5C13,4.462,10.537,2,7.5,2z M7.5,12
		C5.015,12,3,9.985,3,7.5S5.015,3,7.5,3C9.984,3,12,5.015,12,7.5S9.984,12,7.5,12z M8,4H7v3.707l2.621,2.621l0.707-0.707L8,7.293V4z
		"/>
        </symbol>
        <symbol id="top">
            <title>top</title>
            <path d="M3,12h10L8,7L3,12z M3,5v1h10V5H3z"/>
        </symbol>
        <symbol id="trash">
            <title>trash</title>
            <path d="M10,4c0-0.553-0.447-1-1-1H6C5.448,3,5,3.447,5,4L3,5v1h1h1h1h1h1h1h1h1h1V5L10,4z M8.5,5h-2C6.224,5,6,4.776,6,4.5
        S6.224,4,6.5,4h2C8.776,4,9,4.224,9,4.5S8.776,5,8.5,5z"/>
            <path d="M10,6.5V12H9V6.5H8V12H7V6.5H6V12H5V6.5H4V12c0,0.553,0.448,1,1,1h5c0.553,0,1-0.447,1-1V6.5H10z"/>
        </symbol>
        <symbol id="tumblr">
            <title>tumblr</title>
            <path
                d="M8.525,1v3.539h3.322v2.197H8.525v3.59c0,0.812,0.043,1.333,0.13,1.564
        c0.085,0.229,0.246,0.413,0.479,0.551c0.31,0.186,0.663,0.279,1.062,0.279c0.708,0,1.413-0.23,2.115-0.691v2.208
        c-0.599,0.281-1.141,0.479-1.625,0.593C10.202,14.943,9.678,15,9.114,15c-0.64,0-1.206-0.081-1.698-0.242
        c-0.492-0.161-0.911-0.393-1.258-0.691c-0.348-0.299-0.588-0.617-0.722-0.954c-0.134-0.337-0.201-0.825-0.201-1.465V6.736H3.688
        V4.755c0.55-0.179,1.021-0.435,1.413-0.769c0.393-0.333,0.707-0.733,0.944-1.202C6.282,2.317,6.445,1.723,6.535,1H8.525z"/>
        </symbol>
        <symbol id="twitch">
            <title>twitch</title>
            <path d="M8,4.653H6.783v3.651H8V4.653z M11,4.653H9.783v3.651H11V4.653z M2.525,1L1,3.435V13h4v2h1.785
        l1.825-2h2.738L15,9.522V1H2.525z M13.783,8.913l-2.132,2.13H8.306l-1.824,1.651v-1.651H3.74V2.217h10.043V8.913z"/>
        </symbol>
        <symbol id="twitter">
            <title>twitter</title>
            <path
                d="M15,3.627c-0.515,0.229-1.068,0.383-1.649,0.452c0.592-0.355,1.048-0.918,1.262-1.589
    	c-0.554,0.329-1.169,0.568-1.822,0.697c-0.524-0.558-1.271-0.907-2.098-0.907c-1.586,0-2.872,1.286-2.872,2.872
    	c0,0.225,0.026,0.444,0.075,0.654c-2.387-0.12-4.504-1.263-5.921-3.001C1.728,3.229,1.586,3.724,1.586,4.25
    	c0,0.996,0.506,1.875,1.277,2.39C2.393,6.625,1.95,6.496,1.562,6.281c0,0.013,0,0.024,0,0.037c0,1.392,0.989,2.552,2.304,2.816
    	C3.625,9.199,3.372,9.234,3.11,9.234c-0.186,0-0.365-0.02-0.541-0.051c0.366,1.142,1.427,1.971,2.683,1.993
    	c-0.982,0.771-2.222,1.23-3.566,1.23c-0.232,0-0.461-0.014-0.686-0.041c1.271,0.816,2.78,1.291,4.402,1.291
    	c5.284,0,8.174-4.377,8.174-8.172c0-0.124-0.004-0.248-0.01-0.371C14.127,4.708,14.615,4.203,15,3.627z"/>
        </symbol>
        <symbol id="unapprove">
            <title>unapprove</title>
            <path
                d="M8,2C4.687,2,2,4.687,2,8s2.687,6,6,6s6-2.687,6-6S11.313,2,8,2z M12,8
		c0,0.74-0.215,1.426-0.565,2.021L5.979,4.566C6.574,4.215,7.259,4,8,4C10.209,4,12,5.791,12,8z M4,8c0-0.74,0.215-1.425,0.565-2.02
		l5.455,5.455C9.425,11.785,8.74,12,8,12C5.791,12,4,10.209,4,8z"/>
        </symbol>
        <symbol id="unsubscribe">
            <title>unsubscribe</title>
            <path d="M12,5V4H0v1l6,3L12,5z M0,6.5V12h8V8.5l-2,1L0,6.5z M15,7h-5C9.447,7,9,7.448,9,8v5
        c0,0.553,0.447,1,1,1h5c0.553,0,1-0.447,1-1V8C16,7.448,15.553,7,15,7z M15,11h-5v-1h5V11z"/>
        </symbol>
        <symbol id="unzoom">
            <title>unzoom</title>
            <path
                d="M10.134,9.134C10.673,8.393,11,7.487,11,6.5C11,4.015,8.985,2,6.5,2S2,4.015,2,6.5S4.015,11,6.5,11
    	c0.987,0,1.893-0.327,2.634-0.866L13,14l1-1L10.134,9.134z M6.5,10C4.567,10,3,8.433,3,6.5S4.567,3,6.5,3C8.434,3,10,4.567,10,6.5
    	S8.434,10,6.5,10z M4,7h5V6H4V7z"/>
        </symbol>
        <symbol id="uparrow">
            <title>uparrow</title>
            <polygon points="16,16 8.5,8.501 1,16 "/>
        </symbol>
        <symbol id="user">
            <title>user</title>
            <path d="M8,7c1.104,0,2-0.896,2-2S9.104,3,8,3S6,3.896,6,5S6.896,7,8,7z M9,8H7c-1.656,0-3,1.343-3,3v2h8v-2
		C12,9.343,10.656,8,9,8z"/>
        </symbol>
        <symbol id="videocamera">
            <title>videocamera</title>
            <path d="M11,7V5c0-0.552-0.447-1-1-1H3C2.448,4,2,4.448,2,5v6c0,0.553,0.448,1,1,1h7c0.553,0,1-0.447,1-1V9
    	l3,3V4L11,7z"/>
        </symbol>
        <symbol id="video">
            <title>video</title>
            <polygon points="4,3 4,13 13,8"/>
        </symbol>
        <symbol id="vimeo">
            <title>vimeo</title>
            <path
                d="M12.959,2.001C11.02,1.939,9.704,3.023,9.016,5.257c0.355-0.15,0.701-0.228,1.037-0.228
		c0.712,0,1.025,0.397,0.942,1.189c-0.042,0.479-0.356,1.178-0.942,2.095C9.465,9.23,9.025,9.689,8.732,9.689
		c-0.377,0-0.723-0.706-1.037-2.12C7.589,7.154,7.401,6.094,7.129,4.389C6.877,2.81,6.207,2.071,5.117,2.175
		C4.656,2.217,3.964,2.632,3.043,3.421C2.372,4.023,1.691,4.625,1,5.227l0.659,0.841c0.627-0.436,0.994-0.653,1.099-0.653
		c0.48,0,0.93,0.747,1.349,2.239c0.376,1.369,0.753,2.737,1.13,4.106C5.8,13.253,6.491,14,7.307,14
		c1.317,0,2.928-1.227,4.831-3.678c1.841-2.348,2.793-4.196,2.855-5.547C15.076,2.968,14.398,2.043,12.959,2.001z"/>
        </symbol>
        <symbol id="warning">
            <title>warning</title>
            <path
                d="M15.594,11.297L9.66,1.633c-0.913-1.487-2.407-1.487-3.32,0l-5.934,9.664
    	C-0.508,12.783,0.174,14,1.918,14h12.164C15.826,14,16.508,12.783,15.594,11.297z M8,12c-0.552,0-1-0.447-1-1s0.448-1,1-1
    	c0.553,0,1,0.447,1,1S8.553,12,8,12z M8.697,9H7.3L6.9,4h2.2L8.697,9z"/>
        </symbol>
        <symbol id="website">
            <title>website</title>
            <path
                d="M8,2C4.687,2,2,4.687,2,8s2.687,6,6,6s6-2.687,6-6S11.313,2,8,2z M3.72,5.527l0.283,0.081
    	L3.767,5.629L3.63,5.678L3.595,5.686c0.034-0.064,0.067-0.128,0.103-0.19L3.72,5.527z M8,13c-0.155,0-0.301-0.032-0.453-0.046
    	l0.26-0.207l0.015-0.129l-0.134-0.183l0.282,0.04l0.312-0.71l0.392-0.241l0.216-0.532l0.178-0.511l-0.01-0.448L8.813,9.879
    	L8.438,9.848l-0.37-0.079l0.065-0.13L7.872,9.713l0.064-0.381L7.871,9.289L7.598,9.138L7.219,8.875L6.69,8.706L6.536,8.652
    	L6.422,8.841l0.019-0.209L6.133,8.77L5.665,8.878L5.56,8.927L5.716,9l0.117-0.085l0.065,0.037L5.839,9.434l-0.11,0.414l-0.06,0.129
    	l0.083,0.218L6,10.635l0.526,0.514l0.087,0.491l0.075,1.075l0.032,0.099C4.585,12.244,3,10.312,3,8c0-0.498,0.095-0.969,0.231-1.423
    	L3.44,6.939l0.002,0.281l0.04,0.179L3.56,7.496l0.039,0.13l0.064,0.08l0.005-0.134L3.61,7.056l0.041,0.127l0.173,0.369L4.214,8.17
    	l0.34,0.142l0.307,0.074l0.316-0.204l0.116-0.34l-0.447,0.24L4.614,7.829l0.051-0.34l0.385-0.31l0.3,0.002L5.711,7.18l0.185,0.371
    	L5.959,7.35l0.202-0.464l0.256-0.209l0.076-0.183l0.2-0.158l0.273-0.151l0.111-0.129L7.321,5.94l0.203-0.044L7.398,6.043
    	l0.359-0.146L7.669,5.841L7.563,5.721l0.041-0.134L7.27,5.679l0.428-0.168l0.584-0.149l-0.16-0.157L8.042,4.774L7.816,4.854
    	L7.745,4.71L7.487,4.579L7.229,4.756L7.077,5.052L6.814,5.321L6.6,5.102l-0.3-0.141L6.193,4.844l0.431-0.33l0.282-0.163l0.584-0.193
    	L7.118,4.192L7.032,4.014l-0.22-0.023L6.768,4.132L6.534,4.189L6.162,4.142L5.89,4.203L5.64,4.139L5.267,4.043L4.968,4.052
    	C5.812,3.402,6.855,3,8,3c0.563,0,1.096,0.114,1.602,0.287L9.369,3.3l-0.54,0.132l-0.251,0.06l0.173,0.134L9.11,3.778l0.097,0.17
    	L9.075,4.203l0.049,0.466l0.468-0.226l0.604-0.268l0.468-0.081l0.062-0.07L10.56,4.004l0.036-0.073l0.257,0.041l-0.159-0.139
    	l0.034-0.014c0.602,0.394,1.106,0.914,1.49,1.521l-0.113,0.091l-0.316,0.172l-0.161,0.065l0.188,0.208l-0.067,0.171l-0.363-0.021
    	l-0.104,0.197L11.261,6.54l0.184,0.072l0.396-0.091l0.203-0.274l0.186-0.166l0.226-0.021l0.105-0.052l0.043,0.04
    	c0.12,0.284,0.212,0.583,0.278,0.891l-0.189-0.082L12.49,6.569l-0.519,0.056l-0.216,0.075l-0.295-0.003L11.172,6.97l-0.102,0.2
    	l-0.146,0.162L10.82,7.434l-0.178,0.274L10.604,7.85L10.56,7.909l-0.007,0.424l0.006,0.254l0.305,0.418l0.312,0.227l0.412-0.024
    	l0.436-0.165l0.184,0.155l0.198,0.059l0.271,0.197l-0.117,0.397l0.051,0.082C11.852,11.733,10.071,13,8,13z"/>
        </symbol>
        <symbol id="week">
            <title>week</title>
            <path
                d="M8.999,6.473c0-0.003,0-0.007,0-0.01c0-0.005-0.001-0.01-0.001-0.016v0
    	C8.972,6.21,8.783,6.023,8.546,6.002H8.544C8.537,6.001,8.53,6.001,8.522,6h-0.01C8.508,6,8.504,6,8.5,6h-2C6.224,6,6,6.224,6,6.5
    	S6.224,7,6.5,7h1.36l-0.845,3.379c-0.067,0.268,0.096,0.539,0.364,0.606c0.268,0.066,0.539-0.097,0.606-0.364l1-4
    	C8.995,6.581,9,6.54,9,6.5V6.498c0-0.005,0-0.009,0-0.014C9,6.48,9,6.477,8.999,6.473z M11,3V2h-1v1H5V2H4v1H2v10h11V3H11z M12,11
    	c0,0.553-0.447,1-1,1H4c-0.552,0-1-0.447-1-1V6c0-0.553,0.448-1,1-1h7c0.553,0,1,0.447,1,1V11z"/>
        </symbol>
        <symbol id="wordpress">
            <title>wordpress</title>
            <path
                d="M8,1C4.14,1,1,4.14,1,8c0,3.859,3.14,7,7,7c3.859,0,7-3.141,7-7C15,4.14,11.859,1,8,1z M1.707,8
    	c0-0.913,0.196-1.779,0.545-2.562l3.002,8.226C3.154,12.644,1.707,10.491,1.707,8z M8,14.293c-0.618,0-1.214-0.09-1.778-0.256
    	l1.89-5.487l1.934,5.299c0.013,0.032,0.028,0.061,0.045,0.088C9.436,14.167,8.733,14.293,8,14.293z M8.867,5.049
    	c0.38-0.02,0.721-0.06,0.721-0.06c0.339-0.04,0.299-0.539-0.04-0.519c0,0-1.02,0.08-1.678,0.08c-0.619,0-1.658-0.08-1.658-0.08
    	c-0.339-0.02-0.378,0.499-0.04,0.519c0,0,0.321,0.04,0.66,0.06l0.98,2.687l-1.377,4.13L4.145,5.049c0.378-0.02,0.72-0.06,0.72-0.06
    	C5.203,4.949,5.163,4.45,4.824,4.47c0,0-1.019,0.08-1.677,0.08c-0.118,0-0.257-0.002-0.405-0.007C3.867,2.834,5.801,1.707,8,1.707
    	c1.639,0,3.13,0.626,4.25,1.652c-0.027-0.002-0.054-0.005-0.082-0.005c-0.617,0-1.056,0.538-1.056,1.117
    	c0,0.519,0.299,0.958,0.617,1.477c0.239,0.418,0.519,0.957,0.519,1.735c0,0.539-0.206,1.164-0.479,2.035l-0.628,2.098L8.867,5.049z
    	 M13.522,4.98c0.491,0.896,0.771,1.925,0.771,3.02c0,2.321-1.258,4.349-3.129,5.439l1.923-5.558
    	c0.358-0.897,0.479-1.615,0.479-2.254C13.565,5.396,13.55,5.181,13.522,4.98z"/>
        </symbol>
        <symbol id="xpost">
            <title>xpost</title>
            <path
                d="M13,4c0-1.104-0.896-2-2-2S9,2.896,9,4c0,0.738,0.404,1.376,1,1.723V7c0,1.104-0.896,2-2,2
    	C7.268,9,6.59,9.211,6,9.555V5.723C6.595,5.376,7,4.738,7,4c0-1.104-0.896-2-2-2S3,2.896,3,4c0,0.738,0.405,1.376,1,1.723V14h2v-1
    	c0-1.104,0.896-2,2-2c2.209,0,4-1.791,4-4V5.723C12.596,5.376,13,4.738,13,4z M5,3c0.552,0,1,0.448,1,1S5.552,5,5,5S4,4.552,4,4
    	S4.448,3,5,3z M11,5c-0.553,0-1-0.448-1-1s0.447-1,1-1s1,0.448,1,1S11.553,5,11,5z"/>
        </symbol>
        <symbol id="youtube">
            <title>youtube</title>
            <path d="M12,3H4C2.343,3,1,4.343,1,6v4c0,1.657,1.343,3,3,3h8c1.656,0,3-1.343,3-3V6C15,4.343,13.656,3,12,3z
    	 M6,11V5l5,3L6,11z"/>
        </symbol>
        <symbol id="zoom">
            <title>zoom</title>
            <path
                d="M7,4H6v2H4v1h2v2h1V7h2V6H7V4z M10.134,9.134C10.673,8.393,11,7.487,11,6.5C11,4.015,8.985,2,6.5,2
    	S2,4.015,2,6.5S4.015,11,6.5,11c0.987,0,1.893-0.327,2.634-0.866L13,14l1-1L10.134,9.134z M6.5,10C4.567,10,3,8.433,3,6.5
    	S4.567,3,6.5,3C8.434,3,10,4.567,10,6.5S8.434,10,6.5,10z"/>
        </symbol>
    </defs>
</svg>
