<?xml version="1.0" encoding="UTF-8" standalone="no"?>
<svg xmlns:rdf="http://www.w3.org/1999/02/22-rdf-syntax-ns#" xmlns="http://www.w3.org/2000/svg" version="1.0" xmlns:cc="http://creativecommons.org/ns#" xmlns:dc="http://purl.org/dc/elements/1.1/" viewBox="0 0 361.35037 513.7146">
<path d="m180.67957 0c-40.0746 0-72.56055 32.487909-72.56055 72.562503 0 40.073377 32.48595 72.562497 72.56055 72.562497 40.07337 0 72.56054-32.48912 72.56054-72.562497 0-40.074594-32.48717-72.562503-72.56054-72.562503zm-44.04883 156.33398c-13.68271 0-22.30365 4.97667-30.18164 12.79883l-97.128906 97.31446c-26.544838 26.54848 9.3758103 60.52848 35.87695 34.02734l58.660156-59.04883v55.38477h76.70312 0.0723 76.17188v-55.68946l60.19726 60.32422c24.23971 25.53126 61.13087-8.77343 35.85938-34.04492l-98.11524-98.26758c-8.10741-7.97389-17.33683-12.79883-31.01953-12.79883h-43.09375-0.0723-43.92968zm-32.76172 169.19922s-49.032536 49.08528-49.085936 49.13868c-15.78026 15.78027-11.70958 43.52454 3.00977 58.54492l68.583976 71.3125c26.46836 26.46836 61.77798-10.13953 36.18359-35.73633l-43.36718-43.36523 42.32226-42.24415-57.64648-57.65039zm152.61914 0-57.64648 57.65039 42.32226 42.24415-43.36523 43.36523c-25.59438 25.5968 9.71328 62.20469 36.18164 35.73633l68.58593-71.3125c14.71935-15.02038 18.78809-42.76465 3.00782-58.54492-0.0534-0.0534-49.08594-49.13868-49.08594-49.13868z"/>
</svg>
