<?xml version="1.0" encoding="UTF-8" standalone="no"?>
<svg xmlns:rdf="http://www.w3.org/1999/02/22-rdf-syntax-ns#" xmlns="http://www.w3.org/2000/svg" version="1.0" xmlns:cc="http://creativecommons.org/ns#" xmlns:dc="http://purl.org/dc/elements/1.1/" viewBox="0 0 537.11176 421.36725">
<path opacity=".9" d="m527.80219 233.7179c-0.48529 0.0407-0.96695 0.12451-1.4375 0.25l-150.125 36.78125c-3.34121 0.82744-5.98179 3.94332-6.25 7.375l-10.53125 134.34375c-0.20848 2.66076 0.95557 5.38481 3.03125 7.0625s5.00463 2.26184 7.5625 1.5l138.40625-40.875c2.94641-0.86617 5.29415-3.50422 5.8125-6.53125l22.1875-130.25c0.42465-2.44876-0.34106-5.08691-2-6.9375-1.65894-1.85058-4.17581-2.87423-6.65625-2.71875zm-55.34375 43.1875c4.16129-0.0518 7.62431 0.56682 10.375 1.875 6.28711 2.99034 10.04402 9.0023 11.21875 18.0625l-30.96875 13.40625c-0.29409-3.48785-1.52026-5.80946-3.6875-6.96875-2.16743-1.15909-5.35449-1.11646-9.5625 0.15625-5.31274 1.60698-9.95398 4.91911-13.9375 9.9375-3.98362 5.01852-6.68257 11.62213-8.09375 19.78125-1.25768 7.27116-0.60849 12.27466 2 15.0625 2.6084 2.78794 6.45024 3.43365 11.5 1.90625 4.20799-1.27275 7.95833-3.48217 11.21875-6.625 3.26028-3.14274 6.01368-7.28998 8.25-12.4375l29.875-5.5625c-2.84497 7.22524-6.62312 13.86397-11.3125 19.9375-4.68957 6.0736-10.24696 11.38072-16.6875 15.90625-6.44067 4.52547-14.2324 8.15328-23.4375 10.9375-8.88959 2.68879-16.13484 4.0523-21.75 4.09375-5.61522 0.0415-10.22867-1.21934-13.8125-3.84375-3.58391-2.62433-6.14864-6.2089-7.65625-10.75-1.50763-4.54106-1.50763-11.19186 0-19.90625 1.57442-9.10271 4.35165-17.09022 8.34375-24.03125 2.92462-5.09259 6.56195-9.97077 10.90625-14.625 4.34426-4.65408 8.66354-8.46102 12.90625-11.375 6.72987-4.61292 14.96617-8.41565 24.75-11.375 7.69283-2.32676 14.21227-3.4959 19.5625-3.5625z"/>
<path opacity=".9" d="m153.48969 47.905396c-2.27628-0.0446-4.55062 0.88663-6.125 2.53125-1.57439 1.64462-2.42509 3.97783-2.28125 6.25l9.34375 148.34375c0.18507 2.96826 2.10735 5.76429 4.8125 7l123.84375 56.65625c2.48702 1.13403 5.53492 0.93184 7.84375-0.53125 2.30883-1.46308 3.8073-4.14188 3.84375-6.875l2.34375-160.625c0.0501-3.492564-2.36827-6.881004-5.6875-7.968754l-135.5-44.375c-0.78606-0.25638-1.61078-0.39383-2.4375-0.40625zm37.375 55.843754c2.56726-0.0582 5.75916 0.40333 9.59375 1.375 5.11273 1.29567 10.6895 3.27402 16.6875 5.96875 9.62826 4.32594 17.35748 8.42626 23.25 12.28125 5.89237 3.85515 10.87812 8.59705 14.9375 14.25 2.85066 3.93186 5.1797 8.71111 6.96875 14.375 1.78886 5.66396 2.77723 10.77697 2.96875 15.28125l1.78125 42.21875c0.1913 4.50428 0.61031 8.1917 1.21875 10.96875 0.6082 2.77699 1.83534 6.49843 3.6875 11.21875l-30.15625-13.53125c-1.31484-3.00612-2.17065-5.23084-2.59375-6.6875-0.42325-1.45683-0.88937-3.66558-1.375-6.59375-4.01263 2.73334-8.05279 4.13558-12.125 4.25-5.57003 0.0895-12.10128-1.5259-19.625-4.90625-9.99665-4.49134-17.71799-10.54278-23.125-18.15625-5.40705-7.61351-8.26455-15.31505-8.59375-23.0625-0.3088-7.26697 1.30723-12.40007 4.84375-15.40625 3.5365-3.00611 10.26647-3.38904 20.21875-1.15625 11.93113 2.65063 19.65693 4.22243 23.1875 4.71875 3.53047 0.49641 7.26536 0.75524 11.1875 0.75-0.19146-4.50427-1.13622-8.02795-2.84375-10.5625-1.70766-2.53448-4.61492-4.71863-8.71875-6.5625-5.26141-2.36382-9.16975-3.17736-11.71875-2.4375-1.98818 0.57958-3.53839 2.64214-4.625 6.21875l-30.84375-17.5c0.89718-5.60575 2.34082-9.65505 4.375-12.1875 2.03418-2.53227 5.06834-4.16751 9.0625-4.90625 0.71681-0.13447 1.51925-0.19935 2.375-0.21875zm22.25 64.53125c-2.02342 0.0503-3.45398 0.36662-4.28125 0.9375-1.70469 1.17819-2.48223 3.0401-2.375 5.5625 0.12245 2.88277 1.09705 5.62637 2.9375 8.25 1.84035 2.62368 4.45506 4.71348 7.875 6.25 3.5777 1.60743 6.88125 2.09901 9.875 1.5 2.99363-0.59914 5.05086-2.03894 6.21875-4.3125 1.16775-2.27361 1.66265-5.68561 1.46875-10.25l-0.25-5.84375c-4.34305-0.18392-8.86466-0.69897-13.59375-1.46875-3.21997-0.47464-5.85158-0.67531-7.875-0.625z"/>
<path opacity=".75" d="m440.10971 158.96736c-0.60744 0.002-1.21463 0.0715-1.80689 0.2065l-43.98501 10.01537-6.84424 17.95006-48.92074 36.15987-9.48977 14.39723 42.43624 47.18579c1.99028 2.19986 5.22505 3.18884 8.10522 2.47803l151.26299-37.37693c2.92586-0.73167 5.34936-3.19071 6.03836-6.12692 0.689-2.9362-0.3877-6.21658-2.6827-8.17337l-88.79602-74.80548c-1.47769-1.22928-3.3953-1.91813-5.31744-1.91015z"/>
<path opacity=".75" d="m97.153067 144.41992c-1.91591-0.0224-3.83259 0.64755-5.31744 1.85852l-87.608631 71.29495c-2.354223 1.91725-3.502227 5.20388-2.853728 8.16997 0.648498 2.96608 3.063356 5.47374 6.00289 6.23357l145.48092 36.80905c2.82348 0.70907 5.99717-0.21232 8.00197-2.32315l41.24885-43.159-15.95231-7.22758-23.77787-15.75483-10.14015-43.97599-53.432493-11.71901c-0.54185-0.12418-1.09626-0.19348-1.65201-0.2065z"/>
<path opacity=".6" stroke-linejoin="round" d="m395.14901 45.640946-106.30201 54.903214-1.75223 161.20524 97.54086-67.16885 10.51338-148.9396z" stroke="#fff" stroke-linecap="round" stroke-width="16.520189"/>
<path opacity=".6" d="m339.91541 226.17921-45.90613 30.77984-2.32315 65.86795c-0.0805 1.8914 0.51393 3.80461 1.65202 5.31743l67.78441 89.36391c2.00793 2.64714 5.71344 3.8692 8.90218 2.93591s5.65058-3.96043 5.91436-7.27246l10.53162-133.14241c0.17592-2.2608-0.62946-4.58109-2.16827-6.2467l-44.38704-47.60347z"/>
<path opacity=".9" d="m7.8021867 215.7179c-2.326622 0.13332-4.589116 1.29437-6.03125 3.125-1.442134 1.83062-2.040076 4.30057-1.625 6.59375l23.34375 129.65625c0.543838 3.03831 2.933761 5.66849 5.90625 6.5l134.34375 37.375c2.55318 0.7176 5.45311 0.1239 7.5-1.5625 2.04689-1.68639 3.18456-4.41919 2.96875-7.0625l-10.53125-130.25c-0.27672-3.41286-2.89812-6.50849-6.21875-7.34375l-147.1875-36.8125c-0.8057083-0.19628-1.6410833-0.2703-2.4687503-0.21875zm21.46875 29.625 33.53125 7.75 6.4375 34.28125c2.778022-2.11643 6.117255-3.40556 10.0625-3.875 3.9452-0.46935 8.4813-0.11514 13.59375 1.0625 10.551063 2.43064 19.854133 7.56726 27.937503 15.4375 8.08318 7.87029 13.23697 17.6895 15.4375 29.4375 1.46686 7.83201 1.16227 14.38763-0.875 19.625-2.03749 5.23735-5.57138 8.6796-10.59375 10.34375-5.02258 1.66402-10.92041 1.72234-17.71875 0.15625-5.81951-1.34059-11.334293-3.62691-16.562503-6.8125-3.94749-2.45979-8.46256-6.39781-13.59375-11.84375l1.96875 10.59375-31.09375-7.15625-18.53125-99zm52.65625 56.90625c-2.30704 0.0849-4.19574 0.77476-5.65625 2.09375-2.336849 2.1105-2.99138 5.99858-1.9375 11.625 1.154984 6.16661 3.399277 10.93033 6.71875 14.34375 3.3194 3.41346 7.1096 5.63523 11.40625 6.625 3.9702 0.9146 7.03659 0.29053 9.218753-1.8125 2.18204-2.10302 2.70552-6.34458 1.5-12.78125-1.06235-5.67145-3.14612-10.1429-6.281253-13.40625-3.13526-3.2633-6.62233-5.32297-10.375-6.1875-1.69281-0.38995-3.20953-0.55096-4.59375-0.5z"/>
<path opacity=".75" d="m264.31578 8.2600108-109.66044 46.580155 134.19166 45.11992 105.13385-55.3413-129.66507-36.358775z"/>
<path opacity=".6" d="m187.13648 216.48925-37.58344 38.51269c-1.64732 1.68654-2.51749 4.10367-2.32315 6.4532l11.0995 130.25138c0.28624 3.28715 2.73596 6.27965 5.90183 7.20948 3.16586 0.92984 6.84474-0.26266 8.86309-2.87293l65.97751-85.85337c1.14165-1.45868 1.77121-3.3103 1.75527-5.16256l-0.87763-64.63524-52.81298-23.90265z"/>
<path d="m264.09516 0.00304783a8.2609207 8.2609207 0 0 0 -3.00781 0.654297l-109.66211 46.580081a8.2609207 8.2609207 0 0 0 -3.23438 2.46484 8.2609207 8.2609207 0 0 0 -3.09375 6.97071l6.26758 99.480474-52.560553-11.52735a8.260921 8.260921 0 0 0 -1.65039 -0.20703 8.260921 8.260921 0 0 0 -5.31836 1.85938l-85.628903 69.68554a8.2609207 8.2609207 0 0 0 -6.076172 9.46289l23.363281 129.66407a8.2609207 8.2609207 0 0 0 5.914063 6.49414l134.33789 37.38086a8.2609207 8.2609207 0 0 0 2.73828 0.27539 8.260921 8.260921 0 0 0 6.61133 -3.19922l65.97656-85.85156a8.260921 8.260921 0 0 0 1.75586 -5.16407l-0.76172-56.02734 41.76563 19.10938a8.2609207 8.2609207 0 0 0 9.94726 0.44335l1.86719-1.28515-1.95898 55.56054c-0.0805 1.8914 0.5123 3.80359 1.65039 5.31641l66.625 87.83399a8.2609207 8.2609207 0 0 0 10.07422 5.05468l138.42773-40.88476a8.2609207 8.2609207 0 0 0 5.80273 -6.53516l21.73047-127.53125c0.40865-0.69293 0.72399-1.43956 0.90821-2.22461 0.689-2.9362-0.38666-6.21704-2.68164-8.17383l-88.79688-74.80468c-1.47769-1.22928-3.39622-1.91814-5.31836-1.91016-0.60744 0.002-1.21438 0.0701-1.80664 0.20508l-43.58398 9.8789 8.66992-122.83007a8.2609207 8.2609207 0 0 0 -3.42774 -7.28516 8.2609207 8.2609207 0 0 0 -3.75 -2.27148l-129.66406-36.359387a8.2609207 8.2609207 0 0 0 -2.45117 -0.302735zm0.7793 16.994148 106.90429 29.97461-83.65039 44.03125-110.22851-37.0625 86.97461-36.94336zm121 42.73047-9.19922 130.30468-81.14649 55.88086 1.52344-140.31054 88.82227-45.875004zm-223.52344 8.07031 118.14844 38.703124-2.06446 141.88477-107.8164-49.33008-8.26758-131.25781zm-63.183603 93.865234 53.275393 11.63086 2 31.73438a8.2609207 8.2609207 0 0 0 4.80665 6.99218l21.41406 9.79883-28.34961 29.64258-37.19141-9.29883-87.714844-22.16406 71.759761-58.33594zm338.77344 14.54688 73.08985 61.5-130.5293 31.99609-35.34766-37.9082 44.16602-30.41406a8.2609207 8.2609207 0 0 0 3.55469 -6.22266l0.625-8.85938 44.4414-10.09179zm-240.42773 53.31836 25.92578 11.86328 0.8164 61.00195-51.26367 66.64844-8.98437-105.21289 33.50586-34.30078zm-178.85938 5.54687 80.76172 20.18945 48.287113 12.2168 9.07422 112.39649l-117.94532-32.81836-20.177733-111.98438zm312.77539 6.17188 36.65235 39.27343 1.55273 1.98243-4.89258 62.50195-3.56836 45.24414-52.86328-69.69336 2.27149-64.95117 20.84765-14.35742zm186.60547 11.90625-19.18945 112.60742-121.97656 36.02734 2.7539-35.17968 6.39258-80.83204 132.01953-32.62304z"/>
</svg>
