<?xml version="1.0" encoding="UTF-8" standalone="no"?>
<svg xmlns:rdf="http://www.w3.org/1999/02/22-rdf-syntax-ns#" xmlns="http://www.w3.org/2000/svg" height="478.10217" width="458.27148" version="1.0" xmlns:cc="http://creativecommons.org/ns#" xmlns:dc="http://purl.org/dc/elements/1.1/" viewBox="0 0 458.27149 478.10217">
<path opacity=".75" d="m225.87305 0a15.394957 15.394957 0 0 0 -14 9.59375l-39.59375 93.71875h33.4375l21.9375-51.9375 22 51.9375h33.4375l-39.71875-93.71875a15.394957 15.394957 0 0 0 -15.8125 -9.5 15.394957 15.394957 0 0 0 -1.6875 -0.09375zm-160.90625 377.3125-32.65625 79a15.394957 15.394957 0 1 0 28.4375 11.75l37.5-90.75h-33.28125zm290.03125 0 6.09375 9.875 33.375 80.875a15.399125 15.399125 0 1 0 28.46875 -11.75l-32.65625-79h-35.28125z"/>
<path d="m10.261719 93.058594a10.263305 10.263305 0 0 0 -10.261719 10.261716v273.98633a10.263305 10.263305 0 0 0 10.261719 10.26367h437.74805a10.263305 10.263305 0 0 0 10.26172 -10.26367v-273.98633a10.263305 10.263305 0 0 0 -10.26172 -10.261716h-437.74805zm24.095703 72.076176h40.285155c6.70504 12.19548 13.43021 24.37877 20.12109 36.58203 7.697253-12.19907 15.411263-24.38721 23.115243-36.58203h40.51953c-13.8083 21.30392-27.61928 42.60506-41.42578 63.91015 14.93851 23.80192 29.81088 47.64675 44.77344 71.4336h-39.96875c-8.76273-14.33012-17.75037-28.52087-26.462893-42.88282-8.528 14.31236-17.08086 28.60934-25.67383 42.88282h-38.867189c14.010939-23.40841 28.083669-46.78218 42.056639-70.2129-9.6424-16.41861-19.37177-32.80285-29.06055-49.18359l-9.412105-15.94726zm271.90821 0h37.13281c8.90512 26.3422 17.76173 52.70196 26.69922 79.0332 8.37096-26.34522 16.76797-52.68293 25.12305-79.0332h37.56639l-38.82616 107.89648c-7.88329 16.10376-9.09918 34.43566-15.86915 50.91602-8.50945 22.51405-35.94869 33.90928-58.59571 26.22656-1.90194-7.70081-1.70918-17.25008-2.83593-25.63477-3.01158-8.18267 3.06423-5.22004 8.19141-4.37109 11.30327 2.73428 27.82565-1.42272 29.53321-14.76758-12.59393-44.50359-30.28197-87.67649-45.12696-131.60156l-2.99218-8.66406zm-90.49219 5.04101h33.23633v45.24414h45.28516v32.80274h-45.28516v45.87695h-33.23633v-45.87695h-45.28516v-32.80274h23.86329c6.50899-1.47169 19.03551 3.07478 21.42187-2.51953v-42.72461z"/>
</svg>
