<?xml version="1.0" encoding="UTF-8" standalone="no"?>
<svg xmlns:rdf="http://www.w3.org/1999/02/22-rdf-syntax-ns#" xmlns="http://www.w3.org/2000/svg" height="370.90805" width="544.94537" version="1.0" xmlns:cc="http://creativecommons.org/ns#" xmlns:dc="http://purl.org/dc/elements/1.1/" viewBox="0 0 544.94538 370.90805">
<path d="m253.52987 0.00379506a5.0005 5.0005 0 0 0 -2.4414 0.5293l-248.33203 124.71484a5.0005 5.0005 0 0 0 2.177734 9.46875l309.48633 4.15039a5.0005 5.0005 0 0 0 2.37695 -0.5664l225.46094-117.55274a5.0005 5.0005 0 0 0 -2.11523 -9.42969l-286.61329-11.314455zm192.31055 88.1582a5.0005 5.0005 0 0 0 -2.1875 0.60352l-123.32031 67.132815-185.64453-5.29297a5.0005 5.0005 0 0 0 -4.87891 3.39453l-26.83203 79.28125a5.0005 5.0005 0 0 0 5.79102 6.49024c2.26759-0.49012 2.82082-1.03144 4.73437-1.93945s4.4128-2.11764 7.50195-3.53711c6.1783-2.83896 14.69589-6.51362 25.17969-10.12696 20.96761-7.22667 49.7694-14.18513 83.1875-13.62304 16.70398 0.28095 45.0471 7.00596 68.7168 13.74023 23.66969 6.73427 42.89648 13.39258 42.89648 13.39258a5.0005 5.0005 0 0 0 5.41406 -1.44727s35.81436-40.8878 61.80665-57.03515c12.50288-7.76725 34.85713-13.89385 53.76757-17.70703 18.91044-3.81319 34.42578-5.5254 34.42578-5.5254a5.0005 5.0005 0 0 0 3.24219 -8.23242l-49.81054-57.835935a5.0005 5.0005 0 0 0 -3.99024 -1.73243zm-331.14453 61.441415-30.031251 0.4375c-4.1904 6.98455-7.208762 15.75451-10.4375 26.1875-4.652567 15.0338-8.589858 33.04796-10.90625 51-2.209529 17.12384-3.857263 31.89861-5.091797 44.44531-14.25051 2.2775-25.409288 14.23289-26.455078 28.8418a5.0005 5.0005 0 0 0 -0.01953 0.0527 5.0005 5.0005 0 0 0 -0.126953 0.48243 5.0005 5.0005 0 0 0 -0.08008 0.49414 5.0005 5.0005 0 0 0 -0.0059 0.0664l-4.285156 53.22266a5.0005 5.0005 0 0 0 0.683594 2.875 5.0005 5.0005 0 0 0 0.591797 0.80469 5.0005 5.0005 0 0 0 0.738281 0.66992 5.0005 5.0005 0 0 0 0.859375 0.51172 5.0005 5.0005 0 0 0 0.46289 0.1875 5.0005 5.0005 0 0 0 1.466797 0.27929 5.0005 5.0005 0 0 0 0.5 -0.008 5.0005 5.0005 0 0 0 0.498047 -0.0566 5.0005 5.0005 0 0 0 0.488281 -0.10547 5.0005 5.0005 0 0 0 0.47461 -0.15234 5.0005 5.0005 0 0 0 2.59375 -2.24414 5.0005 5.0005 0 0 0 0.220703 -0.44727 5.0005 5.0005 0 0 0 0.21875 -0.63281l-0.195313 2.42578a5.0005 5.0005 0 0 0 0.685547 2.875 5.0005 5.0005 0 0 0 0.591797 0.80469 5.0005 5.0005 0 0 0 0.738281 0.67187 5.0005 5.0005 0 0 0 0.857422 0.50977 5.0005 5.0005 0 0 0 0.462891 0.18945 5.0005 5.0005 0 0 0 1.46875 0.27735 5.0005 5.0005 0 0 0 0.5 -0.006 5.0005 5.0005 0 0 0 0.496094 -0.0566 5.0005 5.0005 0 0 0 0.490234 -0.10547 5.0005 5.0005 0 0 0 0.474609 -0.1543 5.0005 5.0005 0 0 0 1.173828 -0.64258 5.0005 5.0005 0 0 0 0.455079 1.25781 5.0005 5.0005 0 0 0 0.255859 0.42969 5.0005 5.0005 0 0 0 1.001953 1.10938 5.0005 5.0005 0 0 0 0.832031 0.55273 5.0005 5.0005 0 0 0 0.925782 0.375 5.0005 5.0005 0 0 0 0.980468 0.18359 5.0005 5.0005 0 0 0 2.441407 -0.40429 5.0005 5.0005 0 0 0 0.447265 -0.22461 5.0005 5.0005 0 0 0 0.421875 -0.26758 5.0005 5.0005 0 0 0 0.392578 -0.30664 5.0005 5.0005 0 0 0 0.361329 -0.3457 5.0005 5.0005 0 0 0 0.851562 -1.22852 5.0005 5.0005 0 0 0 0.197266 -0.45898 5.0005 5.0005 0 0 0 0.167968 -0.54102l1.298828-5.57422c0.06243 0.0142 0.126667 0.0237 0.189454 0.0371l-1.226563 5.26563a5.0005 5.0005 0 0 0 -0.115234 0.99218 5.0005 5.0005 0 0 0 0.576172 2.40625 5.0005 5.0005 0 0 0 0.255859 0.42969 5.0005 5.0005 0 0 0 1.001953 1.10938 5.0005 5.0005 0 0 0 0.832031 0.55273 5.0005 5.0005 0 0 0 0.925782 0.375 5.0005 5.0005 0 0 0 0.980468 0.18359 5.0005 5.0005 0 0 0 2.441407 -0.40429 5.0005 5.0005 0 0 0 0.447265 -0.22461 5.0005 5.0005 0 0 0 0.421875 -0.26758 5.0005 5.0005 0 0 0 0.392578 -0.30664 5.0005 5.0005 0 0 0 0.361329 -0.3457 5.0005 5.0005 0 0 0 0.808593 -1.15039 5.0005 5.0005 0 0 0 0.08203 0.48242 5.0005 5.0005 0 0 0 0.134766 0.48242 5.0005 5.0005 0 0 0 0.984375 1.72461 5.0005 5.0005 0 0 0 0.347656 0.35937 5.0005 5.0005 0 0 0 0.794922 0.60547 5.0005 5.0005 0 0 0 0.4375 0.24024 5.0005 5.0005 0 0 0 0.9375 0.34375 5.0005 5.0005 0 0 0 1.488281 0.15039 5.0005 5.0005 0 0 0 0.496094 -0.0488 5.0005 5.0005 0 0 0 0.96875 -0.24609 5.0005 5.0005 0 0 0 0.898438 -0.43164 5.0005 5.0005 0 0 0 0.796875 -0.60352 5.0005 5.0005 0 0 0 0.347656 -0.35938 5.0005 5.0005 0 0 0 0.582031 -0.81054 5.0005 5.0005 0 0 0 0.429688 -0.97461l8.394538-27.64063c0.90111-1.53012 1.76568-3.09916 2.58984-4.70117 5.74727-11.17159 9.81445-22.89444 9.81445-32.32812 0-11.94349-6.7698-22.40251-16.654297-27.73243 1.230521-12.59174 2.893007-27.57313 5.171877-45.23437 2.1652-16.7803 5.90533-33.92028 10.15625-47.65625s10.177531-24.52167 11.687501-26c3.53733-3.46321 6.61602-5.20164 8.625-6.09375 0.44788-0.19889 0.78068-0.32356 1.0625-0.4375zm-47.960939 206.83789-0.466796 1.5332 0.34375-1.47656c0.04061-0.0197 0.08261-0.0367 0.123046-0.0566z"/>
</svg>
