<?xml version="1.0" encoding="UTF-8" standalone="no"?>
<svg xmlns="http://www.w3.org/2000/svg" version="1.0" viewBox="0 0 521.99219 385.96875">
<path d="m231.42578 0-28.76757 0.128907v385.77539h136.28125l-87.58594-372.64062c-3.26766-7.752678-11.02176-13.263676-19.92774-13.263676zm-231.42578 32.035165v35.04687h178.95117v-35.04687zm0 53.18164v35.046865h178.95117v-35.046865zm0 53.177725v34.91992h178.95117v-34.91992zm0 53.05078v35.04883h178.95117v-35.04883zm0 53.24414v35.04688h178.95117v-35.04688zm403.13867 49.01563c-7.24011 0-13.96825 1.60114-20.11914 4.48437-5.89461 2.62695-12.55719 4.23047-19.54101 4.23047-6.91976 0-13.52022-1.60352-19.54297-4.23047l7.17773 31.78125c3.97245 1.08922 8.1365 1.60157 12.36524 1.60157 7.0479 0 13.6464-1.47462 19.54101-4.10157 6.08681-2.88323 12.87903-4.48437 20.11914-4.48437 7.17604 0 13.9038 1.60114 20.05469 4.48437 5.89461 2.62695 12.62128 4.10157 19.54102 4.10157 6.91976 0 13.52022-1.47462 19.54297-4.10157 6.02275-2.88323 12.94272-4.48437 20.05468-4.48437 7.11197 0 13.96629 1.60114 20.11719 4.48437 5.8946 2.62695 12.55914 4.10157 19.54297 4.10157v-29.15235c-7.0479 0-13.64837-1.60352-19.54297-4.23047-6.08683-2.88323-12.94114-4.48437-20.11719-4.48437-7.17603 0-14.03193 1.60114-20.05468 4.48437-6.02275 2.62695-12.62321 4.23047-19.54297 4.23047-6.91974 0-13.64641-1.60352-19.54102-4.23047-6.15089-2.88323-12.94272-4.48437-20.05469-4.48437zm-403.13867 4.16601v35.04688h178.95117v-35.04688zm403.13867 49.58985c-7.24011 0-13.96825 1.60308-20.11914 4.48633-5.89461 2.62696-12.55719 4.22852-19.54101 4.22852-2.62695 0-5.25391-0.25696-7.88086-0.76953l6.72656 29.92187h1.1543c7.0479 0 13.6464-1.47462 19.54101-4.10156 6.08681-2.88323 12.87903-4.48437 20.11914-4.48437 7.17604 0 13.9038 1.60114 20.05469 4.48437 5.89461 2.62694 12.62128 4.10156 19.54102 4.10156 6.91976 0 13.52022-1.47462 19.54297-4.10156 6.02275-2.88323 12.94272-4.48437 20.05468-4.48437 7.11197 0 13.96629 1.60114 20.11719 4.48437 5.8946 2.62694 12.55914 4.10156 19.54297 4.10156v-29.15234c-7.0479 0-13.64837-1.60156-19.54297-4.22851-6.08683-2.88325-12.94114-4.48633-20.11719-4.48633-7.17603 0-14.03193 1.60308-20.05468 4.48633-6.02275 2.62695-12.62321 4.22851-19.54297 4.22851-6.91974 0-13.64641-1.60156-19.54102-4.22851-6.15089-2.88325-12.94272-4.48633-20.05469-4.48634zm-403.13867 3.46093v35.04688h178.95117v-35.04688z"/>
</svg>
