<?xml version="1.0" encoding="UTF-8" standalone="no"?>
<svg xmlns="http://www.w3.org/2000/svg" version="1.0" viewBox="0 0 508.95703 343.59332">
<path d="m71.457027 0.01130999c-22.544364 0.48558-43.57564 15.11797-65.3125 15-0.209808-0.005-0.41528-0.0237-0.625-0.0312v43.625c22.240383-0.13504 43.756463-15.47358 66.9375-15 23.44843 0.64019 48.815303 16.91337 71.781253 18.03125 22.65836 0.61862 46.53922-13.62893 63.15625-13.75 8.93013-0.0735 15.52357 3.11103 21.29102 6.40234 3.35239 2.95177 6.90459 6.3534 10.58398 10.42383 5.4828 17.66839 1.73412 42.61914 8.42773 62.46094 7.27785 19.4899 11.44842 27.60578 18.70899 47.59766 0.313 0.88045 5.27711 12.84968 7.40039 18.16601-0.096-0.009-0.19013-0.01-0.28711-0.0195v43.71875c0.40337 0.0285 0.81332 0.0451 1.21875 0.0625 21.16268 0.74556 43.00554-12.62271 65.65625-11.59375 22.33727 0.93646 44.71025 16.76797 67.53125 17.3125 22.43815 0.11817 44.06307-15.47396 67.4375-15 10.92376 0.26166 22.26914 3.98713 33.59375 8v-44.03125c-10.91701-3.81786-21.84664-7.27505-32.375-7.5625-23.37449-0.47218-45.06186 15.18069-67.5 15.0625-22.82106-0.54273-45.16278-16.37424-67.5-17.3125-0.7077-0.0373-1.38757-0.0842-2.09375-0.0937-0.6841-0.009-1.34851-0.0152-2.03125 0-6.11803 0.1363-12.18149 1.23488-18.19336 2.69141-0.79987-3.74457-2.05752-8.201-3.88867-13.58985-7.26055-19.9919-18.90572-37.18393-26.18359-56.67383-6.69361-19.84178 2.39434-42.65946-3.0879-60.32617-3.11005-11.01961-7.86941-18.44993-13.1289-23.54883-1.1912-2.34558-6.06068-6.57999-18.14258-13.86523-13.96893-9.87582-30.05205-12.11015-46.28125-11.8125-16.61883 0.12095-40.4354 14.36862-63.09375 13.75-22.96596-1.11788-48.364063-17.45357-71.812503-18.09375-0.73045-0.0148-1.46026-0.0157-2.1875 0zm273.65625 269.875c-21.89129-0.29547-43.0924 12.34726-63.59375 11.625-0.8101-0.038-1.60417-0.10752-2.40625-0.1875v43.71875c0.40337 0.0285 0.81332 0.0763 1.21875 0.0937 21.16268 0.74557 43.0368-12.65395 65.6875-11.625 22.33727 0.93647 44.67899 16.76797 67.5 17.3125 22.43815 0.11817 44.09432-15.47395 67.46875-15 9.11534 0.21834 18.52347 2.86553 27.96875 6.0625v-44c-9.0369-2.99128-18.02651-5.41808-26.75-5.65625-23.37449-0.47219-45.06187 15.1807-67.5 15.0625-22.82106-0.54272-45.16278-16.37424-67.5-17.3125-0.7077-0.0373-1.38757-0.0842-2.09375-0.0937z"/>
<path opacity=".75" d="m169.6875 81.17147c-1.30524-0.0168-2.63236-0.0107-3.98242 0.0156-16.06678 0.31367-35.39748 3.64374-59.28321 8.62305-21.084593-0.0232-74.506333 0.70136-101.05468 1.43359a5.5208085 5.5208085 0 0 0 -5.36719 5.51758v241.3125a5.5208085 5.5208085 0 0 0 5.519531 5.51953h237.43164a5.5208085 5.5208085 0 0 0 5.50977 -5.87109c-7.83146-122.7212-9.11214-189.75683-26.29102-225.55664-8.58944-17.89991-22.41475-27.73209-41.30664-30.22657-3.54223-0.4677-7.26007-0.71707-11.17578-0.76757z"/>
</svg>
