<?xml version="1.0" encoding="UTF-8" standalone="no"?>
<svg xmlns:rdf="http://www.w3.org/1999/02/22-rdf-syntax-ns#" xmlns="http://www.w3.org/2000/svg" version="1.0" xmlns:cc="http://creativecommons.org/ns#" xmlns:dc="http://purl.org/dc/elements/1.1/" viewBox="0 0 576.44501 577.45154">
<path d="m64.571 0.06355556c-41.335 0-64.571 21.371-64.571 65.036v450.123c0 40.844 20.895 62.229 62.192 62.229h452.024c41.307 0 62.229-20.315 62.229-62.229v-450.123c0-42.601-20.922-65.036-63.521-65.036-0.004 0-448.495-0.143-448.353 0z"/>
<path opacity=".5" fill="#fff" d="m285.87714 84.892876v0.0625h10.25v-0.0625h-10.25zm10.25-17.9375v24.90625c10.49994 0.65635 18.53899 3.15635 24.09375 7.46875 5.55461 4.312594 9.15616 10.218844 10.84375 17.718754l-26.15625 4.125c-1.31255-3.32805-2.47662-5.61711-3.53125-6.90625-1.05474-1.28898-2.81256-2.59366-5.25-3.90625v20.3125c14.24994 3.79693 23.78117 7.81256 28.5625 12.03125 6.32804 5.67193 9.46866 12.87504 9.46875 21.59375-0.00008 5.1094-1.1329 9.7969-3.40625 14.0625-2.27352 4.26564-5.17977 7.82814-8.71875 10.6875-3.53914 2.85938-7.29695 4.92969-11.28125 6.21875-3.98443 1.28906-8.85944 2.04688-14.625 2.28125v13.28125h-10.25v-13.28125c-6.89066-0.60938-12.49222-1.72656-16.78125-3.34375-4.28909-1.61718-7.97658-3.85937-11.09375-6.71875-3.1172-2.85937-5.53126-5.9453-7.21875-9.25-1.68751-3.30467-2.96876-7.28122-3.8125-11.96875l28.40625-3.3125c0.84373 4.64065 2.00777 8.00003 3.4375 10.0625 1.42966 2.06252 3.78121 3.87502 7.0625 5.46875v-24.8125c-9.46878-2.62495-16.19534-4.89058-20.15625-6.8125-3.96096-1.92182-7.40627-5.00776-10.3125-9.25-2.90625-4.24213-4.34376-9.40618-4.34375-15.5-0.00001-8.34367 2.91405-15.33585 8.75-20.9375 5.83591-5.601464 14.53122-8.703034 26.0625-9.312504v-24.90625h-197.84375v157.8125h403.8125v-157.8125h-195.71875zm-10.25 43.062504c-3.00004 0.98446-5.10941 2.20321-6.28125 3.65625-1.1719 1.45321-1.75004 3.15633-1.75 5.125-0.00003 2.06258 0.61715 3.85164 1.8125 5.375 1.19528 1.52351 3.26559 2.81257 6.21875 3.84375v-18zm10.25 46.6875v22.5c3.98432-0.89061 6.89838-2.36717 8.75-4.40625 1.8515-2.03904 2.78118-4.31247 2.78125-6.84375-0.00006-2.20309-0.7735-4.24216-2.34375-6.09375-1.57037-1.85153-4.64069-3.56246-9.1875-5.15625z"/>
<path fill="#fff" d="m83.462016 60.533837a5.0005 5.0005 0 0 0 -5 5v164.2461a5.0005 5.0005 0 0 0 5 5h298.87109c-16.81573 14.57446-27.4668 36.07512-27.4668 60.05664 0 43.86023 35.60853 79.46876 79.46875 79.46875 43.86022 0 79.46875-35.60851 79.46875-79.46875 0-23.99227-10.66971-45.48896-27.50195-60.05664h8.78125a5.0005 5.0005 0 0 0 5 -5v-164.2461a5.0005 5.0005 0 0 0 -5 -5h-411.62109zm5 10h401.62109v154.2461h-18.28906c-11.16419-5.98061-23.91591-9.38087-37.45899-9.38086-0.68532 0-1.38132-0.0173-2.0625 0-12.78612 0.3243-24.81276 3.69476-35.41406 9.38086h-308.39648v-154.2461zm350.59179 171.49024c8.95305 0.00009 18.03117 2.40635 27.21875 7.1875l-6.3125 25.53125c-6.37508-5.85931-13.03132-8.81242-19.96875-8.8125-9.09381 0.00007-15.25005 4.09383-18.4375 12.25h25.3125l-3.03125 12.78125h-24.75c-0.0938 0.93754-0.12504 2.31255-0.125 4.09375v3.71875h26.15625l-3.03125 12.8125h-21.3125c2.76557 8.76564 8.76557 13.12502 18 13.125 10.12492 0.00001 19.59366-3.28123 28.40625-9.84375v26.25c-7.31259 5.01561-16.1407 7.49999-26.5 7.5-16.73442-0.00002-29.10941-3.79687-37.125-11.4375-8.01564-7.64062-12.90626-16.17185-14.6875-25.59375h-12.71875l3.375-12.8125h7.71875c-0.0938-0.70306-0.12501-1.93745-0.125-3.71875-0.00001-1.87494 0.0312-3.24995 0.125-4.09375h-9.34375l3.3125-12.78125h7.65625c6.09373-24.09365 22.81246-36.15615 50.1875-36.15625zm-284.45508 37.42187c-42.91414 1.08845-77.40625 36.26261-77.40625 79.4375 0 43.86023 35.60853 79.46876 79.46875 79.46875 43.86022 0 79.46875-35.60851 79.46875-79.46875 0-43.86022-35.60852-79.43751-79.46875-79.4375-0.68532 0-1.38132-0.0173-2.0625 0zm0.84375 20.625c8.06244 0.00009 14.44524 0.91416 19.15625 2.71875 4.71086 1.80478 8.67961 4.80478 11.9375 9 3.25773 4.19539 5.49991 9.26571 6.71875 15.21875l-26.84375 4.21875c-1.35944-5.01553-2.92975-8.32804-4.6875-9.96875-1.75787-1.64055-3.75005-2.46866-6-2.46875-2.7188 0.0001-4.93755 0.87508-6.625 2.65625-1.68755 1.78132-2.5313 4.31258-2.53125 7.59375-0.00005 1.73444 0.17184 3.41413 0.5 5.03125 0.32808 1.61724 1.45308 5.43757 3.375 11.4375h21.3125v16.8125h-18.84375c-0.23442 3.9844-0.9688 7.56254-2.1875 10.75-0.98442 2.43754-2.60942 4.96878-4.90625 7.59375 2.62495-0.60934 4.87495-0.90623 6.75-0.90625 2.39057 0.00001 5.49995 0.46877 9.34375 1.40625 5.24994 1.21876 9.45306 1.81253 12.59375 1.8125 2.57805 0.00004 4.78899-0.21091 6.6875-0.65625 1.89836-0.44527 4.40617-1.37497 7.5-2.78125l9.5625 20.9375c-4.64071 2.34374-8.70321 3.98437-12.21875 4.875-3.51571 0.89061-7.31258 1.31249-11.34375 1.3125-4.40632-0.00002-9.42194-0.76562-15.09375-2.3125-7.45318-2.06248-12.0938-3.26563-13.875-3.59375-1.78129-0.32813-3.68754-0.46875-5.75-0.46875-6.0469-0.00001-12.71878 2.10937-20.03125 6.375l-9.09375-19.96875c9.84373-7.07811 14.78123-14.14059 14.78125-21.21875-0.00002-0.37495-0.0625-1.42184-0.15625-3.15625h-14.625v-16.8125h10.5c-1.78127-6.18742-2.79689-9.76556-3.03125-10.75-0.28126-1.49994-0.43752-3.3593-0.4375-5.5625-0.00002-5.85928 1.57029-11.1171 4.6875-15.78125 3.11716-4.66395 7.22653-8.04678 12.3125-10.15625 5.0859-2.10928 11.93746-3.1874 20.5625-3.1875zm161.47852 78.66211c-42.91415 1.08846-77.40625 36.26261-77.40625 79.4375 0 43.86024 35.60853 79.46876 79.46875 79.46875 43.86021-0.00003 79.46875-35.60851 79.46875-79.46875-0.00001-43.86021-35.60852-79.43751-79.46875-79.4375-0.68533 0.00001-1.38132-0.0173-2.0625 0zm-46.71875 34h32.125l16.125 35 15.875-35h32.21875l-24.5625 44.4375h20.90625v15.53125h-29.625v8.5h29.625v15.75h-29.625v18.84375h-29.25v-18.84375h-30.09375v-15.75h30.09375v-8.5h-30.09375v-15.53125h21.53125l-25.25-44.4375z"/>
</svg>
