<?xml version="1.0" encoding="UTF-8" standalone="no"?>
<svg xmlns:rdf="http://www.w3.org/1999/02/22-rdf-syntax-ns#" xmlns="http://www.w3.org/2000/svg" version="1.0" xmlns:cc="http://creativecommons.org/ns#" xmlns:dc="http://purl.org/dc/elements/1.1/" viewBox="0 0 576.44501 577.45154">
<path d="m64.571 0.06355556c-41.335 0-64.571 21.371-64.571 65.036v450.123c0 40.844 20.895 62.229 62.192 62.229h452.024c41.307 0 62.229-20.315 62.229-62.229v-450.123c0-42.601-20.922-65.036-63.521-65.036-0.004 0-448.495-0.143-448.353 0z"/>
<path opacity=".75" style="color:#000000;block-progression:tb;text-decoration-line:none;text-transform:none;text-indent:0" fill="#fff" d="m287.171 44.795556a15.394957 15.394957 0 0 0 -14 9.59375l-39.59375 93.718754h33.4375l21.9375-51.937504 22 51.937504h33.4375l-39.71875-93.718754a15.394957 15.394957 0 0 0 -15.8125 -9.5 15.394957 15.394957 0 0 0 -1.6875 -0.09375zm-160.90625 377.3125-32.65625 79a15.394957 15.394957 0 1 0 28.4375 11.75l37.5-90.75h-33.28125zm290.03125 0 6.09375 9.875 33.375 80.875a15.399125 15.399125 0 1 0 28.46875 -11.75l-32.65625-79h-35.28125z"/>
<path fill="#fff" d="m71.559672 137.85415a10.263305 10.263305 0 0 0 -10.261719 10.26172v273.98633a10.263305 10.263305 0 0 0 10.261719 10.26367h437.74805a10.263305 10.263305 0 0 0 10.26172 -10.26367v-273.98633a10.263305 10.263305 0 0 0 -10.26172 -10.26172h-437.74805zm95.351558 80.32618c1.69835 0.0412 3.34687 0.99781 4.22657 2.45117l15.65234 25.88281 0.24414 0.36719c4.78146 6.64604 7.56889 13.56104 11.30274 17.64258 89.82523-0.87913 179.62769-1.76933 269.45507-2.63477 0.0837-0.005 0.16259 0.004 0.2461 0 16.92664-0.82745 30.13203 14.31093 29.74219 30.44727h0.0293c0.005 0.0932-0.004 0.18237 0 0.27539-0.002 0.0718 0.003 0.14309 0 0.21484h-0.0293c0.5794 16.08438-12.60875 30.50193-29.03907 30.50781-0.0715 0.002-0.14143 0.002-0.21289 0-65.13349-2.59913-130.20404-6.36399-195.23828-9.40429-0.0102-0.00038-0.0211 0.0004-0.0312 0-25.28242-0.95992-50.58503-3.00229-75.35156-3.33789-10.12741 12.78879-19.26602 27.15885-29.37305 40.89257-1.13787 1.56225-3.22065 2.37219-5.11523 1.99024l-73.697319-14.73438c-2.310209-0.46827-4.121032-2.72725-4.074219-5.08398l0.367188-21.01172c0.04789-2.64171 2.473136-5.00836 5.115234-4.99219 17.206486 0.025 34.424546 1.04048 50.939456 0.55078 4.28276-6.4769 8.32975-13.39795 11.70117-20.24804-3.0979-6.98411-6.98289-14.08828-11.02734-20.67383-16.99259-1.05278-34.57739-0.65011-52.195317-1.22656-2.641712-0.0793-4.97847-2.53333-4.929687-5.17579l0.367187-23.0039c0.04312-2.3123 1.862707-4.46877 4.134766-4.90039l75.687501-14.70313c0.36278-0.0706 0.73406-0.10158 1.10351-0.0918zm302.25977 64.8457c-0.22207-0.002-0.44801 0.0109-0.67383 0.0293-0.13226 0.0154-0.26537 0.0263-0.39844 0.0312-6.21112 0.0169-11.03827 7.0329-8.91406 12.86523 0.0345 0.11122 0.065 0.22263 0.0918 0.33594 2.00971 6.95647 13.27749 8.55081 17.12305 2.38867 0.0946-0.1481 0.19722-0.29022 0.30664-0.42774 4.31272-5.51819-0.65101-15.16258-7.53516-15.22265z"/>
</svg>
