<?xml version="1.0" encoding="UTF-8" standalone="no"?>
<svg xmlns:rdf="http://www.w3.org/1999/02/22-rdf-syntax-ns#" xmlns="http://www.w3.org/2000/svg" version="1.0" xmlns:cc="http://creativecommons.org/ns#" xmlns:dc="http://purl.org/dc/elements/1.1/" viewBox="0 0 576.44501 577.45154">
<path d="m64.571 0.06355556c-41.335 0-64.571 21.371-64.571 65.036v450.123c0 40.844 20.895 62.229 62.192 62.229h452.024c41.307 0 62.229-20.315 62.229-62.229v-450.123c0-42.601-20.922-65.036-63.521-65.036-0.004 0-448.495-0.143-448.353 0z"/>
<path opacity=".75" style="color:#000000;block-progression:tb;text-decoration-line:none;text-transform:none;text-indent:0" fill="#fff" d="m287.171 44.795556a15.394957 15.394957 0 0 0 -14 9.59375l-39.59375 93.718754h33.4375l21.9375-51.937504 22 51.937504h33.4375l-39.71875-93.718754a15.394957 15.394957 0 0 0 -15.8125 -9.5 15.394957 15.394957 0 0 0 -1.6875 -0.09375zm-160.90625 377.3125-32.65625 79a15.394957 15.394957 0 1 0 28.4375 11.75l37.5-90.75h-33.28125zm290.03125 0 6.09375 9.875 33.375 80.875a15.399125 15.399125 0 1 0 28.46875 -11.75l-32.65625-79h-35.28125z"/>
<path fill="#fff" d="m71.559672 137.85415a10.263305 10.263305 0 0 0 -10.261719 10.26172v273.98633a10.263305 10.263305 0 0 0 10.261719 10.26367h437.74805a10.263305 10.263305 0 0 0 10.26172 -10.26367v-273.98633a10.263305 10.263305 0 0 0 -10.26172 -10.26172h-437.74805zm316.87305 53.74414c1.1537-0.006 2.31665 0.009 3.46875 0.0488 7.88726-0.11941 15.96189 0.30645 23.68555 1.36719 36.18418 4.93808 67.52886 35.08868 71.83984 71.54687 5.19228 28.67854-4.01309 61.16608-29.74219 77.45704h36.62891v35.65039h-83.85352v-38.23828c28.16775-18.29131 36.78811-58.17587 23.19727-88.05469-9.46122-27.14063-48.59986-34.07962-68.51953-14.50391-26.12217 29.01687-19.46195 81.36057 13.52929 102.5586v38.24023h-69.78906c-13.02705 3.22698-16.41527-3.18699-14.06641-15.33594 1.36791-8.3996-5.04094-24.57616 8.98633-20.3164 8.42664-0.36229 20.85512 0.72967 26.76367-0.53711-29.9042-19.67126-36.42841-60.92773-24.9082-92.79102 10.89695-35.13803 47.01428-56.90177 82.7793-57.0918zm-299.27539 3.32032h46.982418c0.0125 14.94432-0.0347 29.88983 0.0488 44.83398-1.16558 21.33163 3.29544 45.07698 21.68359 58.3125 0.57786-34.37897 0.21686-68.76525 0.29297-103.14648h47.0293v103.29297c6.70866-5.30038 12.22548-11.74721 15.9707-19.4375 10.56784-26.48967 4.63848-56.04848 6.10547-83.85547h46.98047c-0.93206 28.71522 3.39122 58.19843-4.78516 86.15039-8.94346 28.26485-32.78669 56.11906-64.125 58.89844-0.23849 12.56619-0.11788 25.13359-0.14648 37.70117h-47.0293v-37.65235c-21.46292-1.42079-39.07031-16.11957-51.23044-32.7207-23.496945-31.18232-16.965185-72.53437-17.679682-109.05469l-0.09766-3.32226z"/>
</svg>
