<?xml version="1.0" encoding="UTF-8" standalone="no"?>
<svg xmlns:rdf="http://www.w3.org/1999/02/22-rdf-syntax-ns#" xmlns="http://www.w3.org/2000/svg" version="1.0" xmlns:cc="http://creativecommons.org/ns#" xmlns:dc="http://purl.org/dc/elements/1.1/" viewBox="0 0 576.44501 577.45154">
<path d="m64.571 0.06355556c-41.335 0-64.571 21.371-64.571 65.036v450.123c0 40.844 20.894 62.229 62.192 62.229h452.024c41.307 0 62.229-20.316 62.229-62.229v-450.123c0-42.601-20.922-65.036-63.522-65.036-0.003 0-448.494-0.143-448.352 0z"/>
<path opacity=".9" style="color:#000000;text-indent:0;block-progression:tb;text-decoration-line:none;text-transform:none" d="m67.133859 133.60301c-4.195247-0.0822-8.386918 1.63409-11.288544 4.66517-2.901644 3.03108-4.469507 7.33125-4.204406 11.51892l17.220788 273.40161c0.341089 5.47059 3.883904 10.62375 8.86957 12.9012l228.24744 104.41902c4.58364 2.09005 10.20101 1.71741 14.45624-0.9791 4.25524-2.6965 7.01696-7.6336 7.08414-12.67082l4.3196-296.03629c0.0923-6.43689-4.36479-12.68188-10.48222-14.68663l-249.73023-81.78435c-1.44873-0.47251-2.968712-0.72584-4.492379-0.74873zm68.883151 102.92157c4.73153-0.10724 10.61429 0.74335 17.68155 2.53417 9.4229 2.38795 19.70104 6.03411 30.75552 11.00057 17.74515 7.97282 31.99031 15.52983 42.85039 22.63468 10.8598 7.10515 20.04867 15.8446 27.53022 26.26314 5.25385 7.24653 9.54633 16.05482 12.8436 26.49352 3.29692 10.43883 5.11851 19.86225 5.47149 28.16377l3.28289 77.81031c0.35257 8.30151 1.12482 15.09753 2.24619 20.21571 1.12093 5.11807 3.38258 11.97679 6.79616 20.67647l-55.57879-24.93847c-2.42329-5.54036-4.00057-9.64058-4.78036-12.32525-0.78006-2.68497-1.63913-6.75576-2.53416-12.15246-7.39539 5.03762-14.84151 7.62199-22.34671 7.83287-10.26572 0.16495-22.30299-2.81228-36.16941-9.04236-18.4241-8.27766-32.65475-19.43063-42.62001-33.46246-9.96535-14.03191-15.2318-28.22606-15.83852-42.50483-0.56913-13.39322 2.40926-22.85367 8.92716-28.39414 6.51787-5.54034 18.92139-6.24609 37.26372-2.131 21.9894 4.88518 36.22826 7.78205 42.7352 8.69679 6.50675 0.91489 13.39025 1.39192 20.61887 1.38227-0.35287-8.3015-2.09409-14.79574-5.24111-19.46698-3.14727-4.67112-8.50543-8.69657-16.0689-12.09487-9.69692-4.35658-16.9001-5.85596-21.59798-4.49238-3.66427 1.06818-6.52135 4.86954-8.524 11.46133l-56.84588-32.25298c1.65353-10.33155 4.3142-17.79453 8.06325-22.4619 3.74905-4.66704 9.34109-7.68084 16.70243-9.04235 1.3211-0.24784 2.80002-0.36741 4.37719-0.40317zm41.00736 118.93287c-3.72921 0.0927-6.36578 0.67569-7.89046 1.72784-3.14179 2.17144-4.57481 5.60299-4.37719 10.25184 0.22568 5.31303 2.0219 10.36956 5.4139 15.20498 3.39181 4.83551 8.21079 8.68707 14.51384 11.51892 6.5938 2.96254 12.68233 3.86853 18.19989 2.76454 5.51735-1.10423 9.30888-3.75782 11.46133-7.94805 2.1522-4.19033 3.06431-10.47874 2.70695-18.89104l-0.46076-10.77019c-8.00436-0.33897-16.33781-1.28822-25.05365-2.70695-5.9345-0.87477-10.78463-1.24461-14.51385-1.15189z" fill="#fff"/>
<path style="color-rendering:auto;text-decoration-color:#000000;color:#000000;isolation:auto;mix-blend-mode:normal;shape-rendering:auto;solid-color:#000000;block-progression:tb;text-decoration-line:none;text-decoration-style:solid;image-rendering:auto;white-space:normal;text-indent:0;text-transform:none" d="m270.9835 45.31704a15.225104 15.225104 0 0 0 -5.54688 1.207032l-202.10546 85.847658a15.225104 15.225104 0 0 0 -5.964844 4.54297 15.225104 15.225104 0 0 0 -5.699218 12.84766l17.222652 273.42382a15.225104 15.225104 0 0 0 8.859375 12.88672l225.91992 103.36914a15.225104 15.225104 0 0 0 18.33593 0.82032l179.7715-123.79492a15.225104 15.225104 0 0 0 6.55078 -11.4668l19.37695-274.5a15.225104 15.225104 0 0 0 -6.32422 -13.4336 15.225104 15.225104 0 0 0 -6.90429 -4.17968l-238.97657-67.009773a15.225104 15.225104 0 0 0 -4.51562 -0.560547zm1.43945 31.320313 197.02149 55.244147-154.16797 81.15234-203.1543-68.30664 160.30078-68.089847zm223.00196 78.755867-16.95313 240.15429-149.55859 102.98828 2.81054-258.5957 163.70118-84.54687zm-411.95899 14.87304 217.75 71.33203-3.80273 261.49805-198.70899-90.91797-15.238278-241.91211z" fill="#fff"/>
<path opacity=".6" style="color:#000000;text-indent:0;block-progression:tb;text-decoration-line:none;text-transform:none" d="m511.6085 114.23306c-2.10641 0.124-4.18563 0.69204-6.0625 1.65625l-195.9375 101.1875c-4.8811 2.52971-8.16728 7.87756-8.21875 13.375l-3.25 297.09375c-0.0694 5.5507 3.1632 11.01503 8.0625 13.625 4.89931 2.60997 11.24457 2.24797 15.8125-0.90625l179.75-123.78125c3.75454-2.58077 6.23988-6.92421 6.5625-11.46875l19.375-274.5c0.3072-4.30696-1.30827-8.7104-4.34375-11.78125s-7.43977-4.75729-11.75-4.5zm-51.75 153.59375c0.68844-0.001 1.3525 0.0145 2 0.0625 10.35975 0.76779 17.21511 6.61198 20.46875 17.625l-46.6875 32.1875c-1.00361-4.31649-3.28395-6.69607-6.875-7.125-3.59131-0.4286-8.60498 1.23397-15.03125 4.90625-8.11335 4.63658-14.91402 11.08529-20.40625 19.4375-5.49238 8.35248-8.73114 18.10107-9.6875 29.21875-0.85241 9.90777 0.99316 16.01583 5.53125 18.3125 4.53793 2.29686 10.69452 1.25074 18.40625-3.15625 6.42625-3.67234 11.94894-8.3347 16.59375-13.9375 4.64461-5.60265 8.34048-12.23805 11.0625-19.90625l46.15625-21.65625c-3.35797 10.62048-8.24778 20.98689-14.6875 31.03125-6.44 10.04452-14.34517 19.52132-23.78125 28.4375-9.43631 8.91619-21.19243 17.37287-35.25 25.40625-13.57576 7.75806-24.76167 12.99933-33.59375 15.78125-8.83216 2.78201-16.2958 3.39498-22.34375 1.78125-6.04805-1.61358-10.61046-4.95789-13.6875-10.03125-3.07707-5.07327-4.11527-13.56333-3.09375-25.4375 1.06703-12.40344 4.19859-23.99789 9.40625-34.8125 3.81398-7.93247 8.78967-15.93805 14.90625-24 6.11654-8.0618 12.3048-14.99365 18.53125-20.78125 9.87796-9.16854 22.27739-18.02394 37.21875-26.5625 19.58022-11.18927 34.51711-16.75999 44.84375-16.78125z" fill="#fff"/>
<path opacity=".75" style="color:#000000;text-indent:0;block-progression:tb;text-decoration-line:none;text-transform:none" d="m270.9835 45.326806c-1.89621 0.04667-3.78298 0.451737-5.53125 1.1875l-202.125 85.843754c-5.657996 2.38678-9.517002 8.48871-9.28125 14.625s4.550556 11.89812 10.375 13.84375l247.34375 83.15625c3.89056 1.30341 8.30802 0.94493 11.9375-0.96875l193.75-102c5.348-2.81749 8.66578-9.05111 8.03125-15.0625-0.63454-6.01138-5.18161-11.42368-11-13.0625l-238.96875-67.000004c-1.47077-0.413427-3.00403-0.603764-4.53125-0.5625zm42.46875 64.218754c1.15078 0.006 2.32109 0.0344 3.5 0.0625 18.86252 0.45021 38.78788 4.31343 59.78125 11.625 13.99549 4.87452 24.58241 9.95902 31.75 15.25 7.16739 5.29109 10.30533 10.24932 9.40625 14.875-0.89938 4.62574-5.10346 8.65915-12.625 12.0625-6.43858 2.91334-14.19466 4.92797-23.25 6.0625-6.92715 0.81575-16.75211 0.90371-29.46875 0.28125l18.96875 6.59375-34.40625 15.5625-176.875-61.59375 37.09375-16.78125 61.3125 21.34375c-1.47713-3.45369-1.18319-6.68091 0.90625-9.6875 2.08953-3.00655 5.96881-5.7843 11.625-8.34375 10.94404-4.95185 25.0195-7.39822 42.28125-7.3125zm-1.9375 22.78125c-6.32685-0.0472-11.3358 0.76246-14.96875 2.40625-4.99434 2.25988-6.60004 4.94153-4.8125 8.09375 1.7877 3.15232 7.72702 6.49831 17.78125 10 11.01949 3.83794 20.54816 5.89813 28.59375 6.21875 8.04562 0.32074 14.43383-0.56778 19.1875-2.71875 4.39262-1.98755 5.63768-4.51985 3.75-7.5625-1.88772-3.04253-8.56044-6.55645-20.0625-10.5625-10.13472-3.52971-19.02349-5.44888-26.6875-5.78125-0.958-0.0415-1.87741-0.087-2.78125-0.0937z" fill="#fff"/>
</svg>
