<?xml version="1.0" encoding="UTF-8" standalone="no"?>
<svg xmlns:rdf="http://www.w3.org/1999/02/22-rdf-syntax-ns#" xmlns="http://www.w3.org/2000/svg" version="1.0" xmlns:cc="http://creativecommons.org/ns#" xmlns:dc="http://purl.org/dc/elements/1.1/" viewBox="0 0 576.44501 577.45154">
<path d="m64.571 0.06355556c-41.335 0-64.571 21.371-64.571 65.036v450.123c0 40.844 20.895 62.229 62.192 62.229h452.024c41.307 0 62.229-20.315 62.229-62.229v-450.123c0-42.601-20.922-65.036-63.521-65.036-0.004 0-448.495-0.143-448.353 0z"/>
<path opacity=".75" d="m107.83019 506.99207 44.83749-108.55394 67.26813-38.79503 1.63527-147.12758 18.51055-40.23748 47.25697-111.88531m182.66855 446.59934-33.89984-82.07331-108.10312-175.28418 4.14183-90.93788-41.64728-98.303967" stroke="#fff" stroke-linecap="round" stroke-width="30.786835" fill="none"/>
<path fill="#fff" d="m71.559672 137.85415a10.263305 10.263305 0 0 0 -10.261719 10.26172v273.98633a10.263305 10.263305 0 0 0 10.261719 10.26367h437.74805a10.263305 10.263305 0 0 0 10.26172 -10.26367v-273.98633a10.263305 10.263305 0 0 0 -10.26172 -10.26172h-437.74805zm69.960938 36.14063c12.26115 0.0001 22.09988 0.71056 29.53711 2.08398 7.43703 1.37362 13.64141 4.24073 18.59961 8.59571 3.48395 3.01515 6.23203 7.2674 8.24219 12.79492 2.00992 5.52768 3.01549 10.81873 3.01562 15.84375v47.10937c-0.00013 5.02511 0.3243 8.98646 0.96094 11.83399 0.6364 2.84757 2.02576 6.48216 4.16992 10.90429h-38.38867c-1.54113-2.7471-2.54475-4.84659-3.01367-6.28711-0.4691-1.44062-0.94124-3.7167-1.41016-6.79882-5.36016 5.15911-10.71089 8.85345-16.00391 11.06445-7.23619 2.94803-15.6259 4.42578-25.20703 4.42578-12.73027 0-22.39063-2.95548-28.990232-8.85156-6.59963-5.89615-9.910164-13.16346-9.910156-21.80664-0.00001-8.10712 2.395247-14.78558 7.152344-20.01172 4.757069-5.22604 13.530854-9.09453 26.328124-11.64063 15.34323-3.082 25.27003-5.23892 29.82617-6.47851 4.55601-1.23946 9.40197-2.86489 14.49414-4.875-0.00008-5.025-1.03242-8.54066-3.10937-10.55078-2.07714-2.00995-5.74273-3.01358-10.96875-3.01367-6.70017 0.00008-11.72225 1.06307-15.07227 3.20703-2.61309 1.67511-4.74162 4.83596-6.34961 9.45898l-39.093747-4.13672c1.474013-6.83404 3.602248-12.21119 6.382813-16.13086 2.780533-3.91947 6.799274-7.31612 12.025394-10.19726 3.75203-2.07693 8.89087-3.67144 15.45703-4.81055 6.56607-1.13892 13.68798-1.73231 21.32617-1.73242zm280.96289 0c17.42023 0.00011 30.6843 3.13422 39.83008 9.36523 9.14555 6.23121 15.58825 15.32913 19.27344 27.32227l-38.51563 5.13086c-1.20611-4.55602-3.39176-7.98135-6.57422-10.29297-3.18265-2.31145-7.4681-3.46475-12.82812-3.46484-6.76718 0.00008-12.23046 2.42374-16.41797 7.28125-4.18763 4.85766-6.28716 12.21338-6.28711 22.0625-0.00006 8.7772 2.06851 15.42443 6.22265 19.98046 4.15403 4.55612 9.47406 6.86136 15.90626 6.86133 5.36 0.00003 9.85031-1.38964 13.50195-4.13672 3.65148-2.74703 6.39987-6.97087 8.20898-12.66601l38.86914 4.42383c-2.14417 8.10718-5.65981 15.14072-10.55078 21.07031-4.8912 5.92959-11.12594 10.53915-18.73047 13.82226-7.60473 3.283-17.2651 4.90625-28.99023 4.90625-11.32326 0-20.74757-1.06327-28.28516-3.17382-7.53767-2.11053-14.03972-5.50685-19.46679-10.23047-5.42714-4.72356-9.68164-10.2794-12.76368-16.64453-3.08207-6.36509-4.6172-14.81475-4.61718-25.33399 0-10.98814 1.85924-20.11671 5.61132-27.41992 2.74702-5.36 6.50071-10.17698 11.25782-14.43164 4.75707-4.25451 9.66238-7.41505 14.6875-9.49219 7.9731-3.28296 18.19592-4.93934 30.6582-4.93945zm-261.56055 58.49414c-5.62818 2.01008-11.50844 3.78324-17.60547 5.32422-8.30821 2.2111-13.5683 4.39897-15.77929 6.54297-2.27811 2.21108-3.39849 4.72113-3.39844 7.53515-0.00004 3.21609 1.12259 5.84713 3.36719 7.89063 2.24448 2.04356 5.52181 3.07814 9.87695 3.07812 4.55602 0.00002 8.81277-1.12487 12.73242-3.33593 3.91948-2.21101 6.69628-4.89946 8.33789-8.08204 1.64145-3.18253 2.46867-7.31801 2.46875-12.41015v-6.54297zm77.80078 20.94336h41.30665v51.05469c4.08701-4.28797 8.72531-7.51016 13.91796-9.6543 5.19254-2.14395 10.92251-3.20691 17.22071-3.20703 12.99814 0.00012 23.7544 4.66905 32.26367 14.01562 8.50903 9.34674 12.76354 22.75885 12.76367 40.2461-0.00013 11.65825-1.95195 21.94269-5.83789 30.82031-3.8862 8.87768-9.26335 15.49414-16.13086 19.88281-6.86774 4.38857-14.49017 6.60547-22.86523 6.60547-7.16921 0-13.72838-1.56832-19.69141-4.65039-4.48914-2.41195-9.36322-6.93127-14.65625-13.56445v15.77734h-38.29102v-147.32617zm59.875 68.75586c-5.56115 0.00007-10.08013 2.03771-13.59765 6.1582-3.51759 4.12064-5.29107 10.38467-5.29102 18.75977-0.00005 9.17921 1.74469 15.82673 5.19532 19.94726 3.45051 4.1206 7.79082 6.18949 13.08398 6.18946 4.89101 0.00003 8.99781-2.0382 12.31445-6.0918 3.31648-4.05354 5.00187-10.87972 5.00196-20.46094-0.00008-8.44211-1.62358-14.61523-4.87305-18.56836-3.24964-3.953-7.21098-5.93351-11.83399-5.93359z"/>
</svg>
