<?xml version="1.0" encoding="UTF-8" standalone="no"?>
<svg xmlns:rdf="http://www.w3.org/1999/02/22-rdf-syntax-ns#" xmlns="http://www.w3.org/2000/svg" height="259.62598" width="512.20654" version="1.0" xmlns:cc="http://creativecommons.org/ns#" xmlns:dc="http://purl.org/dc/elements/1.1/" viewBox="0 0 512.20655 259.62598">
<defs>
<style type="text/css">.fil0 {fill:#EF7900}</style>
</defs>
<path opacity=".1" d="m0.44286123 227.41698c2.367196-5.48093 32.404879-47.87543 66.750284-94.2099 49.255285-66.448907 74.614095-89.478947 120.04962-109.0248 71.12554-30.597417 142.32874-32.355247 168.26002-4.154017 61.33558 66.70455 124.63054 142.87846 142.85807 171.92632 34.40213 55.71502-22.68994 62.23235-174.08769 65.9581-80.61454 2.31281-85.24178 0.87361-168.92323 1.7133-39.07364-1.12238-156.3614-19.74053-154.90706-32.209z"/>
<path d="m293.86488 0.00331293c-31.02989-0.19156-68.8376 7.92481-106.62305 24.17969-45.43552 19.54585-70.79355 42.57453-120.04884 109.02344-34.345395 46.33447-64.382794 88.73001-66.74999 94.21094-2.3671858 5.48071 4.9920662 8.13235 16.353516 5.89257 11.361558-2.23966 44.009694-38.54699 72.552739-80.68359 42.867495-63.282937 62.580135-81.162937 113.29882-102.76953 103.19238-43.960667 103.53133-43.830557 214.625 82.05664 25.93022 29.38318 55.89052 65.95331 66.57813 81.26758 27.11157 38.84806 40.19577 19.70713 14.50976-21.22656-18.22753-29.04787-81.52184-105.22124-142.85742-171.92579-12.15529-13.219317-34.25936-19.856357-61.63867-20.025387zm-58.44727 99.69141c-28.50769 0-118.69921 102.40238-118.69921 134.76953 0 3.66748 63.64685 6.66797 141.4375 6.66797 77.79066 0 141.4375-3.11199 141.4375-6.91406 0-3.8022-16.61386-30.04655-36.91993-58.32227-34.40845-47.91292-81.6499-76.201167-127.25586-76.201167z"/>
</svg>
