<?xml version="1.0" encoding="UTF-8" standalone="no"?>
<svg xmlns:rdf="http://www.w3.org/1999/02/22-rdf-syntax-ns#" xmlns="http://www.w3.org/2000/svg" version="1.0" xmlns:cc="http://creativecommons.org/ns#" xmlns:dc="http://purl.org/dc/elements/1.1/" viewBox="0 0 469.17621 472.49814">
<defs>
<style type="text/css">.fil0 {fill:#EF7900}</style>
</defs>
<path d="m434.58806 0.00179855-413.64062 5.853516a19.513328 19.513328 0 0 0 -19.234377 19.21875l-1.710938 115.1172a19.513328 19.513328 0 0 0 20.4375 19.7793l47.496094-2.26368-56.115234 291.26563a19.513328 19.513328 0 1 0 38.316404 7.38281l10.14453-52.6543 183.52539-61.73046 15.66602 105.74804a19.513328 19.513328 0 1 0 38.60156 -5.71875l-47.16992-318.38672 188.99023-84.970709v237.74414a15.610662 15.610662 0 0 0 -8.4414 18.2168s2.33793 9.11807 4.20312 20.80078c1.49149 9.34197 2.29532 20.2951 1.91797 27.76953-3.46349-0.23825-8.70049-1.10041-14.47265-2.81445-13.90762-4.12986-28.25391-11.00391-28.25391-11.00391a15.610662 15.610662 0 1 0 -13.62109 28.08984s15.7502 7.72101 32.98828 12.83985c8.61904 2.55942 17.51632 4.73096 27.05859 4.3164 4.77114-0.20727 10.00422-1.03066 15.30859-4.26562 5.30438-3.23496 9.89339-9.66683 11.16016-16.12891 2.89437-14.76476 0.85178-30.51111-1.25781-43.72461s-4.79492-23.64648-4.79492-23.64648a15.610662 15.610662 0 0 0 -4.54102 -7.74414v-261.58204a8.6278912 8.6278912 0 0 0 -5.67383 -8.2167964 19.513328 19.513328 0 0 0 -16.88672 -9.291016zm-93.66015 40.353515-95.96485 43.146484-6.17773-41.70117 102.14258-1.445314zm-141.33008 3.214844 8.37891 56.560552-29.43555 13.23438-62.90039 3 13.51172-70.136722 70.44531-2.65821zm-109.73828 0.3379-14.32813 74.369142-36.203122 1.72656 1.123042-75.396492 49.40821-0.69921zm124.06055 96.333982 3.70117 24.98828-123.60938 63.38867 14.031251-72.82422 76.05469-3.62695a19.513328 19.513328 0 0 0 7.07031 -1.69531l22.75196-10.23047zm6.7207 45.36719 18.24609 123.1582l-131.58203-65.03516 113.33594-58.12304zm-131.95899 70.68359 141.18555 69.78125-165.3457 55.61523 24.160149-125.39648z"/>
</svg>
