<?xml version="1.0" encoding="UTF-8" standalone="no"?>
<svg xmlns:rdf="http://www.w3.org/1999/02/22-rdf-syntax-ns#" xmlns="http://www.w3.org/2000/svg" height="487.36523" width="489.323" version="1.0" xmlns:cc="http://creativecommons.org/ns#" xmlns:dc="http://purl.org/dc/elements/1.1/" viewBox="0 0 489.323 487.36524">
<defs>
<style type="text/css">.fil0 {fill:#EF7900}</style>
</defs>
<circle opacity=".1" cy="243.73073" cx="245.4608" r="170.82506"/>
<path d="m247.03845 0.00452308a40.004 40.004 0 0 0 -39.39844 40.564453v5.941406c-27.48128 5.279954-53.00587 16.19141-75.31641 31.488284l-50.857419-50.857425a40.004 40.004 0 0 0 -28.703122 -12.11914 40.004 40.004 0 0 0 -27.865234 68.687505l51.652346 51.652344c-14.30604 22.18981-24.355988 47.35396-29.000002 74.32032h-6.980469a40.004 40.004 0 1 0 0 80h9.402343c5.559004 23.56775 15.294918 45.55692 28.374998 65.14257l-53.449216 53.44922a40.004 40.004 0 1 0 56.568356 56.56836l53.562499-53.56055c21.66048 14.34305 46.23369 24.60201 72.61133 29.66993v5.84375a40.004 40.004 0 1 0 80 0v-6.73243c24.46648-5.27092 47.30261-15.02287 67.60352-28.35351l53.13476 53.13281a40.004 40.004 0 1 0 56.56836 -56.56836l-52.79883-52.80078c13.29802-19.74728 23.18266-41.96433 28.80274-65.79101h7.80273a40.004 40.004 0 1 0 0 -80h-5.38281c-4.68954-27.23062-14.8956-52.62044-29.42578-74.96876l51.00195-51.003904a40.004 40.004 0 0 0 -29.07031 -68.669927 40.004 40.004 0 0 0 -27.49805 12.101562l-50.41601 50.416025c-20.97117-14.26092-44.7593-24.653055-70.32227-30.160165v-6.828125a40.004 40.004 0 0 0 -40.60156 -40.564453zm-4.82422 102.93946a40.004 40.004 0 0 0 10.17969 0.12891c74.87366 3.58006 133.89258 64.85254 133.89258 140.6582 0 0.44416-0.0116 0.88497-0.0156 1.32813a40.004 40.004 0 0 0 -0.21289 6.67969c-3.97993 71.95454-61.26158 129.01773-133.31641 132.63671a40.004 40.004 0 0 0 -0.002 0 40.004 40.004 0 0 0 -5.70117 -0.37109 40.004 40.004 0 0 0 -5.43555 0.5c-76.32623-2.02419-136.96873-63.93304-136.96873-140.77344 0-77.04529 60.96676-139.07807 137.58008-140.78711z"/>
</svg>
