<?xml version="1.0" encoding="UTF-8" standalone="no"?>
<svg xmlns:rdf="http://www.w3.org/1999/02/22-rdf-syntax-ns#" xmlns="http://www.w3.org/2000/svg" height="468.61856" width="518.31207" version="1.0" xmlns:cc="http://creativecommons.org/ns#" xmlns:dc="http://purl.org/dc/elements/1.1/" viewBox="0 0 518.31208 468.61856">
<defs>
<style type="text/css">.fil0 {fill:#EF7900}</style>
</defs>
<path opacity=".1" d="m184.25634 5.0124336c-0.28394-0.02129-0.56953-0.01462-0.8496 0.02148-14.63595 7.7958924-27.3024 18.755829-41.25391 27.736328-38.37131 26.748314-75.252805 57.111334-100.1211 97.326178-12.305414 18.76433-25.267543 37.33218-37.031247 56.3125 0.739829 9.5112 11.762565 11.39873 17.390625 17.26758 13.51593 9.06039 25.86036 21.0105 40.636719 27.93555 9.131176-2.18292 11.225631-13.08884 17.171871-19.2461 14.78123-20.88692 28.849742-42.43768 44.082042-62.89453 5.14249 3.38851 7.54663 9.6203 12.83984 13.1211 98.2233 98.04072 195.76847 196.75744 293.72266 295.0664 7.55315 4.1125 13.1717-4.63057 17.46874-9.40625 4.95766-6.11006 14.24698-10.50075 14.85743-19.00195-12.32191-14.93443-27.58557-27.84315-41.56446-41.49414-91.16376-87.24597-182.5958-175.06498-273.98047-262.25391-0.26516-2.05087 4.53936-2.32601 5.44141-4.29297 24.84666-18.45136 50.86964-35.631414 74.96094-54.910154 2.8989-9.00426-7.13263-14.238841-10.83985-21.169929-10.78525-13.16755-19.41986-28.531545-32.09374-39.970703-0.27166-0.07595-0.55395-0.125197-0.8379-0.146484zm164.78711 1.580078c-0.31461-0.01742-0.63081-0.0071-0.94921 0.03516-10.97236 6.5028004-19.31873 16.736289-29.44922 24.509766-8.93761 8.081299-19.25522 15.502218-26.56641 25.123038-0.1948 8.9594 9.95201 12.69113 14.5625 19.14844l52.10937 51.500004c-24.80085 27.08373-50.3245 53.60456-74.9375 80.8125-2.61844 8.15613 6.56467 12.42401 11.0625 17.15625 3.72717 5.49146 12.63518 11.93393 18.3125 5.28125 23.55242-27.85565 48.34353-55.05148 73-81.90625 15.93935 7.81589 25.1132 24.15671 40.23438 33.03711 27.04127 13.75185 53.4789 29.06213 80.89062 41.83789 6.22388 0.48814 7.83014-8.23323 3.75-11.78125-16.94158-31.97975-28.6299-66.63677-46.65624-98.09375-9.07964-8.80204-18.90898-17.003124-28.21876-25.468754 5.32117-5.69014 14.05126-10.28969 15-18.65625-5.3953-6.56492-12.0162-13.88161-20.5-15.718744-6.9805 2.868204-10.97467 9.671224-16.5 14.406244-21.28111-19.694806-42.05006-39.727796-62.4375-60.437494-0.84349-0.431658-1.7632-0.732905-2.70703-0.785156zm-134.99023 279.00391c-0.67514-0.0206-1.37889 0.0556-2.11524 0.25-9.2108 5.91414-14.93002 15.77077-23.02148 23.01367-38.58525 41.51126-77.67883 82.65063-115.94726 124.39258-2.598985 8.76827 7.61902 12.85693 12.34374 18.03125 5.74689 4.3521 10.47125 13.33145 18.593762 12.25 24.49257-24.7598 46.41769-51.93501 70.01953-77.48828 21.44133-24.42735 43.66406-48.34718 64.54297-73.13672 1.95589-9.17416-8.63685-13.28593-13.40626-19-2.97878-3.22347-6.28379-8.16813-11.00976-8.3125z"/>
<path d="m183.70469 0.00330157c-0.31035 0.0083-0.62245 0.03166-0.9375 0.07227a5.0005 5.0005 0 0 0 -1.71289 0.546875c-15.29579 8.147351-28.05472 19.219564-41.60742 27.943355a5.0005 5.0005 0 0 0 -0.15235 0.103516c-38.5589 26.879088-76.007279 57.604258-101.44531 98.685552-12.251905 18.68273-25.238715 37.28279-37.099612 56.41992a5.0005 5.0005 0 0 0 -0.734375 3.02344c0.516845 6.64453 5.036678 11.049 9.052734 13.75586 4.016057 2.70686 7.844403 4.63157 9.714844 6.58203a5.0005 5.0005 0 0 0 0.824219 0.69336c12.996496 8.71219 25.490001 20.89967 41.298828 28.3086a5.0005 5.0005 0 0 0 3.285156 0.33593c6.312757-1.50914 10.179794-6.15524 12.830074-10.30273 2.65029-4.14749 4.62315-8.1034 6.77539-10.33203a5.0005 5.0005 0 0 0 0.48438 -0.58594c13.75714-19.43981 26.888882-39.24621 40.746092-58.19727 0.55197 0.65268 1.08607 1.26328 1.68946 2.0293 1.81482 2.30398 3.94334 5.06889 7.14843 7.32227 98.11391 97.93404 195.56519 196.55444 293.4375 294.78125a5.0005 5.0005 0 0 0 1.1504 0.86133c2.77039 1.50839 5.91076 1.97749 8.63867 1.45703 2.7279-0.52047 4.95236-1.83711 6.79687-3.28711 3.68902-2.9 6.28212-6.55753 8.14063-8.62305a5.0005 5.0005 0 0 0 0.16601 -0.19336c1.8853-2.32354 5.29995-4.91255 8.65625-8.16406 3.3563-3.25152 6.87604-7.6342 7.30664-13.63086a5.0005 5.0005 0 0 0 -1.13086 -3.54102c-12.71181-15.407-28.12326-28.40801-41.92773-41.88867a5.0005 5.0005 0 0 0 -0.0352 -0.0352c-89.73165-85.8754-179.73462-172.30043-269.69722-258.15035 0.36711-0.26914 0.68504-0.6274 1.04883-1.0332 24.59071-18.24054 50.52346-35.379844 74.73632-54.755864a5.0005 5.0005 0 0 0 1.63672 -2.37305c2.05174-6.37287-0.77484-12.19082-3.78125-15.994144-3.00641-3.803312-6.19431-6.793246-7.41015-9.066402a5.0005 5.0005 0 0 0 -0.54102 -0.810547c-10.40623-12.704803-19.12505-28.337547-32.61328-40.511719a5.0005 5.0005 0 0 0 -2.00391 -1.103515c-0.8924-0.249494-1.80332-0.3668-2.73437-0.341797zm164.68164 1.585938c-0.31184 0.01182-0.6292 0.03926-0.95117 0.08203a5.0005 5.0005 0 0 0 -1.89063 0.65625c-11.99493 7.108834-20.44204 17.553059-29.94336 24.84375a5.0005 5.0005 0 0 0 -0.30859 0.257812c-8.64707 7.818594-19.26232 15.36759-27.19531 25.80664a5.0005 5.0005 0 0 0 -1.01758 2.916024c-0.13874 6.38105 3.6209 11.08792 7.08008 14.29101 3.45918 3.2031 6.85016 5.68349 8.41211 7.8711a5.0005 5.0005 0 0 0 0.55468 0.65234l48.65821 48.089844c-23.72636 25.8028-48.07592 51.22018-71.67969 77.3125a5.0005 5.0005 0 0 0 -1.05274 1.82422c-1.90681 5.93951 0.87321 11.52977 3.98829 14.82617 3.01715 3.1928 6.37816 5.47294 8.03711 7.13868 2.3851 3.35945 5.81685 6.601 10.24414 8.50781 2.31718 0.998 4.99646 1.61005 7.85156 1.19531 2.85509-0.41474 5.71929-1.99768 7.8164-4.45508a5.0005 5.0005 0 0 0 0.0156 -0.0176c22.60863-26.73943 46.407-52.89269 70.1543-78.77344 12.38856 7.63068 21.36015 21.95961 36.73047 30.98633a5.0005 5.0005 0 0 0 0.26562 0.14453c26.8783 13.66897 53.36246 29.01212 81.04492 41.91406a5.0005 5.0005 0 0 0 1.7207 0.45313c2.72973 0.21408 5.47254-0.6879 7.38282-2.28516 1.91027-1.59726 3.03074-3.69481 3.58398-5.8125 0.98267-3.76145 0.30047-7.97679-2.50781-11.21094-16.63131-31.44706-28.32493-66.082-46.63672-98.03711a5.0005 5.0005 0 0 0 -0.85742 -1.10351c-7.91649-7.67445-16.21987-14.797214-24.23047-21.933604 1.73872-1.50655 3.25864-2.82613 5.16992-4.69922 3.32251-3.2561 6.67381-7.55241 7.33008-13.33984a5.0005 5.0005 0 0 0 -1.10547 -3.73633c-5.51225-6.70721-12.66298-15.127229-23.30469-17.431644a5.0005 5.0005 0 0 0 -2.95898 0.261719c-7.05284 2.89792-11.05887 7.907065-14.77734 11.982425-19.97033-18.569156-39.52392-37.420075-58.69724-56.896456a5.0005 5.0005 0 0 0 -1.28516 -0.94336c-1.53314-0.784586-3.45777-1.420624-5.64062-1.33789zm-164.83203 9.1757814c10.84356 10.506997 19.13196 24.5004 29.61914 37.34375 2.47455 4.292761 5.88486 7.266245 7.99023 9.929695 1.80257 2.28037 2.57185 3.59814 2.35742 5.41992-23.47676 18.65389-48.91193 35.52631-73.43359 53.736334a5.0005 5.0005 0 0 0 -1.00586 1c-0.22117 0.11339-0.59383 0.29018-1.20898 0.56445-0.71547 0.31899-1.61717 0.65721-2.77735 1.59375-1.16017 0.93653-2.7441 3.35916-2.42968 5.79101a5.0005 5.0005 0 0 0 1.50781 2.97657c91.3766 87.18124 182.80847 174.99793 273.97656 262.24804 13.51085 13.19072 27.81827 25.5073 39.4707 39.17579-0.58464 1.80439-1.67173 3.5211-3.72851 5.51367-2.68098 2.59727-6.39054 5.2584-9.46289 9.04492-2.37818 2.6638-4.6865 5.65673-6.72071 7.25586-1.0414 0.81867-1.90605 1.21471-2.49023 1.32617-0.47491 0.0906-0.95881-0.0516-1.61328-0.33789-97.68237-98.04049-194.97231-196.49624-292.95117-294.29298a5.0005 5.0005 0 0 0 -0.77539 -0.63086c-1.79852-1.18949-3.40518-3.11337-5.30664-5.52734s-4.0908-5.32747-7.53907-7.59961a5.0005 5.0005 0 0 0 -6.76172 1.18945c-15.34523 20.60853-29.423902 42.17672-44.121092 62.94727-3.48024 3.80535-5.484745 8.11422-7.554687 11.35351-1.716545 2.68626-3.191969 4.40189-5.123047 5.34766-12.970807-6.53931-24.70434-17.44563-38.048828-26.43164-3.636558-3.5452-7.830049-5.46085-10.765625-7.43945-2.502445-1.68668-3.829171-2.89854-4.376953-4.80665 11.405049-18.27593 23.922121-36.30406 35.931641-54.61718a5.0005 5.0005 0 0 0 0.07031 -0.11328c24.297277-39.291444 60.582279-69.260744 98.730469-95.853527 13.51642-8.719196 25.49878-18.758907 38.54102-26.107422zm165.68164 1.160156c20.11393 20.396388 40.58446 40.153455 61.55469 59.560549a5.0005 5.0005 0 0 0 6.65039 0.12696c5.78551-4.958 9.39936-10.17821 13.73242-12.70313 5.10101 1.73409 9.99449 6.26427 14.41406 11.40039-0.65337 1.857-1.77004 3.62816-3.75976 5.57813-2.61003 2.55784-6.15972 5.12994-9.29297 8.48046a5.0005 5.0005 0 0 0 0.28906 7.11524c9.24215 8.40413 18.82173 16.437764 27.58789 24.888674 17.50294 30.73268 29.15245 65.07348 46.23242 97.31445a5.0005 5.0005 0 0 0 1.13672 1.4336c0.26415 0.2297 0.66422 1.4769 0.43164 2.36719-0.0727 0.27841-0.131 0.31383-0.20117 0.41796-26.56253-12.48035-52.43902-27.38627-79.08399-40.94726-13.55763-7.97781-22.81984-24.50666-40.53906-33.19531a5.0005 5.0005 0 0 0 -5.88476 1.10937c-24.65995 26.85856-49.49174 54.09713-73.1211 82.04297-0.73988 0.86624-1.1187 0.97216-1.64648 1.04883-0.52838 0.0768-1.37361-0.0169-2.45899-0.48438-2.17076-0.93493-4.93127-3.44417-6.26562-5.41015a5.0005 5.0005 0 0 0 -0.51172 -0.63672c-2.90244-3.0537-6.24508-5.22358-8.19141-7.28321-1.66513-1.76206-2.07825-2.61722-1.77343-4.17382 24.23559-26.74587 49.38372-52.91394 73.90234-79.68946a5.0005 5.0005 0 0 0 -0.17187 -6.93359l-52.03516-51.425784c-2.98107-3.90655-6.69148-6.42964-9.27539-8.82227-2.1256-1.96824-3.30478-3.41409-3.70313-5.17773 6.65793-8.186192 16.01322-15.184093 24.74805-23.082037 10.0785-7.803071 18.0197-17.004948 27.23633-22.919922zm-135.95703 268.70899c-0.85716 0.0251-1.73194 0.14524-2.61719 0.37891a5.0005 5.0005 0 0 0 -1.42578 0.62695c-10.54421 6.7703-16.37004 16.97379-23.6543 23.49414a5.0005 5.0005 0 0 0 -0.32812 0.32226c-38.56021 41.48433-77.66189 82.63197-115.97071 124.41797a5.0005 5.0005 0 0 0 -1.107422 1.95703c-0.933523 3.14946-0.729287 6.39832 0.306641 9.03711 1.035927 2.6388 2.712217 4.65176 4.412108 6.31836 3.399793 3.33321 7.132243 5.72272 8.726563 7.46875a5.0005 5.0005 0 0 0 0.67188 0.61524c2.07977 1.57501 4.70477 4.81965 8.05859 7.87304 3.35382 3.05341 8.23333 6.14406 14.214852 5.34766a5.0005 5.0005 0 0 0 2.89453 -1.4414c24.72981-24.99964 46.68851-52.22423 70.13867-77.61329a5.0005 5.0005 0 0 0 0.084 -0.0937c21.37891-24.35623 43.62521-48.29837 64.60938-73.21289a5.0005 5.0005 0 0 0 1.0664 -2.17773c1.39353-6.53632-2.08786-12.05573-5.60351-15.44141s-7.25958-5.89271-8.85547-7.80469a5.0005 5.0005 0 0 0 -0.16602 -0.18945c-1.42835-1.5457-3.34229-4.16675-6.11914-6.45898-2.08263-1.71918-5.10917-3.27403-8.48437-3.41797-0.28127-0.012-0.56584-0.0142-0.85156-0.006zm0.97656 9.99414c0.12662-0.012 0.25251-0.0126 0.36523 0.0293 0.43004 0.15979 0.89797 0.50795 1.62891 1.11132 1.46188 1.20678 3.16467 3.39494 5.14063 5.53321l-0.16602-0.18945c3.17352 3.80209 7.10966 6.2093 9.59375 8.60156 2.10311 2.02536 2.96311 3.19051 2.85547 5.08594-20.50036 24.26733-42.32864 47.8208-63.50586 71.94726-23.20042 25.12668-44.65999 51.5598-68.25586 75.62305-1.50974-0.18916-2.911142-0.87583-4.828132-2.6211-2.30335-2.09702-4.80097-5.17702-8.08007-7.83593l-0.0488-0.043c-3.12086-3.39968-6.83098-5.63832-9.06055-7.82422-1.12032-1.09839-1.80688-2.07643-2.10351-2.83203-0.20188-0.51423-0.24558-1.00873-0.17969-1.61328 37.882332-41.29634 76.589842-82.05081 114.83789-123.19727 8.48311-7.65587 14.02402-16.60338 21.43359-21.73437 0.11909-0.005 0.24643-0.029 0.37305-0.041z"/>
</svg>
