<?xml version="1.0" encoding="UTF-8" standalone="no"?>
<svg xmlns:rdf="http://www.w3.org/1999/02/22-rdf-syntax-ns#" xmlns="http://www.w3.org/2000/svg" version="1.0" xmlns:cc="http://creativecommons.org/ns#" xmlns:dc="http://purl.org/dc/elements/1.1/" viewBox="0 0 263.41199 517.79102">
<path d="m9.3476634 0a9.3494351 9.3494351 0 0 0 -9.34766 9.357422l0.47461001 499.09376a9.3494351 9.3494351 0 0 0 9.34961 9.33984h45.09571a9.3494351 9.3494351 0 0 0 9.34765 -9.34961v-404.63281l155.45508 6.34375a9.4009396 9.4009396 0 0 0 6.36133 -2.13867l33.90625-27.9375a9.4009396 9.4009396 0 0 0 0.50781 -14.0586l-34.7207-33.091795a9.4009396 9.4009396 0 0 0 -6.64063 -2.59375l-154.86914 2.552734v-23.535156a9.3494351 9.3494351 0 0 0 -9.347647 -9.349609h-45.57227zm206.24805 49.191406 24.25586 23.119144-22.95117 18.91016-152.63282-6.22852v-33.306643l151.32813-2.494141z"/>
<path opacity=".1" d="m254.01194 72.82192-33.90559 27.93819-199.36482-8.13734 1.084983-49.637773 197.46611-3.254936 34.71932 33.091859z"/>
</svg>
