<?xml version="1.0" encoding="UTF-8" standalone="no"?>
<svg xmlns:rdf="http://www.w3.org/1999/02/22-rdf-syntax-ns#" xmlns="http://www.w3.org/2000/svg" version="1.0" xmlns:cc="http://creativecommons.org/ns#" xmlns:dc="http://purl.org/dc/elements/1.1/" viewBox="0 0 263.41199 517.79102">
<path d="m9.3476634 0a9.3494351 9.3494351 0 0 0 -9.34766 9.357422l0.47461001 499.09376a9.3494351 9.3494351 0 0 0 9.34961 9.33984h45.09571a9.3494351 9.3494351 0 0 0 9.34765 -9.34961v-404.63281l155.45508 6.34375a9.4009396 9.4009396 0 0 0 6.36133 -2.13867l33.90625-27.9375a9.4009396 9.4009396 0 0 0 0.50781 -14.0586l-34.7207-33.091795a9.4009396 9.4009396 0 0 0 -6.64063 -2.59375l-154.86914 2.552734v-23.535156a9.3494351 9.3494351 0 0 0 -9.347647 -9.349609h-45.57227z"/>
</svg>
