<?xml version="1.0" encoding="UTF-8" standalone="no"?>
<svg xmlns:rdf="http://www.w3.org/1999/02/22-rdf-syntax-ns#" xmlns="http://www.w3.org/2000/svg" version="1.0" xmlns:cc="http://creativecommons.org/ns#" xmlns:dc="http://purl.org/dc/elements/1.1/" viewBox="0 0 466.89429 517.79102">
<path d="m212.83001 0a9.3494351 9.3494351 0 0 0 -9.34765 9.357422l0.0644 66.86328-159.27344-2.625a9.4009396 9.4009396 0 0 0 -6.640625 2.59376l-34.718755 33.091788a9.4009396 9.4009396 0 0 0 0.507813 14.0586l33.904297 27.9375a9.4009396 9.4009396 0 0 0 6.361328 2.13867l159.92578-6.52735 0.34571 361.5625a9.3494351 9.3494351 0 0 0 9.34765 9.33985h45.09571a9.3494351 9.3494351 0 0 0 9.34961 -9.34961v-404.63281l155.45508 6.34375a9.4009396 9.4009396 0 0 0 6.35937 -2.13868l33.90625-27.937498a9.4009396 9.4009396 0 0 0 0.50781 -14.058594l-34.7187-33.091797a9.4009396 9.4009396 0 0 0 -6.64062 -2.59375l-154.86914 2.552735v-23.535157a9.3494351 9.3494351 0 0 0 -9.34961 -9.349609h-45.57227z"/>
</svg>
