<?xml version="1.0" encoding="UTF-8" standalone="no"?>
<svg xmlns:rdf="http://www.w3.org/1999/02/22-rdf-syntax-ns#" xmlns="http://www.w3.org/2000/svg" height="499.17944" width="481.3811" version="1.0" xmlns:cc="http://creativecommons.org/ns#" xmlns:dc="http://purl.org/dc/elements/1.1/" viewBox="0 0 481.38111 499.17945">
<path opacity=".5" d="m108.5065 0a5.1049983 5.1049983 0 0 0 -5.10351 5.10937l0.0215 22.90821-51.982422-13.4961a4.9230324 4.9230324 0 0 0 -1.46289 -0.15429 4.9230324 4.9230324 0 0 0 -2.628907 0.9082l-11.861328 8.44727a4.9230324 4.9230324 0 0 0 -1.402343 6.48242l11.458984 19.722654a4.9230324 4.9230324 0 0 0 2.972656 2.2793l54.94336 14.83789 0.004 3.33008-80.699223 21.52148a5.1331212 5.1331212 0 0 0 -2.625 1.67969l-18.957031 22.808586a5.1331212 5.1331212 0 0 0 1.412109 7.74219l18.511719 10.51563a5.1331212 5.1331212 0 0 0 4.103516 0.42578l78.29102-25.10352 0.16015 167.66016a5.1049983 5.1049983 0 0 0 5.10352 5.09961h24.625a5.1049983 5.1049983 0 0 0 5.10351 -5.10352v-173.86719l74.64258 14.35938a5.1331212 5.1331212 0 0 0 4.02539 -0.91602l16.49024-12.21875a5.1331212 5.1331212 0 0 0 0.94726 -7.335926l-16.93359-21.10547a5.1331212 5.1331212 0 0 0 -3.34375 -1.87696l-75.82813-9.83007v-1.79493l53.99024-14.58203a4.9230324 4.9230324 0 0 0 2.97265 -2.279294l11.45888-19.72266a4.9230324 4.9230324 0 0 0 -1.40039 -6.48242l-11.86328-8.44727a4.9230324 4.9230324 0 0 0 -2.76367 -0.91211 4.9230324 4.9230324 0 0 0 -1.32813 0.15625l-51.06641 13.25977v-18.92187a5.1049983 5.1049983 0 0 0 -5.10351 -5.10352h-24.88477z"/>
<path opacity=".2" d="m372.89049 281.59148-65.04231 0.51027-147.39975 102.70017 157.19692 96.23676 64.22588 7.51797 17.11102-17.21308 34.69831-4.55841 37.07955-30.7182-41.02564-57.42229 27.7636-40.10908-23.81751-41.568-60.79007-15.37611z"/>
<path d="m279.24674 66.333984a5.7364826 5.7364826 0 0 0 -5.73633 5.74024l0.20898 220.85937-119.34375 83.15235a10.62292 10.62292 0 0 0 0.52735 17.77539l157.19726 96.23632a10.62292 10.62292 0 0 0 4.31055 1.49024l64.22461 7.51953a10.62292 10.62292 0 0 0 8.76953 -3.0625l14.55469-14.64258 31.10351-4.08594a10.62292 10.62292 0 0 0 5.39453 -2.35156l37.07813-30.71875a10.62292 10.62292 0 0 0 1.86719 -14.35351l-36.63477-51.27539 25.56836-36.11329a10.62292 10.62292 0 0 0 0.19727 -11.98632l-25.98633-39.39844a10.62292 10.62292 0 0 0 -6.26172 -4.44922l-60.79102-15.37695a10.62292 10.62292 0 0 0 -2.6875 -0.32227l-59.86328 0.46875v-141.41406l95.38086 3.89258a5.7680838 5.7680838 0 0 0 3.90235 -1.31055l20.80468-17.14258a5.7680838 5.7680838 0 0 0 0.31055 -8.62695l-21.30273-20.302736a5.7680838 5.7680838 0 0 0 -4.07422 -1.59179l-95.02149 1.5664v-14.4414a5.7364826 5.7364826 0 0 0 -5.73633 -5.73438h-27.96093zm92.36328 225.88867 55.47265 14.03321 19.72071 29.89843-25.73828 36.35352a10.62292 10.62292 0 0 0 0.0273 12.3125l35.27734 49.375-27.10742 22.45703-31.66406 4.16016a10.62292 10.62292 0 0 0 -6.14844 3.04297l-13.47265 13.55078-56.77735-6.64649-141.3457-86.5332 93.89062-65.41797 0.0566 59.49219a5.7364826 5.7364826 0 0 0 5.73633 5.73047h27.66992a5.7364826 5.7364826 0 0 0 5.73633 -5.73633v-85.61133l58.66602-0.46094z"/>
</svg>
