<?xml version="1.0" encoding="UTF-8" standalone="no"?>
<svg xmlns:rdf="http://www.w3.org/1999/02/22-rdf-syntax-ns#" xmlns="http://www.w3.org/2000/svg" version="1.0" xmlns:cc="http://creativecommons.org/ns#" xmlns:dc="http://purl.org/dc/elements/1.1/" viewBox="0 0 306.37579 502.73828">
<path d="m48.96474 473.0951-6.54542 29.64318-42.41932-0.12588 72.62893-327.96308-41.91583-0.37763v-119.32796l122.53774-54.94373 122.53773 54.943729v119.32796l-41.91583 0.37763 72.50306 327.96308-42.29345 0.12588-6.54542-29.51731-104.34903-127.19505-104.22316 127.06918zm17.05585-77.22332 64.19542-78.16737-37.00677-44.87386-27.18865 123.04123zm137.45372-167.53747-11.8321-53.81087h-76.71981l-11.8321 53.74794 50.16054 61.48914 50.22347-61.42621zm9.81813 44.49624-37.00678 44.87386 64.19543 78.16737-27.18865-123.04123zm-136.57261-201.2086v60.230421h153.06202v-60.230421h-153.06202z"/>
</svg>
