<?xml version="1.0" encoding="UTF-8" standalone="no"?>
<svg xmlns:rdf="http://www.w3.org/1999/02/22-rdf-syntax-ns#" xmlns="http://www.w3.org/2000/svg" height="527.96484" width="431.47437" version="1.0" xmlns:cc="http://creativecommons.org/ns#" xmlns:dc="http://purl.org/dc/elements/1.1/" viewBox="0 0 431.47437 527.96485">
<path opacity=".75" d="m263.56843 268.72719c-0.0386 1.63424-0.0601 3.27231-0.0601 4.92297 0 65.38206 30.66658 118.3531 68.48812 118.3531 37.82155 0 68.48812-52.97104 68.48812-118.3531 0-1.65066-0.0212-3.28873-0.0601-4.92297-50.47242-12.97123-105.51471-8.53669-136.85624 0h0.00007z"/>
<path d="m60.445065 0a7.8609244 7.8609244 0 0 0 -7.85937 7.859375v101.94142c-6.25941 2.53484-12.21761 5.7244-18.49219 9.05859-7.170961 3.81051-13.838901 7.90374-19.910158 13.10547-3.035629 2.60086-5.9910877 5.40725-8.8828127 9.76953-2.600981 3.92368-5.81718 10.03126-5.230468 18.39648v333.12305a23.760667 23.760667 0 0 0 9.27539 18.83203c10.144955 7.80271 19.655205 9.85586 30.707029 12.02539 11.05184 2.16953 23.33342 3.31728 36.05664 3.52735 25.446455 0.42014 51.662775-1.52073 73.650395-13.53711a23.760667 23.760667 0 0 0 12.36524 -20.84766v-334.18945a23.760667 23.760667 0 0 0 -1.75391 -8.95703c-3.07904-7.56426-5.86554-9.29638-8.39062-11.69141s-5.06381-4.39725-7.8418-6.42773c-5.55598-4.06098-12.01947-8.09106-18.97656-11.92969-6.43133-3.54854-12.42225-7.16929-18.96289-10.04492v-102.1543a7.8609244 7.8609244 0 0 0 -7.859385 -7.85938h-37.89453zm200.62892 19.158204c-26.07648 0-42.85741 19.880812-42.85743 53.960937 0 34.338309 16.52277 54.476569 42.85743 54.476569s43.11718-20.39644 43.11718-54.476569c0-33.821942-17.0407-53.960937-43.11718-53.960937zm107.91992 3.099609-107.91992 173.24024h18.07226l107.92188-173.24024h-18.07422zm-108.69336 8.519531c11.61823 0 18.07226 14.19988 18.07227 42.341797 0 28.400109-6.45404 42.599609-18.07227 42.599609s-17.55664-14.1995-17.55664-42.599609c0-28.141917 6.19659-42.341797 17.55664-42.341797zm128.05859 59.640626c-26.07648 0-43.11718 19.87887-43.11718 53.95899 0 34.33831 16.78252 54.21875 43.11718 54.21875s43.11524-20.13862 43.11524-54.21875c0-33.56376-17.03876-53.95899-43.11524-53.95899zm-0.51758 11.35938c11.61825 0 17.81446 14.4577 17.81446 42.59961 0 28.4001-5.93802 42.60156-17.81446 42.60156-11.61822 0-17.81445-14.45964-17.81445-42.60156 0-28.14191 6.45442-42.59961 17.81445-42.59961zm-124.76953 167.65429c-0.0387 1.63424-0.0605 3.27319-0.0605 4.92383 0 57.68085 23.87103 105.69269 55.46289 116.20508v91.01758a65.176631 23.383568 0 0 0 -53.61719 23.00391 65.176631 23.383568 0 0 0 65.17773 23.38281 65.176631 23.383568 0 0 0 65.17579 -23.38281 65.176631 23.383568 0 0 0 -52.73633 -22.94532v-90.44922c32.60493-9.07448 57.51367-57.90836 57.51367-116.83203 0-1.65064-0.0197-3.28958-0.0586-4.92383-38.19078 12.48062-78.9837 20.59109-136.85743 0z"/>
</svg>
