<?xml version="1.0" encoding="UTF-8" standalone="no"?>
<svg xmlns:rdf="http://www.w3.org/1999/02/22-rdf-syntax-ns#" xmlns="http://www.w3.org/2000/svg" height="527.96484" width="431.4744" version="1.0" xmlns:cc="http://creativecommons.org/ns#" xmlns:dc="http://purl.org/dc/elements/1.1/" viewBox="0 0 431.4744 527.96485">
<path opacity=".75" d="m333.99088 255.54624c-3.11364-0.0194-6.19705 0.008-9.24219 0.0781-24.36109 0.56038-46.31773 3.87961-62.49219 8.28515a4.9946749 4.9946749 0 0 0 -3.67383 4.70703l-0.008-0.008c-0.0394 1.66923-0.0605 3.34699-0.0605 5.04102 0 33.47184 7.78635 63.82845 20.73242 86.19726 12.94606 22.36882 31.50769 37.15039 52.75 37.15039s39.80393-14.78157 52.75-37.15039c12.94606-22.36881 20.73242-52.72542 20.73242-86.19726 0-1.69342-0.0227-3.37056-0.0625-5.04102a4.9946749 4.9946749 0 0 0 -3.75 -4.71875c-22.56886-5.80011-45.88034-8.20796-67.67578-8.34375z"/>
<path d="m60.445066 0a7.8609244 7.8609244 0 0 0 -7.85937 7.859375v101.94142c-6.25941 2.53484-12.21761 5.7244-18.49219 9.05859-7.17096 3.81051-13.8389 7.90374-19.91016 13.10547-3.03562 2.60086-5.9910801 5.40725-8.8828101 9.76953-2.60098 3.92368-5.81718 10.03126-5.23047 18.39648v333.12305a23.760667 23.760667 0 0 0 9.27539 18.83203c10.14496 7.80271 19.65521 9.85586 30.70703 12.02539 11.05184 2.16953 23.33342 3.31728 36.05664 3.52735 25.446464 0.42014 51.662784-1.52073 73.650404-13.53711a23.760667 23.760667 0 0 0 12.36524 -20.84766v-334.18945a23.760667 23.760667 0 0 0 -1.75391 -8.95703c-3.07904-7.56426-5.86554-9.29638-8.39062-11.69141s-5.06381-4.39725-7.8418-6.42773c-5.55598-4.06098-12.01947-8.09106-18.97656-11.92969-6.43133-3.54854-12.42225-7.16929-18.96289-10.04492v-102.1543a7.8609244 7.8609244 0 0 0 -7.859394 -7.85938h-37.89453zm200.62892 19.158204c-26.07648 0-42.85741 19.880808-42.85743 53.960938 0 34.338308 16.52277 54.476568 42.85743 54.476568s43.11718-20.39644 43.11718-54.476568c0-33.82194-17.0407-53.960938-43.11718-53.960938zm107.91992 3.099609-107.91992 173.24024h18.07226l107.92188-173.24024h-18.07422zm-108.69336 8.519531c11.61823 0 18.07226 14.199878 18.07227 42.341798 0 28.400108-6.45404 42.599608-18.07227 42.599608s-17.55664-14.1995-17.55664-42.599608c0-28.14192 6.19659-42.341798 17.55664-42.341798zm128.05859 59.640628c-26.07648 0-43.11718 19.878868-43.11718 53.958988 0 34.33831 16.78252 54.21875 43.11718 54.21875s43.11526-20.13862 43.11526-54.21875c0-33.56376-17.03878-53.958988-43.11526-53.958988zm-0.51758 11.359378c11.61825 0 17.81446 14.4577 17.81446 42.59961 0 28.4001-5.93802 42.60156-17.81446 42.60156-11.61822 0-17.81445-14.45964-17.81445-42.60156 0-28.14191 6.45442-42.59961 17.81445-42.59961zm-124.76953 167.65429c-0.0387 1.63424-0.0605 3.27319-0.0605 4.92383 0 57.68085 23.87103 105.69269 55.46289 116.20508v91.01758a65.176631 23.383568 0 0 0 -53.61719 23.00391 65.176631 23.383568 0 0 0 65.17773 23.38281 65.176631 23.383568 0 0 0 65.17579 -23.38281 65.176631 23.383568 0 0 0 -52.73633 -22.94532v-90.44922c32.60493-9.07448 57.51367-57.90836 57.51367-116.83203 0-1.65064-0.0197-3.28958-0.0586-4.92383-38.19078 12.48062-78.9837 20.59109-136.85743 0z"/>
</svg>
