<?xml version="1.0" encoding="UTF-8" standalone="no"?>
<svg xmlns:rdf="http://www.w3.org/1999/02/22-rdf-syntax-ns#" xmlns="http://www.w3.org/2000/svg" version="1.0" xmlns:cc="http://creativecommons.org/ns#" xmlns:dc="http://purl.org/dc/elements/1.1/" viewBox="0 0 475.56549 356.73959">
<path opacity=".2" d="m346.06651 17.376404c-7.19583 0.25383-8.81595 9.67767-5.24219 14.66992 2.64349 6.62509 1.68079 16.22668 8.55664 20.45703 6.10598 2.64073 13.18936-4.82992 9.56445-10.72461-2.87542-7.48356-2.49795-16.84455-8.05078-23.00586-1.39041-0.99041-3.12122-1.50661-4.82812-1.39648zm-159.55078 12.8457c-8.76912 1.7347-18.6975-0.81823-26.76758 3.66797-5.64291 4.83843 0.14599 15.42034 7.35547 12.78125 8.04409-1.40981 17.52434 1.00054 24.67773-3.71289 4.33282-4.35672 1.00524-12.84152-5.26562-12.73633zm-103.52149 10.36133c-8.11162-0.24769-9.6655 13.54244-1.42487 14.65834 8.39502 1.4082 16.92937 5.57854 25.565504 4.59752 6.69511-2.27277 5.60286-13.72147-1.39649-14.44336-7.618454-1.42429-15.029894-3.89368-22.744144-4.8125zm195.41992 6.09961c-8.30594 2.07781-13.43713 9.83893-21.02734 13.33008-5.07399 3.574-4.14974 12.9222 2.50977 13.92382 8.00978 0.95028 12.44418-7.65167 19.19531-10.41601 4.97076-2.4739 10.17045-9.06734 5.46094-14.23633-1.50632-1.74235-3.83271-2.75793-6.13868-2.60156zm153.07032 12.71679c-8.76912 1.73471-18.6975-0.81822-26.76758 3.66797-5.64163 4.83892 0.14233 15.41255 7.34766 12.78321 8.06591-1.42276 17.54626 1.00918 24.68554-3.7168 4.32812-4.35893 1.00588-12.83854-5.26562-12.73438zm-382.5918 43.214846c-8.024391 1.52939-12.705705 9.24181-20.013672 12.33203-5.061042 2.95087-6.706431 11.21616-0.832031 14.27539 6.977888 3.27711 12.454949-4.09846 17.59375-7.54492 5.076183-2.72517 13.017333-7.44114 10.386723-14.37695-1.15845-2.79665-4.07184-4.83105-7.13477-4.68555zm254.16406 17.32031c-8.66794 2.44389-17.67548 4.84211-25.53906 9.18359-5.55623 5.19471 1.49053 15.75435 8.34901 12.06669 7.64534-3.46588 17.68909-3.58098 23.9088-9.84598 3.03333-4.76529-0.94956-11.94434-6.71875-11.4043zm-101.06054 3.20313c-8.76988 1.7363-18.70317-0.82132-26.77149 3.67187-5.63347 4.8439 0.15164 15.40605 7.35352 12.7793 8.06591-1.42276 17.54627 1.00918 24.68554-3.7168 4.33046-4.35827 1.00268-12.83907-5.26757-12.73437zm231.77929 2.21875c-7.50853 0.31301-9.27047 12.36847-1.91797 14.61523 7.11217 3.79866 13.05635 10.74189 21.28321 12 7.40519-0.21745 9.49484-12.06365 2.3371-14.51394-7.27161-3.65593-13.34653-11.10035-21.70234-12.10129zm-115.91211 56.86132c-8.12201-0.24489-9.66302 13.55105-1.42897 14.68462 8.44504 1.41983 16.91294 5.53416 25.54616 4.57515 7.07814-2.48838 5.34943-14.56119-2.28848-14.60183-7.30189-1.42484-14.42064-3.78219-21.82871-4.65794zm-175.89648 4.86133c-7.52973 0.29297-9.25173 12.38299-1.97656 14.57813 7.13212 3.78121 13.08693 10.78124 21.33007 12.03515 7.25298-0.21739 9.51873-11.8366 2.54883-14.41601-7.27421-3.61096-13.4419-11.19681-21.90234-12.19727zm-91.705084 1.23633c-8.769873 1.7363-18.703164-0.82131-26.771484 3.67188-5.633473 4.8439 0.15164 15.40605 7.353516 12.77929 8.065915-1.42276 17.546268 1.00919 24.685548-3.71679 4.33045-4.35827 1.00267-12.83907-5.26758-12.73438zm382.01563 13.72852c-8.34057 2.10244-13.46397 9.83977-21.03907 13.31445-5.09831 3.57015-4.1657 12.95001 2.51172 13.94141 8.00854 0.9478 12.45103-7.6368 19.1836-10.43165 4.94607-2.47248 10.16285-9.00006 5.51562-14.1875-1.5075-1.76273-3.84933-2.79496-6.17187-2.63671zm-360.78711 37.11132c-7.27279 0.10654-9.06335 9.66193-5.41602 14.69532 2.64823 6.56391 1.67392 16.28107 8.56641 20.4414 6.11865 2.62357 13.204-4.88296 9.51562-10.76172-2.90659-7.49535-2.35886-17.03755-8.18945-23.08398-1.30664-0.88566-2.89671-1.35772-4.47656-1.29102zm306.02343 12.60352c-7.40739 0.35153-8.43805 9.57742-6.67187 15.18164 0.85488 6.7421-2.29316 16.31912 4.84375 20.58594 5.91321 2.77051 12.86358-3.8868 10.42773-9.97852-1.17115-7.75518 1.74967-17.01428-3.10742-23.77148-1.46294-1.3687-3.48661-2.13536-5.49219-2.01758zm-251.0664 42.08008c-8.11945-0.2456-9.66566 13.547-1.43309 14.6836 8.43855 1.42341 16.89599 5.52019 25.52684 4.58788 6.98176-2.3827 5.56401-14.29906-1.97524-14.54312-7.3912-1.46942-14.61417-3.83191-22.11851-4.72836zm194.01953 9.40625c-8.76911 1.7347-18.69749-0.81823-26.76758 3.66797-5.64163 4.83891 0.14233 15.41254 7.34766 12.7832 8.06653-1.42289 17.54759 1.00929 24.6875-3.7168 4.33045-4.35826 1.00267-12.83907-5.26758-12.73437zm-112.20117 5.38281c-7.52768 0.29432-9.25089 12.38282-1.97657 14.57812 7.13213 3.78122 13.08694 10.78124 21.33008 12.03516 7.25298-0.2174 9.51873-11.8366 2.54883-14.41601-7.27421-3.61096-13.4419-11.19681-21.90234-12.19727z"/>
<path d="m149.92588 0.0072639c-1.06073-0.0112-2.12218-0.009-3.18359 0.004-20.77687 0.25561-41.59823 5.17223-60.832034 14.9336-0.21623 0.0997-0.41739 0.21584-0.63281 0.3164-0.2841 0.14604-0.57991 0.25418-0.86329 0.40235v0.0293c-81.293857 38.6036-104.571 140.66105-66.789058 215.87685 52.473278 109.81397 186.72358 147.35766 294.31836 112.68554 98.66066-27.23883 180.91328-124.36221 160.48242-234.0625-0.12703-0.6821-0.20874-1.35991-0.34375-2.04297h-0.0586c-11.49939-76.230316-89.71734-121.9845-161.74805-104.05273-25.89224 6.447064-48.95494 17.160844-69.55078 30.847664-25.4631-22.58419-57.91598-34.58919-90.79883-34.9375zm196.20313 19.36914c2.5641-0.1804 4.98152 1.45693 5.69922 4.02929l5.69726 20.37305c0.0378 0.11924 0.0856 0.25151 0.11524 0.37305 0.72046 2.9678-1.11814 5.95531-4.08594 6.67578-2.9678 0.72046-5.95727-1.11813-6.67773-4.08594l-5.69727-20.37305c-0.82022-2.93984 0.88828-5.97079 3.82812-6.79101 0.36748-0.10257 0.7548-0.17537 1.1211-0.20117zm-160.10742 12.86328c3.05134-0.12714 5.62872 2.24356 5.75586 5.29492 0.12714 3.05134-2.24358 5.62676-5.29493 5.75391l-21.09375 1.61132c-3.0434 0.23044-5.69729-2.0484-5.92773-5.09179-0.23043-3.0434 2.05035-5.69731 5.09375-5.92774l21.0918-1.61133c0.12433-0.0138 0.25001-0.0243 0.375-0.0293zm-102.47071 10.33008c0.36714 0.007 0.72162 0.0604 1.09375 0.14453l20.660164 4.63281c0.12291 0.0233 0.22465 0.0544 0.3457 0.0859 2.9544 0.7736 4.74431 3.80732 3.97071 6.76172-0.77358 2.95439-3.80733 4.71695-6.76172 3.94336l-20.632824-4.66211c-2.9771-0.6725-4.84437-3.61275-4.17187-6.58985 0.58846-2.60496 2.92618-4.3686 5.49609-4.3164zm195.33008 6.09961c1.7751 0.0107 3.51717 0.88853 4.57617 2.47656 1.6944 2.54084 1.01547 5.95989-1.52539 7.6543l-17.20898 12.34374c-2.48037 1.77852-5.90505 1.21477-7.6836-1.26562-1.7785-2.48038-1.21279-5.93436 1.26758-7.71289l17.17774-12.34375c0.099-0.0764 0.18508-0.13167 0.28906-0.20117 0.95282-0.6354 2.04236-0.95717 3.10742-0.95117zm152.10938 12.74804c3.05134-0.12713 5.62676 2.24357 5.7539 5.29492 0.12714 3.05134-2.24358 5.62872-5.29492 5.75586l-21.0918 1.61133c-3.0434 0.23044-5.69729-2.05035-5.92773-5.09375-0.23043-3.0434 2.05035-5.69729 5.09375-5.92773l21.0918-1.61133c0.12433-0.0138 0.25001-0.0243 0.375-0.0293zm-88.46875 6.12305c29.90804 0.61531 59.36787 22.0532 63.31836 51.572266l0.14257 1.0371 0.20313 1.03516c8.57583 43.391-11.62463 87.5938-44.75195 119.08594-1.3 1.41089-2.69443 2.70753-4.1875 3.85742-18.6985 16.64108-41.06978 29.30797-64.52344 35.7832l-0.69141 0.20313-0.6914 0.20117c-54.78738 17.65508-121.07909 7.9395-167.66993-25.13086-3.23531-1.71549-6.19932-3.96134-8.75195-6.67773-15.459584-12.69363-28.231784-28.24673-36.949224-46.49024l-0.14453-0.28906-0.14453-0.31641c-21.50334-42.80857-6.64194-105.64513 36.343754-125.46093l0.75-0.34571 0.74805-0.40429c9.95544-5.20541 21.27079-7.70123 32.63086-7.6543 14.60579 0.0603 29.28836 4.3205 41.29296 12.375-33.37094 37.134786-61.88723 89.805596-80.45703 131.33203-5.15426 10.99582-3.9832 23.90471 3.08008 33.7832 0.87883 1.22911 1.83119 2.38696 2.84961 3.47071 2.82967 2.3234 5.75035 4.54718 8.75195 6.67773 5.84815 3.10091 12.58357 4.46543 19.38868 3.7207 12.07182-1.32111 22.49242-9.05617 27.25195-20.22851 17.28827-38.66062 43.11642-84.51862 70.21289-114.29883 24.93521 26.53609 52.67537 69.71897 64.28516 103.56641 3.76101 11.52541 13.43558 20.1172 25.32226 22.50195 9.63216 1.93245 19.50461-0.45703 27.11524-6.31836 1.41839-1.26232 2.81253-2.55032 4.1875-3.85742 0.25102-0.27243 0.51092-0.53453 0.7539-0.81641 7.91558-9.18281 10.26924-21.917 6.1582-33.32226-14.36707-41.88613-45.68834-91.70925-75.01953-123.88086 10.49903-5.56489 21.50886-10.04372 33.17774-12.94922 4.31468-1.07413 8.71222-1.64654 13.12305-1.75586 0.96485-0.0239 1.92975-0.0256 2.89453-0.006zm-293.24219 37.070306c1.7027 0.0729 3.35377 0.94612 4.37305 2.47461 1.6944 2.54084 1.01546 5.98919-1.52539 7.68359l-17.177739 12.34376c-2.480374 1.77852-5.934374 1.18544-7.712891-1.29493-1.778513-2.48038-1.214751-5.93241 1.265625-7.71093l17.179687-12.31641c0.09904-0.0764 0.212407-0.16097 0.316407-0.23047 0.794011-0.52951 1.672531-0.83932 2.560551-0.91992 0.24421-0.0223 0.47745-0.0397 0.7207-0.0293zm254.06055 17.29297c2.35724 0.023 4.52447 1.56687 5.23828 3.94336 0.87855 2.92489-0.78798 6.02771-3.71289 6.90625l-20.02735 6.76172c-2.89164 0.97666-6.04482-0.56149-7.02148-3.45313-0.97665-2.89163 0.59079-6.01552 3.48242-6.99218l20.02734-6.79102c0.11703-0.0442 0.22596-0.0791 0.34571-0.11523 0.54842-0.16477 1.12399-0.26477 1.66797-0.25977zm-101.83789 3.25195c3.05134-0.12714 5.62871 2.24358 5.75585 5.29493 0.12713 3.05135-2.24357 5.62871-5.29492 5.75585l-21.09179 1.61133c-3.04339 0.23044-5.69731-2.05036-5.92774-5.09375-0.23044-3.0434 2.0484-5.6973 5.0918-5.92773l21.09375-1.61133c0.12433-0.0138 0.24807-0.0243 0.37305-0.0293zm232.9121 2.1875c1.06415-0.0243 2.14463 0.27371 3.10743 0.89258l17.8125 11.42383c0.10754 0.0639 0.21346 0.13007 0.3164 0.20117 2.51155 1.73753 3.14768 5.17205 1.41016 7.6836-1.73753 2.51155-5.20135 3.14768-7.71289 1.41015l-17.7832-11.42383c-2.56746-1.65031-3.31827-5.08682-1.66797-7.65429 1.03144-1.60467 2.74399-2.49261 4.51757-2.53321zm-115.99609 56.86133c0.36713 0.007 0.72162 0.0585 1.09375 0.14258l20.63281 4.66211c0.12292 0.0233 0.252 0.0271 0.37305 0.0586 2.95439 0.7736 4.71695 3.80734 3.94336 6.76172-0.77358 2.95439-3.77997 4.71501-6.73438 3.94141l-20.63086-4.63281c-2.9771-0.6725-4.84632-3.6401-4.17382-6.61719 0.58845-2.60497 2.92619-4.36861 5.49609-4.31641zm-175.81836 4.86328c1.06415-0.0243 2.14462 0.24441 3.10742 0.86328l17.8125 11.42383c0.10754 0.0639 0.21345 0.13007 0.31641 0.20117 2.51155 1.73753 3.11839 5.1994 1.38086 7.71094-1.73754 2.51155-5.17205 3.14768-7.6836 1.41016l-17.8125-11.45117c-2.56746-1.65031-3.29093-5.05949-1.64062-7.62696 1.03144-1.60466 2.74595-2.49065 4.51953-2.53125zm-92.832034 1.26563c3.05135-0.12714 5.62872 2.24357 5.75586 5.29492s-2.24358 5.62873-5.29492 5.75586l-21.091799 1.61133c-3.043398 0.23043-5.697295-2.05036-5.927735-5.09375-0.23044-3.0434 2.048399-5.69731 5.091797-5.92774l21.093747-1.61132c0.12433-0.0138 0.24807-0.0243 0.37305-0.0293zm382.97656 13.69726c1.7751 0.0107 3.51716 0.88658 4.57617 2.47461 1.69439 2.54084 0.98618 5.9599-1.55468 7.6543l-17.17774 12.3457c-2.48038 1.77852-5.93437 1.21281-7.71289-1.26757-1.77851-2.48039-1.21476-5.93242 1.26563-7.71094l17.20898-12.34571c0.099-0.0764 0.18311-0.13167 0.28711-0.20117 0.95282-0.63539 2.04236-0.95522 3.10742-0.94922zm-360.81836 37.1211c2.35488 0.0694 4.48396 1.66802 5.15039 4.05664l5.69727 20.37304c0.0378 0.11924 0.0856 0.22418 0.11523 0.34571 0.72046 2.9678-1.11814 5.95531-4.08593 6.67578-2.9678 0.72046-5.95532-1.08885-6.67578-4.05664l-5.69727-20.37305c-0.82022-2.93983 0.91563-6.00008 3.85547-6.82031 0.55121-0.15377 1.09719-0.21717 1.64062-0.20117zm305.71289 12.60351c3.04913-0.13494 5.62092 2.2458 5.75586 5.29493l0.94922 21.12109c0.01 0.12471 0.0283 0.24991 0.0293 0.375 0.0315 3.05384-2.44226 5.55063-5.49609 5.58203-3.05384 0.0315-5.55054-2.41492-5.58204-5.46875l-0.95117-21.12109c-0.13495-3.04912 2.24579-5.64826 5.29492-5.78321zm-250.63671 42.07032c0.36713 0.007 0.75091 0.0604 1.12304 0.14453l20.63086 4.66015c0.12291 0.0233 0.25395 0.0544 0.375 0.0859 2.95439 0.7736 4.71501 3.77999 3.94141 6.73438-0.77358 2.95439-3.80733 4.71695-6.76172 3.94335l-20.63281-4.63476c-2.9771-0.67251-4.84438-3.6401-4.17188-6.61719 0.58846-2.60496 2.92618-4.3686 5.4961-4.3164zm192.9707 9.4375c3.05135-0.12714 5.62872 2.24357 5.75586 5.29492s-2.24358 5.62873-5.29492 5.75586l-21.09375 1.61133c-3.04339 0.23043-5.69732-2.05035-5.92774-5.09376-0.23044-3.04339 2.05034-5.69729 5.09375-5.92773l21.0918-1.61133c0.12433-0.0138 0.25001-0.0243 0.375-0.0293zm-111.07422 5.35351c1.06415-0.0243 2.14461 0.24441 3.10742 0.86328l17.8125 11.42383c0.10754 0.0639 0.21346 0.13007 0.31641 0.20117 2.51155 1.73753 3.11839 5.19939 1.38086 7.71094s-5.17204 3.14769-7.6836 1.41016l-17.8125-11.45118c-2.56747-1.65031-3.28898-5.05948-1.63867-7.62695 1.03144-1.60467 2.744-2.49065 4.51758-2.53125z"/>
</svg>
