<?xml version="1.0" encoding="UTF-8" standalone="no"?>
<svg xmlns:rdf="http://www.w3.org/1999/02/22-rdf-syntax-ns#" xmlns="http://www.w3.org/2000/svg" version="1.0" xmlns:cc="http://creativecommons.org/ns#" xmlns:dc="http://purl.org/dc/elements/1.1/" viewBox="0 0 449.05478 515.55713">
<path opacity=".1" d="m269.40616 344.82407c3.10049 25.73199 89.81324 145.37466 119.13056 167.07328 11.31614 8.37502 19.22803 1.54142 38.44834-12.03587 19.21964-13.58693 26.45536-25.15717 19.4514-41.51544-14.37578-33.57714-77.25961-154.12539-106.78368-173.44446-28.40618-41.34844-52.20825-72.61026-75.61585-129.93803-24.21877-59.31235-39.67579-119.5656-48.94335-154.96355-32.96993 9.566404-87.56795 32.70689-121.15785 48.198106-37.424482 17.25742-64.196382 34.107014-93.93573 50.057444 9.4069 27.35369 31.898898 94.72635 78.870718 167.51001 37.114952 57.51082 68.318062 103.30047 103.50444 138.13644z"/>
<path d="m185.36679 375.6042s-42.9115-50.32077-87.530192-123.5219c-35.40138-58.07601-68.14279-134.57191-71.14122-142.69966 24.16735-17.57213 147.49773-73.114438 172.50265-78.557558 7.27089 28.089069 18.65369 83.095088 42.70348 136.53401 24.84709 55.21154 54.75708 98.25554 65.8894 112.80264-26.6394 25.12827-122.42412 95.44247-122.42412 95.44247zm84.03937-30.78013c3.10049 25.73199 89.81324 145.37466 119.13056 167.07328 11.31614 8.37502 19.22803 1.54142 38.44834-12.03587 19.21964-13.58693 26.45536-25.15717 19.4514-41.51544-14.37578-33.57714-77.25961-154.12539-106.78368-173.44446-28.40618-41.34844-52.20825-72.61026-75.61585-129.93803-24.21877-59.31235-39.67579-119.5656-48.94335-154.96355-32.96993 9.566404-87.56795 32.70689-121.15785 48.198106-37.424482 17.25742-64.196382 34.107014-93.93573 50.057444 9.4069 27.35369 31.898898 94.72635 78.870718 167.51001 37.114952 57.51082 68.318062 103.30047 103.50444 138.13644l87.031-59.07793zm-130.39417-239.32708c0-13.30434 11.39051-24.09745 25.44143-24.09745 14.05093 0 25.44147 10.79311 25.44147 24.09745 0 13.31396-11.39054 24.10708-25.44147 24.10708-14.05092 0-25.44143-10.79312-25.44143-24.10708z"/>
</svg>
