<?xml version="1.0" encoding="UTF-8" standalone="no"?>
<svg xmlns:rdf="http://www.w3.org/1999/02/22-rdf-syntax-ns#" xmlns="http://www.w3.org/2000/svg" version="1.0" xmlns:cc="http://creativecommons.org/ns#" xmlns:dc="http://purl.org/dc/elements/1.1/" viewBox="0 0 495.29849 391.43741">
<path opacity=".1" d="m433.14628 6.5965612-35.24609 30.29883-41.42773 17.93164-17.93165 43.28321 51.93946 6.800779 46.375-30.916019 33.39062-5.56445 16.69532-14.8418-4.94727-17.93164-29.67969-19.78516-19.16797-9.2753898zm-361.10937 126.14063l-33.390626 12.36719-23.496094 22.25976-8.6562496 35.86328 4.9453116 43.90235 14.222657 32.77148 43.902341 49.4668 56.267579 33.39062 60.59766 17.93164 51.93945 3.0918 20.40625-12.36719 13.60352-22.8789 9.89257-74.19922-52.55859-98.31641-85.94922-35.86328-71.726559-7.41992z"/>
<path d="m437.36564 0.00058117696c-4.15679 0.011100003-7.61395 1.13708-10.43833 2.4936-4.93987 2.44765-8.47127 5.59494-11.83009 8.8145798-4.94359 4.83039-9.3031 10.10894-13.0479 14.26571-1.85199 2.06539-3.51563 3.85893-4.75524 4.9872-0.6124 0.56598-1.11898 0.96682-1.39177 1.15981-0.0464 0.0353-0.0863 0.0377-0.11598 0.0579l-22.79034 9.80042c-0.80535-0.013-1.55925 0-2.37761 0-31.1368 0.0427-58.996 9.07763-85.30428 17.33921-29.00276 9.18572-56.70281 20.10096-84.66637 25.51589-12.84144 2.52376-27.3215 3.21779-42.44917 4.4073-15.11842 1.22476-30.95589 2.89489-46.50852 8.35065-13.830559 4.850789-25.542339 10.353889-38.099869 18.209069-5.50032 3.47389-10.33718 7.65616-14.961592 11.07622-4.496346 3.44234-8.820149 5.85613-10.438321 6.205l-7.132852 4.75524s-6.425199 4.90994-9.75854 7.76798l-13.420939 11.50724c-13.487738 11.56453-17.885342 40.81888-17.87792 57.15648v0.0579 0.23197c0.11691038 25.03528 8.2383874 48.7117 21.224585 69.76277 13.045581 21.14015 30.973976 39.82243 51.321747 55.55506 40.882959 31.35948 92.218149 51.76665 140.68536 51.95964 9.46781-0.004 18.8646-0.79795 28.00949-2.55159 8.55106-1.5699 15.98177-5.64458 21.63052-10.84425 3.5518-3.26233 10.17853-6.93569 12.52599-10.78627 4.11039-1.86127 4.31868-4.44719 7.48079-7.77075 4.66709-4.83967 7.7225-10.18084 11.25019-16.7593 5.82136-11.00062 12.91383-22.73513 18.55702-35.37431 6.43559-14.5821 8.75009-29.96447 10.96023-44.36286 2.13775-14.39655 4.1461-27.86892 8.17669-38.27384 4.10667-10.76862 11.24137-19.83003 20.12276-29.45926 8.81085-9.61996 19.28584-19.56976 28.24146-32.41678 6.97185-10.12102 15.20097-19.0743 22.38439-30.32912 6.3205-9.82594 11.45339-21.90702 12.52599-36.476129l17.97711-9.45248 1.50775-1.56575c1.94476-1.92253 3.51238-2.74876 5.97304-3.53743 3.63718-1.18578 9.37872-1.41358 16.70131-2.02968 7.14817-0.6699 16.72962-2.15122 25.34193-9.10453 3.55179-2.88933 6.55665-5.96562 8.87257-9.68444 2.30478-3.67245 3.84594-8.20128 3.82738-12.87393 0.013-3.80976-1.02991-7.49518-2.55159-10.43832-2.71862-5.19411-6.42351-8.44669-10.09037-11.07622-5.55968-3.88584-11.51231-6.40078-17.10725-8.40865-2.43654-0.85919-4.81415-1.62698-7.01687-2.26163-1.22664-2.72232-2.67592-5.2122-4.63925-7.5967798-1.87239-2.23426-4.27368-4.33121-7.19085-5.79907-2.90046-1.48456-6.28387-2.22405-9.33649-2.20364zm-0.52192 13.91776c4.3907-0.29867 8.31117 3.22679 11.13421 13.33786 13.28682 2.98768 48.82998 13.65239 25.86384 32.24281-14.13303 11.44225-34.56801 0.94453-49.17609 15.77346l-23.31225 12.23603c-0.013-0.44351-0.0358-0.88283-0.0579-1.33378-5.89371 2.13962-11.94467 4.72879-18.0351 5.85705-0.87589-6.19804-2.25052-12.22955-3.88537-18.15107-4.53162 1.79446-10.05 3.36809-14.55566 4.17532 1.72209-8.39148 3.64135-14.81684 7.94472-21.22458l28.82137-12.35201c9.43919-4.10274 24.03764-29.79782 35.25832-30.56109zm-366.90696 132.3927c1.05999-0.0327 2.12593 0.00046 3.18948 0 25.35631 0.0501 51.823249 8.71901 72.024419 16.35337 16.41369 6.23889 29.97607 12.02031 42.33318 20.06477 12.36081 8.02964 23.30344 18.31577 34.50445 32.9387 17.54568 22.92535 35.7988 51.56669 43.20305 81.47689 1.77964 7.26507 2.95381 16.461 2.95752 26.0958-0.0241 10.62946-1.39224 21.77434-5.62509 31.48893-4.09741 9.62367-12.03794 18.26614-23.89216 20.47071-8.1929 1.57176-16.69064 2.31592-25.34192 2.31963-44.47558-0.0742-93.6373-19.32064-132.27671-49.06011-38.494673-29.74873-66.967164-70.35103-67.095207-114.53157-0.0037-14.33902 3.093918-28.961 9.800423-43.26104l11.656124-12.98991 12.873929-7.88673c6.991837-2.19205 14.268502-3.25126 21.688512-3.47944zm31.082999 65.64544c8.61973 0.0612 17.69921 2.00647 24.53005 7.71276 2.61654 2.25467 5.77169 5.73829 8.64061 10.03238 2.78912 4.31265 5.41262 9.2915 5.50911 15.30954 0.007 2.45882-0.51449 5.16024-1.91369 7.59678-1.88539 3.31615-4.96864 5.55968-8.00271 6.72691-3.05636 1.19877-6.12799 1.55833-9.10454 1.56575-8.09087-0.0408-15.96831-2.64994-19.94879-3.94336l-0.52191-0.17388-17.455189-9.51047-0.69589-0.40594-0.6379-0.52191c-5.25906-4.93802-8.51025-10.12517-8.58262-16.06342-0.0241-3.42933 1.30456-6.71068 3.24748-9.10453 1.94665-2.42169 4.37806-4.12987 7.01687-5.45113 5.2906-2.60913 11.50952-3.74712 17.919119-3.76939zm0 12.98991c-3.551819-0.009-6.984399 0.55532-9.684449 1.44976-2.72044 0.87033-4.55018 2.13684-5.10317 2.89954-0.38599 0.52889-0.38181 0.64996-0.40594 0.98584-0.0687 0.45836 0.44491 2.61051 3.88538 5.97304l15.715469 8.58262c3.66315 1.21734 10.30981 3.11618 15.25154 3.0735 1.88167 0.0111 3.44187-0.26675 4.3493-0.6379 0.93344-0.40268 1.15657-0.69217 1.44977-1.15981 0.12619-0.2338 0.22454-0.47645 0.23196-1.10182 0.0965-1.50681-1.16027-4.99184-3.30547-8.11869-2.06539-3.14171-4.85683-6.08207-6.32098-7.30683-3.0879-2.76683-9.63155-4.7042-16.06341-4.63925z"/>
</svg>
