<?xml version="1.0" encoding="UTF-8" standalone="no"?>
<svg xmlns:rdf="http://www.w3.org/1999/02/22-rdf-syntax-ns#" xmlns="http://www.w3.org/2000/svg" version="1.0" xmlns:cc="http://creativecommons.org/ns#" xmlns:dc="http://purl.org/dc/elements/1.1/" viewBox="0 0 502.50159 420.24799">
<path d="m142.91852 0c-31.72951 0-48.561307 17.322245-56.331887 37.598565l-41.24848 106.50728c-16.351648 2.09672-45.338153 21.29052-45.338153 57.65114v135.44277h40.149113v43.31533c0 53.29057 75.416987 52.66295 75.416997 0v-43.31533h135.66267 0.0441 135.66259v43.31533c0 52.66295 75.41664 53.29057 75.41707 0v-43.31533h40.14905v-135.44277c0-36.36059-28.98631-55.55443-45.33824-57.65114l-41.29242-106.50728c-7.77055-20.276315-24.6022-37.59856-56.33195-37.59856h-58.31063-99.29555-59.01428zm-0.48373 38.785895h108.70605 0.0879 0.0441 108.74994c13.59772 0.12662 19.42144 8.63032 23.30669 20.40434l31.09022 83.816245h-163.14685-0.0441-0.0879-163.10303l31.090257-83.816245c3.8853-11.77402 9.70755-20.27772 23.30672-20.40434zm-63.367857 144.98534c19.24062 0 34.828137 16.05329 34.828137 35.88353-0.00001 19.83166-15.587517 35.92753-34.828137 35.92753-19.23921 0-34.828151-16.0959-34.828151-35.92753 0-19.83019 15.588941-35.88353 34.828151-35.88353zm344.36767 0c19.24063 0 34.82828 16.05334 34.82815 35.88353 0 19.83163-15.58752 35.92753-34.82815 35.92753-19.23919 0-34.8722-16.09587-34.8722-35.92753 0-19.83024 15.63301-35.88353 34.8722-35.88353z"/>
</svg>
