<?xml version="1.0" encoding="UTF-8" standalone="no"?>
<svg xmlns:rdf="http://www.w3.org/1999/02/22-rdf-syntax-ns#" xmlns="http://www.w3.org/2000/svg" version="1.0" xmlns:cc="http://creativecommons.org/ns#" xmlns:dc="http://purl.org/dc/elements/1.1/" viewBox="0 0 490.73596 381.3501">
<path d="m433.87109 0.000066311814c-7.22519 0.013509998-14.46847 2.440443-19.95898 7.30274-5.48928 4.8611997-9.08317 12.25078-8.86719 21.39062 0.00005 0.002-0.00005 0.004 0 0.006l2.43555 248.47071-26.50781 16.08203-14.875 8.90039a3.2421316 3.2421316 0 0 0 -1.55078 2.3789 3.2421316 3.2421316 0 0 0 0.0117 1.16602l1.86915 9.46875 10.61328 55.23437 0.98046 6.29102a3.2421316 3.2421316 0 0 0 0.46485 1.23437l-0.1582-0.82226a3.2421316 3.2421316 0 0 0 0.68554 1.45117 3.2421316 3.2421316 0 0 0 0.0117 0.0137 3.2421316 3.2421316 0 0 0 1.19727 0.70118 3.2421316 3.2421316 0 0 0 0.30468 0.15234l-0.39843-0.006a3.2421316 3.2421316 0 0 0 1.33398 0.31445l15.94922 0.23633 8.98437 0.15625a3.2421316 3.2421316 0 0 0 3.29883 -3.18555l0.85938-48.69531 18.97656-10.12109 18.59961 10.79883-0.87891 48.71679a3.2421316 3.2421316 0 0 0 3.18164 3.30078l22.88868 0.41211a3.2421316 3.2421316 0 0 0 1.60547 -0.39648 3.2421316 3.2421316 0 0 0 2.21289 -2.49219l7.70507-41.26172 5.82813-29.21679a3.2421316 3.2421316 0 0 0 -1.30859 -3.2793l-38.8613-27.4805 12.1914-246.59961a3.2421316 3.2421316 0 0 0 0.004 -0.0879c0.21795-10.020854-3.29571-17.872414-8.79688-23.001954-5.50116-5.1295607-12.80605-7.5467197-20.03125-7.5332097zm0.35547 18.83204c4.56958 0.0982 8.19525 3.65627 8.45899 8.14257-0.60371 1.63188-1.83754 3.46047-3.53711 4.96485-2.41722 2.13959-5.58876 3.46846-7.73633 3.42968-0.3408-0.006-0.68072-0.0373-1.01953-0.082-2.99129-1.39232-5.01323-4.43134-4.94922-7.97656 0.0869-4.81144 3.97228-8.56326 8.7832-8.47851zm-338.07031 42.7539c-21.34746 0-32.67239 11.65311-37.90039 25.29492l-27.751954 71.658214c-11.001307 1.41066-30.503906 14.32387-30.503906 38.78711v91.125h27.013671v29.14257c0 35.85362 50.740228 35.43136 50.740238 0v-29.14257h91.271481 0.0312 91.27149v29.14257c0 35.43136 50.73994 35.85362 50.74023 0v-29.14257h27.01367v-91.125c0-24.46322-19.50241-37.37645-30.5039-38.78711l-27.7812-71.658214c-5.22799-13.64181-16.55278-25.29492-37.9004-25.29492h-39.23046-66.80664-39.703131zm-0.32617 26.09375h73.136721 0.0586 0.0312 73.16602c9.14848 0.0852 13.06571 5.80701 15.67968 13.728524l20.91797 56.39062h-109.76367-0.0312-0.0586-109.73438l20.91797-56.39062c2.61401-7.921514 6.53023-13.643344 15.67969-13.728524zm-42.632815 97.544924c12.945004 0 23.431644 10.80089 23.431644 24.14258-0.00001 13.34264-10.48664 24.17188-23.431644 24.17188-12.944042 0-23.433593-10.82926-23.433594-24.17188 0-13.34166 10.489552-24.14258 23.433594-24.14258zm231.6875 0c12.945 0 23.43368 10.80092 23.43359 24.14258 0 13.34262-10.48859 24.17188-23.43359 24.17188-12.94403 0-23.46094-10.82924-23.46094-24.17188 0-13.34169 10.51691-24.14258 23.46094-24.14258z"/>
</svg>
