<?xml version="1.0" encoding="UTF-8" standalone="no"?>
<svg xmlns:rdf="http://www.w3.org/1999/02/22-rdf-syntax-ns#" xmlns="http://www.w3.org/2000/svg" height="204.0986" width="517.68536" version="1.0" xmlns:cc="http://creativecommons.org/ns#" xmlns:dc="http://purl.org/dc/elements/1.1/" viewBox="0 0 517.68537 204.0986">
<path d="m166.34997 0.0000079880019s-11.49161-0.048699998-21.04688 7.45899c-4.86161 3.81985-8.47074 9.64324-10.94921 14.51758-2.47848 4.87433-3.8086 8.86523-3.8086 8.86523l-0.0117 0.0332-9.57617 33.19727-9.85742 9.85742c-0.0107-4.05414-0.28118-11.6404-3.18164-24.20898-2.08831-9.0494-10.270025-20.76672-17.908195-30.51758-7.63818-9.75086-14.78516-17.38477-14.78516-17.38477l-0.92774-0.99023001-1.15624 0.70703001s-11.672292 7.13443-34.29688 22.64844c-23.03032 15.7922-29.701172 36.37695-29.701172 36.37695l-0.460937 1.42578 5.7539061 2.5586c-0.488811 1.23017-3.2903 8.22282-6.6562501 18.02148-3.647555 10.61844-7.408677 22.795152-7.755859 30.085942-0.351725 7.38612 3.251429 14.4247 6.826171 19.66211 3.5747421 5.23741 7.2480471 8.74218 7.2480471 8.74218l0.917969 0.87696 1.087891-0.6543s10.478857-6.2866 22.160156-12.89258c5.840649-3.30299 11.982198-6.68543 17.246094-9.39258 5.263895-2.70714 9.764371-4.74953 11.824218-5.29882 5.394956-1.43866 12.282056-6.03611 18.070316-10.27539 5.24872-3.844142 8.64172-6.757642 9.38672-7.390632l18.267565 11.197272c0.0268 1.29329 0.21395 9.4585 1.26758 19.24218 0.56986 5.29153 1.3809 10.83848 2.56055 15.61914 1.17965 4.78067 2.60803 8.79944 5.01953 11.21094 7.96454 7.96453 17.83452 8.22375 18.49023 8.23242l207.92774 21.95508 0.0547 0.002s4.11879 0.16629 9.37304-0.1621c5.25426-0.3284 11.65238-1.10744 16.53321-3.19922 1.56768-0.67186 2.96104-1.96058 4.48632-3.67188 1.52529-1.7113 3.13388-3.86926 4.79493-6.33008 3.3221-4.92163 6.85023-11.05027 10.09375-17.05078 5.5064-10.18685 9.4857-18.5694 10.77539-21.30664 0.18116 0.49342 0.30819 0.71548 0.53125 1.45899 1.2598 4.19938 5.70173 6.90666 9.63672 8.91601 2.97092 1.51707 5.25763 2.3462 6.45898 2.76172-0.0219 1.61246-0.0717 8.98868 1.54492 18.83398 1.8028 10.97914 5.56782 23.98949 14.07813 31.97266 6.45204 6.05241 18.25518 10.69949 29.98437 7.16016 7.67917-2.31723 14.06227-8.73029 21.2461-17.40039 9.32715-11.25692 15.01515-16.92248 19.26953-23.92969s6.89501-15.15856 10.13672-31.04297c1.06419-5.21455-0.35788-13.40216-2.39063-21.41211-2.03275-8.00994-4.67858-15.541142-6.85351-19.166012-0.75652-1.26085-1.85436-4.35759-2.86915-8.0586-1.01478-3.701-2.01856-8.078-2.90234-12.25586-1.67861-7.93525-2.7793-14.40885-2.90039-15.11523 0.009-0.0319 0.0182-0.0173 0.0273-0.0527 0.0688-0.26714 0.12026-0.75117-0.14843-1.25-0.2687-0.49882-0.77941-0.76832-1.08789-0.84765-0.61698-0.15866-0.79644-0.0348-0.99024 0.0137l-1.49805 0.375 0.15039 0.875c-0.34924 0.29773-0.7036 0.60253-1.41796 1.13867-1.92743 1.44655-5.01685 3.61296-8.86914 6.21289-7.7046 5.19986-18.48435 12.15423-29.42188 18.79883s-22.04862 12.98537-30.35156 16.94141c-4.15147 1.97801-7.63236 3.354652-9.85938 3.867182-1.01649 0.23394-1.65508 0.21764-1.92382 0.18164-0.75176-31.419822-15.60352-66.789062-15.60352-66.789062l-0.0469-0.11133-0.0605-0.10351s-7.90521-13.29752-22.02149-20.01953c-1.08707-0.51766-2.49243-0.79498-4.59961-1.15235-2.10717-0.35736-4.82333-0.71747-8.07812-1.08398-6.50958-0.73302-15.16793-1.48878-25.24414-2.24805-20.15242-1.518532-45.96841-3.049962-71.43946-4.417972-50.94205-2.73601-100.5039-4.81836-100.5039-4.81836h-0.0352-0.0332z"/>
</svg>
