<?xml version="1.0" encoding="UTF-8" standalone="no"?>
<svg xmlns:rdf="http://www.w3.org/1999/02/22-rdf-syntax-ns#" xmlns="http://www.w3.org/2000/svg" version="1.0" xmlns:cc="http://creativecommons.org/ns#" xmlns:dc="http://purl.org/dc/elements/1.1/" viewBox="0 0 457.04526 387.92957">
<path d="m274.29354 0.00950568a10.001 10.001 0 0 0 -8.9336 6.503907l-52.62304 141.41797h-198.65039a14.088086 14.088086 0 0 0 -13.714844 17.30274l49.667968 211.82617a14.088086 14.088086 0 0 0 13.77539 10.86914l329.53125-1.45703a14.088086 14.088086 0 0 0 13.64844 -10.84961l49.67383-210.36719a14.088086 14.088086 0 0 0 -13.71094 -17.32422h-191.04102l47.85743-128.61328a10.001 10.001 0 0 0 -5.88477 -12.859375l-15.66992-5.8300783a10.001 10.001 0 0 0 -3.92578 -0.619141zm-242.43555 176.0957h52.70898v54.94532h-39.82617l-12.88281-54.94532zm71.490226 0h68.30274v54.94532h-68.30274v-54.94532zm87.08399 0h72.30273v54.94532h-72.30273v-54.94532zm91.08398 0h70.30274v54.94532h-70.30274v-54.94532zm89.08399 0h54.55859l-12.97461 54.94532h-41.58398v-54.94532zm-321.45508 73.72852h35.42187v60.30078h-21.2832l-14.13867-60.30078zm54.203116 0h68.30274v60.30078h-68.30274v-60.30078zm87.08399 0h72.30273v60.30078h-72.30273v-60.30078zm91.08398 0h70.30274v60.30078h-70.30274v-60.30078zm89.08399 0h37.14844l-14.23829 60.30078h-22.91015v-60.30078zm-302.91211 79.08398h16.8789v30.7461l-9.66015 0.043-7.21875-30.78906zm35.660146 0h68.30274v30.36133l-68.30274 0.30273v-30.66406zm87.08399 0h72.30273v29.95899l-72.30273 0.32031v-30.2793zm91.08398 0h70.30274v29.56446l-70.30274 0.31054v-29.875zm89.08399 0h18.47461l-6.94922 29.42969-11.52539 0.0508v-29.48047z"/>
</svg>
