<?xml version="1.0" encoding="UTF-8" standalone="no"?>
<svg xmlns:rdf="http://www.w3.org/1999/02/22-rdf-syntax-ns#" xmlns="http://www.w3.org/2000/svg" version="1.0" xmlns:cc="http://creativecommons.org/ns#" xmlns:dc="http://purl.org/dc/elements/1.1/" viewBox="0 0 452.0351 482.26611">
<path d="m283.17578 0.00048531046c-10.2922-0.01237-18.39979 6.778454-19.89258 15.650391-33.02703-1.846853-27.492-12.650835-70.75586-14.789063l-77.76563-0.71875c-54.86282 0.61269031-90.759753 36.675537-114.76171 82.3711l2.5625-1.67774c16.406741-32.881634 104.00904-56.052883 120.52734-14.96484 1.40613 7.64031 9.98106 15.13065 18.79687 16.40039l0.23633 138.42773c-7.75398 0.0117-16.27598 8.72819-16.43164 16.48243l-4.26367 224.28515c-0.38754 20.44549 16.31912 20.72857 25.2168 20.79883l41.05859-0.0625c8.9533-0.0414 26.82314-5.89801 26.29492-23.24609l-6.16406-221.81641c-0.2069-7.72579-8.70008-16.24771-16.39844-16.34765 0 0-0.0268-0.0845-0.0547-0.0566l-0.18164-138.92968c13.94492-0.74622 21.43473-7.11452 26.19532-15.49219 9.19432-16.180138 28.69442-10.86695 45.36523-9.41211l-0.0449 6.80664c0.0712 10.20839 9.20403 18.36677 20.58398 18.34961 11.37994-0.0172 20.51531-8.23207 20.5-18.38477l-0.0391-45.378906c-0.0712-10.208446-9.20409-18.367915-20.58395-18.294969zm97.98047 5.072266c-9.00591 0.01684-18.03522 3.042876-24.87891 9.1035157-6.84369 6.060636-11.32415 15.272-11.05273 26.667968l-0.002-0.05664 3.03711 309.76562-51.63086 31.32227c-1.45047 0.87981-2.19703 2.57187-1.86914 4.23632l14.2168 72.04883 2.56445 16.44141c0.23631 1.51254 1.30702 2.7617 2.76563 3.22656 0.58246 0.32892 1.23747 0.50811 1.90625 0.52149l30.69726 0.52929c2.23038 0.038 4.06972-1.7384 4.10938-3.96875l1.0723-60.69726 23.65235-12.61524 23.18359 13.46094-1.0957 60.72266c-0.0402 2.23114 1.73566 4.07256 3.96679 4.11328l28.53125 0.51562c0.70348 0.0108 1.39759-0.1622 2.01368-0.50195 1.41389-0.45127 2.46665-1.64125 2.74218-3.09961l9.57618-51.27148 7.29492-36.57618c0.31198-1.56574-0.32709-3.16839-1.63086-4.08984l-48.43946-34.25194 15.19532-307.375c0.002-0.03709 0.003-0.0742 0.004-0.111328 0.27167-12.490583-4.10786-22.276163-10.96484-28.669927-6.85698-6.3937637-15.95894-9.4074647-24.96484-9.3906247zm0.4414 23.476562c5.69822 0.123152 10.21681 4.560593 10.54102 10.15625-0.75424 2.031504-2.29119 4.305434-4.40625 6.177735-3.01282 2.667018-6.96581 4.325653-9.64258 4.277343-0.42232-0.0076-0.8438-0.04635-1.26367-0.101562-3.73341-1.733625-6.25757-5.522982-6.17774-9.945312 0.10827-5.996798 4.95325-10.669319 10.94922-10.564454z"/>
</svg>
