<?xml version="1.0" encoding="UTF-8" standalone="no"?>
<svg xmlns="http://www.w3.org/2000/svg" version="1.0" viewBox="0 0 320.707 485.33444">
<path d="m117.24815 0.00825287c-8.49162-0.216306-16.46317 3.800853-21.765624 14.240234-30.06173-5.0764011-37.22193 33.508334-25.90625 55.482422 8.60569 16.71148 37.565564 46.041511 61.203124 53.861331a41.614659 40.909326 0 0 0 -7.1289 9.01758c-13.80257-20.7341-50.748354-40.665351-69.425784-44.250001-24.27348-4.65861-58.75498 10.40011-45.57813 38.707031-22.54783 20.52005 3.3925298 49.96636 27.66602 54.625 19.4789 3.73847 64.017624-1.67482 83.410154-17.26953a41.614659 40.909326 0 0 0 4.07422 9.24805c-24.615334-1.96752-65.121954 29.41286-77.117194 47.33008-13.7502 20.53866-13.32124 58.16171 17.88282 57.05859 10.11018 28.76215 47.337674 16.34918 61.087894-4.18945 11.06839-16.5328 23.48532-59.87435 16.54101-83.76563a41.614659 40.909326 0 0 0 10.2793 3.17774c-9.16142 23.07947-6.98208 62.32904-0.64648 79.42773 8.58767 23.17665 39.32994 44.87281 56.71874 18.93945 29.23184 8.65897 40.98414-28.78427 32.39649-51.96093-6.18572-16.69418-29.13692-46.84083-50.68359-58.9961a41.614659 40.909326 0 0 0 6.89648 -10.01367c15.5709 19.2953 61.91394 31.36526 82.54297 30.09961 24.67007-1.51361 54.33301-24.66128 34.54101-48.81055 16.74739-25.47551-15.6912-47.5585-40.36132-46.04492-18.97815 1.16437-58.15618 16.1955-74.50586 34.98633a41.614659 40.909326 0 0 0 -6.16602 -12.02344c24.67088 1.26189 62.37186-38.586801 71.75781-59.033201 10.31157-22.462768 3.90956-59.540097-26.72265-53.492193-14.55245-26.789997-49.33492-8.6190261-59.64649 13.84375-8.25694 17.986961-13.61395 62.379333-3.18359 84.976564a41.614659 40.909326 0 0 0 -14.83008 -3.01757c10.16735-22.682461 2.71027-68.036958-6.50976-85.941416-7.07232-13.733797-22.66762-25.85238-36.82032-26.212891zm111.2168 201.13868 4.09375 5.125c15.32135 17.92051 25.59445 42.36275 19.40625 65.96875-2.0368 8.92708-7.66231 16.58551-13.75 22.9375-13.33763 59.51675-34.66797 116.92241-56.81055 173.69922-0.37944 4.78377 9.99443 5.02487 14.03321 7.9414 6.9758 2.8441 13.96965 5.64271 20.93359 8.51563 23.79787-60.85348 46.64982-122.54607 60.53125-186.5 5.14805-24.69902 8.68472-52.1996-3.65625-75.34375-2.77011-4.50612-5.02568-10.22697-9.15625-13.25-12.22697-1.16677-23.88404-5.66749-35.625-9.09375z"/>
</svg>
