<?xml version="1.0" encoding="UTF-8" standalone="no"?>
<svg xmlns="http://www.w3.org/2000/svg" version="1.0" viewBox="0 0 367.41016 472.29608">
<path d="m35.58398 0.00896509c-3.8343 0.03873-7.8047 0.198595-11.91601 0.486328 0 0 22.45336 111.90615 119.88281 87.828128 0.01 0.0664-2.66875-87.216157-104.17774-88.312503-1.24806-0.01348-2.51096-0.01486-3.78906-0.002zm134.84766 15.451171c-0.48436 0.000911-0.96121 0.02342-1.42969 0.06836-1.24928 0.119844-2.44036 0.402866-3.55859 0.894531-2.23646 0.983331-3.98051 3.206709-4.35352 5.925781-0.37301 2.719073 0.27199 5.86327 1.8457 9.826172 2.78489 7.01284 5.13091 19.770961 6.89649 34.675781 1.76558 14.90483 3.01508 32.0377 3.89258 48.242189 1.755 32.40899 2.02539 61.08985 2.02539 61.08985l4.79492 0.42187 27.36719-146.56055-1.48243-0.855469s-13.05277-7.570385-24.94336-11.445313c-3.90158-1.271459-7.66421-2.289575-11.05468-2.283203zm162.01367 21.996094c-102.87458 1.056067-113.89444 92.764-113.87695 92.69141 111.04765 38.18109 148.84179-89.908207 148.84179-89.908207-12.69766-2.032955-24.32264-2.892451-34.96484-2.783203zm-225.76758 130.79492c-58.91047 0-106.67773 47.56185-106.67773 106.36915 0 2.26977-0.00092 4.12835 0.30859 6.29492h0.51563c1.65074 22.80074 8.97591 51.58348 26.30859 87.07422 0 0 30.02268 57.05441 53.75195 83.25976l2.16602 2.0625c11.65829 11.76145 27.75302 18.98438 45.60156 18.98438 21.66585 0 40.85733-10.52325 52.51563-26.82422h0.30859c11.65829 16.30097 30.84776 26.82422 52.51367 26.82422 17.64211 0 33.94296-7.32608 45.49805-18.98438l2.16601-2.0625c23.93563-26.20535 53.75196-83.25976 53.75196-83.25976 17.33277-35.49074 24.65854-64.06715 26.51562-87.07422h0.20703c0.10316-2.26976 0.10352-4.12833 0.10352-6.29492 0-58.8073-47.76848-106.36915-106.47266-106.36915-29.09404 0.00001-55.30049 11.45214-74.49023 30.43555-19.3961-18.98341-45.60084-30.43555-74.5918-30.43555z"/>
</svg>
