<?xml version="1.0" encoding="UTF-8" standalone="no"?>
<svg xmlns="http://www.w3.org/2000/svg" height="490.8414" width="500.84927" version="1.0" viewBox="0 0 500.84928 490.8414">
<path d="m310.14483 0.00580533c-0.39593-0.01674-0.7522 0.0049-1.09375 0.03711-1.69035 0.159477-3.03801 1.24586-3.63672 2.023437s-0.78872 1.34965-0.9375 1.816406c-0.29757 0.933512-0.34498 1.559181-0.39844 2.253907-0.10693 1.389451-0.0792 2.936189 0.0156 4.8730457 0.18965 3.873717 0.69224 9.174559 1.43165 15.615235 1.47881 12.881352 3.91422 30.241184 6.74023 48.595707 5.65202 36.709037 12.77791 77.078007 17.10547 93.736327 6.34124 24.40967 6.35401 25.37938 7.21875 30.54492 0.86473 5.16554 2.50144 14.09888 11.82226 53.125 1.79376 7.51042 3.59256 14.91748 5.39258 22.23438l-25.76953 94.23046c-3.59452-1.99924-8.57264-4.36683-14.55664-6.04101-12.30783-3.44344-29.30885-3.90296-45.72266 7.68555-16.351 11.54415-23.59481 27.11365-25.20312 42.57812s2.04338 30.84986 6.59375 43.61719c12.75946 35.80023 54.23448 44.08935 75.80273 20.86719 4.45031-4.79159 8.2075-13.17725 13.15625-25.84571 4.94876-12.66845 10.57956-29.31932 16.66797-49.10547 5.34675-17.37588 11.05354-37.27317 16.91797-58.84961 5.73563 21.05503 11.31515 40.49107 16.55078 57.50586 6.08842 19.78615 11.71922 36.43702 16.66797 49.10547 4.94875 12.66846 8.70594 21.05218 13.15625 25.84375 21.56825 23.22219 63.04328 14.935 75.80273-20.86523 4.55039-12.76733 8.20205-28.15272 6.59376-43.61719-1.60834-15.46447-8.85212-31.03395-25.20313-42.57813-16.4138-11.58848-33.41483-11.12898-45.72266-7.68554-5.984 1.67418-10.96212 4.04176-14.55664 6.04101l-25.41992-92.95312c1.68359-6.85669 3.36514-13.79916 5.04297-20.82422 9.32082-39.02612 10.95753-47.95946 11.82227-53.125 0.86473-5.16554 0.87751-6.13525 7.21875-30.54492 4.32756-16.65832 11.45344-57.02729 17.10546-93.736327 2.82602-18.354523 5.26142-35.714354 6.74024-48.595707 0.73941-6.440677 1.242-11.741518 1.43164-15.615235 0.0948-1.936857 0.12257-3.4835947 0.0156-4.8730457-0.0535-0.694726-0.10086-1.320396-0.39843-2.253907-0.14879-0.466755-0.3388-1.038829-0.9375-1.816406-0.59871-0.777577-1.94637-1.863959-3.63672-2.023437-0.68311-0.06445-1.42869-0.08874-2.42188 0.158203-0.99319 0.246945-2.47302 0.890554-3.45507 2.472656a4.9567782 4.9567782 0 0 0 -0.57032 1.306641l-55.82613 204.13285-56.19336-205.47851a4.9567782 4.9567782 0 0 0 -0.57031 -1.30664c-0.98208-1.582102-2.46189-2.223759-3.45508-2.470703-0.49659-0.123473-0.93219-0.178574-1.32812-0.195313zm-204.8086 21.027344c-2.89975 0.02932-5.574546 0.120922-7.982416 0.289062-4.81573 0.336284-8.35054 0.655116-11.5918 2.431641-2.14363 1.174918-2.58355 2.368618-3.30859 3.664063-0.72504 1.295444-1.39361 2.802531-2.10742 4.61914-1.42763 3.633218-2.99904 8.483661-4.74805 14.492188-3.49803 12.017053-7.67142 28.61966-12.25781 48.36719-9.17279 39.495047-19.976858 91.524977-30.042971 143.83985-10.066112 52.31484-19.390979 104.89765-25.595703 145.5-3.102361 20.30115-5.425714 37.5952-6.673828 50.44335-0.62405695 6.42408-0.98183495 11.72678-1.023437 15.8418-0.0208 2.05751 0.0337 3.8117 0.205078 5.35742 0.171375 1.54573 0.273241 2.8182 1.292969 4.5293 2.379525 3.99284 6.367942 5.71014 11.253906 7.40625 4.885963 1.69611 10.927798 3.03738 17.822265 4.17969 13.788934 2.28461 30.950951 3.72139 47.792971 4.64843 33.684036 1.85413 66.062496 1.63868 66.062496 1.63868a4.6535262 4.6535262 0 0 0 0.625 -9.25977l-129.34375-18.41406 5.794922-29.76758 129.7539 2.45508 0.47461-6.17383-126.18359-17.07031 5.28125-27.125 127.84765 2.41992 0.47461-6.17578-124.31835-16.81836 5.335938-27.41797 129.99609 2.46094 0.47461-6.17578-126.41797-17.09961 5.275391-27.10547 128.51366 2.43164 0.47461-6.17578-124.96875-16.90625 5.3125-27.29297 128.03711 2.42383 0.47461-6.17578-124.50391-16.8418 5.32618-27.35742 128.2207 2.42578 0.47461-6.17578-124.6836-16.86719 5.31836-27.32227 127.53321 2.41407 0.47461-6.17578-124.00977-16.77344 5.32813-27.376957 125.59375 2.37696 0.47265-6.17578-122.11133-16.519538 5.61329-28.841797 123.92382 3.728515a4.6535262 4.6535262 0 0 0 0.72266 -9.267578s-29.70613-3.748092-61.19336-6.546875c-15.74361-1.399391-31.92986-2.56339-45.17578-2.90039-3.31148-0.08425-6.43618-0.117211-9.33594-0.08789zm344.06641 361.55078c14.00478 0.0345 31.09076 18.21896 31.08594 42.46094a4.9567782 4.9567782 0 0 0 0 0.002v0.0781c-0.0149 12.12887-4.24194 23.31029-10.35547 31.26953-6.11453 7.96054-13.93827 12.43686-20.82227 12.41992-6.54453-0.0161-14.68101-5.26101-21.03125-14.22461s-10.73811-21.22299-10.72461-33.3125c0.027-24.17791 17.15515-38.72951 31.84766-38.69336zm-155.78906 1.34375c14.69251-0.0361 31.82068 14.5174 31.84765 38.69531 0.0135 12.08951-4.37437 24.34695-10.72461 33.31055s-14.48671 14.21045-21.03125 14.22656c-6.884 0.0169-14.70773-4.46133-20.82226-12.42187-6.11353-7.95924-10.34056-19.14066-10.35547-31.26953v-0.0781c-0.005-24.24198 17.08114-42.42838 31.08594-42.46289z"/>
</svg>
