<?xml version="1.0" encoding="UTF-8" standalone="no"?>
<svg xmlns="http://www.w3.org/2000/svg" version="1.0" viewBox="0 0 422.02597 486.47464">
<path d="m249.35801 0-6.10547 22.193359c73.5055 18.90477 132.56878 74.972607 155.93555 146.7168l22.83789-7.39648c-25.89131-79.552684-91.11914-141.02372-172.66797-161.51368zm-11.68359 45.677734-6.00196 21.607422c58.25476 14.85066 104.95368 58.957104 123.18946 115.89258l21.54687-6.81055c-20.84222-64.22925-72.91994-114.07439-138.73437-130.68945zm-6.00196 21.607422c-0.0544-0.0139-0.10766-0.0311-0.16211-0.0449v0.62891l0.16211-0.58399zm-0.16211-0.0449v-0.0156h-0.0586c0.0196 0.005 0.039 0.0106 0.0586 0.0156zm-38.74804 26.46289c-84.77791 0.11742-138.55679 69.218104-137.5 134.38672 0.0587 13.50341 6.75024 17.32031 13.50195 17.32031 23.83645 0 4.4623-39.74721 38.162112-81.43164 11.2137-14.56019 40.9212-42.68188 84.48437-42.56445 52.54586-0.11743 108.145 46.38159 107.91016 107.91016 0.23484 65.69701-68.69187 91.58826-68.45703 157.22656v32.05469c-0.23484 15.44086-17.31929 37.8696-39.45313 37.63476v0.0586h-0.41015c-8.9827 0.93937-15.61654 2.7006-17.90625 9.86328-1.93744 8.21946 3.63831 16.67294 11.68164 19.08007 2.05487 0.17616 3.93435 0.76275 5.51953 1.23243 43.68058-0.17613 70.27734-34.28641 70.27734-64.11133v-29.00195c0-67.928 67.75196-84.13329 67.75196-161.51368 0-83.54499-67.22352-138.02711-135.5625-138.14453zm-9.39453 40.158214c-33.93464 0.11742-87.361662 37.1634-88.183602 95.46289-0.11742 12.79888 7.808972 13.61938 10.568362 13.50195 17.90669 0.11743 3.93419-22.60243 25.2461-53.60156 17.08474-25.65647 42.56495-33.4652 56.06835-33.28907h9.27539c25.2455-0.17613 47.37893 21.37085 54.24805 33.28907 14.5602 24.18871 8.22073 52.60386 25.89258 52.42773 8.3956 0.17613 10.21438-6.16498 10.44922-13.5625-0.23484-37.98567-34.0508-94.11109-92.99609-94.22851zm8.04296 92.17382c-7.69107-0.0587-13.73804 6.04698-13.85546 13.85547 0.11742 7.22139 6.16439 13.3873 13.85546 13.09375 7.45623 0.29355 13.5032-5.87236 13.85547-13.09375-0.35227-7.74978-6.39924-13.91417-13.85547-13.85547zm-44.50195 43.68164c-7.22139 0.23484-13.32664 6.34053-13.0918 13.85547-0.17613 7.57365 5.87041 13.67933 13.0918 13.85547 7.8672-0.23485 13.9729-6.28182 13.85547-13.85547 0.11743-7.51494-5.92956-13.62063-13.85547-13.85547zm-59.708982 26.00586-17.19922 17.25782 47.115232 46.95507 17.19922-17.25781zm-29.53125 64.05469c-7.74978 0.0587-13.85547 6.16635-13.85547 13.85742 0 7.39752 6.10569 13.44449 13.85547 13.85547 7.22139-0.41098 13.44406-6.45795 13.09179-13.85547 0.35227-7.69107-5.8704-13.74-13.09179-13.85742zm-43.02149 44.44336c-0.4668-0.0244-0.94118-0.0237-1.42187 0.002-7.3388102-0.35226-13.563203 5.753-13.21094 13.0918-0.352263 7.69107 5.87213 13.79677 13.21094 13.85547 7.69107-0.0587 13.73805-6.10568 13.85547-13.85547-0.11009-6.88012-5.43156-12.72824-12.4336-13.09375z"/>
</svg>
