<?xml version="1.0" encoding="UTF-8" standalone="no"?>
<svg xmlns="http://www.w3.org/2000/svg" version="1.0" viewBox="0 0 432.73828 475.92578">
<path opacity=".1" d="m10.478516 10.47852v454.96875h411.78125v-454.96875zm203.5625 132.6875c55.22173 0 100.03125 44.84078 100.03125 100.0625-0.00001 55.22173-44.80953 100.03125-100.03125 100.03125s-100.0625-44.80953-100.0625-100.03125 44.84078-100.0625 100.0625-100.0625z"/>
<path opacity=".2" d="m314.06805 243.21759a100.03936 100.03936 0 0 1 -100.03935 100.03936 100.03936 100.03936 0 0 1 -100.03936 -100.03936 100.03936 100.03936 0 0 1 100.03936 -100.03935 100.03936 100.03936 0 0 1 100.03935 100.03935z"/>
<path d="m10.478516 0.000004c-5.787066 0.000142-10.478374 4.69145-10.478516 10.478516v454.96875c0.00014 5.78707 4.691449 10.47838 10.478516 10.47852h411.78125c5.78707-0.00014 10.47838-4.69145 10.47852-10.47852v-454.96875c-0.00014-5.787071-4.69145-10.47838-10.47852-10.47852h-411.78125zm10.478516 20.957032h390.82422v434.01171h-390.82422zm233.28516 22.261718c-10.87412 0-19.91797 9.04385-19.91797 19.91797 0.00001 10.87412 9.04385 19.91798 19.91797 19.91797 10.87411 0.00001 19.91796-9.04385 19.91797-19.91797s-9.04385-19.91797-19.91797-19.91797zm57.27735 0c-10.87412 0-19.91797 9.04385-19.91797 19.91797 0.00001 10.87412 9.04385 19.91798 19.91797 19.91797 10.87412 0.00001 19.91795-9.04385 19.91796-19.91797s-9.04383-19.91797-19.91796-19.91797zm57.27734 0c-10.87412 0-19.91797 9.04385-19.91797 19.91797 0.00001 10.87412 9.04385 19.91798 19.91797 19.91797 10.87412 0.00001 19.916-9.04385 19.91602-19.91797 0-10.87412-9.04189-19.91797-19.91602-19.91797zm-154.76758 89.482426c-39.00872 0-73.37938 20.34407-93.05469 50.97265a9.779384 9.779384 0 0 0 -2.76367 -0.36133 9.779384 9.779384 0 0 0 -9.63086 9.91602v16.89453c-3.29093 10.4541-5.06836 21.57099-5.06836 33.09375s1.77743 22.63954 5.06836 33.09375v21.44336a9.779384 9.779384 0 0 0 14.77149 8.54297c19.99511 28.6468 53.19201 47.4375 90.67773 47.4375 56.09864 0 102.60289-42.07447 109.60352-96.30664a20.853094 20.853094 0 0 0 0.5625 -23.00977c-4.50217-56.81935-52.21439-101.71679-110.16602-101.71679zm0 20.95507c43.21498 0 79.12385 30.36 87.64063 70.98438h-16.28125a20.853094 20.853094 0 1 0 0 41.70117h15.19922c-10.15626 38.32058-44.97311 66.4375-86.5586 66.4375-40.71736 0-74.94712-26.95505-85.89258-64.05078v-51.02344c10.94546-37.09525 45.17522-64.04883 85.89258-64.04883z"/>
</svg>
