<?xml version="1.0" encoding="UTF-8" standalone="no"?>
<svg xmlns="http://www.w3.org/2000/svg" version="1.0" viewBox="0 0 481.84308 493.4632">
<path opacity=".1" d="m130.44642 5.494141-30.32422 102.36524c29.54656 13.99402 60.76502 15.58941 94.30078 0l10.19336-102.36524zm149.25391 0 8.69726 102.36524c29.54656 13.99402 60.76504 15.58941 94.30078 0l-28.82617-102.36524zm0.69726 206.9336-11.02343 4.08203-7.75782 7.34961-2.85742 11.83984 1.63281 14.49414 4.69532 10.82031 14.49414 16.33008 18.57617 11.02344 20.00586 5.91992 17.14844 1.02149 6.73632-4.08203 4.49024-7.55469 3.26562-24.4961-17.35156-32.45898-28.375-11.83984z"/>
<path d="m55.331188 1.7695605e-8a5.4954717 5.4954717 0 0 0 -4.941409 3.089844l-49.835937 102.36524a5.4954717 5.4954717 0 0 0 2.589844 7.37109c30.112192 14.26193 62.731172 16.12849 96.791012 0.99414 29.363262 13.27509 61.066462 14.76322 94.134772 0.22266 29.37316 13.13807 61.07859 14.4712 94.14258-0.2207 29.3626 13.27409 61.06538 14.76087 94.13281 0.2207 30.01771 13.42636 62.47028 14.53437 96.32031-1.20117a5.4954717 5.4954717 0 0 0 2.65235 -7.32813l-48.33594-102.36523a5.4954717 5.4954717 0 0 0 -4.96875 -3.148434h-148.31245a5.4954717 5.4954717 0 0 0 -0.46289 0.02344002 5.4954717 5.4954717 0 0 0 -0.48047 -0.023440002h-148.3105a5.4954717 5.4954717 0 0 0 -0.49414 0.025390002 5.4954717 5.4954717 0 0 0 -0.45117 -0.025390002h-74.169922zm79.218752 10.988282h63.92969l-9.85743 93.316408c-29.21316 12.58218-55.8874 11.54117-81.83398 0.39453zm151.13281 0h63.97266l25.86523 93.865238c-29.22254 12.19018-55.92754 10.79301-81.92773-0.76953zm-201.26953 140.92969c-1.05245 0.0178-2.13819 0.0642-3.25781 0.14258 0 0 6.87923 34.28494 36.728512 26.9082 0.003 0.0207-0.84473-27.60383-33.470702-27.05078zm41.830082 5.49805c-1.92812-0.0647-2.98601 0.92138-1.73243 4.07812 3.64679 9.18326 3.97852 44.38477 3.97852 44.38477l8.28906-44.38477s-6.8542-3.95453-10.53515-4.07812zm49.51172 5.96875c-31.51736 0.32356-34.89125 28.42073-34.88672 28.39844 34.02146 11.69746 45.59961-27.54493 45.59961-27.54493-3.89016-0.62283-7.45248-0.88698-10.71289-0.85351zm225.2539 5.2207c-1.37234 0.004-2.51481 0.37442-3.44726 0.82227-1.63088 0.80808-2.7954 1.8472-3.9043 2.91015-1.6321 1.59473-3.07227 3.3386-4.30859 4.71094-0.61143 0.68188-1.16107 1.274-1.57032 1.64648-0.20218 0.18686-0.36892 0.31911-0.45898 0.38282-0.0153 0.0116-0.0293 0.0128-0.0391 0.0195l-7.52344 3.23437c-0.26588-0.004-0.51498 0-0.78516 0-10.27965 0.0141-19.47657 2.9971-28.16211 5.72461-9.57511 3.03262-18.72109 6.63612-27.95312 8.42383-4.23953 0.83321-9.01935 1.06237-14.01367 1.45508-4.99127 0.40435-10.22085 0.95662-15.35547 2.75781-4.56609 1.60146-8.43232 3.41837-12.57813 6.01172-1.8159 1.14689-3.41273 2.52713-4.93945 3.65625-1.48444 1.13647-2.91108 1.93365-3.44531 2.04883l-2.35547 1.57031s-2.12022 1.62089-3.22071 2.56445l-4.43164 3.79883c-4.45291 3.81797-5.9048 13.47537-5.90234 18.86914v0.0957c0.0386 8.26526 2.72049 16.08135 7.00781 23.03125 4.30693 6.97931 10.22565 13.14775 16.94336 18.34179 13.49729 10.35317 30.44412 17.09058 46.44531 17.1543 3.12575-0.001 6.22891-0.26284 9.24805-0.8418 2.82309-0.51829 5.27572-1.86342 7.14063-3.58007 1.1726-1.07705 3.36172-2.2893 4.13672-3.56055 1.35703-0.61449 1.42479-1.46915 2.46875-2.56641 1.54081-1.59779 2.55019-3.36135 3.71484-5.5332 1.92189-3.63179 4.26388-7.50498 6.12695-11.67774 2.12468-4.81421 2.88752-9.89293 3.61719-14.64648 0.70576-4.75294 1.36854-9.20159 2.69922-12.63672 1.35579-3.5552 3.71239-6.54557 6.64453-9.72461 2.90886-3.17598 6.36757-6.46174 9.32422-10.70312 2.30172-3.3414 5.0171-6.29795 7.38867-10.01367 2.08668-3.24399 3.78261-7.23111 4.13672-12.04102l5.93359-3.12109 0.49805-0.51758c0.64205-0.63472 1.16028-0.90759 1.97266-1.16797 1.20079-0.39148 3.09615-0.46652 5.51367-0.66992 2.35992-0.22117 5.52388-0.71026 8.36719-3.00586 1.17261-0.9539 2.16315-1.96952 2.92773-3.19727 0.76091-1.21244 1.2698-2.70734 1.26367-4.25 0.004-1.25777-0.33942-2.47365-0.84179-3.44531-0.89754-1.71481-2.12145-2.79007-3.33204-3.6582-1.8355-1.28289-3.79934-2.1125-5.64648-2.77539-0.80441-0.28366-1.58919-0.53657-2.31641-0.7461-0.40496-0.89876-0.88502-1.72056-1.5332-2.50781-0.61816-0.73764-1.40997-1.43141-2.37305-1.91602-0.95757-0.49012-2.07422-0.7333-3.08203-0.72656zm-0.17383 4.5957c1.44956-0.0986 2.74572 1.06424 3.67774 4.40235 4.38657 0.98637 16.11926 4.507 8.53711 10.64453-4.66595 3.7776-11.4116 0.31134-16.23438 5.20703l-7.69726 4.04102c-0.004-0.14643-0.0103-0.29253-0.0176-0.44141-1.94578 0.70639-3.94435 1.5611-5.95508 1.93359-0.28917-2.04625-0.74346-4.03722-1.2832-5.99218-1.49609 0.59243-3.31717 1.1124-4.80469 1.3789 0.56854-2.7704 1.20232-4.89233 2.62305-7.00781l9.51562-4.07812c3.1163-1.35451 7.93422-9.83591 11.63867-10.0879zm-294.24804 30.25586c-18.048292 0-32.681642 14.5712-32.681642 32.58789 0 0.69538-0.001 1.26397 0.0937 1.92774h0.1582c0.50574 6.98542 2.75037 15.80449 8.06055 26.67773 0 0 9.19689 17.47933 16.46679 25.50782l0.66407 0.63086c3.571732 3.60331 8.502472 5.8164 13.970702 5.8164 6.63772 0 12.5181-3.2227 16.08984-8.2168h0.0937c3.57173 4.9941 9.4521 8.2168 16.08985 8.2168 5.40499 0 10.3974-2.24469 13.9375-5.8164l0.66406-0.63086c7.33311-8.02849 16.46875-25.50782 16.46875-25.50782 5.3102-10.87324 7.5541-19.62909 8.12305-26.67773h0.0625c0.0316-0.69539 0.0312-1.26397 0.0312-1.92774 0-18.01669-14.63405-32.58789-32.61915-32.58789-8.91349 0-16.94119 3.50832-22.82031 9.32422-5.94234-5.8159-13.97161-9.32422-22.85351-9.32422zm173.11718 13.45118c0.34995-0.0108 0.70161 0.00015 1.05274 0 8.37125 0.0165 17.10803 2.87994 23.77734 5.40039 5.4189 2.05973 9.89694 3.9672 13.97656 6.62304 4.08086 2.65094 7.69462 6.04731 11.39258 10.875 5.79261 7.56868 11.81724 17.02374 14.26172 26.89844 0.58754 2.39852 0.97533 5.43631 0.97656 8.61719-0.008 3.50926-0.45996 7.18731-1.85742 10.39453-1.35273 3.17721-3.97311 6.02998-7.88672 6.75781-2.70484 0.51891-5.51101 0.76636-8.36718 0.76758-14.68338-0.0245-30.91333-6.37894-43.66993-16.19727-12.70881-9.82139-22.10812-23.22653-22.15039-37.8125-0.001-4.73396 1.02026-9.56212 3.23438-14.2832l3.84766-4.28711 4.25195-2.60351c2.30832-0.7237 4.71047-1.07506 7.16015-1.15039zm10.26172 21.67382c-2.1161 0.007-4.16934 0.38275-5.91601 1.24414-0.87118 0.43621-1.67373 0.99932-2.31641 1.79883-0.64144 0.79032-1.08026 1.87368-1.07226 3.00586 0.0239 1.96048 1.09773 3.67443 2.83398 5.30469l0.20898 0.17187 0.23047 0.13282 5.76367 3.14062 0.17188 0.0566c1.31413 0.42702 3.91478 1.28924 6.58594 1.30274 0.98269-0.002 1.99682-0.12182 3.00586-0.51758 1.00169-0.38536 2.01817-1.12589 2.64062-2.2207 0.46194-0.80441 0.63481-1.69606 0.63281-2.50782-0.0319-1.98683-0.89754-3.63088-1.81835-5.05468-0.94716-1.41767-1.98969-2.56813-2.85352-3.3125-2.25517-1.8839-5.2519-2.52473-8.09766-2.54493zm0 4.28711c2.12344-0.0215 4.28328 0.61976 5.30274 1.53321 0.48338 0.40435 1.40406 1.37489 2.08594 2.41211 0.70821 1.03232 1.12369 2.18221 1.09179 2.67968-0.002 0.20646-0.0345 0.28608-0.0762 0.36328-0.0968 0.15438-0.17035 0.24988-0.47852 0.38282-0.29959 0.1225-0.81432 0.21493-1.43554 0.21093-1.63149 0.0141-3.82579-0.61177-5.03516-1.01367l-5.18945-2.83398c-1.13585-1.11012-1.30395-1.82134-1.28125-1.97266 0.008-0.11089 0.005-0.1496 0.13281-0.32422 0.18257-0.25179 0.78741-0.6697 1.68555-0.95703 0.8914-0.2953 2.02464-0.48347 3.19726-0.48047zm-248.35937 84.72266a14.495309 14.495309 0 1 0 0 28.98828h25.52929v124.20508a12.50125 12.50125 0 1 0 25 0v-124.20508h294.55665v124.20508a12.50125 12.50125 0 1 0 25 0v-124.20508h29.57031a14.495309 14.495309 0 1 0 0 -28.98828h-399.65625z"/>
<path opacity=".1" d="m374.30164 186.70581 13.67741-5.92008 11.63602-10.00289 6.32836 3.06212 9.79875 6.53249 1.63312 5.92008-5.51179 4.89937-11.02359 1.83727-15.31055 10.20703-17.14781-2.24555z"/>
</svg>
