<?xml version="1.0" encoding="UTF-8" standalone="no"?>
<svg xmlns="http://www.w3.org/2000/svg" version="1.0" viewBox="0 0 312.95145 526.03851">
<path opacity=".2" d="m119.71471 21.445537c-9.64637 0.191186-18.2511 6.883213-20.503912 16.732422l-51.47461 225.04102 210.69532 48.19336 51.47265-225.04297c2.65769-11.619347-4.54278-23.092318-16.16211-25.750007l-168.74804-38.597656c-0.36311-0.08305-0.73506-0.186069-1.09766-0.25-1.40505-0.247759-2.80359-0.353484-4.18164-0.326172zm-72.798832 245.36133-43.86914 191.79687c-2.65769 11.61934 4.56816 23.13333 16.1875 25.79102l168.74805 38.59765c11.61934 2.6577 23.10012-4.57792 25.75781-16.19726l43.87109-191.79688z"/>
<path d="m274.15221 0.00217786c-4.46787-0.09564-8.57666 2.967359-9.60937 7.482421l-9.53907 41.708985-129.45312-29.609375c-0.28227-0.06456-0.68749-0.181723-1.21875-0.275391-1.56524-0.276006-3.12531-0.393088-4.66211-0.361328-10.75765 0.222324-20.390002 7.71361-22.896492 18.671875l-96.16406 420.42774c-2.95738 12.92959 5.13877 25.82778 18.06836 28.78516l168.74805 38.59765c12.92958 2.95741 25.79563-5.15123 28.75195-18.07617l96.16406-420.42578c2.65205-11.594679-3.57653-23.13529-14.21679-27.523436l9.61523-42.039061c1.18026-5.160071-2.08211-10.3588-7.24219-11.539063l-24.41601-5.5839841c-0.64501-0.147533-1.29142-0.226571-1.92969-0.240234zm-141.94336 53.929687c1.06083 0.02656 2.13775 0.159439 3.2168 0.40625l134.83984 30.841796c8.6324 1.97451 13.95105 10.44963 11.97656 19.082039l-41.0664 179.54296c-1.97449 8.63242-10.44963 13.95301-19.08203 11.97852l-134.83985-30.8418c-8.6324-1.97448-13.92104-10.43834-11.94531-19.07617l41.06836-179.54102c1.72876-7.5581 8.40625-12.578491 15.83203-12.392578zm-61.423832 243.03712c0.62287 0.0175 1.25424 0.0971 1.88867 0.24219l23.61329 5.40039c5.075512 1.16091 8.176562 6.06576 7.017572 11.13281l-5.105472 22.31836c-1.15898 5.06703-6.08269 8.13748-11.1582 6.97656l-23.61328-5.40234c-5.07549-1.16092-8.17656-6.06579-7.01758-11.13282l5.10547-22.31836c0.86924-3.80027 3.85516-6.47684 7.43555-7.08789 0.59673-0.10184 1.21111-0.14641 1.83398-0.1289zm61.972662 14.17578c0.62238 0.017 1.25424 0.0951 1.88867 0.24023l23.61328 5.40235c5.07551 1.16091 8.14529 6.0495 6.98438 11.125l-5.10547 22.31836c-1.16092 5.07549-6.0495 8.14333-11.125 6.98242l-23.61328-5.40039c-5.0755-1.16093-8.17656-6.06577-7.01758-11.13282l5.10547-22.31835c0.86923-3.80028 3.85711-6.47685 7.4375-7.08789 0.59673-0.10186 1.20965-0.14592 1.83203-0.12891zm61.9414 14.16797c0.62136 0.017 1.25229 0.0951 1.88672 0.24023l23.64649 5.40821c5.07549 1.16091 8.1453 6.0495 6.98437 11.125l-5.10547 22.31835c-1.16091 5.07549-6.0495 8.1453-11.125 6.98438l-23.64648-5.4082c-5.0755-1.16092-8.14334-6.05147-6.98242-11.12696l5.10351-22.3164c0.87069-3.80662 3.83957-6.4845 7.41016-7.09571 0.5951-0.10186 1.2068-0.14592 1.82812-0.1289zm-138.0957 33.66406c0.62212 0.0165 1.25334 0.0954 1.88672 0.24023l23.61524 5.40039c5.06703 1.15901 8.16679 6.09899 7.00781 11.16602l-5.09766 22.28516c-1.15898 5.06703-6.09897 8.16874-11.16601 7.00976l-23.61329-5.40234c-5.06703-1.15898-8.16679-6.09897-7.00781-11.16602l5.09766-22.28515c0.86924-3.80028 3.86398-6.49457 7.44531-7.11524 0.59689-0.10344 1.20991-0.14931 1.83203-0.13281zm61.972662 14.17578c0.62261 0.0165 1.25529 0.0954 1.88867 0.24024l23.61328 5.40039c5.06704 1.15898 8.13553 6.08271 6.97461 11.1582l-5.09766 22.28516c-1.16091 5.07549-6.06576 8.1746-11.13281 7.01562l-23.61328-5.40039c-5.06704-1.15898-8.16679-6.09898-7.00781-11.16602l5.09765-22.28515c0.86924-3.80028 3.86399-6.49457 7.44532-7.11524 0.59688-0.10344 1.20942-0.14931 1.83203-0.13281zm61.9414 14.16797c0.62156 0.016 1.25334 0.0934 1.88672 0.23828l23.64649 5.41016c5.06703 1.15898 8.13552 6.08271 6.97461 11.1582l-5.09571 22.28516c-1.16091 5.07549-6.06578 8.1746-11.13281 7.01562l-23.64648-5.4082c-5.06704-1.15898-8.13749-6.08271-6.97657-11.1582l5.09766-22.28516c0.87069-3.80662 3.84643-6.50223 7.41797-7.12305 0.59525-0.10347 1.20657-0.14883 1.82812-0.13281zm-138.10546 33.69531c0.62238 0.017 1.25423 0.0951 1.88867 0.24024l23.61328 5.40039c5.07551 1.16092 8.17656 6.06576 7.01758 11.13281l-5.10547 22.31836c-1.15898 5.06703-6.0827 8.13748-11.1582 6.97656l-23.61329-5.40234c-5.07549-1.16092-8.17655-6.06578-7.01757-11.13281l5.10546-22.31641c0.86925-3.80029 3.85712-6.47684 7.4375-7.08789 0.59674-0.10184 1.20965-0.14592 1.83204-0.12891zm61.972652 14.17383c0.62239 0.0175 1.25424 0.0971 1.88867 0.24219l23.61328 5.40039c5.07552 1.16092 8.1453 6.04949 6.98438 11.125l-5.10547 22.31836c-1.16091 5.07549-6.0495 8.14334-11.125 6.98242l-23.613282-5.40039c-5.0755-1.16092-8.17656-6.06577-7.01758-11.13281l5.10547-22.31836c0.86924-3.80028 3.85712-6.47684 7.437502-7.08789 0.59673-0.10185 1.20965-0.14641 1.83203-0.12891zm61.94141 14.16797c0.62133 0.017 1.25228 0.0951 1.88672 0.24023l23.64648 5.41016c5.07549 1.16092 8.14529 6.0495 6.98438 11.125l-5.10547 22.31836c-1.16092 5.07549-6.0495 8.14334-11.125 6.98242l-23.64649-5.4082c-5.0755-1.16092-8.14333-6.04951-6.98242-11.125l5.10352-22.31836c0.87068-3.80663 3.83956-6.4845 7.41015-7.0957 0.5951-0.10187 1.2068-0.14593 1.82813-0.12891z"/>
</svg>
