<?xml version="1.0" encoding="UTF-8" standalone="no"?>
<svg xmlns="http://www.w3.org/2000/svg" height="480.88791" width="507.77148" version="1.0" viewBox="0 0 507.77149 480.88791">
<path opacity=".3" d="m0 110.88792v10h507.77149v-10zm0 60v10h507.77149v-10zm0 60v10h507.77149v-10zm0 60v10h507.77149v-10zm0 60v10h507.77149v-10zm0 60v10h507.77149v-10zm0 60v10h507.77149v-10z"/>
<path d="m393.3711 0.00314739c-2.49386 0.03902-4.91669 0.438478-7.21485 1.173828a24.774244 24.774244 0 0 0 -4.27734 1.316407l-211.90234 83.994143a24.774244 24.774244 0 0 0 -11.67578 9.27735c-4.11773 4.632155-6.30673 10.495635-6.22852 16.740235l-0.002-0.15625v215.16602c-10.45687-5.31124-22.23405-8.39844-34.71875-8.39844-42.376704 0-77.025398 34.60069-77.025398 76.98633 0 42.38563 34.639744 77.02343 77.025398 77.02343 37.48833 0 76.65603-24.83003 83.43359-69.91992 0.0134-0.0607 0.0622-0.2047 0.0742-0.25976 0.14126-0.64545 0.17606-0.93995 0.21484-1.22657 0.0776-0.57323 0.114-0.98326 0.1543-1.45703 0.0806-0.94753 0.14937-2.03727 0.21094-3.28906 0.12313-2.50359 0.21334-5.55996 0.17383-8.4707v-261.26172l167.37304-66.343755v179.19336c-10.45656-5.31085-22.23453-8.39649-34.71875-8.39649-42.37668 0-77.02344 34.60068-77.02344 76.98633 0 42.38564 34.6378 77.02344 77.02344 77.02344 37.48342 0 76.64647-24.82369 83.43164-69.90235 0.0144-0.0652 0.0653-0.21861 0.0781-0.27734 0.14125-0.64544 0.1741-0.93995 0.21289-1.22656 0.0776-0.57324 0.114-0.98327 0.15429-1.45703 0.0806-0.94754 0.14937-2.03727 0.21094-3.28907 0.12314-2.50358 0.21335-5.55997 0.17383-8.4707l0.002 0.16797v-276.32226l-0.002 0.15625c0.0849-6.766277-2.48937-13.078338-7.28125-17.855468-4.79196-4.777236-11.10939-7.330177-17.875-7.22461a12.387122 12.387122 0 0 0 -0.002 0z"/>
</svg>
