<?xml version="1.0" encoding="UTF-8" standalone="no"?>
<svg xmlns="http://www.w3.org/2000/svg" version="1.0" viewBox="0 0 524.40625 349.8125">
<path opacity=".75" d="m0.31252638 0c-0.321634 99.45147-0.3125 313.39111-0.3125 324.28125 3.692e-9 14.14033 9.093987 25.53125 20.40625 25.53125h430.59375c0.70703 0 1.40587-0.0382 2.09375-0.125h51.03125c11.24354 0 20.28125-10.59365 20.28125-23.71875v-301.28125l-20.28125 0.40625 1.96875 290.0625c0.28111 14.4913-25.15964 15.54344-26.65625 2.4375l0.75-316.875zm83.96875 27.5625h6.34375v10.59375c0.95174-1.1515 1.96198-2.02198 3.03125-2.5625 1.06925-0.55223 2.20747-0.81248 3.5-0.8125 2.27952 0.00002 4.043704 0.69552 5.218754 2.09375 1.18674 1.3983 1.78122 3.42648 1.78125 6.09375v12h-6.375004v-9.125c-0.00001-1.72726-0.0427-2.94747-0.125-3.59375-0.0705-0.64624-0.18701-1.10072-0.375-1.40625-0.24677-0.41124-0.57701-0.74548-1-0.96875-0.42302-0.23499-0.897-0.34373-1.4375-0.34375-1.31602 0.00002-2.37299 0.54025-3.125 1.5625-0.752 1.01052-1.09376 2.38974-1.09375 4.1875v9.6875h-6.34375zm116.40625 0h6.34375v14.9375l7.25-7.25h7.3125l-9.625 9.0625 10.375 10.65625h-7.625l-7.6875-8.21875v8.21875h-6.34375zm134.875 0h6.3125v5.15625h-6.3125zm-278.71875 1.125h24.25v5.125h-8.75v21.15625h-6.75v-21.15625h-8.75zm97.093754 0h8.09375l9.71875 26.28125h-6.78125l-1.6875-4.78125h-10.59375l-1.6875 4.78125h-6.8125zm154.15625 0h24.25v5.125h-8.71875v21.15625h-6.78125v-21.15625h-8.75zm-188.59375 6.09375c3.10203 0.00002 5.58096 0.94424 7.4375 2.8125 1.86826 1.86829 2.81248 4.34321 2.8125 7.46875v1.78125h-14.75c0.15274 1.48054 0.64599 2.6035 1.5625 3.34375 0.91651 0.74027 2.22996 1.125 3.875 1.125 1.32775 0 2.70722-0.20597 4.09375-0.59375 1.39825-0.39949 2.81246-0.98223 4.28125-1.78125v4.84375c-1.49228 0.56401-2.97651 0.99924-4.46875 1.28125-1.4923 0.29375-3.00774 0.4375-4.5 0.4375-3.57204 0-6.35797-0.90923-8.34375-2.71875-1.97403-1.82127-2.96876-4.37795-2.96875-7.65625-0.00001-3.21953 0.96748-5.7177 2.90625-7.5625 1.95053-1.84476 4.65496-2.78123 8.0625-2.78125zm68.375 0c2.27951 0.00002 3.98122 0.69552 5.15625 2.09375 1.18675 1.3983 1.78122 3.42648 1.78125 6.09375v12h-6.34375v-9.1875c-0.00002-1.70377-0.0427-2.88497-0.125-3.53125-0.0705-0.64624-0.18701-1.10072-0.375-1.40625-0.24677-0.41124-0.60826-0.74548-1.03125-0.96875-0.42303-0.23499-0.89702-0.34373-1.4375-0.34375-1.31604 0.00002-2.34176 0.54025-3.09375 1.5625-0.75201 1.01052-1.12501 2.38974-1.125 4.1875v9.6875h-6.3125v-19.71875h6.3125v2.90625c0.95176-1.1515 1.96199-2.02198 3.03125-2.5625 1.06926-0.55223 2.26996-0.81248 3.5625-0.8125zm45.34375 0c3.10202 0.00002 5.54972 0.94424 7.40625 2.8125 1.86826 1.86829 2.81248 4.34321 2.8125 7.46875v1.78125h-14.71875c0.15275 1.48054 0.67723 2.6035 1.59375 3.34375 0.9165 0.74027 2.19872 1.125 3.84375 1.125 1.32775 0 2.67597-0.20597 4.0625-0.59375 1.39825-0.39949 2.84371-0.98223 4.3125-1.78125v4.84375c-1.49228 0.56401-3.00775 0.99924-4.5 1.28125-1.49229 0.29375-2.97649 0.4375-4.46875 0.4375-3.57205 0-6.35799-0.90923-8.34375-2.71875-1.97404-1.82127-2.9375-4.37795-2.9375-7.65625 0-3.21953 0.96746-5.7177 2.90625-7.5625 1.95051-1.84476 4.62369-2.78123 8.03125-2.78125zm24.4375 0c3.10202 0.00002 5.61221 0.94424 7.46875 2.8125 1.86825 1.86829 2.81247 4.34321 2.8125 7.46875v1.78125h-14.78125c0.15274 1.48054 0.67723 2.6035 1.59375 3.34375 0.9165 0.74027 2.22997 1.125 3.875 1.125 1.32776 0 2.64472-0.20597 4.03125-0.59375 1.39824-0.39949 2.87495-0.98223 4.34375-1.78125v4.84375c-1.4923 0.56401-2.9765 0.99924-4.46875 1.28125-1.49228 0.29375-3.00775 0.4375-4.5 0.4375-3.57206 0-6.35798-0.90923-8.34375-2.71875-1.97403-1.82127-2.96875-4.37795-2.96875-7.65625 0-3.21953 0.96747-5.7177 2.90625-7.5625 1.95051-1.84476 4.62369-2.78123 8.03125-2.78125zm27.90625 0c2.27952 0.00002 4.01245 0.69552 5.1875 2.09375 1.18674 1.3983 1.78123 3.42648 1.78125 6.09375v12h-6.34375v-9.1875c-0.00001-1.70377-0.0427-2.88497-0.125-3.53125-0.0705-0.64624-0.21826-1.10072-0.40625-1.40625-0.24677-0.41124-0.57702-0.74548-1-0.96875-0.42302-0.23499-0.897-0.34373-1.4375-0.34375-1.31602 0.00002-2.34174 0.54025-3.09375 1.5625-0.75201 1.01052-1.12501 2.38974-1.125 4.1875v9.6875h-6.3125v-19.71875h6.3125v2.90625c0.95174-1.1515 1.93073-2.02198 3-2.5625 1.06925-0.55223 2.26997-0.81248 3.5625-0.8125zm74.71875 0c1.363 0.00002 2.57922 0.31075 3.625 0.96875 1.04574 0.65803 1.83447 1.56326 2.375 2.75 0.79899-1.222 1.75098-2.14672 2.84375-2.78125 1.1045-0.64623 2.30896-0.93748 3.625-0.9375 2.26775 0.00002 4.0007 0.69552 5.1875 2.09375 1.18672 1.3983 1.74996 3.42648 1.75 6.09375v12h-6.34375v-10.28125c0.0118-0.15274 0.0312-0.30423 0.0312-0.46875 0.0117-0.16449 0-0.38199 0-0.6875-0.00004-1.39826-0.18252-2.40847-0.59375-3.03125-0.41127-0.63448-1.08352-0.96873-2-0.96875-1.19853 0.00002-2.12327 0.51299-2.78125 1.5-0.64629 0.98702-0.97653 2.41298-1 4.28125v9.65625h-6.34375v-10.28125c-0.00002-2.18551-0.21777-3.56472-0.59375-4.1875-0.37602-0.63448-1.0365-0.96873-2-0.96875-1.21027 0.00002-2.12325 0.50124-2.78125 1.5-0.65802 0.98701-1 2.40524-1 4.25v9.6875h-6.34375v-19.71875h6.34375v2.90625c0.77551-1.11624 1.65747-1.99848 2.65625-2.5625 1.01051-0.56399 2.13347-0.81248 3.34375-0.8125zm34.78125 0c3.10203 0.00002 5.61222 0.94424 7.46875 2.8125 1.86826 1.86829 2.81248 4.34321 2.8125 7.46875v1.78125h-14.78125c0.15274 1.48054 0.70847 2.6035 1.625 3.34375 0.91649 0.74027 2.19871 1.125 3.84375 1.125 1.32775 0 2.67596-0.20597 4.0625-0.59375 1.39824-0.39949 2.81246-0.98223 4.28125-1.78125v4.84375c-1.49228 0.56401-2.94525 0.99924-4.4375 1.28125-1.49229 0.29375-3.00775 0.4375-4.5 0.4375-3.57206 0-6.35799-0.90923-8.34375-2.71875-1.97403-1.82127-2.96875-4.37795-2.96875-7.65625 0-3.21953 0.96747-5.7177 2.90625-7.5625 1.95052-1.84476 4.6237-2.78123 8.03125-2.78125zm22.59375 0c1.16325 0.00002 2.40672 0.10501 3.6875 0.28125 1.28076 0.17627 2.65223 0.40527 4.15625 0.78125v4.84375c-1.35127-0.56399-2.649-1.03048-3.90625-1.3125-1.2573-0.28198-2.44625-0.40622-3.5625-0.40625-1.19853 0.00003-2.10001 0.16325-2.6875 0.46875-0.57577 0.29377-0.87501 0.75227-0.875 1.375-0.00001 0.50528 0.22149 0.886 0.65625 1.15625 0.44649 0.27027 1.23523 0.46451 2.375 0.59375l1.125 0.15625c3.23128 0.41127 5.41498 1.09125 6.53125 2.03125 1.11625 0.94003 1.68748 2.42823 1.6875 4.4375-0.00002 2.10329-0.79275 3.66124-2.34375 4.71875-1.55103 1.05752-3.85898 1.59375-6.9375 1.59375-1.30428 0-2.66424-0.101-4.0625-0.3125-1.38653-0.19976-2.81249-0.49499-4.28125-0.90625v-4.8125c1.25726 0.611 2.55898 1.0695 3.875 1.375 1.32776 0.30552 2.63699 0.46875 4 0.46875 1.23377 0 2.15847-0.19049 2.78125-0.53125 0.62274-0.34075 0.96873-0.83024 0.96875-1.5-0.00002-0.56401-0.22151-0.97974-0.65625-1.25-0.42302-0.282-1.28175-0.50349-2.5625-0.65625l-1.09375-0.15625c-2.8083-0.3525-4.77823-0.98573-5.90625-1.9375-1.12801-0.95175-1.71875-2.3737-1.71875-4.3125 0-2.09151 0.75398-3.67696 2.1875-4.6875 1.43352-1.01049 3.60145-1.49998 6.5625-1.5zm-259.6875 0.0625-3.59375 10.46875h7.21875zm177.59375 0.40625h6.3125v19.71875h-6.3125zm-216.125 3.71875c-1.22203 0.00003-2.20499 0.33801-2.96875 1.03125-0.76377 0.68152-1.21826 1.67626-1.40625 2.96875h8.1875c-0.00002-1.1985-0.35751-2.14648-1.0625-2.875-0.69328-0.74025-1.622-1.12497-2.75-1.125zm113.75 0c-1.22203 0.00003-2.23625 0.33801-3 1.03125-0.76377 0.68152-1.21825 1.67626-1.40625 2.96875h8.1875c0-1.1985-0.35751-2.14648-1.0625-2.875-0.69328-0.74025-1.59075-1.12497-2.71875-1.125zm24.4375 0c-1.22203 0.00003-2.205 0.33801-2.96875 1.03125-0.76377 0.68152-1.21827 1.67626-1.40625 2.96875h8.1875c-0.00002-1.1985-0.3575-2.14648-1.0625-2.875-0.69327-0.74025-1.622-1.12497-2.75-1.125zm137.40625 0c-1.22202 0.00003-2.17375 0.33801-2.9375 1.03125-0.76377 0.68152-1.24949 1.67626-1.4375 2.96875h8.1875c-0.00001-1.1985-0.35751-2.14648-1.0625-2.875-0.69328-0.74025-1.622-1.12497-2.75-1.125zm-372 41.71875h4.4375v3.59375h-4.4375zm14.40625 0h3.40625v2.875h-2.4375c-0.625117 0.00002-1.097004 0.14471-1.34375 0.375-0.246761 0.2221-0.375007 0.62821-0.375 1.1875v0.9375h3.8125v3.15625h-3.8125v10.65625h-4.40625v-10.65625h-2.1875v-3.15625h2.1875v-0.9375c-0.000003-1.50517 0.442286-2.62814 1.28125-3.34375 0.838955-0.72378 2.11482-1.09373 3.875-1.09375zm5.3125 0h4.4375v10.4375l5.0625-5.0625h5.125l-6.75 6.34375 7.28125 7.46875h-5.34375l-5.375-5.78125v5.78125h-4.4375zm77.843754 0h4.4375v19.1875h-4.4375v-2c-0.60867 0.81428-1.26797 1.40289-2 1.78125-0.73203 0.37835-1.56892 0.5625-2.53125 0.5625-1.7026 0-3.12481-0.65107-4.21875-2-1.09394-1.35713-1.625-3.08845-1.625-5.21875 0-2.13029 0.53106-3.86983 1.625-5.21875 1.09394-1.35713 2.51615-2.06249 4.21875-2.0625 0.95411 0.00001 1.79921 0.20718 2.53125 0.59375 0.74025 0.37836 1.39133 0.94395 2 1.75zm91.03125 0h4.40625v10.4375l5.09375-5.0625h5.125l-6.75 6.34375 7.28125 7.46875h-5.375l-5.375-5.78125v5.78125h-4.40625zm26.21875 0h4.46875v19.1875h-4.46875v-2c-0.60867 0.81428-1.26797 1.40289-2 1.78125-0.73203 0.37835-1.60018 0.5625-2.5625 0.5625-1.70261 0-3.06231-0.65107-4.15625-2-1.09395-1.35713-1.65626-3.08845-1.65625-5.21875-0.00001-2.13029 0.5623-3.86983 1.65625-5.21875 1.09394-1.35713 2.45364-2.06249 4.15625-2.0625 0.9541 0.00001 1.79921 0.20718 2.53125 0.59375 0.74025 0.37836 1.42258 0.94395 2.03125 1.75zm8.71875 0h4.4375v10.4375l5.0625-5.0625h5.125l-6.75 6.34375 7.28125 7.46875h-5.34375l-5.375-5.78125v5.78125h-4.4375zm-153.09375 5.03125c0.9541 0.00001 1.76795 0.22691 2.5 0.6875 0.73201 0.46061 1.27787 1.10679 1.65625 1.9375 0.55929-0.8554 1.26631-1.49333 2.03125-1.9375 0.773154-0.45237 1.610024-0.68749 2.531254-0.6875 1.58743 0.00001 2.76299 0.48998 3.59375 1.46875 0.83071 0.9788 1.28123 2.41417 1.28125 4.28125v8.40625h-4.46875v-7.1875c0.007-0.10693 0-0.22859 0-0.34375 0.007-0.11514 0.0312-0.28614 0.0312-0.5-0.00002-0.97878-0.11839-1.68906-0.40625-2.125-0.28789-0.44415-0.76472-0.65624-1.40625-0.65625-0.838984 0.00001-1.476924 0.34035-1.937504 1.03125-0.4524 0.69092-0.70231 1.69222-0.71875 3v6.78125h-4.4375v-7.1875c-0.00001-1.52986-0.14306-2.53281-0.40625-2.96875-0.26321-0.44415-0.7318-0.65624-1.40625-0.65625-0.84719 0.00001-1.50815 0.36338-1.96875 1.0625-0.46061 0.69093-0.6875 1.67742-0.6875 2.96875v6.78125h-4.4375v-13.8125h4.4375v2c0.54284-0.78138 1.17586-1.35518 1.875-1.75 0.70735-0.3948 1.49654-0.59374 2.34375-0.59375zm41.156254 0c0.81428 0.00001 1.66595 0.0641 2.5625 0.1875 0.89652 0.12339 1.85343 0.33057 2.90625 0.59375v3.34375c-0.94591-0.39479-1.83867-0.67759-2.71875-0.875-0.8801-0.19738-1.71862-0.31249-2.5-0.3125-0.83897 0.00001-1.495 0.0987-1.90625 0.3125-0.40303 0.20563-0.56251 0.53283-0.5625 0.96875-0.00001 0.35369 0.16442 0.65458 0.46875 0.84375 0.31255 0.18918 0.82716 0.28453 1.625 0.375l0.8125 0.125c2.26189 0.28788 3.74985 0.7795 4.53125 1.4375 0.78136 0.65801 1.1875 1.68726 1.1875 3.09375 0 1.4723-0.53929 2.57224-1.625 3.3125s-2.72003 1.09375-4.875 1.09375c-0.91298 0-1.86496-0.0708-2.84375-0.21875-0.97056-0.13982-1.97187-0.36838-3-0.65625v-3.3125c0.88008 0.42771 1.79755 0.72366 2.71875 0.9375 0.92943 0.21386 1.85837 0.3125 2.8125 0.3125 0.86362 0 1.50155-0.10519 1.9375-0.34375 0.43593-0.23853 0.65624-0.59367 0.65625-1.0625-0.00001-0.39481-0.13319-0.68582-0.4375-0.875-0.29611-0.19739-0.88472-0.36183-1.78125-0.46875l-0.78125-0.0937c-1.9658-0.24675-3.33538-0.6775-4.125-1.34375-0.78961-0.66621-1.1875-1.6741-1.1875-3.03125 0-1.46405 0.49653-2.57387 1.5-3.28125 1.00346-0.70734 2.55226-1.06249 4.625-1.0625zm16.34375 0c2.17142 0.00001 3.91917 0.66097 5.21875 1.96875 1.30778 1.3078 1.93748 3.06213 1.9375 5.25v1.25h-10.3125c0.10692 1.03637 0.51468 1.79434 1.15625 2.3125 0.64155 0.51819 1.53598 0.78125 2.6875 0.78125 0.92944 0 1.87318-0.13483 2.84375-0.40625 0.97878-0.27965 1.97185-0.65944 3-1.21875v3.375c-1.04461 0.3948-2.08042 0.6776-3.125 0.875-1.0446 0.20564-2.11166 0.3125-3.15625 0.3125-2.50044 0-4.42247-0.60832-5.8125-1.875-1.38182-1.27489-2.0625-3.04895-2.0625-5.34375 0-2.25368 0.64287-4.02115 2-5.3125 1.36537-1.29133 3.23972-1.96874 5.625-1.96875zm19.125 0c0.9541 0.00001 1.79921 0.22691 2.53125 0.6875 0.73202 0.46061 1.30913 1.10679 1.6875 1.9375 0.5593-0.8554 1.2038-1.49333 1.96875-1.9375 0.77315-0.45237 1.61002-0.68749 2.53125-0.6875 1.58742 0.00001 2.8255 0.48998 3.65625 1.46875 0.83071 0.9788 1.21871 2.41417 1.21875 4.28125v8.40625h-4.4375v-7.1875c0.007-0.10693 0.0312-0.22859 0.0312-0.34375 0.007-0.11514 0-0.28614 0-0.5-0.00002-0.97878-0.14965-1.68906-0.4375-2.125-0.28791-0.44415-0.7647-0.65624-1.40625-0.65625-0.83897 0.00001-1.47692 0.34035-1.9375 1.03125-0.4524 0.69092-0.70231 1.69222-0.71875 3v6.78125h-4.4375v-7.1875c-0.00001-1.52986-0.11181-2.53281-0.375-2.96875-0.26321-0.44415-0.7318-0.65624-1.40625-0.65625-0.8472 0.00001-1.50815 0.36338-1.96875 1.0625-0.46061 0.69093-0.6875 1.67742-0.6875 2.96875v6.78125h-4.46875v-13.8125h4.46875v2c0.54286-0.78138 1.14461-1.35518 1.84375-1.75 0.70737-0.3948 1.49655-0.59374 2.34375-0.59375zm33.4375 0c0.72379 0.00001 1.42586 0.056 2.125 0.1875 0.70735 0.12339 1.42586 0.33879 2.125 0.59375v3.59375c-0.60044-0.41125-1.20386-0.70884-1.8125-0.90625-0.60044-0.1974-1.22522-0.31249-1.875-0.3125-1.23377 0.00001-2.18409 0.36997-2.875 1.09375-0.68269 0.7156-1.03125 1.73991-1.03125 3.03125 0 1.29135 0.34856 2.2762 1.03125 3 0.69091 0.71559 1.64123 1.0625 2.875 1.0625 0.6909 0 1.35186-0.10686 1.96875-0.3125 0.6251-0.20562 1.19233-0.47197 1.71875-0.875v3.59375c-0.69092 0.25497-1.40942 0.43912-2.125 0.5625-0.70737 0.13161-1.40943 0.1875-2.125 0.1875-2.49222 0-4.43726-0.60011-5.84375-1.875-1.4065-1.28311-2.09375-3.0654-2.09375-5.34375s0.68725-4.06885 2.09375-5.34375c1.40649-1.2831 3.35153-1.93749 5.84375-1.9375zm-180.5 0.34375h4.4375v13.5625c-0.000008 1.85065-0.455445 3.27944-1.34375 4.25-0.888317 0.97878-2.157606 1.4375-3.84375 1.4375h-2.1875v-2.875h0.75c0.83896 0 1.406195-0.21539 1.71875-0.59375 0.312553-0.37836 0.468749-1.10835 0.46875-2.21875zm43.59375 0h4.40625l3.46875 9.5625 3.40625-9.5625h4.4375l-5.4375 13.8125h-4.84375zm195.03125 0h4.40625l3.4375 9.5625 3.4375-9.5625h4.4375l-5.4375 13.8125h-4.84375zm-110.6875 2.59375c-0.85541 0.00001-1.55913 0.23349-2.09375 0.71875-0.53464 0.47706-0.86841 1.18901-1 2.09375h5.75c-0.00001-0.83893-0.2565-1.52127-0.75-2.03125-0.48529-0.51817-1.11664-0.78124-1.90625-0.78125zm-33.28125 0.28125c-0.93767 0.00001-1.65452 0.34036-2.15625 1.03125-0.49351 0.69093-0.75001 1.71524-0.75 3.03125-0.00001 1.31602 0.25649 2.30909 0.75 3 0.50173 0.69091 1.21858 1.03125 2.15625 1.03125 0.94588 0 1.66274-0.34034 2.15625-1.03125 0.50172-0.69091 0.74999-1.68398 0.75-3-0.00001-1.31601-0.24828-2.34032-0.75-3.03125-0.49351-0.69089-1.21037-1.03124-2.15625-1.03125zm117.28125 0c-0.93766 0.00001-1.68577 0.34036-2.1875 1.03125-0.49351 0.69093-0.71876 1.71524-0.71875 3.03125-0.00001 1.31602 0.22524 2.30909 0.71875 3 0.50173 0.69091 1.24984 1.03125 2.1875 1.03125 0.94589 0 1.63148-0.34034 2.125-1.03125 0.50172-0.69091 0.74999-1.68398 0.75-3-0.00001-1.31601-0.24828-2.34032-0.75-3.03125-0.49352-0.69089-1.17911-1.03124-2.125-1.03125zm122.75 1.78125h39.5625l7.46875 11.9375h-55.1875zm11.4375 1.40625v9.375h16.59375v-9.375zm54.90625 3.625h16.28125l2.625 6.8125h-21.8125zm-106.21875 2.34375h12.21875l1.03125 4.4375h-14.65625zm-8.71875 8.40625h136.375c7.88168 0 14.21875 6.33707 14.21875 14.21875v76.03125c0 7.88168-6.33707 14.21875-14.21875 14.21875h-136.375c-7.88168 0-14.21875-6.33707-14.21875-14.21875v-76.03125c0-7.88168 6.33707-14.21875 14.21875-14.21875zm-286.09375 5.78125h4.4375v10.4375l5.09375-5.0625h5.125l-6.78125 6.3125 7.3125 7.5h-5.34375l-5.40625-5.75v5.75h-4.4375zm22.5625 0h3.375v2.90625h-2.4375c-0.625115 0.00001-1.065754 0.11347-1.3125 0.34375-0.24676 0.22209-0.375006 0.59696-0.375 1.15625v0.96875h3.78125v3.15625h-3.78125v10.65625h-4.40625v-10.65625h-2.1875v-3.15625h2.1875v-0.96875c-0.000002-1.50517 0.442287-2.62815 1.28125-3.34375 0.838956-0.72378 2.114822-1.06248 3.875-1.0625zm46.8125 0h4.46875v19.1875h-4.46875v-2.03125c-0.60867 0.81429-1.26797 1.43415-2 1.8125-0.73204 0.37837-1.56892 0.59375-2.53125 0.59375-1.7026 0-3.12481-0.71358-4.21875-2.0625-1.09394-1.35714-1.62501-3.08844-1.625-5.21875-0.00001-2.13029 0.53106-3.86982 1.625-5.21875 1.09394-1.35712 2.51615-2.03124 4.21875-2.03125 0.9541 0.00001 1.7992 0.20718 2.53125 0.59375 0.74024 0.37837 1.39133 0.94396 2 1.75zm14.437504 0h3.375v2.90625h-2.4375c-0.62512 0.00001-1.06576 0.11347-1.3125 0.34375-0.24676 0.22209-0.37502 0.59696-0.375 1.15625v0.96875h3.78125v3.15625h-3.78125v10.65625h-4.40625v-10.65625h-2.187504v-3.15625h2.187504v-0.96875c0-1.50517 0.41103-2.62815 1.25-3.34375 0.83895-0.72378 2.14607-1.06248 3.90625-1.0625zm20.34375 0h4.40625v10.4375l5.09375-5.0625h5.125l-6.75 6.3125 7.28125 7.5h-5.34375l-5.40625-5.75v5.75h-4.40625zm35 0h4.4375v19.1875h-4.4375v-2.03125c-0.60867 0.81429-1.26798 1.43415-2 1.8125-0.73204 0.37837-1.5689 0.59375-2.53125 0.59375-1.70259 0-3.12481-0.71358-4.21875-2.0625-1.09394-1.35714-1.625-3.08844-1.625-5.21875 0-2.13029 0.53106-3.86982 1.625-5.21875 1.09394-1.35712 2.51616-2.03124 4.21875-2.03125 0.95413 0.00001 1.79919 0.20718 2.53125 0.59375 0.74024 0.37837 1.39133 0.94396 2 1.75zm29.46875 0h3.40625v2.90625h-2.4375c-0.62512 0.00001-1.097 0.11347-1.34375 0.34375-0.24675 0.22209-0.37501 0.59696-0.375 1.15625v0.96875h3.8125v3.15625h-3.8125v10.65625h-4.40625v-10.65625h-2.1875v-3.15625h2.1875v-0.96875c0-1.50517 0.44228-2.62815 1.28125-3.34375 0.83895-0.72378 2.11481-1.06248 3.875-1.0625zm38.53125 0h4.46875v19.1875h-4.46875v-2.03125c-0.60867 0.81429-1.26798 1.43415-2 1.8125-0.73204 0.37837-1.56892 0.59375-2.53125 0.59375-1.70261 0-3.12481-0.71358-4.21875-2.0625-1.09394-1.35714-1.625-3.08844-1.625-5.21875 0-2.13029 0.53106-3.86982 1.625-5.21875 1.09394-1.35712 2.51614-2.03124 4.21875-2.03125 0.95411 0.00001 1.79921 0.20718 2.53125 0.59375 0.74025 0.37837 1.39133 0.94396 2 1.75zm14.4375 0h3.375v2.90625h-2.4375c-0.62512 0.00001-1.06575 0.11347-1.3125 0.34375-0.24677 0.22209-0.37501 0.59696-0.375 1.15625v0.96875h3.78125v3.15625h-3.78125v10.65625h-4.40625v-10.65625h-2.1875v-3.15625h2.1875v-0.96875c0-1.50517 0.41103-2.62815 1.25-3.34375 0.83896-0.72378 2.14607-1.06248 3.90625-1.0625zm28.125 0h3.40625v2.90625h-2.46875c-0.62512 0.00001-1.06575 0.11347-1.3125 0.34375-0.24676 0.22209-0.375 0.59696-0.375 1.15625v0.96875h3.8125v3.15625h-3.8125v10.65625h-4.40625v-10.65625h-2.21875v-3.15625h2.21875v-0.96875c-0.00001-1.50517 0.41104-2.62815 1.25-3.34375 0.83895-0.72378 2.14606-1.06248 3.90625-1.0625zm-155.3125 5.03125c0.81427 0.00001 1.66596 0.0641 2.5625 0.1875 0.89652 0.12339 1.88468 0.33056 2.9375 0.59375v3.3125c-0.9459-0.39479-1.86993-0.64634-2.75-0.84375-0.88009-0.19739-1.71862-0.31248-2.5-0.3125-0.83896 0.00002-1.43249 0.0987-1.84375 0.3125-0.40303 0.20564-0.625 0.53283-0.625 0.96875 0 0.35369 0.16441 0.62333 0.46875 0.8125 0.31255 0.18918 0.85841 0.34703 1.65625 0.4375l0.78125 0.0937c2.26189 0.28788 3.7811 0.74824 4.5625 1.40625 0.78137 0.658 1.15623 1.68726 1.15625 3.09375-0.00002 1.4723-0.5393 2.60348-1.625 3.34375-1.08574 0.74025-2.72003 1.125-4.875 1.125-0.91299 0-1.83371-0.102-2.8125-0.25-0.97058-0.13982-1.97186-0.33713-3-0.625v-3.375c0.8801 0.42771 1.76628 0.75489 2.6875 0.96875 0.92943 0.21385 1.85838 0.34375 2.8125 0.34375 0.86363 0 1.56406-0.13646 2-0.375 0.43592-0.23852 0.62499-0.59367 0.625-1.0625-0.00001-0.39481-0.16443-0.68583-0.46875-0.875-0.29612-0.19739-0.88472-0.33055-1.78125-0.4375l-0.78125-0.125c-1.9658-0.24675-3.3354-0.70876-4.125-1.375-0.78962-0.66622-1.1875-1.6741-1.1875-3.03125 0-1.46406 0.49653-2.57389 1.5-3.28125 1.00345-0.70735 2.55226-1.03124 4.625-1.03125zm58.78125 0c0.81428 0.00001 1.66595 0.0641 2.5625 0.1875 0.89652 0.12339 1.88466 0.33056 2.9375 0.59375v3.3125c-0.94591-0.39479-1.86993-0.64634-2.75-0.84375-0.88011-0.19739-1.71862-0.31248-2.5-0.3125-0.83897 0.00002-1.46375 0.0987-1.875 0.3125-0.40304 0.20564-0.59376 0.53283-0.59375 0.96875-0.00001 0.35369 0.13317 0.62333 0.4375 0.8125 0.31255 0.18918 0.88966 0.34703 1.6875 0.4375l0.78125 0.0937c2.26189 0.28788 3.78111 0.74824 4.5625 1.40625 0.78137 0.658 1.15624 1.68726 1.15625 3.09375-0.00001 1.4723-0.53929 2.60348-1.625 3.34375-1.08571 0.74025-2.68879 1.125-4.84375 1.125-0.91299 0-1.86497-0.102-2.84375-0.25-0.97056-0.13982-1.97187-0.33713-3-0.625v-3.375c0.88008 0.42771 1.76629 0.75489 2.6875 0.96875 0.92943 0.21385 1.88964 0.34375 2.84375 0.34375 0.86363 0 1.50155-0.13646 1.9375-0.375 0.43592-0.23852 0.65624-0.59367 0.65625-1.0625-0.00001-0.39481-0.16443-0.68583-0.46875-0.875-0.2961-0.19739-0.88472-0.33055-1.78125-0.4375l-0.78125-0.125c-1.9658-0.24675-3.33538-0.70876-4.125-1.375-0.7896-0.66622-1.1875-1.6741-1.1875-3.03125 0-1.46406 0.49653-2.57389 1.5-3.28125 1.00345-0.70735 2.55227-1.03124 4.625-1.03125zm34.84375 0c0.81428 0.00001 1.66595 0.0641 2.5625 0.1875 0.89653 0.12339 1.85343 0.33056 2.90625 0.59375v3.3125c-0.94589-0.39479-1.83866-0.64634-2.71875-0.84375-0.88009-0.19739-1.71864-0.31248-2.5-0.3125-0.83898 0.00002-1.46375 0.0987-1.875 0.3125-0.40304 0.20564-0.59375 0.53283-0.59375 0.96875 0 0.35369 0.13317 0.62333 0.4375 0.8125 0.31255 0.18918 0.85841 0.34703 1.65625 0.4375l0.8125 0.0937c2.26188 0.28788 3.74986 0.74824 4.53125 1.40625 0.78138 0.658 1.18748 1.68726 1.1875 3.09375-0.00002 1.4723-0.57055 2.60348-1.65625 3.34375-1.08572 0.74025-2.68878 1.125-4.84375 1.125-0.91299 0-1.86497-0.102-2.84375-0.25-0.97056-0.13982-1.97186-0.33713-3-0.625v-3.375c0.88008 0.42771 1.79753 0.75489 2.71875 0.96875 0.92943 0.21385 1.85838 0.34375 2.8125 0.34375 0.86364 0 1.53281-0.13646 1.96875-0.375 0.43592-0.23852 0.62498-0.59367 0.625-1.0625-0.00002-0.39481-0.10192-0.68583-0.40625-0.875-0.29611-0.19739-0.91597-0.33055-1.8125-0.4375l-0.78125-0.125c-1.96581-0.24675-3.3354-0.70876-4.125-1.375-0.78961-0.66622-1.1875-1.6741-1.1875-3.03125 0-1.46406 0.49654-2.57389 1.5-3.28125 1.00347-0.70735 2.55228-1.03124 4.625-1.03125zm45.5 0c2.17141 0.00001 3.88792 0.66097 5.1875 1.96875 1.30778 1.30781 1.96873 3.03089 1.96875 5.21875v1.28125h-10.34375c0.10691 1.03636 0.48344 1.79432 1.125 2.3125 0.64155 0.51819 1.53598 0.8125 2.6875 0.8125 0.92943 0 1.87318-0.16607 2.84375-0.4375 0.97878-0.27964 1.97184-0.6907 3-1.25v3.40625c-1.04461 0.39479-2.08043 0.70885-3.125 0.90625-1.04461 0.20564-2.04916 0.3125-3.09375 0.3125-2.50044 0-4.45372-0.67083-5.84375-1.9375-1.38183-1.27489-2.09375-3.04893-2.09375-5.34375 0-2.25367 0.70536-4.02115 2.0625-5.3125 1.36536-1.29133 3.23971-1.93749 5.625-1.9375zm-206.90625 0.34375h4.28125l2.3125 9.5 2.34375-9.5h3.6875l2.3125 9.40625 2.34375-9.40625h4.3125l-3.65625 13.8125h-4.8125l-2.34375-9.5-2.3125 9.5h-4.84375zm342.65625 2.5625c-20.86242 0-37.75 16.91883-37.75 37.78125s16.88758 37.78125 37.75 37.78125 37.78125-16.91883 37.78125-37.78125-16.91883-37.78125-37.78125-37.78125zm-135.78125 0.0312c-0.85542 0.00002-1.59038 0.26474-2.125 0.75-0.53464 0.47706-0.83716 1.15776-0.96875 2.0625h5.75c-0.00001-0.83895-0.2565-1.52128-0.75-2.03125-0.48528-0.51818-1.11664-0.78123-1.90625-0.78125zm-167.03125 0.28125c-0.93767 0.00001-1.65452 0.30911-2.15625 1-0.49351 0.69093-0.75001 1.71525-0.75 3.03125-0.00001 1.31603 0.25649 2.3091 0.75 3 0.50173 0.69092 1.21858 1.0625 2.15625 1.0625 0.94589 0 1.66274-0.37158 2.15625-1.0625 0.50173-0.6909 0.74999-1.68397 0.75-3-0.00001-1.316-0.24827-2.34032-0.75-3.03125-0.49351-0.69089-1.21036-0.99999-2.15625-1zm69.781254 0c-0.93766 0.00001-1.65452 0.30911-2.15625 1-0.49351 0.69093-0.75001 1.71525-0.75 3.03125-0.00001 1.31603 0.25649 2.3091 0.75 3 0.50173 0.69092 1.21859 1.0625 2.15625 1.0625 0.94589 0 1.66273-0.37158 2.15625-1.0625 0.50172-0.6909 0.74999-1.68397 0.75-3-0.00001-1.316-0.24828-2.34032-0.75-3.03125-0.49352-0.69089-1.21036-0.99999-2.15625-1zm68 0c-0.93767 0.00001-1.65454 0.30911-2.15625 1-0.49352 0.69093-0.75001 1.71525-0.75 3.03125-0.00001 1.31603 0.25648 2.3091 0.75 3 0.50171 0.69092 1.21858 1.0625 2.15625 1.0625 0.94587 0 1.69397-0.37158 2.1875-1.0625 0.50171-0.6909 0.71874-1.68397 0.71875-3-0.00001-1.316-0.21704-2.34032-0.71875-3.03125-0.49353-0.69089-1.24163-0.99999-2.1875-1zm165.03125 14.90625c12.46327 0 22.59375 10.09923 22.59375 22.5625s-10.13048 22.5625-22.59375 22.5625-22.5625-10.09923-22.5625-22.5625 10.09923-22.5625 22.5625-22.5625zm-359.84375 8.4063h4.40625v19.1875h-4.40625v-2c-0.608669 0.81429-1.267977 1.4029-2 1.78125-0.732044 0.37836-1.60017 0.59375-2.5625 0.59375-1.702604 0-3.093564-0.68232-4.1875-2.03125-1.09394-1.35714-1.656251-3.08844-1.65625-5.21875-0.000001-2.1303 0.56231-3.86983 1.65625-5.21875 1.093936-1.35712 2.484896-2.06249 4.1875-2.0625 0.954104 0.00001 1.799206 0.20719 2.53125 0.59375 0.740249 0.37838 1.422581 0.97522 2.03125 1.78125zm26.875 0h4.46875v19.1875h-4.46875v-2c-0.60868 0.81429-1.26798 1.4029-2 1.78125-0.73204 0.37836-1.56893 0.59375-2.53125 0.59375-1.70261 0-3.124812-0.68232-4.21875-2.03125-1.093941-1.35714-1.625002-3.08844-1.625-5.21875-0.000002-2.1303 0.531059-3.86983 1.625-5.21875 1.093938-1.35712 2.51614-2.06249 4.21875-2.0625 0.9541 0.00001 1.79921 0.20719 2.53125 0.59375 0.74025 0.37838 1.39132 0.97522 2 1.78125zm29.46875 0h3.375v2.90625h-2.4375c-0.62511 0.00001-1.03451 0.11347-1.28125 0.34375-0.24676 0.22209-0.375 0.6282-0.375 1.1875v0.9375h3.75v3.15625h-3.75v10.65625h-4.4375v-10.65625h-2.1875v-3.15625h2.1875v-0.9375c0-1.50518 0.44229-2.62815 1.28125-3.34375 0.83896-0.72378 2.11482-1.09373 3.875-1.09375zm5.3125 0h4.40625v10.4375l5.093754-5.0625h5.125l-6.75 6.34375 7.28125 7.46875h-5.34375l-5.406254-5.75v5.75h-4.40625zm16.812504 0h4.4375v3.59375h-4.4375zm26.875 0h4.4375v19.1875h-4.4375v-2c-0.60866 0.81429-1.29922 1.4029-2.03125 1.78125-0.73204 0.37836-1.56891 0.59375-2.53125 0.59375-1.70259 0-3.09356-0.68232-4.1875-2.03125-1.09394-1.35714-1.65625-3.08844-1.65625-5.21875 0-2.1303 0.56231-3.86983 1.65625-5.21875 1.09394-1.35712 2.48491-2.06249 4.1875-2.0625 0.95411 0.00001 1.7992 0.20719 2.53125 0.59375 0.74024 0.37838 1.42259 0.97522 2.03125 1.78125zm14.4375 0h3.375v2.90625h-2.4375c-0.6251 0.00001-1.06576 0.11347-1.3125 0.34375-0.24677 0.22209-0.37501 0.6282-0.375 1.1875v0.9375h3.75v3.15625h-3.75v10.65625h-4.4375v-10.65625h-2.1875v-3.15625h2.1875v-0.9375c0-1.50518 0.44228-2.62815 1.28125-3.34375 0.83896-0.72378 2.14606-1.09373 3.90625-1.09375zm38.53125 0h4.4375v19.1875h-4.4375v-2c-0.60866 0.81429-1.29923 1.4029-2.03125 1.78125-0.73204 0.37836-1.56893 0.59375-2.53125 0.59375-1.70261 0-3.09357-0.68232-4.1875-2.03125-1.09394-1.35714-1.65625-3.08844-1.65625-5.21875 0-2.1303 0.56231-3.86983 1.65625-5.21875 1.09393-1.35712 2.48489-2.06249 4.1875-2.0625 0.9541 0.00001 1.7992 0.20719 2.53125 0.59375 0.74024 0.37838 1.42259 0.97522 2.03125 1.78125zm14.40625 0h3.375v2.90625h-2.4375c-0.62512 0.00001-1.06575 0.11347-1.3125 0.34375-0.24676 0.22209-0.34376 0.6282-0.34375 1.1875v0.9375h3.75v3.15625h-3.75v10.65625h-4.4375v-10.65625h-2.1875v-3.15625h2.1875v-0.9375c0-1.50518 0.44229-2.62815 1.28125-3.34375 0.83896-0.72378 2.11483-1.09373 3.875-1.09375zm5.28125 0h4.4375v10.4375l5.09375-5.0625h5.125l-6.75 6.34375 7.28125 7.46875h-5.34375l-5.40625-5.75v5.75h-4.4375zm16.84375 0h4.4375v3.59375h-4.4375zm17.46875 0h4.40625v3.59375h-4.40625zm8.6875 0h4.40625v10.4375l5.09375-5.0625h5.125l-6.75 6.34375 7.28125 7.46875h-5.34375l-5.40625-5.75v5.75h-4.40625zm16.84375 0h4.40625v3.59375h-4.40625zm-196.9375 5.03125c0.81428 0.00001 1.66595 0.0641 2.5625 0.1875 0.89652 0.12339 1.85343 0.33056 2.90625 0.59375v3.375c-0.94591-0.39479-1.83867-0.70884-2.71875-0.90625-0.88009-0.1974-1.71862-0.31249-2.5-0.3125-0.83897 0.00001-1.46375 0.1299-1.875 0.34375-0.40303 0.20563-0.59376 0.53284-0.59375 0.96875-0.00001 0.3537 0.16442 0.62332 0.46875 0.8125 0.31255 0.18918 0.82716 0.31577 1.625 0.40625l0.8125 0.0937c2.2619 0.28789 3.74985 0.7795 4.53125 1.4375 0.78136 0.65801 1.18749 1.68726 1.1875 3.09375-0.00001 1.47229-0.5393 2.60348-1.625 3.34375-1.08572 0.74024-2.72002 1.09375-4.875 1.09375-0.91298 0-1.86496-0.0707-2.84375-0.21875-0.97056-0.13983-1.97187-0.36837-3-0.65625v-3.34375c0.88008 0.42771 1.79755 0.72364 2.71875 0.9375 0.92944 0.21385 1.85838 0.34375 2.8125 0.34375 0.86362 0 1.53281-0.13646 1.96875-0.375 0.43593-0.23852 0.62499-0.56242 0.625-1.03125-0.00001-0.3948-0.13318-0.71708-0.4375-0.90625-0.29611-0.19741-0.88471-0.33055-1.78125-0.4375l-0.78125-0.125c-1.96581-0.24673-3.33539-0.67751-4.125-1.34375-0.78962-0.66623-1.18751-1.67409-1.1875-3.03125-0.00001-1.46405 0.49653-2.54262 1.5-3.25 1.00346-0.70733 2.55226-1.09374 4.625-1.09375zm98.218754 0c0.81428 0.00001 1.72845 0.0641 2.625 0.1875 0.89653 0.12339 1.82217 0.33056 2.875 0.59375v3.375c-0.94589-0.39479-1.86992-0.70884-2.75-0.90625-0.8801-0.1974-1.68738-0.31249-2.46875-0.3125-0.83897 0.00001-1.46375 0.1299-1.875 0.34375-0.40304 0.20563-0.59376 0.53284-0.59375 0.96875-0.00001 0.3537 0.13317 0.62332 0.4375 0.8125 0.31255 0.18918 0.88967 0.31577 1.6875 0.40625l0.75 0.0937c2.26189 0.28789 3.81235 0.7795 4.59375 1.4375 0.78137 0.65801 1.15624 1.68726 1.15625 3.09375-0.00001 1.47229-0.5393 2.60348-1.625 3.34375-1.08573 0.74024-2.72003 1.09375-4.875 1.09375-0.913 0-1.83372-0.0707-2.8125-0.21875-0.97057-0.13983-1.97187-0.36837-3-0.65625v-3.34375c0.88007 0.42771 1.79753 0.72364 2.71875 0.9375 0.92943 0.21385 1.85838 0.34375 2.8125 0.34375 0.86363 0 1.50157-0.13646 1.9375-0.375 0.43592-0.23852 0.65624-0.56242 0.65625-1.03125-0.00001-0.3948-0.13318-0.71708-0.4375-0.90625-0.29611-0.19741-0.91598-0.33055-1.8125-0.4375l-0.75-0.125c-1.9658-0.24673-3.36665-0.67751-4.15625-1.34375-0.7896-0.66623-1.1875-1.67409-1.1875-3.03125 0-1.46405 0.49653-2.54262 1.5-3.25 1.00346-0.70733 2.52102-1.09374 4.59375-1.09375zm-60.65625 0.34375h4.4375v13.5625c0 1.85065-0.45545 3.27943-1.34375 4.25-0.88833 0.97878-2.15761 1.46874-3.84375 1.46875h-2.1875v-2.90625h0.75c0.83897-0.00001 1.43744-0.18415 1.75-0.5625s0.43749-1.13961 0.4375-2.25zm116.375 0h4.4375v13.5625c-0.00001 1.85065-0.45545 3.27943-1.34375 4.25-0.88831 0.97878-2.15761 1.46874-3.84375 1.46875h-2.21875v-2.90625h0.78125c0.83894-0.00001 1.40619-0.18415 1.71875-0.5625 0.31255-0.37835 0.46875-1.13961 0.46875-2.25zm17.46875 0h4.40625v13.5625c-0.00001 1.85065-0.42421 3.27943-1.3125 4.25-0.88832 0.97878-2.18885 1.46874-3.875 1.46875h-2.1875v-2.90625h0.78125c0.83896-0.00001 1.40619-0.18415 1.71875-0.5625 0.31255-0.37835 0.46875-1.13961 0.46875-2.25zm25.53125 0h4.40625v13.5625c-0.00002 1.85065-0.42419 3.27943-1.3125 4.25-0.8883 0.97878-2.18886 1.46874-3.875 1.46875h-2.1875v-2.90625h0.75c0.83895-0.00001 1.43744-0.18415 1.75-0.5625 0.31254-0.37835 0.46875-1.13961 0.46875-2.25zm-240.78125 2.875c-0.93767 0.00001-1.623275 0.3716-2.125 1.0625-0.493512 0.69092-0.750007 1.68399-0.75 3-0.000007 1.31603 0.256488 2.30909 0.75 3 0.501725 0.69092 1.18733 1.03126 2.125 1.03125 0.945877 0.00001 1.662732-0.34033 2.15625-1.03125 0.50172-0.69091 0.781239-1.68397 0.78125-3-0.000011-1.31601-0.27953-2.30908-0.78125-3-0.493518-0.6909-1.210373-1.06249-2.15625-1.0625zm26.90625 0c-0.93767 0.00001-1.65452 0.3716-2.15625 1.0625-0.49351 0.69092-0.75 1.68399-0.75 3 0 1.31603 0.25649 2.30909 0.75 3 0.50173 0.69092 1.21858 1.03126 2.15625 1.03125 0.94587 0.00001 1.66274-0.34033 2.15625-1.03125 0.50173-0.69091 0.74999-1.68397 0.75-3-0.00001-1.31601-0.24827-2.30908-0.75-3-0.49351-0.6909-1.21038-1.06249-2.15625-1.0625zm78.468754 0c-0.93767 0.00001-1.65452 0.3716-2.15625 1.0625-0.4935 0.69092-0.75001 1.68399-0.75 3-0.00001 1.31603 0.2565 2.30909 0.75 3 0.50173 0.69092 1.21858 1.03126 2.15625 1.03125 0.94587 0.00001 1.66273-0.34033 2.15625-1.03125 0.50172-0.69091 0.74999-1.68397 0.75-3-0.00001-1.31601-0.24828-2.30908-0.75-3-0.49352-0.6909-1.21038-1.06249-2.15625-1.0625zm52.96875 0c-0.93767 0.00001-1.68578 0.3716-2.1875 1.0625-0.49351 0.69092-0.71876 1.68399-0.71875 3-0.00001 1.31603 0.22524 2.30909 0.71875 3 0.50172 0.69092 1.24983 1.03126 2.1875 1.03125 0.94587 0.00001 1.66273-0.34033 2.15625-1.03125 0.50172-0.69091 0.74999-1.68397 0.75-3-0.00001-1.31601-0.24828-2.30908-0.75-3-0.49352-0.6909-1.21038-1.06249-2.15625-1.0625zm-164.84375 23.34375h4.4375v10.4375l5.09375-5.0625h5.125l-6.78125 6.34375 7.3125 7.46875h-5.34375l-5.40625-5.75v5.75h-4.4375zm16.84375 0h4.4375v19.1875h-4.4375zm14.40625 0h3.375v2.90625h-2.4375c-0.62512 0.00002-1.06575 0.11347-1.3125 0.34375-0.24675 0.22209-0.375 0.59695-0.375 1.15625v0.96875h3.78125v3.15625h-3.78125v10.65625h-4.40625v-10.65625h-2.1875v-3.15625h2.1875v-0.96875c-0.000003-1.50518 0.411036-2.62815 1.25-3.34375 0.838955-0.72379 2.146079-1.06248 3.90625-1.0625zm20.34375 0h4.40625v3.59375h-4.40625zm17.46875 0h4.4375v10.4375l5.062504-5.0625h5.125l-6.750004 6.34375 7.281254 7.46875h-5.34375l-5.375004-5.75v5.75h-4.4375zm41.281254 0h4.4375v19.1875h-4.4375v-1.96875c-0.60867 0.8143-1.26798 1.4029-2 1.78125-0.73204 0.37836-1.60017 0.5625-2.5625 0.5625-1.7026 0-3.06231-0.71358-4.15625-2.0625-1.09393-1.35714-1.65625-3.08844-1.65625-5.21875 0-2.1303 0.56232-3.86982 1.65625-5.21875 1.09394-1.35713 2.45365-2.03123 4.15625-2.03125 0.9541 0.00002 1.79921 0.2072 2.53125 0.59375 0.74025 0.37839 1.42258 0.97521 2.03125 1.78125zm14.40625 0h3.40625v2.90625h-2.4375c-0.62512 0.00002-1.097 0.11347-1.34375 0.34375-0.24676 0.22209-0.37501 0.59695-0.375 1.15625v0.96875h3.8125v3.15625h-3.8125v10.65625h-4.375v-10.65625h-2.21875v-3.15625h2.21875v-0.96875c0-1.50518 0.41103-2.62815 1.25-3.34375 0.83895-0.72379 2.11484-1.06248 3.875-1.0625zm5.3125 0h4.4375v10.4375l5.0625-5.0625h5.125l-6.75 6.34375 7.28125 7.46875h-5.34375l-5.375-5.75v5.75h-4.4375zm25.625 0h4.40625v3.59375h-4.40625zm18.0625 0h4.46875v19.1875h-4.46875v-1.96875c-0.60867 0.8143-1.26798 1.4029-2 1.78125-0.73205 0.37836-1.56891 0.5625-2.53125 0.5625-1.70259 0-3.09357-0.71358-4.1875-2.0625-1.09395-1.35714-1.65625-3.08844-1.65625-5.21875 0-2.1303 0.5623-3.86982 1.65625-5.21875 1.09393-1.35713 2.48491-2.03123 4.1875-2.03125 0.95411 0.00002 1.76795 0.2072 2.5 0.59375 0.74026 0.37839 1.42258 0.97521 2.03125 1.78125zm29.5 0h3.34375v2.90625h-2.4375c-0.62512 0.00002-1.03451 0.11347-1.28125 0.34375-0.24676 0.22209-0.37501 0.59695-0.375 1.15625v0.96875h3.78125v3.15625h-3.78125v10.65625h-4.40625v-10.65625h-2.21875v-3.15625h2.21875v-0.96875c0-1.50518 0.41103-2.62815 1.25-3.34375 0.83896-0.72379 2.14606-1.06248 3.90625-1.0625zm5.28125 0h4.40625v3.59375h-4.40625zm26.875 0h4.4375v19.1875h-4.4375v-1.96875c-0.60866 0.8143-1.26798 1.4029-2 1.78125-0.73204 0.37836-1.60016 0.5625-2.5625 0.5625-1.7026 0-3.09356-0.71358-4.1875-2.0625-1.09394-1.35714-1.625-3.08844-1.625-5.21875 0-2.1303 0.53106-3.86982 1.625-5.21875 1.09394-1.35713 2.4849-2.03123 4.1875-2.03125 0.95411 0.00002 1.79921 0.2072 2.53125 0.59375 0.74025 0.37839 1.42259 0.97521 2.03125 1.78125zm14.4375 0h3.375v2.90625h-2.46875c-0.62512 0.00002-1.0345 0.11347-1.28125 0.34375-0.24676 0.22209-0.37501 0.59695-0.375 1.15625v0.96875h3.78125v3.15625h-3.78125v10.65625h-4.40625v-10.65625h-2.21875v-3.15625h2.21875v-0.96875c0-1.50518 0.37978-2.62815 1.21875-3.34375 0.83895-0.72379 2.17731-1.06248 3.9375-1.0625zm-208 5.03125c0.81427 0.00002 1.66596 0.0641 2.5625 0.1875 0.89653 0.12338 1.88468 0.33056 2.9375 0.59375v3.34375c-0.94589-0.39479-1.86993-0.67759-2.75-0.875-0.8801-0.1974-1.71863-0.31249-2.5-0.3125-0.83897 0.00001-1.43251 0.12991-1.84375 0.34375-0.40304 0.20563-0.62501 0.50158-0.625 0.9375-0.00001 0.3537 0.16441 0.62332 0.46875 0.8125 0.31254 0.18918 0.8584 0.34702 1.65625 0.4375l0.78125 0.0937c2.2619 0.28789 3.78112 0.74825 4.5625 1.40625 0.78139 0.65801 1.18749 1.71851 1.1875 3.125-0.00001 1.47229-0.57056 2.57224-1.65625 3.3125-1.08572 0.74025-2.68879 1.125-4.84375 1.125-0.91301 0-1.86496-0.0707-2.84375-0.21875-0.97056-0.13983-1.97187-0.36837-3-0.65625v-3.375c0.88009 0.42772 1.76629 0.7549 2.6875 0.96875 0.92943 0.21386 1.88963 0.34375 2.84375 0.34375 0.86362 0 1.5328-0.13647 1.96875-0.375 0.43592-0.23853 0.62499-0.59366 0.625-1.0625-0.00001-0.39479-0.13318-0.65457-0.4375-0.84375-0.2961-0.1974-0.91598-0.36181-1.8125-0.46875l-0.78125-0.0937c-1.9658-0.24675-3.33539-0.74001-4.125-1.40625-0.78961-0.66623-1.1875-1.67409-1.1875-3.03125 0-1.46406 0.52779-2.51137 1.53125-3.21875 1.00347-0.70733 2.52101-1.09373 4.59375-1.09375zm49.343754 0c0.81428 0.00002 1.66596 0.0641 2.5625 0.1875 0.89653 0.12338 1.88467 0.33056 2.9375 0.59375v3.34375c-0.9459-0.39479-1.86993-0.67759-2.75-0.875-0.8801-0.1974-1.71863-0.31249-2.5-0.3125-0.83897 0.00001-1.43251 0.12991-1.84375 0.34375-0.40304 0.20563-0.62501 0.50158-0.625 0.9375-0.00001 0.3537 0.16441 0.62332 0.46875 0.8125 0.31254 0.18918 0.8584 0.34702 1.65625 0.4375l0.78125 0.0937c2.2619 0.28789 3.78109 0.74825 4.5625 1.40625 0.78137 0.65801 1.18749 1.71851 1.1875 3.125-0.00001 1.47229-0.5393 2.57224-1.625 3.3125-1.08572 0.74025-2.72004 1.125-4.875 1.125-0.91301 0-1.86496-0.0707-2.84375-0.21875-0.97056-0.13983-1.97187-0.36837-3-0.65625v-3.375c0.88008 0.42772 1.76628 0.7549 2.6875 0.96875 0.92943 0.21386 1.88964 0.34375 2.84375 0.34375 0.86364 0 1.53281-0.13647 1.96875-0.375 0.43592-0.23853 0.62499-0.59366 0.625-1.0625-0.00001-0.39479-0.1332-0.65457-0.4375-0.84375-0.29613-0.1974-0.91599-0.36181-1.8125-0.46875l-0.75-0.0937c-1.9658-0.24675-3.36665-0.74001-4.15625-1.40625-0.78962-0.66623-1.1875-1.67409-1.1875-3.03125 0-1.46406 0.5278-2.51137 1.53125-3.21875 1.00346-0.70733 2.52101-1.09373 4.59375-1.09375zm96.59375 0c0.81428 0.00002 1.66595 0.0641 2.5625 0.1875 0.89651 0.12338 1.85343 0.33056 2.90625 0.59375v3.34375c-0.94589-0.39479-1.83868-0.67759-2.71875-0.875-0.8801-0.1974-1.71862-0.31249-2.5-0.3125-0.83896 0.00001-1.46375 0.12991-1.875 0.34375-0.40303 0.20563-0.59375 0.50158-0.59375 0.9375 0 0.3537 0.13317 0.62332 0.4375 0.8125 0.31256 0.18918 0.85841 0.34702 1.65625 0.4375l0.8125 0.0937c2.26188 0.28789 3.74985 0.74825 4.53125 1.40625 0.78137 0.65801 1.18749 1.71851 1.1875 3.125-0.00001 1.47229-0.5393 2.57224-1.625 3.3125-1.08573 0.74025-2.72002 1.125-4.875 1.125-0.91298 0-1.86496-0.0707-2.84375-0.21875-0.97056-0.13983-1.97185-0.36837-3-0.65625v-3.375c0.88009 0.42772 1.79753 0.7549 2.71875 0.96875 0.92943 0.21386 1.85838 0.34375 2.8125 0.34375 0.86364 0 1.53281-0.13647 1.96875-0.375 0.43592-0.23853 0.62499-0.59366 0.625-1.0625-0.00001-0.39479-0.10192-0.65457-0.40625-0.84375-0.29611-0.1974-0.91596-0.36181-1.8125-0.46875l-0.75-0.0937c-1.96581-0.24675-3.36664-0.74001-4.15625-1.40625-0.78962-0.66623-1.1875-1.67409-1.1875-3.03125 0-1.46406 0.49653-2.51137 1.5-3.21875 1.00347-0.70733 2.55227-1.09373 4.625-1.09375zm-136.1875 0.34375h4.40625v13.5625c-0.00001 1.85065-0.4242 3.24818-1.3125 4.21875-0.88832 0.97878-2.18886 1.49999-3.875 1.5h-2.15625v-2.90625h0.71875c0.83897 0 1.43745-0.18415 1.75-0.5625 0.31256-0.37836 0.46875-1.13961 0.46875-2.25zm104.09375 0h4.40625v13.5625c-0.00001 1.85065-0.45545 3.24818-1.34375 4.21875-0.88832 0.97878-2.18885 1.49999-3.875 1.5h-2.15625v-2.90625h0.78125c0.83896 0 1.37494-0.18415 1.6875-0.5625 0.31255-0.37836 0.5-1.13961 0.5-2.25zm52.84375 0h4.40625v13.5625c0 1.85065-0.42419 3.24818-1.3125 4.21875-0.88832 0.97878-2.18885 1.49999-3.875 1.5h-2.1875v-2.90625h0.78125c0.83895 0 1.40619-0.18415 1.71875-0.5625 0.31256-0.37836 0.46874-1.13961 0.46875-2.25zm-101.125 2.875c-0.93767 0.00002-1.62329 0.34035-2.125 1.03125-0.49353 0.69092-0.75001 1.68399-0.75 3-0.00001 1.31603 0.25647 2.34035 0.75 3.03125 0.50171 0.69092 1.18733 1.03126 2.125 1.03125 0.94588 0.00001 1.69399-0.34033 2.1875-1.03125 0.50172-0.6909 0.74998-1.71522 0.75-3.03125-0.00002-1.31601-0.24828-2.30908-0.75-3-0.49351-0.6909-1.24162-1.03123-2.1875-1.03125zm63.4375 0c-0.93767 0.00002-1.65453 0.34035-2.15625 1.03125-0.49353 0.69092-0.75 1.68399-0.75 3 0 1.31603 0.25647 2.34035 0.75 3.03125 0.50172 0.69092 1.21858 1.03126 2.15625 1.03125 0.94588 0.00001 1.69399-0.34033 2.1875-1.03125 0.50173-0.6909 0.71874-1.71522 0.71875-3.03125-0.00001-1.31601-0.21702-2.30908-0.71875-3-0.49351-0.6909-1.24162-1.03123-2.1875-1.03125zm61.65625 0c-0.93767 0.00002-1.65454 0.34035-2.15625 1.03125-0.49351 0.69092-0.75001 1.68399-0.75 3-0.00001 1.31603 0.25649 2.34035 0.75 3.03125 0.50171 0.69092 1.21858 1.03126 2.15625 1.03125 0.94587 0.00001 1.63148-0.34033 2.125-1.03125 0.50172-0.6909 0.78125-1.71522 0.78125-3.03125 0-1.31601-0.27953-2.30908-0.78125-3-0.49352-0.6909-1.17913-1.03123-2.125-1.03125zm-232.5 23.3125h4.4375v3.625h-4.4375zm23.21875 0h3.375v2.90625h-2.4375c-0.625115 0.00002-1.065754 0.11346-1.3125 0.34375-0.24676 0.22209-0.375008 0.62821-0.375 1.1875v0.9375h3.78125v3.15625h-3.78125v10.65625h-4.40625v-10.65625h-2.1875v-3.15625h2.1875v-0.9375c-0.000003-1.50517 0.379785-2.62815 1.21875-3.34375 0.838956-0.72379 2.177322-1.09374 3.9375-1.09375zm29.71875 0h4.46875v19.1875h-4.46875v-1.96875c-0.60867 0.81429-1.26796 1.4029-2 1.78125-0.73204 0.37836-1.56892 0.5625-2.53125 0.5625-1.7026 0-3.12482-0.65107-4.21875-2-1.09395-1.35713-1.625-3.11969-1.625-5.25 0-2.1303 0.53105-3.86982 1.625-5.21875 1.09393-1.35713 2.51615-2.03124 4.21875-2.03125 0.9541 0.00001 1.79921 0.17595 2.53125 0.5625 0.74026 0.37837 1.39133 1.00646 2 1.8125zm14.4375 0h3.375v2.90625h-2.4375c-0.62513 0.00002-1.06575 0.11346-1.3125 0.34375-0.24675 0.22209-0.37501 0.62821-0.375 1.1875v0.9375h3.78125v3.15625h-3.78125v10.65625h-4.40625v-10.65625h-2.1875v-3.15625h2.1875v-0.9375c0-1.50517 0.41104-2.62815 1.25-3.34375 0.83895-0.72379 2.14607-1.09374 3.90625-1.09375zm32.250004 0h4.46875v19.1875h-4.46875v-1.96875c-0.60867 0.81429-1.26798 1.4029-2 1.78125-0.73205 0.37836-1.56892 0.5625-2.53125 0.5625-1.70261 0-3.12481-0.65107-4.21875-2-1.09395-1.35713-1.625-3.11969-1.625-5.25 0-2.1303 0.53105-3.86982 1.625-5.21875 1.09394-1.35713 2.51614-2.03124 4.21875-2.03125 0.95411 0.00001 1.79921 0.17595 2.53125 0.5625 0.74025 0.37837 1.39133 1.00646 2 1.8125zm29.5 0h3.34375v2.90625h-2.4375c-0.62511 0.00002-1.03451 0.11346-1.28125 0.34375-0.24676 0.22209-0.37501 0.62821-0.375 1.1875v0.9375h3.75v3.15625h-3.75v10.65625h-4.4375v-10.65625h-2.1875v-3.15625h2.1875v-0.9375c0-1.50517 0.44228-2.62815 1.28125-3.34375 0.83896-0.72379 2.14607-1.09374 3.90625-1.09375zm38.53125 0h4.4375v19.1875h-4.4375v-1.96875c-0.60866 0.81429-1.29923 1.4029-2.03125 1.78125-0.73205 0.37836-1.56893 0.5625-2.53125 0.5625-1.70261 0-3.09356-0.65107-4.1875-2-1.09394-1.35713-1.65625-3.11969-1.65625-5.25 0-2.1303 0.56231-3.86982 1.65625-5.21875 1.09394-1.35713 2.48489-2.03124 4.1875-2.03125 0.9541 0.00001 1.76796 0.17595 2.5 0.5625 0.74025 0.37837 1.45384 1.00646 2.0625 1.8125zm29.46875 0h3.375v2.90625h-2.4375c-0.62511 0.00002-1.06576 0.11346-1.3125 0.34375-0.24677 0.22209-0.375 0.62821-0.375 1.1875v0.9375h3.78125v3.15625h-3.78125v10.65625h-4.40625v-10.65625h-2.1875v-3.15625h2.1875v-0.9375c-0.00001-1.50517 0.41104-2.62815 1.25-3.34375 0.83896-0.72379 2.14606-1.09374 3.90625-1.09375zm5.28125 0h4.40625v10.46875l5.125-5.09375h5.125l-6.78125 6.375 7.28125 7.4375h-5.34375l-5.40625-5.75v5.75h-4.40625zm16.84375 0h4.40625v3.625h-4.40625zm33.125 0h4.4375v19.1875h-4.4375v-1.96875c-0.60867 0.81429-1.26797 1.4029-2 1.78125-0.73203 0.37836-1.60018 0.5625-2.5625 0.5625-1.70261 0-3.09356-0.65107-4.1875-2-1.09393-1.35713-1.625-3.11969-1.625-5.25 0-2.1303 0.53107-3.86982 1.625-5.21875 1.09394-1.35713 2.48489-2.03124 4.1875-2.03125 0.95411 0.00001 1.83047 0.17595 2.5625 0.5625 0.74026 0.37837 1.39133 1.00646 2 1.8125zm-218.5625 5.0625c0.81428 0.00001 1.66595 0.0329 2.5625 0.15625 0.89653 0.1234 1.85343 0.33057 2.90625 0.59375v3.375c-0.94589-0.39479-1.83867-0.70884-2.71875-0.90625-0.8801-0.1974-1.71863-0.28124-2.5-0.28125-0.83897 0.00001-1.46375 0.0987-1.875 0.3125-0.40303 0.20563-0.59377 0.53283-0.59375 0.96875-0.00002 0.35369 0.13317 0.62333 0.4375 0.8125 0.31255 0.18919 0.85841 0.34703 1.65625 0.4375l0.8125 0.125c2.26189 0.28788 3.74985 0.71701 4.53125 1.375 0.78138 0.65802 1.18748 1.71852 1.1875 3.125-0.00002 1.4723-0.57056 2.57225-1.65625 3.3125-1.08573 0.74027-2.68878 1.09375-4.84375 1.09375-0.913 0-1.86496-0.0707-2.84375-0.21875-0.97056-0.13983-1.971867-0.33712-3-0.625v-3.375c0.880087 0.42772 1.797533 0.75489 2.71875 0.96875 0.92943 0.21385 1.85838 0.3125 2.8125 0.3125 0.86363 0 1.53282-0.13647 1.96875-0.375s0.62499-0.5624 0.625-1.03125c-0.00001-0.39479-0.13317-0.68582-0.4375-0.875-0.29611-0.19739-0.88473-0.36182-1.78125-0.46875l-0.78125-0.0937c-1.9658-0.24675-3.335387-0.70876-4.125-1.375-0.789608-0.66623-1.187501-1.6741-1.1875-3.03125-0.000001-1.46406 0.496535-2.54263 1.5-3.25 1.003467-0.70734 2.55227-1.06249 4.625-1.0625zm79.843754 0c0.81428 0.00001 1.66594 0.0329 2.5625 0.15625 0.89652 0.1234 1.85343 0.33057 2.90625 0.59375v3.375c-0.9459-0.39479-1.83867-0.70884-2.71875-0.90625-0.8801-0.1974-1.71862-0.28124-2.5-0.28125-0.83897 0.00001-1.46375 0.0987-1.875 0.3125-0.40304 0.20563-0.59375 0.53283-0.59375 0.96875 0 0.35369 0.16442 0.62333 0.46875 0.8125 0.31255 0.18919 0.85841 0.34703 1.65625 0.4375l0.78125 0.125c2.2619 0.28788 3.74985 0.71701 4.53125 1.375 0.78136 0.65802 1.18749 1.71852 1.1875 3.125-0.00001 1.4723-0.53929 2.57225-1.625 3.3125-1.08571 0.74027-2.72004 1.09375-4.875 1.09375-0.91299 0-1.86497-0.0707-2.84375-0.21875-0.97056-0.13983-1.97187-0.33712-3-0.625v-3.375c0.88008 0.42772 1.79754 0.75489 2.71875 0.96875 0.92944 0.21385 1.85839 0.3125 2.8125 0.3125 0.86362 0 1.53282-0.13647 1.96875-0.375 0.43592-0.23853 0.65624-0.5624 0.65625-1.03125-0.00001-0.39479-0.16443-0.68582-0.46875-0.875-0.2961-0.19739-0.88472-0.36182-1.78125-0.46875l-0.78125-0.0937c-1.96581-0.24675-3.33538-0.70876-4.125-1.375-0.7896-0.66623-1.1875-1.6741-1.1875-3.03125 0-1.46406 0.49652-2.54263 1.5-3.25 1.00345-0.70734 2.55227-1.06249 4.625-1.0625zm26.0625 0c0.81428 0.00001 1.66594 0.0329 2.5625 0.15625 0.89652 0.1234 1.88468 0.33057 2.9375 0.59375v3.375c-0.9459-0.39479-1.86993-0.70884-2.75-0.90625-0.8801-0.1974-1.71862-0.28124-2.5-0.28125-0.83897 0.00001-1.46374 0.0987-1.875 0.3125-0.40302 0.20563-0.62501 0.53283-0.625 0.96875-0.00001 0.35369 0.16442 0.62333 0.46875 0.8125 0.31255 0.18919 0.88966 0.34703 1.6875 0.4375l0.75 0.125c2.2619 0.28788 3.81235 0.71701 4.59375 1.375 0.78136 0.65802 1.15625 1.71852 1.15625 3.125 0 1.4723-0.53929 2.57225-1.625 3.3125-1.08571 0.74027-2.68877 1.09375-4.84375 1.09375-0.91299 0-1.86497-0.0707-2.84375-0.21875-0.97057-0.13983-1.97187-0.33712-3-0.625v-3.375c0.88008 0.42772 1.7663 0.75489 2.6875 0.96875 0.92944 0.21385 1.88963 0.3125 2.84375 0.3125 0.86362 0 1.50157-0.13647 1.9375-0.375s0.65624-0.5624 0.65625-1.03125c-0.00001-0.39479-0.16442-0.68582-0.46875-0.875-0.2961-0.19739-0.88472-0.36182-1.78125-0.46875l-0.78125-0.0937c-1.96581-0.24675-3.36663-0.70876-4.15625-1.375-0.78961-0.66623-1.15625-1.6741-1.15625-3.03125 0-1.46406 0.49652-2.54263 1.5-3.25 1.00345-0.70734 2.55227-1.06249 4.625-1.0625zm41.9375 0c0.81428 0.00001 1.69722 0.0329 2.59375 0.15625 0.89653 0.1234 1.82217 0.33057 2.875 0.59375v3.375c-0.94591-0.39479-1.83867-0.70884-2.71875-0.90625-0.8801-0.1974-1.71862-0.28124-2.5-0.28125-0.83897 0.00001-1.46374 0.0987-1.875 0.3125-0.40303 0.20563-0.59376 0.53283-0.59375 0.96875-0.00001 0.35369 0.13318 0.62333 0.4375 0.8125 0.31256 0.18919 0.88966 0.34703 1.6875 0.4375l0.75 0.125c2.26189 0.28788 3.81235 0.71701 4.59375 1.375 0.78136 0.65802 1.15624 1.71852 1.15625 3.125-0.00001 1.4723-0.5393 2.57225-1.625 3.3125-1.08573 0.74027-2.68878 1.09375-4.84375 1.09375-0.91299 0-1.86498-0.0707-2.84375-0.21875-0.97058-0.13983-1.97186-0.33712-3-0.625v-3.375c0.88008 0.42772 1.79753 0.75489 2.71875 0.96875 0.92943 0.21385 1.85838 0.3125 2.8125 0.3125 0.86363 0 1.50156-0.13647 1.9375-0.375 0.43592-0.23853 0.65624-0.5624 0.65625-1.03125-0.00001-0.39479-0.13318-0.68582-0.4375-0.875-0.29611-0.19739-0.91597-0.36182-1.8125-0.46875l-0.75-0.0937c-1.9658-0.24675-3.36665-0.70876-4.15625-1.375-0.78962-0.66623-1.1875-1.6741-1.1875-3.03125 0-1.46406 0.49653-2.54263 1.5-3.25 1.00345-0.70734 2.55226-1.06249 4.625-1.0625zm51.5625 0c0.81427 0.00001 1.69722 0.0329 2.59375 0.15625 0.89654 0.1234 1.85343 0.33057 2.90625 0.59375v3.375c-0.9459-0.39479-1.83868-0.70884-2.71875-0.90625-0.88009-0.1974-1.71863-0.28124-2.5-0.28125-0.83898 0.00001-1.49499 0.0987-1.90625 0.3125-0.40303 0.20563-0.5625 0.53283-0.5625 0.96875 0 0.35369 0.10192 0.62333 0.40625 0.8125 0.31256 0.18919 0.88966 0.34703 1.6875 0.4375l0.78125 0.125c2.26189 0.28788 3.7811 0.71701 4.5625 1.375 0.78138 0.65802 1.15623 1.71852 1.15625 3.125-0.00002 1.4723-0.5393 2.57225-1.625 3.3125-1.08574 0.74027-2.68878 1.09375-4.84375 1.09375-0.913 0-1.86498-0.0707-2.84375-0.21875-0.97058-0.13983-1.97187-0.33712-3-0.625v-3.375c0.88009 0.42772 1.79753 0.75489 2.71875 0.96875 0.92943 0.21385 1.85838 0.3125 2.8125 0.3125 0.86363 0 1.50156-0.13647 1.9375-0.375 0.43592-0.23853 0.65624-0.5624 0.65625-1.03125-0.00001-0.39479-0.13318-0.68582-0.4375-0.875-0.29612-0.19739-0.88472-0.36182-1.78125-0.46875l-0.78125-0.0937c-1.96581-0.24675-3.3354-0.70876-4.125-1.375-0.78962-0.66623-1.21875-1.6741-1.21875-3.03125 0-1.46406 0.49653-2.54263 1.5-3.25 1.00345-0.70734 2.55227-1.06249 4.625-1.0625zm-233.21875 0.3125h4.4375v13.8125h-4.4375zm219.25 0h4.40625v13.5625c0 1.85065-0.42419 3.27943-1.3125 4.25-0.88832 0.97878-2.18887 1.46874-3.875 1.46875h-2.1875v-2.90625h0.78125c0.83896 0 1.4062-0.1529 1.71875-0.53125 0.31255-0.37836 0.46874-1.17087 0.46875-2.28125zm-169.21875 2.875c-0.93767 0.00001-1.65452 0.3716-2.15625 1.0625-0.49351 0.69091-0.75 1.68399-0.75 3 0 1.31602 0.25649 2.34035 0.75 3.03125 0.50173 0.69091 1.21858 1 2.15625 1 0.94587 0 1.66274-0.30909 2.15625-1 0.50172-0.6909 0.74999-1.71523 0.75-3.03125-0.00001-1.31601-0.24828-2.30909-0.75-3-0.49351-0.6909-1.21038-1.06249-2.15625-1.0625zm46.687504 0c-0.93767 0.00001-1.65452 0.3716-2.15625 1.0625-0.49351 0.69091-0.75 1.68399-0.75 3 0 1.31602 0.25649 2.34035 0.75 3.03125 0.50173 0.69091 1.21858 1 2.15625 1 0.94588 0 1.66273-0.30909 2.15625-1 0.50172-0.6909 0.74999-1.71523 0.75-3.03125-0.00001-1.31601-0.24828-2.30909-0.75-3-0.49352-0.6909-1.21037-1.06249-2.15625-1.0625zm68.03125 0c-0.93767 0.00001-1.68579 0.3716-2.1875 1.0625-0.49352 0.69091-0.71876 1.68399-0.71875 3-0.00001 1.31602 0.22523 2.34035 0.71875 3.03125 0.50171 0.69091 1.24983 1 2.1875 1 0.94587 0 1.66272-0.30909 2.15625-1 0.50171-0.6909 0.75-1.71523 0.75-3.03125 0-1.31601-0.24829-2.30909-0.75-3-0.49353-0.6909-1.21038-1.06249-2.15625-1.0625zm84.71875 0c-0.93767 0.00001-1.65452 0.3716-2.15625 1.0625-0.49351 0.69091-0.75001 1.68399-0.75 3-0.00001 1.31602 0.25649 2.34035 0.75 3.03125 0.50173 0.69091 1.21858 1 2.15625 1 0.94588 0 1.66273-0.30909 2.15625-1 0.50172-0.6909 0.74999-1.71523 0.75-3.03125-0.00001-1.31601-0.24828-2.30909-0.75-3-0.49352-0.6909-1.21037-1.06249-2.15625-1.0625zm-225 23.34375h4.4375v19.21875h-4.4375v-2c-0.608669 0.81429-1.267977 1.4029-2 1.78125-0.732044 0.37835-1.600171 0.5625-2.5625 0.5625-1.702604 0-3.062316-0.65108-4.15625-2-1.093942-1.35713-1.656251-3.15096-1.65625-5.28125-0.000001-2.1303 0.562308-3.83858 1.65625-5.1875 1.093934-1.35714 2.453646-2.03123 4.15625-2.03125 0.954104 0.00002 1.799207 0.17594 2.53125 0.5625 0.74025 0.37836 1.422581 0.9752 2.03125 1.78125zm14.40625 0h3.40625v2.90625h-2.4375c-0.62512 0.00002-1.097 0.11346-1.34375 0.34375-0.24677 0.22209-0.34376 0.59696-0.34375 1.15625v0.96875h3.78125v3.1875h-3.78125v10.65625h-4.40625v-10.65625h-2.1875v-3.1875h2.1875v-0.96875c0-1.50519 0.41103-2.5969 1.25-3.3125 0.83896-0.7238 2.11483-1.09373 3.875-1.09375zm5.3125 0h4.4375v10.46875l5.0625-5.09375h5.125l-6.75 6.375 7.28125 7.46875h-5.34375l-5.375-5.78125v5.78125h-4.4375zm35.031254 0h4.4375v19.21875h-4.4375v-2c-0.60867 0.81429-1.29922 1.4029-2.03125 1.78125-0.732044 0.37835-1.568924 0.5625-2.531254 0.5625-1.7026 0-3.09356-0.65108-4.1875-2-1.09394-1.35713-1.65626-3.15096-1.65625-5.28125-0.00001-2.1303 0.56231-3.83858 1.65625-5.1875 1.09394-1.35714 2.4849-2.03123 4.1875-2.03125 0.9541 0.00002 1.76795 0.17594 2.500004 0.5625 0.74024 0.37836 1.45383 0.9752 2.0625 1.78125zm29.46875 0h3.375v2.90625h-2.4375c-0.62513 0.00002-1.06575 0.11346-1.3125 0.34375-0.24675 0.22209-0.37501 0.59696-0.375 1.15625v0.96875h3.78125v3.1875h-3.78125v10.65625h-4.40625v-10.65625h-2.1875v-3.1875h2.1875v-0.96875c0-1.50519 0.41105-2.5969 1.25-3.3125 0.83896-0.7238 2.14608-1.09373 3.90625-1.09375zm14.6875 0h4.4375v19.21875h-4.4375v-2c-0.60867 0.81429-1.29922 1.4029-2.03125 1.78125s-1.56893 0.5625-2.53125 0.5625c-1.70261 0-3.09357-0.65108-4.1875-2-1.09394-1.35713-1.65625-3.15096-1.65625-5.28125 0-2.1303 0.56231-3.83858 1.65625-5.1875 1.09393-1.35714 2.48489-2.03123 4.1875-2.03125 0.95411 0.00002 1.79922 0.17594 2.53125 0.5625 0.74026 0.37836 1.42258 0.9752 2.03125 1.78125zm14.40625 0h3.375v2.90625h-2.4375c-0.62512 0.00002-1.03451 0.11346-1.28125 0.34375-0.24677 0.22209-0.375 0.59696-0.375 1.15625v0.96875h3.75v3.1875h-3.75v10.65625h-4.4375v-10.65625h-2.1875v-3.1875h2.1875v-0.96875c-0.00002-1.50519 0.44229-2.5969 1.28125-3.3125 0.83896-0.7238 2.11483-1.09373 3.875-1.09375zm19.8125 0h3.375v2.90625h-2.4375c-0.62512 0.00002-1.06574 0.11346-1.3125 0.34375-0.24676 0.22209-0.37501 0.59696-0.375 1.15625v0.96875h3.78125v3.1875h-3.78125v10.65625h-4.40625v-10.65625h-2.1875v-3.1875h2.1875v-0.96875c-0.00001-1.50519 0.41103-2.5969 1.25-3.3125 0.83896-0.7238 2.14607-1.09373 3.90625-1.09375zm20.34375 0h4.40625v3.625h-4.40625zm18.0625 0h4.46875v19.21875h-4.46875v-2c-0.60866 0.81429-1.26797 1.4029-2 1.78125-0.73204 0.37835-1.56892 0.5625-2.53125 0.5625-1.7026 0-3.12482-0.65108-4.21875-2-1.09394-1.35713-1.625-3.15096-1.625-5.28125 0-2.1303 0.53106-3.83858 1.625-5.1875 1.09393-1.35714 2.51615-2.03123 4.21875-2.03125 0.9541 0.00002 1.79921 0.17594 2.53125 0.5625 0.74025 0.37836 1.39134 0.9752 2 1.78125zm8.71875 0h4.4375v10.46875l5.09375-5.09375h5.125l-6.78125 6.375 7.3125 7.46875h-5.34375l-5.40625-5.78125v5.78125h-4.4375zm22.5625 0h3.375v2.90625h-2.4375c-0.62512 0.00002-1.06575 0.11346-1.3125 0.34375-0.24677 0.22209-0.375 0.59696-0.375 1.15625v0.96875h3.78125v3.1875h-3.78125v10.65625h-4.40625v-10.65625h-2.1875v-3.1875h2.1875v-0.96875c0-1.50519 0.37978-2.5969 1.21875-3.3125 0.83895-0.7238 2.17733-1.09373 3.9375-1.09375zm5.28125 0h4.40625v10.46875l5.09375-5.09375h5.125l-6.75 6.375 7.3125 7.46875h-5.40625l-5.375-5.78125v5.78125h-4.40625zm47.78125 0h3.34375v2.90625h-2.4375c-0.62512 0.00002-1.03451 0.11346-1.28125 0.34375-0.24676 0.22209-0.375 0.59696-0.375 1.15625v0.96875h3.78125v3.1875h-3.78125v10.65625h-4.40625v-10.65625h-2.21875v-3.1875h2.21875v-0.96875c-0.00001-1.50519 0.37979-2.5969 1.21875-3.3125 0.83895-0.7238 2.17732-1.09373 3.9375-1.09375zm20.3125 0h4.4375v10.46875l5.0625-5.09375h5.125l-6.75 6.375 7.3125 7.46875h-5.375l-5.375-5.78125v5.78125h-4.4375zm16.84375 0h4.4375v3.625h-4.4375zm14.40625 0h3.375v2.90625h-2.4375c-0.62512 0.00002-1.06576 0.11346-1.3125 0.34375-0.24677 0.22209-0.375 0.59696-0.375 1.15625v0.96875h3.78125v3.1875h-3.78125v10.65625h-4.40625v-10.65625h-2.1875v-3.1875h2.1875v-0.96875c-0.00001-1.50519 0.3798-2.5969 1.21875-3.3125 0.83896-0.7238 2.17732-1.09373 3.9375-1.09375zm36.90625 0h3.375v2.90625h-2.4375c-0.62512 0.00002-1.06575 0.11346-1.3125 0.34375-0.24675 0.22209-0.37501 0.59696-0.375 1.15625v0.96875h3.78125v3.1875h-3.78125v10.65625h-4.40625v-10.65625h-2.21875v-3.1875h2.21875v-0.96875c0-1.50519 0.41103-2.5969 1.25-3.3125 0.83895-0.7238 2.14606-1.09373 3.90625-1.09375zm14.6875 0h4.4375v19.21875h-4.4375v-2c-0.60868 0.81429-1.26798 1.4029-2 1.78125-0.73204 0.37835-1.60018 0.5625-2.5625 0.5625-1.70261 0-3.09358-0.65108-4.1875-2-1.09396-1.35713-1.625-3.15096-1.625-5.28125 0-2.1303 0.53104-3.83858 1.625-5.1875 1.09392-1.35714 2.48489-2.03123 4.1875-2.03125 0.9541 0.00002 1.79921 0.17594 2.53125 0.5625 0.74026 0.37836 1.42257 0.9752 2.03125 1.78125zm14.40625 0h3.40625v2.90625h-2.4375c-0.62513 0.00002-1.097 0.11346-1.34375 0.34375-0.24676 0.22209-0.37501 0.59696-0.375 1.15625v0.96875h3.8125v3.1875h-3.8125v10.65625h-4.375v-10.65625h-2.21875v-3.1875h2.21875v-0.96875c0-1.50519 0.41104-2.5969 1.25-3.3125 0.83896-0.7238 2.11483-1.09373 3.875-1.09375zm14.71875 0h4.4375v19.21875h-4.4375v-2c-0.60867 0.81429-1.29922 1.4029-2.03125 1.78125-0.73204 0.37835-1.56892 0.5625-2.53125 0.5625-1.7026 0-3.09357-0.65108-4.1875-2-1.09394-1.35713-1.62501-3.15096-1.625-5.28125-0.00001-2.1303 0.53106-3.83858 1.625-5.1875 1.09393-1.35714 2.4849-2.03123 4.1875-2.03125 0.9541 0.00002 1.7992 0.17594 2.53125 0.5625 0.74024 0.37836 1.42258 0.9752 2.03125 1.78125zm14.4375 0h3.34375v2.90625h-2.4375c-0.6251 0.00002-1.03451 0.11346-1.28125 0.34375-0.24677 0.22209-0.375 0.59696-0.375 1.15625v0.96875h3.75v3.1875h-3.75v10.65625h-4.4375v-10.65625h-2.1875v-3.1875h2.1875v-0.96875c-0.00001-1.50519 0.44229-2.5969 1.28125-3.3125 0.83896-0.7238 2.14606-1.09373 3.90625-1.09375zm-421.75 5.0625c0.814278 0.00002 1.665954 0.0641 2.5625 0.1875 0.896526 0.1234 1.884674 0.29932 2.9375 0.5625v3.375c-0.9459-0.3948-1.869925-0.70883-2.75-0.90625-0.880096-0.19739-1.718623-0.28123-2.5-0.28125-0.838967 0.00002-1.432501 0.0987-1.84375 0.3125-0.403036 0.20564-0.625006 0.53283-0.625 0.96875-0.000006 0.35369 0.164416 0.62334 0.46875 0.8125 0.312549 0.1892 0.858407 0.31578 1.65625 0.40625l0.78125 0.125c2.261893 0.28788 3.812354 0.77951 4.59375 1.4375 0.781372 0.65802 1.156237 1.65602 1.15625 3.0625-0.000013 1.4723-0.539299 2.57225-1.625 3.3125-1.085726 0.74027-2.720032 1.125-4.875 1.125-0.912995 0-1.864967-0.0707-2.84375-0.21875-0.970566-0.13984-1.940615-0.36837-2.96875-0.65625v-3.34375c0.880084 0.42771 1.766284 0.75489 2.6875 0.96875 0.929431 0.21385 1.889632 0.31251 2.84375 0.3125 0.863629 0.00001 1.50156-0.1052 1.9375-0.34375 0.43592-0.23853 0.65624-0.62491 0.65625-1.09375-0.00001-0.39479-0.164432-0.65457-0.46875-0.84375-0.296113-0.1974-0.915971-0.36182-1.8125-0.46875l-0.75-0.0937c-1.965805-0.24675-3.366642-0.70875-4.15625-1.375-0.789612-0.66622-1.156251-1.6741-1.15625-3.03125-0.000001-1.46405 0.496535-2.54264 1.5-3.25 1.003459-0.70736 2.521018-1.06248 4.59375-1.0625zm87.906254 0c0.81428 0.00002 1.6972 0.0641 2.59375 0.1875 0.89652 0.1234 1.85343 0.29932 2.90625 0.5625v3.375c-0.9459-0.3948-1.83867-0.70883-2.71875-0.90625-0.88009-0.19739-1.74988-0.28123-2.53125-0.28125-0.83896 0.00002-1.46375 0.0987-1.875 0.3125-0.40303 0.20564-0.59375 0.53283-0.59375 0.96875 0 0.35369 0.13315 0.62334 0.4375 0.8125 0.31253 0.1892 0.88965 0.31578 1.6875 0.40625l0.75 0.125c2.26189 0.28788 3.81235 0.77951 4.59375 1.4375 0.78138 0.65802 1.15623 1.65602 1.15625 3.0625-0.00002 1.4723-0.53931 2.57225-1.625 3.3125-1.08573 0.74027-2.68879 1.125-4.84375 1.125-0.913 0-1.86496-0.0707-2.84375-0.21875-0.97057-0.13984-1.97187-0.36837-3-0.65625v-3.34375c0.88008 0.42771 1.79754 0.75489 2.71875 0.96875 0.92943 0.21385 1.85838 0.31251 2.8125 0.3125 0.86363 0.00001 1.50155-0.1052 1.9375-0.34375 0.43592-0.23853 0.65624-0.62491 0.65625-1.09375-0.00001-0.39479-0.13318-0.65457-0.4375-0.84375-0.29611-0.1974-0.88471-0.36182-1.78125-0.46875l-0.78125-0.0937c-1.9658-0.24675-3.36664-0.70875-4.15625-1.375-0.78961-0.66622-1.18752-1.6741-1.1875-3.03125-0.00002-1.46405 0.49655-2.54264 1.5-3.25 1.00347-0.70736 2.55226-1.06248 4.625-1.0625zm74.96875 0c0.81428 0.00002 1.66595 0.0641 2.5625 0.1875 0.89652 0.1234 1.85343 0.29932 2.90625 0.5625v3.375c-0.94589-0.3948-1.83866-0.70883-2.71875-0.90625-0.88009-0.19739-1.71864-0.28123-2.5-0.28125-0.83898 0.00002-1.46375 0.0987-1.875 0.3125-0.40304 0.20564-0.59375 0.53283-0.59375 0.96875 0 0.35369 0.13317 0.62334 0.4375 0.8125 0.31255 0.1892 0.85841 0.31578 1.65625 0.40625l0.78125 0.125c2.26188 0.28788 3.78111 0.77951 4.5625 1.4375 0.78138 0.65802 1.18748 1.65602 1.1875 3.0625-0.00002 1.4723-0.5393 2.57225-1.625 3.3125-1.08573 0.74027-2.72003 1.125-4.875 1.125-0.91299 0-1.86497-0.0707-2.84375-0.21875-0.97056-0.13984-1.9406-0.36837-2.96875-0.65625v-3.34375c0.88009 0.42771 1.79753 0.75489 2.71875 0.96875 0.92943 0.21385 1.85838 0.31251 2.8125 0.3125 0.86364 0.00001 1.50156-0.1052 1.9375-0.34375 0.43592-0.23853 0.65623-0.62491 0.65625-1.09375-0.00002-0.39479-0.13317-0.65457-0.4375-0.84375-0.29611-0.1974-0.91596-0.36182-1.8125-0.46875l-0.75-0.0937c-1.96581-0.24675-3.36665-0.70875-4.15625-1.375-0.78961-0.66627-1.1875-1.67415-1.1875-3.0313 0-1.46405 0.49654-2.54264 1.5-3.25 1.00347-0.70736 2.55228-1.06248 4.625-1.0625zm87.15625 0c2.17143 0.00002 3.88792 0.62973 5.1875 1.9375 1.30778 1.3078 1.96874 3.06212 1.96875 5.25v1.28125h-10.34375c0.10692 1.03637 0.51469 1.79432 1.15625 2.3125 0.64155 0.51818 1.53598 0.78126 2.6875 0.78125 0.92942 0.00001 1.87318-0.13483 2.84375-0.40625 0.97878-0.27966 1.9406-0.72193 2.96875-1.28125v3.40625c-1.04461 0.39481-2.04918 0.70885-3.09375 0.90625-1.04461 0.20563-2.08041 0.3125-3.125 0.3125-2.50043 0-4.45371-0.60833-5.84375-1.875-1.38182-1.27489-2.0625-3.11145-2.0625-5.40625 0-2.25367 0.6741-4.02115 2.03125-5.3125 1.36536-1.29133 3.23972-1.90623 5.625-1.90625zm35.59375 0c0.81427 0.00002 1.66596 0.0641 2.5625 0.1875 0.89652 0.1234 1.85342 0.29932 2.90625 0.5625v3.375c-0.9459-0.3948-1.83867-0.70883-2.71875-0.90625-0.88009-0.19739-1.71862-0.28123-2.5-0.28125-0.83896 0.00002-1.49499 0.0987-1.90625 0.3125-0.40303 0.20564-0.5625 0.53283-0.5625 0.96875 0 0.35369 0.13316 0.62334 0.4375 0.8125 0.31255 0.1892 0.85841 0.31578 1.65625 0.40625l0.78125 0.125c2.2619 0.28788 3.7811 0.77951 4.5625 1.4375 0.78137 0.65802 1.18747 1.65602 1.1875 3.0625-0.00003 1.4723-0.57055 2.57225-1.65625 3.3125-1.08574 0.74027-2.68878 1.125-4.84375 1.125-0.91299 0-1.86498-0.0707-2.84375-0.21875-0.97058-0.13984-1.97185-0.36837-3-0.65625v-3.34375c0.8801 0.42771 1.79753 0.75489 2.71875 0.96875 0.92943 0.21385 1.85838 0.31251 2.8125 0.3125 0.86363 0.00001 1.50156-0.1052 1.9375-0.34375 0.43592-0.23853 0.65624-0.62491 0.65625-1.09375-0.00001-0.39479-0.13319-0.65457-0.4375-0.84375-0.29612-0.1974-0.88472-0.36182-1.78125-0.46875l-0.78125-0.0937c-1.9658-0.24675-3.3354-0.70875-4.125-1.375-0.78962-0.66622-1.21876-1.6741-1.21875-3.03125-0.00001-1.46405 0.52778-2.54264 1.53125-3.25 1.00345-0.70736 2.55226-1.06248 4.625-1.0625zm52.875 0c2.17141 0.00002 3.91917 0.62973 5.21875 1.9375 1.30777 1.3078 1.93749 3.06212 1.9375 5.25v1.28125h-10.3125c0.10692 1.03637 0.45218 1.79432 1.09375 2.3125 0.64155 0.51818 1.53599 0.78126 2.6875 0.78125 0.92943 0.00001 1.90441-0.13483 2.875-0.40625 0.97876-0.27966 1.97185-0.72193 3-1.28125v3.40625c-1.0446 0.39481-2.08043 0.70885-3.125 0.90625-1.0446 0.20563-2.08043 0.3125-3.125 0.3125-2.50044 0-4.45371-0.60833-5.84375-1.875-1.38182-1.27489-2.09375-3.11145-2.09375-5.40625 0-2.25367 0.70535-4.02115 2.0625-5.3125 1.36536-1.29133 3.23971-1.90623 5.625-1.90625zm-165.875 0.3125h4.40625v13.59375c-0.00001 1.85065-0.4242 3.27944-1.3125 4.25-0.88831 0.97879-2.18886 1.4375-3.875 1.4375h-2.1875v-2.90625h0.78125c0.83895 0 1.4062-0.18415 1.71875-0.5625 0.31255-0.37836 0.46875-1.10837 0.46875-2.21875zm139.5625 0h4.4375v13.59375c-0.00001 1.85065-0.48669 3.27944-1.375 4.25-0.88831 0.97879-2.15761 1.4375-3.84375 1.4375h-2.1875v-2.90625h0.75c0.83896 0 1.4062-0.18415 1.71875-0.5625 0.31256-0.37836 0.5-1.10837 0.5-2.21875zm-62.1875 2.625c-0.85542 0.00002-1.55913 0.23347-2.09375 0.71875-0.53464 0.47707-0.8684 1.15774-1 2.0625h5.75c-0.00001-0.83895-0.25651-1.49004-0.75-2-0.48528-0.51818-1.11664-0.78123-1.90625-0.78125zm88.46875 0c-0.85541 0.00002-1.55913 0.23347-2.09375 0.71875-0.53463 0.47707-0.83715 1.15774-0.96875 2.0625h5.71875c-0.00001-0.83895-0.25651-1.49004-0.75-2-0.4853-0.51818-1.11665-0.78123-1.90625-0.78125zm-322.21875 0.25c-0.93767 0.00001-1.654525 0.37161-2.15625 1.0625-0.493512 0.69092-0.718756 1.65274-0.71875 2.96875-0.000006 1.31601 0.225238 2.34035 0.71875 3.03125 0.501725 0.6909 1.21858 1.03125 2.15625 1.03125 0.945878 0 1.662732-0.34035 2.15625-1.03125 0.50172-0.6909 0.749989-1.71524 0.75-3.03125-0.000011-1.31601-0.24828-2.27783-0.75-2.96875-0.493518-0.69089-1.210372-1.06249-2.15625-1.0625zm54.75 0c-0.93767 0.00001-1.68577 0.37161-2.1875 1.0625-0.49351 0.69092-0.71875 1.65274-0.71875 2.96875s0.22524 2.34035 0.71875 3.03125c0.50173 0.6909 1.24983 1.03125 2.1875 1.03125 0.945894 0 1.662744-0.34035 2.156254-1.03125 0.50173-0.6909 0.74998-1.71524 0.75-3.03125-0.00002-1.31601-0.24827-2.27783-0.75-2.96875-0.49351-0.69089-1.21036-1.06249-2.156254-1.0625zm44.156254 0c-0.93767 0.00001-1.68577 0.37161-2.1875 1.0625-0.4935 0.69092-0.71876 1.65274-0.71875 2.96875-0.00001 1.31601 0.22525 2.34035 0.71875 3.03125 0.50173 0.6909 1.24983 1.03125 2.1875 1.03125 0.94588 0 1.66273-0.34035 2.15625-1.03125 0.50172-0.6909 0.74999-1.71524 0.75-3.03125-0.00001-1.31601-0.24828-2.27783-0.75-2.96875-0.49352-0.69089-1.21037-1.06249-2.15625-1.0625zm72.625 0c-0.93767 0.00001-1.65452 0.37161-2.15625 1.0625-0.4935 0.69092-0.75002 1.65274-0.75 2.96875-0.00002 1.31601 0.2565 2.34035 0.75 3.03125 0.50173 0.6909 1.21858 1.03125 2.15625 1.03125 0.94588 0 1.69398-0.34035 2.1875-1.03125 0.50173-0.6909 0.71874-1.71524 0.71875-3.03125-0.00001-1.31601-0.21702-2.27783-0.71875-2.96875-0.49352-0.69089-1.24162-1.06249-2.1875-1.0625zm187.46875 0c-0.93767 0.00001-1.62327 0.37161-2.125 1.0625-0.49352 0.69092-0.75 1.65274-0.75 2.96875s0.25648 2.34035 0.75 3.03125c0.50173 0.6909 1.18733 1.03125 2.125 1.03125 0.94588 0 1.69398-0.34035 2.1875-1.03125 0.50171-0.6909 0.74999-1.71524 0.75-3.03125-0.00001-1.31601-0.24829-2.27783-0.75-2.96875-0.49352-0.69089-1.24162-1.06249-2.1875-1.0625zm29.15625 0c-0.93767 0.00001-1.65452 0.37161-2.15625 1.0625-0.4935 0.69092-0.75001 1.65274-0.75 2.96875-0.00001 1.31601 0.2565 2.34035 0.75 3.03125 0.50173 0.6909 1.21858 1.03125 2.15625 1.03125 0.94588 0 1.66273-0.34035 2.15625-1.03125 0.50172-0.6909 0.74999-1.71524 0.75-3.03125-0.00001-1.31601-0.24828-2.27783-0.75-2.96875-0.49352-0.69089-1.21037-1.06249-2.15625-1.0625zm-400.28125 23.3125h4.40625v19.25h-4.40625v-2.03125c-0.608669 0.81428-1.267977 1.43414-2 1.8125-0.732044 0.37835-1.60017 0.53125-2.5625 0.53125-1.702604 0-3.093564-0.65108-4.1875-2-1.09394-1.35714-1.656251-3.08845-1.65625-5.21875-0.000001-2.13029 0.56231-3.86982 1.65625-5.21875 1.093936-1.35713 2.484896-2.03124 4.1875-2.03125 0.954104 0.00001 1.799206 0.17593 2.53125 0.5625 0.740249 0.37836 1.422581 0.9752 2.03125 1.78125zm8.6875 0h4.40625v3.625h-4.40625zm23.75 0h4.4375v3.625h-4.4375zm14.40625 0h3.375v2.90625h-2.4375c-0.62512 0.00001-1.06576 0.11347-1.3125 0.34375-0.24676 0.2221-0.37501 0.6282-0.375 1.1875v1h3.78125v3.125h-3.78125v10.6875h-4.40625v-10.6875h-2.1875v-3.125h2.1875v-1c0-1.50519 0.37978-2.5969 1.21875-3.3125 0.83896-0.7238 2.17731-1.12498 3.9375-1.125zm29.093754 0h4.4375v10.5l5.09375-5.0625h5.125l-6.75 6.3125 7.28125 7.5h-5.34375l-5.40625-5.78125v5.78125h-4.4375zm16.84375 0h4.4375v3.625h-4.4375zm8.6875 0h4.4375v10.5l5.09375-5.0625h5.125l-6.78125 6.3125 7.3125 7.5h-5.375l-5.375-5.78125v5.78125h-4.4375zm26.25 0h4.4375v19.25h-4.4375v-2.03125c-0.60868 0.81428-1.29923 1.43414-2.03125 1.8125-0.73205 0.37835-1.56892 0.53125-2.53125 0.53125-1.7026 0-3.09357-0.65108-4.1875-2-1.09395-1.35714-1.65625-3.08845-1.65625-5.21875 0-2.13029 0.5623-3.86982 1.65625-5.21875 1.09393-1.35713 2.4849-2.03124 4.1875-2.03125 0.9541 0.00001 1.76797 0.17593 2.5 0.5625 0.74026 0.37836 1.45382 0.9752 2.0625 1.78125zm29.46875 0h3.375v2.90625h-2.4375c-0.62512 0.00001-1.06575 0.11347-1.3125 0.34375-0.24675 0.2221-0.37501 0.6282-0.375 1.1875v1h3.78125v3.125h-3.78125v10.6875h-4.40625v-10.6875h-2.1875v-3.125h2.1875v-1c0-1.50519 0.41104-2.5969 1.25-3.3125 0.83895-0.7238 2.14607-1.12498 3.90625-1.125zm14.0625 0h4.40625v10.5l5.09375-5.0625h5.15625l-6.75 6.3125 7.25 7.5h-5.34375l-5.40625-5.78125v5.78125h-4.40625zm16.84375 0h4.40625v3.625h-4.40625zm18.0625 0h4.46875v19.25h-4.46875v-2.03125c-0.60867 0.81428-1.26799 1.43414-2 1.8125-0.73205 0.37835-1.56892 0.53125-2.53125 0.53125-1.7026 0-3.12482-0.65108-4.21875-2-1.09395-1.35714-1.625-3.08845-1.625-5.21875 0-2.13029 0.53105-3.86982 1.625-5.21875 1.09393-1.35713 2.51615-2.03124 4.21875-2.03125 0.9541 0.00001 1.7992 0.17593 2.53125 0.5625 0.74025 0.37836 1.39133 0.9752 2 1.78125zm23.78125 0h4.40625v10.5l5.09375-5.0625h5.125l-6.75 6.3125 7.28125 7.5h-5.34375l-5.40625-5.78125v5.78125h-4.40625zm22.53125 0h3.375v2.90625h-2.4375c-0.62511 0.00001-1.0345 0.11347-1.28125 0.34375-0.24675 0.2221-0.37501 0.6282-0.375 1.1875v1h3.75v3.125h-3.75v10.6875h-4.4375v-10.6875h-2.1875v-3.125h2.1875v-1c0-1.50519 0.44228-2.5969 1.28125-3.3125 0.83896-0.7238 2.11482-1.12498 3.875-1.125zm23.5 0h4.40625v19.25h-4.40625v-2.03125c-0.60866 0.81428-1.26796 1.43414-2 1.8125-0.73204 0.37835-1.60017 0.53125-2.5625 0.53125-1.7026 0-3.09357-0.65108-4.1875-2-1.09394-1.35714-1.65625-3.08845-1.65625-5.21875 0-2.13029 0.56231-3.86982 1.65625-5.21875 1.09393-1.35713 2.4849-2.03124 4.1875-2.03125 0.9541 0.00001 1.79922 0.17593 2.53125 0.5625 0.74026 0.37836 1.42259 0.9752 2.03125 1.78125zm14.40625 0h3.375v2.90625h-2.4375c-0.62511 0.00001-1.06576 0.11347-1.3125 0.34375-0.24676 0.2221-0.37501 0.6282-0.375 1.1875v1h3.8125v3.125h-3.8125v10.6875h-4.40625v-10.6875h-2.21875v-3.125h2.21875v-1c0-1.50519 0.41103-2.5969 1.25-3.3125 0.83896-0.7238 2.14608-1.12498 3.90625-1.125zm29.75 0h4.4375v19.25h-4.4375v-2.03125c-0.60868 0.81428-1.26799 1.43414-2 1.8125-0.73206 0.37835-1.56891 0.53125-2.53125 0.53125-1.7026 0-3.12482-0.65108-4.21875-2-1.09395-1.35714-1.625-3.08845-1.625-5.21875 0-2.13029 0.53105-3.86982 1.625-5.21875 1.09393-1.35713 2.51615-2.03124 4.21875-2.03125 0.9541 0.00001 1.79919 0.17593 2.53125 0.5625 0.74024 0.37836 1.39132 0.9752 2 1.78125zm41.96875 0h4.40625v19.25h-4.40625v-2.03125c-0.60868 0.81428-1.29923 1.43414-2.03125 1.8125-0.73204 0.37835-1.60018 0.53125-2.5625 0.53125-1.70261 0-3.06231-0.65108-4.15625-2-1.09392-1.35714-1.6875-3.08845-1.6875-5.21875 0-2.13029 0.59358-3.86982 1.6875-5.21875 1.09394-1.35713 2.45364-2.03124 4.15625-2.03125 0.9541 0.00001 1.79921 0.17593 2.53125 0.5625 0.74025 0.37836 1.45382 0.9752 2.0625 1.78125zm14.375 0h3.40625v2.90625h-2.4375c-0.62511 0.00001-1.06575 0.11347-1.3125 0.34375-0.24677 0.2221-0.37501 0.6282-0.375 1.1875v1h3.78125v3.125h-3.78125v10.6875h-4.4375v-10.6875h-2.1875v-3.125h2.1875v-1c0-1.50519 0.44228-2.5969 1.28125-3.3125 0.83896-0.7238 2.11483-1.12498 3.875-1.125zm5.34375 0h4.40625v3.625h-4.40625zm8.65625 0h4.4375v10.5l5.0625-5.0625h5.125l-6.71875 6.3125 7.25 7.5h-5.34375l-5.375-5.78125v5.78125h-4.4375zm26.25 0h4.40625v19.25h-4.40625v-2.03125c-0.60867 0.81428-1.26797 1.43414-2 1.8125-0.73204 0.37835-1.60017 0.53125-2.5625 0.53125-1.7026 0-3.09356-0.65108-4.1875-2-1.09393-1.35714-1.65625-3.08845-1.65625-5.21875 0-2.13029 0.56232-3.86982 1.65625-5.21875 1.09394-1.35713 2.4849-2.03124 4.1875-2.03125 0.9541 0.00001 1.79921 0.17593 2.53125 0.5625 0.74025 0.37836 1.42258 0.9752 2.03125 1.78125zm-394.03125 5.09375c0.81428 0.00001 1.66595 0.0641 2.5625 0.1875 0.89653 0.1234 1.88468 0.29932 2.9375 0.5625v3.34375c-0.9459-0.3948-1.86992-0.70882-2.75-0.90625-0.8801-0.19737-1.68737-0.25-2.46875-0.25-0.83897 0-1.495 0.0675-1.90625 0.28125-0.40303 0.20565-0.593761 0.53283-0.59375 0.96875-0.000011 0.35368 0.133172 0.65459 0.4375 0.84375 0.31255 0.18919 0.88966 0.31578 1.6875 0.40625l0.75 0.125c2.26189 0.28788 3.81235 0.74826 4.59375 1.40625 0.78137 0.65802 1.15623 1.68727 1.15625 3.09375-0.00002 1.4723-0.5393 2.57225-1.625 3.3125-1.08573 0.74025-2.68878 1.09375-4.84375 1.09375-0.91299 0-1.864963-0.0707-2.84375-0.21875-0.970562-0.13983-1.971864-0.33713-3-0.625v-3.34375c0.880085 0.42771 1.766288 0.75489 2.6875 0.96875 0.929432 0.21385 1.88963 0.28125 2.84375 0.28125 0.86362 0 1.50157-0.074 1.9375-0.3125 0.43593-0.23853 0.65624-0.62492 0.65625-1.09375-0.00001-0.3948-0.16443-0.68582-0.46875-0.875-0.29611-0.1974-0.88472-0.36182-1.78125-0.46875l-0.78125-0.0937c-1.965798-0.24676-3.335393-0.67751-4.125-1.34375-0.789612-0.66623-1.187501-1.6741-1.1875-3.03125-0.000001-1.46406 0.496535-2.57389 1.5-3.28125 1.003464-0.70736 2.55227-1.03124 4.625-1.03125zm34.75 0c0.81428 0.00001 1.66594 0.0641 2.5625 0.1875 0.89651 0.1234 1.85343 0.29932 2.90625 0.5625v3.34375c-0.94589-0.3948-1.83869-0.70882-2.71875-0.90625-0.8801-0.19737-1.71862-0.25-2.5-0.25-0.83896 0-1.46374 0.0675-1.875 0.28125-0.40302 0.20565-0.59376 0.53283-0.59375 0.96875-0.00001 0.35368 0.16443 0.65459 0.46875 0.84375 0.31256 0.18919 0.82716 0.31578 1.625 0.40625l0.8125 0.125c2.26189 0.28788 3.74985 0.74826 4.53125 1.40625 0.78137 0.65802 1.18749 1.68727 1.1875 3.09375-0.00001 1.4723-0.5393 2.57225-1.625 3.3125-1.08572 0.74025-2.72002 1.09375-4.875 1.09375-0.91299 0-1.86496-0.0707-2.84375-0.21875-0.97056-0.13983-1.97186-0.33713-3-0.625v-3.34375c0.88008 0.42771 1.79754 0.75489 2.71875 0.96875 0.92943 0.21385 1.85838 0.28125 2.8125 0.28125 0.86363 0 1.53282-0.074 1.96875-0.3125 0.43593-0.23853 0.65624-0.62492 0.65625-1.09375-0.00001-0.3948-0.16442-0.68582-0.46875-0.875-0.2961-0.1974-0.88472-0.36182-1.78125-0.46875l-0.78125-0.0937c-1.9658-0.24676-3.33539-0.67751-4.125-1.34375-0.7896-0.66623-1.1875-1.6741-1.1875-3.03125 0-1.46406 0.49653-2.57389 1.5-3.28125 1.00346-0.70736 2.55228-1.03124 4.625-1.03125zm84.312504 0c0.81428 0.00001 1.66595 0.0641 2.5625 0.1875 0.89652 0.1234 1.85342 0.29932 2.90625 0.5625v3.34375c-0.9459-0.3948-1.83867-0.70882-2.71875-0.90625-0.8801-0.19737-1.74987-0.25-2.53125-0.25-0.83897 0-1.46376 0.0675-1.875 0.28125-0.40304 0.20565-0.59375 0.53283-0.59375 0.96875 0 0.35368 0.13317 0.65459 0.4375 0.84375 0.31255 0.18919 0.88966 0.31578 1.6875 0.40625l0.75 0.125c2.26189 0.28788 3.81236 0.74826 4.59375 1.40625 0.78138 0.65802 1.15623 1.68727 1.15625 3.09375-0.00002 1.4723-0.5393 2.57225-1.625 3.3125-1.08573 0.74025-2.68878 1.09375-4.84375 1.09375-0.91298 0-1.86496-0.0707-2.84375-0.21875-0.97056-0.13983-1.97186-0.33713-3-0.625v-3.34375c0.88009 0.42771 1.79755 0.75489 2.71875 0.96875 0.92943 0.21385 1.85838 0.28125 2.8125 0.28125 0.86362 0 1.50155-0.074 1.9375-0.3125 0.43593-0.23853 0.65624-0.62492 0.65625-1.09375-0.00001-0.3948-0.13318-0.68582-0.4375-0.875-0.29611-0.1974-0.88471-0.36182-1.78125-0.46875l-0.78125-0.0937c-1.96581-0.24676-3.36663-0.67751-4.15625-1.34375-0.78961-0.66623-1.1875-1.6741-1.1875-3.03125 0-1.46406 0.49654-2.57389 1.5-3.28125 1.00347-0.70736 2.58352-1.03124 4.65625-1.03125zm78.4375 0c0.81428 0.00001 1.66596 0.0641 2.5625 0.1875 0.89653 0.1234 1.88467 0.29932 2.9375 0.5625v3.34375c-0.94589-0.3948-1.86991-0.70882-2.75-0.90625-0.88009-0.19737-1.71863-0.25-2.5-0.25-0.83897 0-1.43251 0.0675-1.84375 0.28125-0.40305 0.20565-0.625 0.53283-0.625 0.96875 0 0.35368 0.16442 0.65459 0.46875 0.84375 0.31256 0.18919 0.85841 0.31578 1.65625 0.40625l0.78125 0.125c2.26188 0.28788 3.7811 0.74826 4.5625 1.40625 0.78137 0.65802 1.18748 1.68727 1.1875 3.09375-0.00002 1.4723-0.57055 2.57225-1.65625 3.3125-1.08574 0.74025-2.68878 1.09375-4.84375 1.09375-0.91299 0-1.86497-0.0707-2.84375-0.21875-0.97057-0.13983-1.97185-0.33713-3-0.625v-3.34375c0.88009 0.42771 1.76628 0.75489 2.6875 0.96875 0.92943 0.21385 1.88963 0.28125 2.84375 0.28125 0.86363 0 1.53281-0.074 1.96875-0.3125 0.43592-0.23853 0.62498-0.62492 0.625-1.09375-0.00002-0.3948-0.16443-0.68582-0.46875-0.875-0.29612-0.1974-0.88472-0.36182-1.78125-0.46875l-0.78125-0.0937c-1.9658-0.24676-3.3354-0.67751-4.125-1.34375-0.78961-0.66623-1.1875-1.6741-1.1875-3.03125 0-1.46406 0.52779-2.57389 1.53125-3.28125s2.52103-1.03124 4.59375-1.03125zm80.78125 0c0.81428 0.00001 1.66594 0.0641 2.5625 0.1875 0.89652 0.1234 1.88468 0.29932 2.9375 0.5625v3.34375c-0.9459-0.3948-1.86992-0.70882-2.75-0.90625-0.88009-0.19737-1.68737-0.25-2.46875-0.25-0.83897 0-1.49499 0.0675-1.90625 0.28125-0.40303 0.20565-0.56251 0.53283-0.5625 0.96875-0.00001 0.35368 0.10193 0.65459 0.40625 0.84375 0.31255 0.18919 0.88966 0.31578 1.6875 0.40625l0.78125 0.125c2.2619 0.28788 3.7811 0.74826 4.5625 1.40625 0.78136 0.65802 1.15624 1.68727 1.15625 3.09375-0.00001 1.4723-0.5393 2.57225-1.625 3.3125-1.08572 0.74025-2.68878 1.09375-4.84375 1.09375-0.91299 0-1.86498-0.0707-2.84375-0.21875-0.97057-0.13983-1.97187-0.33713-3-0.625v-3.34375c0.88008 0.42771 1.79754 0.75489 2.71875 0.96875 0.92944 0.21385 1.85838 0.28125 2.8125 0.28125 0.86362 0 1.50157-0.074 1.9375-0.3125 0.43592-0.23853 0.65624-0.62492 0.65625-1.09375-0.00001-0.3948-0.16442-0.68582-0.46875-0.875-0.2961-0.1974-0.85347-0.36182-1.75-0.46875l-0.8125-0.0937c-1.9658-0.24676-3.30415-0.67751-4.09375-1.34375-0.78961-0.66623-1.21875-1.6741-1.21875-3.03125 0-1.46406 0.49652-2.57389 1.5-3.28125 1.00345-0.70736 2.55227-1.03124 4.625-1.03125zm41.96875 0c0.81427 0.00001 1.66596 0.0641 2.5625 0.1875 0.89652 0.1234 1.88468 0.29932 2.9375 0.5625v3.34375c-0.94589-0.3948-1.86993-0.70882-2.75-0.90625-0.88009-0.19737-1.71863-0.25-2.5-0.25-0.83898 0-1.46375 0.0675-1.875 0.28125-0.40303 0.20565-0.625 0.53283-0.625 0.96875 0 0.35368 0.16442 0.65459 0.46875 0.84375 0.31255 0.18919 0.88965 0.31578 1.6875 0.40625l0.75 0.125c2.26189 0.28788 3.81234 0.74826 4.59375 1.40625 0.78138 0.65802 1.15622 1.68727 1.15625 3.09375-0.00003 1.4723-0.5393 2.57225-1.625 3.3125-1.08574 0.74025-2.68878 1.09375-4.84375 1.09375-0.91299 0-1.86496-0.0707-2.84375-0.21875-0.97056-0.13983-1.97185-0.33713-3-0.625v-3.34375c0.8801 0.42771 1.76628 0.75489 2.6875 0.96875 0.92943 0.21385 1.88963 0.28125 2.84375 0.28125 0.86363 0 1.50156-0.074 1.9375-0.3125 0.43592-0.23853 0.65625-0.62492 0.65625-1.09375 0-0.3948-0.16443-0.68582-0.46875-0.875-0.29612-0.1974-0.88472-0.36182-1.78125-0.46875l-0.78125-0.0937c-1.96581-0.24676-3.36665-0.67751-4.15625-1.34375-0.78963-0.66623-1.15625-1.6741-1.15625-3.03125 0-1.46406 0.49654-2.57389 1.5-3.28125s2.55226-1.03124 4.625-1.03125zm-334.25 0.34375h4.40625v13.5625c-0.000006 1.85065-0.424195 3.24819-1.3125 4.21875-0.888315 0.97879-2.188856 1.46875-3.875 1.46875h-2.15625v-2.90625h0.75c0.83896 0 1.406194-0.18415 1.71875-0.5625 0.312551-0.37837 0.468747-1.10836 0.46875-2.21875zm23.75 0h4.4375v13.5625c0 1.85065-0.45544 3.24819-1.34375 4.21875-0.88832 0.97879-2.18885 1.46875-3.875 1.46875h-2.1875v-2.90625h0.78125c0.83896 0 1.40619-0.18415 1.71875-0.5625 0.31255-0.37837 0.46874-1.10836 0.46875-2.21875zm60.343754 0h4.4375v13.5625c-0.00001 1.85065-0.45544 3.24819-1.34375 4.21875-0.88832 0.97879-2.15761 1.46875-3.84375 1.46875h-2.21875v-2.90625h0.78125c0.83897 0 1.40621-0.18415 1.71875-0.5625 0.31255-0.37837 0.46875-1.10836 0.46875-2.21875zm95.3125 0h4.40625v13.5625c-0.00001 1.85065-0.42419 3.24819-1.3125 4.21875-0.88831 0.97879-2.18885 1.46875-3.875 1.46875h-2.1875v-2.90625h0.78125c0.83896 0 1.40619-0.18415 1.71875-0.5625 0.31254-0.37837 0.46875-1.10836 0.46875-2.21875zm193.71875 0h4.40625v13.5625c0 1.85065-0.48668 3.24819-1.375 4.21875-0.88831 0.97879-2.15761 1.46875-3.84375 1.46875h-2.15625v-2.90625h0.75c0.83895 0 1.4062-0.18415 1.71875-0.5625 0.31256-0.37837 0.49999-1.10836 0.5-2.21875zm-384.75 2.84375c-0.93767 0.00002-1.623275 0.34036-2.125 1.03125-0.493512 0.69092-0.750007 1.71524-0.75 3.03125-0.000007 1.31601 0.256488 2.3091 0.75 3 0.501725 0.69091 1.18733 1.0625 2.125 1.0625 0.945877 0 1.662732-0.37159 2.15625-1.0625 0.50172-0.6909 0.781239-1.68399 0.78125-3-0.000011-1.31601-0.27953-2.34033-0.78125-3.03125-0.493518-0.69089-1.210373-1.03123-2.15625-1.03125zm127.75 0c-0.93768 0.00002-1.68577 0.34036-2.1875 1.03125-0.49351 0.69092-0.71875 1.71524-0.71875 3.03125s0.22524 2.3091 0.71875 3c0.50173 0.69091 1.24982 1.0625 2.1875 1.0625 0.94588 0 1.66274-0.37159 2.15625-1.0625 0.50172-0.6909 0.74999-1.68399 0.75-3-0.00001-1.31601-0.24828-2.34033-0.75-3.03125-0.49351-0.69089-1.21037-1.03123-2.15625-1.03125zm78.4375 0c-0.93768 0.00002-1.65453 0.34036-2.15625 1.03125-0.49351 0.69092-0.75 1.71524-0.75 3.03125s0.25649 2.3091 0.75 3c0.50172 0.69091 1.21857 1.0625 2.15625 1.0625 0.94587 0 1.66274-0.37159 2.15625-1.0625 0.50173-0.6909 0.74999-1.68399 0.75-3-0.00001-1.31601-0.24827-2.34033-0.75-3.03125-0.49351-0.69089-1.21038-1.03123-2.15625-1.03125zm69.78125 0c-0.93767 0.00002-1.62327 0.34036-2.125 1.03125-0.4935 0.69092-0.75 1.71524-0.75 3.03125s0.2565 2.3091 0.75 3c0.50173 0.69091 1.18733 1.0625 2.125 1.0625 0.94587 0 1.66273-0.37159 2.15625-1.0625 0.50172-0.6909 0.78124-1.68399 0.78125-3-0.00001-1.31601-0.27953-2.34033-0.78125-3.03125-0.49352-0.69089-1.21038-1.03123-2.15625-1.03125zm44.1875 0c-0.93768 0.00002-1.65453 0.34036-2.15625 1.03125-0.49352 0.69092-0.75 1.71524-0.75 3.03125s0.25648 2.3091 0.75 3c0.50172 0.69091 1.21857 1.0625 2.15625 1.0625 0.94588 0 1.66273-0.37159 2.15625-1.0625 0.50172-0.6909 0.75-1.68399 0.75-3s-0.24828-2.34033-0.75-3.03125c-0.49352-0.69089-1.21037-1.03123-2.15625-1.03125zm41.9375 0c-0.93766 0.00002-1.65453 0.34036-2.15625 1.03125-0.49351 0.69092-0.71876 1.71524-0.71875 3.03125-0.00001 1.31601 0.22524 2.3091 0.71875 3 0.50172 0.69091 1.21859 1.0625 2.15625 1.0625 0.94589 0 1.66273-0.37159 2.15625-1.0625 0.50171-0.6909 0.78123-1.68399 0.78125-3-0.00002-1.31601-0.27954-2.34033-0.78125-3.03125-0.49352-0.69089-1.21036-1.03123-2.15625-1.03125zm54.625 0c-0.93767 0.00002-1.65453 0.34036-2.15625 1.03125-0.49352 0.69092-0.71877 1.71524-0.71875 3.03125-0.00002 1.31601 0.22523 2.3091 0.71875 3 0.50172 0.69091 1.21858 1.0625 2.15625 1.0625 0.94588 0 1.66274-0.37159 2.15625-1.0625 0.50172-0.6909 0.78123-1.68399 0.78125-3-0.00002-1.31601-0.27953-2.34033-0.78125-3.03125-0.49351-0.69089-1.21037-1.03123-2.15625-1.03125zm-423.21875 23.34375h4.4375v3.59375h-4.4375zm33.15625 0h4.46875v19.1875h-4.46875v-2c-0.60867 0.81428-1.26797 1.40289-2 1.78125-0.73204 0.37835-1.600175 0.5625-2.5625 0.5625-1.702607 0-3.093565-0.65109-4.1875-2-1.093941-1.35714-1.625001-3.08844-1.625-5.21875-0.000001-2.13028 0.531059-3.90107 1.625-5.25 1.093935-1.35713 2.484893-2.03124 4.1875-2.03125 0.954099 0.00001 1.79921 0.20718 2.53125 0.59375 0.74025 0.37836 1.42258 0.94395 2.03125 1.75zm14.4375 0h3.375v2.875h-2.4375c-0.62512 0-1.06575 0.14472-1.3125 0.375-0.24676 0.2221-0.37501 0.59695-0.375 1.15625v0.96875h3.78125v3.15625h-3.78125v10.65625h-4.40625v-10.65625h-2.1875v-3.15625h2.1875v-0.96875c0-1.50519 0.41104-2.59691 1.25-3.3125 0.83895-0.7238 2.14607-1.09373 3.90625-1.09375zm5.28125 0h4.4375v10.4375l5.0625-5.0625h5.125l-6.75 6.34375 7.3125 7.46875h-5.375l-5.375-5.78125v5.78125h-4.4375zm16.8125 0h4.40625v10.4375l5.125004-5.0625h5.125l-6.75 6.34375 7.28125 7.46875h-5.34375l-5.437504-5.78125v5.78125h-4.40625zm35.031254 0h4.4375v19.1875h-4.4375v-2c-0.60866 0.81428-1.26797 1.40289-2 1.78125-0.73204 0.37835-1.60016 0.5625-2.5625 0.5625-1.7026 0-3.06231-0.65109-4.15625-2-1.09394-1.35714-1.6875-3.08844-1.6875-5.21875 0-2.13028 0.59356-3.90107 1.6875-5.25 1.09394-1.35713 2.45365-2.03124 4.15625-2.03125 0.95411 0.00001 1.79921 0.20718 2.53125 0.59375 0.74025 0.37836 1.42259 0.94395 2.03125 1.75zm29.46875 0h3.375v2.875h-2.4375c-0.62512 0-1.0345 0.14472-1.28125 0.375-0.24676 0.2221-0.37501 0.59695-0.375 1.15625v0.96875h3.78125v3.15625h-3.78125v10.65625h-4.40625v-10.65625h-2.21875v-3.15625h2.21875v-0.96875c0-1.50519 0.37978-2.59691 1.21875-3.3125 0.83896-0.7238 2.14607-1.09373 3.90625-1.09375zm38.53125 0h4.4375v19.1875h-4.4375v-2c-0.60867 0.81428-1.29923 1.40289-2.03125 1.78125-0.73205 0.37835-1.56892 0.5625-2.53125 0.5625-1.7026 0-3.09357-0.65109-4.1875-2-1.09394-1.35714-1.65625-3.08844-1.65625-5.21875 0-2.13028 0.56231-3.90107 1.65625-5.25 1.09393-1.35713 2.4849-2.03124 4.1875-2.03125 0.95411 0.00001 1.7992 0.20718 2.53125 0.59375 0.74024 0.37836 1.42258 0.94395 2.03125 1.75zm14.40625 0h3.40625v2.875h-2.4375c-0.62511 0-1.06576 0.14472-1.3125 0.375-0.24677 0.2221-0.37501 0.59695-0.375 1.15625v0.96875h3.75v3.15625h-3.75v10.65625h-4.4375v-10.65625h-2.1875v-3.15625h2.1875v-0.96875c0-1.50519 0.44228-2.59691 1.28125-3.3125 0.83896-0.7238 2.11481-1.09373 3.875-1.09375zm5.3125 0h4.40625v3.59375h-4.40625zm8.6875 0h4.4375v10.4375l5.0625-5.0625h5.125l-6.71875 6.34375 7.25 7.46875h-5.34375l-5.375-5.78125v5.78125h-4.4375zm51.46875 0h4.40625v19.1875h-4.40625v-2c-0.60866 0.81428-1.29922 1.40289-2.03125 1.78125-0.73203 0.37835-1.60018 0.5625-2.5625 0.5625-1.70261 0-3.09356-0.65109-4.1875-2-1.09393-1.35714-1.625-3.08844-1.625-5.21875 0-2.13028 0.53107-3.90107 1.625-5.25 1.09394-1.35713 2.48489-2.03124 4.1875-2.03125 0.95411 0.00001 1.83046 0.20718 2.5625 0.59375 0.74025 0.37836 1.42259 0.94395 2.03125 1.75zm29.4375 0h3.40625v2.875h-2.4375c-0.62512 0-1.09701 0.14472-1.34375 0.375-0.24675 0.2221-0.37501 0.59695-0.375 1.15625v0.96875h3.8125v3.15625h-3.8125v10.65625h-4.375v-10.65625h-2.21875v-3.15625h2.21875v-0.96875c0-1.50519 0.41103-2.59691 1.25-3.3125 0.83895-0.7238 2.11482-1.09373 3.875-1.09375zm5.3125 0h4.4375v3.59375h-4.4375zm8.6875 0h4.40625v10.4375l5.09375-5.0625h5.125l-6.75 6.34375 7.3125 7.46875h-5.40625l-5.375-5.78125v5.78125h-4.40625zm16.8125 0h4.40625v10.4375l5.09375-5.0625h5.15625l-6.75 6.34375 7.25 7.46875h-5.34375l-5.40625-5.78125v5.78125h-4.40625zm41.28125 0h4.4375v19.1875h-4.4375v-2c-0.60866 0.81428-1.26798 1.40289-2 1.78125-0.73205 0.37835-1.56892 0.5625-2.53125 0.5625-1.7026 0-3.12482-0.65109-4.21875-2-1.09395-1.35714-1.625-3.08844-1.625-5.21875 0-2.13028 0.53105-3.90107 1.625-5.25 1.09393-1.35713 2.51615-2.03124 4.21875-2.03125 0.95411 0.00001 1.79921 0.20718 2.53125 0.59375 0.74026 0.37836 1.39134 0.94395 2 1.75zm26.90625 0h4.46875v19.1875h-4.46875v-2c-0.60867 0.81428-1.26798 1.40289-2 1.78125-0.73205 0.37835-1.56892 0.5625-2.53125 0.5625-1.7026 0-3.12482-0.65109-4.21875-2-1.09394-1.35714-1.62501-3.08844-1.625-5.21875-0.00001-2.13028 0.53106-3.90107 1.625-5.25 1.09393-1.35713 2.51615-2.03124 4.21875-2.03125 0.9541 0.00001 1.76794 0.20718 2.5 0.59375 0.74023 0.37836 1.42258 0.94395 2.03125 1.75zm14.4375 0h3.375v2.875h-2.4375c-0.6251 0-1.06576 0.14472-1.3125 0.375-0.24677 0.2221-0.375 0.59695-0.375 1.15625v0.96875h3.78125v3.15625h-3.78125v10.65625h-4.40625v-10.65625h-2.1875v-3.15625h2.1875v-0.96875c-0.00001-1.50519 0.37979-2.59691 1.21875-3.3125 0.83896-0.7238 2.17731-1.09373 3.9375-1.09375zm29.71875 0h4.46875v19.1875h-4.46875v-2c-0.60866 0.81428-1.26798 1.40289-2 1.78125-0.73204 0.37835-1.56892 0.5625-2.53125 0.5625-1.7026 0-3.12481-0.65109-4.21875-2-1.09394-1.35714-1.625-3.08844-1.625-5.21875 0-2.13028 0.53106-3.90107 1.625-5.25 1.09394-1.35713 2.51615-2.03124 4.21875-2.03125 0.95411 0.00001 1.7992 0.20718 2.53125 0.59375 0.74025 0.37836 1.39134 0.94395 2 1.75zm-411.1875 5.03125c0.814277 0.00001 1.665955 0.0641 2.5625 0.1875 0.896527 0.12339 1.884674 0.33057 2.9375 0.59375v3.34375c-0.945899-0.3948-1.869924-0.67758-2.75-0.875-0.880096-0.19739-1.687373-0.31248-2.46875-0.3125-0.838968 0.00002-1.463751 0.0987-1.875 0.3125-0.403036 0.20565-0.625005 0.53283-0.625 0.96875-0.000005 0.35368 0.164416 0.62333 0.46875 0.8125 0.312547 0.18919 0.858409 0.31578 1.65625 0.40625l0.78125 0.125c2.261895 0.28787 3.781102 0.77949 4.5625 1.4375 0.781372 0.65802 1.187487 1.68727 1.1875 3.09375-0.000013 1.4723-0.539298 2.57223-1.625 3.3125-1.085725 0.74025-2.720031 1.09375-4.875 1.09375-0.912993 0-1.864967-0.0708-2.84375-0.21875-0.970565-0.13983-1.971863-0.33713-3-0.625v-3.375c0.880085 0.4277 1.766285 0.7549 2.6875 0.96875 0.929432 0.21386 1.889631 0.3125 2.84375 0.3125 0.863628 0 1.532812-0.10518 1.96875-0.34375 0.435922-0.2385 0.624991-0.59367 0.625-1.0625-0.000009-0.39481-0.133181-0.68582-0.4375-0.875-0.296113-0.1974-0.915972-0.36181-1.8125-0.46875l-0.75-0.0937c-1.965805-0.24679-3.366643-0.67757-4.15625-1.3438-0.789612-0.66623-1.187501-1.67411-1.1875-3.03125-0.000001-1.46407 0.527784-2.57389 1.53125-3.28125 1.003459-0.70736 2.521018-1.06249 4.59375-1.0625zm104.71875 0c0.81429 0.00001 1.66596 0.0641 2.5625 0.1875 0.89653 0.12339 1.88467 0.33057 2.9375 0.59375v3.34375c-0.9459-0.3948-1.86992-0.67758-2.75-0.875-0.8801-0.19739-1.68738-0.31248-2.46875-0.3125-0.83897 0.00002-1.46375 0.0987-1.875 0.3125-0.40304 0.20565-0.62501 0.53283-0.625 0.96875-0.00001 0.35368 0.16442 0.62333 0.46875 0.8125 0.31255 0.18919 0.85842 0.31578 1.65625 0.40625l0.78125 0.125c2.26189 0.28787 3.7811 0.77949 4.5625 1.4375 0.78137 0.65802 1.18749 1.68727 1.1875 3.09375-0.00001 1.4723-0.5393 2.57223-1.625 3.3125-1.08573 0.74025-2.72003 1.09375-4.875 1.09375-0.913 0-1.86497-0.0708-2.84375-0.21875-0.97057-0.13983-1.97187-0.33713-3-0.625v-3.375c0.88007 0.4277 1.76628 0.7549 2.6875 0.96875 0.92943 0.21386 1.88964 0.3125 2.84375 0.3125 0.86363 0 1.53281-0.10518 1.96875-0.34375 0.43592-0.2385 0.62499-0.59367 0.625-1.0625-0.00001-0.39481-0.13317-0.68582-0.4375-0.875-0.2961-0.1974-0.91597-0.36181-1.8125-0.46875l-0.75-0.0937c-1.9658-0.24674-3.36665-0.67752-4.15625-1.34375-0.78961-0.66623-1.15625-1.67411-1.15625-3.03125 0-1.46407 0.49654-2.57389 1.5-3.28125s2.52103-1.06249 4.59375-1.0625zm34.875 0c0.81428 0.00001 1.66596 0.0641 2.5625 0.1875 0.89654 0.12339 1.85342 0.33057 2.90625 0.59375v3.34375c-0.9459-0.3948-1.83866-0.67758-2.71875-0.875-0.88008-0.19739-1.71863-0.31248-2.5-0.3125-0.83898 0.00002-1.49499 0.0987-1.90625 0.3125-0.40304 0.20565-0.59375 0.53283-0.59375 0.96875 0 0.35368 0.16441 0.62333 0.46875 0.8125 0.31255 0.18919 0.88966 0.31578 1.6875 0.40625l0.75 0.125c2.26189 0.28787 3.78111 0.77949 4.5625 1.4375 0.78137 0.65802 1.15624 1.68727 1.15625 3.09375-0.00001 1.4723-0.50804 2.57223-1.59375 3.3125-1.08572 0.74025-2.72003 1.09375-4.875 1.09375-0.913 0-1.83373-0.0708-2.8125-0.21875-0.97058-0.13983-1.97187-0.33713-3-0.625v-3.375c0.88008 0.4277 1.76629 0.7549 2.6875 0.96875 0.92944 0.21386 1.85838 0.3125 2.8125 0.3125 0.86362 0 1.50157-0.10518 1.9375-0.34375 0.43592-0.2385 0.68749-0.59367 0.6875-1.0625-0.00001-0.39481-0.16443-0.68582-0.46875-0.875-0.29612-0.1974-0.88472-0.36181-1.78125-0.46875l-0.78125-0.0937c-1.96581-0.24674-3.36665-0.67752-4.15625-1.34375-0.78962-0.66623-1.15625-1.67411-1.15625-3.03125 0-1.46407 0.46528-2.57389 1.46875-3.28125 1.00345-0.70736 2.58352-1.06249 4.65625-1.0625zm70.28125 0c2.17142 0.00001 3.91917 0.62973 5.21875 1.9375 1.30778 1.3078 1.96873 3.09338 1.96875 5.28125v1.25h-10.34375c0.10693 1.03637 0.48344 1.79432 1.125 2.3125 0.64155 0.51819 1.53598 0.78125 2.6875 0.78125 0.92943 0 1.90444-0.1348 2.875-0.40625 0.97879-0.27963 1.97185-0.65944 3-1.21875v3.375c-1.04461 0.3948-2.08041 0.70884-3.125 0.90625-1.04459 0.20563-2.11167 0.28125-3.15625 0.28125-2.50045 0-4.45372-0.60834-5.84375-1.875-1.38183-1.27489-2.0625-3.04893-2.0625-5.34375 0-2.25367 0.6741-4.0524 2.03125-5.34375 1.36536-1.29132 3.23972-1.93749 5.625-1.9375zm42.71875 0c0.81427 0.00001 1.66596 0.0641 2.5625 0.1875 0.89653 0.12339 1.88468 0.33057 2.9375 0.59375v3.34375c-0.9459-0.3948-1.86992-0.67758-2.75-0.875-0.88008-0.19739-1.68736-0.31248-2.46875-0.3125-0.83896 0.00002-1.49502 0.0987-1.90625 0.3125-0.40305 0.20565-0.59375 0.53283-0.59375 0.96875 0 0.35368 0.13315 0.62333 0.4375 0.8125 0.31253 0.18919 0.88965 0.31578 1.6875 0.40625l0.75 0.125c2.2619 0.28787 3.81235 0.77949 4.59375 1.4375 0.78137 0.65802 1.15623 1.68727 1.15625 3.09375-0.00002 1.4723-0.5393 2.57223-1.625 3.3125-1.08573 0.74025-2.68878 1.09375-4.84375 1.09375-0.91299 0-1.86497-0.0708-2.84375-0.21875-0.97057-0.13983-1.97187-0.33713-3-0.625v-3.375c0.88009 0.4277 1.76629 0.7549 2.6875 0.96875 0.92943 0.21386 1.88963 0.3125 2.84375 0.3125 0.86362 0 1.50156-0.10518 1.9375-0.34375 0.43592-0.2385 0.65624-0.59367 0.65625-1.0625-0.00001-0.39481-0.16443-0.68582-0.46875-0.875-0.29612-0.1974-0.88472-0.36181-1.78125-0.46875l-0.78125-0.0937c-1.96581-0.24674-3.36665-0.67752-4.15625-1.34375-0.78963-0.66623-1.15626-1.67411-1.15625-3.03125-0.00001-1.46407 0.49654-2.57389 1.5-3.28125s2.55226-1.06249 4.625-1.0625zm68.40625 0c0.81429 0.00001 1.66594 0.0641 2.5625 0.1875 0.89652 0.12339 1.85343 0.33057 2.90625 0.59375v3.34375c-0.94589-0.3948-1.83868-0.67758-2.71875-0.875-0.88011-0.19739-1.71863-0.31248-2.5-0.3125-0.83897 0.00002-1.495 0.0987-1.90625 0.3125-0.40303 0.20565-0.56251 0.53283-0.5625 0.96875-0.00001 0.35368 0.16442 0.62333 0.46875 0.8125 0.31255 0.18919 0.85842 0.31578 1.65625 0.40625l0.78125 0.125c2.26189 0.28787 3.74985 0.77949 4.53125 1.4375 0.78137 0.65802 1.18749 1.68727 1.1875 3.09375-0.00001 1.4723-0.5393 2.57223-1.625 3.3125-1.08572 0.74025-2.72002 1.09375-4.875 1.09375-0.91299 0-1.83372-0.0708-2.8125-0.21875-0.97056-0.13983-2.00312-0.33713-3.03125-0.625v-3.375c0.88007 0.4277 1.79753 0.7549 2.71875 0.96875 0.92943 0.21386 1.85839 0.3125 2.8125 0.3125 0.86364 0 1.50157-0.10518 1.9375-0.34375 0.43592-0.2385 0.68749-0.59367 0.6875-1.0625-0.00001-0.39481-0.16442-0.68582-0.46875-0.875-0.2961-0.1974-0.88472-0.36181-1.78125-0.46875l-0.78125-0.0937c-1.9658-0.24674-3.33539-0.67752-4.125-1.34375-0.7896-0.66623-1.1875-1.67411-1.1875-3.03125 0-1.46407 0.49653-2.57389 1.5-3.28125 1.00346-0.70736 2.55228-1.06249 4.625-1.0625zm71.0625 0c0.81428 0.00001 1.66595 0.0641 2.5625 0.1875 0.89651 0.12339 1.85343 0.33057 2.90625 0.59375v3.34375c-0.9459-0.3948-1.83868-0.67758-2.71875-0.875-0.8801-0.19739-1.71862-0.31248-2.5-0.3125-0.83896 0.00002-1.46374 0.0987-1.875 0.3125-0.40302 0.20565-0.59375 0.53283-0.59375 0.96875 0 0.35368 0.13317 0.62333 0.4375 0.8125 0.31255 0.18919 0.85841 0.31578 1.65625 0.40625l0.8125 0.125c2.26189 0.28787 3.74985 0.77949 4.53125 1.4375 0.78137 0.65802 1.18747 1.68727 1.1875 3.09375-0.00003 1.4723-0.57055 2.57223-1.65625 3.3125-1.08573 0.74025-2.68877 1.09375-4.84375 1.09375-0.91298 0-1.86497-0.0708-2.84375-0.21875-0.97057-0.13983-1.97186-0.33713-3-0.625v-3.375c0.88009 0.4277 1.79753 0.7549 2.71875 0.96875 0.92943 0.21386 1.85838 0.3125 2.8125 0.3125 0.86364 0 1.53281-0.10518 1.96875-0.34375 0.43592-0.2385 0.62499-0.59367 0.625-1.0625-0.00001-0.39481-0.10193-0.68582-0.40625-0.875-0.29611-0.1974-0.91596-0.36181-1.8125-0.46875l-0.78125-0.0937c-1.9658-0.24674-3.3354-0.67752-4.125-1.34375-0.78961-0.66623-1.18751-1.67411-1.1875-3.03125-0.00001-1.46407 0.49653-2.57389 1.5-3.28125s2.55226-1.06249 4.625-1.0625zm-406.0625 0.34375h4.4375v13.5625c-0.000008 1.85064-0.455445 3.27944-1.34375 4.25-0.888317 0.97879-2.157606 1.43749-3.84375 1.4375h-2.1875v-2.875h0.75c0.83896-0.00001 1.406195-0.2154 1.71875-0.59375 0.312553-0.37836 0.468749-1.10836 0.46875-2.21875zm192.4375 0h4.40625v13.5625c-0.00001 1.85064-0.45544 3.27944-1.34375 4.25-0.88832 0.97879-2.15761 1.43749-3.84375 1.4375h-2.15625v-2.875h0.71875c0.83896-0.00001 1.43745-0.2154 1.75-0.59375 0.31255-0.37836 0.46875-1.10836 0.46875-2.21875zm94.90625 0h4.4375v13.5625c-0.00001 1.85064-0.45545 3.27944-1.34375 4.25-0.88831 0.97879-2.18885 1.43749-3.875 1.4375h-2.1875v-2.875h0.78125c0.83896-0.00001 1.4062-0.2154 1.71875-0.59375 0.31256-0.37836 0.46875-1.10836 0.46875-2.21875zm-63.5 2.59375c-0.85542 0.00002-1.52787 0.26472-2.0625 0.75-0.53464 0.47706-0.86841 1.15774-1 2.0625h5.71875c-0.00001-0.83896-0.25649-1.52128-0.75-2.03125-0.48528-0.51817-1.11663-0.78123-1.90625-0.78125zm-193.59375 0.28125c-0.93767 0.00001-1.654521 0.34035-2.15625 1.03125-0.493513 0.69092-0.750005 1.71525-0.75 3.03125-0.000005 1.31602 0.256487 2.27785 0.75 2.96875 0.501729 0.69091 1.21858 1.0625 2.15625 1.0625 0.94587 0 1.66274-0.37159 2.15625-1.0625 0.50173-0.6909 0.74999-1.65273 0.75-2.96875-0.00001-1.316-0.24827-2.34033-0.75-3.03125-0.49351-0.6909-1.21038-1.03124-2.15625-1.03125zm71.531254 0c-0.93767 0.00001-1.62328 0.34035-2.125 1.03125-0.49351 0.69092-0.75001 1.71525-0.75 3.03125-0.00001 1.31602 0.25649 2.27785 0.75 2.96875 0.50172 0.69091 1.18733 1.0625 2.125 1.0625 0.94587 0 1.69398-0.37159 2.1875-1.0625 0.50172-0.6909 0.75-1.65273 0.75-2.96875 0-1.316-0.24828-2.34033-0.75-3.03125-0.49352-0.6909-1.24163-1.03124-2.1875-1.03125zm68.03125 0c-0.93767 0.00001-1.65452 0.34035-2.15625 1.03125-0.4935 0.69092-0.75001 1.71525-0.75 3.03125-0.00001 1.31602 0.2565 2.27785 0.75 2.96875 0.50173 0.69091 1.21858 1.0625 2.15625 1.0625 0.94588 0 1.66273-0.37159 2.15625-1.0625 0.50172-0.6909 0.74999-1.65273 0.75-2.96875-0.00001-1.316-0.24828-2.34033-0.75-3.03125-0.49352-0.6909-1.21037-1.03124-2.15625-1.03125zm79.84375 0c-0.93766 0.00001-1.65452 0.34035-2.15625 1.03125-0.49351 0.69092-0.71876 1.71525-0.71875 3.03125-0.00001 1.31602 0.22524 2.27785 0.71875 2.96875 0.50173 0.69091 1.21859 1.0625 2.15625 1.0625 0.94588 0 1.66272-0.37159 2.15625-1.0625 0.5017-0.6909 0.78124-1.65273 0.78125-2.96875-0.00001-1.316-0.27955-2.34033-0.78125-3.03125-0.49353-0.6909-1.21037-1.03124-2.15625-1.03125zm101.5625 0c-0.93767 0.00001-1.65453 0.34035-2.15625 1.03125-0.49352 0.69092-0.75 1.71525-0.75 3.03125 0 1.31602 0.25648 2.27785 0.75 2.96875 0.50172 0.69091 1.21858 1.0625 2.15625 1.0625 0.94588 0 1.66272-0.37159 2.15625-1.0625 0.50171-0.6909 0.74999-1.65273 0.75-2.96875-0.00001-1.316-0.24829-2.34033-0.75-3.03125-0.49353-0.6909-1.21037-1.03124-2.15625-1.03125zm26.90625 0c-0.93767 0.00001-1.65452 0.34035-2.15625 1.03125-0.4935 0.69092-0.75001 1.71525-0.75 3.03125-0.00001 1.31602 0.2565 2.27785 0.75 2.96875 0.50173 0.69091 1.21858 1.0625 2.15625 1.0625 0.94589 0 1.63148-0.37159 2.125-1.0625 0.50173-0.6909 0.78124-1.65273 0.78125-2.96875-0.00001-1.316-0.27952-2.34033-0.78125-3.03125-0.49352-0.6909-1.17911-1.03124-2.125-1.03125zm44.15625 0c-0.93766 0.00001-1.65452 0.34035-2.15625 1.03125-0.49351 0.69092-0.75001 1.71525-0.75 3.03125-0.00001 1.31602 0.25649 2.27785 0.75 2.96875 0.50173 0.69091 1.21859 1.0625 2.15625 1.0625 0.94589 0 1.66272-0.37159 2.15625-1.0625 0.50171-0.6909 0.74999-1.65273 0.75-2.96875-0.00001-1.316-0.24829-2.34033-0.75-3.03125-0.49353-0.6909-1.21036-1.03124-2.15625-1.03125z"/>
</svg>
