<?xml version="1.0" encoding="UTF-8" standalone="no"?>
<svg xmlns="http://www.w3.org/2000/svg" height="518.39728" width="477.92889" version="1.0" viewBox="0 0 477.9289 518.39728">
<path d="m165.92677 435.15295h169.64213c0-24.1156-1.7218-28.89923-41.65993-28.89923 6.38035-19.14104 32.31489-65.44956 46.72667-65.44956 12.75034 0 27.96094 0.70234 27.96094 29.79468 0 33.02768 55.58064 86.2787 69.05789 64.55411 20.08489-32.37551-34.52894-22.50298-34.52894-100.58432 0-106.81934 62.34005-91.61255 62.34005-151.6271 0-30.02517-8.29475-34.07978-8.29475-55.54656 0-28.370176 24.99325-26.72387 20.13052-50.246636-3.35906-16.248452-5.98777-29.278865-7.94601-48.9275-1.38956-13.941553-1.83258-28.800874-16.31357-28.203388-17.01451 0.70200303-23.46933 30.650908-49.91624 32.798233-26.39288 2.142971-48.89704-22.468614-59.11206-18.953388-10.12884 3.485607-6.94332 30.963456-0.93828 50.479815 9.43826 30.674062 30.02517 70.559158-7.50629 76.564198-37.53146 6.00503-102.08558 12.01006-148.62451 73.56166-46.53901 61.5516-44.821 133.78712-63.05286 156.13088-61.18881 74.98897-123.89153 44.1996-123.89153 106.58935 0 27.93187 47.327352 48.04026 54.833644 39.03271 7.506296-9.00755-63.781385-35.84807 15.983076-67.55663 68.14455-27.08932 74.22769-32.61922 95.11005-13.51132z"/>
</svg>
