<?xml version="1.0" encoding="UTF-8" standalone="no"?>
<svg xmlns="http://www.w3.org/2000/svg" version="1.0" viewBox="0 0 524.19818 524.66284">
<path d="m283.54322 0.01473493c-9.33614 0.157893-15.5918 1.53125-15.5918 1.53125-39.00153 9.2690511-57.24804 52.599609-57.24804 52.599609-17.99153 41.70091-8.70703 84.277346-8.70703 84.277346 13.46711 60.73764 62.55468 50.68554 62.55468 50.68554 32.99091-2.14749 57.03125-41.18359 57.03125-41.18359 27.30747-36.73914 30.7461-69.179686 30.7461-69.179686 6.38863-49.374603-24.23828-67.8125-24.23828-67.8125-15.44673-9.3141081-32.54327-11.12097-44.54688-10.917964zm-166.68555 24.828125c-16.38615-0.174371-32.894165 7.311315-44.761725 18.535156-22.739954 23.757021-30.716866 57.688804-31.662104 89.671874-1.106139 14.69556 2.799252 29.26256 9.154296 42.41992 10.403355 22.59365 34.002178 38.63782 59.064463 38.50196 17.74563 2.50503 36.45965-3.84045 48.42578-17.33985 10.81962-11.02278 16.10959-25.8737 19.66211-40.59179 7.84001-30.53493 9.85911-64.589896-4.11719-93.714848-8.63955-14.327056-21.36858-26.830062-36.87109-33.523438-6.08945-2.648288-12.48256-3.890752-18.89454-3.958984zm318.90235 68.394534c-27.20808-0.27059-50.71094 13.855466-50.71094 13.855466-45.77806 21.28115-61.57227 83.88477-61.57227 83.88477-5.71645 60.03699 30.47657 68.70117 30.47657 68.70117 30.1663 12.21126 74.13281-14.42188 74.13281-14.42188 39.32307-19.41246 57.79102-55.40429 57.79102-55.40429 29.76288-40.78643-1.41797-74.41993-1.41797-74.41993-14.71621-16.688786-32.37438-22.032946-48.69922-22.195306zm-214.15235 112.55274c-18.8138 0.0381-35.59226 12.85674-51.37695 22.21679-14.71619 10.5074-32.68961 9.24729-49.67773 7.82617-40.399285-2.33003-85.790422 11.63068-107.5254 48.07422-15.812059 23.48447-17.124841 54.69872-4.5136717 79.88086 11.411372 20.59614 24.019232 41.82697 44.378906 54.86914 20.411626 15.41377 46.170706 18.43394 70.115231 24.86133 26.34939 6.16633 40.16165 31.33736 58.95508 48.26367 28.32921 28.29047 71.15706 38.2353 109.79688 30.18164 37.35046-11.97885 67.6325-49.7114 65.47656-89.88867-4.23453-27.77566-17.80845-53.39104-32.75-76.88281-4.62805-19.65619-3.9402-39.97685-5.11914-60.00195 1.15902-32.09464-25.09457-55.2629-48.41992-73.07227-12.03884-6.8632-25.00803-12.34805-38.67188-14.93164-3.63029-0.9726-7.18393-1.40354-10.66797-1.39648zm248.24805 56.48632c-6.97571-0.13018-14.00585 0.67179-20.69727 2.04102-22.89742 3.7424-42.84526 17.02254-60.90039 30.91992-20.05082 14.23691-32.29543 37.87071-34.00781 62.24219-0.90694 7.21254-0.49818 14.56954 3.64844 20.78711 8.54289 17.88314 25.7135 32.92705 46.20703 33.66992 28.11161-0.68981 55.9477-10.69643 78.25586-27.80469 14.6346-12.07088 28.30503-26.24869 36.33008-43.66406 9.2584-19.18654 6.92002-43.79616-7.60742-59.75977-2.50109-3.13741-5.403-5.95669-8.62891-8.34375-9.49909-7.06713-20.97343-9.87091-32.59961-10.08789z"/>
</svg>
