<?xml version="1.0" encoding="UTF-8" standalone="no"?>
<svg xmlns="http://www.w3.org/2000/svg" version="1.0" viewBox="0 0 515.5625 378.70703">
<path d="m196.55664 8.4570615e-8a2.550255 2.550255 0 0 0 -2.10352 1.107422l-25.57421 37.328133a2.550255 2.550255 0 0 0 2.10351 3.99218h172.62305a2.550255 2.550255 0 0 0 2.16406 -3.90039l-23.3125-37.328126a2.550255 2.550255 0 0 0 -2.16211 -1.1992189zm38.28711 9.558595h46.76953v24.14649h-46.76953zm169.15625 6.2285199a2.550255 2.550255 0 0 0 -2.34766 1.55273l-9.04882 21.29492a2.550255 2.550255 0 0 0 2.34765 3.54688h68.21289a2.550255 2.550255 0 0 0 2.37696 -3.47266l-8.26172-21.29492a2.550255 2.550255 0 0 0 -2.37696 -1.62695zm-332.21484 7.32812a2.550255 2.550255 0 0 0 -2.42969 1.77149l-4.425782 13.82031a2.550255 2.550255 0 0 0 2.427732 3.32813h45.88672a2.550255 2.550255 0 0 0 2.48438 -3.125l-3.19727-13.82032a2.550255 2.550255 0 0 0 -2.48437 -1.97461zm-27.28516 28.7793c-24.651533 0-44.5 19.84847-44.5 44.5v237.8125c0 24.65153 19.848467 44.5 44.5 44.5h426.5625c24.65153 0 44.5-19.84847 44.5-44.5v-237.8125c0-24.65153-19.84847-44.5-44.5-44.5zm260.25 42.96875c65.25142 0 118.15625 52.873585 118.15625 118.125 0 65.25142-52.90483 118.15625-118.15625 118.15625s-118.15625-52.90483-118.15625-118.15625 52.90483-118.125 118.15625-118.125zm-0.002 47.552735a70.582011 70.582011 0 0 0 -70.58203 70.58204 70.582011 70.582011 0 0 0 70.58203 70.58203 70.582011 70.582011 0 0 0 70.58203 -70.58203 70.582011 70.582011 0 0 0 -70.58203 -70.58204z"/>
</svg>
