<?xml version="1.0" encoding="UTF-8" standalone="no"?>
<svg xmlns="http://www.w3.org/2000/svg" version="1.0" viewBox="0 0 510.9057 449.35715">
<path d="m497.38595 0.01150341a14.088086 14.088086 0 0 0 -7.68554 1.917969l-49.40821 27.996095a14.088086 14.088086 0 0 0 -6.76953 9.03711l-8.16992 34.78906h-411.26562a14.088086 14.088086 0 0 0 -13.646491 17.58399l49.667969 193.82617a14.088086 14.088086 0 0 0 11.70117 10.45313l308.01758 42.9375v16.32226h-274.79102a14.088086 14.088086 0 0 0 -12.75976 7.62891c-14.59586 7.07037-24.811862 22.55062-24.814454 40.375-0.0036 24.42626 19.161774 44.47362 42.521484 44.47851 22.553092 0.005 41.032452-18.72374 42.298832-41.99609a10.863695 11.35971 0 0 0 0.24219 -2.46289 10.863695 11.35971 0 0 0 0 -0.002 10.863695 11.35971 0 0 0 0 -0.0137 10.863695 11.35971 0 0 0 -0.24415 -2.50781c-0.34146-6.18835-1.9092-12.05022-4.4375-17.32812h170.14454c-3.51894 6.4631-5.54377 13.91458-5.54493 21.83203-0.004 24.42626 19.16178 44.47363 42.52149 44.47851 22.55309 0.005 41.03245-18.72374 42.29883-41.99609a10.863695 11.35971 0 0 0 0.24218 -2.46289 10.863695 11.35971 0 0 0 0 -0.002 10.863695 11.35971 0 0 0 0 -0.0137 10.863695 11.35971 0 0 0 -0.24414 -2.50781c-0.38524-6.98185-2.32846-13.54877-5.45703-19.32812h2.10938a14.088086 14.088086 0 0 0 14.08594 -14.08594v-43.98047l52.70312-234.04687a14.088086 14.088086 0 0 0 0.32617 -3.28126l8.51367-36.25195 44.04883-24.95898a14.088086 14.088086 0 0 0 -6.20508 -26.429557zm-465.14843 101.91407h44.33007v54.94532h-30.249992zm63.11132 0h68.302742v54.94532h-68.302742zm87.083992 0h72.30273v54.94532h-72.30273zm91.08398 0h70.30274v54.94532h-70.30274zm89.08399 0h56.13672l-12.99024 55.31446a9.3920572 9.3920572 0 0 0 -2.66601 -0.36914h-40.48047zm-311.47071 73.72852h25.437496v60.30078h-9.98437zm44.218746 0h68.302742v60.30078h-68.302742zm87.083992 0h72.30273v60.30078h-72.30273zm91.08398 0h70.30274v60.30078h-70.30274zm89.08399 0h38.82226l-14.20703 60.49804a9.3920572 9.3920572 0 0 0 -1.95117 -0.19726h-22.66406zm-291.20508 79.08398h5.17187v11.73047a9.3920572 9.3920572 0 0 0 0.38086 2.8125l-1.89257-0.26367zm23.95312 0h68.302742v26.62891l-69.751952-9.72266a9.3920572 9.3920572 0 0 0 1.44921 -5.17578zm87.083992 0h72.30273v39.32617l-72.30273-10.07812zm91.08398 0h70.30274v51.74414l-70.37696-9.81054a9.3920572 9.3920572 0 0 0 0.0742 -1.25v-40.6836zm89.08399 0h20.25l-12.65039 53.87305a14.088086 14.088086 0 0 0 -0.26367 1.51172l-7.34376-1.02344a9.3920572 9.3920572 0 0 0 0.008 -0.31641v-54.04492zm-270.59766 128.01367a14.088086 14.088086 0 0 0 3.0332 0.29493h13.595712c7.22087 3.38747 12.1665 10.9253 12.16601 19.83789a10.863695 11.35971 0 0 0 0 0.002 10.863695 11.35971 0 0 0 0 0.002c-0.003 12.14939-9.19164 21.75242-20.810542 21.75-11.61889-0.002-20.8006-9.60843-20.79883-21.75781 0.002-9.17693 5.24276-16.89894 12.81445-20.12891zm252.97266 0.37696c11.61889 0.001 20.8034 9.60648 20.80273 21.75586a10.863695 11.35971 0 0 0 0 0.002 10.863695 11.35971 0 0 0 0 0.002c-0.003 12.1494-9.19165 21.75242-20.81055 21.75-11.61889-0.002-20.80059-9.60843-20.79882-21.75781 0.002-12.14939 9.18775-21.75322 20.80664-21.75195z"/>
</svg>
