<?xml version="1.0" encoding="UTF-8" standalone="no"?>
<svg xmlns="http://www.w3.org/2000/svg" height="483.68964" width="520.32977" version="1.0" viewBox="0 0 520.32978 483.68964">
<path d="m468.78092 0.01704947c-78.08576 0.862462-154.44685 34.166559-240.09571 104.42383-3.18446-0.86246-10.21679-2.78711-10.21679-2.78711-13.60031 0-24.67969 11.01296-24.67969 24.61328 0 0 0.99659 4.57889 1.52734 7.43164-2.65372 2.45469-69.19726 64.94922-69.19726 64.94922l-58.845702 55.46289c-5.506469 5.04208-12.671208 7.56219-20.167969 7.23047-7.430418-0.3317-14.264507-3.58142-19.240234-9.08789-4.843043-5.37378-7.164063-12.07475-7.164063-18.77539 0-7.56312 3.050613-15.12634 9.021485-20.63282 0 0 4.446582-2.45495 7.830078-4.3789 0.729768 5.04207 2.785156 20.43359 2.785156 20.43359l48.033202-61.16797-52.941405 18.04493c-13.932045 4.77669-19.705273 11.80891-19.904297 12.14062-19.372162 17.58091-20.89699 48.3646-2.984375 68.20117 18.045309 19.9029 48.82755 21.29537 68.730467 3.31641l0.53125-0.66211 55.794917-53.14063s68.92981-65.15051 71.11914-67.33984c3.31714 0.86246 9.81836 2.52149 9.81836 2.52149 13.53397 0 24.54688-11.07937 24.54688-24.67969 0 0-0.66255-3.58254-1.12695-6.16992 82.86246-68.134314 155.3094-100.50858 227.88867-101.3047 14.92719-0.132683 26.86826 1.791097 46.43945 5.970703l4.04688 0.861328v-19.37109l-2.6543-0.53125c-20.30097-4.2459475-33.5693-5.7712905-48.89453-5.5722665zm37.14843 210.47852c-228.03554 0.91206-334.36523 94.89843-334.36523 94.89843-0.99514 1.12783-1.6582 2.58746-1.6582 4.17969 0 2.12298 1.19493 3.97953 2.85351 5.04102l90.02735 42.99023c3.91423 1.92395 5.57226 4.44488 5.57226 8.09375 0 4.84304-4.04752 8.82422-8.82422 8.82422l-99.64648-0.13281c-1.85759 0-3.38281 1.52521-3.38281 3.38281 0 0.92881 0.26431 1.72518 0.92773 2.32226 101.04045 81.27023 233.13013 105.35371 359.44727 103.4961v-273.06836c-3.681-0.0332-7.33156-0.0418-10.95118-0.0273zm-200.28515 76.85351c11.74271 0 21.22851 9.5522 21.22851 21.29492 0 11.74271-9.41945 21.29688-21.22851 21.29688-11.74272 0-21.36328-9.55417-21.36328-21.29688 0-11.74272 9.62056-21.29492 21.36328-21.29492z"/>
</svg>
