<?xml version="1.0" encoding="UTF-8" standalone="no"?>
<svg xmlns="http://www.w3.org/2000/svg" version="1.0" viewBox="0 0 430.53516 337.82227">
<path d="m238.93555 0c-34.3288 0.475139-61.94531 28.32977-61.94531 62.77735 0 34.21001 27.37947 62.06428 61.4707 62.6582-1.48481 4.75139-2.31641 9.74027-2.31641 14.9668 0 27.49867 22.39 49.77148 49.88867 49.77148v0.0586h65.45118c14.72931 0 26.66601 11.93866 26.66601 26.66797v35.69531h18.23438l-0.11914-35.75391c0-24.70723-19.95524-44.7832-44.78125-44.7832h-65.45118c-17.52075 0-31.65625-14.25428-31.65625-31.65625 0-6.59255 2.07948-12.65007 5.46485-17.75781 1.12845-1.78177 1.8418-3.74194 1.8418-5.93946-0.00001-5.82045-4.75182-10.57226-10.57227-10.57226-0.8315 0-1.72319 0.11985-2.55469 0.35742-2.85083 0.59393-5.76041 0.94922-8.9082 0.94922-24.58845 0-44.66406-20.07366-44.66406-44.66211 0-24.46966 19.60029-44.3077 43.95117-44.66406zm16.63086 19.77735v18.23242h4.03711c28.50834 0 51.61328 23.10494 51.61328 51.61328 0 11.81908-3.98007 22.62754-10.69141 31.29883-0.89088 1.66299-1.60351 3.38611-1.60351 5.46484 0 5.70167 4.63196 10.33399 10.21484 10.33399h26.72656c42.22798 0 76.43946 34.20952 76.43946 76.4375v39.4375h18.23242v-39.4375c0-52.2059-42.3472-94.67188-94.67188-94.67188l-12.76953 0.11914c4.03868-8.79007 6.35547-18.64815 6.35547-28.98242 0-38.54566-31.35944-69.8457-69.8457-69.8457zm-255.56641 254.13867v63.90625h361.10547v-63.90625zm378.15234 0.23828v63.66797h18.23243v-63.66797zm34.08985 0v63.66797h18.23437v-63.66797z"/>
</svg>
