<?xml version="1.0" encoding="UTF-8" standalone="no"?>
<svg xmlns="http://www.w3.org/2000/svg" version="1.0" viewBox="0 0 512.22406 356.77762">
<path d="m91.308245 0.00223082a4.570048 4.570048 0 0 0 -4.40235 2.91211l-8.41992 21.67188c-24.228079 13.44997-49.353329 42.65369-56.421874 51.4707-4.860929 6.06332-3.933836 14.23975-0.49414 20.41992 3.43856 6.178139 10.191938 11.315699 18.226562 10.058589 11.610314-1.78894 22.008592-9.235819 31.531252-14.195309 4.76216-2.48018 9.23735-4.34251 13.09375-4.92187 3.8564-0.57937 6.9623-0.11624 10.3457 2.22461 7.675005 5.31002 18.238145 17.536579 26.660165 33.658199 8.22419 15.74294 14.52832 35.22259 15.35351 55.86719-23.78302 31.04256-45.307395 74.82825-69.982425 101.44531-14.957286-7.60758-29.416956-16.05538-43.298827-25.31055a15.001501 15.001501 0 0 0 -8.464844 -2.63867 15.001501 15.001501 0 0 0 -8.1777336 27.59961c72.490535 48.33008 159.6562 76.51367 253.25586 76.51367 90.06843 0 174.18406-26.09556 244.99024-71.1289a15.001501 15.001501 0 1 0 -16.0996 -25.31446c-10.78823 6.86141-21.90877 13.2423-33.32227 19.13281a4.570048 4.570048 0 0 0 -0.99804 -3.5332c-22.08673-26.75737-36.51806-75.45827-50.47267-109.20898a4.570048 4.570048 0 0 0 -1.34375 -1.80274c-19.84794-16.10191-34.18059-34.51577-39.81055-56.74414 34.39334-5.20744 56.23881 12.62089 70.2461 32.08008a4.570048 4.570048 0 0 0 7.36523 0.0723l12.35352-16.47852a4.570048 4.570048 0 0 0 -0.11719 -5.63281c-9.69267-11.86639-20.81654-23.281399-37.07227-29.773439-15.79722-6.30893-36.16996-7.73153-63.91601-1.41602-15.59911-14.60975-39.62908-23.13201-81.89454-16.65039a4.570048 4.570048 0 0 0 -0.30469 0.0566l-91.23241 20.41993c-23.11895-36.47476-51.663-50.1482-77.93165-67.07226l-4.947275-20.29687a4.570048 4.570048 0 0 0 -4.29687 -3.4843802zm198.18554 156.70117l8.39258 2.7168c18.4424 20.40448 41.96024 27.12515 66.17188 34.00781 27.29305 17.9737 48.7352 63.26699 64.12109 99.00586-51.56572 22.09908-108.34907 34.34375-168.06641 34.34375-56.90493 0-111.1474-11.11731-160.74804-31.28516 31.612315-41.90473 52.770735-76.96152 76.521485-102.44726 40.03208-0.90548 83.63631-10.03795 113.60742-36.3418z"/>
</svg>
