<?xml version="1.0" encoding="UTF-8" standalone="no"?>
<svg xmlns="http://www.w3.org/2000/svg" version="1.0" viewBox="0 0 509.09055 503.50992">
<path opacity=".75" d="m316.46289 0.32365875c-10.69432 0.259341-17.37321 11.177729-15.5 21.25v57.843754c12.53176-0.0607 25.06286-0.18754 37.59375-0.34375 0.18456-14.69623-0.47858-29.500577 0.34375-44.093754 1.24295-5.663269 9.19277-5.968442 12.02382-1.212612 34.26775 27.344042 68.26697 55.130416 102.44148 82.473493 4.99676 2.5586 11.19203 9.008 6.6597 14.77037-35.69604 28.94161-71.4973 57.8111-107.17586 86.73836-3.4913 4.25554-10.49687 8.46131-15.19914 3.38664-1.97517-15.82567-0.63598-31.79738-0.90625-47.6875h-35.78125c0.12562 109.87212-0.25083 199.76715 0.1875 309.625 1.26242 9.86773 11.7419 15.45616 21.125 13.78125 57.79653-0.19144 115.63632 0.38031 173.40625-0.28125 9.54593-1.66542 14.71275-11.86646 13.125-21.03125-0.0625-153.55103 0.12507-307.11046-0.0937-460.65625-0.75569-10.262022-11.49632-16.320828-21.21875-14.59375-57.01019 0.02092-114.02215-0.04179-171.03125 0.03125z"/>
<path d="m113.22656 12.018971c-62.772429 1.592124-113.22656 53.041462-113.22656 116.19531 0 64.15632 52.085884 116.24416 116.24219 116.24415 64.15631 0 116.24218-52.08781 116.24218-116.24415 0-64.156307-52.08586-116.19533-116.24218-116.19531-1.00246 0-2.01924-0.02531-3.01563 0zm1.23438 30.167969c11.79328 0.000131 21.12853 1.336908 28.01953 3.976563 6.89079 2.639932 12.69548 7.029478 17.46094 13.166015 4.76523 6.136795 8.04527 13.551985 9.82812 22.259765l-39.26562 6.17188c-1.98852-7.33644-4.28433-12.18209-6.85547-14.58203-2.57131-2.39971-5.48625-3.6112-8.77735-3.61133-3.97691 0.00014-7.22114 1.28133-9.68945 3.88672-2.46846 2.60562-3.7032 6.30791-3.70312 11.10742-0.00008 2.53704 0.25045 4.99394 0.73046 7.35938 0.4799 2.36561 2.12623 7.95409 4.9375 16.730457h31.17383v24.5918h-27.5625c-0.3429 5.82817-1.41657 11.06217-3.19922 15.72461-1.43996 3.5655-3.81806 7.26776-7.17773 11.10742 3.83963-0.89132 7.13033-1.32614 9.87305-1.32617 3.49679 0.00002 8.04546 0.68534 13.66796 2.05664 7.67932 1.78274 13.82785 2.6524 18.42188 2.65235 3.77103 0.00006 7.00421-0.30953 9.78125-0.96094 2.77681-0.65132 6.44521-2.01132 10.9707-4.06836l13.98828 30.62695c-6.78818 3.42829-12.73071 5.82809-17.87304 7.13086-5.14259 1.30273-10.69718 1.91991-16.59375 1.91992-6.44533-0.00003-13.78172-1.12012-22.07813-3.38281-10.9021-3.01688-17.68949-4.77591-20.29492-5.25586-2.60558-0.47998-5.3933-0.68555-8.41016-0.68555-8.84507-0.00002-18.60451 3.0847-29.300778 9.32422l-13.30273-29.20898c14.398864-10.35346 21.621062-20.68357 21.621092-31.03711-0.00003-0.54846-0.0914-2.08019-0.22851-4.61719h-21.392582v-24.5918h15.359375c-2.605543-9.050617-4.090785-14.284607-4.433594-15.724597-0.411412-2.19403-0.640654-4.91401-0.640625-8.13672-0.000029-8.57064 2.297739-16.26152 6.857422-23.083994 4.559604-6.822158 10.570292-11.771803 18.009762-14.857419 7.43938-3.085338 17.4619-4.661964 30.07813-4.66211zm243.95508 18.357419a5.0005 5.0005 0 0 0 -4.89063 4.998054v28.46289c-0.58505 0.0472-1.05093 0.12059-2.02734 0.0723-2.76264-0.13682-6.24883-0.82872-10.17383-0.12891l-88.78711 0.90625a5.0005 5.0005 0 0 0 -4.94922 5v53.593747a5.0005 5.0005 0 0 0 5 5h99.09375v30.46875a5.0005 5.0005 0 0 0 8.14648 3.88477l77.28125-62.59375a5.0005 5.0005 0 0 0 -0.01 -7.77735l-75.4375-60.781251a5.0005 5.0005 0 0 0 -3.24609 -1.10547zm-204.19532 284.46875a5.0005 5.0005 0 0 0 -2.99414 1.10743l-3.25 2.625c-29.23217 23.57724-58.47692 47.1423-87.714842 70.71679a5.0005 5.0005 0 0 0 -0.0078 7.77735c30.935522 25.05146 61.858502 50.12253 92.814452 75.1582a5.0005 5.0005 0 0 0 8.14452 -3.88672v-37.03125h99.09375a5.0005 5.0005 0 0 0 5 -5v-65.5a5.0005 5.0005 0 0 0 -4.94336 -5c-33.66737-0.38714-67.33146-0.71502-100.99414-1.04297v-34.92578a5.0005 5.0005 0 0 0 -5.14844 -4.99805z"/>
</svg>
