<?xml version="1.0" encoding="UTF-8" standalone="no"?>
<svg xmlns="http://www.w3.org/2000/svg" version="1.0" viewBox="0 0 380.92749 535.74506">
<path d="m85.614988 0.00479399c-1.06467-0.01155-2.12909-0.0024-3.19531 0.0293-50.16269-0.233098-91.362089 50.91444-80.73633 99.925781 7.05623 40.703055 45.88744 73.746245 88.0918 69.667965 27.507332-1.72562 52.854962-17.68962 67.093752-40.94922 3.81834-2.65376 8.98735-2.39974 16.11328-1.75781 7.42143 0.66856 17.03372 1.57154 24.85742-5.15625a5.7884259 5.7884259 0 0 0 0.38867 -0.36719c7.98167-8.25909 13.94087-17.07832 21.62696-20.65039 2.24113 1.03631 4.33103 2.69509 6.70117 5.26563 2.88883 3.13309 6.0089 7.20986 10.91211 10.19531a5.7884259 5.7884259 0 0 0 6.13086 -0.0703c5.06643-3.24596 8.11887-7.70351 11.03906-10.75391 2.33954-2.44386 4.08098-3.80318 6.19726-4.25781 5.00568 3.67461 9.45881 10.3105 17.12696 15.42187a5.7884259 5.7884259 0 0 0 6.33008 0.0606c5.20881-3.33275 8.39995-7.94821 11.47656-11.1582 2.51284-2.6218 4.43583-4.09154 6.74414-4.56641 2.16785 1.53903 4.3375 3.68224 6.83203 6.34961 2.96994 3.17572 6.44773 6.89657 11.64844 9.13086a5.7884259 5.7884259 0 0 0 6.16211 -1.02149c10.73666-9.68361 21.97405-19.897185 31.33203-31.925775a5.7884259 5.7884259 0 0 0 1.21875 -3.58203c-0.0293-5.859454-3.81809-9.764599-6.78321-12.435547-2.9651-2.670947-5.64891-4.853464-6.50195-6.152343a5.7884259 5.7884259 0 0 0 -1.00781 -1.16211c-2.91635-2.573819-6.3151-7.171746-10.83984-11.210937-4.41537-3.941562-10.93762-7.407881-18.49414-6.021485-14.66032 1.146113-30.2901-0.406113-46.34376 0.222657-37.14909-0.01502-74.39533 0.828357-111.01757-0.859375-8.09667-7.798913-14.05107-21.146585-28.2168-28.324219-13.19552-8.708468-28.91667-13.713426-44.886722-13.886719zm-36.50391 63.322266c0.45704 0.0095 0.91886 0.03755 1.38282 0.08398a5.7884259 5.7884259 0 0 0 0.7207 0.02734c17.072-0.425093 27.94278 25.378465 15.54688 37.15234a5.7884259 5.7884259 0 0 0 -0.29688 0.30274c-10.10865 11.12463-33.22939 7.48952-37.46484-7.384765a5.7884259 5.7884259 0 0 0 -0.10938 -0.3418c-4.60289-13.04125 6.05248-30.135213 20.2207-29.839843zm191.04493 84.30469c-2.75725 1.97898-5.35906 4.19555-7.88282 6.53125l9.13477 18.99804-14.57812 7.02539-6.85938-14.2832c-2.47466 2.23205-4.99726 4.32586-7.68555 6.13477l28.79493 59.86523-135.62696 65.27344-36.183592-75.20117c-0.62602 0.25349-1.23341 0.52921-1.84766 0.82421-6.09257 2.9772-11.61166 7.9695-16.98633 13.29297l11.77539-5.67382 11.34571 23.51757-14.57813 7.02539-10.85156-22.56054c-1.93401 1.94534-3.86273 3.9204-5.80469 5.80469l140.27735 291.53906c2.91676-2.93197 5.85048-5.89912 8.83984-8.64258l-3.5625 1.7168-11.3457-23.51758 14.57812-7.02539 10.19141 21.20703c0.88098-0.52654 1.79934-1.00858 2.70508-1.45117 2.12289-1.01954 4.31563-1.76456 6.56445-2.3418l-30.21289-62.83203 135.62695-65.24024 36.875 76.65235c9.41929-7.58941 17.43173-17.97539 28.06836-24.11133zm15.69922 55.60937 11.3125 23.51758-14.54493 6.99219-11.3125-23.51758zm-8.60938 41.52539 62.57031 130.01953l-135.62695 65.24219-62.57031-130.01953zm34.40234 12.03906 11.3125 23.51758-14.57812 6.99219-11.3125-23.51758zm-193.64453 27.17774 11.3125 23.51758-14.54492 7.02539-11.3457-23.51758zm219.4043 26.38672 11.31445 23.51758-14.54687 7.02539-11.3125-23.55079zm-193.64453 27.21094 11.3457 23.51757-14.57812 6.99219-11.312502-23.51562zm219.4375 26.35351 11.3125 23.51758-14.57813 7.02539-11.3125-23.51758zm-193.64453 27.21289 11.3125 23.51563-14.54492 6.99218-11.34571-23.51562zm219.40429 26.35352 11.31446 23.54882-14.54688 6.99219-11.3125-23.51562zm-193.61132 27.21093 11.3125 23.51563-14.57813 7.02539-11.3125-23.54883z"/>
<path opacity=".3317308" d="m212.28491 172.038c-1.79267 1.20625-3.65907 2.28913-5.60742 3.20117-15.8092 7.05258-36.24159 3.47124-51.84961 10.0918-15.90255 6.54651-26.48944 22.88156-41.22851 29.25585-13.962282 5.84182-30.525822 1.79889-44.330082 7.38868l36.183592 75.20117 135.62696-65.27344zm34.95703 72.70703-135.63086 65.25976 62.56446 130.02539 135.63086-65.25976zm68.74219 142.87304-135.62695 65.24024 30.21289 62.79883c12.7483-3.2698 27.17439-0.64734 39.58008-5.83789 14.73907-6.3743 25.35917-22.70932 41.26172-29.25586 15.60801-6.62055 36.04042-3.03922 51.84961-10.0918 3.44344-1.61189 6.58241-3.7717 9.59765-6.20117z"/>
</svg>
