<?xml version="1.0" encoding="UTF-8" standalone="no"?>
<svg xmlns:rdf="http://www.w3.org/1999/02/22-rdf-syntax-ns#" xmlns="http://www.w3.org/2000/svg" height="473.46609" width="522.36658" version="1.0" xmlns:cc="http://creativecommons.org/ns#" xmlns:dc="http://purl.org/dc/elements/1.1/" viewBox="0 0 522.36658 473.4661">
<path d="m260.78875 0.00301311a5.4151628 5.4151628 0 0 0 -5.19922 5.185547l-2.05078 54.253913c-28.90909 3.25004-55.7159 11.07288-78.80273 26.54687l0.0293-0.0215c-26.02348 16.947047-51.08305 26.187137-75.011707 26.328117a2.7075814 2.7075814 0 0 0 -0.19532 0.008c-9.83831 0.7734-23.88398-2.64486-37.029294-8.07618-13.145314-5.431307-25.500042-12.885907-32.234375-19.453117a2.7075814 2.7075814 0 0 0 -4.078125 3.5332c12.422173 17.037277 28.857982 35.127917 60.314454 41.972657l-79.830079 192.08789h-1.287109a5.4151628 5.4151628 0 0 0 -5.353516 6.2207c5.492705 36.45028 44.889174 63.23828 91.425784 63.23828 46.536617 0 85.933077-26.788 91.425777-63.23828a5.4151628 5.4151628 0 0 0 -5.35547 -6.2207h-1.22852l-77.822257-190.13281c0.33005 0.0372 0.64949 0.0822 0.98242 0.11718a2.7075814 2.7075814 0 0 0 0.32617 0.0137c38.437197-0.62048 57.812267-12.12584 77.570317-22.55469 25.6242-9.51298 46.77047-26.114537 75.2207-25.671877l-13.38867 354.2793h-106.94532a5.4151628 5.4151628 0 0 0 -5.41406 5.41601v24.21485a5.4151628 5.4151628 0 0 0 5.41406 5.41601h126.54688 4.73047 126.54883a5.4151628 5.4151628 0 0 0 5.41406 -5.41601v-24.21485a5.4151628 5.4151628 0 0 0 -5.41406 -5.41601h-106.94727l-13.38867-354.28125c28.4487-0.44355 49.59326 16.158157 75.21484 25.671867 19.75988 10.42961 39.13748 21.9361 77.57813 22.55665a2.7075814 2.7075814 0 0 0 0.32617 -0.0137c0.33291-0.035 0.65239-0.08 0.98242-0.11718l-77.82227 190.13281h-1.23046a5.4151628 5.4151628 0 0 0 -5.35352 6.2207c5.4927 36.45028 44.88916 63.23828 91.42578 63.23828 46.53661 0 85.93113-26.788 91.42383-63.23828a5.4151628 5.4151628 0 0 0 -5.35352 -6.2207h-1.28515l-79.83203-192.08789c31.45733-6.84443 47.89204-24.93504 60.31445-41.972657a2.7075814 2.7075814 0 0 0 -4.07812 -3.5332c-6.73434 6.56721-19.08711 14.02181-32.23243 19.453117-13.14531 5.43132-27.19098 8.84958-37.02929 8.07618a2.7075814 2.7075814 0 0 0 -0.19727 -0.008c-23.92866-0.14098-48.98824-9.38107-75.01172-26.328117-23.07915-15.45948-49.87605-23.2767-78.77148-26.52539l-2.05078-54.253913a5.4151628 5.4151628 0 0 0 -5.25391 -5.185547 5.4151628 5.4151628 0 0 0 -0.24609 0.0059 5.4151628 5.4151628 0 0 0 -0.49024 -0.0059zm-168.70508 145.13282l72.541017 177.23242h-146.19727l73.65625-177.23242zm338.19922 0 73.65821 177.23242h-146.19922l72.54101-177.23242z"/>
</svg>
