<?xml version="1.0" encoding="UTF-8" standalone="no"?>
<svg xmlns:rdf="http://www.w3.org/1999/02/22-rdf-syntax-ns#" xmlns="http://www.w3.org/2000/svg" version="1.0" xmlns:cc="http://creativecommons.org/ns#" xmlns:dc="http://purl.org/dc/elements/1.1/" viewBox="0 0 338.31653 553.83203">
<path d="m152.01603 0c-37.22584 151.15831 30.73892 149.83168 68.4375 238.67188 26.44259-136.98829-52.66255-106.16734-68.4375-238.67188zm-37.38282 99.494148c-23.427913 85.826872 9.16437 126.97941 6.90235 189.78711-32.804893-58.07819-65.333163-109.50046-96.619143-131.125 25.79108 51.97809-7.86136 114.40046-19.41016 164.98046-16.4627 72.10121 5.8324 120.34358 42.41406 140.97657-0.55356-35.13325 10.9929-66.18415 17.83008-73.61328 9.01264 63.48876 19.33359 102.39652 69.587893 140.32617 5.06853-79.96596 30.20227-59.26818 39.10742-158.73047 36.67983 60.57819 29.55919 121.15815 11.50196 181.73633 32.30895-28.8767 68.07701-52.68648 112.7207-181.73633l-9.20117 96.61914c28.43334-69.53434 109.56125-138.59069-32.78125-332.98828 14.13527 112.75294-14.83117 127.69838-28.75586 173.10742-32.73708-96.57998-97.22139-103.16106-113.29688-209.33984z"/>
</svg>
