<?xml version="1.0" encoding="UTF-8" standalone="no"?>
<svg xmlns:rdf="http://www.w3.org/1999/02/22-rdf-syntax-ns#" xmlns="http://www.w3.org/2000/svg" version="1.0" xmlns:cc="http://creativecommons.org/ns#" xmlns:dc="http://purl.org/dc/elements/1.1/" viewBox="0 0 499.59967 499.85895">
<path d="m207.82231 0.00161853c-2.97212-0.04747-6.13218 0.953521-8.36914 2.439453-7.15836 4.786917-12.0076 11.706132-15.6289 22.177734-2.91704 8.434769-9.43893 30.553782-14.75 57.937506-5.31104 27.383718-5.35043 43.060678-7.13477 66.832028 2.76447-23.91329 7.82199-39.0662 14.09375-65.236328 7.02547-25.47464 17.84778-45.870994 22.54102-53.599612 3.28181-5.404355 5.36833-9.229783 7.00586-9.261719 2.7039 0 5.61511 8.265152 8.18554 18.048828-3.03795 12.653235-6.75193 30.907433-8.02929 42.375003-1.76249 15.82273-3.55832 60.384768-3.3379 60.384768 0 0 7.45356-49.252118 9.26758-60.199218 1.07101-6.46325 3.32746-16.6675 5.88086-26.404303 0.17662 0.819549 0.3685 1.685604 0.53516 2.46875 7.35481 34.563563 14.08511 91.166031 19.41992 176.625-2.28352-13.94177-4.71799-25.30341-7.17383-34.64258-1.85275-7.04376-3.10079-13.68012-5.26172-18.31445-2.16092-4.63433-5.17004-8.39909-9.47265-11.19531-2.1515-1.38391-4.37224-2.19891-7.36719-2.02149v-0.0293h-0.002v-0.0488c-2.99485 0.35484-5.42223 1.59558-7.36719 3.08594-2.70442 2.04762-4.65794 4.43703-6.33399 7.24804-3.71809-3.80132-7.83564-6.56215-12.61132-8.23047-5.39382-1.8807-11.60002-2.12909-16.83985 0v-0.0254-0.004-0.0137-0.0273c-0.67443 0.27404-1.3324 0.5712-1.97851 0.88672-1.76152-0.75689-3.55384-1.39394-5.38867-1.87305v-0.0117-0.006-0.0117c-5.72903-1.48777-11.70928-1.36824-17.54883 0.0684-0.11517-0.0262-0.22838-0.0606-0.34375-0.0859v0.0176c-13.78758-3.0517-28.46202 1.13581-41.048828 10.17382-12.58681 9.02027-23.7369 23.2169-34.73242 41.71875-21.991008 37.00723-41.896405 101.72607-47.980471 131.08985-6.084065 29.36733-13.106388 63.47909-16.050781 88.80469 5.233941-24.25041 14.925537-60.71916 22.974609-88.67774 8.049038-27.96212 32.517302-91.33737 53.558593-123.06445 10.51356-15.84913 21.69496-28.21015 31.132808-35.42383-5.6308 7.59462-10.984918 16.71337-16.269528 27.27148-18.4822 36.92916-31.279261 85.85705-38.48242 128.95704-7.203159 43.09645-10.705078 92.875-10.705078 92.875s8.868494-48.37001 17.111328-91.25c8.24283-42.87644 24.89997-88.90429 42.185548-123.44532 8.64278-17.27052 22.8956-28.77179 30.9375-35.61328 2.94478-2.50651 5.70726-4.346 8.33789-5.59961 1.38452 0.50512 2.82492 1.11384 4.30664 1.8086-5.6198 8.6638-10.75689 19.7895-15.80078 33.28711-13.735 36.75175-25.22092 89.43297-31.978518 133.65429-6.7576 44.22132-7.92383 80.4961-7.92383 80.4961s6.73397-34.49333 16.578128-79.15821c9.84416-44.67553 24.64904-94.15618 37.62304-128.87109 4.85719-12.99779 10.61444-23.32739 15.65821-30.49805 7.22948 5.71612 14.78463 13.54172 21.93945 23.86914-0.10788 0.5289-0.21621 1.02117-0.32422 1.5586-7.30814 36.36141-14.76494 92.02951-19.99804 163.82617l-0.32227 47.99414 10.0293-46.99023c4.66723-64.03104 13.49659-114.94687 20.36328-150.12696 3.22906 6.23629 6.28186 13.10729 9.06836 20.67383 10.90633 29.61321 22.31925 68.36068 31.85156 116.29297 2.78637 19.92541 5.35664 41.47342 7.7207 64.66992-6.82834 0.25092-13.84985 0.77394-21.09765 1.62891l0.13476 0.25195c-71.80692 9.15628-122.4365 45.69516-188.08008 43.58203v14.73828h219.26954 219.27148v-14.73828c-65.64411 2.11323-116.27404-34.42608-188.08198-43.58195l0.13476-0.25195c-7.24761-0.85495-14.26753-1.37798-21.0957-1.62891 2.36406-23.1965 4.93433-44.74451 7.7207-64.66992 9.53232-47.93229 20.94523-86.67976 31.85157-116.29297 2.7865-7.56654 5.83929-14.43754 9.06836-20.67383 6.86668 35.18009 15.69409 86.09596 20.36132 150.12696l10.03125 46.99023-0.32421-47.99414c-5.2331-71.79666-12.68796-127.46476-19.9961-163.82617-0.108-0.53743-0.21634-1.0297-0.32422-1.5586 7.15483-10.32742 14.70997-18.15302 21.93946-23.86914 5.04376 7.17066 10.80102 17.50027 15.6582 30.49805 12.974 34.71491 27.77889 84.19556 37.62305 128.87109 9.84416 44.66488 16.57812 79.15821 16.57812 79.15821s-1.16623-36.27478-7.92383-80.4961-18.24351-96.90254-31.97851-133.65429c-5.04389-13.49761-10.18099-24.62331-15.80078-33.28711 1.48127-0.69453 2.9225-1.30164 4.30664-1.80664 2.62993 1.25358 5.39202 3.09188 8.33593 5.59765 8.0419 6.84149 22.29668 18.34276 30.93946 35.61328 17.28558 34.54103 33.94271 80.56888 42.18554 123.44532 8.24283 42.87999 17.11133 91.25 17.11133 91.25s-3.50192-49.77855-10.70508-92.875c-7.20315-43.09999-20.00022-92.02788-38.48242-128.95704-5.28461-10.55811-10.63873-19.67686-16.26953-27.27148 9.43786 7.21368 20.61925 19.5747 31.13281 35.42383 21.04129 31.72708 45.50956 95.10233 53.5586 123.06445 8.04907 27.95858 17.74067 64.42733 22.97461 88.67774-2.94439-25.3256-9.96671-59.43736-16.05078-88.80469-6.08406-29.36378-25.98947-94.08262-47.98047-131.08985-10.99552-18.50185-22.14561-32.69848-34.73243-41.71875-12.58681-9.03801-27.26124-13.22552-41.04882-10.17382v-0.0176c-0.11537 0.0253-0.22858 0.0597-0.34375 0.0859-5.83956-1.4366-11.8198-1.55613-17.54883-0.0684v0.0117 0.006 0.0117c-1.83447 0.47901-3.62749 1.11636-5.38867 1.87305-0.64611-0.31552-1.30409-0.61268-1.97852-0.88672v0.0273 0.0137 0.004 0.0254c-5.23983-2.12909-11.44602-1.8807-16.83984 0-4.77569 1.66832-8.89324 4.42915-12.61133 8.23047-1.67604-2.81101-3.62957-5.20042-6.33398-7.24804-1.94497-1.49036-4.37234-2.7311-7.36719-3.08594v0.0488h-0.002v0.0293c-2.99495-0.17742-5.21568 0.63758-7.36718 2.02149-4.30261 2.79622-7.31174 6.56098-9.47266 11.19531-2.16093 4.63433-3.40897 11.27069-5.26172 18.31445-2.45583 9.33917-4.89031 20.70081-7.17383 34.64258 5.33481-85.45897 12.06316-142.06144 19.41797-176.625 0.1669-0.784275 0.35827-1.651879 0.53516-2.472656 2.55385 9.738039 4.81165 19.944039 5.88281 26.408209 1.81402 10.9471 9.26758 60.199218 9.26758 60.199218 0.22043 0-1.5754-44.562038-3.33789-60.384768-1.27742-11.4681-4.99126-29.72366-8.0293-42.376956 2.57031-9.782829 5.48183-18.046875 8.18555-18.046875 1.63753 0.03194 3.72405 3.857364 7.00586 9.261719 4.69324 7.728618 15.51554 28.124972 22.54101 53.599612 6.27176 26.170128 11.32733 41.323038 14.0918 65.236328-1.78434-23.77135-1.82373-39.44831-7.13477-66.832028-5.31106-27.383724-11.83296-49.502737-14.75-57.937506-3.6213-10.471603-8.46859-17.390818-15.62695-22.177734-3.57914-2.377491-9.52287-3.512586-13.27539-1.09961v-0.0078-0.002c-3.75268 2.412976-5.23069 6.052287-7.14844 9.9804695-0.47995 0.982326-0.95527 2.011085-1.42187 3.089843-1.64712-4.4984115-3.27044-8.2423565-4.61719-9.7363285-2.62291-2.906216-3.16812-4.42454-7.65234-4.431641-4.3937-0.007-13.54456 11.149079-16.23242 44.503907-2.68788-33.35476-11.83678-44.510868-16.23047-44.503915-4.48422 0.0071-5.02944 1.525425-7.65235 4.431641-1.34697 1.494225-2.97173 5.238849-4.61914 9.7382815-0.46683-1.07934-0.93972-2.108984-1.41992-3.091796-1.91775-3.9281825-3.39576-7.5674935-7.14844-9.9804695v0.002 0.0078c-1.40719-0.90486597-3.12297-1.311358-4.90625-1.339843zm26.27735 22.208984c2.71025-0.0071 5.98991 8.284377 8.66015 47.041019 1.17639 17.07637 1.72436 56.365678 2.13672 112.65039-4.3094-62.48675-9.33186-107.20712-14.80664-136.21485-1.13716-6.025146-2.3411-11.316363-3.60742-16.007813 2.81268-4.925324 5.72033-7.463783 7.61719-7.46875zm31.39843 0c1.89686 0.005 4.80647 2.543426 7.61915 7.46875-1.26633 4.69145-2.47026 9.982667-3.60743 16.007813-5.4757 29.012626-10.50066 73.742764-14.81054 136.24609 0.41238-56.30192 0.96207-95.602088 2.13867-112.68164 2.67024-38.756634 5.9499-47.048111 8.66015-47.041011zm-57.27148 165.49415c0.38834 0.60324 0.62473 0.00023 1.05078 1.02929 1.52201 3.26462 5.4942 8.85769 8.37891 14.94336 5.81644 12.27069 10.11292 31.34599 13.21875 56.28125 1.92655 15.46632 3.95041 33.29944 5.92578 53.52149-3.35771-20.89569-6.94385-39.38092-10.68359-55.5293-5.90738-25.50657-11.90881-45.64798-18.94532-60.03711-0.68036-1.39129-1.36614-2.71964-2.05664-4.01562 0.7727-1.54013 1.4931-2.97096 2.0586-4.16993 0.6123-1.27746 0.52564-1.24276 1.05273-2.02343zm83.14648 0c0.52709 0.78067 0.44044 0.74597 1.05274 2.02343 0.56549 1.19897 1.28589 2.6298 2.05859 4.16993-0.6905 1.29598-1.37627 2.62433-2.05664 4.01562-7.03651 14.38913-13.03793 34.53054-18.94531 60.03711-3.7378 16.13998-7.32348 34.61381-10.67969 55.49609 1.97432-20.20802 3.99641-38.03063 5.92188-53.48828 3.10583-24.93526 7.40231-44.01056 13.21875-56.28125 2.88471-6.08567 6.85494-11.67874 8.37695-14.94336 0.42605-1.02906 0.66439-0.42605 1.05273-1.02929zm-103.53711 5.51562c0.12624 0.12159 0.25286 0.24001 0.37891 0.36524-0.0123 0.0379-0.0248 0.0733-0.0371 0.11132-0.11319-0.1611-0.22825-0.31679-0.3418-0.47656zm123.92774 0c-0.11354 0.15977-0.22861 0.31546-0.3418 0.47656-0.0123-0.038-0.0248-0.0734-0.0371-0.11132 0.12605-0.12523 0.25268-0.24365 0.37891-0.36524zm-113.65039 16.26953c5.25677 11.15238 11.69646 26.23985 16.50195 44.3418-5.41282-17.15089-10.81496-31.71601-16.75195-43.66602 0.0834-0.22533 0.16609-0.45326 0.25-0.67578zm103.37305 0c0.0839 0.22252 0.1666 0.45045 0.25 0.67578-5.93926 11.95457-11.34292 26.52612-16.75782 43.68555 4.80605-18.11064 11.24915-33.20494 16.50782-44.36133z"/>
</svg>
