<?xml version="1.0" encoding="UTF-8" standalone="no"?>
<svg xmlns:rdf="http://www.w3.org/1999/02/22-rdf-syntax-ns#" xmlns="http://www.w3.org/2000/svg" version="1.0" xmlns:cc="http://creativecommons.org/ns#" xmlns:dc="http://purl.org/dc/elements/1.1/" viewBox="0 0 530.95203 338.54059">
<path d="m132.52314 0.00066797728c-14.90488 0.060300003-28.92612 7.15094-36.412113 19.24219-11.43212 18.41534-4.66661 43.57978 17.099613 55.5586 21.76406 11.97762 48.34468 5.17474 59.75195-13.25 0.002-0.002 0.005-0.004 0.006-0.006s0.003-0.004 0.004-0.006c11.42725-18.41484 4.65469-43.57902-17.10937-55.55664h-0.002c-7.48138-4.11731-15.53058-6.01402-23.33789-5.98243zm331.07812 67.20704c-24.84002 0.0619-42.85151 18.88762-41.6582 40.529292 0.00012 0.002-0.00003 0.006 0 0.008 0.00016 0.002-0.00007 0.006 0 0.008 1.17104 21.64076 21.23029 40.36661 46.07031 40.30469 24.84249-0.0619 42.84775-18.89267 41.65039-40.53711-1.17099-21.640752-21.22253-40.374452-46.0625-40.312502zm-364.91797 2.66406c-2.85463-0.16877-5.99067 1.05071-9.40234 3.0918-3.89904 2.33269-8.18919 5.83215-12.73633 10.12109-9.094269 8.57788-19.19464 20.328442-28.64844 32.207032-10.403889 13.07233-19.907242 26.14758-26.455078 35.40039l-0.597656-0.11719a17.263886 17.263886 0 0 0 -3.425781 -0.375 17.263886 17.263886 0 0 0 -3.25586 34.2461l66.503902 13.12109c-7.764686 10.80282-19.309153 26.65214-30.187496 40.56445-2.974629 3.80419-4.317277 7.65262-4.21289 11.10938 0.104282 3.45672 1.716406 6.45544 4.25 8.27734 5.067209 3.6438 13.445914 2.77456 21.453125-4.87109 17.880341-17.07292 34.656054-36.16405 44.650394-47.98633l141.5332 27.92383-46.58008 97.83594h107.79102l-45.0625-94.64844 128.59961 25.37305c3.12815 15.23234 8.62529 39.58607 15.99609 62.74609 3.35807 10.55152 10.29281 15.33497 16.48633 14.57031 3.09675-0.38234 5.94973-2.2399 7.69922-5.22265 1.7496-2.98273 2.41604-7.00209 1.63086-11.76758-3.11781-18.92384-5.88351-40.5932-7.46094-53.54883l72.83985 14.37109a17.263886 17.263886 0 1 0 6.68164 -33.87109l-6.04493-1.19336c-1.23974-9.60963-2.85042-20.87998-4.83203-32.29492-2.59695-14.95972-5.81892-30.11659-9.68359-42.00781-1.93235-5.94561-4.02025-11.07402-6.32227-14.99219-2.30204-3.91816-4.80227-6.72286-7.90039-7.66602-3.23165-0.98383-6.90096 0.0874-10.73828 2.32422-3.83732 2.23689-7.95506 5.7006-12.26367 10-8.61719 8.59877-17.98172 20.55445-26.6875 32.70117-8.24416 11.50269-15.82605 23.09433-21.58984 32.20118l-285.38086-56.30469c-0.69205-10.64392-1.76692-24.0929-3.44141-37.80274-1.81205-14.83592-4.29439-29.82141-7.73047-41.501952-1.71805-5.84029-3.66907-10.85761-5.96289-14.66211-2.29383-3.80447-4.99747-6.50339-8.304693-7.1914-0.39632-0.0825-0.79922-0.13605-1.20703-0.16016z"/>
</svg>
