<?xml version="1.0" encoding="UTF-8" standalone="no"?>
<svg xmlns:rdf="http://www.w3.org/1999/02/22-rdf-syntax-ns#" xmlns="http://www.w3.org/2000/svg" height="508.76562" width="550.90814" version="1.0" xmlns:cc="http://creativecommons.org/ns#" xmlns:dc="http://purl.org/dc/elements/1.1/" viewBox="0 0 550.90815 508.76563">
<path d="m237.7003 0.01355803c-6.5104-0.215849-12.5621 2.147171-16.1328 6.976562l-2.0899 2.828126c-0.8354-0.01044-1.6789 0.01673-2.5293 0.08984l-42.5214 3.65625c-0.1 0.0086-0.1977 0.02156-0.2969 0.03125l-2.6113-2.015625c-8.4514-6.525495-22.0469-3.204008-29.9043 7.304688l-26.8243 35.873047c-7.8573 10.508726-7.3616 24.710876 1.0899 31.236336l8.1191 6.26758c0.7373 0.56924 1.5159 1.05931 2.3242 1.48047l12.7188 36.242178c-3.256 4.64862-4.9091 10.79048-4.0898 17.18946l4.957 38.71093c-23.7384 7.63329-57.095902 22.33137-61.123102 45.5-0.1205 0.69339-0.2189 1.36559-0.3242 2.04493-3.5849 6.54156-1.4532 18.50971 0.061 25.39648 0.3047 0.7635 0.671 1.53793 1.084 2.31836 5.5801 16.57958 21.948702 25.65963 51.921802 29.89844l12.9688 2.36328 13.0332 2.15625c16.8109 3.47272 30.0228 3.99726 40.2988 1.30859 6.7315 6.99929 12.6155 15.53542 17.4082 25.51758 20.7209 43.1566 7.0141 88.24792-36.1426 108.96875-13.5059 6.4846-26.3515 1.02602-38.9062 3.74219a36.615356 36.615356 0 0 0 -34.0664 36.52539 36.615356 36.615356 0 0 0 5.8144 19.79883c3.0801 6.96513 9.3724 13.10562 21.7305 15.65039 0.1203 0.0248 0.2375 0.0441 0.3574 0.0684a36.615356 36.615356 0 0 0 5.5508 0.93945c20.7539 2.80569 36.171-3.28938 57.2949-13.43164 71.6655-34.4087 105.3816-125.85404 70.9727-197.51953-10.1404-21.12004-24.2515-38.60366-40.9453-51.88282-4.0984-18.22869-22.7355-36.39553-38.5528-48.98632 1.6933-3.91928 2.4065-8.45741 1.8086-13.12696l-5.4199-42.33398c-1.3136-10.25972-8.5856-18.31555-17.1484-20.01367l-12.9278-36.837928 26.0703-34.865242c1.4856-1.986882 2.6695-4.10527 3.5606-6.279296l33.6914-2.896485c1.524 1.861495 3.3306 3.583612 5.416 5.076172l36.4238 26.070321c1.3245 0.94792 2.7041 1.76368 4.1153 2.45312-3.3711 20.41756-5.4505 48.978528 4.6758 66.218748-3.1177 21.10178-1.4815 43.50941 5.5429 65.85938 23.8361 75.84033 110.9352 119.58036 186.7754 95.74414 22.3455-7.02304 37.7615-13.10496 50.9961-29.31836a36.615356 36.615356 0 0 0 3.4238 -4.48828c0.073-0.10246 0.1478-0.19956 0.2207-0.30274 7.2846-10.2999 7.6841-19.07965 5.1758-26.26953a36.615356 36.615356 0 0 0 -9.2812 -18.43555 36.615356 36.615356 0 0 0 -49.8262 -3.39843c-11.0261 6.59335-16.6762 19.35691-30.9707 23.84961-45.6707 14.35403-86.4878-9.20825-100.8418-54.87891-3.32-10.5632-4.8541-20.81573-4.7207-30.52539 9.3404-5.05742 18.6284-14.46757 28.5312-28.48828l8.0079-10.43164 7.8906-10.63282c18.9962-23.579378 24.7457-41.397858 17.4844-57.320311-0.2307-0.846576-0.4898-1.658713-0.7872-2.419922-3.5993-6.062457-10.2184-16.256942-17.3046-18.585937-0.5417-0.424622-1.0743-0.848944-1.6368-1.273438-18.0852-13.650358-50.6809-2.951046-73.207 7.369141-1.4107-1.622708-3.0336-3.13412-4.8848-4.458984l-36.4242-26.070313c-4.6682-3.341054-10.0105-5.068445-15.0742-5.236328zm123.9434 118.62891l-5.1485 6.9375 10.4649-13.86328-5.3164 6.92578zm-217.1465 174.76367-8.5528-1.41602 17.1114 2.97461-8.5586-1.55859zm96.8047-271.78126c0.1568-0.0087 0.3337 0.0026 0.5058 0.0098l-0.043 0.822265c0.051-0.272187 0.095-0.54546 0.1328-0.820312 7.5565 0.429616 28.8962 15.385937 33.9961 23.378906-3.9122 2.190775-6.2344 3.634766-6.2344 3.634766l-0.4882 0.644531s-0.5144 1.842624-1.2461 4.791016c-8.8512-2.822856-25.876-15.074311-30.9004-22.3125 1.7793-1.98368 3.1653-4.231017 4.0215-6.650391-0.2943-1.18158-0.7123-2.321207-1.2422-3.408203 0.4855-0.02911 0.929-0.05812 1.498-0.08984zm-0.2559 3.498047c0.2135 0.857234 0.3681 1.734669 0.4453 2.632813l0.2735-5.298829c-0.1692 0.906038-0.411 1.79635-0.7188 2.666016zm-85.2891 6.935547c1.8022 3.397144 4.714 6.235931 8.2832 8.232422-2.4121 7.514323-12.3209 21.311768-19.7734 28.113288-3.016-2.08728-6.42-3.37923-9.875-3.68555-1.2487 0.67527-2.4023 1.49336-3.4453 2.44336-0.01-0.21223-0.016-0.36819-0.023-0.59375-0.018-0.51387 0.058-1.11632 0.207-1.78125l0.4942-0.0996c-0.1591 0.0108-0.3177 0.02-0.4766 0.0352 1.7915-7.77475 14.1623-24.802956 22.0859-30.992185 0 0.533532 0.01 1.070357 0.055 1.609375l0.088-1.71875c0.8532-0.656678 1.6539-1.1896 2.3809-1.5625zm-24.1328 32.62891c0.922-0.0624 1.8463-0.0504 2.7676 0.0312 0.7769-0.42016 1.5871-0.78947 2.4375-1.08789l-5.2051 1.05664zm32.6582 78.847648c0.1329 0.11865 0.2292 0.20315 0.3692 0.32813 5.1102 4.56369 8.8051 30.80395 6.08 39.58594-3.6999-2.45357-6.0273-3.84961-6.0273-3.84961l-0.7969-0.13867s-2.4948 0.50186-6.4726 1.4707c-3.3378-9.37582-5.169-26.82581-3.1192-33.87305 1.4968 0.51581 3.0328 0.84914 4.5801 0.98633 2.0827-1.12619 3.8942-2.66479 5.3867-4.50977zm-5.3867 4.50977c-0.7768 0.42004-1.5872 0.78953-2.4375 1.08789l5.2051-1.05664c-0.922 0.0624-1.8463 0.0504-2.7676-0.0312zm2.7676 0.0312c1.5101-0.10216 3.0121-0.39558 4.4785-0.91016l-4.4785 0.91016z"/>
<path opacity=".8" d="m411.5655 24.716683c-13.526 0.02488-27.2595 2.063754-40.8027 6.320313-16.936 5.322897-32.1298 13.689351-45.168 24.267582l27.7344 43.835934c12.2638-9.38739 15.554-16.48428 29.2754-20.79687 49.2808-15.48868 95.4899 11.90868 110.9785 61.189448 12.759 40.59559 1.9806 68.20185-29.7422 85.32422l46.1465 42.51758c39.1986-34.953 50.0507-93.26041 33.3516-146.39258-18.445-58.687138-73.1607-96.373434-131.7735-96.265627zm-283.957 197.82032c-16.7479 1.18326-33.560702 5.45283-49.564502 13.13672-68.2543 32.77094-97.3374 115.33174-64.5664 183.58593 24.1062 50.20738 71.8672 85.37049 124.3711 84.11328l4.6465-62.57421c-34.8629 9.17005-61.593402-3.6254-80.011702-41.98633-22.3588-46.56797-7.3337-98.14517 39.234402-120.50391 12.966-6.22536 20.2171-3.29065 35.5859-4.81445l-9.6953-50.95703z"/>
</svg>
