<?xml version="1.0" encoding="UTF-8" standalone="no"?>
<svg xmlns:rdf="http://www.w3.org/1999/02/22-rdf-syntax-ns#" xmlns="http://www.w3.org/2000/svg" version="1.0" xmlns:cc="http://creativecommons.org/ns#" xmlns:dc="http://purl.org/dc/elements/1.1/" viewBox="0 0 384.84442 292.25745">
<path d="m27.006361 46.30083 99.827899 100.31358-99.827899 99.82789v-200.14147zm310.56587-18.8088-122.9636 122.49265c-6.11287 6.11275-13.82967 9.16905-23.15042 9.16892-9.645 0.00013-17.68558-3.21806-24.12175-9.65461l-122.00696-122.00696h292.24273zm19.29447 218.95027-99.8279-99.82789 99.8279-100.31358v200.14147zm-312.02288 18.80879 100.31356-99.8279 4.34164 4.34163c11.57744 11.25399 25.56382 16.88093 41.95919 16.88082 16.39489 0.00011 30.21939-5.62683 41.47355-16.88082l4.34161-4.34163 100.29886 99.8279h-292.72841zm-44.84382 27.00637h384.84441v-292.25746h-384.84441v292.25746z"/>
</svg>
