<?xml version="1.0" encoding="UTF-8" standalone="no"?>
<svg xmlns:rdf="http://www.w3.org/1999/02/22-rdf-syntax-ns#" xmlns="http://www.w3.org/2000/svg" version="1.0" xmlns:cc="http://creativecommons.org/ns#" xmlns:dc="http://purl.org/dc/elements/1.1/" viewBox="0 0 487.89749 536.36133">
<defs>
<style type="text/css">.fil0 {fill:#EF7900}</style>
</defs>
<path opacity=".5" d="m252.83998 54.503982c-19.79616 0.000727-37.05967 7.182962-51.72338 21.476212-14.6624 14.294668-21.98083 31.644566-21.98154 52.156516 0.0007 20.53563 7.31915 38.00753 21.98154 52.3009 14.66371 14.29453 31.92721 21.4046 51.72338 21.40402 0.72994 0.00001 1.44361-0.018 2.16567-0.036 0.73024 0.0185 1.46347 0.0362 2.20176 0.036 19.79619 0.00058 36.98748-7.10948 51.6512-21.40402 14.66239-14.29337 21.98084-31.76527 21.98153-52.3009-0.00067-20.51195-7.31915-37.861848-21.98153-52.156516-14.66371-14.29325-31.85502-21.475485-51.6512-21.476212-0.73807 0.000023-1.47174 0.05371-2.20176 0.07219-0.72183-0.01813-1.43595-0.07219-2.16567-0.07219zm-56.09081 151.83283c-4.45467 0.00011-8.51137 0.47706-12.12775 1.44378-2.37911-0.21714-4.77029-0.30966-7.1828-0.25266-34.65633 0.81926-62.12018 29.5913-61.32451 64.24816l1.2994 146.43529c-0.13076 22.65423 11.95441 43.61438 31.61876 54.8636 4.0214 2.30048 8.2395 4.1079 12.56088 5.45026v19.16617 5.55855l93.4125-2.74318 93.44859 2.74318v-5.55855-21.98154c2.09772-0.95364 4.12894-2.01656 6.13607-3.2124 19.46217-11.59545 31.17587-32.75665 30.6442-55.40502l-1.2633-146.47138c0.0892-16.96942-6.6962-33.26554-18.80522-45.15419-10.9087-10.71016-25.31175-17.01162-40.46191-17.86677-3.43587-0.8474-7.23516-1.2632-11.40585-1.2633h-116.54906z"/>
<path d="m6.8208092 0a6.5280962 6.5280962 0 0 0 -6.457031 7.480469c0.190095 1.289926-0.03827 4.527907-0.208984 8.021484-0.124967 2.557318-0.46776 5.476282 0.607422 8.609375a6.6230549 6.6230549 0 0 0 -0.378907 2.197266v485.16016a6.5280962 6.5280962 0 0 0 -0.01953 2.01172c0.01286 0.0873 0.01035 0.24897 0.01953 0.35352v3.0664c-0.05605 1.3638-0.147328 2.9401-0.228515 4.60157-0.170718 3.49356-0.760024 7.6602 2.435547 12.1289a6.5280962 6.5280962 0 0 0 5.310546 2.73047h473.17578a6.5280962 6.5280962 0 0 0 6.45899 -7.47852c-0.1901-1.28993 0.0363-4.5279 0.20703-8.02148 0.11157-2.28323 0.39565-4.85612-0.30859-7.61133v-487.9668a6.5280962 6.5280962 0 0 0 0.10156 -2.400391c-0.1901-1.289937 0.0363-4.527907 0.20703-8.021484 0.17072-3.493577 0.76004-7.66216-2.43555-12.130859a6.5280962 6.5280962 0 0 0 -5.31054 -2.730465h-473.17579zm23.923828 30.361328h121.65039v337.53125a6.6230549 6.6230549 0 0 0 5.67969 6.55469c2.4531 0.35282 4.73304 1.83573 6.7793 4.43164s3.60541 6.21295 4.22265 9.44336a6.6230549 6.6230549 0 0 0 0.041 0.20508c0.16414 0.733 0.30249 1.58434 0.42773 2.53906a6.6230549 6.6230549 0 0 0 2.33789 4.21679 6.6230549 6.6230549 0 0 0 -2.33593 4.20704c-1.0785 8.12994-4.77912 14.47258-11.55469 16.33593a6.6230549 6.6230549 0 0 0 -5.59766 6.53516v83.63867h-121.65039v-475.63867zm151.99024 0h142.34765v360.4375a6.6230549 6.6230549 0 0 0 1.49805 4.17383 6.6230549 6.6230549 0 0 0 -1.49805 4.16992v106.85742h-142.34765v-105.63867a6.6230549 6.6230549 0 0 0 -2.39453 -5.08008 6.6230549 6.6230549 0 0 0 2.39453 -5.07617v-359.84375zm172.6875 0h101.65039v475.63867h-101.65039v-83.66992a6.6230549 6.6230549 0 0 0 -5.58985 -6.54102c-2.80502-0.44276-5.48615-2.39987-7.69531-5.6875-2.20916-3.28762-3.6313-7.73932-3.81836-11.30664a6.6230549 6.6230549 0 0 0 -1.49219 -3.81836 6.6230549 6.6230549 0 0 0 1.46094 -3.4414c0.47396-4.23336 1.87988-8.4235 3.94141-11.45703 2.06152-3.03354 4.51184-4.91726 7.94336-5.64453a6.6230549 6.6230549 0 0 0 5.25 -6.47852v-337.59375z"/>
</svg>
