<?xml version="1.0" encoding="UTF-8" standalone="no"?>
<svg xmlns:rdf="http://www.w3.org/1999/02/22-rdf-syntax-ns#" xmlns="http://www.w3.org/2000/svg" height="549.29803" width="513.56476" version="1.0" xmlns:cc="http://creativecommons.org/ns#" xmlns:dc="http://purl.org/dc/elements/1.1/" viewBox="0 0 513.56476 549.29804">
<path opacity=".2" d="m255.06827 14.989451-188.90956 143.82778h37.781657v230.73083h113.346 78.15473 110.75508v-230.73083h37.78192l-188.90983-143.82778z"/>
<path d="m254.69927 0.00898319a7.4953927 7.4953927 0 0 0 -4.17187 1.523438l-188.90821 143.82618a7.4953927 7.4953927 0 0 0 4.539062 13.45898h30.287118v123.03125c-4.34969-1.4931-8.96361-2.24982-13.85352-2.25-0.43205 0.00002-0.87345 0.0244-1.30078 0.0352-0.42254-0.0106-0.84043-0.0352-1.26758-0.0352-11.58818 0.00043-21.681863 4.19951-30.265628 12.56641-8.582985 8.36772-12.87459 18.53386-12.875 30.54101 0.000406 12.02103 4.292016 22.24241 12.875 30.60938 8.583764 8.36766 18.677448 12.53159 30.265628 12.53125 0.42727 0.00001 0.84491-0.0247 1.26758-0.0352 0.42747 0.0109 0.86861 0.0353 1.30078 0.0352 4.88986 0.00014 9.50387-0.75054 13.85352-2.23633v11.89063h-49.255868c-2.606083 0.00006-4.9524 0.30002-7.068359 0.86523a36.760687 36.760687 0 0 0 -4.244141 -0.16797 36.760687 36.760687 0 0 0 -35.867187 37.59961l0.765625 85.72852a36.760687 36.760687 0 0 0 25.83594 35.26953v11.24805 3.2539l54.679693-1.60937 54.712887 1.60937v-3.2539-12.84571a36.760687 36.760687 0 0 0 21.55078 -34.33008l-0.76562-85.72851a36.760687 36.760687 0 0 0 -3.68164 -16.09766h64.17968 6.48828v28.64453h-34.31836a4.634107 4.634107 0 0 0 -3.60351 7.54883c23.20127 28.68778 46.43644 57.34483 69.65234 86.01367a4.634107 4.634107 0 0 0 7.20703 -0.008c21.84742-27.09593 43.68519-54.19847 65.53516-81.28906l2.43164-3.01172a4.634107 4.634107 0 0 0 -3.60352 -7.54492h-32.36718c-0.0986-10.11734-0.19811-20.23551-0.29883-30.35352h1.03125 64.17969a36.760687 36.760687 0 0 0 -3.61133 16.75586l0.76562 85.72852a36.760687 36.760687 0 0 0 25.83594 35.26953v11.24805 3.2539l54.67969-1.60937 54.71289 1.60937v-3.2539-12.84571a36.760687 36.760687 0 0 0 21.55078 -34.33008l-0.76562-85.72851a36.760687 36.760687 0 0 0 -34.60938 -36.86328c-2.03289-0.50977-4.27702-0.77533-6.75195-0.77539h-57.73633v-15.92383c6.69416 4.17803 14.1379 6.26977 22.33203 6.26953 0.42727 0.00001 0.84491-0.0247 1.26758-0.0352 0.42747 0.0109 0.86861 0.0353 1.30078 0.0352 11.58818 0.00034 21.64865-4.16359 30.23242-12.53125 8.58298-8.36697 12.8746-18.58834 12.875-30.60938-0.00039-12.00715-4.29202-22.17329-12.875-30.54101-8.58377-8.3669-18.64424-12.56598-30.23242-12.56641-0.43205 0.00002-0.87345 0.0244-1.30078 0.0352-0.42254-0.0106-0.84043-0.0352-1.26758-0.0352-8.19413 0.00031-15.63787 2.11073-22.33203 6.29883v-127.08008h30.28711a7.4953927 7.4953927 0 0 0 4.53906 -13.45898l-188.91015-143.82599a7.4953927 7.4953927 0 0 0 -4.90821 -1.523438zm0.36914 16.90625 166.69141 126.91212h-15.56445a7.4953927 7.4953927 0 0 0 -7.49415 7.49611v149.6699c-3.8725 6.41683-5.81808 13.64772-5.81835 21.7129 0.00026 8.07434 1.94598 15.33369 5.81835 21.76758v31.36915c-0.89226 0.13743-1.75891 0.3041-2.58007 0.52344a36.760687 36.760687 0 0 0 -4.24414 -0.16798 36.760687 36.760687 0 0 0 -18.95313 5.85548h-77.48242-1.0625c0.11119-11.1337 0.22161-22.26725 0.33008-33.4004h32.36718a4.634107 4.634107 0 0 0 3.60352 -7.54492l-2.42969-3.00977c-21.85054-27.09132-43.68912-54.19436-65.53711-81.291a4.634107 4.634107 0 0 0 -3.64257 -1.72461 4.634107 4.634107 0 0 0 -3.56446 1.7168c-23.2159 28.66883-46.45107 57.32589-69.65234 86.01367a4.634107 4.634107 0 0 0 3.60351 7.54883h34.31836v31.6914h-6.48828-77.38867a36.760687 36.760687 0 0 0 -17.71875 -5.77734c-2.03289-0.50977-4.27702-0.77533-6.75195-0.77539h-3.99219v-20.88867c0.46631-0.42246 0.93078-0.85051 1.38867-1.29688 8.58298-8.36697 12.8746-18.58834 12.875-30.60938-0.00039-12.00715-4.29202-22.17329-12.875-30.54101-0.45789-0.44633-0.92236-0.87427-1.38867-1.29688v-139.54492a7.4953927 7.4953927 0 0 0 -7.49609 -7.49609h-15.562497l166.6914-126.91213z"/>
<path opacity=".5" d="m187.09185 177.18282a13.90232 13.90232 0 0 0 -13.90234 13.90039v185.72265a13.90232 13.90232 0 0 0 13.57421 13.89649l141.26758 3.33203a13.90232 13.90232 0 0 0 14.22852 -13.89844v-189.05273a13.90232 13.90232 0 0 0 -13.90039 -13.90039h-141.26758z"/>
</svg>
