<?xml version="1.0" encoding="UTF-8" standalone="no"?>
<svg xmlns:rdf="http://www.w3.org/1999/02/22-rdf-syntax-ns#" xmlns="http://www.w3.org/2000/svg" height="507.92499" width="519.47375" version="1.0" xmlns:cc="http://creativecommons.org/ns#" xmlns:dc="http://purl.org/dc/elements/1.1/" viewBox="0 0 519.47376 507.92499">
<path d="m187.37532 308.50047-62.22698-108.42241h-125.14834l50.872138 29.44908-31.45045 54.20099c-2.682239 4.91513-4.0233 10.04796-4.023217 15.39846-0.000083 5.3508 1.340978 10.48363 4.023217 15.39847l49.503845 86.3254c2.232696-6.2492 4.465559-11.60667 6.698537-16.0724l61.57346-105.72666 50.17779 29.44907zm-93.00351 86.99933c-3.58087 5.79999-5.37124 12.04243-5.37109 18.72733-0.00015 10.26567 3.68268 18.96559 11.0485 26.09979 7.3655 7.13421 16.17434 10.70132 26.42656 10.70133h123.14695v-99.70205h-129.82506c-0.89878 1.78365-4.24804 7.58359-10.04782 17.39986l-15.37804 26.77374zm166.62619-246.9474h124.47439l62.90093-108.40199-50.85172 29.449078-31.47088-54.221427c-5.8004-10.2516-14.71814-15.37761-26.75331-15.378061h-99.04856c4.0161 4.452526 7.36536 8.911408 10.04782 13.376666l60.87911 105.72666-10.02739 6.02459-40.15039 23.42448zm-60.89954-143.20172c-14.28231 0.000434-24.99042 6.242871-32.1244 18.727308l-62.22698 107.07454c23.6353 13.83304 52.4104 30.34111 86.32539 49.52427 20.06811-34.35014 41.70219-71.82517 64.90231-112.42521l-24.75191-44.173609c-7.13452-12.484437-17.84263-18.726874-32.12441-18.727308zm159.94808 344.62764v-12.0492-46.15458l-62.24741 108.40199 62.24741 107.74847v-58.22421h62.22699c12.04869 0 21.1911-5.13282 27.42725-15.39847l49.52426-86.3254c-6.68548 1.78365-12.26078 2.67542-16.72592 2.67533l-122.45258-0.67393zm92.34999-183.35212c-2.23337 1.33453-31.01528 17.84261-86.34581 49.52427 27.66505 47.73409 49.53059 85.43376 65.59667 113.09914h50.17779c14.73078 0.00011 25.66355-6.24914 32.79835-18.74775 6.68432-12.04907 6.45968-24.31609-0.67395-36.80112l-61.55305-107.07454z"/>
</svg>
