<?xml version="1.0" encoding="UTF-8" standalone="no"?>
<svg xmlns:rdf="http://www.w3.org/1999/02/22-rdf-syntax-ns#" xmlns="http://www.w3.org/2000/svg" version="1.0" xmlns:cc="http://creativecommons.org/ns#" xmlns:dc="http://purl.org/dc/elements/1.1/" viewBox="0 0 335.88696 449.02234">
<path d="m97.381949 0.0026065a22.545578 22.545578 0 1 0 0 45.085944h34.146491c-6.75805 8.57753-10.81836 19.55637-10.81836 31.51367 0 5.99186 1.01944 11.73885 2.88672 17.06055a17.91412 17.91412 0 0 0 -1.81055 3.0664l-119.95117 252.83008a17.91412 17.91412 0 1 0 32.367179 15.35547l115.16602-242.74609c0.35094 0.15917 0.70528 0.3104 1.06055 0.46093l-0.91211 308.07618a17.965446 17.965446 0 1 0 35.92578 0.10547l0.91406-308.26758c0.88301-0.37926 1.75589-0.77879 2.61133-1.21094l112.7168 237.58594a17.91412 17.91412 0 1 0 32.36718 -15.35547l-119.95117-252.83203a17.91412 17.91412 0 0 0 -0.13281 -0.255861c1.2278-4.40547 1.89844-9.05744 1.89844-13.87305 0-11.95729-4.0603-22.93613-10.81836-31.51367h38.30859a22.545578 22.545578 0 1 0 0 -45.085942h-145.97461z"/>
</svg>
