<?xml version="1.0" encoding="UTF-8" standalone="no"?>
<svg xmlns:rdf="http://www.w3.org/1999/02/22-rdf-syntax-ns#" xmlns="http://www.w3.org/2000/svg" version="1.0" xmlns:cc="http://creativecommons.org/ns#" xmlns:dc="http://purl.org/dc/elements/1.1/" viewBox="0 0 525.46375 451.28653">
<path d="m256.30966 451.28652h35.81182v-451.28652h-35.81182v451.28652zm-107.68136-368.85958h-72.283362c-11.270784 0.00036-21.407481 4.05503-30.410151 12.16406-6.762482 6.29541-11.263867 13.2777-13.504173 20.94692l-31.090501 103.35326c-0.893454 2.25434-1.340164 4.28169-1.340113 6.08202-0.000050991268 10.3637 5.174819 15.54545 15.524629 15.54525 7.215897 0.0002 11.950948-4.05449 14.205154-12.16406l28.369048-94.59099h15.524642l-46.615143 168.21446h45.275033v131.06257c-0.000115 11.71048 5.628335 17.56571 16.885365 17.56573 11.256752-0.00002 16.885212-5.85525 16.885362-17.56573v-131.72231h16.90597v132.40267c-0.00016 11.25691 5.62828 16.88535 16.88537 16.88537 11.2567-0.00002 16.88516-5.62846 16.88535-16.88537v-131.74293h45.25442l-47.27489-168.21446h16.20501l28.36905 94.59099c2.25388 8.10957 6.98206 12.16426 14.18454 12.16406 10.36322 0.0002 15.54497-5.18155 15.54524-15.54525-0.00027-2.25391-0.44698-4.28126-1.3401-6.08202l-31.09051-103.35326c-2.25438-7.21565-7.42925-14.19795-15.52463-20.94692-9.91014-8.10903-20.72034-12.1637-32.43061-12.16406zm-34.45109-7.44275c10.34959 0.00035 19.12899-3.60075 26.33827-10.80334 7.20891-7.20183 10.81344-15.75791 10.81364-25.668224-0.0002-10.3631-3.60473-19.14596-10.81364-26.3486-7.20928-7.20178-15.98868-10.80288-26.33827-10.80331-9.91007 0.00043-18.469582 3.60153-25.678542 10.80331-7.20922 7.20264-10.81376 15.9855-10.81365 26.3486-0.00011 9.910314 3.60443 18.466394 10.81365 25.668224 7.20896 7.20259 15.768472 10.80369 25.678542 10.80334zm316.01516-0.65976c9.90939 0.00037 18.4689-3.60418 25.67853-10.81363 7.20854-7.20871 10.81308-15.76822 10.81364-25.678534-0.00056-10.34936-3.6051-19.01538-10.81364-25.9981-7.20963-6.98187-15.76914-10.47302-25.67853-10.47345-9.91044 0.00043-18.46651 3.49158-25.66823 10.47345-7.20271 6.98272-10.80381 15.64874-10.80333 25.9981-0.00048 9.910314 3.60062 18.469824 10.80333 25.678534 7.20172 7.20945 15.75779 10.814 25.66823 10.81363zm47.97586 7.42216h-96.61147c-13.05792 0.00033-24.20486 4.61856-33.44086 13.85464-9.23686 9.23677-13.85507 20.61049-13.85465 34.12122v112.13611c-0.00042 10.81726 4.95453 16.22579 14.86489 16.22561 9.4559 0.00018 14.18408-5.40835 14.18454-16.22561v-109.43528h17.56572v297.25657c-0.00048 13.51103 6.75504 20.26655 20.26655 20.26657 13.51053-0.00002 20.26604-6.75554 20.26655-20.26657v-172.27604h17.56573v172.27604c-0.00053 13.51103 6.75498 20.26655 20.26655 20.26657 13.96406-0.00002 20.94636-6.75554 20.94692-20.26657v-297.25657h16.88537v109.43528c-0.00059 11.25709 4.72758 16.88553 14.18453 16.88537 9.46948 0.00016 14.20452-5.62828 14.20513-16.88537v-111.47637c-0.00061-13.05715-4.39203-24.42744-13.17428-34.1109-8.78346-9.68279-20.15718-14.52437-34.12122-14.5247z"/>
</svg>
