<?xml version="1.0" encoding="UTF-8" standalone="no"?>
<svg xmlns:rdf="http://www.w3.org/1999/02/22-rdf-syntax-ns#" xmlns="http://www.w3.org/2000/svg" version="1.0" xmlns:cc="http://creativecommons.org/ns#" xmlns:dc="http://purl.org/dc/elements/1.1/" viewBox="0 0 524.11353 529.76758">
<path opacity=".2" d="m262.0556 13.546743-252.05944 191.90743h50.411556v307.86099h151.23601 104.28079 147.77899v-307.86099h50.4119l-252.0598-191.90743z"/>
<path d="m262.05577 0.000006a10.001 10.001 0 0 0 -6.02343 2.140625l-0.0332-0.09766-252.06055 191.90821a10.001 10.001 0 0 0 6.058594 17.95507h40.41211v307.86133a10.001 10.001 0 0 0 10 10h151.23436 104.28126 147.77929a10.001 10.001 0 0 0 10 -10v-307.86133h40.41211a10.001 10.001 0 0 0 6.0586 -17.95507l-252.06054-191.90821-0.004 0.01367a10.001 10.001 0 0 0 -6.05469 -2.05664zm0.002 22.568359 222.41406 169.33788h-20.76758a10.001 10.001 0 0 0 -10 10v307.86133h-137.77929-104.28126-141.23436v-307.86133a10.001 10.001 0 0 0 -10 -10h-20.769531l222.41792-169.33788zm-83.46098 207.42188a48.797817 9.7595634 23.569103 0 0 -5.05078 1.94336 48.797817 9.7595634 23.569103 0 0 -0.0195 1.75586l-1.99414 4.56836c-0.18457 0.18987-0.33257 0.39342-0.4336 0.625-2.15524 4.94041 15.88845 17.58386 40.32032 28.24219 24.27694 10.59075 45.70446 15.22408 48.08984 10.43554l0.0234 0.01 0.0391-0.0918 2.39648-5.49023a48.797817 9.7595634 23.569103 0 0 1.03125 -1.0293 48.797817 9.7595634 23.569103 0 0 -40.82421 -28.45898 48.797817 9.7595634 23.569103 0 0 -43.57813 -12.50977zm-10.79883 16.83203-23.60547 54.10742c-0.18457 0.18986-0.33256 0.39342-0.43359 0.625-2.15524 4.94042 15.88843 17.58386 40.32031 28.24219 24.27693 10.59075 45.70447 15.22408 48.08985 10.43555l0.0234 0.01 0.0391-0.0918 3.30078-7.56446 168.9375 85.47852a17.90179 17.90179 0 0 0 2.20898 0.95117 14.774606 17.694323 34.422695 0 0 17.0332 -2.36523 14.774606 17.694323 34.422695 0 0 5.51563 -23.70118 14.774606 17.694323 34.422695 0 0 -5.28711 -4.70703 17.90179 17.90179 0 0 0 -3.30664 -2.12109l-170.76367-86.40235 6.34375-14.54296c-5.0724 2.92292-25.11615-1.87571-47.57617-11.67383-22.14991-9.66284-39.12055-20.89787-40.83985-26.67969zm-27.33984 62.67188-2.62305 6.01171c-0.18457 0.18987-0.33453 0.39147-0.43555 0.62305-2.15524 4.94041 15.89039 17.58385 40.32227 28.24219 24.27693 10.59074 45.70446 15.22409 48.08984 10.43555l0.0215 0.01 0.041-0.0918 3-6.87695c-5.07241 2.92292-25.11614-1.87571-47.57617-11.67383-22.14991-9.66284-39.12054-20.89786-40.83984-26.67968zm36.28906 82.08007a16.949732 84.748657 89.726318 0 0 -84.666015 17.35352 16.949732 84.748657 89.726318 0 0 1.20313 2.80469l0.041 8.65625c-0.15995 0.43118-0.25599 0.85612-0.25391 1.29492 0.0448 9.36098 37.585985 16.77971 83.878905 16.55859 45.99935-0.21974 83.28931-7.90623 83.71679-17.1875h0.043v-0.17187l-0.0508-10.40039a16.949732 84.748657 89.726318 0 0 0.91797 -2.36328 16.949732 84.748657 89.726318 0 0 -84.83008 -16.54493z"/>
</svg>
