<?xml version="1.0" encoding="UTF-8" standalone="no"?>
<svg xmlns:rdf="http://www.w3.org/1999/02/22-rdf-syntax-ns#" xmlns="http://www.w3.org/2000/svg" version="1.0" xmlns:cc="http://creativecommons.org/ns#" xmlns:dc="http://purl.org/dc/elements/1.1/" viewBox="0 0 524.11353 529.76758">
<path opacity=".2" d="m262.0556 20.000282-252.05944 191.90743h50.411556v307.86099h151.23601 104.28079 147.77899v-307.86099h50.4119l-252.0598-191.90743z" stroke="#fff" stroke-width="1.2414198"/>
<path d="m262.05577 0.000006a10.001 10.001 0 0 0 -6.02343 2.140625l-0.0332-0.09766-252.06055 191.90821a10.001 10.001 0 0 0 6.058594 17.95507h40.41211v307.86133a10.001 10.001 0 0 0 10 10h151.23436 104.28126 147.77929a10.001 10.001 0 0 0 10 -10v-307.86133h40.41211a10.001 10.001 0 0 0 6.0586 -17.95507l-252.06054-191.90821-0.004 0.01367a10.001 10.001 0 0 0 -6.05469 -2.05664zm0.002 22.568359 222.41406 169.33788h-20.76758a10.001 10.001 0 0 0 -10 10v307.86133h-137.77929-104.28126-141.23436v-307.86133a10.001 10.001 0 0 0 -10 -10h-20.769531l222.41792-169.33788zm-77.63285 114.70312c-9.72851 0.00036-18.2275 3.52841-25.42188 10.54102-7.20037 7.0198-10.86685 15.64209-10.86719 25.71679 0.00034 10.08597 3.6663 18.72838 10.86719 25.74805 7.19437 7.01324 15.69334 10.5413 25.42188 10.54101 0.37629 0 0.73663-0.0249 1.0625-0.0332 0.33224 0.01 0.68427 0.0336 1.0625 0.0332 9.72854 0.00029 18.25804-3.52706 25.45312-10.54101 7.2024-7.0211 10.80435-15.665 10.80469-25.74805-0.00032-10.07178-3.60282-18.69557-10.80469-25.71679-7.19506-7.01332-15.72461-10.54066-25.45312-10.54102-0.3342 0.00001-0.6832-0.006-1.04688 0.002-0.37028-0.008-0.73616-0.002-1.07812-0.002zm155.80468 0c-9.72851 0.00036-18.25804 3.5277-25.45312 10.54102-7.20186 7.02123-10.80438 15.64501-10.80469 25.71679 0.00033 10.08305 3.60231 18.72695 10.80469 25.74805 7.19508 7.01395 15.72458 10.5413 25.45312 10.54101 0.37822 0.00043 0.73026-0.0234 1.0625-0.0332 0.32586 0.008 0.68621 0.0332 1.0625 0.0332 9.72854 0.00029 18.22751-3.52777 25.42188-10.54101 7.2009-7.01967 10.86683-15.66208 10.86718-25.74805-0.00035-10.0747-3.66679-18.697-10.86718-25.71679-7.19436-7.01261-15.69337-10.54066-25.42188-10.54102-0.33143 0-0.68631-0.005-1.04492 0.002-0.37626-0.01-0.7353-0.002-1.08008-0.002zm-182.86914 79.125c-2.13618 0.0002-4.07585 0.23105-5.85547 0.68945-1.1636-0.10706-2.33368-0.1498-3.50195-0.125a0.6945147 0.6945147 0 0 0 -0.002 0c-8.12526 0.19595-16.09582 3.7218-21.70508 9.60352-5.60924 5.88171-8.75382 14.01132-8.56445 22.13672l-0.002-0.01 0.65625 70.75c-0.00004 0.0294-0.00005 0.0606 0 0.0898a0.6945147 0.6945147 0 0 0 1.09961 0.5625c3.16094-2.2694 6.45786-4.32847 10-6.0625 39.57683-1.15949 79.21321-1.25453 118.875-1.15039a0.6945147 0.6945147 0 0 0 0.69531 -0.70117l-0.59375-64.05468v-0.008c0.023-7.83211-3.0413-15.6106-8.40039-21.32226-5.33107-5.68182-12.85085-9.21582-20.625-9.72071-0.006-0.002-0.015-0.00021-0.0215-0.002-1.74244-0.43941-3.63988-0.67573-5.74219-0.67578h-56.31054-0.002zm155.74414 0c-2.10443 0.00005-4.00416 0.23551-5.74804 0.67578-0.005 0.001-0.0109 0.00065-0.0156 0.002-7.77483 0.50444-15.2935 4.03843-20.625 9.72071-5.36088 5.71356-8.42547 13.49534-8.40039 21.33008l-0.59375 64.05468a0.6945147 0.6945147 0 0 0 0.69727 0.70117c39.66179-0.10414 79.29817-0.009 118.875 1.15039 3.54214 1.73404 6.83906 3.7931 10 6.0625a0.6945147 0.6945147 0 0 0 1.0996 -0.5625c0.00005-0.0294 0.00005-0.0604 0-0.0898v-0.008l0.65626-70.74219-0.002 0.01c0.18936-8.1254-2.9552-16.25501-8.56445-22.13672-5.60925-5.88172-13.57982-9.40757-21.70508-9.60352a0.6945147 0.6945147 0 0 0 -0.002 0c-1.16825-0.0248-2.33836 0.0179-3.50196 0.125-1.78017-0.45855-3.72046-0.68939-5.85742-0.68945h-56.3125z"/>
<path opacity=".5" d="m135.20724 324.28971a5.0005 5.0005 0 0 0 -3.24804 1.19921l-46.550775 39.77344a5.0005 5.0005 0 0 0 3.24804 8.80078h349.86718a5.0005 5.0005 0 0 0 3.26758 -8.7832l-46.05664-39.77539a5.0005 5.0005 0 0 0 -3.26953 -1.21484h-257.25782zm-46.550775 61.77343a5.0005 5.0005 0 0 0 -5 5.02735l0.55078 100.22656a5.0005 5.0005 0 0 0 5 4.97266h349.25782a5.0005 5.0005 0 0 0 5 -4.99805l0.0586-100.22461a5.0005 5.0005 0 0 0 -5 -5.00391h-349.86718z"/>
</svg>
