<?xml version="1.0" encoding="UTF-8" standalone="no"?>
<svg xmlns:rdf="http://www.w3.org/1999/02/22-rdf-syntax-ns#" xmlns="http://www.w3.org/2000/svg" version="1.0" xmlns:cc="http://creativecommons.org/ns#" xmlns:dc="http://purl.org/dc/elements/1.1/" viewBox="0 0 361.87308 491.78607">
<path d="m268.41015 0c-22.552 0-40.83398 18.283938-40.83398 40.835938 0 22.551007 18.28198 40.833987 40.83398 40.833987 22.55 0 40.83399-18.28298 40.83399-40.833987 0-22.552-18.28399-40.835938-40.83399-40.835938zm-29.49609 93.156255c-17.222 0-29.72266 6.81641-40.22266 21.816405l-36.75 53.55468h-63.76953c-25.624 0-24.18647 36.33985-0.48047 36.33985h73.5c5.751 0 12.75044-2.14444 16.77344-8.14844l27.97656-39.99609 0.25 311.75c0 31.184 45.85938 30.89815 45.85938-0.71485l0.0254-181.36523 8.92773-0.0859-0.0293 181.36718c0 31.61201 46.39257 32.41083 46.39257 0.79884l0.0274-313.05665h8.05859v111.79492c0 26.83801 36.41992 26.83847 36.41992 0.48048v-122.29884c0-32.87599-24.46865-52.236325-50.34765-52.236325h-72.61133zm-168.62305 125.66602-21.75195 21.74804 21.75195 21.75196 21.75196-21.75196-21.75196-21.74804zm20.29102 41.07812-21.75 21.75196 21.75 21.74804 21.75-21.74804-21.75-21.75196zm56.21484 25.5-33.98437 177.44727h-50.38282l-33.25585-177.375h-29.17383l38.04883 206.0879h99.14257l38.77735-206.16017h-29.17188zm-80.53515 32.66406v29.86134h29.86132v-29.86134h-29.86132z"/>
</svg>
