<svg xmlns="http://www.w3.org/2000/svg" xmlns:rdf="http://www.w3.org/1999/02/22-rdf-syntax-ns#" xmlns:dc="http://purl.org/dc/elements/1.1/" xmlns:cc="http://creativecommons.org/ns#" version="1.1" style="fill:black;stroke:none">
    <title>StateFace</title>
    <desc>USA States Symbol Set with all 50 states plus D.C. and a wee continental U.S. map</desc>
    <metadata>
        <rdf:RDF>
            <cc:Work rdf:about="">
                <dc:format>image/svg+xml</dc:format>
                <dc:type rdf:resource="http://purl.org/dc/dcmitype/StillImage"/>
                <dc:title>StateFace</dc:title>
                <dc:date>2016-07-31</dc:date>
                <dc:creator>
                    <cc:Agent>
                        <dc:title>ProPublica</dc:title>
                    </cc:Agent>
                </dc:creator>
                <dc:rights>
                    <cc:Agent>
                        <dc:title>http://propublica.github.com/stateface/LICENSE.txt</dc:title>
                    </cc:Agent>
                </dc:rights>
                <dc:language>English</dc:language>
                <dc:source>https://propublica.github.io/stateface/</dc:source>
                <dc:description>StateFace Font by ProPublica</dc:description>
            </cc:Work>
        </rdf:RDF>
    </metadata>
    <defs>
        <symbol id="Alaska">
            <title>Alaska</title>
            <path
                id="Alaska"
                transform="matrix(.2,0,0,-.2,-44,188)"
                d="M-376 153l15 -1l1 -7l4 -10zM-364 118h7l4 -1l-4 -5zM-299 82v3l2 -3v-2zM-272 43v4l14 3l-1 -3zM-249 29l6 -4h-3zM-238 29v3l4 1l1 -4h-5zM-234 16q1 -1 5 -10t6 -13l-2 2zM-212 20l8 5l4 -8l-7 -1zM-180 -24l3 2l3 -2l-6 -1v1zM-166 -5l2 -2l-2 -1v3zM-148 -8l10 -5 l7 -2l-13 -9zM-138 -22l19 5v-8l-19 1v2zM-115 -35l9 17l4 -4v-13h-13zM-98 -27h3l3 -8h-6v8zM-89 -35l1 5h2h2v-5l-2 3v-3h-3zM-86 -22l2 4l3 -6l-3 -1zM-81 -25l2 -2h-2v2zM-79 -30l3 3v-3h-3zM-64 -30l43 6l-8 -14h-17zM-24 -38l11 -2l6 -6l11 -3l-17 3zM17 -43l7 3v-3 h-7zM56 -43l3 1l2 -1v-3zM71 -43l7 3v-3h-7zM91 -42l3 4l5 -2l-5 -2h-3zM99 -38l7 3v-7zM107 -30h2l-2 -5v5zM117 349h2v-2zM119 344l14 -17l-9 5zM124 -43l39 28l3 -10l-32 -17zM136 167l10 3v-3l-6 -3zM149 137l7 -2h-6zM166 -27l21 2l14 8l-7 12l22 -2l-20 -20h-30z M184 468l7 19l11 -15l14 3l29 -30l-20 -9l-4 9l-10 5l2 4l-11 14h-2l-9 -7zM204 461l5 -4l2 -3v-2zM213 -15l5 2l-2 -4l-3 -1v3zM218 -7v-1h3zM225 2l4 -2l5 -5h-9v7zM234 2h4l3 -5l-5 -2zM238 -7l4 -1l3 1h-7zM242 297l35 1l9 -21l-15 -10zM245 -7l3 2l7 -2l-3 -1zM259 9 l12 18l23 5h7l2 -12l7 -3l1 -5zM281 557h15l9 6l-2 -1l8 6l-1 -2l11 7l19 -3l-4 10h2l3 2v-1l25 6h10v-1l-12 -18l9 -8l52 -3l-3 11l-14 -3l-4 34l11 -26l27 -5v12l-24 -2l3 19l-17 2l2 8v4h-27l-5 26l-38 43l10 22l49 3l34 54l-3 -9l38 17l-5 -11l7 -9l10 15l-15 7l39 7 l24 25l12 -11l-9 -13l4 -5l15 18l14 -18l31 4l4 -14l-10 -2l24 -4l27 6l77 -19l31 13l38 -16l89 -439l43 9v-12l55 -49l9 11v-11l13 6l19 -17l-11 -16l-93 45l5 24l7 -19l7 12l-16 10l-18 -22l-25 3l1 5l-3 8l-5 -8l-61 -8l-19 8l3 25l-13 -23l5 6v-6h-5l-14 6q2 2 6 10 l-17 -1l4 5l-12 -4l10 7h-15l10 12l-22 -12l-8 10l-5 -14v21l-20 -24l15 -10l-7 -4l-5 -4h17l-10 -8v-15l-19 -8l-4 15l-3 -22l-4 13v-15l-7 6v-8l-16 -5l-7 -17l-17 -3l-3 12l12 3l6 14l-8 -5l-9 1l-1 4l9 49l21 14l34 -4l-24 9l17 21l-17 -16l-15 3q-6 -7 -14.5 -17.5 t-16 -19.5t-14.5 -17l-5 3h-6l10 -18l-14 -12l-5 5l-20 -30l25 -15l-28 -36l-57 -34v-20l-50 -22l-7 -8l12 -5l-9 -9v9h-3l-2 -10l-25 -2l-4 -13l-4 13l-40 -21l6 8l-16 5l-9 -23h4l3 -2l-6 -2l-2 3v-1h-14l-7 16v-18l-13 8l1 -8l-8 -3l2 11l47 34l19 3l8 -15v7l12 -7v25 l43 27l6 -6l11 26l23 8l-1 29l11 1l-11 9l16 21l4 18l-36 -23l-6 16l6 3l4 -7l-2 7l-8 7l-11 -37l-34 37l-36 -21l-13 4l16 7l3 14h-6l-4 10l8 8l-13 42l15 18l-20 -18l1 -14l-24 -4l-39 40l16 16h-5l9 9l-13 7q4 0 5 8l-10 -11l-8 34h13l15 30l11 -5l-4 20l17 7v8l12 -3 l-3 -10l37 24l22 -4l13 15l-15 28l16 13l-7 14l-36 -27l-5 17l-1 -12l-62 17l-1 17l-7 12v6l16 -2l-23 12zM306 342h4l1 2h3l5 5zM310 318q3 -4 11 -11l-2 -6l25 4l-11 5l4 7l-7 -4zM314 570l7 7h2zM316 2l3 -2v-5zM323 -3l4 -2h-4v2zM330 22l6 3v-5zM352 32h2v1zM357 32h4 v-3zM374 25l5 14v-6l4 -6zM376 437l3 4h4v-5zM383 33l3 3h2v-7zM386 195l10 8l-5 -6zM388 39l3 4l4 -4v-3zM390 12l1 13l10 2l3 -2zM395 32h1v1h-1v-1zM404 197h2v-2zM406 7v2h2v-2h-2zM406 20l5 9v-4zM411 16v4h4v-4h-4zM415 10v6l3 -4zM418 55h3v-3zM429 55v5h5l3 -5h-8z M457 79h2v1zM474 87l2 2h5l3 -2h-10zM514 50l5 5h3v-5h-8zM543 79l8 10v-4zM543 127l15 13l3 -3l-1 -2h5v-7q5 -5 6 -7l-6 24l11 -8l12 11l-7 9l7 -4l21 -18l-18 -3l8 -8l-14 3l-25 -31l9 18h-9l-4 -13zM553 85l3 2l4 2l-2 -4h-5zM560 85l1 2l4 -2v-3zM574 153l2 2l6 -3v-4z M574 220v2l4 3v-5h-4zM578 112l7 5l7 -3l-11 -7zM578 161l4 1h3l-3 2l13 6h-3l-1 2h1l3 -2v2l-3 2l4 5l20 -7l-21 -17h1l-1 -2h-3v2h3l-10 7l2 -4zM587 158l5 -1h-4zM596 182l5 5v-1l-2 -7zM599 153l2 2l3 -2v-1zM601 199l3 4v-1h3zM607 271l5 9l4 -3l-7 -6h-2zM617 165l2 5 v-3zM641 222l2 6l3 -3l-3 -3h-2zM651 228v2h3v-2h-3zM697 294v3h4v-6zM701 301l1 4l2 -4l-2 -3zM704 291v6l2 -3zM719 305h4v-3zM739 275v9l5 -2l4 2v-2zM748 288l10 9v-3zM978 260v2l1 -1zM979 261l4 5l3 1l4 24l23 11l63 -45l63 -71l52 -9l15 -50l-15 -15l3 28l-3 -5 l-22 35l-21 -35l-4 27l-15 12l7 -4l10 -5v-1l9 3v3l-33 12l-13 17l-21 -2v5q8 -1 10 7v3l-19 8l2 2l14 -6l3 4l-19 12v-7l-8 15l-8 -3v22l-4 -19l-9 6h-8l-29 45l24 -54l-13 5l-11 -5l-3 25l-11 4l4 -16zM1003 220l4 -4v-10zM1006 225l1 3l6 -8l8 10l3 -10l20 8v-12l-24 4 l26 -7l7 -14l-29 10l10 -14l-5 -3l-19 14v10l10 -4zM1029 187h8l4 -13l-7 -2zM1041 195l13 -3l14 -25l8 -24l-13 22l-13 2zM1041 242l6 -1l3 1h3l2 -3l4 -1l20 -22l-23 17l23 -30l-16 -21l3 20zM1075 174l9 5l8 -9l-1 -33zM1084 192h25l2 -15l-13 9l11 -19l-14 -3zM1086 132 l2 3h4l-1 -4zM1098 135v2l3 -2h-3zM1101 161l50 -29l-13 3l-2 -8l20 -3l10 -28l-27 21l-13 -3l1 18l-10 -4l2 12l-10 13l2 -8l-9 -8v11l7 5h-7zM1109 117v4l2 -3zM1109 135h5l3 2v-2l-6 -4zM1111 110l3 7h5l-2 -10zM1111 187l11 -8l-3 -7h-5zM1114 118v3h5l-2 -3h-3z M1114 164l3 3l5 3v-8zM1117 124h4v-3zM1119 112l3 2l4 -4l-5 -3zM1126 157l3 10v-5h10l5 -9zM1131 97v8l17 -16zM1138 105v7l6 -5l-5 -2h-1zM1144 97v4h4l3 -7zM1156 132l10 -4v-7h-2zM1156 135l10 27l14 -10v-24l-11 17v-14zM1169 128l4 -1l4 -3l-6 -10zM1177 112l6 6v-6 h-6z"/>
        </symbol>
        <symbol id="Alabama">
            <title>Alabama</title>
            <path
                id="Alabama"
                transform="matrix(.2,0,0,-.2,-44,188)"
                d="M50 247l64 484l-12 17l344 -5l53 -333l14 -45l16 -32l-1 -17l14 -12l-19 -17l-15 -53l15 -47l-9 -58l13 -16l1 -15l-357 2l-5 -20l31 -32l-5 -19l5 -17l-21 -19l-7 2v-4h5l-14 -8l-53 -5l38 8l-9 20h-12l-3 13l3 17l-13 23l-18 -66l-24 13l-15 -1zM69 -17l27 3l5 -3h-32z "/>
        </symbol>
        <symbol id="Arkansas">
            <title>Arkansas</title>
            <path
                id="Arkansas"
                transform="matrix(.2,0,0,-.2,-44,188)"
                d="M50 744l375 -5h388l15 -25v-18l-39 -37l-14 -27l114 5l7 -22l-12 3l-7 -8l16 -10l-42 -21l7 -17l-5 -11l3 -11l-16 -8l-1 -13l-14 -19l7 -43l-6 -6h-10l-9 -18l-16 -10l6 -19l-31 -19l-2 -19h-14l-8 -20v-47l-15 -9l-11 1v-20h-12l-6 -18l-19 -9l15 -13l-2 -13l-36 -12 l12 -11l-8 -12l6 -13l-31 -28l13 -11l-2 -10l-13 -4l19 -20v-21l-9 -10l12 -11l3 -25l-12 -7v-23h-515v117l-24 9l-36 -5l1 5h-9l-10 15l18 368z"/>
        </symbol>
        <symbol id="Arizona">
            <title>Arizona</title>
            <path
                id="Arizona"
                transform="matrix(.2,0,0,-.2,-44,188)"
                d="M50 168l13 29h20l9 17l-3 20l-20 9l1 15l-4 17v10l10 5l13 14l6 21l-3 32l15 20l30 20l-27 24l-4 23l-19 32l-3 33l8 10l-9 40l4 47l-8 19l4 12l17 5l20 -5l13 -14l12 2l8 21l6 103l521 -7v-116l7 -621l-225 1z"/>
        </symbol>
        <symbol id="California">
            <title>California</title>
            <path
                id="California"
                transform="matrix(.2,0,0,-.2,-44,188)"
                d="M50 675l7 24l6 6l12 59l-7 22l-5 9l1 18h280l1 -96l3 -169l399 -334l25 -44l19 -12l-28 -34l2 -37l-15 -12l9 -30l15 -7l-1 -21l-194 -34l-8 12l8 -2l-2 6l-9 -4l-6 36l-18 24l-47 32l-19 -1l-9 24l-22 -2l-24 8l-13 15l-24 12l-65 4l-10 6v54l-19 5v18l-28 21l-17 29 l-26 26l-6 28l8 2l5 18l-10 11h-16l-13 15l-15 35v23l9 3l1 -18l18 -13h7l-11 24l-9 7l-6 15l2 4l10 1l5 -1h33l2 6l-7 -5l5 9l-16 -9l-8 9l-10 -9l-16 10l-9 -1l5 -22l-5 -5l-29 22l-5 -8l2 21l10 -9l-19 31l-41 43v15l-7 24l4 28l-12 26l-26 22zM238 468l13 -8l-12 9z M326 108l4 3l6 -3v-2zM341 106h15l2 -6l-10 -6zM363 111l9 -1l19 1l2 -3l-19 -6zM392 42h4l6 -1v-3zM465 59l19 -4l2 -8h-8zM466 25h3l15 -22l-8 1z"/>
        </symbol>
        <symbol id="Colorado">
            <title>Colorado</title>
            <path id="Colorado" transform="matrix(.2,0,0,-.2,-44,188)" d="M50 9l29 739l486 -10l496 8l5 -184l26 -553l-508 -11z"/>
        </symbol>
        <symbol id="Connecticut">
            <title>Connecticut</title>
            <path
                id="Connecticut"
                transform="matrix(.2,0,0,-.2,-44,188)"
                d="M50 56l136 80l-34 58l39 562l270 -12l101 -6l3 -18l23 2l1 16l529 -2l8 -372l-5 -80l-13 -17l-8 -50l-17 -6l8 12l-14 7h-44l-40 -19l-26 26l-14 -31l-46 11l-5 -20l-15 8l-35 -21l-32 20v27l-27 13l23 -31l-7 -16l10 -7l-12 -9l-47 7l-30 -22l-7 8l-11 -4l-35 14l-32 -8 l-16 -10l-28 8l-36 -7h-43l-11 14l-3 22l-54 -64l-23 -5l-40 -31l-16 -7l-12 14l-25 -17l-7 4l-18 -22l-19 6l-33 -17l-71 -45l-17 1l-10 -20l-4 6l-32 -17l-10 10l-25 -13z"/>
        </symbol>
        <symbol id="Delaware">
            <title>Delaware</title>
            <path
                id="Delaware"
                transform="matrix(.2,0,0,-.2,-44,188)"
                d="M50 705l36 46l43 19l47 -1l28 -17l-21 -19l-6 -22l-25 -36l-19 -9l-6 -23l18 -18l3 -21l-11 -31l40 -77l14 -3l13 -18l12 -32l-2 -48l6 -53l11 -7l22 -40l3 -34l62 -67l37 -3l3 -9l5 -59l-5 -21l-1 27l-6 7h-21l7 -22h-13l22 -12l-9 -7l-31 -11l-7 -8h9l-9 -11l37 11 l13 -12l15 26l6 -90l-12 4l-3 -4h-274z"/>
        </symbol>
        <symbol id="Florida">
            <title>Florida</title>
            <path
                id="Florida"
                transform="matrix(.2,0,0,-.2,-44,188)"
                d="M50 777l3 17l275 -12l13 -35l281 -25l9 -25l12 1v47l7 6l59 -13v-22l-8 12v-10l12 -8l15 -84l35 -91q3 -4 15 -24t19 -31h-4h-13l1 18l-12 5l16 -51l8 -18l-11 35l11 11l1 -6l-1 -17v-24l29 -67l4 -22l15 -37l-12 4l19 -13l12 -40l-12 -128v17l-14 -35l-4 -32l-11 -15 l3 -7l4 6v8l13 8l-13 -24l-23 -27h-3l22 29l-5 7l-6 -1q6 -1 6 -8l-6 3l-1 6l-24 -11l-17 4l-23 -10l-9 8l-4 9l8 12h5l-1 -2l-4 2l5 -6v4h4l-13 8l-4 22l-19 33l-3 2l3 -5h-9v4l3 2l-24 11l-12 -4l10 9l-10 3l-6 15v-6l-7 45l-3 7v-7l-13 3l23 28l-12 -6l-4 -13h-13l-2 45 l14 11l-22 -8l-13 13l13 -30l-17 5l-27 56l-1 14l-13 9l-4 6l8 -6l-3 3h10l-6 5l6 1l24 34l-4 13h-5v-13h-8l-1 17l-16 7v-6h4l-6 -4l15 -8l-10 -20l-16 15l8 -13v-6l-13 26l21 69l5 33l-8 10l8 -1v13l-9 11l-7 24h-28l-19 31l-19 14l2 16l-16 8l-14 25l-36 22l-17 -4l-4 6 l-22 -8l6 -7l-11 4l-1 -4l12 -5v-4l-2 -2l-14 2l-41 -19l2 6l-16 -8l-36 -4l-3 6l-6 17l9 -23l4 16l-4 9l-34 34l21 -15l-1 15l-8 -4l-17 10l20 9l-3 5l-14 -6l-7 6l-9 -5l9 -2l4 -13l-36 20l-48 17l18 -4l7 6l5 -7v7l14 -7l-4 12l-8 5l-20 -6v6l-10 1l-10 -13l7 -1h-4 l-74 -4h-5l-24 -6l19 22l-8 7l5 20zM81 711l13 1l31 11l-13 9l5 6l-6 7l-5 -18l-12 14l4 -13l-13 -16zM106 714l33 4h3zM276 663l2 -1l7 4zM302 620h12l-4 -6zM314 613h10l34 17q-2 -1 -16 -9.5t-22 -11.5zM360 630l11 6l-5 -5zM531 547v1l2 3l1 -4h-3zM570 336h3l7 -12v-1z M570 496v2h3v-2h-3zM570 500v3l3 -3h-3zM614 245v11l3 -6zM617 244h1v-6zM622 226l9 -9l9 -3l-13 3zM623 244l8 -1l4 -21l-3 3zM663 -20l2 1l7 3v-4h-9zM672 -20l4 5l6 -1zM676 144l2 -2l4 2h-6zM683 -16l6 9l7 -1l-2 5l3 -5zM694 142v5l2 -3v-1zM697 -2h3l1 -1l-4 -4v5z M697 142l3 1h2v-5zM702 -3h3v-4l-3 1v3zM709 3l4 -4l2 -6l-1 -1zM720 -7h5l2 1zM737 -1l13 3v-3l-4 -1zM745 276l22 -24l18 -9l9 36l-5 15l-14 12zM746 71l10 -6l7 2l-13 8l-1 -4h-3zM750 -1l13 11l-1 -7zM769 11l7 5v-4zM785 16l1 5v-5h-1zM793 25l5 4l-4 -4h-1zM794 433 l4 45q4 -8 8 -15l-7 -8v-22l17 -44zM797 480h1v-2q-1 1 -1 2zM816 388l10 -18l20 -64l-12 29zM841 307h1v-2zM846 121l1 5h1v-5h-2z"/>
        </symbol>
        <symbol id="Georgia">
            <title>Georgia</title>
            <path
                id="Georgia"
                transform="matrix(.2,0,0,-.2,-44,188)"
                d="M50 752l339 -6l-28 -29l-4 -18l23 -18l18 -18l23 -7l21 -47l21 -34l41 -32l12 -28l35 -22v-18l12 -8l-2 -9l11 -5l3 -13l33 -18l17 -49v-21l29 -22l8 -26v-31l43 -21l-9 -8l-5 3l-5 -6l5 -6l-6 -5l-20 5l4 -4l-7 -5l16 -3l-10 -15l-25 4l11 -9l-6 -8l13 3l1 5v-5l-3 -18 l-5 5l-18 -8l8 -3l-3 -7l18 9l-15 -26l-8 6l8 -15l-30 5l22 -8l8 -11l-14 -18l-7 12l-4 -1v-15l-5 2l6 -9l5 9l-2 -18l-12 11l8 -11l-8 -5l8 -5l-7 -8l2 -11l-6 1l4 -23l-67 18l-9 -14l4 -25l-6 -34l-18 -1l-10 32l-374 29l-18 43l-2 19l-11 16l11 59l-14 46l18 57l19 18 l-13 11l3 14l-18 38l-11 47zM614 66l11 13l-6 -26v-11z"/>
        </symbol>
        <symbol id="Hawaii">
            <title>Hawaii</title>
            <path
                id="Hawaii"
                transform="matrix(.2,0,0,-.2,-44,188)"
                d="M50 701l37 30l-3 -22l-30 -29zM148 735l49 49l53 -1l-22 -88zM502 621l73 35l14 -29l40 -38l6 -43l-68 29l-26 -20zM733 504l13 31l80 -15h41zM785 457l48 -6l-7 -32h-22zM867 459l29 28l23 -33l57 10l56 -52l-97 -34zM872 367l27 17l6 -21l-23 -2zM1023 178l53 58 l-11 66q53 -23 156 -68l96 -112l-203 -153l-55 36z"/>
        </symbol>
        <symbol id="Iowa">
            <title>Iowa</title>
            <path
                id="Iowa"
                transform="matrix(.2,0,0,-.2,-44,188)"
                d="M50 519l27 72l-5 17l-12 5l7 26l-7 24l384 -5l362 4l10 -28l16 -8l-13 -30l16 -72l10 -12l45 -10l10 -29v-9l28 -18l6 -23l35 -26l3 -13l-5 -40l-17 -15l-4 -29l-12 -13l-39 -18l-45 -7l-10 -38l21 -19l5 -27l-21 -26l-10 -34l-36 -21l5 -34l-17 1l-36 40l-334 -10 l-257 8v12l-12 14l6 31l-8 33l5 21l-10 7l9 20l-15 4l9 25l-12 4v11l-15 3l5 52l-10 17v17l-26 38l-7 58l-11 5l-6 28z"/>
        </symbol>
        <symbol id="Idaho">
            <title>Idaho</title>
            <path
                id="Idaho"
                transform="matrix(.2,0,0,-.2,-44,188)"
                d="M50 10l10 207l15 38l-8 10l-17 5v21l31 43l2 16l36 64l-9 18l-19 19l-15 54l18 294l74 -5l-6 -110l25 -36l-2 -17l5 -8l-5 -5l30 -21l39 -64l9 4l7 -11l20 2l-11 -55l-5 -3l8 -32l-13 -11l5 -8l-5 -15l20 -11l26 24l12 -11l7 -33l21 -33v-17l9 -9l15 -1l12 -36l11 -11 l9 14l28 -4l11 12l64 -2l-4 11l10 13l26 -29l5 -282l-251 1z"/>
        </symbol>
        <symbol id="Illinois">
            <title>Illinois</title>
            <path
                id="Illinois"
                transform="matrix(.2,0,0,-.2,-44,188)"
                d="M50 471l4 14l12 5l-1 27l27 14l25 43l-3 21l-13 17l8 26l37 2l28 14l29 43l4 39l-26 21l-2 17l-21 22l305 -5v-38l33 -74l1 -347l-11 -4l4 -17l-10 -13l17 -24l3 -27l-18 -30l2 -9l-13 -6l-12 -26l-9 4l-7 -11l9 -9l-11 -11l8 -2l-11 -4v-23h-6l6 -10h-6l6 -9l-13 -19 l8 -21l-45 -15l4 -44l-9 -3l-55 23l-21 -23l6 -13h-5l-12 15l-5 -2l4 -9l-14 8l-12 31l6 18l-6 20v21l-47 42l-22 9l-27 30l-1 17l22 44l5 32l-32 16l-18 -11l-8 5l-12 54l-65 66l-12 42z"/>
        </symbol>
        <symbol id="Indiana">
            <title>Indiana</title>
            <path
                id="Indiana"
                transform="matrix(.2,0,0,-.2,-44,188)"
                d="M50 -2l13 3v30l11 5l-10 4l15 13l-9 13l9 14l6 -4l6 8l3 -4l14 26l-1 7l19 6l-1 16l26 37l-6 25l3 17l-20 33l10 18l-2 24l14 7l11 483l11 -11l5 5l1 -11l20 -4l37 10l30 16l313 -1v-10l2 -533l-9 -7l9 -17l-9 -14l14 -4l-2 -19h-22l-38 -21l-13 8l-31 -3l6 -33l-16 -19 l-12 -2l-10 -30l-18 -9l-10 4l-13 -22l-4 -31l-19 -14l-34 22l-4 19l-17 7l11 -8l-16 -10l-6 9l1 -16l-10 -5l-1 -23l-11 -4l-6 -13l-5 5l1 6l-20 5l-6 15l-32 -15l-17 -27l-6 10l-42 22l-24 -5l-6 11l1 -16l-6 -12h-8v14l-20 -2l-18 7l-3 -5l3 -14l-7 -9l-23 6l11 4z"/>
        </symbol>
        <symbol id="Kansas">
            <title>Kansas</title>
            <path id="Kansas" transform="matrix(.2,0,0,-.2,-44,188)" d="M50 93l25 568l490 -13l487 6l32 -26l18 8l14 -31l-14 -1l-18 -37l29 -28l12 -31l34 -14l13 -404l-559 -9z"/>
        </symbol>
        <symbol id="Kentucky">
            <title>Kentucky</title>
            <path
                id="Kentucky"
                transform="matrix(.2,0,0,-.2,-44,188)"
                d="M50 171v12h12v-12h-12zM70 171l9 23l21 -11l12 27l3 38l-6 20l16 18l26 6l54 -29l8 11l-8 30l2 15l58 15l-9 30l18 24l12 -4l6 9l-2 16l17 -11l16 5l4 -13l7 5v20l7 -12l22 6l38 -27l14 21l29 12l25 -25l14 16v16l11 5l-1 12h15l-5 9l13 -7l4 -16l27 -16l17 9l14 43l25 6 l11 26l23 16l-4 29l26 4l9 -9l34 17l16 -3l6 20l-13 4l7 10l-7 14l19 16l12 -13l28 4l17 -13l12 -35l49 -11l20 -20l26 12l30 -18l22 3l16 17l20 5l9 -29l31 -26l2 -31l-9 -15l35 -59l38 -42l24 -6l-54 -45l-44 -26l-26 -40l-26 -10l-9 -18l-85 -30l-574 19l-33 11l4 -34z "/>
        </symbol>
        <symbol id="Louisiana">
            <title>Louisiana</title>
            <path
                id="Louisiana"
                transform="matrix(.2,0,0,-.2,-44,188)"
                d="M50 562l4 199h477l1 -8l15 -10l-15 -30l17 -10l-17 -11l12 -17v-21l31 -32l-19 -30l-11 -1v-26l-43 -37l-12 -51l-16 -14l5 -18l-5 -24l-20 -4l13 -40l-14 -13l326 4l-18 -62l9 -22l22 -24l19 -44l8 -5l-11 -7v5l-20 -4l-6 13l-41 6l-13 18l-23 5l-37 -35l-5 -13l9 -13 l41 -11l27 6l18 19l16 -8l9 13v-13l11 8l-6 4h7l4 -4l-12 -21l-13 3l-8 -8l4 -12l20 1l-3 -6l9 -10l12 4l5 23l15 13l10 -6l9 2l-14 -14l14 -6l-10 -4l4 -6l6 4l-4 -6h11l-7 -10l6 -9l-12 -5l-13 13l-8 -14l-9 -6l1 -9h11l6 -11l-37 15l15 -17l-24 2l13 -21l28 -11l-1 -13 h32l-6 -6l18 -3l5 -7l9 7l15 -15l-6 -8l19 -3l5 -7l-14 -4l13 -1l-9 -13l-4 8l1 -11l-4 4l-5 -10l2 -8l-22 20v-8l-8 -4l-18 -25l22 47l-4 -5l-4 10v-13l-10 -8l-19 31l6 2h-26l-4 17l-11 -5h-24l13 9l-3 12l-12 2l4 8h-8l-1 -6l-12 2l-30 16l-5 -3l-8 11l-5 -13l31 -17v-19 l4 -6l-14 -4l2 -10h6l-11 -16l-22 -13l-3 35l-6 -6l-9 14l-8 -13l-11 23l-6 -14l-20 4l3 -17l-7 3l-4 -21l-1 6l-18 -12l-8 3l5 9l-10 4l-7 -12l-22 9l-2 10l-11 -7l-36 12l-6 7l-3 10l8 -4l12 12l1 -7l9 -1l3 -17l5 3v14l-25 25l4 28h-4l-5 -26l-23 8v8l-24 -5v22h-14v20 l-38 -6l1 21h-22l-27 -19v7l-11 -2l5 -13l13 5l-7 -6l6 -14l13 3l-6 -8l-44 -10l-68 13l-86 35l-65 -1l-24 -2l-22 -10l-8 16l2 6l15 3l7 12l-6 18l14 17l2 38l-6 20l8 20l-6 19l29 48l7 27l-7 12l12 6l-9 11l2 17l-9 3l-12 24l4 11l-17 20l4 8l-16 14l-1 40zM390 86l19 11 l36 -12l-14 -21h-7zM579 -17h7l5 -2h-6zM609 -21l21 7l-4 -3l-14 -4h-3zM654 -13l10 -1l8 -3h-9zM663 16l1 7h3l-3 -4zM683 -17l5 7l5 -3zM723 68v5l16 -5l2 -6zM739 16v4l9 7l4 -4zM753 29l4 2h1l-4 -4zM828 122l3 13l7 -7v-6l-5 6zM835 200l2 2v-3zM850 186l29 21l-12 -12 l5 -3l7 -6l-7 -5l-5 6zM853 135l1 1l10 3v-11zM854 157l10 13l-4 -7l-5 -6h-1zM864 159v3l7 1v-4h-7zM876 70l9 7v-5h-4zM897 80l7 10l-4 -8zM922 111l10 15l-1 -4l-5 -9zM932 187l11 -13l1 -15l-1 -20l-7 -9l7 33z"/>
        </symbol>
        <symbol id="Massachusetts">
            <title>Massachusetts</title>
            <path
                id="Massachusetts"
                transform="matrix(.2,0,0,-.2,-44,188)"
                d="M50 355l99 325l697 -31l37 25l22 31l24 2l52 32l22 -6l19 5l1 -27h-19l27 -22l13 -31l-21 16v-16l31 -18l-10 -2l4 -9l21 -3l7 -10v18l20 13l10 -28l-39 -26l-64 -24l-6 -13l13 7l5 -13l-28 -14l10 -18l-26 3l1 -38l-15 11l6 -11l-18 6l-6 -6l14 -9l-11 -4l3 -12l17 3 l-5 -13l14 -4l1 -17l35 9l-12 28l56 -40l55 -106l-18 -2l9 2l-12 24l-6 -26h-12l29 -27l27 -9l6 -59l10 -10l36 -23l46 -7l-19 -8l32 5l80 34l11 12l-11 45l12 3l-18 12l-10 -23l-14 75l-24 7l-6 -18l-26 21l9 14h24l37 -23l28 -34l24 -67l-17 8l-5 -30h19l-3 -59l-86 -8 l-33 -25l2 19l-47 -16l-10 11l-31 -39l-66 -15l14 24l-2 49l11 23l-8 7l-3 -12l-22 15v-28h-9l-10 -21l-13 6l-16 -14l2 -18l-22 19l-17 -49l-33 -11l-13 1l13 10l-7 14l-6 -14l-14 5l5 -9l-8 -7l-4 73l-21 7l28 60l-22 -34h-17l-6 -11l-33 35l-6 54l-11 5l-6 57l-493 10 l-3 -10l-15 -2v12l-245 15zM1020 -3l31 9l34 41l24 9l-3 -14l15 12l6 -13l-13 -8l22 -7l3 -26l-58 -3l-37 -20zM1142 15l17 20l3 -32l-3 -3zM1240 -36l71 13l9 19l-22 -19l16 31l-6 13l11 -7l20 -56l-36 -9zM1317 95l16 52l6 -11l-14 -39z"/>
        </symbol>
        <symbol id="Maryland">
            <title>Maryland</title>
            <path
                id="Maryland"
                transform="matrix(.2,0,0,-.2,-44,188)"
                d="M50 493l7 171h61l889 -6l26 -421l162 3l-7 -3l1 -8h-18l12 -6l-1 -14l12 -4l-5 -9l-14 -27l-10 -4l4 10l-14 -6l-8 -41l-20 -11l-7 -20l-63 -11l-6 -10l-36 1l-21 -13l3 21l-11 -2l36 42l-28 -8l22 20l-6 1l-37 -7l2 19l28 13l-21 12l12 48l-28 -54l-11 20l12 14l-1 6 l-8 -4l-10 -16v-26l-47 54l-4 -27l-27 51l10 10l7 -11l3 18l18 17l-6 4l-22 -8l9 12l-8 9l32 4v-11l30 -9l20 13l3 15l-17 -19l-14 7l-4 12l-17 -2l11 11l-12 -3l-5 16l-7 -10l-5 27l-15 -17v23l-7 -32l-11 -4l18 52l26 -22l17 1l1 13l-10 -8l-8 8l18 21l-11 6v7l-7 -6v14 l-17 10l-22 -19l2 -17l-8 5l8 48l20 -10l18 2v18l27 28l-28 -6l-10 -29l-14 40l24 54l14 16l72 3l-45 8l21 27l24 -5l-13 17l14 24l-45 -39l18 45l-13 -12l-23 -2l-10 -22l14 -12l-38 -32l-7 38l-7 -33l6 -12l-9 -10l-10 28l-23 -1l19 -13l-10 -14l-16 1l7 -19l-19 18 l10 -18l15 -7l-10 -10l-39 23l-11 -6l35 -34l7 5l11 -36l-25 7l28 -22l-15 -8l-22 27l-7 -6l33 -42l-26 10l17 -21l-17 -5l3 -14h14l-18 -28l11 -14v-58l31 -42l3 -20l-18 -4l-50 49l-12 62l2 -46l16 -40l28 -18l13 -20h20l-2 -21l17 -27l4 -35l-27 18l-12 34l-1 -24l-11 8 l-2 -11l-28 37h-39l-14 40l-14 12l10 -31l-1 -8l-12 4l-38 63l-11 -22l-7 17l-11 -26l-22 -2l-8 28l8 30l16 6l-3 9l14 6l7 19l23 13l-2 28l30 28l-35 37l-17 -20l-34 16l-10 21l-46 12l-16 24l14 18l-3 11l-24 18l-48 20l2 21l-15 9l9 17h-13l-4 14l-5 -7l-6 15l11 6l-4 8 l-30 -1l-44 33l-11 1l-24 -22l-41 -5l7 -7l-13 -5l6 -6l-10 -10h-28l-44 16l4 12l-8 10l-10 -24l-41 -37l-21 9l-14 -5l-51 -53zM935 150l13 5l6 -11h-13zM943 79l12 7l-7 17l10 -17l-4 -13zM1154 103l17 42l23 45l-25 -75zM1195 203l8 37h3l-6 -34z"/>
        </symbol>
        <symbol id="Maine">
            <title>Maine</title>
            <path
                id="Maine"
                transform="matrix(.2,0,0,-.2,-44,188)"
                d="M100 386l13 8l12 -22l12 36l13 -7l10 3l-11 19l18 28l25 11v15l20 24l-6 10l1 18l8 12l-4 14l14 26l15 13l7 53l102 141l23 -5l3 -30l11 -9l8 -8l49 25l12 -5l16 14l39 -26l26 -26l6 -223l-5 -37l29 -18l23 -5v-10l-10 -9l10 -21l-4 -22l18 -19l8 8l15 -4l17 -37l-3 -6 l-8 2v-11l-11 4l6 -19l12 14l4 -11l-3 12l12 -13l-27 -33l-12 1l-2 -5l-5 17l-11 -3l7 -14l-7 -7l-5 12l-1 -10l-16 7l-4 -22l-10 7l-7 -13l-1 19l-9 -13v13l-5 -3l-9 -34l-1 17l-4 -16l-5 17l-8 -5l8 -13l-11 -15l-8 29l-6 4l-3 -7l-3 13l-2 -11l-11 11l2 -15l-12 4l-7 -13 l-2 17h-7l3 -18l-3 4l-11 -2l5 -32l-28 16l-11 -2l2 10l15 8l-6 6l-11 -7l9 25l-7 6v-17l-25 -11l7 -18l-17 -35l1 -15l-19 -11v-10l-10 -3l5 15l-13 -12l4 6h-11v15l-18 -42l-4 11l1 24l-9 -14l-1 -18l-8 2l3 12l-3 6l3 13l-18 -26l3 -11l5 4l-8 -17l-1 56l-14 -15l1 -4 l6 5l6 -47l-6 -8l-7 32v-11l-16 -13l7 19l-13 -15l11 19l-8 -4l4 5l-28 -17l-8 -19l-7 -2l11 -6v-10l-18 -6l-5 -13l6 -3l-29 -22l-20 -48l-8 4l-5 -5l-9 17l2 15l-19 29zM304 105v12l1 -1zM393 156l15 -6l-3 -9l-10 4zM419 165l5 22l6 -8l-5 -4l5 -10h-11zM455 194l9 21 l12 4l14 -17l-3 -8h-16l4 -11l-6 -4z"/>
        </symbol>
        <symbol id="Michigan">
            <title>Michigan</title>
            <path
                id="Michigan"
                transform="matrix(.2,0,0,-.2,-44,188)"
                d="M50 681l56 37h54l19 36h17l39 19v-19h17l-17 19l36 37h38q-19 -18 -38 -37l-19 -37l-17 -18h17l19 18h38l17 -18l20 -37l17 -17l18 17l18 -17h19l56 37h55l55 17v-54h56l18 -19v19l18 -19v-19l-18 19v-19h18v-18h19h36v-18l-36 18v-18l-55 18l-20 -18v18l-19 -38l-17 38 h-55l-18 -18h-56v-20h-18l-19 -36v56l-19 -20v-19h-18l-55 -72h-17v36h-19l19 36l-38 19v20l-36 18h-39l-17 18l-92 38l-19 17h-18zM399 0l19 19q19 55 37 110l-37 130l19 36v36l18 37v37l19 19v18l18 19v-19l37 37l-18 -37l18 -18l19 37v37l36 17l-19 19l19 17v19h17h19h20 v-19h18l18 -17h19l56 -36v-19l-20 -18l20 -19v-74l-20 -19v-18l-36 -19v-36l36 -17v17h20v36h17l18 19l37 -19v-17l37 -110l-18 -56h-19l-19 -19v-17l-18 -19v-37l-35 -37h-352zM474 461v18h18v-18h-18zM658 664v17h18z"/>
        </symbol>
        <symbol id="Minnesota">
            <title>Minnesota</title>
            <path
                id="Minnesota"
                transform="matrix(.2,0,0,-.2,-44,188)"
                d="M50 768l175 -6l3 -18l26 13l13 -15h12v-12l9 -8l67 -14l11 -15l24 1l5 8l18 5l27 -3l28 -10l-5 -11l19 -2l12 -29l6 3l2 11l19 3l8 -15l23 -7l4 -12l10 -5h30l35 25l13 -21l56 8l20 -16l12 4l21 -3l-114 -56l-62 -70l-55 -44l-12 -20h-6v-80l-39 -26l-21 -29l3 -17l13 -1 l8 -19l-8 -21v-19l-5 -9l5 -19l-6 -22l23 -22l19 -5l9 -14l20 -5l44 -49l27 -8l10 -16l6 -55l-263 -1l-260 6l10 250l-8 12l-14 7l-14 22l28 33l4 43l-18 68l3 39l-5 10l2 84l-22 74v54l5 16zM245 782v28l14 -1l2 -8l-4 -13z"/>
        </symbol>
        <symbol id="Missouri">
            <title>Missouri</title>
            <path
                id="Missouri"
                transform="matrix(.2,0,0,-.2,-44,188)"
                d="M50 744l1 9l236 -17h309l40 -43l-12 -36l9 -55l12 -27l78 -79l11 -49l12 -20l11 1l15 13l42 -25l-33 -86l2 -22l33 -35l27 -11l56 -50v-22l15 -27l-15 -24l23 -38l13 -8l-4 13l8 3l11 -19h8l-1 -39l-11 -32l-23 9l-14 -31l-4 18h-9l6 -30l-15 -10l11 -12l-20 -2l12 -21 l-16 -26l-93 -1l9 23l34 30l1 15l-14 22l-639 13l24 472l-31 12l-7 31l-28 29l20 32h15v16l-10 13l-20 -5l-42 31l-7 38l-24 15l-4 36z"/>
        </symbol>
        <symbol id="Mississippi">
            <title>Mississippi</title>
            <path
                id="Mississippi"
                transform="matrix(.2,0,0,-.2,-44,188)"
                d="M50 127l12 7l-11 36l18 5l6 21l-6 14l14 12l14 43l39 30l-3 20l11 2l19 29l-30 25l3 17l-10 13l14 10l-12 12l13 26l-13 9v21l12 9l-4 19l-10 7l10 25l-15 17l8 2l3 10l-11 6l26 22l-2 12l3 8l-7 11l31 11l-9 16l10 9l9 13h5l2 14h12l13 8l4 50l11 1l5 16l25 16l-5 15 l271 -3h23l12 -14l-52 -508l12 -257l-10 -8l-18 14l-22 -7l-25 16l-8 -5l16 -2l-54 -16l-13 11l-5 -6l6 -6l-16 -10l-3 -9h-17l-15 44l-19 19l-7 20l15 51zM412 -9l13 4v-2l-4 -7zM469 -5h9l22 -5l-31 3v2zM508 -9l8 -1l-6 -3z"/>
        </symbol>
        <symbol id="Montana">
            <title>Montana</title>
            <path
                id="Montana"
                transform="matrix(.2,0,0,-.2,-44,188)"
                d="M50 543l10 125l500 -23l495 15q37 -498 37 -503l-310 -14h-318l-1 -64l-28 34l-12 -14l4 -12l-69 4l-16 -12l-34 5l-6 -16l-14 12l-14 39l-24 14v20l-23 39l-4 37l-17 12l-30 -25l-20 13l2 24l14 16l-8 32l22 64h-22l-8 12l-8 -6l-45 74l-33 26l9 4l-5 10l1 18z"/>
        </symbol>
        <symbol id="north_carolina">
            <title>North Carolina</title>
            <path
                id="north_carolina"
                transform="matrix(.2,0,0,-.2,-44,188)"
                d="M50 298l7 41l30 5l9 24l17 15l53 5l46 30l24 5l15 26l11 -6l23 23l10 -17l48 31l20 -9l24 33l24 6l7 42l199 -17l550 8v-13l8 -7v-4l7 -6v10l18 -57l-24 37l8 -23l-37 24l18 -25l-14 -6l-17 15l9 -21l-33 19l22 -20l-37 -15l-14 7l-4 22l4 17l-8 6l-2 -32l10 -20l-4 -9 l40 7l22 -9l-3 7l31 2v-31h-9l13 -15l-15 -2l15 -7l4 40l7 6l9 -7l-4 9h10l-2 7l16 -24v-31l-14 -11l-6 11l-18 -39l-17 -11l-27 9l-2 -9l-8 19l-9 -12l-13 17l15 7l-24 -3l7 -21l-62 21l13 -17l66 -24l-26 -18l15 2l2 -10l-30 -22l-42 26l18 -28l28 -12l16 14l12 -9l-4 9 l11 -2l5 17l-1 -22l18 7l-5 8l12 -10l-31 -38l-15 13l-2 -19l-7 15l-13 -7l11 -4h-27l-26 -9l-6 13v-13l-24 -20l-10 5l9 9l-15 17l7 -18l-9 -6l9 -15l-6 -2l12 2l-24 -11l-15 -14l8 9l14 12l-11 -5l-25 -24l-26 -64l2 27l-8 15l4 -31l-13 -19l-46 10l-26 -15l-149 155 l-153 7l-1 20l-19 28l-17 -8v13l-178 15l-99 -31zM906 94l3 5l10 6l-6 -13zM1031 226l26 9l22 2l7 -2h-18zM1092 235l11 -3l5 -6h-3zM1110 221l15 31l26 28l-24 -30zM1160 285v4l3 2zM1163 291l4 7h6zM1171 543h11l2 -8h-9zM1175 300l5 7l28 15q-22 -15 -33 -22zM1187 543 l12 -37l12 -31l28 -56l-28 38l4 1l-18 45zM1211 443l10 -1l5 -17l-5 2zM1213 320l30 19l-4 -12zM1239 418l11 -31l-5 -41l-2 -6l3 43zM1243 339v1v-1z"/>
        </symbol>
        <symbol id="north_dakota">
            <title>North Dakota</title>
            <path id="north_dakota" transform="matrix(.2,0,0,-.2,-44,188)" d="M50 94l26 588l429 -12l437 10l17 -67l-5 -21l8 -77l38 -101l10 -117l10 -13l-2 -55l29 -61l9 -72l-501 -14z"/>
        </symbol>
        <symbol id="Nebraska">
            <title>Nebraska</title>
            <path
                id="Nebraska"
                transform="matrix(.2,0,0,-.2,-44,188)"
                d="M50 305l14 305l309 -11h316l56 -30l18 13l64 5l19 -16l49 -14l8 -20l15 -5l11 -2l8 -48l34 -57v-37l10 -2l-1 -8l10 -6l-3 -17l11 -3l-6 -13l8 -6l3 -71l20 -31l8 -31l21 -8l7 -31l13 -7l-393 -14l-400 3l4 152z"/>
        </symbol>
        <symbol id="new_hampshire">
            <title>New Hampshire</title>
            <path
                id="new_hampshire"
                transform="matrix(.2,0,0,-.2,-44,188)"
                d="M50 54l9 28l10 11l8 77l8 12l3 80l15 16l6 34l21 20l6 30l19 28l-4 9l14 30l3 55l13 18l29 2l38 32l16 20l3 17l10 5l-19 47l27 48l-5 32l27 64l-8 7l28 20l33 -15l16 18l3 -16l32 -519l-6 -52l35 -46v-26l19 -24l-3 -7l11 2v-5l-22 -52l-26 2l-33 -22h-16l-13 -19 l-23 -16l-263 9l-20 32z"/>
        </symbol>
        <symbol id="new_jersey">
            <title>New Jersey</title>
            <path
                id="new_jersey"
                transform="matrix(.2,0,0,-.2,-44,188)"
                d="M50 154v7h7v17l-7 18l34 69l25 8l45 9l16 17l-8 17h8l43 36l44 24l7 9l-60 70l-7 16h-9l-18 43l-25 9v60l9 16h16l8 26l-16 36q26 25 51 51l17 52l18 17l25 7l206 -119l-8 -27q-19 -52 -25 -68l-27 -17v17l-17 -27l-17 -33v-26l17 -8h17l36 -17l7 8v-44l-16 -68v-18 l-1 -7l-10 18v-20l-16 -7l9 -9l-9 -8l9 -9l-17 -42v-28l-43 -51l8 -17l-16 17h-8v-33h-20v-11v-7h11l-11 7l20 -7h-9l9 -17l-36 -16l8 16v8l-17 -24h-16l-10 -10h26l-26 -26l-8 -27h-16l16 -8l-25 -26v-7l-27 -20l-17 -7v34l17 26l-8 26h-25l-10 9l-24 -9l-9 18l-19 27h-17 l-8 16l-8 -9zM352 127l8 18h16l-16 -18h-8zM385 170l43 79l-9 -36l-24 -35zM428 257l15 64l-8 -64h-7zM443 321l2 13l1 -2z"/>
        </symbol>
        <symbol id="new_mexico">
            <title>New Mexico</title>
            <path id="new_mexico" transform="matrix(.2,0,0,-.2,-44,188)" d="M50 -1l34 746l319 -12h317l2 -655h-401l10 -23l8 -7l-193 7l-4 -60z"/>
        </symbol>
        <symbol id="Nevada">
            <title>Nevada</title>
            <path id="Nevada" transform="matrix(.2,0,0,-.2,-44,188)" d="M50 423l17 336l247 -11l249 2l10 -648l-5 -16l-6 -2l-16 13h-18l-16 -6l9 -64l7 -35l-4 -23z"/>
        </symbol>
        <symbol id="new_york">
            <title>New York</title>
            <path
                id="new_york"
                transform="matrix(.2,0,0,-.2,-44,188)"
                d="M50 262l3 47l84 50l16 24l21 11l-5 35l7 13l-23 10l1 32l92 16l81 -12l21 -18l29 7l51 -11l4 10l29 5l38 33l20 -2l11 12l1 13l-3 -3l-10 37l8 9l2 -9l21 27l-19 -4l11 13l-11 5l-12 -8l-7 17l65 43l20 37l57 48l51 25h190v-10l-1 -60l10 -30l-5 -37l-14 -32l10 -49 l-7 -31l2 -7l14 9l5 -13l3 -142l-31 -117l-6 -143l10 -12l-33 -21l11 -18l-23 -22l2 -8l-16 -2l-11 -18l17 55l-8 52l-7 -9l10 -48l-106 64l-6 12l-33 13l-9 19l-1 38l-24 10l-11 22zM160 434l1 11l13 -6l-8 -10zM519 592l9 13v-6l-2 -1zM537 646l2 3l7 2l3 -2zM551 657 l16 5l-6 -5l-8 -8zM782 -26l9 23l15 2v-10zM809 -1l16 23l23 2v8l3 -3l2 13l9 -11l4 14l18 -1l5 10l10 -9l-5 9l25 -7l14 10l66 4l37 30l13 -2l-50 -42h23l18 23l18 -1l1 7l9 -10l34 13l-116 -55l12 7l-145 -37l18 -4l-46 -6l23 10l-10 7l-10 -4l3 -7l-17 -4zM874 -6 q39 9 44 10l-22 -8zM911 -1l68 25l-49 -23l-19 -4v2zM1078 114l12 5l-7 -7h-2z"/>
        </symbol>
        <symbol id="Ohio">
            <title>Ohio</title>
            <path
                id="Ohio"
                transform="matrix(.2,0,0,-.2,-44,188)"
                d="M50 146l18 544l210 2l59 -23l15 -17l16 -1l6 11l24 -17l-56 -9l21 -8l20 9l29 -9l-12 13l21 -17l15 -3l66 24l46 -2l60 49l130 56l7 -279l-24 -13l11 -21l-4 -23l4 -13l-20 -50l-2 -32h-8l2 -11l-11 -21l5 -11l-5 -21l-56 -49l-23 -11l-9 13h-8l-15 -13l-4 -15h-16 l-12 -21v-15l-11 -3l8 -10l3 -20l-11 2l-11 -17l-8 24l-9 6l-9 -4l-25 -45l6 -36l-19 -5l-7 -30l-44 -6l-16 24l-21 12l-13 33l-21 -7l-20 -21l-25 -2l-9 12l-26 11l-17 -6l-4 -9h-11l-25 28l-17 4l-18 -2l-21 11l-15 41l-24 19l-28 -5l-15 15z"/>
        </symbol>
        <symbol id="Oklahoma">
            <title>Oklahoma</title>
            <path
                id="Oklahoma"
                transform="matrix(.2,0,0,-.2,-44,188)"
                d="M50 546l4 73l496 -15l492 7l2 -74l26 -165l4 -253l-48 15l-14 14l-30 15l-17 -15h-17l-13 13l-21 -15l-20 3l-40 -20l-7 -8l-32 21l-1 7l-19 -7l-21 15l-18 -13l-8 -22l-9 27l-27 -12l-25 26l-25 -19h-10l-4 19l-16 3l-2 18h-30l-18 -10l-12 13l-16 -4l-56 15l-1 13 l-21 22l-6 -14l-31 2l-27 30h-12l4 282z"/>
        </symbol>
        <symbol id="Oregon">
            <title>Oregon</title>
            <path
                id="Oregon"
                transform="matrix(.2,0,0,-.2,-44,188)"
                d="M50 239l13 24l8 34l4 3l1 -9l8 15l6 -5l-3 13l-12 -12l11 30l5 10l-4 -3l10 70l4 14l4 -2l-5 6l4 19h4l-4 3v22l9 38l-1 21l7 9l-4 4l2 12l2 -8l5 2l-7 9l7 13l-5 -2l-4 11l1 21l5 10l-4 22l14 -7l-3 3l7 1l6 -2l16 5l8 -10l8 -1l10 4h7l18 -14l11 -48l38 -12l38 18 l42 -3l11 -9l21 1l22 11h32l53 23l40 3l7 7l174 5l11 -19l17 -8l9 -21l-28 -67v-13l-15 -20l-13 -41l2 -13l18 -1l8 -11l-7 -8l3 -10l-7 -23l11 -215l-307 -5l-323 7l-12 14l-5 27l4 35zM91 342l7 -3l-5 4zM131 626l1 -7l2 4z"/>
        </symbol>
        <symbol id="Pennsylvania">
            <title>Pennsylvania</title>
            <path
                id="Pennsylvania"
                transform="matrix(.2,0,0,-.2,-44,188)"
                d="M50 137l13 445l44 19l21 16l-7 -10l53 27v-52h647l12 -10l3 -11l23 -10l6 -46l11 -18l37 -11l6 -17l-12 -5l-23 -40l-27 -27l12 -24l-6 -15l-13 -8v-12l1 -24l17 -2l8 -28h8l38 -46l-56 -42l-3 -14l-44 -18l-25 5l-16 -8l-10 -17h-55z"/>
        </symbol>
        <symbol id="rhode_island">
            <title>Rhode Island</title>
            <path
                id="rhode_island"
                transform="matrix(.2,0,0,-.2,-44,188)"
                d="M50 113l8 66l9 20l8 4l8 91l-1 451l281 5l8 -111l27 -5l-4 -84l14 -15l37 -29l20 -35l-3 -28l-17 -14l-22 -5l-6 23l16 59l-10 5l-6 -30l-18 10l-14 12l-11 42l-13 24v-69l15 -17l6 -11l-16 -32l-12 12l-15 5l-17 -16l17 -9l11 -35l-4 -17l-23 -34l15 -33l1 -46l-1 -17 l-43 -91l-7 -3l-32 11l-31 -2l-116 -41zM205 -22l6 20l17 9v23l12 -4v-29l12 -24l-16 -11l-20 -2l-8 7zM353 250l1 32l12 12l-8 8l11 46l14 -8v-27l-9 -52l-16 -17zM385 239l4 19l28 16l-11 24l11 23v19l20 24l8 33l33 28l-10 -48l-3 -99l3 -9l-22 7l-25 -30l-13 4l-17 -15z M485 373l2 39l9 29l44 -16l-8 -48l8 -13l4 -73l-42 -40l-10 31l4 16z"/>
        </symbol>
        <symbol id="south_carolina">
            <title>South Carolina</title>
            <path
                id="south_carolina"
                transform="matrix(.2,0,0,-.2,-44,188)"
                d="M50 637l10 27l40 42l73 16l13 13l50 11l8 10l3 -4l261 -13l2 -21l23 11l29 -36l1 -33l225 -6l220 -216l-6 -2l6 -8l-38 -17l-35 -32l-38 -56l-10 -48l-6 19l-11 4l15 31l-7 -8l-14 -27l23 -28l-7 -10l-10 6v-10l-13 8l9 -12l-15 -11l-4 -12l-21 -5l-6 11l-13 -6l-8 -19 l4 -5l8 5l-4 -5l-48 -39l-17 10l3 13h-11l4 -17h-8l21 -10l-2 -9l-15 -12l-15 -2l3 -9l-34 -10l-17 14l11 -16l-25 -19l-7 12l-6 -14l-31 21l2 -11h-29l-1 -6l42 -4l-23 -5l27 -8l-18 -17l23 15l-7 -21l-35 -15l-4 47h-5v-38l-16 14l-6 32l-15 12l14 -54l23 -25l-29 -25 l9 23l-2 10l-21 -52l-23 13h-15l-17 25l6 31l-14 40l-42 35v28l-19 44l-4 27l-50 29l-2 13l-15 12l2 11l-17 14l-2 27l-25 25l-23 9l-19 40l-60 46l-7 21l-23 29l-25 69l-37 10l-24 28zM853 224v9l4 4v-4z"/>
        </symbol>
        <symbol id="south_dakota">
            <title>South Dakota</title>
            <path id="south_dakota" transform="matrix(.2,0,0,-.2,-44,188)" d="M50 186l24 428l382 -11l378 7l-8 -25l-21 -24l15 -27l16 -3l12 -14l12 -262l-15 -1l8 -16l-5 -23l10 -1l2 -13l-15 -55l11 -12l8 -20l-16 3l-10 17l-45 16l-17 13l-62 -2l-17 -15l-51 31h-301z"/>
        </symbol>
        <symbol id="Tennessee">
            <title>Tennessee</title>
            <path
                id="Tennessee"
                transform="matrix(.2,0,0,-.2,-44,188)"
                d="M50 297l36 22l-6 39l30 28l-4 32l32 16l-4 14l12 -5l-5 26l14 19l-11 18l19 1l-9 14l13 7l-2 19l9 -10l8 10l191 -6l-1 33l31 -9l572 -6l275 10l-6 -46l-24 -5l-23 -35l-19 6l-49 -35l-8 17l-24 -23l-16 4l-9 -29l-26 -5l-43 -34l-56 -12l-17 -14l-9 -28l-29 -5l-5 -41 l-335 -3z"/>
        </symbol>
        <symbol id="Texas">
            <title>Texas</title>
            <path
                id="Texas"
                transform="matrix(.2,0,0,-.2,-44,188)"
                d="M50 448l249 -10l11 371h199l1 -158l26 -15h15l3 4l16 -17l38 -6l6 -9l27 9l13 -20l17 8l16 -14l16 10l4 -16l15 19l10 -7l10 4l22 -13l27 16l9 -3l14 6l15 -3l8 9l60 -31l24 3l8 -129l17 -15v-17l28 -43l-15 -39l6 -41l-15 -20l6 -11l-14 -4l-48 -31l3 12l18 7v2l-26 -5 l4 19l-9 -7l-12 3l10 -25l7 -6h5l-22 -21l17 18v3l-20 -13v-10l-18 -18l-37 -18v-1l15 5l-35 -22l16 17l-16 -7l6 4l-4 4l-13 -4q-5 8 -6 8l4 -8q0 -2 -6 -9l2 9l-13 4l11 -16l-5 -6l10 -1l-16 -9l-10 10l1 -17l-9 -9l-4 -2l-4 9l-12 -7l3 -12l9 9l-12 -23l-25 3l21 -16 l-13 -32l-8 -3h8l-8 -22l6 -8l-6 -6l21 -58l9 -1l-2 -7l3 3l4 -5l-14 -7l-2 -9l-23 18l-39 2l-49 22l-20 2l-10 33l-18 21l-5 45l-24 12l-18 30l-15 15l-29 69l-40 38l-8 -2l-7 17l-52 3l-12 5l-6 -8l-20 -2l-12 -42l-21 -23l-17 4l-77 52l-33 83l-30 19l-81 87zM685 54h16 l4 12l-9 -10l-11 14l9 -14zM709 44q2 2 5 3l18 -88l-21 59zM711 49l11 35l14 21l-10 -21l-4 -10zM738 105l7 20l3 1v-3v-4zM748 123l7 11l25 11l-22 -11zM783 153l11 5l-6 -4z"/>
        </symbol>
        <symbol id="Utah">
            <title>Utah</title>
            <path
                id="Utah"
                transform="matrix(.2,0,0,-.2,-44,188)"
                d="M50 3l21 745l42 -2l292 -3v-148l226 3l15 -595l-298 -5zM183 638l5 -2l7 9l8 -9l7 -13l1 -27l15 -10l9 -16l6 16l10 -35l7 -3l18 13l7 15l22 14l-20 15l-17 30l-7 1l9 10l16 -1l5 8h-25v8l-13 2l5 -33l-8 -5l-10 33l-14 2l-10 10l4 21l-9 7l-10 -7l-18 -5l5 -6l-5 -5 l8 -30zM235 600l1 1l2 -3l-2 -3zM253 621l5 2l3 -8zM270 590v16l8 -15v-15z"/>
        </symbol>
        <symbol id="Virginia">
            <title>Virginia</title>
            <path
                id="Virginia"
                transform="matrix(.2,0,0,-.2,-44,188)"
                d="M50 176l68 19l9 15l25 5l26 36l43 22l47 38l3 -26l43 -27l27 19l18 -14l44 10l3 14l14 -5l27 12l9 -7l20 14l9 17l-7 10l61 90l19 52l14 -6l3 -15l27 -9l36 67l16 -9l54 57l10 44l58 -44l15 27l21 -3l14 -13l-6 -15l28 -12l27 -23v-24l-12 -7l-2 -10l-8 1l-9 -37l-7 5 l11 -10l-9 -4l40 9l3 -9l-7 -3l15 -17l26 -10l17 1l9 -20l35 -17v-14l-12 5l5 -34l-20 10l-5 -8l-55 68l-15 12l-9 -2l24 -12l52 -68l30 -10l-12 -7l19 -3l-2 -29l-18 20l-4 -19l9 -6l-11 -4l-42 41l-2 -3l34 -38l19 -5l10 -13l-3 -6l8 -1l-5 -14l-13 -5l-30 37l-11 -5 l-16 21l-10 -14l-9 14l-4 -7l3 2l7 -9l29 -12l8 5l3 -22l23 -14l-7 -15l19 5l10 -5l-2 15l41 -5l19 -58l-16 30v-30l-10 7l2 -7l-254 -3h-258zM851 268l24 -5l4 2l-26 10zM1008 273l10 46l14 11l2 20l15 5l-9 10l12 16l33 3l-7 -17l-20 -59l-7 -6l-6 9l-5 -7l5 -2l-11 -8 l-5 -33l6 11v-9l-1 -3h-6l-1 -9l-4 7l-7 -12zM1018 156l5 2v-6h-1zM1044 287l4 4l-3 -6zM1048 291l1 3l2 1zM1081 362l19 27l-10 -24l-4 -3h-5z"/>
        </symbol>
        <symbol id="Vermont">
            <title>Vermont</title>
            <path
                id="Vermont"
                transform="matrix(.2,0,0,-.2,-44,188)"
                d="M50 306l17 60l-17 98l14 48l14 16l-2 41l11 31l-21 61l12 57l-11 24l11 30l-2 22l455 4l-7 -14l6 -27l-25 -33l-6 -22l23 -50v-7l-10 -3l-2 -18l-19 -25l-45 -35l-30 -2l-16 -22l-2 -60l-17 -38l5 -8l-20 -32l-9 -34l-23 -24l-7 -38l-13 -20l-4 -88l-8 -17l-11 -85 l-12 -12l-8 -34l3 -16l19 -36l-201 9l-9 20l13 259l-16 25h-11l-16 -19z"/>
        </symbol>
        <symbol id="Washington">
            <title>Washington</title>
            <path
                id="Washington"
                transform="matrix(.2,0,0,-.2,-44,188)"
                d="M50 494l11 32l-8 12l96 -46l84 -12l18 12l-6 -6l16 -20l15 11l5 -21l6 9l-6 14l14 4l-2 -11l21 -38l-25 -36v30l-4 -12l-4 8l2 -14l-42 -72l12 -2l30 16l-28 -12l-8 4l22 38l24 12l18 34l8 -6l-5 24l9 -7l8 -29l-10 -2l-6 -10l-7 9l7 -29l-12 14l-1 -6l7 -8l-6 -10l16 10 l6 -12l-8 -48l-15 8l7 14v6l-12 -12l-6 -32l-4 42l-22 -40l-12 -6l-2 -2h8l-8 -8l18 16l-10 -18l10 10l4 -16l6 20v-6l4 6l12 -12l20 20l6 20l13 -10l13 18l-10 40l9 -1l1 6l-12 11l5 26l12 27l15 15l-20 12l-1 25l-9 3h6v12l-18 14l-4 12l-10 -6l-3 5l-3 13l9 3l7 -10v6 l10 -6l-10 24l13 -6l3 3l-6 33l-10 5l-12 -7l-7 34l-7 4l8 4l-1 6l364 -2l339 10l23 -490l14 -20l6 -18l-6 -12l12 -18l-278 -11l-12 -9l-61 -6l-12 -10l-37 -7l-38 -19l-52 -2l-36 -16l-32 -4l-16 16l-68 4l-63 -28l-60 16l-8 62l-22 30l-18 11l-24 -5l-18 20h-21l-11 8 l-22 -9l-19 12l-12 -6l9 67l7 -31l3 10l4 -8l-2 -6l-5 3l3 -15l6 9l10 -3l-12 9l3 15l-5 14l8 -5l2 19l7 -6l9 1l-16 12l-26 -1l-5 34l12 -14v12l29 10l-22 6l-13 14l-12 -22v48l-14 32l-3 54l-36 67zM247 570l10 3l12 -18l2 -12l-20 7zM259 641v4h8l-2 -2zM267 579l10 12 h10l12 -10l-8 -11l-10 19l4 -19l-8 -1l-6 7l-2 -6zM271 314l10 12l-2 -6v-16zM276 547l7 16q5 -24 6 -28zM293 300l6 4l4 -4l-4 -6zM297 500l12 29l10 2l9 -20l-11 4l-15 -15l17 -8l4 -36l5 16l15 -13l-2 -20l-10 15h-10l-6 31h-7zM302 477l1 -3l5 -8l-5 -7zM302 564l1 6 l6 -7l-1 -4zM305 591v4l9 -10l3 -6zM317 382l4 20l7 -20v-6zM323 332l2 22l6 10l4 -18l8 -6l-14 -8l5 10l-3 2zM328 500h9l-3 -14l13 -20l-18 14z"/>
        </symbol>
        <symbol id="Wisconsin">
            <title>Wisconsin</title>
            <path
                id="Wisconsin"
                transform="matrix(.2,0,0,-.2,-44,188)"
                d="M50 542v23l22 36l36 20h9l9 8l2 102h8l15 19l16 -16l21 2l46 14l24 18l12 -5l18 14l10 5l8 -5l6 -9l-22 -50l19 5l3 11l22 -17l20 -2l3 -9l19 -5l13 -31l123 -33l34 -18l37 -2l43 -12l12 -13l-2 -14l27 -7l11 -11l1 -34l-9 -21l25 2l-5 -34l16 -14l-6 -20l-24 -14 l-24 -60l8 -6l8 2l20 20l22 33l16 7l14 -14l-24 -84l8 -22l-18 -18l-11 -29l5 -41l-24 -78l2 -42l17 -42l-1 -51h-370l-6 25l-40 10l-10 15l-10 64l10 27l-14 10l-5 18v46l-5 34l-14 16l-31 9l-19 17l-16 32l-20 18l-23 8l-13 19l-24 5l-27 25l9 31l-6 26l6 9v29l14 22 l-10 26zM286 784l4 5l3 -3l-3 -4zM307 745l25 20l2 -6l-18 -10zM311 777l3 4l6 -4v-4zM325 773l16 6l-3 -4v-5zM346 786l8 14v-11zM727 421l1 13l13 16l3 21l15 6l11 17h6l2 -7l-8 -2l1 -18l-7 2l7 -7l-17 -23l1 -7l-19 -23zM778 503l4 12l10 -1l-1 -11h-13z"/>
        </symbol>
        <symbol id="west_virginia">
            <title>West Virginia</title>
            <path
                id="west_virginia"
                transform="matrix(.2,0,0,-.2,-44,188)"
                d="M50 213l12 22l-1 42l47 4l11 35l18 5l-3 40l30 52l10 5l11 -8l8 -28l14 18l11 -4l-9 35l14 6v16l12 22h18l8 17l14 15h10l9 -15l27 13l64 53l10 21l-7 12l13 24v13l9 2l4 35l25 58l-5 16l5 19l-11 34l27 9l-3 -222h193l-2 -123l37 24l33 38l11 3l17 -6l27 27l6 16l7 -5 l-2 -9l13 -5l41 -5l5 6l-3 7l6 3l-3 6l27 4l19 17l38 -26l24 4l3 -8l-8 -3l4 -13l4 8l2 -12l11 2l-8 -13l11 -6l3 -22l-17 -46l-92 73l-15 -45l-3 -25l-29 -41l-18 -15h-13l-22 -33l-24 13l-53 -102l-43 14l-6 20l-19 6l-30 -76l-21 -21l-17 -43l-39 -45l-17 -31l14 -15 l-17 -12l2 -13l-29 -21l-16 11l-40 -22l-20 11l-7 -23l-67 -17l-23 23l-39 -32l-20 2l-34 20l-27 43l5 16l-29 8l-33 29l-33 62l2 9z"/>
        </symbol>
        <symbol id="Wyoming">
            <title>Wyoming</title>
            <path id="Wyoming" transform="matrix(.2,0,0,-.2,-44,188)" d="M50 26l49 723l440 -23l458 -4l5 -361l4 -362l-489 4z"/>
        </symbol>
        <symbol id="DC">
            <title>DC</title>
            <path id="DC" transform="matrix(.2,0,0,-.2,-44,188)" d="M50 481l192 286l533 -342l-289 -447l-28 142l-66 197l-150 52l-41 35z"/>
        </symbol>
        <symbol id="usa">
            <title>USA</title>
            <path
                id="usa"
                transform="matrix(4,0,0,4,-44,188)"
                d="m 283.61143,242.34506 0,0.08 -0.12,0 0.08,-0.08 0.04,0 z m -0.48,0.12 0,0.04 0,-0.04 z m 0.36,-0.04 -0.04,0.04 0,-0.04 0.04,0 z m 0.64,-0.28 -0.04,0 0.04,-0.08 0,0.08 z m 0.08,-0.08 -0.04,0.08 0.04,-0.12 0,0.04 z m 0.12,-0.08 0.04,0 -0.04,0 z m 0.12,-0.04 0,-0.04 0,0.04 z m 0.04,-0.04 0,-0.08 0,0.08 z m -0.84,0.32 0.04,0.08 -0.08,0.04 0.04,-0.04 0.04,0 -0.04,-0.08 z m 0.28,0 0.04,-0.04 -0.04,0.04 z m -0.2,0 -0.04,0 0.04,0 z m 0.2,-0.04 -0.08,0 0.08,0 z m -0.08,0.04 0,0.08 -0.12,-0.16 0.08,0.04 0.04,0.04 z m 0.16,-0.68 0,-0.04 0,0.04 z m 0.76,-0.28 0,-0.12 0,0.04 0,0.08 z m -0.08,0.28 -0.16,0.28 0.16,-0.36 0,-0.04 0.08,-0.04 -0.08,0.16 z m 0.08,-0.56 0,-0.04 0,0.04 z m -6.68,-4.04 -0.6,0.16 -0.04,0 0.52,-0.16 0.16,0 -0.04,0 z m 4.08,2.48 -0.04,0 0.04,0 z m -13.56,0.92 0.12,-0.24 0.04,-0.04 0,0.04 -0.16,0.24 z m 0.64,-0.6 0.04,-0.04 0.08,-0.08 -0.12,0.12 z m 14.68,-1.32 -0.08,-0.04 0.08,0.04 z m -14.76,1.4 -0.24,0.16 -0.16,0.12 0.08,-0.12 0.32,-0.24 0,0.08 z m 14.68,-1.8 -0.04,0.16 0.04,0.2 -0.12,-0.24 0.12,-0.12 z m -1.96,0.16 0.04,0 -0.04,0 z m 0,0 0,-0.04 0.04,0 -0.04,0.04 z m -7.64,0.6 0.04,0 -0.04,0 z m 0.24,-0.08 0,0.08 -0.12,0 0.12,-0.08 z m 0.24,0 -0.08,0 0.08,0 z m 0.12,0 -0.04,0 0.04,0 z m -4.2,0 0.04,0 -0.36,0.24 0.28,-0.24 0.04,0 z m 4.44,-0.2 0.04,-0.08 0,0.08 -0.04,0 z m -0.44,0.04 0,-0.04 0.08,0 -0.08,0.04 z m 0.52,-0.12 -0.04,0 0.04,0 z m -0.2,-0.16 0.12,0 0,0.04 -0.12,-0.04 z m 0.84,-0.08 0.04,-0.04 0,0.04 -0.04,0 z m 0.08,-0.04 0.04,-0.08 -0.04,0.08 z m 7.76,2.88 -0.08,0 0,-0.04 0.08,0.04 z m -0.08,-0.04 0,0.04 -0.08,0 0,-0.04 0.08,0 z m -0.12,0 0,0.04 0,-0.04 z m -0.12,0 0,0.04 -0.04,-0.04 0.04,0 z m -0.52,-0.52 0.12,0 -0.16,0 -0.08,-0.04 0.12,0.04 z m 0,-0.04 -0.12,-0.16 0.08,0 0.04,0.16 z m -0.56,-0.8 -0.12,-0.08 0.12,0.08 z m -13.72,2.56 -0.2,-0.72 0,-0.32 0,-0.12 0,0.28 0.2,0.88 z m 14.12,-1.84 0,-0.08 0,0.08 z m -0.04,-0.12 0,0.04 0,-0.12 0,0.08 z m -14.12,0.36 -0.08,0.16 -0.08,0.28 0.08,-0.44 0.08,0 0.12,-0.2 -0.12,0.2 z m 16.04,-1.2 -0.16,-0.2 -0.24,-0.4 0.08,0.12 0.32,0.48 z m -1.88,-3.48 -0.04,-0.12 0.04,-0.12 0,0.16 0,0.08 z m -9.24,2.48 -0.08,0 -0.12,-0.08 0.08,-0.12 0.16,0.12 -0.04,0.08 z m 6.56,-1.04 -0.04,0 0.08,-0.04 -0.04,0.04 z m -0.44,0.16 0,0.04 -0.08,-0.04 0.04,0 0.04,0 z m 0.12,0.04 -0.08,0.08 -0.04,-0.08 0.4,-0.16 -0.28,0.16 z m -3.6,0.36 -0.04,0 0.04,-0.04 0,0.04 z m -0.36,-0.16 0.08,-0.08 0,0.08 -0.08,0 z m -0.04,0 0.04,-0.08 -0.04,0.08 z m 0.76,-0.44 -0.04,0.04 0,-0.04 0.04,0 z m -0.48,0.04 0,0.04 0,-0.04 z m -0.08,0 0,0.04 -0.08,-0.04 0.08,0 z m -0.08,0.16 0,0.12 -0.16,-0.08 0.16,-0.08 0,0.04 z m -0.12,0.32 0.04,0 0,0.04 -0.04,-0.04 z m -0.12,0.04 0.08,0.04 -0.12,0 0.04,-0.04 z m 0.6,-0.08 0,0.04 -0.08,-0.32 0.08,0.12 0,0.16 z m 0.2,-0.44 -0.2,-0.04 0.04,0 0.16,0.04 z m 0.4,-0.08 -0.2,0.04 0.2,-0.04 z m 9.96,-6.88 -0.12,0.12 0,-0.12 0.2,-0.12 -0.08,0.12 z m 0.24,-0.16 -0.16,0.04 0.16,-0.16 -0.12,-0.44 0.12,0.16 0.04,0.24 -0.04,0.16 z m -0.2,-0.64 -0.12,-0.08 0.08,0 0.04,0.08 z m -0.28,1 0.08,-0.08 0.04,0 -0.04,0.04 -0.08,0.04 z m -38.44,1.56 0,0.04 -0.08,-0.04 0.04,0 0.04,0 z m 38.2,-1.12 -0.12,-0.04 0.12,0.04 z m -0.68,0.24 -0.12,0.12 -0.04,0.12 0,-0.08 0.12,-0.12 0.04,-0.04 z m -0.32,0.48 0,0.04 0,0.04 0,-0.08 z m -0.04,0.28 0,0.08 -0.04,0 0,-0.04 0.04,-0.04 z m -36.92,0.24 0.04,0.04 -0.16,0.04 -0.04,-0.16 0.16,0.08 z m 0.28,0.84 0.08,0.04 0.04,0.04 -0.16,-0.08 0.04,0 z m -0.08,-0.84 0.2,0 0.08,0.04 -0.28,0.04 -0.12,-0.16 0.12,0.08 z m 35.68,0.92 0,-0.04 0,0.04 z m -34.64,0.56 -0.12,-0.04 -0.04,-0.2 0.04,0 0.12,0.24 z m 0.08,-0.6 0.08,0.08 -0.16,0 0,-0.12 -0.12,-0.04 0.2,0.08 z m 36.68,-2.12 0.04,-0.16 0.16,-0.24 -0.16,0.24 -0.04,0.16 z m -0.16,-0.04 -0.16,0.04 -0.2,0.08 0.16,-0.08 0.16,-0.04 0.04,0 z m 0.88,-5.48 0,0.04 0.08,-0.24 0,0.08 -0.08,0.12 z m -0.04,0.2 -0.08,0 0.12,-0.12 -0.04,0.12 z m 3.48,-6.24 -0.04,0 0,0.12 -0.12,-0.04 0.08,-0.2 0.08,0.12 z m -0.24,0.16 0,0.04 -0.12,0.04 0,-0.08 0.12,0 z m -0.12,0.24 -0.08,0 -0.04,-0.08 0.12,0.04 0,0.04 z m -0.2,2.92 0.08,0.12 -0.2,0.04 0.12,-0.04 0,-0.12 z m -0.32,0.12 -0.08,0 0.08,-0.08 0,0.08 z m -0.16,-0.08 0.08,0.08 -0.16,0.08 -0.08,0 0.16,-0.16 z m -0.6,0.16 0,-0.04 0,-0.04 0.04,0.04 -0.04,0.04 z m 0.08,-0.04 -0.04,0.04 0.04,-0.2 0,0.04 0,0.12 z m 1,-0.28 0,-0.12 0,0.12 z m -7.32,0.08 0,0.08 -0.08,-0.04 -0.04,-0.04 0.12,0 z m 1.84,-1.4 0,0.04 0,-0.12 0,0.08 z m 0.08,-0.32 -0.08,0.08 0,-0.08 0.08,0 z m 0.08,-0.12 0,0.08 -0.04,0.04 -0.04,-0.04 0.08,-0.08 z m -15.12,-3.12 0.16,0.08 0,0.12 -0.12,0.04 -0.04,-0.24 z m 6.48,3.48 0.04,0 0,0.12 -0.04,0 0,-0.12 z m 0.8,0.28 -0.04,0 0,-0.12 0.04,0.08 0,0.04 z m 0.12,-0.36 -0.08,0.04 0,-0.08 0,0.04 0.08,0 z m -0.24,0.48 0,-0.04 0.08,0 -0.08,0.04 z m -0.72,-0.24 0.04,0.08 -0.04,0 0,0.12 -0.16,0.32 -0.08,-0.16 0.24,-0.36 z m 2.6,-1.08 -0.04,0.12 -0.2,-0.08 0.08,-0.08 0,-0.08 0.16,0.12 z m -0.52,-0.2 -0.04,0 0,-0.04 0.04,0.04 z m 0,-0.04 -0.16,-0.16 0.08,-0.08 0.08,0 0,0.24 z m -1.92,0.08 0.04,0 -0.12,0 0,-0.08 0.08,0.08 z m 0.92,0.8 -0.04,0 0.04,-0.16 0.04,0 -0.04,0.16 z m 0.84,-0.52 0.08,0.04 -0.08,-0.04 z m 0.08,0.2 -0.08,0.04 -0.08,-0.04 0.08,-0.04 0.08,0.04 z m -0.88,0.08 -0.04,0 0,-0.04 0.04,0.04 z m -29.28,-1.84 0,-0.08 0,-0.04 0,0.04 0,0.08 z m 25.2,1.28 -0.08,0.04 0.12,-0.12 0.08,0.04 -0.12,0.04 z m 0.12,-0.12 -0.12,0 0.12,-0.08 0,0.08 z m -24.04,-2.08 -0.08,0 0.08,-0.2 0.04,0.08 -0.04,0.12 z m 23.92,2.08 -0.08,0 0,-0.08 0.08,0.08 z m -24.24,-1.76 -0.04,-0.08 0.04,0 0,0.08 z m 26.44,1 -0.24,0.04 0.04,0.08 -0.16,0.16 -0.12,0.24 -0.04,-0.12 0.04,0 0,-0.08 -0.04,0.04 -0.12,0 0,-0.08 0.2,-0.24 0.36,-0.08 0.08,0.04 z m -2,0.64 -0.04,0 0.04,-0.08 0,0.08 z m -24.32,-1.56 -0.04,0 0.04,-0.08 0,0.08 z m 23.92,1.68 0,-0.08 0.04,0 -0.04,0.08 z m -23.68,-1.92 -0.12,0.08 0.08,-0.16 0.04,0 0,0.08 z m 25.36,0.48 -0.04,0.16 -0.24,0.16 0.04,0 -0.2,0.08 0.04,-0.12 0.4,-0.28 z m -25.4,-1.12 -0.08,0 0,-0.04 0.08,0.04 z m 0.08,-0.4 0.08,0.16 -0.16,0 0.08,0.08 -0.04,0.2 0.04,-0.08 0.12,0.08 -0.04,0.08 -0.12,-0.08 0,-0.16 -0.12,-0.12 0.16,-0.16 z m 0.08,-0.16 -0.08,-0.12 0.08,0.04 0,0.08 z m -0.32,0.04 0,0.04 -0.08,-0.04 0,-0.12 0.08,0.12 z m 0.16,-0.16 0.04,0.04 -0.04,0.08 -0.08,-0.12 0,0.12 -0.08,-0.08 0.08,-0.12 0.08,0.08 z m -0.12,-0.32 -0.04,0 0.04,0 z m 0.04,0.52 0,0.04 -0.04,-0.04 0.04,-0.08 0,0.08 z m 0.12,-0.04 0,-0.04 0.04,0.04 -0.04,0 z m 39.68,6.36 -0.04,0 0.04,-0.08 0,0.04 0,0.04 z m -0.36,-0.04 0.04,-0.04 -0.04,0.04 z m -0.84,0.92 -0.12,0.04 -0.08,0.04 0.16,-0.08 0.04,0 z m 0.12,0 -0.12,0.04 0,-0.04 0.36,-0.24 -0.24,0.24 z m -0.76,0.12 0,0.04 -0.08,0.16 0,-0.16 0.08,-0.04 z m 1.32,-0.84 -0.28,0.32 0.2,-0.04 0.04,-0.16 0.16,0 0,-0.04 0.04,0.04 0.16,-0.16 -0.64,0.52 0.12,-0.04 -0.84,0.4 0.12,-0.04 -0.2,0.08 0.04,-0.08 -0.16,0.08 -0.08,-0.04 0.08,-0.12 0.16,-0.08 0,-0.12 0.04,0.08 0,-0.12 0.76,-0.24 0.28,-0.24 z m -8.84,0.8 0,-0.08 0,0.04 0,0.04 z m 7.28,2.6 -0.04,-0.08 -0.04,0.04 0.04,0.08 -0.16,0.28 -0.08,0.64 -0.12,0.08 0,0.32 0,-0.08 -0.04,0.12 -0.08,-0.12 0,-0.32 0.08,-0.12 0,-0.16 0.08,-0.08 -0.08,-0.04 0.08,-0.04 -0.2,0.04 0.04,-0.2 -0.16,0 0.08,-0.12 -0.08,0 0,-0.16 -0.04,0.16 0,-0.08 -0.08,0.16 -0.12,-0.16 0,0.08 -0.16,-0.16 0.04,0 0.08,-0.08 -0.08,0 -0.04,-0.04 0.2,0 0.04,-0.12 -0.04,0.08 -0.2,-0.12 -0.04,0.12 0,-0.2 0.16,0.08 -0.08,-0.12 0.08,-0.04 -0.12,-0.08 -0.12,0.12 0,-0.16 0.16,0 0.08,-0.12 -0.12,0.12 -0.12,-0.12 0.08,-0.2 0.24,-0.08 -0.16,0 0.08,-0.12 0.08,0 -0.04,-0.04 0,-0.08 -0.12,0.12 0.08,-0.12 -0.12,0.08 0,0.08 -0.12,0.12 0,-0.12 -0.04,0.16 0,-0.04 -0.12,0 0.04,0.04 -0.04,0.08 0.04,0.04 -0.08,-0.04 0.08,0.12 -0.16,0 0.12,0.04 0.04,0.08 -0.04,0 0.12,0 -0.16,0 0.16,0.12 -0.12,0 0.04,0.04 0,0.16 0.24,0.4 -0.28,-0.08 -0.04,-0.2 0.04,0.12 0.04,0.12 0.24,0.12 0.12,0.2 -0.16,-0.08 0,0.08 -0.12,-0.08 -0.16,0 -0.08,-0.2 0,0.2 -0.16,-0.24 -0.12,0.16 -0.08,0 0,-0.2 0.12,-0.16 0,-0.2 -0.04,0 0.04,0.16 -0.16,0.08 0,0.4 0.12,0 0.12,-0.12 0.16,0.16 0.28,0 0.08,0.12 0.24,0.08 0,0.08 -0.04,-0.04 0.04,0.28 -0.16,-0.04 0,0.04 -0.44,-0.4 -0.12,-0.04 -0.04,0 0.16,0.04 0.44,0.4 0.2,0.04 -0.08,0.04 0.12,0 0,0.2 -0.12,-0.08 0.08,0.16 -0.08,0 -0.32,-0.24 0,0.08 0.28,0.2 0.12,0 0.12,0.2 -0.12,0.04 -0.2,-0.16 -0.08,0.04 -0.12,-0.12 -0.08,0.12 -0.08,-0.12 -0.2,0.08 0.2,0 0.04,0.04 0.24,0.04 0.04,-0.04 0.04,0.08 0.16,0.12 0,0.08 0.08,-0.04 0.12,0 -0.04,-0.12 0.28,0 0.16,0.36 0.2,0.28 0.28,0.4 -0.2,-0.12 -0.36,-0.68 0,0.16 0.04,-0.04 0.04,0.08 -0.12,-0.04 0.04,0.04 0.04,0.08 0.04,0.08 0,-0.12 0.2,0.4 -0.2,-0.24 0.08,0.12 -0.24,-0.12 0.12,0.16 -0.08,0.08 -0.12,-0.08 0.08,0.12 -0.24,-0.04 0.16,0.04 -0.2,0.12 -0.12,-0.04 -0.04,-0.2 -0.04,-0.04 0.08,0.4 0.28,-0.12 0.12,0.08 0,-0.08 0.16,-0.04 0,0.16 -0.04,0.04 0.12,0.08 -0.12,0.04 0.12,0 0,-0.28 0.12,0 0,-0.08 0.16,0.08 0,0.36 -0.12,-0.08 -0.16,0.36 -0.2,-0.04 0,0.04 -0.04,-0.12 -0.08,0.12 -0.08,-0.12 0.08,-0.04 -0.16,0.04 0.08,0.12 -0.44,-0.04 0.12,0.08 0.48,0.08 -0.16,0.16 0.08,-0.04 0,0.04 -0.16,0.2 -0.28,-0.12 0.12,0.16 0.24,0 0.04,-0.12 0.12,0.08 -0.08,-0.08 0.12,0 0,-0.08 0,0.16 0.08,-0.08 0,-0.04 0.04,0 0,0.16 -0.12,0.16 -0.12,-0.04 0.08,0.12 -0.12,-0.12 -0.04,0.12 0.04,0 -0.32,0.08 -0.04,-0.04 0,0.04 -0.12,0.16 -0.08,0 0.04,-0.08 -0.12,-0.08 0.12,0.08 -0.04,0.08 0.04,0.04 -0.12,0.12 -0.16,0.2 -0.08,0.44 0,-0.24 -0.04,-0.04 0,0.32 -0.36,0 -0.28,0.24 -0.28,0.4 0,0.24 -0.08,-0.08 0.04,-0.16 -0.04,0.12 0,0.12 0.08,0.04 -0.04,0.12 -0.04,-0.04 0.04,0.04 -0.04,0.04 0,0.04 -0.2,0.04 0.04,0.12 -0.24,0.24 -0.08,-0.12 0,0.12 0.08,0.04 -0.08,0.08 -0.16,0.12 -0.08,-0.08 0.04,0.08 -0.04,0.08 -0.24,-0.04 -0.08,0.04 0.12,0 -0.08,0.08 0.16,0 -0.12,0.12 0.12,-0.08 0,0.08 -0.16,0.08 -0.04,-0.2 0,0.16 -0.04,0 -0.08,-0.16 -0.08,-0.08 0.08,0.24 0.16,0.08 -0.08,0.16 0,-0.12 0,-0.04 -0.12,0.2 0.12,0.08 -0.12,0.04 0,0.12 -0.16,0 0,0.04 0.12,0 -0.08,0.08 -0.16,0 0.04,0.08 0,0.04 0.12,0 0,0.12 -0.12,-0.12 0.08,0.04 -0.12,0.08 0.04,0.12 0.12,-0.12 -0.12,0.2 -0.04,-0.04 0.04,0.08 -0.12,0 0.2,0.04 -0.12,0.16 -0.04,-0.04 -0.04,0.12 0.08,0 0,0.04 -0.08,-0.04 0.08,0.12 -0.08,0.04 0.08,0 -0.04,0.08 0.04,0.16 0.04,0 0,0.16 -0.04,-0.04 0,0.04 0.12,0.12 0.2,0.56 0.48,0.76 0.36,0.44 0.16,0.16 -0.04,0.24 0.2,0.4 -0.2,-0.36 -0.08,-0.4 -0.16,0 0,-0.16 -0.08,0 0.12,0.44 0.48,0.64 0.04,0.16 0.24,0.32 0,-0.04 -0.12,0 0.16,0.04 0.16,0.4 0.08,1.08 0,-0.16 -0.08,0.28 0,0.48 -0.2,0 -0.12,0.12 -0.16,0 -0.2,0.08 -0.08,-0.08 0,-0.08 0.04,-0.04 0.04,0.04 0.12,0 -0.04,0.08 0.08,-0.08 -0.24,-0.08 -0.28,-0.44 -0.24,-0.08 -0.12,0.04 0.04,-0.08 -0.16,-0.04 -0.08,-0.4 -0.16,-0.04 0.16,-0.28 -0.2,0.28 -0.12,-0.44 0.12,-0.08 -0.2,0.08 -0.12,-0.04 0.12,0.16 -0.12,0 -0.32,-0.52 -0.16,-0.04 0,-0.08 0.04,0.08 0,-0.12 0.04,0.04 -0.04,-0.04 0.04,0 0.2,-0.32 -0.08,-0.08 -0.12,0.08 0,-0.08 -0.12,-0.12 0.04,0.04 -0.08,0.08 0.12,0.04 -0.04,0.24 -0.16,-0.12 0.12,0.04 0,0.12 -0.12,-0.16 0.08,-0.68 -0.08,-0.48 -0.2,-0.24 -0.2,0 -0.44,-0.32 0,-0.16 -0.12,-0.04 -0.16,-0.16 -0.32,-0.16 -0.2,0 -0.2,0.16 0.08,0.04 -0.12,-0.04 0.16,0.04 0,0.08 -0.04,0 -0.12,0 -0.28,0.24 0,-0.12 -0.12,0.12 -0.32,0.08 -0.04,-0.04 -0.04,-0.12 0.08,0.16 -0.04,-0.2 -0.32,-0.24 0.2,0.12 0.08,-0.08 -0.08,0.08 -0.04,-0.12 -0.08,0.04 -0.12,-0.12 0.08,-0.08 0,-0.08 -0.08,0.12 -0.04,-0.04 -0.12,0.04 0.16,0.16 -0.4,-0.16 -0.4,-0.04 0.28,-0.08 0.08,0 -0.08,-0.08 -0.16,0.04 -0.12,-0.04 -0.04,0.16 -0.16,0 -0.36,0.08 0.28,-0.08 -0.16,-0.08 0.04,-0.04 -0.04,-0.04 -0.08,0.16 -0.12,-0.12 0.08,0.12 -0.16,0.16 -0.16,0.04 0.16,-0.16 -0.08,-0.04 0,0.16 -0.16,0 0.04,0.12 -0.04,0 -0.36,0.08 0.24,-0.08 -0.12,-0.2 -0.04,0 -0.04,-0.16 -0.12,-0.12 -0.04,0.48 -0.24,-0.12 -0.08,0.12 -0.08,-0.08 -0.16,0.08 -0.2,-0.08 -0.04,0 0.12,0 -0.32,0.16 -0.08,-0.04 -0.12,0.2 -0.12,0.04 -0.56,-0.2 -0.2,0.2 0.04,0.12 0.2,0.04 0.16,-0.04 0.12,-0.12 0.12,0.04 0,-0.04 0,0.04 0.08,-0.04 -0.04,0.12 -0.12,0.04 0.16,0.16 0.16,-0.28 0.12,0 -0.08,0.12 0.08,0 -0.08,0.08 0.12,0.04 0,0.08 -0.04,0 -0.12,-0.04 -0.12,0.08 0.16,0.12 -0.2,-0.04 0.04,0.04 -0.08,0.04 0.2,0.2 0,0.04 0.2,0 -0.04,0 0.16,0.04 0,-0.04 0.08,0.12 0.12,0.08 -0.08,0 0.08,0 -0.12,0.16 -0.08,-0.12 -0.16,0.24 0.12,-0.28 -0.08,0.08 -0.08,-0.16 -0.2,0 0,-0.08 -0.16,0.04 0.04,-0.04 -0.04,-0.08 -0.12,0 -0.24,-0.12 -0.04,0.12 0.24,0.04 0,0.12 -0.2,0.24 -0.04,-0.16 -0.08,-0.08 -0.04,0.12 -0.08,-0.16 0,0.12 -0.08,0 -0.08,0.16 -0.12,0.04 -0.08,-0.12 0,0.08 -0.44,-0.12 0.08,-0.12 0.12,0.16 0.04,-0.04 -0.16,-0.2 0,-0.16 -0.08,0.16 -0.12,-0.08 -0.12,0.04 -0.08,-0.24 -0.2,0.08 0,-0.12 -0.32,0.04 0.04,0.12 0.04,-0.04 0,0.12 0.12,0 -0.28,0.08 -0.36,-0.04 -0.52,-0.16 -0.56,0.12 -0.04,-0.12 0.08,0 0.08,-0.16 -0.12,0 -0.12,0.16 0.12,0.16 -0.24,0 -0.6,0.36 0.04,-0.12 0.24,-0.04 0,-0.08 -0.28,0.08 0.04,-0.2 -0.04,-0.04 -0.08,0.08 -0.16,-0.04 0.04,0.08 0,0.12 0.12,0.04 -0.08,0.04 0.12,0.08 -0.28,0.2 -0.04,0 0.04,0.16 -0.4,0.32 -0.32,0.08 0,0.04 0.2,-0.08 -0.44,0.24 0.2,-0.16 -0.2,0.08 0.08,-0.08 -0.08,0 0.04,-0.04 -0.16,0.04 -0.08,-0.08 -0.04,0 0.04,0.08 -0.04,0.08 -0.04,0.04 0.04,-0.12 -0.2,-0.04 0.08,0.16 0.08,0.04 -0.04,0.08 0.12,0 -0.24,0.16 -0.08,-0.16 0,0.04 -0.08,0 0.08,0.2 -0.12,0.04 -0.08,0.08 0.08,-0.16 -0.08,0.16 -0.04,-0.12 -0.12,0.04 -0.08,0.12 0.12,0.12 0.08,-0.12 -0.12,0.28 -0.36,-0.04 0.12,0.04 0,0.04 0.16,0.08 -0.16,0.4 -0.12,0.04 0.08,-0.04 0,-0.04 -0.16,0.08 -0.08,-0.16 0.08,0.16 -0.08,0.04 0.28,0 -0.04,0.28 -0.08,0 0.08,0.16 -0.08,-0.04 0,0.04 0.08,0.04 0.12,0.32 -0.08,0 0.12,0.16 0.04,0.24 0.12,0.04 -0.04,0.08 0.08,-0.08 0,0.12 -0.2,0.08 0,0.08 -0.32,-0.2 -0.52,-0.08 -0.2,-0.16 -0.24,0 -0.12,-0.12 -0.28,-0.04 -0.16,-0.44 -0.2,-0.28 -0.04,-0.52 -0.32,-0.2 -0.2,-0.4 -0.24,-0.12 -0.04,-0.24 -0.24,-0.48 -0.04,-0.16 -0.32,-0.4 -0.16,-0.08 -0.04,-0.08 -0.08,0.04 -0.12,-0.2 -0.6,-0.04 -0.2,-0.12 -0.04,0.16 -0.32,0 -0.16,0.44 0,0.12 -0.12,0.04 -0.16,0.16 -0.2,-0.04 -0.36,-0.24 -0.24,-0.04 -0.44,-0.4 -0.16,-0.32 0.08,-0.24 -0.28,-0.48 -0.36,-0.24 -0.52,-0.6 -0.2,-0.16 -0.16,-0.28 -1.6,-0.12 -0.08,0.48 -2.56,-0.2 -3.28,-1.68 0.16,-0.2 -2.16,-0.12 -0.08,-0.12 0.12,0.04 0,-0.04 -0.12,-0.08 0,-0.36 -0.12,-0.32 -0.48,-0.52 -0.2,-0.04 -0.08,-0.32 -0.24,0 -0.28,-0.16 -0.08,-0.2 -0.24,-0.2 -0.76,-0.16 -0.16,-0.16 0.12,-0.6 -0.16,-0.12 0.04,-0.24 -0.32,-0.28 -0.08,-0.36 -0.24,-0.4 -0.08,-0.28 0.16,-0.08 0.04,-0.2 -0.04,-0.12 -0.16,-0.08 -0.16,-0.16 -0.12,-0.48 0.08,-0.24 0.08,0 0,0.2 0.24,0.24 0.04,0 -0.08,-0.4 -0.08,-0.04 0,-0.08 -0.04,-0.08 0.04,-0.04 0.12,-0.08 0.04,0.08 0.36,0.12 0.12,-0.12 0.08,0.16 -0.08,-0.16 -0.16,0.04 0.12,-0.12 -0.24,0.08 -0.04,-0.12 -0.16,0.12 -0.16,-0.16 -0.12,0 0,0.28 -0.04,0.04 -0.28,-0.4 -0.12,0.12 0.12,-0.24 0.08,0.12 -0.16,-0.36 -0.4,-0.6 0.04,-0.2 0,-0.28 0.04,-0.28 -0.04,-0.4 -0.28,-0.32 0,-0.2 0.2,-0.24 0.04,0.04 0.12,-0.16 -0.12,0.04 0.12,-0.2 0,-0.12 0.16,-0.36 0,-0.24 -0.08,-0.12 0.08,-0.2 -0.08,-0.12 0,-0.28 0.08,-0.32 -0.08,-0.2 0.28,-0.48 0.04,0.04 0.08,-0.08 0.04,0.04 0,-0.12 -0.12,0.08 0.12,-0.2 0.12,-0.04 -0.04,0 0.16,-0.64 0.12,-0.12 -0.08,-0.04 0.12,-0.12 0,-0.24 0.24,-0.68 0,0.04 0.04,0 -0.04,-0.12 0.12,-0.08 -0.08,0 -0.04,-0.08 0.16,-0.28 -0.04,-0.16 0.16,0.08 -0.04,-0.04 0.08,0 0.2,0 0.12,0.12 0.12,0 -0.12,0 -0.12,-0.16 -0.16,-0.04 -0.32,-0.04 0.12,-0.4 0.08,0.32 0,-0.04 0.04,0 0,-0.24 0.12,0 -0.24,-0.08 0,-0.2 0.12,0.12 -0.04,-0.08 0.16,-0.04 -0.16,-0.16 -0.08,0.08 0,-0.72 -0.16,-0.36 0.04,-0.4 0.52,0.36 0.52,0.16 0.12,-0.08 0.08,0.2 0.04,-0.08 0.04,0.12 0,-0.12 0.08,0 -0.04,0.08 0.12,0.16 -0.2,0.16 0,-0.16 0,0.12 -0.32,0.32 0.04,0.04 0.24,-0.04 -0.24,0 0.16,-0.2 0.16,0 0.16,-0.16 0,-0.12 0.04,0.2 -0.04,0 -0.08,0.08 0,-0.08 0,0.2 -0.04,-0.08 -0.04,0.12 0.16,-0.04 0,0.04 -0.12,0.24 -0.08,-0.04 0.08,-0.08 0,-0.04 -0.12,0.2 0,-0.2 -0.28,0.2 0.16,0 -0.12,0.08 0.04,-0.08 0.08,0.12 0.04,-0.12 0.08,0.12 0.12,-0.12 0.04,-0.08 0.08,0.04 0.08,-0.04 0,-0.48 0.24,-0.16 -0.12,-0.24 -0.04,0.04 0.04,0.16 -0.04,-0.08 0,-0.12 0.04,0 0.08,-0.08 -0.12,-0.16 -0.12,-0.04 0.04,-0.04 0.12,0.08 -0.04,-0.12 0.12,0 0,-0.16 -0.2,0 -0.04,-0.24 0.04,-0.04 4.44,0.8 4.52,0.56 2.92,0.2 2.76,0.12 2.8,0.04 2.8,-0.12 0.08,0.12 0.2,-0.12 0.2,0.12 0.04,0.16 0.6,0.08 0.04,0.08 0.4,-0.08 0.4,0.04 0,0.08 0.2,0 0.08,0.2 0.08,-0.08 0.12,-0.08 0.44,0.28 0.2,0 0.28,-0.2 0.08,0.16 0.48,-0.12 0.12,0.16 0.12,-0.04 0.16,0 -0.84,0.44 -0.92,0.88 0.12,0.12 0.4,-0.12 0.4,-0.16 0.04,0.04 -0.08,0.28 0.08,-0.04 0,-0.04 0.28,0.08 0.48,-0.28 0.36,-0.12 0.28,-0.16 0.16,-0.24 0.08,0.08 0.16,0.16 0,0.24 0.2,-0.24 -0.08,0.16 0.08,-0.12 0.28,0 0.16,0.08 0.16,0.24 0.36,-0.04 0.08,0.08 0.04,-0.04 0.12,0.04 0.36,-0.28 0.48,-0.08 0.4,-0.16 -0.04,0.28 0.2,0.08 0.08,-0.08 0.08,0.08 0.2,-0.12 0.16,0.24 -0.08,0 0.16,0.04 0.12,0.16 -0.4,0.08 -0.04,0 -0.12,-0.08 -0.08,0.24 -0.16,-0.12 -0.44,-0.04 -0.04,0.16 -0.2,0.04 -0.28,0 -0.24,0.44 -0.08,-0.08 0.12,-0.28 -0.24,0.08 -0.08,0.2 -0.04,-0.28 -0.04,0.28 -0.36,0.6 0,0.12 -0.12,0.12 -0.12,0.28 0,0.08 0.08,0.04 0.16,-0.32 0.2,-0.08 0.08,0.08 -0.08,0.52 0.04,0.12 -0.16,0.32 0.04,0.2 -0.16,0.48 0.04,0.24 0.2,0.2 0,0.6 0.24,0.44 0.28,0.2 0.16,-0.12 0.28,-0.24 0.24,-0.64 0,-0.52 -0.12,-0.28 0,-0.04 -0.04,0.04 -0.24,-0.36 0.04,-0.2 -0.04,-0.24 0.16,-0.4 -0.04,-0.32 0.12,-0.04 0,-0.2 0.08,-0.04 0.12,0 0.12,-0.28 -0.04,0.36 0.04,0.04 0.12,-0.16 0,0.16 0.08,-0.24 0,-0.28 0.28,-0.16 -0.12,-0.08 0.08,-0.28 -0.04,-0.04 0.12,-0.04 0.24,0.08 0.2,0 0.16,0.16 0.56,0.2 0.12,0.16 -0.12,0 0,0.08 0.16,0.2 0,0.48 -0.08,0.12 -0.08,0.16 -0.16,0.12 -0.04,0.28 0.2,0.08 0.16,-0.08 0.12,-0.24 -0.04,-0.04 0.28,-0.16 0.12,0 0.2,0.2 0.28,0.84 0,0.44 -0.12,0.04 0,-0.16 -0.08,0 -0.08,0.08 0,0.24 -0.16,0.16 -0.04,0.2 0.04,0.08 -0.2,0.36 0.4,0.08 0.12,-0.04 0.16,0.04 -0.32,0.08 0.36,0 -0.04,-0.04 0.2,0.04 0.32,-0.12 0.2,-0.04 0.32,-0.28 0.72,-0.48 0.56,-0.48 0.48,-0.52 -0.08,-0.24 -0.12,-0.04 -0.04,-0.16 0.72,-0.28 0.4,0.04 0.52,-0.08 0.32,-0.36 0.16,-0.08 0.04,-0.12 -0.16,-0.16 0.16,-0.16 -0.08,0 0,-0.08 -0.12,0.08 -0.08,-0.12 0.36,-0.32 0.08,-0.24 0.28,-0.36 0.2,-0.2 2.6,-0.64 -0.04,-0.2 0.08,-0.12 0.08,0 0.12,-0.08 0.12,0.04 0,-0.16 0.16,-0.04 -0.12,-0.08 0.08,-0.08 0.12,-0.2 0.04,-0.24 -0.08,-0.24 0.08,-0.28 -0.04,-0.28 0.4,-0.92 0.12,0 0.04,0.16 0.12,0.08 0.36,-0.32 0.12,0 0.36,0.16 0.44,1.36 0.28,0 0.08,0.36 0.16,0.04 0.08,-0.04 0.16,0.16 -0.12,0.08 0.04,0.12 0.08,-0.12 0.04,0.04 -0.04,-0.04 0.12,0.04 -0.12,0.24 -0.08,0.04 -0.08,-0.12 0,0.2 -0.04,-0.08 0,0.08 -0.04,0 0,0.08 -0.12,0 0,0.04 -0.04,-0.08 0,0.08 -0.08,-0.04 0,0.2 -0.04,-0.12 0,0.12 -0.08,-0.12 0,0.24 -0.12,-0.16 0,0.04 -0.12,-0.04 0.08,0.04 -0.08,0.12 -0.08,-0.12 0.04,0.12 -0.12,0 0.12,0.2 -0.28,-0.04 0.04,-0.12 -0.04,0.08 0,-0.2 -0.04,0 0,0.08 -0.08,0.12 0.04,0.04 -0.04,0.48 -0.08,0.04 0,-0.12 -0.08,0.08 0,-0.12 -0.12,0.28 -0.08,-0.16 0.08,0.16 -0.12,-0.04 0,-0.12 -0.04,0.12 0.04,0.16 -0.08,-0.28 -0.04,0.08 0.04,0.04 0.04,0.2 -0.08,-0.16 -0.08,0.16 -0.04,-0.08 -0.16,0.28 0.12,0.04 -0.12,0.04 0.04,0.08 -0.16,0.24 0,0.24 -0.04,-0.04 -0.04,0.36 0.12,0.12 0.08,0.04 0.04,-0.08 0,0.04 -0.2,0.12 0.04,0.12 -0.04,0 0,0.12 -0.04,0.04 0.08,0.08 0.04,-0.08 -0.04,0 0.16,0.08 0.16,0.12 -0.04,-0.04 0,0.08 0.16,0 0.04,0.16 0.2,0 -0.04,0.08 0.04,-0.08 0.16,-0.08 0,-0.12 -0.04,0 -0.04,-0.08 -0.2,0 0.2,-0.04 0.16,0.16 0.04,0.16 -0.4,0.2 -0.12,0.12 0,-0.2 -0.12,0 -0.04,0.16 -0.04,0 0,0.08 -0.12,0.08 0,-0.08 -0.12,0.12 -0.04,-0.16 0.04,-0.12 -0.04,0.04 -0.04,0 0,0.08 0,-0.08 -0.12,-0.04 0,0.44 -0.44,0.16 -0.12,0.08 -0.12,-0.04 0.08,0.04 -0.12,0.08 -0.36,0.04 -0.12,0.16 -0.4,0.32 -0.04,0.2 -0.12,0.08 -0.08,0.08 0.08,-0.36 -0.08,-0.16 -0.08,-0.08 0.16,0.32 -0.08,0.28 -0.08,0.08 -0.04,0.16 0.24,0.08 0,-0.12 0.08,0.24 0.04,0.52 -0.04,0 0,-0.24 0,-0.04 0,0.36 -0.12,0.2 -0.08,0 0,0.12 -0.04,0 0,0.04 0.04,0.08 -0.12,0.08 0.08,0 -0.12,0.36 -0.12,0.08 0,-0.28 -0.24,0.04 -0.4,-0.24 -0.04,-0.12 0.12,-0.2 0.2,-0.16 0.04,-0.16 -0.08,0.16 -0.16,0.08 -0.12,0.28 0.36,0.68 0.28,0.08 0,0.12 -0.08,-0.04 0.08,0.08 -0.08,0.08 0.12,-0.08 0.04,0.28 z m 2.32,-4 0,-0.08 0,0.08 z m -0.12,-0.2 -0.04,0 0.04,0 z m -0.16,-0.16 0,0.04 0,-0.04 z m 0,0.04 0.04,0 -0.04,0 z m 0.04,0 0,0.08 0,-0.08 z m -4.76,16.96 -0.24,0.28 0.24,0.16 0.16,0 0.04,-0.28 -0.04,-0.12 -0.16,-0.04 z m 4.76,-16.88 0.08,0.04 -0.08,-0.04 z m -2.4,5.32 0,-0.04 0,0.04 z m -0.04,0.2 -0.04,0 0.04,-0.08 0,0.08 z m 0.28,-0.76 -0.08,0.04 0.16,-0.52 -0.08,0.48 z m -0.6,0 -0.04,0.04 0,-0.04 0.04,0 z m -0.04,-0.16 -0.08,0 0,-0.04 0.08,0.04 z"/>
        </symbol>
    </defs>
</svg>
