<?xml version="1.0" encoding="UTF-8" standalone="no"?>
<svg xmlns:rdf="http://www.w3.org/1999/02/22-rdf-syntax-ns#" xmlns="http://www.w3.org/2000/svg" version="1.0" xmlns:cc="http://creativecommons.org/ns#" xmlns:dc="http://purl.org/dc/elements/1.1/" viewBox="0 0 465.19751 318.93164">
<path d="m22.283203 0.00586214c-7.250925 0.17302-13.016227 4.26117-16.716797 9.75781-3.700571 5.4966499-5.566406 12.4198-5.566406 19.08204v260.9746c0 15.4951 12.616243 28.11133 28.111328 28.11133h121.97656c15.49509 0 28.11133-12.61624 28.11133-28.11133v-0.0469l-8.00195-220.53516c-0.0154-7.4059-1.82651-13.70094-6.12305-18.75-4.315-5.07073-10.88883-8.78138-20.08008-11.84765l-0.006-0.002-115.13476-37.79687-0.07227-0.0195c-2.251198-0.60087-4.42557-0.86586-6.498047-0.81641zm307.31446 75.72656c-15.44464 0-28.02564 12.53511-28.10743 27.960938l-14.49218 187.02539v0.10156c0 15.4951 12.61624 28.11133 28.11133 28.11133h0.01l121.9668-1c15.49508 0 28.11133-12.61624 28.11133-28.11133v-0.0137l-2-178.47461c0-15.442068-12.53079-28.021518-27.95313-28.107418l-105.55469-7.49219h-0.0918z"/>
</svg>
