<?xml version="1.0" encoding="UTF-8" standalone="no"?>
<svg xmlns:rdf="http://www.w3.org/1999/02/22-rdf-syntax-ns#" xmlns="http://www.w3.org/2000/svg" version="1.0" xmlns:cc="http://creativecommons.org/ns#" xmlns:dc="http://purl.org/dc/elements/1.1/" viewBox="0 0 223.22186 372.04166">
<path d="m112.07114 0.00524864c-0.73215-0.008-1.4649-0.007-2.19727 0.004-22.99324 0.34994-45.70097 10.15441-61.72266 26.65039-16.02169 16.49597-25.16065 39.48094-24.83984 62.47461v214.49023c-3.17188 0.65536-6.28203 1.38922-9.3125 2.22071-9.7302496 2.77657-13.80296 7.51073-13.96875 12.39062-0.17418 5.12692 0.4737 19.2781 0.25 31.77539-1.62269 6.05032 4.48475 12.59232 17.78125 15.31446 23.39858 6.31671 52.67083 5.54107 79.37305 6.57421 36.35684 0.45655 74.4707 0.16629 108.00195-6.38867 10.07169-2.73632 16.91141-7.80559 17.66797-12.91211 0.065-0.12455 0.10598-0.25673 0.0976-0.40429-0.0107-11.62152 0.0838-22.64941-0.0645-33.85352-0.0396-2.99468-1.44312-5.95572-5.85742-8.47851-4.69874-2.96678-11.02528-5.05222-18.1875-6.56641v-214.16211c0.32691-23.4363-9.18919-46.85505-25.77148-63.41992-16.0641-16.04721-38.55335-25.45617-61.25-25.70899z"/>
</svg>
