<?xml version="1.0" encoding="UTF-8" standalone="no"?>
<svg xmlns:rdf="http://www.w3.org/1999/02/22-rdf-syntax-ns#" xmlns="http://www.w3.org/2000/svg" version="1.0" xmlns:cc="http://creativecommons.org/ns#" xmlns:dc="http://purl.org/dc/elements/1.1/" viewBox="0 0 486.42728 178.99654">
<path d="m75.215586 0.0009a9.0009 9.0009 0 1 0 0 18h335.99219a9.0009 9.0009 0 1 0 0 -18h-335.99219zm-20 45.4961a10.001 10.001 0 1 0 0 20h375.99415a10.001 10.001 0 1 0 0 -20h-375.99415zm-20.001949 48.49804a12.50125 12.50125 0 1 0 0 25h415.99805a12.50125 12.50125 0 1 0 0 -25h-415.99805zm-20 55a15.0015 15.0015 0 1 0 0 30h456a15.0015 15.0015 0 1 0 0 -30h-456z"/>
</svg>
