<?xml version="1.0" encoding="UTF-8" standalone="no"?>
<svg xmlns:rdf="http://www.w3.org/1999/02/22-rdf-syntax-ns#" xmlns="http://www.w3.org/2000/svg" version="1.0" xmlns:cc="http://creativecommons.org/ns#" xmlns:dc="http://purl.org/dc/elements/1.1/" viewBox="0 0 479.4039 395.59232">
<path d="m319.93144 0.00060191785a25.0025 25.0025 0 0 0 -24.38477 30.04883l66.00196 344.84961a25.0025 25.0025 0 1 0 49.10742 -9.39844l-41.06641-214.57617h74.8125v226.875a17.50175 17.50175 0 1 0 35 0v-287.55078a17.50175 17.50175 0 0 0 -17.76367 -17.74609 17.50175 17.50175 0 0 0 -17.23633 17.74609v25.675778h-81.51172l-18.23437-95.275388a25.0025 25.0025 0 0 0 -24.72461 -20.648438zm-161.21289 0.0080000022a25.0025 25.0025 0 0 0 -23.97071 20.64062l-18.23437 95.275388h-81.51172v-25.675778a17.50175 17.50175 0 0 0 -17.763672 -17.74627 17.50175 17.50175 0 0 0 -17.236328 17.74609v287.55078a17.50175 17.50175 0 1 0 35 0v-226.875h74.8125l-41.066411 214.57617a25.0025 25.0025 0 1 0 49.107431 9.39844l66-344.84961a25.0025 25.0025 0 0 0 -25.13672 -30.041008z"/>
</svg>
