<?xml version="1.0" encoding="UTF-8" standalone="no"?>
<svg xmlns:rdf="http://www.w3.org/1999/02/22-rdf-syntax-ns#" xmlns="http://www.w3.org/2000/svg" version="1.0" xmlns:cc="http://creativecommons.org/ns#" xmlns:dc="http://purl.org/dc/elements/1.1/" viewBox="0 0 477.04105 340.61844">
<path d="m252.82029 0a20.02155 20.02155 0 0 0 -20.01953 20.01953v300.29297a20.02155 20.02155 0 1 0 40.03906 0v-280.27343h164.16015v280.27343a20.02155 20.02155 0 1 0 40.03907 0v-300.29297a20.02155 20.02155 0 0 0 -20.01953 -20.01953h-204.19922zm-109.96289 70.71094a21.426571 21.426571 0 0 0 -18.98438 31.58008l23.10742 44.4375h-125.29492a21.426571 21.426571 0 0 0 -21.492186 24.29687 21.426571 21.426571 0 0 0 21.492187 24.21875h125.29492l-23.10742 44.4375a21.426571 21.426571 0 1 0 38.01563 19.76954l39.38867-75.74805a21.426571 21.426571 0 0 0 2.20703 -12.76563 21.426571 21.426571 0 0 0 -2.20703 -12.66797l-39.38867-75.74609a21.426571 21.426571 0 0 0 -19.03125 -11.8125z"/>
<path opacity=".1" d="m267.10523 29.60355h172.7027v286.89438h-172.7027z"/>
</svg>
