<?xml version="1.0" encoding="UTF-8" standalone="no"?>
<svg xmlns:rdf="http://www.w3.org/1999/02/22-rdf-syntax-ns#" xmlns="http://www.w3.org/2000/svg" version="1.0" xmlns:cc="http://creativecommons.org/ns#" xmlns:dc="http://purl.org/dc/elements/1.1/" viewBox="0 0 507.31848 354.34787">
<path d="m412.00201 0.0002463184a27.345246 27.345246 0 0 0 -19.0664 7.63086l-79.84375 74.60938h-285.3125a27.345246 27.345246 0 1 0 0 54.685544h226.78906l-84.42188 78.88672h-142.36718a27.345246 27.345246 0 1 0 0 54.6836h83.847654l-38.828124 36.2832a27.345246 27.345246 0 1 0 37.335944 39.95703l81.58984-76.24023h287.81445a27.345246 27.345246 0 1 0 0 -54.6836h-229.29492l84.42187-78.88672h144.87305a27.345246 27.345246 0 1 0 0 -54.685544h-86.35156l37.08398-34.65235a27.345246 27.345246 0 0 0 -18.26953 -47.58789z"/>
</svg>
