<?xml version="1.0" encoding="UTF-8" standalone="no"?>
<svg xmlns:rdf="http://www.w3.org/1999/02/22-rdf-syntax-ns#" xmlns="http://www.w3.org/2000/svg" version="1.0" xmlns:cc="http://creativecommons.org/ns#" xmlns:dc="http://purl.org/dc/elements/1.1/" viewBox="0 0 478.19885 482.20639">
<path fill="#7f7f7f" d="m197.00019 16.0015v120.22071c-49.17001 1.24041-93.45166 8.13866-127.08398 19.00977-18.62366 6.01979-34.01193 13.18999-45.427736 21.91406s-19.488281 19.839-19.488282 32.85547h20c0-4.65654 3.008072-10.37523 11.63086-16.96485 8.622788-6.58961 22.230278-13.21148 39.437498-18.77343 34.414438-11.12391 83.128578-18.26172 136.93164-18.26172v-10h14v-130.00001h-30zm16 216.00196c-55.54997 0-105.83666 7.19062-143.08398 19.23047-18.62366 6.01993-34.011946 13.1899-45.427736 21.91406-11.415785 8.72417-19.488276 19.83901-19.488276 32.85547h20c0-4.65654 3.008057-10.37513 11.63086-16.96484s22.230288-13.21137 39.437498-18.77344c34.414428-11.12415 83.128608-18.26172 136.93164-18.26172v-20zm0 97c-55.54994 0-105.83667 7.19088-143.08398 19.23047-18.62366 6.0198-34.01193 13.18999-45.427736 21.91406-11.4158 8.72407-19.488276 19.83901-19.488276 32.85547h20c0-4.65654 3.008072-10.37522 11.63086-16.96484s22.230278-13.21149 39.437498-18.77344c34.414438-11.12391 83.128578-18.26172 136.93164-18.26172v-20z"/>
<path d="m213.00019 0.0015c-55.98666 0-106.66556 7.204144-144.62109 19.472656-18.977768 6.134257-34.813673 13.441536-46.927734 22.699219-12.11406 9.257691-21.451172 21.721681-21.451172 36.828131v324.99805a15.0015 15.0015 0 0 0 0.13476578 2.08398c1.169425 13.72377 10.037337 25.12652 21.316406 33.74609 12.114061 9.25769 27.949966 16.56301 46.927736 22.69727 37.123788 11.99966 86.434108 19.13554 140.96289 19.44336a15.0015 15.0015 0 0 0 5.99219 -0.14063 15.0015 15.0015 0 0 0 11.66601 -20.7207v-312.22656a15.0015 15.0015 0 0 0 -14 -20.88086c-53.36634 0-101.68831-7.12259-135.39453-18.01758-16.85311-5.44749-30.012966-11.932284-37.937499-17.988284-7.924533-6.05601-9.667969-10.42759-9.667969-12.99414 0-2.56656 1.743436-6.93618 9.667969-12.99219 7.924533-6.056 21.084389-12.54079 37.937499-17.98828 33.70621-10.894994 82.02819-18.019536 135.39453-18.019536a15.0015 15.0015 0 1 0 0 -30zm249.56446 63.007816a15.0015 15.0015 0 0 0 -4.39063 0.79297l-191.00391 65.000004a15.0015 15.0015 0 0 0 -10.16796 14.20117v104.68555a15.0015 15.0015 0 0 0 0 4.73047v99.26953a15.0015 15.0015 0 0 0 0 4.73047v108.58008a15.0015 15.0015 0 0 0 19.83398 14.20117l191.00195-65a15.0015 15.0015 0 0 0 10.16797 -14.20117v-108.64454a15.0015 15.0015 0 0 0 0 -4.79492v-99.20703a15.0015 15.0015 0 0 0 0 -4.79492v-104.55469a15.0015 15.0015 0 0 0 -15.4414 -14.99414zm-25.81446 39.773444-44.09179 90.31836-105.65625 35.95508v-75.3125l149.74804-50.96094zm-406.75 18.88476c10.702619 6.57849 23.58043 12.07992 38.37891 16.86328 34.301148 11.08731 79.010638 18.01652 128.62109 19.25196v81.96484c-47.00761-1.32707-89.18425-8.06715-119.93164-18.00586-17.20722-5.56201-30.814689-12.18384-39.4375-18.77344-3.337112-2.55023-5.824569-4.96777-7.63086-7.24609v-74.05469zm418.00586 3.65039v48.94727l-28.65625 9.75195 28.65625-58.69922zm0 80.63672v72.3125l-89.54687 30.47266 42.33593-86.71875 47.21094-16.06641zm-418.00586 16.13672c10.840734 7.28511 24.64349 13.42175 40.91602 18.68164 33.404738 10.79766 77.312868 17.67614 126.08398 18.98438v83.04101c-47.80997-1.18938-90.74949-7.97557-121.93164-18.05468-17.20722-5.56196-30.814712-12.18382-39.4375-18.77344-2.244965-1.71563-4.101063-3.37047-5.63086-4.96485v-78.91406zm344.10547 9.01367-42.33594 86.71875-44.76757 15.23438v-72.31055l87.10351-29.64258zm73.90039 78.85157v79.30273l-154.52734 52.58789 46.42773-95.10351 108.09961-36.78711zm-418.00586 16.43945c10.520821 6.71678 23.62526 12.43641 38.91602 17.37891 33.860178 10.94475 78.514188 17.86025 128.08398 19.03125v88.95898c-46.96842-1.26343-89.09483-7.98932-119.39453-17.7832-16.85311-5.4475-30.012968-11.93423-37.937501-17.99024-7.924533-6.056-9.667969-10.42564-9.667969-12.99218v-76.60352zm283.2168 29.42969-26.21484 53.69922v-44.77735l26.21484-8.92187z"/>
</svg>
