<?xml version="1.0" encoding="UTF-8" standalone="no"?>
<svg xmlns:rdf="http://www.w3.org/1999/02/22-rdf-syntax-ns#" xmlns="http://www.w3.org/2000/svg" version="1.0" xmlns:cc="http://creativecommons.org/ns#" xmlns:dc="http://purl.org/dc/elements/1.1/" viewBox="0 0 460.28125 341.96875">
<path d="m431.5957 7.375a27.345246 27.345246 0 0 0 -7.32226 0.72266l-369.52735 82.38086a27.345246 27.345246 0 1 0 11.89844 53.375l369.52734-82.38086a27.345246 27.345246 0 0 0 -4.57617 -54.09766z"/>
<path opacity=".75" d="m17.71875 0c-4.638711 0.00017-9.251186 1.90744-12.53125 5.1875-3.280064 3.28007-5.187328 7.89254-5.1875 12.53125v306.53125c0.000172 4.63871 1.907436 9.25118 5.1875 12.53125 3.280064 3.28006 7.892539 5.18733 12.53125 5.1875h44.84375c4.63871-0.00017 9.25118-1.90744 12.53125-5.1875 3.28006-3.28007 5.18733-7.89254 5.1875-12.53125v-154.46875c-22.41541 6.88237-49.301098 0.78606-63.78125-18.25-21.960654-26.26887-10.755335-72.68933 21.625-84.9375 14.04957-3.25379 28.10405-6.47794 42.15625-9.71875v-39.15625c-0.00017-4.63871-1.90744-9.25118-5.1875-12.53125-3.28007-3.28006-7.89254-5.18733-12.53125-5.1875h-44.84375zm376.5 143c-3.72291-0.002-7.42414 1.52961-10.05664 4.16211s-4.16376 6.33373-4.16211 10.05664v170.53125c-0.002 3.72291 1.52961 7.42414 4.16211 10.05664s6.33373 4.16376 10.05664 4.16211h51.84375c3.72291 0.002 7.42414-1.52961 10.05664-4.16211s4.16376-6.33373 4.16211-10.05664v-170.53125c0.002-3.72291-1.52961-7.42414-4.16211-10.05664s-6.33373-4.16376-10.05664-4.16211h-51.84375z"/>
</svg>
