<?xml version="1.0" encoding="UTF-8" standalone="no"?>
<svg xmlns:rdf="http://www.w3.org/1999/02/22-rdf-syntax-ns#" xmlns="http://www.w3.org/2000/svg" height="399.3226" width="367.39062" version="1.0" xmlns:cc="http://creativecommons.org/ns#" xmlns:dc="http://purl.org/dc/elements/1.1/" viewBox="0 0 367.39063 399.3226">
<path d="m144.58789 11.291347v20.74804h10.37109 57.47266 10.37109v-20.74804h-10.37109-57.47266-10.37109zm-19.28516 37.16406v30.98242h15.48438 85.8164 15.48438v-30.98242h-15.48438-85.8164-15.48438zm-26.84375 54.179693v45.22265h22.60156 125.26954 22.60156v-45.22265h-22.60156-125.26954-22.60156zm-40.60351 82.46484v66.76758h33.36914 184.9414 33.36914v-66.76758h-33.36914-184.9414-33.36914zm-57.85547 116.75977v97.46289h48.71093 269.96876 48.71093v-97.46289h-48.71093-269.96876-48.71093z"/>
<path opacity=".2" d="m157.39648 0.00032744987a0.23825481 0.23825481 0 0 0 -0.13476 0.0586l-12.47071 11.00196a0.23825481 0.23825481 0 0 0 0.15625 0.41601l77.4961 0.14063a0.23825481 0.23825481 0 0 0 0.1582 -0.41602l-12.40234-11.14062a0.23825481 0.23825481 0 0 0 -0.15821 -0.0606h-52.62109a0.23825481 0.23825481 0 0 0 -0.0234 0zm-12.93359 31.5957a0.35574709 0.35574709 0 0 0 -0.23633 0.0898l-18.62109 16.42578a0.35574709 0.35574709 0 0 0 0.23437 0.62109l115.71094 0.20899a0.35574709 0.35574709 0 0 0 0.23828 -0.61914l-18.51758-16.63477a0.35574709 0.35574709 0 0 0 -0.23828 -0.0918h-78.57031zm-18.03711 46.42774a0.51930136 0.51930136 0 0 0 -0.34375 0.1289l-27.18555 23.978523a0.51930136 0.51930136 0 0 0 0.34375 0.9082l168.9082 0.30469a0.51930136 0.51930136 0 0 0 0.34766 -0.9043l-27.03125-24.283203a0.51930136 0.51930136 0 0 0 -0.3457 -0.13281h-114.69336zm-27.28125 70.742193a0.7666725 0.7666725 0 0 0 -0.50781 0.1914l-40.13282 35.39844a0.7666725 0.7666725 0 0 0 0.50586 1.3418l249.36914 0.45117a0.7666725 0.7666725 0 0 0 0.51368 -1.33594l-39.90821-35.84961a0.7666725 0.7666725 0 0 0 -0.51172 -0.19726h-169.32812zm-38.87305 100.05468a1.1191493 1.1191493 0 0 0 -0.74023 0.28125l-58.58399 51.67188a1.1191493 1.1191493 0 0 0 0.73828 1.95898l364.01563 0.65821a1.1191493 1.1191493 0 0 0 0.75 -1.95118l-58.25586-52.33203a1.1191493 1.1191493 0 0 0 -0.74805 -0.28711h-247.17578z"/>
</svg>
