<?xml version="1.0" encoding="UTF-8" standalone="no"?>
<svg xmlns:rdf="http://www.w3.org/1999/02/22-rdf-syntax-ns#" xmlns="http://www.w3.org/2000/svg" version="1.0" xmlns:cc="http://creativecommons.org/ns#" xmlns:dc="http://purl.org/dc/elements/1.1/" viewBox="0 0 502.4375 354.62732">
<path opacity=".75" d="m54.34375 0.0023301c-5.230735 0.0817-10.387465 2.30883-14.03125 6.0625-3.643786 3.75368-5.729924 8.9878999-5.65625 14.21875v20 8.84375h-9.3125c-6.603908-0.0934-13.203214 2.5505-17.90625 7.1875-4.703037 4.637-7.4375 11.20793-7.4375 17.8125s2.734463 13.1755 7.4375 17.8125c4.703036 4.637 11.302342 7.2809 17.90625 7.1875h9.3125v75.5625h-9.3125c-6.603908-0.0934-13.203214 2.5505-17.90625 7.1875-4.703037 4.637-7.4375 11.20793-7.4375 17.8125s2.734463 13.1755 7.4375 17.8125c4.703036 4.637 11.302342 7.2809 17.90625 7.1875h9.3125v46.28125 20 20h40v-20-20-46.28125h94.3125v-28.0625-1-1h175.375v30.0625h86.3125v46.28125 20 20h40v-20-20-46.28125h6.4375c6.60391 0.0934 13.20321-2.5505 17.90625-7.1875s7.4375-11.20793 7.4375-17.8125-2.73446-13.1755-7.4375-17.8125-11.30234-7.2809-17.90625-7.1875h-6.4375v-75.5625h6.4375c6.60391 0.0934 13.20321-2.5505 17.90625-7.1875s7.4375-11.20793 7.4375-17.8125-2.73446-13.1755-7.4375-17.8125-11.30234-7.2809-17.90625-7.1875h-6.4375v-8.84375-20c0.0751-5.33502-2.0993-10.66761-5.875-14.4375-3.7757-3.7699-9.10261-5.92711-14.4375-5.84375-5.23073 0.0817-10.38746 2.30883-14.03125 6.0625-3.64378 3.75368-5.72992 8.9878999-5.65625 14.21875v20 8.84375h-356v-8.84375-20c0.0751-5.33502-2.0993-10.66761-5.875-14.4375-3.7757-3.7699-9.10261-5.92711-14.4375-5.84375zm20.3125 99.125h356v75.5625h-356v-75.5625z"/>
<path d="m196.97266 222.62733v50h119.36718v-50h-119.36718zm-33.31641 82v50h25 140 25v-50h-25-140-25z"/>
</svg>
