<?xml version="1.0" encoding="UTF-8" standalone="no"?>
<svg xmlns:rdf="http://www.w3.org/1999/02/22-rdf-syntax-ns#" xmlns="http://www.w3.org/2000/svg" version="1.0" xmlns:cc="http://creativecommons.org/ns#" xmlns:dc="http://purl.org/dc/elements/1.1/" viewBox="0 0 576.44501 577.45154">
<defs>
<style type="text/css">.fil0 {fill:#EF7900}</style>
</defs>
<path d="m64.571 0.06355556c-41.335 0-64.571 21.371-64.571 65.036v450.123c0 40.844 20.894 62.229 62.192 62.229h452.024c41.307 0 62.229-20.316 62.229-62.229v-450.123c0-42.601-20.922-65.036-63.522-65.036-0.003 0-448.494-0.143-448.352 0z"/>
<path opacity=".1" d="m181.55573 30.599815c-10.80773 76.359075-45.09298 77.055125-48.8522 116.52688-3.77609 39.64877 36.56723 64.10915 43.21262 65.77082 0 0-18.95202-21.91604-17.17009-40.62632 1.23393-12.95625 6.56627-17.6464 16.63131-31.82575 7.23396-10.19102 15.40314-24.17529 21.40874-44.829091 21.37225 18.711481 30.53726 29.599001 34.80719 52.192821 4.26995 22.59386-13.36251 63.22023-13.36251 63.22023 63.77562-48.07194 47.43739-121.45689-36.67506-180.42958z" fill-rule="evenodd" fill="#fff"/>
<path opacity=".2" d="m175.91615 212.89751s-18.95202-21.91604-17.17009-40.62632c1.23393-12.95625 6.56627-17.6464 16.63131-31.82575 7.23396-10.19102 15.40314-24.17529 21.40874-44.829091 21.37225 18.711481 30.53726 29.599001 34.80719 52.192821 4.26995 22.59386-13.36251 63.22023-13.36251 63.22023-15.24995 10.83433-25.51026 6.63227-42.31464 1.86811z" fill-rule="evenodd" fill="#fff"/>
<path style="color-rendering:auto;text-decoration-color:#000000;color:#000000;isolation:auto;mix-blend-mode:normal;shape-rendering:auto;solid-color:#000000;block-progression:tb;text-decoration-line:none;text-decoration-style:solid;image-rendering:auto;white-space:normal;text-indent:0;text-transform:none" d="m179.01475 24.742822-0.76367 5.388672c-5.33545 37.696128-16.23376 56.178756-26.48633 70.634766-10.25257 14.45602-20.4126 25.35772-22.38281 46.04492-2.00053 21.00546 7.71654 37.98992 18.57226 49.7129 5.42786 5.86149 11.15862 10.46061 16.00782 13.73632 4.84919 3.27571 8.3849 5.18496 11.14453 5.875l10.23437 2.5586-6.90039-7.97852s-4.54134-5.25616-8.88867-12.7832-8.25782-17.22258-7.48438-25.34375c0.57756-6.06432 1.98419-9.79665 4.54297-14.05078s6.39528-8.98528 11.48828-16.16016c6.74845-9.50704 14.26079-22.61481 20.18946-40.82812 18.2114 16.31382 26.16184 26.43539 30.02539 46.8789 1.91156 10.11476-1.18564 25.73653-4.99805 38.50977-3.81241 12.77323-8.14648 22.76172-8.14648 22.76172l-5.04102 11.61523 10.11133-7.62109c32.64897-24.60971 45.2556-56.5507 38.37891-89.47461-6.8767-32.923917-32.64068-66.550009-75.14649-96.351568l-4.45703-3.125zm4.91211 11.800781c38.90201 28.343918 62.01249 59.616846 68.1582 89.041017 5.66463 27.12083-2.56087 52.84381-26.26953 74.70313 1.2744-3.54537 2.54623-6.92399 3.89453-11.44141 3.93633-13.18841 7.5205-29.17714 5.16211-41.65625-4.3954-23.25776-14.38947-35.26136-35.88867-54.083987l-3.93945-3.449219-1.46289 5.027344c-5.89183 20.262522-13.83948 33.847082-20.92578 43.830082-4.97204 7.00447-8.8335 11.70719-11.76563 16.58203-2.93213 4.87485-4.80847 9.96744-5.46484 16.85938-1.00849 10.58911 3.66446 21.2059 8.34765 29.31445 0.22905 0.39658 0.41293 0.58797 0.64258 0.97266-3.7164-2.7767-7.68866-6.06653-11.56445-10.25196-10.03327-10.83482-18.59978-25.90356-16.82422-44.54687 1.78901-18.78454 10.64985-27.96864 21.18164-42.81836 10.0037-14.105123 20.95005-33.09906 26.71875-68.082037zm-59.82422 178.84571a4.7119227 4.7119227 0 0 0 -4.74609 5.1582c9.58142 100.78728 2.47773 197.44679-22.535159 315.71875a4.7119227 4.7119227 0 0 0 4.609379 5.68555h30.15429 132.03906 30.15235a4.7119227 4.7119227 0 0 0 2.32617 -0.61914h191.16992a3.9433293 3.9433293 0 0 0 3.94336 -3.94141v-113.66992a3.9433293 3.9433293 0 0 0 -3.94336 -3.94336h-208.51367c-8.30148-69.42142-9.15982-133.44891-2.90625-199.23047a4.7119227 4.7119227 0 0 0 -6.57812 -4.76367c-30.54947 13.34906-47.36589 11.43024-71.66993 13.17578-24.30403-1.74554-41.12239 0.17328-71.67187-13.17578a4.7119227 4.7119227 0 0 0 -1.83008 -0.39453z" fill="#fff"/>
</svg>
