<?xml version="1.0" encoding="UTF-8" standalone="no"?>
<svg xmlns:rdf="http://www.w3.org/1999/02/22-rdf-syntax-ns#" xmlns="http://www.w3.org/2000/svg" version="1.0" xmlns:cc="http://creativecommons.org/ns#" xmlns:dc="http://purl.org/dc/elements/1.1/" viewBox="0 0 576.44501 577.45154">
<defs>
<style type="text/css">.fil0 {fill:#EF7900}</style>
</defs>
<path d="m64.571 0.06355556c-41.335 0-64.571 21.371-64.571 65.036v450.123c0 40.844 20.894 62.229 62.192 62.229h452.024c41.307 0 62.229-20.316 62.229-62.229v-450.123c0-42.601-20.922-65.036-63.522-65.036-0.003 0-448.494-0.143-448.352 0z"/>
<path opacity=".25" d="m47.793475 84.492379h473.76154v422.84986h-473.76154z" fill="#fff"/>
<path style="color-rendering:auto;text-decoration-color:#000000;color:#000000;isolation:auto;mix-blend-mode:normal;shape-rendering:auto;solid-color:#000000;block-progression:tb;text-decoration-line:none;text-decoration-style:solid;image-rendering:auto;white-space:normal;text-indent:0;text-transform:none" d="m49.208984 76.148438a10.001 10.001 0 0 0 -10 10v422.84961a10.001 10.001 0 0 0 10 10h473.76172a10.001 10.001 0 0 0 10 -10v-422.84961a10.001 10.001 0 0 0 -10 -10.000002h-473.76172zm10 20h453.76172v402.84961h-453.76172l0.000004-402.84961zm54.082036 27.923832c-0.0755 0-4.77307 0.00091-9.48829 0.00195-2.35761 0.00031-4.716245-0.00052-6.492183 0-0.88797 0.00025-1.629233 0.00195-2.154297 0.00195-0.262532 0.00016-0.47116-0.00017-0.617188 0-0.073009 0.00009-0.130667-0.0001-0.173828 0-0.04316 0.0001 0.323865-0.01185-0.207031 0.00195a6.0561824 6.0561824 0 1 0 0.314453 12.10743c-0.523658 0.0136-0.112683 0.00195-0.078125 0.00195 0.03457-0.00008 0.089501 0.00008 0.160157 0 0.141317-0.00017 0.348077 0.00015 0.609374 0 0.522593-0.00032 1.263054-0.00195 2.150391-0.00195 1.774667-0.0005 4.132947-0.00196 6.490237-0.00196 4.71458-0.00062 9.44548 0 9.48633 0 5.89463 0 10.54296 4.64835 10.54296 10.54297 0 5.89463-4.64834 10.54297-10.54296 10.54297-0.047 0-0.12849 0.00014-0.24414-0.00195a6.0561824 6.0561824 0 0 0 -6.23633 6.22851 6.0561824 6.0561824 0 0 0 6.28906 6.14844c0.0459-0.001 0.10972-0.00195 0.19141-0.00195 5.89462 0 10.54296 4.64836 10.54296 10.54297 0 5.89464-4.64833 10.54492-10.54296 10.54492-0.047 0-0.1285-0.00191-0.24414-0.00391a6.0561824 6.0561824 0 0 0 -6.23243 6.30469 6.0561824 6.0561824 0 0 0 6.28516 6.41797c0.0459-0.001 0.10972-0.00195 0.19141-0.00195 5.89462 0 10.54296 4.64835 10.54296 10.54296 0 5.89463-4.64833 10.54297-10.54296 10.54297-0.047 0-0.1285 0.00015-0.24414-0.00195a6.0561824 6.0561824 0 0 0 -6.23633 6.22852 6.0561824 6.0561824 0 0 0 6.28906 6.14843c0.0459-0.001 0.10972-0.00195 0.19141-0.00195 5.89462 0 10.54296 4.65031 10.54296 10.54492 0 5.89463-4.64833 10.54297-10.54296 10.54297l-9.48633-0.00195c-2.35734-0.00038-4.71535-0.00092-6.490237-0.00196-0.887443-0.00023-1.629336 0.00025-2.152344 0-0.261504-0.00012-0.467267 0.00013-0.609375 0-0.142107-0.00012-0.8261-0.012-0.132812 0a6.0561824 6.0561824 0 1 0 -0.208984 12.10938c0.707764 0.0122 0.184842 0.00195 0.330078 0.00195 0.145235 0.00013 0.35291-0.00012 0.615234 0 0.524649 0.00025 1.268386-0.00023 2.15625 0 1.77573 0.00047 4.13267 0.00196 6.49023 0.00196 4.71511 0.00075 9.39541 0.00195 9.48829 0.00195 12.43998 0 22.65429-10.21433 22.65429-22.6543 0-6.63348-2.95714-12.57392-7.55469-16.73047 4.59755-4.15655 7.55469-10.09698 7.55469-16.73047 0-6.73022-3.04925-12.74001-7.76367-16.90234 4.71424-4.16233 7.76367-10.17225 7.76367-16.90234 0-6.63315-2.95755-12.57199-7.55469-16.72852 4.59755-4.15655 7.55469-10.09698 7.55469-16.73047 0-12.43997-10.21431-22.65429-22.65429-22.65429zm104.11914 0c-12.43997 0-22.6543 10.21432-22.6543 22.65429 0 6.63349 2.95716 12.57392 7.55469 16.73047-4.59714 4.15653-7.55469 10.09538-7.55469 16.72852 0 6.73008 3.04942 12.74001 7.76367 16.90234-4.71443 4.16233-7.76367 10.17212-7.76367 16.90234 0 6.63349 2.95716 12.57392 7.55469 16.73047-4.59753 4.15655-7.55469 10.09699-7.55469 16.73047 0 12.43997 10.21433 22.6543 22.6543 22.6543 0.0929 0 4.77511-0.00091 9.49023-0.00195 2.35755-0.00037 4.71451-0.00091 6.49023-0.00196 0.88786-0.00023 1.62965 0.00025 2.1543 0 0.26232-0.00012 0.47001 0.00013 0.61524 0 0.14524-0.00013-0.37761 0.01035 0.33007-0.00195a6.0561824 6.0561824 0 1 0 -0.20898 -12.10938c0.69319-0.012 0.0112-0.00012-0.13086 0-0.14211 0.00013-0.34983-0.00012-0.61133 0-0.52301 0.00025-1.26489-0.00023-2.15234 0-1.77488 0.00047-4.13094 0.00196-6.48828 0.00196-4.71468 0.00075-9.46478 0.00195-9.48828 0.00195-5.89462 0-10.54297-4.64834-10.54297-10.54297 0-5.89461 4.64835-10.54492 10.54297-10.54492 0.0817 0 0.14548 0.00066 0.1914 0.00195a6.0561824 6.0561824 0 0 0 6.29102 -6.19726 6.0561824 6.0561824 0 0 0 -6.23828 -6.17969c-0.11564 0.002-0.19714 0.00195-0.24414 0.00195-5.89462 0-10.54297-4.64834-10.54297-10.54297 0-5.89461 4.64835-10.54296 10.54297-10.54296 0.0817 0 0.14548 0.00068 0.1914 0.00195a6.0561824 6.0561824 0 0 0 6.28711 -6.3125 6.0561824 6.0561824 0 0 0 -6.23437 -6.41016c-0.11564 0.002-0.19714 0.00391-0.24414 0.00391-5.89462 0-10.54297-4.65029-10.54297-10.54492 0-5.89461 4.64835-10.54297 10.54297-10.54297 0.0817 0 0.14548 0.00066 0.1914 0.00195a6.0561824 6.0561824 0 0 0 6.29102 -6.19726 6.0561824 6.0561824 0 0 0 -6.23828 -6.17969c-0.11564 0.002-0.19714 0.00195-0.24414 0.00195-5.89462 0-10.54297-4.64834-10.54297-10.54297 0-5.89462 4.64835-10.54297 10.54297-10.54297 0.0409 0 4.77371-0.00062 9.48828 0 2.35729 0.00031 4.71361 0.00091 6.48828 0.00196 0.88734 0.00026 1.62974 0.0039 2.15234 0.0039 0.26129 0.00015 0.46807-0.00017 0.60938 0 0.0707 0.00008 0.12558-0.00008 0.16015 0 0.0346 0.00008 0.44542 0.0097-0.07812-0.0039a6.0561824 6.0561824 0 1 0 0.3125 -12.10743c-0.53083-0.0137-0.16387-0.00195-0.20703-0.00195-0.0432-0.0001-0.10081 0.00009-0.17383 0-0.14602-0.00017-0.35271 0.00016-0.61523 0-0.52506-0.00032-1.26829-0.00195-2.15626-0.00195-1.77593-0.00052-4.13263 0.00031-6.49023 0-4.71522-0.00063-9.41469-0.00195-9.49023-0.00195zm-64.14649 1.48632a6.0561824 6.0561824 0 0 0 -5.96484 6.14063v131.71484a6.0561824 6.0561824 0 1 0 12.11133 0v-131.71484a6.0561824 6.0561824 0 0 0 -6.14649 -6.14063zm25.35156 0a6.0561824 6.0561824 0 0 0 -5.96484 6.14063v131.71484a6.0561824 6.0561824 0 1 0 12.11133 0v-131.71484a6.0561824 6.0561824 0 0 0 -6.14649 -6.14063zm172.67579 2.51368c-0.0755 0-4.77307 0.00091-9.48829 0.00195-2.35761 0.00031-4.71624-0.00052-6.49218 0-0.88797 0.00025-1.62925 0.00195-2.1543 0.00195-0.26255 0.00016-0.47116-0.00017-0.61719 0-0.073 0.00009-0.13067-0.0001-0.17383 0-0.0432 0.0001 0.3238-0.01194-0.20703 0.00195a6.0561824 6.0561824 0 1 0 0.31446 12.10743c-0.52359 0.0136-0.11274 0.00195-0.07813 0.00195 0.0346-0.00008 0.08951 0.00008 0.16016 0 0.14132-0.00017 0.34807 0.00015 0.60937 0 0.52259-0.00032 1.26305-0.00195 2.15039-0.00195 1.77467-0.0005 4.13295-0.00196 6.49024-0.00196 4.71458-0.00062 9.44548 0 9.48633 0 5.89463 0 10.54296 4.64835 10.54296 10.54297 0 5.89461-4.64834 10.54297-10.54296 10.54297-0.047 0-0.1285 0.00014-0.24414-0.00195a6.0561824 6.0561824 0 0 0 -6.23633 6.22851 6.0561824 6.0561824 0 0 0 6.28906 6.14844c0.0459-0.001 0.10971-0.00195 0.19141-0.00195 5.89463 0 10.54296 4.64835 10.54296 10.54297 0 5.89463-4.64834 10.54492-10.54296 10.54492-0.047 0-0.1285-0.00191-0.24414-0.00391a6.0561824 6.0561824 0 0 0 -6.23243 6.30469 6.0561824 6.0561824 0 0 0 6.28516 6.41797c0.0459-0.001 0.10971-0.00195 0.19141-0.00195 5.89463 0 10.54296 4.64834 10.54296 10.54296 0 5.89461-4.64834 10.54297-10.54296 10.54297-0.047 0-0.1285 0.00015-0.24414-0.00195a6.0561824 6.0561824 0 0 0 -6.23633 6.22852 6.0561824 6.0561824 0 0 0 6.28906 6.14843c0.0459-0.001 0.10971-0.00195 0.19141-0.00195 5.89463 0 10.54296 4.65029 10.54296 10.54492s-4.64833 10.54297-10.54296 10.54297l-9.48633-0.00195c-2.35734-0.00038-4.71536-0.00092-6.49024-0.00196-0.88745-0.00023-1.62933 0.00025-2.15234 0-0.2615-0.00012-0.46727 0.00013-0.60938 0-0.14211-0.00012-0.82601-0.012-0.13281 0a6.0561824 6.0561824 0 1 0 -0.20898 12.10938c0.70768 0.0122 0.18484 0.00195 0.33008 0.00195 0.14524 0.00013 0.3529-0.00012 0.61523 0 0.52463 0.00025 1.26839-0.00023 2.15625 0 1.77574 0.00047 4.13267 0.00196 6.49023 0.00196 4.71511 0.00075 9.39541 0.00195 9.48829 0.00195 12.43998 0 22.65429-10.21433 22.65429-22.6543 0-6.63349-2.95715-12.57392-7.55469-16.73047 4.59754-4.15655 7.55469-10.09698 7.55469-16.73047 0-6.73022-3.04925-12.74001-7.76367-16.90234 4.71424-4.16233 7.76367-10.17226 7.76367-16.90234 0-6.63315-2.95755-12.572-7.55469-16.72852 4.59754-4.15655 7.55469-10.09699 7.55469-16.73047 0-12.43997-10.21431-22.65429-22.65429-22.65429zm104.11914 0c-12.43997 0-22.6543 10.21432-22.6543 22.65429 0 6.63348 2.95716 12.57392 7.55469 16.73047-4.59714 4.15652-7.55469 10.09538-7.55469 16.72852 0 6.73008 3.04942 12.74001 7.76367 16.90234-4.71443 4.16233-7.76367 10.17212-7.76367 16.90234 0 6.63349 2.95716 12.57392 7.55469 16.73047-4.59753 4.15655-7.55469 10.09698-7.55469 16.73047 0 12.43997 10.21433 22.6543 22.6543 22.6543 0.0929 0 4.77512-0.00091 9.49023-0.00195 2.35755-0.00037 4.7145-0.00091 6.49023-0.00196 0.88786-0.00023 1.62965 0.00025 2.1543 0 0.26232-0.00012 0.47001 0.00013 0.61524 0 0.14524-0.00013-0.37761 0.01035 0.33007-0.00195a6.0561824 6.0561824 0 1 0 -0.20898 -12.10938c0.69319-0.012 0.0112-0.00012-0.13086 0-0.14211 0.00013-0.34983-0.00012-0.61133 0-0.52301 0.00025-1.26489-0.00023-2.15234 0-1.77488 0.00047-4.13094 0.00196-6.48828 0.00196-4.71468 0.00075-9.46478 0.00195-9.48828 0.00195-5.89462 0-10.54297-4.64834-10.54297-10.54297s4.64835-10.54492 10.54297-10.54492c0.0817 0 0.14551 0.00066 0.1914 0.00195a6.0561824 6.0561824 0 0 0 6.29102 -6.19726 6.0561824 6.0561824 0 0 0 -6.23828 -6.17969c-0.11563 0.002-0.19714 0.00195-0.24414 0.00195-5.89462 0-10.54297-4.64836-10.54297-10.54297 0-5.89462 4.64835-10.54296 10.54297-10.54296 0.0817 0 0.14551 0.00068 0.1914 0.00195a6.0561824 6.0561824 0 0 0 6.28711 -6.3125 6.0561824 6.0561824 0 0 0 -6.23437 -6.41016c-0.11563 0.002-0.19714 0.00391-0.24414 0.00391-5.89462 0-10.54297-4.65029-10.54297-10.54492 0-5.89462 4.64835-10.54297 10.54297-10.54297 0.0817 0 0.14551 0.00066 0.1914 0.00195a6.0561824 6.0561824 0 0 0 6.29102 -6.19726 6.0561824 6.0561824 0 0 0 -6.23828 -6.17969c-0.11563 0.002-0.19714 0.00195-0.24414 0.00195-5.89462 0-10.54297-4.64836-10.54297-10.54297 0-5.89462 4.64835-10.54297 10.54297-10.54297 0.0409 0 4.77371-0.00062 9.48828 0 2.35729 0.00031 4.71361 0.00091 6.48828 0.00196 0.88734 0.00026 1.62974 0.0039 2.15234 0.0039 0.26129 0.00015 0.46807-0.00017 0.60938 0 0.0707 0.00008 0.12558-0.00008 0.16015 0 0.0346 0.00008 0.44356 0.0097-0.08007-0.0039a6.0561824 6.0561824 0 1 0 0.31445 -12.10743c-0.53083-0.0137-0.16387-0.00195-0.20703-0.00195-0.0432-0.0001-0.10081 0.00009-0.17383 0-0.14602-0.00017-0.35271 0.00016-0.61523 0-0.52506-0.00032-1.26828-0.00195-2.15626-0.00195-1.77593-0.00052-4.13263 0.00031-6.49023 0-4.71522-0.00063-9.41469-0.00195-9.49023-0.00195zm-64.14649 1.48632a6.0561824 6.0561824 0 0 0 -5.96484 6.14063v131.71484a6.0561824 6.0561824 0 1 0 12.11133 0v-131.71484a6.0561824 6.0561824 0 0 0 -6.14649 -6.14063zm25.35156 0a6.0561824 6.0561824 0 0 0 -5.96484 6.14063v131.71484a6.0561824 6.0561824 0 1 0 12.11133 0v-131.71484a6.0561824 6.0561824 0 0 0 -6.14649 -6.14063zm-303.32421 194.51368c-0.0755 0-4.77307 0.00091-9.48829 0.00195-2.35761 0.00031-4.716245-0.00052-6.492183 0-0.88797 0.00025-1.629233 0.00195-2.154297 0.00195-0.262532 0.00016-0.47116-0.00017-0.617188 0-0.073009 0.00009-0.130667-0.0001-0.173828 0-0.04316 0.0001 0.323865-0.01184-0.207031 0.00195a6.0561824 6.0561824 0 1 0 0.314453 12.10743c-0.523658 0.0136-0.112683 0.00195-0.078125 0.00195 0.03457-0.00008 0.089501 0.00008 0.160157 0 0.141317-0.00017 0.348077 0.00015 0.609374 0 0.522593-0.00032 1.263054-0.00195 2.150391-0.00195 1.774667-0.00051 4.132947-0.00196 6.490237-0.00196 4.71458-0.00062 9.44548 0 9.48633 0 5.89463 0 10.54296 4.64835 10.54296 10.54297 0 5.89461-4.64834 10.54297-10.54296 10.54297-0.047 0-0.12849 0.00014-0.24414-0.00195a6.0561824 6.0561824 0 0 0 -6.23633 6.22851 6.0561824 6.0561824 0 0 0 6.28906 6.14844c0.0459-0.001 0.10972-0.00195 0.19141-0.00195 5.89463 0 10.54296 4.64835 10.54296 10.54297s-4.64834 10.54492-10.54296 10.54492c-0.047 0-0.1285-0.00191-0.24414-0.00391a6.0561824 6.0561824 0 0 0 -6.23243 6.30469 6.0561824 6.0561824 0 0 0 6.28516 6.41797c0.0459-0.001 0.10972-0.00195 0.19141-0.00195 5.89463 0 10.54296 4.64834 10.54296 10.54296 0 5.89461-4.64834 10.54297-10.54296 10.54297-0.047 0-0.1285 0.00015-0.24414-0.00195a6.0561824 6.0561824 0 0 0 -6.23633 6.22852 6.0561824 6.0561824 0 0 0 6.28906 6.14843c0.0459-0.001 0.10972-0.00195 0.19141-0.00195 5.89463 0 10.54296 4.65029 10.54296 10.54492s-4.64833 10.54297-10.54296 10.54297l-9.48633-0.00195c-2.35734-0.00038-4.71535-0.00092-6.490237-0.00196-0.887443-0.00023-1.629336 0.00025-2.152344 0-0.261504-0.00012-0.467267 0.00013-0.609375 0-0.142107-0.00012-0.8261-0.012-0.132812 0a6.0561824 6.0561824 0 1 0 -0.208984 12.10938c0.707764 0.0122 0.184842 0.00195 0.330078 0.00195 0.145235 0.00013 0.35291-0.00012 0.615234 0 0.524649 0.00025 1.268386-0.00023 2.15625 0 1.77573 0.00047 4.13267 0.00196 6.49023 0.00196 4.71511 0.00075 9.39541 0.00195 9.48829 0.00195 12.43998 0 22.65429-10.21433 22.65429-22.6543 0-6.63349-2.95714-12.57392-7.55469-16.73047 4.59755-4.15655 7.55469-10.09698 7.55469-16.73047 0-6.73022-3.04925-12.74001-7.76367-16.90234 4.71424-4.16233 7.76367-10.17225 7.76367-16.90234 0-6.63315-2.95755-12.572-7.55469-16.72852 4.59755-4.15655 7.55469-10.09699 7.55469-16.73047 0-12.43997-10.21431-22.65429-22.65429-22.65429zm104.11914 0c-12.43997 0-22.6543 10.21432-22.6543 22.65429 0 6.63348 2.95716 12.57392 7.55469 16.73047-4.59714 4.15652-7.55469 10.09537-7.55469 16.72852 0 6.73008 3.04942 12.74001 7.76367 16.90234-4.71443 4.16233-7.76367 10.17212-7.76367 16.90234 0 6.63349 2.95716 12.57392 7.55469 16.73047-4.59753 4.15655-7.55469 10.09698-7.55469 16.73047 0 12.43997 10.21433 22.6543 22.6543 22.6543 0.0929 0 4.77511-0.00091 9.49023-0.00195 2.35755-0.00037 4.71451-0.00091 6.49023-0.00196 0.88786-0.00023 1.62965 0.00025 2.1543 0 0.26232-0.00012 0.47001 0.00013 0.61524 0 0.14524-0.00013-0.37761 0.01035 0.33007-0.00195a6.0561824 6.0561824 0 1 0 -0.20898 -12.10938c0.69319-0.012 0.0112-0.00012-0.13086 0-0.14211 0.00013-0.34983-0.00012-0.61133 0-0.52301 0.00025-1.26489-0.00023-2.15234 0-1.77488 0.00047-4.13094 0.00196-6.48828 0.00196-4.71468 0.00075-9.46478 0.00195-9.48828 0.00195-5.89462 0-10.54297-4.64834-10.54297-10.54297s4.64835-10.54492 10.54297-10.54492c0.0817 0 0.14548 0.00066 0.1914 0.00195a6.0561824 6.0561824 0 0 0 6.29102 -6.19726 6.0561824 6.0561824 0 0 0 -6.23828 -6.17969c-0.11564 0.002-0.19714 0.00195-0.24414 0.00195-5.89462 0-10.54297-4.64836-10.54297-10.54297 0-5.89462 4.64835-10.54296 10.54297-10.54296 0.0817 0 0.14548 0.00068 0.1914 0.00195a6.0561824 6.0561824 0 0 0 6.28711 -6.3125 6.0561824 6.0561824 0 0 0 -6.23437 -6.41016c-0.11564 0.002-0.19714 0.00391-0.24414 0.00391-5.89462 0-10.54297-4.65029-10.54297-10.54492 0-5.89461 4.64835-10.54297 10.54297-10.54297 0.0817 0 0.14548 0.00066 0.1914 0.00195a6.0561824 6.0561824 0 0 0 6.29102 -6.19726 6.0561824 6.0561824 0 0 0 -6.23828 -6.17969c-0.11564 0.002-0.19714 0.00195-0.24414 0.00195-5.89462 0-10.54297-4.64836-10.54297-10.54297 0-5.89462 4.64835-10.54297 10.54297-10.54297 0.0409 0 4.77371-0.00062 9.48828 0 2.35729 0.00031 4.71361 0.00092 6.48828 0.00196 0.88734 0.00027 1.62974 0.0039 2.15234 0.0039 0.26129 0.00015 0.46807-0.00017 0.60938 0 0.0707 0.00008 0.12558-0.00008 0.16015 0 0.0346 0.00008 0.44542 0.0097-0.07812-0.0039a6.0561824 6.0561824 0 1 0 0.3125 -12.10743c-0.53083-0.0138-0.16387-0.00195-0.20703-0.00195-0.0432-0.0001-0.10081 0.00009-0.17383 0-0.14602-0.00017-0.35271 0.00016-0.61523 0-0.52506-0.00032-1.26829-0.00195-2.15626-0.00195-1.77593-0.00052-4.13263 0.00031-6.49023 0-4.71522-0.00063-9.41469-0.00195-9.49023-0.00195zm133.88086 0c-0.0755 0-4.77307 0.00091-9.48829 0.00195-2.35761 0.00031-4.71624-0.00052-6.49218 0-0.88797 0.00025-1.62925 0.00195-2.1543 0.00195-0.26255 0.00016-0.47116-0.00017-0.61719 0-0.073 0.00009-0.13067-0.0001-0.17383 0-0.0432 0.0001 0.3238-0.01184-0.20703 0.00195a6.0561824 6.0561824 0 1 0 0.31446 12.10743c-0.52359 0.0136-0.11274 0.00195-0.07813 0.00195 0.0346-0.00008 0.08951 0.00008 0.16016 0 0.14132-0.00017 0.34807 0.00015 0.60937 0 0.52259-0.00032 1.26305-0.00195 2.15039-0.00195 1.77467-0.00051 4.13295-0.00196 6.49024-0.00196 4.71458-0.00062 9.44548 0 9.48633 0 5.89463 0 10.54296 4.64835 10.54296 10.54297 0 5.89461-4.64834 10.54297-10.54296 10.54297-0.047 0-0.1285 0.00014-0.24414-0.00195a6.0561824 6.0561824 0 0 0 -6.23633 6.22851 6.0561824 6.0561824 0 0 0 6.28906 6.14844c0.0459-0.001 0.10971-0.00195 0.19141-0.00195 5.89463 0 10.54296 4.64835 10.54296 10.54297s-4.64834 10.54492-10.54296 10.54492c-0.047 0-0.1285-0.00191-0.24414-0.00391a6.0561824 6.0561824 0 0 0 -6.23243 6.30469 6.0561824 6.0561824 0 0 0 6.28516 6.41797c0.0459-0.001 0.10971-0.00195 0.19141-0.00195 5.89463 0 10.54296 4.64834 10.54296 10.54296 0 5.89461-4.64834 10.54297-10.54296 10.54297-0.047 0-0.1285 0.00015-0.24414-0.00195a6.0561824 6.0561824 0 0 0 -6.23633 6.22852 6.0561824 6.0561824 0 0 0 6.28906 6.14843c0.0459-0.001 0.10971-0.00195 0.19141-0.00195 5.89463 0 10.54296 4.65029 10.54296 10.54492s-4.64833 10.54297-10.54296 10.54297l-9.48633-0.00195c-2.35734-0.00038-4.71536-0.00092-6.49024-0.00196-0.88745-0.00023-1.62933 0.00025-2.15234 0-0.2615-0.00012-0.46727 0.00013-0.60938 0-0.14211-0.00012-0.82601-0.012-0.13281 0a6.0561824 6.0561824 0 1 0 -0.20898 12.10938c0.70768 0.0122 0.18484 0.00195 0.33008 0.00195 0.14524 0.00013 0.3529-0.00012 0.61523 0 0.52463 0.00025 1.26839-0.00023 2.15625 0 1.77574 0.00047 4.13267 0.00196 6.49023 0.00196 4.71511 0.00075 9.39541 0.00195 9.48829 0.00195 12.43998 0 22.65429-10.21433 22.65429-22.6543 0-6.63349-2.95715-12.57392-7.55469-16.73047 4.59754-4.15655 7.55469-10.09698 7.55469-16.73047 0-6.73022-3.04925-12.74001-7.76367-16.90234 4.71424-4.16233 7.76367-10.17225 7.76367-16.90234 0-6.63315-2.95755-12.572-7.55469-16.72852 4.59754-4.15655 7.55469-10.09699 7.55469-16.73047 0-12.43997-10.21431-22.65429-22.65429-22.65429zm104.11914 0c-12.43997 0-22.6543 10.21432-22.6543 22.65429 0 6.63348 2.95716 12.57392 7.55469 16.73047-4.59714 4.15652-7.55469 10.09537-7.55469 16.72852 0 6.73008 3.04942 12.74001 7.76367 16.90234-4.71443 4.16233-7.76367 10.17212-7.76367 16.90234 0 6.63349 2.95716 12.57392 7.55469 16.73047-4.59753 4.15655-7.55469 10.09698-7.55469 16.73047 0 12.43997 10.21433 22.6543 22.6543 22.6543 0.0929 0 4.77512-0.00091 9.49023-0.00195 2.35755-0.00037 4.7145-0.00091 6.49023-0.00196 0.88786-0.00023 1.62965 0.00025 2.1543 0 0.26232-0.00012 0.47001 0.00013 0.61524 0 0.14524-0.00013-0.37761 0.01035 0.33007-0.00195a6.0561824 6.0561824 0 1 0 -0.20898 -12.10938c0.69319-0.012 0.0112-0.00012-0.13086 0-0.14211 0.00013-0.34983-0.00012-0.61133 0-0.52301 0.00025-1.26489-0.00023-2.15234 0-1.77488 0.00047-4.13094 0.00196-6.48828 0.00196-4.71468 0.00075-9.46478 0.00195-9.48828 0.00195-5.89462 0-10.54297-4.64834-10.54297-10.54297s4.64835-10.54492 10.54297-10.54492c0.0817 0 0.14551 0.00066 0.1914 0.00195a6.0561824 6.0561824 0 0 0 6.29102 -6.19726 6.0561824 6.0561824 0 0 0 -6.23828 -6.17969c-0.11563 0.002-0.19714 0.00195-0.24414 0.00195-5.89462 0-10.54297-4.64836-10.54297-10.54297 0-5.89462 4.64835-10.54296 10.54297-10.54296 0.0817 0 0.14551 0.00068 0.1914 0.00195a6.0561824 6.0561824 0 0 0 6.28711 -6.3125 6.0561824 6.0561824 0 0 0 -6.23437 -6.41016c-0.11563 0.002-0.19714 0.00391-0.24414 0.00391-5.89462 0-10.54297-4.65029-10.54297-10.54492 0-5.89461 4.64835-10.54297 10.54297-10.54297 0.0817 0 0.14551 0.00066 0.1914 0.00195a6.0561824 6.0561824 0 0 0 6.29102 -6.19726 6.0561824 6.0561824 0 0 0 -6.23828 -6.17969c-0.11563 0.002-0.19714 0.00195-0.24414 0.00195-5.89462 0-10.54297-4.64836-10.54297-10.54297 0-5.89462 4.64835-10.54297 10.54297-10.54297 0.0409 0 4.77371-0.00062 9.48828 0 2.35729 0.00031 4.71361 0.00092 6.48828 0.00196 0.88734 0.00027 1.62974 0.0039 2.15234 0.0039 0.26129 0.00015 0.46807-0.00017 0.60938 0 0.0707 0.00008 0.12558-0.00008 0.16015 0 0.0346 0.00008 0.44356 0.0097-0.08007-0.0039a6.0561824 6.0561824 0 1 0 0.31445 -12.10743c-0.53083-0.0138-0.16387-0.00195-0.20703-0.00195-0.0432-0.0001-0.10081 0.00009-0.17383 0-0.14602-0.00017-0.35271 0.00016-0.61523 0-0.52506-0.00032-1.26828-0.00195-2.15626-0.00195-1.77593-0.00052-4.13263 0.00031-6.49023 0-4.71522-0.00063-9.41469-0.00195-9.49023-0.00195zm-302.14649 1.48632a6.0561824 6.0561824 0 0 0 -5.96484 6.14063v131.71484a6.0561824 6.0561824 0 1 0 12.11133 0v-131.71484a6.0561824 6.0561824 0 0 0 -6.14649 -6.14063zm25.35156 0a6.0561824 6.0561824 0 0 0 -5.96484 6.14063v131.71484a6.0561824 6.0561824 0 1 0 12.11133 0v-131.71484a6.0561824 6.0561824 0 0 0 -6.14649 -6.14063zm212.64844 0a6.0561824 6.0561824 0 0 0 -5.96484 6.14063v131.71484a6.0561824 6.0561824 0 1 0 12.11133 0v-131.71484a6.0561824 6.0561824 0 0 0 -6.14649 -6.14063zm25.35156 0a6.0561824 6.0561824 0 0 0 -5.96484 6.14063v131.71484a6.0561824 6.0561824 0 1 0 12.11133 0v-131.71484a6.0561824 6.0561824 0 0 0 -6.14649 -6.14063z" fill="#fff"/>
</svg>
