<?xml version="1.0" encoding="UTF-8" standalone="no"?>
<svg xmlns:rdf="http://www.w3.org/1999/02/22-rdf-syntax-ns#" xmlns="http://www.w3.org/2000/svg" version="1.0" xmlns:cc="http://creativecommons.org/ns#" xmlns:dc="http://purl.org/dc/elements/1.1/" viewBox="0 0 576.44501 577.45154">
<defs>
<style type="text/css">.fil0 {fill:#EF7900}</style>
</defs>
<path d="m64.571 0.06355556c-41.335 0-64.571 21.371-64.571 65.036v450.123c0 40.844 20.894 62.229 62.192 62.229h452.024c41.307 0 62.229-20.316 62.229-62.229v-450.123c0-42.601-20.922-65.036-63.522-65.036-0.003 0-448.494-0.143-448.352 0z"/>
<path opacity=".5" style="color-rendering:auto;text-decoration-color:#000000;color:#000000;isolation:auto;mix-blend-mode:normal;shape-rendering:auto;solid-color:#000000;block-progression:tb;text-decoration-line:none;text-decoration-style:solid;image-rendering:auto;white-space:normal;text-indent:0;text-transform:none" d="m40.243266 81.506494-12.699219 20.363286s132.5537 82.53321 263.54297 6.24414c30.41721 16.20492 148.84911 70.0744 264.02929-2.87305l-12.84179-20.275392c-121.01376 76.642052-246.03125-1.458985-246.03125-1.458984l-4.77539 7.658203-5.19336-8.199219c-121.01376 76.642052-246.03125-1.458984-246.03125-1.458984zm0 74.000006-12.699219 20.36328s132.5537 82.53321 263.54297 6.24414c30.41721 16.20492 148.84911 70.0744 264.02929-2.87305l-12.84179-20.27539c-121.01376 76.64205-246.03125-1.45898-246.03125-1.45898l-4.77539 7.6582-5.19336-8.19922c-121.01376 76.64205-246.03125-1.45898-246.03125-1.45898z" fill="#fff"/>
<path style="color-rendering:auto;text-decoration-color:#000000;color:#000000;isolation:auto;mix-blend-mode:normal;shape-rendering:auto;solid-color:#000000;block-progression:tb;text-decoration-line:none;text-decoration-style:solid;image-rendering:auto;white-space:normal;text-indent:0;text-transform:none" d="m290.11631 81.602197a9.9056297 9.9056297 0 0 0 -9.47461 9.755859v8.47852c-1.15163 22.484434-6.18228 83.868724-20.68554 154.61718-16.94164 82.64306-46.99891 179.26399-97.47461 246.64063a9.9056297 9.9056297 0 1 0 15.85351 11.87695c13.83058-18.4615 26.08895-38.74432 36.97852-60.11133a7.7116452 7.7116452 0 0 0 3.00195 -1.77148l72.42188-67.03906 72.41992 67.03906a7.7116452 7.7116452 0 0 0 3.16992 1.82031c10.8254 21.18132 23.0013 41.28778 36.72266 59.60352a9.9056297 9.9056297 0 1 0 15.85351 -11.87696c-50.47569-67.37668-80.53493-163.99755-97.47656-246.64062-14.49566-70.71138-19.52848-132.06654-20.68359-154.58008v-7.597656a9.9056297 9.9056297 0 0 0 -1.82422 -5.58789 9.9056297 9.9056297 0 0 0 -8.80274 -4.626953zm0.60938 112.09961c2.87576 19.57029 6.55114 41.12887 11.29492 64.26953 1.65358 8.06634 3.42993 16.26917 5.33008 24.56836l-16.44141 15.2207-16.71289-15.4707c1.83886-8.05706 3.55959-16.02109 5.16602-23.85742 4.78081-23.32129 8.47762-45.039 11.36328-64.73047zm-19.83399 102.60156 10.79492 9.99414-17.55078 16.2461c2.40215-8.80437 4.64806-17.56254 6.75586-26.24024zm39.76953 0.24414c2.06447 8.47257 4.26234 17.02125 6.60743 25.61328l-17.13868-15.86523 10.53125-9.74805zm-19.7539 18.28516 26.23047 24.28125a7.7116452 7.7116452 0 0 0 -2.06641 1.39648l-24.33398 22.52539-24.33399-22.52539a7.7116452 7.7116452 0 0 0 -1.83789 -1.29296l26.3418-24.38477zm34.93359 36.70312c6.95871 22.36485 14.96727 44.70612 24.1836 66.38086l-47.93555-44.37304 23.45898-21.7168a7.7116452 7.7116452 0 0 0 0.29297 -0.29102zm-70.16992 0.0449a7.7116452 7.7116452 0 0 0 0.25586 0.24609l23.45898 21.7168-47.75781 44.20898c9.16157-21.61362 17.12107-43.88317 24.04297-66.17187z" fill-rule="evenodd" fill="#fff"/>
<path opacity=".5" style="color-rendering:auto;text-decoration-color:#000000;color:#000000;isolation:auto;mix-blend-mode:normal;shape-rendering:auto;solid-color:#000000;block-progression:tb;text-decoration-line:none;text-decoration-style:solid;image-rendering:auto;white-space:normal;text-indent:0;text-transform:none" d="m39.186625 83.203759-10.583984 16.968751s132.15684 82.30906 262.43164 5.65625c28.49809 15.38249 147.43188 70.92322 263.01172-2.27734l-10.70117-16.896489c-122.058 77.303399-248.15821-1.451172-248.15821-1.451172l-3.71874 5.960938-4.12305-6.509766c-122.058 77.303399-248.1582-1.451172-248.1582-1.451172zm0 74.000001-10.583984 16.96875s132.15684 82.30906 262.43164 5.65625c28.49809 15.38249 147.43188 70.92322 263.01172-2.27734l-10.70117-16.89648c-122.058 77.30338-248.15821-1.45118-248.15821-1.45118l-3.71874 5.96094-4.12305-6.50976c-122.058 77.30339-248.1582-1.45118-248.1582-1.45118z" fill="#fff"/>
</svg>
