<?xml version="1.0" encoding="UTF-8" standalone="no"?>
<svg xmlns:rdf="http://www.w3.org/1999/02/22-rdf-syntax-ns#" xmlns="http://www.w3.org/2000/svg" version="1.0" xmlns:cc="http://creativecommons.org/ns#" xmlns:dc="http://purl.org/dc/elements/1.1/" viewBox="0 0 536.19788 534.22577">
<path d="m267.98249 0.00061970631a11.473319 11.473319 0 0 0 -5.2832 1.34766l-256.62698 136.86914a11.473319 11.473319 0 0 0 -2.7168 18.23047l17.09766 17.11328a11.473319 11.473319 0 0 0 12.41402 2.52735l19.1485-7.73828v287.45507a12.58387 12.58387 0 0 0 12.584 12.58204h31.9961a12.58387 12.58387 0 0 0 12.581999 -12.58204v-308.13086a12.58387 12.58387 0 0 0 -0.2246 -2.33203l7.8359-3.16601 151.207-17.89453 150.8712 18.1582 5.5254 2.22852a12.58387 12.58387 0 0 0 -0.377 3.00585v308.13086a12.58387 12.58387 0 0 0 12.584 12.58204h31.9961a12.58387 12.58387 0 0 0 12.582 -12.58204v-288.23242l22.0742 8.9043a11.473319 11.473319 0 0 0 12.4766 -2.60156l17.1836-17.49805a11.473319 11.473319 0 0 0 -2.7871 -18.16016l-256.627-136.86914a11.473319 11.473319 0 0 0 -5.5156 -1.3476603zm28.9277 167.57227c-8.6816 0.00033-16.0451 3.10018-22.0879 9.29883-6.0431 6.19928-9.0646 13.48254-9.0644 21.85156-0.0002 8.67222 3.0213 16.02962 9.0644 22.07227 6.0428 6.0432 13.4063 9.06471 22.0879 9.06445 8.3691 0.00026 15.6493-3.02125 21.8438-9.06445 6.194-6.04265 9.2927-13.40005 9.2929-22.07227-0.0002-8.36902-3.0989-15.65228-9.2929-21.85156-6.1945-6.19865-13.4747-9.2985-21.8438-9.29883zm-85.8203 44.76953c-2.7115 0.0266-4.9401 1.68651-6.6836 4.97852l-46.4844 79.94922c-3.0924 5.26766-2.0058 9.29438 3.2617 12.08398l14.8672 8.82422c5.2674 3.10201 9.2961 2.01961 12.086-3.24805l46.4843-79.94921c3.1018-5.2672 2.0193-9.29591-3.248-12.08594l-14.8809-8.83594c-1.9753-1.15954-3.7754-1.73278-5.4023-1.7168zm60.6777 21.16602c-13.7238-0.33806-24.2472 5.72743-31.5703 18.19727l-42.3008 72.98437c-2.7898 4.65295-4.0289 10.38262-3.7168 17.19141l1.3907 92.50195-32.0743 68.79883c-1.2389 2.78975-2.0099 5.11126-2.3125 6.96484-0.9362 5.89158 0.3017 11.08412 3.711 15.57617 3.4091 4.49195 8.0595 7.20631 13.9512 8.14258 9.9107 1.54142 16.8794-1.86869 20.9082-10.22851l35.3359-75.3086c1.2387-2.78973 1.8573-5.73178 1.8574-8.82422l-0.4668-57.17968 35.8438 48.42578 10.3691 85.14648c1.2481 9.29613 6.8273 14.71637 16.7383 16.25781 6.8182 0.93625 12.7829-0.99863 17.8945-5.80273 5.1112-4.80406 7.2039-10.61515 6.2774-17.43359l-12.2403-96.75196c-1.239-7.13036-5.562-11.4446-9.6875-17.19726l-31.7324-44.25 30.6817-53.44922 15.3359 19.51758c1.2386 1.86318 3.1005 3.25893 5.5879 4.18554l30.584 14.85352v179.92969a6.4341765 6.4341765 0 1 0 12.8672 0v-177.91797c2.344-0.81249 4.4634-2.24536 6.3496-4.31836 3.1016-3.40904 4.652-7.28414 4.6523-11.625-0.0003-7.74499-3.7217-12.8561-11.164-15.33399l-26.5645-14.86718-38.1152-46.03125c-5.2677-6.19399-12.7065-10.06601-22.3145-11.61719-2.0912-0.30968-4.1156-0.48882-6.0762-0.53711z"/>
</svg>
