<?xml version="1.0" encoding="UTF-8" standalone="no"?>
<svg xmlns:rdf="http://www.w3.org/1999/02/22-rdf-syntax-ns#" xmlns="http://www.w3.org/2000/svg" height="178.53535" width="543.17322" version="1.0" xmlns:cc="http://creativecommons.org/ns#" xmlns:dc="http://purl.org/dc/elements/1.1/" viewBox="0 0 543.17322 178.53536">
<path d="m0 2.94614h99.932659c16.655311 0.00017 29.441481 4.12474 38.358591 12.37373 8.91679 8.24932 13.37525 18.46254 13.37541 30.63973-0.00016 10.21337-3.18199 18.97318-9.54545 26.27947-4.24257 4.87101-10.44909 8.72062-18.61954 11.54882 12.41288 2.98549 21.54588 8.11174 27.399 15.37877 5.8528 7.2672 8.77929 16.40018 8.77947 27.39901-0.00018 8.95626-2.08211 17.009-6.24579 24.15823-4.16404 7.14931-9.85987 12.80586-17.08755 16.96971-4.47826 2.59261-11.23471 4.47812-20.26935 5.65657-12.02032 1.57125-19.994521 2.35689-23.922551 2.35689h-92.154899v-172.76093zm53.855232 67.76093h23.215476c8.327621 0.00011 14.121661-1.43367 17.382151-4.30134 3.26028-2.86744 4.89047-7.01167 4.89057-12.43266-0.0001-5.02794-1.63029-8.95608-4.89057-11.7845-3.26049-2.82816-8.93669-4.2423-17.02862-4.24243h-23.569007v32.76093zm0 67.87879h27.222197c9.19182 0.00004 15.6733-1.63014 19.444451-4.89058 3.77092-3.26031 5.65644-7.64023 5.65657-13.13972-0.00013-5.10656-1.86602-9.2115-5.59764-12.31482-3.731881-3.10318-10.272281-4.6548-19.621211-4.65487h-27.104367v34.99999zm261.68592-46.90235 37.47476 8.36701c-1.96428 6.91365-3.84981 12.45236-5.65657 16.61616-1.80715 4.16391-4.36045 9.07411-7.65993 14.73063l18.0303 12.37374c2.19958 1.41417 5.02786 3.10327 8.48484 5.06734l-25.80807 29.69697c-4.71398-2.51402-9.60456-5.42086-14.67174-8.72053-5.06749-3.29966-9.60453-6.12794-13.61109-8.48486-8.32786 5.49945-16.65558 9.50617-24.98317 12.02021-11.54893 3.45678-24.66901 5.18518-39.36025 5.18518-23.01916 0-40.14597-4.79236-51.38048-14.37709-11.2346-9.58473-16.85188-21.21212-16.85185-34.88217-0.00003-9.82038 3.29963-19.11048 9.89897-27.87036 6.5993-8.75974 17.40175-16.16434 32.40743-22.21382-6.28514-7.62054-10.60612-14.23949-12.96299-19.85689-2.35693-5.61716-3.53539-11.33266-3.53534-17.14646-0.00005-12.25577 4.67447-22.35115 14.02355-30.2862 9.349-7.93475 23.52968-11.90219 42.54211-11.90237 19.40503 0.00018 33.66428 3.77123 42.77777 11.31313 9.1132 7.54226 13.66988 16.57704 13.67003 27.1044-0.00015 5.89237-1.39465 11.54893-4.1835 16.96968-2.78914 5.42099-6.14773 9.82055-10.07576 13.19866-3.92829 3.37832-10.95972 8.40637-21.09427 15.08418 8.40616 8.40636 17.16598 16.22342 26.27947 23.45118 2.43532-4.87087 4.51723-10.01676 6.24578-15.43772zm-55.15151-30.28618c6.20641-3.37813 10.99878-7.05096 14.37711-11.01853 3.3781-3.96732 5.06723-7.71873 5.06735-11.25423-0.00012-3.69232-1.41427-6.81522-4.24243-9.36868-2.8284-2.55315-6.71729-3.82981-11.66667-3.82996-4.87104 0.00015-8.83848 1.4143-11.90236 4.24242-3.06406 2.82843-4.59605 6.16736-4.59597 10.01685-0.00008 4.87104 4.32091 11.94175 12.96297 21.21213zm-17.08754 41.95284c-6.5994 4.63531-10.97931 8.60277-13.13972 11.90236-2.16056 3.29971-3.24083 6.79579-3.24076 10.48821-0.00007 5.73518 2.4747 10.84179 7.42424 15.31988 4.94943 4.47814 11.39162 6.71717 19.3266 6.71716 8.56332 0.00001 18.18734-3.3389 28.87206-10.01682-10.21334-7.85631-23.29415-19.32655-39.24242-34.41079zm140.19097-100.40403h99.93267c16.65531 0.00017 29.44149 4.12474 38.35858 12.37373 8.91679 8.24932 13.37527 18.46254 13.37543 30.63973-0.00016 10.21337-3.18199 18.97318-9.54545 26.27947-4.24258 4.87101-10.44909 8.72062-18.61953 11.54882 12.41286 2.98549 21.54586 8.11174 27.39899 15.37877 5.85279 7.2672 8.77929 16.40018 8.77945 27.39901-0.00016 8.95626-2.08209 17.009-6.24577 24.15823-4.16405 7.14931-9.85988 12.80586-17.08756 16.96971-4.47827 2.59261-11.23469 4.47812-20.26934 5.65657-12.02033 1.57125-19.99452 2.35689-23.92257 2.35689h-92.1549v-172.76093zm53.85524 67.76093h23.21548c8.32763 0.00011 14.12166-1.43367 17.38216-4.30134 3.26027-2.86744 4.89045-7.01167 4.89057-12.43266-0.00012-5.02794-1.6303-8.95608-4.89057-11.7845-3.2605-2.82816-8.93669-4.2423-17.02862-4.24243h-23.56902v32.76093zm0 67.87879h27.22221c9.19182 0.00004 15.6733-1.63014 19.44446-4.89058 3.7709-3.26031 5.65642-7.64023 5.65656-13.13972-0.00014-5.10656-1.86602-9.2115-5.59765-12.31482-3.73188-3.10318-10.27226-4.6548-19.62121-4.65487h-27.10437v34.99999z"/>
</svg>
