<?xml version="1.0" encoding="UTF-8" standalone="no"?>
<svg xmlns:rdf="http://www.w3.org/1999/02/22-rdf-syntax-ns#" xmlns="http://www.w3.org/2000/svg" version="1.0" xmlns:cc="http://creativecommons.org/ns#" xmlns:dc="http://purl.org/dc/elements/1.1/" viewBox="0 0 529.11841 535.49219">
<path opacity=".25" d="m264.55863 6.401752-258.15672 228.08455h51.631004v294.60312h154.89438v-173.86538h106.80297l0.00036 173.86538h151.35374v-294.60311h51.63135l-258.15708-228.08456z" fill-rule="evenodd"/>
<path d="m264.55917 0a6.4033087 6.4033087 0 0 0 -4.21484 1.669922l-0.0254-0.06641-258.15624 228.08399a6.4033087 6.4033087 0 0 0 4.238281 11.20117h45.228516v288.20117a6.4033087 6.4033087 0 0 0 6.404297 6.40235h154.89258a6.4033087 6.4033087 0 0 0 6.4043 -6.40235v-167.46289h93.99609l0.002 167.46289a6.4033087 6.4033087 0 0 0 6.40235 6.40235h151.35351a6.4033087 6.4033087 0 0 0 6.40235 -6.40235v-288.20117h45.22851a6.4033087 6.4033087 0 0 0 4.24024 -11.20117l-258.15826-228.08398v0.002a6.4033087 6.4033087 0 0 0 -4.23828 -1.605473zm-0.002 14.945313 241.24219 213.13867h-34.71485a6.4033087 6.4033087 0 0 0 -6.40234 6.40235v288.20117h-138.54883v-167.46289a6.4033087 6.4033087 0 0 0 -6.40234 -6.40235h-106.80469a6.4033087 6.4033087 0 0 0 -6.40235 6.40235v167.46289h-142.08789v-288.20117a6.4033087 6.4033087 0 0 0 -6.402343 -6.40235h-34.714844l241.23834-213.13867zm-2.63472 183.07813c-11.3438 0.00011-19.80472 2.36728-25.38281 7.10156-5.57815 4.73446-8.36722 10.75789-8.36719 18.07031-0.00003 3.46882 0.7031 6.87898 2.10938 10.23047 1.40622 3.35164 3.98433 7.30085 7.73437 11.84766-8.95316 3.60943-15.39845 8.02739-19.33593 13.2539-3.93751 5.2266-5.90627 10.76956-5.90626 16.62891 0 8.15626 3.35155 15.09376 10.05469 20.8125 6.70309 5.71875 16.92183 8.57812 30.65625 8.57812 8.76556 0 16.59369-1.03125 23.48438-3.09375 4.96867-1.5 9.93742-3.89062 14.90625-7.17187 2.39053 1.40625 5.09756 3.09375 8.12109 5.0625 3.02334 1.96875 5.94131 3.70312 8.75391 5.20312l15.39843-17.71875c-2.06261-1.17185-3.75012-2.17966-5.0625-3.02343l-10.75781-7.38282c1.96864-3.37497 3.49208-6.30464 4.57031-8.78906 1.07801-2.48433 2.20302-5.78902 3.375-9.91406l-22.35937-4.99219c-1.03134 3.23442-2.27352 6.30473-3.72656 9.21094-5.43758-4.31246-10.66414-8.97652-15.67969-13.99219 6.0468-3.98432 10.24211-6.98432 12.58594-9 2.34366-2.01556 4.34757-4.64056 6.01172-7.875 1.66397-3.2343 2.496-6.6093 2.49609-10.125-0.00009-6.28116-2.71884-11.67177-8.15625-16.17187-5.43758-4.49989-13.94539-6.74989-25.52344-6.75zm-161.22656 1.75781v103.07812h54.98438c2.34367 0 7.10148-0.46875 14.27343-1.40625 5.39054-0.70312 9.42178-1.82812 12.09375-3.375 4.3124-2.48437 7.71084-5.85935 10.19532-10.125 2.48426-4.2656 3.72646-9.07029 3.72656-14.41406-0.0001-6.56247-1.7462-12.01166-5.23828-16.34765-3.49228-4.33589-8.9415-7.39449-16.34766-9.17579 4.87491-1.68743 8.57803-3.98432 11.10938-6.89062 3.79676-4.35931 5.69521-9.58587 5.69531-15.67969-0.0001-7.26554-2.66025-13.35929-7.98047-18.28125-5.3204-4.92178-12.9493-7.38271-22.88672-7.38281h-59.625zm239.90625 0v103.07812h54.98437c2.34368 0 7.10149-0.46875 14.27344-1.40625 5.39054-0.70312 9.42178-1.82812 12.09375-3.375 4.3124-2.48437 7.71083-5.85935 10.19531-10.125 2.48427-4.2656 3.72647-9.07029 3.72657-14.41406-0.0001-6.56247-1.7462-12.01166-5.23828-16.34765-3.49228-4.33589-8.9415-7.39449-16.34766-9.17579 4.87491-1.68743 8.57803-3.98432 11.10937-6.89062 3.79677-4.35931 5.69522-9.58587 5.69532-15.67969-0.0001-7.26554-2.66025-13.35929-7.98047-18.28125-5.3204-4.92178-12.9493-7.38271-22.88672-7.38281h-59.625zm-77.48437 13.71094c2.95306 0.00009 5.27336 0.7618 6.96093 2.28515 1.68743 1.52352 2.53118 3.38681 2.53125 5.58985-0.00007 2.10946-1.00789 4.34773-3.02344 6.71484-2.01568 2.36726-4.87505 4.55866-8.57812 6.57422-5.1563-5.53118-7.73443-9.74993-7.73438-12.65625-0.00005-2.2968 0.91401-4.28897 2.74219-5.97656 1.82807-1.68741 4.19525-2.53116 7.10157-2.53125zm-130.28907 7.17187h14.0625c4.82806 0.00008 8.21478 0.84383 10.16016 2.53125 1.94525 1.68758 2.9179 4.03132 2.91797 7.03125-0.00007 3.23444-0.97272 5.70711-2.91797 7.41798-1.94538 1.711-5.4024 2.56648-10.37109 2.56641h-13.85157v-19.54688zm239.90625 0h14.0625c4.82806 0.00008 8.21478 0.84383 10.16016 2.53125 1.94525 1.68758 2.9179 4.03132 2.91797 7.03125-0.00007 3.23444-0.97272 5.70711-2.91797 7.41798-1.94538 1.711-5.40241 2.56648-10.3711 2.56641h-13.85156v-19.54688zm-121.92187 39.02344c9.51557 9.00003 17.32025 15.84377 23.41406 20.53125-6.37506 3.98439-12.11724 5.97657-17.22656 5.97656-4.73442 0.00001-8.57817-1.33592-11.53125-4.00781-2.95316-2.67186-4.42973-5.71873-4.42969-9.14063-0.00004-2.20308 0.64449-4.28903 1.93359-6.25781 1.28902-1.96871 3.90231-4.33589 7.83985-7.10156zm-117.98438 0.14062h16.17188c5.57806 0.00005 9.4804 0.92584 11.70703 2.77736 2.22649 1.8516 3.33976 4.30081 3.33984 7.34764-0.00008 3.28128-1.12508 5.89457-3.375 7.83986-2.25007 1.94533-6.11725 2.91798-11.60156 2.91797h-16.24219v-20.88282zm239.90625 0h16.17188c5.57806 0.00005 9.4804 0.92584 11.70703 2.77736 2.22649 1.8516 3.33976 4.30081 3.33984 7.34764-0.00008 3.28128-1.12508 5.89457-3.375 7.83986-2.25007 1.94533-6.11725 2.91798-11.60156 2.91797h-16.24219v-20.88282z" fill-rule="evenodd"/>
</svg>
