<?xml version="1.0" encoding="UTF-8" standalone="no"?>
<svg xmlns:rdf="http://www.w3.org/1999/02/22-rdf-syntax-ns#" xmlns="http://www.w3.org/2000/svg" version="1.0" xmlns:cc="http://creativecommons.org/ns#" xmlns:dc="http://purl.org/dc/elements/1.1/" viewBox="0 0 437.49213 464.83542">
<path d="m191.68272 0-23.39141 12.311911 36.21612 68.564941c-0.0263 0.054-0.0322 0.0686-0.059 0.12358-1.43799 2.95731-3.5862 7.22615-6.30426 12.53164-5.43613 10.610968-13.16952 25.411808-22.4108 42.944548-18.48256 35.06546-43.00979 81.08581-67.48983 126.84445-48.960109 91.5173-97.737741 182.00087-97.737741 182.00087l-10.5058 19.48797 94.734961-0.15694 23.637059 0.18244 0.11595-0.22167 203.84906-0.33743 0.2928 0.5591 92.34138-0.71211 21.87432-0.0353-0.0707-0.13144 0.71729-0.006-10.97353-19.33289-191.36434-362.31267 35.82112-67.552679-23.3698-12.349182-27.38072 51.637043-28.54213-54.040182zm28.81726 229.20044c21.9178 73.8212 67.85326 168.35687 88.22238 208.70218l-176.58822 0.29229c20.28818-40.16903 66.39194-134.98449 88.36584-208.99447z"/>
</svg>
