<?xml version="1.0" encoding="UTF-8" standalone="no"?>
<svg xmlns:rdf="http://www.w3.org/1999/02/22-rdf-syntax-ns#" xmlns="http://www.w3.org/2000/svg" version="1.0" xmlns:cc="http://creativecommons.org/ns#" xmlns:dc="http://purl.org/dc/elements/1.1/" viewBox="0 0 495.91992 479.94025">
<path opacity=".35096154" d="m252.14538 0-187.04668 191.97616h37.409094v287.96408h112.22826v-146.34051h77.38377l0.00026 146.34051h109.6629v-287.96408h37.40934l-187.04694-191.97616z"/>
<path d="m127.125 204.74779c-29.920464 0-57.566404 22.61028-57.566404 53.87695 0 31.26666 27.64594 53.91799 57.566404 53.91797 29.92046 0 57.56836-22.65131 57.56836-53.91797 0-31.26667-27.6479-53.87695-57.56836-53.87695zm-124.12305 34.15429-3.001954 234.15235l33.619141 0.43164 0.902344-70.38281 425.91798 2.83984-1.13672 57.99219 33.61523 0.66015 3.00196-153.10156-33.61524-0.6582-1.20508 61.49023-426.14648-2.8418 1.667969-130.15039-33.61914-0.43164zm211.94141 42.42383c-22.01752 0-40.34765 18.32818-40.34765 40.3457 0 22.01753 18.33013 40.34571 40.34765 40.34571h195.12696c22.01752 0 40.34765-18.32818 40.34765-40.34571 0-22.01752-18.33013-40.3457-40.34765-40.3457h-195.12696zm-150.85351 35.54297c-11.101384 0-20.562502 9.46112-20.562502 20.5625s9.461118 20.56445 20.562502 20.56445h84.054694c11.10138 0 20.56445-9.46307 20.56445-20.56445s-9.46307-20.5625-20.56445-20.5625h-84.054694z"/>
</svg>
