<?xml version="1.0" encoding="UTF-8" standalone="no"?>
<svg xmlns:rdf="http://www.w3.org/1999/02/22-rdf-syntax-ns#" xmlns="http://www.w3.org/2000/svg" height="319.23102" width="528.4873" version="1.0" xmlns:cc="http://creativecommons.org/ns#" xmlns:dc="http://purl.org/dc/elements/1.1/" viewBox="0 0 528.48731 319.23102">
<path d="m135.47711 0c-31.88425 0-61.345715 24.0933-61.345715 57.41211s29.461465 57.459 61.345715 57.45898c31.88424 0 61.34375-24.14017 61.34375-57.45898s-29.45951-57.41211-61.34375-57.41211zm-114.39454 33.375a17.916291 17.916291 0 0 0 -17.876958 17.93945l-3.199218 249.52148a17.916291 17.916291 0 1 0 35.826172 0.45899l0.960937-75.00195 453.87305 3.02539-1.21094 61.79883a17.916291 17.916291 0 1 0 35.82227 0.70312l3.19921-163.14844a17.916291 17.916291 0 0 0 -17.82619 -18.52148 17.916291 17.916291 0 0 0 -17.99609 17.81836l-1.28515 65.52539-454.11524-3.02735 1.777341-138.69336a17.916291 17.916291 0 0 0 -17.949208 -18.39843zm207.97462 63.14648c-23.46263 0-42.99415 19.53348-42.99415 42.9961 0 23.46261 19.53153 42.99414 42.99415 42.99414h207.93554c23.46262 0 42.99414-19.53153 42.99414-42.99414 0-23.46262-19.53152-42.9961-42.99414-42.9961h-207.93554zm-160.75392 37.87695c-11.830005 0-21.91211 10.08406-21.91211 21.91407 0 11.83 10.082105 21.91211 21.91211 21.91211h89.572265c11.83001 0 21.91407-10.08211 21.91407-21.91211 0-11.83001-10.08406-21.91406-21.91407-21.91407h-89.572265z"/>
</svg>
