<?xml version="1.0" encoding="UTF-8" standalone="no"?>
<svg xmlns:rdf="http://www.w3.org/1999/02/22-rdf-syntax-ns#" xmlns="http://www.w3.org/2000/svg" version="1.0" xmlns:cc="http://creativecommons.org/ns#" xmlns:dc="http://purl.org/dc/elements/1.1/" viewBox="0 0 491.08887 476.78769">
<path d="m480.0628 0.00056327342a8.948725 8.948725 0 0 0 -6.19922 2.59375l-54.37891 52.402343a8.948725 8.948725 0 1 0 12.41602 12.88672l54.38086-52.404298a8.948725 8.948725 0 0 0 -6.21875 -15.478515zm-113.36133 6.828125a8.948725 8.948725 0 0 0 -6.15039 2.707031l-73.49219 73.492187a8.948725 8.948725 0 1 0 12.6543 12.6543l73.49218-73.49219a8.948725 8.948725 0 0 0 -6.5039 -15.361328zm-196.40625 1.085937a8.948725 8.948725 0 0 0 -6.10938 2.8007807l-43.17578 44.49219a8.948725 8.948725 0 1 0 12.84375 12.46289l43.17578-44.494142a8.948725 8.948725 0 0 0 -6.73437 -15.261719zm-94.816411 6.7890627a8.948725 8.948725 0 0 0 -6.15039 2.707031l-59.652342 59.652347a8.948725 8.948725 0 1 0 12.654296 12.6543l59.652346-59.65235a8.948725 8.948725 0 0 0 -6.50391 -15.361328zm186.83203 36.863288a8.948725 8.948725 0 0 0 -6.15039 2.70703l-73.49414 73.494144a8.948725 8.948725 0 1 0 12.6543 12.65429l73.49219-73.494144a8.948725 8.948725 0 0 0 -6.50196 -15.36132zm-74.56445 14.91406a8.948725 8.948725 0 0 0 -6.15234 2.70703l-73.49219 73.492194a8.948725 8.948725 0 1 0 12.6543 12.65429l73.49218-73.492184a8.948725 8.948725 0 0 0 -6.50195 -15.36133zm-91.388671 16.82226a8.948725 8.948725 0 0 0 -6.15235 2.70703l-73.492183 73.494154a8.948725 8.948725 0 1 0 12.654297 12.65234l73.492187-73.492194a8.948725 8.948725 0 0 0 -6.501951 -15.36133zm383.70508 6.17578a8.948725 8.948725 0 0 0 -6.19922 2.59375l-54.37891 52.402354a8.948725 8.948725 0 1 0 12.41602 12.88476l54.38086-52.40234a8.948725 8.948725 0 0 0 -6.21875 -15.478524zm-83.53516 6.82813a8.948725 8.948725 0 0 0 -6.15039 2.70703l-73.49219 73.492194a8.948725 8.948725 0 1 0 12.6543 12.65429l73.49219-73.49218a8.948725 8.948725 0 0 0 -6.50391 -15.361334zm-81.48047 23.310554a8.948725 8.948725 0 0 0 -6.19922 2.59375l-36.58593 35.26757a8.948725 8.948725 0 0 0 -2.71485 5.0625l-25.14258-13.41015a10.001 10.001 0 0 0 -4.80664 -1.17578 10.001 10.001 0 0 0 -4.60547 1.17578l-223.69531 119.30469a10.001 10.001 0 0 0 -2.3691395 15.89257l14.904296 14.91602a10.001 10.001 0 0 0 10.820312 2.20312l60.828121-24.58007v179.34961a10.001 10.001 0 0 0 10.000001 10h29.82618a10.001 10.001 0 0 0 10 -10v-188.76758l94.30078-11.16016 94.48242 11.36914v188.5586a10.001 10.001 0 0 0 10 10h29.82617a10.001 10.001 0 0 0 10 -10v-178.93946l60.75977 24.50781a10.001 10.001 0 0 0 10.875 -2.26757l14.97851-15.25196a10.001 10.001 0 0 0 -2.42968 -15.83007l-96.0586-51.23047a8.948725 8.948725 0 0 0 0.0645 -0.0586l25.38086-23.40234a8.948725 8.948725 0 0 0 -5.875 -15.61133 8.948725 8.948725 0 0 0 -6.25586 2.45508l-25.38085 23.40234a8.948725 8.948725 0 0 0 -2.86329 5.25196l-72.60156-38.72071a8.948725 8.948725 0 0 0 0.17188 -0.16015l36.58593-35.26563a8.948725 8.948725 0 0 0 -6.2207 -15.47851zm166.93359 41.79101a8.948725 8.948725 0 0 0 -6.18359 2.63477l-56.35547 55.03711a8.948725 8.948725 0 1 0 12.50196 12.80468l56.35742-55.03906a8.948725 8.948725 0 0 0 -6.32032 -15.4375zm-415.44921 11.37305a8.948725 8.948725 0 0 0 -6.15235 2.70703l-57.673826 57.67578a8.948725 8.948725 0 1 0 12.654296 12.6543l57.673829-57.67578a8.948725 8.948725 0 0 0 -6.50195 -15.36133zm173.46289 254.21094c-28.06346 0.0105-56.11656 14.46186-64.97461 43.32812a5.0005 5.0005 0 0 0 4.78125 6.4668h120.45508a5.0005 5.0005 0 0 0 4.77734 -6.4707c-8.90126-28.9036-36.97561-43.33476-65.03906-43.32422z"/>
</svg>
