<?xml version="1.0" encoding="UTF-8" standalone="no"?>
<svg xmlns:rdf="http://www.w3.org/1999/02/22-rdf-syntax-ns#" xmlns="http://www.w3.org/2000/svg" height="452.11523" width="540.77673" version="1.0" xmlns:cc="http://creativecommons.org/ns#" xmlns:dc="http://purl.org/dc/elements/1.1/" viewBox="0 0 540.77674 452.11524">
<path opacity=".35096154" d="m348.72956 5.0004485-187.04668 191.97616h37.40909v247.96408h112.22826v-146.34051h77.38377l0.00026 146.34051h109.6629v-247.96408h37.40934l-187.04694-191.97616z"/>
<path d="m348.72288 0.0000054963181a5.0005 5.0005 0 0 0 -3.57422 1.509765l-170.28906 174.77735-56.22265-121.09766a2.1293943 2.1293943 0 0 0 -2.04688 -1.22656 2.1293943 2.1293943 0 0 0 -0.0215 0 2.1293943 2.1293943 0 0 0 -0.19141 -0.004 2.1293943 2.1293943 0 0 0 -1.86914 1.23242l-88.892559 191.75986a2.1293943 2.1293943 0 0 0 1.931641 3.02344h15.957031l-29.400391 53.40039a2.1293943 2.1293943 0 0 0 1.865235 3.15625h19.378906l-35.041015 57.98437a2.1293943 2.1293943 0 0 0 2.138671 3.20703l89.908201-13.47265v95.73437a2.1293943 2.1293943 0 0 0 2.12891 2.13086h21.95703a2.1293943 2.1293943 0 0 0 0.11328 -0.006 2.1293943 2.1293943 0 0 0 0.002 0 2.1293943 2.1293943 0 0 0 0.15039 0.006h21.95704a2.1293943 2.1293943 0 0 0 2.13086 -2.13086v-95.73633l53.29882 7.97657v82.71484a5.0005 5.0005 0 0 0 5 5h112.22852a5.0005 5.0005 0 0 0 5 -5v-141.33984h67.38476v141.33984a5.0005 5.0005 0 0 0 5 5h109.66211a5.0005 5.0005 0 0 0 5 -5v-242.96289h32.41016a5.0005 5.0005 0 0 0 3.58008 -8.49024l-187.04693-191.97656a5.0005 5.0005 0 0 0 -3.58789 -1.5097645zm0.008 12.164062 175.19531 179.8125h-25.5586a5.0005 5.0005 0 0 0 -5 5v242.96289h-99.66211v-141.33984a5.0005 5.0005 0 0 0 -5 -5h-77.38476a5.0005 5.0005 0 0 0 -5 5v141.33984h-102.22852v-76.21875l26.74219 4.00195a2.1293943 2.1293943 0 0 0 2.13672 -3.20703l-28.87891-47.78711v-10.19726h13.08399a2.1293943 2.1293943 0 0 0 1.86523 -3.15625l-14.94922-27.15235v-26.24804h1.64063a2.1293943 2.1293943 0 0 0 1.93164 -3.02539l-3.57227-7.69532v-42.27734a5.0005 5.0005 0 0 0 -5 -5h-16.94922l-2.77734-5.98242 169.36506-173.83008zm-161.9455 189.8125h7.30664v15.73828l-7.30664-15.73828zm2.85547 47.99805h4.45117v8.08398l-4.45117-8.08398z"/>
</svg>
