<?xml version="1.0" encoding="UTF-8" standalone="no"?>
<svg xmlns:rdf="http://www.w3.org/1999/02/22-rdf-syntax-ns#" xmlns="http://www.w3.org/2000/svg" version="1.0" xmlns:cc="http://creativecommons.org/ns#" xmlns:dc="http://purl.org/dc/elements/1.1/" viewBox="0 0 511.2222 506.33304">
<path d="m164.07422 0.00760056c-16.14684 0.476451-27.21453 23.225464-11.34376 34.341796 3.53085 2.473098 4.0984 5.40034 4.10352 21.117188 0.003 10.035651 0.62632 35.956282 1.38281 57.601565 1.37539 39.35505 1.3749 39.35547 7.33985 39.35547 5.96494 0 5.96484-0.0002 5.96484-55.843753 0-55.843545 0.0001-55.843237 5.24805-62.080079 9.99681-11.880547 8.523-26.115483-3.33985-32.25-3.19957-1.654565-6.36531-2.330419-9.35546-2.242187zm-44.46876 30.240234c-5.05176 0.208881-12.01734 2.001633-22.238276 5.30664-14.54126 4.702031-21.480887 5.507739-56.962887 6.615235-22.22248 0.693634-40.404297 1.851956-40.404297 2.574219 0 7.167161 16.474847 18.001349 24.363282 16.021484 4.018035-1.008459 5.021484-0.436515 5.021484 2.859375 0 5.458137 7.741377 10.652344 15.873047 10.652344 4.94695 0 7.126134 1.283862 8.939453 5.263672 4.212316 9.245003 15.227314 12.927723 26.005858 8.693363 8.44287-3.31679 9.16167-3.31668 11.5918 0.006 1.42497 1.9483 5.20378 5.26388 8.396476 7.36914 6.01829 3.96845 24.70886 5.218383 38.07617 2.54492 8.35929-1.67187 10.66769-49.576077 2.51368-52.164065-2.225-0.706188-5.97049-4.547823-8.32422-8.537109-3.02327-5.124048-6.35643-7.473639-12.85157-7.205078zm88.66993 0.251953c-7.33704 0.178954-11.07914 3.492546-13.20899 10.203125-0.72979 2.299316-3.65544 4.764577-6.5 5.478516-8.134 2.041505-6.98936 49.062688 1.25391 51.509768 14.21564 4.220063 37.22058 1.04267 44.66211-6.16992 6.86852-6.65723 7.28298-6.77323 13.22265-3.67578 10.82202 5.64349 20.79133 2.88269 26.89454-7.449225 2.87907-4.873832 5.08393-6.11914 10.84179-6.11914 7.64589 0 15.62305-5.914821 15.62305-11.583985 0-2.31457 1.37632-2.842614 5.02148-1.927734 6.72756 1.688514 17.24632-3.999737 21.07032-11.394531 3.07467-5.945746 3.07456-5.946062-37.22071-7.140625-35.51878-1.052981-42.28484-1.833999-57.08593-6.585938-10.98581-3.527037-18.86764-5.283718-24.57422-5.144531zm-86.25391 80.941412c-1.18761 0.0245-2.38178 0.11058-3.57812 0.26172-36.731726 4.64051-44.280502 33.27071-14.11329 53.53125 9.57406 6.43002 13.62945 7.44132 15.79493 3.9375 0.72833-1.17846 6.04423-4.83927 11.81445-8.13477 10.49129-5.99184 10.49117-5.99302 2.47266-7.43945-15.49378-2.79494-25.85938-9.23032-25.85938-16.05469 0-7.54169 5.68341-8.23984 14.42969-1.77343 7.21495 5.33422 22.72228 5.00968 26.20508-0.54883 6.77451-10.81196-9.35179-24.14733-27.16602-23.7793zm85.10156 0.30664c-7.83693-0.16756-15.409 1.73773-20.85742 6.32227-16.87494 14.19932 3.41497 30.84949 21.39453 17.55664 7.5592-5.58875 13.18555-4.77541 13.18555 1.90625 0 9.77511-30.82347 21.01549-57.98047 21.14258-37.48549 0.17545-64.220006 37.26269-43.04492 59.71484 8.47278 8.98375 9.76623 9.08553 23.56055 1.86328 10.75673-5.63189 10.7567-5.63225 4.75586-10.68164-16.52653-13.90615-7.93874-22.23088 28.74023-27.86133 43.2301-6.63609 66.00781-22.23315 66.00781-45.20117 0-13.98942-18.52046-24.39308-35.76172-24.76172zm1.83594 68.6211c-0.74478 0.0362-1.50553 0.36135-2.26562 0.99218-1.68441 1.39794-7.50256 3.14871-12.92969 3.89258-7.97621 1.09327-9.59989 2.00019-8.47071 4.72656 3.33043 8.04122 3.02868 10.3857-2.12109 16.50586-3.518 4.18091-10.82581 8.51711-20.61914 12.23633-37.75177 14.33713-50.7628 33.32873-36.05078 52.61719 6.43925 8.44228 6.23666 8.42828 19.66211 1.46289 10.20391-5.29397 10.51164-5.69892 6.49023-8.51563-12.19093-8.53886-4.24781-18.24818 22.73243-27.78906 30.88523-10.92181 44.24005-24.46221 41.29882-41.87109-1.5478-9.16142-4.49919-14.4146-7.72656-14.25781zm-43.73437 7.73632c-6.2968 0-6.29688 0.00013-6.29688 12.59375 0 6.92648 0.41004 12.59375 0.91211 12.59375 8.00177 0 11.68164-4.61126 11.68164-14.64062 0-10.31918-0.13585-10.54688-6.29687-10.54688zm152.37695 16.95899c-12.99515 0.0882-24.97465 5.68319-35.00195 16.88867-12.60872 14.09011-15.81234 34.53982-19.66993 125.50195-3.55841 83.90782-2.24492 111.09704 5.76563 119.33203 14.37472 14.77774 37.80032 0.97996 59.91406-35.29101 22.17665-36.37412 28.46806-30.09808 15.90039 15.86133-7.89293 28.86401-7.86088 38.43697 0.16602 47.99023 15.33173 18.24722 28.03943 14.4303 54.8457-16.47656 22.96127-31.04517 41.80992-62.76831 63.79883-87.47852 55.75946-62.3272 62.56794-104.08626 21.8457-133.99218-18.51217-13.59518-25.83575-14.56396-54.24219-7.16993-31.5123 8.20246-33.94313 7.4576-60.13671-18.41992-18.08812-17.86998-36.4775-26.85949-53.18555-26.74609zm-122.92578 29.85937c-1.31465-0.07-2.86325 0.62258-5.43164 1.89844-3.39802 1.68797-11.61015 4.72994-18.24805 6.75781-12.06888 3.68701-12.06836 3.68681-12.06836 13.87696s0.00008 10.18922 6.29688 7.99414c5.72064-1.99423 6.29687-3.04632 6.29687-11.50782 0-8.62732 0.30646-9.15096 4.15039-7.09375 13.77898 7.37431 7.67849 18.14832-14.41797 25.46289-24.94389 8.25717-37.89045 29.10234-26.13867 42.0879 4.26372 4.71136 3.35668 4.78158 11.65039-0.88282 5.4019-3.68937 6.77154-5.95951 6.26172-10.375-0.74859-6.48379 2.34466-8.49389 25.3125-16.45117 27.58883-9.5582 36.96784-29.8183 21.9082-47.32617-2.57964-2.999-3.88201-4.35138-5.57226-4.44141zm-9.39258 54.4375c-5.91122-0.18372-14.31913 2.79538-24.30469 8.9668-6.02577 3.72412-2.08469 9.54136 4.2461 6.26758 3.46326-1.79091 6.29687-4.36502 6.29687-5.72071 0-1.80985 0.62077-1.84408 2.33594-0.1289 3.57519 3.57519 0.48723 6.63306-12.49805 12.37305-22.9293 10.13559-28.80183 21.3923-17.91211 34.33398 6.70945 7.97372 10.00851 7.31533 10.92969-2.17969 0.90677-9.34612 3.07298-11.69586 12.39844-13.44531 19.9604-3.74459 27.83398-12.35843 27.83398-30.45313 0-6.48176-3.41495-9.82994-9.32617-10.01367zm4.78516 36.94532c-0.66188-0.0287-1.42177 0.16655-2.2793 0.6289-2.59743 1.40046-9.91831 4.15462-16.26758 6.1211-8.7121 2.69829-11.70867 4.66553-12.21484 8.02148-0.85405 5.6623 1.2412 5.62871 7.35742-0.11719 3.73314-3.50711 4.85742-3.82604 4.85742-1.38086 0 1.75003-9.03257 8.99194-20.07226 16.09375-11.03972 7.10179-19.5297 13.78936-18.86719 14.86133 1.9517 3.15789 49.78761-19.3402 56.0664-26.36914 5.8382-6.5357 6.05303-17.65865 1.41993-17.85937zm-9.75586 31.24414c-15.77943-0.39369-29.98598 23.53811-17.96875 42.98242 1.64491 2.66151 5.95048 0.84698 6.42968-2.70899 0.22048-1.63595 1.0016-10.19677 1.73438-19.02539 1.3323-16.05201 1.33251-16.0526 12.96289-11.96484 13.05915 4.5899 15.78597 3.87583 9.92578-2.59961-4.12399-4.55696-8.66574-6.57336-13.08398-6.68359z"/>
</svg>
