<?xml version="1.0" encoding="UTF-8" standalone="no"?>
<svg xmlns:rdf="http://www.w3.org/1999/02/22-rdf-syntax-ns#" xmlns="http://www.w3.org/2000/svg" version="1.0" xmlns:cc="http://creativecommons.org/ns#" xmlns:dc="http://purl.org/dc/elements/1.1/" viewBox="0 0 576.44501 577.45154">
<path d="m64.571 0.06355556c-41.335 0-64.571 21.371-64.571 65.036v450.123c0 40.844 20.895 62.229 62.192 62.229h452.024c41.307 0 62.229-20.315 62.229-62.229v-450.123c0-42.601-20.922-65.036-63.521-65.036-0.004 0-448.495-0.143-448.353 0z"/>
<path d="m287.81553 22.047509c-146.91381 0-266.2168 119.30495-266.2168 266.21875s119.30299 266.2168 266.2168 266.2168c146.9138 0 266.21875-119.303 266.21875-266.2168s-119.30495-266.21875-266.21875-266.21875zm0 19.292969c136.48743-0.000001 246.92578 110.43835 246.92578 246.92578 0 136.48744-110.43835 246.92383-246.92578 246.92383-136.48744 0-246.92578-110.43639-246.92578-246.92383 0-136.48743 110.43834-246.92578 246.92578-246.92578zm0 15.810547c-127.52761 0-231.11719 103.58762-231.11719 231.11524s103.58958 231.11719 231.11719 231.11719 231.11524-103.58957 231.11524-231.11719c0-127.52761-103.58763-231.11524-231.11524-231.11524zm0 19.291015c117.10125-0.000001 211.82227 94.72298 211.82227 211.82422 0 117.10125-94.72102 211.82422-211.82227 211.82422s-211.82422-94.72297-211.82422-211.82422c0-117.10124 94.72297-211.82422 211.82422-211.82422zm-44.55078 31.22657v136.04687h-136.04687v89.10156h136.04687v136.04688h4.85156 84.25v-136.04688h136.04688v-4.85156-84.25h-136.04688v-136.04687h-89.10156z"/>
</svg>
