<?xml version="1.0" encoding="UTF-8" standalone="no"?>
<svg xmlns:rdf="http://www.w3.org/1999/02/22-rdf-syntax-ns#" xmlns="http://www.w3.org/2000/svg" version="1.0" xmlns:cc="http://creativecommons.org/ns#" xmlns:dc="http://purl.org/dc/elements/1.1/" viewBox="0 0 540.02698 497.76822">
<path d="m367.86607 0.0075371c-15.65354 0.461898-26.38591 22.504523-11 33.28125 3.42297 2.39754 3.96378 5.232059 3.96875 20.46875 0.003 9.729064 0.61037 34.859744 1.34375 55.843753 1.33337 38.15275 1.34228 38.15624 7.125 38.15625 5.78271 0 5.78124 0.0125 5.78125-54.124999 0-54.137524 0.006-54.141201 5.09375-60.187504 9.69141-11.5176 8.25045-25.334139-3.25-31.28125-3.10183-1.604017-6.1637-2.241787-9.0625-2.15625zm-41.98047 29.292969c-0.37034-0.0035-0.75099 0.0033-1.14453 0.01953-4.89744 0.2025-11.62257 1.95221-21.53125 5.15625-14.09702 4.55838-20.85199 5.332581-55.25 6.40625-21.54357 0.67244-39.15625 1.799798-39.15625 2.5 0 6.9482 15.97756 17.450621 23.625 15.53125 3.89528-0.97765 4.875-0.445198 4.875 2.750005 0 5.2914 7.49174 10.34375 15.375 10.34375 4.79582 0 6.89833 1.23552 8.65625 5.09375 4.08363 8.96256 14.76949 12.5425 25.21875 8.4375 8.18494-3.21546 8.89411-3.22104 11.25 0 1.38143 1.88878 5.02985 5.11531 8.125 7.15625 5.83443 3.84722 23.9473 5.02928 36.90625 2.4375 8.10391-1.6208 10.34242-48.053581 2.4375-50.562505-2.15702-0.68462-5.78069-4.413841-8.0625-8.28125-2.74773-4.657042-5.76908-6.936151-11.32422-6.988281zm84.82422 0.269531c-7.11289 0.173487-10.74771 3.369431-12.8125 9.875-0.70749 2.22907-3.52358 4.620372-6.28125 5.3125-7.8855 1.97913-6.77268 47.565184 1.21875 49.937504 13.78135 4.09113 36.06705 1.02349 43.28125-5.96875 6.65868-6.45385 7.05427-6.56532 12.8125-3.5625 10.4914 5.47108 20.177 2.79752 26.09375-7.21875 2.79112-4.72494 4.91805-5.9375 10.5-5.9375 7.41231 0 15.15628-5.75403 15.15625-11.250004 0-2.24387 1.3412-2.73069 4.875-1.84375 6.52204 1.63692 16.69911-3.89362 20.40625-11.0625 2.98074-5.7641 3.00173-5.748178-36.0625-6.90625-34.43368-1.02081-40.99483-1.799476-55.34375-6.40625-10.65019-3.419286-18.31151-5.103685-23.84375-4.96875zm-83.625 78.468753c-1.15133 0.0238-2.30895 0.10348-3.46875 0.25-35.60957 4.49874-42.90185 32.23342-13.65625 51.875 9.28157 6.23358 13.21318 7.24053 15.3125 3.84375 0.70608-1.14246 5.84355-4.71143 11.4375-7.90625 10.17078-5.80879 10.1798-5.78526 2.40625-7.1875-15.02044-2.70955-25.06251-8.97786-25.0625-15.59375 0-7.31129 5.48968-7.98761 13.96875-1.71875 6.99453 5.17126 22.02985 4.85744 25.40625-0.53125 6.56755-10.48166-9.07375-23.38804-26.34375-23.03125zm82.5 0.28125c-7.59751-0.16244-14.93679 1.68052-20.21875 6.125-16.35941 13.76552 3.31972 29.91801 20.75 17.03125 7.32827-5.41802 12.78124-4.63379 12.78125 1.84375 0 9.47648-29.89141 20.37679-56.21875 20.5-36.3403 0.17009-62.24694 36.14003-41.71875 57.90625 8.21393 8.7093 9.47086 8.78286 22.84375 1.78125 10.42811-5.45983 10.44252-5.44861 4.625-10.34375-16.02164-13.48132-7.71466-21.54156 27.84375-27 41.90942-6.43335 63.99999-21.57739 64-43.84375 0-13.56204-17.97297-23.64263-34.6875-24zm1.78125 66.53125c-0.72203 0.0351-1.45062 0.35719-2.1875 0.96875-1.63295 1.35523-7.26992 3.0601-12.53125 3.78125-7.73254 1.05987-9.31344 1.91943-8.21875 4.5625 3.22868 7.79556 2.92993 10.06682-2.0625 16-3.41053 4.05318-10.4746 8.26941-19.96875 11.875-36.59845 13.89913-49.23131 32.30081-34.96875 51 6.24253 8.18437 6.04719 8.15883 19.0625 1.40625 9.89218-5.13224 10.21105-5.51934 6.3125-8.25-11.81849-8.27799-4.12473-17.68808 22.03125-26.9375 29.94168-10.58815 42.88262-23.71672 40.03125-40.59375-1.50052-8.88153-4.37122-13.96449-7.5-13.8125zm-42.375 7.5c-6.10443 0-6.12499 0.01-6.125 12.21875 0 6.71488 0.41952 12.1875 0.90625 12.1875 7.75731 0 11.31249-4.46454 11.3125-14.1875 0-10.00393-0.12095-10.21875-6.09375-10.21875zm28.53125 45.375c-1.27448-0.0679-2.76007 0.60687-5.25 1.84375-3.29421 1.6364-11.25238 4.59659-17.6875 6.5625-11.70017 3.57437-11.71874 3.55867-11.71875 13.4375 0 9.87884 0.0206 9.87802 6.125 7.75 5.54587-1.9333 6.09374-2.95324 6.09375-11.15625 0-8.36376 0.30475-8.86936 4.03125-6.875 13.35803 7.14902 7.42142 17.5964-14 24.6875-24.18185 8.0049-36.70527 28.22364-25.3125 40.8125 4.13346 4.56742 3.2409 4.64759 11.28125-0.84375 5.23687-3.57666 6.55673-5.78191 6.0625-10.0625-0.72572-6.28571 2.29632-8.25458 24.5625-15.96875 26.74598-9.2662 35.81833-28.90201 21.21875-45.875-2.50083-2.90738-3.76763-4.22522-5.40625-4.3125zm-210.11914 0.88086c-7.61765-0.11753-15.1612 0.83068-22.81055 2.55469-20.39826 4.59734-41.75926 14.28617-69.855469 23.66015-40.85558 13.631-67.032786 24.55115-81.564449 35.47852-7.2658316 5.46368-11.9689 11.21721-12.984375 17.93945-1.015476 6.72224 2.15981 13.1628 7.490234 18.72656 4.1938896 4.37749 7.0508986 11.16498 10.664062 28.19532 8.800036 41.47806 30.64845 72.77812 56.494141 87.85742 25.845686 15.0793 56.469646 12.95768 78.386716-11.94141 6.2628-7.11493 14.26745-19.81621 21.04492-32.03711 3.38874-6.11044 6.42142-12.05057 8.65625-17.06445 1.9227-4.31359 3.34814-7.3914 3.72852-10.83789 0.73587 0.0528 1.32576-0.002 4.19726 0.52539 6.00757 1.10396 8.82631 2.59856 9.11915 2.73242-0.0805 0.45324-0.40228 1.5312-1.2793 3.16992-1.77199 3.31099-2.87536 7.31182-2.24805 11.83789 0.62732 4.52608 2.42366 9.73002 5.58594 18.4004 20.18103 55.33298 52.09184 83.37291 98.55859 88.38281 14.64464 2.57811 28.0227 2.52428 41.36914-4.13281a5.0005 5.0005 0 0 0 0.041 -0.0215c25.17488-12.84326 38.52651-29.44757 52.3418-64.67578 3.75184-9.56701 6.02063-14.59226 7.81054-16.95508 1.78992-2.36282 3.03947-2.90313 7.58789-4.4668 6.63343-2.28047 17.12906-7.91047 24.96094-13.13671 7.35062-4.90513 20.01751-12.98535 27.94336-17.82422 8.35046-5.09809 23.16874-15.44725 33.51367-23.37305 1.86261-1.42705 3.16041-1.87938 3.76758-1.96484 0.60717-0.0855 0.62078-0.0564 1.04102 0.24023 0.84048 0.59331 2.64897 3.48826 3.8164 7.57031 1.16743 4.08206 1.94779 9.08318 2.54492 13.49805 0.59714 4.41487 0.76976 7.75067 1.80079 10.84375 1.12409 3.37228 2.57187 6.12312 4.9707 8.14453s6.21354 2.7947 9.17969 1.71484c5.93229-2.15967 8.84908-7.86857 11.37695-15.74414 5.73848-17.87813 7.46694-37.56237 2.28516-51.5-2.59089-6.96881-7.52898-12.88039-14.79102-14.5996-7.26204-1.71923-15.58961 0.67975-25.09766 6.8789-33.90342 22.10468-56.37833 34.34877-74.42968 38.89844-18.05136 4.54967-31.88871 1.96999-50.84961-6.49805-31.24138-13.95254-55.54669-22.19351-76.98243-25.05469-21.43569-2.86117-39.98431-0.17783-58.74414 7.38868-11.17031 4.50538-13.49844 4.83624-20.71093 2.94922-5.65114-1.47855-17.52323-4.04591-26.88672-5.83594-12.86166-2.45879-17.89808-4.85832-28.81836-13.75391-9.08392-7.3997-20.40554-14.34784-31.20117-19.59375s-20.72141-8.89862-28.607419-9.125c-3.09544-0.0888-5.52188-0.35587-7.59961-0.62695 2.28928-1.25835 5.24292-2.72125 9.132809-4.34766 7.06409-2.95357 16.65994-6.4307 28.70703-10.38867 16.66186-5.47412 32.67862-12.11338 48.61133-13.75586s31.74677 1.26072 49.68945 15.54688c7.89865 6.28901 11.67934 9.92199 17.10352 11.01171 2.71209 0.54486 6.21888-0.66209 7.99414-2.52929 1.77525-1.8672 2.62842-3.82385 3.6582-6.08399 1.27495-2.79818 2.34999-5.58284 2.21875-8.85742s-1.78252-6.47605-4.25-9.0332c-4.93496-5.1143-13.19214-9.608-28.14648-17.59375-13.93722-7.44261-26.83908-10.59709-39.53516-10.79297zm199.93164 51.90039c-5.65281 0.1925-13.39329 3.07856-22.46875 8.6875-5.84168 3.61035-2.01239 9.26753 4.125 6.09375 3.35745-1.7362 6.09374-4.24823 6.09375-5.5625 0-1.75457 0.58724-1.78779 2.25-0.125 3.46597 3.46597 0.49482 6.43536-12.09375 12-8.57862 3.79207-14.70553 7.75909-18.375 11.90625 6.17677 2.51294 12.47307 5.06083 18.90625 7.40625 1.31731-0.44859 2.86984-0.8094 4.71875-1.15625 19.35061-3.63019 26.96876-11.98935 26.96875-29.53125 0-6.67648-3.71848-9.93691-10.125-9.71875zm-304.9082 30.74805c11.88411 0.15401 23.187819 4.36784 32.738279 11.64062 15.28073 11.63645 25.84281 31.15544 25.85156 54.53906 0.008 21.03506-5.66265 35.02944-14.17578 41.84766s-20.66257 7.76567-37.078129 0.30859c-19.124607-8.6877-34.449056-32.25738-40.318352-55.19531-2.934648-11.46896-3.511125-22.69163-1.5625-31.39258 1.948625-8.70094 6.018455-14.59815 12.78125-17.42382 7.294432-3.04782 14.633204-4.41663 21.763672-4.32422zm310.62695 5.06445c-0.64165-0.0278-1.35617 0.17678-2.1875 0.625-2.51808 1.35767-9.62596 4.03109-15.78125 5.9375-0.69355 0.2148-1.2857 0.41861-1.90625 0.625 7.04736 2.3703 14.14659 4.43203 21.21875 5.96875 2.83716-6.02346 2.26051-13.0001-1.34375-13.15625zm-120.28125 35.13086c8.36706-0.12237 17.63945 1.09524 26.91211 3.53906 28.25954 7.44785 55.85206 26.38177 61.51953 48.23047 5.96898 23.01095-1.55934 42.87106-16.2207 55.34375-14.66137 12.47269-36.57327 17.46033-60.08008 9.13672-17.62827-6.24205-32.44116-21.60011-41.07617-40.21875s-10.98407-40.26842-4.625-58.54883c3.0263-8.69968 10.36855-13.79807 21.29687-16.16992 2.73208-0.59296 5.66416-0.98437 8.7461-1.17774 1.15572-0.0725 2.33205-0.11728 3.52734-0.13476z"/>
</svg>
