<?xml version="1.0" encoding="UTF-8" standalone="no"?>
<svg xmlns:rdf="http://www.w3.org/1999/02/22-rdf-syntax-ns#" xmlns="http://www.w3.org/2000/svg" version="1.0" xmlns:cc="http://creativecommons.org/ns#" xmlns:dc="http://purl.org/dc/elements/1.1/" viewBox="0 0 505.46945 506.52423">
<path d="m159.0625 0.00736697c-15.65355 0.461893-26.38398 22.51429-10.99805 33.291016 3.42297 2.397544 3.97354 5.23596 3.97852 20.472656 0.003 9.72906 0.60646 34.859749 1.33984 55.843761 1.33337 38.15275 1.33251 38.15234 7.11523 38.15234 5.78271 0 5.78321-0.001 5.78321-54.138672 0-54.137524 0.00027-54.137295 5.08789-60.183601 9.69141-11.517591 8.26216-25.316569-3.23828-31.263669-3.10183-1.604019-6.16956-2.259364-9.06836-2.173828zm-43.11133 29.316406c-4.89744 0.2025-11.64991 1.940492-21.558596 5.144532-14.09702 4.558383-20.82463 5.3404-55.222652 6.414062-21.543579 0.672444-39.169922 1.793943-39.169922 2.494141 0 6.948203 15.9717 17.452583 23.619141 15.533203 3.895284-0.97765 4.869141-0.423716 4.869141 2.771484 0 5.29139 7.503472 10.328133 15.386718 10.328133 4.79582 0 6.908095 1.24333 8.666016 5.10156 4.083629 8.96256 14.763632 12.53273 25.212888 8.42773 8.18494-3.21546 8.88239-3.21518 11.23828 0.006 1.38143 1.88878 5.04352 5.10359 8.13868 7.14453 5.834426 3.84722 23.953166 5.05663 36.912106 2.46485 8.10391-1.6208 10.34241-48.059442 2.4375-50.568366-2.15702-0.684614-5.7885-4.409931-8.07032-8.277344-2.9309-4.967507-6.16228-7.244731-12.45898-6.984375zm85.96289 0.244141c-7.11289 0.173487-10.74381 3.385055-12.80859 9.890625-0.7075 2.229071-3.54117 4.620372-6.29883 5.3125-7.8855 1.979136-6.7766 47.563219 1.21484 49.935549 13.78135 4.09113 36.08269 1.00982 43.29688-5.98242 6.65868-6.45385 7.06209-6.56532 12.82031-3.5625 10.4914 5.47108 20.15551 2.79361 26.07226-7.22266 2.79112-4.72494 4.92782-5.92968 10.50977-5.92968 7.41231 0 15.14648-5.734507 15.14648-11.230476 0-2.24386 1.33339-2.756071 4.86719-1.869141 6.52204 1.63693 16.72057-3.877993 20.42774-11.046875 2.98074-5.764102 2.98025-5.763806-36.08399-6.921875-34.43368-1.020812-40.99484-1.778-55.34375-6.384766-10.65019-3.419285-18.28806-5.123215-23.82031-4.988281zm-83.61914 78.468756c-1.15134 0.0238-2.31091 0.10738-3.47071 0.25391-35.609566 4.49874-42.925286 32.2549-13.67968 51.89648 9.28157 6.23358 13.21122 7.21319 15.31054 3.81641 0.70608-1.14246 5.86114-4.6919 11.45508-7.88672 10.17078-5.80879 10.17004-5.8087 2.39649-7.21094-15.02044-2.70955-25.07032-8.94857-25.07032-15.56445 0-7.31129 5.51116-7.98761 13.99024-1.71875 6.99453 5.17126 22.02594 4.85548 25.40234-0.53321 6.56756-10.48166-9.06398-23.40952-26.33398-23.05273zm82.5 0.29687c-7.59752-0.16244-14.93874 1.68443-20.22071 6.12891-16.35941 13.76552 3.31191 29.90628 20.74219 17.01953 7.32827-5.41802 12.78321-4.62792 12.78321 1.84961 0 9.47648-29.88359 20.37289-56.21094 20.4961-36.3403 0.17009-62.256706 36.12439-41.72852 57.89062 8.21393 8.7093 9.4689 8.80825 22.8418 1.80664 10.42811-5.45983 10.42689-5.46034 4.60937-10.35547-16.02164-13.48132-7.69513-21.55132 27.86329-27.00976 41.90942-6.43335 63.99023-21.55592 63.99023-43.82227 0-13.56204-17.95539-23.64653-34.66992-24.00391zm1.77929 66.5254c-0.72202 0.0351-1.45843 0.34938-2.19531 0.96093-1.63295 1.35523-7.27382 3.05425-12.53515 3.77539-7.73254 1.05987-9.30563 1.937-8.21094 4.58008 3.22868 7.79556 2.9358 10.06877-2.05664 16.00196-3.41053 4.05317-10.49414 8.25768-19.98828 11.86328-36.59845 13.89913-49.21375 32.31056-34.95118 51.00976 6.24253 8.18437 6.0472 8.17056 19.0625 1.41797 9.89218-5.13224 10.19153-5.5252 6.29297-8.25586-11.81849-8.27799-4.12082-17.69004 22.03516-26.93945 29.94168-10.58815 42.89043-23.71476 40.03906-40.5918-1.50051-8.88153-4.36341-13.97426-7.49219-13.82226zm-42.39648 7.5c-6.10443 0-6.10547 0.0001-6.10547 12.20898 0 6.71488 0.39804 12.20898 0.88477 12.20898 7.75731 0 11.32422-4.47039 11.32422-14.19336 0-10.00392-0.13072-10.2246-6.10352-10.2246zm216.12695 42.57812c-5.01086 0.0847-8.36718 0.82031-8.36718 0.82031-20.93275 4.97485-30.72657 28.23243-30.72657 28.23243-9.65634 22.38155-4.67187 45.23242-4.67187 45.23242 7.22801 32.59887 33.57422 27.20312 33.57422 27.20312 17.70676-1.15259 30.60937-22.10351 30.60937-22.10351 14.65636-19.71849 16.50196-37.12891 16.50196-37.12891 3.42888-26.50015-13.00977-36.39648-13.00977-36.39648-8.29051-4.99904-17.46762-5.96834-23.91016-5.85938zm-187.57617 2.81055c-1.27448-0.0679-2.77569 0.60295-5.26562 1.83984-3.29421 1.6364-11.25435 4.58486-17.68946 6.55078-11.70017 3.57437-11.70117 3.57429-11.70117 13.45313s0.001 9.87802 6.10547 7.75c5.54587-1.9333 6.10352-2.95325 6.10352-11.15625 0-8.36376 0.29694-8.87133 4.02343-6.87696 13.35803 7.14902 7.4429 17.59444-13.97851 24.68555-24.18185 8.0049-36.73065 28.21389-25.33789 40.80274 4.13346 4.56742 3.25263 4.63392 11.29297-0.85743 5.23687-3.57666 6.5665-5.778 6.07226-10.05859-0.72572-6.28571 2.27289-8.23504 24.53906-15.94922 26.74598-9.2662 35.83786-28.9059 21.23829-45.8789-2.50083-2.90738-3.76373-4.21741-5.40235-4.30469zm96.9668 10.52539c-8.41314 0.24856-16.78438 4.17344-22.87695 9.93554-12.2049 12.75078-16.48487 30.96308-16.99219 48.12891-0.59368 7.88735 1.50126 15.70581 4.91211 22.76758 5.58365 12.12638 18.24984 20.73892 31.70117 20.66601 9.52436 1.34451 19.56781-2.06324 25.99023-9.30859 5.80706-5.9161 8.64604-13.88571 10.55274-21.78515 4.20787-16.38858 5.29231-34.66504-2.20899-50.29688-4.63699-7.68956-11.46861-14.40169-19.78906-17.99414-3.63145-1.57931-7.46491-2.22626-11.28906-2.11328zm172.30664 36.69726c-14.60301-0.14523-27.2168 7.43555-27.2168 7.43555-24.56983 11.42193-33.04687 45.02344-33.04687 45.02344-3.06811 32.22282 16.35742 36.87305 16.35742 36.87305 16.19074 6.55399 39.78906-7.74024 39.78906-7.74024 21.10533-10.41898 31.01758-29.73633 31.01758-29.73633 15.97422-21.89073-0.76172-39.94336-0.76172-39.94336-7.89842-8.95715-17.37686-11.82497-26.13867-11.91211zm-278.37891 5.55078c-5.73063-0.17811-13.882 2.71049-23.5625 8.69336-5.84168 3.61035-2.0202 9.24995 4.11719 6.07618 3.35745-1.7362 6.10352-4.23262 6.10352-5.54688 0-1.75457 0.60285-1.78778 2.26562-0.125 3.46597 3.46597 0.47138 6.43146-12.11719 11.9961-22.22881 9.82595-27.92226 20.73689-17.36523 33.2832 6.50448 7.73012 9.70267 7.09362 10.5957-2.11133 0.87907-9.06059 2.98093-11.33915 12.02149-13.03516 19.35061-3.63019 26.98242-11.98152 26.98242-29.52343 0-6.28375-3.31039-9.52892-9.04102-9.70704zm4.63867 35.81641c-0.64165-0.0278-1.3796 0.16115-2.21093 0.60938-2.51808 1.35767-9.61423 4.02719-15.76953 5.93359-8.44595 2.61586-11.35109 4.52391-11.8418 7.77734-0.82795 5.48931 1.20344 5.45708 7.13281-0.11328 3.61909-3.39997 4.70899-3.71032 4.70899-1.33984 0 1.69656-8.75657 8.71866-19.45899 15.60351-10.70245 6.88483-18.93328 13.36899-18.29101 14.40821 1.89207 3.06142 48.26654-18.75025 54.35351-25.56446 5.65984-6.33603 5.86851-17.11986 1.37695-17.31445zm158.80274 19.04102c-10.09767 0.0205-19.10232 6.90014-27.57422 11.92383-7.89841 5.63949-17.54626 4.9639-26.66406 4.20117-21.68295-1.25057-46.04542 6.2429-57.71094 25.80273-8.48659 12.60449-9.19048 29.35738-2.42187 42.87305 6.12467 11.05428 12.89295 22.44928 23.82031 29.44922 10.95525 8.27282 24.77945 9.89406 37.63086 13.34375 14.14214 3.30957 21.55584 16.81966 31.64258 25.90429 15.20475 15.18395 38.18911 20.52175 58.92773 16.19922 20.04659-6.42924 36.30165-26.6823 35.14453-48.24609-2.27275-14.90765-9.55874-28.65526-17.57812-41.26367-2.48395-10.5498-2.1153-21.45533-2.74805-32.20313 0.62207-17.22571-13.46724-29.66017-25.98633-39.21875-6.46144-3.68359-13.42421-6.62896-20.75781-8.01562-1.94844-0.52201-3.85467-0.75379-5.72461-0.75zm-168.26172 11.24804c-15.29736-0.38166-29.06807 22.81965-17.41797 41.66993 1.59466 2.5802 5.76786 0.82233 6.23242-2.625 0.21374-1.58597 0.97124-9.88641 1.68164-18.44532 1.2916-15.56162 1.29134-15.56249 12.56641-11.59961 12.66019 4.44968 15.30421 3.75808 9.62305-2.51953-3.99801-4.41775-8.40229-6.3736-12.68555-6.48047zm301.5 19.07032c-3.74398-0.0699-7.51603 0.35886-11.10742 1.09375-12.28941 2.00861-22.99701 9.13675-32.6875 16.5957-10.7616 7.64118-17.33289 20.32568-18.25195 33.40625-0.48677 3.87109-0.26658 7.82113 1.95898 11.1582 4.5851 9.59817 13.79962 17.67161 24.79883 18.07031 15.08796-0.37022 30.02881-5.73959 42.00195-14.92187 7.85464-6.47864 15.19087-14.09039 19.49805-23.4375 4.96913-10.29772 3.71508-23.50434-4.08203-32.07227-1.34238-1.68389-2.89946-3.19734-4.63086-4.47851-5.09832-3.79305-11.25809-5.29761-17.49805-5.41406z"/>
</svg>
