<?xml version="1.0" encoding="UTF-8" standalone="no"?>
<svg xmlns:rdf="http://www.w3.org/1999/02/22-rdf-syntax-ns#" xmlns="http://www.w3.org/2000/svg" version="1.0" xmlns:cc="http://creativecommons.org/ns#" xmlns:dc="http://purl.org/dc/elements/1.1/" viewBox="0 0 576.44501 577.45154">
<path d="m64.571 0.06355556c-41.335 0-64.571 21.371-64.571 65.036v450.123c0 40.844 20.896 62.229 62.192 62.229h452.024c41.307 0 62.229-20.314 62.229-62.229v-450.123c0-42.601-20.922-65.036-63.521-65.036-0.004 0-448.495-0.143-448.353 0z"/>
<path style="color-rendering:auto;text-decoration-color:#000000;color:#000000;isolation:auto;mix-blend-mode:normal;shape-rendering:auto;solid-color:#000000;block-progression:tb;text-decoration-line:none;text-decoration-style:solid;image-rendering:auto;white-space:normal;text-indent:0;text-transform:none" d="m288.77647 18.34829c-0.99029 0.0016-1.97692 0.01128-2.96094 0.0293-26.51948 0.07963-47.58992 16.364216-67.73437 27.541016-22.79727 11.923281-48.94404 17.090752-74.71289 15.630859a4.7507087 4.7507087 0 0 0 -0.45118 -0.0039c-3.9173 0.14954-9.2701 0.161792-14.47851 1.652344-5.20841 1.490551-10.78564 5.204107-12.47461 11.802734a4.7507087 4.7507087 0 0 0 -0.041 0.166016c-1.4467 6.635414 1.39627 12.378499 4.63282 16.492187 3.23654 4.113688 6.92683 7.379639 8.89062 10.164064a4.7507087 4.7507087 0 0 0 0.27149 0.34766c11.49334 13.4545 23.1646 26.62981 35.31054 39.49805a4.7507087 4.7507087 0 0 0 7.31836 -0.5c-0.30397 0.42528 0.0997-0.067 0.85547-0.54688 0.75576-0.47991 1.7941-1.04848 2.92969-1.89062s2.92166-2.0298 3.30859-5.02344c0.19346-1.49682-0.29483-3.14745-1.02148-4.24805-0.57182-0.86608-1.22625-1.48791-1.92383-2.01953-13.25196-15.74532-27.7733-30.019259-39.08594-46.113285 0.0259-0.04661-0.002-0.231834 0.0273-0.277344 0.12195-0.185944 0.47645-0.538549 1.24805-0.882812 1.54321-0.688527 4.52327-0.988902 6.49219-0.765625a4.7507087 4.7507087 0 0 0 0.57031 0.03125c20.32994-0.156114 42.87502 1.275926 62.98828-9.607422 28.26166-12.906107 52.89318-33.372855 82.34571-33.660156 28.31394 0.581212 52.58295 19.455151 78.99218 33.191406 18.707 10.571914 39.83193 18.430318 62.21485 17.742187 3.9158 0.288064 7.71967 0.06214 10.79883 0.384766 2.69411 0.282286 4.46214 0.969203 5.87695 2.181641 0.002 0.201206 0.13603 0.51641 0.0684 0.730468-0.14594 0.461344-0.58981 1.216036-1.44141 2.146485-1.63678 1.788342-4.57541 3.791252-7.01758 6.970706-11.70047 11.720485-23.45148 23.394015-35.21875 35.044925a4.7507087 4.7507087 0 0 0 1.49805 7.75195c-0.51047-0.21501 1.22236 1.21785 3.06445 2.92774 0.92105 0.85494 1.96762 1.87881 3.95899 2.5039 1.99136 0.62509 5.19289-0.096 6.82422-1.71679a4.7507087 4.7507087 0 0 0 0.0625 -0.0625c15.93318-16.42865 33.605-31.77545 48.5625-50.158213a4.7507087 4.7507087 0 0 0 0.77929 -1.378906c1.6058-4.427633 1.43282-9.316664-0.51953-13.626953-1.89747-4.189144-6.09325-7.872089-11.52344-8.333984-18.92374-4.21176-37.61907-2.213363-54.05664-7.376953a4.7507087 4.7507087 0 0 0 -0.19921 -0.05859c-32.06174-8.559745-58.03255-36.180904-93.94143-44.742201a4.7507087 4.7507087 0 0 0 -0.10938 -0.02539c-6.97658-1.488832-14.04651-1.923111-20.97851-1.91211zm-13.10547 35.626954c-29.75626 120.82747 24.57095 119.76544 54.70508 190.7793 21.13672-109.50074-42.09548-84.8626-54.70508-190.7793zm-187.5332 50.853516c-0.983883-0.007-1.92943 0.0137-2.837891 0.0332l0.0039-0.002c-0.0062-0.00009-0.01138 0.002-0.01758 0.002-0.04684 0.001-0.105718-0.003-0.152343-0.002a4.7507087 4.7507087 0 0 0 -1.417969 0.25c-4.819649 0.60801-8.557444 3.95678-10.273438 7.52539-1.854274 3.85619-2.329952 7.94208-2.320312 11.35938-1.758599 17.93169-1.376177 35.58728-8.148438 50.61328a4.7507087 4.7507087 0 0 0 -0.142578 0.34766c-11.9254 33.25949-41.08741 61.89576-45.054679 101.74223a4.7507087 4.7507087 0 0 0 0 0.01c-2.732702 27.98758 11.124818 52.63721 23.044922 74.89258 13.300792 24.93906 24.367431 51.94392 21.78125 79.63281a4.7507087 4.7507087 0 0 0 -0.01563 0.2207c-0.195404 4.18371-0.338397 9.5185 0.919922 14.75586 1.258317 5.23736 4.35978 10.81027 10.378906 13.30664a4.7507087 4.7507087 0 0 0 0.568359 0.19532c5.50699 1.5035 10.478231-0.72934 13.927735-3.13672 3.4495-2.40739 6.185051-5.02767 8.248046-6.15625a4.7507087 4.7507087 0 0 0 0.546875 -0.34766c15.281726-11.31201 29.312186-23.76343 43.203116-36.33984a4.7507087 4.7507087 0 0 0 -0.16795 -7.1875c0.12446 0.10257-0.44188-0.51603-1.02149-1.41993-0.57961-0.90386-1.23393-2.05633-2.2207-3.27929-0.98677-1.22297-2.59744-3.0941-5.68164-3.15235-2.75402-0.052-4.73862 1.62384-6.06836 3.40235-14.66101 12.11511-28.237721 25.13342-43.103523 35.72461-0.0087-0.006-0.05287 0.00079-0.0625-0.006-0.143174-0.0968-0.474416-0.43032-0.791015-1.17383-0.633199-1.48702-0.852216-4.37978-0.572266-6.10156a4.7507087 4.7507087 0 0 0 0.06055 -0.62891c0.499257-17.6934 0.30134-36.71501-8.578125-53.83203-13.502564-31.15997-35.308486-58.3284-36.71875-90.60937-0.02934-29.47407 19.28574-54.91076 34.003906-81.7168 10.69567-18.54424 18.983966-39.47343 18.238282-61.94336-0.000284-0.009 0.000286-0.0169 0-0.0254 0.28016-3.57548 0.03526-7.06368 0.308593-9.71094 0.245536-2.37807 0.756615-3.53024 1.761719-4.40625 0.384604-0.0181 0.799996-0.11393 1.191406 0.0449 0.626903 0.25447 1.502923 0.86132 2.515625 1.83789 1.938783 1.86961 4.043399 4.96694 7.460938 7.43555 11.4751 11.24085 22.48672 23.06747 34.53321 34.29102a4.7507087 4.7507087 0 0 0 6.98437 -0.55469c0.84663-1.08601 3.03464-2.70187 4.75977-5.70117 0.86256-1.49965 1.63795-3.99229 0.76562-6.45313-0.717-2.02266-2.21366-3.30197-3.86719-4.32617-16.17059-16.23523-31.63281-33.79531-50.419921-48.30078a4.7507087 4.7507087 0 0 0 -2.484375 -0.97266c-1.062259-0.0943-2.084477-0.12953-3.068359-0.13672zm408.42968 11.2793c-1.42875 0.0132-2.70343 0.0967-3.76757 0.0644a4.7507087 4.7507087 0 0 0 -2.2168 0.47461c-9.06624 4.40158-13.51997 12.30518-19.00195 15.9668a4.7507087 4.7507087 0 0 0 -0.58594 0.46094c-11.47844 10.61251-23.28419 21.0185-34.71094 31.97851a4.7507087 4.7507087 0 0 0 0.61524 7.35547c-0.41931-0.2855 0.0966 0.12184 0.60156 0.89844 0.50497 0.77659 1.10405 1.84561 1.93554 2.99219 0.83153 1.14658 1.82156 2.79969 4.6504 3.46289 1.41442 0.33159 3.18115 0.0504 4.4121-0.62696 0.9597-0.5281 1.61757-1.19227 2.19141-1.88672 14.93541-13.10963 28.5299-27.43544 43.86328-38.76171 0.008 0.006 0.0722-0.008 0.082-0.002 0.0997 0.0578 0.40761 0.31446 0.72852 0.98047 0.64183 1.33203 0.90061 4.09525 0.61719 5.53516a4.7507087 4.7507087 0 0 0 -0.0879 0.80859c-0.43333 18.76546 0.37054 38.78539 9.64062 56.77149 13.33331 31.70945 34.1153 60.19682 35.29492 93.00586-0.83473 28.18664-19.81092 52.1974-34.16406 77.99804-10.41301 17.53818-18.33914 37.65042-17.56445 59.14063-0.35506 3.77029-0.13748 7.47917-0.48438 10.35156-0.31742 2.62834-0.93999 4.01069-2.17969 5.03711-1.27373 0.23072-2.08929-0.14179-3.84374-1.68555-1.9949-1.7553-4.15873-4.68557-7.33008-7.10937-10.86107-10.35775-21.72546-20.71274-32.5918-31.06446a4.7507087 4.7507087 0 0 0 -7.63672 1.55469c0.18054-0.41759-0.0724 0.0863-0.66992 0.68164-0.59752 0.59539-1.45442 1.3418-2.35742 2.36524-0.90301 1.02343-2.23014 2.4331-2.25977 5.16015-0.0263 2.41851 1.64096 4.55452 3.34766 5.74024 16.66325 15.43847 32.09282 33.15264 51.14258 47.10937a4.7507087 4.7507087 0 0 0 2.01953 0.85352c5.56844 0.93707 10.68999-1.5686 13.85351-5.19727 3.04736-3.4954 4.71539-7.98575 4.73633-12.60742 2.4914-17.02103 1.42889-33.66131 7.41797-47.85547a4.7507087 4.7507087 0 0 0 0.14063 -0.38086c9.94276-30.63017 35.00219-56.07428 43.84374-90.44726a4.7507087 4.7507087 0 0 0 0.0293 -0.1211c5.64054-24.57368-0.23803-50.07576-11.71094-71.53711-14.79814-31.10852-32.4967-62.08095-30.92574-95.77139a4.7507087 4.7507087 0 0 0 0 -0.44727c-0.38444-8.05691 1.28644-20.39574-7.39062-28.88086a4.7507087 4.7507087 0 0 0 -1.52344 -1c-2.3774-0.97238-4.64901-1.27615-6.68164-1.34765-0.50816-0.0179-1.00226-0.022-1.47852-0.0176zm-250.77734 17.39648c-18.72696 68.60519 7.32377 101.50013 5.51563 151.70508-26.22239-46.42443-52.22222-87.529-77.23047-104.81445 20.61595 41.54838-6.28416 91.44615-15.51563 131.87695-13.15936 57.63367 4.66296 96.19661 33.9043 112.68946-0.44249-28.08354 8.78474-52.90532 14.25-58.84375 7.20419 50.74935 15.45453 81.85108 55.625 112.16992 4.0515-63.9203 24.14345-47.37629 31.26172-126.88086 29.3198 48.4228 23.62729 96.84673 9.19336 145.26953 25.82596-23.08242 54.41786-42.11433 90.10351-145.26953l-7.35547 77.23242c22.72802-55.58184 87.57749-110.78136-26.20312-266.17187 11.29894 90.12836-11.8557 102.07559-22.98633 138.37304-26.16818-77.20063-77.71267-82.46257-90.5625-167.33594zm-86.39453 296.21094c-0.32416-0.001-0.66177 0.0216-1.01367 0.0703-2.49533 0.34529-4.27278 2.09046-5.39063 3.92774l-1.72265 1.7793a4.7507087 4.7507087 0 0 0 -0.15235 0.16406c-13.99509 15.85899-31.9612 29.2827-44.79101 48.2832a4.7507087 4.7507087 0 0 0 -0.60352 1.26758c-1.74257 5.68879 0.26701 11.38495 3.80469 15.11523 3.42584 3.61237 8.29407 5.8355 13.52344 5.65235 16.99963 2.17074 33.60683 1.13872 47.78906 7.17187a4.7507087 4.7507087 0 0 0 0.39844 0.15039c29.1507 9.4305 53.90246 32.77266 86.25976 42.23828a4.7507087 4.7507087 0 0 0 0.12695 0.0352c27.97528 7.35069 57.62894 1.22809 81.93555-12.97656 29.12917-14.19211 58.931-29.27057 90.59375-27.23242a4.7507087 4.7507087 0 0 0 0.54297 0.004c7.58917-0.38161 18.58364 0.76496 26.79297-6.43164a4.7507087 4.7507087 0 0 0 1.10156 -1.41601c3.89282-7.64887 1.78834-16.96163-4.77344-22.35352-13.42549-15.92767-27.93186-30.96574-41.31836-46.4707a4.7507087 4.7507087 0 0 0 -7.68164 0.68359c0.58028-0.97916 0.29295-0.3697-0.42968 0.0723-0.72263 0.44193-1.76757 0.98881-2.8711 1.6914-1.10352 0.7026-2.70847 1.10302-3.66797 4.22266-0.47975 1.55982 0.002 3.88194 0.95508 5.10937 0.62795 0.80861 1.26964 1.27057 1.91016 1.64649 12.74845 14.66626 26.96739 28.03558 38.07031 43.07812-0.002 0.0781 0.0795 0.3151 0.0606 0.36133-0.0408 0.0994-0.25399 0.43911-0.86524 0.83203-1.22249 0.78584-3.89087 1.28192-5.15625 1.07618a4.7507087 4.7507087 0 0 0 -0.42382 -0.0488c-23.24672-1.65865-46.77865 2.32862-67.76172 13.11328-0.0117 0.006-0.0235 0.0116-0.0352 0.0176-29.09056 13.59642-57.03739 31.99085-88.07226 30.18164-31.19041-2.12439-56.52123-24.75085-86.2168-39.14258-16.22127-8.20961-34.14483-11.998-52.13672-11.8125h-0.0566c-2.86564-0.004-6.27648-0.0191-8.34961-0.58008-1.04317-0.28231-1.62898-0.65664-1.83399-0.86328-0.12209-0.1231-0.14517-0.44635-0.20117-0.65625 0.42234-1.67563 1.50935-3.178 3.54493-5.09766 2.13627-2.01462 5.06399-4.20253 7.44335-7.54101 10.335-10.68461 20.62119-21.39286 30.94336-32.04102a4.7507087 4.7507087 0 0 0 -1.23242 -7.52734c0.10632 0.0549-1.69772-1.86567-4.11914-3.78125-0.90803-0.71835-2.20772-1.64852-3.98828-1.9043-0.29676-0.0426-0.60748-0.0673-0.93164-0.0684z" fill="#fff"/>
</svg>
