<?xml version="1.0" encoding="UTF-8" standalone="no"?>
<svg xmlns:rdf="http://www.w3.org/1999/02/22-rdf-syntax-ns#" xmlns="http://www.w3.org/2000/svg" version="1.0" xmlns:cc="http://creativecommons.org/ns#" xmlns:dc="http://purl.org/dc/elements/1.1/" viewBox="0 0 576.44501 577.45154">
<path d="m64.571 0.06355556c-41.335 0-64.571 21.371-64.571 65.036v450.123c0 40.844 20.896 62.229 62.192 62.229h452.024c41.307 0 62.229-20.314 62.229-62.229v-450.123c0-42.601-20.922-65.036-63.521-65.036-0.004 0-448.495-0.143-448.353 0z"/>
<path fill="#fff" d="m288.22178 17.338525c-13.66874-0.03073-29.59313 4.140644-41.00976 10.71875-1.5739 0.906848-4.48365 2.543843-6.47266 3.652343-1.98908 1.108503-7.12321 4.095553-11.40234 6.623047-11.95097 7.058888-22.47117 12.171206-30.49805 14.847657-15.97952 5.328151-30.18964 7.524139-47.7793 7.333984-14.98547-0.162003-21.85391 0.676942-27.20117 3.355469-3.81873 1.912861-5.97623 3.958066-7.57227 7.1875-1.23819 2.505298-1.36806 3.011079-1.51562 6.591797-0.17578 4.265733 0.25956 7.127858 1.42578 9.324218 0.79442 1.496021 3.28802 4.673844 7.1875 9.205078 1.29409 1.503722 3.47676 4.098992 4.86914 5.761722 1.39231 1.66272 4.26697 4.98031 6.35547 7.36524 2.08851 2.38494 4.43094 5.10604 5.22656 6.05664 1.6857 2.01408 8.77598 9.91491 11.9668 13.33398 1.21214 1.29879 4.37031 4.79575 7.00781 7.7793 0.39144 0.44279 0.79854 0.89305 1.19141 1.33593-5.55342 4.71348-10.84582 9.72521-15.85352 15.00977-16.13541-16.49627-32.20949-33.2966-49.748044-48.17773-1.322716-0.47758-3.217403-0.75139-5.285157-0.80274-3.446256-0.0856-7.373824 0.41099-10.007812 1.39649-6.532943 2.44428-9.09645 10.15241-9.976563 30.16992-0.722871 16.4435-0.853178 17.47373-3.800781 28.24023-2.625123 9.58871-5.342285 16.51455-11.195312 28.50782-4.353362 8.43975-8.918513 17.36935-14.640625 24.79492 0 0.65918-2.729207 6.25016-3.623047 7.42382-1.150226 1.51035-8.904998 16.63254-10.75 20.96485-5.032004 11.81604-7.583203 22.11163-8.433594 34.24023-0.789886 11.26564 0.568314 20.11213 5.316406 34.83203 1.930629 5.98537 6.288977 15.33948 14.847657 31.83399 12.278902 23.66405 15.403251 30.49998 19.035156 41.6914 4.987209 15.36746 5.967109 22.34029 5.759765 40.77149-0.0869 7.72295 0.02216 13.22834 0.267579 14.81836 1.686274 10.92367 7.348357 17.13577 16.183593 17.75781 2.659444 0.18726 2.931958 0.13829 5.404297-1.06836 3.40022-1.65952 5.601-3.08718 12.591797-8.13672 5.437625-3.92774 8.341775-6.20615 15.470705-12.08593 1.62711-1.34205 3.86501-3.11346 4.95898-3.94922 1.09396-0.8357 3.21606-2.66592 4.72266-4.06836 1.50659-1.4025 4.73112-4.26698 7.18555-6.35547 3.27734-2.78876 5.78056-4.93128 8.16015-6.98047 4.59689 5.4314 9.48002 10.6118 14.62305 15.52344-9.16145 9.43333-18.61925 19.12179-25.00977 25.54883-18.86124 18.96903-20.67243 21.20978-21.64843 26.81445-0.9501 5.45596 0.0969 9.98089 3.11914 13.51172 4.28614 5.00744 11.10548 7.31689 23.13281 7.83789 19.54554 0.84672 22.44432 1.2469 34 4.54492 14.20154 4.05311 30.27562 11.71612 50.24414 23.93359 1.79015 1.09528 4.24209 2.5412 5.43555 3.20703 1.19339 0.6659 4.11705 2.35268 6.5039 3.77149 16.63128 9.88645 30.23897 14.55194 45.9375 15.73828 2.98093 0.22527 5.48201 0.48662 5.58399 0.59375 0.34669 0.36406 14.63182-0.24529 18.08398-0.77148 11.11057-1.69351 20.61249-4.49624 29.66602-8.78907 2.08851-0.99029 6.80268-3.22654 10.48242-4.95898 3.67967-1.73241 10.10619-4.81228 14.2832-6.86133 8.58246-4.21028 18.18272-8.73313 20.07422-9.4414 0.6962-0.26068 2.48678-0.98047 3.97852-1.60352 10.23576-4.2749 18.5362-6.76281 30.3789-9.14648 9.0498-1.82148 8.79576-1.82342 21.73633-1.75196 11.33299 0.0626 11.96739 0.0392 16.63086-0.86133 5.14997-0.99454 11.12088-2.74112 12.61914-3.68359 2.07597-1.30592 3.68771-3.93784 4.27734-6.97852 0.21208-1.09397 0.49241-4.01063 0.62305-6.50195 0.18888-3.60207 0.13062-4.79731-0.29687-5.82031-0.51-1.22068-7.74373-9.83757-12.88868-15.35352-2.81704-3.02011-10.42212-11.54115-20.8457-23.31054-2.94962-3.33048-6.74109-7.52621-10.12695-11.24024 6.02492-5.07267 11.74235-10.49833 17.1289-16.23828 1.02658 0.99518 3.06464 2.9557 3.54102 3.42578 1.61246 1.59122 5.98741 5.83185 9.73828 9.41211 3.75078 3.58026 8.79665 8.3881 11.19531 10.69141 2.39874 2.30333 8.59494 8.16632 13.7793 13.03711 10.87102 10.21347 10.23179 9.84679 16.83789 9.65039 3.80897-0.11324 4.31795-0.21488 6.5332-1.30664 1.5889-0.78306 3.0479-1.864 4.2754-3.20703 4.38456-4.79748 6.02355-10.83643 6.85937-25.0625 0.95082-16.18326 1.02296-16.72066 2.3457-22.59961 3.64761-16.21191 9.91413-31.02576 21.35157-50.45118 6.51256-11.06092 9.89844-16.78709 11.66992-19.68945 2.54212-4.16489 6.60426-11.95144 8.04883-15.41211 4.10456-9.83358 4.61781-11.20689 6.11718-17.19336 4.25153-16.9751 3.88166-32.89139-1.1289-49.53125-3.23419-10.74059-5.99476-17.04958-19.45117-44.66211-8.64792-17.74547-8.2286-16.79915-11.72852-26.01367-4.56177-12.01014-6.93905-20.26131-8.58203-29.72461-0.65557-3.77608-0.81486-6.61013-1.04102-18.38086-0.25391-13.2146-0.30392-14.14484-1.21679-18.26367-1.70954-7.71355-2.84932-10.38316-5.4043-12.73828-2.0481-1.88787-4.18079-2.56045-9.83008-3.05859-2.08205-0.18359-3.71046-0.27138-5.01758-0.23829-2.17855 0.0551-3.4963 0.4453-4.66211 1.2168-0.79845 0.52839-4.70185 3.90266-8.67187 7.51367-3.97002 3.611-8.21656 7.45775-9.44336 8.52344-1.22679 1.06569-5.13263 4.64686-8.69922 7.95703-12.67746 11.76621-17.51311 16.17837-21.38086 19.57031-0.0843 0.0739-0.16177 0.14301-0.24805 0.21875-4.92048-5.71781-10.15108-11.16094-15.67968-16.28906 3.05807-3.06732 5.84996-5.87358 9.42382-9.43945 22.52577-22.47534 34.87608-35.044504 35.69336-36.345708 2.04713-3.259418 2.19853-3.864087 2.22852-9.652344 0.0224-4.342211-0.11519-5.745689-0.68359-7.482422-0.86313-2.637221-3.17845-5.313455-5.70118-6.591797-6.59083-3.339839-12.71986-4.605514-25.92382-5.375-15.6034-0.909313-18.49184-1.201014-25.27149-2.525391-10.34233-2.020346-20.5984-5.475191-31.68555-10.660156-4.32683-2.023459-6.19669-3.08896-18.76757-10.660156-4.60033-2.770688-10.05604-5.998098-12.14453-7.1875-2.08844-1.1894-5.67164-3.287148-7.95899-4.662109-11.37635-6.838383-26.49589-12.840978-36.64453-14.550782-4.5975-0.774579-11.66688-1.259425-18.76758-1.27539zm2.27344 19.707031c3.63034-0.03771 7.2263 0.169803 9.72461 0.632812 11.67782 2.164248 26.95632 8.127184 38.00976 14.81836 2.46801 1.494048 5.3554 3.147197 6.41407 3.68164 1.05859 0.534444 5.11344 2.785547 9.02734 4.990235 3.91397 2.20469 7.94303 4.442609 8.9375 4.988281 0.99453 0.545668 3.99643 2.223745 6.68164 3.742188 10.93039 6.181005 22.44742 11.212077 32.81445 14.3125 7.51404 2.247189 11.49473 2.851624 21.61719 3.267578 17.04525 0.700407 24.4184 1.331517 24.91602 2.136718 0.0905 0.146449-3.77103 4.250071-8.58203 9.117188-6.67584 6.753744-19.48934 19.454784-31.76172 31.564454-32.21186-24.15144-71.92839-38.810714-114.96485-39.759766 0.63748 4.560756 1.1821 9.139662 2.22852 13.451176 0.67066 3.36838 1.58365 6.63354 2.67187 9.83008 93.14006 4.85616 167.06641 81.79483 167.06641 176.15234 0.00001 62.22857-32.15848 116.87426-80.77148 148.26953-0.0106 0.009-0.0187 0.0208-0.0293 0.0293-0.77957 0.62428-1.63224 1.16795-2.52344 1.60351-0.0591 0.0289-0.12019 0.0617-0.17969 0.0899-9.31602 5.77735-19.2082 10.71532-29.57617 14.69922-8.51101 11.42814-18.17392 21.90166-28.53711 31.74414 28.49254-5.03152 54.91145-16.14063 77.88281-31.92188 2.05875 2.21633 5.52535 6.03354 8.76758 9.65039 3.74436 4.17698 8.22785 9.04776 9.94922 10.83789 1.72138 1.79013 4.1038 4.39992 5.28516 5.79102 1.18143 1.39112 3.46412 3.92142 5.07812 5.61328 3.88171 4.06899 7.73552 8.72693 7.51368 9.08594-0.52029 0.84175-3.80211 1.05986-16.66016 1.03906-13.5861-0.022-13.72057-0.0282-19.86524 1.03906-9.89319 1.71831-21.26336 5.02489-29.99414 8.73047-1.79015 0.75977-12.42792 5.93364-23.66601 11.49219-27.59521 13.64909-26.45279 13.1427-38.42578 17.10547-7.02908 2.32645-11.74471 3.49446-17.46094 4.33594-3.40956 0.50189-6.42773 0.69043-11.01758 0.65234-6.81076-0.0565-6.64742-0.0469-12.26367-0.89062-7.38836-1.10996-22.21104-6.48414-30.4082-11.01758-3.25147-1.79825-14.58324-8.3375-15.02539-8.66992-0.73894-0.55553-20.94988-12.29872-25.65821-14.90821-6.92704-3.83921-17.10781-8.22886-25.38867-10.95703-8.80346-2.90025-13.12173-3.46659-34.89258-4.54297-4.70711-0.23276-8.74966-0.55938-8.99804-0.71289-0.33331-0.20599-0.20577-0.59316 0.53515-1.48437 1.27279-1.53106 11.54187-12.21995 25.15235-26.19141 2.63125-2.70099 7.87853-8.12592 12.57031-12.97461 27.73571 21.55837 61.28618 35.9752 97.86719 40.44336-13.01666-8.81715-25.03757-19.38998-34.77344-31.71484-68.3824-24.27512-117.29688-89.50658-117.29688-166.26563 0-85.97564 61.35921-157.47969 142.71485-173.18359 0.95717-8.16382 2.38855-16.24355 4.09961-24.142585-30.56422 4.562985-58.87903 16.098315-83.28711 32.916015-2.67928-3.07158-5.86751-6.72335-7.34375-8.41796-6.65934-7.6444-11.34874-13.00366-13.63086-15.5586-0.99447-1.11342-3.12948-3.536148-4.72071-5.406252-1.59124-1.870104-3.6373-4.221691-4.54492-5.226562-0.90766-1.004874-2.03877-2.350165-2.52344-2.96875-0.48466-0.618586-1.91725-2.296748-3.17773-3.742188-1.9767-2.26673-2.22289-2.70483-1.78125-3.146484 0.59769-0.597675 4.69171-0.762447 24.88477-1.009766 19.29765-0.236355 20.99958-0.480274 34.15039-4.810546 7.55465-2.487566 13.4243-5.094196 22.62695-10.066407 7.63894-4.127364 16.55129-8.98809 20.43164-11.166015 9.66241-5.423261 19.83747-10.347035 24.94336-12.056641 4.11155-1.376668 11.30277-3.322786 15.23437-4.097656 2.63871-0.52006 6.30326-0.804092 9.9336-0.841797zm-13.54297 43.251953c-26.98397 109.5704 22.28273 108.60811 49.60937 173.00586 19.16749-99.29894-38.17456-76.95706-49.60937-173.00586zm-187.03516 47.744141c0.5536-0.10592 8.464816 7.63275 34.089846 33.40821 2.53295 2.54782 4.55291 4.59763 6.85156 6.91797-25.97505 33.69148-41.447266 75.87613-41.447266 121.60351 0 41.48541 12.736776 80.04879 34.498046 111.9961-0.56247 0.48005-1.10813 0.93777-1.6543 1.41015-5.66585 4.90055-12.25838 10.52893-17.10546 14.58203-3.76636 3.14941-5.06585 4.27042-12.857426 10.98633-1.692501 1.45887-4.592627 3.89208-6.414063 5.43359-1.821367 1.5415-3.379781 2.82226-3.474609 2.82227-0.640783 0-0.799266-3.05811-0.832031-17.01563-0.02434-10.39208-0.159489-16.59137-0.445313-18.26367-1.280999-7.49436-4.21282-17.11718-7.810547-25.65625-1.819739-4.31913-7.430448-15.35429-16.154297-31.83398-10.872789-20.53929-13.798082-26.94103-16.896484-37.0586-5.234535-17.09323-5.312462-28.26171-0.355469-44.30664 3.483509-11.27553 8.212771-21.17116 17.90625-37.44531 14.338961-24.0735 18.196465-31.41974 23.636719-44.92969 5.84319-14.51045 6.199693-16.75207 7.484375-46.5625 0.239683-5.56337 0.307912-5.95922 0.980469-6.08789zm404.58594 11.15821c0.0448 0.0007 0.0795 0.0131 0.10352 0.0371 0.24132 0.24095 0.4306 6.04807 0.5625 16.33203 0.26014 20.28383 0.32302 20.68855 4.57422 34.26953 3.13471 10.01427 4.5108 13.06212 17.75781 39.76172 11.33639 22.84857 12.45806 25.38719 16.89648 37.80273 5.23899 14.65464 6.69006 26.13034 4.72071 37.35742-1.15814 6.6028-1.68921 8.56587-3.80079 14.07422-4.45044 11.60941-7.32596 17.15407-19.48046 37.53516-3.67713 6.16601-7.57799 12.75104-8.66993 14.64062-1.09198 1.88958-2.54528 4.41985-3.23632 5.61328-3.58422 6.18982-10.67741 22.07843-12.17579 27.28907-1.83121 6.36807-2.79032 12.50851-3.11718 20.07422-0.50046 11.58498-1.13218 21.59204-1.42578 22.59765-0.14515 0.49726-0.50759 0.95247-0.80274 1.00977-0.93461 0.18143-0.90134 0.21411-17.13476-15.29297-4.3726-4.17697-14.19926-13.52715-21.85547-20.78711-0.11187-0.10608-0.16201-0.15396-0.27149-0.25781 25.83843-33.63267 41.22267-75.69538 41.22266-121.28516 0-42.13822-13.14527-81.26505-35.54102-113.50781 1.27884-1.15203 2.54326-2.28645 3.41016-3.04688 2.01441-1.767 5.83626-5.26877 8.52148-7.77929 2.6852-2.5105 6.19-5.70875 7.78125-7.09766 1.59124-1.38889 5.19277-4.62873 7.98829-7.2168 10.14415-9.39166 13.30059-12.13353 13.97265-12.12304zm-244.64844 13.21875c-16.98224 62.21347 6.64165 92.04278 5.00196 137.57031-23.77933-42.09924-47.35684-79.3738-70.03516-95.04883 18.69524 37.67746-5.69891 82.9278-14.07031 119.5918-11.93335 52.26414 4.22907 87.23318 30.74609 102.18945-0.40126-25.46709 7.9658-47.97616 12.92188-53.36133 6.533 46.02121 14.01544 74.22461 50.44336 101.71875 3.67404-57.96507 21.89256-42.96118 28.34765-115.05859 26.58818 43.91141 21.42707 87.82296 8.33789 131.73437 23.41984-20.9319 49.34805-38.18978 81.70899-131.73437l-6.66992 70.03516c20.61053-50.40348 79.41639-100.45972-23.76368-241.37305 10.24626 81.73142-10.75012 92.56473-20.84375 125.48047-23.73018-70.00812-70.47234-74.77813-82.125-151.74414zm30.20118 313.70703c-0.81915 7.66251-1.04023 15.37444-0.59375 23.07226 1.79586 0.0839 3.59647 0.14188 5.40429 0.17774 2.28062-7.64771 4.44417-15.31819 6.29492-23.04297-0.76434 0.01-1.51849 0.0293-2.28515 0.0293-2.95726 0-5.89897-0.0929-8.82031-0.23633z"/>
</svg>
