<?xml version="1.0" encoding="UTF-8" standalone="no"?>
<svg xmlns:rdf="http://www.w3.org/1999/02/22-rdf-syntax-ns#" xmlns="http://www.w3.org/2000/svg" version="1.0" xmlns:cc="http://creativecommons.org/ns#" xmlns:dc="http://purl.org/dc/elements/1.1/" viewBox="0 0 576.44501 577.45154">
<path d="m64.571 0.06355556c-41.335 0-64.571 21.371-64.571 65.036v450.123c0 40.844 20.896 62.229 62.192 62.229h452.024c41.307 0 62.229-20.314 62.229-62.229v-450.123c0-42.601-20.922-65.036-63.521-65.036-0.004 0-448.495-0.143-448.353 0z"/>
<path style="color-rendering:auto;text-decoration-color:#000000;color:#000000;isolation:auto;mix-blend-mode:normal;shape-rendering:auto;solid-color:#000000;block-progression:tb;text-decoration-line:none;text-decoration-style:solid;image-rendering:auto;white-space:normal;text-indent:0;text-transform:none" d="m289.03038 44.031884c-1.52515 0.04179-3.0874 0.425841-4.60938 1.169922-7.94874 6.84244-3.32623 18.519448-4.5625 27.65625 1.19293 9.014141-3.40629 20.805605 4.90625 27.250004 8.24073 4.23246 16.23817-4.446101 14.28125-12.701176-0.73347-12.925032 1.5562-26.249952-1.3125-38.892578-2.17207-3.012223-5.3478-4.574367-8.70312-4.482422zm0 57.531256c-1.52515 0.0418-3.0874 0.42584-4.60938 1.16992-7.9612 6.82305-3.31753 18.52476-4.5625 27.65625 1.19293 9.01414-3.40629 20.8056 4.90625 27.25 8.25481 4.18415 16.23745-4.42965 14.28125-12.70117-0.73347-12.92503 1.5562-26.24995-1.3125-38.89258-2.17207-3.01223-5.3478-4.57437-8.70312-4.48242zm117.32617 0.33008c-0.44686-0.003-0.8936 0.007-1.3418 0.0273-7.07242 0.4042-18.97709 3.25127-17.39453 12.3418 1.78039 7.67631 10.54724 5.61019 15.64453 2.93945 7.05239-1.97028 12.36644 4.0552 18.3125 6.375 8.77938 0.76161 10.9212-11.70535 3.34375-15.03125-5.34144-3.97146-11.86158-6.61163-18.56445-6.65234zm-235.75782 0.006c-0.71499-0.0118-1.43068 0.006-2.14648 0.0527-8.47266 0.83672-18.99079 4.71328-21.95313 13.17578-1.44804 7.57147 9.09883 11.09397 13.57813 5.48047 5.69292-5.08822 13.66471-4.10379 19.9668-1.05273 7.89973 2.34142 12.16651-10.10647 4.87695-13.66602-4.36904-2.42323-9.31732-3.90805-14.32227-3.99023zm212.16602 12.92968c-1.41684 0.0689-2.86963 0.54209-4.21875 1.49805-7.43322 8.5176-12.78786 18.87914-17.64648 28.9668-3.4865 8.17218 9.51925 13.76503 13.45898 5.9707 4.66476-9.88997 11.34296-18.72749 16.375-28.28125 0.20452-4.93171-3.71822-8.36111-7.96875-8.1543zm-187.90625 0.12305c-1.45833 0.0208-2.91667 0.0417-4.375 0.0625-6.53841 2.4514-5.94098 10.72788-1.25 14.65625 5.87625 7.79613 8.86741 17.64572 15.59375 24.6875 7.378 3.78811 14.26059-5.97266 9.15234-12.04102-5.90689-9.29359-9.59535-21.16338-19.12109-27.36523zm-51.71484 5.01563c-1.59193 0.0715-3.19563 0.65587-4.56641 1.89062-6.61884 9.41892-13.0385 19.60089-16.62305 30.51562-1.93125 7.97516 10.66209 11.66199 13.87305 4.23438 3.92456-9.54831 10.28127-18.07866 14.75586-27.14258 2.00947-5.31077-2.66368-9.71263-7.43945-9.49804zm289.51757 0.0293c-2.13319-0.0332-3.86292 0.65503-5.83398 2.23633-5.45044 7.85632 4.07375 14.32128 6.73242 21.26953 4.41873 5.85911 5.13516 16.52178 13.86133 17.38672 7.89316-0.77668 8.37203-10.23878 4.1582-15.31641-5.0918-8.58308-8.44359-19.16172-16.62695-25.30859-0.82489-0.16483-1.57995-0.25652-2.29102-0.26758zm-71.625 33.83203c-0.8232-0.0224-1.67962 0.0776-2.55273 0.31055-7.27809 4.94296-8.28218 14.90794-12.39453 22.24609-2.31543 5.69376-7.91796 14.85416-0.20508 18.72657 7.31448 4.00412 11.64337-5.16127 13.20313-10.90821 2.69653-8.20789 8.20523-15.52422 9.39648-24.12695-0.93971-3.7626-3.88005-6.1511-7.44727-6.24805zm-146.41015 0.0762c-1.32494 0.0738-2.62908 0.50178-4.11133 1.29687-7.03488 7.15614 2.01819 15.68059 4.00586 23.10352 3.64174 6.12334 4.11011 18.18986 13.37695 17.59375 8.39252-1.09129 6.87556-11.1821 3.39844-16.41602-4.06201-8.24678-6.13111-17.89415-12.4375-24.75-1.56174-0.62156-2.90748-0.90193-4.23242-0.82812zm74.4043 5.18945c-1.52515 0.0418-3.0874 0.42584-4.60938 1.16992-7.96303 6.8128-3.31717 18.50288-4.5625 27.625 1.20385 9.00948-3.42372 20.82717 4.90625 27.25 8.24262 4.24417 16.24108-4.40483 14.28125-12.66992-0.73383-12.92474 1.5566-26.25201-1.3125-38.89258-2.17207-3.01223-5.3478-4.57437-8.70312-4.48242zm-166.02149 0.71679c-1.00382-0.0269-2.0319 0.11455-3.02539 0.42188-7.02301 5.60611-7.68062 15.72839-11.43359 23.50781-2.36719 5.82547-6.66922 15.88927 1.99218 18.46875 8.63306 2.27851 10.31944-8.50548 12.48438-14.41992 1.80927-7.75979 7.9815-15.15371 6.7832-23.13086-0.99534-3.17125-3.78931-4.76696-6.80078-4.84766zm330.13086 0.004c-1.32914 0.00063-2.65779 0.35887-4.1875 1.07422-7.42854 6.63429 1.04682 15.58321 2.68359 22.98437 3.41973 6.36262 3.15107 18.68218 12.55664 18.58008 8.04028-0.56977 7.63454-10.23191 4.48633-15.53906-3.64413-8.69638-5.4635-18.54608-11.35156-26.02539-1.52875-0.71787-2.85836-1.07485-4.1875-1.07422zm-109.52539 35.59375c-1.00051 0.002-2.02196 0.17344-3.00586 0.51172-6.99307 5.70508-7.04346 16.02915-10.76172 23.81445-2.29089 5.85484-6.34493 15.91805 2.3086 18.36524 8.43425 2.12742 10.15408-8.17648 12.08984-14.09571 1.62617-8.01136 7.85597-15.77171 6.28516-23.95507-1.09543-3.12644-3.9145-4.64645-6.91602-4.64063zm-111.06445 0.0293c-1.33073-0.0459-2.67293 0.26173-4.22266 0.91992-7.60862 6.47526 0.48548 15.6995 2.01172 23.19727 3.25766 6.41133 2.8273 18.7705 12.23047 18.7832 8.25312-0.5266 7.74426-10.57874 4.57031-15.98047-3.60164-8.47794-4.70778-18.3586-10.4375-25.71875-1.50235-0.75596-2.82161-1.1553-4.15234-1.20117zm235.3164 6.7832c-1.01138 0.04-2.06912 0.27647-3.25781 0.69922-8.04428 5.88936-0.4044 15.58772 0.61523 23.06055 2.95201 6.66693 1.61276 17.40265 10.10352 19.8457 8.15117 0.60229 10.06583-8.98214 6.8125-14.84375-3.00501-9.07361-3.98394-19.18982-9.21875-27.28125-1.81297-1.06827-3.36904-1.54707-5.05469-1.48047zm-359.85156 0.002c-1.24079-0.0269-2.51866 0.21073-3.71875 0.69727-6.460841 6.21441-6.20661 16.35191-9.347656 24.39453-1.930368 5.99731-5.395494 16.23258 3.402346 18.16992 8.62509 1.64987 9.6225-8.871 11.24023-14.89453 1.23284-8.04231 6.79157-16.14634 4.88281-24.16211-1.17551-2.80504-3.72923-4.14592-6.45898-4.20508zm181.01953 14.375c-1.52649 0.0455-3.09025 0.43761-4.61328 1.19727-7.96303 6.8128-3.31717 18.50288-4.5625 27.625 1.19979 9.0106-3.41639 20.82337 4.90625 27.25 8.25955 4.25519 16.22952-4.44033 14.28125-12.70117-0.73524-12.91413 1.55869-26.23146-1.3125-38.86133-2.16351-3.0324-5.34095-4.60988-8.69922-4.50977zm40.63281 21.50196c-1.23975-0.03-2.51562 0.20623-3.71484 0.69531-6.69839 6.3104-6.17991 16.81154-9.57031 24.98242-2.06405 5.81833-5.03799 15.68166 3.42187 17.56055 8.79327 1.69743 9.74071-9.15234 11.50586-15.24024 1.23317-7.90902 6.84192-15.85355 4.79492-23.76562-1.15912-2.80806-3.71004-4.16633-6.4375-4.23242zm-83.44726 0.006c-1.01444 0.044-2.07612 0.28606-3.26758 0.7207-7.83643 5.88366-0.58443 15.44602 0.58398 22.83203 3.01855 6.70154 1.72094 17.63694 10.32227 20.01172 7.98509 0.61564 10.04075-8.82106 6.78516-14.59766-3.32262-9.04832-3.87424-19.42886-9.34766-27.49609-1.82428-1.06552-3.38544-1.54401-5.07617-1.4707zm-46.77344 12.48437c-0.562 0.0131-1.08378 0.0597-1.55664 0.14258-6.81576 0.48526-18.87056 5.30648-14.40039 13.71875 4.95376 7.83853 12.10981-2.38179 18.71289-0.125 5.51268 1.14304 11.16174 8.89994 16.16797 2.64844 6.85926-9.1162-10.49386-16.58064-18.92383-16.38477zm174.57813 0.0801c-0.64922-0.0132-1.29861-0.002-1.94727 0.0312-7.73791 0.9164-19.56589 5.00979-18.375 14.53125 3.34221 6.99128 10.59982 3.23149 15.125-0.125 6.97401-4.39393 13.24432 5.32849 19.90625 1.1875 6.61219-6.5845-2.22668-13.80654-8.9375-14.8125-1.88204-0.5153-3.82385-0.77277-5.77148-0.8125zm-195.05469 13.39062c-1.60916 0.1058-3.24236 0.80106-4.61133 2.20313-5.96043 8.82018-13.07873 17.90507-14.96875 28.53125 1.79393 7.50373 12.20539 6.26188 13.75586-0.69141 3.39404-8.34583 9.74978-15.15707 13.05664-23.40234-0.26509-4.24986-3.69227-6.87337-7.23242-6.64063zm214.99219 0.13868c-0.91583-0.0104-1.89611 0.16656-2.95118 0.57031l-2.43359 1.74414c-3.77402 8.11314 5.84296 13.84713 8.3125 21 2.96826 5.39811 6.2358 16.052 14.25391 11.41992 6.84367-5.99704-1.34619-14.36628-4.06641-20.60742-3.46274-4.80837-6.70446-14.05431-13.11523-14.12695zm-171.875 2.35156c-1.59088-0.0212-3.33426 0.66792-5.25977 2.36914-4.17643 8.02521 5.452 14.12907 8.04883 21.15625 3.15172 5.37054 6.75716 16.17591 14.7168 11.24414 6.79149-6.39547-2.11486-14.656-4.92383-21.04101-3.16195-4.5099-6.90033-13.65281-12.58203-13.72852zm129.49218 0.0957c-1.90889-0.0796-3.90623 0.65974-5.50195 2.39844-5.49474 8.95887-12.87536 17.60763-15.03125 28.03125 1.50174 7.44934 11.84039 6.77207 13.69727-0.0469 3.65856-8.4428 10.44574-15.31983 13.36523-23.98438-0.413-3.85706-3.34781-6.26577-6.5293-6.39844zm-62.54492 7.48242c-1.52649 0.0455-3.09025 0.43761-4.61328 1.19727-7.96303 6.8128-3.31717 18.50288-4.5625 27.625 1.19293 9.01414-3.40629 20.8056 4.90625 27.25 8.24073 4.23246 16.23817-4.44609 14.28125-12.70117-0.73524-12.91413 1.55869-26.23146-1.3125-38.86133-2.16351-3.0324-5.34095-4.60988-8.69922-4.50977zm-30.45312 7.33008c-1.01362-0.004-2.08126 0.18481-3.28516 0.55469-8.18968 5.58322-1.22021 15.5456-0.41797 23.06641 2.67324 6.80697 0.94828 17.5781 9.44922 20.24609 7.94785 0.89179 10.37301-8.40116 7.3418-14.30664-2.7708-9.23461-3.1322-19.52014-8.0918-27.88086-1.76771-1.13315-3.30674-1.67375-4.99609-1.67969zm58.73828 0.006c-1.2389 0.0271-2.50333 0.3206-3.67969 0.86133-6.45369 6.62705-5.42908 17.18757-8.48047 25.53711-1.83998 5.75845-4.27015 15.79101 4.16406 17.20508 8.59466 1.40387 9.40033-9.08908 10.75196-15.09766 0.92344-8.1486 6.18526-16.57837 3.86132-24.57812-1.28765-2.75304-3.89161-3.98727-6.61718-3.92774zm95.61523 17.8418c-1.23818 0.0166-2.64692 0.41509-4.26367 1.30078-5.845 6.96232 2.16801 15.12647 3.4375 22.5625 1.96902 5.95057 3.51016 17.15365 12.29492 13.83398 7.69009-4.93102 0.84088-14.50318-0.69336-21.24609-2.39475-5.50098-4.08923-16.54061-10.77539-16.45117zm-252.55859 0.043c-0.9959 0.0166-2.03542 0.24173-3.08008 0.69531-6.67337 7.91761-8.11213 19.04117-11.69531 28.60547-2.90678 8.05916 9.61302 12.71994 12.60156 4.64453 2.18401-9.95355 7.59709-18.97703 8.9375-29-1.17918-3.16794-3.77599-4.99512-6.76367-4.94531zm81.65625 2.24023c-1.38182-0.0729-2.96559 0.36377-4.79883 1.48633-5.53793 7.04362 2.6463 14.74938 4.28125 21.90625 2.45753 5.8754 4.58018 17.64706 13.41016 13.59375 7.42369-5.56534-0.45068-14.8832-2.25977-21.69141-2.43398-5.09414-4.64492-14.97879-10.63281-15.29492zm89.83203 0.0625c-0.99515-0.0273-2.04042 0.14852-3.09961 0.54883-7.03681 7.78478-9.03691 18.9367-13.28125 28.40625-2.74519 7.94828 9.43598 12.43315 12.53125 4.65625 2.80145-9.72623 8.7744-18.47216 10.40625-28.40625-1.0437-3.20832-3.57118-5.12328-6.55664-5.20508zm-62.79102 23.66016c-1.0128-0.0538-2.08874 0.0811-3.30859 0.38867-8.72661 5.37252-1.57457 16.07808-1.28125 23.84375 0.17561 0.51238 0.31963 1.06359 0.45117 1.63086-1.87138-6.83792-4.15514-15.01416-12.60742-11.13086-6.37068 6.63821 1.20653 15.31547 2.15625 22.8125 1.66904 5.99998 3.0434 17.45065 11.93945 14.31641 3.8668-2.30547 4.20958-5.80464 3.42383-9.57227 1.03764 0.86962 2.36647 1.47072 4.08984 1.69531 2.81407 0.2008 4.74941-0.84081 6.00586-2.50781-0.0536 1.10531-0.11252 2.22598-0.16601 3.34766-1.65643-0.68257-3.34995-0.75654-5.51172-0.31055-3.71474 2.02289-4.71856 5.13042-4.66602 8.60937-0.83825-0.37403-1.81358-0.5983-2.95507-0.63671l-2.94141 0.62109c-2.8675 2.48469-3.34762 5.55226-2.94141 8.81641h-56.11523l-10 10v37.5664h-28.1543l-8.67187 8.67188v47.56054c-3.77113 1.1486-7.49847 1.97685-11.14063 2.15039h-0.008-0.008c-7.64844 0.11929-14.87951-2.66209-21.83399-5.45507-6.95447-2.79299-13.6368-5.59269-20.14258-5.65039h-0.002-0.002c-6.593134-0.11541-13.658805 1.91341-20.207032 4.22461-6.547749 2.31055-12.563031 4.90002-17.179208 5.86459l-0.002 0.002c-4.545755 0.92087-8.260733 1.3676-11.132813 1.41993-2.427504 0.0441-4.123008-0.23934-5.376953-0.75977v30.27344c0.965012 0.49728 2.734612 0.83676 5.357422 0.78906 2.782668-0.0506 6.447646-0.48866 10.949219-1.40039 4.433116-0.92694 10.465692-3.50529 17.052734-5.83008 6.585178-2.32413 13.742305-4.39917 20.550781-4.28125h0.006c6.78284 0.0618 13.55974 2.93258 20.50195 5.7207 6.94112 2.78768 14.04391 5.49755 21.43555 5.38477 7.34125-0.35122 15.22028-3.45119 23.17968-6.56641 7.96146-3.11602 16.00293-6.24538 23.75977-6.54492h0.002l0.002-0.002c7.56219-0.24049 14.66772 2.36461 21.72656 5.03125 7.05883 2.66664 14.07545 5.39588 21.45312 5.54101 7.49323 0.0568 15.10954-2.41219 22.90821-4.87109 7.79944-2.45914 15.78119-4.90615 24.03125-4.69727h0.004c8.14027 0.12106 16.2829 2.93689 24.42383 5.68946 8.14223 2.75301 16.28018 5.44376 24.36914 5.41406 7.93943-0.17548 15.73446-3.14333 23.66602-6.11133 7.93414-2.96897 16.00645-5.93759 24.51953-5.99609h0.002c8.53783 0 17.42965 2.82948 26.24024 5.67969 8.80853 2.84954 17.53808 5.72132 25.68554 5.89648 0.002 0.00004 0.004-0.00004 0.006 0 8.02984-0.003 16.26337-2.64941 23.99219-5.36914 7.73177-2.72077 14.94605-5.5226 21.05273-5.73438h0.002c5.93364-0.21043 10.54667 1.58681 14.50976 3.61133 3.96133 2.02362 7.29369 4.25362 10.66602 5.02344h0.002c6.66749 1.42698 11.72661 1.64433 15.625 0.55469v-30.29688c-4.09812 0.97851-9.21995 0.77551-15.83594-0.64062h-0.002c-3.6427-0.79714-7.01262-3.1024-10.91015-5.10157-3.89756-1.99914-8.30251-3.71401-14.01563-3.45312h-0.002-0.004c-5.8259 0.20152-13.0059 2.95052-20.75586 5.67773-7.74995 2.72722-16.08363 5.42579-24.33594 5.42579h-0.004-0.006c-4.02845-0.086-8.15978-0.81498-12.3418-1.85743v-46.3164l-8.66992-8.67188h-32.75781v-37.5664l-10-10h-56.31446c0.13183-0.49203 0.26508-0.98371 0.41016-1.47266 0.71396-4.602-2.69842-8.03025-6.64258-8.02734-0.0232-0.40765-0.0626-0.81326-0.11328-1.2168 3.49397 2.02694 8.7894 1.23511 10.03711-3.78711 1.97575-9.82513 6.93207-19.13672 7.53125-29.15625-1.82592-4.11123-6.02935-5.58076-10.04883-3.59766 0.835-3.76955 1.24338-7.49753-0.0449-11.04882-2.10086-3.87486-6.74592-4.4752-10.4375-2.57227-3.09318 3.46892-4.20279 7.86588-4.93359 12.43164-0.15603-0.88651-0.32815-1.77062-0.53516-2.65039-3.15937-4.38142-8.44217-5.69356-13.3125-3.3125-5.20769 4.48289-5.01868 11.03859-4.61719 17.59766-1.5194-7.86939-2.00585-16.13604-5.82031-23.19141-1.70969-1.21578-3.22215-1.83019-4.91016-1.91992zm29.83594 43.47265c0.55692 0.20207 1.16946 0.36122 1.85938 0.46094 0.95523 0.0965 1.80195 0.0529 2.56445-0.0976-0.0448 0.13149-0.0852 0.26549-0.13086 0.39648-0.0843 0.35472-0.13222 0.69593-0.16406 1.03125-1.22362-0.76104-2.65478-1.08126-4.11524-1.01367-0.005-0.25898-0.011-0.51813-0.0137-0.77735zm-12.91797 17.34375c1.42969 0.60966 2.82425 0.83244 4.13867 0.73438-0.01 0.12451-0.0195 0.24858-0.0293 0.37305h-3.99414c-0.0378-0.36927-0.0744-0.73892-0.11524-1.10743z" fill-rule="evenodd" clip-rule="evenodd" fill="#fff"/>
</svg>
