<?xml version="1.0" encoding="UTF-8" standalone="no"?>
<svg xmlns:rdf="http://www.w3.org/1999/02/22-rdf-syntax-ns#" xmlns="http://www.w3.org/2000/svg" version="1.0" xmlns:cc="http://creativecommons.org/ns#" xmlns:dc="http://purl.org/dc/elements/1.1/" viewBox="0 0 576.44501 577.45154">
<path d="m64.571 0.06355556c-41.335 0-64.571 21.371-64.571 65.036v450.123c0 40.844 20.895 62.229 62.192 62.229h452.024c41.307 0 62.229-20.315 62.229-62.229v-450.123c0-42.601-20.922-65.036-63.521-65.036-0.004 0-448.495-0.143-448.353 0z"/>
<path fill="#fff" d="m293.41514 35.34829a73.459163 73.459163 0 0 0 -73.45898 73.45899 73.459163 73.459163 0 0 0 73.45898 73.45898 73.459163 73.459163 0 0 0 73.45898 -73.45898 73.459163 73.459163 0 0 0 -73.45898 -73.45899zm-74.54102 164.77735c-33.41512 1.21755-47.6875 28.07031-47.6875 28.07031l-108.29492 148.60938c-4.599653 6.69655-7.238281 14.67847-7.238281 23.40429 0 23.13354 18.737545 41.8711 41.871094 41.8711 5.546647 0 10.754577-1.2186 15.421877-3.04493l65.41016-18.19531v65.27539h226.93945v-65.27539l65.41016 18.19531c4.87022 1.82633 9.94287 3.04493 15.42187 3.04493 23.13355 0 41.86914-18.73756 41.86914-41.8711 0-8.72582-2.63719-16.70774-7.10156-23.40429l-108.42969-148.60938s-14.06945-26.85276-47.6875-28.07031h-145.9043zm-40.51757 50.25781 113.5039 37.06836 113.50196-37.06836v87.18945l-7.98047-2.77148c-58.37501-17.18105-81.03517 60.06503-22.66016 77.24609l1.89258 0.40625-84.75391 28.07032-84.75586-28.07032 1.89453-0.40625c58.57793-17.18106 35.71486-94.49479-22.66015-77.24609l-7.98242 2.77148v-87.18945zm-111.47461 266.30664c-5.614284 0-10.416016 4.59881-10.416016 10.41602s4.801733 10.41797 10.416016 10.41797h458.20703c5.81721 0 10.41797-4.60076 10.41797-10.41797s-4.60076-10.41602-10.41797-10.41602h-458.20703z"/>
</svg>
