<?xml version="1.0" encoding="UTF-8" standalone="no"?>
<svg xmlns:rdf="http://www.w3.org/1999/02/22-rdf-syntax-ns#" xmlns="http://www.w3.org/2000/svg" version="1.0" xmlns:cc="http://creativecommons.org/ns#" xmlns:dc="http://purl.org/dc/elements/1.1/" viewBox="0 0 576.44501 577.45154">
<path d="m64.571 0.06355556c-41.335 0-64.571 21.371-64.571 65.036v450.123c0 40.844 20.895 62.229 62.192 62.229h452.024c41.307 0 62.229-20.315 62.229-62.229v-450.123c0-42.601-20.922-65.036-63.521-65.036-0.004 0-448.495-0.143-448.353 0z"/>
<path style="color-rendering:auto;text-decoration-color:#000000;color:#000000;isolation:auto;mix-blend-mode:normal;shape-rendering:auto;solid-color:#000000;block-progression:tb;text-decoration-line:none;text-decoration-style:solid;image-rendering:auto;white-space:normal;text-indent:0;text-transform:none" d="m296.64561 29.25454a5.0005 5.0005 0 0 0 -2.20508 0.619141l-224.6289 123.93165a5.0005 5.0005 0 0 0 -1.335937 7.68359l228.5 259.48437a5.0005 5.0005 0 0 0 6.24609 1.0293l218.82031-125.86914a5.0005 5.0005 0 0 0 1.28907 -7.60547l-222.69336-257.54688a5.0005 5.0005 0 0 0 -3.99219 -1.72656zm-236.94727 152.64844a5.0005 5.0005 0 0 0 -4.748047 4.94336l-0.96875 96.33789a5.0005 5.0005 0 0 0 1.253906 3.36328l226.56641 256.09571a5.0005 5.0005 0 0 0 8.74414 -3.36328l-0.96875-96.82227a5.0005 5.0005 0 0 0 -1.24414 -3.25l-224.62695-255.61133a5.0005 5.0005 0 0 0 -4.007812 -1.69336z" fill-rule="evenodd" fill="#fff"/>
<path opacity=".75" style="color-rendering:auto;text-decoration-color:#000000;color:#000000;isolation:auto;mix-blend-mode:normal;shape-rendering:auto;solid-color:#000000;block-progression:tb;text-decoration-line:none;text-decoration-style:solid;image-rendering:auto;white-space:normal;text-indent:0;text-transform:none" d="m517.53428 317.19986a8.2394914 8.2394914 0 0 0 -3.89453 1.125l-206.24805 120.85351a8.2394914 8.2394914 0 0 0 -4.0664 6.73438l-0.14453 3.18554a8.2394914 8.2394914 0 0 0 12.39648 7.48047l206.07617-120.76562a8.2394914 8.2394914 0 0 0 4.03516 -6.3125l0.3164-3.27344a8.2394914 8.2394914 0 0 0 -8.4707 -9.02734zm0 40a8.2394914 8.2394914 0 0 0 -3.89453 1.125l-206.24805 120.85351a8.2394914 8.2394914 0 0 0 -4.0664 6.73438l-0.14453 3.18554a8.2394914 8.2394914 0 0 0 12.39648 7.48047l206.07617-120.76562a8.2394914 8.2394914 0 0 0 4.03516 -6.3125l0.3164-3.27344a8.2394914 8.2394914 0 0 0 -8.4707 -9.02734zm0 40a8.2394914 8.2394914 0 0 0 -3.89453 1.125l-206.24805 120.85351a8.2394914 8.2394914 0 0 0 -4.0664 6.73438l-0.14453 3.18554a8.2394914 8.2394914 0 0 0 12.39648 7.48047l206.07617-120.76562a8.2394914 8.2394914 0 0 0 4.03516 -6.3125l0.3164-3.27344a8.2394914 8.2394914 0 0 0 -8.4707 -9.02734z" fill-rule="evenodd" fill="#fff"/>
</svg>
