<?xml version="1.0" encoding="UTF-8" standalone="no"?>
<svg xmlns:rdf="http://www.w3.org/1999/02/22-rdf-syntax-ns#" xmlns="http://www.w3.org/2000/svg" version="1.0" xmlns:cc="http://creativecommons.org/ns#" xmlns:xlink="http://www.w3.org/1999/xlink" viewBox="0 0 576.44501 577.45154" xmlns:dc="http://purl.org/dc/elements/1.1/">
<path d="m64.571 0.06355556c-41.335 0-64.571 21.371-64.571 65.036v450.123c0 40.844 20.896 62.229 62.192 62.229h452.024c41.307 0 62.229-20.314 62.229-62.229v-450.123c0-42.601-20.922-65.036-63.521-65.036-0.004 0-448.495-0.143-448.353 0z"/>
<image width="239" xlink:href="/media/sicher/maren/Bilder/Icons/square/amenity/pastedpic_10102008_233747.png" height="190" y="572.29022" x="-1802.8971"/>
<path d="m249.9542 43.326806c-6.51041-0.215849-12.5621 2.147171-16.13281 6.976562l-2.08984 2.828126c-0.83543-0.01044-1.67893 0.01673-2.5293 0.08984l-42.52148 3.65625c-0.0996 0.0086-0.19767 0.02156-0.29688 0.03125l-2.61133-2.015625c-8.45133-6.525495-22.04683-3.204008-29.90429 7.304688l-26.82422 35.873047c-7.85738 10.508726-7.36161 24.710876 1.08984 31.236336l8.11914 6.26758c0.73723 0.56924 1.51591 1.05931 2.32422 1.48047l12.71875 36.24218c-3.25598 4.64862-4.90912 10.79048-4.08984 17.18946l4.95703 38.71093c-23.7384 7.63329-57.095924 22.33137-61.123049 45.5-0.120524 0.69339-0.218901 1.36559-0.324219 2.04493-3.584946 6.54156-1.453221 18.50971 0.06055 25.39648 0.3047 0.7635 0.671021 1.53793 1.083984 2.31836 5.58016 16.57958 21.948754 25.65963 51.921874 29.89844l12.96875 2.36328 13.0332 2.15625c16.81092 3.47272 30.02284 3.99726 40.29883 1.30859 6.73145 6.99929 12.61546 15.53542 17.4082 25.51758 20.72085 43.1566 7.01408 88.24792-36.14258 108.96875-13.50596 6.4846-26.35151 1.02602-38.90625 3.74219a36.615356 36.615356 0 0 0 -34.0664 36.52539 36.615356 36.615356 0 0 0 5.81445 19.79883c3.0801 6.96513 9.37237 13.10562 21.73047 15.65039 0.12029 0.0248 0.23752 0.0441 0.35742 0.0684a36.615356 36.615356 0 0 0 5.55078 0.93945c20.75395 2.80569 36.17104-3.28938 57.29492-13.43164 71.66548-34.4087 105.38156-125.85404 70.97266-197.51953-10.14039-21.12004-24.25148-38.60366-40.94531-51.88282-4.09833-18.22869-22.73549-36.39553-38.55274-48.98632 1.69324-3.91928 2.40644-8.45741 1.8086-13.12696l-5.41992-42.33398c-1.31359-10.25972-8.58558-18.31555-17.14844-20.01367l-12.92774-36.83793 26.07032-34.865242c1.48559-1.986882 2.66943-4.10527 3.56054-6.279296l33.69141-2.896485c1.524 1.861495 3.3306 3.583612 5.41602 5.076172l36.42382 26.070321c1.32447 0.94792 2.7041 1.76368 4.11524 2.45312-3.37104 20.41756-5.45047 48.97853 4.67578 66.21875-3.11763 21.10178-1.48149 43.50941 5.54297 65.85938 23.8361 75.84033 110.93521 119.58036 186.77539 95.74414 22.3455-7.02304 37.76145-13.10496 50.99609-29.31836a36.615356 36.615356 0 0 0 3.42383 -4.48828c0.0731-0.10246 0.14773-0.19956 0.2207-0.30274 7.28455-10.2999 7.68405-19.07965 5.17578-26.26953a36.615356 36.615356 0 0 0 -9.28124 -18.43555 36.615356 36.615356 0 0 0 -49.82618 -3.39843c-11.02614 6.59335-16.67624 19.35691-30.9707 23.84961-45.67069 14.35403-86.48781-9.20825-100.8418-54.87891-3.31995-10.5632-4.85406-20.81573-4.7207-30.52539 9.34037-5.05742 18.62843-14.46757 28.53125-28.48828l8.00781-10.43164 7.89063-10.63282c18.99618-23.57938 24.74573-41.39786 17.48437-57.320313-0.23066-0.846576-0.48973-1.658713-0.78711-2.419922-3.59931-6.062457-10.21848-16.256942-17.30468-18.585937-0.54166-0.424622-1.07431-0.848944-1.63672-1.273438-18.08523-13.650358-50.68098-2.951046-73.20703 7.369141-1.41067-1.622708-3.03366-3.13412-4.88477-4.458984l-36.42383-26.070313c-4.66821-3.341054-10.01056-5.068445-15.07422-5.236328zm123.94336 118.62891-5.14844 6.9375 10.46485-13.86328-5.31641 6.92578zm-217.14648 174.76367-8.55274-1.41602 17.11133 2.97461-8.55859-1.55859zm96.80469-271.78126c0.15681-0.0087 0.33378 0.0026 0.50585 0.0098l-0.043 0.822265c0.0508-0.272187 0.0951-0.54546 0.13281-0.820312 7.55652 0.429616 28.89619 15.385937 33.99609 23.378906-3.91218 2.190775-6.23437 3.634766-6.23437 3.634766l-0.48828 0.644531s-0.51432 1.842624-1.2461 4.791016c-8.85114-2.822856-25.87595-15.074311-30.90039-22.3125 1.77929-1.98368 3.16532-4.231017 4.02149-6.650391-0.29425-1.18158-0.71226-2.321207-1.24219-3.408203 0.48554-0.02911 0.92904-0.05812 1.49805-0.08984zm-0.25586 3.498047c0.21347 0.857234 0.36809 1.734669 0.44531 2.632813l0.27344-5.298829c-0.16914 0.906038-0.411 1.79635-0.71875 2.666016zm-85.28907 6.935547c1.80219 3.397144 4.71393 6.235931 8.28321 8.232422-2.41211 7.514323-12.32098 21.31177-19.77344 28.11329-3.01602-2.08728-6.41999-3.37923-9.875-3.68555-1.24866 0.67527-2.4023 1.49336-3.44531 2.44336-0.007-0.21223-0.0156-0.36819-0.0234-0.59375-0.0179-0.51387 0.0578-1.11632 0.20703-1.78125l0.49414-0.0996c-0.1591 0.0108-0.31767 0.02-0.47656 0.0352 1.79147-7.77475 14.16225-24.802958 22.08594-30.992187-0.005 0.533532 0.008 1.070357 0.0547 1.609375l0.0879-1.71875c0.85316-0.656678 1.65387-1.1896 2.38086-1.5625zm-24.13281 32.628912c0.92196-0.0624 1.84631-0.0504 2.76758 0.0312 0.77692-0.42016 1.58705-0.78947 2.4375-1.08789l-5.20508 1.05664zm32.6582 78.84765c0.13285 0.11865 0.2292 0.20315 0.36915 0.32813 5.11022 4.56369 8.80516 30.80395 6.08007 39.58594-3.69995-2.45357-6.02734-3.84961-6.02734-3.84961l-0.79688-0.13867s-2.49485 0.50186-6.47265 1.4707c-3.33781-9.37582-5.16899-26.82581-3.11914-33.87305 1.49678 0.51581 3.03279 0.84914 4.58008 0.98633 2.08264-1.12619 3.89414-2.66479 5.38671-4.50977zm-5.38671 4.50977c-0.77677 0.42004-1.58724 0.78953-2.4375 1.08789l5.20507-1.05664c-0.92195 0.0624-1.84631 0.0504-2.76757-0.0312zm2.76757 0.0312c1.51008-0.10216 3.01207-0.39558 4.47852-0.91016l-4.47852 0.91016z" fill="#fff"/>
<path opacity=".8" d="m423.81944 68.029931c-13.52602 0.02488-27.25955 2.063754-40.80274 6.320313-16.93602 5.322897-32.12983 13.689351-45.16797 24.267582l27.73438 43.835934c12.2638-9.38739 15.55404-16.48428 29.27539-20.79687 49.28079-15.48868 95.48992 11.90868 110.97852 61.18945 12.75896 40.59559 1.98062 68.20185-29.74219 85.32422l46.14648 42.51758c39.19862-34.953 50.05068-93.26041 33.35157-146.39258-18.44495-58.68714-73.16068-96.373436-131.77344-96.265629zm-283.95703 197.82032c-16.74789 1.18326-33.56071 5.45283-49.564457 13.13672-68.254328 32.77094-97.337456 115.33174-64.566406 183.58593 24.106139 50.20738 71.867162 85.37049 124.37109 84.11328l4.64648-62.57421c-34.86291 9.17005-61.593459-3.6254-80.011714-41.98633-22.358785-46.56797-7.333657-98.14517 39.234374-120.50391 12.96607-6.22536 20.21708-3.29065 35.58594-4.81445l-9.69531-50.95703z" fill="#fff"/>
</svg>
