<?xml version="1.0" encoding="UTF-8" standalone="no"?>
<svg xmlns:rdf="http://www.w3.org/1999/02/22-rdf-syntax-ns#" xmlns="http://www.w3.org/2000/svg" version="1.0" xmlns:cc="http://creativecommons.org/ns#" xmlns:dc="http://purl.org/dc/elements/1.1/" viewBox="0 0 576.44501 577.45154">
<path d="m64.571 0.06355556c-41.335 0-64.571 21.371-64.571 65.036v450.123c0 40.844 20.896 62.229 62.192 62.229h452.024c41.307 0 62.229-20.314 62.229-62.229v-450.123c0-42.601-20.922-65.036-63.521-65.036 0 0-448.495-0.143-448.353 0z"/>
<path opacity=".1" d="m297.6642 551.08921c87.5784-60.48622 234.8656-71.30416 236.1719-209.53289 0.6234-61.98162-36.2608-81.56678-49.0467-158.18473-5.8465-35.03514 25.9386-99.834939 25.9386-99.834939l-61.067-46.035909c-36.5919 23.167986-105.332 37.085771-163.0917-10.484232-55.783 49.807076-125.0361 38.450627-162.5408 16.657954l-59.1526 48.267329s34.391 63.571497 29.9707 98.797207c-9.6668 77.03468-45.7284 97.97381-42.59 159.88557 6.9151 138.07616 154.5304 143.42038 244.4977 200.61111" fill-rule="evenodd" fill="#fff"/>
<path fill="#fff" d="m242.46875 89.707031c-4.6395-0.153819-8.95149 1.529164-11.49609 4.970703l-1.67188 2.261719-28.18555 2.423828c-0.07 0.006-0.13723 0.020544-0.20703 0.027344l-1.86523-1.441406c-6.0226-4.650222-15.71115-2.283675-21.31055 5.205081l-19.11523 25.56445c-5.5993 7.48876-5.24731 17.60957 0.77539 22.25977l5.78711 4.46679c0.5208 0.40209 1.07598 0.73482 1.64648 1.03321l9.07227 25.8496c-2.3203 3.31273-3.49786 7.68997-2.91406 12.25l3.5332 27.59376c-16.9178 5.43772-40.6876 15.89864-43.5586 32.41601-0.086 0.49477-0.15536 0.97426-0.23046 1.45899-2.5529 4.66219-1.03564 13.18886 0.04296 18.0957 0.2161 0.54161 0.47694 1.09094 0.76954 1.64453 3.9738 11.82037 15.6392 18.29305 37.0039 21.31445l9.26172 1.6875 9.26758 1.53321c11.9795 2.47467 21.39595 2.8494 28.71875 0.93359 4.7968 4.98777 8.989 11.07029 12.4043 18.18359 14.7662 30.75442 4.99854 62.88815-25.75586 77.6543-9.62474 4.62109-18.77953 0.73058-27.72657 2.66602a26.092972 26.092972 0 0 0 -24.27734 26.02929 26.092972 26.092972 0 0 0 4.21289 14.20508c2.2112 4.92157 6.6711 9.2555 15.41797 11.05664 0.07163 0.01475 0.1395 0.02264 0.21094 0.03711a26.092972 26.092972 0 0 0 4.20898 0.69141c14.67941 1.92702 25.64227-2.3902 40.6211-9.58203 51.0706-24.52046 75.09677-89.6873 50.57617-140.75782-7.2259-15.04985-17.28214-27.50784-29.17774-36.9707-2.922-12.99927-16.20552-25.92112-27.48242-34.89453 1.2115-2.79652 1.72378-6.03727 1.29688-9.3711l-3.86329-30.16796c-0.9359-7.3097-6.11649-13.04009-12.21679-14.25196l-9.21485-26.26172 18.57813-24.8457c1.0587-1.4159 1.90211-2.92534 2.53711-4.47461l20.52539-1.76367c1.0325 1.21065 2.23452 2.33386 3.60742 3.31641l25.95703 18.57812c0.7804 0.55851 1.59162 1.03821 2.41602 1.4707-2.0475 14.18459-2.8185 32.37912 3.8457 43.72852-2.2221 15.03823-1.05287 31.0077 3.95313 46.93555 16.9862 54.04562 79.0541 85.21673 133.09961 68.23047 15.85439-4.9829 26.8093-9.32072 36.21289-20.76172a26.092974 26.092974 0 0 0 2.59375 -3.3711c0.04325-0.06073 0.08765-0.1147 0.13086-0.17578 5.15314-7.2862 5.44923-13.49338 3.70507-18.5957a26.092974 26.092974 0 0 0 -6.63086 -13.26172 26.092974 26.092974 0 0 0 -35.51171 -2.41992c-7.85521 4.69898-11.87916 13.79293-22.06446 16.99414-32.546 10.22903-61.63428-6.56142-71.86328-39.10742-2.3659-7.52753-3.46023-14.83461-3.36523-21.75391 6.6563-3.60399 13.27678-10.31102 20.33398-20.30273l5.75195-7.49414 5.57813-7.51563c13.534-16.79933 17.63199-29.49513 12.46289-40.83984-0.165-0.60673-0.35145-1.18714-0.56445-1.73242-2.5648-4.31991-7.28263-11.58371-12.33203-13.24415-0.3861-0.30268-0.76512-0.60561-1.16602-0.9082-13.6191-10.279415-38.73965-1.19102-54.78125 6.48828-0.2861-0.22896-0.56704-0.46153-0.86914-0.67773l-25.95703-18.578127c-3.3267-2.380914-7.13369-3.612784-10.74219-3.732422zm88.37109 80.740239l-3.71484 5.00585 7.45703-9.88085-3.74219 4.875zm-151.0332 128.34179l-6.11523-1.01172 12.19336 2.11914-6.07813-1.10742zm68.13477-193.07812c0.3399 0.12106 0.69169 0.25815 1.05859 0.41211-0.1118 0.50143-0.25193 0.99544-0.42383 1.48047 0.1523 0.61134 0.27498 1.23251 0.33008 1.87304l0.16992-3.32422c5.6357 2.3875 14.13341 8.40864 18.53321 13.07227-1.49471 0.86727-2.36719 1.40625-2.36719 1.40625l-0.34571 0.45898s-0.75176 2.66837-1.69726 6.85352c-5.6815-2.13443-15.0457-8.70208-19.5957-13.63281 2.3115-1.79666 4.05535-4.11846 4.97265-6.70703-0.1619-0.64986-0.37146-1.28193-0.63476-1.89258zm-60.11524 6.82617h0.00195c1.28431 2.42001 3.34197 4.45067 5.88477 5.87305-1.7196 5.35502-8.77954 15.18652-14.08984 20.0332-2.1475-1.4863-4.57115-2.39592-7.03125-2.61524-0.8938 0.48347-1.71504 1.07493-2.46094 1.75586-0.01-0.15979-0.01353-0.27874-0.01953-0.44921-0.013-0.36627 0.04204-0.79361 0.14844-1.26758l0.27539-0.05664c-0.088 0.006-0.17588 0.00302-0.26368 0.01172 1.2774-5.54625 10.10195-17.6777 15.74805-22.07618 0 0.37655 0.0003 0.75439 0.0293 1.13477l0.0625-1.20898c0.6122-0.47075 1.19414-0.86959 1.71484-1.13477zm-15.23437 23.29101c0.5539-0.29957 1.12417-0.57239 1.73047-0.78515l-3.78516 0.76758c0.6846-0.0506 1.37059-0.04342 2.05469 0.01757zm21.29101 56.1543c0.096 0.0853 0.16493 0.14644 0.26563 0.23633 3.6419 3.25241 6.27668 21.95396 4.33398 28.21094-2.6379-1.74934-4.29687-2.7461-4.29687-2.7461l-0.56641-0.09765s-1.77888 0.3585-4.61328 1.04883c-2.3785-6.68076-3.68481-19.11571-2.22461-24.13868 1.0653 0.36731 2.15847 0.59322 3.25977 0.69141 1.4834-0.80236 2.77849-1.89094 3.84179-3.20508zm-3.84179 3.20508c-0.5539 0.29958-1.12417 0.57241-1.73047 0.78516l3.77929-0.76758c-0.6826 0.0501-1.36662 0.04322-2.04882-0.01758zm2.04882 0.01758c1.0522-0.0773 2.099-0.27612 3.1211-0.63477l-3.1211 0.63477z"/>
<path opacity=".8" d="m366.3683 103.57681c-9.639 0.0177-19.425 1.46863-29.0762 4.50195-12.069 3.79323-22.8962 9.75663-32.1875 17.29492l19.7637 31.23829c8.7395-6.68968 11.0851-11.74707 20.8633-14.82032 35.1186-11.0376 68.0464 8.48683 79.0839 43.60547 9.0924 28.92938 1.4131 48.60093-21.1933 60.80274l32.8828 30.30078c27.9339-24.90834 35.6678-66.46097 23.7676-104.32422-13.1443-41.82185-52.1355-68.67644-93.9043-68.59961zm-198.6172 144.70703c-11.9349 0.84322-23.9157 3.8856-35.3203 9.36133-48.6397 23.35334-69.3671 82.18857-46.0137 130.82812 17.1786 35.77897 51.2153 60.83732 88.6309 59.94141l3.3105-44.59375c-24.8441 6.5348-43.8923-2.58301-57.0176-29.91992-15.9334-33.18544-5.2265-69.93968 27.959-85.87305 9.2399-4.43634 14.4072-2.34575 25.3594-3.43164l-6.9082-36.3125z" fill="#fff"/>
<path style="color-rendering:auto;text-decoration-color:#000000;color:#000000;isolation:auto;mix-blend-mode:normal;shape-rendering:auto;solid-color:#000000;block-progression:tb;text-decoration-line:none;text-decoration-style:solid;image-rendering:auto;white-space:normal;text-indent:0;text-transform:none" d="m287.8429 15.350244c-1.1634-0.126393-2.3158-0.05893-3.4297 0.164062a8.0008 8.0008 0 0 0 -3.3574 1.541016c-15.0301 11.753952-30.6151 22.410338-47.8164 27.251953a8.0008 8.0008 0 0 0 -0.252 0.07617c-33.6516 10.679333-72.0647 6.26309-103.1094-10.673829a8.0008 8.0008 0 0 0 -3.2871 -0.957031c-6.881-0.470142-12.2801 3.164792-15.6582 6.095703-3.3781 2.930912-5.7767 5.349682-7.166 6.089844a8.0008 8.0008 0 0 0 -1.3496 0.90625c-14.8825 12.361791-30.8709 24.322553-45.5098 38.248049a8.0008 8.0008 0 0 0 -1.7753 2.501953c-2.636 5.83035-0.4064 11.936592 1.3574 15.101566 1.7638 3.16497 2.8091 5.11666 2.8164 5.1582a8.0008 8.0008 0 0 0 0.5976 1.92579c13.5697 29.82816 27.2237 60.53245 21.7969 91.01953a8.0008 8.0008 0 0 0 -0.043 0.27343c-5.7423 40.26769-31.9731 77.01155-40.0351 121.85938a8.0008 8.0008 0 0 0 -0.031 0.1914c-8.9842 58.0561 16.7981 120.54332 67.3164 152.19141 56.855 39.40276 124.7438 52.44326 180.1329 85.83203a8.0008 8.0008 0 0 0 0.7128 0.38086c6.7203 3.17558 13.9315 0.74779 18.0586-1.77539 4.1272-2.52317 7.1333-4.93772 8.334-5.41797a8.0008 8.0008 0 0 0 1.1778 -0.58594c52.9328-32.09624 117.5201-47.68867 169.705-89.13085 30.5999-22.90592 51.039-57.86279 56.8184-95.5625 6.0485-35.37911-0.6978-72.1387-17.7813-103.38086l0.2286 0.44921c-15.601-33.3754-32.4483-66.86739-29.2813-101.67187 2.5074-25.41699 14.5529-49.86297 24.3594-75.761723a8.0008 8.0008 0 0 0 0.5156 -2.703125c0.1077-6.658435-4.6554-11.622486-7.8926-13.90039-3.2371-2.277905-5.5271-3.748364-5.6933-3.951172a8.0008 8.0008 0 0 0 -1.3535 -1.304688c-16.7654-12.71291-33.6676-27.108401-52.975-38.294925a8.0008 8.0008 0 0 0 -5.7167 -0.892578c-14.504 3.165991-23.6324 12.021653-32.1895 13.560547a8.0008 8.0008 0 0 0 -1.0977 0.277344c-40.7976 13.498557-88.9321 4.759871-121.8925-23.021485a8.0008 8.0008 0 0 0 -1.7383 -1.115234c-1.1588-0.547672-2.3327-0.867748-3.4961-0.99414zm-1.1192 17.455078c37.1827 29.018425 88.4077 37.60423 133.0137 22.943359 12.9145-2.57443 21.6079-9.636633 29.2481-12.439453 16.3571 9.935375 31.8288 22.762425 47.9375 34.996094 3.121 3.328347 6.2577 4.736055 7.8652 5.867187 1.0234 0.720158 0.6401 0.398379 0.6348 0.320313-9.3225 24.111658-21.5548 49.089858-24.3399 77.433598a8.0008 8.0008 0 0 0 -0.01 0.0566c-3.7105 40.70028 15.3 76.92627 30.7207 109.91602a8.0008 8.0008 0 0 0 0.2285 0.45117c15.4039 28.17054 21.4606 61.45499 16.0391 93.07422a8.0008 8.0008 0 0 0 -0.022 0.14453c-5.135 33.60605-23.5501 65.01685-50.6641 85.28711a8.0008 8.0008 0 0 0 -0.1875 0.14648c-48.5356 38.59501-112.1395 54.17276-167.916 87.92578-4.6463 2.06921-7.6175 4.83308-9.8105 6.17383-2.2339 1.36572-1.9945 1.37174-2.7891 0.98242-58.6132-35.13905-125.8791-48.21518-178.9551-85.11718a8.0008 8.0008 0 0 0 -0.3203 -0.2129c-44.4624-27.8543-67.9655-84.40633-60.0096-136.08394 7.2295-40.04758 33.574-76.92955 40.0762-122.1875 6.4474-36.49381-9.3056-70.22354-22.8047-99.88672-1.1255-4.367991-3.2754-7.03324-4.1973-8.687503-0.1468-0.263517-0.1161-0.154661-0.2129-0.3125 13.0734-12.126573 27.7043-23.27202 42.0645-35.183593 4.2973-2.549496 6.982-5.639557 9.1016-7.478516 1.6433-1.425817 2.4391-1.853643 3.1757-2.029297 34.3748 17.96363 75.8225 22.554484 113.1094 10.759766 18.7492-5.305877 34.607-15.855722 49.0195-26.859375z" fill="#fff"/>
</svg>
