<?xml version="1.0" encoding="UTF-8" standalone="no"?>
<svg xmlns:rdf="http://www.w3.org/1999/02/22-rdf-syntax-ns#" xmlns="http://www.w3.org/2000/svg" version="1.0" xmlns:cc="http://creativecommons.org/ns#" xmlns:dc="http://purl.org/dc/elements/1.1/" viewBox="0 0 576.44501 577.45154">
<path d="m64.571 0.06355556c-41.335 0-64.571 21.371-64.571 65.036v450.123c0 40.844 20.895 62.229 62.192 62.229h452.024c41.307 0 62.229-20.315 62.229-62.229v-450.123c0-42.601-20.922-65.036-63.521-65.036-0.004 0-448.495-0.143-448.353 0z"/>
<path opacity=".1" fill="#fff" d="m562.87148 290.76139a273.26047 273.26047 0 0 1 -273.26047 273.26049 273.26047 273.26047 0 0 1 -273.26048 -273.26049 273.26047 273.26047 0 0 1 273.26048 -273.26047 273.26047 273.26047 0 0 1 273.26047 273.26047z"/>
<path fill="#fff" d="m289.61045 5.59829c-157.34987 5e-7 -285.1621 127.8142-285.16211 285.16407-0.0000019 157.34988 127.81223 285.16211 285.16211 285.16211s285.16212-127.81223 285.16211-285.16211c0-157.34987-127.81224-285.16407-285.16211-285.16407zm0 23.804688c144.4853-0.000001 261.35743 116.87408 261.35743 261.35938 0 144.48532-116.87212 261.35742-261.35743 261.35742s-261.35742-116.87211-261.35742-261.35742c0.000002-144.4853 116.87211-261.35938 261.35742-261.35938zm-185.61133 116.20508v282.36914h371.82422v-282.36914h-371.82422zm43.79688 26.56055h282.35547l-118.80469 118.34961c-5.90607 5.90595-13.36177 8.8595-22.36719 8.85937-9.3187 0.00013-17.08625-3.10933-23.30468-9.32812l-117.87891-117.88086zm-17.70312 18.17383 96.44921 96.91992-96.44921 96.44922v-193.36914zm318.69921 0v193.36914l-96.44921-96.44922 96.44921-96.91992zm-204.54687 115.09179 4.19531 4.19531c11.18576 10.87326 24.69837 16.30871 40.53906 16.3086 15.84023 0.00011 29.19691-5.43534 40.07032-16.3086l4.19531-4.19531 96.90625 96.45117h-282.82617l96.91992-96.45117z"/>
</svg>
