<?xml version="1.0" encoding="UTF-8" standalone="no"?>
<svg xmlns:rdf="http://www.w3.org/1999/02/22-rdf-syntax-ns#" xmlns="http://www.w3.org/2000/svg" version="1.0" xmlns:cc="http://creativecommons.org/ns#" xmlns:dc="http://purl.org/dc/elements/1.1/" viewBox="0 0 576.44501 577.45154">
<path d="m64.571 0.06355556c-41.335 0-64.571 21.371-64.571 65.036v450.123c0 40.844 20.895 62.229 62.192 62.229h452.024c41.307 0 62.229-20.315 62.229-62.229v-450.123c0-42.601-20.922-65.036-63.521-65.036-0.004 0-448.495-0.143-448.353 0z"/>
<path opacity=".2" d="m285.24006 42.297151-252.05944 191.90743h50.411556v307.86099h151.23601 104.28079 147.77899v-307.86099h50.4119l-252.0598-191.90743z" fill-rule="evenodd" fill="#fff"/>
<path style="color-rendering:auto;text-decoration-color:#000000;color:#000000;isolation:auto;mix-blend-mode:normal;shape-rendering:auto;solid-color:#000000;block-progression:tb;text-decoration-line:none;image-rendering:auto;white-space:normal;text-indent:0;text-transform:none;text-decoration-style:solid" fill-rule="evenodd" fill="#fff" d="m285.23936 22.297509a10.001 10.001 0 0 0 -6.02344 2.140625l-0.0332-0.09766-252.06055 191.90821a10.001 10.001 0 0 0 6.058594 17.95508h40.412109v307.86133a10.001 10.001 0 0 0 10 10h151.23438 104.28125 147.7793a10.001 10.001 0 0 0 10 -10v-307.86133h40.41211a10.001 10.001 0 0 0 6.05859 -17.95508l-252.06055-191.9082-0.004 0.01367a10.001 10.001 0 0 0 -6.05469 -2.056641zm0.002 22.568359 222.41407 169.33789h-20.76758a10.001 10.001 0 0 0 -10 10v307.86133h-137.7793-104.28125-141.23438v-307.86133a10.001 10.001 0 0 0 -10 -10h-20.769531l222.41792-169.33789zm-102.127 116.92969c-5.1753 0.00019-9.68406 1.87465-13.51758 5.61133-3.83318 3.73703-5.74787 8.2782-5.74805 13.64062 0.00018 5.36861 1.91487 9.93323 5.74805 13.66993 3.83352 3.737 8.34228 5.59585 13.51758 5.5957 0.19082 0 0.37764-0.0109 0.56641-0.0156 0.1909 0.005 0.38706 0.0156 0.58007 0.0156 5.17529 0.00015 9.66844-1.85869 13.50196-5.5957 3.83318-3.73671 5.74982-8.30132 5.75-13.66993-0.00018-5.36242-1.91682-9.90359-5.75-13.64062-3.83352-3.73668-8.32667-5.61114-13.50196-5.61133-0.19296 0-0.38923 0.0107-0.58007 0.0156-0.18871-0.005-0.37565-0.0156-0.56641-0.0156zm100 0c-5.1753 0.00019-9.68406 1.87465-13.51758 5.61133-3.83318 3.73703-5.74787 8.2782-5.74805 13.64062 0.00018 5.36861 1.91487 9.93323 5.74805 13.66993 3.83352 3.737 8.34228 5.59585 13.51758 5.5957 0.19082 0 0.37764-0.0109 0.56641-0.0156 0.1909 0.005 0.38706 0.0156 0.58007 0.0156 5.17529 0.00015 9.66844-1.85869 13.50196-5.5957 3.83318-3.73671 5.74982-8.30132 5.75-13.66993-0.00018-5.36242-1.91682-9.90359-5.75-13.64062-3.83352-3.73668-8.32667-5.61114-13.50196-5.61133-0.19296 0-0.38923 0.0107-0.58007 0.0156-0.18871-0.005-0.37565-0.0156-0.56641-0.0156zm100 0c-5.1753 0.00019-9.68406 1.87465-13.51758 5.61133-3.83318 3.73703-5.74787 8.2782-5.74805 13.64062 0.00018 5.36861 1.91487 9.93323 5.74805 13.66993 3.83352 3.737 8.34228 5.59585 13.51758 5.5957 0.19082 0 0.37764-0.0109 0.56641-0.0156 0.1909 0.005 0.38706 0.0156 0.58007 0.0156 5.17529 0.00015 9.66844-1.85869 13.50196-5.5957 3.83318-3.73671 5.74982-8.30132 5.75-13.66993-0.00018-5.36242-1.91682-9.90359-5.75-13.64062-3.83352-3.73668-8.32667-5.61114-13.50196-5.61133-0.19296 0-0.38923 0.0107-0.58007 0.0156-0.18871-0.005-0.37565-0.0156-0.56641-0.0156zm-214.66406 42.83008c-1.16373 0.00003-2.21136 0.13241-3.15625 0.38476a16.417375 16.417375 0 0 0 -1.89453 -0.0742 16.417375 16.417375 0 0 0 -16.01954 16.79297l0.3418 38.28516a16.417375 16.417375 0 0 0 11.53906 15.74805v5.02734 1.45313l24.41993-0.71875 24.43554 0.71875v-1.45313-5.74219a16.417375 16.417375 0 0 0 9.625 -15.32617l-0.34375-38.28711a16.417375 16.417375 0 0 0 -15.45703 -16.46289c-0.90763-0.22749-1.91072-0.34567-3.01562-0.3457h-30.47461zm100 0c-1.16373 0.00003-2.21136 0.13241-3.15625 0.38476a16.417375 16.417375 0 0 0 -1.89453 -0.0742 16.417375 16.417375 0 0 0 -16.01954 16.79297l0.3418 38.28516a16.417375 16.417375 0 0 0 11.53906 15.74805v5.02734 1.45313l24.41993-0.71875 24.43554 0.71875v-1.45313-5.74219a16.417375 16.417375 0 0 0 9.625 -15.32617l-0.34375-38.28711a16.417375 16.417375 0 0 0 -15.45703 -16.46289c-0.90763-0.22749-1.91072-0.34567-3.01562-0.3457h-30.47461zm100 0c-1.16373 0.00003-2.21136 0.13241-3.15625 0.38476a16.417375 16.417375 0 0 0 -1.89453 -0.0742 16.417375 16.417375 0 0 0 -16.01954 16.79297l0.3418 38.28516a16.417375 16.417375 0 0 0 11.53906 15.74805v5.02734 1.45313l24.41993-0.71875 24.43554 0.71875v-1.45313-5.74219a16.417375 16.417375 0 0 0 9.625 -15.32617l-0.34375-38.28711a16.417375 16.417375 0 0 0 -15.45703 -16.46289c-0.90763-0.22749-1.91072-0.34567-3.01562-0.3457h-30.47461zm-167.17188 97.50586c-9.2713 0.00034-17.34922 3.35866-24.2168 10.05273-6.86695 6.69474-10.29849 14.82902-10.29882 24.43555 0.00033 9.61761 3.43187 17.79415 10.29882 24.48828 6.86759 6.69468 14.9455 10.02566 24.2168 10.02539 0.34185 0.00001 0.6755-0.017 1.01367-0.0254 0.342 0.009 0.69525 0.0255 1.04102 0.0254 9.2713 0.00027 17.31992-3.33071 24.1875-10.02539 6.86696-6.69413 10.30046-14.87067 10.30078-24.48828-0.00031-9.60653-3.43382-17.74081-10.30078-24.43555-6.86758-6.69407-14.9162-10.05239-24.1875-10.05273-0.34568 0.00001-0.69912 0.0186-1.04102 0.0273-0.33806-0.009-0.67192-0.0273-1.01367-0.0273zm166.55078 0c-9.27131 0.00034-17.34726 3.35866-24.21484 10.05273-6.86695 6.69474-10.30045 14.82902-10.30078 24.43555 0.00032 9.61761 3.43383 17.79415 10.30078 24.48828 6.86758 6.69468 14.94353 10.02566 24.21484 10.02539 0.34185 0.00001 0.67549-0.017 1.01368-0.0254 0.34199 0.009 0.69524 0.0255 1.04101 0.0254 9.2713 0.00027 17.31992-3.33071 24.1875-10.02539 6.86695-6.69413 10.30046-14.87067 10.30078-24.48828-0.00031-9.60653-3.43383-17.74081-10.30078-24.43555-6.86758-6.69407-14.9162-10.05239-24.1875-10.05273-0.34568 0.00001-0.69912 0.0186-1.04101 0.0273-0.33806-0.009-0.67193-0.0273-1.01368-0.0273zm-192.82031 76.72851c-2.0835 0.00006-3.9604 0.23987-5.65234 0.69141a29.410978 29.410978 0 0 0 -3.39844 -0.13477 29.410978 29.410978 0 0 0 -28.69727 30.08203l0.61328 68.5879a29.410978 29.410978 0 0 0 20.66993 28.17773v9.04102 2.60156l43.74804-1.28711 43.77344 1.28711v-2.60156-10.31446a29.410978 29.410978 0 0 0 17.24414 -27.42969l-0.61523-68.58789a29.410978 29.410978 0 0 0 -27.69336 -29.49414c-1.62548-0.40722-3.41983-0.61909-5.39844-0.61914h-54.59375zm166.55078 0c-2.08399 0.00006-3.96009 0.23966-5.65234 0.69141a29.410978 29.410978 0 0 0 -3.39844 -0.13477 29.410978 29.410978 0 0 0 -28.69727 30.08203l0.61329 68.5879a29.410978 29.410978 0 0 0 20.66992 28.17773v9.04102 2.60156l43.74805-1.28711 43.77343 1.28711v-2.60156-10.31446a29.410978 29.410978 0 0 0 17.24414 -27.42969l-0.61523-68.58789a29.410978 29.410978 0 0 0 -27.69336 -29.49414c-1.62548-0.40722-3.41983-0.61909-5.39844-0.61914h-54.59375z"/>
</svg>
