<?xml version="1.0" encoding="UTF-8" standalone="no"?>
<svg xmlns:rdf="http://www.w3.org/1999/02/22-rdf-syntax-ns#" xmlns="http://www.w3.org/2000/svg" version="1.0" xmlns:cc="http://creativecommons.org/ns#" xmlns:dc="http://purl.org/dc/elements/1.1/" viewBox="0 0 576.44501 577.45154">
<path d="m64.571 0.06355556c-41.335 0-64.571 21.371-64.571 65.036v450.123c0 40.844 20.896 62.229 62.192 62.229h452.024c41.307 0 62.229-20.314 62.229-62.229v-450.123c0-42.601-20.922-65.036-63.521-65.036-0.004 0-448.495-0.143-448.353 0z"/>
<path style="color-rendering:auto;text-decoration-color:#000000;color:#000000;isolation:auto;mix-blend-mode:normal;shape-rendering:auto;solid-color:#000000;block-progression:tb;text-decoration-line:none;text-decoration-style:solid;image-rendering:auto;white-space:normal;text-indent:0;text-transform:none" d="m220.80381 81.346337a22.545578 22.545578 0 1 0 0 45.085943h34.14649c-6.75805 8.57753-10.81836 19.55637-10.81836 31.51367 0 5.99186 1.01944 11.73885 2.88672 17.06055a17.91412 17.91412 0 0 0 -1.81055 3.0664l-119.95117 252.83008a17.91412 17.91412 0 1 0 32.36718 15.35547l115.16602-242.74609c0.35094 0.15917 0.70528 0.3104 1.06055 0.46093l-0.91211 308.07618a17.965446 17.965446 0 1 0 35.92578 0.10547l0.91406-308.26758c0.88301-0.37926 1.75589-0.77879 2.61133-1.21094l112.7168 237.58594a17.91412 17.91412 0 1 0 32.36718 -15.35547l-119.95117-252.83203a17.91412 17.91412 0 0 0 -0.13281 -0.25586c1.2278-4.40547 1.89844-9.05744 1.89844-13.87305 0-11.95729-4.0603-22.93613-10.81836-31.51367h38.30859a22.545578 22.545578 0 1 0 0 -45.085943h-145.97461z" fill-rule="evenodd" clip-rule="evenodd" fill="#fff"/>
</svg>
