<?xml version="1.0" encoding="UTF-8" standalone="no"?>
<svg xmlns:rdf="http://www.w3.org/1999/02/22-rdf-syntax-ns#" xmlns="http://www.w3.org/2000/svg" version="1.0" xmlns:cc="http://creativecommons.org/ns#" xmlns:dc="http://purl.org/dc/elements/1.1/" viewBox="0 0 576.44501 577.45154">
<path d="m64.571 0.06355556c-41.335 0-64.571 21.371-64.571 65.036v450.123c0 40.844 20.895 62.229 62.192 62.229h452.024c41.307 0 62.229-20.315 62.229-62.229v-450.123c0-42.601-20.922-65.036-63.521-65.036-0.004 0-448.495-0.143-448.353 0z"/>
<path fill="#fff" d="m404.30577 45.7604c-45.66136 0.255047-124.76758 27.280565-218.05274 157.60938-136.71892 191.01388-82.71959 288.89976-60.8418 303.5039l88.72657-127.26171c-17.75835-12.38119-7.84978-34.20969 15.9082-76.9336 15.72111-28.26929 37.7216-61.49108 63.83398-91.55664 18.32399-21.09423 38.07816-40.38431 56.67579-27.41797l90.83593-130.53125c-6.47111-3.513537-19.21845-7.51191-37.08593-7.412109zm47.04882 14.359375-90.95117 130.45118s35.92248 25.12809 35.97266 25.11914l0.0762 0.0156c8.22588 5.73511 18.79876 3.14534 24.03516-4.36524l0.0996-0.0176s71.09092-102.0903 71.13281-102.15038c5.48576-7.86823 3.4326-18.517286-4.31641-23.919928l-36.04885-25.132783zm-227.41015 326.17384-88.95703 127.58985s35.92443 25.1281 35.97461 25.11914l0.0762 0.0156c8.22588 5.73513 18.79875 3.14535 24.03515-4.36523l0.0996-0.0176s69.09483-99.22897 69.13672-99.28906c5.48576-7.86822 3.43456-18.51533-4.31445-23.91797l-36.05078-25.13476z"/>
</svg>
