<?xml version="1.0" encoding="UTF-8" standalone="no"?>
<svg xmlns:rdf="http://www.w3.org/1999/02/22-rdf-syntax-ns#" xmlns="http://www.w3.org/2000/svg" version="1.0" xmlns:cc="http://creativecommons.org/ns#" xmlns:dc="http://purl.org/dc/elements/1.1/" viewBox="0 0 576.44501 577.45154">
<defs>
<style type="text/css">.fil0 {fill:#EF7900}</style>
</defs>
<path d="m64.571 0.06355556c-41.335 0-64.571 21.371-64.571 65.036v450.123c0 40.844 20.895 62.229 62.192 62.229h452.024c41.307 0 62.229-20.315 62.229-62.229v-450.123c0-42.601-20.922-65.036-63.521-65.036-0.004 0-448.495-0.143-448.353 0z"/>
<path fill="#fff" d="m495.27647 25.31704c-20.32136 0.000128-36.03478 5.611462-47.14258 16.833985-11.10785 11.222747-16.66212 27.282456-16.66211 48.177734-0.00001 15.671571 3.15812 28.530361 9.47266 38.576181 6.31451 10.04586 13.81875 17.0631 22.51562 21.05273 8.69678 3.98963 19.90519 5.98437 33.625 5.98437 11.30867 0 20.62415-1.63613 27.94336-4.9082 7.31901-3.27207 13.44588-8.12143 18.38281-14.55078 4.93669-6.42932 8.55328-14.43875 10.84961-24.02539l-34.18359-10.33203c-1.72224 7.97932-4.49322 14.06339-8.31055 18.2539-3.8175 4.19059-9.45737 6.28714-16.91992 6.28711-7.69232 0.00003-13.66225-2.5978-17.91016-7.79297-4.248-5.19509-6.37114-14.7959-6.37109-28.802733-0.00005-11.308678 1.77874-19.603438 5.33789-24.884766 4.70714-7.118105 11.4799-10.677634 20.32031-10.677734 3.90345 0.0001 7.43445 0.802919 10.5918 2.410156 3.15717 1.60743 5.82634 3.903713 8.00781 6.888672 1.32022 1.779638 2.58347 4.593414 3.78907 8.439453l34.44336-7.664063c-4.42029-13.317821-11.18075-23.191638-20.2793-29.621093-9.09876-6.429217-21.59894-9.644404-37.5-9.644532zm-248.58985 2.154297 28.07032 126.23242h38.23047l22.04492-79.476566 22.1289 79.476566h38.23243l27.8125-126.23242h-36.85352l-13.34766 70.521485-19.54687-70.521485h-36.93945l-19.46094 70.521485-13.3457-70.521485h-37.0254zm-57.9746 50.970703c-4.42987 0.09333-8.87282 0.934288-13.16016 2.642578-27.71598 7.865703-38.1537 44.484902-18.22656 64.736332 0.58941 67.31507 0.8389 134.63491 1.82617 201.94531 32.02472 0.004 142.7757-3.87735 163.92383 0.77539 21.2791 42.3342 72.50767 146.45718 78.22265 155.41407 22.6657-7.50171 58.23825-24.46354 80.77735-32.3125 1.16364 0.96552 0.89391-31.45826-9.61719-30.58008-9.59308 0.59366-27.91465 14.38886-53.15234 17.33984-24.02568-47.04155-46.92481-95.00971-70.72461-142.32031-41.40638-0.0318-109.1563 0.082-150.67188-0.11133 0.0554-1.57438-6.37395-16.90704 1.77149-35.11523h110.28515v-35.11524c-37.53011-0.49657-75.34176 1.64108-112.64648-1.25976-1.68013-26.59548-1.07072-53.32086-0.40625-79.95313 9.24976-12.57372 36.66462-18.12359 35.46289-40.92773 3.76856-24.356814-19.7428-45.66217-43.66406-45.15821zm-67.125 170.4668c-50.390058 24.21157-88.44719 74.11155-91.265631 129.25-5.815385 48.63228 16.002806 97.81891 53.769531 129.66016 26.41033 22.94578 61.02913 37.25513 110.52735 42.58203 55.03188 3.67466 109.49644-22.22633 143.49023-63.52344 20.11148-13.50572 0.24726-44.11985-9.07227-51.34961-22.29097 35.19331-55.84198 66.11004-98.1914 76.4043-56.48379 15.36872-119.80525-16.13787-144.83204-66.36133-23.657177-44.20064-15.457-103.36455 21.96876-138.04883 5.3028-7.30664 19.78435-10.20971 17.65234-20.77929-1.43077-12.18273 3.95012-30.66998-4.04687-37.83399z"/>
</svg>
