<?xml version="1.0" encoding="UTF-8" standalone="no"?>
<svg xmlns:rdf="http://www.w3.org/1999/02/22-rdf-syntax-ns#" xmlns="http://www.w3.org/2000/svg" version="1.0" xmlns:cc="http://creativecommons.org/ns#" xmlns:dc="http://purl.org/dc/elements/1.1/" viewBox="0 0 576.44501 577.45154">
<path d="m64.571 0.06355556c-41.335 0-64.571 21.371-64.571 65.036v450.123c0 40.844 20.895 62.229 62.192 62.229h452.024c41.307 0 62.229-20.315 62.229-62.229v-450.123c0-42.601-20.922-65.036-63.521-65.036-0.004 0-448.495-0.143-448.353 0z"/>
<path fill="#fff" d="m153.82334 25.565087c-11.62186 0.000512-21.65909 4.224165-30.11328 12.669922-8.45448 8.446769-12.68177 18.745296-12.68164 30.898438-0.00013 11.622143 4.22716 21.657705 12.68164 30.103519 8.45419 8.446724 18.49142 12.668384 30.11328 12.667974 12.1373 0.00041 22.43413-4.22125 30.88868-12.667974 8.45412-8.445814 12.6814-18.481376 12.68164-30.103519-0.00024-12.153142-4.22752-22.451669-12.68164-30.898438-8.45455-8.445757-18.75138-12.66941-30.88868-12.669922zm-44.36718 95.068363c-13.21761 0.00042-25.104397 4.7559-35.662113 14.26563-7.93058 7.38283-13.210603 15.57052-15.837891 24.56445l-36.460937 121.20703c-1.047781 2.64374-1.57038 5.0215-1.570313 7.13281-0.000067 12.15384 6.067514 18.2307 18.205078 18.23047 8.462306 0.00023 14.016577-4.75526 16.660157-14.26562l33.269531-110.92969h18.205078l-54.666016 197.26953h53.093746v153.70117c-0.00013 13.73325 6.60125 20.60153 19.80274 20.60156 13.20115-0.00003 19.80255-6.86831 19.80273-20.60156v-154.47461h19.82617v155.27344c-0.00019 13.20134 6.59924 19.8027 19.80079 19.80273 13.20109-0.00003 19.8025-6.60139 19.80273-19.80273v-154.5h53.07031l-55.43945-197.26953h19.00391l33.26953 110.92969c2.6432 9.51036 8.18818 14.26585 16.63476 14.26562 12.15329 0.00023 18.23014-6.07663 18.23047-18.23047-0.00033-2.64324-0.52487-5.021-1.57226-7.13281l-36.46094-121.20703c-2.64379-8.46202-8.71136-16.64972-18.20508-24.56445-11.62194-9.50973-24.30018-14.26521-38.0332-14.26563h-84.76953zm382.91601 293.61719c-20.32137 0.00013-36.03673 5.61145-47.14453 16.83398-11.10785 11.22274-16.66016 27.2805-16.66016 48.17578 0 15.67157 3.15617 28.53037 9.47071 38.57618 6.31451 10.04587 13.82072 17.06505 22.51758 21.05468 8.69679 3.98964 19.90518 5.98438 33.625 5.98438 11.30867 0 20.62219-1.63613 27.9414-4.9082 7.31901-3.27207 13.44784-8.12338 18.38477-14.55274 4.9367-6.42932 8.55329-14.4368 10.84961-24.02344l-34.18555-10.33398c-1.72224 7.97931-4.49126 14.06535-8.30859 18.25586-3.81751 4.19059-9.45738 6.28517-16.91993 6.28515-7.69231 0.00002-13.66225-2.59779-17.91015-7.79296-4.24801-5.1951-6.3731-14.79591-6.37305-28.80274-0.00005-11.30868 1.77874-19.60343 5.33789-24.88476 4.70714-7.1181 11.48186-10.67764 20.32227-10.67774 3.90345 0.0001 7.43444 0.80488 10.59179 2.41211 3.15718 1.60743 5.82635 3.90372 8.00782 6.88867 1.32022 1.77964 2.58347 4.59146 3.78906 8.4375l34.44141-7.66406c-4.4203-13.31782-11.1788-23.19163-20.27735-29.62109-9.09877-6.42922-21.59895-9.64245-37.5-9.64258zm-248.59179 2.15234 28.07031 126.23242h38.23242l22.04297-79.47656 22.13086 79.47656h38.23047l27.8125-126.23242h-36.85352l-13.3457 70.52149-19.54688-70.52149h-36.93945l-19.46094 70.52149-13.34765-70.52149h-37.02539z"/>
</svg>
