<?xml version="1.0" encoding="UTF-8" standalone="no"?>
<svg xmlns:rdf="http://www.w3.org/1999/02/22-rdf-syntax-ns#" xmlns="http://www.w3.org/2000/svg" version="1.0" xmlns:cc="http://creativecommons.org/ns#" xmlns:dc="http://purl.org/dc/elements/1.1/" viewBox="0 0 576.44501 577.45154">
<path d="m64.571 0.06355556c-41.335 0-64.571 21.371-64.571 65.036v450.123c0 40.844 20.895 62.229 62.192 62.229h452.024c41.307 0 62.229-20.315 62.229-62.229v-450.123c0-42.601-20.922-65.036-63.521-65.036-0.004 0-448.495-0.143-448.353 0z"/>
<path fill="#fff" d="m149.06358 34.04165c-11.20428 0.000494-20.8776 3.946466-29.01953 11.839844-8.14304 7.894328-12.21343 17.692086-12.21289 29.392578-0.00054 11.204129 4.06985 20.881426 12.21289 29.031258 8.14193 8.15067 17.81525 12.22502 29.01953 12.22461 11.20309 0.00041 20.88038-4.07394 29.03125-12.22461 8.14963-8.149832 12.22592-17.827129 12.22656-29.031258-0.00064-11.700492-4.07693-21.498251-12.22656-29.392578-8.15087-7.893377-17.82816-11.83935-29.03125-11.839844zm-54.984377 90.87891c-14.762657 0.00037-27.364854 5.22219-37.806641 15.66406-10.442761 10.44266-15.664543 23.30159-15.664062 38.57617v126.77539c-0.000481 12.22948 5.602459 18.34396 16.806641 18.34376 10.690396 0.00021 16.034636-6.11427 16.035156-18.34376v-123.72265h19.859375v336.06445c-0.000533 15.27492 7.636628 22.91209 22.912108 22.91211 15.27437-0.00002 22.91154-7.63719 22.91211-22.91211v-194.76758h19.85938v194.76758c-0.0006 15.27492 7.63655 22.91209 22.91211 22.91211 15.78709-0.00002 23.681-7.63719 23.68164-22.91211v-336.06445h19.08984v123.72265c-0.00066 12.72675 5.34553 19.09003 16.03711 19.08985 10.70576 0.00018 16.0579-6.3631 16.05859-19.08985v-126.02929c-0.00069-14.76178-4.96378-27.61679-14.89258-38.56445-9.93016-10.9469-22.78908-16.42151-38.57617-16.42188h-109.22461zm396.12305 286.07422c-20.32136 0.00013-36.03673 5.61146-47.14453 16.83398-11.10785 11.22275-16.66017 27.28246-16.66016 48.17774-0.00001 15.67157 3.15617 28.53036 9.47071 38.57617 6.31451 10.04586 13.8207 17.0631 22.51757 21.05273 8.69678 3.98963 19.90518 5.98438 33.625 5.98438 11.30866 0 20.6222-1.63613 27.94141-4.9082 7.31901-3.27207 13.44784-8.12339 18.38477-14.55274 4.93669-6.42932 8.55327-14.4368 10.8496-24.02344l-34.18554-10.33203c-1.72224 7.97932-4.49127 14.0634-8.3086 18.25391-3.8175 4.19058-9.45737 6.28714-16.91992 6.28711-7.69232 0.00003-13.66225-2.5978-17.91015-7.79297-4.24801-5.19509-6.3731-14.79591-6.37305-28.80274-0.00005-11.30867 1.77874-19.60538 5.33789-24.88671 4.70714-7.11811 11.48186-10.67569 20.32227-10.67579 3.90346 0.0001 7.43444 0.80292 10.59179 2.41016 3.15718 1.60743 5.82635 3.90371 8.00781 6.88867 1.32022 1.77964 2.58347 4.59342 3.78907 8.43946l34.4414-7.66407c-4.4203-13.31783-11.1788-23.19164-20.27734-29.62109-9.09877-6.42922-21.59894-9.6444-37.5-9.64453zm-248.5918 2.15234 28.07032 126.23438h38.23242l22.04297-79.47656 22.13086 79.47656h38.23046l27.8125-126.23438h-36.85351l-13.3457 70.52344-19.54688-70.52344h-36.93945l-19.46094 70.52344-13.34766-70.52344h-37.02539z"/>
</svg>
