<?xml version="1.0" encoding="UTF-8" standalone="no"?>
<svg xmlns:rdf="http://www.w3.org/1999/02/22-rdf-syntax-ns#" xmlns="http://www.w3.org/2000/svg" version="1.0" xmlns:cc="http://creativecommons.org/ns#" xmlns:dc="http://purl.org/dc/elements/1.1/" viewBox="0 0 576.44501 577.45154">
<path d="m64.571 0.06355556c-41.335 0-64.571 21.371-64.571 65.036v450.123c0 40.844 20.894 62.229 62.192 62.229h452.024c41.307 0 62.229-20.316 62.229-62.229v-450.123c0-42.601-20.922-65.036-63.522-65.036-0.003 0-448.494-0.143-448.352 0z"/>
<path fill="#fff" d="m372.85459 42.488915c-22.552 0-40.83398 18.283938-40.83398 40.835938 0 22.551007 18.28198 40.833987 40.83398 40.833987 22.55 0 40.83399-18.28298 40.83399-40.833987 0-22.552-18.28399-40.835938-40.83399-40.835938zm-29.49609 93.156255c-17.222 0-29.72266 6.81641-40.22266 21.81641l-36.75 53.55468h-63.76953c-25.624 0-24.18647 36.33985-0.48047 36.33985h73.5c5.751 0 12.75044-2.14444 16.77344-8.14844l27.97656-39.99609 0.25 311.75c0 31.184 45.85938 30.89815 45.85938-0.71485l0.0254-181.36523 8.92773-0.0859-0.0293 181.36719c0 31.612 46.39257 32.41083 46.39257 0.79883l0.0274-313.05664h8.05859v111.79492c0 26.838 36.41992 26.83847 36.41992 0.48047v-122.29883c0-32.876-24.46865-52.23633-50.34765-52.23633h-72.61133zm-168.62305 125.66601-21.75195 21.74805 21.75195 21.75195 21.75196-21.75195-21.75196-21.74805zm20.29102 41.07813-21.75 21.75195 21.75 21.74805 21.75-21.74805-21.75-21.75195zm56.21484 25.5-33.98437 177.44727h-50.38282l-33.25585-177.375h-29.17383l38.04883 206.08789h99.14257l38.77735-206.16016h-29.17188zm-80.53515 32.66406v29.86133h29.86132v-29.86133h-29.86132z"/>
</svg>
