<svg xmlns:rdf="http://www.w3.org/1999/02/22-rdf-syntax-ns#" xmlns="http://www.w3.org/2000/svg" height="300" width="300" version="1.1" xmlns:cc="http://creativecommons.org/ns#" xmlns:dc="http://purl.org/dc/elements/1.1/" viewBox="0 0 300 300">
 <title>CircuiTikZ</title>
 <g transform="translate(0 -752.36)">
  <g transform="matrix(14.999 0 0 14.999 -995.22 -819.8)">
   <path style="stroke:#000;stroke-miterlimit:10;stroke-width:.14058;fill:none" d="m66.351 114.82h0.07028m-0.07028 0h5.1001m9.8006 0h5.1001m-0.07028 0h0.07028"/>
   <path style="stroke:#000;stroke-miterlimit:10;stroke-width:.28116;fill:none" d="m71.451 114.82 4.9003-4.9003 4.9003 4.9003-4.9003 4.9003-4.9003-4.9003"/>
   <g transform="matrix(.093339 0 0 .093339 79.488 116.18)">
    <path d="m-2.2969-6.5625c0-0.17188 0-0.35938-0.20312-0.35938-0.1875 0-0.1875 0.1875-0.1875 0.35938v5.3906c0 0.17188 0 0.34375 0.1875 0.34375 0.20312 0 0.20312-0.17188 0.20312-0.34375z"/>
   </g>
   <g transform="matrix(.093339 0 0 .093339 74.972 116.18)">
    <path d="m-2.2969-4.0781v-2.7812c0-0.14062 0-0.32812-0.20312-0.32812-0.1875 0-0.1875 0.1875-0.1875 0.32812v2.7812h-2.7969c-0.14062 0-0.32812 0-0.32812 0.20312s0.1875 0.20312 0.32812 0.20312h2.7969v2.7812c0 0.14062 0 0.32812 0.1875 0.32812 0.20312 0 0.20312-0.1875 0.20312-0.32812v-2.7812h2.7969c0.14062 0 0.32812 0 0.32812-0.20312s-0.1875-0.20312-0.32812-0.20312z"/>
   </g>
  </g>
 </g>
</svg>
