<svg xmlns:rdf="http://www.w3.org/1999/02/22-rdf-syntax-ns#" xmlns="http://www.w3.org/2000/svg" height="300" width="300" version="1.1" xmlns:cc="http://creativecommons.org/ns#" xmlns:dc="http://purl.org/dc/elements/1.1/" viewBox="0 0 300 300">
 <title>CircuiTikZ</title>
 <g transform="translate(0 -752.36)">
  <g transform="matrix(14.999 0 0 14.999 -791.12 -1182.6)">
   <path style="stroke:#000;stroke-miterlimit:10;stroke-width:.14058;fill:none" d="m52.744 139.01h0.07028m-0.07028 0h5.8002m8.4005 0h5.8002m-0.07028 0h0.07028"/>
   <path style="stroke:#000;stroke-miterlimit:10;stroke-width:.14058;fill:none" d="m58.544 139.01"/>
   <path style="stroke:#000;stroke-miterlimit:10;stroke-width:.28116;fill:none" d="m66.524 139.01c0-2.0877-1.6922-3.7813-3.78-3.7813-2.0877 0-3.78 1.6936-3.78 3.7813 0 2.0864 1.6922 3.78 3.78 3.78 2.0877 0 3.78-1.6936 3.78-3.78z"/>
   <path style="stroke:#000;stroke-miterlimit:10;stroke-width:.14058;fill:none" d="m66.944 139.01"/>
   <path style="stroke:#000;stroke-miterlimit:10;stroke-width:.14058;fill:none" d="m66.944 139.01h-2.3055"/>
   <path d="m63.374 139.01c0.37483 0.0703 0.98392 0.28112 1.407 0.52641v-1.0542c-0.42306 0.24529-1.0322 0.45613-1.407 0.52779"/>
   <path style="stroke:#000;stroke-miterlimit:10;stroke-width:.14058;fill:none" d="m58.544 139.01h2.3055"/>
   <path d="m62.114 139.01c-0.37483-0.0717-0.98392-0.2825-1.4056-0.52779v1.0542c0.42168-0.24529 1.0308-0.45613 1.4056-0.52641"/>
   <path d="m61.274 140.9c0 0.23151 0.18879 0.4203 0.4203 0.4203 0.23289 0 0.4203-0.18879 0.4203-0.4203s-0.18741-0.4203-0.4203-0.4203c-0.23151 0-0.4203 0.18879-0.4203 0.4203z"/>
  </g>
 </g>
</svg>
