<?xml version="1.0" encoding="UTF-8" standalone="no"?>
<!-- Created with Inkscape (http://www.inkscape.org/) -->

<svg
   xmlns:dc="http://purl.org/dc/elements/1.1/"
   xmlns:cc="http://creativecommons.org/ns#"
   xmlns:rdf="http://www.w3.org/1999/02/22-rdf-syntax-ns#"
   xmlns:svg="http://www.w3.org/2000/svg"
   xmlns="http://www.w3.org/2000/svg"
   xmlns:sodipodi="http://sodipodi.sourceforge.net/DTD/sodipodi-0.dtd"
   xmlns:inkscape="http://www.inkscape.org/namespaces/inkscape"
   width="300"
   height="300"
   viewBox="0 0 300 300"
   id="svg93521"
   version="1.1"
   inkscape:version="0.91 r13725"
   sodipodi:docname="american_transformer.svg">
  <title
     id="title183454">CircuiTikZ</title>
  <defs
     id="defs93523" />
  <sodipodi:namedview
     id="base"
     pagecolor="#ffffff"
     bordercolor="#666666"
     borderopacity="1.0"
     inkscape:pageopacity="0.0"
     inkscape:pageshadow="2"
     inkscape:zoom="0.98994949"
     inkscape:cx="8.8056722"
     inkscape:cy="178.40832"
     inkscape:document-units="px"
     inkscape:current-layer="layer1"
     showgrid="false"
     units="px"
     inkscape:window-width="1920"
     inkscape:window-height="1016"
     inkscape:window-x="0"
     inkscape:window-y="27"
     inkscape:window-maximized="1"
     showguides="false" />
  <metadata
     id="metadata93526">
    <rdf:RDF>
      <cc:Work
         rdf:about="">
        <dc:format>image/svg+xml</dc:format>
        <dc:type
           rdf:resource="http://purl.org/dc/dcmitype/StillImage" />
        <dc:title>CircuiTikZ</dc:title>
        <cc:license
           rdf:resource="http://artlibre.org/licence/lal" />
        <dc:creator>
          <cc:Agent>
            <dc:title>FDominec</dc:title>
          </cc:Agent>
        </dc:creator>
        <dc:source>https://commons.wikimedia.org/wiki/File:Electrical_symbols_library.svg</dc:source>
        <dc:language>English</dc:language>
        <dc:description>This list of electronic components is intended to make drawing of schematics simple, fast and very flexible, using common vector image editors.</dc:description>
      </cc:Work>
      <cc:License
         rdf:about="http://artlibre.org/licence/lal">
        <cc:permits
           rdf:resource="http://creativecommons.org/ns#Reproduction" />
        <cc:permits
           rdf:resource="http://creativecommons.org/ns#Distribution" />
        <cc:permits
           rdf:resource="http://creativecommons.org/ns#DerivativeWorks" />
        <cc:requires
           rdf:resource="http://creativecommons.org/ns#ShareAlike" />
        <cc:requires
           rdf:resource="http://creativecommons.org/ns#Notice" />
        <cc:requires
           rdf:resource="http://creativecommons.org/ns#Attribution" />
      </cc:License>
    </rdf:RDF>
  </metadata>
  <g
     inkscape:label="Capa 1"
     inkscape:groupmode="layer"
     id="layer1"
     transform="translate(0,-752.36216)">
    <g
       id="layer1-3"
       inkscape:label="Layer 1"
       transform="matrix(14.190767,0,0,14.190767,-879.84423,-651.86468)">
      <path
         style="fill:none;stroke:#000000;stroke-width:0.28116387;stroke-linecap:butt;stroke-linejoin:bevel;stroke-miterlimit:10;stroke-opacity:1"
         d="m 68.314669,103.78222 c 1.160307,0 2.100128,0.64354 2.100128,1.43591 0,0.79237 -0.939821,1.43454 -2.100128,1.43454 1.160307,0 2.100128,0.64354 2.100128,1.43591 0,0.79238 -0.939821,1.43454 -2.100128,1.43454 1.160307,0 2.100128,0.64354 2.100128,1.43592 0,0.79237 -0.939821,1.43453 -2.100128,1.43453 1.160307,0 2.100128,0.64217 2.100128,1.43592 0,0.79237 -0.939821,1.43454 -2.100128,1.43454"
         id="path1814"
         inkscape:connector-curvature="0" />
      <path
         style="fill:none;stroke:#000000;stroke-width:0.28116387;stroke-linecap:butt;stroke-linejoin:bevel;stroke-miterlimit:10;stroke-opacity:1"
         d="m 76.828188,115.26403 c -1.160307,0 -2.100128,-0.64217 -2.100128,-1.43454 0,-0.79375 0.939821,-1.43592 2.100128,-1.43592 -1.160307,0 -2.100128,-0.64216 -2.100128,-1.43453 0,-0.79238 0.939821,-1.43592 2.100128,-1.43592 -1.160307,0 -2.100128,-0.64216 -2.100128,-1.43454 0,-0.79237 0.939821,-1.43591 2.100128,-1.43591 -1.160307,0 -2.100128,-0.64217 -2.100128,-1.43454 0,-0.79237 0.939821,-1.43591 2.100128,-1.43591"
         id="path1816"
         inkscape:connector-curvature="0" />
      <path
         style="fill:none;stroke:#000000;stroke-width:0.14058194;stroke-linecap:butt;stroke-linejoin:miter;stroke-miterlimit:10;stroke-opacity:1"
         d="m 62.070777,99.023846 6.300389,0 0,4.900304 m 0,11.19932 0,4.9003 -6.300389,0 m 21.001303,-20.999924 -6.300393,0 0,4.900304 m 0,11.19932 0,4.9003 6.300393,0"
         id="path1818"
         inkscape:connector-curvature="0" />
    </g>
  </g>
</svg>
