<?xml version="1.0" encoding="UTF-8" standalone="no"?>
<!-- Created with Inkscape (http://www.inkscape.org/) -->

<svg
   xmlns:dc="http://purl.org/dc/elements/1.1/"
   xmlns:cc="http://creativecommons.org/ns#"
   xmlns:rdf="http://www.w3.org/1999/02/22-rdf-syntax-ns#"
   xmlns:svg="http://www.w3.org/2000/svg"
   xmlns="http://www.w3.org/2000/svg"
   xmlns:sodipodi="http://sodipodi.sourceforge.net/DTD/sodipodi-0.dtd"
   xmlns:inkscape="http://www.inkscape.org/namespaces/inkscape"
   width="210mm"
   height="297mm"
   viewBox="0 0 210 297"
   version="1.1"
   id="svg8224"
   inkscape:version="0.92.1 r15371"
   sodipodi:docname="american_nor.svg">
  <defs
     id="defs8218" />
  <sodipodi:namedview
     id="base"
     pagecolor="#ffffff"
     bordercolor="#666666"
     borderopacity="1.0"
     inkscape:pageopacity="0.0"
     inkscape:pageshadow="2"
     inkscape:zoom="0.35"
     inkscape:cx="-131.42857"
     inkscape:cy="560"
     inkscape:document-units="mm"
     inkscape:current-layer="layer1"
     showgrid="false"
     inkscape:window-width="1920"
     inkscape:window-height="986"
     inkscape:window-x="-11"
     inkscape:window-y="-11"
     inkscape:window-maximized="1" />
  <metadata
     id="metadata8221">
    <rdf:RDF>
      <cc:Work
         rdf:about="">
        <dc:format>image/svg+xml</dc:format>
        <dc:type
           rdf:resource="http://purl.org/dc/dcmitype/StillImage" />
        <dc:title></dc:title>
      </cc:Work>
    </rdf:RDF>
  </metadata>
  <g
     inkscape:label="Layer 1"
     inkscape:groupmode="layer"
     id="layer1">
    <path
       inkscape:connector-curvature="0"
       id="path546"
       d="m 40.680474,114.28316 h 4.236089 m -4.236089,5.60035 h 4.236089 m 11.164867,-2.80018 h -2.31097"
       style="fill:none;stroke:#000000;stroke-width:0.14058194;stroke-linecap:butt;stroke-linejoin:miter;stroke-miterlimit:10;stroke-opacity:1" />
    <path
       inkscape:connector-curvature="0"
       id="path548"
       d="m 42.991444,111.48299 c 0.768946,0 2.309594,2.80017 2.309594,5.60034 0,2.80018 -1.540648,5.60035 -2.309594,5.60035 5.389506,0 9.624219,-2.80017 9.624219,-5.60035 0,-2.80017 -4.234713,-5.60034 -9.624219,-5.60034 m 10.779016,5.60034 c 0,-0.31832 -0.257694,-0.5774 -0.577399,-0.5774 -0.318325,0 -0.577398,0.25908 -0.577398,0.5774 0,0.31971 0.259073,0.5774 0.577398,0.5774 0.319705,0 0.577399,-0.25769 0.577399,-0.5774 z m 0,0"
       style="fill:none;stroke:#000000;stroke-width:0.28116387;stroke-linecap:butt;stroke-linejoin:miter;stroke-miterlimit:10;stroke-opacity:1" />
  </g>
</svg>
