<svg xmlns:rdf="http://www.w3.org/1999/02/22-rdf-syntax-ns#" xmlns="http://www.w3.org/2000/svg" height="300" width="300" version="1.1" xmlns:cc="http://creativecommons.org/ns#" xmlns:dc="http://purl.org/dc/elements/1.1/" viewBox="0 0 300 300">
 <title>CircuiTikZ</title>
 <g transform="translate(0 -752.36)">
  <g transform="matrix(14.999 0 0 14.999 -961.2 -1091.9)">
   <path style="stroke:#000;stroke-miterlimit:10;stroke-width:.14058;fill:none" d="m64.083 134.02h0.07028m-0.07028 0h4.4001m11.201 0h4.4001m-0.07028 0h0.07028"/>
   <path style="stroke-linejoin:bevel;stroke:#000;stroke-miterlimit:10;stroke-width:.28116;fill:none" d="m68.342 134.07c0-1.1603 0.64354-2.1001 1.4359-2.1001 0.79237 0 1.4345 0.93982 1.4345 2.1001 0-1.1603 0.64354-2.1001 1.4359-2.1001 0.79237 0 1.4345 0.93982 1.4345 2.1001 0-1.1603 0.64217-2.1001 1.4359-2.1001 0.79237 0 1.4345 0.93982 1.4345 2.1001 0-1.1603 0.64217-2.1001 1.4359-2.1001 0.79237 0 1.4345 0.93982 1.4345 2.1001"/>
  </g>
 </g>
</svg>
