<?xml version="1.0" encoding="UTF-8" standalone="no"?>
<!-- Created with Inkscape (http://www.inkscape.org/) -->

<svg
   xmlns:dc="http://purl.org/dc/elements/1.1/"
   xmlns:cc="http://creativecommons.org/ns#"
   xmlns:rdf="http://www.w3.org/1999/02/22-rdf-syntax-ns#"
   xmlns:svg="http://www.w3.org/2000/svg"
   xmlns="http://www.w3.org/2000/svg"
   xmlns:sodipodi="http://sodipodi.sourceforge.net/DTD/sodipodi-0.dtd"
   xmlns:inkscape="http://www.inkscape.org/namespaces/inkscape"
   width="210mm"
   height="297mm"
   viewBox="0 0 210 297"
   version="1.1"
   id="svg19074"
   inkscape:version="0.92.1 r15371"
   sodipodi:docname="american_transformer.svg">
  <defs
     id="defs19068" />
  <sodipodi:namedview
     id="base"
     pagecolor="#ffffff"
     bordercolor="#666666"
     borderopacity="1.0"
     inkscape:pageopacity="0.0"
     inkscape:pageshadow="2"
     inkscape:zoom="0.35"
     inkscape:cx="-131.42857"
     inkscape:cy="560"
     inkscape:document-units="mm"
     inkscape:current-layer="layer1"
     showgrid="false"
     inkscape:window-width="1920"
     inkscape:window-height="986"
     inkscape:window-x="-11"
     inkscape:window-y="-11"
     inkscape:window-maximized="1" />
  <metadata
     id="metadata19071">
    <rdf:RDF>
      <cc:Work
         rdf:about="">
        <dc:format>image/svg+xml</dc:format>
        <dc:type
           rdf:resource="http://purl.org/dc/dcmitype/StillImage" />
        <dc:title></dc:title>
      </cc:Work>
    </rdf:RDF>
  </metadata>
  <g
     inkscape:label="Layer 1"
     inkscape:groupmode="layer"
     id="layer1">
    <path
       inkscape:connector-curvature="0"
       id="path1814"
       d="m 68.314669,103.78222 c 1.160307,0 2.100128,0.64354 2.100128,1.43591 0,0.79237 -0.939821,1.43454 -2.100128,1.43454 1.160307,0 2.100128,0.64354 2.100128,1.43591 0,0.79238 -0.939821,1.43454 -2.100128,1.43454 1.160307,0 2.100128,0.64354 2.100128,1.43592 0,0.79237 -0.939821,1.43453 -2.100128,1.43453 1.160307,0 2.100128,0.64217 2.100128,1.43592 0,0.79237 -0.939821,1.43454 -2.100128,1.43454"
       style="fill:none;stroke:#000000;stroke-width:0.28116387;stroke-linecap:butt;stroke-linejoin:bevel;stroke-miterlimit:10;stroke-opacity:1" />
    <path
       inkscape:connector-curvature="0"
       id="path1816"
       d="m 76.828188,115.26403 c -1.160307,0 -2.100128,-0.64217 -2.100128,-1.43454 0,-0.79375 0.939821,-1.43592 2.100128,-1.43592 -1.160307,0 -2.100128,-0.64216 -2.100128,-1.43453 0,-0.79238 0.939821,-1.43592 2.100128,-1.43592 -1.160307,0 -2.100128,-0.64216 -2.100128,-1.43454 0,-0.79237 0.939821,-1.43591 2.100128,-1.43591 -1.160307,0 -2.100128,-0.64217 -2.100128,-1.43454 0,-0.79237 0.939821,-1.43591 2.100128,-1.43591"
       style="fill:none;stroke:#000000;stroke-width:0.28116387;stroke-linecap:butt;stroke-linejoin:bevel;stroke-miterlimit:10;stroke-opacity:1" />
    <path
       inkscape:connector-curvature="0"
       id="path1818"
       d="m 62.070777,99.023846 h 6.300389 v 4.900304 m 0,11.19932 v 4.9003 H 62.070777 M 83.07208,99.023846 h -6.300393 v 4.900304 m 0,11.19932 v 4.9003 h 6.300393"
       style="fill:none;stroke:#000000;stroke-width:0.14058194;stroke-linecap:butt;stroke-linejoin:miter;stroke-miterlimit:10;stroke-opacity:1" />
  </g>
</svg>
