<svg xmlns:rdf="http://www.w3.org/1999/02/22-rdf-syntax-ns#" xmlns="http://www.w3.org/2000/svg" height="300" width="300" version="1.1" xmlns:cc="http://creativecommons.org/ns#" xmlns:dc="http://purl.org/dc/elements/1.1/" viewBox="0 0 300 300">
 <title>CircuiTikZ</title>
 <g transform="translate(0 -752.36)">
  <g transform="matrix(14.191 0 0 14.191 -751.11 -684.05)">
   <path style="stroke-linejoin:bevel;stroke:#000;stroke-miterlimit:10;stroke-width:.28116;fill:none" d="m59.243 106.05c1.1603 0 2.1001 0.64216 2.1001 1.4345 0 0.79375-0.93982 1.4359-2.1001 1.4359 1.1603 0 2.1001 0.64217 2.1001 1.4345 0 0.79375-0.93982 1.4359-2.1001 1.4359 1.1603 0 2.1001 0.64216 2.1001 1.4345 0 0.79238-0.93982 1.4359-2.1001 1.4359 1.1603 0 2.1001 0.64217 2.1001 1.4345 0 0.79237-0.93982 1.4359-2.1001 1.4359"/>
   <path style="stroke-linejoin:bevel;stroke:#000;stroke-miterlimit:10;stroke-width:.28116;fill:none" d="m67.757 117.53c-1.1603 0-2.1001-0.64354-2.1001-1.4359 0-0.79237 0.93982-1.4345 2.1001-1.4345-1.1603 0-2.1001-0.64354-2.1001-1.4359 0-0.79237 0.93982-1.4345 2.1001-1.4345-1.1603 0-2.1001-0.64217-2.1001-1.4359 0-0.79237 0.93982-1.4345 2.1001-1.4345-1.1603 0-2.1001-0.64216-2.1001-1.4359 0-0.79238 0.93982-1.4345 2.1001-1.4345"/>
   <path style="stroke:#000;stroke-miterlimit:10;stroke-width:.14058;fill:none" d="m52.999 101.29h6.3004v4.9003m0 11.201v4.8989h-6.3004m21.001-21h-6.3004v4.9003m0 11.201v4.8989h6.3004"/>
   <path style="stroke:#000;stroke-miterlimit:10;stroke-width:.28116;fill:none" d="m64.025 117.04v-10.501m-1.0501 10.501v-10.501"/>
  </g>
 </g>
</svg>
