<?xml version="1.0" encoding="UTF-8" standalone="no"?>
<!-- Created with Inkscape (http://www.inkscape.org/) -->

<svg
   xmlns:dc="http://purl.org/dc/elements/1.1/"
   xmlns:cc="http://creativecommons.org/ns#"
   xmlns:rdf="http://www.w3.org/1999/02/22-rdf-syntax-ns#"
   xmlns:svg="http://www.w3.org/2000/svg"
   xmlns="http://www.w3.org/2000/svg"
   xmlns:sodipodi="http://sodipodi.sourceforge.net/DTD/sodipodi-0.dtd"
   xmlns:inkscape="http://www.inkscape.org/namespaces/inkscape"
   width="210mm"
   height="297mm"
   viewBox="0 0 210 297"
   version="1.1"
   id="svg20219"
   inkscape:version="0.92.1 r15371"
   sodipodi:docname="core_transformer.svg">
  <defs
     id="defs20213" />
  <sodipodi:namedview
     id="base"
     pagecolor="#ffffff"
     bordercolor="#666666"
     borderopacity="1.0"
     inkscape:pageopacity="0.0"
     inkscape:pageshadow="2"
     inkscape:zoom="0.35"
     inkscape:cx="-131.42857"
     inkscape:cy="560"
     inkscape:document-units="mm"
     inkscape:current-layer="layer1"
     showgrid="false"
     inkscape:window-width="1920"
     inkscape:window-height="986"
     inkscape:window-x="-11"
     inkscape:window-y="-11"
     inkscape:window-maximized="1" />
  <metadata
     id="metadata20216">
    <rdf:RDF>
      <cc:Work
         rdf:about="">
        <dc:format>image/svg+xml</dc:format>
        <dc:type
           rdf:resource="http://purl.org/dc/dcmitype/StillImage" />
        <dc:title></dc:title>
      </cc:Work>
    </rdf:RDF>
  </metadata>
  <g
     inkscape:label="Layer 1"
     inkscape:groupmode="layer"
     id="layer1">
    <path
       inkscape:connector-curvature="0"
       id="path2172"
       d="m 66.046812,134.66513 c 1.160307,0 2.100128,0.5774 2.100128,1.28847 0,0.71107 -0.939821,1.28847 -2.100128,1.28847 -0.578778,0 -1.050065,-0.23565 -1.050065,-0.52504 0,-0.29076 0.471287,-0.52503 1.050065,-0.52503 1.160307,0 2.100128,0.57602 2.100128,1.28709 0,0.71244 -0.939821,1.28846 -2.100128,1.28846 -0.578778,0 -1.050065,-0.23427 -1.050065,-0.52503 0,-0.28939 0.471287,-0.52503 1.050065,-0.52503 1.160307,0 2.100128,0.57739 2.100128,1.28846 0,0.71107 -0.939821,1.28847 -2.100128,1.28847 -0.578778,0 -1.050065,-0.23565 -1.050065,-0.52503 0,-0.29077 0.471287,-0.52504 1.050065,-0.52504 1.160307,0 2.100128,0.57602 2.100128,1.28847 0,0.71107 -0.939821,1.28709 -2.100128,1.28709 -0.578778,0 -1.050065,-0.23427 -1.050065,-0.52504 0,-0.28938 0.471287,-0.52503 1.050065,-0.52503 1.160307,0 2.100128,0.5774 2.100128,1.28847 0,0.71107 -0.939821,1.28847 -2.100128,1.28847"
       style="fill:none;stroke:#000000;stroke-width:0.28116387;stroke-linecap:butt;stroke-linejoin:bevel;stroke-miterlimit:10;stroke-opacity:1" />
    <path
       inkscape:connector-curvature="0"
       id="path2174"
       d="m 74.560331,143.34678 c -1.160307,0 -2.100128,-0.5774 -2.100128,-1.28847 0,-0.71107 0.939821,-1.28847 2.100128,-1.28847 0.578778,0 1.048689,0.23565 1.048689,0.52503 0,0.29077 -0.469911,0.52504 -1.048689,0.52504 -1.160307,0 -2.100128,-0.57602 -2.100128,-1.28709 0,-0.71245 0.939821,-1.28847 2.100128,-1.28847 0.578778,0 1.048689,0.23427 1.048689,0.52504 0,0.28938 -0.469911,0.52503 -1.048689,0.52503 -1.160307,0 -2.100128,-0.5774 -2.100128,-1.28847 0,-0.71107 0.939821,-1.28846 2.100128,-1.28846 0.578778,0 1.048689,0.23564 1.048689,0.52503 0,0.29076 -0.469911,0.52503 -1.048689,0.52503 -1.160307,0 -2.100128,-0.57602 -2.100128,-1.28846 0,-0.71107 0.939821,-1.28709 2.100128,-1.28709 0.578778,0 1.048689,0.23427 1.048689,0.52503 0,0.28939 -0.469911,0.52504 -1.048689,0.52504 -1.160307,0 -2.100128,-0.5774 -2.100128,-1.28847 0,-0.71107 0.939821,-1.28847 2.100128,-1.28847"
       style="fill:none;stroke:#000000;stroke-width:0.28116387;stroke-linecap:butt;stroke-linejoin:bevel;stroke-miterlimit:10;stroke-opacity:1" />
    <path
       inkscape:connector-curvature="0"
       id="path2176"
       d="m 59.80292,128.5053 h 6.300389 v 6.30039 m 0,8.40052 v 6.30039 H 59.80292 M 80.804223,128.5053 H 74.50383 v 6.30039 m 0,8.40052 v 6.30039 h 6.300393"
       style="fill:none;stroke:#000000;stroke-width:0.14058194;stroke-linecap:butt;stroke-linejoin:miter;stroke-miterlimit:10;stroke-opacity:1" />
    <path
       inkscape:connector-curvature="0"
       id="path2178"
       d="m 70.828605,144.25628 v -10.50065 m -1.050067,10.50065 v -10.50065"
       style="fill:none;stroke:#000000;stroke-width:0.28116387;stroke-linecap:butt;stroke-linejoin:miter;stroke-miterlimit:10;stroke-opacity:1" />
  </g>
</svg>
