<svg xmlns:rdf="http://www.w3.org/1999/02/22-rdf-syntax-ns#" xmlns="http://www.w3.org/2000/svg" height="300" width="300" version="1.1" xmlns:cc="http://creativecommons.org/ns#" xmlns:dc="http://purl.org/dc/elements/1.1/" viewBox="0 0 300 300">
 <title>CircuiTikZ</title>
 <g transform="translate(0 -752.36)">
  <g transform="matrix(16.232 0 0 16.232 -1457.4 -1268.1)">
   <path style="stroke:#000;stroke-miterlimit:10;stroke-width:.28116;fill:none" d="m89.929 124.61h18.201v18.201h-18.201z"/>
   <path style="stroke:#000;stroke-miterlimit:10;stroke-width:.14058;fill:none" d="m89.929 129.16h18.201m-18.201 9.1006h18.201"/>
   <path style="stroke:#000;stroke-miterlimit:10;stroke-width:.14058;fill:none" d="m93.759 136.73 10.542-6.0248"/>
   <path d="m92.659 137.35c0.36105-0.12402 0.99494-0.24391 1.4841-0.23977l-0.52365-0.91502c-0.24391 0.42306-0.66973 0.90813-0.96049 1.1548"/>
   <path d="m105.4 130.07c-0.35966 0.12402-0.99356 0.24391-1.4828 0.23978l0.52365 0.91501c0.24391-0.42305 0.66835-0.90812 0.95911-1.1548"/>
   <path style="stroke:#000;stroke-miterlimit:10;stroke-width:.14058;fill:none" d="m93.759 130.7 10.542 6.0248"/>
   <path d="m92.659 130.07c0.29077 0.24667 0.71658 0.73174 0.96049 1.1548l0.52365-0.91501c-0.4892 0.004-1.1231-0.11576-1.4841-0.23978"/>
   <path d="m105.4 137.35c-0.29076-0.24666-0.7152-0.73173-0.95911-1.1548l-0.52365 0.91502c0.4892-0.004 1.1231 0.11575 1.4828 0.23977"/>
  </g>
 </g>
</svg>
