<svg xmlns:rdf="http://www.w3.org/1999/02/22-rdf-syntax-ns#" xmlns="http://www.w3.org/2000/svg" height="300" width="300" version="1.1" xmlns:cc="http://creativecommons.org/ns#" xmlns:dc="http://purl.org/dc/elements/1.1/" viewBox="0 0 300 300">
 <title>CircuiTikZ</title>
 <g transform="translate(0 -752.36)">
  <g transform="matrix(16.233 0 0 16.233 -1113.9 -936.89)">
   <path style="stroke:#000;stroke-miterlimit:10;stroke-width:.28116;fill:none" d="m68.763 104.2h18.201v18.2h-18.201z"/>
   <path style="stroke:#000;stroke-miterlimit:10;stroke-width:.14058;fill:none" d="m68.763 108.75h18.201m-18.201 9.0992h18.201"/>
   <path style="stroke:#000;stroke-miterlimit:10;stroke-width:.14058;fill:none" d="m76.954 113.3c0-2.0106-1.6302-3.6408-2.3757-3.6408"/>
   <path d="m73.313 109.66c0.37483 0.0703 0.98392 0.28111 1.4056 0.52778v-1.0542c-0.42168 0.24529-1.0308 0.45613-1.4056 0.52642"/>
   <path style="stroke:#000;stroke-miterlimit:10;stroke-width:.14058;fill:none" d="m76.954 113.3c0 2.0092-1.6302 3.6394-2.3757 3.6394"/>
   <path d="m73.313 116.94c0.37483 0.0703 0.98392 0.28112 1.4056 0.52779v-1.0556c-0.42168 0.24667-1.0308 0.45751-1.4056 0.52779"/>
   <path style="stroke:#000;stroke-miterlimit:10;stroke-width:.14058;fill:none" d="m78.773 113.3c0-2.0106 1.6302-3.6408 2.3757-3.6408"/>
   <path d="m82.413 109.66c-0.37483-0.0703-0.98392-0.28113-1.4056-0.52642v1.0542c0.42168-0.24667 1.0308-0.4575 1.4056-0.52778"/>
   <path style="stroke:#000;stroke-miterlimit:10;stroke-width:.14058;fill:none" d="m78.773 113.3c0 2.0092 1.6302 3.6394 2.3757 3.6394"/>
   <path d="m82.413 116.94c-0.37483-0.0703-0.98392-0.28112-1.4056-0.52779v1.0556c0.42168-0.24667 1.0308-0.45751 1.4056-0.52779"/>
  </g>
 </g>
</svg>
