<svg xmlns:rdf="http://www.w3.org/1999/02/22-rdf-syntax-ns#" xmlns="http://www.w3.org/2000/svg" height="300" width="300" version="1.1" xmlns:cc="http://creativecommons.org/ns#" xmlns:dc="http://purl.org/dc/elements/1.1/" viewBox="0 0 300 300">
 <title>CircuiTikZ</title>
 <g transform="translate(0 -752.36)">
  <g transform="matrix(14.999 0 0 14.999 -757.1 -921.85)">
   <path style="stroke:#000;stroke-miterlimit:10;stroke-width:.14058;fill:none" d="m50.476 121.62h0.07028m-0.07028 0h5.1001m9.8006 0h5.1001m-0.07028 0h0.07028"/>
   <path style="stroke:#000;stroke-miterlimit:10;stroke-width:.28116;fill:none" d="m55.576 116.72h9.8006v9.7992h-9.8006z"/>
   <path style="stroke:#000;stroke-miterlimit:10;stroke-width:.14058;fill:none" d="m55.576 126.52 9.8006-9.7992"/>
   <g transform="matrix(.093339 0 0 .093339 57.003 120.63)">
    <path d="m6.625-3.4062c0-1.9219-1.3438-3.5156-3.0625-3.5156h-2.6094v6.9219h2.625c1.7031-0.0001 3.0469-1.5157 3.0469-3.4063zm-0.85938 0c0 1.7031-1.0312 2.8438-2.4219 2.8438h-1.5312v-5.7969h1.5312c1.3906 0 2.4219 1.2031 2.4219 2.9531z"/>
   </g>
   <g transform="matrix(.093339 0 0 .093339 61.509 125.04)">
    <path d="m6.3594 0-2.5938-6.9219h-0.89062l-2.5938 6.9219h0.7344l0.7656-2.0312h2.9062l0.7501 2.0312zm-1.8906-2.5938h-2.4688c0.5-1.4219 0.14062-0.375 0.64062-1.7969 0.20312-0.59375 0.51562-1.4375 0.59375-1.8125 0.03125 0.14062 0.09375 0.39062 0.32812 1.0469z"/>
   </g>
  </g>
 </g>
</svg>
