<?xml version="1.0" encoding="UTF-8" standalone="no"?>
<!-- Created with Inkscape (http://www.inkscape.org/) -->

<svg
   xmlns:dc="http://purl.org/dc/elements/1.1/"
   xmlns:cc="http://creativecommons.org/ns#"
   xmlns:rdf="http://www.w3.org/1999/02/22-rdf-syntax-ns#"
   xmlns:svg="http://www.w3.org/2000/svg"
   xmlns="http://www.w3.org/2000/svg"
   xmlns:sodipodi="http://sodipodi.sourceforge.net/DTD/sodipodi-0.dtd"
   xmlns:inkscape="http://www.inkscape.org/namespaces/inkscape"
   width="210mm"
   height="297mm"
   viewBox="0 0 210 297"
   version="1.1"
   id="svg10414"
   inkscape:version="0.92.1 r15371"
   sodipodi:docname="dac.svg">
  <defs
     id="defs10408" />
  <sodipodi:namedview
     id="base"
     pagecolor="#ffffff"
     bordercolor="#666666"
     borderopacity="1.0"
     inkscape:pageopacity="0.0"
     inkscape:pageshadow="2"
     inkscape:zoom="0.35"
     inkscape:cx="-94.285714"
     inkscape:cy="560"
     inkscape:document-units="mm"
     inkscape:current-layer="layer1"
     showgrid="false"
     inkscape:window-width="1920"
     inkscape:window-height="986"
     inkscape:window-x="-11"
     inkscape:window-y="-11"
     inkscape:window-maximized="1" />
  <metadata
     id="metadata10411">
    <rdf:RDF>
      <cc:Work
         rdf:about="">
        <dc:format>image/svg+xml</dc:format>
        <dc:type
           rdf:resource="http://purl.org/dc/dcmitype/StillImage" />
        <dc:title></dc:title>
      </cc:Work>
    </rdf:RDF>
  </metadata>
  <g
     inkscape:label="Layer 1"
     inkscape:groupmode="layer"
     id="layer1">
    <path
       inkscape:connector-curvature="0"
       id="path962"
       d="m 50.475767,121.61974 h 0.07028 m -0.07028,0 h 5.10012 m 9.800607,0 h 5.100119 m -0.07028,0 h 0.07028"
       style="fill:none;stroke:#000000;stroke-width:0.14058194;stroke-linecap:butt;stroke-linejoin:miter;stroke-miterlimit:10;stroke-opacity:1" />
    <path
       inkscape:connector-curvature="0"
       id="path964"
       d="m 55.575887,116.71943 h 9.800607 v 9.79923 h -9.800607 z m 0,0"
       style="fill:none;stroke:#000000;stroke-width:0.28116387;stroke-linecap:butt;stroke-linejoin:miter;stroke-miterlimit:10;stroke-opacity:1" />
    <path
       inkscape:connector-curvature="0"
       id="path966"
       d="m 55.575887,126.51866 9.800607,-9.79923"
       style="fill:none;stroke:#000000;stroke-width:0.14058194;stroke-linecap:butt;stroke-linejoin:miter;stroke-miterlimit:10;stroke-opacity:1" />
    <g
       id="use968"
       style="fill:#000000;fill-opacity:1"
       transform="matrix(0.09333912,0,0,0.09333912,57.002695,120.63384)">
      <path
         inkscape:connector-curvature="0"
         id="path10977"
         d="m 6.625,-3.40625 c 0,-1.921875 -1.34375,-3.515625 -3.0625,-3.515625 H 0.953125 V 0 h 2.625 C 5.28125,0 6.625,-1.515625 6.625,-3.40625 Z m -0.859375,0 c 0,1.703125 -1.03125,2.84375 -2.421875,2.84375 H 1.8125 v -5.796875 h 1.53125 c 1.390625,0 2.421875,1.203125 2.421875,2.953125 z m 0,0"
         style="stroke:none" />
    </g>
    <g
       id="use972"
       style="fill:#000000;fill-opacity:1"
       transform="matrix(0.09333912,0,0,0.09333912,61.509429,125.04356)">
      <path
         inkscape:connector-curvature="0"
         id="path10981"
         d="M 6.359375,0 3.765625,-6.921875 H 2.875 L 0.28125,0 H 1.015625 L 1.78125,-2.03125 H 4.6875 L 5.4375,0 Z M 4.46875,-2.59375 H 2 c 0.5,-1.421875 0.140625,-0.375 0.640625,-1.796875 0.203125,-0.59375 0.515625,-1.4375 0.59375,-1.8125 0.03125,0.140625 0.09375,0.390625 0.328125,1.046875 z m 0,0"
         style="stroke:none" />
    </g>
  </g>
</svg>
