<svg xmlns:rdf="http://www.w3.org/1999/02/22-rdf-syntax-ns#" xmlns="http://www.w3.org/2000/svg" height="300" width="300" version="1.1" xmlns:cc="http://creativecommons.org/ns#" xmlns:dc="http://purl.org/dc/elements/1.1/" viewBox="0 0 300 300">
 <title>CircuiTikZ</title>
 <g transform="translate(0 -752.36)">
  <g transform="matrix(14.999 0 0 14.999 -643.72 -1681.5)">
   <path style="stroke:#000;stroke-miterlimit:10;stroke-width:.14058;fill:none" d="m42.916 172.27h0.07028m-0.07028 0h5.8002m8.4005 0h5.8002m-0.07028 0h0.07028"/>
   <path style="stroke:#000;stroke-miterlimit:10;stroke-width:.28116;fill:none" d="m57.117 172.27c0-2.3192-1.5985-4.2003-3.5705-4.2003m3.5705 4.2003c0 2.3192-1.5985 4.2003-3.5705 4.2003m-4.83-4.2003c0 2.3192 1.5985 4.2003 3.5705 4.2003m-3.5705-4.2003c0-2.3192 1.5985-4.2003 3.5705-4.2003"/>
   <path style="stroke:#000;stroke-miterlimit:10;stroke-width:.28116;fill:none" d="m49.977 172.27h5.4598"/>
   <path style="stroke:#000;stroke-miterlimit:10;stroke-width:.28116" d="m54.405 172.27v0.70004l1.4869-0.70004-1.4869-0.70004v0.70004"/>
  </g>
 </g>
</svg>
