<svg xmlns:rdf="http://www.w3.org/1999/02/22-rdf-syntax-ns#" xmlns="http://www.w3.org/2000/svg" height="300" width="300" version="1.1" xmlns:cc="http://creativecommons.org/ns#" xmlns:dc="http://purl.org/dc/elements/1.1/" viewBox="0 0 300 300">
 <title>CircuiTikZ</title>
 <g transform="translate(0 -752.36)">
  <g transform="matrix(14.999 0 0 14.999 -961.2 -899.17)">
   <path style="stroke:#000;stroke-miterlimit:10;stroke-width:.14058;fill:none" d="m64.083 120.11h0.07028m-0.07028 0h5.1001m9.8006 0h5.1001m-0.07028 0h0.07028"/>
   <path style="stroke:#000;stroke-miterlimit:10;stroke-width:.28116;fill:none" d="m69.183 115.21h9.8006v9.7992h-9.8006z"/>
   <g transform="matrix(.093339 0 0 .093339 70.715 121.33)">
    <path d="m6.625-3.4062c0-1.9219-1.3438-3.5156-3.0625-3.5156h-2.6094v6.9219h2.625c1.7031-0.0001 3.0469-1.5157 3.0469-3.4063zm-0.85938 0c0 1.7031-1.0312 2.8438-2.4219 2.8438h-1.5312v-5.7969h1.5312c1.3906 0 2.4219 1.2031 2.4219 2.9531z"/>
   </g>
   <g transform="matrix(.093339 0 0 .093339 73.252 121.33)">
    <path d="m4.9688-1.8906c0-0.6406-0.2969-1.125-0.5157-1.3594-0.4687-0.5-0.7969-0.5938-1.7187-0.8125-0.5782-0.1406-0.7344-0.1875-1.0469-0.4375-0.0625-0.0625-0.3437-0.3594-0.3437-0.7969 0-0.57812 0.54688-1.1875 1.4531-1.1875 0.84375 0 1.3125 0.32812 1.6875 0.64062l0.15625-0.79688c-0.54688-0.32812-1.1094-0.5-1.8281-0.5-1.3906 0-2.25 0.98438-2.25 1.9688 0 0.42188 0.14062 0.84375 0.53125 1.2656 0.42188 0.45312 0.85938 0.5625 1.4531 0.70312 0.84375 0.21875 0.9375 0.25 1.2188 0.48438 0.20312 0.17188 0.42188 0.5 0.42188 0.9375 0 0.65625-0.54688 1.3125-1.4531 1.3125-0.40625 0-1.3125-0.09375-2.1406-0.8125l-0.15625 0.8125c0.875 0.54688 1.6719 0.6875 2.2969 0.6875 1.3281 0 2.2344-1 2.2344-2.1094z"/>
   </g>
   <g transform="matrix(.093339 0 0 .093339 75.206 121.33)">
    <path d="m5.7969-4.9062c0-1.0625-0.98438-2.0156-2.3594-2.0156h-2.4844v6.9219h0.89062v-2.875h1.6719c1.2344 0 2.2812-0.90625 2.2812-2.0312zm-0.7969 0c0 0.79688-0.64062 1.4531-1.7812 1.4531h-1.4062v-2.9062h1.4062c1.0937-0.0001 1.7812 0.6093 1.7812 1.4531z"/>
   </g>
  </g>
 </g>
</svg>
