<svg xmlns:rdf="http://www.w3.org/1999/02/22-rdf-syntax-ns#" xmlns="http://www.w3.org/2000/svg" height="300" width="300" version="1.1" xmlns:cc="http://creativecommons.org/ns#" xmlns:dc="http://purl.org/dc/elements/1.1/" viewBox="0 0 300 300">
 <title>CircuiTikZ</title>
 <g transform="translate(0 -752.36)">
  <g transform="matrix(14.999 0 0 14.999 -1811.6 -1182.6)">
   <path style="stroke:#000;stroke-miterlimit:10;stroke-width:.14058;fill:none" d="m120.78 139.01h0.0703m-0.0703 0h8.6003m2.8002 0h8.6003m-0.0703 0h0.0703"/>
   <path style="stroke:#000;stroke-linecap:square;stroke-miterlimit:10;stroke-width:.28116;fill:#fff" d="m129.38 135.51h0.84061v6.9991h-0.84061v-6.9991"/>
   <path style="stroke:#000;stroke-linecap:square;stroke-miterlimit:10;stroke-width:.28116" d="m132.18 135.51h-0.83923v6.9991h0.83923v-6.9991"/>
   <g transform="matrix(.093339 0 0 .093339 126.85 137.43)">
    <path d="m3.4219-1.2656h2.1562c0.0625 0 0.29688 0 0.29688-0.23438s-0.21875-0.23438-0.29688-0.23438h-2.1562v-2.1562c0-0.046875 0-0.29688-0.21875-0.29688-0.25 0-0.25 0.23438-0.25 0.29688v2.1562h-2.1406c-0.078125 0-0.3125 0-0.3125 0.23438s0.23438 0.23438 0.3125 0.23438h2.1406v2.1562c0 0.0625 0 0.29688 0.23438 0.29688s0.23438-0.23438 0.23438-0.29688z"/>
   </g>
  </g>
 </g>
</svg>
