<?xml version="1.0" encoding="UTF-8" standalone="no"?>
<!-- Created with Inkscape (http://www.inkscape.org/) -->

<svg
   xmlns:dc="http://purl.org/dc/elements/1.1/"
   xmlns:cc="http://creativecommons.org/ns#"
   xmlns:rdf="http://www.w3.org/1999/02/22-rdf-syntax-ns#"
   xmlns:svg="http://www.w3.org/2000/svg"
   xmlns="http://www.w3.org/2000/svg"
   xmlns:sodipodi="http://sodipodi.sourceforge.net/DTD/sodipodi-0.dtd"
   xmlns:inkscape="http://www.inkscape.org/namespaces/inkscape"
   width="210mm"
   height="297mm"
   viewBox="0 0 210 297"
   version="1.1"
   id="svg12043"
   inkscape:version="0.92.1 r15371"
   sodipodi:docname="electrolytic_capacitor.svg">
  <defs
     id="defs12037" />
  <sodipodi:namedview
     id="base"
     pagecolor="#ffffff"
     bordercolor="#666666"
     borderopacity="1.0"
     inkscape:pageopacity="0.0"
     inkscape:pageshadow="2"
     inkscape:zoom="0.35"
     inkscape:cx="-94.285714"
     inkscape:cy="560"
     inkscape:document-units="mm"
     inkscape:current-layer="layer1"
     showgrid="false"
     inkscape:window-width="1920"
     inkscape:window-height="986"
     inkscape:window-x="-11"
     inkscape:window-y="-11"
     inkscape:window-maximized="1" />
  <metadata
     id="metadata12040">
    <rdf:RDF>
      <cc:Work
         rdf:about="">
        <dc:format>image/svg+xml</dc:format>
        <dc:type
           rdf:resource="http://purl.org/dc/dcmitype/StillImage" />
        <dc:title></dc:title>
      </cc:Work>
    </rdf:RDF>
  </metadata>
  <g
     inkscape:label="Layer 1"
     inkscape:groupmode="layer"
     id="layer1">
    <path
       inkscape:connector-curvature="0"
       id="path2059"
       d="m 120.77934,139.00664 h 0.0703 m -0.0703,0 h 8.60033 m 2.80018,0 h 8.60033 m -0.0703,0 h 0.0703"
       style="fill:none;stroke:#000000;stroke-width:0.14058194;stroke-linecap:butt;stroke-linejoin:miter;stroke-miterlimit:10;stroke-opacity:1" />
    <path
       inkscape:connector-curvature="0"
       id="path2061"
       d="m 129.37967,135.50642 h 0.84061 v 6.99906 h -0.84061 v -6.99906"
       style="fill:#ffffff;fill-opacity:1;fill-rule:nonzero;stroke:#000000;stroke-width:0.28116387;stroke-linecap:square;stroke-linejoin:miter;stroke-miterlimit:10;stroke-opacity:1" />
    <path
       inkscape:connector-curvature="0"
       id="path2063"
       d="m 132.17985,135.50642 h -0.83923 v 6.99906 h 0.83923 v -6.99906"
       style="fill:#000000;fill-opacity:1;fill-rule:nonzero;stroke:#000000;stroke-width:0.28116387;stroke-linecap:square;stroke-linejoin:miter;stroke-miterlimit:10;stroke-opacity:1" />
    <g
       id="use2065"
       style="fill:#000000;fill-opacity:1"
       transform="matrix(0.09333912,0,0,0.09333912,126.84659,137.43342)">
      <path
         inkscape:connector-curvature="0"
         id="path12602"
         d="m 3.421875,-1.265625 h 2.15625 c 0.0625,0 0.296875,0 0.296875,-0.234375 0,-0.234375 -0.21875,-0.234375 -0.296875,-0.234375 h -2.15625 v -2.15625 c 0,-0.046875 0,-0.296875 -0.21875,-0.296875 -0.25,0 -0.25,0.234375 -0.25,0.296875 v 2.15625 H 0.8125 c -0.078125,0 -0.3125,0 -0.3125,0.234375 0,0.234375 0.234375,0.234375 0.3125,0.234375 h 2.140625 v 2.15625 c 0,0.0625 0,0.296875 0.234375,0.296875 0.234375,0 0.234375,-0.234375 0.234375,-0.296875 z m 0,0"
         style="stroke:none" />
    </g>
  </g>
</svg>
