<?xml version="1.0" encoding="UTF-8" standalone="no"?>
<!-- Created with Inkscape (http://www.inkscape.org/) -->

<svg
   xmlns:dc="http://purl.org/dc/elements/1.1/"
   xmlns:cc="http://creativecommons.org/ns#"
   xmlns:rdf="http://www.w3.org/1999/02/22-rdf-syntax-ns#"
   xmlns:svg="http://www.w3.org/2000/svg"
   xmlns="http://www.w3.org/2000/svg"
   xmlns:sodipodi="http://sodipodi.sourceforge.net/DTD/sodipodi-0.dtd"
   xmlns:inkscape="http://www.inkscape.org/namespaces/inkscape"
   width="210mm"
   height="297mm"
   viewBox="0 0 210 297"
   version="1.1"
   id="svg9932"
   inkscape:version="0.92.1 r15371"
   sodipodi:docname="european_and.svg">
  <defs
     id="defs9926" />
  <sodipodi:namedview
     id="base"
     pagecolor="#ffffff"
     bordercolor="#666666"
     borderopacity="1.0"
     inkscape:pageopacity="0.0"
     inkscape:pageshadow="2"
     inkscape:zoom="0.35"
     inkscape:cx="-94.285714"
     inkscape:cy="560"
     inkscape:document-units="mm"
     inkscape:current-layer="layer1"
     showgrid="false"
     inkscape:window-width="1920"
     inkscape:window-height="986"
     inkscape:window-x="-11"
     inkscape:window-y="-11"
     inkscape:window-maximized="1" />
  <metadata
     id="metadata9929">
    <rdf:RDF>
      <cc:Work
         rdf:about="">
        <dc:format>image/svg+xml</dc:format>
        <dc:type
           rdf:resource="http://purl.org/dc/dcmitype/StillImage" />
        <dc:title></dc:title>
      </cc:Work>
    </rdf:RDF>
  </metadata>
  <g
     inkscape:label="Layer 1"
     inkscape:groupmode="layer"
     id="layer1">
    <path
       inkscape:connector-curvature="0"
       id="path934"
       d="m 70.330344,129.47249 h 3.920522 m -3.920522,5.45978 h 3.920522 m 15.680694,-2.72989 h -3.920518"
       style="fill:none;stroke:#000000;stroke-width:0.14058194;stroke-linecap:butt;stroke-linejoin:miter;stroke-miterlimit:10;stroke-opacity:1" />
    <g
       id="use936"
       style="fill:#000000;fill-opacity:1"
       transform="matrix(0.09333912,0,0,0.09333912,78.763898,133.42212)">
      <path
         inkscape:connector-curvature="0"
         id="path10489"
         d="m 7.25,-3.984375 v -0.3125 l -0.96875,0.03125 c -0.109375,0 -0.953125,-0.015625 -1.21875,-0.03125 v 0.3125 c 0.453125,0 0.703125,0.1875 0.703125,0.4375 0,0.09375 -0.046875,0.171875 -0.046875,0.203125 -0.5625,0.96875 -1,1.640625 -1.4375,2.171875 C 4.15625,-1.328125 3.078125,-2.6875 2.625,-3.84375 3.171875,-4.4375 3.84375,-5.1875 3.84375,-5.859375 c 0,-0.453125 -0.15625,-1.28125 -0.859375,-1.28125 -0.625,0 -1.359375,0.546875 -1.359375,1.609375 0,0.421875 0.0625,1.140625 0.40625,2.015625 L 1.125,-2.546875 c -0.453125,0.46875 -0.703125,0.734375 -0.703125,1.265625 0,0.875 0.8125,1.5 1.796875,1.5 0.859375,0 1.4375,-0.421875 1.8125,-0.75 0.6875,0.59375 1.265625,0.75 1.75,0.75 0.765625,0 1.390625,-0.5625 1.40625,-1.421875 h -0.25 c -0.03125,0.78125 -0.671875,1.109375 -1.109375,1.109375 -0.546875,0 -1.0625,-0.5 -1.375,-0.890625 C 4.90625,-1.5 5.296875,-2.1875 5.765625,-2.96875 6.15625,-3.625 6.359375,-3.984375 7.25,-3.984375 Z m -3.65625,-1.875 c 0,0.65625 -0.796875,1.515625 -1.046875,1.78125 C 2.28125,-4.875 2.25,-5.453125 2.25,-5.765625 c 0,-0.828125 0.40625,-1.15625 0.75,-1.15625 0.59375,0 0.59375,1.0625 0.59375,1.0625 z m 0.25,5.125 C 3.203125,-0.15625 2.578125,-0.09375 2.296875,-0.09375 1.46875,-0.09375 1.25,-1.0625 1.25,-1.59375 c 0,-0.8125 0.328125,-1.171875 0.875,-1.6875 0.21875,0.46875 0.375,0.765625 0.796875,1.390625 0.1875,0.28125 0.546875,0.796875 0.921875,1.15625 z m 0,0"
         style="stroke:none" />
    </g>
    <path
       inkscape:connector-curvature="0"
       id="path940"
       d="m 74.250866,127.6521 h 11.760176 v 9.10056 H 74.250866 Z m 0,0"
       style="fill:none;stroke:#000000;stroke-width:0.28116387;stroke-linecap:butt;stroke-linejoin:miter;stroke-miterlimit:10;stroke-opacity:1" />
  </g>
</svg>
