<svg xmlns:rdf="http://www.w3.org/1999/02/22-rdf-syntax-ns#" xmlns="http://www.w3.org/2000/svg" height="300" width="300" version="1.1" xmlns:cc="http://creativecommons.org/ns#" xmlns:dc="http://purl.org/dc/elements/1.1/" viewBox="0 0 300 300">
 <title>CircuiTikZ</title>
 <g transform="translate(0 -752.36)">
  <g transform="matrix(15.305 0 0 15.305 -868.16 -1097.9)">
   <path style="stroke:#000;stroke-miterlimit:10;stroke-width:.14058;fill:none" d="m56.723 130.69h3.9205m-3.9205 0h3.9205m15.681 0h-3.9205m1.9596 0-1.9596-1.3656"/>
   <g transform="matrix(.093339 0 0 .093339 65.645 131.82)">
    <path d="m2.9375-6.375c0-0.25 0-0.26562-0.23438-0.26562-0.625 0.6406-1.5 0.6406-1.8125 0.6406v0.3125c0.20312 0 0.78125 0 1.2969-0.26562v5.1719c0 0.35938-0.03125 0.46875-0.92188 0.46875h-0.3125v0.3125c0.34375-0.03125 1.2031-0.03125 1.6094-0.03125 0.39062 0 1.2656 0 1.6094 0.03125v-0.3125h-0.3125c-0.90625 0-0.92188-0.10938-0.92188-0.46875z"/>
   </g>
   <path style="stroke:#000;stroke-miterlimit:10;stroke-width:.28116;fill:none" d="m60.644 126.14h11.76v9.1006h-11.76z"/>
  </g>
 </g>
</svg>
