<svg xmlns:rdf="http://www.w3.org/1999/02/22-rdf-syntax-ns#" xmlns="http://www.w3.org/2000/svg" height="300" width="300" version="1.1" xmlns:cc="http://creativecommons.org/ns#" xmlns:dc="http://purl.org/dc/elements/1.1/" viewBox="0 0 300 300">
 <title>CircuiTikZ</title>
 <g transform="translate(0 -752.36)">
  <g transform="matrix(15.305 0 0 15.305 -1400.4 -646.65)">
   <path style="stroke:#000;stroke-miterlimit:10;stroke-width:.14058;fill:none" d="m91.497 98.478h3.9205m-3.9205 5.4598h3.9205m15.681-2.7299h-3.9205m1.9596 0-1.9596-1.3643"/>
   <g transform="matrix(.093339 0 0 .093339 99.931 102.43)">
    <path d="m7.25-3.9844v-0.3125l-0.96875 0.03125c-0.10938 0-0.95312-0.015625-1.2188-0.03125v0.3125c0.45312 0 0.70312 0.1875 0.70312 0.4375 0 0.09375-0.046875 0.17188-0.046875 0.20312-0.5625 0.96875-1 1.6406-1.4375 2.1719-0.1249-0.1563-1.203-1.5157-1.6561-2.672 0.5469-0.5937 1.2188-1.3437 1.2188-2.0156 0-0.45312-0.15625-1.2812-0.85938-1.2812-0.625 0-1.3594 0.54688-1.3594 1.6094 0 0.42188 0.0625 1.1406 0.40625 2.0156l-0.9062 0.9687c-0.45312 0.46875-0.70312 0.73438-0.70312 1.2656 0 0.875 0.8125 1.5 1.7969 1.5 0.85938 0 1.4375-0.42188 1.8125-0.75 0.6875 0.59375 1.2656 0.75 1.75 0.75 0.76562 0 1.3906-0.5625 1.4062-1.4219h-0.25c-0.03125 0.78125-0.67188 1.1094-1.1094 1.1094-0.54688 0-1.0625-0.5-1.375-0.89062 0.4531-0.51558 0.8438-1.2031 1.3125-1.9844 0.3906-0.6562 0.5938-1.0156 1.4844-1.0156zm-3.6562-1.875c0 0.65625-0.79688 1.5156-1.0469 1.7812-0.2657-0.7968-0.2969-1.3749-0.2969-1.6874 0-0.82812 0.40625-1.1562 0.75-1.1562 0.59375 0 0.59375 1.0625 0.59375 1.0625zm0.25 5.125c-0.6407 0.57815-1.2657 0.64065-1.5469 0.64065-0.8281 0-1.0469-0.96875-1.0469-1.5 0-0.8125 0.32812-1.1719 0.875-1.6875 0.21875 0.46875 0.375 0.76562 0.79688 1.3906 0.1875 0.28125 0.54688 0.79688 0.92188 1.1562z"/>
   </g>
   <path style="stroke:#000;stroke-miterlimit:10;stroke-width:.28116;fill:none" d="m95.418 96.658h11.76v9.1006h-11.76z"/>
  </g>
 </g>
</svg>
