<svg xmlns:rdf="http://www.w3.org/1999/02/22-rdf-syntax-ns#" xmlns="http://www.w3.org/2000/svg" height="300" width="300" version="1.1" xmlns:cc="http://creativecommons.org/ns#" xmlns:dc="http://purl.org/dc/elements/1.1/" viewBox="0 0 300 300">
 <title>CircuiTikZ</title>
 <g transform="translate(0 -752.36)">
  <g transform="matrix(14.578 0 0 14.578 -841.84 -1256.4)">
   <g transform="matrix(.093339 0 0 .093339 62.557 144.06)">
    <path d="m7.5-2.1875c0.14062 0 0.4375 0 0.4375-0.3125 0-0.29688-0.28125-0.29688-0.4375-0.29688h-6.0938c-0.15625 0-0.45312 0-0.45312 0.29688 0 0.3125 0.29688 0.3125 0.45312 0.3125z"/>
   </g>
   <g transform="matrix(.093339 0 0 .093339 62.557 153.86)">
    <path d="m4.75-2.1875h3.0781c0.14062 0 0.4375 0 0.4375-0.3125 0-0.29688-0.29688-0.29688-0.4375-0.29688h-3.0781v-3.0938c0-0.125 0-0.42188-0.29688-0.42188-0.3125 0-0.3125 0.29688-0.3125 0.42188v3.0938h-3.0781c-0.14062 0-0.42188 0-0.42188 0.29688 0 0.3125 0.29688 0.3125 0.42188 0.3125h3.0781v3.0781c0 0.125 0 0.42188 0.3125 0.42188 0.2969 0 0.2969-0.2813 0.2969-0.42188z"/>
   </g>
   <g transform="matrix(.093339 0 0 .093339 67.317 151.9)">
    <path d="m7.5-2.1875c0.14062 0 0.4375 0 0.4375-0.3125 0-0.29688-0.28125-0.29688-0.4375-0.29688h-6.0938c-0.15625 0-0.45312 0-0.45312 0.29688 0 0.3125 0.29688 0.3125 0.45312 0.3125z"/>
   </g>
   <g transform="matrix(.093339 0 0 .093339 67.317 146.02)">
    <path d="m4.75-2.1875h3.0781c0.14062 0 0.4375 0 0.4375-0.3125 0-0.29688-0.29688-0.29688-0.4375-0.29688h-3.0781v-3.0938c0-0.125 0-0.42188-0.29688-0.42188-0.3125 0-0.3125 0.29688-0.3125 0.42188v3.0938h-3.0781c-0.14062 0-0.42188 0-0.42188 0.29688 0 0.3125 0.29688 0.3125 0.42188 0.3125h3.0781v3.0781c0 0.125 0 0.42188 0.3125 0.42188 0.2969 0 0.2969-0.2813 0.2969-0.42188z"/>
   </g>
   <path style="stroke:#000;stroke-linecap:square;stroke-miterlimit:10;stroke-width:.14058;fill:none" d="m57.817 143.18h3.5705m-3.5705 9.8006h3.5705m16.66 0h-8.0836m8.0836-9.8006h-8.0836"/>
   <path style="stroke:#000;stroke-linecap:square;stroke-miterlimit:10;stroke-width:.28116;fill:none" d="m78.048 148.08-16.66-9.7992v19.6z"/>
  </g>
 </g>
</svg>
