<svg xmlns:rdf="http://www.w3.org/1999/02/22-rdf-syntax-ns#" xmlns="http://www.w3.org/2000/svg" height="300" width="300" version="1.1" xmlns:cc="http://creativecommons.org/ns#" xmlns:dc="http://purl.org/dc/elements/1.1/" viewBox="0 0 300 300">
 <title>CircuiTikZ</title>
 <g transform="translate(0 -752.36)">
  <g transform="matrix(14.999 0 0 14.999 -915.85 -933.19)">
   <path style="stroke:#000;stroke-miterlimit:10;stroke-width:.14058;fill:none" d="m61.059 122.38h0.07028m-0.07028 0h5.1001m9.8006 0h5.1001m-0.07028 0h0.07028"/>
   <path style="stroke:#000;stroke-miterlimit:10;stroke-width:.28116;fill:none" d="m66.159 117.47h9.8006v9.8006h-9.8006z"/>
   <g transform="matrix(.093339 0 0 .093339 67.863 123.59)">
    <path d="m5.25-6.2344v-0.65625h-4.3125v6.8906h0.89062v-3.1406h3v-0.60938h-3v-2.5h1.2969c0.125 0 0.25 0.015625 0.35938 0.015625z"/>
   </g>
   <g transform="matrix(.093339 0 0 .093339 69.863 123.59)">
    <path d="m5.25-6.2344v-0.65625h-4.3125v6.8906h0.89062v-3.1406h3v-0.60938h-3v-2.5h1.2969c0.125 0 0.25 0.015625 0.35938 0.015625z"/>
   </g>
   <g transform="matrix(.093339 0 0 .093339 71.863 123.59)">
    <path d="m6.4219-6.2031v-0.65625h-6.0625v0.65625h1.3281c0.125 0 0.25-0.015625 0.35938-0.015625h0.90625v6.2188h0.89062v-6.2188h0.875c0.125 0 0.25 0.015625 0.35938 0.015625z"/>
   </g>
  </g>
 </g>
</svg>
