<svg xmlns:rdf="http://www.w3.org/1999/02/22-rdf-syntax-ns#" xmlns="http://www.w3.org/2000/svg" height="300" width="300" version="1.1" xmlns:cc="http://creativecommons.org/ns#" xmlns:dc="http://purl.org/dc/elements/1.1/" viewBox="0 0 300 300">
 <title>CircuiTikZ</title>
 <g transform="translate(0 -752.36)">
  <g transform="matrix(14.999 0 0 14.999 -1051.9 -831.14)">
   <path style="stroke:#000;stroke-miterlimit:10;stroke-width:.14058;fill:none" d="m70.131 117.19h0.07028m-0.07028 0h7.2002m5.6003 0h7.2003m-0.07028 0h0.07028"/>
   <path style="stroke:#000;stroke-miterlimit:10;stroke-width:.28116" d="m82.931 117.19-5.6003-3.5002v7.0004l5.6003-3.5002"/>
   <path style="stroke:#000;stroke-miterlimit:10;stroke-width:.28116;fill:none" d="m82.931 120.69v-7.0004"/>
   <path style="stroke:#000;stroke-miterlimit:10;stroke-width:.14058;fill:none" d="m79.011 113.69 2.271-2.8374"/>
   <path d="m81.811 110.19c-0.27561 0.23151-0.78273 0.64079-1.2954 0.77308 0.52365-0.0331 0.74414 0.14332 0.82682 0.66146 0.01655-0.52917 0.30317-1.1148 0.46853-1.4345z"/>
   <path style="stroke:#000;stroke-miterlimit:10;stroke-width:.14058;fill:none" d="m80.692 114.39 2.2696-2.8374"/>
   <path d="m83.491 110.89c-0.27561 0.23152-0.78273 0.64079-1.2954 0.77308 0.52365-0.0331 0.74414 0.14332 0.82682 0.66146 0.01654-0.52917 0.30317-1.1148 0.46853-1.4345z"/>
  </g>
 </g>
</svg>
