<svg xmlns:rdf="http://www.w3.org/1999/02/22-rdf-syntax-ns#" xmlns="http://www.w3.org/2000/svg" height="300" width="300" version="1.1" xmlns:cc="http://creativecommons.org/ns#" xmlns:dc="http://purl.org/dc/elements/1.1/" viewBox="0 0 300 300">
 <title>CircuiTikZ</title>
 <g transform="translate(0 -752.36)">
  <g transform="matrix(26.128 0 0 26.128 -1805.4 -2709.9)">
   <path style="stroke:#000;stroke-miterlimit:10;stroke-width:.28116" d="m72.739 143.85h4.2003v-11.201h-4.2003z"/>
   <path style="stroke:#000;stroke-miterlimit:10;stroke-width:.28116;fill:#fff" d="m79.04 138.25c0-2.3206-1.881-4.2003-4.2003-4.2003-2.3192 0-4.2003 1.8796-4.2003 4.2003 0 2.3192 1.881 4.2003 4.2003 4.2003 2.3192 0 4.2003-1.881 4.2003-4.2003z"/>
   <g transform="matrix(.093339 0 0 .093339 73.46 139.49)">
    <path d="m7.3281-2.4062v-0.3125l-1.2188 0.03125c-0.39062 0-1.25 0-1.6094-0.03125v0.3125h0.32812c0.8908-0.0001 0.922 0.1092 0.922 0.4686v0.64062c0 1.125-1.2656 1.2031-1.5469 1.2031-0.64062 0-2.625-0.34375-2.625-3.3125 0-2.9844 1.9688-3.3125 2.5625-3.3125 1.0781 0 1.9844 0.89062 2.1719 2.3594 0.03125 0.14062 0.03125 0.17188 0.17188 0.17188 0.15625 0 0.15625-0.03125 0.15625-0.23438v-2.3594c0-0.17188 0-0.25-0.10938-0.25-0.046875 0-0.078125 0-0.15625 0.125l-0.5 0.73438c-0.3281-0.3125-0.8594-0.8593-1.8438-0.8593-1.8594 0-3.4688 1.5781-3.4688 3.625s1.5938 3.625 3.4844 3.625c0.73438 0 1.5312-0.26562 1.8594-0.84375 0.14062 0.21875 0.53125 0.60938 0.64062 0.60938 0.09375 0 0.09375-0.078125 0.09375-0.21875v-1.7344c0-0.39062 0.03125-0.4375 0.6875-0.4375z"/>
   </g>
  </g>
 </g>
</svg>
