<?xml version="1.0" encoding="UTF-8" standalone="no"?>
<!-- Created with Inkscape (http://www.inkscape.org/) -->

<svg
   xmlns:dc="http://purl.org/dc/elements/1.1/"
   xmlns:cc="http://creativecommons.org/ns#"
   xmlns:rdf="http://www.w3.org/1999/02/22-rdf-syntax-ns#"
   xmlns:svg="http://www.w3.org/2000/svg"
   xmlns="http://www.w3.org/2000/svg"
   xmlns:sodipodi="http://sodipodi.sourceforge.net/DTD/sodipodi-0.dtd"
   xmlns:inkscape="http://www.inkscape.org/namespaces/inkscape"
   width="210mm"
   height="297mm"
   viewBox="0 0 210 297"
   version="1.1"
   id="svg8101"
   inkscape:version="0.92.1 r15371"
   sodipodi:docname="gm_amp.svg">
  <defs
     id="defs8095" />
  <sodipodi:namedview
     id="base"
     pagecolor="#ffffff"
     bordercolor="#666666"
     borderopacity="1.0"
     inkscape:pageopacity="0.0"
     inkscape:pageshadow="2"
     inkscape:zoom="0.35"
     inkscape:cx="-94.285714"
     inkscape:cy="560"
     inkscape:document-units="mm"
     inkscape:current-layer="layer1"
     showgrid="false"
     inkscape:window-width="1920"
     inkscape:window-height="986"
     inkscape:window-x="-11"
     inkscape:window-y="-11"
     inkscape:window-maximized="1" />
  <metadata
     id="metadata8098">
    <rdf:RDF>
      <cc:Work
         rdf:about="">
        <dc:format>image/svg+xml</dc:format>
        <dc:type
           rdf:resource="http://purl.org/dc/dcmitype/StillImage" />
        <dc:title></dc:title>
      </cc:Work>
    </rdf:RDF>
  </metadata>
  <g
     inkscape:label="Layer 1"
     inkscape:groupmode="layer"
     id="layer1">
    <g
       id="use770"
       style="fill:#000000;fill-opacity:1"
       transform="matrix(0.09333912,0,0,0.09333912,83.555303,115.32996)">
      <path
         inkscape:connector-curvature="0"
         id="path8662"
         d="m 7.5,-2.1875 c 0.140625,0 0.4375,0 0.4375,-0.3125 0,-0.296875 -0.28125,-0.296875 -0.4375,-0.296875 H 1.40625 c -0.15625,0 -0.453125,0 -0.453125,0.296875 0,0.3125 0.296875,0.3125 0.453125,0.3125 z m 0,0"
         style="stroke:none" />
    </g>
    <g
       id="use774"
       style="fill:#000000;fill-opacity:1"
       transform="matrix(0.09333912,0,0,0.09333912,83.555303,125.13012)">
      <path
         inkscape:connector-curvature="0"
         id="path8666"
         d="m 4.75,-2.1875 h 3.078125 c 0.140625,0 0.4375,0 0.4375,-0.3125 0,-0.296875 -0.296875,-0.296875 -0.4375,-0.296875 H 4.75 v -3.09375 c 0,-0.125 0,-0.421875 -0.296875,-0.421875 -0.3125,0 -0.3125,0.296875 -0.3125,0.421875 v 3.09375 H 1.0625 c -0.140625,0 -0.421875,0 -0.421875,0.296875 0,0.3125 0.296875,0.3125 0.421875,0.3125 h 3.078125 v 3.078125 c 0,0.125 0,0.421875 0.3125,0.421875 C 4.75,1.3125 4.75,1.03125 4.75,0.890625 Z m 0,0"
         style="stroke:none" />
    </g>
    <path
       inkscape:connector-curvature="0"
       id="path778"
       d="m 78.814237,114.45157 h 3.570496 m -3.570496,9.79924 h 3.570496 m 20.229597,-4.89893 h -8.328857"
       style="fill:none;stroke:#000000;stroke-width:0.14058194;stroke-linecap:square;stroke-linejoin:miter;stroke-miterlimit:10;stroke-opacity:1" />
    <path
       inkscape:connector-curvature="0"
       id="path780"
       d="m 94.285473,119.35188 v -4.90031 l -11.90074,-4.9003 v 19.59984 l 11.90074,-4.9003 z m 0,0"
       style="fill:none;stroke:#000000;stroke-width:0.28116387;stroke-linecap:square;stroke-linejoin:miter;stroke-miterlimit:10;stroke-opacity:1" />
  </g>
</svg>
