<svg xmlns:rdf="http://www.w3.org/1999/02/22-rdf-syntax-ns#" xmlns="http://www.w3.org/2000/svg" height="300" width="300" version="1.1" xmlns:cc="http://creativecommons.org/ns#" xmlns:dc="http://purl.org/dc/elements/1.1/" viewBox="0 0 300 300">
 <title>CircuiTikZ</title>
 <g transform="translate(0 -752.36)">
  <g transform="matrix(14.999 0 0 14.999 -893.17 -842.47)">
   <path style="stroke:#000;stroke-miterlimit:10;stroke-width:.14058;fill:none" d="m59.547 116.33h0.07028m-0.07028 0h5.1001m9.8006 0h5.1001m-0.07028 0h0.07028"/>
   <path style="stroke:#000;stroke-miterlimit:10;stroke-width:.28116;fill:none" d="m64.647 111.43h9.8006v9.7992h-9.8006z"/>
   <path style="stroke:#000;stroke-miterlimit:10;stroke-width:.14058;fill:none" d="m67.097 113.88c0.38999-0.61323 0.77859-1.2251 1.2251-1.2251 0.44786 0 0.83509 0.61185 1.2251 1.2251 0.38998 0.61185 0.77859 1.2251 1.2251 1.2251 0.44786 0 0.83509-0.61323 1.2251-1.2251"/>
   <path style="stroke:#000;stroke-miterlimit:10;stroke-width:.14058;fill:none" d="m67.097 116.33c0.38999-0.61323 0.77859-1.2251 1.2251-1.2251 0.44786 0 0.83509 0.61184 1.2251 1.2251 0.38998 0.61185 0.77859 1.2251 1.2251 1.2251 0.44786 0 0.83509-0.61323 1.2251-1.2251"/>
   <path style="stroke:#000;stroke-miterlimit:10;stroke-width:.14058;fill:none" d="m68.813 117.06 1.4704-1.4704"/>
   <path style="stroke:#000;stroke-miterlimit:10;stroke-width:.14058;fill:none" d="m67.097 118.78c0.38999-0.61323 0.77859-1.2251 1.2251-1.2251 0.44786 0 0.83509 0.61184 1.2251 1.2251 0.38998 0.61185 0.77859 1.2237 1.2251 1.2237 0.44786 0 0.83509-0.61185 1.2251-1.2237"/>
   <path style="stroke:#000;stroke-miterlimit:10;stroke-width:.14058;fill:none" d="m68.813 119.51 1.4704-1.4704"/>
  </g>
 </g>
</svg>
