<?xml version="1.0" encoding="UTF-8" standalone="no"?>
<!-- Created with Inkscape (http://www.inkscape.org/) -->

<svg
   xmlns:dc="http://purl.org/dc/elements/1.1/"
   xmlns:cc="http://creativecommons.org/ns#"
   xmlns:rdf="http://www.w3.org/1999/02/22-rdf-syntax-ns#"
   xmlns:svg="http://www.w3.org/2000/svg"
   xmlns="http://www.w3.org/2000/svg"
   xmlns:sodipodi="http://sodipodi.sourceforge.net/DTD/sodipodi-0.dtd"
   xmlns:inkscape="http://www.inkscape.org/namespaces/inkscape"
   width="210mm"
   height="297mm"
   viewBox="0 0 210 297"
   version="1.1"
   id="svg8334"
   inkscape:version="0.92.1 r15371"
   sodipodi:docname="inductor.svg">
  <defs
     id="defs8328" />
  <sodipodi:namedview
     id="base"
     pagecolor="#ffffff"
     bordercolor="#666666"
     borderopacity="1.0"
     inkscape:pageopacity="0.0"
     inkscape:pageshadow="2"
     inkscape:zoom="0.35"
     inkscape:cx="-131.42857"
     inkscape:cy="560"
     inkscape:document-units="mm"
     inkscape:current-layer="layer1"
     showgrid="false"
     inkscape:window-width="1920"
     inkscape:window-height="986"
     inkscape:window-x="-11"
     inkscape:window-y="-11"
     inkscape:window-maximized="1" />
  <metadata
     id="metadata8331">
    <rdf:RDF>
      <cc:Work
         rdf:about="">
        <dc:format>image/svg+xml</dc:format>
        <dc:type
           rdf:resource="http://purl.org/dc/dcmitype/StillImage" />
        <dc:title></dc:title>
      </cc:Work>
    </rdf:RDF>
  </metadata>
  <g
     inkscape:label="Layer 1"
     inkscape:groupmode="layer"
     id="layer1">
    <path
       inkscape:connector-curvature="0"
       id="path530"
       d="m 46.696006,131.91496 h 0.07028 m -0.07028,0 h 5.80016 m 8.400522,0 h 5.800164 m -0.07028,0 h 0.07028"
       style="fill:none;stroke:#000000;stroke-width:0.14058194;stroke-linecap:butt;stroke-linejoin:miter;stroke-miterlimit:10;stroke-opacity:1" />
    <path
       inkscape:connector-curvature="0"
       id="path532"
       d="m 52.355609,131.97146 c 0,-1.16031 0.577399,-2.10013 1.288465,-2.10013 0.711069,0 1.288464,0.93982 1.288464,2.10013 0,0.58015 -0.235641,1.05006 -0.525032,1.05006 -0.290767,0 -0.525032,-0.46991 -0.525032,-1.05006 0,-1.16031 0.576019,-2.10013 1.288468,-2.10013 0.711066,0 1.287085,0.93982 1.287085,2.10013 0,0.58015 -0.234266,1.05006 -0.525032,1.05006 -0.289388,0 -0.525032,-0.46991 -0.525032,-1.05006 0,-1.16031 0.577398,-2.10013 1.288465,-2.10013 0.711069,0 1.288468,0.93982 1.288468,2.10013 0,0.58015 -0.235646,1.05006 -0.525033,1.05006 -0.28939,0 -0.525032,-0.46991 -0.525032,-1.05006 0,-1.16031 0.576019,-2.10013 1.288465,-2.10013 0.711066,0 1.287088,0.93982 1.287088,2.10013 0,0.58015 -0.234269,1.05006 -0.523656,1.05006 -0.290767,0 -0.525032,-0.46991 -0.525032,-1.05006 0,-1.16031 0.576019,-2.10013 1.287088,-2.10013 0.712446,0 1.288465,0.93982 1.288465,2.10013"
       style="fill:none;stroke:#000000;stroke-width:0.28116387;stroke-linecap:butt;stroke-linejoin:bevel;stroke-miterlimit:10;stroke-opacity:1" />
  </g>
</svg>
