<svg xmlns:rdf="http://www.w3.org/1999/02/22-rdf-syntax-ns#" xmlns="http://www.w3.org/2000/svg" height="300" width="300" version="1.1" xmlns:cc="http://creativecommons.org/ns#" xmlns:dc="http://purl.org/dc/elements/1.1/" viewBox="0 0 300 300">
 <title>CircuiTikZ</title>
 <g transform="translate(0 -752.36)">
  <g transform="matrix(14.999 0 0 14.999 -700.41 -1069.3)">
   <path style="stroke:#000;stroke-miterlimit:10;stroke-width:.14058;fill:none" d="m46.696 131.91h0.07028m-0.07028 0h5.8002m8.4005 0h5.8002m-0.07028 0h0.07028"/>
   <path style="stroke-linejoin:bevel;stroke:#000;stroke-miterlimit:10;stroke-width:.28116;fill:none" d="m52.356 131.97c0-1.1603 0.5774-2.1001 1.2885-2.1001 0.71107 0 1.2885 0.93982 1.2885 2.1001 0 0.58015-0.23564 1.0501-0.52503 1.0501-0.29077 0-0.52503-0.46991-0.52503-1.0501 0-1.1603 0.57602-2.1001 1.2885-2.1001 0.71107 0 1.2871 0.93982 1.2871 2.1001 0 0.58015-0.23427 1.0501-0.52503 1.0501-0.28939 0-0.52503-0.46991-0.52503-1.0501 0-1.1603 0.5774-2.1001 1.2885-2.1001 0.71107 0 1.2885 0.93982 1.2885 2.1001 0 0.58015-0.23565 1.0501-0.52503 1.0501-0.28939 0-0.52503-0.46991-0.52503-1.0501 0-1.1603 0.57602-2.1001 1.2885-2.1001 0.71107 0 1.2871 0.93982 1.2871 2.1001 0 0.58015-0.23427 1.0501-0.52366 1.0501-0.29077 0-0.52503-0.46991-0.52503-1.0501 0-1.1603 0.57602-2.1001 1.2871-2.1001 0.71245 0 1.2885 0.93982 1.2885 2.1001"/>
  </g>
 </g>
</svg>
