<svg xmlns:rdf="http://www.w3.org/1999/02/22-rdf-syntax-ns#" xmlns="http://www.w3.org/2000/svg" height="300" width="300" version="1.1" xmlns:cc="http://creativecommons.org/ns#" xmlns:dc="http://purl.org/dc/elements/1.1/" viewBox="0 0 300 300">
 <title>CircuiTikZ</title>
 <g transform="translate(0 -752.36)">
  <g transform="matrix(19.303 0 0 19.303 -1440.6 -1810.1)">
   <path style="stroke:#000;stroke-miterlimit:10;stroke-width:.14058;fill:none" d="m87.926 132.75v5.0753h-4.2003"/>
   <path style="stroke:#000;stroke-miterlimit:10;stroke-width:.28116;fill:none" d="m83.726 136.67v7.7005"/>
   <path style="stroke:#000;stroke-miterlimit:10;stroke-width:.14058;fill:none" d="m83.726 140.52h4.2705m-4.2705 2.6954h4.2003m0-2.6954v7.7708"/>
   <path style="stroke:#000;stroke-miterlimit:10;stroke-width:.14058" d="m86.017 140.52v-0.70005l-1.4869 0.70005 1.4869 0.70004v-0.70004"/>
   <path style="stroke:#000;stroke-miterlimit:10;stroke-width:.14058;fill:none" d="m81.765 138.82c-0.39136 0.23013-0.78135 0.46164-1.232 0.46164-0.44924 0-0.83923-0.23151-1.232-0.46164-0.39136-0.23151-0.78135-0.46165-1.232-0.46165-0.44924 0-0.83923 0.23014-1.232 0.46165"/>
   <path style="stroke:#000;stroke-miterlimit:10;stroke-width:.14058;fill:none" d="m81.765 140.52c-0.39136 0.23151-0.78135 0.46164-1.232 0.46164-0.44924 0-0.83923-0.23013-1.232-0.46164-0.39136-0.23151-0.78135-0.46165-1.232-0.46165-0.44924 0-0.83923 0.23014-1.232 0.46165"/>
   <path style="stroke:#000;stroke-miterlimit:10;stroke-width:.14058;fill:none" d="m81.765 142.21c-0.39136 0.23151-0.78135 0.46302-1.232 0.46302-0.44924 0-0.83923-0.23151-1.232-0.46302-0.39136-0.23014-0.78135-0.46165-1.232-0.46165-0.44924 0-0.83923 0.23151-1.232 0.46165"/>
  </g>
 </g>
</svg>
