<svg xmlns:rdf="http://www.w3.org/1999/02/22-rdf-syntax-ns#" xmlns="http://www.w3.org/2000/svg" height="300" width="300" version="1.1" xmlns:cc="http://creativecommons.org/ns#" xmlns:dc="http://purl.org/dc/elements/1.1/" viewBox="0 0 300 300">
 <title>CircuiTikZ</title>
 <g transform="translate(0 -752.36)">
  <g transform="matrix(14.999 0 0 14.999 -1256 -1477.4)">
   <path style="stroke:#000;stroke-miterlimit:10;stroke-width:.14058;fill:none" d="m83.738 160.28h0.07028m-0.07028 0h7.2002m5.6003 0h7.2003m-0.0703 0h0.0703"/>
   <path style="stroke:#000;stroke-miterlimit:10;stroke-width:.28116;fill:none" d="m96.538 160.28-5.6003-3.5002v7.0004l5.6003-3.5002"/>
   <path style="stroke:#000;stroke-miterlimit:10;stroke-width:.28116;fill:none" d="m96.538 163.78v-7.0004"/>
   <path style="stroke:#000;stroke-miterlimit:10;stroke-width:.14058;fill:none" d="m92.618 156.78 2.271-2.8374"/>
   <path d="m95.418 153.28c-0.27561 0.23289-0.78273 0.64079-1.2954 0.77308 0.52365-0.0331 0.74414 0.14331 0.82682 0.66146 0.01654-0.52917 0.30317-1.1135 0.46853-1.4345z"/>
   <path style="stroke:#000;stroke-miterlimit:10;stroke-width:.14058;fill:none" d="m94.299 157.48 2.2696-2.8374"/>
   <path d="m97.098 153.98c-0.27561 0.23289-0.78273 0.64079-1.2954 0.77308 0.52365-0.0331 0.74414 0.14332 0.82682 0.66146 0.01654-0.52917 0.30317-1.1135 0.46853-1.4345z"/>
  </g>
 </g>
</svg>
