<svg xmlns:rdf="http://www.w3.org/1999/02/22-rdf-syntax-ns#" xmlns="http://www.w3.org/2000/svg" height="300" width="300" version="1.1" xmlns:cc="http://creativecommons.org/ns#" xmlns:dc="http://purl.org/dc/elements/1.1/" viewBox="0 0 300 300">
 <title>CircuiTikZ</title>
 <g transform="translate(0 -752.36)">
  <g transform="matrix(14.999 0 0 14.999 -836.48 -1239.3)">
   <path style="stroke:#000;stroke-miterlimit:10;stroke-width:.14058;fill:none" d="m55.767 142.79h0.07028m-0.07028 0h5.1001m9.8006 0h5.1001m-0.07028 0h0.07028"/>
   <path style="stroke:#000;stroke-miterlimit:10;stroke-width:.28116;fill:none" d="m60.868 137.89h9.8006v9.7992h-9.8006z"/>
   <path style="stroke:#000;stroke-miterlimit:10;stroke-width:.14058;fill:none" d="m63.318 140.33c0.38998-0.61184 0.77859-1.2251 1.2251-1.2251 0.44786 0 0.83509 0.61323 1.2251 1.2251 0.38998 0.61323 0.77859 1.2251 1.2251 1.2251 0.44786 0 0.83509-0.61185 1.2251-1.2251"/>
   <path style="stroke:#000;stroke-miterlimit:10;stroke-width:.14058;fill:none" d="m65.033 141.07 1.4704-1.4704"/>
   <path style="stroke:#000;stroke-miterlimit:10;stroke-width:.14058;fill:none" d="m63.318 142.79c0.38998-0.61184 0.77859-1.2251 1.2251-1.2251 0.44786 0 0.83509 0.61323 1.2251 1.2251 0.38998 0.61323 0.77859 1.2251 1.2251 1.2251 0.44786 0 0.83509-0.61185 1.2251-1.2251"/>
   <path style="stroke:#000;stroke-miterlimit:10;stroke-width:.14058;fill:none" d="m65.033 143.52 1.4704-1.4704"/>
   <path style="stroke:#000;stroke-miterlimit:10;stroke-width:.14058;fill:none" d="m63.318 145.24c0.38998-0.61185 0.77859-1.2251 1.2251-1.2251 0.44786 0 0.83509 0.61323 1.2251 1.2251 0.38998 0.61323 0.77859 1.2251 1.2251 1.2251 0.44786 0 0.83509-0.61184 1.2251-1.2251"/>
  </g>
 </g>
</svg>
