<svg xmlns:rdf="http://www.w3.org/1999/02/22-rdf-syntax-ns#" xmlns="http://www.w3.org/2000/svg" height="300" width="300" version="1.1" xmlns:cc="http://creativecommons.org/ns#" xmlns:dc="http://purl.org/dc/elements/1.1/" viewBox="0 0 300 300">
 <title>CircuiTikZ</title>
 <g transform="translate(0 -752.36)">
  <g transform="matrix(26.128 0 0 26.128 -2101.7 -2393.8)">
   <path style="stroke:#000;stroke-miterlimit:10;stroke-width:.28116" d="m84.078 131.76h4.2003v-11.201h-4.2003z"/>
   <path style="stroke:#000;stroke-miterlimit:10;stroke-width:.28116;fill:#fff" d="m90.379 126.15c0-2.3192-1.881-4.2003-4.2003-4.2003-2.3192 0-4.2003 1.881-4.2003 4.2003 0 2.3206 1.881 4.2003 4.2003 4.2003 2.3192 0 4.2003-1.8796 4.2003-4.2003z"/>
   <g transform="matrix(.093339 0 0 .093339 84.567 127.36)">
    <path d="m8.7656 0v-0.3125h-0.25c-0.76562 0-0.78125-0.10938-0.78125-0.46875v-5.25c0-0.3594 0.0156-0.4688 0.7812-0.4688h0.25v-0.3125h-1.6875c-0.2656 0-0.2656 0.0156-0.3281 0.1875l-2.1875 5.625-2.1563-5.5938c-0.0937-0.2187-0.125-0.2187-0.3593-0.2187h-1.6719v0.3125h0.23438c0.76562 0 0.78125 0.10938 0.78125 0.46875v4.9844c0 0.26562 0 0.73438-1.0156 0.73438v0.31242l1.1562-0.03125 1.1719 0.03125v-0.3125c-1.0312 0-1.0312-0.46875-1.0312-0.73438v-5.375h0.015625l2.4062 6.2031c0.0469 0.12505 0.0938 0.2188 0.1875 0.2188 0.1094 0 0.1407-0.078125 0.1876-0.1875l2.4531-6.3125v5.7188c0 0.35938-0.015625 0.46875-0.78125 0.46875h-0.23438v0.3125c0.35938-0.03125 1.0469-0.03125 1.4375-0.03125 0.375 0 1.0469 0 1.4219 0.03125z"/>
   </g>
  </g>
 </g>
</svg>
