<svg xmlns:rdf="http://www.w3.org/1999/02/22-rdf-syntax-ns#" xmlns="http://www.w3.org/2000/svg" height="300" width="300" version="1.1" xmlns:cc="http://creativecommons.org/ns#" xmlns:dc="http://purl.org/dc/elements/1.1/" viewBox="0 0 300 300">
 <title>CircuiTikZ</title>
 <g transform="translate(0 -752.36)">
  <g transform="matrix(19.305 0 0 19.305 -988.3 -2e3)">
   <path style="stroke:#000;stroke-miterlimit:10;stroke-width:.14058;fill:none" d="m63.584 142.58v5.0753h-4.9003"/>
   <path style="stroke:#000;stroke-miterlimit:10;stroke-width:.28116;fill:none" d="m58.684 146.49v2.118m0 0.77033v1.9251m0 0.77032v2.1167"/>
   <path style="stroke:#000;stroke-miterlimit:10;stroke-width:.14058;fill:none" d="m58.684 150.34h4.9706m-4.9706 2.6954h4.9003v5.0753"/>
   <path style="stroke:#000;stroke-miterlimit:10;stroke-width:.28116;fill:none" d="m57.508 147.58v5.5301"/>
   <path style="stroke:#000;stroke-miterlimit:10;stroke-width:.14058" d="m61.257 150.34v-0.70005l-1.4869 0.70005 1.4869 0.70004v-0.70004"/>
   <path style="stroke:#000;stroke-miterlimit:10;stroke-width:.14058;fill:none" d="m57.508 153.04h-3.7937"/>
   <path style="stroke:#000;stroke-miterlimit:10;stroke-width:.14058;fill:none" d="m63.584 150.34v7.7005"/>
   <path style="stroke:#000;stroke-miterlimit:10;stroke-width:.14058" d="m64.144 153.04c0-0.30868-0.24942-0.55948-0.55948-0.55948-0.30868 0-0.55948 0.2508-0.55948 0.55948s0.2508 0.55949 0.55948 0.55949c0.31006 0 0.55948-0.25081 0.55948-0.55949z"/>
  </g>
 </g>
</svg>
