<svg xmlns:rdf="http://www.w3.org/1999/02/22-rdf-syntax-ns#" xmlns="http://www.w3.org/2000/svg" height="300" width="300" version="1.1" xmlns:cc="http://creativecommons.org/ns#" xmlns:dc="http://purl.org/dc/elements/1.1/" viewBox="0 0 300 300">
 <title>CircuiTikZ</title>
 <g transform="translate(0 -752.36)">
  <g transform="matrix(14.999 0 0 14.999 -1176.6 -1568.2)">
   <path style="stroke:#000;stroke-miterlimit:10;stroke-width:.14058;fill:none" d="m78.446 164.68h0.07028m-0.07028 0h5.8002m8.4005 0h5.8002m-0.07028 0h0.07028"/>
   <path style="stroke:#000;stroke-miterlimit:10;stroke-width:.14058;fill:none" d="m84.246 164.68h0.4203m7.5599 0h0.4203"/>
   <path style="stroke:#000;stroke-miterlimit:10;stroke-width:.28116;fill:none" d="m92.226 164.68c0-2.0877-1.6922-3.78-3.78-3.78-2.0877 0-3.78 1.6922-3.78 3.78 0 2.0877 1.6922 3.78 3.78 3.78 2.0877 0 3.78-1.6922 3.78-3.78z"/>
   <path style="stroke:#000;stroke-miterlimit:10;stroke-width:.14058;fill:none" d="m84.246 168.88 7.5062-7.5048"/>
   <path d="m92.647 160.48c-0.31419 0.21497-0.89434 0.49609-1.367 0.62149l0.74552 0.74552c0.12402-0.47267 0.40652-1.0528 0.62149-1.367"/>
   <g transform="matrix(.093339 0 0 .093339 86.987 165.89)">
    <path d="m7.7656-2h-0.46875c-0.0156 0.1406-0.0937 0.5625-0.1718 0.75-0.0469 0.125-0.0938 0.2188-0.6875 0.2188h-0.71875c0.21875-0.4375 0.48438-0.79688 0.79688-1.1875 0.5625-0.71875 1.125-1.4375 1.125-2.3438 0-1.0625-0.90625-2.3906-3.5-2.3906-2.6094 0-3.5 1.3281-3.5 2.3906 0 0.92188 0.5625 1.6406 1.1094 2.3281 0.35938 0.45312 0.60938 0.78125 0.79688 1.2031h-0.71875c-0.5782 0.0001-0.6251-0.0937-0.672-0.1875-0.0624-0.1874-0.1562-0.6718-0.17182-0.7812h-0.46876l0.35938 2h1.9062c0.2188 0 0.3126 0 0.3126-0.26562 0-0.70312-0.29688-1.625-0.4375-2.0625-0.26562-0.78125-0.5-1.5-0.5-2.2344 0-0.375 0.0625-1.0938 0.54688-1.5312 0.48438-0.45312 1.1406-0.5 1.4375-0.5 0.51562 0 1.0781 0.15625 1.4375 0.51562 0.29688 0.28125 0.53125 0.71875 0.53125 1.5156 0 0.70312-0.20312 1.375-0.45312 2.125-0.1875 0.59375-0.48438 1.4688-0.48438 2.1719 0 0.26562 0.1093 0.26562 0.3281 0.26562h1.8906z"/>
   </g>
  </g>
 </g>
</svg>
