<svg xmlns:rdf="http://www.w3.org/1999/02/22-rdf-syntax-ns#" xmlns="http://www.w3.org/2000/svg" height="300" width="300" version="1.1" xmlns:cc="http://creativecommons.org/ns#" xmlns:dc="http://purl.org/dc/elements/1.1/" viewBox="0 0 300 300">
 <title>CircuiTikZ</title>
 <g transform="translate(0 -752.36)">
  <g transform="matrix(12.531 0 0 12.531 -835.17 -517.44)">
   <g transform="matrix(.093339 0 0 .093339 71.46 109.28)">
    <path d="m7.5-2.1875c0.14062 0 0.4375 0 0.4375-0.3125 0-0.29688-0.28125-0.29688-0.4375-0.29688h-6.0938c-0.15625 0-0.45312 0-0.45312 0.29688 0 0.3125 0.29688 0.3125 0.45312 0.3125z"/>
   </g>
   <g transform="matrix(.093339 0 0 .093339 71.46 119.08)">
    <path d="m4.75-2.1875h3.0781c0.14062 0 0.4375 0 0.4375-0.3125 0-0.29688-0.29688-0.29688-0.4375-0.29688h-3.0781v-3.0938c0-0.125 0-0.42188-0.29688-0.42188-0.3125 0-0.3125 0.29688-0.3125 0.42188v3.0938h-3.0781c-0.14062 0-0.42188 0-0.42188 0.29688 0 0.3125 0.29688 0.3125 0.42188 0.3125h3.0781v3.0781c0 0.125 0 0.42188 0.3125 0.42188 0.2969 0 0.2969-0.2813 0.2969-0.42188z"/>
   </g>
   <path style="stroke:#000;stroke-linecap:square;stroke-miterlimit:10;stroke-width:.14058;fill:none" d="m66.719 108.4h3.5705m-3.5705 9.8006h3.5705m20.23-4.9003h-3.5691"/>
   <path style="stroke:#000;stroke-linecap:square;stroke-miterlimit:10;stroke-width:.28116;fill:none" d="m86.95 113.3-16.66-9.8006v19.601z"/>
  </g>
 </g>
</svg>
