<?xml version="1.0" encoding="UTF-8" standalone="no"?>
<!-- Created with Inkscape (http://www.inkscape.org/) -->

<svg
   xmlns:dc="http://purl.org/dc/elements/1.1/"
   xmlns:cc="http://creativecommons.org/ns#"
   xmlns:rdf="http://www.w3.org/1999/02/22-rdf-syntax-ns#"
   xmlns:svg="http://www.w3.org/2000/svg"
   xmlns="http://www.w3.org/2000/svg"
   xmlns:sodipodi="http://sodipodi.sourceforge.net/DTD/sodipodi-0.dtd"
   xmlns:inkscape="http://www.inkscape.org/namespaces/inkscape"
   width="210mm"
   height="297mm"
   viewBox="0 0 210 297"
   version="1.1"
   id="svg6883"
   inkscape:version="0.92.1 r15371"
   sodipodi:docname="opamp_en.svg">
  <defs
     id="defs6877" />
  <sodipodi:namedview
     id="base"
     pagecolor="#ffffff"
     bordercolor="#666666"
     borderopacity="1.0"
     inkscape:pageopacity="0.0"
     inkscape:pageshadow="2"
     inkscape:zoom="0.35"
     inkscape:cx="-94.285714"
     inkscape:cy="560"
     inkscape:document-units="mm"
     inkscape:current-layer="layer1"
     showgrid="false"
     inkscape:window-width="1920"
     inkscape:window-height="986"
     inkscape:window-x="-11"
     inkscape:window-y="-11"
     inkscape:window-maximized="1" />
  <metadata
     id="metadata6880">
    <rdf:RDF>
      <cc:Work
         rdf:about="">
        <dc:format>image/svg+xml</dc:format>
        <dc:type
           rdf:resource="http://purl.org/dc/dcmitype/StillImage" />
        <dc:title></dc:title>
      </cc:Work>
    </rdf:RDF>
  </metadata>
  <g
     inkscape:label="Layer 1"
     inkscape:groupmode="layer"
     id="layer1">
    <g
       id="use496"
       style="fill:#000000;fill-opacity:1"
       transform="matrix(0.09333912,0,0,0.09333912,57.852922,112.33395)">
      <path
         inkscape:connector-curvature="0"
         id="path7452"
         d="m 7.5,-2.1875 c 0.140625,0 0.4375,0 0.4375,-0.3125 0,-0.296875 -0.28125,-0.296875 -0.4375,-0.296875 H 1.40625 c -0.15625,0 -0.453125,0 -0.453125,0.296875 0,0.3125 0.296875,0.3125 0.453125,0.3125 z m 0,0"
         style="stroke:none" />
    </g>
    <g
       id="use500"
       style="fill:#000000;fill-opacity:1"
       transform="matrix(0.09333912,0,0,0.09333912,57.852922,119.05401)">
      <path
         inkscape:connector-curvature="0"
         id="path7464"
         d="m 4.75,-2.1875 h 3.078125 c 0.140625,0 0.4375,0 0.4375,-0.3125 0,-0.296875 -0.296875,-0.296875 -0.4375,-0.296875 H 4.75 v -3.09375 c 0,-0.125 0,-0.421875 -0.296875,-0.421875 -0.3125,0 -0.3125,0.296875 -0.3125,0.421875 v 3.09375 H 1.0625 c -0.140625,0 -0.421875,0 -0.421875,0.296875 0,0.3125 0.296875,0.3125 0.421875,0.3125 h 3.078125 v 3.078125 c 0,0.125 0,0.421875 0.3125,0.421875 C 4.75,1.3125 4.75,1.03125 4.75,0.890625 Z m 0,0"
         style="stroke:none" />
    </g>
    <path
       inkscape:connector-curvature="0"
       id="path504"
       d="m 53.111856,111.45582 h 3.570496 m -3.570496,6.71931 h 3.570496 m 20.229601,-3.35965 h -3.569116"
       style="fill:none;stroke:#000000;stroke-width:0.14058194;stroke-linecap:square;stroke-linejoin:miter;stroke-miterlimit:10;stroke-opacity:1" />
    <path
       inkscape:connector-curvature="0"
       id="path506"
       d="m 56.682352,126.01617 v -22.40139 h 16.660485 v 22.40139 z m 0,0"
       style="fill:none;stroke:#000000;stroke-width:0.28116387;stroke-linecap:square;stroke-linejoin:miter;stroke-miterlimit:10;stroke-opacity:1" />
    <g
       id="use508"
       style="fill:#000000;fill-opacity:1"
       transform="matrix(0.09333912,0,0,0.09333912,60.789446,108.15953)">
      <path
         inkscape:connector-curvature="0"
         id="path7456"
         d="m 7.4375,-3.140625 c 0.265625,-0.140625 0.34375,-0.296875 0.34375,-0.4375 0,-0.171875 -0.0625,-0.3125 -0.34375,-0.46875 L 1.25,-7.609375 C 1.03125,-7.75 0.953125,-7.75 0.90625,-7.75 c -0.453125,0 -0.453125,0.453125 -0.453125,0.65625 v 7 c 0,0.203125 0,0.65625 0.453125,0.65625 0.109375,0 0.15625,-0.03125 0.328125,-0.125 z M 6.46875,-3.59375 1.328125,-0.625 v -5.9375 z m 0,0"
         style="stroke:none" />
    </g>
    <g
       id="use512"
       style="fill:#000000;fill-opacity:1"
       transform="matrix(0.09333912,0,0,0.09333912,66.474457,108.15953)">
      <path
         inkscape:connector-curvature="0"
         id="path7460"
         d="m 9.046875,-3.609375 c 0.671875,-0.984375 1.921875,-2.15625 3.5,-2.15625 1.453125,0 2.5,1.203125 2.5,2.5625 0,1.296875 -1.125,2.234375 -2.390625,2.234375 -1.078125,0 -1.84375,-0.703125 -2.359375,-1.21875 C 9.90625,-2.59375 9.375,-3.234375 9.046875,-3.609375 Z m -1.015625,1.5625 c 0.625,0.734375 1,1.140625 1.6875,1.515625 1.109375,0.609375 2.140625,0.640625 2.5625,0.640625 1.9375,0 3.28125,-1.578125 3.28125,-3.296875 0,-1.75 -1.34375,-3.296875 -3.203125,-3.296875 -2.125,0 -3.5,1.671875 -3.90625,2.171875 C 7.828125,-5.046875 7.4375,-5.46875 6.75,-5.84375 5.65625,-6.4375 4.625,-6.484375 4.203125,-6.484375 c -1.9375,0 -3.28125,1.578125 -3.28125,3.296875 0,1.75 1.34375,3.296875 3.1875,3.296875 2.125,0 3.5,-1.65625 3.921875,-2.15625 z M 7.4375,-2.75 c -0.6875,0.96875 -1.921875,2.140625 -3.5,2.140625 -1.453125,0 -2.5,-1.203125 -2.5,-2.5625 0,-1.28125 1.109375,-2.21875 2.390625,-2.21875 1.078125,0 1.84375,0.703125 2.359375,1.21875 0.375,0.40625 0.90625,1.046875 1.25,1.421875 z m 0,0"
         style="stroke:none" />
    </g>
  </g>
</svg>
