<svg xmlns:rdf="http://www.w3.org/1999/02/22-rdf-syntax-ns#" xmlns="http://www.w3.org/2000/svg" height="300" width="300" version="1.1" xmlns:cc="http://creativecommons.org/ns#" xmlns:dc="http://purl.org/dc/elements/1.1/" viewBox="0 0 300 300">
 <title>CircuiTikZ</title>
 <g transform="translate(0 -752.36)">
  <g transform="matrix(12.531 0 0 12.531 -664.66 -536.39)">
   <g transform="matrix(.093339 0 0 .093339 57.853 112.33)">
    <path d="m7.5-2.1875c0.14062 0 0.4375 0 0.4375-0.3125 0-0.29688-0.28125-0.29688-0.4375-0.29688h-6.0938c-0.15625 0-0.45312 0-0.45312 0.29688 0 0.3125 0.29688 0.3125 0.45312 0.3125z"/>
   </g>
   <g transform="matrix(.093339 0 0 .093339 57.853 119.05)">
    <path d="m4.75-2.1875h3.0781c0.14062 0 0.4375 0 0.4375-0.3125 0-0.29688-0.29688-0.29688-0.4375-0.29688h-3.0781v-3.0938c0-0.125 0-0.42188-0.29688-0.42188-0.3125 0-0.3125 0.29688-0.3125 0.42188v3.0938h-3.0781c-0.14062 0-0.42188 0-0.42188 0.29688 0 0.3125 0.29688 0.3125 0.42188 0.3125h3.0781v3.0781c0 0.125 0 0.42188 0.3125 0.42188 0.2969 0 0.2969-0.2813 0.2969-0.42188z"/>
   </g>
   <path style="stroke:#000;stroke-linecap:square;stroke-miterlimit:10;stroke-width:.14058;fill:none" d="m53.112 111.46h3.5705m-3.5705 6.7193h3.5705m20.23-3.3596h-3.5691"/>
   <path style="stroke:#000;stroke-linecap:square;stroke-miterlimit:10;stroke-width:.28116;fill:none" d="m56.682 126.02v-22.401h16.66v22.401z"/>
   <g transform="matrix(.093339 0 0 .093339 60.789 108.16)">
    <path d="m7.4375-3.1406c0.26562-0.14062 0.34375-0.29688 0.34375-0.4375 0-0.17188-0.0625-0.3125-0.34375-0.46875l-6.1875-3.5626c-0.2188-0.1406-0.29688-0.1406-0.34375-0.1406-0.45312 0-0.45312 0.45312-0.45312 0.65625v7c0 0.20312 0 0.65625 0.45312 0.65625 0.10938 0 0.15625-0.03125 0.32812-0.125zm-0.9687-0.4532-5.1407 2.9688v-5.9375z"/>
   </g>
   <g transform="matrix(.093339 0 0 .093339 66.474 108.16)">
    <path d="m9.0469-3.6094c0.67188-0.98438 1.9219-2.1562 3.5-2.1562 1.4531 0 2.5 1.2031 2.5 2.5625 0 1.2969-1.125 2.2344-2.3906 2.2344-1.0781 0-1.8438-0.70312-2.3594-1.2188-0.3908-0.4063-0.922-1.0469-1.2501-1.4219zm-1.0156 1.5625c0.625 0.73438 1 1.1406 1.6875 1.5156 1.1094 0.60938 2.1406 0.64062 2.5625 0.64062 1.9375 0 3.2812-1.5781 3.2812-3.2969 0-1.75-1.3438-3.2969-3.2031-3.2969-2.125 0-3.5 1.6719-3.9062 2.1719-0.6251-0.7343-1.0157-1.1562-1.7032-1.5312-1.0938-0.5937-2.125-0.6406-2.5469-0.6406-1.9375 0-3.2812 1.5781-3.2812 3.2969 0 1.75 1.3438 3.2969 3.1875 3.2969 2.125 0 3.5-1.6562 3.9219-2.1562zm-0.5938-0.7031c-0.6875 0.96875-1.9219 2.1406-3.5 2.1406-1.4531 0-2.5-1.2031-2.5-2.5625 0-1.2812 1.1094-2.2188 2.3906-2.2188 1.0781 0 1.8438 0.70312 2.3594 1.2188 0.375 0.40625 0.90625 1.0469 1.25 1.4219z"/>
   </g>
  </g>
 </g>
</svg>
