<svg xmlns:rdf="http://www.w3.org/1999/02/22-rdf-syntax-ns#" xmlns="http://www.w3.org/2000/svg" height="300" width="300" version="1.1" xmlns:cc="http://creativecommons.org/ns#" xmlns:dc="http://purl.org/dc/elements/1.1/" viewBox="0 0 300 300">
 <title>CircuiTikZ</title>
 <g transform="translate(0 -752.36)">
  <g transform="matrix(14.999 0 0 14.999 -904.51 -729.09)">
   <path style="stroke:#000;stroke-miterlimit:10;stroke-width:.14058;fill:none" d="m60.303 108.77h0.07028m-0.07028 0h5.1001m9.8006 0h5.1001m-0.07028 0h0.07028"/>
   <path style="stroke:#000;stroke-miterlimit:10;stroke-width:.28116;fill:none" d="m65.403 103.87h9.8006v9.7992h-9.8006z"/>
   <g transform="matrix(.093339 0 0 .093339 68.681 109.37)">
    <path d="m4.3125-0.625c-0.23438 0-0.45312 0-0.45312-0.078125 0-0.03125 0.25-1.375 0.32812-1.6875 0.45312-1.8438 1.5469-3.1562 2.7969-3.1562 0.9375 0 1.3594 0.70312 1.3594 1.4844 0 1.6406-1.8281 3.4375-4.0312 3.4375zm-0.6094 0.73438c0.0781 0.01562 0.2344 0.03124 0.4844 0.03124 2.3594 0 4.5156-2.2656 4.5156-4.5312 0-0.875-0.39062-1.9375-1.5938-1.9375-2.0625 0-2.9375 2.9219-3.7344 5.6094-1.6562-0.3125-2.3438-1.1875-2.3438-2.1562 0-0.375 0.29688-1.9219 1.1406-2.9531 0.15625-0.1875 0.15625-0.20312 0.15625-0.23438 0-0.125-0.125-0.125-0.14062-0.125-0.39062 0-1.4844 2.0938-1.4844 3.4688 0 1.5938 1.2656 2.4688 2.4219 2.7344l-0.7498 2.4217c-0.0625 0.21875-0.0625 0.25-0.0625 0.29688 0 0.34375 0.34375 0.35938 0.375 0.35938 0.14062 0 0.39062-0.046875 0.51562-0.34375 0.03125-0.125 0.4375-2.3438 0.5-2.6406z"/>
   </g>
  </g>
 </g>
</svg>
