<svg xmlns:rdf="http://www.w3.org/1999/02/22-rdf-syntax-ns#" xmlns="http://www.w3.org/2000/svg" height="300" width="300" version="1.1" xmlns:cc="http://creativecommons.org/ns#" xmlns:dc="http://purl.org/dc/elements/1.1/" viewBox="0 0 300 300">
 <title>CircuiTikZ</title>
 <g transform="translate(0 -752.36)">
  <g transform="matrix(19.303 0 0 19.303 -929.83 -1620.4)">
   <path style="stroke:#000;stroke-miterlimit:10;stroke-width:.14058;fill:none" d="m60.119 122.92v4.6908l-4.2003 1.9251"/>
   <path style="stroke:#000;stroke-miterlimit:10;stroke-width:.28116;fill:none" d="m55.919 127.61v6.1598"/>
   <path style="stroke:#000;stroke-miterlimit:10;stroke-width:.14058;fill:none" d="m55.919 131.85 4.2003 1.9251v4.6908"/>
   <path style="stroke:#000;stroke-miterlimit:10;stroke-width:.14058" d="m58.577 128.32-0.29214-0.63941-1.0638 1.2609 1.6495 0.0165-0.29352-0.63803"/>
   <path style="stroke:#000;stroke-miterlimit:10;stroke-width:.14058;fill:none" d="m54.716 129.6-2.9972-1.2209"/>
   <path d="m55.498 129.92c-0.29904-0.19844-0.83371-0.56775-1.1052-1.0211 0.17914 0.49196 0.07304 0.7524-0.39963 0.9784 0.51125-0.13367 1.152-0.0248 1.5048 0.0427z"/>
   <path style="stroke:#000;stroke-miterlimit:10;stroke-width:.14058;fill:none" d="m54.716 131.14-2.9972-1.2209"/>
   <path d="m55.498 131.46c-0.29904-0.19844-0.83371-0.56913-1.1052-1.0211 0.17914 0.49196 0.07304 0.75241-0.39963 0.97841 0.51125-0.13367 1.152-0.0248 1.5048 0.0427z"/>
  </g>
 </g>
</svg>
