<svg xmlns:rdf="http://www.w3.org/1999/02/22-rdf-syntax-ns#" xmlns="http://www.w3.org/2000/svg" height="300" width="300" version="1.1" xmlns:cc="http://creativecommons.org/ns#" xmlns:dc="http://purl.org/dc/elements/1.1/" viewBox="0 0 300 300">
 <title>CircuiTikZ</title>
 <g transform="translate(0 -752.36)">
  <g transform="matrix(14.999 0 0 14.999 -768.44 -1420.8)">
   <path style="stroke:#000;stroke-miterlimit:10;stroke-width:.14058;fill:none" d="m51.232 156.53h0.07028m-0.07028 0h7.2002m5.6003 0h7.2003m-0.07028 0h0.07028"/>
   <path style="stroke:#000;stroke-miterlimit:10;stroke-width:.28116;fill:none" d="m64.032 156.53-5.6003-3.4988v6.9991l5.6003-3.5002"/>
   <path style="stroke:#000;stroke-miterlimit:10;stroke-width:.28116;fill:none" d="m64.032 160.03v-6.9991"/>
   <path style="stroke:#000;stroke-miterlimit:10;stroke-width:.14058;fill:none" d="m60.642 152.36 2.2696-2.8374"/>
   <path d="m60.112 153.03c0.27699-0.23289 0.7841-0.64079 1.2967-0.77308-0.52365 0.0331-0.74414-0.14331-0.82682-0.66146-0.01654 0.52917-0.30317 1.1135-0.46991 1.4345z"/>
   <path style="stroke:#000;stroke-miterlimit:10;stroke-width:.14058;fill:none" d="m62.322 153.06 2.27-2.83"/>
   <path d="m61.793 153.73c0.27561-0.23151 0.78273-0.63941 1.2954-0.7717-0.52365 0.0331-0.74414-0.14332-0.82682-0.66146-0.01654 0.52917-0.30317 1.1134-0.46853 1.4332z"/>
  </g>
 </g>
</svg>
