<svg xmlns:rdf="http://www.w3.org/1999/02/22-rdf-syntax-ns#" xmlns="http://www.w3.org/2000/svg" height="300" width="300" version="1.1" xmlns:cc="http://creativecommons.org/ns#" xmlns:dc="http://purl.org/dc/elements/1.1/" viewBox="0 0 300 300">
 <title>CircuiTikZ</title>
 <g transform="translate(0 -752.36)">
  <g transform="matrix(14.999 0 0 14.999 -1085.9 -1057.9)">
   <path style="stroke:#000;stroke-miterlimit:10;stroke-width:.14058;fill:none" d="m72.398 129.54h0.07028m-0.07028 0h5.8002m8.4005 0h5.8002m-0.07028 0h0.07028"/>
   <path style="stroke:#000;stroke-miterlimit:10;stroke-width:.28116;fill:none" d="m82.399 125.34c-2.3192 0-4.2003 1.8796-4.2003 4.2003 0 2.3192 1.881 4.1989 4.2003 4.1989 2.3192 0 4.2003-1.8796 4.2003-4.1989 0-2.3206-1.881-4.2003-4.2003-4.2003z"/>
   <path style="stroke:#000;stroke-miterlimit:10;stroke-width:.28116;fill:none" d="m83.029 129.54h3.5705m-4.83 0h-3.5705"/>
   <path style="stroke:#000;stroke-miterlimit:10;stroke-width:.28116;fill:none" d="m81.769 127.86v3.361m1.2595-4.2003v5.0395"/>
   <path style="stroke:#000;stroke-miterlimit:10;stroke-width:.28116;fill:none" d="m87.673 136.08-1.509-1.5103"/>
   <path d="m85.001 133.4c0.27974 0.40928 0.64492 1.1631 0.80753 1.7777l0.96876-0.97014c-0.61323-0.16123-1.3684-0.52779-1.7763-0.80753"/>
   <path style="stroke:#000;stroke-miterlimit:10;stroke-width:.28116;fill:none" d="m88.933 134.82-1.51-1.51"/>
   <path d="m86.26 132.14c0.27974 0.40928 0.6463 1.1631 0.80753 1.7763l0.96876-0.96877c-0.61323-0.16123-1.367-0.52778-1.7763-0.80753"/>
  </g>
 </g>
</svg>
