<svg xmlns:rdf="http://www.w3.org/1999/02/22-rdf-syntax-ns#" xmlns="http://www.w3.org/2000/svg" height="300" width="300" version="1.1" xmlns:cc="http://creativecommons.org/ns#" xmlns:dc="http://purl.org/dc/elements/1.1/" viewBox="0 0 300 300">
 <title>CircuiTikZ</title>
 <g transform="translate(0 -752.36)">
  <g transform="matrix(14.999 0 0 14.999 -927.19 -944.52)">
   <path style="stroke:#000;stroke-miterlimit:10;stroke-width:.14058;fill:none" d="m61.815 124.17h0.07028m-0.07028 0h4.4001m11.201 0h4.4001m-0.07028 0h0.07028"/>
   <path style="stroke:#000;stroke-miterlimit:10;stroke-width:.28116;fill:none" d="m66.215 126.27h11.201v-4.2003h-11.201z"/>
   <path style="stroke:#000;stroke-miterlimit:10;stroke-width:.28116;fill:none" d="m75.736 119.97-1.3629 1.0225"/>
   <path d="m73.495 121.65c0.4203-0.19982 1.1879-0.54708 1.8741-0.54708-0.66697-0.12816-0.88746-0.42168-0.82269-1.0969-0.19155 0.65732-0.74 1.2967-1.0514 1.644z"/>
   <path style="stroke:#000;stroke-miterlimit:10;stroke-width:.28116;fill:none" d="m74.336 119.97-1.3629 1.0225"/>
   <path d="m72.095 121.65c0.4203-0.19982 1.1879-0.54708 1.8741-0.54708-0.66697-0.12816-0.88608-0.42168-0.82269-1.0969-0.19155 0.65732-0.74 1.2967-1.0514 1.644z"/>
  </g>
 </g>
</svg>
