<svg xmlns:rdf="http://www.w3.org/1999/02/22-rdf-syntax-ns#" xmlns="http://www.w3.org/2000/svg" height="300" width="300" version="1.1" xmlns:cc="http://creativecommons.org/ns#" xmlns:dc="http://purl.org/dc/elements/1.1/" viewBox="0 0 300 300">
 <title>CircuiTikZ</title>
 <g transform="translate(0 -752.36)">
  <g transform="matrix(14.999 0 0 14.999 -1516.8 -2044.4)">
   <path style="stroke:#000;stroke-miterlimit:10;stroke-width:.14058;fill:none" d="m101.12 198.18h0.0703m-0.0703 0h4.4001m11.201 0h4.4001m-0.0703 0h0.0703"/>
   <path style="stroke-linejoin:bevel;stroke:#000;stroke-miterlimit:10;stroke-width:.28116;fill:none" d="m105.38 198.18 1.0859-2.1001 1.8907 4.2003 1.8893-4.2003 1.8907 4.2003 1.8907-4.2003 1.8893 4.2003 0.94534-2.1001"/>
   <path style="stroke-linejoin:bevel;stroke:#000;stroke-miterlimit:10;stroke-width:.28116;fill:none" d="m111.12 192.58v2.4033"/>
   <path d="m111.12 196.08c0.091-0.45613 0.27423-1.2788 0.68626-1.8273-0.50298 0.45751-0.86816 0.45751-1.3711 0 0.41065 0.54846 0.59393 1.3712 0.68488 1.8273z"/>
  </g>
 </g>
</svg>
