<svg xmlns:rdf="http://www.w3.org/1999/02/22-rdf-syntax-ns#" xmlns="http://www.w3.org/2000/svg" height="300" width="300" version="1.1" xmlns:cc="http://creativecommons.org/ns#" xmlns:dc="http://purl.org/dc/elements/1.1/" viewBox="0 0 300 300">
 <title>CircuiTikZ</title>
 <g transform="translate(0 -752.36)">
  <g transform="matrix(14.999 0 0 14.999 -1051.9 -1239.3)">
   <path style="stroke:#000;stroke-miterlimit:10;stroke-width:.14058;fill:none" d="m70.131 144.19h0.07028m-0.07028 0h6.5002m7.0004 0h6.5002m-0.07028 0h0.07028"/>
   <path style="stroke:#000;stroke-miterlimit:10;stroke-width:.28116;fill:none" d="m76.631 142.44h7.0004m-3.5002 0v-1.7501"/>
   <path style="stroke:#000;stroke-miterlimit:10;stroke-width:.28116;fill:#fff" d="m77.192 144.19c0-0.31006-0.2508-0.56086-0.56086-0.56086-0.30868 0-0.55948 0.2508-0.55948 0.56086 0 0.30868 0.2508 0.55949 0.55948 0.55949 0.31006 0 0.56086-0.25081 0.56086-0.55949z"/>
   <path style="stroke:#000;stroke-miterlimit:10;stroke-width:.28116;fill:#fff" d="m84.191 144.19c0-0.31006-0.2508-0.56086-0.55948-0.56086s-0.55948 0.2508-0.55948 0.56086c0 0.30868 0.2508 0.55949 0.55948 0.55949s0.55948-0.25081 0.55948-0.55949z"/>
  </g>
 </g>
</svg>
