<svg xmlns:rdf="http://www.w3.org/1999/02/22-rdf-syntax-ns#" xmlns="http://www.w3.org/2000/svg" height="300" width="300" version="1.1" xmlns:cc="http://creativecommons.org/ns#" xmlns:dc="http://purl.org/dc/elements/1.1/" viewBox="0 0 300 300">
 <title>CircuiTikZ</title>
 <g transform="translate(0 -752.36)">
  <g transform="matrix(10.691 0 0 10.691 -884.47 -1246.4)">
   <path style="stroke:#000;stroke-miterlimit:10;stroke-width:.14058;fill:none" d="m82.731 213.23h13.999m-0.07028 0v-21"/>
   <path style="stroke:#000;stroke-miterlimit:10;stroke-width:.28116;fill:none" d="m96.661 192.23h3.5002l-3.5002 6.999-3.5002-6.999h3.5002"/>
   <path style="stroke:#000;stroke-miterlimit:10;stroke-width:.14058;fill:none" d="m103.73 188.73c-2.5011 4.3312-2.5011 9.6683 0 13.999m1.7501-13.124c-2.1883 3.7896-2.1883 8.4598 0 12.249m1.7501-11.374c-1.8755 3.248-1.8755 7.2512 0 10.499m1.7501-9.6242c-1.5641 2.7065-1.5641 6.0427 0 8.7492m1.7501-7.8741c-1.2513 2.1649-1.2513 4.8342 0 6.999"/>
  </g>
 </g>
</svg>
