<svg xmlns:rdf="http://www.w3.org/1999/02/22-rdf-syntax-ns#" xmlns="http://www.w3.org/2000/svg" height="300" width="300" version="1.1" xmlns:cc="http://creativecommons.org/ns#" xmlns:dc="http://purl.org/dc/elements/1.1/" viewBox="0 0 300 300">
 <title>CircuiTikZ</title>
 <g transform="translate(0 -752.36)">
  <g transform="matrix(14.999 0 0 14.999 -1154 -683.73)">
   <path style="stroke:#000;stroke-miterlimit:10;stroke-width:.14058;fill:none" d="m76.934 105.74h0.07028m-0.07028 0h5.8002m8.4005 0h5.8002m-0.07028 0h0.07028"/>
   <path style="stroke:#000;stroke-miterlimit:10;stroke-width:.28116;fill:none" d="m86.935 101.54c-2.3192 0-4.2003 1.881-4.2003 4.2003 0 2.3206 1.881 4.2003 4.2003 4.2003 2.3192 0 4.2003-1.8796 4.2003-4.2003 0-2.3192-1.881-4.2003-4.2003-4.2003z"/>
   <path style="stroke:#000;stroke-miterlimit:10;stroke-width:.28116;fill:none" d="m86.935 107.84c-0.52503-0.33349-1.0501-0.66697-1.0501-1.0501 0-0.38309 0.52503-0.7152 1.0501-1.0501 0.52504-0.33349 1.0501-0.66697 1.0501-1.0501 0-0.38309-0.52503-0.7152-1.0501-1.0501"/>
  </g>
 </g>
</svg>
