<svg xmlns:rdf="http://www.w3.org/1999/02/22-rdf-syntax-ns#" xmlns="http://www.w3.org/2000/svg" height="300" width="300" version="1.1" xmlns:cc="http://creativecommons.org/ns#" xmlns:dc="http://purl.org/dc/elements/1.1/" viewBox="0 0 300 300">
 <title>CircuiTikZ</title>
 <g transform="translate(0 -752.36)">
  <g transform="matrix(25.209 0 0 25.209 -1736.6 -2296.9)">
   <path style="stroke:#000;stroke-miterlimit:10;stroke-width:.14058;fill:none" d="m80.79 123.76h-3.2728m3.2728 6.3004h-3.2728m-8.6279-3.1502h3.2728"/>
   <path style="stroke:#000;stroke-miterlimit:10;stroke-width:.14058;fill:#fff" d="m78.076 123.76c0-0.30868-0.2508-0.55948-0.55948-0.55948s-0.55948 0.2508-0.55948 0.55948c0 0.31006 0.2508 0.56086 0.55948 0.56086s0.55948-0.2508 0.55948-0.56086z"/>
   <path style="stroke:#000;stroke-miterlimit:10;stroke-width:.14058;fill:#fff" d="m78.076 130.06c0-0.30868-0.2508-0.55949-0.55948-0.55949s-0.55948 0.25081-0.55948 0.55949 0.2508 0.55948 0.55948 0.55948 0.55948-0.2508 0.55948-0.55948z"/>
   <path style="stroke:#000;stroke-miterlimit:10;stroke-width:.14058;fill:#fff" d="m72.721 126.91c0-0.30868-0.2508-0.55948-0.55948-0.55948s-0.55948 0.2508-0.55948 0.55948 0.2508 0.55949 0.55948 0.55949 0.55948-0.25081 0.55948-0.55949z"/>
   <path style="stroke:#000;stroke-miterlimit:10;stroke-width:.28116;fill:none" d="m72.721 126.91 4.6385-2.4322"/>
  </g>
 </g>
</svg>
