<?xml version="1.0" encoding="UTF-8" standalone="no"?>
<!-- Created with Inkscape (http://www.inkscape.org/) -->

<svg
   xmlns:dc="http://purl.org/dc/elements/1.1/"
   xmlns:cc="http://creativecommons.org/ns#"
   xmlns:rdf="http://www.w3.org/1999/02/22-rdf-syntax-ns#"
   xmlns:svg="http://www.w3.org/2000/svg"
   xmlns="http://www.w3.org/2000/svg"
   xmlns:sodipodi="http://sodipodi.sourceforge.net/DTD/sodipodi-0.dtd"
   xmlns:inkscape="http://www.inkscape.org/namespaces/inkscape"
   width="210mm"
   height="297mm"
   viewBox="0 0 210 297"
   version="1.1"
   id="svg6950"
   inkscape:version="0.92.1 r15371"
   sodipodi:docname="spring.svg">
  <defs
     id="defs6944" />
  <sodipodi:namedview
     id="base"
     pagecolor="#ffffff"
     bordercolor="#666666"
     borderopacity="1.0"
     inkscape:pageopacity="0.0"
     inkscape:pageshadow="2"
     inkscape:zoom="0.35"
     inkscape:cx="-131.42857"
     inkscape:cy="560"
     inkscape:document-units="mm"
     inkscape:current-layer="layer1"
     showgrid="false"
     inkscape:window-width="1920"
     inkscape:window-height="986"
     inkscape:window-x="-11"
     inkscape:window-y="-11"
     inkscape:window-maximized="1" />
  <metadata
     id="metadata6947">
    <rdf:RDF>
      <cc:Work
         rdf:about="">
        <dc:format>image/svg+xml</dc:format>
        <dc:type
           rdf:resource="http://purl.org/dc/dcmitype/StillImage" />
        <dc:title></dc:title>
      </cc:Work>
    </rdf:RDF>
  </metadata>
  <g
     inkscape:label="Layer 1"
     inkscape:groupmode="layer"
     id="layer1">
    <path
       inkscape:connector-curvature="0"
       id="path421"
       d="m 43.672196,130.69239 h 0.07028 m -0.07028,0 h 6.500206 m 7.000435,0 h 6.500205 m -0.07028,0 h 0.07028"
       style="fill:none;stroke:#000000;stroke-width:0.14058194;stroke-linecap:butt;stroke-linejoin:miter;stroke-miterlimit:10;stroke-opacity:1" />
    <path
       inkscape:connector-curvature="0"
       id="path423"
       d="m 50.031841,130.69239 0.297657,-1.77216 c 0.159854,-0.95498 0.388605,-0.95085 0.511252,0.01 l 0.449242,3.52502 c 0.122643,0.95911 0.32108,0.95911 0.443727,0 l 0.449241,-3.52502 c 0.122644,-0.96049 0.321081,-0.96049 0.442348,0 l 0.450621,3.52502 c 0.121268,0.95911 0.319705,0.95911 0.442348,0 l 0.449241,-3.52502 c 0.122647,-0.96049 0.321085,-0.96049 0.443728,0 l 0.449241,3.52502 c 0.122647,0.95911 0.321085,0.95911 0.442352,0 l 0.450617,-3.52502 c 0.121268,-0.96049 0.319705,-0.96049 0.442352,0 l 0.449241,3.52502 c 0.122643,0.95911 0.321081,0.95911 0.443728,0 l 0.22462,-1.76249"
       style="fill:none;stroke:#000000;stroke-width:0.28116387;stroke-linecap:butt;stroke-linejoin:bevel;stroke-miterlimit:10;stroke-opacity:1" />
  </g>
</svg>
