<svg xmlns:rdf="http://www.w3.org/1999/02/22-rdf-syntax-ns#" xmlns="http://www.w3.org/2000/svg" height="300" width="300" version="1.1" xmlns:cc="http://creativecommons.org/ns#" xmlns:dc="http://purl.org/dc/elements/1.1/" viewBox="0 0 300 300">
 <title>CircuiTikZ</title>
 <g transform="translate(0 -752.36)">
  <g transform="matrix(14.999 0 0 14.999 -2355.9 -2191.8)">
   <path style="stroke:#000;stroke-miterlimit:10;stroke-width:.14058;fill:none" d="m157.07 206.29h0.0703m-0.0703 0h5.8002m8.4005 0h5.8002m-0.0703 0h0.0703"/>
   <path style="stroke:#000;stroke-miterlimit:10;stroke-width:.28116;fill:none" d="m167.07 202.09c-2.3192 0-4.2003 1.881-4.2003 4.2003 0 2.3192 1.881 4.2003 4.2003 4.2003 2.3192 0 4.2003-1.881 4.2003-4.2003 0-2.3192-1.881-4.2003-4.2003-4.2003zm-1.4704-1.4704 2.9407 2.9407m-2.9407 0 2.9407-2.9407m-2.9407 11.341 2.9407-2.9407m-2.9407 0 2.9407 2.9407"/>
  </g>
 </g>
</svg>
