<svg xmlns:rdf="http://www.w3.org/1999/02/22-rdf-syntax-ns#" xmlns="http://www.w3.org/2000/svg" height="300" width="300" version="1.1" xmlns:cc="http://creativecommons.org/ns#" xmlns:dc="http://purl.org/dc/elements/1.1/" viewBox="0 0 300 300">
 <title>CircuiTikZ</title>
 <g transform="translate(0 -752.36)">
  <g transform="matrix(14.999 0 0 14.999 -915.85 -978.54)">
   <path style="stroke:#000;stroke-miterlimit:10;stroke-width:.14058;fill:none" d="m61.059 124.33h0.07028m-0.07028 0h4.4001m11.201 0h4.4001m-0.07028 0h0.07028"/>
   <path style="stroke:#000;stroke-miterlimit:10;stroke-width:.28116;fill:none" d="m65.459 122.23h11.201v4.1934h-11.201z"/>
   <path style="stroke:#000;stroke-miterlimit:10;stroke-width:.28116;fill:none" d="m76.66 121.33-7.8397 5.9917h-3.361"/>
   <g transform="matrix(.093339 0 0 .093339 65.548 129.49)">
    <path d="m3.4688-1.7969c0.078125-0.32812 0.078125-0.5625 0.078125-0.59375 0-0.5625-0.23438-1.125-0.76562-1.125-0.42188 0-0.89062 0.39062-0.89062 0.92188 0 0.46875 0.40625 0.73438 1.0938 0.875-0.1875 0.875-0.625 1.6094-1.0625 1.6094-0.46875 0-0.48438-0.28125-0.48438-0.40625 0-0.14062 0.078125-0.40625 0.125-0.59375 0.015625-0.078125 0.046875-0.21875 0.078125-0.3125 0.015625-0.10938 0.046875-0.25 0.046875-0.29688 0-0.3125-0.29688-0.48438-0.59375-0.48438-0.17188 0-0.32812 0.078125-0.45312 0.28125s-0.1875 0.46875-0.1875 0.48438c0 0.078125 0.078125 0.078125 0.10938 0.078125 0.078125 0 0.09375-0.03125 0.10938-0.10938 0.0625-0.20312 0.15625-0.5625 0.39062-0.5625 0.17188 0 0.20312 0.15625 0.20312 0.26562 0 0.0625 0 0.078125-0.046875 0.26562-0.015625 0.09375-0.0625 0.21875-0.078125 0.29688-0.09375 0.375-0.125 0.48438-0.125 0.625 0 0.54688 0.51562 0.64062 0.875 0.64062 0.76562 0 1.3594-1 1.5312-1.7031 0.0625 0.015625 0.26562 0.046875 0.29688 0.046875 0.046875 0 0.078125-0.046875 0.078125-0.09375 0-0.0625-0.046875-0.078125-0.14062-0.09375zm-0.4375-0.09375c-0.6407-0.125-0.9375-0.3594-0.9375-0.7032 0-0.42188 0.35938-0.75 0.6875-0.75 0.34375 0 0.35938 0.51562 0.35938 0.6875 0 0.25-0.0625 0.54688-0.10938 0.76562z"/>
   </g>
   <path style="stroke:#000;stroke-miterlimit:10;stroke-width:.14058;fill:none" d="m67.588 129.58v-0.73174"/>
   <path d="m67.588 128c-0.07028 0.3514-0.21084 0.98392-0.52779 1.4056 0.38723-0.3514 0.66835-0.3514 1.0542 0-0.31557-0.42168-0.45613-1.0542-0.52641-1.4056z"/>
   <path style="stroke:#000;stroke-miterlimit:10;stroke-width:.14058;fill:none" d="m68.539 129.58v-0.73174"/>
   <path d="m68.539 128c-0.07028 0.3514-0.21084 0.98392-0.52641 1.4056 0.38585-0.3514 0.66697-0.3514 1.0542 0-0.31557-0.42168-0.45751-1.0542-0.52779-1.4056z"/>
  </g>
 </g>
</svg>
