<svg xmlns:rdf="http://www.w3.org/1999/02/22-rdf-syntax-ns#" xmlns="http://www.w3.org/2000/svg" height="300" width="300" version="1.1" xmlns:cc="http://creativecommons.org/ns#" xmlns:dc="http://purl.org/dc/elements/1.1/" viewBox="0 0 300 300">
 <title>CircuiTikZ</title>
 <g transform="translate(0 -752.36)">
  <g transform="matrix(14.19 0 0 14.19 -1008.5 -973.57)">
   <path style="stroke-linejoin:bevel;stroke:#000;stroke-miterlimit:10;stroke-width:.28116;fill:none" d="m77.386 127.86c1.1603 0 2.1001 0.5774 2.1001 1.2885 0 0.71107-0.93982 1.2885-2.1001 1.2885-0.57878 0-1.0501-0.23564-1.0501-0.52503 0-0.29077 0.47129-0.52503 1.0501-0.52503 1.1603 0 2.1001 0.57602 2.1001 1.2871 0 0.71245-0.93982 1.2885-2.1001 1.2885-0.57878 0-1.0501-0.23427-1.0501-0.52503 0-0.28939 0.47129-0.52504 1.0501-0.52504 1.1603 0 2.1001 0.5774 2.1001 1.2885 0 0.71107-0.93982 1.2885-2.1001 1.2885-0.57878 0-1.0501-0.23565-1.0501-0.52503 0-0.29077 0.47129-0.52504 1.0501-0.52504 1.1603 0 2.1001 0.57602 2.1001 1.2885 0 0.71106-0.93982 1.2871-2.1001 1.2871-0.57878 0-1.0501-0.23427-1.0501-0.52504 0-0.28939 0.47129-0.52503 1.0501-0.52503 1.1603 0 2.1001 0.5774 2.1001 1.2885 0 0.71106-0.93982 1.2885-2.1001 1.2885"/>
   <path style="stroke-linejoin:bevel;stroke:#000;stroke-miterlimit:10;stroke-width:.28116;fill:none" d="m85.9 136.54c-1.1603 0-2.1001-0.5774-2.1001-1.2885 0-0.71107 0.93982-1.2885 2.1001-1.2885 0.57878 0 1.0487 0.23564 1.0487 0.52503 0 0.29077-0.46991 0.52504-1.0487 0.52504-1.1603 0-2.1001-0.57603-2.1001-1.2871 0-0.71245 0.93982-1.2885 2.1001-1.2885 0.57878 0 1.0487 0.23427 1.0487 0.52504 0 0.28938-0.46991 0.52503-1.0487 0.52503-1.1603 0-2.1001-0.5774-2.1001-1.2885 0-0.71107 0.93982-1.2885 2.1001-1.2885 0.57878 0 1.0487 0.23565 1.0487 0.52504 0 0.29076-0.46991 0.52503-1.0487 0.52503-1.1603 0-2.1001-0.57602-2.1001-1.2885 0-0.71106 0.93982-1.2871 2.1001-1.2871 0.57878 0 1.0487 0.23426 1.0487 0.52503 0 0.28939-0.46991 0.52503-1.0487 0.52503-1.1603 0-2.1001-0.57739-2.1001-1.2885 0-0.71107 0.93982-1.2885 2.1001-1.2885"/>
   <path style="stroke:#000;stroke-miterlimit:10;stroke-width:.14058;fill:none" d="m71.142 121.7h6.3004v6.3004m0 8.4005v6.3004h-6.3004m21.001-21.001h-6.3004v6.3004m0 8.4005v6.3004h6.3004"/>
  </g>
 </g>
</svg>
