<svg xmlns:rdf="http://www.w3.org/1999/02/22-rdf-syntax-ns#" xmlns="http://www.w3.org/2000/svg" height="300" width="300" version="1.1" xmlns:cc="http://creativecommons.org/ns#" xmlns:dc="http://purl.org/dc/elements/1.1/" viewBox="0 0 300 300">
 <title>CircuiTikZ</title>
 <g transform="translate(0 -752.36)">
  <g transform="matrix(10.64 0 0 10.64 -573.88 -383.58)">
   <path style="stroke:#000;stroke-miterlimit:10;stroke-width:.14058;fill:none" d="m53.938 133.1h14.001m-0.07028 0v-21"/>
   <path style="stroke:#000;stroke-miterlimit:10;stroke-width:.28116;fill:none" d="m67.868 112.1h3.5002l-3.5002 7.0004-3.5002-7.0004h3.5002"/>
   <path style="stroke:#000;stroke-miterlimit:10;stroke-width:.14058;fill:none" d="m73.189 112.1c1.2499 2.1649 1.2499 4.8342 0 7.0004m1.7501-7.8755c1.5627 2.7065 1.5627 6.0427 0 8.7505m1.7501-9.6256c1.8755 3.248 1.8755 7.2512 0 10.501m1.7501-11.376c2.1869 3.7896 2.1869 8.4612 0 12.251m1.7487-13.126c2.5011 4.3312 2.5011 9.6697 0 14.001"/>
  </g>
 </g>
</svg>
