<svg xmlns:rdf="http://www.w3.org/1999/02/22-rdf-syntax-ns#" xmlns="http://www.w3.org/2000/svg" height="300" width="300" version="1.1" xmlns:cc="http://creativecommons.org/ns#" xmlns:dc="http://purl.org/dc/elements/1.1/" viewBox="0 0 300 300">
 <title>CircuiTikZ</title>
 <g transform="translate(0 -752.36)">
  <g transform="matrix(14.999 0 0 14.999 -700.41 -774.44)">
   <path style="stroke:#000;stroke-miterlimit:10;stroke-width:.14058;fill:none" d="m46.696 110.93h0.07028m-0.07028 0h4.4001m11.201 0h4.4001m-0.07028 0h0.07028"/>
   <path style="stroke:#000;stroke-miterlimit:10;stroke-width:.28116;fill:none" d="m51.096 108.84h11.201v4.1948h-11.201z"/>
   <path style="stroke:#000;stroke-miterlimit:10;stroke-width:.28116;fill:none" d="m62.297 107.94-7.8397 5.9917h-3.361"/>
   <g transform="matrix(.093339 0 0 .093339 52.416 115.75)">
    <path d="m3.1406-1.1719v-2.2812h-0.42188v2.2969c0 0.65625-0.45312 0.96875-0.89062 0.96875-0.42188 0-0.84375-0.3125-0.84375-0.96875v-2.2969h-0.5v2.2812c0 0.73438 0.625 1.2812 1.3438 1.2812 0.71875 0 1.3125-0.54688 1.3125-1.2812z"/>
   </g>
  </g>
 </g>
</svg>
