<svg xmlns:rdf="http://www.w3.org/1999/02/22-rdf-syntax-ns#" xmlns="http://www.w3.org/2000/svg" height="300" width="300" version="1.1" xmlns:cc="http://creativecommons.org/ns#" xmlns:dc="http://purl.org/dc/elements/1.1/" viewBox="0 0 300 300">
 <title>CircuiTikZ</title>
 <g transform="translate(0 -752.36)">
  <g transform="matrix(14.999 0 0 14.999 -621.04 -1012.6)">
   <path style="stroke:#000;stroke-miterlimit:10;stroke-width:.14058;fill:none" d="m41.404 129.02h0.07028m-0.07028 0h4.4001m11.201 0h4.4001m-0.07028 0h0.07028"/>
   <path style="stroke-linejoin:bevel;stroke:#000;stroke-miterlimit:10;stroke-width:.28116;fill:none" d="m45.664 129.08c0-1.1603 0.64354-2.1001 1.4359-2.1001 0.79237 0 1.4345 0.93982 1.4345 2.1001 0-1.1603 0.64354-2.1001 1.4359-2.1001 0.79237 0 1.4345 0.93982 1.4345 2.1001 0-1.1603 0.64217-2.1001 1.4359-2.1001 0.79237 0 1.4345 0.93982 1.4345 2.1001 0-1.1603 0.64217-2.1001 1.4359-2.1001 0.79237 0 1.4345 0.93982 1.4345 2.1001"/>
   <path style="stroke-linejoin:bevel;stroke:#000;stroke-miterlimit:10;stroke-width:.28116;fill:none" d="m49.165 130.42 3.7951-4.7446"/>
   <path d="m53.645 124.82c-0.35691 0.29903-1.0142 0.82682-1.6771 0.99908 0.678-0.0427 0.96325 0.18465 1.0707 0.85576 0.02067-0.68489 0.39136-1.4414 0.60634-1.8548z"/>
  </g>
 </g>
</svg>
