<?xml version="1.0" encoding="UTF-8" standalone="no"?>
<!-- Created with Inkscape (http://www.inkscape.org/) -->

<svg
   xmlns:dc="http://purl.org/dc/elements/1.1/"
   xmlns:cc="http://creativecommons.org/ns#"
   xmlns:rdf="http://www.w3.org/1999/02/22-rdf-syntax-ns#"
   xmlns:svg="http://www.w3.org/2000/svg"
   xmlns="http://www.w3.org/2000/svg"
   xmlns:sodipodi="http://sodipodi.sourceforge.net/DTD/sodipodi-0.dtd"
   xmlns:inkscape="http://www.inkscape.org/namespaces/inkscape"
   width="210mm"
   height="297mm"
   viewBox="0 0 210 297"
   version="1.1"
   id="svg10057"
   inkscape:version="0.92.1 r15371"
   sodipodi:docname="variable_american_inductor.svg">
  <defs
     id="defs10051" />
  <sodipodi:namedview
     id="base"
     pagecolor="#ffffff"
     bordercolor="#666666"
     borderopacity="1.0"
     inkscape:pageopacity="0.0"
     inkscape:pageshadow="2"
     inkscape:zoom="0.35"
     inkscape:cx="-131.42857"
     inkscape:cy="560"
     inkscape:document-units="mm"
     inkscape:current-layer="layer1"
     showgrid="false"
     inkscape:window-width="1920"
     inkscape:window-height="986"
     inkscape:window-x="-11"
     inkscape:window-y="-11"
     inkscape:window-maximized="1" />
  <metadata
     id="metadata10054">
    <rdf:RDF>
      <cc:Work
         rdf:about="">
        <dc:format>image/svg+xml</dc:format>
        <dc:type
           rdf:resource="http://purl.org/dc/dcmitype/StillImage" />
        <dc:title></dc:title>
      </cc:Work>
    </rdf:RDF>
  </metadata>
  <g
     inkscape:label="Layer 1"
     inkscape:groupmode="layer"
     id="layer1">
    <path
       inkscape:connector-curvature="0"
       id="path1114"
       d="m 41.404339,129.02285 h 0.07028 m -0.07028,0 h 4.400074 m 11.200695,0 h 4.400077 m -0.07028,0 h 0.07028"
       style="fill:none;stroke:#000000;stroke-width:0.14058194;stroke-linecap:butt;stroke-linejoin:miter;stroke-miterlimit:10;stroke-opacity:1" />
    <path
       inkscape:connector-curvature="0"
       id="path1116"
       d="m 45.663856,129.07935 c 0,-1.16031 0.643544,-2.10013 1.435915,-2.10013 0.79237,0 1.434539,0.93982 1.434539,2.10013 0,-1.16031 0.64354,-2.10013 1.435915,-2.10013 0.79237,0 1.434536,0.93982 1.434536,2.10013 0,-1.16031 0.642168,-2.10013 1.435918,-2.10013 0.792371,0 1.434536,0.93982 1.434536,2.10013 0,-1.16031 0.642168,-2.10013 1.435918,-2.10013 0.792371,0 1.434536,0.93982 1.434536,2.10013"
       style="fill:none;stroke:#000000;stroke-width:0.28116387;stroke-linecap:butt;stroke-linejoin:bevel;stroke-miterlimit:10;stroke-opacity:1" />
    <path
       inkscape:connector-curvature="0"
       id="path1118"
       d="m 49.165451,130.42293 3.795116,-4.74458"
       style="fill:none;stroke:#000000;stroke-width:0.28116387;stroke-linecap:butt;stroke-linejoin:bevel;stroke-miterlimit:10;stroke-opacity:1" />
    <path
       inkscape:connector-curvature="0"
       id="path1120"
       d="m 53.645453,124.82259 c -0.356912,0.29903 -1.014236,0.82682 -1.677074,0.99908 0.677997,-0.0427 0.96325,0.18465 1.070737,0.85576 0.02067,-0.68489 0.391362,-1.44143 0.606337,-1.85484 z m 0,0"
       style="fill:#000000;fill-opacity:1;fill-rule:nonzero;stroke:none;stroke-width:0.35277778" />
  </g>
</svg>
