<svg xmlns:rdf="http://www.w3.org/1999/02/22-rdf-syntax-ns#" xmlns="http://www.w3.org/2000/svg" height="300" width="300" version="1.1" xmlns:cc="http://creativecommons.org/ns#" xmlns:dc="http://purl.org/dc/elements/1.1/" viewBox="0 0 300 300">
 <title>CircuiTikZ</title>
 <g transform="translate(0 -752.36)">
  <g transform="matrix(14.999 0 0 14.999 -1369.4 -2758.7)">
   <path style="stroke:#000;stroke-miterlimit:10;stroke-width:.14058;fill:none" d="m91.297 244.12h0.07028m-0.07028 0h4.4001m11.201 0h4.4001m-0.0703 0h0.0703"/>
   <path style="stroke-linejoin:bevel;stroke:#000;stroke-miterlimit:10;stroke-width:.28116;fill:none" d="m95.557 244.12 1.0859-2.1001 1.8907 4.2003 1.8893-4.2003 1.8907 4.2003 1.8907-4.2003 1.8893 4.2003 0.94534-2.1001"/>
   <path style="stroke-linejoin:bevel;stroke:#000;stroke-miterlimit:10;stroke-width:.28116;fill:none" d="m103.59 239.92-4.0638 7.4359"/>
   <path d="m99.002 248.32c0.30041-0.35828 0.85714-0.99356 1.4814-1.2788-0.66146 0.15986-0.98254-0.0152-1.2058-0.6587 0.09784 0.67938-0.13643 1.491-0.27561 1.9375z"/>
  </g>
 </g>
</svg>
