<svg xmlns:rdf="http://www.w3.org/1999/02/22-rdf-syntax-ns#" xmlns="http://www.w3.org/2000/svg" height="300" width="300" version="1.1" xmlns:cc="http://creativecommons.org/ns#" xmlns:dc="http://purl.org/dc/elements/1.1/" viewBox="0 0 300 300">
 <title>CircuiTikZ</title>
 <g transform="translate(0 -752.36)">
  <g transform="matrix(14.999 0 0 14.999 -1233.3 -853.81)">
   <path style="stroke:#000;stroke-miterlimit:10;stroke-width:.14058;fill:none" d="m82.226 117.08h0.07028m-0.07028 0h5.1001m9.8006 0h5.1001m-0.0703 0h0.0703"/>
   <path style="stroke:#000;stroke-miterlimit:10;stroke-width:.28116;fill:none" d="m97.126 117.08c0-2.7065-2.1938-4.9003-4.9003-4.9003s-4.9003 2.1938-4.9003 4.9003 2.1938 4.9003 4.9003 4.9003 4.9003-2.1938 4.9003-4.9003z"/>
   <path style="stroke:#000;stroke-miterlimit:10;stroke-width:.14058;fill:none" d="m89.776 117.08c0.38998-0.61323 0.77859-1.2251 1.2251-1.2251 0.44786 0 0.83509 0.61184 1.2251 1.2251 0.38998 0.61185 0.77859 1.2251 1.2251 1.2251 0.44786 0 0.83509-0.61323 1.2251-1.2251"/>
  </g>
 </g>
</svg>
