<?xml version="1.0" encoding="UTF-8" standalone="no"?>
<!-- Created with Inkscape (http://www.inkscape.org/) -->

<svg
   xmlns:dc="http://purl.org/dc/elements/1.1/"
   xmlns:cc="http://creativecommons.org/ns#"
   xmlns:rdf="http://www.w3.org/1999/02/22-rdf-syntax-ns#"
   xmlns:svg="http://www.w3.org/2000/svg"
   xmlns="http://www.w3.org/2000/svg"
   xmlns:sodipodi="http://sodipodi.sourceforge.net/DTD/sodipodi-0.dtd"
   xmlns:inkscape="http://www.inkscape.org/namespaces/inkscape"
   width="210mm"
   height="297mm"
   viewBox="0 0 210 297"
   version="1.1"
   id="svg122015"
   inkscape:version="0.92.1 r15371"
   sodipodi:docname="voltmeter.svg">
  <defs
     id="defs122009" />
  <sodipodi:namedview
     id="base"
     pagecolor="#ffffff"
     bordercolor="#666666"
     borderopacity="1.0"
     inkscape:pageopacity="0.0"
     inkscape:pageshadow="2"
     inkscape:zoom="0.35"
     inkscape:cx="-560"
     inkscape:cy="560"
     inkscape:document-units="mm"
     inkscape:current-layer="layer1"
     showgrid="false"
     inkscape:window-width="1920"
     inkscape:window-height="986"
     inkscape:window-x="-11"
     inkscape:window-y="-11"
     inkscape:window-maximized="1" />
  <metadata
     id="metadata122012">
    <rdf:RDF>
      <cc:Work
         rdf:about="">
        <dc:format>image/svg+xml</dc:format>
        <dc:type
           rdf:resource="http://purl.org/dc/dcmitype/StillImage" />
        <dc:title></dc:title>
      </cc:Work>
    </rdf:RDF>
  </metadata>
  <g
     inkscape:label="Layer 1"
     inkscape:groupmode="layer"
     id="layer1">
    <path
       inkscape:connector-curvature="0"
       id="path100625"
       d="m 77.690053,145.78467 h 0.07028 m -0.07028,0 h 5.800161 m 8.400521,0 h 5.800164 m -0.07028,0 h 0.07028"
       style="fill:none;stroke:#000000;stroke-width:0.14058194;stroke-linecap:butt;stroke-linejoin:miter;stroke-miterlimit:10;stroke-opacity:1" />
    <path
       inkscape:connector-curvature="0"
       id="path100627"
       d="m 83.490214,145.78467 h 0.420303 m 7.559919,0 h 0.420299"
       style="fill:none;stroke:#000000;stroke-width:0.14058194;stroke-linecap:butt;stroke-linejoin:miter;stroke-miterlimit:10;stroke-opacity:1" />
    <path
       inkscape:connector-curvature="0"
       id="path100629"
       d="m 91.470436,145.78467 c 0,-2.08773 -1.692233,-3.77996 -3.779961,-3.77996 -2.087725,0 -3.779958,1.69223 -3.779958,3.77996 0,2.08773 1.692233,3.77996 3.779958,3.77996 2.087728,0 3.779961,-1.69223 3.779961,-3.77996 z m 0,0"
       style="fill:none;stroke:#000000;stroke-width:0.28116387;stroke-linecap:butt;stroke-linejoin:miter;stroke-miterlimit:10;stroke-opacity:1" />
    <path
       inkscape:connector-curvature="0"
       id="path100631"
       d="m 83.490214,149.98493 7.506176,-7.50617"
       style="fill:none;stroke:#000000;stroke-width:0.14058194;stroke-linecap:butt;stroke-linejoin:miter;stroke-miterlimit:10;stroke-opacity:1" />
    <path
       inkscape:connector-curvature="0"
       id="path100633"
       d="m 91.890735,141.58441 c -0.314191,0.21497 -0.894345,0.49747 -1.367014,0.62149 l 0.745522,0.74553 c 0.124022,-0.47267 0.40652,-1.05283 0.621492,-1.36702"
       style="fill:#000000;fill-opacity:1;fill-rule:nonzero;stroke:none;stroke-width:0.35277778" />
    <g
       id="use100635"
       style="fill:#000000;fill-opacity:1"
       transform="matrix(0.09333912,0,0,0.09333912,86.163611,146.97586)">
      <path
         inkscape:connector-curvature="0"
         id="path131597"
         d="m 8.390625,-6.375 v -0.46875 l -1.125,0.03125 c -0.390625,0 -0.921875,0 -1.296875,-0.03125 V -6.375 c 0.078125,0 0.875,0 0.875,0.125 0,0.046875 -0.03125,0.09375 -0.046875,0.125 L 4.78125,-1.59375 2.65625,-6.375 h 0.9375 v -0.46875 c -0.375,0.03125 -1.328125,0.03125 -1.765625,0.03125 -0.375,0 -1.21875,0 -1.5625,-0.03125 V -6.375 h 0.90625 l 2.75,6.203125 c 0.078125,0.171875 0.125,0.25 0.40625,0.25 0.15625,0 0.28125,0 0.390625,-0.234375 l 2.65625,-6 C 7.4375,-6.28125 7.484375,-6.375 8.203125,-6.375 Z m 0,0"
         style="stroke:none" />
    </g>
  </g>
</svg>
