<svg xmlns:rdf="http://www.w3.org/1999/02/22-rdf-syntax-ns#" xmlns="http://www.w3.org/2000/svg" height="300" width="300" version="1.1" xmlns:cc="http://creativecommons.org/ns#" xmlns:dc="http://purl.org/dc/elements/1.1/" viewBox="0 0 300 300">
 <title>CircuiTikZ</title>
 <g transform="translate(0 -752.36)">
  <g transform="matrix(14.999 0 0 14.999 -1165.3 -1284.7)">
   <path style="stroke:#000;stroke-miterlimit:10;stroke-width:.14058;fill:none" d="m77.69 145.78h0.07028m-0.07028 0h5.8002m8.4005 0h5.8002m-0.07028 0h0.07028"/>
   <path style="stroke:#000;stroke-miterlimit:10;stroke-width:.14058;fill:none" d="m83.49 145.78h0.4203m7.5599 0h0.4203"/>
   <path style="stroke:#000;stroke-miterlimit:10;stroke-width:.28116;fill:none" d="m91.47 145.78c0-2.0877-1.6922-3.78-3.78-3.78-2.0877 0-3.78 1.6922-3.78 3.78 0 2.0877 1.6922 3.78 3.78 3.78 2.0877 0 3.78-1.6922 3.78-3.78z"/>
   <path style="stroke:#000;stroke-miterlimit:10;stroke-width:.14058;fill:none" d="m83.49 149.98 7.5062-7.5062"/>
   <path d="m91.891 141.58c-0.31419 0.21497-0.89434 0.49747-1.367 0.62149l0.74552 0.74553c0.12402-0.47267 0.40652-1.0528 0.62149-1.367"/>
   <g transform="matrix(.093339 0 0 .093339 86.164 146.98)">
    <path d="m8.3906-6.375v-0.46875l-1.125 0.03125c-0.39062 0-0.92188 0-1.2969-0.03125v0.46875c0.078125 0 0.875 0 0.875 0.125 0 0.046875-0.03125 0.09375-0.046875 0.125l-2.0156 4.5312-2.125-4.7812h0.9375v-0.46875c-0.375 0.03125-1.3281 0.03125-1.7656 0.03125-0.375 0-1.2188 0-1.5625-0.03125v0.46875h0.90625l2.75 6.2031c0.078125 0.17188 0.125 0.25 0.40625 0.25 0.15625 0 0.28125 0 0.39062-0.23438l2.6562-6c0.0626-0.1248 0.1095-0.2186 0.8282-0.2186z"/>
   </g>
  </g>
 </g>
</svg>
