<?xml version="1.0" encoding="UTF-8" standalone="no"?>
<svg xmlns:rdf="http://www.w3.org/1999/02/22-rdf-syntax-ns#" xmlns="http://www.w3.org/2000/svg" height="410.67401" width="362.14001" version="1.0" xmlns:cc="http://creativecommons.org/ns#" xmlns:dc="http://purl.org/dc/elements/1.1/" viewBox="0 0 362.14002 410.67401">
<path d="m361.946 11.5h-0.251c0.287-0.248 0.445-0.498 0.445-0.75 0-5.937-81.067-10.75-181.07-10.75-100.002 0-181.07 4.813-181.07 10.75 0 0.252 0.158 0.502 0.446 0.75h-0.446l160.474 148.535v168.073l-103.962 74.32h0.255c-0.5 0.27-0.765 0.544-0.765 0.821 0 4.102 55.996 7.425 125.07 7.425 69.075 0 125.07-3.323 125.07-7.425 0-0.277-0.266-0.552-0.765-0.821h0.06l-103.962-74.32v-168.072l160.471-148.536zm-175.71 119.639c-2.895 2.679-7.631 2.679-10.526 0l-77.535-71.767996c-2.895-2.679-2.036-4.872 1.909-4.872h161.779c3.944 0 4.804 2.192 1.909 4.872l-77.536 71.767996z"/>
</svg>
