<?xml version="1.0" encoding="UTF-8" standalone="no"?>
<svg xmlns:rdf="http://www.w3.org/1999/02/22-rdf-syntax-ns#" xmlns="http://www.w3.org/2000/svg" height="500.92648" width="429.39111" version="1.0" xmlns:cc="http://creativecommons.org/ns#" xmlns:dc="http://purl.org/dc/elements/1.1/" viewBox="0 0 429.39112 500.92648">
<path opacity=".1" d="m35.540582 40.920279 119.71194-21.335331 132.2871 13.796881 8.04386 363.39513 18.58841 29.06501s-60.31626 57.03706-152.88947 58.17487c-92.573208 1.13781-145.80436-56.79025-145.80436-56.79025l23.48151-35.95131-3.41899-350.355z"/>
<path d="m172.29531 0.0000087843644c-5.90238 0.00099999564-11.77742 0.072399996-17.625 0.201172-41.02545 0.90342402-82.826248 3.699698-124.53516 17.960937a17.50175 17.50175 0 0 0 -11.835935 16.783203l4.361327 342.05274a15.0015 15.0015 0 0 0 -2.085936 4.92383c-13.262522 12.02137-20.726386 27.62715-20.572266 43.91797 0.1334 14.1006 7.5901 26.43049 17.50586 35.59375 9.915762 9.16325 22.636192 16.18564 37.544922 21.96289 29.81747 11.5545 68.739658 17.91726 111.60547 17.51172 42.86587-0.40554 81.64244-7.50297 111.21875-19.62109 14.78816-6.05905 27.36675-13.32297 37.09961-22.67383 9.73286-9.35081 16.94584-21.81846 16.8125-35.91211-0.15755-16.6604-7.82106-33.08142-22.84961-45.03321a15.0015 15.0015 0 0 0 -0.13672 -0.21289l1.80078 1.28907 0.22461-36.94336 61.96484-6.91993a12.435991 12.435991 0 0 0 1.10938 -0.17578c7.49102-1.53069 15.10283-4.17501 21.42187-9.9082 6.16671-5.59498 10.10128-14.19671 10.69922-23.58594l23.2793-194.08593a12.435991 12.435991 0 0 0 0.0781 -1.97266c-0.37556-9.492743-3.32875-18.619213-9.4414-25.521493-6.11266-6.90225-14.75239-10.99194-24.26367-12.80468a12.435991 12.435991 0 0 0 -2.47266 -0.21875 12.435991 12.435991 0 0 0 -0.38281 0.01l-80.34375 3.41407 0.22851-37.65821a17.50175 17.50175 0 0 0 -12.8828 -16.986568c-43.57755-11.917492-86.21069-15.393797-127.52734-15.386718zm-1.61133 35.003906c35.56884-0.07029 71.13805 2.570586 106.9375 10.935547l-2.05469 339.16406c-24.13328 20.08777-70.12003 30.38763-108.68945 31.63478-38.8456 1.2561-82.913488-6.77576-109.08008-29.30469l-4.335938-339.85353c32.56968-9.238529 66.449308-11.606277 101.97852-12.388668 5.08193-0.111909 10.16288-0.177458 15.24414-0.1875zm214.37891 67.951175c4.27204 1.00301 6.54823 2.36357 7.7207 3.6875 1.21772 1.37501 2.18017 3.47429 2.46094 7.74414l-20.9004 176.97657a15.0015 15.0015 0 0 0 -0.0879 1.07226c-0.18191 3.97066-0.75353 4.29359-1.77539 5.22071-0.99689 0.90447-3.68284 2.29754-8.20507 3.26367l-53.23829 6.51953 1.21875-201.1543 72.80665-3.33008zm-93.23047 308.03125c3.01653 4.84807 4.94003 10.2473 4.95703 12.04493 0.0211 2.23441-0.91722 5.4023-6.06055 10.34375-5.14334 4.94146-14.1669 10.62748-26.12109 15.52539-23.90837 9.79583-59.18304 16.63989-98.2793 17.00976-39.09619 0.36988-74.517788-5.80519-98.628908-15.14844-12.05556-4.67162-21.19474-10.18831-26.4375-15.0332s-6.24064-7.99324-6.26171-10.2207c-0.0185-1.95574 1.99921-7.54617 5.73046-12.94336 34.69057 28.80273 85.070258 35.51775 127.11524 34.1582 40.81331-1.31973 90.75039-8.87925 123.98633-35.73633z"/>
<path opacity=".75" d="m164.74216 22.191908c-85.441598 0-132.63699 21.786771-132.63699 26.859331 0 0.21533 0.10677 0.41537 0.35283 0.62725h-0.35283l-5.55379 108.31283h18.58344l-2.7062-76.485163c81.23408 56.309484 134.6429-7.658629 241.05961-2.156179l0.067 78.641343h19.18158l-7.72041-114.93031h-0.23522c0.24521-0.21188 0.39203-0.41193 0.39203-0.62725 0-5.07256-44.98869-20.241851-130.43116-20.241851h0.00006z"/>
</svg>
