<?xml version="1.0" encoding="UTF-8" standalone="no"?>
<svg
   xmlns:dc="http://purl.org/dc/elements/1.1/"
   xmlns:cc="http://creativecommons.org/ns#"
   xmlns:rdf="http://www.w3.org/1999/02/22-rdf-syntax-ns#"
   xmlns:svg="http://www.w3.org/2000/svg"
   xmlns="http://www.w3.org/2000/svg"
   xmlns:sodipodi="http://sodipodi.sourceforge.net/DTD/sodipodi-0.dtd"
   xmlns:inkscape="http://www.inkscape.org/namespaces/inkscape"
   version="1.0"
   viewBox="0 0 469.78888 356.46317"
   id="svg30"
   inkscape:version="0.91 r"
   sodipodi:docname="cafe.svg"
   width="469.78888"
   height="356.46317">
  <metadata
     id="metadata40">
    <rdf:RDF>
      <cc:Work
         rdf:about="">
        <dc:format>image/svg+xml</dc:format>
        <dc:type
           rdf:resource="http://purl.org/dc/dcmitype/StillImage" />
        <dc:title></dc:title>
      </cc:Work>
    </rdf:RDF>
  </metadata>
  <defs
     id="defs38" />
  <sodipodi:namedview
     pagecolor="#ffffff"
     bordercolor="#666666"
     borderopacity="1"
     objecttolerance="10"
     gridtolerance="10"
     guidetolerance="10"
     inkscape:pageopacity="0"
     inkscape:pageshadow="2"
     inkscape:window-width="640"
     inkscape:window-height="480"
     id="namedview36"
     showgrid="false"
     fit-margin-top="0"
     fit-margin-left="0"
     fit-margin-right="0"
     fit-margin-bottom="0"
     inkscape:zoom="1.2643918"
     inkscape:cx="40.979063"
     inkscape:cy="181.77897"
     inkscape:current-layer="svg30" />
  <path
     d="M 13.689395,8.297215e-5 A 9.3121141,9.3121141 0 0 0 4.4159576,8.109463 c 0,0 -11.237727,85.49269 2.140625,171.685547 6.6891764,43.09642 19.4448234,86.62668 43.8203104,120.12109 24.28676,33.37247 61.014707,56.27791 111.681637,56.25195 4.87925,0.26836 9.52427,0.34032 13.95508,0.26953 4.43081,0.0708 9.07583,-0.001 13.95508,-0.26953 50.66694,0.026 87.39488,-22.87948 111.68164,-56.25195 2.02319,-2.78007 3.95991,-5.63452 5.82617,-8.54688 60.05725,-5.13614 101.15046,-29.27287 126.03906,-58.56445 27.63687,-32.52602 35.75658,-68.7553 36.24024,-92.5332 0.45048,-22.15337 -3.67631,-47.526867 -13.97852,-70.144527 -5.1511,-11.30884 -11.91255,-22.04689 -21.70312,-30.72266 -9.79058,-8.67577 -23.40475,-14.97266 -38.21485,-14.97266 -16.74585,0 -32.17841,4.65665 -45.73632,10.53711 -1.19628,-16.65974 -2.51172,-26.85937 -2.51172,-26.85937 A 9.3121141,9.3121141 0 0 0 338.33978,8.297215e-5 L 176.01361,0.66805297 13.689393,8.297215e-5 Z M 395.85931,70.058683 c 2.96184,0 4.71441,0.6242 7.95313,3.49414 3.23872,2.86994 7.1691,8.30224 10.44141,15.48633 6.54461,14.368167 10.1904,35.274467 9.88476,50.304677 -0.27268,13.40571 -6.14392,41.2618 -25.39453,63.91797 -13.92398,16.38723 -34.62049,31.43029 -68.07227,38.7793 6.81046,-20.03937 11.53114,-41.19327 14.79883,-62.24609 5.17956,-33.37041 6.66227,-66.61178 6.54297,-94.851567 0.38935,-0.21402 0.74331,-0.41823 1.14258,-0.63476 14.09465,-7.64392 32.20957,-14.25 42.70312,-14.25 z"
     id="path34"
     inkscape:connector-curvature="0" />
</svg>
