<?xml version="1.0" encoding="UTF-8" standalone="no"?>
<svg xmlns:rdf="http://www.w3.org/1999/02/22-rdf-syntax-ns#" xmlns="http://www.w3.org/2000/svg" version="1.0" xmlns:cc="http://creativecommons.org/ns#" xmlns:dc="http://purl.org/dc/elements/1.1/" viewBox="0 0 369.37891 507.35352">
<path opacity=".98512196" d="m219.50976 0c-10.04705 0-18.34961 8.302551-18.34961 18.34961 0 10.047057 8.30256 18.351562 18.34961 18.351562 4.4722 0 8.57012-1.223795 13.20899-2.826172v14.080078c-6.42375 4.123914-11.23103 10.585094-14.52735 17.177735-2.79448 5.588973-4.88021 11.795043-6.25781 18.466803l-20.49219-0.11524-13.85547-0.0781c-42.52082-0.66439-70.85708 23.125274-81.59961 45.953124-10.74252 22.82786-8.83398 44.72071-8.83398 44.72071l49.88867-3.32618s-0.26163-10.6552 4.18555-20.10546 8.66031-17.66864 35.57812-17.24805l0.125 0.002 14.22852 0.0801 23.19336 0.13086c1.08352 3.28333 2.3596 6.42037 3.83984 9.38086 5.48804 10.97608 15.12897 21.63867 29.52735 21.63867s24.0393-10.66259 29.52734-21.63867c1.42374-2.84748 2.65985-5.857 3.7168-9.00391l88.13281 0.49805 0.2832-50.000004-85.79492-0.48438c-1.37662-6.82481-3.48731-13.16993-6.33789-18.871093-3.29632-6.592641-8.1036-13.053821-14.52734-17.177735v-14.208984c4.78762 1.663233 8.98966 2.955078 13.57617 2.955078 10.04705 0 18.34961-8.304505 18.34961-18.351562 0-10.047061-8.30256-18.34961-18.34961-18.34961a7.50075 7.50075 0 0 0 -0.28906 0.0059c-5.52337 0.212085-10.47938 2.21764-16.9004 4.466796-0.86662 0.303562-1.7623 0.637569-2.64453 0.953125a15.0015 15.0015 0 0 0 -8.96679 -2.830078 15.0015 15.0015 0 0 0 -8.41211 2.736328c-0.794-0.283515-1.6019-0.585834-2.38281-0.859375-6.42102-2.249156-11.37898-4.254709-16.90235-4.466796a7.50075 7.50075 0 0 0 -0.28711 -0.0059zm-105.70898 224.10743c-62.85061 0-113.80078 3.02449-113.80078 6.75586 0 0.15838 0.10025 0.31679 0.28125 0.47266h-0.28125l35.51757 270.83398h0.16016c-0.31425 0.16969-0.48047 0.34349-0.48047 0.51758 0 2.57808 35.1929 4.66601 78.60547 4.66601 43.41319 0 78.60547-2.08793 78.60547-4.66601 0-0.17409-0.16686-0.34852-0.48047-0.51758l35.55273-270.83398h-0.1582c0.18038-0.15587 0.28125-0.31428 0.28125-0.47266 0-3.73137-50.95149-6.75586-113.80273-6.75586zm87.36523 22.04883-32.04297 236.21289c-1.81948 1.68373-109.73519 0.89467-111.55468-0.78906l-33.73829-233.84571c57.5856 0.1919 99.05611 3.05411 177.33594-1.57812z"/>
<path opacity=".1" d="m14.46874 243.31331 194.88741 1.57804-31.56071 249.54928-133.34402 1.57804-29.98268-252.70536z"/>
</svg>
