<?xml version="1.0" encoding="UTF-8" standalone="no"?>
<svg xmlns:rdf="http://www.w3.org/1999/02/22-rdf-syntax-ns#" xmlns="http://www.w3.org/2000/svg" version="1.0" xmlns:cc="http://creativecommons.org/ns#" xmlns:dc="http://purl.org/dc/elements/1.1/" viewBox="0 0 469.95761 412.9675">
<path d="m451.74373 0-31.13929 109.85696h-158.60061l38.18462 303.11055h129.80977l38.77621-303.11055h-29.36451l30.54769-104.56847-18.21388-5.288488zm-208.54537 286.67146c3.13097-27.41631-17.62256-42.29573-62.26064-44.63836h-107.50852c-44.638431 2.34263-65.589161 17.22205-62.852234 44.63836h232.6214zm-232.62139 82.2493c-2.736927 27.40448 18.213803 42.08672 62.85223 44.04675h107.50852c44.63808-1.96003 65.39161-16.64227 62.26064-44.04675h-232.62139zm222.63602-61.09538h-213.24226c-5.473779 0.00009-10.170663 1.95712-14.090651 5.8711-3.920107 3.91415-5.880123 8.41683-5.880079 13.50804-0.000043999259 5.88013 1.959972 10.6786 5.880078 14.39541 3.919988 3.71693 8.616872 5.57536 14.090651 5.57532h213.24226c5.4854 0.00004 10.18526-1.85839 14.09963-5.57532 3.91377-3.71681 5.87081-8.51528 5.8711-14.39541-0.00029-5.09121-1.95733-9.59389-5.8711-13.50804-3.91437-3.91398-8.61423-5.87101-14.09963-5.8711z"/>
</svg>
