<?xml version="1.0" encoding="UTF-8" standalone="no"?>
<svg xmlns:rdf="http://www.w3.org/1999/02/22-rdf-syntax-ns#" xmlns="http://www.w3.org/2000/svg" version="1.0" xmlns:cc="http://creativecommons.org/ns#" xmlns:dc="http://purl.org/dc/elements/1.1/" viewBox="0 0 453.13281 514.78827">
<path opacity=".4" d="m453.1328 423.03035a388.43549 514.76617 0 0 1 -453.1328 -9.92985l231.78262-413.0784z"/>
<path opacity=".4" d="m446.40807 408.52626a373.97637 497.14276 0 0 1 -436.26542 -9.58989l223.15477-398.93637z"/>
<path opacity=".4" d="m186.63862 81.035-12.95898 23.51758-12.95899 23.51758a24.550266 26.851852 28.856326 0 0 25.10157 -1.49805 24.550266 26.851852 28.856326 0 0 12.95898 -23.51758 24.550266 26.851852 28.856326 0 0 -12.14258 -22.01953zm77.58008 64.73242a26.851852 24.550266 0 0 0 -26.85156 24.55078 26.851852 24.550266 0 0 0 26.85156 24.54883 26.851852 24.550266 0 0 0 26.85352 -24.54883 26.851852 24.550266 0 0 0 -26.85352 -24.55078zm90.375 87.78907a26.851852 24.550266 63.121072 0 0 -12.89453 21.58789 26.851852 24.550266 63.121072 0 0 12.14062 23.95117 26.851852 24.550266 63.121072 0 0 25.03321 2.36328l-12.14063-23.95117-12.13867-23.95117zm-177.06641 5.80859a26.851852 24.550266 0 0 0 -26.85351 24.55078 26.851852 24.550266 0 0 0 26.85351 24.55078 26.851852 24.550266 0 0 0 26.85157 -24.55078 26.851852 24.550266 0 0 0 -26.85157 -24.55078zm-120.47265 71.10156-11.56446 24.23438-13.568356 23.15039a24.550266 26.851852 25.510161 0 0 25.644536 -0.94727 24.550266 26.851852 25.510161 0 0 12.91601 -24.34961 24.550266 26.851852 25.510161 0 0 -13.42773 -22.08789zm214.83593 4.08399a26.851852 24.550266 0 0 0 -26.85156 24.55078 26.851852 24.550266 0 0 0 26.85156 24.54883 26.851852 24.550266 0 0 0 26.85352 -24.54883 26.851852 24.550266 0 0 0 -26.85352 -24.55078zm-116.61328 52.16992a26.851852 24.550266 0 0 0 -26.85156 24.54883 26.851852 24.550266 0 0 0 26.85156 24.55078 26.851852 24.550266 0 0 0 26.85157 -24.55078 26.851852 24.550266 0 0 0 -26.85157 -24.54883zm179.52344 35.29101a26.851852 24.550266 0 0 0 -26.85156 24.54883 26.851852 24.550266 0 0 0 26.85156 24.55078 26.851852 24.550266 0 0 0 26.85352 -24.55078 26.851852 24.550266 0 0 0 -26.85352 -24.54883z"/>
</svg>
