<?xml version="1.0" encoding="UTF-8" standalone="no"?>
<svg xmlns:rdf="http://www.w3.org/1999/02/22-rdf-syntax-ns#" xmlns="http://www.w3.org/2000/svg" height="450.67401" width="362.14001" version="1.0" xmlns:cc="http://creativecommons.org/ns#" xmlns:dc="http://purl.org/dc/elements/1.1/" viewBox="0 0 362.14002 450.67401">
<path d="m361.946 11.5h-0.251c0.287-0.248 0.445-0.498 0.445-0.75 0-5.937-81.067-10.75-181.07-10.75-100.002 0-181.07 4.813-181.07 10.75 0 0.252 0.158 0.502 0.446 0.75h-0.446l56.512 430.928h0.255c-0.5 0.27-0.765 0.544-0.765 0.821 0 4.102 55.996 7.425 125.07 7.425 69.075 0 125.07-3.323 125.07-7.425 0-0.277-0.266-0.552-0.765-0.821l56.569-430.928zm-92.85286 399.42255c-2.895 2.679-174.60069 1.42359-177.49569-1.25541l-53.68219-340.25285c95.07744 65.905366 157.60824-8.95098 282.15977-2.51082l-50.98189 344.01908z"/>
<path opacity=".1" d="m23.02136 52.834074 310.08658 2.51082-50.21645 371.60173-212.1645 2.51083-47.70563-376.62338z"/>
</svg>
