<?xml version="1.0" encoding="UTF-8" standalone="no"?>
<svg xmlns:rdf="http://www.w3.org/1999/02/22-rdf-syntax-ns#" xmlns="http://www.w3.org/2000/svg" height="459.43359" width="400.72852" version="1.0" xmlns:cc="http://creativecommons.org/ns#" xmlns:dc="http://purl.org/dc/elements/1.1/" viewBox="0 0 400.72852 459.4336">
<path d="m93.849605 0c-32.014 0-93.849605 81.133053-93.849605 155.24805 0 59.646 27.223235 110.17462 64.865235 127.64062l-7.79297 176.54492h73.552725l-7.79101-176.54492c37.643-17.466 64.86523-67.99462 64.86523-127.64062 0-74.114997-61.83461-155.24805-93.849605-155.24805zm203.69726 1.509765c-3.875 0-7.01562 3.140625-7.01562 7.015625l-5.13282 204.78906h-19.83398l3.25977-202.78906c0-3.875-3.14257-7.015625-7.01757-7.015625h-4.60547c-3.875 0-7.01758 3.140625-7.01758 7.015625l-10.17383 202.78906c0 59.646 13.71447 82.10822 51.35547 99.57422l-7.79102 146.54492h73.55469l-7.78906-146.54492c37.642-17.466 51.38867-39.92822 51.38867-99.57422l-9.7793-202.8125c0-3.875-3.14353-7.017578-7.01953-7.017578h-4.60547c-3.873 0-7.01757 3.141578-7.01757 7.017578l3.25976 202.8125h-20.25781l-5.13281-204.78906c0-3.875-3.14158-7.015625-7.01758-7.015625h-5.99414c-3.874 0-7.01758 3.140625-7.01758 7.015625l2.77539 204.78906h-25.13672l2.77539-204.78906c0-3.875-3.14258-7.015625-7.01758-7.015625h-5.99609z"/>
</svg>
