<?xml version="1.0" encoding="UTF-8" standalone="no"?>
<svg xmlns:rdf="http://www.w3.org/1999/02/22-rdf-syntax-ns#" xmlns="http://www.w3.org/2000/svg" version="1.0" xmlns:cc="http://creativecommons.org/ns#" xmlns:dc="http://purl.org/dc/elements/1.1/" viewBox="0 0 233.27638 398.15561">
<path d="m116.37446 0.00131142a2.1293943 2.1293943 0 0 0 -1.86719 1.230469l-88.89453 191.75977a2.1293943 2.1293943 0 0 0 2.48828 2.95118l24.25781-6.56446-38.1875 59.92188a2.1293943 2.1293943 0 0 0 2.29492 3.21289l27.79883-6.70703-43.89844 64.65625a2.1293943 2.1293943 0 0 0 2.07618 3.30078l89.91015-13.47461v95.73828a2.1293943 2.1293943 0 0 0 2.12891 2.12891h21.95703a2.1293943 2.1293943 0 0 0 0.11523 -0.006 2.1293943 2.1293943 0 0 0 0.006 0 2.1293943 2.1293943 0 0 0 0.14453 0.006h21.95704a2.1293943 2.1293943 0 0 0 2.1289 -2.12891v-95.73828l90.04297 13.4746a2.1293943 2.1293943 0 0 0 2.07617 -3.30077l-43.89453-64.65039 27.65821 6.70116a2.1293943 2.1293943 0 0 0 2.32226 -3.17383l-36.3125-59.89259 22.45703 6.48634a2.1293943 2.1293943 0 0 0 2.52149 -2.94142l-89.02553-191.75974a2.1293943 2.1293943 0 0 0 -2.08008 -1.226563 2.1293943 2.1293943 0 0 0 -0.18164 -0.0039z"/>
</svg>
