<?xml version="1.0" encoding="UTF-8" standalone="no"?>
<svg xmlns:rdf="http://www.w3.org/1999/02/22-rdf-syntax-ns#" xmlns="http://www.w3.org/2000/svg" version="1.0" xmlns:cc="http://creativecommons.org/ns#" xmlns:dc="http://purl.org/dc/elements/1.1/" viewBox="0 0 375.46152 341.32416">
<defs>
<style type="text/css">.fil0 {fill:#EF7900}</style>
</defs>
<path d="m287.43291 0.00036911081a5.8277736 5.8277736 0 0 0 -5.76367 5.886724l-0.32812 83.39844a5.8277736 5.8277736 0 1 0 11.65429 0.0449l0.32813-83.39844a5.8277736 5.8277736 0 0 0 -5.89063 -5.9316439zm-45.2539 27.148444a5.8277736 5.8277736 0 0 0 -5.38086 8.08398l22.74414 56.36914a5.8277736 5.8277736 0 1 0 10.80859 -4.36132l-22.74609-56.36719a5.8277736 5.8277736 0 0 0 -5.42578 -3.72461zm94.63867 2.31445a5.8277736 5.8277736 0 0 0 -5.49805 3.3418l-26.37109 54.06055a5.8277736 5.8277736 0 1 0 10.47461 5.10937l26.37109-54.06055a5.8277736 5.8277736 0 0 0 -4.97656 -8.45117zm32.58399 20.99805a5.8277736 5.8277736 0 0 0 -3.98633 1.80469l-32.30469 32.96289a5.8277736 5.8277736 0 1 0 8.32422 8.1582l32.30273-32.96484a5.8277736 5.8277736 0 0 0 -4.33593 -9.96094zm-163.57813 0.98633a5.8277736 5.8277736 0 0 0 -4.05859 10.00586l31.97461 31.97461a5.8277736 5.8277736 0 1 0 8.24023 -8.24024l-31.97461-31.97461a5.8277736 5.8277736 0 0 0 -4.18164 -1.76562zm-118.39063 44.55273a5.8277736 5.8277736 0 0 0 -5.76367 5.886717l-0.32812 83.39844a5.8277736 5.8277736 0 1 0 11.65429 0.0449l0.32813-83.39844a5.8277736 5.8277736 0 0 0 -5.89063 -5.931637zm-45.2539 27.148437a5.8277736 5.8277736 0 0 0 -5.38086 8.08398l22.74414 56.36914a5.8277736 5.8277736 0 1 0 10.80859 -4.36132l-22.74609-56.36719a5.8277736 5.8277736 0 0 0 -5.42578 -3.72461zm94.638669 2.31445a5.8277736 5.8277736 0 0 0 -5.49805 3.3418l-26.37109 54.06055a5.8277736 5.8277736 0 1 0 10.47461 5.10937l26.37109-54.06055a5.8277736 5.8277736 0 0 0 -4.97656 -8.45117zm32.58399 20.99805a5.8277736 5.8277736 0 0 0 -3.98633 1.80469l-32.30469 32.96289a5.8277736 5.8277736 0 1 0 8.32422 8.1582l32.30273-32.96484a5.8277736 5.8277736 0 0 0 -4.33593 -9.96094zm-163.57813 0.98633a5.8277736 5.8277736 0 0 0 -4.05859 10.00586l31.97461 31.97461a5.8277736 5.8277736 0 1 0 8.24023 -8.24024l-31.97461-31.97461a5.8277736 5.8277736 0 0 0 -4.1816399 -1.76562zm185.60937 98.55273a5.8277736 5.8277736 0 0 0 -5.76367 5.88672l-0.32812 83.39844a5.8277736 5.8277736 0 1 0 11.65429 0.0449l0.32813-83.39844a5.8277736 5.8277736 0 0 0 -5.89063 -5.93164zm-45.2539 27.14844a5.8277736 5.8277736 0 0 0 -5.38086 8.08398l22.74414 56.36914a5.8277736 5.8277736 0 1 0 10.80859 -4.36132l-22.74609-56.36719a5.8277736 5.8277736 0 0 0 -5.42578 -3.72461zm94.63867 2.31445a5.8277736 5.8277736 0 0 0 -5.49805 3.3418l-26.37109 54.06055a5.8277736 5.8277736 0 1 0 10.47461 5.10937l26.37109-54.06055a5.8277736 5.8277736 0 0 0 -4.97656 -8.45117zm32.58399 20.99805a5.8277736 5.8277736 0 0 0 -3.98633 1.80469l-32.30469 32.96289a5.8277736 5.8277736 0 1 0 8.32422 8.1582l32.30273-32.96484a5.8277736 5.8277736 0 0 0 -4.33593 -9.96094zm-163.57813 0.98633a5.8277736 5.8277736 0 0 0 -4.05859 10.00586l31.97461 31.97461a5.8277736 5.8277736 0 1 0 8.24023 -8.24024l-31.97461-31.97461a5.8277736 5.8277736 0 0 0 -4.18164 -1.76562z"/>
</svg>
