<svg
    xmlns="http://www.w3.org/2000/svg"
    xmlns:rdf="http://www.w3.org/1999/02/22-rdf-syntax-ns#"
    xmlns:dc="http://purl.org/dc/elements/1.1/"
    xmlns:cc="http://creativecommons.org/ns#"
    version="1.1"
    style="fill:black;stroke:none">
    <title>Gnome Icons Theme [Apps Set]</title>
    <desc>Purpose of this icon theme is to extend the base icon theme that follows the Tango style guidelines for specific purposes. This would include OSD messages, panel system/notification area, and possibly menu icons.
    </desc>
    <metadata>
        <rdf:RDF>
            <cc:Work rdf:about="">
                <dc:format>image/svg+xml</dc:format>
                <dc:type rdf:resource="http://purl.org/dc/dcmitype/StillImage"/>
                <dc:title>Gnome Icons Theme [Apps Set]</dc:title>
                <dc:date>2015-06-28</dc:date>
                <dc:creator>
                    <cc:Agent>
                        <dc:title>Gnome</dc:title>
                    </cc:Agent>
                </dc:creator>
                <dc:rights>
                    <cc:Agent>
                        <dc:title>Open Source</dc:title>
                    </cc:Agent>
                </dc:rights>
                <dc:language>English</dc:language>

                <dc:source>https://github.com/GNOME/gnome-icon-theme-symbolic</dc:source>
                <dc:description>Purpose of this icon theme is to extend the base icon theme that follows the Tango style guidelines for specific purposes. This would include OSD messages, panel system/notification area, and possibly menu icons.</dc:description>
            </cc:Work>
        </rdf:RDF>
    </metadata>
    <defs>

        <symbol>
            <title>Accesories Calculator</title>
            <path
                d="M2.03 0c-.54 0-1 .33-1 .938v14.124c0 .587.378.938 1 .938h13.033c.52 0 .937-.35.937-.938V.938C16 .394 15.605 0 15.062 0H2.033zM3 2.03h11.03V5H3V2.03zM3.188 6h1.624c.11 0 .188.077.188.188v1.625c0 .11-.077.187-.188.187H3.188C3.078 8 3 7.923 3 7.812V6.188c0-.11.077-.187.188-.187zm3 0h1.625c.11 0 .187.077.187.188v1.625c0 .11-.077.187-.188.187H6.188C6.077 8 6 7.923 6 7.812V6.188c0-.11.077-.187.188-.187zm3 0h1.624c.11 0 .188.077.188.188v1.625c0 .11-.077.187-.188.187H9.188C9.078 8 9 7.923 9 7.812V6.188c0-.11.077-.187.188-.187zm3 0h1.624c.11 0 .188.077.188.188v1.625c0 .11-.077.187-.188.187h-1.624c-.11 0-.188-.077-.188-.188V6.188c0-.11.077-.187.188-.187zm-9 3h1.624c.11 0 .188.077.188.188v1.624c0 .11-.077.188-.188.188H3.188c-.11 0-.187-.077-.187-.188V9.188c0-.11.077-.188.188-.188zm3 0h1.625c.11 0 .187.077.187.188v1.624c0 .11-.077.188-.188.188H6.188c-.11 0-.187-.077-.187-.188V9.188c0-.11.077-.188.188-.188zm3 0h1.624c.11 0 .188.077.188.188v1.624c0 .11-.077.188-.188.188H9.188c-.11 0-.188-.077-.188-.188V9.188c0-.11.077-.188.188-.188zm3 0h1.624c.11 0 .188.077.188.188v1.624c0 .11-.077.188-.188.188h-1.624c-.11 0-.188-.077-.188-.188V9.188c0-.11.077-.188.188-.188zm-9 3h1.624c.11 0 .188.077.188.188v1.624c0 .11-.077.188-.188.188H3.188c-.11 0-.187-.077-.187-.188v-1.624c0-.11.077-.188.188-.188zm3 0h1.625c.11 0 .187.077.187.188v1.624c0 .11-.077.188-.188.188H6.188c-.11 0-.187-.077-.187-.188v-1.624c0-.11.077-.188.188-.188zm3 0h1.624c.11 0 .188.077.188.188v1.624c0 .11-.077.188-.188.188H9.188c-.11 0-.188-.077-.188-.188v-1.624c0-.11.077-.188.188-.188zm3 0h1.624c.11 0 .188.077.188.188v1.624c0 .11-.077.188-.188.188h-1.624c-.11 0-.188-.077-.188-.188v-1.624c0-.11.077-.188.188-.188z"/>
        </symbol>
        <symbol>
            <title>Accesories Character Map</title>
            <g>
                <path
                    d="M3.702 1C2.17 1 .984 2.32.984 3.844v8.344c0 1.524 1.185 2.843 2.718 2.843h8.58c1.532 0 2.75-1.318 2.75-2.842V3.844C15.03 2.32 13.813 1 12.28 1zm.782 1.03c3.526.257 5.317.135 7.047 0 .755-.057 1.533.617 1.533 1.44v7.374c0 .665-.532 1.095-1.188 1.187-2.836.398-4.753.44-7.673 0-.655-.098-1.187-.52-1.187-1.186V3.5c0-.822.714-1.524 1.47-1.47z"/>
                <path
                    d="M10.53 5.97l-2.905.06.03 1 2.845-.06c.207.015.34.095.406.155.067.06.125.11.125.28V8H8.533c-.454-.025-.892.157-1.157.438-.272.286-.393.663-.406 1.03-.015.368.082.76.342 1.063.255.298.695.475 1.157.47H11.967v-.5l.063-3.094c0-.402-.16-.782-.437-1.03-.275-.25-.632-.38-1-.407h-.062zM8.47 9H11l-.032 1h-2.5c-.22.007-.305-.044-.375-.125-.07-.08-.13-.228-.125-.375.005-.147.078-.292.157-.375.078-.083.143-.14.343-.125zM11.344 3.03l-3 1 .312.94 3-1-.312-.94z"/>
            </g>
        </symbol>
        <symbol>
            <title>Accesories Dictionary</title>
            <g>
                <path
                    d="M9.565 1.13c-.564.09-1.24.38-2 .782-1.544-.85-2.746-.884-3.75-.625-1.065.274-1.928.696-3.282.656h-.5v10.812h.5c1.322 0 2.467-.61 3.532-.875 1.064-.264 1.982-.287 3.156.75l.313.282.344-.282c1.167-1.063 2.048-1.05 3.094-.78 1.047.268 2.172.897 3.5.905h.532V1.943h-.5c-1.507 0-2.296-.448-3.28-.72-.494-.134-1.023-.192-1.657-.093zm.125.97c.482-.08.87-.02 1.28.093.723.198 1.67.586 3.032.687v8.75c-.866-.13-1.757-.487-2.78-.75-1.108-.284-2.412-.166-3.69.813-1.286-.955-2.6-1.06-3.717-.78-1.035.256-1.916.595-2.782.717V2.88c1.264-.075 2.232-.42 3.032-.625.92-.236 1.735-.284 3.25.625l.25.125.25-.125c.82-.467 1.393-.7 1.875-.78z"/>
                <path d="M7.034 2.35h1v9.602h-1z"/>
                <path d="M13.002 2.474V13.88l-10.97.063V2.505h-2v13.468l1-.03 12.97-.063h1V2.474h-2z"/>
                <path d="M.91 14.724v-2.187l4.218-1.13 2.227.596 2.503-.67 3.742 1.002v2.452z" opacity=".3"/>
            </g>
        </symbol>
        <symbol>
            <title>Accesories Text Editor</title>
            <g>
                <path d='m 168.40625,515 a 0.50219246,0.50219246 0 1 0 0.0937,1 l 6,0 a 0.50005,0.50005 0 1 0 0,-1 l -6,0 a 0.50005,0.50005 0 0 0 -0.0937,0 z'/>
                <path d='m 168.40625,517 a 0.50219246,0.50219246 0 1 0 0.0937,1 l 5,0 a 0.50005,0.50005 0 1 0 0,-1 l -5,0 a 0.50005,0.50005 0 0 0 -0.0937,0 z'/>
                <path d='m 168.40625,519 a 0.50219246,0.50219246 0 1 0 0.0937,1 l 6,0 a 0.50005,0.50005 0 1 0 0,-1 l -6,0 a 0.50005,0.50005 0 0 0 -0.0937,0 z'/>
                <path d='m 168.40625,521 a 0.50219246,0.50219246 0 1 0 0.0937,1 l 3,0 a 0.50005,0.50005 0 1 0 0,-1 l -3,0 a 0.50005,0.50005 0 0 0 -0.0937,0 z'/>
                <path d='m 167.0002,510 c -1.0907,0 -2,0.9093 -2,2 l 0,11 c 0,1.0907 0.9093,2 2,2 l 9,0 c 1.0907,0 2,-0.9093 2,-2 l 0,-11 c 0,-1.0907 -0.9093,-2 -2,-2 0,4.33333 0,8.66667 0,13 l -9,0 c 0,-4.33333 0,-8.66667 0,-13 z'/>
                <path d='M 168.40625,509 A 0.50005,0.50005 0 0 0 168,509.5 l 0,3 a 0.50005,0.50005 0 1 0 1,0 l 0,-3 a 0.50005,0.50005 0 0 0 -0.59375,-0.5 z'/>
                <path d='M 170.40625,509 A 0.50005,0.50005 0 0 0 170,509.5 l 0,3 a 0.50005,0.50005 0 1 0 1,0 l 0,-3 a 0.50005,0.50005 0 0 0 -0.59375,-0.5 z'/>
                <path d='M 172.40625,509 A 0.50005,0.50005 0 0 0 172,509.5 l 0,3 a 0.50005,0.50005 0 1 0 1,0 l 0,-3 a 0.50005,0.50005 0 0 0 -0.59375,-0.5 z'/>
                <path d='M 174.40625,509 A 0.50005,0.50005 0 0 0 174,509.5 l 0,3 a 0.50005,0.50005 0 1 0 1,0 l 0,-3 a 0.50005,0.50005 0 0 0 -0.59375,-0.5 z'/>
            </g>
        </symbol>
        <symbol>
            <title>Applets Screeshoter</title>
            <g>
                <path d="M14 0c1.2 0 2 .798 2 2v4h-2V2.25c0-.124-.057-.25-.188-.25H2.188C2.058 2 2 2.126 2 2.25V14c-1.2 0-2-.923-2-2.125V2C0 .798.8 0 2 0z"/>
                <path d="M7.25 6c-.47 0-.743.542-.75 1v1H4c-.47.065-1 .542-1 1v6c0 .458.527 1 1 1h10c.473 0 1-.542 1-1V9c0-.458-.527-1-1-1h-2.5V7c0-.458-.34-1-.813-1zM9 9c1.657 0 3 1.343 3 3s-1.343 3-3 3-3-1.343-3-3 1.343-3 3-3z"/>
                <path d="M11 12a2 2 0 1 1-4 0 2 2 0 1 1 4 0z"/>
            </g>
        </symbol>
        <symbol>
            <title>Bluetooth</title>
            <g>
                <path
                    d='M 269.875,649 A 1.0001,1.0001 0 0 0 269,650 l 0,3.5625 -1.28125,-1.28125 a 1.016466,1.016466 0 1 0 -1.4375,1.4375 L 269,656.4375 l 0,1.125 -2.71875,2.71875 a 1.016466,1.016466 0 1 0 1.4375,1.4375 L 269,660.4375 269,664 a 1.0001,1.0001 0 0 0 1.71875,0.71875 l 4,-4 a 1.0001,1.0001 0 0 0 0,-1.4375 L 272.4375,657 l 2.28125,-2.28125 a 1.0001,1.0001 0 0 0 0,-1.4375 l -4,-4 A 1.0001,1.0001 0 0 0 269.875,649 z M 271,652.4375 272.5625,654 271,655.5625 l 0,-3.125 z m 0,6 1.5625,1.5625 -1.5625,1.5625 0,-3.125 z'/>
                <rect height='1' width='1' x='266.00021' y='652'/>
                <rect height='1' width='1' x='266.00021' y='661'/>
                <rect height='1' width='1' x='269.00021' y='664'/>
                <rect height='1' width='1' x='269.00021' y='649'/>
            </g>
        </symbol>
        <symbol>
            <title>Gnome Power Manager
            </title>
            <g>
                <path d="M3.47 0c-.492 0-.797.23-1.033.47C2.202.71 2 1.03 2 1.503V2H0v14h7v-2l-4.95.05L2 4h2V2h3v2h2v1h2V2H9v-.402c-.024-.433-.17-.755-.406-1.034C8.37.3 7.967.034 7.437.03V0H3.47z"/>
                <path d="M6 10h2c.276-1.103 1.065-3.724 3-4h3v2h2v2h-2v2h2v2h-2v2h-3c-1.935-.276-2.724-2.897-3-4H6z"/>
            </g>
        </symbol>
        <symbol>
            <title>Gnome Panel
            </title>
            <g>
                <path
                    d="M4.03 1v4h-3c-.544 0-.967.423-.967.97 0 .544.423 1 .968 1h3v2.06h-3c-.544 0-.967.425-.967.97 0 .545.423 1 .968 1h3v4l1-.094c3.677-.344 5.768-4.023 5.94-6.875.235-.065.53.012.686.19v.03c.165.158.375.41.625.656.252.245.605.48 1.064.53.472.042.888-.157 1.156-.467.262-.304.4-.71.375-1.126v-.03c-.036-1.01-.734-1.693-1.22-2.22-.326-.36-.518-.792-.405-1.125.098-.287.463-.493.813-.47h.062c.573-.02.705.003 1.313 0V3c-.562.003-.737-.02-1.313 0h-.03c-.745-.037-1.513.368-1.782 1.156-.287.847.172 1.63.625 2.125.506.552.926 1.053.937 1.595h.03c.01.127-.056.323-.155.438-.098.114-.198.166-.312.156-.167-.02-.295-.112-.47-.282-.17-.166-.353-.392-.593-.625-.007-.007-.025.007-.03 0-.366-.396-.904-.607-1.407-.563-.447-3.118-2.912-5.47-5.907-5.906L4.03 1zm1 2.094C7.075 3.52 8.737 5.214 9 7.406c.314 2.608-1.39 5.025-3.97 5.532V3.094z"/>
                <path
                    d="M6.344 3.875c-.778-.13-1.212 1.336-.294.82-.023-.93.68.09.076.266-.455.09-.655-.07-.942.456-.357.372-.182 1.193.32.506.39-.29.63.784.59-.02.075.164.376.51.606.358.566.11.62.662-.016.53-.636.114-1.65-.94-1.663.26.02.65.008 1.3.01 1.95.955-.346.96 1.078.915 1.72.093.503.164 1.9.925 1.207.49-.696.936-1.373.848-2.253.23-.35.956-1.363.063-1.297-.334-.258-.698-1.72-.188-.812.046.767.74.982 1.03.21.35-.394-.92-.476-.31-.7.45.57.933.026.53-.494-.373-.798-.84-2.174-1.72-2.296-.272.22-.497-.134-.124-.2-.186-.136-.463-.078-.654-.21z"/>
            </g>
        </symbol>
        <symbol>
            <title>Help Browser
            </title>
            <g>
                <path d="M8 0C3.585 0 0 3.585 0 8s3.585 8 8 8 8-3.585 8-8-3.585-8-8-8zm0 2c3.34 0 6 2.66 6 6s-2.66 6-6 6-6-2.66-6-6 2.66-6 6-6z"/>
                <path
                    d="M7.344 5C6.058 5 5 6.058 5 7.344v1.312C5 9.942 6.058 11 7.344 11h1.312C9.942 11 11 9.942 11 8.656V7.344C11 6.058 9.942 5 8.656 5H7.344zm0 1h1.312C9.406 6 10 6.594 10 7.344v1.312C10 9.406 9.406 10 8.656 10H7.344C6.594 10 6 9.406 6 8.656V7.344C6 6.594 6.594 6 7.344 6z"/>
                <path
                    d="M4.72 1.438c-1.512.607-2.682 1.798-3.282 3.312l3.75 1.875c.25-.64.742-1.17 1.375-1.438l-1.844-3.75zm6.56 0L9.44 5.188c.632.266 1.123.797 1.374 1.437l3.75-1.875c-.6-1.514-1.77-2.705-3.28-3.313zm-6.092 8l-3.75 1.874c.607 1.49 1.788 2.65 3.28 3.25l1.876-3.75c-.627-.255-1.144-.752-1.407-1.374zm5.625 0c-.263.622-.78 1.12-1.407 1.374l1.875 3.75c1.494-.6 2.675-1.76 3.283-3.25l-3.75-1.874z"/>
            </g>
        </symbol>
        <symbol>
            <title>Preferences color
            </title>
            <g>
                <path
                    d="M8 1.007c-2.203 0-3.993 1.79-3.993 3.993S5.797 8.993 8 8.993 11.993 7.203 11.993 5 10.203 1.007 8 1.007zM8 2.06c1.627 0 2.94 1.314 2.94 2.94S9.628 7.94 8 7.94C6.374 7.94 5.06 6.626 5.06 5S6.374 2.06 8 2.06zM4 8.007C1.797 8.007.007 9.797.007 12S1.797 15.993 4 15.993 7.993 14.203 7.993 12 6.203 8.007 4 8.007zM4 9.06c1.627 0 2.94 1.314 2.94 2.94S5.628 14.94 4 14.94c-1.626 0-2.94-1.314-2.94-2.94S2.374 9.06 4 9.06z"/>
                <path d="M15.998 12A4 4 0 1 1 8 12a4 4 0 1 1 7.998 0z"/>
                <path d="M7.467 12a3.467 3.467 0 1 1-6.933 0 3.467 3.467 0 1 1 6.933 0z"/>
            </g>
        </symbol>
        <symbol>
            <title>Preferences Desktop Accesibility
            </title>
            <path
                d="M8 0C3.582 0 0 3.582 0 8s3.582 8 8 8 8-3.582 8-8-3.582-8-8-8zm0 1.943c1.12 0 2.03.91 2.03 2.03 0 1.122-.91 2.03-2.03 2.03-1.12 0-2.03-.908-2.03-2.03 0-1.12.91-2.03 2.03-2.03zm-4.797 4.12c3.206-.045 6.413-.015 9.62.012 0 0 .43-.008.43.424v.207c0 .226-.236.288-.236.288l-2.985.58v2.11l1.355 3.906c.137.227-.158.29-.158.29l-.528.006c-.253 0-.348-.213-.348-.213L8.282 10.08c-.222-.503-.236-.438-.446.002l-2.17 3.586c-.072.218-.355.223-.355.223l-.57-.008s-.208-.006-.16-.21l1.388-3.988v-2.11l-2.892-.556c-.233-.08-.33-.294-.33-.294v-.218s-.01-.443.457-.443z"/>
        </symbol>
        <symbol>
            <title>Preferences Desktop Display
            </title>
            <g>
                <path d="M12 1c1.662 0 3 1.338 3 3v6c0 1.662-1.338 3-3 3H4c-1.662 0-3-1.338-3-3V4c0-1.662 1.338-3 3-3h8zm0 2H4c-.554 0-1 .446-1 1v6c0 .554.446 1 1 1h8c.554 0 1-.446 1-1V4c0-.554-.446-1-1-1zM8 14c-5 0-5 1-5 1 0 1 1 1 1 1h8c1 0 1-1 1-1s0-1-5-1z"/>
                <path d="M3 2l-1 9.525L14 11zm1.018 3.996L9 10l-4.965.026z"/>
            </g>
        </symbol>
        <symbol>
            <title>Preferences Desktop Keyboard Shortcuts
            </title>
            <g>
                <path
                    d="M1.502 8C.67 8 0 8.67 0 9.5v4c0 .83.67 1.5 1.502 1.5h9.01c.832 0 1.502-.67 1.502-1.5v-4c0-.83-.67-1.5-1.502-1.5zm.062 1c3.186.27 6.116.23 8.885 0 .302-.025.563.26.563.563v2.874c0 .303-.262.53-.564.563-3.005.34-5.965.327-8.886 0-.3-.034-.563-.26-.563-.563V9.563c0-.303.262-.588.564-.563zM9.51 0c-.83 0-1.5.67-1.5 1.5v4c0 .83.67 1.5 1.5 1.5h4.005c.832 0 1.502-.67 1.502-1.5v-4c0-.83-.67-1.5-1.502-1.5zm.063 1c1.294.128 2.587.122 3.88 0 .302-.03.563.26.563.563v2.875c0 .302-.262.525-.563.562-1.255.154-2.542.18-3.88 0-.3-.04-.563-.26-.563-.563V1.563c0-.302.262-.592.563-.562zM1.502 1C.67 1 0 1.67 0 2.5v3C0 6.33.67 7 1.502 7h4.004c.832 0 1.502-.67 1.502-1.5v-3c0-.83-.67-1.5-1.502-1.5zm.062 1c1.692.2 2.848.13 3.88 0 .3-.038.563.26.563.563v2.874c0 .303-.262.524-.563.563-1.215.156-2.498.177-3.88 0-.3-.038-.563-.26-.563-.563V2.563c0-.302.263-.597.564-.562z"/>
            </g>
        </symbol>
        <symbol>
            <title>Preferences Desktop Locale
            </title>
            <path
                d="M4.696 2.234c-3.582 0-4.666 1.4-4.666 1.4v10.05s1.084-1.078 4.666-1.078c2.916 0 4.472 1.077 7.178 1.077 2.09 0 3.194-1.4 3.194-1.4V2.233s-1.14 1.042-3.23 1.042c-3.373 0-3.976-1.04-7.142-1.04zm2.93 2.77c1.33 0 2.376 1.082 2.376 2.44 0 1.356-1.046 2.468-2.375 2.468C6.3 9.912 5.22 8.8 5.22 7.442c0-1.356 1.08-2.437 2.407-2.437zm-4.56.97l.968 1.03-.938-.03.938 1-.97-.03.97 1.03-1-.03.03-1h-.03l.03-.97h-.03zm4.56 0c-.793 0-1.467.658-1.467 1.47 0 .81.673 1.468 1.467 1.468s1.438-.658 1.438-1.47c0-.81-.644-1.468-1.438-1.468zm4.376 0v1l.032.97h-.032l.032 1-1 .03.968-1.03-.968.03.937-1-.936.03zm-7.937 2.97l.97 1.03-1-.03zm6.937 0l.032 1-1 .03zm-5.937 1l.97 1.03-1-.03zm4.937 0l.032 1-1 .03z"/>
        </symbol>
        <symbol>
            <title>Preferences Desktop Remote Desktop
            </title>
            <g >
                <path d="M12 1c1.662 0 3 1.338 3 3v6c0 1.662-1.338 3-3 3H4c-1.662 0-3-1.338-3-3V4c0-1.662 1.338-3 3-3h8zm0 2H4c-.554 0-1 .446-1 1v6c0 .554.446 1 1 1h8c.554 0 1-.446 1-1V4c0-.554-.446-1-1-1zM8 14c-5 0-5 1-5 1 0 1 1 1 1 1h8c1 0 1-1 1-1s0-1-5-1z"/>
                <path d="M4.5 5S4 5 4 5.5v4c0 .5.5.5.5.5h4c.5 0 .5-.5.5-.5v-4C9 5 8.563 5 8.5 5zM5 6.998h3v2H5zM10.5 4s-.5 0-.5.5v.984s0 .5.5.5h1s.5 0 .5-.5v-.983s0-.498-.5-.5z"/>
            </g>
        </symbol>
        <symbol>
            <title>Preferences Desktop Screensaver
            </title>
            <g transform="translate(-262 -381)">
                <path d="M274.11 387c.618.75.994 1.71.994 2.76 0 2.4-1.945 4.344-4.344 4.344-1.05 0-2.01-.376-2.76-.995.525 2.237 2.533 3.89 4.932 3.89 2.8 0 5.068-2.27 5.068-5.068 0-2.4-1.653-4.407-3.89-4.932z"/>
                <rect height="1.442" rx=".721" ry=".721" width="1.442" x="267.79" y="383.79"/>
                <rect height="1.398" rx=".699" ry=".699" width="1.398" x="271.813" y="384.813"/>
                <rect height="1.442" rx=".721" ry=".721" width="1.442" x="268.79" y="386.79"/>
                <path d="M265.505 389.505l-.745-2.255-2.255-.745 2.255-.745.745-2.255.745 2.255 2.255.745-2.255.745z"/>
            </g>
        </symbol>
        <symbol>
            <title>Preferences Desktop Wallpaper
            </title>
            <g >
                <path d="M12 1c1.662 0 3 1.338 3 3v6c0 1.662-1.338 3-3 3H4c-1.662 0-3-1.338-3-3V4c0-1.662 1.338-3 3-3h8zm0 2H4c-.554 0-1 .446-1 1v6c0 .554.446 1 1 1h8c.554 0 1-.446 1-1V4c0-.554-.446-1-1-1zM8 14c-5 0-5 1-5 1 0 1 1 1 1 1h8c1 0 1-1 1-1s0-1-5-1z"/>
                <path d="M8 4v5H4v1h8V4z" opacity=".35"/>
                <path d="M7 4L4 8h3z"/>
            </g>
        </symbol>
        <symbol>
            <title>Preferences System Network Proxy
            </title>
            <g >
                <path d="M4.96 8.635V11H1.367c-.206 0-.368.206-.368.468v1.058c0 .262.162.467.368.467h10.264c.206 0 .368-.205.368-.467v-1.058c0-.262-.162-.467-.368-.467H7.977V8.636z"/>
                <path d="M3.8 0C2.85 0 2 .793 2 1.746V8.36c0 .952.85 1.745 1.868 1.745h5.264c1.02 0 1.868-.793 1.868-1.746V1.745C11 .793 10.15 0 9.132 0zM4 2h5c0 .317 0-.316 0 0v6H4s0 .044 0 0V2c0-.044 0 0 0 0z"/>
                <path d="M5 2.972h3v1.002H5zM7 4.976h1v1.002H7z"/>
                <path
                    d="M9.23 3c.07 0 0 .21 0 .476v1.078c0 .267.07.476.16.476h4.45c.09 0 .16-.21.16-.476V3.476C14 3.21 13.93 3 13.84 3c-.16 0-4.585.063-4.61 0zM5.973 11.624c.08-.06.253.04.394.223l.573.747c.142.184.19.375.112.435-1.312.983-2.624 1.968-3.935 2.953-.08.06-.253-.04-.395-.224l-.573-.747c-.142-.184-.19-.376-.112-.435 0 0 3.946-2.893 3.935-2.954z"/>
                <path d="M7.027 11.624c-.08-.06-.253.04-.394.223l-.573.747c-.142.184-.19.375-.112.435 1.312.983 2.624 1.968 3.935 2.953.08.06.253-.04.395-.224l.573-.747c.142-.184.19-.376.112-.435 0 0-3.946-2.893-3.935-2.954z"/>
            </g>
        </symbol>
        <symbol>
            <title>Preferences System Network Proxy
            </title>
            <path d="M1.75 4C.798 4 0 4.798 0 5.75v4.5C0 11.202.798 12 1.75 12h.125l-.78 1.563L.374 15h9.25l-.72-1.438L8.126 12h.125c.952 0 1.75-.798 1.75-1.75v-4.5C10 4.798 9.202 4 8.25 4h-6.5zM2 6h6v4H2V6z"/>
            <path d="M7.75 1C6.798 1 6 1.798 6 2.75V3h8v4h-3v3.25c0 .66-.252 1.27-.656 1.75h5.28l-1.5-3h.126C15.202 9 16 8.202 16 7.25v-4.5C16 1.798 15.202 1 14.25 1h-6.5z"/>
        </symbol>
        <symbol>
            <title>Preferences System Notifications
            </title>
            <g>
                <path d="M8.91 3.974c.017.167.06.328.06.5 0 2.485-2.014 4.5-4.5 4.5-.117 0-.227-.022-.343-.03v2.218c0 1.004.81 1.812 1.813 1.812h1.545l2 2.047 2.062-2.046h1.612c1.003 0 1.81-.808 1.81-1.812V5.787c0-1.004-.807-1.813-1.81-1.813z"/>
                <path
                    d="M4.47.974C2.54.974.97 2.54.97 4.474s1.568 3.5 3.5 3.5c1.934 0 3.5-1.567 3.5-3.5s-1.566-3.5-3.5-3.5zm-.53 1h1.03L4.91 3.35a.2.2 0 0 0 0 .062.2.2 0 0 0 0 .03.2.2 0 0 0 .124.126.2.2 0 0 0 .03 0 .2.2 0 0 0 .063 0 .2.2 0 0 0 .063 0 .2.2 0 0 0 .03-.03l1.157-.75.5.905-1.218.625a.2.2 0 0 0-.033 0 .2.2 0 0 0-.03.03.2.2 0 0 0-.032.095.2.2 0 0 0 0 .062.2.2 0 0 0 0 .032.2.2 0 0 0 .03.062.2.2 0 0 0 .032.03.2.2 0 0 0 .032.03l1.25.626-.533.907-1.156-.78a.2.2 0 0 0-.03 0 .2.2 0 0 0-.063-.033.2.2 0 0 0-.062 0 .2.2 0 0 0-.125.094.2.2 0 0 0-.03.03.2.2 0 0 0 0 .033.2.2 0 0 0 0 .062l.06 1.374H3.94L4.034 5.6a.2.2 0 0 0-.032-.095.2.2 0 0 0-.03-.062.2.2 0 0 0-.063-.03.2.2 0 0 0-.064-.032.2.2 0 0 0-.03 0 .2.2 0 0 0-.095.032l-1.186.78-.5-.905 1.25-.625a.2.2 0 0 0 .03-.03.2.2 0 0 0 .032-.033.2.2 0 0 0 .03-.063.2.2 0 0 0 0-.03.2.2 0 0 0 0-.064.2.2 0 0 0 0-.03.2.2 0 0 0-.03-.064.2.2 0 0 0-.03-.032.2.2 0 0 0-.032 0l-1.25-.625.5-.906 1.187.75a.2.2 0 0 0 .032.03.2.2 0 0 0 .063 0 .2.2 0 0 0 .062 0 .2.2 0 0 0 .032 0 .2.2 0 0 0 .03-.03.2.2 0 0 0 .03-.03.2.2 0 0 0 .032-.032.2.2 0 0 0 0-.032.2.2 0 0 0 .03-.062.2.2 0 0 0 0-.03L3.94 1.974z"/>
            </g>
        </symbol>
        <symbol>
            <title>Preferences System Privacy
            </title>
            <g>
                <path
                    d="M.97 4.974v5h4.064v-5zm2 1.938l1-.938v3h-1zM1.97.974c-.61 0-1 .422-1 .97v.03h1v-1zm0 1v1h1v-1h-1zm1 0h1v-1h-1v1zm1 0v1h1v-1h-1zm0 1h-1v1h1v-1zm-2 0h-1v1h1v-1zM6.065 4.974v5h3.937v-5zm.906 1H8.02c.778 0 .953.398.953.993 0 .076-.022.117-.06.226l-.408.78h.47v1.064H6.94L7.968 7.13c.047-.093 0-.152-.06-.156h-.937zM6.065.974v1h.937v-1h-.937zm.937 1v1h1v-1h-1zm1 0h1v-1h-1v1zm1 0v1h1v-1h-1zm0 1h-1v1h1v-1zm-2 0h-.937v1h.937v-1zM11.065 4.974v5h3.937v-5zm.906 1h2.032l-.03.5v.563l-.063.125-.158.312.188.344.062.125V8.974h-2.03v-1h.905l-.125-.22-.125-.25.125-.25.157-.28h-.94zM11.065.974v1h.906v-1zm.906 1v1h1v-1zm1 0h1v-1h-1zm1 0v1h1v-1zm1 1zm-1 0h-1v1h1zm-2 0h-.905v1h.906z"/>
                <path
                    d="M6.065 4.974v5h3.937v-5zm.906 1H8.02c.778 0 .953.398.953.993 0 .076-.022.117-.06.226l-.408.78h.47v1.064H6.94L7.968 7.13c.047-.093 0-.152-.06-.156h-.937zM11.065 4.974v5h3.937v-5zm.906 1h2.032l-.03.5v.563l-.063.125-.158.312.188.344.062.125V8.974h-2.03v-1h.905l-.125-.22-.125-.25.125-.25.157-.28h-.94zM13.97 13.974c.61 0 1-.42 1-.97v-.03h-1v1zm0-1v-1h-1v1h1zm-1 0h-1v1h1v-1zm-1 0v-1h-1v1h1zm0-1h1v-1h-1v1zm2 0h1v-1h-1v1zM9.877 13.974v-1H8.94v1h.937zm-.937-1v-1h-1v1h1zm-1 0h-1v1h1v-1zm-1 0v-1h-1v1h1zm0-1h1v-1h-1v1zm2 0h.937v-1H8.94v1zM4.877 13.974v-1H3.97v1zm-.906-1v-1h-1v1zm-1 0h-1v1h1zm-1 0v-1h-1v1zm-1-1zm1 0h1v-1h-1zm2 0h.907v-1H3.97z"/>
            </g>
        </symbol>
        <symbol>
            <title>Preferences System Search
            </title>
            <g>
                <path
                    d='m 47.507806,667.99554 c -3.028856,0 -5.510726,2.47905 -5.510726,5.50447 0,3.02541 2.48187,5.50446 5.510726,5.50446 3.028856,0 5.510726,-2.47905 5.510726,-5.50446 0,-3.02542 -2.48187,-5.50447 -5.510726,-5.50447 z m 0,2.00893 c 1.947357,0 3.499512,1.55039 3.499512,3.49554 0,1.94514 -1.552155,3.49553 -3.499512,3.49553 -1.947357,0 -3.499512,-1.55039 -3.499512,-3.49553 0,-1.94515 1.552155,-3.49554 3.499512,-3.49554 z'/>
                <path d='m 50.8125,676 a 1.0001,1.0001 0 0 0 -0.5,1.71875 l 4,4 a 1.0054782,1.0054782 0 1 0 1.40625,-1.4375 l -4,-4 A 1.0001,1.0001 0 0 0 50.8125,676 z'/>
            </g>
        </symbol>
        <symbol>
            <title>Preferences System Sharing
            </title>
            <g>
                <path d='m 291,178.03125 a 1.96875,1.96875 0 1 1 -3.9375,0 1.96875,1.96875 0 1 1 3.9375,0 z' transform='matrix(1.5079365,0,0,1.5079365,-369.84037,406.50893)'/>
                <path d='m 291,178.03125 a 1.96875,1.96875 0 1 1 -3.9375,0 1.96875,1.96875 0 1 1 3.9375,0 z' transform='matrix(1.5079365,0,0,1.5079365,-359.87182,411.50893)'/>
                <path d='m 291,178.03125 a 1.96875,1.96875 0 1 1 -3.9375,0 1.96875,1.96875 0 1 1 3.9375,0 z' transform='matrix(1.5079365,0,0,1.5079365,-359.87182,401.50893)'/>
                <path d='m 75.625,669.15625 -10.0625,4.875 -1.8125,0.90625 1.8125,0.90625 10.03125,5.0625 0.90625,-1.8125 -8.21875,-4.15625 8.21875,-4 -0.875,-1.78125 z'/>
            </g>
        </symbol>
        <symbol>
            <title>Preferences System Time
            </title>
            <g>
                <path
                    d='m 230.5002,649.01339 c -4.13029,0 -7.48661,3.35631 -7.48661,7.48661 0,4.13029 3.35632,7.48661 7.48661,7.48661 4.13029,0 7.4866,-3.35632 7.4866,-7.48661 0,-4.1303 -3.35631,-7.48661 -7.4866,-7.48661 z m 0,1.97322 c 3.04941,0 5.51339,2.46398 5.51339,5.51339 0,3.04941 -2.46398,5.51339 -5.51339,5.51339 -3.04941,0 -5.5134,-2.46398 -5.5134,-5.51339 0,-3.04941 2.46399,-5.51339 5.5134,-5.51339 z'/>
                <path
                    d='m 227.3125,652.96875 a 0.50005,0.50005 0 0 0 -0.21875,0.84375 l 3.09375,3.0625 a 0.50005,0.50005 0 0 0 0.0625,0.0312 0.50005,0.50005 0 0 0 0.0625,0.0312 0.50005,0.50005 0 0 0 0.0625,0.0312 0.50005,0.50005 0 0 0 0.0312,0 0.50005,0.50005 0 0 0 0.0625,0.0312 0.50005,0.50005 0 0 0 0.0937,0 l 0.15625,0 2.78125,0 a 0.50005,0.50005 0 1 0 0,-1 l -2.75,0 -2.96875,-2.875 a 0.50005,0.50005 0 0 0 -0.46875,-0.15625 z'/>
            </g>
        </symbol>
        <symbol>
            <title>System File Manager
            </title>
            <path
                d="M3.187 0C1.982 0 1 1.018 1 2.22v11.56C1 14.983 1.982 16 3.187 16h9.625C14.017 16 15 14.982 15 13.78V2.22C15 1.017 14.017 0 12.812 0H3.187zM3 3h10v11H3V3zm1 1v4h8.03V4H4zm2.344 1.438a.5.5 0 0 1 .062 0 .5.5 0 0 1 .594.5V6h2v-.063a.5.5 0 1 1 1 0V6c0 .545-.455 1-1 1H7c-.546 0-1-.455-1-1v-.063a.5.5 0 0 1 .344-.5zM4.03 9v4h8.032V9h-8.03zm2.314 1.438a.5.5 0 0 1 .062 0 .5.5 0 0 1 .594.5V11h2v-.063a.5.5 0 1 1 1 0V11c0 .545-.455 1-1 1H7c-.546 0-1-.455-1-1v-.063a.5.5 0 0 1 .344-.5z"/>
        </symbol>
        <symbol>
            <title>System Software Install
            </title>
            <g >
                <path d='m 326.0002,657.00012 10,0 0,7.05898 c 0,0.4922 -0.47266,0.9375 -0.99609,0.9375 l -8.00391,0 c -0.53906,0 -1,-0.42964 -1,-1 z'/>
                <path d='m 329.6875,651.96875 a 1.0001,1.0001 0 0 0 -0.65625,0.375 l -2.8125,3.46875 A 1.0001,1.0001 0 0 0 326,656.4375 l 0,1 a 1.0001,1.0001 0 1 0 2,0 l 0,-0.65625 2.59375,-3.15625 a 1.0001,1.0001 0 0 0 -0.90625,-1.65625 z'/>
                <path d='m 331.90625,654.96875 a 1.0001221,1.0001221 0 1 0 -0.0312,2 l 2.15625,0.375 0,0.15625 a 1.0001,1.0001 0 1 0 2,0 l 0,-1 a 1.0001,1.0001 0 0 0 -0.8125,-1 l -3,-0.5 a 1.0001,1.0001 0 0 0 -0.3125,-0.0312 z'/>

            </g>
        </symbol>
        <symbol>
            <title>System Users
            </title>
            <g >
                <path
                    d='m 56.288664,658.6875 c -0.493789,0.47964 -1.077431,0.69712 -1.788291,0.69712 -0.71086,0 -1.297231,-0.22349 -1.79102,-0.70313 -0.77657,0.27945 -1.705229,0.99058 -1.706257,2.23257 l -0.0027,2.3167 C 50.999881,663.65691 51.312586,664 51.700387,664 l 5.600024,0 c 0.387802,0 0.700003,-0.34309 0.700003,-0.76924 l 0,-2.30769 c 0,-1.0667 -0.77162,-1.96599 -1.711724,-2.23557 z'/>
                <path d='m 52,342.5 a 2.5,2.5 0 1 1 -5,0 2.5,2.5 0 1 1 5,0 z' transform='matrix(0.92307481,0,0,0.92307481,8.808202,340.15457)'/>
                <path
                    d='m 49.288642,654.6875 c -0.493789,0.47964 -1.077431,0.69712 -1.788291,0.69712 -0.71086,0 -1.297231,-0.22349 -1.79102,-0.70313 -0.77657,0.27945 -1.705229,0.99058 -1.706257,2.23257 l -0.0027,2.3167 C 43.999859,659.65691 44.312564,660 44.700365,660 l 5.735381,0 c 0.06219,-0.3952 0.261624,-0.72266 0.564646,-1 l 0,-2.07693 c 0,-1.0667 -0.77162,-1.96599 -1.711724,-2.23557 z'/>
                <path d='m 52,342.5 a 2.5,2.5 0 1 1 -5,0 2.5,2.5 0 1 1 5,0 z' transform='matrix(0.92307481,0,0,0.92307481,1.80818,336.15457)'/>
            </g>
        </symbol>
        <symbol>
            <title>Text Editor
            </title>
            <g >
                <path d="M5.002 10L12 3c1 0 2 1 2 2l-7 7H5z"/>
                <path d="M13 2c1 0 2 1 2 2l1-1c0-1-.752-2-2-2z"/>
                <path d="M1.094 0C.524 0 0 .503 0 1.063v13.873c0 .56.525 1.064 1.094 1.064H11.906c.558 0 1.074-.485 1.094-1.03V8l-2 2v4H2V2h5l2 2 1.53-1.53L8.345.343c-.2-.21-.49-.342-.78-.344z"/>
            </g>
        </symbol>
        <symbol>
            <title>User Info
            </title>
            <g>
                <path
                    d='m 109.55489,655.09373 c -0.70541,0.62353 -1.53918,0.90625 -2.55469,0.90625 -1.01551,0 -1.85318,-0.29053 -2.55859,-0.91406 -1.10938,0.36328 -2.43603,1.28775 -2.4375,2.90234 l -0.004,3.01172 c -7.2e-4,0.554 0.446,1.00002 1,1.00002 l 6,0 0,-5 c -0.011,-0.32734 0.3599,-0.99776 1,-1 l 1.14063,-0.004 c -0.71485,-0.60547 -1.157,-0.79019 -1.58594,-0.90236 z'/>
                <path d='m 52,342.5 a 2.5,2.5 0 1 1 -5,0 2.5,2.5 0 1 1 5,0 z' transform='matrix(1.2,0,0,1.2,47.6002,240.99997)'/>
                <path
                    d='m 110.8754,657 c -0.49245,0 -0.875,0.38256 -0.875,0.875 l 0,6.25 c 0,0.49244 0.38255,0.875 0.875,0.875 l 6.25,0 c 0.49245,0 0.875,-0.38256 0.875,-0.875 l 0,-6.25 c 0,-0.49244 -0.38255,-0.875 -0.875,-0.875 z m 2.125,1 2,0 0,1 -2,0 z m 0,2 2,0 0,4 -2,0 z'/>
            </g>
        </symbol>
        <symbol>
            <title>Utilities System Monitor
            </title>
            <g>
                <path
                    d='M 144.1875,490 C 142.98238,490 142,491.01794 142,492.21875 l 0,10.5625 c 0,1.20081 0.98238,2.21875 2.1875,2.21875 l 11.625,0 c 1.20512,0 2.1875,-1.01794 2.1875,-2.21875 l 0,-10.5625 C 158,491.01794 157.01762,490 155.8125,490 l -11.625,0 z m 0,2 11.625,0 c 0.12026,0 0.1875,0.08 0.1875,0.21875 l 0,10.5625 C 156,502.91996 155.93276,503 155.8125,503 l -11.625,0 c -0.12026,0 -0.1875,-0.08 -0.1875,-0.21875 l 0,-10.5625 C 144,492.08004 144.06724,492 144.1875,492 z'/>

                <path
                    d='m 151.3125,493.96875 a 0.50005,0.50005 0 0 0 -0.34375,0.34375 l -1.6875,6.09375 -0.875,-1.1875 A 0.50005,0.50005 0 0 0 148,499 l -2.5,0 -0.5,0 0,1 0.5,0 2.25,0 1.3125,1.78125 a 0.50005,0.50005 0 0 0 0.875,-0.15625 l 1.53125,-5.4375 1.0625,3.46875 A 0.50005,0.50005 0 0 0 153,500 l 1.5,0 0.5,0 0,-1 -0.5,0 -1.125,0 -1.4375,-4.6875 a 0.50005,0.50005 0 0 0 -0.625,-0.34375 z'/>

            </g>
        </symbol>
        <symbol>
            <title>Utilities Terminal
            </title>
            <g>
                <path
                    d='M 124.1875,490 C 122.98196,490 122,491.01672 122,492.21875 l 0,10.5625 c 0,1.20203 0.98197,2.21875 2.1875,2.21875 l 11.625,0 c 1.20553,0 2.1875,-1.01671 2.1875,-2.21875 l 0,-10.5625 C 138,491.01671 137.01804,490 135.8125,490 l -11.625,0 z m 0,2 11.625,0 c 0.1228,0 0.1875,0.0809 0.1875,0.21875 l 0,10.5625 C 136,502.91909 135.93531,503 135.8125,503 l -11.625,0 C 124.06469,503 124,502.9191 124,502.78125 l 0,-10.5625 C 124,492.0809 124.0647,492 124.1875,492 z'/>

                <path d='m 126.3125,495.90625 a 0.60006002,0.60006002 0 0 0 -0.25,1.03125 l 1.5625,1.5625 -1.5625,1.5625 a 0.61871843,0.61871843 0 1 0 0.875,0.875 l 2,-2 a 0.60006002,0.60006002 0 0 0 0,-0.875 l -2,-2 a 0.60006002,0.60006002 0 0 0 -0.625,-0.15625 z'/>
                <rect height='1.00001' width='3' x='130' y='500'/>

            </g>
        </symbol>
        <symbol>
            <title>Web Browser
            </title>
            <g>
                <path d="M8 4.846v10.38l-2.344-2.288-1.34 2.734c-.327.74-2.033.145-1.548-.844l1.326-2.84H1.136L8 4.847z"/>
                <path
                    d="M7.156 1.063C3.33 1.522.578 5.02 1.063 8.843c.13 1.035.293 1.383.293 1.383L3.03 8.594C2.7 5.84 4.654 3.362 7.407 3.03c2.754-.33 5.232 1.623 5.563 4.376.313 2.608-1.392 5.025-3.97 5.532l.03 2s.522-.106.625-.13c3.416-.835 5.706-4.13 5.283-7.652-.46-3.826-3.955-6.554-7.782-6.093z"/>
                <path
                    d="M4.113 7.815V7.61l-.198.018.05-.393h-.117l-.115.15-.116.056-.165-.092-.017-.206.033-.225.248-.186h.2l.032-.112.247.056.182.225.033-.375.314-.262.116-.28.23-.094.134-.188.297-.056.15-.225h-.446l.28-.13h.2l.28-.093.033-.112-.1-.094-.115-.036.033-.112-.083-.17-.198.076.033-.15-.23-.13-.183.317.017.113-.18.075-.117.243-.05-.225-.313-.13-.05-.168.413-.243.182-.17.017-.205-.1-.056L4.84 4l-.082.206s-.14.027-.174.036C4.13 4.66 3.214 5.562 3 7.266c.008.04.155.268.155.268l.347.206.347.093m3.965-4.3l-.43-.168-.496.056-.612.17-.116.11.38.263v.15l-.15.15.2.392.132-.075.165-.262c.255-.078.484-.168.726-.28l.2-.505m2.528.342l-.375.094-.22.155v.125l-.375.25.094.344.218-.157.125.157.156.093.093-.28L10 4.5l.063-.094.218-.187h.095l-.094.217v.188c.09-.024.16-.05.25-.063l-.25.188v.125l-.31.22-.282-.064v-.155l-.125.062.062.157h-.22l-.124.218-.155.157-.094.03v.187l.033.157H9.03v.53l.064-.03.094-.22L9.375 6l.03-.094.283-.062.156.187.187.095-.092.187.156-.03.062-.22-.187-.218h.06l.22.156.03.22.158.218.062-.313.094-.03c.096.098.17.23.25.343h.28l.19.125-.095.093-.157.157h-.25l-.344-.094h-.19l-.124.155-.343-.375-.25-.062-.375.062-.157.094V9l.033.03.25-.155.093.094h.28l.126.155-.093.312.186.188V10l.125.25-.092.25c-.01.16 0 .307 0 .47.08.218.143.434.218.655l.063.344v.186h.124l.22-.125h.25l.374-.436-.032-.157.25-.218-.187-.19.218-.186.218-.125.094-.126-.062-.25V9.75l.187-.375.188-.25.25-.563v-.156c-.117.015-.23.023-.344.03-.073.006-.146 0-.22 0-.124-.258-.218-.508-.312-.78l-.157-.187-.092-.314.062-.062.22.25.25.562.155.156-.062.22.156.155.25-.25.31-.218.158-.19v-.218c-.04-.073-.055-.145-.094-.218l-.156.187-.125-.155-.188-.125v-.28l.22.217.218-.03c.1.09.192.207.28.312L13 7.28c0-.173-.2-1.02-.625-1.75-.425-.728-1.156-1.405-1.156-1.405l-.064.094-.218.217-.25-.25h.25l.125-.125-.47-.093-.25-.095z"
                    opacity=".3"/>
            </g>
        </symbol>
        </defs>
    </svg>
