<?xml version="1.0" encoding="UTF-8" standalone="no"?>
<svg xmlns:rdf="http://www.w3.org/1999/02/22-rdf-syntax-ns#" xmlns="http://www.w3.org/2000/svg" version="1.0" xmlns:cc="http://creativecommons.org/ns#" xmlns:dc="http://purl.org/dc/elements/1.1/" viewBox="0 0 478.97464 462.60449">
<path opacity=".1" d="m346.43272 51.578764-158.95898 1.51953-14.78711 40.50586-40.375 0.375c-1.60295 9.296086-122.3125 358.625-122.3125 358.625l403.8125-3.40625-15.58594-40.29492 70.74805-0.59766z"/>
<path opacity=".75" d="m48.759771 0a17.924293 17.924293 0 0 0 -17.923828 17.923828v62.923826a17.924293 17.924293 0 0 0 17.923828 17.92188h112.40234a17.924293 17.924293 0 0 0 16.76954 -11.59766c3.79701-10.0672 6.85813-18.29695 9.13867-24.57812l165.88086-1.43164 10.11523 26.15039a17.924293 17.924293 0 0 0 16.7168 11.45703h69.61133a17.924293 17.924293 0 0 0 17.92382 -17.92188v-62.923826a17.924293 17.924293 0 0 0 -17.92382 -17.923828h-400.63477z"/>
<path d="m346.33702 41.578764-158.95898 1.51953a10.001 10.001 0 0 0 -9.75782 8.30078c0.3473-2.0141-0.3675 1.24311-1.3164 4.23828s-2.32092 7.19972-4.04102 12.39844c-1.45841 4.40782-3.29066 9.8793-5.2168 15.61914l-34.82812 0.32422a10.001 10.001 0 0 0 -9.76172 8.30078c0.34711-2.01299-0.36769 1.24304-1.3164 4.23828-0.94874 2.99525-2.31736 7.199616-4.03711 12.398436-3.43951 10.39764-8.28195 24.79419-14.04883 41.81055-11.533759 34.03272-26.770329 78.56389-41.957029 122.80468-30.37342 88.48159-60.548832 175.80665-60.548832 175.80664a10.001 10.001 0 0 0 9.535156 13.26563l403.8125-3.40625a10.001 10.001 0 0 0 9.24219 -13.60742l-10.37109-26.81055 56.29297-0.47656a10.001 10.001 0 0 0 9.37304 -13.24805l-122.54298-356.72461a10.001 10.001 0 0 0 -9.55274 -6.75195zm-7.01953 20.06836 115.68945 336.77539-56.48828 0.47656a10.001 10.001 0 0 0 -0.38672 -0.0137l-206.03711 1.75977-112.89453 0.95312c4.08516-11.8227 27.887599-80.68871 55.962889-162.45703 15.19422-44.25263 30.43774-88.79658 41.99024-122.87695 5.77624-17.040186 10.62834-31.461806 14.09765-41.947266 1.54944-4.68294 2.71595-8.27084 3.67969-11.28906l144.38672-1.38086zm-72.53516 25.93945a15.0015 15.0015 0 0 0 -14.77343 15.210936v13.50195c-20.08702 2.40414-35.30464 8.63477-45.61914 18.72266-11.43113 11.18031-17.14651 24.5642-17.14649 40.14844-0.00002 15.68135 5.77096 28.50654 17.31641 38.47656 10.40704 8.98725 25.56818 15.64553 45.44922 19.99219v83.58398c-9.16316-1.88789-16.71088-5.96934-22.64258-12.24805-7.31597-7.74377-12.17568-18.77938-14.57617-33.10546l-30.86329 4.64648c1.60034 19.06916 8.62992 33.9046 21.08985 44.50391 11.2399 9.56154 26.91507 15.70327 46.99219 18.45117v28.37109a15.0015 15.0015 0 1 0 30 0v-28.21289c20.49304-1.76751 36.73019-8.4257 48.69336-19.99023 12.91698-12.48687 19.37482-27.24679 19.375-44.28321-0.00017-16.64911-5.88629-30.10459-17.66016-40.36523-11.36523-9.90405-28.17941-16.82368-50.4082-20.77539v-75.44922c7.53202 1.95169 13.70619 5.29969 18.51562 10.05078 5.82973 5.75964 9.65915 13.57604 11.48828 23.44922l32.06446-3.91992c-2.85795-15.87463-9.88753-28.21661-21.08985-37.02539-10.22623-8.04065-23.89429-13.08796-40.97851-15.16016v-13.36328a15.0015 15.0015 0 0 0 -15.22657 -15.210936zm-108.42968 16.152346c-34.68008 94.34279-102.74414 304.91601-102.74415 304.91601a10.001 10.001 0 0 0 -0.20312 0.75586 10.001 10.001 0 0 0 9.80469 12.31836l137.06054-1.16992 189.1211-1.59961 7.87695 20.35937-375.20898 3.16602c4.084141-11.82247 27.88358-80.69082 55.95312-162.46094 15.19105-44.25344 30.432309-88.79793 41.982419-122.8789 5.77506-17.04049 10.62514-31.46165 14.09375-41.94727 1.54858-4.68136 2.71236-8.26931 3.67579-11.28711l18.58789-0.17187zm93.65625 34.96093v69.34571c-8.86434-2.91224-16.0897-6.67432-21.61524-11.31446-6.85872-5.75931-10.28717-13.62345-10.28711-23.59375-0.00006-8.71162 3.31521-16.38286 9.94531-23.01367 5.39137-5.39175 12.71051-9.20025 21.95704-11.42383zm30 101.17188c13.09298 3.88234 22.27264 8.47377 27.51757 13.77734 5.88687 5.95313 8.82993 13.81726 8.83008 23.59375-0.00015 11.13177-3.88714 20.35198-11.66015 27.66016-6.6705 6.27143-14.90261 10.41707-24.6875 12.44726v-77.47851z"/>
</svg>
