<?xml version="1.0" encoding="UTF-8" standalone="no"?>
<svg xmlns:rdf="http://www.w3.org/1999/02/22-rdf-syntax-ns#" xmlns="http://www.w3.org/2000/svg" version="1.0" xmlns:cc="http://creativecommons.org/ns#" xmlns:dc="http://purl.org/dc/elements/1.1/" viewBox="0 0 488.4375 521.64496">
<path opacity=".1" d="m113.49458 80.452898c-1.83158 10.62195-99.786296 429.76647-99.786296 429.76647l461.43518-3.89919-100.01875-427.60336-261.63013 1.736078z"/>
<path d="m375.04883 67.29102-261.63086 1.736328a11.427394 11.427394 0 0 0 -11.1836 9.48438c0.0755-0.43767-0.50138 2.39914-1.3125 6.02148-0.8111 3.62235-1.95415 8.65916-3.3789 14.88867-2.84951 12.459052-6.82569 29.696762-11.54492 50.085942-9.43847 40.77836-21.85275 94.16448-34.210941 147.21875-24.716385 106.10855-49.205078 210.89258-49.205078 210.89258a11.427394 11.427394 0 0 0 11.222657 14.02539l461.43554-3.89844a11.427394 11.427394 0 0 0 11.0293 -14.02929l-100.01953-427.60157a11.427394 11.427394 0 0 0 -11.20117 -8.82422zm-8.97266 22.912118 94.68946 404.8125-432.63086 3.65429c2.963724-12.68313 22.847768-97.75834 45.9082-196.75781 12.35943-53.0596 24.77558-106.45134 34.21875-147.25 4.72158-20.39933 8.70063-37.65047 11.55859-50.14648 1.21057-5.293032 2.10096-9.223992 2.88282-12.697272l243.37304-1.61523zm-121.96289 39.656242a17.14109 17.14109 0 0 0 -16.88086 17.38086v19.1836c-27.27321 2.5585-47.82153 9.76682-61.625 21.63867-14.853 12.77491-22.27933 28.06611-22.27929 45.87305-0.00003 17.91791 7.50041 32.57284 22.50195 43.96484 13.931 10.57938 34.40613 18.33941 61.40234 23.29102v95.4414c-12.9689-1.95043-23.56204-6.73913-31.76953-14.3789-9.50597-8.84823-15.81843-21.45682-18.9375-37.82618l-40.10352 5.3086c2.0794 21.78891 11.21259 38.73857 27.40235 50.84961 15.04217 11.25265 36.18495 18.36966 63.4082 21.36328v28.13672a17.14109 17.14109 0 1 0 34.2793 0v-28.07813c27.73944-1.74182 49.6224-9.39783 65.62109-22.99804 16.78365-14.2678 25.17555-31.13337 25.17578-50.59961-0.00023-19.02369-7.64892-34.39899-22.94726-46.12305-15.16754-11.62327-37.79119-19.65317-67.84961-24.10156v-86.34375c10.8604 2.13367 19.66782 6.12328 26.41015 11.98047 7.57484 6.58111 12.55108 15.51357 14.92774 26.79492l41.66211-4.48047c-3.71347-18.13874-12.84861-32.23956-27.4043-42.30469-13.75513-9.51084-32.29127-15.36382-55.5957-17.5664v-19.0254a17.14109 17.14109 0 0 0 -17.39844 -17.38086zm-16.88086 61.94336v80.375c-12.61665-3.41051-22.76556-7.94282-30.43359-13.60546-8.91186-6.58074-13.36726-15.56862-13.36719-26.96094-0.00007-9.95411 4.30708-18.71839 12.92188-26.29492 7.45477-6.55608 17.75143-11.05713 30.8789-13.51368zm34.2793 115.45899c18.27407 4.56089 30.98172 10.00747 38.10742 16.34375 7.64909 6.80219 11.47246 15.79008 11.47266 26.96094-0.0002 12.71944-5.05055 23.253-15.15039 31.60351-9.19644 7.60338-20.67739 12.46974-34.42969 14.61719v-89.52539z"/>
<path opacity=".5" d="m18.03125 0.000004a18.032698 18.032698 0 0 0 -18.03125 18.03125v104.43751a18.032698 18.032698 0 0 0 18.03125 18.03125h77.93359a18.032698 18.032698 0 0 0 17.38282 -13.24023c4.84504-17.58109 8.48517-35.808802 10.95898-48.886722l239.5625-1.5293 10.01758 49.220702a18.032698 18.032698 0 0 0 17.66797 14.43555h78.85156a18.032698 18.032698 0 0 0 18.03125 -18.03125v-104.43751a18.032698 18.032698 0 0 0 -18.03125 -18.03125h-452.375z"/>
</svg>
