<?xml version="1.0" encoding="UTF-8" standalone="no"?>
<svg xmlns:rdf="http://www.w3.org/1999/02/22-rdf-syntax-ns#" xmlns="http://www.w3.org/2000/svg" version="1.0" xmlns:cc="http://creativecommons.org/ns#" xmlns:dc="http://purl.org/dc/elements/1.1/" viewBox="0 0 524.11353 529.76758">
<path opacity=".2" d="m262.0565 15.545518-252.05944 191.90743h50.411556v307.86099h151.23602 104.28079 147.77899v-307.86099h50.4119l-252.0598-191.90743z"/>
<path d="m262.0558 0a10.001 10.001 0 0 0 -6.02344 2.140625l-0.0332-0.09766-252.06055 191.9082a10.001 10.001 0 0 0 6.058594 17.95508h40.412109v307.86133a10.001 10.001 0 0 0 10 10h151.23438 104.28125 147.7793a10.001 10.001 0 0 0 10 -10v-307.86133h40.41211a10.001 10.001 0 0 0 6.05859 -17.95508l-252.06055-191.90818-0.004 0.01367a10.001 10.001 0 0 0 -6.05469 -2.056646zm0.002 22.568359 222.41407 169.33789h-20.76758a10.001 10.001 0 0 0 -10 10v307.86133h-137.7793-104.28125-141.23438v-307.86133a10.001 10.001 0 0 0 -10 -10h-20.769531l222.41792-169.33789zm0.13281 61.333992a23.084784 23.084784 0 0 0 -22.73437 23.408199v13.63867c-29.67958 3.56586-52.54516 12.8174-68.04687 27.97852-17.05252 16.67833-25.62699 36.79216-25.62696 59.95898-0.00003 23.31001 8.68357 42.688 25.99219 57.63477 15.62839 13.49625 38.31783 23.30215 67.68164 29.69336v116.86132c-12.28317-2.68552-22.38536-8.12638-30.41797-16.6289-10.23199-10.83032-17.19966-26.49396-20.65039-47.08789a2.7170355 2.3007614 0 0 0 -3.16797 -1.94141l-44.93554 6.76367a2.7170355 2.3007614 0 0 0 -2.23438 2.42969c2.36288 28.1556 12.81502 50.36937 31.49023 66.25586 16.83622 14.32219 40.2741 23.40836 69.91602 27.4668v19.28515a23.084784 23.084784 0 1 0 46.16406 0v-19.8164c28.21673-3.48394 54.32729-13.04508 70.88672-29.05274 19.21052-18.57083 28.8845-40.69693 28.88477-65.99414-0.00027-24.70016-8.82993-44.98763-26.48438-60.37304-15.94412-13.89426-43.16395-23.54481-73.28711-29.50586v-104.45508c9.2706 2.82591 17.94746 6.75684 22.8418 11.59179 8.08023 7.98312 13.49627 18.92676 16.10351 33a2.7170355 2.3007614 0 0 0 3.07422 1.92188l46.68555-5.70703a2.7170355 2.3007614 0 0 0 2.29688 -2.625c-4.22956-23.49337-14.72068-42.01808-31.54302-55.24609-14.06975-11.06275-36.09124-18.07681-59.45899-21.56836v-14.47852a23.084784 23.084784 0 0 0 -23.42969 -23.408199zm-22.73437 74.539059v95.61328c-11.95818-4.05706-21.70791-9.17797-29.12695-15.4082-9.42967-7.91815-14.17586-18.6488-14.17578-32.71875-0.00008-12.18982 4.56172-22.74626 13.83593-32.02149 7.21717-7.21766 17.0382-12.32758 29.4668-15.46484zm46.16406 149.49805c16.3073 5.08269 30.16619 10.85958 35.92969 16.6875 8.10127 8.19244 12.2205 19.03543 12.2207 32.8789-0.0002 15.75434-5.4209 28.52336-16.27929 38.73242-7.44212 6.99689-19.4699 12.17931-31.8711 15.41407v-103.71289z"/>
</svg>
