<?xml version="1.0" encoding="UTF-8" standalone="no"?>
<svg xmlns:rdf="http://www.w3.org/1999/02/22-rdf-syntax-ns#" xmlns="http://www.w3.org/2000/svg" version="1.0" xmlns:cc="http://creativecommons.org/ns#" xmlns:dc="http://purl.org/dc/elements/1.1/" viewBox="0 0 524.11865 529.76996">
<path opacity=".2" d="m262.05915 15.660761-252.05944 191.90742h50.411556v307.86101h151.23601v-126.28812h104.28044l0.00035 126.28812h147.77899v-307.861h50.4119l-252.0598-191.90742z"/>
<path d="m261.56617 0.01215847a10.001 10.001 0 0 0 -5.56445 2.03125l-252.06055 191.90821a10.001 10.001 0 0 0 6.058594 17.95703h40.412109v307.86133a10.001 10.001 0 0 0 10 10h151.23633a10.001 10.001 0 0 0 10 -10v-116.28906h84.2793v116.28906a10.001 10.001 0 0 0 10 10h147.77929a10.001 10.001 0 0 0 10 -10v-307.86133h40.41211a10.001 10.001 0 0 0 6.0586 -17.95703l-252.06055-191.90821a10.001 10.001 0 0 0 -6.55078 -2.03125zm0.49219 22.55664 222.41796 169.33985h-20.76953a10.001 10.001 0 0 0 -10 10v307.86133h-127.77929v-116.28906a10.001 10.001 0 0 0 -10 -10h-104.2793a10.001 10.001 0 0 0 -10 10v116.28906h-131.23633v-307.86133a10.001 10.001 0 0 0 -10 -10h-20.771484l222.41797-169.33985zm-0.46875 43.947266a15.0015 15.0015 0 0 0 -14.77539 15.212892v13.5c-20.0866 2.40421-35.30478 8.636864-45.61915 18.724614-11.43113 11.18032-17.1465 24.56225-17.14648 40.14649-0.00002 15.68135 5.77291 28.50653 17.31836 38.47656 10.40676 8.987 25.56703 15.64747 45.44727 19.99414v83.58398c-9.16232-1.88805-16.71129-5.96976-22.64258-12.24804-7.31597-7.74377-12.17373-18.77938-14.57422-33.10547l-30.86328 4.64648c1.60034 19.06917 8.62991 33.90265 21.08984 44.50196 11.23973 9.5614 26.91356 15.70516 46.99024 18.45312v28.36914a15.0015 15.0015 0 1 0 30 0v-28.21289c20.4938-1.7673 36.73184-8.42344 48.69531-19.98828 12.91699-12.48686 19.37483-27.24874 19.375-44.28516-0.00017-16.64911-5.88629-30.10265-17.66016-40.36328-11.36555-9.90434-28.18043-16.82373-50.41015-20.77539v-75.45117c7.53221 1.95167 13.70805 5.2996 18.51757 10.05078 5.82973 5.75964 9.65915 13.57604 11.48828 23.44922l32.0625-3.91992c-2.85795-15.87462-9.88752-28.21661-21.08984-37.02539-10.22661-8.04094-23.89339-13.086154-40.97851-15.158214v-13.36328a15.0015 15.0015 0 0 0 -15.22461 -15.212892zm-14.77539 51.115246v69.34375c-8.86384-2.91219-16.08798-6.67255-21.61329-11.3125-6.85872-5.75931-10.28717-13.62541-10.28711-23.59571-0.00006-8.71162 3.31326-16.38286 9.94336-23.01367 5.39137-5.39175 12.71051-9.1983 21.95704-11.42187zm30 101.16992c13.09329 3.88237 22.27451 8.4737 27.51953 13.77734 5.88687 5.95313 8.82992 13.81923 8.83007 23.5957-0.00015 11.13178-3.88714 20.35003-11.66015 27.65821-6.67093 6.27183-14.90374 10.41721-24.68945 12.44726v-77.47851z"/>
</svg>
