<?xml version="1.0" encoding="UTF-8" standalone="no"?>
<svg xmlns="http://www.w3.org/2000/svg" version="1.0" viewBox="0 0 335.93945 528.00165">
<path d="m279.32617 0-125.66016 125.03516c0.40471 0.41802 0.81444 0.83655 1.23242 1.25391 1.65772 3.31636 2.90459 7.05012 3.74024 11.20117 0.41737 4.13904-0.62021 8.90351-3.11328 14.29492-0.0003 0.83564-0.41692 1.87322-1.25196 3.11328-5.79702 8.70806-14.5065 13.06281-26.125 13.0625h-59.72656v160.49805l-34.21094 170.4668c-1.24057 6.63202 0.006 12.74898 3.74024 18.34961 3.73351 5.6005 8.91656 9.02128 15.54883 10.26172 6.63189 1.24027 12.74884-0.003 18.34961-3.73047 5.60036-3.72746 9.22843-8.91392 10.88671-15.5586l34.83789-176.67382h16.17579l34.83789 176.67382c1.24 6.64468 4.66084 11.83114 10.26172 15.5586 5.60024 3.72733 11.92448 4.97074 18.9746 3.73047 6.22671-1.24044 11.3076-4.66122 15.24414-10.26172 3.93586-5.60063 5.07561-11.71759 3.41797-18.34961l-34.21093-171.69922v-143.7168l97.05078 96.42383 8.08789-8.69531c32.34994-35.66625 48.52491-79.41979 48.52539-131.26172-0.00048-51.436313-16.38474-95.189809-49.15234-131.26172-0.00043 0.000475-2.48729-2.904991-7.46094-8.714844zm-7.46094 23.636719c24.46486 28.617079 38.35538 61.797248 41.67188 99.539071h-140.58399zm-153.66406 0.626953c-12.02407 0.000389-22.39353 4.249555-31.10742 12.748047-8.71433 8.499356-13.07053 18.766649-13.07032 30.802734-0.00021 12.441874 4.35599 22.911584 13.07032 31.410164 8.71389 8.499313 19.08335 12.750343 31.10742 12.750003 12.02355 0.00034 22.2874-4.25069 30.79297-12.750003 8.50497-8.49858 12.75746-18.96829 12.75781-31.410164-0.00035-12.036085-4.25284-22.303378-12.75781-30.802734-8.50557-8.498492-18.76942-12.747658-30.79297-12.748047zm-98.91211 98.912118c-0.4178 0.0003-2.9047 0.82865-7.46094 2.48633-7.88525 2.89868-11.82825 8.08172-11.82812 15.54882-0.00012999679 10.78376 6.42977 16.1761 19.28906 16.17579h108.85937c13.69419 0.00031 20.12411-6.013 19.28907-18.03711-0.41797-10.78316-6.84789-16.17353-19.28907-16.17383zm163.61328 34.21094h130.63477c-3.73417 36.91974-17.62469 69.68625-41.67188 98.30273-20.74466-20.74402-50.39839-50.39778-88.96289-88.96289z"/>
</svg>
