<?xml version="1.0" encoding="UTF-8" standalone="no"?>
<svg xmlns="http://www.w3.org/2000/svg" version="1.0" viewBox="0 0 306.64224 522.80658">
<path d="m159.19224 102.79371c-0.00028 10.97169 3.81819 20.27581 11.4554 27.91242 7.63662 7.63722 16.93477 11.45569 27.89449 11.45538 10.57662 0.00031 19.78214-3.81816 27.61661-11.45538 7.83377-7.63661 11.75082-16.94073 11.75119-27.91242-0.00037-10.959043-3.91742-20.257213-11.75119-27.894492-7.83447-7.636548-17.03999-11.454998-27.61661-11.45538-10.95972 0.000382-20.25787 3.818832-27.89449 11.45538-7.63721 7.637279-11.45568 16.935449-11.4554 27.894492zm88.11145 206.78852v-140.99624c-1.17163-11.74791-7.4341-17.62201-18.78755-17.6223h-74.61237c-1.9603-0.38213-5.28875 1.18353-9.98537 4.6969l-43.4731 25.2592-45.82153-45.22995c-4.69706-5.09096-10.17676-7.6366-16.43911-7.63691-13.31396 0.00031-19.97088 6.85441-19.97073 20.56232-0.00015 5.09158 1.76268 9.79442 5.28847 14.10859l58.15535 58.15535c4.69668 4.69711 9.78797 7.04555 15.27385 7.04533 3.51348 0.00022 7.62475-1.36828 12.33381-4.1053l38.18462-21.15392v103.97689l-58.15535 178.57134c-1.18338 2.74878-1.77499 5.49161-1.77478 8.22852-0.00021 7.82808 2.93683 14.58358 8.81115 20.26653 5.87387 5.68279 12.73096 8.52423 20.57129 8.52431 14.0904-0.00008 23.68136-7.24858 28.77291-21.74551l51.11002-154.49531 51.70162 155.08689c5.0909 14.485 14.68186 21.72751 28.7729 21.7276 7.83969-0.00009 14.69678-2.83854 20.5713-8.51535 5.87366-5.67697 8.81071-12.42949 8.81114-20.25757-0.00043-2.74887-0.39483-5.4917-1.18318-8.22852zm-244.9552-146.85839-0.59154 0.57363c-2.3426 2.3547-2.3426 4.90034 0 7.63693l11.16855 11.76014c2.34232 2.34273 4.88796 2.34273 7.63692 0l0.57362-0.59154c2.35428-2.73661 2.35428-5.28225 0-7.63693l-11.15063-11.74221c-2.35455-2.35414-4.90018-2.35414-7.63692 0zm135.68984-95.766298 49.94477-46.395208c1.94775-2.353994 2.92179-5.096838 2.9221-8.22852-0.00031-8.222102-4.11158-12.333359-12.33382-12.333814-3.52595 0.000455-6.46001 0.980427-8.80218 2.940046l-47.57838 47.578388-67.56705 72.837606 8.22852 8.22851z"/>
</svg>
