<?xml version="1.0" encoding="UTF-8" standalone="no"?>
<svg xmlns="http://www.w3.org/2000/svg" height="528.53735" width="280.44144" version="1.0" viewBox="0 0 280.44144 528.53736">
<path d="m30.371753 0.00074574864a2.1568998 2.1568998 0 0 0 -1.03906 0.298829l-11.22851 6.628906-5.79102 3.4199222-11.25391 6.644531a2.1568998 2.1568998 0 0 0 -0.82812007 2.828125l63.91406 126.58203a2.1568998 2.1568998 0 0 0 2.13086 1.17383l11.01563-1.04883 7.23632 12.88867a21.56882 21.56882 0 0 0 2.19141 20.00196l36.832027 56.17187a21.56882 21.56882 0 0 0 26.7168 7.91602l27.04687-11.89453 38.02344 101.02344a33.551775 33.551775 0 0 0 10.3125 14.56835v146.16797a26.36211 26.36211 0 1 0 52.71875 0v-160.5a33.551775 33.551775 0 0 0 -0.0723 -23.4082 26.36211 26.36211 0 0 0 -5.38477 -14.33594l-41.36324-109.89844a33.551775 33.551775 0 0 0 -30.72656 -22.16796 33.551775 33.551775 0 0 0 -33.44336 25.79882l-17.76758 7.81446-26.82031-40.90625a21.56882 21.56882 0 0 0 -18.10547 -9.99805 21.56882 21.56882 0 0 0 -7.199217 1.22852l-4.64063-9.54883 6.78516-9.54688a2.1568998 2.1568998 0 0 0 0.13867 -2.27734l-67.44531-124.4961a2.1568998 2.1568998 0 0 0 -1.95313 -1.1289083zm150.54688 80.933595c-9.7242 0.00031-18.01439 3.54511-24.86719 10.63282-6.8533 7.08839-10.2793 15.803979-10.2793 26.146479 0 10.33145 3.426 19.0392 10.2793 26.12695 6.8528 7.08832 15.14299 10.63307 24.86719 10.63282 9.7351 0.00025 18.11708-3.5445 25.14648-10.63282 7.0288-7.08775 10.54267-15.7955 10.54297-26.12695-0.0003-10.3425-3.51417-19.058089-10.54297-26.146479-7.0294-7.08771-15.41138-10.63251-25.14648-10.63282zm-102.91016 237.79883a10.001 10.001 0 1 0 0 20h24.667967a10.001 10.001 0 1 0 0 -20zm51.999997 0a10.001 10.001 0 1 0 0 20h24.66797a10.001 10.001 0 1 0 0 -20zm-54.140617 23.85938a10.001 10.001 0 0 0 -9.85938 10.13086l-0.1582 165.66211a10.001 10.001 0 1 0 20 0.0195l0.1582-165.66211a10.001 10.001 0 0 0 -10.14062 -10.15039zm39.999997 0a10.001 10.001 0 0 0 -9.85938 10.13086l-0.1582 165.66211a10.001 10.001 0 1 0 20 0.0195l0.1582-165.66211a10.001 10.001 0 0 0 -10.14062 -10.15039zm40 0a10.001 10.001 0 0 0 -9.85938 10.13086l-0.1582 165.66211a10.001 10.001 0 1 0 20 0.0195l0.1582-165.66211a10.001 10.001 0 0 0 -10.14062 -10.15039z"/>
</svg>
