<?xml version="1.0" encoding="UTF-8" standalone="no"?>
<svg xmlns="http://www.w3.org/2000/svg" version="1.0" viewBox="0 0 465.83438 489.31882">
<path d="m58.155352 476.39341c7.05117-0.00006 16.74672 2.15418 29.08664 6.4627 12.33961 4.30841 22.029178 6.46263 29.068708 6.46271 7.05111-0.00008 16.74666-2.1543 29.08664-6.46271 12.33955-4.30852 22.0351-6.46276 29.08662-6.4627 7.03912-0.00006 16.82429 2.15418 29.35556 6.4627 12.53072 4.30841 22.13065 6.46263 28.79979 6.46271 7.03906-0.00008 16.82723-2.1543 29.36451-6.46271 12.53666-4.30852 22.32482-6.46276 29.36452-6.4627 6.65654-0.00006 16.25347 2.15418 28.79083 6.4627 12.5366 4.30841 22.32476 6.46263 29.36452 6.46271 7.05087-0.00008 16.74642-2.1543 29.08663-6.46271 12.33933-4.30852 22.02889-6.46276 29.06871-6.4627 7.05083-0.00006 16.74637 2.15418 29.08664 6.4627 12.33927 4.30841 22.02883 6.46263 29.06871 6.46271v-43.4731c-7.03988-0.00003-16.72944-2.05566-29.06871-6.16691-12.34027-4.11128-22.03581-6.16692-29.08664-6.1669-7.03982-0.00002-16.82798 2.05562-29.36451 6.1669-12.53741 4.11125-22.13435 6.16688-28.79083 6.16691-7.03976-0.00003-16.82792-2.05566-29.36452-6.16691-12.53736-4.11128-22.13429-6.16692-28.79083-6.1669-7.0397-0.00002-16.82786 2.05562-29.36452 6.1669-12.53728 4.11125-22.32545 6.16688-29.36451 6.16691-6.66914-0.00003-16.26907-2.05566-28.79979-6.16691-12.53127-4.11128-22.31644-6.16692-29.35556-6.1669-7.05152-0.00002-16.74707 2.05562-29.08662 6.1669-12.33998 4.11125-22.03553 6.16688-29.08664 6.16691-7.03953-0.00003-16.729098-2.05566-29.068708-6.16691-12.33992-4.11128-22.03547-6.16692-29.08664-6.1669-7.03947-0.00002-16.827624 2.05562-29.364514 6.1669-12.537068 4.11125-22.133999 6.16688-28.79084 6.16691v43.4731c6.656841-0.00008 16.253772-2.1543 28.790838-6.46271 12.53689-4.30852 22.325044-6.46276 29.364514-6.4627zm73.429188-198.54207c10.97115 0.00015 20.27529-3.81832 27.91242-11.4554 7.6367-7.63675 11.45515-16.94087 11.45538-27.9124-0.00023-10.56482-3.81868-19.66578-11.45538-27.3029-7.63713-7.63671-16.94127-11.45516-27.91242-11.45539-10.95958 0.00023-20.25773 3.81868-27.89449 11.45539-7.637068 7.63712-11.455538 16.73808-11.455378 27.3029-0.00016 10.97153 3.81831 20.27565 11.455378 27.9124 7.63676 7.63708 16.93491 11.45555 27.89449 11.4554zm-13.49907 147.44998c8.61675 0 15.07645-3.72285 19.37915-11.16855l63.44382-110.43062 138.62987-85.78094c5.87967-3.90789 10.38533-8.60477 13.517-14.09067l95.74837-162.72382c2.35391-3.907711 3.53112-8.407393 3.53163-13.499062-0.00051-7.445293-2.64475-13.907987-7.93272-19.388111-5.28898-5.479272-11.65606-8.219121-19.10127-8.219547-10.56548 0.000426-18.59082 4.69731-24.07603 14.090666l-79.88294 135.68984-116.90229 70.50709c-6.27471 3.9083-10.97757 8.60518-14.10858 14.09067l-91.643068 157.43533c-1.94824 3.1313-2.92228 6.84817-2.92211 11.15064-0.00017 5.88007 2.24967 11.07294 6.749528 15.5786 4.49952 4.50566 9.6894 6.7585 15.56964 6.7585z"/>
</svg>
