<?xml version="1.0" encoding="UTF-8" standalone="no"?>
<svg xmlns="http://www.w3.org/2000/svg" height="524.51367" width="442.33984" version="1.0" viewBox="0 0 442.33985 524.51367">
<path d="m268.49024 0a44 44 0 0 0 -44 44 44 44 0 0 0 44 44.000003 44 44 0 0 0 44 -44.000003 44 44 0 0 0 -44 -44zm-81.03711 87.576173c-2.37281-0.0719-4.79719 0.3153-7.14844 1.2168l-45.5293 18.082027c-0.961 0.212-1.91828 0.47947-2.86328 0.85547-4.792 1.904-8.33559 5.59495-10.18359 10.00195-1.934 4.367-2.18621 9.47663-0.28321 14.26563 0.375 0.944 0.8358 1.82397 1.3418 2.66797l18.10156 45.52343c3.833 9.315 14.44799 13.84524 23.83399 10.11524 9.386-3.729 13.99762-14.31085 10.39062-23.71485l-12.3789-31.17578 31.16992-12.39453c9.315-3.833 13.84523-14.44698 10.11523-23.833977-2.79675-7.04025-9.44797-11.3938-16.5664-11.60938zm53.92773 4.24414c-8.22192-0.0797-16.08065 4.65008-19.6289 12.611327l-110.9961 257.3418c-4.65 10.782 0.32152 23.2924 11.10352 27.9414 10.782 4.65 23.2914-0.32051 27.9414-11.10351l96.83594-224.57227 12.01172 21.4668c0.324 0.892 0.70459 1.77291 1.18359 2.62891 2.434 4.347 6.42196 7.26856 10.87696 8.47656 4.428 1.295 9.3494 0.88708 13.6914-1.54492 0.855-0.479 1.64177-1.03205 2.38477-1.62305l41.28711-23.13086c8.431-4.854 11.41644-15.59442 6.64844-24.10742-4.765-8.511-15.4833-11.58364-24.0293-6.93164l-28.27344 15.82226-20.54687-36.69531c-1.448-6.397-5.80797-12.040887-12.29297-14.837887-2.675-1.15375-5.45663-1.71562-8.19727-1.74219zm-7.01367 144.4668c-3.40065 0.0976-6.82773 1.01492-9.98242 2.83398-10.094 5.819-13.59706 18.66869-7.91406 28.80469l19.32617 33.53321-33.52344 19.33984c-9.996 5.927-13.40108 18.80048-7.58008 28.89648 5.82 10.095 18.66964 13.59807 28.80664 7.91407l48.97461-28.22461c1.061-0.401 2.10805-0.86813 3.12305-1.45313 5.151-2.971 8.58198-7.77237 9.95898-13.10937 1.482-5.308 0.92022-11.18389-2.05078-16.33789-0.585-1.015-1.26051-1.94422-1.97851-2.82422l-28.2461-48.95899c-4.07481-6.87294-11.43264-10.62884-18.91406-10.41406zm126.30273 124.88672c-6.581-0.001-12.03745 0.76397-13.06445 0.91797l-0.32031 0.0488-301.62891 51.93359c-26.486999 4.862-45.656249 27.89153-45.65625 54.76953 0 30.696 24.973922 55.66992 55.669918 55.66992h305c45.033 0 81.66993-36.63692 81.66993-81.66992s-36.63693-81.66992-81.66993-81.66992zm0 13.99805c37.313 0 67.66993 30.35592 67.66993 67.66992 0 18.043-7.04871 35.02722-19.84571 47.82422s-29.78122 19.8457-47.82422 19.8457h-305c-22.977002 0-41.66992-18.69292-41.66992-41.66992 0-20.12 14.344422-37.35638 34.107418-40.98438 0 0 301.32952-51.88125 301.47852-51.90625 0.044-0.008 0.0898-0.0156 0.0898-0.0156 0.524-0.078 5.28514-0.76367 10.99414-0.76367zm0 8.66992a59 59 0 0 0 -59 59 59 59 0 0 0 59 59 59 59 0 0 0 59 -59 59 59 0 0 0 -59 -59zm-305 52a33 33 0 0 0 -32.999996 33 33 33 0 0 0 32.999996 33 33 33 0 0 0 33 -33 33 33 0 0 0 -33 -33z"/>
</svg>
