<?xml version="1.0" encoding="UTF-8" standalone="no"?>
<svg xmlns="http://www.w3.org/2000/svg" version="1.0" viewBox="0 0 238.09456 552.1958">
<path opacity=".8" d="m127.84457 0v63.65625h24.5625v-63.65625z"/>
<path d="m139.34457 54.664062c-25.48159 0-46.273444 20.830204-46.273444 46.304688 0 16.42199 8.605584 30.93809 21.570314 39.13867a7.337209 7.337209 0 0 0 6.39649 0.70117l3.08789 77.91016a21.072856 21.072856 0 0 0 1.6875 7.4375l22.98047 53.80273a33.095671 33.095671 0 0 0 -2.41797 6.72852l-33.28125 132.625a33.095671 33.095671 0 0 0 -0.0195 0.0898l-102.69925 84.37895a27.093672 27.093672 0 1 0 34.406246 41.84375l102.94727-84.58203a33.095671 33.095671 0 0 0 29.55273 -25.63672l33.28125-132.625a33.095671 33.095671 0 0 0 -23.48242 -40.46289l-21.01758-49.19336-2.93359-74.79492a7.337209 7.337209 0 0 0 5.59375 -1.60156c10.30883-8.47733 16.92578-21.39042 16.92578-35.75977 0-25.481588-20.8231-46.304687-46.30469-46.304688zm0 14.671876c17.54449 0 31.63281 14.088326 31.63281 31.632812 0 7.09985-2.39364 13.55999-6.32422 18.81641-6.31636-6.24751-15.05849-9.88296-24.29296-9.38868-9.89099 0.21165-18.22987 5.29739-23.78126 12.4668-5.46296-5.66884-8.83593-13.34766-8.83593-21.89453 0-17.55159 14.05707-31.632812 31.60156-31.632812zm58.5 108.85156c-10.36024 0.00037-19.2621 3.32747-26.71875 10 0.22002 7.02329 0.47423 14.05023 0.8125 21.0625 4.17853 15.44412 12.08556 29.94654 18.03125 44.90625 0.46033 1.38583 1.00295 2.73066 1.5625 4.09375 2.0412 0.29228 4.1441 0.43756 6.3125 0.4375 10.81672 0.00032 20.23768-3.90815 28.25-11.71875 8.01162-7.80997 11.99963-17.31048 12-28.53125-0.00037-11.20784-3.98838-20.72058-12-28.53125-8.01232-7.80992-17.43328-11.71835-28.25-11.71875z"/>
</svg>
