<?xml version="1.0" encoding="UTF-8" standalone="no"?>
<svg xmlns="http://www.w3.org/2000/svg" version="1.0" viewBox="0 0 548.5929 468.86182">
<path opacity=".75" d="m174.38172 277.39458a2.8683541 2.8683541 0 0 0 -1.67188 0.51758l-90.154295 63.05664a2.8683541 2.8683541 0 0 0 -0.50586 0.45117c-4.506187 5.10535-7.392125 9.67109-8.820312 13.97851-1.428187 4.30743-1.292992 8.43555 0.265625 11.95704 3.117234 7.04295 10.88203 11.28161 20.296873 14.85742 18.829689 7.1516 45.755309 11.56545 62.308599 20.38867a2.8683541 2.8683541 0 0 0 0.16406 0.0801l41.69531 18.91601a2.8683541 2.8683541 0 0 0 4.03711 -2.91601l-3.38086-31.5293a2.8683541 2.8683541 0 0 0 -1.17969 -2.02539l-41.25195-29.5918 42.76953-44.27539a2.8683541 2.8683541 0 0 0 0.20313 -3.75195l-22.53907-29.00586a2.8683541 2.8683541 0 0 0 -2.23632 -1.10742zm221.9746 23.96094a2.8683541 2.8683541 0 0 0 -2.70703 3.8125c7.79836 22.35987 19.4203 54.72736 27.76172 85.06445 4.17071 15.16854 7.51754 29.83098 9.16016 42.39648 1.64262 12.56551 1.47722 23.06275-0.85156 29.52539a2.8683541 2.8683541 0 0 0 2.79492 3.83789l37.18945-1.25976a2.8683541 2.8683541 0 0 0 2.61328 -3.80469c-18.01061-52.06528-20.50371-104.3642-26.91015-157.05078a2.8683541 2.8683541 0 0 0 -2.84571 -2.52148z"/>
<path d="m209.24695 0.00004c-13.3512 0-25.04122 7.524556-30.94727 18.607422l-21.79296-1.410156a4.0306846 4.0306846 0 0 0 -0.40235 -0.0059 4.0306846 4.0306846 0 0 0 -3.42383 2.152344l-1.67578 3.183594a4.0306846 4.0306846 0 0 0 2.92578 5.855469l24.63282 3.972656a7.1544458 7.1544458 0 0 0 2.89843 1.210937l54.37696 9.433594a7.1544458 7.1544458 0 0 0 8.37109 -6.808594c0.002-0.05853 0.043-0.455868 0.043-1.185546 0-19.250772-15.7551-35.00586-35.00586-35.00586zm-34.19141 38.839844a3.2528976 3.2528976 0 0 0 -3.15234 2.84375c-0.14698 1.162285-0.22786 2.329264-0.25195 3.507812-0.37359 18.268202 14.22205 33.474072 32.49023 33.847662 15.94676 0.32611 29.51188-10.71378 32.95117-25.70703a3.2528976 3.2528976 0 0 0 -2.59765 -3.927741l-58.79102-10.515625a3.2528976 3.2528976 0 0 0 -0.64844 -0.04883zm84.10157 28.355474c-0.96514-0.0292-1.95557 0.01-2.98438 0.14062-4.11524 0.52246-8.4973 2.49913-14.07812 6.67188-5.00223 3.74014-31.37782 22.12019-58.87891 41.443362-10.90142 7.65969-21.71226 15.29535-31.79297 22.46289-16.17043-11.99757-32.76153-21.27754-48.67969-31.5332l-6.208979-25.476572a5.7367081 5.7367081 0 0 0 -5.39258 -4.37304 5.7367081 5.7367081 0 0 0 -5.52734 3.65429l-10.568362 27.203132c-30.413341 16.88337-61.953071 53.5434-70.826172 64.61133-6.101848 7.61118-4.936935 17.87689-0.61914 25.63476 4.317795 7.75788 12.798546 14.20885 22.888672 12.625 14.570143-2.24841 27.617498-11.59423 39.568359-17.81836 5.977868-3.11333 11.596623-5.4524 16.4375-6.17969 4.840873-0.72727 8.741143-0.14546 12.988283 2.79297 9.634309 6.6656 22.892819 22.01475 33.464839 42.25196 10.32363 19.76172 18.2375 44.21231 19.27344 70.12695-34.80254 45.4258-65.74823 112.61979-103.60352 142.0293a5.7367081 5.7367081 0 0 0 1.175781 9.76562l33.808594 15.13281a5.7367081 5.7367081 0 0 0 6.847665 -1.68359c48.22349-61.15616 77.48041-112.00347 110.86328-147.82422 50.25002-1.13716 104.98431-12.60195 142.60546-45.61914l10.53711 3.41016c23.15144 25.61451 52.67255 34.05131 83.06641 42.6914 37.60998 24.76954 66.4753 91.04708 86.02148 137.19922a5.7367081 5.7367081 0 0 0 10.0918 0.88867l18.03125-27.74414a5.7367081 5.7367081 0 0 0 -0.38672 -6.77734c-27.7251-33.5881-45.8404-94.72116-63.35742-137.08789a5.7367081 5.7367081 0 0 0 -1.6875 -2.26172c-24.91438-20.21212-42.90522-43.32819-49.97265-71.23047 43.1739-6.53726 70.59447 15.84256 88.17773 40.26953a5.7367081 5.7367081 0 0 0 9.24414 0.0898l15.50781-20.6855a5.7367081 5.7367081 0 0 0 -0.14648 -7.07031c-12.16706-14.89569-26.13156-29.22565-46.53711-37.375-19.82991-7.91946-45.40155-9.70498-80.23047-1.77735-17.34096-16.24111-42.99706-26.47756-85.48633-22.95898 9.79007-9.0444 18.46237-20.78748 23.05274-32.71094 3.43224-8.91523 4.58026-18.05613 1.57031-26.13281-3.00996-8.076692-10.23926-14.656352-22.08203-18.326172a2.9076689 2.9076689 0 0 0 -0.15625 -0.0449l-67.67383-16.91797c-2.78359-0.69591-5.45028-1.39879-8.3457-1.48633zm-23.76172 70.601562c15.35044 7.0668 28.4533 9.96981 43.38867 11.11914l-17.13672 27.99219-60.96484 13.64453c-6.46642-10.21768-13.27477-18.99743-20.31446-26.71875 15.21932-8.2173 32.47976-16.7572 55.02735-26.03711z"/>
</svg>
