<?xml version="1.0" encoding="UTF-8" standalone="no"?>
<svg xmlns="http://www.w3.org/2000/svg" height="494.76562" width="478.49219" version="1.0" viewBox="0 0 478.49219 494.76563">
<path d="m433.14062 0a45.352856 45.352856 0 0 0 -45.35352 45.353515 45.352856 45.352856 0 0 0 45.35352 45.353518 45.352856 45.352856 0 0 0 45.35156 -45.353518 45.352856 45.352856 0 0 0 -45.35156 -45.353515zm-294.14063 75.349613c-12.22043 0-22.15429 9.86852-22.15429 22.1543 0 12.285797 9.93386 22.154287 22.15429 22.154287l158.34376 0.25977-66.72265 66.39648c-9.54111 9.73714-14.37696 20.71482-14.37696 35.0918 0 13.78883 5.48968 26.07545 14.63868 35.09375l100.96484 101.75 0.13086 82.14453c0 15.42258 12.48187 27.9707 28.03516 27.9707 14.11558 0 27.90429-16.33842 27.90429-27.9707v-114.29687c0-7.9727-3.33271-15.16157-8.6914-20.32422l-67.04883-66.85156 88.9414-88.94141c16.72959-20.84661 7.90625-45.87695 7.90625-45.87695-9.27968-27.773717-40.71289-28.687497-40.71289-28.687497l-229.3125-0.0664zm71.88477 186.90039-132.26758 132.53125c-9.99855 8.03804-13.26611 22.21855-7.25391 34.04688 6.86174 13.52743 23.52531 18.88607 37.052735 11.95898 1.8298-0.98025 3.52924-2.09145 5.09766-3.39844l135.79688-135.99414-32.60937-32.47851c-2.09119-2.02584-4.05196-4.24807-5.81641-6.66602zm-198.92578 124.88477-11.958985 12.15429 87.373045 87.43946c18.820785 14.57303 38.492185-10.71875 38.492185-10.71875l-12.22071-12.28516-6.59961 6.59961c-6.60034 6.46963-12.156235-0.32617-12.156235-0.32617zm418.37108 72.92968v9.28125c0 9.27968-8.88672 8.36329-8.88672 8.36329h-117.17382v17.05664h123.709c23.65667-3.0061 19.66991-34.70118 19.66991-34.70118z"/>
</svg>
