<?xml version="1.0" encoding="UTF-8" standalone="no"?>
<svg xmlns="http://www.w3.org/2000/svg" version="1.0" viewBox="0 0 409.43036 458.29666">
<path d="m202.63867 0a33.689474 33.689474 0 0 0 -33.68945 33.689453 33.689474 33.689474 0 0 0 33.68945 33.689453 33.689474 33.689474 0 0 0 33.68945 -33.689453 33.689474 33.689474 0 0 0 -33.68945 -33.689453zm1.68555 87.162116c-19.09904 0.15907-37.66339 10.12037-47.86328 27.787114-6.85917 11.88043-9.90242 19.84241-15.69727 29.96289a7.8807152 7.8807152 0 0 0 -0.084 0.15234l-56.804666 104.49024-68.70508 111.22265a7.8807152 7.8807152 0 0 0 -0.04883 0.0801c-5.993951 9.96804-15.121094 21.58091-15.121094 37.83008 0 31.04827 26.697844 57.74609 57.746094 57.74609 12.81651 0 21.21919 0.91576 33.88672 0.71289 0.004-0.00006 0.006 0.00006 0.01 0l143.80078-0.25 105.91015 1.39649a7.8807152 7.8807152 0 0 0 0.0781 0c12.37973 0.0411 26.71226-0.12955 40.20898-7.92188 26.52601-15.3148 35.68198-49.48572 20.36719-76.01172-6.59189-11.41748-11.79774-20.11818-18.07812-30.53711l-0.0137-0.0234-55.0625-95.84766-69.22656-121.44336a7.8807152 7.8807152 0 0 0 -0.004 -0.004c-6.0693-10.62624-13.37565-23.969-27.1504-31.921874-8.28937-4.78587-17.32503-7.18119-26.29882-7.4043-0.61695-0.0153-1.23352-0.0207-1.84961-0.0156zm0.41211 15.687504c6.74025 0.0192 13.57666 1.75466 19.85742 5.38086 9.05889 5.23016 15.28532 15.48067 21.34375 26.08789l69.22461 121.4375a7.8807152 7.8807152 0 0 0 0.0137 0.0234l55.08789 95.89453a7.8807152 7.8807152 0 0 0 0.084 0.14257c6.30449 10.45827 11.45131 19.06088 18.01172 30.42383 11.05126 19.14135 4.54174 43.43116-14.59961 54.48242-9.33695 5.39069-20.20436 5.85063-32.27734 5.81055l-105.89063-1.39453a7.8807152 7.8807152 0 0 0 -0.11718 -0.002l-143.97266 0.25a7.8807152 7.8807152 0 0 0 -0.11328 0.002c-11.77604 0.18915-20.09671-0.71484-33.64258-0.71484-21.68383 0-41.986326-20.30248-41.986326-41.98633 0-10.11688 6.261916-18.72105 12.869136-29.70899l68.76758-111.32617a7.8807152 7.8807152 0 0 0 0.22071 -0.3789l56.9082-104.68164c6.29385-11.01678 9.29016-18.86051 15.58398-29.76172 6.90705-11.96335 18.98515-18.99364 31.7461-19.88477 0.95707-0.0668 1.91796-0.0984 2.88086-0.0957zm-0.0977 11.52539a33.689472 33.689472 0 0 0 -33.68945 33.6914 33.689472 33.689472 0 0 0 33.68945 33.68946 33.689472 33.689472 0 0 0 33.68945 -33.68946 33.689472 33.689472 0 0 0 -33.68945 -33.6914zm-36.6543 61.23828a33.689472 33.689472 0 0 0 -33.68945 33.68945 33.689472 33.689472 0 0 0 33.68945 33.68946 33.689472 33.689472 0 0 0 33.68946 -33.68946 33.689472 33.689472 0 0 0 -33.68946 -33.68945zm72.37891 0a33.689472 33.689472 0 0 0 -33.68945 33.68945 33.689472 33.689472 0 0 0 33.68945 33.68946 33.689472 33.689472 0 0 0 33.68945 -33.68946 33.689472 33.689472 0 0 0 -33.68945 -33.68945zm-108.10352 62.30859a33.689472 33.689472 0 0 0 -33.689446 33.68946 33.689472 33.689472 0 0 0 33.689446 33.68945 33.689472 33.689472 0 0 0 33.68946 -33.68945 33.689472 33.689472 0 0 0 -33.68946 -33.68946zm72.37891 0a33.689472 33.689472 0 0 0 -33.68945 33.68946 33.689472 33.689472 0 0 0 33.68945 33.68945 33.689472 33.689472 0 0 0 33.68945 -33.68945 33.689472 33.689472 0 0 0 -33.68945 -33.68946zm72.37891 0a33.689472 33.689472 0 0 0 -33.68946 33.68946 33.689472 33.689472 0 0 0 33.68946 33.68945 33.689472 33.689472 0 0 0 33.68945 -33.68945 33.689472 33.689472 0 0 0 -33.68945 -33.68946zm-181.38086 62.91016a33.689472 33.689472 0 0 0 -33.68946 33.68945 33.689472 33.689472 0 0 0 33.68946 33.68946 33.689472 33.689472 0 0 0 33.689446 -33.68946 33.689472 33.689472 0 0 0 -33.689446 -33.68945zm72.378896 0a33.689472 33.689472 0 0 0 -33.68945 33.68945 33.689472 33.689472 0 0 0 33.68945 33.68946 33.689472 33.689472 0 0 0 33.68946 -33.68946 33.689472 33.689472 0 0 0 -33.68946 -33.68945zm72.37891 0a33.689472 33.689472 0 0 0 -33.68945 33.68945 33.689472 33.689472 0 0 0 33.68945 33.68946 33.689472 33.689472 0 0 0 33.68945 -33.68946 33.689472 33.689472 0 0 0 -33.68945 -33.68945zm72.37891 0a33.689472 33.689472 0 0 0 -33.68946 33.68945 33.689472 33.689472 0 0 0 33.68946 33.68946 33.689472 33.689472 0 0 0 33.68945 -33.68946 33.689472 33.689472 0 0 0 -33.68945 -33.68945zm-252.26172 63.83984a33.689472 33.689472 0 0 0 -33.68946 33.68946 33.689472 33.689472 0 0 0 33.68946 33.68945 33.689472 33.689472 0 0 0 33.68945 -33.68945 33.689472 33.689472 0 0 0 -33.68945 -33.68946zm72.378896 0a33.689472 33.689472 0 0 0 -33.689446 33.68946 33.689472 33.689472 0 0 0 33.689446 33.68945 33.689472 33.689472 0 0 0 33.68946 -33.68945 33.689472 33.689472 0 0 0 -33.68946 -33.68946zm72.37891 0a33.689472 33.689472 0 0 0 -33.68945 33.68946 33.689472 33.689472 0 0 0 33.68945 33.68945 33.689472 33.689472 0 0 0 33.68945 -33.68945 33.689472 33.689472 0 0 0 -33.68945 -33.68946zm72.37891 0a33.689472 33.689472 0 0 0 -33.68946 33.68946 33.689472 33.689472 0 0 0 33.68946 33.68945 33.689472 33.689472 0 0 0 33.68945 -33.68945 33.689472 33.689472 0 0 0 -33.68945 -33.68946zm72.3789 0a33.689472 33.689472 0 0 0 -33.68945 33.68946 33.689472 33.689472 0 0 0 33.68945 33.68945 33.689472 33.689472 0 0 0 33.68945 -33.68945 33.689472 33.689472 0 0 0 -33.68945 -33.68946z"/>
</svg>
