<?xml version="1.0" encoding="UTF-8" standalone="no"?>
<svg xmlns="http://www.w3.org/2000/svg" version="1.0" viewBox="0 0 538.0625 512.34375">
<path d="m269.03125 0c-148.49717 0-269.03125 114.77592-269.03125 256.1875 0 141.40648 120.52899 256.15625 269.03125 256.15625 148.50227 0 269.03127-114.74978 269.03125-256.15625 0-141.41157-120.53406-256.1875-269.03125-256.1875zm-20.1875 21.28125 56.125 46.406254-14.84375 59.218746-62.34375 28.96875-78.875-20.90625-11.71875-48.218746 30.25-45.656254zm139.75 24.75 72.25 59.25l-20.34375 74.09375-66.03125 9.875-61.78125-61.78125 9.875-56.124996zm-260.03125 11c-2.56732 10.085914-5.14731 20.195354-7.53125 30.281254l-36.3125 9.34375c2.93408-5.31802 6.63012-10.25925 11.03125-14.84375 3.85098-4.95126 7.8777-9.74277 13.5625-13.59375 5.68478-4.401134 11.36467-7.886657 19.25-11.187504zm11.5625 97.21875 72.78125 20.34375 18.53125 78.84375-75.90625 58.6875-66.03125-1.84375-16.6875-87.65625zm309.53125 44.71875 37.03125 62.375-51.15625 84.53125-64.1875-6.0625-23.46875-53.71875 39.4375-75.9375zm-435.53125 21.28125 38.34375 12.28125 20.34375 85.09375-24.75 44.5625c-5.868161 2.37884-11.381835-3.85598-17.25-16.6875-6.418304-13.9369-15.034668-42.00091-17.96875-62.90625-2.750704-21.09382-2.569733-41.6218 1.28125-62.34375zm507.25 34.28125c0.18341 21.2721-1.48453 39.24653-4.96875 57.40625-4.21775 17.96615-10.45767 34.29663-16.6875 47.5-6.22981 12.46475-11.92956 21.28808-18.53125 27.15625l-29.6875-34.5 51.875-87.65625zm-275.28125 14.125 82.71875 21.65625 26.40625 62.15625l-45.65625 59.96875-103.0625-21.625-33.9375-67.875zm-48.03125 137.53125 109.3125 19.28125 31.34375 48.03125l-7.875 21.09375c-15.22056 2.21073-30.64791 3.85199-46.96875 4.21875-16.87096 0.36678-34.83542-0.015-51.15625-1.84375-17.42112-2.56733-33.56723-7.1604-47.6875-11.75-14.12027-4.94615-24.93298-10.43369-34.46875-17.21875l-1.28125-24.75z"/>
<path opacity=".20192309" d="m248.85937 21.287109-81.42187 19.804688-30.25781 45.662117 11.73633 48.228506 78.85351 20.90625 62.34961-28.97461 14.85352-59.232416zm139.73438 24.75586-66.01562 25.306645-9.89844 56.115226 61.79492 61.79883 66.01562-9.90234 20.35547-74.08594zm-260.0332 11.003906c-7.88534 3.300843-13.56913 6.784415-19.25391 11.185549-5.68479 3.85098-9.71933 8.61905-13.57031 13.57031-4.40113 4.5845-8.06788 9.5355-11.00196 14.85352l36.3086-9.35156c2.38394-10.0859 4.95026-20.1719 7.51758-30.257819zm11.55273 97.191405-67.298827 68.40039 16.687497 87.65625 66.01563 1.83789 75.91992-58.68554-18.52148-78.85352zm309.54688 44.74414-62.34961 11.18555-39.42188 75.91601 23.46875 53.73438 64.18164 6.05273 51.16407-84.53906zm-435.52735 21.27149c-3.850989 20.72195-4.035866 41.2558-1.285156 62.34961 2.93408 20.90534 11.554357 48.9635 17.972656 62.90039 5.86817 12.83152 11.368159 19.07025 17.236329 16.6914l24.757812-44.56054-20.355469-85.09375zm507.22852 34.29296-17.9707 9.89649-51.89649 87.66211 29.70703 34.47461c6.6017-5.86817 12.29169-14.67587 18.52149-27.14063 6.2298-13.20337 12.4697-29.52797 16.6875-47.49414 3.4842-18.15972 5.13457-36.12635 4.95117-57.39844zm-275.25391 14.1211-73.53515 54.2793 33.92578 67.85156 103.05859 21.63867 45.66211-59.96094-26.40625-62.16992zm-48.04492 137.53516-48.7793 37.0371 1.28321 24.76172c9.53577 6.78506 20.35629 12.28626 34.47656 17.23242 14.12027 4.58961 30.25662 9.17292 47.67773 11.74024 16.32083 1.82871 34.2931 2.19684 51.16407 1.83008 16.32084-0.36676 31.72476-2.00801 46.94531-4.21875l7.88476-21.07813-31.35351-48.04492z"/>
</svg>
