<?xml version="1.0" encoding="UTF-8" standalone="no"?>
<svg xmlns="http://www.w3.org/2000/svg" version="1.0" viewBox="0 0 470.9668 342.81229">
<path d="m420.25586 0.00392094c-0.5293-0.0103-1.077-0.00023-1.64258 0.0293-18.4933 1.1217-75.16286 24.15484-94.10742 32.1875-18.9471 7.73653-15.49809 8.62375-17.98633 14.4707-2.43185 5.67003-0.62191 8.32676 3.67773 20.25781 4.18554 11.99 11.36955 28.82019 21.54688 51.146489l-129.40039 69.04297c11.9336-5.6726 24.43403-7.85649 37.72265-6.55274 13.23478 1.29732 25.78916 14.05303 41.625 14.11328 15.77814-0.29356 35.45915-15.05827 52.70899-15.12109 17.30492 0.0628 35.8566 13.29342 49.76953 14.64844 13.68602 1.00631 23.81135-1.53721 31.44531-8.0918l-59.21289-130.28906c16.45759-6.14307 30.70936-11.69319 43.66211-16.6543 12.78097-5.19827 29.63425-6.85167 32.91602-13.40625 2.90352-6.52361 3.68367-25.46295-12.72461-25.78125zm14.57226 74.39258c-19.9496 0-36.13867 16.90738-36.13867 37.740229 0 20.83285 16.19036 37.73829 36.13867 37.73829s36.13867-16.90544 36.13867-37.73829c0-20.832849-16.1891-37.740229-36.13867-37.740229zm-407.41797 53.173829c-0.462961-0.001-0.913108 0.009-1.34961 0.0332-13.914199 0.76789-18.946291 17.66003-12.046875 26.10547 6.900704 8.20956 36.024871 16.59831 53.105475 22.85547 16.96651 5.91103 32.57544 10.27763 47.902338 13.11328 11.99001-5.60977 23.01944-8.44577 33.53906-8.26758 10.46323 0.2346 20.7562 7.73556 28.90039 9.09571 8.03135 1.18196 14.30968 0.35435 19.06055-2.24415-38.62877-15.88712-71.37539-28.58347-99.992188-38.74414-27.88768-9.95616-54.767354-21.90816-69.11914-21.94726zm118.97657 66.64062c-0.46184-0.007-0.9258-0.003-1.39063 0.0117-15.2705 0.59353-32.01063 12.40435-46.941398 13.11328-15.0436 0.23715-28.67495-10.98299-41.96485-11.10351-13.402719-0.23587-28.446862 8.20874-37.496092 10.09961-9.049247 1.71524-14.761615 1.89334-16.910157 0.5332v31.30273c2.148542 1.35757 7.86091 1.18271 16.910157-0.53125 9.04923-1.89085 24.092102-10.33745 37.496092-10.10156 13.29118 0.11921 26.92124 11.33999 41.96485 11.10156 14.930768-0.58843 31.670898-12.69724 46.941398-13.11132 14.87439-0.5897 28.16582 10.39497 43.1543 10.63086 15.21409 0.1205 30.65303-9.91985 46.9414-9.625 16.06145 0.23459 32.40546 11.15991 48.80664 11.10351 16.11785-0.3551 31.38826-11.99143 48.18555-12.10937 16.8537-0.0564 35.40338 11.34125 51.91992 11.63867 16.28582 0 33.14386-10.69397 45.07618-11.10547 11.6503-0.5333 18.04051 7.02868 25.05273 8.56445 6.89942 1.47679 12.1597 1.71162 16.23242 0.47071v-31.30274c-4.07272 1.2435-9.333 1.00481-16.23242-0.4707-7.01222-1.59602-13.40243-9.0365-25.05273-8.625-11.93361 0.41408-28.79036 11.10547-45.07618 11.10547-16.51654-0.35125-35.06622-11.57813-51.91992-11.57813-16.79729 0.11921-32.0677 11.75428-48.18555 12.10938-16.40118 0.0577-32.74519-10.86765-48.80664-11.10352-16.28837-0.41278-31.72731 9.68886-46.9414 9.56836-14.51885-0.28439-27.44687-10.38394-41.76367-10.58594zm0 52.38867c-0.46184-0.006-0.9258-0.003-1.39063 0.0117-15.2705 0.58968-32.01063 12.4018-46.941398 13.11328-15.0436 0.2346-28.67495-10.98752-41.96485-11.10546-13.402719-0.2346-28.446862 8.21069-37.496092 10.10156-9.049247 1.83317-14.761615 1.77127-16.910157 0.47266v31.30273c2.148542 1.2986 7.86091 1.36051 16.910157-0.47266 9.04923-1.89215 24.092102-10.33616 37.496092-10.10156 13.29118 0.11793 26.92124 11.34007 41.96485 11.10547 14.930768-0.71147 31.670898-12.52359 46.941398-13.11328 14.87439-0.47303 28.16582 10.27741 43.1543 10.57226 15.21409 0.11794 30.65303-9.98242 46.9414-9.56836 16.06145 0.23717 32.40546 11.16377 48.80664 11.10352 16.11785-0.35255 31.38826-11.99204 48.18555-12.10742 16.8537 0 35.40338 11.22363 51.91992 11.57617 16.28582 0 33.14386-10.69072 45.07618-11.10352 11.6503-0.41406 18.04051 7.02575 25.05273 8.62305 6.89942 1.47681 12.1597 1.71423 16.23242 0.47461v-31.30273c-4.07272 1.12042-9.333 0.94555-16.23242-0.53125-7.01222-1.53449-13.40243-9.09842-25.05273-8.56641-11.93361 0.41278-28.79036 11.10352-45.07618 11.10352-16.51654-0.35254-35.06622-11.57618-51.91992-11.57618-16.79729 0.11922-32.0677 11.75491-48.18555 12.10743-16.40118 0.0602-32.74519-10.86636-48.80664-11.10352-16.28837-0.41408-31.72731 9.68629-46.9414 9.56836-14.51885-0.28564-27.44687-10.38321-41.76367-10.58399zm-1.6836 51.375c-0.46183-0.006-0.9258-0.003-1.39062 0.0117-15.2705 0.58968-32.01063 12.4018-46.941408 13.11328-15.0436 0.2346-28.67494-10.98752-41.96484-11.10546-13.402723-0.2346-28.446866 8.20874-37.496096 10.09961-9.049244 1.83317-14.761611 1.77321-16.91016 0.47461v31.30078c2.14855 1.2986 7.860916 1.36051 16.910156-0.47266 9.04923-1.89215 24.092103-10.33421 37.496096-10.09961 13.29118 0.11793 26.92124 11.34007 41.96484 11.10547 14.930778-0.71147 31.670908-12.52359 46.941408-13.11328 14.87439-0.47303 28.16581 10.27741 43.15429 10.57226 15.21409 0.11794 30.65304-9.98242 46.94141-9.56836 16.06145 0.23717 32.40545 11.16377 48.80664 11.10352 16.11785-0.35255 31.38826-11.99204 48.18555-12.10742 16.8537 0 35.40338 11.22168 51.91992 11.57422 16.28582 0 33.14385-10.68877 45.07617-11.10157 11.6503-0.41406 18.04052 7.02575 25.05274 8.62305 6.89942 1.47681 12.1597 1.71423 16.23242 0.47461v-31.30273c-4.07272 1.12042-9.333 0.94359-16.23242-0.53321-7.01222-1.53449-13.40244-9.09646-25.05274-8.56445-11.93361 0.41278-28.79035 11.10156-45.07617 11.10156-16.51654-0.35254-35.06622-11.57422-51.91992-11.57422-16.79729 0.11922-32.0677 11.75491-48.18555 12.10743-16.40119 0.0602-32.74519-10.86636-48.80664-11.10352-16.28837-0.41408-31.72732 9.68629-46.94141 9.56836-14.51885-0.28564-27.44686-10.38321-41.76367-10.58399z"/>
</svg>
