<?xml version="1.0" encoding="UTF-8" standalone="no"?>
<svg xmlns="http://www.w3.org/2000/svg" version="1.0" viewBox="0 0 398.47998 396.14655">
<path d="m98.733714 0.00047646989c-25.7185-0.07496-50.02037 8.6935-69.16211 27.238281-49.436996 47.895999-32.994184 119.74019 20.50782 173.24219 41.901 41.901 91.899886 63.26971 137.08789 45.09571 18.605 6.366 50.10425 19.32836 80.53125 41.94335-1.016 4.799 0.33159 9.99566 4.05859 13.72266l90.50977 90.50977c5.857 5.858 15.35489 5.85895 21.21289 0.002l10.60742-10.60547c5.857-5.858 5.857-15.35584 0-21.21484l-90.50977-90.50781c-3.727-3.727-8.92365-5.0726-13.72265-4.0586-22.709-30.555-35.68349-62.18672-42.02149-80.76172 17.662-44.908-3.27753-95.118334-45.01953-136.86133-30.93084-30.930318-68.83621-47.641469-104.08008-47.744193zm136.52539 203.99414c6.876 16.658 15.58046 35.50505 26.43946 55.37305-19.857-10.854-38.69566-19.55673-55.34766-26.42773 5.108-4.233 10.15586-8.81211 15.13086-13.78711 4.976-4.975 9.55134-10.03221 13.77734-15.15821zm-145.96679 87.01954a50.546001 50.546001 0 0 0 -50.54688 50.54492 50.546001 50.546001 0 0 0 50.54688 50.54687 50.546001 50.546001 0 0 0 50.544916 -50.54687 50.546001 50.546001 0 0 0 -50.544916 -50.54492z"/>
</svg>
