<?xml version="1.0" encoding="UTF-8" standalone="no"?>
<svg xmlns="http://www.w3.org/2000/svg" height="507.09766" width="477.95898" version="1.0" viewBox="0 0 477.95899 507.09766">
<path d="m125.44727 0 159.64648 407.73829 175.3711-110.57617c-10.48451-167.26475-192.13544-278.20463-335.01758-297.16212zm-74.367195 193.71876a28.954357 28.954357 0 0 0 -28.953122 28.95507 28.954357 28.954357 0 0 0 28.953122 28.95313 28.954357 28.954357 0 0 0 28.95508 -28.95313 28.954357 28.954357 0 0 0 -28.95508 -28.95507zm256.71094 10.17187c48.71652-0.0857 110.51139 13.38983 141.27538 72.05859 0.97531 1.95061 2.07227 3.96335 2.07227 6.21876 0 4.75461-3.83997 8.59374-8.47266 8.59374-2.37731 0-4.93794-0.73031-6.03516-2.49804-7.31479-12.49609-51.93453-90.58188-188.96484-59.79883-1.28009 0.36571-2.01206 0.48828-3.41406 0.48828-4.6327 0-8.47266-3.83996-8.47266-8.47265 0-3.2307 1.6448-6.40083 4.50977-7.49805 6.95856-2.62494 34.1696-9.03316 67.50196-9.0918zm-122.91017 31.76758c-2.01155 0-3.90133 0.48695-4.63281 0.97461l-46.20508 20.96875-67.296865 0.12305c-16.70208 0-30.294923 13.5924-30.294923 30.35546 0 2.49921 0.304494 4.8766 0.914062 7.25391l30.662111 69.85742c4.75461 10.48451 15.35948 17.73828 27.55078 17.73828h82.839835l47.66797 45.77735c7.68053 7.13192 19.68993 6.64496 26.88282-0.97461 7.13191-7.74146 6.70593-19.75091-0.97461-26.88281l-54.86133-52.11719c-3.41355-2.98688-7.25372-4.87695-12.80078-4.87695h-56.01953l-25.35743-56.32422h30.23438s6.27825-0.36519 9.63087-2.98633l50.22851-22.61524c3.71836-2.62114 6.21679-7.01019 6.21679-11.88671 0-7.8634-6.46041-14.38477-14.38477-14.38477zm-125.14452 214.20117c-10.85026 0-21.15143 2.4995-30.294919 6.64453-8.960618 4.02313-18.956888 6.40039-29.441406 6.40039v44.19336c10.423562 0 20.480788-2.37724 29.441406-6.40039 9.143489-4.26695 19.444659-6.76758 30.294919-6.76758 10.78932 0 21.15144 2.50063 30.29492 6.76758 8.9606 4.02315 19.019795 6.40039 29.443355 6.40039 10.42358 0 20.48079-2.37724 29.44141-6.40039 9.20443-4.26695 19.50561-6.76758 30.29492-6.76758 10.85027 0 21.15297 2.50063 30.35742 6.76758 8.89964 4.02315 18.9573 6.40039 29.38086 6.40039s20.54175-2.37724 29.44141-6.40039c9.20443-4.26695 19.56658-6.76758 30.29492-6.76758 10.85026 0 21.21395 2.50063 30.35742 6.76758 8.89966 4.02315 19.01783 6.40039 29.44141 6.40039 10.42356 0 20.48082-2.37724 29.44142-6.40039 9.14348-4.26695 19.50754-6.76758 30.29687-6.76758 10.7893 0 21.15143 2.50063 30.29492 6.76758 8.96061 4.02315 19.01783 6.40039 29.44141 6.40039v-44.19336c-10.36262 0-20.48079-2.37726-29.44141-6.40039-9.14349-4.14503-19.50563-6.64453-30.29492-6.64453-10.78932 0-21.15339 2.4995-30.29687 6.64453-8.9606 4.02313-19.01786 6.40039-29.44142 6.40039-10.42358 0-20.54174-2.37726-29.44141-6.40039-9.14347-4.14503-19.50716-6.64453-30.35742-6.64453-10.72834 0-21.09049 2.4995-30.29492 6.64453-8.89965 4.02313-18.95688 6.40039-29.44141 6.40039-10.3626 0-20.48122-2.37726-29.38086-6.40039-9.20445-4.14503-19.50715-6.64453-30.35742-6.64453-10.78931 0-21.09048 2.4995-30.29491 6.64453-8.96063 4.02313-19.01784 6.40039-29.44141 6.40039-10.42356 0-20.482765-2.37726-29.443365-6.40039-9.14349-4.14503-19.5056-6.64453-30.29492-6.64453z"/>
</svg>
