<?xml version="1.0" encoding="UTF-8" standalone="no"?>
<svg xmlns:rdf="http://www.w3.org/1999/02/22-rdf-syntax-ns#" xmlns="http://www.w3.org/2000/svg" version="1.0" xmlns:cc="http://creativecommons.org/ns#" xmlns:dc="http://purl.org/dc/elements/1.1/" viewBox="0 0 576.44501 577.45154">
<path d="m64.571 0.06355556c-41.335 0-64.571 21.371-64.571 65.036v450.123c0 40.844 20.895 62.229 62.192 62.229h452.024c41.307 0 62.229-20.315 62.229-62.229v-450.123c0-42.601-20.922-65.036-63.521-65.036-0.004 0-448.495-0.143-448.353 0z"/>
<path style="color-rendering:auto;text-decoration-color:#000000;color:#000000;isolation:auto;mix-blend-mode:normal;shape-rendering:auto;solid-color:#000000;block-progression:tb;text-decoration-line:none;image-rendering:auto;white-space:normal;text-indent:0;text-transform:none;text-decoration-style:solid" fill="#fff" d="m266.29405 46.688134c-1.45156-0.0176-2.85393 0.0316-4.14649 0.13086-3.2596 0.250309-6.82243 0.879749-10.0039 1.693359-3.18148 0.81361-5.90213 1.726315-7.82813 2.947265-1.16631 0.739354-3.65286 2.216297-5.41406 3.228516-2.9862 1.716309-6.83054 5.462659-10.92774 9.931641-4.09719 4.468982-8.20854 9.55402-10.85546 13.724609-3.21708 5.068946-6.70016 10.790235-7.97657 13.087891 0.042-0.07566-0.48116 0.748893-1.08984 1.634765-0.60868 0.885873-1.38847 1.999231-2.17969 3.115235-1.65387 2.332771-3.55756 5.315535-4.46289 6.994145-0.35976 0.66707-0.73934 1.28843-1.01367 1.69141-0.10711 0.15733-0.17116 0.23758-0.2207 0.30078-0.005 0.004-0.0338 0.0115-0.0391 0.0156-0.16475 0.12853-0.25064 0.21842-0.33007 0.30078-0.15888 0.16473-0.2713 0.30276-0.39649 0.46094-0.25038 0.31636-0.52629 0.69631-0.8457 1.15625-0.63883 0.91989-1.43635 2.13929-2.26953 3.47852-3.51584 5.65118-7.45868 11.17782-10.91016 15.4375-1.72574 2.12984-3.33205 3.94516-4.66992 5.28125-1.33787 1.33608-2.52209 2.19181-2.80664 2.32226-5.5924 2.56382-13.30756 9.78915-18.02735 16.36133-1.58795 2.21115-4.28366 5.89342-5.95312 8.16797-3.92623 5.34934-9.94359 15.71821-12.23828 21.13086-0.87025 2.0527-2.31003 5.46618-3.2168 7.58789-1.00052 2.34109-2.3177 5.75159-3.42773 8.78711-0.55502 1.51776-1.05721 2.93758-1.43946 4.08398-0.38225 1.14641-0.62888 1.78959-0.76367 2.66602 0.0116-0.0755-0.49731 2.00851-0.98242 3.55859-0.52281 1.67057-1.26322 4.24145-1.6875 5.85547-0.40703 1.54851-1.36318 5.15968-2.12305 8.02734-0.76909 2.90258-1.54066 6.02987-1.78906 7.35743-0.0942 0.50364-0.1951 0.9867-0.27539 1.3164-0.0142 0.0584-0.0187 0.0717-0.0312 0.11914-0.23957 0.33246-0.13588 0.36419-0.16992 0.46094-0.0462 0.13138-0.0763 0.23086-0.10742 0.3418-0.0622 0.22187-0.12475 0.47403-0.19727 0.78125-0.14503 0.61443-0.32364 1.43533-0.52734 2.41406-0.4074 1.95747-0.90941 4.5314-1.38086 7.14453-0.0863 0.47816-0.18412 0.94269-0.26172 1.25781-0.0107 0.0433-0.0136 0.049-0.0234 0.0859 0.0738-0.0965 0.17286-0.21732 0.33984-0.39844-0.15998 0.17355-0.26605 0.30618-0.34374 0.41407-0.0236 0.0874-0.0517 0.1898-0.0586 0.21093-0.004 0.0137-0.0613 0.0383-0.0703 0.006-0.0692 0.15451-0.0412 0.2219-0.0684 0.30274-0.0494 0.14686-0.0754 0.25245-0.10352 0.36523-0.0562 0.22556-0.10602 0.46573-0.16211 0.75391-0.11216 0.57635-0.24316 1.33069-0.38867 2.22461-0.29102 1.78783-0.63979 4.12055-0.97265 6.47656s-0.6494 4.73066-0.875 6.59961c-0.11281 0.93447-0.20275 1.73962-0.26172 2.37109-0.0295 0.31574-0.0515 0.58673-0.0645 0.82813s-0.0578 0.32027 0.0215 0.85742c0.0132 0.0897 0.0139 0.17927 0.0137 0.21875 0.001 0.0297-0.0927 0.15772-0.10156 0.18945-0.0506 0.18094-0.0793 0.3261-0.10938 0.48438-0.0601 0.31656-0.11357 0.67291-0.16797 1.09179-0.10878 0.83783-0.21729 1.90603-0.30859 3.04688-0.17634 2.20385-0.40879 4.9035-0.5 6.0293-0.0937 1.15648-0.24413 3.44186-0.34766 5.14062-0.10172 1.66903-0.26965 4.05851-0.37109 5.25586-0.28345 3.346-0.38483 5.17209-0.44531 7.70508-0.0137 0.57235-0.042 1.11591-0.0723 1.48828-0.0129 0.15891-0.0249 0.26303-0.0332 0.33008-0.00088 0.004-0.0145 0.0232-0.0156 0.0273-0.0422 0.1513-0.0571 0.24294-0.0723 0.33008-0.0303 0.17429-0.0482 0.32123-0.0664 0.49219-0.0365 0.34191-0.0703 0.75674-0.10351 1.25195-0.0665 0.99042-0.13144 2.28146-0.1875 3.64453-0.11213 2.72615-0.19265 5.61957-0.13477 7.08594 0.0503 1.27429 0.1029 3.13686 0.12305 4.11133 0.20202 9.77511 1.31765 21.6714 3.18359 33.93164 1.05989 6.96397 1.66307 13.04193 1.68945 16.32422-0.66495-0.29888-1.07852-0.44637-1.71289-0.78711-1.56802-0.84226-3.59447-1.70316-5.09765-2.12891-0.52474-0.14862-1.05053-0.3225-1.42578-0.46289-0.17349-0.0649-0.30486-0.1201-0.38086-0.1543-0.006-0.003-0.0243-0.009-0.0293-0.0117-0.035-0.0163-0.067-0.0557-0.041-0.0449-0.42416-0.32559-0.52028-0.25563-0.67773-0.31054-0.19171-0.0669-0.36457-0.11567-0.56055-0.16797-0.39196-0.10462-0.86189-0.21228-1.41601-0.33008-1.10824-0.23561-2.53821-0.50389-4.06055-0.76172-1.44883-0.24538-2.91682-0.54001-4.08203-0.80664-1.16521-0.26662-2.25948-0.63984-2.04492-0.54102-3.198688-1.47381-9.612415-2.8676-13.601564-3.14843-8.299859-0.58432-16.697319 2.05754-20.328125 7.62695-2.824327 4.33237-4.388957 10.67178-3.9375 15.89648 0.293503 3.39682 1.299696 8.17199 2.425781 12.41407 0.563042 2.12104 1.154287 4.08945 1.722656 5.67383 0.284185 0.79218 0.559635 1.486 0.847656 2.08984 0.23654 0.4959 0.419621 0.91399 0.857422 1.40234 0.0015 0.002 0.0024 0.004 0.0039 0.006 0.02136 0.0439 0.03577 0.0705 0.06836 0.14453 0.108279 0.24593 0.253709 0.61521 0.382812 0.99024 0.782409 2.27244 2.688203 5.34396 5.958985 10.20508 0.486128 0.72251 0.984043 1.51325 1.376953 2.17773 0.392909 0.66448 0.715068 1.3151 0.703125 1.28516 0.357996 0.89735 0.715304 1.32119 1.371094 2.27929 0.655789 0.9581 1.542695 2.19435 2.644531 3.68946 2.203672 2.99021 5.264035 7.00985 8.970703 11.76367 2.137969 2.74197 4.405102 5.69398 4.820313 6.27148 0.273555 0.38055 0.366353 0.43981 0.578124 0.65821 0.211773 0.2184 0.477896 0.48449 0.802735 0.80273 0.649677 0.63648 1.534972 1.4846 2.623039 2.51563 2.17618 2.06205 5.16071 4.85129 8.61914 8.0625l0.72657 0.67578 0.99414-0.0488c18.23043-0.90225 37.84073-0.88115 56.86719 1.02148 65.11937 6.51198 95.89602 8.69151 156.81835-0.0117 13.08079-1.86867 27.42882-3.61606 42.22657-5.17578l0.23632-0.0254 0.22852-0.0723c6.48719-2.05553 11.37936-3.83763 15.43945-5.66016 1.21767-0.54659 3.3231-1.40043 4.51953-1.84961 7.65173-2.87276 23.60251-11.87617 30.09766-16.97851 1.58777-1.2473 3.77353-2.73321 3.96289-2.83399 4.04407-2.15197 8.77191-6.6264 16.78321-15.32812 8.65937-9.40573 9.21882-10.13767 14.30078-19.40039 3.04956-5.55845 15.62059-18.69308 22.02148-22.80665 1.09874-0.70602 3.12621-2.16345 4.76367-3.43359 4.82364-3.74161 7.656-5.79498 9.09766-6.64648 1.08215-0.63918 2.36977-1.56759 3.29687-2.38477 0.59476-0.52421 2.42885-1.98049 3.8086-2.99609 13.04592-9.6027 22.41165-18.2657 27.04492-25.35938 2.8128-4.30643 4.59097-9.81795 5.75976-17.20117 0.8773-5.54168 0.83907-7.0009-0.54296-14.27734-1.9407-10.21823-5.57571-20.52247-9.55469-26.08789-5.43754-7.60558-9.18221-11.1803-17.55859-16.69141-1.92789-1.2684-4.76352-2.73031-7.41211-3.94727-1.3243-0.60848-2.58875-1.14767-3.66993-1.55273-1.08117-0.40506-1.69504-0.73523-2.9414-0.76367-0.002-0.00006-0.0933-0.0151-0.15821-0.0293-0.5746-0.4644-0.66918-0.34109-0.86328-0.40234-0.22111-0.0698-0.4329-0.12391-0.67773-0.18164-0.48966-0.11547-1.09727-0.23732-1.81836-0.36914-1.44218-0.26365-3.32522-0.56174-5.33984-0.83985-1.36515-0.18845-2.44008-0.35772-3.54688-0.52929 0.53088-0.52621 0.93627-0.97574 1.5625-1.54493 1.21782-1.10689 2.54488-2.22749 3.67969-3.0957s2.27648-1.50375 2.24414-1.49219c-0.0496 0.0177-0.13229-0.0964 0.57226 0.23243 0.70455 0.32884 1.93017 1.12059 3.67188 2.45117 1.41544 1.08132 2.76537 1.87658 4.26758 2.25195s3.06817 0.24252 4.53125-0.2207c0.19068-0.0604 1.80117-0.49615 3.83984-1.01563s4.64291-1.16929 7.31641-1.8164c7.16912-1.7353 10.91-2.64803 13.01367-3.25391 1.05183-0.30294 1.67989-0.49463 2.33594-0.85156 0.65605-0.35694 1.4578-1.45019 1.59179-1.95118 0.18796-0.70265 0.1013-1.63482-0.16211-2.31835-0.2634-0.68354-0.62956-1.26152-1.14257-1.98829-1.02603-1.45353-2.70584-3.49119-5.60547-6.94336-2.90518-3.45876-5.72084-6.84147-6.13282-7.34765-3.37493-4.14666-11.85061-12.43884-29.90234-29.38672-11.54173-10.83597-32.99942-30.6953-51.8789-48.07617-9.43976-8.69044-18.23334-16.76122-24.81836-22.77149-3.29252-3.00513-6.03315-5.494354-8.0293-7.292969-0.99808-0.899308-1.80925-1.624659-2.41602-2.160156-0.60677-0.535498-0.8975-0.805002-1.27929-1.089844-0.0997-0.0744-1.84357-1.53432-3.99414-3.408203s-4.91072-4.30719-7.75391-6.837891c-8.22302-7.319263-17.27889-15.048364-24.88867-21.310547-7.60979-6.262182-13.52387-10.927723-16.39063-12.615234-0.61219-0.360364-1.13059-0.699065-1.98633-0.912109-0.85573-0.213045-2.43976 0.116605-3.16992 0.935547-0.73015 0.818941-0.88849 1.547238-1.08984 2.359374-0.20136 0.812137-0.36348 1.754889-0.55859 2.958985-0.30332 1.871645-1.21785 5.592022-1.94532 7.837891-1.26868 3.916803-2.25216 7.115423-2.9414 9.566406-0.68925 2.450982-1.09346 4.006443-1.19727 5.28125-0.15375 1.887971 0.51096 3.558475 1.44922 5.349609s2.24698 3.62539 3.81641 5.277344c0.55525 0.584467 1.07877 1.212524 1.42968 1.689453 0.0849 0.115399 0.11649 0.17208 0.17774 0.263672-0.10569 0.07797-0.31873 0.988973-1.08985 2.28125-0.95268 1.596557-2.43347 3.656563-4.28125 5.888668-0.21162 0.25564-0.29232 0.34729-0.48046 0.57422-0.3375-2.008973-0.63457-3.900164-1.10547-6.269529-0.3578-1.800267-0.71937-3.527129-1.03125-4.916015-0.31189-1.388887-0.48195-2.239489-0.80469-3.076172-2.287-5.928633-7.18315-13.136631-12.9707-19.38086-4.76467-5.140655-14.71583-12.075192-21.33204-14.908203-2.02774-0.868264-4.41955-1.721901-6.41015-2.335937-0.9953-0.307018-1.87959-0.552242-2.61914-0.712891-0.36978-0.08032-0.69305-0.142535-1.06641-0.173828-0.18668-0.01565-0.38079-0.03021-0.68945 0.0039-0.004 0.000477-0.0132 0.0035-0.0176 0.0039-1.34584-0.701662-2.61524-0.848393-4.37305-1.070313-1.85671-0.234406-4.03587-0.378165-6.1914-0.404297zm-143.14258 194.67188c0.0263-0.0586 0.0615-0.1232 0.12891-0.21679 0.002-0.006 0.002-0.009 0.004-0.0156-0.1084 0.1418-0.13971 0.20765-0.13281 0.23242zm148.5332-173.45703c3.68-0.0705 7.8318 0.796149 10.73242 2.322266 3.37874 1.777657 3.47655 1.87341 7.89063 6.166015 4.59087 4.464546 4.37401 4.142587 6.25781 7.873047 3.47437 6.880243 4.8076 12.078623 4.7168 18.089848-0.0322 2.13363-0.3699 5.35515-0.79492 8.05079-0.21251 1.34779-0.4489 2.57689-0.66211 3.45898-0.10661 0.44105-0.2085 0.79765-0.2793 1s-0.26612 0.30904 0.17188-0.16602h0.002c-0.86659 0.93988-1.16203 1.65554-1.29883 2.86328-0.005 0.0476-0.637 1.81148-1.67383 3.50196-1.03682 1.69048-2.42712 3.57218-3.75 5.01172-1.71636 1.86772-2.31706 2.46947-3.10351 2.80078-0.78646 0.33131-2.38312 0.54662-5.86524 0.85156-13.5697 1.18844-18.67143 0.80532-34.23633-2.54883-2.86782-0.618-5.91284-1.26034-6.75781-1.43945-0.73941-0.15676-3.27015-0.75704-5.44726-1.26953-2.27544-0.53567-5.35973-1.11091-7.12696-1.35352-1.46989-0.20181-3.56069-0.7569-3.55468-0.7539-0.42549-0.17371-0.39849-0.17101-0.48829-0.22071 0.0146-0.0682 0.01-0.0119 0.0957-0.33008 0.13574-0.50298 0.35951-1.17869 0.62695-1.88281 0.53488-1.40822 1.2877-2.99121 1.76367-3.73047 1.21615-1.88884 3.52102-6.00638 5.32617-9.46875 0.41921-0.80405 1.90271-3.30504 3.12305-5.23828 1.27735-2.023558 3.14421-5.145994 4.23047-7.007818 7.16535-12.281076 17.30869-22.524227 24.41797-25.548828 1.43377-0.609987 3.47347-0.98891 5.68359-1.03125zm213.04492 168.81446c0.005 0.002 0.0361 0.0295 0.043 0.0332-0.008-0.002-0.0147-0.002-0.0215-0.004-0.0304-0.009-0.0526-0.0412-0.0215-0.0293zm-7.42773 24.40429c7.65097 0.18273 14.75113 2.3497 19.3125 6.08985 4.145 3.39872 7.36197 8.53252 7.98242 12.14062 0.64201 3.73362-0.39578 12.11561-2.20508 16.58984-0.76125 1.88252-1.06724 2.6154-1.99023 3.86719s-2.55793 3.05886-5.74414 6.51172c-5.13491 5.56456-7.09845 7.3898-9.42774 8.9043-1.83279 1.19168-4.4999 2.99537-6.00195 4.04297-1.41585 0.98748-4.26262 2.88392-6.22656 4.13086-2.02009 1.2826-5.01919 3.21678-6.74219 4.3789-2.07745 1.40126-4.53277 2.83001-6.67187 3.91797-2.06187 1.04868-3.94086 1.70942-4.31836 1.79492-0.0359-0.19303-0.0702-0.24219-0.0918-0.50976-0.0789-0.97592-0.34314-2.15866-0.73633-3.95313s-0.91087-4.0112-1.4707-6.30469c-1.11966-4.58696-2.38265-9.41831-3.17969-11.89843-0.99993-3.11148-3.66216-16.07654-4.08594-20.11914-1.1686-11.14766 2.87694-20.76451 9.24219-24.32032 6.57049-3.67045 14.70368-5.44641 22.35547-5.26367zm-5.75195 203.35352c-3.51763-0.007-7.10299 0.0191-10.74414 0.0742-43.69383 0.66141-95.49891 5.61818-136.58985 11.48828-59.37296 8.48191-86.49443 6.39085-151.41797-0.10157-46.93613-4.69355-94.911988 1.08472-121.6875 5.25977l-19.761719 3.08203 6.164063 39.52149 19.759765-3.08008c24.956092-3.89135 70.690781-9.0678 111.54492-4.98242 65.27383 6.52743 98.90985 8.77633 161.05469-0.10157 52.57227-7.51028 126.74734-13.25651 168.38477-10.29101l19.94922 1.42187 2.84179-39.90039-19.94922-1.41992c-9.04851-0.64445-18.99594-0.95096-29.54882-0.9707z"/>
</svg>
