<?xml version="1.0" encoding="UTF-8" standalone="no"?>
<svg xmlns:rdf="http://www.w3.org/1999/02/22-rdf-syntax-ns#" xmlns="http://www.w3.org/2000/svg" version="1.0" xmlns:cc="http://creativecommons.org/ns#" xmlns:dc="http://purl.org/dc/elements/1.1/" viewBox="0 0 576.44501 577.45154">
<path d="m64.571 0.06355556c-41.335 0-64.571 21.371-64.571 65.036v450.123c0 40.844 20.895 62.229 62.192 62.229h452.024c41.307 0 62.229-20.315 62.229-62.229v-450.123c0-42.601-20.922-65.036-63.521-65.036-0.004 0-448.495-0.143-448.353 0z"/>
<path style="color-rendering:auto;text-decoration-color:#000000;color:#000000;isolation:auto;mix-blend-mode:normal;shape-rendering:auto;solid-color:#000000;block-progression:tb;text-decoration-line:none;image-rendering:auto;white-space:normal;text-indent:0;text-transform:none;text-decoration-style:solid" fill-rule="evenodd" fill="#fff" d="m56.126105 70.320888-0.002 0.002a2.7112712 3.162848 0 0 0 -1.386719 5.955078c74.000054 45.724284 136.79323 91.993184 191.89653 138.61909-4.70117 4.31744-9.36346 8.72703-13.97851 13.24414-33.81624 33.09855-65.25324 65.92983-94.54688 98.48828-8.65146-6.92921-24.1833-16.41139-44.515632-16.41992-2.134911-0.00089-4.322872 0.10206-6.560547 0.32422-27.943715 2.7743-50.924115 33.25749-53.21875 69.8418-1.175758 18.74469 6.923853 32.60607 15.103516 41.47461 1.687397 1.82948 3.384261 3.45198 5.021484 4.89258-5.335091 6.81079-10.610535 13.61324-15.771484 20.39843a2.7115159 3.1631335 0 0 0 -0.105469 0.14844s-3.628344 5.36391-5.443359 13.00977c-1.815016 7.64585-1.691409 18.14979 5.613281 27.14453 7.378164 9.08519 16.948567 9.4266 24.050781 7.32617 3.55108-1.05025 6.573298-2.65413 8.738281-4.10156 1.082546-0.72372 1.93476-1.39333 2.603516-2.02735 0.334568-0.31691 0.618823-0.59396 0.943359-1.0625 0.06453-0.093 0.149995-0.32322 0.222657-0.44531 22.836585-28.09234 46.025256-56.18368 70.259776-84.23828 3.24432 2.54942 7.14734 4.03906 11.33984 4.03906 11.21794 0 20.36523-10.66756 20.36523-23.7539 0-4.66839-1.18058-9.01674-3.1875-12.69532 35.36769-39.37998 73.39088-78.65599 116.11914-117.71679 42.72512 39.05796 80.74592 78.32947 116.11133 117.70703-2.00992 3.68066-3.1914 8.03249-3.1914 12.70508 0 13.08634 9.14534 23.7539 20.36328 23.7539 4.19581 0 8.10146-1.49181 11.34765-4.04492 24.23572 28.05618 47.42567 56.15 70.26368 84.24414 0.0716 0.11892 0.14944 0.35422 0.21289 0.44531 0.32453 0.46854 0.60684 0.74559 0.9414 1.0625 0.6687 0.63402 1.52298 1.30363 2.60547 2.02735 2.16499 1.44743 5.18726 3.05131 8.73828 4.10156 7.10216 2.10043 16.67267 1.75896 24.05078-7.32617 7.30459-8.99461 7.42825-19.49874 5.61329-27.14453-1.81502-7.6458-5.44336-13.00977-5.44336-13.00977a2.7112712 3.162848 0 0 0 -0.10547 -0.14844c-5.16095-6.78519-10.43636-13.58764-15.77149-20.39843 1.63723-1.4406 3.33409-3.0631 5.02149-4.89258 8.17966-8.86854 16.27927-22.72992 15.10351-41.47461-2.29463-36.58431-25.27503-67.0675-53.21875-69.8418-2.23767-0.22216-4.42563-0.32511-6.56054-0.32422-20.33329 0.009-35.86637 9.49062-44.51758 16.41992-29.29385-32.55817-60.73094-65.39002-94.54688-98.48828-4.61372-4.5158-9.27287-8.92398-13.97265-13.24023 55.10502-46.62802 117.90055-92.89763 191.90234-138.62305a2.7115159 3.1631335 0 0 0 -1.39844 -5.955078v-0.002a2.7115159 3.1631335 0 0 0 -0.42383 0.0625c-82.50329 19.979598-161.75398 54.464818-233.13085 108.5606-71.37686-54.09578-150.62952-88.580998-233.13282-108.56055a2.7112712 3.162848 0 0 0 -0.421875 -0.0625zm29.296875 286.76563c4.393138 0.0708 9.283034 1.92711 13.79883 4.48437 1.84884 1.04698 3.62046 2.20243 5.2793 3.37695-11.255335 13.17589-22.155894 26.30513-32.736333 39.38868-0.449537-1.67854-0.883484-3.40782-1.275391-5.20704-2.756848-12.65651-3.385383-27.16865 3.369141-36.17382 3.345676-4.46046 7.171369-5.9398 11.564453-5.86914zm408.51563 0c4.39308-0.0707 8.21878 1.40868 11.56445 5.86914 6.75453 9.00517 6.12599 23.51731 3.36914 36.17382-0.3919 1.79922-0.82585 3.5285-1.27539 5.20704-10.58061-13.08363-21.48271-26.2127-32.73828-39.38868 1.65871-1.17452 3.43046-2.32997 5.2793-3.37695 4.51579-2.55726 9.40764-4.41353 13.80078-4.48437z"/>
</svg>
