<?xml version="1.0" encoding="UTF-8" standalone="no"?>
<svg xmlns:rdf="http://www.w3.org/1999/02/22-rdf-syntax-ns#" xmlns="http://www.w3.org/2000/svg" version="1.0" xmlns:cc="http://creativecommons.org/ns#" xmlns:dc="http://purl.org/dc/elements/1.1/" viewBox="0 0 576.44501 577.45154">
<path d="m64.571 0.06355556c-41.335 0-64.571 21.371-64.571 65.036v450.123c0 40.844 20.894 62.229 62.192 62.229h452.024c41.307 0 62.229-20.316 62.229-62.229v-450.123c0-42.601-20.922-65.036-63.522-65.036-0.003 0-448.494-0.143-448.352 0z"/>
<path style="color-rendering:auto;text-decoration-color:#000000;color:#000000;isolation:auto;mix-blend-mode:normal;shape-rendering:auto;solid-color:#000000;block-progression:tb;text-decoration-line:none;text-decoration-style:solid;image-rendering:auto;white-space:normal;text-indent:0;text-transform:none" d="m313.84288 25.842431a8.9440649 8.9440649 0 0 0 -4.50586 0.980469l-227.59571 117.09961a8.9440649 8.9440649 0 0 0 -1.361328 15.04102l183.29883 141.0293a8.9440649 8.9440649 0 0 0 9.63672 0.8164l227.14258-120.17383a8.9440649 8.9440649 0 0 0 1.20312 -15.04296l-182.8457-137.95509a8.9440649 8.9440649 0 0 0 -4.97265 -1.794922zm-17.59961 103.72461c0.48486-0.007 0.97055-0.006 1.45703 0.004 14.59424 0.2846 29.75339 7.93702 34.14843 21.05859a8.9440649 8.9440649 0 0 0 0.10938 0.3086c2.31218 6.14517 1.0907 12.07157-2.68945 17.85547-3.78016 5.7839-10.30718 10.74309-16.65821 12.8457a8.9440649 8.9440649 0 0 0 -0.20703 0.0703c-8.9897 3.22174-19.81562 4.16549-29.29101 2.18555-9.4754-1.97994-17.38818-6.5714-22.44336-14.35742a8.9440649 8.9440649 0 0 0 -0.3125 -0.44922c-6.30343-8.51685-3.57041-22.12347 4.69922-29.04492a8.9440649 8.9440649 0 0 0 0.1875 -0.16016c7.542-6.67508 18.42227-10.13279 29.21875-10.26172a8.9440649 8.9440649 0 0 0 0.33007 -0.01c0.48229-0.0236 0.96631-0.0382 1.45118-0.0449zm-222.43946 42.30079a8.9440649 8.9440649 0 0 0 -8.539062 9.29882l0.04492 1.11524 0.02344 0.5957a8.9440649 8.9440649 0 0 0 0.002 0.0254c3.031651 69.28368 3.500044 138.88125 6.708985 208.61328a8.9440649 8.9440649 0 0 0 3.019531 6.29883c57.272664 50.48585 116.1294 98.77692 173.17578 148.96485a8.9440649 8.9440649 0 0 0 14.84961 -6.79297c-0.64001-74.09561-1.28101-148.18956-1.92188-222.28516a8.9440649 8.9440649 0 0 0 -3.48828 -7.01172l-178.02544-136.97657a8.9440649 8.9440649 0 0 0 -5.84961 -1.8457zm435.87305 19.38085a8.9440649 8.9440649 0 0 0 -4.03125 1.03711l-226.30469 119.78907a8.9440649 8.9440649 0 0 0 -4.75781 7.98242c0.64046 73.5599 1.2814 147.11978 1.92187 220.67969a8.9440649 8.9440649 0 0 0 13.44532 7.64843l221.76367-129.25586a8.9440649 8.9440649 0 0 0 4.4375 -7.61718l2.62109-211.21094a8.9440649 8.9440649 0 0 0 -9.0957 -9.05274zm-30.52539 58.5254c9.62647-0.20499 18.04717 10.53189 17.06445 20.25781a8.9440649 8.9440649 0 0 0 -0.0391 0.58203c-0.60534 17.02806-14.50355 33.40412-30.73438 39.30859-4.93399 1.36072-11.3424 0.3903-16.12109-2.48633-4.8431-2.91538-7.71364-6.96886-7.82422-12.20507a8.9440649 8.9440649 0 0 0 -0.041 -0.68946c-2.06881-20.96027 16.7338-43.06231 37.69531-44.76757zm-362.66016 0.82226c7.62641 0.18578 14.08368 3.67555 19.60742 9.55274 5.58729 5.94479 9.80256 14.30013 11.70704 22.28906a8.9440649 8.9440649 0 0 0 0.3125 1.0332c2.22343 6.0001 1.66874 14.20606-1.41993 20.56641-3.04414 6.26866-7.76948 10.34935-14.15429 11.14062-7.98595 0.24031-14.92656-3.21846-20.78711-9.27343-5.93984-6.13692-10.29037-14.90449-11.82227-23.12696a8.9440649 8.9440649 0 0 0 -0.38867 -1.41992c-2.176975-5.98083-1.347289-14.15822 2.05273-20.40234 3.36374-6.17748 8.38366-10.04453 14.89258-10.35938zm298.93555 91.78516c9.25832-0.20558 17.59412 10.09805 16.875 19.57617a8.9440649 8.9440649 0 0 0 -0.0254 0.58203c-0.17665 16.92894-13.79723 33.7067-29.95508 39.84766-5.01826 1.52567-11.65733 0.64717-16.60742-2.23633-5.00511-2.91555-7.97834-7.0066-8.07617-12.45508a8.9440649 8.9440649 0 0 0 -0.041 -0.70117c-2.02521-20.8986 16.86237-42.95724 37.83008-44.61328zm-225.97656 63.3164c7.69626 0.0769 14.06464 3.54599 19.58398 9.47852 5.57474 5.99207 9.80866 14.47392 11.80274 22.51758a8.9440649 8.9440649 0 0 0 0.28906 0.93945c2.18589 5.93471 1.71188 13.83462-1.19141 20.06641-2.8685 6.15712-7.46481 10.32013-13.625 11.41015-7.39888 0.73964-13.87612-2.03205-19.71484-7.36133-5.90639-5.39099-10.63383-13.41189-12.88086-21.04687a8.9440649 8.9440649 0 0 0 -0.28516 -0.82422c-4.83921-11.98385-0.94184-28.4593 10.33399-33.83984a8.9440649 8.9440649 0 0 0 0.125 -0.0625c1.37773-0.68401 3.29851-1.11952 5.5625-1.27735zm161.09765 26.52149c9.26712 0.16951 17.22722 10.3027 16.5293 19.74609a8.9440649 8.9440649 0 0 0 -0.0234 0.52149c-0.26187 17.10652-14.1896 33.84232-30.49023 39.81054-4.99379 1.42391-11.43697 0.49871-16.24024-2.3457-4.86146-2.87887-7.76615-6.91138-7.91015-12.24219a8.9440649 8.9440649 0 0 0 -0.0449 -0.68554c-2.19564-21.03345 17.11263-43.51177 38.17968-44.80469z" fill-rule="evenodd" fill="#fff"/>
</svg>
