<?xml version="1.0" encoding="UTF-8" standalone="no"?>
<svg xmlns:rdf="http://www.w3.org/1999/02/22-rdf-syntax-ns#" xmlns="http://www.w3.org/2000/svg" version="1.0" xmlns:cc="http://creativecommons.org/ns#" xmlns:dc="http://purl.org/dc/elements/1.1/" viewBox="0 0 576.44501 577.45154">
<path d="m64.571 0.06355556c-41.335 0-64.571 21.371-64.571 65.036v450.123c0 40.844 20.895 62.229 62.192 62.229h452.024c41.307 0 62.229-20.315 62.229-62.229v-450.123c0-42.601-20.922-65.036-63.521-65.036-0.004 0-448.495-0.143-448.353 0z"/>
<path d="m407.66514 43.399072v9.375 49.353518h-99.33398v-57.603518h-39.28125v57.603518h-99.97266v-56.652346h-39.2832v56.652346h-56.402347v39.30469h56.402347v84.69531h-56.402347v39.30469h56.402347v84.69531h-56.402347v39.30469h56.402347v83.77148h-35.544925l54.917965 59.83594 55.95703-59.83594h-36.04687v-83.77148h99.97266v84.65625h-35.03907l54.91602 59.83594 55.95898-59.83594h-36.55468v-84.65625h99.33398v84.65625h-33.6543l54.91602 59.83594 55.95898-59.83594h-37.93945v-84.65625h59.08203v-39.30469h-59.08203v-84.69531h59.08203v-39.30469h-59.08203v-84.69531h59.08203v-39.30469h-59.08203v-58.728518h-39.28125zm-238.58789 98.033208h99.97266v84.69531h-99.97266v-84.69531zm139.25391 0h99.33398v84.69531h-99.33398v-84.69531zm-139.25391 124h99.97266v84.69531h-99.97266v-84.69531zm139.25391 0h99.33398v84.69531h-99.33398v-84.69531z" fill-rule="evenodd" fill="#fff"/>
</svg>
