<?xml version="1.0" encoding="UTF-8" standalone="no"?>
<svg xmlns:rdf="http://www.w3.org/1999/02/22-rdf-syntax-ns#" xmlns="http://www.w3.org/2000/svg" version="1.0" xmlns:cc="http://creativecommons.org/ns#" xmlns:dc="http://purl.org/dc/elements/1.1/" viewBox="0 0 576.44501 577.45154">
<path d="m64.571 0.06355556c-41.335 0-64.571 21.371-64.571 65.036v450.123c0 40.844 20.895 62.229 62.192 62.229h452.024c41.307 0 62.229-20.315 62.229-62.229v-450.123c0-42.601-20.922-65.036-63.521-65.036-0.004 0-448.495-0.143-448.353 0z"/>
<path style="color-rendering:auto;text-decoration-color:#000000;color:#000000;isolation:auto;mix-blend-mode:normal;shape-rendering:auto;solid-color:#000000;block-progression:tb;text-decoration-line:none;image-rendering:auto;white-space:normal;text-indent:0;text-transform:none;text-decoration-style:solid" fill="#fff" d="m47.95225 131.31314a3.0003 3.0003 0 0 0 -3 2.98828l-0.353516 96.64062a3.0003 3.0003 0 0 0 0 0.004v0.0527 0.0215a3.0003 3.0003 0 0 0 3.025391 3.06445l29.488281-0.26172v222.09766a3.0003 3.0003 0 0 0 3 3h160.80468a3.0003 3.0003 0 0 0 3 -3v-81.32227h45.45703 19.70313 25.41211v81.32227a3.0003 3.0003 0 0 0 3 3h160.58203a3.0003 3.0003 0 0 0 3 -3v-222.09766l29.44531 0.26172a3.0003 3.0003 0 0 0 3.02149 -3.16015v-0.006l-0.34961-96.61719a3.0003 3.0003 0 0 0 -3 -2.98828h-32.11719a3.0003 3.0003 0 0 0 -3 3v29.16015h-26.11523v-29.16015a3.0003 3.0003 0 0 0 -3 -3h-32.11719a3.0003 3.0003 0 0 0 -3 3v29.16015h-26.11524v-29.16015a3.0003 3.0003 0 0 0 -3 -3h-32.11718a3.0003 3.0003 0 0 0 -3 3v96.48242a3.0003 3.0003 0 0 0 3 3h29.11718v58.32227h-26.11718v-29.16016a3.0003 3.0003 0 0 0 -3 -3h-32.11719a3.0003 3.0003 0 0 0 -3 3v29.16016h-26.11524v-29.16016a3.0003 3.0003 0 0 0 -3 -3h-0.13671-31.98047-0.17969a3.0003 3.0003 0 0 0 -3 3v29.15625h-26.16016v-29.15625a3.0003 3.0003 0 0 0 -3 -3h-32.16015a3.0003 3.0003 0 0 0 -3 3v29.15625h-26.16211v-58.31836h29.16211a3.0003 3.0003 0 0 0 3 -3v-96.48242a3.0003 3.0003 0 0 0 -3 -3h-32.16211a3.0003 3.0003 0 0 0 -3 3v29.16015h-26.16016v-29.16015a3.0003 3.0003 0 0 0 -3 -3h-32.16015a3.0003 3.0003 0 0 0 -3 3v29.16015h-26.162118v-29.16015a3.0003 3.0003 0 0 0 -3 -3h-32.160156z"/>
</svg>
