<?xml version="1.0" encoding="UTF-8" standalone="no"?>
<svg xmlns:rdf="http://www.w3.org/1999/02/22-rdf-syntax-ns#" xmlns="http://www.w3.org/2000/svg" version="1.0" xmlns:cc="http://creativecommons.org/ns#" xmlns:dc="http://purl.org/dc/elements/1.1/" viewBox="0 0 576.44501 577.45154">
<path d="m64.571 0.06355556c-41.335 0-64.571 21.371-64.571 65.036v450.123c0 40.844 20.894 62.229 62.192 62.229h452.024c41.307 0 62.229-20.316 62.229-62.229v-450.123c0-42.601-20.922-65.036-63.522-65.036-0.003 0-448.494-0.143-448.352 0z"/>
<path fill="#fff" d="m95.931195 124.58187 200.3151 416.30926 187.95776-90.43944-200.3151-416.30926-187.95776 90.43944zm32.864855-5.78624 128.50389-61.832092 59.27536 123.19032-128.50389 61.83209-59.27536-123.19032zm-19.89592 15.82408 13.79944-6.63986 10.72298 22.28529-13.79943 6.63986-10.72299-22.28529zm159.03712-76.52373 13.79943-6.639858 10.72299 22.285287-13.79943 6.639858-10.72299-22.285287zm-134.61465 127.28026 13.79943-6.63986 10.72299 22.28529-13.79943 6.63985-10.72299-22.28528zm159.03712-76.52373 13.79943-6.63986 10.72298 22.28529-13.79943 6.63986-10.72298-22.28529zm-134.61465 127.28025 13.79943-6.63985 10.72299 22.28528-13.79943 6.63986-10.72299-22.28529zm159.03711-76.52372 13.79943-6.63986 10.72299 22.28529-13.79943 6.63985-10.72299-22.28528zm-122.85956 94.53733 128.50389-61.83209 59.27536 123.19032-128.50389 61.83208-59.27536-123.19031zm-11.75509 32.74292 13.79943-6.63986 10.72299 22.28529-13.79943 6.63986-10.72299-22.28529zm159.03712-76.52373 13.79943-6.63986 10.72299 22.28529-13.79943 6.63986-10.72299-22.28529zm-134.61465 127.28025l13.79943-6.63985 10.72299 22.28528-13.79943 6.63986-10.72299-22.28529zm159.03711-76.52372 13.79943-6.63986 10.72299 22.28529-13.79943 6.63986-10.72299-22.28529zm-134.61465 127.28025 13.79944-6.63986 10.72298 22.28529-13.79943 6.63986-10.72299-22.28529zm159.03712-76.52373 13.79943-6.63985 10.72299 22.28528-13.79943 6.63986-10.72299-22.28529zm-131.00038 77.61849 128.50389-61.83209 59.27536 123.19032-128.50389 61.83209-59.27536-123.19032zm-3.61427 49.66177 13.79943-6.63986 10.72299 22.28529-13.79943 6.63985-10.72299-22.28528zm159.03712-76.52373 13.79943-6.63986 10.72298 22.28529-13.79943 6.63986-10.72298-22.28529zm-134.61465 127.28025 13.79943-6.63985 10.72299 22.28528-13.79943 6.63986-10.72299-22.28529zm159.03711-76.52372 13.79943-6.63986 10.72299 22.28529-13.79943 6.63985-10.72299-22.28528z"/>
<path opacity=".3317308" d="m257.29014 56.955712-128.50391 61.830078 59.27735 123.19336 128.50195-61.83203-59.27539-123.19141zm65.125 135.34962-128.50195 61.83203 59.27734 123.19336 128.50195-61.83204-59.27734-123.19335zm65.12695 135.35156-128.50195 61.83203 59.27539 123.19141 128.50391-61.83204-59.27735-123.1914z" fill="#fff"/>
</svg>
