<?xml version="1.0" encoding="UTF-8" standalone="no"?>
<svg xmlns:rdf="http://www.w3.org/1999/02/22-rdf-syntax-ns#" xmlns="http://www.w3.org/2000/svg" version="1.0" xmlns:cc="http://creativecommons.org/ns#" xmlns:dc="http://purl.org/dc/elements/1.1/" viewBox="0 0 576.44501 577.45154">
<path d="m64.571 0.06355556c-41.335 0-64.571 21.371-64.571 65.036v450.123c0 40.844 20.895 62.229 62.192 62.229h452.024c41.307 0 62.229-20.315 62.229-62.229v-450.123c0-42.601-20.922-65.036-63.521-65.036-0.004 0-448.495-0.143-448.353 0z"/>
<path style="color-rendering:auto;text-decoration-color:#000000;color:#000000;isolation:auto;mix-blend-mode:normal;shape-rendering:auto;solid-color:#000000;block-progression:tb;text-decoration-line:none;image-rendering:auto;white-space:normal;text-indent:0;text-transform:none;text-decoration-style:solid" fill-rule="evenodd" fill="#fff" d="m215.29014 35.1354a9.3494351 9.3494351 0 0 0 -9.34766 9.357422l0.0195 20.251953-62.99024 1.316406a14.437874 14.437874 0 0 0 -14.13281 14.183594l-1.48047 85.839845a14.437874 14.437874 0 0 0 13.68945 14.66602l65.02735 3.36523 0.34179 359.47071a9.3494351 9.3494351 0 0 0 9.34961 9.33984h45.09571a9.3494351 9.3494351 0 0 0 9.34765 -9.34961v-356.14258l142.75391 7.38867a14.437874 14.437874 0 0 0 11.17578 -4.43359l46.24414-48.31445a14.437874 14.437874 0 0 0 0.69336 -19.18555l-47.35543-57.226566a14.437874 14.437874 0 0 0 -11.42383 -5.230469l-142.08789 2.96875v-18.916016a9.3494351 9.3494351 0 0 0 -9.34765 -9.349609h-45.57227z"/>
</svg>
