<?xml version="1.0" encoding="UTF-8" standalone="no"?>
<svg xmlns:rdf="http://www.w3.org/1999/02/22-rdf-syntax-ns#" xmlns="http://www.w3.org/2000/svg" version="1.0" xmlns:cc="http://creativecommons.org/ns#" xmlns:dc="http://purl.org/dc/elements/1.1/" viewBox="0 0 576.44501 577.45154">
<path d="m64.571 0.06355556c-41.335 0-64.571 21.371-64.571 65.036v450.123c0 40.844 20.895 62.229 62.192 62.229h452.024c41.307 0 62.229-20.315 62.229-62.229v-450.123c0-42.601-20.922-65.036-63.521-65.036-0.004 0-448.495-0.143-448.353 0z"/>
<path opacity=".75" style="color:#000000" fill="#fff" d="m498.671 35.358056c-143.15128 1.286807-286.33584-1.143858-429.46875 1.3125-14.961633 3.909431-21.461481 21.484297-19.03125 35.625 1.55733 102.81248-1.420827 205.69554 1.59375 308.46875 4.747613 14.64179 22.459418 20.41589 36.53125 17.53125 140.03878-0.47958 280.10246 0.96882 420.125-0.8125 15.27991-3.97416 22.09996-22.04385 18.9375-36.46875-0.54604-102.2416 1.14023-204.55393-0.96875-306.75-2.89193-12.088814-15.80119-19.476267-27.71875-18.906258zm-212.78125 15.28125c1.42809-0.0164 2.83967 0.369976 4 1.21875 24.27624 32.721925 46.2709 67.168514 69.9375 100.375 5.10012 3.84513 5.77385 14.43639-1.75 15.8125-16.88792-4.38674-32.67213-12.44566-48.84375-19-0.0291 21.38107 0.49925 43.0402-1.9375 64.21875-6.52661 6.38789-16.71583 3.09902-24.90625 3.53125-7.80717-0.80589-18.21791 3.25054-23.875-4.21875-1.98557-20.91234 0.17175-42.11286 0.21875-63.125-13.54054 5.55941-27.45869 10.39191-40.90625 16.25-5.16344 4.792-15.81397 0.63292-14.03125-6.9375 20.04457-29.56149 42.10685-57.93801 63-87.000008 6.5268-6.635583 9.37889-17.228858 18.46875-21.09375 0.20306-0.01887 0.42099-0.02891 0.625-0.03125zm54.5 182.875c5.1513-0.21986 10.65116 2.73785 10.625 8.46875 0.0256 44.85364 0.8412 89.78968-0.34375 134.65625-3.80035 8.24645-14.80061 6.46144-21.9375 4.46875-23.92361-23.22798-46.3585-48.1886-69.625-72.15625-0.10052 21.23338 0.68941 42.49805-0.375 63.71875 0.9313 7.05923-7.55018 8.8117-12.90625 8.125-7.907-1.53175-16.15728 1.75425-23.78125-1.03125-6.87529-2.42026-4.47704-10.98566-5.28125-16.59375 0.6739-40.22799-0.82004-80.47117 0.5625-120.6875-1.52104-6.7037 6.09214-8.865 11.25-8.875 4.07041-0.12008 8.06969 0.51907 12.03125 1.15625 23.91377 21.54811 45.40951 45.97566 68.28125 68.75 0.0141-13.84778-0.1096-27.71467-0.0625-41.5625 1.21411-8.52552-2.10781-18.02028 2.46875-25.875 8.16276-4.62597 18.01338-0.98286 26.90625-2.28125 0.70364-0.1624 1.4516-0.24984 2.1875-0.28125z"/>
<path style="color-rendering:auto;text-decoration-color:#000000;color:#000000;isolation:auto;mix-blend-mode:normal;shape-rendering:auto;solid-color:#000000;block-progression:tb;text-decoration-line:none;image-rendering:auto;white-space:normal;text-indent:0;text-transform:none;text-decoration-style:solid" fill-rule="evenodd" fill="#fff" d="m482.6417 48.889306a10.001 10.001 0 0 0 -10 10.005859l0.21289 474.48048a10.001 10.001 0 0 0 10 9.99609h20.17188a10.001 10.001 0 0 0 10 -10v-474.48242a10.001 10.001 0 0 0 -10 -10h-20.38477zm-407.07617 2a10.001 10.001 0 0 0 -10 10.005859l0.212891 470.81056a10.001 10.001 0 0 0 10 9.99608h20.171875a10.001 10.001 0 0 0 10.000004 -10v-470.8125a10.001 10.001 0 0 0 -10.000004 -10h-20.384766z"/>
</svg>
