<?xml version="1.0" encoding="UTF-8" standalone="no"?>
<svg xmlns:rdf="http://www.w3.org/1999/02/22-rdf-syntax-ns#" xmlns="http://www.w3.org/2000/svg" version="1.0" xmlns:cc="http://creativecommons.org/ns#" xmlns:dc="http://purl.org/dc/elements/1.1/" viewBox="0 0 576.44501 577.45154">
<path d="m64.571 0.06355556c-41.335 0-64.571 21.371-64.571 65.036v450.123c0 40.844 20.895 62.229 62.192 62.229h452.024c41.307 0 62.229-20.315 62.229-62.229v-450.123c0-42.601-20.922-65.036-63.521-65.036-0.004 0-448.495-0.143-448.353 0z"/>
<path style="color-rendering:auto;text-decoration-color:#000000;color:#000000;isolation:auto;mix-blend-mode:normal;shape-rendering:auto;solid-color:#000000;block-progression:tb;text-decoration-line:none;image-rendering:auto;white-space:normal;text-indent:0;text-transform:none;text-decoration-style:solid" fill-rule="evenodd" fill="#fff" d="m284.45811 51.371728-214.1875 90.828132v32.96289l212.21484-86.328132 218.37696 84.333992v-32.96485l-216.4043-88.832032zm1.66016 59.361332-157.27344 62.91016 65.48828-0.64649 91.26758-30.35156 91.52929 32.40625 61.96094 0.28125-152.97265-64.59961zm217.04492 81.74805-433.11328 0.0605 0.0059 36.04493 18.640625-0.002 0.02734 198.25-18.814453 0.002 0.0039 18.02343 433.11328-0.0625-0.004-18.02148-17.79883 0.002-0.0273-198.25195 17.9707-0.002-0.004-36.04297zm-54.01172 36.05078 0.0273 198.25195-36.04687 0.004-0.0274-198.25196 36.04688-0.004zm-72.0918 0.01 0.0274 198.25196-36.04493 0.006-0.0273-198.25196 36.04492-0.006zm-72.08984 0.0117 0.0273 198.25-36.04687 0.006-0.0273-198.25 36.04688-0.006zm-72.0918 0.01 0.0273 198.25-36.04493 0.006-0.0273-198.25 36.04492-0.006zm-72.08984 0.0117 0.0273 198.24804-36.04492 0.006-0.0273-198.25 36.04492-0.004zm-108.9375 234.21289-0.002 18.02343 469.23437 0.0254v-18.02149l-469.23242-0.0273zm-17.708985 36.11914-0.002 18.02148 504.90624 0.008v-18.02343l-504.90428-0.006z"/>
</svg>
