<?xml version="1.0" encoding="UTF-8" standalone="no"?>
<svg xmlns:rdf="http://www.w3.org/1999/02/22-rdf-syntax-ns#" xmlns="http://www.w3.org/2000/svg" version="1.0" xmlns:cc="http://creativecommons.org/ns#" xmlns:dc="http://purl.org/dc/elements/1.1/" viewBox="0 0 576.44501 577.45154">
<path d="m64.571 0.06355556c-41.335 0-64.571 21.371-64.571 65.036v450.123c0 40.844 20.895 62.229 62.192 62.229h452.024c41.307 0 62.229-20.315 62.229-62.229v-450.123c0-42.601-20.922-65.036-63.521-65.036-0.004 0-448.495-0.143-448.353 0z"/>
<path d="m291.97569 57.606103-225.10352 74.921877h-40.462891v13.4668l-3.660156 1.21875h3.660156v0.0762 58.83008h48.994141v211.33789h-22.902344l-31.044922 51.30469 534.48242-0.92969-29.08399-50.375h-26.78515v-211.33789h52.27344v-58.90625h3.8496l-3.8496-1.30469v-13.38086h-39.45313l-220.91405-74.921907zm-168.08399 148.51368h74.11524v211.33789h-74.11524v-211.33789zm122.60352 0h82.48242v211.33789h-82.48242v-211.33789zm130.96875 0h74.11719v211.33789h-74.11719v-211.33789z" fill-rule="evenodd" fill="#fff"/>
</svg>
