<?xml version="1.0" encoding="UTF-8" standalone="no"?>
<svg xmlns:rdf="http://www.w3.org/1999/02/22-rdf-syntax-ns#" xmlns="http://www.w3.org/2000/svg" version="1.0" xmlns:cc="http://creativecommons.org/ns#" xmlns:dc="http://purl.org/dc/elements/1.1/" viewBox="0 0 576.44501 577.45154">
<path d="m64.571 0.06355556c-41.335 0-64.571 21.371-64.571 65.036v450.123c0 40.844 20.895 62.229 62.192 62.229h452.024c41.307 0 62.229-20.315 62.229-62.229v-450.123c0-42.601-20.922-65.036-63.521-65.036-0.004 0-448.495-0.143-448.353 0z"/>
<path fill="#fff" d="m209.98696 282.77111 47.57838-116.90229h48.76157l47.57839 116.90229h-143.91834zm155.0869-116.90229h79.29134v-43.47309h-314.27911v43.47309h78.71767l-47.57839 116.90229h-116.3107v43.45518h98.68842l-54.623722 136.29934h53.458452l55.21532-136.29934h178.57134l55.21532 136.29934h54.05005l-55.21531-136.29934h99.28v-43.45518h-116.90229l-47.57839-116.90229z"/>
</svg>
