<?xml version="1.0" encoding="UTF-8" standalone="no"?>
<svg xmlns:rdf="http://www.w3.org/1999/02/22-rdf-syntax-ns#" xmlns="http://www.w3.org/2000/svg" version="1.0" xmlns:cc="http://creativecommons.org/ns#" xmlns:dc="http://purl.org/dc/elements/1.1/" viewBox="0 0 576.44501 577.45154">
<path d="m64.571 0.06355556c-41.335 0-64.571 21.371-64.571 65.036v450.123c0 40.844 20.895 62.229 62.192 62.229h452.024c41.307 0 62.229-20.315 62.229-62.229v-450.123c0-42.601-20.922-65.036-63.521-65.036-0.004 0-448.495-0.143-448.353 0z"/>
<path style="color-rendering:auto;text-decoration-color:#000000;color:#000000;isolation:auto;mix-blend-mode:normal;shape-rendering:auto;solid-color:#000000;block-progression:tb;text-decoration-line:none;image-rendering:auto;white-space:normal;text-indent:0;text-transform:none;text-decoration-style:solid" fill-rule="evenodd" fill="#fff" d="m71.467875 142.59829-2.830078 35.9336 20.058594 1.58008 0.02734 196.7207-18.814453 0.004 0.0039 18.02343 255.42187-0.043 2.92383 4.17383 5.96094-4.17578 108.80664-0.0176-0.004-18.02148-86.30664 0.0137-98.96484-141.29492-2.34766 1.64453-3.97265-44.20703 70.31835 5.53906 2.83204-35.93555-253.11328-19.9375zm53.275395 40.35352 36.04492 2.83984 0.0273 191.0293-36.04492 0.006-0.0273-193.875zm72.09179 5.67969 18.14649 1.42968 16.78906 186.75-34.91016 0.004-0.0254-188.18359zm64.53321 114.85937 51.3457 73.30664-44.75391 0.008-6.59179-73.31446zm-209.51758 109.29688-0.002 18.02343 449.23437 0.0254v-18.02149l-449.23242-0.0273zm-17.708985 36.11914-0.002 18.02148 504.90624 0.008v-18.02343l-504.90428-0.006z"/>
</svg>
