<?xml version="1.0" encoding="UTF-8" standalone="no"?>
<svg xmlns:rdf="http://www.w3.org/1999/02/22-rdf-syntax-ns#" xmlns="http://www.w3.org/2000/svg" version="1.0" xmlns:cc="http://creativecommons.org/ns#" xmlns:dc="http://purl.org/dc/elements/1.1/" viewBox="0 0 576.44501 577.45154">
<path d="m64.571 0.06355556c-41.335 0-64.571 21.371-64.571 65.036v450.123c0 40.844 20.895 62.229 62.192 62.229h452.024c41.307 0 62.229-20.315 62.229-62.229v-450.123c0-42.601-20.922-65.036-63.521-65.036-0.004 0-448.495-0.143-448.353 0z"/>
<path style="color-rendering:auto;text-decoration-color:#000000;color:#000000;isolation:auto;mix-blend-mode:normal;shape-rendering:auto;solid-color:#000000;block-progression:tb;text-decoration-line:none;image-rendering:auto;white-space:normal;text-indent:0;text-transform:none;text-decoration-style:solid" fill-rule="evenodd" fill="#fff" d="m313.59288 80.186181c-2.13424-0.0011-4.32099 0.243194-6.5293 0.808594-5.88885 1.507725-11.4555 5.520194-15.31641 11.189453l-0.90429 1.328125-0.44336 1.542969c-2.98568 10.408748-6.17624 20.845188-9.3379 31.359378-5.12843-4.68956-11.68308-7.16347-17.69335-7.15039-14.64366 0.0319-25.7886 9.17616-33.53125 16.42187-29.15648 22.38664-48.44765 37.12803-96.04883 49.95313l-0.14649 0.0391-0.14258 0.0449c-6.42946 1.9421-20.06498 2.08348-36.169917 0.77539-16.027351-1.30177-34.757609-3.65868-53.617187-5-4.120955-0.56802-8.379452-0.33205-12.335938 1.60938-4.136308 2.02967-7.145903 5.9459-8.507812 9.61719-2.723819 7.34257-1.53383 13.9722-0.128907 20.83593 2.809848 13.72748 8.779607 29.29796 9.941407 35.60743l0.115234 0.625 0.193359 0.60547c21.179638 66.32966 45.725572 134.3963 89.867191 191.42382l0.22461 0.28907 0.24609 0.27343c25.58445 28.47349 61.58269 54.29727 103.73828 53.81641l0.35938-0.004 0.35742-0.0312c34.92025-2.91173 63.07092-29.40778 72.46679-61.8164 13.04894 12.65047 30.0012 21.18536 48.95313 22.76562l0.35937 0.0293 0.35938 0.004c42.15898 0.4809 78.1412-25.3658 103.72266-53.83594l0.24609-0.27149 0.22461-0.29101c44.13968-57.02502 68.71591-125.07168 89.89648-191.4043l0.19336-0.60547 0.11524-0.625c1.16257-6.31364 7.12583-21.88395 9.92968-35.61328 1.40194-6.86466 2.58842-13.49674-0.13867-20.83789-1.36354-3.67058-4.3738-7.58423-8.50976-9.61328-3.95616-1.94084-8.21476-2.17739-12.33594-1.60938 0.0913-0.006 0.18213-0.015 0.27344-0.0215l-0.83594 0.0937c0.18669-0.0291 0.37519-0.0464 0.5625-0.0723-18.86074 1.34144-37.58917 3.70103-53.61328 5.00586-16.10169 1.31115-29.73201 1.17217-36.16016-0.76953l-0.14453-0.043-0.14453-0.0391c-47.59047-12.82217-66.90174-27.57557-96.04883-49.954981-5.85272-5.448833-13.73119-11.624371-23.45898-14.759765-2.50635-0.807829-5.19131-1.407008-7.98633-1.615235-0.69876-0.05206-1.40383-0.07972-2.11523-0.08008zm-50.18165 59.078129c1.98577-0.004 2.96804 0.37308 4.57227 2.42773 1.43499 4.96517 2.90176 9.90949 4.37891 14.8379-1.82107 6.73501-3.53638 13.52777-5.10352 20.38671-0.15961 0.69167-0.32042 1.38294-0.47656 2.07618-0.22511 1.00787-0.44023 2.02028-0.65821 3.03125-0.24843 1.14612-0.50847 2.28676-0.74609 3.4375l-0.0918 0.4414-0.0508 0.44922c-3.50225 30.77702-5.62229 62.12967-5.08398 93.49805 0.0149 0.86726 0.0396 1.73428 0.0586 2.60156 0.0268 1.23633 0.0507 2.47269 0.0859 3.70898 0.95321 33.45588 5.02576 66.88961 13.77344 99.61719l0.006 0.0176c0.27489 1.06229 0.56219 2.12201 0.86328 3.17969 0.003 0.0111 0.007 0.0221 0.01 0.0332 0.2832 1.0191 0.589 2.05631 0.91407 3.10547 0.50269 2.01483 1.08296 4.00354 1.73437 5.96484 1.86919 5.72301 4.33189 11.23588 7.30664 16.44922-0.43859 1.73388-0.86023 3.45864-1.33008 5.21485l-0.0117 0.0391-0.01 0.041c-0.48857 1.88899-1.02804 3.77794-1.61133 5.64063l-0.0957 0.30273-0.0742 0.3086c-6.33066 25.87034-29.00492 47.77484-55.37695 50.11328-33.39066 0.18823-64.7334-21.18214-87.92396-46.89263-41.448073-53.66657-65.414465-119.18088-86.384768-184.8418-2.170538-10.7738-7.602331-24.4004-9.751953-34.90234-0.787077-3.84525-0.809272-6.52765-0.757812-8.16016l0.0332 0.006 0.419922 0.0293c18.210264 1.2855 36.9006 3.64285 53.68164 5.00586 16.770701 1.36216 31.374601 2.11182 43.546881-1.5586 50.04603-13.52541 73.654-30.9716 102.9414-53.45898l0.40235-0.30859 0.36914-0.34766c5.94929-5.61083 16.0925-11.48467 20.4414-11.49414zm111.35938 60.44727c2.85099 0.23828 4.75311 2.11228 6.04687 5.76367 1.41977 4.007 0.66782 8.32691-1.44726 10.35742l-0.20899 0.19922-0.19726 0.21289c-12.78911 13.7857-32.78953 22.63319-50.12695 18.42578-3.23911-1.32801-6.59573-4.94843-7.97266-9.05664-1.35291-4.03655-0.97016-7.42796 1.1543-10.08008 6.05471-5.01716 13.7356-7.51079 23.13281-9.38672 9.00277-1.79718 19.26188-2.98776 29.61914-6.43554zm66.12695 14.39062c4.91288 0.1365 9.13535 2.402 12.88672 6.42774 4.00146 4.29409 6.92305 10.59107 7.73633 16.32617l0.17773 1.2539 0.48438 1.16993c2.52619 6.09648 5.42747 11.56655 6.86133 16.14843 1.43386 4.58189 1.57828 7.45632 0.10937 10.57813l-0.0215 0.0449-0.0195 0.0449c-0.65936 1.43818-1.59653 2.1679-3.80469 2.7207-2.20816 0.55281-5.39521 0.3197-7.60938-0.54882l-0.67968-0.26758-0.70899-0.16406c-14.96542-3.47667-25.86043-19.3183-26.17187-35.23633l-0.0137-0.68555-0.10742-0.67773c-0.57353-3.63684 0.11877-8.47028 1.77344-11.73047 1.65467-3.2602 3.40078-4.7605 6.32227-5.19532l0.21875-0.0332 0.21875-0.041c0.39484-0.0768 0.80862-0.12213 1.2539-0.13086h0.0508l0.0508-0.002c0.3337-0.01 0.66466-0.0111 0.99218-0.002zm-212.56054 14.18555c-6.53105 0.006-13.2931 2.83172-18.60938 6.34375-12.95118 7.50927-12.87291 26.5611-4.53906 37.50586 1.83889 3.33027 5.32989 5.94117 9.26172 5.84375 9.7653-0.85124 15.36782-10.44784 17.64648-18.99414 3.77136-8.46124 12.13046-17.42535 7.38477-27.20508-3.39034-2.4871-7.22591-3.49784-11.14453-3.49414zm-114.55274 27.13281c-10.07331-0.25894-20.849019 7.48277-19.318358 18.27539 8.446488 11.67541 22.809108 15.99977 34.724608 23.0332 3.07644 1.16949 6.01989 2.68821 9.17774 3.64258 11.90777 5.1597 21.47854-10.65836 15.96484-20.67578-8.30687-11.1333-20.72134-18.65094-33.84766-22.75781-2.08997-0.97271-4.37656-1.45782-6.70117-1.51758zm259.36719 64.25781c16.89012 0.32189 33.53297 10.97347 44.40234 25.09571 2.25203 4.14732 3.0521 10.33391 1.77344 15.44336-1.24561 4.97735-3.79106 8.34153-7.77148 9.98437-1.76912 0.27696-3.03393-0.1368-6.09571-2.20508-3.22233-2.17673-7.22272-6.01168-13.04492-9.14453-17.15043-10.87651-38.02427-10.7541-55.54883-4.61914l0.31446-0.10547c-1.86429 0.58413-4.56399 0.61549-6.11329 0.14453-1.54929-0.47096-1.67489-0.61695-1.9746-1.48633l-0.11133-0.32617-0.13477-0.31836c-2.46254-5.80627 1.81877-14.65607 8.11914-18.49218l0.4707-0.28516 0.43555-0.33789c10.45604-8.06392 22.91956-13.28509 35.2793-13.34766zm-123.83594 19.53321c-10.35734-0.17937-11.59329 16.61958-18.28515 23.0332-11.01097 18.8733-32.13447 33.73474-54.73829 30.87695-9.69139-0.88133-21.54495-10.22453-29.8457-1.00195 7.49593 14.04311 22.38518 23.28798 37.97266 25.45312 12.82621 2.61662 25.12614-3.22739 37.48828-5.52734 9.66694-2.47923 15.21738-11.04526 20.80664-18.53125 7.09489-8.4201 12.46324-18.34814 13.87891-29.39258 2.1871-8.28318 3.87324-19.68549-5.08008-24.64062-0.77589-0.17099-1.50678-0.25758-2.19727-0.26953z"/>
</svg>
