<?xml version="1.0" encoding="UTF-8" standalone="no"?>
<svg xmlns:rdf="http://www.w3.org/1999/02/22-rdf-syntax-ns#" xmlns="http://www.w3.org/2000/svg" version="1.0" xmlns:cc="http://creativecommons.org/ns#" xmlns:dc="http://purl.org/dc/elements/1.1/" viewBox="0 0 576.44501 577.45154">
<path d="m64.571 0.06355556c-41.335 0-64.571 21.371-64.571 65.036v450.123c0 40.844 20.895 62.229 62.192 62.229h452.024c41.307 0 62.229-20.315 62.229-62.229v-450.123c0-42.601-20.922-65.036-63.521-65.036-0.004 0-448.495-0.143-448.353 0z"/>
<path style="color-rendering:auto;text-decoration-color:#000000;color:#000000;isolation:auto;mix-blend-mode:normal;shape-rendering:auto;solid-color:#000000;block-progression:tb;text-decoration-line:none;text-decoration-style:solid;image-rendering:auto;white-space:normal;text-indent:0;text-transform:none" d="m395.49522 45.738915c-10.16914 0.183763-18.85691 4.50734-25.5586 10.595703-6.70166 6.088365-11.67624 13.871881-15.58203 21.794922-7.81158 15.846083-11.54194 33.04055-12.99023 37.9629-9.02868 30.6859-15.7909 59.47351-20.21094 80.60546-2.21002 10.56598-3.83366 19.21239-4.86523 25.25782-0.51579 3.02271-0.88185 5.38233-1.10742 7.08203-0.11279 0.84985-0.19175 1.50829-0.23829 2.16211-0.0233 0.3269-0.0547 0.59625-0.0215 1.24023 0.0166 0.32199-0.0423 0.6536 0.32617 1.78711 0.18426 0.56676 0.39084 1.46155 1.70508 2.7207 1.31424 1.25916 4.62092 2.12854 6.55859 1.4961 1.74332-0.56901 1.55998-0.74026 1.76758-0.88477s0.3193-0.23481 0.42774-0.32031c0.21687-0.17101 0.38931-0.31487 0.58984-0.48633 0.40106-0.34291 0.88815-0.77357 1.50195-1.32422 1.22761-1.10129 2.94045-2.66715 5.10938-4.66992 4.33786-4.00554 10.48258-9.7461 17.96875-16.81445 14.97233-14.1367 35.30723-33.57656 57.1875-54.96094 5.82563-5.69358 24.29716-21.95984 34.44531-41.8125 5.07407-9.92633 8.23282-21.160111 5.81445-32.576176-2.41832-11.41606-10.57154-22.16876-25.27732-30.669917-9.90536-5.726118-19.10862-8.338102-27.55078-8.185547zm-208.24219 2.558594c-8.60223-0.127176-17.9796 2.553587-28.0957 8.386719-14.41689 8.313048-22.38932 18.902235-24.72461 30.117187-2.3353 11.214953 0.78258 22.218155 5.69726 31.900395 9.82938 19.36447 27.75432 35.32024 32.02735 39.80664 22.06042 23.162 43.61041 43.41073 59.70117 57.80469 8.04538 7.19698 14.72171 12.92566 19.44141 16.8418 2.35985 1.95805 4.22088 3.45673 5.58007 4.50195 0.6796 0.52261 1.21097 0.91989 1.75391 1.28711 0.27147 0.18361 0.48821 0.34346 1.0625 0.63672 0.28714 0.14662 0.54504 0.36565 1.71094 0.61328 0.58295 0.12381 1.45943 0.39137 3.20703-0.11719s4.15504-2.93733 4.57617-4.93164c0.37892-1.79442 0.13854-1.72256 0.11719-1.97461-0.0214-0.25205-0.0427-0.39263-0.0625-0.5293-0.0397-0.27332-0.0787-0.4945-0.12695-0.7539-0.0965-0.51881-0.2265-1.15597-0.39649-1.96289-0.33998-1.61385-0.84019-3.88188-1.49023-6.76172-1.3001-5.75968-3.19967-13.94912-5.57813-23.9668-4.75691-20.03535-11.42463-47.36678-19.0039-77.00781-1.67117-6.53562-5.40638-24.351858-13.39649-40.755865-3.99506-8.202004-9.08146-16.187864-15.92773-22.402344s-15.71144-10.579246-26.07227-10.732422zm-108.35351 186.46875c-11.822386 0.0244-24.040365 2.28959-33.634766 9.95508-9.594401 7.6655-15.572123 20.58498-15.582031 38.63281-0.0091 16.64193 5.175857 28.84087 13.720703 36.47071 8.544846 7.62983 19.632159 10.43084 30.474609 11.01562 21.6849 1.16956 44.464569-6.37665 50.486329-7.83398 31.08909-7.52389 59.39936-16.06085 79.91016-22.79883 10.2554-3.36899 18.55536-6.28672 24.30664-8.41602 2.87563-1.06464 5.10468-1.92754 6.68945-2.58203 0.79238-0.32724 1.40074-0.5884 1.99023-0.875 0.29475-0.1433 0.54287-0.24888 1.08399-0.59961 0.27056-0.17536 0.58931-0.29183 1.38672-1.17773 0.3987-0.44295 1.0686-1.06817 1.50195-2.83594s-0.46588-5.06591-1.98242-6.42773c-1.36457-1.22538-1.42142-0.98036-1.65039-1.08789-0.22897-0.10754-0.36392-0.16174-0.49219-0.21289-0.25655-0.10231-0.46608-0.1777-0.71484-0.26563-0.49752-0.17586-1.11465-0.38245-1.89844-0.63867-1.56758-0.51245-3.78064-1.21294-6.59961-2.08985-5.63794-1.75378-13.68227-4.2035-23.54688-7.15234-19.7292-5.89768-46.73192-13.78825-76.1914-22.04492-7.35244-2.06069-28.39469-9.0782-49.257814-9.03516zm424.49023 0.35938c-20.28087-0.1142-40.77813 6.5868-46.42383 7.95312-31.08909 7.52389-59.39936 16.06085-79.91015 22.79883-10.2554 3.36899-18.55536 6.28672-24.30665 8.41602-2.87563 1.06465-5.10468 1.92755-6.68945 2.58203-0.79238 0.32724-1.40074 0.5884-1.99023 0.875-0.29475 0.1433-0.54288 0.24889-1.08399 0.59961-0.27055 0.17536-0.58932 0.29184-1.38672 1.17773-0.3987 0.44295-1.06858 1.06819-1.50195 2.83594s0.46587 5.06588 1.98242 6.42773c1.36457 1.22538 1.42142 0.98036 1.65039 1.08789 0.22897 0.10754 0.36392 0.16174 0.49219 0.2129 0.25655 0.1023 0.46609 0.17769 0.71484 0.26562 0.49753 0.17586 1.11465 0.38245 1.89844 0.63867 1.56758 0.51245 3.78064 1.21296 6.59961 2.08985 5.63794 1.75378 13.68227 4.2035 23.54688 7.15234 19.7292 5.89768 46.73192 13.78826 76.1914 22.04492 7.84355 2.19832 31.16665 10.06151 53.4336 8.92383 11.13347-0.56884 22.44172-3.44958 31.11914-11.25195 8.67741-7.80237 13.91255-20.23846 13.92187-37.22461 0.01-17.68205-5.91368-30.35296-15.35547-37.84571-9.44178-7.49274-21.40992-9.69506-32.90234-9.75976zm-241.36914 90.9707c-0.60302-0.0122-1.17378 0.0528-1.6582 0.21094-1.74336 0.56902-1.55997 0.74024-1.76758 0.88476-0.20762 0.14453-0.3193 0.23481-0.42774 0.32032-0.21687 0.17102-0.38931 0.31486-0.58984 0.48632-0.40105 0.34294-0.88818 0.77358-1.50195 1.32422-1.22755 1.10129-2.94054 2.66716-5.10938 4.66993-4.33767 4.00553-10.48088 9.74611-17.9668 16.81445-14.97182 14.13668-35.30726 33.5766-57.1875 54.96094-5.82547 5.69346-24.29665 21.95988-34.44531 41.8125-5.07433 9.9263-8.23456 21.16006-5.8164 32.57617 2.41815 11.41611 10.57154 22.16876 25.27734 30.66992 14.40774 8.32886 27.56521 9.93842 38.44531 6.35352 10.88011-3.58491 18.84956-11.78561 24.77735-20.88282 11.85556-18.19441 16.71013-41.69482 18.45898-47.63867 9.02868-30.6859 15.7909-59.47352 20.21094-80.60547 2.21002-10.56597 3.83366-19.21238 4.86523-25.25781 0.51579-3.02271 0.88185-5.38233 1.10742-7.08203 0.11279-0.84985 0.19174-1.5083 0.23829-2.16211 0.0233-0.32691 0.0547-0.59626 0.0215-1.24024-0.0166-0.32197 0.0423-0.6536-0.32617-1.7871-0.18426-0.56676-0.39085-1.46154-1.70508-2.72071-0.98567-0.94437-3.09132-1.67031-4.90039-1.70703zm57.60547 0.48633c-0.51058-0.0189-1.16722 0.0406-2.04102 0.29492-1.7476 0.50856-4.15504 2.93733-4.57617 4.93164-0.37891 1.79439-0.13854 1.72256-0.11719 1.97461 0.0214 0.25206 0.0427 0.39263 0.0625 0.5293 0.0397 0.27333 0.0787 0.49451 0.12696 0.7539 0.0965 0.5188 0.22649 1.15599 0.39648 1.9629 0.33998 1.61378 0.84019 3.88001 1.49024 6.75976 1.30009 5.7595 3.19967 13.95132 5.57812 23.96875 4.75691 20.03486 11.42464 47.36485 19.00391 77.00586 2.01797 7.89189 6.86949 32.02331 18.98828 50.73828 6.05939 9.35749 14.2089 17.71051 25.30469 21.32422 11.09577 3.61371 24.4841 1.92836 39.19921-6.55664 14.41689-8.31305 22.38932-18.90224 24.72461-30.11719 2.3353-11.21495-0.78258-22.21815-5.69726-31.90039-9.82938-19.36447-27.75432-35.32024-32.02735-39.80664-22.06042-23.162-43.61041-43.41073-59.70117-57.80469-8.04538-7.19698-14.72171-12.92566-19.4414-16.84179-2.35985-1.95807-4.22089-3.45674-5.58008-4.50196-0.6796-0.5226-1.21096-0.91989-1.75391-1.28711-0.27147-0.1836-0.48821-0.34345-1.0625-0.63672-0.28714-0.14661-0.54504-0.36565-1.71094-0.61328-0.29147-0.0619-0.65543-0.15882-1.16601-0.17773z" fill="#fff"/>
</svg>
