<?xml version="1.0" encoding="UTF-8" standalone="no"?>
<svg xmlns:rdf="http://www.w3.org/1999/02/22-rdf-syntax-ns#" xmlns="http://www.w3.org/2000/svg" version="1.0" xmlns:cc="http://creativecommons.org/ns#" xmlns:dc="http://purl.org/dc/elements/1.1/" viewBox="0 0 576.44501 577.45154">
<path d="m64.571 0.06355556c-41.335 0-64.571 21.371-64.571 65.036v450.123c0 40.844 20.895 62.229 62.192 62.229h452.024c41.307 0 62.229-20.315 62.229-62.229v-450.123c0-42.601-20.922-65.036-63.521-65.036-0.004 0-448.495-0.143-448.353 0z"/>
<path opacity=".2" style="color-rendering:auto;text-decoration-color:#000000;color:#000000;isolation:auto;mix-blend-mode:normal;shape-rendering:auto;solid-color:#000000;block-progression:tb;text-decoration-line:none;text-decoration-style:solid;image-rendering:auto;white-space:normal;text-indent:0;text-transform:none" d="m29.129984 338.96548a5.4872335 5.4872335 0 0 0 -5.486328 5.48828v184.55664a5.4872335 5.4872335 0 0 0 5.486328 5.48828h519.81641a5.4872335 5.4872335 0 0 0 5.48633 -5.48828v-184.55664a5.4872335 5.4872335 0 0 0 -5.48633 -5.48828h-519.81641z" fill="#fff"/>
<path style="color-rendering:auto;text-decoration-color:#000000;color:#000000;isolation:auto;mix-blend-mode:normal;shape-rendering:auto;solid-color:#000000;block-progression:tb;text-decoration-line:none;text-decoration-style:solid;image-rendering:auto;white-space:normal;text-indent:0;text-transform:none" d="m257.06553 23.957665v1.253907l-1.27148 77.472658-6.57422 0.11914h-63.57813v1.15235 34.15039 35.30273 0.67774l70.5586 0.4746 0.86523 101.02735v38.77344c1.86118-0.21404 3.75657-0.34642 5.66602-0.44532 9.59906 1.67512 19.87914 1.411 30.21289 0.85547 10.33136 0.5551 20.60998 0.81866 30.20703-0.85547 1.91097 0.0989 3.80728 0.23111 5.66992 0.44532v-38.71289l0.86719-101.0879 70.55664-0.4746v-0.67774-35.30273-34.15039-1.15235h-63.57813l-6.57421-0.11914-1.27149-77.472658v-1.253907l-35.87695 0.626953-35.87891-0.626953zm-237.10156 306.75392v20h537.06445v-20h-537.06445zm15.474609 92.26562v19.46875h38.933594v-19.46875h-38.933594zm77.867192 0v19.46875h38.93359v-19.46875h-38.93359zm77.86914 0v19.46875h38.93359v-19.46875h-38.93359zm77.86718 0v19.46875h38.9336v-19.46875h-38.9336zm77.86719 0v19.46875h38.93555v-19.46875h-38.93555zm77.86914 0v19.46875h38.9336v-19.46875h-38.9336zm77.86719 0v19.46875h38.93359v-19.46875h-38.93359zm-482.68164 95.73438v20h537.06445v-20h-537.06445z" fill="#fff"/>
</svg>
