<?xml version="1.0" encoding="UTF-8" standalone="no"?>
<svg xmlns:rdf="http://www.w3.org/1999/02/22-rdf-syntax-ns#" xmlns="http://www.w3.org/2000/svg" version="1.0" xmlns:cc="http://creativecommons.org/ns#" xmlns:dc="http://purl.org/dc/elements/1.1/" viewBox="0 0 576.44501 577.45154">
<defs>
<style type="text/css">.fil0 {fill:#EF7900}</style>
</defs>
<path d="m64.571 0.06355556c-41.335 0-64.571 21.371-64.571 65.036v450.123c0 40.844 20.894 62.229 62.192 62.229h452.024c41.307 0 62.229-20.316 62.229-62.229v-450.123c0-42.601-20.922-65.036-63.522-65.036-0.003 0-448.494-0.143-448.352 0z"/>
<path opacity=".5" d="m183.07755 540.31162 55.55066-326.72348 52.30492-31.31861 51.16448 32.1539s46.84413 331.20079 41.39798 328.54447c-5.44615-2.65628-199.3288 1.32817-200.41804-2.65628z" fill-rule="evenodd" fill="#fff"/>
<path style="color-rendering:auto;text-decoration-color:#000000;color:#000000;isolation:auto;mix-blend-mode:normal;shape-rendering:auto;solid-color:#000000;block-progression:tb;text-decoration-line:none;text-decoration-style:solid;image-rendering:auto;white-space:normal;text-indent:0;text-transform:none" d="m137.83311 26.018212a12.30123 12.30123 0 0 0 -8.87109 3.310547l-60.712895 56.814453a12.30123 12.30123 0 0 0 0.40625 18.324228l178.92968 153.20117-178.92968 153.20117a12.30123 12.30123 0 0 0 -0.40625 18.32422l60.712895 56.81445a12.30123 12.30123 0 0 0 18.32226 -1.70508l143.28906-195.35742 143.28711 195.35742a12.30123 12.30123 0 0 0 18.32227 1.70508l60.71289-56.81445a12.30123 12.30123 0 0 0 -0.4043 -18.32422l-178.93164-153.20117 178.93164-153.20117a12.30123 12.30123 0 0 0 0.4043 -18.324228l-60.71289-56.814453a12.30123 12.30123 0 0 0 -8.99219 -3.304687 12.30123 12.30123 0 0 0 -9.33008 5.009765l-143.28711 195.35742-143.28906-195.35742a12.30123 12.30123 0 0 0 -9.45117 -5.015625zm152.74023 224.10938 7.79493 7.54102-7.79493 7.54101-7.79492-7.54101 7.79492-7.54102z" fill-rule="evenodd" fill="#fff"/>
</svg>
