<svg
   xmlns="http://www.w3.org/2000/svg"
   xmlns:rdf="http://www.w3.org/1999/02/22-rdf-syntax-ns#"
   xmlns:dc="http://purl.org/dc/elements/1.1/"
   xmlns:cc="http://creativecommons.org/ns#"
   width="612"
   height="396"
   viewBox="0 0 612 396"
   version="1.1"
   style="fill:black;stroke:none">
   <title>Weather Symbols</title>
   <desc>A set of symbols for weather related events</desc>
  <metadata>
    <rdf:RDF>
      <cc:Work rdf:about="">
        <dc:format>image/svg+xml</dc:format>
        <dc:type rdf:resource="http://purl.org/dc/dcmitype/StillImage" />
        <dc:title>Symbol Example</dc:title>
        <dc:date>2016-07-13</dc:date>
        <dc:creator>
          <cc:Agent>
            <dc:title>Jacques Laroche</dc:title>
          </cc:Agent>
        </dc:creator>
        <dc:rights>
          <cc:Agent>
            <dc:title>Public Domain</dc:title>
          </cc:Agent>
        </dc:rights>
        <dc:language>English</dc:language>

        <dc:source>https://taiga.io/support/test-styles/</dc:source>
        <dc:description>Symbol Example Description</dc:description>
      </cc:Work>
    </rdf:RDF>
  </metadata>

  <defs>
    <symbol id="extreme_heat">
      <title>Extreme Heat</title>
      <path d="M235.533,62.985c0.002-4.022-0.155-8.052,0.036-12.065c0.351-7.4,5.431-12.633,12.151-12.779
  			c6.859-0.148,12.306,5.28,12.522,12.965c0.223,7.846,0.242,15.709-0.005,23.554c-0.237,7.497-5.341,12.601-12.128,12.701
  			c-7.045,0.104-12.203-5.107-12.548-12.885C235.391,70.653,235.531,66.816,235.533,62.985z"/>
  		<path d="M112.646,185.618c4.022,0,8.053-0.172,12.064,0.038c7.446,0.391,12.526,5.462,12.572,12.271
  			c0.045,6.798-5.011,12.101-12.44,12.368c-8.034,0.289-16.092,0.271-24.127,0.014c-7.388-0.24-12.623-5.561-12.652-12.249
  			c-0.03-6.701,5.184-11.99,12.52-12.4C104.592,185.433,108.624,185.618,112.646,185.618z"/>
  		<path d="M382.927,210.374c-3.831,0-7.667,0.142-11.491-0.029c-7.797-0.349-12.98-5.479-12.877-12.539
  			c0.101-6.818,5.192-11.924,12.664-12.143c8.037-0.233,16.096-0.268,24.129,0.019c7.304,0.261,12.521,5.793,12.405,12.482
  			c-0.113,6.472-5.168,11.666-12.192,12.129c-4.194,0.275-8.424,0.051-12.637,0.051
  			C382.927,210.354,382.927,210.363,382.927,210.374z"/>
  		<path d="M235.528,333.361c-0.002-3.831-0.105-7.665,0.02-11.491c0.256-7.87,5.163-13.133,12.185-13.234
  			c7.058-0.102,12.293,5.083,12.513,12.884c0.222,7.848,0.234,15.712-0.012,23.558c-0.232,7.404-5.454,12.646-12.152,12.76
  			c-6.892,0.117-12.209-5.313-12.524-12.981C235.4,341.027,235.53,337.192,235.528,333.361z"/>
  		<path d="M336.021,272.668c1.998-0.139,4.821,1.016,7.086,3.225c6.024,5.885,12.084,11.748,17.852,17.883
  			c4.816,5.123,4.641,12.324,0.038,17.059c-4.755,4.893-12.153,5.082-17.472,0.059c-5.982-5.648-11.762-11.521-17.467-17.453
  			c-3.83-3.979-4.539-8.765-2.246-13.772C325.92,275.063,329.698,272.802,336.021,272.668z"/>
  		<path d="M364.416,93.5c0.204,3.959-1.616,6.999-4.28,9.663c-5.278,5.279-10.489,10.629-15.856,15.815
  			c-5.77,5.575-13.428,5.736-18.344,0.571c-4.787-5.032-4.461-12.328,0.989-17.931c5.472-5.625,11.021-11.18,16.673-16.624
  			c3.971-3.823,8.709-4.654,13.75-2.363C361.939,84.719,364.239,88.471,364.416,93.5z"/>
  		<path d="M173.18,284.615c0.229,3.716-1.27,6.723-3.8,9.271c-5.53,5.569-10.997,11.207-16.668,16.632
  			c-5.575,5.332-13.025,5.349-17.903,0.313c-4.733-4.887-4.679-12.145,0.441-17.491c5.691-5.942,11.513-11.772,17.482-17.438
  			c3.825-3.629,8.51-4.229,13.313-2.104C170.656,275.836,173.001,279.568,173.18,284.615z"/>
  		<path d="M143.361,81.497c3.722-0.223,6.715,1.32,9.255,3.837c5.575,5.522,11.207,10.991,16.626,16.663
  			c5.29,5.535,5.286,13.076,0.268,17.916c-4.846,4.673-12.176,4.594-17.503-0.51c-5.94-5.692-11.771-11.51-17.415-17.495
  			c-3.602-3.818-4.251-8.485-2.064-13.3C134.613,84.018,138.324,81.677,143.361,81.497z"/>
  			<path d="M247.866,111.871c-47.297,0.041-86.093,38.873-86.075,86.153c0.018,47.263,38.889,86.1,86.153,86.08
  				c47.255-0.022,86.129-38.933,86.08-86.156C333.977,150.654,295.114,111.829,247.866,111.871z M247.758,259.335
  				c-33.826-0.083-61.251-27.383-61.187-60.907c0.067-34.813,27.29-61.896,62.092-61.774c33.527,0.115,60.67,27.664,60.593,61.497
  				C309.18,232.189,281.811,259.418,247.758,259.335z"/>
  			<path d="M513.061,259.775c-2.444-2.619-3.346-5.109-3.34-8.588c0.188-87.486,0.075-68.325,0.063-140.479
  				c-0.001-3.641,0.098-7.288-0.772-10.877c-4.11-16.956-19.827-28.064-36.936-26.086c-16.776,1.942-29.501,16.072-29.634,33.452
  				c-0.185,23.797-0.048,47.594-0.052,71.392c-0.005,24.181-0.061,48.362,0.06,72.539c0.016,3.456-0.835,5.968-3.301,8.603
  				c-19.109,20.41-18.206,52.195,1.813,71.522c19.635,18.961,50.554,18.983,70.198,0.047
  				C531.203,311.98,532.142,280.218,513.061,259.775z M500.542,317.952c-13.381,14.133-36.077,13.976-49.247-0.343
  				c-13.328-14.492-11.742-37.321,3.783-49.533c3.109-2.447,4.099-4.819,4.077-8.57c-0.144-24.956-0.074-49.913-0.073-74.87
  				c0-25.148-0.056-50.296,0.027-75.443c0.033-10.582,6.475-17.967,15.78-18.519c10.533-0.624,18.092,6.904,18.17,18.413
  				c0.111,15.933,0.029,31.866,0.029,47.8L493.026,259.4c-0.013,3.689,0.797,6.134,3.976,8.619
  				C512.763,280.345,514.234,303.488,500.542,317.952z"/>
  		<path d="M484.43,188.081c0,25.733,0.07,51.47-0.084,77.202c-0.02,3.479,0.879,5.335,4.07,7.104
  			c10.604,5.883,15.227,17.596,12.015,29.021c-3.083,10.971-12.98,18.578-24.238,18.627c-11.479,0.051-21.505-7.704-24.535-18.979
  			c-3.027-11.252,1.508-22.805,11.921-28.535c3.476-1.914,4.244-3.992,4.234-7.596c-0.104-50.891-0.069-101.784-0.066-152.676
  			c0-1.728-0.081-3.464,0.054-5.184c0.396-5.01,3.361-7.643,8.178-7.989c4.328-0.311,7.983,3.16,8.361,7.772
  			c0.233,2.861,0.09,5.757,0.09,8.637C484.432,139.686,484.43,163.884,484.43,188.081z"/>
    </symbol>

    <symbol id="sunny">
      <title>Sunny</title>
      <path d="M307.659,108.905c-48.648-0.104-88.671,39.781-88.799,88.49c-0.128,48.614,39.768,88.652,88.49,88.802
        c48.572,0.15,88.679-39.817,88.803-88.493C396.274,149.096,356.325,109.009,307.659,108.905z M307.495,260.673
        c-34.824-0.034-63.094-28.081-63.089-62.592c0.005-35.833,27.985-63.761,63.814-63.696c34.51,0.063,62.502,28.38,62.476,63.203
        C370.668,232.634,342.544,260.706,307.495,260.673z"/>
      <path d="M307.675,83.675c6.989-0.084,12.148-5.331,12.539-13.038c0.209-4.129,0.037-8.277,0.038-12.419
        c0-3.942,0.143-7.892-0.029-11.827c-0.347-7.923-5.811-13.51-12.875-13.383c-6.916,0.126-12.289,5.509-12.523,13.12
        c-0.25,8.077-0.233,16.17-0.011,24.248C295.033,78.383,300.435,83.76,307.675,83.675z"/>
      <path d="M193.629,197.293c-0.155-7.002-5.413-12.088-13.137-12.448c-4.131-0.193-8.279-0.034-12.419-0.034
        c-3.943,0-7.893-0.147-11.828,0.031c-7.869,0.358-13.448,5.901-13.283,12.979c0.161,6.89,5.568,12.193,13.22,12.421
        c8.077,0.24,16.171,0.247,24.248,0.005C188.432,210.007,193.789,204.529,193.629,197.293z"/>
      <path d="M458.974,184.868c-8.074-0.245-16.17-0.222-24.249-0.015c-8.02,0.204-13.385,5.553-13.318,12.82
        c0.063,7.229,5.458,12.312,13.563,12.604c3.938,0.145,7.888,0.027,11.829,0.02c4.14-0.007,8.293,0.192,12.419-0.051
        c7.523-0.443,12.917-5.967,12.833-12.82C471.964,190.515,466.561,185.097,458.974,184.868z"/>
      <path d="M307.738,311.45c-7.045-0.124-12.454,5.024-12.913,12.618c-0.251,4.125-0.045,8.276-0.053,12.42
        c-0.007,4.14-0.157,8.287,0.025,12.42c0.34,7.618,5.554,13.026,12.471,13.188c6.832,0.158,12.616-5.231,12.896-12.722
        c0.314-8.466,0.326-16.964-0.014-25.428C319.855,316.581,314.538,311.569,307.738,311.45z"/>
      <path d="M403.948,276.68c-4.674-3.89-11.955-2.765-16.118,1.602c-4.169,4.369-4.979,11.621-0.857,16.175
        c6.465,7.146,13.349,13.949,20.443,20.471c3.796,3.492,8.693,3.514,13.274,1.139c4.354-2.261,6.625-5.999,6.813-12.617
        c0.06-1.003-0.495-3.548-2.237-5.535C418.633,290.367,411.663,283.1,403.948,276.68z"/>
      <path d="M404.382,118.098c7.154-6.452,13.951-13.341,20.481-20.431c3.49-3.791,3.527-8.682,1.17-13.271
        c-2.247-4.366-5.976-6.648-12.396-6.822c-1.205-0.075-3.761,0.449-5.745,2.195c-7.542,6.637-14.797,13.616-21.238,21.311
        c-3.897,4.659-2.791,11.948,1.561,16.122C392.584,121.395,399.8,122.229,404.382,118.098z"/>
      <path d="M217.302,274.475c-1.939-0.084-4.538,0.422-6.434,2.265c-7.054,6.86-14.252,13.608-20.831,20.909
        c-4.138,4.592-3.18,11.76,1.112,16.126c4.292,4.364,11.47,5.452,16.087,1.344c7.337-6.535,14.256-13.584,20.91-20.82
        c3.503-3.808,3.352-8.75,0.947-13.28C226.789,276.68,223.008,274.455,217.302,274.475z"/>
      <path d="M210.534,118.056c3.793,3.501,8.669,3.517,13.269,1.192c4.402-2.226,6.645-5.964,6.775-10.916
        c0.128-2.658-0.361-5.227-2.112-7.211c-6.642-7.534-13.58-14.827-21.318-21.218c-4.774-3.944-11.842-2.878-16.091,1.53
        c-4.24,4.4-5.097,11.517-0.94,16.139C196.557,104.733,203.452,111.521,210.534,118.056z"/>
    </symbol>

    <symbol id="lightning">
      <title>Lightning</title>
      <path d="M416.238,175.781c1.965-8.877,4.354-17.316,5.65-25.92c8.108-53.768-24.797-106.121-82.754-115.173
  			c-53.613-8.374-104.198,21.88-116.603,80.875c-1.343,6.385-1.489,6.386-7.712,5.343c-13.065-2.191-25.893-1.728-38.28,3.446
  			c-22.849,9.542-36.378,33.658-33.607,59.825c2.841,26.835,18.932,45.337,44.35,50.905c4.719,1.034,9.521,1.354,14.363,1.348
  			c28.935-0.039,57.87,0.036,86.804-0.099c3.344-0.017,4.471,0.699,4.296,4.218c-0.316,6.414-0.183,12.858-0.039,19.284
  			c0.05,2.256-0.543,2.938-2.882,2.935c-31.127-0.084-62.27,0.56-93.377-0.225c-36.506-0.919-70.766-31.807-78.394-68.4
  			c-9.979-47.879,27.239-93.615,71.541-99.901c1.012-0.143,2.062-0.635,3.014-0.479c7.278,1.193,9.83-2.853,12.473-9.031
  			c21.737-50.811,75.8-83.345,129.951-76.856c47.188,5.654,81.023,31.556,102.223,73.778c10.025,19.97,13.824,41.398,11.593,63.74
  			c-0.3,2.994,0.205,4.43,3.517,5.521c24.27,7.99,41.495,31.605,41.065,55.769c-0.508,28.57-27.385,55.562-55.948,55.979
  			c-13.882,0.204-27.768-0.05-41.647,0.13c-2.854,0.035-3.349-0.879-3.278-3.449c0.178-6.572,0.23-13.158-0.02-19.725
  			c-0.109-2.885,0.916-3.291,3.46-3.268c13.151,0.123,26.304,0.094,39.457,0.051c25.527-0.084,40.015-24.52,28.002-47.195
  			c-5.496-10.378-17.342-15.952-30.939-14.663C427.169,175.051,421.804,175.364,416.238,175.781z"/>
  		<path d="M302.419,387.093c7.147-27.769,14.22-55.241,21.379-83.056c-12.782,0-25.036,0-37.253,0
  			c-0.608-1.816,0.518-3.002,1.053-4.25c13.65-31.854,27.396-63.665,40.987-95.544c1.195-2.804,2.504-3.907,5.685-3.87
  			c16.471,0.188,32.942,0.087,50.236,0.087c-14.33,23.183-28.302,45.786-42.674,69.038c14.971,0,29.273,0,43.793,0
  			C383.823,273.378,305.388,384.179,302.419,387.093z"/>
    </symbol>

    <symbol id="extreme_lightning">
      <title>Extreme Lightning</title>
      <path d="M415.441,177.167c2.024-9.141,4.473-17.721,5.773-26.471c8.162-54.862-25.48-108.011-84.197-116.769
  			c-36.929-5.508-69.031,4.491-94.428,32.733c-12.692,14.114-19.831,31.058-23.865,49.441c-1.39,6.333-1.482,6.353-7.936,5.284
  			c-13.897-2.303-27.478-1.648-40.487,4.295c-22.075,10.083-34.905,33.711-32.432,59.657c2.593,27.198,19.258,46.433,45.182,52.063
  			c9.529,2.068,19.219,1.32,28.839,1.19c3.659-0.049,4.35,1.13,4.225,4.435c-0.247,6.521-0.08,13.058-0.067,19.586
  			c0.002,1.492,0.291,2.828-2.11,2.854c-17.078,0.189-34.003,0.265-50.158-7.003c-32.238-14.5-53.522-47.137-52.771-81.822
  			c0.847-39.089,34.704-76.973,73.515-82.217c4.216-0.569,9.452,0.407,12.41-1.778c2.988-2.207,3.645-7.495,5.471-11.363
  			C224.452,34.586,274.662,3.384,323.801,5.81c61.145,3.021,112.762,48.172,123.529,108.24c1.86,10.383,2.834,20.932,1.244,31.448
  			c-0.623,4.115,0.79,5.488,4.493,6.759c24.35,8.361,41.403,32.333,40.761,56.824c-0.753,28.597-27.905,55.771-56.483,56.271
  			c-14.242,0.25-28.493,0-42.739,0.121c-2.477,0.021-3.277-0.594-3.207-3.154c0.182-6.674,0.209-13.359-0.01-20.029
  			c-0.095-2.887,0.688-3.693,3.623-3.657c13.206,0.168,26.416-0.055,39.622,0.099c31.326,0.363,37.182-28.28,29.65-46.059
  			c-4.966-11.725-17.466-18.14-31.982-16.83C426.856,176.333,421.397,176.702,415.441,177.167z"/>
  		<path d="M259.183,283.441c14.02,0,27.171,0,41.284,0c-25.895,36.675-51.346,72.722-76.797,108.769
  			c-0.241-0.156-0.482-0.313-0.724-0.47c6.139-23.945,12.176-47.917,18.515-71.811c1.064-4.012,0.141-4.666-3.643-4.579
  			c-9.924,0.229-19.856,0.078-29.722,0.078c-0.693-1.69,0.404-2.761,0.887-3.894c12.683-29.689,25.458-59.34,38.073-89.059
  			c1.105-2.604,2.381-3.451,5.18-3.425c15.256,0.147,30.515,0.07,46.565,0.07C285.545,240.643,272.618,261.631,259.183,283.441z"/>
  		<path d="M304.395,290.323c1.891-4.486,3.567-8.552,5.312-12.589c9.746-22.557,19.546-45.09,29.212-67.68
  			c1.078-2.519,2.34-3.51,5.197-3.472c13.19,0.177,26.388,0.078,40.38,0.078c-11.605,18.681-22.936,36.916-34.652,55.778
  			c12.247,0,23.707,0,36.165,0c-22.728,31.879-44.937,63.029-67.146,94.183c-0.241-0.188-0.482-0.371-0.723-0.558
  			c5.651-21.784,11.305-43.568,17.059-65.742C324.757,290.323,314.863,290.323,304.395,290.323z"/>
    </symbol>

    <symbol id="lightning_bolt">
      <title>Lightning Bolt</title>
      <path d="M302.186,31.092c32.501,0,65.003,0,97.506,0c2.53,4.227-0.813,7.087-2.634,10.046
  			c-22.174,36.042-44.59,71.935-66.703,108.013c-0.955,1.558-2.227,2.96-2.645,4.825c2.018,2.337,4.568,1.3,6.773,1.311
  			c19.963,0.095,39.928,0.005,59.893,0.095c3.113,0.016,6.979-0.727,8.703,2.551c1.748,3.322-1.158,6.027-2.961,8.546
  			C354.896,229.68,310.4,293.396,265.177,356.597c-2.479,3.465-4.642,7.154-7.244,10.521c-1.693,2.19-2.955,5.313-6.739,4.5
  			c-2.535-3.313-0.776-6.672,0.066-9.896c11.226-42.965,22.228-85.984,33.28-128.994c2.657-10.336,2.302-10.701-8.554-10.727
  			c-14.892-0.035-29.784,0.027-44.677-0.035c-3.677-0.016-7.524,0.5-10.646-2.256c0-0.531,0-1.064,0-1.598
  			c10.526-30.931,24.806-60.312,37.621-90.283c12.626-29.532,25.141-59.116,38.055-88.527
  			C297.733,36.128,298.786,32.798,302.186,31.092z"/>
    </symbol>

    <symbol id="rain">
      <title>Rain</title>
      <path d="M450.361,234.404c-1.461,36.294-3.472,70.945-17.47,103.57c-3.035,7.076-7.127,13.548-12.979,18.705
  			c-6.925,6.102-14.875,8.49-24.041,6.504c-6.103-1.32-11.688-3.796-16.75-7.368c-10.218-7.217-13.761-17.426-10.567-29.782
  			c1.851-7.157,5.051-13.708,9.1-19.826C396.577,277.604,422.59,256.198,450.361,234.404z"/>
  		<path d="M437.962,81.756c0.384,12.922-0.695,24.962-2.077,36.967c-1.771,15.369-4.44,30.568-9.932,45.13
  			c-2.593,6.875-5.827,13.406-10.701,18.991c-8.847,10.137-20.688,11.663-33.835,4.403c-12.269-6.774-16.444-16.517-12.295-29.664
  			c4.099-12.987,12.424-23.413,21.339-33.334C404.519,108.604,420.404,94.961,437.962,81.756z"/>
  		<path d="M335.283,241.391c-0.846,28.854-2.868,56.139-12.29,82.32c-2.489,6.916-5.781,13.422-10.63,19.029
  			c-8.936,10.335-20.947,11.865-34.229,4.402c-12.144-6.821-16.109-16.609-11.979-29.819c1.745-5.582,4.434-10.745,7.7-15.573
  			C290.013,277.859,311.852,259.771,335.283,241.391z"/>
  		<path d="M226.775,186.365c-0.633,10.495-0.984,20.057-1.834,29.574c-1.629,18.244-4.434,36.281-11.011,53.519
  			c-2.439,6.392-5.551,12.433-10.007,17.694c-8.826,10.421-20.961,12.149-34.185,4.889c-12.444-6.834-16.506-16.713-12.176-30.122
  			c4.081-12.636,12.155-22.812,20.813-32.505c13.794-15.443,29.395-28.93,45.895-41.395
  			C224.756,187.651,225.286,187.344,226.775,186.365z"/>
  		<path d="M329.66,26.611c-1.027,28.698-2.92,56.358-12.723,82.794c-2.381,6.417-5.535,12.441-9.989,17.703
  			c-8.829,10.427-21.003,12.17-34.185,4.908c-12.441-6.853-16.482-16.711-12.174-30.122c3.956-12.314,11.757-22.268,20.151-31.755
  			c13.948-15.766,29.792-29.473,46.564-42.133C327.793,27.638,328.359,27.375,329.66,26.611z"/>
  		<path d="M338.771,142.994c-0.771,19.379-2.037,37.914-7.754,55.831c-1.877,5.879-4.265,11.521-8.104,16.415
  			c-6.668,8.503-15.59,10.033-25.725,4.503c-9.33-5.091-12.153-12.771-8.476-23.121c2.833-7.972,7.836-14.597,13.291-20.878
  			c10.289-11.847,22.082-22.08,34.523-31.588C337.016,143.782,337.631,143.576,338.771,142.994z"/>
  		<path d="M203.15,101.969c-1.1,23.302-2.239,45.301-11.598,65.877c-1.725,3.792-4.064,7.254-7.206,10.089
  			c-5.863,5.29-12.519,5.777-19.521,2.906c-6.917-2.836-12.592-6.987-13.301-15.263c-0.395-4.598,1.005-8.869,2.952-12.966
  			c2.95-6.208,6.99-11.699,11.461-16.864C176.661,123.36,188.986,112.722,203.15,101.969z"/>
    </symbol>

    <symbol id="heavy_rains">
      <title>Heavy Rains</title>
      <path d="M422.293,176.555c1.996-9.007,4.424-17.55,5.729-26.26c8.172-54.466-25.204-107.286-83.727-116.415
  			c-53.512-8.348-104.883,21.422-117.764,81.394c-0.124,0.577-0.271,1.157-0.312,1.744c-0.319,4.508-2.642,5.144-6.769,4.316
  			c-13.44-2.698-26.73-2.125-39.548,3.234c-23.1,9.658-36.772,34.081-33.935,60.514c2.927,27.277,19.541,46.247,45.305,51.557
  			c9.933,2.047,20.029,1.006,30.056,1.197c3.84,0.073,7.687,0.114,11.523-0.031c1.966-0.074,2.504,0.569,2.477,2.497
  			c-0.104,7.239-0.035,14.48-0.05,21.72c-0.002,1.111,0.391,2.498-1.571,2.429c-17.635-0.623-35.423,1.817-52.803-3.507
  			c-36.457-11.17-62.518-46.811-61.719-84.813c0.818-38.932,34.502-76.678,73.12-81.943c1.169-0.159,2.38-0.67,3.492-0.5
  			c7.7,1.181,10.195-3.227,13.217-9.627c20.887-44.235,55.647-71.029,104.295-77.154c40.826-5.14,75.885,9.196,104.689,38.142
  			c25.301,25.426,38.076,56.377,37.891,92.43c-0.021,4.12-1.892,9.09-0.171,12.105c1.553,2.717,7.021,2.987,10.479,4.86
  			c21.191,11.481,34.044,28.676,34.024,53.395c-0.021,28.882-27.604,56.142-56.494,56.556c-14.033,0.201-28.072-0.006-42.109,0.101
  			c-2.359,0.019-3.353-0.392-3.274-3.062c0.2-6.791,0.247-13.6-0.016-20.386c-0.115-2.993,1.059-3.271,3.548-3.25
  			c13.297,0.106,26.595,0.088,39.895,0.042c25.785-0.087,40.544-24.923,28.199-47.733c-6.602-12.199-17.913-15.422-30.817-14.815
  			C433.585,175.551,428.031,176.115,422.293,176.555z"/>
  		<path d="M387.922,333.718c-0.636,14.202-2.266,28.236-7.09,41.727c-1.501,4.193-3.439,8.162-6.329,11.588
  			c-5.583,6.615-12.885,7.679-21.104,3.133c-7.567-4.187-10.006-10.313-7.352-18.647c2.104-6.601,6.119-12.075,10.512-17.276
  			c8.904-10.547,19.217-19.587,30.221-27.867C389.779,328.413,387.7,331.244,387.922,333.718z"/>
  		<path d="M328.245,328.621c-0.56,14.004-1.464,26.778-5.144,39.184c-1.432,4.826-3.248,9.485-6.459,13.448
  			c-4.843,5.974-10.948,6.968-18.156,3.025c-6.728-3.681-8.803-8.999-6.297-16.354c0.52-1.524,1.162-3.041,1.974-4.43
  			C302.446,349.335,314.852,339.24,328.245,328.621z"/>
  		<path d="M381.975,245.55c-0.684,16.929-1.306,33.515-9.365,48.626c-4.243,7.957-10.629,10.215-18.049,7.189
  			c-8.801-3.586-11.504-9.986-7.861-18.838c0.779-1.896,1.757-3.73,2.83-5.478C355.462,267.398,372.762,250.518,381.975,245.55z"/>
  		<path d="M271.242,299.729c-0.414,15.84-1.552,30.459-6.872,44.428c-0.781,2.051-1.853,4.026-3.034,5.882
  			c-5.869,9.214-16.474,10.122-23.959,2.101c-3.114-3.338-3.633-7.279-2.53-11.548c1.049-4.06,3.083-7.646,5.507-11.011
  			C248.637,318.08,259.293,309.04,271.242,299.729z"/>
  		<path d="M325.18,215.773c-0.703,17.479-1.371,33.927-9.193,48.974c-4.18,8.039-10.219,10.479-17.452,7.905
  			c-9.487-3.377-12.508-10.315-8.551-19.586c1.223-2.864,2.813-5.514,4.655-8.006C302.934,233.836,313.377,224.882,325.18,215.773z"
  			/>
  		<path d="M330.007,276.836c-0.442,9.867-1.036,18.688-3.401,27.289c-0.903,3.285-2.047,6.477-3.883,9.361
  			c-3.627,5.698-8.623,7.013-14.425,3.86c-5.338-2.898-6.685-7.395-3.933-13.547c2.707-6.051,7.193-10.765,11.843-15.321
  			C320.294,284.477,324.623,280.754,330.007,276.836z"/>
  		<path d="M259.083,255.462c-0.699,12.599-1.158,24.078-6.179,34.692c-3.792,8.019-10.237,9.869-16.911,5.183
  			c-3.364-2.362-4.672-5.517-3.682-9.621c0.78-3.233,2.371-6.034,4.289-8.659C242.578,268.878,250.188,262.395,259.083,255.462z"/>
  		<path d="M387.922,333.718c-1.046-2.345,0.869-5.149-1.143-7.346c1.008-1.252,1.767-1.005,1.755,0.515
  			C388.518,329.169,388.844,331.509,387.922,333.718z"/>
    </symbol>

    <symbol id="rainy">
      <title>Rainy</title>
      <path d="M433.885,197.812c2.274-10.265,5.024-19.899,6.485-29.726c9.163-61.61-28.617-121.287-94.548-131.121
  			c-41.468-6.185-77.515,5.044-106.033,36.757c-14.252,15.848-22.268,34.875-26.799,55.519c-1.561,7.11-1.663,7.122-8.911,5.935
  			c-15.424-2.527-30.498-1.878-44.997,4.643c-24.975,11.235-39.321,37.097-36.918,66.667c2.474,30.457,21.516,52.613,50.771,58.949
  			c5.049,1.092,10.194,1.514,15.384,1.498c18.664-0.055,37.33,0.123,55.991-0.134c4.105-0.057,4.888,1.249,4.746,4.966
  			c-0.278,7.32-0.151,14.661-0.04,21.991c0.033,2.198-0.285,3.228-2.905,3.212c-21.163-0.119-42.366,0.746-63.481-0.271
  			c-41.856-2.015-80.009-36.298-88.708-77.624c-11.645-55.324,31.369-107.706,81.699-113.949
  			c10.134-1.258,14.465-4.83,18.899-13.947c23.853-49.045,63.146-78.889,117.535-84.757c54.901-5.922,98.735,16.707,131.568,60.226
  			c21.423,28.396,30.707,60.903,27.425,96.608c-0.331,3.592,0.569,5.011,4.165,6.205c27.853,9.252,47.425,36.373,46.693,64.187
  			c-0.846,32.112-31.335,62.625-63.428,63.188c-15.991,0.281-31.994-0.002-47.989,0.136c-2.783,0.023-3.683-0.669-3.604-3.544
  			c0.204-7.493,0.237-15.001-0.01-22.491c-0.106-3.246,0.779-4.146,4.071-4.104c14.829,0.188,29.663-0.062,44.492,0.11
  			c35.174,0.406,41.749-31.758,33.292-51.723c-5.577-13.165-19.613-20.368-35.914-18.896
  			C446.702,196.876,440.573,197.291,433.885,197.812z"/>
  		<path d="M311.221,252.126c0.086,14.599-1.26,28.032-3.875,41.351c-1.801,9.162-4.174,18.162-9.154,26.203
  			c-7.288,11.77-17.737,14.113-29.336,6.703c-7.059-4.51-9.558-10.748-7.503-18.861c0.862-3.405,2.281-6.61,4.117-9.58
  			C276.95,279.367,293.554,265.953,311.221,252.126z"/>
  		<path d="M389.318,291.458c-0.231,19.013-1.871,36.528-6.973,53.582c-2.017,6.742-4.695,13.197-9.443,18.554
  			c-6.576,7.422-15.213,8.361-24.879,2.785c-8.586-4.954-11.256-12.059-7.918-21.644c0.925-2.653,2.148-5.264,3.623-7.652
  			C355.131,318.6,371.675,305.281,389.318,291.458z"/>
  		<path d="M318.037,334.669c-0.828,17.458-1.5,33.504-9.018,48.201c-5.132,10.037-13.838,12.067-22.773,5.835
  			c-4.566-3.188-6.226-7.569-4.862-13.034c0.32-1.282,0.702-2.583,1.289-3.759C290.465,356.282,303.886,346.098,318.037,334.669z"/>
    </symbol>

    <symbol id="snowflake">
      <title>Snowflake</title>
      <path d="M455.567,271.711l-1.367-0.791c1.746-0.998,3.19-2.361,4.14-4.016c1.796-3.109,2.056-7.031,0.341-10.482
      	c-2.712-5.5-9.38-7.758-14.881-5.045l-12.627,6.25l-12.418-7.172l25.538-8.986c2.593-0.922,4.644-2.707,5.919-4.926
      	c1.558-2.707,1.98-6.066,0.862-9.244c-2.034-5.795-8.388-8.834-14.171-6.799l-43.502,15.316l-3.082-1.779l9.755-11.102
      	c0.499-0.553,0.922-1.162,1.28-1.779c2.599-4.492,1.747-10.342-2.289-13.891c-4.612-4.057-11.633-3.602-15.68,1.01l-12.685,14.438
      	l-15.138-8.725v-31.978l15.138-8.725l12.685,14.441c4.047,4.611,11.067,5.062,15.68,1.011c4.047-3.556,4.888-9.394,2.289-13.889
      	c-0.358-0.622-0.781-1.224-1.28-1.782l-9.755-11.101l3.082-1.78l43.502,15.319c5.783,2.038,12.137-1,14.171-6.794
      	c1.118-3.186,0.695-6.541-0.862-9.251c-1.275-2.216-3.326-4.006-5.919-4.924l-25.538-8.986l12.418-7.173l12.627,6.245
      	c5.495,2.716,12.158,0.462,14.881-5.04c1.721-3.461,1.455-7.375-0.341-10.488c-0.949-1.652-2.394-3.01-4.14-4.012l1.367-0.795
      	c5.317-3.065,7.134-9.861,4.068-15.178c-3.07-5.317-9.863-7.14-15.181-4.066l-1.334,0.772c0.011-5.83-4.471-10.734-10.352-11.111
      	c-6.121-0.401-11.405,4.248-11.796,10.371l-0.912,14.058l-12.418,7.173l4.975-26.603c1.129-6.033-2.843-11.841-8.876-12.967
      	c-6.033-1.128-11.839,2.848-12.967,8.876l-8.486,45.325l-3.081,1.782l-4.731-14c-1.932-5.821-8.278-8.928-14.085-6.96
      	c-5.815,1.966-8.93,8.274-6.966,14.089l6.151,18.2l-15.326,8.831l-27.578-15.775v-17.777l18.849-3.768
      	c6.022-1.199,9.917-7.056,8.713-13.072c-1.198-6.018-7.031-9.929-13.076-8.716l-14.485,2.899v-3.561l35.012-30.007
      	c4.66-3.996,5.202-11.005,1.209-15.666c-3.998-4.658-11.008-5.201-15.669-1.208l-20.552,17.606v-14.34l11.719-7.81
      	c5.101-3.408,6.49-10.3,3.083-15.406c-3.277-4.918-9.767-6.34-14.802-3.407v-1.544c0-6.133-4.981-11.111-11.111-11.111
      	c-6.135,0-11.111,4.978-11.111,11.111v1.544c-5.032-2.922-11.529-1.505-14.801,3.407c-3.405,5.105-2.021,12.004,3.084,15.406
      	l11.717,7.81v14.34l-20.547-17.612c-4.66-3.993-11.676-3.45-15.667,1.208c-3.993,4.66-3.456,11.675,1.208,15.666l35.006,30.012
      	v3.561l-14.49-2.895c-6.006-1.212-11.873,2.7-13.072,8.717c-1.208,6.017,2.694,11.873,8.716,13.072l18.846,3.763v17.777
      	l-27.584,15.761l-15.324-8.827l6.156-18.2c1.975-5.817-1.148-12.124-6.961-14.09c-5.805-1.967-12.155,1.145-14.082,6.96
      	l-4.738,14.001l-3.084-1.783L220.347,95.6c-1.127-6.027-6.939-9.999-12.966-8.875c-6.027,1.125-10.002,6.939-8.88,12.967
      	l4.979,26.599l-12.417-7.173l-0.911-14.054c-0.397-6.128-5.679-10.772-11.802-10.375c-5.883,0.381-10.362,5.291-10.349,11.113
      	l-1.335-0.76c-5.317-3.068-12.112-1.245-15.178,4.066c-3.068,5.312-1.25,12.113,4.066,15.178l1.373,0.795
      	c-1.75,1.001-3.19,2.36-4.145,4.012c-1.793,3.112-2.056,7.032-0.344,10.488c2.718,5.502,9.383,7.756,14.885,5.04l12.627-6.245
      	l12.416,7.173l-25.529,8.986c-2.599,0.918-4.65,2.708-5.928,4.924c-1.56,2.71-1.983,6.065-0.86,9.251
      	c2.038,5.789,8.383,8.827,14.171,6.794l43.497-15.319l3.084,1.78l-9.757,11.101c-0.494,0.559-0.929,1.161-1.284,1.782
      	c-2.593,4.495-1.749,10.338,2.295,13.889c4.612,4.051,11.63,3.601,15.681-1.011l12.687-14.441l15.135,8.725v31.978l-15.135,8.719
      	l-12.687-14.432c-4.051-4.611-11.069-5.066-15.681-1.014c-4.044,3.553-4.888,9.391-2.295,13.889c0.355,0.623,0.79,1.232,1.284,1.785
      	l9.757,11.102l-3.084,1.779l-43.497-15.311c-5.789-2.041-12.134,0.998-14.171,6.793c-1.123,3.178-0.7,6.543,0.86,9.244
      	c1.278,2.219,3.329,4.01,5.928,4.932l25.529,8.98l-12.416,7.172l-12.627-6.24c-5.502-2.717-12.162-0.465-14.885,5.035
      	c-1.712,3.463-1.457,7.379,0.344,10.492c0.95,1.65,2.39,3.008,4.145,4.01l-1.373,0.787c-5.317,3.072-7.135,9.863-4.066,15.182
      	c3.065,5.311,9.861,7.135,15.178,4.068l1.341-0.781c-0.014,5.828,4.465,10.744,10.349,11.117
      	c6.124,0.396,11.407-4.254,11.801-10.369l0.911-14.063l12.416-7.162l-4.977,26.598c-1.123,6.031,2.85,11.838,8.879,12.965
      	c6.027,1.129,11.839-2.842,12.967-8.875l8.483-45.324l3.084-1.779l4.739,13.996c1.926,5.828,8.271,8.932,14.081,6.967
      	c5.819-1.963,8.937-8.268,6.965-14.084l-6.158-18.203l15.324-8.826l27.578,15.754v17.785l-18.846,3.766
      	c-6.017,1.205-9.924,7.053-8.716,13.076c1.199,6.012,7.066,9.951,13.072,8.713l14.49-2.896v3.559l-35.011,30.004
      	c-4.658,3.998-5.201,11.008-1.208,15.668c3.996,4.666,11.006,5.197,15.667,1.205l20.552-17.602v14.336l-11.717,7.813
      	c-5.105,3.406-6.483,10.297-3.084,15.408c3.271,4.904,9.76,6.326,14.801,3.406v1.541c0,6.131,4.977,11.113,11.111,11.113
      	c6.13,0,11.111-4.982,11.111-11.113v-1.582c1.747,1.02,3.636,1.582,5.545,1.582c3.592,0,7.118-1.734,9.257-4.947
      	c3.407-5.111,2.018-12.002-3.083-15.408l-11.719-7.813v-14.336l20.546,17.613c2.101,1.789,4.673,2.668,7.228,2.668
      	c3.13,0,6.245-1.313,8.447-3.879c3.993-4.66,3.451-11.676-1.209-15.664l-35.012-30.014v-3.559l14.485,2.891
      	c0.738,0.158,1.472,0.223,2.192,0.223c5.188,0,9.832-3.65,10.884-8.93c1.204-6.023-2.69-11.871-8.713-13.076l-18.849-3.766v-17.785
      	l27.584-15.76l15.333,8.826l-6.159,18.197c-1.969,5.816,1.15,12.127,6.967,14.096c5.806,1.965,12.158-1.148,14.079-6.967
      	l4.737-14.002l3.086,1.773l8.48,45.324c1.129,6.035,6.934,10.006,12.968,8.877c6.032-1.123,10.009-6.934,8.881-12.967l-4.98-26.596
      	l12.424,7.172l0.901,14.053c0.402,6.125,5.681,10.77,11.807,10.373c5.881-0.379,10.362-5.283,10.352-11.117l1.329,0.775
      	c5.316,3.072,12.115,1.25,15.175-4.063C462.701,281.574,460.885,274.783,455.567,271.711z M277.782,213.777v-31.549l27.779-15.873
      	l27.778,15.873v31.549l-27.778,15.865L277.782,213.777z"/>
    </symbol>

    <symbol id="snowy">
      <title>Snowy</title>
      <path d="M433.889,195.778c2.25-10.158,4.987-19.793,6.462-29.616c9.217-61.423-28.42-121-94.427-131.298
  			c-60.351-9.417-118.29,24.155-132.82,91.794c-0.14,0.651-0.305,1.306-0.352,1.967c-0.359,5.081-2.975,5.804-7.631,4.873
  			c-14.982-3-29.798-2.403-44.14,3.466c-26.487,10.838-42.311,39.028-38.69,68.923c3.72,30.719,21.708,51.221,50.562,57.518
  			c5.215,1.139,10.525,1.539,15.881,1.521c18.664-0.056,37.329,0.081,55.991-0.111c3.521-0.037,4.478,0.844,4.34,4.355
  			c-0.293,7.488-0.14,14.995-0.057,22.493c0.023,2.078-0.051,3.319-2.81,3.302c-21.328-0.143-42.715,0.873-63.975-0.35
  			c-42.096-2.422-79.585-36.285-88.283-77.465c-11.707-55.422,31.4-107.323,81.553-114.371c1.153-0.162,2.358-0.738,3.436-0.545
  			c8.783,1.576,11.307-3.822,14.348-10.812c25.043-57.577,85.217-93.947,147.561-87.1c53.906,5.919,92.51,35.68,116.846,83.694
  			c11.593,22.87,15.99,47.49,13.387,73.147c-0.354,3.479,0.355,5.039,4.064,6.264c27.664,9.135,47.288,36.064,46.782,63.626
  			c-0.598,32.574-31.266,63.321-63.85,63.788c-15.828,0.228-31.662-0.006-47.491,0.113c-2.658,0.021-3.784-0.437-3.695-3.45
  			c0.227-7.658,0.277-15.337-0.019-22.99c-0.13-3.373,1.188-3.691,3.998-3.668c14.998,0.123,29.997,0.1,44.993,0.049
  			c29.084-0.1,45.729-28.105,31.81-53.834c-7.444-13.759-20.201-17.396-34.757-16.712
  			C446.626,194.645,440.362,195.281,433.889,195.778z"/>
  		<path d="M341.963,280.313c0,5.66-0.145,10.328,0.057,14.979c0.114,2.683-0.465,3.771-3.459,3.685
  			c-7.653-0.224-15.326-0.274-22.976,0.018c-3.353,0.129-3.806-1.148-3.675-3.987c0.212-4.596,0.057-9.208,0.057-14.507
  			c-4.85,2.747-9.195,5.059-13.374,7.643c-1.851,1.145-2.761,1.043-3.854-0.91c-3.977-7.101-8.018-14.168-12.233-21.127
  			c-1.379-2.276-0.494-3.129,1.386-4.164c4.218-2.318,8.352-4.791,13.14-7.559c-4.536-2.643-8.664-5.132-12.878-7.467
  			c-1.982-1.1-3.139-1.879-1.536-4.471c4.191-6.777,8.092-13.737,11.965-20.705c1.123-2.021,1.996-2.516,4.131-1.143
  			c4.03,2.59,8.288,4.825,13.254,7.668c0-5.41,0.156-10.273-0.063-15.121c-0.12-2.676,0.769-3.343,3.342-3.289
  			c7.823,0.16,15.655,0.172,23.478-0.006c2.654-0.061,3.402,0.742,3.295,3.336c-0.198,4.793-0.057,9.601-0.057,15.151
  			c4.756-2.694,9.122-4.95,13.243-7.587c2.315-1.482,3.334-0.993,4.574,1.236c3.874,6.97,7.887,13.861,11.963,20.714
  			c1.082,1.819,0.96,2.78-0.994,3.831c-4.383,2.354-8.642,4.941-13.593,7.805c4.729,2.746,8.967,5.363,13.357,7.693
  			c2.129,1.132,2.377,2.109,1.142,4.166c-4.11,6.83-8.147,13.712-11.96,20.711c-1.399,2.568-2.637,2.201-4.663,0.951
  			C350.98,285.361,346.796,283.085,341.963,280.313z"/>
  		<path d="M285.97,322.381c4.816-2.757,9.002-5.043,13.065-7.529c2.001-1.224,3.26-1.646,4.662,0.929
  			c3.813,6.999,7.843,13.886,11.956,20.715c1.246,2.067,0.975,3.053-1.137,4.177c-4.388,2.336-8.637,4.929-13.37,7.663
  			c4.648,2.694,8.827,5.309,13.191,7.567c2.396,1.239,2.465,2.35,1.162,4.514c-4.026,6.688-7.938,13.447-11.695,20.289
  			c-1.263,2.301-2.303,2.702-4.582,1.248c-4.028-2.572-8.271-4.81-13.253-7.659c0,5.527-0.122,10.404,0.051,15.271
  			c0.088,2.497-0.485,3.462-3.238,3.393c-7.822-0.198-15.656-0.229-23.476,0.009c-3.113,0.097-3.483-1.17-3.383-3.758
  			c0.179-4.642,0.051-9.295,0.051-14.714c-4.702,2.666-9.039,4.948-13.176,7.55c-2.072,1.304-3.018,1.05-4.195-1.074
  			c-3.863-6.972-7.799-13.911-11.977-20.697c-1.563-2.54-0.478-3.363,1.527-4.467c4.217-2.318,8.338-4.812,12.858-7.441
  			c-4.404-2.572-8.471-5.082-12.668-7.35c-2.244-1.212-3.293-2.102-1.59-4.835c4.125-6.622,7.95-13.438,11.696-20.286
  			c1.262-2.306,2.305-2.563,4.512-1.16c4.018,2.555,8.247,4.775,13.013,7.493c0-5.387,0.074-10.136-0.032-14.882
  			c-0.051-2.271,0.102-3.615,3.098-3.525c7.986,0.24,15.986,0.179,23.976,0.022c2.48-0.048,3.083,0.782,3.003,3.115
  			C285.855,311.778,285.97,316.608,285.97,322.381z"/>
  		<path d="M351.025,348.368c-4.437-2.587-8.52-5.121-12.75-7.377c-2.332-1.242-3.148-2.216-1.506-4.863
  			c4.111-6.63,7.963-13.432,11.697-20.285c1.301-2.388,2.403-2.417,4.531-1.081c4.025,2.529,8.236,4.768,12.961,7.462
  			c0-5.419,0.1-10.182-0.041-14.938c-0.068-2.378,0.288-3.541,3.167-3.462c7.985,0.221,15.985,0.184,23.976,0.015
  			c2.572-0.054,3.007,0.933,2.938,3.178c-0.146,4.822-0.044,9.651-0.044,15.408c4.548-2.63,8.697-4.864,12.665-7.388
  			c2.41-1.531,3.806-1.69,5.354,1.222c3.585,6.743,7.414,13.368,11.431,19.864c1.562,2.526,0.995,3.562-1.392,4.817
  			c-4.25,2.235-8.341,4.774-12.876,7.406c4.652,2.692,8.892,5.239,13.227,7.61c1.883,1.029,2.759,1.813,1.371,4.096
  			c-4.231,6.95-8.265,14.024-12.253,21.119c-1.074,1.911-2.001,2.145-3.882,0.981c-4.201-2.599-8.56-4.945-13.646-7.846
  			c0,5.718-0.101,10.771,0.048,15.815c0.063,2.181-0.588,2.846-2.793,2.813c-8.158-0.124-16.32-0.118-24.479-0.003
  			c-2.166,0.031-2.892-0.563-2.82-2.784c0.158-4.966,0.05-9.938,0.05-15.748c-4.617,2.669-8.75,4.978-12.795,7.432
  			c-1.933,1.172-3.2,1.747-4.629-0.902c-3.781-7.015-7.813-13.898-11.949-20.713c-1.301-2.143-0.86-3.125,1.153-4.227
  			C342.109,353.603,346.385,351.046,351.025,348.368z"/>
    </symbol>

    <symbol id="partly_cloudy">
      <title>Partly Cloudy</title>
      <path d="M207.266,43.116c0.341,6.463,4.742,10.866,10.653,10.902c5.899,0.037,10.495-4.349,10.726-10.799
        c0.25-6.971,0.236-13.963,0.009-20.936c-0.209-6.41-4.829-10.951-10.631-10.972c-5.817-0.022-10.399,4.501-10.755,10.869
        c-0.194,3.479-0.034,6.977-0.034,10.467C207.235,36.137,207.084,39.634,207.266,43.116z"/>
      <path d="M110.851,160.709c6.745-0.202,11.261-4.819,11.126-10.919c-0.13-5.902-4.562-10.188-11.073-10.493
        c-3.482-0.162-6.978-0.028-10.468-0.028c-3.324,0.001-6.653-0.124-9.971,0.027c-6.633,0.302-11.336,4.973-11.196,10.939
        c0.136,5.807,4.693,10.278,11.144,10.47C97.221,160.908,104.044,160.913,110.851,160.709z"/>
      <path d="M293.135,85.163c2.241,0.113,4.416-0.287,6.09-1.757c6.364-5.586,12.498-11.453,17.899-17.964
        c3.338-4.024,2.458-9.979-1.249-13.572c-3.57-3.461-9.348-4.298-13.206-1.128c-6.54,5.371-12.461,11.469-17.962,17.898
        c-2.701,3.156-2.6,7.091-0.752,10.781C285.821,83.148,288.965,85.036,293.135,85.163z"/>
      <path d="M134.344,81.444c4.874,4.732,11.203,5.009,15.557,0.86c4.488-4.276,4.352-10.907-0.486-15.912
        c-4.5-4.656-9.139-9.177-13.721-13.755c-2.311-2.308-4.943-3.901-8.381-3.708c-4.372,0.132-7.617,2.14-9.432,6.117
        c-1.998,4.374-1.258,8.487,2.048,11.93C124.644,71.885,129.46,76.702,134.344,81.444z"/>
      <path d="M474.902,258.411c-3.563-1.165-4.282-2.604-3.843-5.914c1.485-11.149,0.703-22.259-0.929-33.345
        c-12.159-82.581-99.898-147.78-189.42-116.917c-2.856,0.985-4.566,1.015-6.803-1.444c-17.273-18.993-38.724-27.333-64.388-24.899
        c-41.812,3.966-73.135,45.799-65.133,87.021c2.452,12.63,7.576,23.993,15.838,34.462c-1.874,0.7-3.121,1.15-4.358,1.631
        c-46.336,17.95-72.723,67.141-60.849,113.437c10.335,40.292,49.333,73.219,88.996,73.405c91.622,0.432,183.248,0.34,274.871-0.011
        c31.812-0.123,62.119-31.103,63.021-62.979C522.698,294.902,502.955,267.598,474.902,258.411z M196.15,101.569
        c20.089-9.012,39.213-5.886,56.553,7.919c3.407,2.713,3.506,3.899-0.459,6.322c-28.739,17.557-49.507,41.956-61.929,73.345
        c-1.859,4.697-2.713,5.012-6.558,1.701c-12.408-10.687-18.819-24.23-19.108-42.601C165.553,127.747,175.586,110.795,196.15,101.569
        z M489.434,335.07c-4.884,13.578-15.656,19.63-29.551,20.844c-1.158,0.102-2.331,0.075-3.496,0.075
        c-89.623,0.002-179.249,0.078-268.872-0.057c-22.111-0.03-40.623-8.183-53.635-26.644c-22.375-31.744-14.908-89.535,34.321-103.708
        c12.279-3.534,24.689-3.515,37.06-0.96c4.79,0.986,6.667-0.23,7.605-5.03c4.189-21.428,12.686-40.925,27.368-57.339
        c23.545-26.321,53.483-38.603,88.37-37.727c43.309,1.087,77.309,19.629,98.761,57.965c15.562,27.809,18.123,57.662,10.23,88.461
        c-1.234,4.824-2.396,9.674-3.569,14.516c-0.076,0.309,0.031,0.659,0.076,1.34c5.771-0.402,11.556-0.716,17.32-1.222
        C488.182,282.359,497.313,313.168,489.434,335.07z"/>
    </symbol>

    <symbol id="wind">
      <title>Wind</title>
      <path d="M392.094,230.982c7.06,0,13.813,0,20.718,0c0.26,1.074,0.562,2.012,0.703,2.973c1.33,8.97,6.073,15.033,15.057,17.188
  			c8.719,2.092,16.802,0.689,22.659-6.535c5.884-7.258,6.178-15.646,2.539-24.029c-2.549-5.875-7.343-9.43-13.629-10.604
  			c-3.085-0.576-6.284-0.731-9.433-0.732c-95.961-0.036-191.921-0.03-287.881-0.03c-2.115,0-4.231,0-6.588,0
  			c0-7.278,0-14.014,0-21.243c1.68,0,3.132,0,4.585,0c97.792,0,195.585-0.019,293.378,0.018
  			c18.19,0.007,33.897,10.855,40.276,27.542c6.229,16.295,1.947,34.846-11.269,46.572c-12.819,11.373-27.744,14.318-43.722,8.239
  			c-16.199-6.163-25.064-18.594-27.377-35.715C391.964,233.523,392.094,232.384,392.094,230.982z"/>
  		<path d="M306.161,123.713c-6.701,0-13.463,0-21.473,0c1.253-5.37,1.862-10.628,3.706-15.412
  			c7.625-19.786,29.209-30.87,49.506-25.798c20.545,5.132,34.813,24.849,32.537,44.967c-2.594,22.932-19.947,39.058-42.967,39.175
  			c-42.153,0.215-84.308,0.066-126.461,0.068c-19.661,0.001-39.321,0-58.982,0c-1.799,0-3.598,0-5.715,0c0-7.201,0-13.955,0-21.497
  			c2.024,0,4.115,0,6.205,0c60.648,0,121.296,0.009,181.944-0.025c3.151-0.001,6.397,0.056,9.438-0.629
  			c10.574-2.383,16.229-11.414,15.142-23.644c-0.899-10.109-8.417-17.383-18.692-18.086
  			C316.529,101.888,309.641,107.773,306.161,123.713z"/>
  		<path d="M136.243,251.961c0-7.25,0-13.988,0-21c1.688-0.096,3.142-0.249,4.595-0.249c62.129-0.011,124.258-0.069,186.387,0.024
  			c22.979,0.037,40.326,15.625,43.106,38.289c2.834,23.117-15.472,45.076-39.041,46.833c-23.935,1.782-45.371-17.191-45.928-40.673
  			c-0.011-0.461,0.243-0.93,0.533-1.968c6.018,0,12.139-0.141,18.241,0.146c0.959,0.045,2.462,1.934,2.64,3.128
  			c1.328,9.027,6.103,15.171,14.986,17.298c9,2.153,17.331,0.633,23.372-7.161c5.156-6.652,5.56-17.689,1.121-25.045
  			c-4.323-7.166-11.073-9.633-19.073-9.629c-32.98,0.016-65.96,0.006-98.94,0.006C197.763,251.961,167.285,251.961,136.243,251.961z
  			"/>
    </symbol>

    <symbol id="wind_and_clouds">
      <title>Windy and Cloudy</title>
      <path d="M460.135,114.107c14.65,4.175,26.6,12.079,35.904,23.708c36.528,45.642-0.449,97.371-40.251,104.119
  			c-5.053,0.855-10.271,0.939-15.417,0.983c-14.622,0.125-29.248,0.044-44.143,0.044c0-10.021,0-19.621,0-29.996
  			c1.668,0,3.415,0,5.164,0c14.663,0,29.326,0.051,43.989-0.016c13.172-0.061,24.522-4.233,30.939-16.454
  			c6.907-13.154,6.767-26.828-1.055-39.549c-7.575-12.325-19.951-15.201-33.482-14.52c-6.121,0.309-12.228,0.899-19.042,1.416
  			c1.659-6.916,3.197-13.306,4.726-19.698C441.927,63.72,408.681-3.391,338.34-16.469C276.781-27.916,218.791,5.767,203.13,70.522
  			c-2.925,12.093-2.982,12.079-15.216,10.085c-29.638-4.827-58.219,9.481-70.355,35.225c-12.957,27.481-6.597,62.246,15.004,81.312
  			c12.434,10.975,27.27,15.722,43.633,15.78c32.992,0.117,65.985,0.039,98.978,0.041c1.995,0,3.991,0,6.391,0
  			c0,9.87,0,19.59,0,29.996c-1.638,0-3.398,0-5.158,0c-32.66,0-65.319,0-97.978,0c-53.719,0-98.542-45.793-97.395-99.503
  			c0.941-44.037,38.738-86.44,82.493-92.499c4.739-0.656,10.622,0.425,13.955-2.036c3.366-2.484,4.135-8.413,6.188-12.764
  			c26.346-55.852,85.814-90.601,146.43-83.852c48.111,5.358,84.548,30.476,109.886,71.387
  			c16.161,26.095,22.946,54.738,20.166,85.477C460.018,110.646,460.135,112.145,460.135,114.107z"/>
  		<path d="M404.493,352.965c6.661,0,13.415,0,20.317,0c0.26,1.08,0.561,2.019,0.702,2.979c1.331,8.969,6.077,15.031,15.061,17.185
  			c8.719,2.091,16.801,0.688,22.658-6.54c5.882-7.259,6.175-15.646,2.533-24.03c-2.549-5.874-7.344-9.427-13.631-10.6
  			c-3.084-0.575-6.284-0.731-9.433-0.732c-95.96-0.035-191.921-0.029-287.881-0.029c-2.115,0-4.229,0-6.585,0
  			c0-7.28,0-14.018,0-21.242c1.685,0,3.137,0,4.59,0c97.793,0,195.586-0.02,293.379,0.018c18.188,0.008,33.897,10.858,40.274,27.546
  			c6.228,16.296,1.942,34.849-11.273,46.571c-12.819,11.372-27.744,14.316-43.723,8.236c-16.198-6.165-25.059-18.599-27.381-35.716
  			c-0.11-0.818-0.07-1.662-0.039-2.492C404.076,353.821,404.274,353.531,404.493,352.965z"/>
  		<path d="M148.125,288.697c0-7.451,0-14.098,0-21.497c2.227,0,4.324,0,6.421,0c61.314-0.001,122.628,0.011,183.943-0.015
  			c11.276-0.004,18.559-4.266,21.348-12.994c2.681-8.389,2.21-16.644-4.222-23.351c-6.455-6.729-14.684-7.499-23.146-4.979
  			c-8.863,2.641-13.014,9.267-13.74,18.263c-0.037,0.462-0.283,0.907-0.506,1.584c-6.789,0-13.552,0-21.866,0
  			c1.82-6.394,2.773-12.64,5.317-18.151c8.827-19.123,30.609-28.527,50.671-22.438c20.212,6.136,32.613,25.904,29.694,47.338
  			c-2.791,20.509-20.78,36.081-42.602,36.176c-44.318,0.193-88.64,0.063-132.958,0.064c-17.495,0-34.989,0-52.484,0
  			C152.196,288.697,150.395,288.697,148.125,288.697z"/>
  		<path d="M297.667,395.193c6.248,0,12.218-0.17,18.159,0.155c1.078,0.061,2.724,2.026,2.96,3.323
  			c2.181,11.966,11.187,19.051,23.079,17.877c12.646-1.248,19.811-9.691,19.279-22.725c-0.496-12.175-8.735-19.852-21.658-19.859
  			c-61.629-0.043-123.258-0.021-184.888-0.021c-1.977,0-3.955,0-6.271,0c0-7.018,0-13.749,0-20.908
  			c1.356-0.113,2.779-0.336,4.202-0.336c62.295-0.018,124.591-0.075,186.887,0.022c21.381,0.034,39.313,14.996,42.516,35.006
  			c3.357,20.969-8.023,40.595-27.652,47.686C326.913,445.301,296.499,424.157,297.667,395.193z"/>
    </symbol>
  </defs>

</svg>
