<?xml version="1.0" encoding="UTF-8" standalone="no"?>
<svg xmlns:rdf="http://www.w3.org/1999/02/22-rdf-syntax-ns#" xmlns="http://www.w3.org/2000/svg" version="1.0" xmlns:cc="http://creativecommons.org/ns#" xmlns:dc="http://purl.org/dc/elements/1.1/" viewBox="0 0 576.44501 577.45154">
<path d="m64.571 0.06355556c-41.335 0-64.571 21.370999-64.571 65.035999v450.123c0 40.844 20.895 62.229 62.192 62.229h452.024c41.307 0 62.229-20.315 62.229-62.229v-450.123c0-42.601-20.922-65.035999-63.521-65.035999-0.004 0-448.495-0.143-448.353 0z"/>
<path fill-rule="evenodd" fill="#fff" d="m203.09582 123.19211c-1.06073-0.0112-2.12218-0.009-3.18359 0.004-20.77687 0.25561-41.59823 5.17222-60.83203 14.93359-0.21623 0.0997-0.41739 0.21585-0.63281 0.31641-0.2841 0.14604-0.57991 0.25417-0.86329 0.40234v0.0293c-81.293861 38.60371-104.571 140.66106-66.789059 215.87686 52.473279 109.81397 186.72358 147.35767 294.31836 112.68555 98.66066-27.23883 180.91328-124.36221 160.48242-234.0625-0.12703-0.6821-0.20874-1.35991-0.34375-2.04297h-0.0586c-11.49939-76.23032-89.71733-121.98451-161.74804-104.05274-25.89224 6.44706-48.95494 17.16084-69.55078 30.84766-25.4631-22.58419-57.91598-34.58919-90.79883-34.9375zm192.59571 67.5332c29.90804 0.61531 59.36787 22.05321 63.31836 51.57227l0.14257 1.03711 0.20313 1.03516c8.57583 43.391-11.62463 87.59379-44.75195 119.08593-1.3 1.41089-2.69443 2.70753-4.1875 3.85742-18.6985 16.64108-41.06978 29.30798-64.52344 35.78321l-0.69141 0.20312-0.6914 0.20117c-54.78738 17.65508-121.07909 7.93951-167.66993-25.13085-3.23531-1.71549-6.19932-3.96135-8.75195-6.67774-15.45958-12.69363-28.23178-28.24672-36.94922-46.49023l-0.14453-0.28907-0.14453-0.3164c-21.50334-42.80857-6.64194-105.64514 36.34375-125.46094l0.75-0.3457 0.74805-0.4043c9.95544-5.20541 21.27079-7.70123 32.63086-7.6543 14.60579 0.0603 29.28837 4.3205 41.29297 12.375-33.37094 37.13479-61.88724 89.8056-80.45704 131.33203-5.15426 10.99582-3.9832 23.90472 3.08008 33.78321 0.87883 1.22911 1.83119 2.38695 2.84961 3.4707 2.82967 2.3234 5.75035 4.54719 8.75195 6.67774 5.84815 3.10091 12.58357 4.46543 19.38868 3.7207 12.07182-1.32111 22.49242-9.05618 27.25195-20.22852 17.28827-38.66062 43.11642-84.51862 70.21289-114.29883 24.93521 26.53609 52.67537 69.71897 64.28516 103.56641 3.76101 11.52541 13.43558 20.1172 25.32226 22.50195 9.63216 1.93245 19.50461-0.45703 27.11524-6.31836 1.41839-1.26232 2.81253-2.55032 4.1875-3.85742 0.25102-0.27243 0.51092-0.53452 0.7539-0.8164 7.91558-9.18281 10.26924-21.91701 6.15821-33.32227-14.36708-41.88613-45.68835-91.70925-75.01954-123.88086 10.49903-5.56489 21.50886-10.04372 33.17774-12.94922 4.31468-1.07413 8.71223-1.64654 13.12305-1.75586 0.96486-0.0239 1.92975-0.0257 2.89453-0.006z"/>
<path opacity=".9" fill-rule="evenodd" d="m399.29895 142.56125c-0.3663 0.0258-0.75361 0.0986-1.12109 0.20117-2.93984 0.82022-4.64835 3.85118-3.82813 6.79102l5.69727 20.37305c0.72046 2.96781 3.70993 4.80639 6.67773 4.08593 2.9678-0.72047 4.8064-3.70798 4.08594-6.67578-0.0296-0.12154-0.0774-0.25381-0.11524-0.37305l-5.69726-20.37304c-0.7177-2.57236-3.13512-4.2097-5.69922-4.0293zm-160.10742 12.86328c-0.12499 0.005-0.25067 0.0155-0.375 0.0293l-21.0918 1.61133c-3.0434 0.23043-5.32418 2.88433-5.09375 5.92773 0.23044 3.04339 2.88433 5.32224 5.92773 5.0918l21.09375-1.61133c3.05135-0.12715 5.42207-2.70257 5.29493-5.75391-0.12714-3.05136-2.70452-5.42206-5.75586-5.29492zm-102.47071 10.33008c-2.56991-0.0522-4.90763 1.71145-5.49609 4.31641-0.6725 2.9771 1.19477 5.91734 4.17187 6.58984l20.63282 4.66211c2.95439 0.77359 5.98814-0.98897 6.76172-3.94336 0.7736-2.9544-1.01631-5.98812-3.97071-6.76172-0.12105-0.0315-0.22279-0.0626-0.3457-0.0859l-20.66016-4.63281c-0.37213-0.0841-0.72661-0.13753-1.09375-0.14453zm195.33008 6.09961c-1.06506-0.006-2.1546 0.31577-3.10742 0.95117-0.10398 0.0695-0.19006 0.12477-0.28906 0.20117l-17.17774 12.34375c-2.48037 1.77853-3.04608 5.23251-1.26758 7.71289 1.77855 2.48039 5.20323 3.04415 7.6836 1.26563l17.20898-12.34375c2.54086-1.6944 3.21979-5.11346 1.52539-7.6543-1.059-1.58803-2.80107-2.46586-4.57617-2.47656zm152.10938 12.74805c-0.12499 0.005-0.25067 0.0155-0.375 0.0293l-21.0918 1.61133c-3.0434 0.23044-5.32418 2.88434-5.09375 5.92774 0.23044 3.0434 2.88433 5.32419 5.92773 5.09375l21.0918-1.61133c3.05134-0.12714 5.42206-2.70452 5.29492-5.75586-0.12714-3.05135-2.70256-5.42205-5.7539-5.29492zm-381.71094 43.19336c-0.24325-0.0104-0.47649 0.007-0.7207 0.0293-0.88802 0.0806-1.766541 0.39042-2.560552 0.91993-0.104 0.0695-0.217366 0.15406-0.316406 0.23046l-17.179687 12.31641c-2.480376 1.77852-3.044138 5.23056-1.265625 7.71094 1.778517 2.48037 5.232516 3.07344 7.71289 1.29492l17.17774-12.34375c2.54085-1.6944 3.21979-5.14275 1.52539-7.68359-1.01928-1.52849-2.67035-2.40171-4.37305-2.47461zm254.06055 17.29296c-0.54398-0.005-1.11955 0.095-1.66797 0.25977-0.11975 0.0361-0.22868 0.071-0.34571 0.11523l-20.02734 6.79102c-2.89163 0.97666-4.45907 4.10056-3.48242 6.99219 0.97666 2.89164 4.12984 4.42978 7.02148 3.45312l20.02735-6.76172c2.92491-0.87854 4.59144-3.98136 3.71289-6.90625-0.71381-2.37649-2.88104-3.92036-5.23828-3.94336zm-101.83789 3.25196c-0.12498 0.005-0.24872 0.0155-0.37305 0.0293l-21.09375 1.61132c-3.0434 0.23043-5.32224 2.88434-5.0918 5.92774 0.23043 3.04339 2.88435 5.32419 5.92774 5.09375l21.09179-1.61133c3.05135-0.12715 5.42206-2.70451 5.29493-5.75586-0.12714-3.05135-2.70451-5.42206-5.75586-5.29492zm232.9121 2.1875c-1.77358 0.0406-3.48613 0.92853-4.51757 2.5332-1.6503 2.56747-0.89949 6.00399 1.66797 7.6543l17.7832 11.42383c2.51154 1.73753 5.97536 1.10139 7.71289-1.41016 1.73752-2.51155 1.10139-5.94606-1.41016-7.68359-0.10294-0.0711-0.20886-0.13728-0.3164-0.20118l-17.8125-11.42382c-0.9628-0.61887-2.04328-0.91688-3.10743-0.89258zm-115.99609 56.86133c-2.5699-0.0522-4.90764 1.71143-5.49609 4.3164-0.6725 2.97709 1.19673 5.94469 4.17383 6.61719l20.63085 4.63281c2.95441 0.7736 5.9608-0.98701 6.73438-3.9414 0.77359-2.95438-0.98897-5.98812-3.94336-6.76172-0.12105-0.0315-0.25013-0.0353-0.37305-0.0586l-20.63281-4.66211c-0.37213-0.0841-0.72662-0.13557-1.09375-0.14257zm-175.81836 4.86328c-1.77358 0.0406-3.48809 0.92659-4.51953 2.53125-1.65031 2.56747-0.92684 5.97664 1.64063 7.62695l17.8125 11.45117c2.51155 1.73752 5.94605 1.1014 7.68359-1.41015 1.73753-2.51154 1.13069-5.97341-1.38086-7.71094-0.10296-0.0711-0.20887-0.13727-0.31641-0.20117l-17.8125-11.42383c-0.9628-0.61887-2.04327-0.88758-3.10742-0.86328zm-92.83203 1.26562c-0.12498 0.005-0.24872 0.0155-0.37305 0.0293l-21.093747 1.61133c-3.043398 0.23043-5.322237 2.88433-5.091797 5.92773 0.23044 3.04339 2.884336 5.32418 5.927734 5.09375l21.0918-1.61133c3.05134-0.12713 5.42206-2.70451 5.29492-5.75586s-2.70451-5.42206-5.75586-5.29492zm382.97656 13.69727c-1.06506-0.006-2.1546 0.31383-3.10742 0.94922-0.104 0.0695-0.18811 0.12477-0.28711 0.20117l-17.20898 12.3457c-2.48039 1.77852-3.04414 5.23056-1.26563 7.71094 1.77852 2.48038 5.23251 3.0461 7.71289 1.26758l17.17774-12.34571c2.54086-1.6944 3.24908-5.11345 1.55469-7.65429-1.05901-1.58803-2.80108-2.46391-4.57618-2.47461zm-360.81836 37.12109c-0.54343-0.016-1.08941 0.0474-1.64062 0.20117-2.93984 0.82023-4.67569 3.88049-3.85547 6.82032l5.69727 20.37304c0.72046 2.96779 3.70798 4.7771 6.67578 4.05664 2.96779-0.72047 4.80639-3.70798 4.08593-6.67578-0.0296-0.12153-0.0774-0.22646-0.11523-0.3457l-5.69727-20.37305c-0.66643-2.38862-2.79551-3.98724-5.15039-4.05664zm305.71289 12.60352c-3.04913 0.13495-5.42987 2.73408-5.29492 5.7832l0.95117 21.12109c0.0315 3.05383 2.52821 5.50025 5.58204 5.46875 3.05383-0.0314 5.52759-2.52819 5.49609-5.58203-0.001-0.12509-0.0193-0.25029-0.0293-0.375l-0.94922-21.12109c-0.13494-3.04912-2.70673-5.42986-5.75586-5.29492zm-250.63671 42.07031c-2.56992-0.0522-4.90764 1.71145-5.4961 4.31641-0.6725 2.97709 1.19478 5.94467 4.17188 6.61718l20.63281 4.63477c2.95439 0.7736 5.98814-0.98897 6.76172-3.94336 0.7736-2.95439-0.98702-5.96078-3.94141-6.73438-0.12105-0.0315-0.25209-0.0626-0.375-0.0859l-20.63086-4.66016c-0.37213-0.0841-0.75591-0.13753-1.12304-0.14453zm192.9707 9.4375c-0.12499 0.005-0.25067 0.0155-0.375 0.0293l-21.0918 1.61132c-3.04341 0.23044-5.32419 2.88434-5.09375 5.92774 0.23042 3.0434 2.88435 5.32418 5.92774 5.09375l21.09375-1.61133c3.05134-0.12713 5.42206-2.70451 5.29492-5.75586s-2.70451-5.42206-5.75586-5.29492zm-111.07422 5.35352c-1.77358 0.0406-3.48614 0.92658-4.51758 2.53125-1.65031 2.56747-0.9288 5.97664 1.63867 7.62695l17.8125 11.45117c2.51156 1.73753 5.94607 1.10139 7.6836-1.41016s1.13069-5.9734-1.38086-7.71093c-0.10295-0.0711-0.20887-0.13728-0.31641-0.20118l-17.8125-11.42382c-0.96281-0.61887-2.04327-0.88758-3.10742-0.86328z"/>
</svg>
