<?xml version="1.0" encoding="UTF-8" standalone="no"?>
<svg xmlns:rdf="http://www.w3.org/1999/02/22-rdf-syntax-ns#" xmlns="http://www.w3.org/2000/svg" version="1.0" xmlns:cc="http://creativecommons.org/ns#" xmlns:dc="http://purl.org/dc/elements/1.1/" viewBox="0 0 576.44501 577.45154">
<path d="m64.571 0.06355556c-41.335 0-64.571 21.371-64.571 65.036v450.123c0 40.844 20.894 62.229 62.192 62.229h452.024c41.307 0 62.229-20.316 62.229-62.229v-450.123c0-42.601-20.922-65.036-63.522-65.036-0.003 0-448.494-0.143-448.352 0z"/>
<path style="color-rendering:auto;text-decoration-color:#000000;color:#000000;isolation:auto;mix-blend-mode:normal;shape-rendering:auto;solid-color:#000000;block-progression:tb;text-decoration-line:none;text-decoration-style:solid;image-rendering:auto;white-space:normal;text-indent:0;text-transform:none" d="m348.65538 140.08658 0.0879 22.99414 36 0.0723c4.29604 0.009 6.52402 6.04921-1.87305 8.39844-3.67876 1.01846-7.77702 5.39966-9.14844 10.82812-1.37143 5.42848-0.34599 10.84406 1.66016 15.85938 0.45699 1.14251 1.38832 4.76563 2.6914 9.65625l-163.44531 0.82617-9.6543-23.63086c10.37642-2.3595 35.80803-8.39382 39.36524-11.7793 4.11146-3.74454-0.00008-9.3789-3.18555-9.3789h-85.29883c1.05449 18.83009 15.80428 22.90176 23.7793 24.13672l9.43164 23.08789a10.265884 10.265884 0 0 0 -2.52344 3.05859l-28.60156 53.11914c-10.34598-4.17359-21.63284-6.47851-33.43945-6.47851-49.48192 0-89.867189 40.38722-89.867189 89.86914 0 49.48191 40.385269 89.86914 89.867189 89.86914 46.52578 0 85.00714-35.70641 89.43945-81.10547h21.49414c2.4255 4.40343 6.3964 8.0294 11.2793 10.32617l-9.00977 20.96875-16.1582 0.14844a6.2701806 6.2701806 0 1 0 0.11523 12.53906l36.26954-0.33203a6.2701806 6.2701806 0 1 0 -0.11524 -12.53906l-10.30469 0.0937 7.90625-18.40235c1.14029 0.13581 2.30151 0.21094 3.48243 0.21094 14.34916 0 26.07421-10.35553 26.07421-23.0293 0-1.59614-0.18724-3.15551-0.54101-4.66211l111.39647-75.58983c0.97046 3.36258 1.93286 6.693 2.8711 9.94727-20.52326 16.49755-33.70508 41.78949-33.70508 70.05468 0 49.48191 40.38528 89.86915 89.86719 89.86915s89.86914-40.38724 89.86914-89.86915c0-49.48192-40.38723-89.86914-89.86914-89.86914-12.14316 0-23.73526 2.43776-34.32032 6.83985-1.07987-3.73527-1.94371-6.69603-3.04882-10.51563-4.16655-14.40078-8.41166-29.02094-11.98633-40.96679-3.52158-11.76855-6.77988-19.01698-7.84766-24.23243-0.8322-4.06466 4.31629-3.71473 9.74219-8.23632 4.0976-3.41465 7.57314-9.18367 8.63672-15.05469 0.8866-5.16315-0.21021-10.34953-2.61133-14.59766-8.34163-12.74355-16.4793-12.5039-27.24609-12.5039-14.15753 0-37.52517-0.0005-37.52539 0zm35.26367 88.30859c1.87738 6.33695 3.83169 12.99393 5.89843 20.0957l-86.94921 59.00391a6.27042 6.27042 0 0 0 -4.20313 -11.04688l-36.26953 0.33204a6.27042 6.27042 0 1 0 0.11328 12.53906l10.23438-0.0937-7.67969 17.87695c-0.73554-0.15887-1.48024-0.29441-2.23828-0.39648l-39.82813-97.49805 160.92188-0.8125zm-185.17383 6.45703 40.61328 99.41797c-1.41852 1.41997-2.64211 2.99365-3.63477 4.68945h-22.12695c-3.36093-25.48785-17.48194-47.67033-37.62305-61.8164l22.77149-42.29102zm256.11719 50.07227c35.66288 0 64.29882 28.63592 64.29882 64.29882 0 35.66289-28.63594 64.30079-64.29882 64.30079-35.66289 0-64.29688-28.6379-64.29688-64.30079 0-16.41709 6.07918-31.33515 16.10742-42.66601 1.04401 3.52176 2.13295 7.20381 2.92188 9.78711 1.13699 3.72313 1.71276 5.80997 2.67383 8.17578l0.39843 0.98437 0.58399 0.89063c0.41756 0.66807 4.52182 12.21489 15.61328 21.72851l0.0918 0.0605 0.0625 0.0937c7.97118 6.60214 14.84492 8.96913 19.1875 10.34766 4.57343 1.40612 10.83142 0.68444 13.86132-4.01563 2.40421-3.44873 0.28721-10.42704-4.26562-13.73437-1.79248-1.25284-6.95726-5.35447-13.30078-10.90625-5.65769-5.05123-6.11716-8.91883-9.49024-14.85352 0.0862 0.19181-0.84849-2.4993-1.90625-5.96289-1.08568-3.55497-2.49835-8.30002-4.11718-13.82812-0.36239-1.23754-0.90446-3.12557-1.28711-4.4375 8.24175-3.82086 17.43679-5.96289 27.16211-5.96289zm-330.36133 1.50195c7.45353 0 14.59392 1.26586 21.23633 3.57031l-29.27149 54.36133a10.265884 10.265884 0 0 0 9.03711 15.13086h62.69531c-4.24247 31.47426-31.0103 55.53711-63.69726 55.53711-35.6629 0-64.296877-28.63789-64.296877-64.30078 0-35.6629 28.633977-64.29883 64.296877-64.29883zm39.29883 13.32617c12.28431 9.46365 21.00505 23.28257 23.91992 39.20703h-45.03125l21.11133-39.20703zm137.95312 8.49805-26.56836 18.0293 7.36524-17.14454 16.23047-0.14843a6.27042 6.27042 0 0 0 2.97265 -0.73633zm-25.50976 42.11719c-0.52168 8.10577-8.02808 14.46875-17.34375 14.46875-0.0924 0-0.18145-0.0105-0.27344-0.0117l2.33203-5.42969a10.265884 10.265884 0 0 0 4.45508 -1.67773l10.83008-7.34961zm-30.55274 9.12109h5.45899l-1.32813 3.09375c-1.55594-0.83808-2.95093-1.87894-4.13086-3.09375z" fill-rule="evenodd" fill="#fff"/>
</svg>
