<?xml version="1.0" encoding="UTF-8" standalone="no"?>
<svg xmlns:rdf="http://www.w3.org/1999/02/22-rdf-syntax-ns#" xmlns="http://www.w3.org/2000/svg" version="1.0" xmlns:cc="http://creativecommons.org/ns#" xmlns:dc="http://purl.org/dc/elements/1.1/" viewBox="0 0 576.44501 577.45154">
<defs>
<style type="text/css">.fil0 {fill:#EF7900}</style>
</defs>
<path d="m64.571 0.06355556c-41.335 0-64.571 21.371-64.571 65.036v450.123c0 40.844 20.894 62.229 62.192 62.229h452.024c41.307 0 62.229-20.316 62.229-62.229v-450.123c0-42.601-20.922-65.036-63.522-65.036-0.003 0-448.494-0.143-448.352 0z"/>
<path fill="#fff" d="m181.78055 87.904235c-31.72951 0-48.56131 17.322245-56.33189 37.598565l-41.24848 106.50728c-16.351648 2.09671-45.338153 21.29052-45.338153 57.65114v135.44277h40.149113v43.31533c0 53.29056 75.41699 52.66294 75.417 0v-43.31533h135.66267 0.0441 135.66259v43.31533c0 52.66294 75.41664 53.29056 75.41707 0v-43.31533h40.14905v-135.44277c0-36.36059-28.98631-55.55443-45.33824-57.65114l-41.29242-106.50728c-7.77055-20.27632-24.6022-37.598565-56.33195-37.598565h-58.31063-99.29555-59.01428zm-0.48373 38.785895h108.70605 0.0879 0.0441 108.74994c13.59772 0.12662 19.42144 8.63032 23.30669 20.40434l31.09022 83.81624h-163.14685-0.0441-0.0879-163.10303l31.09026-83.81624c3.8853-11.77402 9.70755-20.27772 23.30672-20.40434zm-63.36786 144.98534c19.24062 0 34.82814 16.05329 34.82814 35.88353-0.00001 19.83166-15.58752 35.92753-34.82814 35.92753-19.23921 0-34.828151-16.0959-34.828151-35.92753 0-19.83019 15.588941-35.88353 34.828151-35.88353zm344.36767 0c19.24063 0 34.82828 16.05334 34.82815 35.88353 0 19.83163-15.58752 35.92753-34.82815 35.92753-19.23919 0-34.8722-16.09587-34.8722-35.92753 0-19.83024 15.63301-35.88353 34.8722-35.88353z"/>
</svg>
