<?xml version="1.0" encoding="UTF-8" standalone="no"?>
<svg xmlns:rdf="http://www.w3.org/1999/02/22-rdf-syntax-ns#" xmlns="http://www.w3.org/2000/svg" version="1.0" xmlns:cc="http://creativecommons.org/ns#" xmlns:dc="http://purl.org/dc/elements/1.1/" viewBox="0 0 576.44501 577.45154">
<path d="m64.571 0.06355556c-41.335 0-64.571 21.371-64.571 65.036v450.123c0 40.844 20.895 62.229 62.192 62.229h452.024c41.307 0 62.229-20.315 62.229-62.229v-450.123c0-42.601-20.922-65.036-63.521-65.036-0.004 0-448.495-0.143-448.353 0z"/>
<path style="color-rendering:auto;text-decoration-color:#000000;color:#000000;isolation:auto;mix-blend-mode:normal;shape-rendering:auto;solid-color:#000000;block-progression:tb;text-decoration-line:none;image-rendering:auto;white-space:normal;text-indent:0;text-transform:none;text-decoration-style:solid" fill-rule="evenodd" fill="#fff" d="m335.22569 99.213526-0.95313 0.2168c-3.36666 0.758884-6.78516 1.452164-10.25781 2.080074l-62.78516-0.59375c-1.21675-0.24057-2.4091-0.47184-3.60742-0.73437l-1.05273-0.232424-0.94727 0.517584c-58.898 32.13936-119.28657 28.37781-190.57617 66.54687l-1.916016 1.02539 0.455078 2.12305c6.421378 30.00631 16.083192 59.83849 36.798828 88.08203l1.34961 1.83789 2.09961-0.88672c20.52322-8.65633 39.92484-17.88793 64.82812-17.87305l0.75586 224.96875 2.48438 0.3418c76.883 10.57357 155.86261 18.08187 249.00195 0.73438l2.33985-0.4375 1.50976-226.21485c16.32602 0.71666 33.03713 4.02166 50.50781 11.53906l0.0371 0.0156c4.13867 1.78206 8.31487 3.79072 12.53907 6.05469l2.07421 1.11328 1.50586-1.8086c19.78236-23.74314 31.59495-53.10966 36.9375-86.86328l0.33008-2.08203-1.88281-0.94726c-3.35919-1.68935-6.6984-3.28649-10.02344-4.82813l-0.10547-0.0488c-60.28064-27.92511-116.97049-33.96079-180.55858-63.236304z"/>
</svg>
