<?xml version="1.0" encoding="UTF-8" standalone="no"?>
<svg xmlns:rdf="http://www.w3.org/1999/02/22-rdf-syntax-ns#" xmlns="http://www.w3.org/2000/svg" version="1.0" xmlns:cc="http://creativecommons.org/ns#" xmlns:dc="http://purl.org/dc/elements/1.1/" viewBox="0 0 576.44501 577.45154">
<path d="m64.571 0.06355556c-41.335 0-64.571 21.371-64.571 65.036v450.123c0 40.844 20.895 62.229 62.192 62.229h452.024c41.307 0 62.229-20.315 62.229-62.229v-450.123c0-42.601-20.922-65.036-63.521-65.036-0.004 0-448.495-0.143-448.353 0z"/>
<path d="m127.12891 79.269531c-8.87936 0-16.02735 7.147975-16.02735 16.027344v232.10156c0 8.87937 7.14799 16.02734 16.02735 16.02734h326.05273c8.87937 0 16.02734-7.14797 16.02734-16.02734v-232.10156c0-8.879369-7.14797-16.027344-16.02734-16.027344h-326.05273zm-10.9668 287.14844c-9.54483 0-12.92889 8.71684-17.228516 17.24805l-46.714844 92.6875c-4.299636 8.53122 7.68564 17.25 17.230469 17.25h441.41211c9.54484 0 21.53012-8.71878 17.23047-17.25l-46.71485-92.6875c-4.29965-8.53121-7.68367-17.24805-17.22851-17.24805h-347.98633z"/>
<path style="color-rendering:auto;text-decoration-color:#000000;color:#000000;isolation:auto;mix-blend-mode:normal;shape-rendering:auto;solid-color:#000000;block-progression:tb;text-decoration-line:none;image-rendering:auto;white-space:normal;text-indent:0;text-transform:none;text-decoration-style:solid" fill="#fff" d="m127.12998 63.09829c-17.55892 0-32.199214 14.640292-32.199214 32.199219v232.10157c0 9.82745 4.588064 18.73772 11.705074 24.68164-5.80392 2.17073-10.756678 5.97304-13.707028 9.68945-4.479837 5.64304-6.526252 10.81729-8.447265 14.62891l-46.705078 92.67578c-2.931907 5.81739-3.177798 13.14384-1.347657 18.66992 1.830143 5.52607 5.015999 9.49896 8.447266 12.54883 6.862535 6.0998 14.851183 9.48828 24.546875 9.48828h441.46485c9.69569 0 17.68433-3.38848 24.54687-9.48828 3.43126-3.04978 6.61712-7.02276 8.44727-12.54883 1.8303-5.52611 1.58427-12.85253-1.34766-18.66992l-46.70508-92.67578c-1.921-3.81162-3.96744-8.98587-8.44726-14.62891-2.95036-3.71641-7.90312-7.51872-13.70703-9.68945 7.11701-5.94392 11.70507-14.85419 11.70507-24.68164v-232.10157c0-17.558927-14.64029-32.199219-32.19921-32.199219h-326.05079zm0.14454 32.34375h325.76171v231.8125h-325.76171v-231.8125zm96.82812 13.01758v162.75l45.37695-39.26758 39.06055 67.6543 34.16406-19.72461-38.79101-67.1875 51.53125-17.99609-131.3418-86.22852zm-106.19922 274.1211h344.50391c0.7785 1.14068 2.3279 4.01861 4.52929 8.38672l0.83204 1.65234h-355.22657l0.83203-1.65234c2.2015-4.36809 3.75094-7.24604 4.5293-8.38672zm-9.4375 18.125h363.37891l6.55859 13.01562h-376.49609l6.55859-13.01562zm-10.632811 21.10156h384.64453l7.97461 15.82617h-400.59375l7.974609-15.82617zm-12.048828 23.91211h408.74219l15.99414 31.74219h-440.73047l15.99414-31.74219z"/>
</svg>
