<?xml version="1.0" encoding="UTF-8" standalone="no"?>
<!-- Created with Inkscape (http://www.inkscape.org/) -->

<svg
   xmlns:dc="http://purl.org/dc/elements/1.1/"
   xmlns:cc="http://creativecommons.org/ns#"
   xmlns:rdf="http://www.w3.org/1999/02/22-rdf-syntax-ns#"
   xmlns:svg="http://www.w3.org/2000/svg"
   xmlns="http://www.w3.org/2000/svg"
   xmlns:sodipodi="http://sodipodi.sourceforge.net/DTD/sodipodi-0.dtd"
   xmlns:inkscape="http://www.inkscape.org/namespaces/inkscape"
   version="1.0"
   width="580"
   height="580"
   id="svg2"
   sodipodi:version="0.32"
   inkscape:version="0.91 r"
   sodipodi:docname="convenience.svg"
   inkscape:output_extension="org.inkscape.output.svg.inkscape">
  <metadata
     id="metadata2975">
    <rdf:RDF>
      <cc:Work
         rdf:about="">
        <dc:format>image/svg+xml</dc:format>
        <dc:type
           rdf:resource="http://purl.org/dc/dcmitype/StillImage" />
        <cc:license
           rdf:resource="http://web.resource.org/cc/PublicDomain" />
        <dc:language>en</dc:language>
      </cc:Work>
    </rdf:RDF>
  </metadata>
  <sodipodi:namedview
     inkscape:window-height="783"
     inkscape:window-width="1103"
     inkscape:pageshadow="2"
     inkscape:pageopacity="0.0"
     guidetolerance="10.0"
     gridtolerance="10.0"
     objecttolerance="10.0"
     borderopacity="1.0"
     bordercolor="#666666"
     pagecolor="#ffffff"
     id="base"
     inkscape:zoom="0.55761466"
     inkscape:cx="496.06586"
     inkscape:cy="377.23693"
     inkscape:window-x="91"
     inkscape:window-y="88"
     inkscape:current-layer="svg2"
     showgrid="false" />
  <defs
     id="defs4" />
  <path
     inkscape:connector-curvature="0"
     id="path1329"
     style="stroke:none;stroke-width:3.40799999"
     d="M 66.275,1.768 C 24.94,1.768 1.704,23.139 1.704,66.804 l 0,450.123 c 0,40.844 20.895,62.229 62.192,62.229 l 452.024,0 c 41.307,0 62.229,-20.315 62.229,-62.229 l 0,-450.123 c 0,-42.601 -20.922,-65.036 -63.521,-65.036 -0.004,0 -448.495,-0.143 -448.353,0 z" />
  <path
     style="color:#000000;font-style:normal;font-variant:normal;font-weight:normal;font-stretch:normal;font-size:medium;line-height:normal;font-family:sans-serif;text-indent:0;text-align:start;text-decoration:none;text-decoration-line:none;text-decoration-style:solid;text-decoration-color:#000000;letter-spacing:normal;word-spacing:normal;text-transform:none;direction:ltr;block-progression:tb;writing-mode:lr-tb;baseline-shift:baseline;text-anchor:start;white-space:normal;clip-rule:nonzero;display:inline;overflow:visible;visibility:visible;opacity:1;isolation:auto;mix-blend-mode:normal;color-interpolation:sRGB;color-interpolation-filters:linearRGB;solid-color:#000000;solid-opacity:1;fill:#ffffff;fill-opacity:1;fill-rule:evenodd;stroke:none;stroke-width:28.1733551;stroke-linecap:round;stroke-linejoin:round;stroke-miterlimit:4;stroke-dasharray:none;stroke-dashoffset:0;stroke-opacity:1;color-rendering:auto;image-rendering:auto;shape-rendering:auto;text-rendering:auto;enable-background:accumulate"
     d="M 340.4043 68.568359 A 10.001 10.001 0 0 0 331.4707 75.072266 L 278.84766 216.49023 L 80.197266 216.49023 A 14.088086 14.088086 0 0 0 66.482422 233.79297 L 116.15039 445.61914 A 14.088086 14.088086 0 0 0 129.92578 456.48828 L 459.45703 455.03125 A 14.088086 14.088086 0 0 0 473.10547 444.18164 L 522.7793 233.81445 A 14.088086 14.088086 0 0 0 509.06836 216.49023 L 318.02734 216.49023 L 365.88477 87.876953 A 10.001 10.001 0 0 0 360 75.017578 L 344.33008 69.1875 A 10.001 10.001 0 0 0 340.4043 68.568359 z M 97.96875 244.66406 L 150.67773 244.66406 L 150.67773 299.60938 L 110.85156 299.60938 L 97.96875 244.66406 z M 169.45898 244.66406 L 237.76172 244.66406 L 237.76172 299.60938 L 169.45898 299.60938 L 169.45898 244.66406 z M 256.54297 244.66406 L 328.8457 244.66406 L 328.8457 299.60938 L 256.54297 299.60938 L 256.54297 244.66406 z M 347.62695 244.66406 L 417.92969 244.66406 L 417.92969 299.60938 L 347.62695 299.60938 L 347.62695 244.66406 z M 436.71094 244.66406 L 491.26953 244.66406 L 478.29492 299.60938 L 436.71094 299.60938 L 436.71094 244.66406 z M 115.25586 318.39258 L 150.67773 318.39258 L 150.67773 378.69336 L 129.39453 378.69336 L 115.25586 318.39258 z M 169.45898 318.39258 L 237.76172 318.39258 L 237.76172 378.69336 L 169.45898 378.69336 L 169.45898 318.39258 z M 256.54297 318.39258 L 328.8457 318.39258 L 328.8457 378.69336 L 256.54297 378.69336 L 256.54297 318.39258 z M 347.62695 318.39258 L 417.92969 318.39258 L 417.92969 378.69336 L 347.62695 378.69336 L 347.62695 318.39258 z M 436.71094 318.39258 L 473.85938 318.39258 L 459.62109 378.69336 L 436.71094 378.69336 L 436.71094 318.39258 z M 133.79883 397.47656 L 150.67773 397.47656 L 150.67773 428.22266 L 141.01758 428.26562 L 133.79883 397.47656 z M 169.45898 397.47656 L 237.76172 397.47656 L 237.76172 427.83789 L 169.45898 428.14062 L 169.45898 397.47656 z M 256.54297 397.47656 L 328.8457 397.47656 L 328.8457 427.43555 L 256.54297 427.75586 L 256.54297 397.47656 z M 347.62695 397.47656 L 417.92969 397.47656 L 417.92969 427.04102 L 347.62695 427.35156 L 347.62695 397.47656 z M 436.71094 397.47656 L 455.18555 397.47656 L 448.23633 426.90625 L 436.71094 426.95703 L 436.71094 397.47656 z "
     id="path3264" />
  <path
     id="path8826"
     d="m 962.69784,68.568359 a 10.001,10.001 0 0 0 -8.9336,6.503907 l -52.62304,141.417964 -198.65039,0 a 14.088086,14.088086 0 0 0 -13.71485,17.30274 l 49.66797,211.82617 a 14.088086,14.088086 0 0 0 13.77539,10.86914 l 329.53128,-1.45703 a 14.088086,14.088086 0 0 0 13.6484,-10.84961 l 49.6738,-210.36719 a 14.088086,14.088086 0 0 0 -13.7109,-17.32422 l -191.04102,0 47.85743,-128.613277 A 10.001,10.001 0 0 0 982.29354,75.017578 L 966.62362,69.1875 a 10.001,10.001 0 0 0 -3.92578,-0.619141 z m -242.43555,176.095701 52.70898,0 0,54.94532 -39.82617,0 -12.88281,-54.94532 z m 71.49023,0 68.30274,0 0,54.94532 -68.30274,0 0,-54.94532 z m 87.08399,0 72.30273,0 0,54.94532 -72.30273,0 0,-54.94532 z m 91.08398,0 70.30271,0 0,54.94532 -70.30271,0 0,-54.94532 z m 89.08401,0 54.5586,0 -12.9746,54.94532 -41.584,0 0,-54.94532 z m -321.4551,73.72852 35.42187,0 0,60.30078 -21.2832,0 -14.13867,-60.30078 z m 54.20312,0 68.30274,0 0,60.30078 -68.30274,0 0,-60.30078 z m 87.08399,0 72.30273,0 0,60.30078 -72.30273,0 0,-60.30078 z m 91.08398,0 70.30271,0 0,60.30078 -70.30271,0 0,-60.30078 z m 89.08401,0 37.1484,0 -14.2383,60.30078 -22.9101,0 0,-60.30078 z m -302.91213,79.08398 16.8789,0 0,30.7461 -9.66015,0.043 -7.21875,-30.78906 z m 35.66015,0 68.30274,0 0,30.36133 -68.30274,0.30273 0,-30.66406 z m 87.08399,0 72.30273,0 0,29.95899 -72.30273,0.32031 0,-30.2793 z m 91.08398,0 70.30271,0 0,29.56446 -70.30271,0.31054 0,-29.875 z m 89.08401,0 18.4746,0 -6.9492,29.42969 -11.5254,0.0508 0,-29.48047 z"
     style="color:#000000;font-style:normal;font-variant:normal;font-weight:normal;font-stretch:normal;font-size:medium;line-height:normal;font-family:sans-serif;text-indent:0;text-align:start;text-decoration:none;text-decoration-line:none;text-decoration-style:solid;text-decoration-color:#000000;letter-spacing:normal;word-spacing:normal;text-transform:none;direction:ltr;block-progression:tb;writing-mode:lr-tb;baseline-shift:baseline;text-anchor:start;white-space:normal;clip-rule:nonzero;display:inline;overflow:visible;visibility:visible;opacity:1;isolation:auto;mix-blend-mode:normal;color-interpolation:sRGB;color-interpolation-filters:linearRGB;solid-color:#000000;solid-opacity:1;fill-opacity:1;fill-rule:evenodd;stroke:none;stroke-width:28.1733551;stroke-linecap:round;stroke-linejoin:round;stroke-miterlimit:4;stroke-dasharray:none;stroke-dashoffset:0;stroke-opacity:1;color-rendering:auto;image-rendering:auto;shape-rendering:auto;text-rendering:auto;enable-background:accumulate"
     inkscape:connector-curvature="0" />
</svg>
