<?xml version="1.0" encoding="UTF-8" standalone="no"?>
<svg xmlns:rdf="http://www.w3.org/1999/02/22-rdf-syntax-ns#" xmlns="http://www.w3.org/2000/svg" version="1.0" xmlns:cc="http://creativecommons.org/ns#" xmlns:xlink="http://www.w3.org/1999/xlink" viewBox="0 0 576.44501 577.45154" xmlns:dc="http://purl.org/dc/elements/1.1/">
<path d="m64.571 0.06355556c-41.335 0-64.571 21.371-64.571 65.036v450.123c0 40.844 20.895 62.229 62.192 62.229h452.024c41.307 0 62.229-20.315 62.229-62.229v-450.123c0-42.601-20.922-65.036-63.521-65.036-0.004 0-448.495-0.143-448.353 0z"/>
<path opacity=".1" d="m366.93077 68.688134-36.92774 44.312506 110.7832 132.9375 110.78125-132.9375-36.92773-44.312506h-147.70898z" fill="#fff"/>
<path fill="#fff" d="m192.51475 28.049462-0.58008 0.13086c-2.04833 0.461718-4.12968 0.881511-6.24414 1.263672l-38.14844-0.357422c-0.7468-0.147519-1.47914-0.29042-2.21289-0.451172l-0.64062-0.138672-0.57422 0.3125c-35.81129 19.541443-72.529357 17.255257-115.875 40.46289l-1.164062 0.623047 0.275391 1.291016c3.904313 18.24439 9.779392 36.381929 22.375 53.554689l0.818359 1.11914 1.277344-0.53906c12.478879-5.26337 24.27744-10.87656 39.419921-10.86719l0.457032 136.78711 1.511718 0.20703c46.746568 6.42897 94.767688 10.99297 151.39844 0.44532l1.42188-0.26563 0.91796-137.54297c9.92707 0.43567 20.08761 2.44437 30.71094 7.01563l0.0215 0.01c2.51654 1.08361 5.057 2.30532 7.625 3.68164l1.25976 0.67579 0.91602-1.09961c12.02813-14.43638 19.21059-32.293464 22.45898-52.816415l0.20117-1.265625-1.14453-0.576172c-2.04314-1.027495-4.07388-1.996203-6.0957-2.933593l-0.0625-0.0293c-36.65173-16.979291-71.12051-20.649421-109.78321-38.449456l-0.54102-0.248047zm174.41602 33.253906a7.3862061 7.3862061 0 0 0 -5.67383 2.65625l-36.92774 44.312502a7.3862061 7.3862061 0 0 0 -0.0723 0.0957 7.3862061 7.3862061 0 0 0 -0.1543 0.20507 7.3862061 7.3862061 0 0 0 -0.27148 0.37891 7.3862061 7.3862061 0 0 0 -0.16407 0.27148 7.3862061 7.3862061 0 0 0 -0.20507 0.35938 7.3862061 7.3862061 0 0 0 -0.14844 0.31055 7.3862061 7.3862061 0 0 0 -0.1582 0.35546 7.3862061 7.3862061 0 0 0 -0.11524 0.31641 7.3862061 7.3862061 0 0 0 -0.12891 0.39258 7.3862061 7.3862061 0 0 0 -0.0723 0.2832 7.3862061 7.3862061 0 0 0 -0.0977 0.4375 7.3862061 7.3862061 0 0 0 -0.043 0.29883 7.3862061 7.3862061 0 0 0 -0.0508 0.42969 7.3862061 7.3862061 0 0 0 -0.0156 0.30859 7.3862061 7.3862061 0 0 0 -0.008 0.42383 7.3862061 7.3862061 0 0 0 0.0176 0.33398 7.3862061 7.3862061 0 0 0 0.0332 0.39844 7.3862061 7.3862061 0 0 0 0.0605 0.38672 7.3862061 7.3862061 0 0 0 0.0566 0.31641 7.3862061 7.3862061 0 0 0 0.10938 0.42382 7.3862061 7.3862061 0 0 0 0.084 0.29297 7.3862061 7.3862061 0 0 0 0.16211 0.4336 7.3862061 7.3862061 0 0 0 0.0977 0.24219 7.3862061 7.3862061 0 0 0 0.19922 0.41015 7.3862061 7.3862061 0 0 0 0.13867 0.26563 7.3862061 7.3862061 0 0 0 0.21484 0.3457 7.3862061 7.3862061 0 0 0 0.18164 0.2793 7.3862061 7.3862061 0 0 0 0.34961 0.46093l110.72461 132.86914a7.3862061 7.3862061 0 0 0 0.0137 0.0156l0.0449 0.0527a7.3862061 7.3862061 0 0 0 0.1582 0.17188 7.3862061 7.3862061 0 0 0 0.32227 0.34961 7.3862061 7.3862061 0 0 0 0.1914 0.17383 7.3862061 7.3862061 0 0 0 0.35938 0.31836 7.3862061 7.3862061 0 0 0 0.19336 0.14453 7.3862061 7.3862061 0 0 0 0.4082 0.29297 7.3862061 7.3862061 0 0 0 0.20312 0.12109 7.3862061 7.3862061 0 0 0 0.42383 0.24609 7.3862061 7.3862061 0 0 0 0.24024 0.11328 7.3862061 7.3862061 0 0 0 0.44336 0.20118 7.3862061 7.3862061 0 0 0 0.17968 0.0625 7.3862061 7.3862061 0 0 0 0.51758 0.17382 7.3862061 7.3862061 0 0 0 0.20117 0.0488 7.3862061 7.3862061 0 0 0 0.51368 0.11914 7.3862061 7.3862061 0 0 0 0.19726 0.0274 7.3862061 7.3862061 0 0 0 0.55078 0.0684 7.3862061 7.3862061 0 0 0 0.0918 0.004 7.3862061 7.3862061 0 0 0 0.64258 0.0176 7.3862061 7.3862061 0 0 0 0.13867 -0.01 7.3862061 7.3862061 0 0 0 0.5918 -0.043 7.3862061 7.3862061 0 0 0 0.14257 -0.0234 7.3862061 7.3862061 0 0 0 0.60157 -0.10742 7.3862061 7.3862061 0 0 0 0.002 0 7.3862061 7.3862061 0 0 0 0.0254 -0.008 7.3862061 7.3862061 0 0 0 0.66211 -0.18554 7.3862061 7.3862061 0 0 0 0.20898 -0.0781 7.3862061 7.3862061 0 0 0 0.47461 -0.1875 7.3862061 7.3862061 0 0 0 0.22461 -0.11133 7.3862061 7.3862061 0 0 0 0.43555 -0.2246 7.3862061 7.3862061 0 0 0 0.2207 -0.13868 7.3862061 7.3862061 0 0 0 0.39063 -0.25195 7.3862061 7.3862061 0 0 0 0.23828 -0.18555 7.3862061 7.3862061 0 0 0 0.35156 -0.28125 7.3862061 7.3862061 0 0 0 0.14258 -0.13476 7.3862061 7.3862061 0 0 0 0.39453 -0.38867 7.3862061 7.3862061 0 0 0 0.01 -0.01 7.3862061 7.3862061 0 0 0 0.25195 -0.28516l110.7832-132.9375a7.3862061 7.3862061 0 0 0 0.0723 -0.0957 7.3862061 7.3862061 0 0 0 0.1543 -0.20508 7.3862061 7.3862061 0 0 0 0.27148 -0.3789 7.3862061 7.3862061 0 0 0 0.16406 -0.27149 7.3862061 7.3862061 0 0 0 0.20508 -0.35937 7.3862061 7.3862061 0 0 0 0.14844 -0.31055 7.3862061 7.3862061 0 0 0 0.1582 -0.35547 7.3862061 7.3862061 0 0 0 0.11524 -0.31641 7.3862061 7.3862061 0 0 0 0.1289 -0.39257 7.3862061 7.3862061 0 0 0 0.0723 -0.28321 7.3862061 7.3862061 0 0 0 0.0976 -0.4375 7.3862061 7.3862061 0 0 0 0.043 -0.29882 7.3862061 7.3862061 0 0 0 0.0508 -0.42969 7.3862061 7.3862061 0 0 0 0.0156 -0.3086 7.3862061 7.3862061 0 0 0 0.008 -0.42382 7.3862061 7.3862061 0 0 0 -0.0176 -0.33399 7.3862061 7.3862061 0 0 0 -0.0332 -0.39844 7.3862061 7.3862061 0 0 0 -0.0606 -0.38671 7.3862061 7.3862061 0 0 0 -0.0566 -0.31641 7.3862061 7.3862061 0 0 0 -0.10937 -0.42383 7.3862061 7.3862061 0 0 0 -0.084 -0.29297 7.3862061 7.3862061 0 0 0 -0.16211 -0.43359 7.3862061 7.3862061 0 0 0 -0.0976 -0.24219 7.3862061 7.3862061 0 0 0 -0.19922 -0.41016 7.3862061 7.3862061 0 0 0 -0.13867 -0.26562 7.3862061 7.3862061 0 0 0 -0.21485 -0.3457 7.3862061 7.3862061 0 0 0 -0.18164 -0.2793 7.3862061 7.3862061 0 0 0 -0.34961 -0.46094l-36.92791-44.312002a7.3862061 7.3862061 0 0 0 -5.67383 -2.65625h-147.70898zm3.45898 14.769532h13.1582l8.61719 29.54297h-46.39453l24.61914-29.54297zm28.54492 0h83.70117l-8.61718 29.54297h-66.46875l-8.61524-29.54297zm99.08789 0h13.15821l24.61914 29.54297h-46.39453l8.61718-29.54297zm-152.25195 44.3125h50.70117l27.30078 93.60547-78.00195-93.60547zm66.08789 0h57.85352l-28.92774 99.17578-28.92578-99.17578zm73.24023 0h50.70118l-78.00196 93.60352 27.30078-93.60352zm-125.93359 154.03907c-2.72754-0.0295-5.58509 0.056-8.58008 0.26562 0 0 12.26884 61.13955 65.5 47.98438 0.006 0.0363-1.45985-47.65101-56.91992-48.25zm-174.41602 3.38281a2.7457956 2.7457956 0 0 0 -1.23242 0.25195l-127.88086 59.08789a2.7457956 2.7457956 0 0 0 -1.033203 4.1543l114.99609 151.06641a2.7457956 2.7457956 0 0 0 3.38086 0.80859l124.77539-60.375a2.7457956 2.7457956 0 0 0 1.00391 -4.11524l-111.89062-149.77734a2.7457956 2.7457956 0 0 0 -2.11915 -1.10156zm246.02149 5.05859c-0.26461 0.00048-0.52529 0.0126-0.78125 0.0371-0.68255 0.0655-1.33241 0.21966-1.94336 0.48828-1.2219 0.53725-2.17511 1.7527-2.37891 3.23828-0.2038 1.48559 0.14801 3.20399 1.00782 5.36914 1.52153 3.83151 2.80294 10.80002 3.76757 18.94336 0.96464 8.14335 1.64753 17.50596 2.12696 26.35938 0.95885 17.70685 1.10742 33.37695 1.10742 33.37695l2.61914 0.22852 14.95117-80.07227-0.80859-0.46875s-7.13241-4.13486-13.62891-6.25195c-2.13166-0.69467-4.18677-1.25137-6.03906-1.24805zm88.51758 12.01758c-56.20605 0.57701-62.22586 50.68227-62.2168 50.64258 60.67153 20.86045 81.32031-49.12109 81.32031-49.12109-6.93744-1.11072-13.28909-1.58118-19.10351-1.52149zm-476.45508 56.97852a2.7457956 2.7457956 0 0 0 -2.794921 2.52148l-4.300782 52.72852a2.7457956 2.7457956 0 0 0 0.554688 1.89062l114.06836 149.13281a2.7457956 2.7457956 0 0 0 4.92188 -1.49804l3.25781-53.06836a2.7457956 2.7457956 0 0 0 -0.55273 -1.83008l-113.02735-148.79297a2.7457956 2.7457956 0 0 0 -2.126953 -1.08398zm353.10547 14.48242c-32.18608 0-58.28516 25.9855-58.28516 58.11523 0 1.24008 0.00081 2.25574 0.16992 3.43946h0.28125c0.90191 12.45732 4.90519 28.18362 14.375 47.57421 0 0 16.40255 31.17082 29.36719 45.48829l1.1836 1.12695c6.36959 6.42593 15.1624 10.37305 24.91406 10.37305 11.83726 0 22.32181-5.75012 28.6914-14.65625h0.16993c6.36957 8.90613 16.85408 14.65625 28.6914 14.65625 9.63888 0 18.54426-4.00348 24.85742-10.37305l1.1836-1.12695c13.07736-14.31747 29.36719-45.48829 29.36719-45.48829 9.46985-19.39059 13.47169-35.00416 14.48632-47.57421h0.11328c0.0563-1.24011 0.0566-2.25574 0.0566-3.43946 0-32.12973-26.09849-58.11523-58.17187-58.11523-15.8957 0-30.21285 6.25721-40.69727 16.6289-10.59717-10.37169-24.91453-16.6289-40.7539-16.6289z"/>
<path opacity=".75" style="color-rendering:auto;text-decoration-color:#000000;color:#000000;isolation:auto;mix-blend-mode:normal;shape-rendering:auto;solid-color:#000000;block-progression:tb;text-decoration-line:none;text-decoration-style:solid;image-rendering:auto;white-space:normal;text-indent:0;text-transform:none" d="m293.74327 454.21353a4.5243395 4.5243395 0 0 0 -2.17774 0.46289l-117.69336 58.12109a4.5243395 4.5243395 0 0 0 -2.49023 3.5293l-0.20313 1.73828a4.5243395 4.5243395 0 0 0 6.4961 4.58203l117.5957-58.07812a4.5243395 4.5243395 0 0 0 2.45703 -3.29883l0.30274-1.7793a4.5243395 4.5243395 0 0 0 -4.28711 -5.27734zm-2.45704 31.95508a4.5243395 4.5243395 0 0 0 -2.0039 0.46875l-117.69531 58.11914a4.5243395 4.5243395 0 0 0 -2.49024 3.52929l-0.20312 1.74024a4.5243395 4.5243395 0 0 0 6.49609 4.58203l117.59766-58.08008a4.5243395 4.5243395 0 0 0 2.45703 -3.29883l0.30078-1.77929a4.5243395 4.5243395 0 0 0 -4.45899 -5.28125z" fill-rule="evenodd" fill="#fff"/>
</svg>
