<?xml version="1.0" encoding="UTF-8" standalone="no"?>
<svg xmlns:rdf="http://www.w3.org/1999/02/22-rdf-syntax-ns#" xmlns="http://www.w3.org/2000/svg" version="1.0" xmlns:cc="http://creativecommons.org/ns#" xmlns:dc="http://purl.org/dc/elements/1.1/" viewBox="0 0 576.44501 577.45154">
<path d="m64.571 0.06355556c-41.335 0-64.571 21.371-64.571 65.036v450.123c0 40.844 20.895 62.229 62.192 62.229h452.024c41.307 0 62.229-20.315 62.229-62.229v-450.123c0-42.601-20.922-65.036-63.521-65.036-0.004 0-448.495-0.143-448.353 0z"/>
<path fill="#fff" d="m268.1085 155.20181c-0.15546 0.005-0.29133 0.0483-0.40625 0.0937-1.83885 0.72673-11.61278 11.52372-21.71875 24.03125l-18.40625 22.71875-13.3125 1c-60.88649 7.37704-110.52369 32.32203-156.21875 72.43755-9.473377 10.01154-45.169712 43.25591-42.96875 51.3125 0.757264 0.80633 9.243501-0.20656 18.59375 1 17.522851 2.26116 44.374646 5.68792 44.21875 9.34375-0.081 1.89967-15.14824 3.72011-42.6875 7.21875-23.609522 2.99938-23.394489 7.96828 0.6875 16.46875 28.827159 10.17546 66.7182 16.52096 127.96875 12.0625 0.70164 0.008 1.39835 0.00026 2.09766 0 15.83053 15.40393 36.24869 29.55237 52.17578 30.58594 41.81324 2.7134 28.77677-17.72912 26.99609-43.67578 15.82732-4.32298 31.59818-9.00436 47.69922-12.84766 3.01088-0.15275 11.86577-2.66717 19.625-5.65625 46.74849-13.36096 85.19379-26.47493 123.4375-22.53125 35.33735 1.80976 58.86979 25.81775 86.75 43.125 1.15179 0.0271 8.26214 4.62486 15.75 10.21875 20.37576 15.22193 25.5543 13.06257 17.5625-7.25-6.56447-16.68472-17.35307-54.69539-17.125-60.375 6.14008-18.82794 12.4329-41.81946 20.6875-59.9375 4.71676-8.30914 5.5844-16.72287 1.78125-16.8125-0.62898-0.0148-3.28268 0.9627-6 2.21875s-9.79933 4.50695-15.59375 7.125c-5.79439 2.61808-12.84878 6.71253-15.6875 9.1875-16.9137 11.08744-35.23493 16.46493-55.8125 15.59375-22.99896-4.60716-52.80073-8.21915-75.78125-23.90625-35.32212-18.99281-38.36301-20.47864-53.03125-25.65625-7.97472-2.81494-14.82009-5.47486-15.1875-5.875-0.36739-0.40013 1.62401-2.7891 4.40625-5.34375s4.83085-5.96656 4.53125-7.53125c-0.29967-1.5647-8.72368-5.85337-18.6875-9.65625-11.60792-4.43038-22.64946-11.07671-30.75-18.4375-6.51866-5.92336-13.26178-10.3259-15.59375-10.25zm-185.71875 132.875c5.093346 0 9.21875 4.1254 9.21875 9.21875s-4.125404 9.21875-9.21875 9.21875-9.21875-4.1254-9.21875-9.21875 4.125404-9.21875 9.21875-9.21875z"/>
</svg>
