<?xml version="1.0" encoding="UTF-8" standalone="no"?>
<svg xmlns:rdf="http://www.w3.org/1999/02/22-rdf-syntax-ns#" xmlns="http://www.w3.org/2000/svg" version="1.0" xmlns:cc="http://creativecommons.org/ns#" xmlns:dc="http://purl.org/dc/elements/1.1/" viewBox="0 0 576.44501 577.45154">
<path d="m64.571 0.06355556c-41.335 0-64.571 21.371-64.571 65.036v450.123c0 40.844 20.895 62.229 62.192 62.229h452.024c41.307 0 62.229-20.315 62.229-62.229v-450.123c0-42.601-20.922-65.036-63.521-65.036-0.004 0-448.495-0.143-448.353 0z"/>
<path fill="#fff" d="m238.5792 49.750634c-8.49162-0.216306-16.46317 3.800853-21.76562 14.240234-30.06173-5.076401-37.22193 33.508334-25.90625 55.482422 8.60569 16.71148 37.56556 46.04151 61.20312 53.86133a41.614659 40.909326 0 0 0 -7.1289 9.01758c-13.80257-20.7341-50.74835-40.66535-69.42578-44.25-24.27348-4.65861-58.75498 10.40011-45.57813 38.70703-22.54783 20.52005 3.39253 49.96636 27.66602 54.625 19.4789 3.73847 64.01762-1.67482 83.41015-17.26953a41.614659 40.909326 0 0 0 4.07422 9.24805c-24.61533-1.96752-65.12195 29.41286-77.11719 47.33008-13.7502 20.53866-13.32124 58.16171 17.88282 57.05859 10.11018 28.76215 47.33767 16.34918 61.08789-4.18945 11.06839-16.5328 23.48532-59.87435 16.54101-83.76563a41.614659 40.909326 0 0 0 10.2793 3.17774c-9.16142 23.07947-6.98208 62.32904-0.64648 79.42773 8.58767 23.17665 39.32994 44.87281 56.71874 18.93945 29.23184 8.65897 40.98414-28.78427 32.39649-51.96093-6.18572-16.69418-29.13692-46.84083-50.68359-58.9961a41.614659 40.909326 0 0 0 6.89648 -10.01367c15.5709 19.2953 61.91394 31.36526 82.54297 30.09961 24.67007-1.51361 54.33301-24.66128 34.54101-48.81055 16.74739-25.47551-15.6912-47.5585-40.36132-46.04492-18.97815 1.16437-58.15618 16.1955-74.50586 34.98633a41.614659 40.909326 0 0 0 -6.16602 -12.02344c24.67088 1.26189 62.37186-38.5868 71.75781-59.0332 10.31157-22.462768 3.90956-59.540097-26.72265-53.492193-14.55245-26.789997-49.33492-8.619026-59.64649 13.84375-8.25694 17.986961-13.61395 62.379333-3.18359 84.976563a41.614659 40.909326 0 0 0 -14.83008 -3.01757c10.16735-22.68246 2.71027-68.036957-6.50976-85.941415-7.07232-13.733797-22.66762-25.85238-36.82032-26.212891zm111.2168 201.13868 4.09375 5.125c15.32135 17.92051 25.59445 42.36275 19.40625 65.96875-2.0368 8.92708-7.66231 16.58551-13.75 22.9375-13.33763 59.51675-34.66797 116.92241-56.81055 173.69922-0.37944 4.78377 9.99443 5.02487 14.03321 7.9414 6.9758 2.8441 13.96965 5.64271 20.93359 8.51563 23.79787-60.85348 46.64982-122.54607 60.53125-186.5 5.14805-24.69902 8.68472-52.1996-3.65625-75.34375-2.77011-4.50612-5.02568-10.22697-9.15625-13.25-12.22697-1.16677-23.88404-5.66749-35.625-9.09375z"/>
</svg>
