<?xml version="1.0" encoding="UTF-8" standalone="no"?>
<svg xmlns:rdf="http://www.w3.org/1999/02/22-rdf-syntax-ns#" xmlns="http://www.w3.org/2000/svg" version="1.0" xmlns:cc="http://creativecommons.org/ns#" xmlns:dc="http://purl.org/dc/elements/1.1/" viewBox="0 0 576.44501 577.45154">
<path d="m64.571 0.06355556c-41.335 0-64.571 21.371-64.571 65.036v450.123c0 40.844 20.895 62.229 62.192 62.229h452.024c41.307 0 62.229-20.315 62.229-62.229v-450.123c0-42.601-20.922-65.036-63.521-65.036-0.004 0-448.495-0.143-448.353 0z"/>
<path style="color-rendering:auto;text-decoration-color:#000000;color:#000000;isolation:auto;mix-blend-mode:normal;shape-rendering:auto;solid-color:#000000;block-progression:tb;text-decoration-line:none;text-decoration-style:solid;image-rendering:auto;white-space:normal;text-indent:0;text-transform:none" d="m348.44639 123.26822a9.052691 9.052691 0 0 0 -9.375 8.5625c-1.91737 36.0037-9.02573 71.21441-18.24805 106.27148-9.34099 0.12114-18.13692 0.41423-26.27343 0.85742-19.60336 1.06776-35.56354 2.93728-47.39649 5.06055-5.91648 1.06165-10.78759 2.17815-14.7207 3.36523-3.93312 1.1871-6.61953 1.76688-10.09375 4.80078a9.052691 9.052691 0 0 0 -3.0957 6.74219l-0.92774 112.26367-93.05273-86.55859c7.36956-15.47456 11.26895-36.97383 8.57226-63.46289a9.052691 9.052691 0 0 0 -9.28515 -8.13086 9.052691 9.052691 0 0 0 -2.60547 0.46875c-23.57194 7.93349-46.870125 26.65411-65.832034 46.00391-9.480954 9.6749-17.799802 19.53303-24.277344 28.46875-6.47754 8.9357-11.137881 16.59217-13.365234 23.72461a9.052691 9.052691 0 0 0 6.347656 11.45703c20.008845 5.23818 42.365939 5.03749 61.414063-2.50391l131.33789 140.76758-0.29102 35.16992a9.052691 9.052691 0 0 0 3.47852 7.20703c10.32858 8.07077 26.12393 12.91114 45.7539 16.80664s42.86782 6.27117 66.47461 6.70313c23.6068 0.43194 47.54297-1.07224 68.60157-5.16211 21.05861-4.08987 39.36228-10.48336 51.7832-21.70899a9.052691 9.052691 0 0 0 2.98437 -6.64062l0.59961-72.70703c3.82703-3.36437 7.25255-6.6685 10.64258-9.31836a9.052691 9.052691 0 0 0 0.4043 -0.33789c22.44362-19.75548 38.58267-34.07418 60.86914-56.27344a9.052691 9.052691 0 0 0 0.60547 -0.66602c10.02096-12.19173 21.44722-26.1801 22.95898-42.77734 3.4612-21.06615 0.25845-45.97425-17.38476-62.48828-11.86711-13.04417-29.60564-19.10685-47.96094-18.33008-14.90825 0.6309-30.20359 5.76591-43.05859 15.2793-27.7439-3.83061-53.60017-6.10228-77.1211-7.23438 3.89039-34.19438 9.28663-67.80181 18.39649-100.26172a9.052691 9.052691 0 0 0 -7.47657 -11.41015l-28.48242-3.92969a9.052691 9.052691 0 0 0 -0.90039 -0.0781zm140.25391 137.45312c0.32789 0.004 0.65188 0.0178 0.97461 0.041a9.052691 9.052691 0 0 0 0.1582 0.01c14.23475 0.77621 28.9706 9.70433 32.02734 22.82227a9.052691 9.052691 0 0 0 0.0625 0.25195c3.12748 11.87527 2.69034 21.80747-1.89062 32.8457-6.28692 11.04527-20.52649 24.33585-31.19141 32.95899a9.052691 9.052691 0 0 0 -0.3418 0.29297c-8.99831 8.04579-20.10504 16.85408-31.17578 26.43359l0.82813-100.44141c9.37935-7.60844 21.00483-15.34163 30.54883-15.21484z" fill="#fff"/>
</svg>
