<?xml version="1.0" encoding="UTF-8" standalone="no"?>
<svg xmlns:rdf="http://www.w3.org/1999/02/22-rdf-syntax-ns#" xmlns="http://www.w3.org/2000/svg" version="1.0" xmlns:cc="http://creativecommons.org/ns#" xmlns:dc="http://purl.org/dc/elements/1.1/" viewBox="0 0 576.44501 577.45154">
<path d="m64.571 0.06355556c-41.335 0-64.571 21.371-64.571 65.036v450.123c0 40.844 20.895 62.229 62.192 62.229h452.024c41.307 0 62.229-20.315 62.229-62.229v-450.123c0-42.601-20.922-65.036-63.521-65.036-0.004 0-448.495-0.143-448.353 0z"/>
<path style="color-rendering:auto;text-decoration-color:#000000;color:#000000;isolation:auto;mix-blend-mode:normal;shape-rendering:auto;solid-color:#000000;block-progression:tb;text-decoration-line:none;text-decoration-style:solid;image-rendering:auto;white-space:normal;text-indent:0;text-transform:none" d="m78.315531 83.252587c-6.384612 0.0552-11.126987 1.159475-13.683593 3.445313-5.387097 3.96281-13.65016 15.51078-4.859376 26.29688 36.851165-4.68964 95.897738 17.90885 137.20703 44.63281 20.94653 1.59282 33.61707-0.85045 41.38477-5.01172-31.71002-35.36827-122.19204-69.690573-160.04883-69.363283zm427.45703 1.632813c-37.85679-0.32729-128.33882 33.99697-160.04883 69.36524 7.76769 4.16128 20.43823 6.60258 41.38477 5.00976 41.30929-26.72395 100.35392-49.3205 137.20508-44.63086 8.79079-10.78609 0.52772-22.334065-4.85938-26.296875-2.55661-2.285838-7.29703-3.392067-13.68164-3.447265zm-445.50586 2.009765c-0.04001-0.03552-1.059614 1.050085-2.509765 2.808594 1.717125-1.806087 2.54578-2.776619 2.509765-2.808594zm-2.509765 2.808594c-0.20142 0.211855-0.283683 0.310228-0.513672 0.548828-1.950672 2.023711-3.399626 4.039257-4.390625 6.041016 1.88233-2.79659 3.570584-4.972536 4.904297-6.589844zm-4.904297 6.589844c-8.649447 12.850537-19.83032 36.434467-3.605469 55.042977 40.748218 46.73471 189.62856 52.45734 186.45899 50.19336-7.30868-15.12278-7.79963-30.24638 1.81445-45.36915-28.56871 17.14121-205.17408-18.44608-184.66797-59.867187zm470.9668-7.763672c-0.0361 0.03205 0.79326 1.005151 2.51953 2.820313-1.45619-1.766703-2.47942-2.855923-2.51953-2.820313zm2.51953 2.820313c1.33228 1.61638 3.01549 3.787452 4.89258 6.576171-0.99099-2.001417-2.43834-4.015701-4.38867-6.039062-0.22524-0.233662-0.30609-0.329102-0.50391-0.537109zm4.89258 6.576171c20.50957 41.421555-156.09512 77.010495-184.66407 59.869145 9.61408 15.12277 9.12314 30.24636 1.81446 45.36914-3.16956 2.26398 145.70881-3.46059 186.45703-50.19531 16.22524-18.60897 5.04211-42.19265-3.60742-55.042975zm-240.5918 45.730475c-22.00093 0-39.90625 17.90532-39.90625 39.90625 0 22.00092 17.90532 39.9082 39.90625 39.9082s39.90625-17.90728 39.90625-39.9082c0-22.00093-17.90532-39.90625-39.90625-39.90625zm-204.83203 80.24414c-11.20273 0-20.324219 9.11954-20.324219 20.32226v96.64844 53.80664 92.48828c0 11.20274 9.121489 20.32422 20.324219 20.32422h153.17773v0.0899h101.89649v-0.0899h145.41601c11.20274 0 20.32227-9.12149 20.32227-20.32422v-92.48828-53.80664-96.64844c0-11.20272-9.11953-20.32226-20.32227-20.32226h-146.33789a3.3265372 3.3265372 0 0 0 -2.63672 1.29883c-0.22207 0.28891-0.28051 0.38197-0.1914 0.26758-1.36281 1.74997-2.82867 3.39626-4.43164 4.96679a3.3265372 3.3265372 0 0 0 -0.14844 0.15625c-1.60325 1.78758-3.3128 3.42796-5.10938 4.91797-1.80233 1.49479-3.68512 2.84157-5.64843 4.04492-1.95127 1.19596-3.99523 2.23941-6.1211 3.17383-1.03722 0.45591-2.27087 0.8496-3.64648 1.33789a3.3265372 3.3265372 0 0 0 -2.21485 3.13477v93.67187 53.80664 106.25h-40.46874v-106.25-53.80664-95.30273a3.3265372 3.3265372 0 0 0 -2.05274 -3.07227c-2.0448-0.84646-4.04986-1.78809-5.96289-2.82617-2.07563-1.1263-4.05617-2.33458-5.94727-3.66797-1.89406-1.33548-3.75083-2.82991-5.46875-4.39062-1.72096-1.56349-3.30145-3.18421-4.79296-4.94532-0.20153-0.23795-0.53925-0.77592-1.10743-1.49804a3.3265372 3.3265372 0 0 0 -2.61328 -1.26758h-155.58984zm-13.671875 120.29687h190.55469v47.1543h-190.55469v-47.1543zm244.32813 0h183.50391v47.1543h-183.50391v-47.1543z" fill="#fff"/>
</svg>
