<?xml version="1.0" encoding="UTF-8" standalone="no"?>
<svg xmlns:rdf="http://www.w3.org/1999/02/22-rdf-syntax-ns#" xmlns="http://www.w3.org/2000/svg" version="1.0" xmlns:cc="http://creativecommons.org/ns#" xmlns:dc="http://purl.org/dc/elements/1.1/" viewBox="0 0 576.44501 577.45154">
<path d="m64.571 0.06355556c-41.335 0-64.571 21.371-64.571 65.036v450.123c0 40.844 20.895 62.229 62.192 62.229h452.024c41.307 0 62.229-20.315 62.229-62.229v-450.123c0-42.601-20.922-65.036-63.521-65.036-0.004 0-448.495-0.143-448.353 0z"/>
<path fill="#fff" d="m62.411234 148.9147c-8.930502 0-16.125 7.19645-16.125 16.12695v87.87891c0 8.9305 7.194498 16.12695 16.125 16.12695h14.791016c-0.560224 1.58958-0.880859 3.29411-0.880859 5.08008 0 8.43148 6.787271 15.21875 15.21875 15.21875h55.804689c8.43148 0 15.21875-6.78727 15.21875-15.21875 0-1.78606-0.32058-3.49043-0.88086-5.08008h261.52539c-0.56028 1.58965-0.88086 3.29402-0.88086 5.08008 0 8.43148 6.78727 15.21875 15.21875 15.21875h55.80469c8.43148 0 15.21875-6.78727 15.21875-15.21875 0-1.78606-0.32058-3.49043-0.88086-5.08008h14.55078c8.9305 0 16.125-7.19645 16.125-16.12695v-87.87891c0-8.9305-7.1945-16.12695-16.125-16.12695h-459.82813zm402.72461 18.56055c25.21612 0 45.64452 20.42841 45.64454 45.64453 0 25.21612-20.42842 45.64453-45.64454 45.64453s-45.68359-20.42841-45.68359-45.64453 20.46747-45.64453 45.68359-45.64453zm-386.37109 4.85547h67.00586c6.38483 0 11.53516 5.15033 11.53516 11.53515v13.77344c0 6.38483-5.15033 11.5332-11.53516 11.5332h-67.00586c-6.384824 0-11.496094-5.14837-11.496094-11.5332v-13.77344c0-6.38482 5.11127-11.53515 11.496094-11.53515zm-16.353516 160.19336c-8.930502 0-16.125 7.1945-16.125 16.125v55.91796c0 8.9305 7.194498 16.12696 16.125 16.12696h14.783204c-0.555144 1.58318-0.873047 3.28111-0.873047 5.05859 0 8.43148 6.787271 15.21875 15.21875 15.21875h55.804689c8.43148 0 15.21875-6.78727 15.21875-15.21875 0-1.77733-0.31604-3.47552-0.8711-5.05859h261.50586c-0.55505 1.58307-0.87109 3.28126-0.87109 5.05859 0 8.43148 6.78727 15.21875 15.21875 15.21875h55.80469c8.43148 0 15.21875-6.78727 15.21875-15.21875 0-1.77733-0.31604-3.47552-0.8711-5.05859h14.54102c8.9305 0 16.125-7.19646 16.125-16.12696v-55.91796c0-8.9305-7.1945-16.125-16.125-16.125h-459.82813zm10.623047 26.92968h67.007809c6.38482 0 11.4961 5.15034 11.4961 11.53516v13.77344c0 6.38482-5.11128 11.5332-11.4961 11.5332h-67.007809c-6.384824 0-11.533203-5.14838-11.533203-11.5332v-13.77344c0-6.38482 5.148379-11.53516 11.533203-11.53516zm121.41797 0h67.00586c6.38482 0 11.49805 5.15034 11.49805 11.53516v13.77344c0 6.38482-5.11323 11.5332-11.49805 11.5332h-67.00586c-6.38482 0-11.53516-5.14838-11.53516-11.5332v-13.77344c0-6.38482 5.15034-11.53516 11.53516-11.53516zm121.41602 0h67.00781c6.38482 0 11.49609 5.15034 11.49609 11.53516v13.77344c0 6.38482-5.11127 11.5332-11.49609 11.5332h-67.00781c-6.38482 0-11.53321-5.14838-11.53321-11.5332v-13.77344c0-6.38482 5.14839-11.53516 11.53321-11.53516zm121.41796 0h67.00586c6.38482 0 11.4961 5.15034 11.4961 11.53516v13.77344c0 6.38482-5.11128 11.5332-11.4961 11.5332h-67.00586c-6.38482 0-11.53515-5.14838-11.53515-11.5332v-13.77344c0-6.38482 5.15033-11.53516 11.53515-11.53516z"/>
</svg>
