<?xml version="1.0" encoding="UTF-8" standalone="no"?>
<svg xmlns:rdf="http://www.w3.org/1999/02/22-rdf-syntax-ns#" xmlns="http://www.w3.org/2000/svg" version="1.0" xmlns:cc="http://creativecommons.org/ns#" xmlns:dc="http://purl.org/dc/elements/1.1/" viewBox="0 0 576.44501 577.45154">
<path d="m64.571 0.06355556c-41.335 0-64.571 21.371-64.571 65.036v450.123c0 40.844 20.895 62.229 62.192 62.229h452.024c41.307 0 62.229-20.315 62.229-62.229v-450.123c0-42.601-20.922-65.036-63.521-65.036-0.004 0-448.495-0.143-448.353 0z"/>
<path style="color-rendering:auto;text-decoration-color:#000000;color:#000000;isolation:auto;mix-blend-mode:normal;shape-rendering:auto;solid-color:#000000;block-progression:tb;text-decoration-line:none;text-decoration-style:solid;image-rendering:auto;white-space:normal;text-indent:0;text-transform:none" d="m293.40975 186.66678c-86.37648 0-156.88072 70.50571-156.88072 156.88218s70.50424 156.88072 156.88072 156.88072c86.37647 0 156.88217-70.50425 156.88217-156.88072s-70.5057-156.88218-156.88217-156.88218zm0 45.04786c62.03075 0 111.83432 49.80357 111.83432 111.83432s-49.80357 111.83286-111.83432 111.83286c-62.03076 0-111.83286-49.80211-111.83286-111.83286s49.8021-111.83432 111.83286-111.83432z" fill="#fff"/>
<path opacity=".6" style="color-rendering:auto;text-decoration-color:#000000;color:#000000;isolation:auto;mix-blend-mode:normal;shape-rendering:auto;solid-color:#000000;block-progression:tb;text-decoration-line:none;text-decoration-style:solid;image-rendering:auto;white-space:normal;text-indent:0;text-transform:none" d="m246.06748 55.543603-77.99804 51.617187 3.52148 6.53907 55.22461 102.54297-1.07812 7.7832 4.94921-0.5957 62.97852-7.59375 62.97656 7.59375v-0.002l4.62891 0.5586-0.82031-7.62696 1.33789-2.48437 57.47265-106.71485-76.88672-51.617187h-1.8789-93.66211zm14.76758 16.191406h56.09766 11.06836l4.97265 41.642581h-75.98046zm-16.71679 4.947266-3.25 35.207035-40.33985-6.64258zm100.92382 1.199219 41.75782 27.365236-37.74805 6.21485zm-151.38476 42.644536 45.3789 7.4707-8.45898 61.08203zm200.01367 0-36.2832 67.36914-6.49024-60.32813zm-138.50391 9.04297h79.66016l8.16602 75.90429-35.44922-4.27148-12.91016-1.55664-0.96875-0.11719-0.9707 0.11719-6.10742 0.73633-41.92774 5.05273z" fill-rule="evenodd" fill="#fff"/>
<path opacity=".4" d="m260.83506 71.735009-3.84179 41.642581h75.98046l-4.97265-41.642581h-11.06836zm-16.71679 4.947266-43.58985 28.564455 40.33985 6.64258zm100.92382 1.199219 4.00977 33.580086 37.74805-6.21485zm-151.38476 42.644536 36.91992 68.55273 8.45898-61.08203zm200.01367 0-42.77344 7.04101 6.49024 60.32813zm-138.50391 9.04297-10.50781 75.86523 41.92774-5.05273 6.10742-0.73633 0.9707-0.11719 0.96875 0.11719 12.91016 1.55664 35.44922 4.27148-8.16602-75.90429z" fill-rule="evenodd" fill="#fff"/>
</svg>
