<?xml version="1.0" encoding="UTF-8" standalone="no"?>
<svg xmlns:rdf="http://www.w3.org/1999/02/22-rdf-syntax-ns#" xmlns="http://www.w3.org/2000/svg" version="1.0" xmlns:cc="http://creativecommons.org/ns#" xmlns:dc="http://purl.org/dc/elements/1.1/" viewBox="0 0 576.44501 577.45154">
<path d="m64.571 0.06355556c-41.335 0-64.571 21.371-64.571 65.036v450.123c0 40.844 20.895 62.229 62.192 62.229h452.024c41.307 0 62.229-20.315 62.229-62.229v-450.123c0-42.601-20.922-65.036-63.521-65.036-0.004 0-448.495-0.143-448.353 0z"/>
<path opacity=".1" d="m129.46006 109.0104-79.804685 95.76563 239.41406 287.29687 239.41601-287.29687-79.80664-95.76563h-319.21875z" fill="#fff"/>
<path style="color-rendering:auto;text-decoration-color:#000000;color:#000000;isolation:auto;mix-blend-mode:normal;shape-rendering:auto;solid-color:#000000;block-progression:tb;text-decoration-line:none;text-decoration-style:solid;image-rendering:auto;white-space:normal;text-indent:0;text-transform:none" d="m129.46006 93.049462a15.962595 15.962595 0 0 0 -12.28125 5.734374l-79.804685 95.765634a15.962595 15.962595 0 0 0 -0.130859 0.17382 15.962595 15.962595 0 0 0 -0.398438 0.5293 15.962595 15.962595 0 0 0 -0.539062 0.75391 15.962595 15.962595 0 0 0 -0.357422 0.58789 15.962595 15.962595 0 0 0 -0.449219 0.77929 15.962595 15.962595 0 0 0 -0.308594 0.64844 15.962595 15.962595 0 0 0 -0.357422 0.79492 15.962595 15.962595 0 0 0 -0.25 0.69532 15.962595 15.962595 0 0 0 -0.271484 0.81445 15.962595 15.962595 0 0 0 -0.175781 0.70313 15.962595 15.962595 0 0 0 -0.191406 0.84374 15.962595 15.962595 0 0 0 -0.111329 0.76758 15.962595 15.962595 0 0 0 -0.09766 0.79492 15.962595 15.962595 0 0 0 -0.03711 0.81836 15.962595 15.962595 0 0 0 -0.01758 0.7793 15.962595 15.962595 0 0 0 0.04687 0.83594 15.962595 15.962595 0 0 0 0.05664 0.73828 15.962595 15.962595 0 0 0 0.134766 0.86523 15.962595 15.962595 0 0 0 0.128906 0.71485 15.962595 15.962595 0 0 0 0.216797 0.82812 15.962595 15.962595 0 0 0 0.201172 0.70899 15.962595 15.962595 0 0 0 0.291016 0.78711 15.962595 15.962595 0 0 0 0.279296 0.70508 15.962595 15.962595 0 0 0 0.367188 0.75195 15.962595 15.962595 0 0 0 0.353516 0.67773 15.962595 15.962595 0 0 0 0.443359 0.7168 15.962595 15.962595 0 0 0 0.402344 0.61914 15.962595 15.962595 0 0 0 0.771484 1.01758l239.08986 286.90625a15.962595 15.962595 0 0 0 25.30078 -0.10352l239.00195-286.80273a15.962595 15.962595 0 0 0 0.13086 -0.17383 15.962595 15.962595 0 0 0 0.40821 -0.54297 15.962595 15.962595 0 0 0 0.52343 -0.73047 15.962595 15.962595 0 0 0 0.37305 -0.61328 15.962595 15.962595 0 0 0 0.4375 -0.75976 15.962595 15.962595 0 0 0 0.31445 -0.65821 15.962595 15.962595 0 0 0 0.35352 -0.78711 15.962595 15.962595 0 0 0 0.2539 -0.70507 15.962595 15.962595 0 0 0 0.26563 -0.79883 15.962595 15.962595 0 0 0 0.18164 -0.73047 15.962595 15.962595 0 0 0 0.18555 -0.81836 15.962595 15.962595 0 0 0 0.11328 -0.7793 15.962595 15.962595 0 0 0 0.0977 -0.78906 15.962595 15.962595 0 0 0 0.0371 -0.81836 15.962595 15.962595 0 0 0 0.0176 -0.77734 15.962595 15.962595 0 0 0 -0.0469 -0.83789 15.962595 15.962595 0 0 0 -0.0566 -0.73633 15.962595 15.962595 0 0 0 -0.13477 -0.86524 15.962595 15.962595 0 0 0 -0.1289 -0.71484 15.962595 15.962595 0 0 0 -0.21485 -0.82227 15.962595 15.962595 0 0 0 -0.20312 -0.71484 15.962595 15.962595 0 0 0 -0.30664 -0.82422 15.962595 15.962595 0 0 0 -0.25977 -0.65625 15.962595 15.962595 0 0 0 -0.39648 -0.8125 15.962595 15.962595 0 0 0 -0.31836 -0.61328 15.962595 15.962595 0 0 0 -0.47266 -0.76367 15.962595 15.962595 0 0 0 -0.38086 -0.58399 15.962595 15.962595 0 0 0 -0.77344 -1.02343l-79.80468-95.765634a15.962595 15.962595 0 0 0 -12.28321 -5.734374h-319.21875zm7.48242 31.921878h28.41016l18.62109 63.84375h-100.21289l53.181636-63.84375zm61.70313 0h180.84961l-18.61914 63.84375h-143.61133l-18.61914-63.84375zm214.14258 0h28.41015l53.18164 63.84375h-100.21289l18.6211-63.84375zm-329.02735 95.76563h109.52344l58.98438 202.23047-168.50782-202.23047zm142.81446 0h124.99023l-62.49609 214.28711-62.49414-214.28711zm158.28125 0h109.52343l-168.50781 202.22851 58.98438-202.22851z" fill="#fff"/>
</svg>
