<?xml version="1.0" encoding="UTF-8" standalone="no"?>
<svg xmlns:rdf="http://www.w3.org/1999/02/22-rdf-syntax-ns#" xmlns="http://www.w3.org/2000/svg" version="1.0" xmlns:cc="http://creativecommons.org/ns#" xmlns:dc="http://purl.org/dc/elements/1.1/" viewBox="0 0 576.44501 577.45154">
<defs>
<style type="text/css">.fil0 {fill:#EF7900}</style>
</defs>
<path d="m64.571 0.06355556c-41.335 0-64.571 21.371-64.571 65.036v450.123c0 40.844 20.894 62.229 62.192 62.229h452.024c41.307 0 62.229-20.316 62.229-62.229v-450.123c0-42.601-20.922-65.036-63.522-65.036-0.003 0-448.494-0.143-448.352 0z"/>
<path style="color-rendering:auto;text-decoration-color:#000000;color:#000000;isolation:auto;mix-blend-mode:normal;shape-rendering:auto;solid-color:#000000;block-progression:tb;text-decoration-line:none;text-decoration-style:solid;image-rendering:auto;white-space:normal;text-indent:0;text-transform:none" d="m153.6085 19.326806a5.0005 5.0005 0 0 0 -5 5v503.34375a5.0005 5.0005 0 0 0 3.36523 4.72461c97.52682 33.74964 206.78502 31.10645 300.39844 0.0215a5.0005 5.0005 0 0 0 3.42383 -4.74611v-503.34375a5.0005 5.0005 0 0 0 -5 -5h-297.1875zm31.76172 26.84375h0.004c74.56666 0.800437 163.12837-0.676466 237.35743 0.804688 2.65319 0.469515 4.31375 1.860964 5.68359 4.271484 1.39701 2.458334 2.14508 5.934889 2.07031 9.054687a5.0005 5.0005 0 0 0 -0.002 0.06641c-0.8024 75.638525 0.79229 151.22466-0.66406 226.64258a5.0005 5.0005 0 0 0 0.13867 1.26954c0.14972 0.6207 0.10229 1.13032-0.5957 2.24218s-2.11063 2.54039-3.93946 3.84571c-3.65765 2.61063-8.98198 4.72183-12.02148 5.29492a5.0005 5.0005 0 0 0 -0.33594 0.0762c-2.95116 0.76937-6.20194 0.9488-9.57226 0.75195a5.0005 5.0005 0 0 0 -5.26758 5.4668c0.91512 9.58029 0.41253 20.14078-2.41602 29.30859s-7.8033 16.83141-16.02734 21.69336a5.0005 5.0005 0 0 0 -0.0274 0.0176c-9.59793 5.75929-22.30599 6.25412-33.20703 2.23828-10.86257-4.00167-19.58883-12.18898-22.2539-23.38086-1.77655-10.0726-2.48364-20.4031-2.56055-30.79492a5.0005 5.0005 0 0 0 -5 -4.96289h-27.53125a5.0005 5.0005 0 0 0 -4.98437 5.39063c1.47165 18.77109-1.39856 40.02928-16.66407 50.37695a5.0005 5.0005 0 0 0 -0.0273 0.0176c-9.53798 6.55772-22.60024 7.53657-33.94531 3.70117-11.32056-3.82712-20.52936-12.15091-23.30274-23.69531-1.90528-9.86715-2.17807-20.24122-2.61133-30.86915a5.0005 5.0005 0 0 0 -5.66797 -4.75195c-4.16623 0.56566-11.32628 0.35801-17.04882-1.23828-2.86128-0.79814-5.35835-1.93745-7.0293-3.21094-1.65643-1.26243-2.47845-2.47349-2.80859-4.01367-2.09372-11.33689 0.71257-24.07309-0.60938-37.89062-0.00045 0.0716 0.00046 0.14321 0 0.21484l-0.0254-0.5293c0.0105 0.10529 0.0153 0.20929 0.0254 0.31446 0.42432-67.6534-1.25764-135.21587 1.04492-202.5254 1.59339-3.160303 5.6254-5.15723 9.82227-5.197266z" fill-rule="evenodd" fill="#fff"/>
<path opacity=".75" stroke-linejoin="round" d="m304.13975 70.639306c-11.29901 0.000427-21.13043 4.091875-29.5 12.25-8.36881 8.158928-12.56209 18.073704-12.5625 29.781254 0.0004 11.72108 4.19369 21.68557 12.5625 29.84375 8.36957 8.15886 18.20099 12.21908 29.5 12.21875 0.41661 0 0.83788-0.0212 1.25-0.0312 0.41679 0.0115 0.82861 0.0316 1.25 0.0312 11.29901 0.00033 21.13045-4.05989 29.5-12.21875 8.36882-8.15818 12.53085-18.12267 12.53125-29.84375-0.00038-11.70755-4.16243-21.622326-12.53125-29.781254-8.36955-8.158125-18.20099-12.249573-29.5-12.25-0.42127 0.000017-0.83334 0.02074-1.25 0.03125-0.41201-0.0098-0.8335-0.03125-1.25-0.03125zm-32 93.500004c-2.55568 0.00007-4.86523 0.28628-6.9375 0.84375-1.36012-0.13005-2.72768-0.18225-4.09375-0.15625-9.37405 0.22639-18.59013 4.30903-25.0625 11.09375-6.47238 6.78472-10.12158 16.18819-9.90625 25.5625l0.71875 80.1875h0.15625v42.0625a19.0019 19.0019 0 1 0 38 0v-42.0625h76v42.0625a19.0019 19.0019 0 1 0 38 0v-42.0625h0.6875l-0.71875-80.84375c0.0322-9.0455-3.52964-18.0595-9.71875-24.65625-6.18912-6.59674-14.93956-10.70594-23.96875-11.25-1.9947-0.50512-4.19229-0.78119-6.625-0.78125h-66.53125z" stroke="#fff" stroke-linecap="round" stroke-width="1.641193" fill="#fff"/>
</svg>
