<?xml version="1.0" encoding="UTF-8" standalone="no"?>
<svg xmlns:rdf="http://www.w3.org/1999/02/22-rdf-syntax-ns#" xmlns="http://www.w3.org/2000/svg" version="1.0" xmlns:cc="http://creativecommons.org/ns#" xmlns:dc="http://purl.org/dc/elements/1.1/" viewBox="0 0 576.44501 577.45154">
<path d="m64.571 0.06355556c-41.335 0-64.571 21.371-64.571 65.036v450.123c0 40.844 20.895 62.229 62.192 62.229h452.024c41.307 0 62.229-20.315 62.229-62.229v-450.123c0-42.601-20.922-65.036-63.521-65.036-0.004 0-448.495-0.143-448.353 0z"/>
<path fill="#fff" d="m258.26866 29.063134c-34.05698 0-61.56446 27.382359-61.56446 61.376953 0 5.738542 0.68648 10.978963 2.1211 16.093753h24.69922c1.80888 4.24152 3.80468 6.67383 3.80468 6.67383 7.42266 10.72857 19.83662 17.65234 33.8711 17.65234 22.76702 0 41.29297-18.52593 41.29297-41.29297 0-5.239529 1.30813-9.979672-0.875-14.470703h16.15625c-6.8613-26.447187-31.00029-46.033203-59.50586-46.033203zm-44.72461 95.996096c-10.54144 0-19.95935 4.86493-26.00977 12.53711l-73.47851 112.21484c-2.99402 4.99005-4.67774 10.85218-4.67774 17.02735 0 11.60182 5.86339 21.70714 14.7207 27.63281l98.55274 54.70313v93.06445c0 13.16122 10.66691 23.88867 23.82812 23.88867 13.09883 0 23.82618-10.72745 23.82618-23.88867v-116.20508s3.12012-18.52605-17.90039-28.63086l-61.43946-32.18554 44.78516-68.36329 23.76367 37.30079c4.74053 7.54741 11.166 10.47827 17.0293 10.35351l61.0039-0.25c24.82542 0 24.82542-32.31031 0-32.18555h-49.46484l-49.71289-75.91015c-6.11278-6.79892-14.90848-11.10352-24.82617-11.10352zm139.47265 125.25c-5.42666 0-9.85547 4.49144-9.85547 9.98047 0 5.48904 4.42881 9.85547 9.85547 9.85547l27.94336-0.125c4.67815 0 9.91805 3.18109 11.91406 7.79687l40.29493 82.08594 19.64843-6.79883-42.78906-85.51757c-5.61378-10.22957-16.5309-17.27735-29.06836-17.27735h-27.94336zm115.51953 23.39063c-11.47707 0-22.45645 3.55484-35.86718 7.54687l10.72851 21.20899c11.60184-9.35631 21.64508-12.16407 29.75391-12.16407 12.28788 0 18.96239 2.80781 29.50391 7.29883 0.6237 0.24951 1.1228 0.24805 1.93359 0.24805 2.93162 0 5.36328-2.43165 5.36328-5.36328 0-1.62177-0.49806-2.80669-1.49609-3.80469-11.97617-11.16519-21.58159-14.9707-39.91993-14.9707zm-85.39257 19.71093-92.56446 26.57227 0.0625 133.79492c10.04245 0 18.96218-5.05214 25.44922-11.60156l90.25586-103.10742-23.20312-45.65821zm-319.92383 2.93165c-18.276009 0-30.500479 3.74311-42.476562 14.9707-0.935626 0.99799-1.560547 2.24531-1.560547 3.80469 0 2.93165 2.496085 5.36328 5.427734 5.36328 0.686127 0 1.247468 0.001 1.933594-0.24805 10.479072-4.49103 17.278195-7.29883 29.441406-7.29883 8.171178 0 19.647925 2.55754 28.193359 6.92383l118.13867 65.05664-0.25-22.89062-103.41796-57.01172c-14.658221-7.54742-26.011002-8.66992-35.429692-8.66992zm45.03515 69.36132c-48.590453 0-88.011712 39.48376-88.011712 88.07422s39.421259 88.07422 88.011712 88.07422c48.65283 0 88.07422-39.48376 88.07422-88.07422s-39.42139-88.07422-88.07422-88.07422zm364.02344 0c-48.65286 0-88.01172 39.48376-88.01172 88.07422s39.35886 88.07422 88.01172 88.07422c48.59041 0 88.01172-39.48376 88.01172-88.07422s-39.42131-88.07422-88.01172-88.07422zm-364.02344 26.94532c33.68272 0 61.00391 27.32129 61.00391 61.0664s-27.32119 61.06641-61.00391 61.06641c-33.682721 0-61.001947-27.3213-61.001947-61.06641s27.319226-61.0664 61.001947-61.0664zm364.02344 0c33.74508 0 61.06446 27.32129 61.06446 61.0664-0.00001 33.74511-27.38169 61.06641-61.06446 61.06641-33.68276 0-61.0039-27.3213-61.0039-61.06641s27.25877-61.0664 61.0039-61.0664z"/>
</svg>
