<?xml version="1.0" encoding="UTF-8" standalone="no"?>
<svg xmlns:rdf="http://www.w3.org/1999/02/22-rdf-syntax-ns#" xmlns="http://www.w3.org/2000/svg" version="1.0" xmlns:cc="http://creativecommons.org/ns#" xmlns:dc="http://purl.org/dc/elements/1.1/" viewBox="0 0 576.44501 577.45154">
<path d="m64.571 0.06355556c-41.335 0-64.571 21.371-64.571 65.036v450.123c0 40.844 20.895 62.229 62.192 62.229h452.024c41.307 0 62.229-20.315 62.229-62.229v-450.123c0-42.601-20.922-65.036-63.521-65.036-0.004 0-448.495-0.143-448.353 0z"/>
<path style="color-rendering:auto;text-decoration-color:#000000;color:#000000;isolation:auto;mix-blend-mode:normal;shape-rendering:auto;solid-color:#000000;block-progression:tb;text-decoration-line:none;image-rendering:auto;white-space:normal;text-indent:0;text-transform:none;text-decoration-style:solid" fill="#fff" d="m228.60264 95.244775a2.550255 2.550255 0 0 0 -2.10352 1.107422l-25.57421 37.328133a2.550255 2.550255 0 0 0 2.10351 3.99218h172.62305a2.550255 2.550255 0 0 0 2.16406 -3.90039l-23.3125-37.328126a2.550255 2.550255 0 0 0 -2.16211 -1.199219h-123.73828zm38.28711 9.558595h46.76953v24.14649h-46.76953v-24.14649zm169.15625 6.22852a2.550255 2.550255 0 0 0 -2.34766 1.55273l-9.04882 21.29492a2.550255 2.550255 0 0 0 2.34765 3.54688h68.21289a2.550255 2.550255 0 0 0 2.37696 -3.47266l-8.26172-21.29492a2.550255 2.550255 0 0 0 -2.37696 -1.62695h-50.90234zm-332.21484 7.32812a2.550255 2.550255 0 0 0 -2.42969 1.77149l-4.425782 13.82031a2.550255 2.550255 0 0 0 2.427732 3.32813h45.88672a2.550255 2.550255 0 0 0 2.48438 -3.125l-3.19727-13.82032a2.550255 2.550255 0 0 0 -2.48437 -1.97461h-38.26172zm-27.28516 28.7793c-24.651533 0-44.5 19.84847-44.5 44.5v237.8125c0 24.65153 19.848467 44.5 44.5 44.5h426.5625c24.65153 0 44.5-19.84847 44.5-44.5v-237.8125c0-24.65153-19.84847-44.5-44.5-44.5h-426.5625zm260.25 42.96875c65.25142 0 118.15625 52.87358 118.15625 118.125s-52.90483 118.15625-118.15625 118.15625-118.15625-52.90483-118.15625-118.15625 52.90483-118.125 118.15625-118.125zm-0.002 47.55273a70.582011 70.582011 0 0 0 -70.58203 70.58204 70.582011 70.582011 0 0 0 70.58203 70.58203 70.582011 70.582011 0 0 0 70.58203 -70.58203 70.582011 70.582011 0 0 0 -70.58203 -70.58204z"/>
</svg>
