<?xml version="1.0" encoding="UTF-8" standalone="no"?>
<svg xmlns:rdf="http://www.w3.org/1999/02/22-rdf-syntax-ns#" xmlns="http://www.w3.org/2000/svg" version="1.0" xmlns:cc="http://creativecommons.org/ns#" xmlns:dc="http://purl.org/dc/elements/1.1/" viewBox="0 0 576.44501 577.45154">
<path d="m64.571 0.06355556c-41.335 0-64.571 21.371-64.571 65.036v450.123c0 40.844 20.895 62.229 62.192 62.229h452.024c41.307 0 62.229-20.315 62.229-62.229v-450.123c0-42.601-20.922-65.036-63.521-65.036-0.004 0-448.495-0.143-448.353 0z"/>
<path style="color-rendering:auto;text-decoration-color:#000000;color:#000000;isolation:auto;mix-blend-mode:normal;shape-rendering:auto;solid-color:#000000;block-progression:tb;text-decoration-line:none;text-decoration-style:solid;image-rendering:auto;white-space:normal;text-indent:0;text-transform:none" d="m537.79209 75.045556a14.088086 14.088086 0 0 0 -7.68554 1.917969l-49.40821 27.996095a14.088086 14.088086 0 0 0 -6.76953 9.03711l-8.16992 34.78906h-411.26562a14.088086 14.088086 0 0 0 -13.646489 17.58399l49.667969 193.82617a14.088086 14.088086 0 0 0 11.70117 10.45313l308.01758 42.9375v16.32226h-274.79102a14.088086 14.088086 0 0 0 -12.75976 7.62891c-14.59586 7.07037-24.811862 22.55062-24.814454 40.375-0.0036 24.42626 19.161774 44.47362 42.521484 44.47851 22.55309 0.005 41.03245-18.72374 42.29883-41.99609a10.863695 11.35971 0 0 0 0.24219 -2.46289 10.863695 11.35971 0 0 0 0 -0.002 10.863695 11.35971 0 0 0 0 -0.0137 10.863695 11.35971 0 0 0 -0.24415 -2.50781c-0.34146-6.18835-1.9092-12.05022-4.4375-17.32812h170.14454c-3.51894 6.4631-5.54377 13.91458-5.54493 21.83203-0.004 24.42626 19.16178 44.47363 42.52149 44.47851 22.55309 0.005 41.03245-18.72374 42.29883-41.99609a10.863695 11.35971 0 0 0 0.24218 -2.46289 10.863695 11.35971 0 0 0 0 -0.002 10.863695 11.35971 0 0 0 0 -0.0137 10.863695 11.35971 0 0 0 -0.24414 -2.50781c-0.38524-6.98185-2.32846-13.54877-5.45703-19.32812h2.10938a14.088086 14.088086 0 0 0 14.08594 -14.08594v-43.98047l52.70312-234.04687a14.088086 14.088086 0 0 0 0.32617 -3.28126l8.51367-36.25195 44.04883-24.95898a14.088086 14.088086 0 0 0 -6.20508 -26.429554zm-465.14843 101.91406h44.330074v54.94532h-30.249996l-14.080078-54.94532zm63.111324 0h68.30274v54.94532h-68.30274v-54.94532zm87.08399 0h72.30273v54.94532h-72.30273v-54.94532zm91.08398 0h70.30274v54.94532h-70.30274v-54.94532zm89.08399 0h56.13672l-12.99024 55.31446a9.3920572 9.3920572 0 0 0 -2.66601 -0.36914h-40.48047v-54.94532zm-311.47071 73.72852h25.437496v60.30078h-9.98437l-15.453126-60.30078zm44.218746 0h68.30274v60.30078h-68.30274v-60.30078zm87.08399 0h72.30273v60.30078h-72.30273v-60.30078zm91.08398 0h70.30274v60.30078h-70.30274v-60.30078zm89.08399 0h38.82226l-14.20703 60.49804a9.3920572 9.3920572 0 0 0 -1.95117 -0.19726h-22.66406v-60.30078zm-291.20508 79.08398h5.17187v11.73047a9.3920572 9.3920572 0 0 0 0.38086 2.8125l-1.89257-0.26367-3.66016-14.2793zm23.95312 0h68.30274v26.62891l-69.75195-9.72266a9.3920572 9.3920572 0 0 0 1.44921 -5.17578v-11.73047zm87.08399 0h72.30273v39.32617l-72.30273-10.07812v-29.24805zm91.08398 0h70.30274v51.74414l-70.37696-9.81054a9.3920572 9.3920572 0 0 0 0.0742 -1.25v-40.6836zm89.08399 0h20.25l-12.65039 53.87305a14.088086 14.088086 0 0 0 -0.26367 1.51172l-7.34376-1.02344a9.3920572 9.3920572 0 0 0 0.008 -0.31641v-54.04492zm-270.59766 128.01367a14.088086 14.088086 0 0 0 3.0332 0.29493h13.59571c7.22087 3.38747 12.1665 10.9253 12.16601 19.83789a10.863695 11.35971 0 0 0 0 0.002 10.863695 11.35971 0 0 0 0 0.002c-0.003 12.14939-9.19164 21.75242-20.81054 21.75-11.61889-0.002-20.8006-9.60843-20.79883-21.75781 0.002-9.17693 5.24276-16.89894 12.81445-20.12891zm252.97266 0.37696c11.61889 0.001 20.8034 9.60648 20.80273 21.75586a10.863695 11.35971 0 0 0 0 0.002 10.863695 11.35971 0 0 0 0 0.002c-0.003 12.1494-9.19165 21.75242-20.81055 21.75-11.61889-0.002-20.80059-9.60843-20.79882-21.75781 0.002-12.14939 9.18775-21.75322 20.80664-21.75195z" fill-rule="evenodd" fill="#fff"/>
</svg>
