<?xml version="1.0" encoding="UTF-8" standalone="no"?>
<svg xmlns:rdf="http://www.w3.org/1999/02/22-rdf-syntax-ns#" xmlns="http://www.w3.org/2000/svg" version="1.0" xmlns:cc="http://creativecommons.org/ns#" xmlns:dc="http://purl.org/dc/elements/1.1/" viewBox="0 0 576.44501 577.45154">
<path d="m64.571 0.06355556c-41.335 0-64.571 21.371-64.571 65.036v450.123c0 40.844 20.895 62.229 62.192 62.229h452.024c41.307 0 62.229-20.315 62.229-62.229v-450.123c0-42.601-20.922-65.036-63.521-65.036-0.004 0-448.495-0.143-448.353 0z"/>
<path style="color-rendering:auto;text-decoration-color:#000000;color:#000000;isolation:auto;mix-blend-mode:normal;shape-rendering:auto;solid-color:#000000;block-progression:tb;text-decoration-line:none;text-decoration-style:solid;image-rendering:auto;white-space:normal;text-indent:0;text-transform:none" d="m128.23155 109.00845a4.570048 4.570048 0 0 0 -4.40235 2.91211l-8.41992 21.67188c-24.228079 13.44997-49.353329 42.65369-56.421874 51.4707-4.860929 6.06332-3.933836 14.23975-0.49414 20.41992 3.43856 6.17814 10.191938 11.3157 18.226562 10.05859 11.610314-1.78894 22.008592-9.23582 31.531252-14.19531 4.76216-2.48018 9.23735-4.34251 13.09375-4.92187 3.8564-0.57937 6.9623-0.11624 10.3457 2.22461 7.675 5.31002 18.23814 17.53658 26.66016 33.6582 8.22419 15.74294 14.52832 35.22259 15.35351 55.86719-23.78302 31.04256-45.30739 74.82825-69.98242 101.44531-14.957286-7.60758-29.416956-16.05538-43.298827-25.31055a15.001501 15.001501 0 0 0 -8.464844 -2.63867 15.001501 15.001501 0 0 0 -8.177734 27.59961c72.490535 48.33008 159.6562 76.51367 253.25586 76.51367 90.06843 0 174.18406-26.09556 244.99024-71.1289a15.001501 15.001501 0 1 0 -16.09961 -25.31446c-10.78823 6.86141-21.90877 13.2423-33.32227 19.13281a4.570048 4.570048 0 0 0 -0.99804 -3.5332c-22.08672-26.75737-36.51805-75.45827-50.47267-109.20898a4.570048 4.570048 0 0 0 -1.34375 -1.80274c-19.84794-16.10191-34.18059-34.51577-39.81055-56.74414 34.39334-5.20744 56.23881 12.62089 70.2461 32.08008a4.570048 4.570048 0 0 0 7.36523 0.0723l12.35352-16.47852a4.570048 4.570048 0 0 0 -0.11719 -5.63281c-9.69267-11.86639-20.81654-23.2814-37.07227-29.77344-15.79722-6.30893-36.16996-7.73153-63.91601-1.41602-15.59911-14.60975-39.62908-23.13201-81.89453-16.65039a4.570048 4.570048 0 0 0 -0.30469 0.0566l-91.23242 20.41993c-23.11894-36.47476-51.66299-50.1482-77.93164-67.07226l-4.94727-20.29687a4.570048 4.570048 0 0 0 -4.29687 -3.48438zm198.18554 156.70117 8.39258 2.7168c18.4424 20.40448 41.96024 27.12515 66.17188 34.00781 27.29305 17.9737 48.7352 63.26699 64.12109 99.00586-51.56572 22.09908-108.34907 34.34375-168.06641 34.34375-56.90493 0-111.1474-11.11731-160.74804-31.28516 31.61231-41.90473 52.77073-76.96152 76.52148-102.44726 40.03208-0.90548 83.63631-10.03795 113.60742-36.3418z" fill-rule="evenodd" fill="#fff"/>
</svg>
