<?xml version="1.0" encoding="UTF-8" standalone="no"?>
<svg 
    xmlns="http://www.w3.org/2000/svg"
    xmlns:svg="http://www.w3.org/2000/svg"
    xmlns:rdf="http://www.w3.org/1999/02/22-rdf-syntax-ns#" 
    xmlns:ns2="http://creativecommons.org/ns#" 
    xmlns:dc="http://purl.org/dc/elements/1.1/" 
    xmlns:cc="http://creativecommons.org/ns#"         
    xmlns:xlink="http://www.w3.org/1999/xlink" 
    version="1.1"
    id="svg2"
    style="fill:black;stroke:none">
    <title>Material Design Icons [Hardware Set]</title>
    <desc>Material Design Icons are the official open-source icons featured in the Google Material Design specification.</desc>
    <metadata>
        <rdf:RDF>
            <cc:Work rdf:about="">
                <dc:format>image/svg+xml</dc:format>
                <dc:type rdf:resource="http://purl.org/dc/dcmitype/StillImage"/>
                <dc:title>Material Design Icons [Hardware Set]</dc:title>
                <dc:date>2015-02-18</dc:date>
                <dc:creator>
                    <cc:Agent>
                        <dc:title>Google</dc:title>
                    </cc:Agent>
                </dc:creator>
                <dc:rights>
                    <cc:Agent>
                        <dc:title>Open Source</dc:title>
                    </cc:Agent>
                </dc:rights>
                <dc:language>English</dc:language>

                <dc:source>https://github.com/google/material-design-icons</dc:source>
                <dc:description>Material Design Icons are the official open-source icons featured in the Google Material Design specification.</dc:description>
            </cc:Work>
        </rdf:RDF>
    </metadata>

    <defs>
        <symbol>
            <title>Cast</title>
            <path d="M42 6h-36c-2.21 0-4 1.79-4 4v6h4v-6h36v28h-14v4h14c2.21 0 4-1.79 4-4v-28c0-2.21-1.79-4-4-4zm-40 30v6h6c0-3.31-2.69-6-6-6zm0-8v4c5.52 0 10 4.48 10 10h4c0-7.73-6.27-14-14-14zm0-8v4c9.94 0 18 8.06 18 18h4c0-12.15-9.85-22-22-22z"/>
        </symbol>
        <symbol>
            <title>Cast Connected</title>
            <path
                d="M2 36v6h6c0-3.31-2.69-6-6-6zm0-8v4c5.52 0 10 4.48 10 10h4c0-7.73-6.27-14-14-14zm36-14h-28v3.27c7.92 2.56 14.17 8.81 16.73 16.73h11.27v-20zm-36 6v4c9.94 0 18 8.06 18 18h4c0-12.15-9.85-22-22-22zm40-14h-36c-2.21 0-4 1.79-4 4v6h4v-6h36v28h-14v4h14c2.21 0 4-1.79 4-4v-28c0-2.21-1.79-4-4-4z"/>
        </symbol>
        <symbol>
            <title>Computer</title>
            <path d="M40 36c2.21 0 3.98-1.79 3.98-4l.02-20c0-2.21-1.79-4-4-4h-32c-2.21 0-4 1.79-4 4v20c0 2.21 1.79 4 4 4h-8v4h48v-4h-8zm-32-24h32v20h-32v-20z"/>
        </symbol>
        <symbol>
            <title>Desktop Mac</title>
            <path d="M42 4h-36c-2.21 0-4 1.79-4 4v24c0 2.21 1.79 4 4 4h14l-4 6v2h16v-2l-4-6h14c2.21 0 4-1.79 4-4v-24c0-2.21-1.79-4-4-4zm0 24h-36v-20h36v20z"/>
        </symbol>
        <symbol>
            <title>Desktop Windows</title>
            <path d="M42 4h-36c-2.21 0-4 1.79-4 4v24c0 2.21 1.79 4 4 4h14v4h-4v4h16v-4h-4v-4h14c2.21 0 4-1.79 4-4v-24c0-2.21-1.79-4-4-4zm0 28h-36v-24h36v24z"/>
        </symbol>
        <symbol>
            <title>Dock</title>
            <path d="M16 46h16v-4h-16v4zm16-43.98l-16-.02c-2.21 0-4 1.79-4 4v28c0 2.21 1.79 4 4 4h16c2.21 0 4-1.79 4-4v-28c0-2.21-1.79-3.98-4-3.98zm0 27.98h-16v-20h16v20z"/>
        </symbol>
        <symbol>
            <title>Gamepad</title>
            <path d="M30 15v-11h-12v11l6 6 6-6zm-15 3h-11v12h11l6-6-6-6zm3 15v11h12v-11l-6-6-6 6zm15-15l-6 6 6 6h11v-12h-11z"/>
        </symbol>
        <symbol>
            <title>Headset</title>
            <path d="M24 2c-9.94 0-18 8.06-18 18v14c0 3.31 2.69 6 6 6h6v-16h-8v-4c0-7.73 6.27-14 14-14s14 6.27 14 14v4h-8v16h6c3.31 0 6-2.69 6-6v-14c0-9.94-8.06-18-18-18z"/>
        </symbol>
        <symbol>
            <title>Headset Mic</title>
            <path d="M24 2c-9.94 0-18 8.06-18 18v14c0 3.31 2.69 6 6 6h6v-16h-8v-4c0-7.73 6.27-14 14-14s14 6.27 14 14v4h-8v16h8v2h-14v4h12c3.31 0 6-2.69 6-6v-20c0-9.94-8.06-18-18-18z"/>
        </symbol>
        <symbol>
            <title>Keyboard</title>
            <path
                d="M40 10h-32c-2.21 0-3.98 1.79-3.98 4l-.02 20c0 2.21 1.79 4 4 4h32c2.21 0 4-1.79 4-4v-20c0-2.21-1.79-4-4-4zm-18 6h4v4h-4v-4zm0 6h4v4h-4v-4zm-6-6h4v4h-4v-4zm0 6h4v4h-4v-4zm-2 4h-4v-4h4v4zm0-6h-4v-4h4v4zm18 14h-16v-4h16v4zm0-8h-4v-4h4v4zm0-6h-4v-4h4v4zm6 6h-4v-4h4v4zm0-6h-4v-4h4v4z"/>
        </symbol>
        <symbol>
            <title>Keyboard Alt</title>
            <path
                d="M31 21c1.66 0 3-1.34 3-3s-1.34-3-3-3-3 1.34-3 3 1.34 3 3 3zm-14 0c1.66 0 3-1.34 3-3s-1.34-3-3-3-3 1.34-3 3 1.34 3 3 3zm7 14c5.22 0 9.65-3.34 11.3-8h-22.6c1.65 4.66 6.08 8 11.3 8zm-.01-32c-11.05 0-19.99 8.95-19.99 20s8.94 20 19.99 20c11.05 0 20.01-8.95 20.01-20s-8.96-20-20.01-20zm.01 36c-8.84 0-16-7.16-16-16s7.16-16 16-16 16 7.16 16 16-7.16 16-16 16z"/>
        </symbol>
        <symbol>
            <title>Keyboard Arrow Down</title>
            <path d="M14.83 16.42l9.17 9.17 9.17-9.17 2.83 2.83-12 12-12-12z"/>
        </symbol>
        <symbol>
            <title>Keyboard Arrow Left</title>
            <path d="M30.83 32.67l-9.17-9.17 9.17-9.17-2.83-2.83-12 12 12 12z"/>
        </symbol>
        <symbol>
            <title>Keyboard Arrow Right</title>
            <path d="M17.17 32.92l9.17-9.17-9.17-9.17 2.83-2.83 12 12-12 12z"/>
        </symbol>
        <symbol>
            <title>Keyboard Arrow Up</title>
            <path d="M14.83 30.83l9.17-9.17 9.17 9.17 2.83-2.83-12-12-12 12z"/>
        </symbol>
        <symbol>
            <title>Keyboard Capslock</title>
            <path d="M24 16.83l9.17 9.17 2.83-2.83-12-12-12 12 2.83 2.83 9.17-9.17zm-12 19.17h24v-4h-24v4z"/>
        </symbol>
        <symbol>
            <title>Keyboard Control</title>
            <path d="M12 20c-2.21 0-4 1.79-4 4s1.79 4 4 4 4-1.79 4-4-1.79-4-4-4zm24 0c-2.21 0-4 1.79-4 4s1.79 4 4 4 4-1.79 4-4-1.79-4-4-4zm-12 0c-2.21 0-4 1.79-4 4s1.79 4 4 4 4-1.79 4-4-1.79-4-4-4z"/>
        </symbol>
        <symbol>
            <title>Keyboard Hide</title>
            <path
                d="M40 6h-32c-2.21 0-3.98 1.79-3.98 4l-.02 20c0 2.21 1.79 4 4 4h32c2.21 0 4-1.79 4-4v-20c0-2.21-1.79-4-4-4zm-18 6h4v4h-4v-4zm0 6h4v4h-4v-4zm-6-6h4v4h-4v-4zm0 6h4v4h-4v-4zm-2 4h-4v-4h4v4zm0-6h-4v-4h4v4zm18 14h-16v-4h16v4zm0-8h-4v-4h4v4zm0-6h-4v-4h4v4zm6 6h-4v-4h4v4zm0-6h-4v-4h4v4zm-14 30l8-8h-16l8 8z"/>
        </symbol>
        <symbol>
            <title>Keyboard Return</title>
            <path d="M38 14v8h-26.34l7.17-7.17-2.83-2.83-12 12 12 12 2.83-2.83-7.17-7.17h30.34v-12z"/>
        </symbol>
        <symbol>
            <title>Keyboard Tab</title>
            <path d="M23.17 14.83l7.17 7.17h-28.34v4h28.34l-7.17 7.17 2.83 2.83 12-12-12-12-2.83 2.83zm16.83-2.83v24h4v-24h-4z"/>
        </symbol>
        <symbol>
            <title>Keyboard Voice</title>
            <path d="M24 30c3.31 0 5.98-2.69 5.98-6l.02-12c0-3.32-2.68-6-6-6-3.31 0-6 2.68-6 6v12c0 3.31 2.69 6 6 6zm10.6-6c0 6-5.07 10.2-10.6 10.2-5.52 0-10.6-4.2-10.6-10.2h-3.4c0 6.83 5.44 12.47 12 13.44v6.56h4v-6.56c6.56-.97 12-6.61 12-13.44h-3.4z"/>
        </symbol>
        <symbol>
            <title>Laptop</title>
            <path d="M40 36c2.2 0 4-1.8 4-4v-20c0-2.2-1.8-4-4-4h-32c-2.2 0-4 1.8-4 4v20c0 2.2 1.8 4 4 4h-8v4h48v-4h-8zm-32-24h32v20h-32v-20z"/>
        </symbol>
        <symbol>
            <title>Laptop Chromebook</title>
            <path d="M44 36v-30h-40v30h-4v4h48v-4h-4zm-16 0h-8v-2h8v2zm12-6h-32v-20h32v20z"/>
        </symbol>
        <symbol>
            <title>Laptop Mac</title>
            <path d="M40 36c2.21 0 3.98-1.79 3.98-4l.02-22c0-2.21-1.79-4-4-4h-32c-2.21 0-4 1.79-4 4v22c0 2.21 1.79 4 4 4h-8c0 2.21 1.79 4 4 4h40c2.21 0 4-1.79 4-4h-8zm-32-26h32v22h-32v-22zm16 28c-1.1 0-2-.9-2-2s.9-2 2-2 2 .9 2 2-.9 2-2 2z"/>
        </symbol>
        <symbol>
            <title>Laptop Windows</title>
            <path d="M40 36v-2c2.21 0 3.98-1.79 3.98-4l.02-20c0-2.21-1.79-4-4-4h-32c-2.21 0-4 1.79-4 4v20c0 2.21 1.79 4 4 4v2h-8v4h48v-4h-8zm-32-26h32v20h-32v-20z"/>
        </symbol>
        <symbol>
            <title>Memory</title>
            <path d="M30 18h-12v12h12v-12zm-4 8h-4v-4h4v4zm16-4v-4h-4v-4c0-2.21-1.79-4-4-4h-4v-4h-4v4h-4v-4h-4v4h-4c-2.21 0-4 1.79-4 4v4h-4v4h4v4h-4v4h4v4c0 2.21 1.79 4 4 4h4v4h4v-4h4v4h4v-4h4c2.21 0 4-1.79 4-4v-4h4v-4h-4v-4h4zm-8 12h-20v-20h20v20z"/>
        </symbol>
        <symbol>
            <title>Mouse</title>
            <path d="M26 2.14v15.86h14c0-8.16-6.11-14.88-14-15.86zm-18 27.86c0 8.84 7.16 16 16 16s16-7.16 16-16v-8h-32v8zm14-27.86c-7.89.98-14 7.7-14 15.86h14v-15.86z"/>
        </symbol>
        <symbol>
            <title>Phone android</title>
            <path d="M32 2h-16c-3.31 0-6 2.69-6 6v32c0 3.31 2.69 6 6 6h16c3.31 0 6-2.69 6-6v-32c0-3.31-2.69-6-6-6zm-4 40h-8v-2h8v2zm6.5-6h-21v-28h21v28z"/>
        </symbol>
        <symbol>
            <title>Phone iPhone</title>
            <path d="M31 2h-16c-2.76 0-5 2.24-5 5v34c0 2.76 2.24 5 5 5h16c2.76 0 5-2.24 5-5v-34c0-2.76-2.24-5-5-5zm-8 42c-1.66 0-3-1.34-3-3s1.34-3 3-3 3 1.34 3 3-1.34 3-3 3zm9-8h-18v-28h18v28z"/>
        </symbol>
        <symbol>
            <title>Phonelink</title>
            <path d="M8 12h36v-4h-36c-2.21 0-4 1.79-4 4v22h-4v6h28v-6h-20v-22zm38 4h-12c-1.1 0-2 .9-2 2v20c0 1.1.9 2 2 2h12c1.1 0 2-.9 2-2v-20c0-1.1-.9-2-2-2zm-2 18h-8v-14h8v14z"/>
        </symbol>
        <symbol>
            <title>Phonelink Off</title>
            <path
                d="M44 12v-4h-30.36l4 4h26.36zm-40.16-8.71l-2.55 2.55 3.63 3.63c-.56.69-.92 1.57-.92 2.53v22h-4v6h35.46l4.71 4.71 2.54-2.55-34.92-34.92-3.95-3.95zm4.16 9.26l21.46 21.45h-21.46v-21.45zm38 3.45h-12c-1.1 0-2 .9-2 2v8.36l4 4v-10.36h8v14h-4.36l6 6h.36c1.1 0 2-.9 2-2v-20c0-1.1-.9-2-2-2z"/>
        </symbol>
        <symbol>
            <title>Security</title>
            <path d="M24 2l-18 8v12c0 11.11 7.67 21.47 18 24 10.33-2.53 18-12.89 18-24v-12l-18-8zm0 21.98h14c-1.06 8.24-6.55 15.58-14 17.87v-17.85h-14v-11.4l14-6.22v17.6z"/>
        </symbol>
        <symbol>
            <title>Sim Card</title>
            <path d="M39.98 8c0-2.21-1.77-4-3.98-4h-16l-12 12v24c0 2.21 1.79 4 4 4h24.02c2.21 0 3.98-1.79 3.98-4l-.02-32zm-21.98 30h-4v-4h4v4zm16 0h-4v-4h4v4zm-16-8h-4v-8h4v8zm8 8h-4v-8h4v8zm0-12h-4v-4h4v4zm8 4h-4v-8h4v8z"/>
        </symbol>
        <symbol>
            <title>Smartphone</title>
            <path d="M34 2.02l-20-.02c-2.21 0-4 1.79-4 4v36c0 2.21 1.79 4 4 4h20c2.21 0 4-1.79 4-4v-36c0-2.21-1.79-3.98-4-3.98zm0 35.98h-20v-28h20v28z"/>
        </symbol>
        <symbol>
            <title>Speaker</title>
            <path
                d="M34 4h-20c-2.21 0-4 1.79-4 4v32c0 2.21 1.79 3.98 4 3.98l20 .02c2.21 0 4-1.79 4-4v-32c0-2.21-1.79-4-4-4zm-10 4c2.21 0 4 1.79 4 4s-1.79 4-4 4-4-1.79-4-4 1.79-4 4-4zm0 32c-5.52 0-10-4.48-10-10s4.48-10 10-10 10 4.48 10 10-4.48 10-10 10zm0-16c-3.31 0-6 2.69-6 6s2.69 6 6 6 6-2.69 6-6-2.69-6-6-6z"/>
        </symbol>
        <symbol>
            <title>Tablet</title>
            <path d="M42 8h-36c-2.21 0-4 1.79-4 4v24c0 2.21 1.79 4 4 4h36c2.21 0 3.98-1.79 3.98-4l.02-24c0-2.21-1.79-4-4-4zm-4 28h-28v-24h28v24z"/>
        </symbol>
        <symbol>
            <title>Tablet Android</title>
            <path d="M36 0h-24c-3.31 0-6 2.69-6 6v36c0 3.31 2.69 6 6 6h24c3.31 0 6-2.69 6-6v-36c0-3.31-2.69-6-6-6zm-8 44h-8v-2h8v2zm10.5-6h-29v-32h29v32z"/>
        </symbol>
        <symbol>
            <title>Tablet Mac</title>
            <path d="M37 0h-28c-2.76 0-5 2.24-5 5v38c0 2.76 2.24 5 5 5h28c2.76 0 5-2.24 5-5v-38c0-2.76-2.24-5-5-5zm-14 46c-1.66 0-3-1.34-3-3s1.34-3 3-3 3 1.34 3 3-1.34 3-3 3zm15-8h-30v-32h30v32z"/>
        </symbol>
        <symbol>
            <title>TV</title>
            <path d="M42 6h-36c-2.21 0-4 1.79-4 4v24c0 2.21 1.79 4 4 4h10v4h16v-4h10c2.21 0 3.98-1.79 3.98-4l.02-24c0-2.21-1.79-4-4-4zm0 28h-36v-24h36v24z"/>
        </symbol>
        <symbol>
            <title>Clock</title>
            <path
                d="M40 24c0-5.09-2.38-9.62-6.09-12.55l-1.91-11.45h-16l-1.91 11.45c-3.71 2.93-6.09 7.46-6.09 12.55s2.38 9.62 6.09 12.55l1.91 11.45h16l1.91-11.45c3.71-2.93 6.09-7.46 6.09-12.55zm-28 0c0-6.63 5.37-12 12-12s12 5.37 12 12-5.37 12-12 12-12-5.37-12-12z"/>
        </symbol>
    </defs>
</svg>
