<?xml version="1.0" encoding="UTF-8" standalone="no"?>
<svg 
    xmlns="http://www.w3.org/2000/svg"
    xmlns:svg="http://www.w3.org/2000/svg"
    xmlns:rdf="http://www.w3.org/1999/02/22-rdf-syntax-ns#" 
    xmlns:ns2="http://creativecommons.org/ns#" 
    xmlns:dc="http://purl.org/dc/elements/1.1/" 
    xmlns:cc="http://creativecommons.org/ns#"         
    xmlns:xlink="http://www.w3.org/1999/xlink" 
    version="1.1"
    id="svg2"
    style="fill:black;stroke:none">
    <title>Material Design Icons [Toggle Set]</title>
    <desc>Material Design Icons are the official open-source icons featured in the Google Material Design specification.</desc>
    <metadata>
        <rdf:RDF>
            <cc:Work rdf:about="">
                <dc:format>image/svg+xml</dc:format>
                <dc:type rdf:resource="http://purl.org/dc/dcmitype/StillImage"/>
                <dc:title>Material Design Icons [Toggle Set]</dc:title>
                <dc:date>2015-02-18</dc:date>
                <dc:creator>
                    <cc:Agent>
                        <dc:title>Google</dc:title>
                    </cc:Agent>
                </dc:creator>
                <dc:rights>
                    <cc:Agent>
                        <dc:title>Open Source</dc:title>
                    </cc:Agent>
                </dc:rights>
                <dc:language>English</dc:language>

                <dc:source>https://github.com/google/material-design-icons</dc:source>
                <dc:description>Material Design Icons are the official open-source icons featured in the Google Material Design specification.</dc:description>
            </cc:Work>
        </rdf:RDF>
    </metadata>

    <defs>
        <symbol  id="ic_check_box_24px">
            <path d="M19 3H5a2 2 0 0 0-2 2v14a2 2 0 0 0 2 2h14a2 2 0 0 0 2-2V5a2 2 0 0 0-2-2zm-9 14l-5-5 1.41-1.41L10 14.17l7.59-7.59L19 8l-9 9z" />
        </symbol>
        <symbol  id="ic_check_box_outline_blank_24px">
            <path d="M19 5v14H5V5h14m0-2H5c-1.1 0-2 .9-2 2v14c0 1.1.9 2 2 2h14c1.1 0 2-.9 2-2V5c0-1.1-.9-2-2-2z" />
        </symbol>
        <symbol  id="ic_indeterminate_check_box_24px">
            <path d="M19 3H5c-1.1 0-2 .9-2 2v14c0 1.1.9 2 2 2h14c1.1 0 2-.9 2-2V5c0-1.1-.9-2-2-2zm-2 10H7v-2h10v2z" />
        </symbol>
        <symbol  id="ic_radio_button_checked_24px">
            <path d="M12 7c-2.76 0-5 2.24-5 5s2.24 5 5 5 5-2.24 5-5-2.24-5-5-5zm0-5C6.48 2 2 6.48 2 12s4.48 10 10 10 10-4.48 10-10S17.52 2 12 2zm0 18c-4.42 0-8-3.58-8-8s3.58-8 8-8 8 3.58 8 8-3.58 8-8 8z" />
        </symbol>
        <symbol  id="ic_radio_button_unchecked_24px">
            <path d="M12 2C6.48 2 2 6.48 2 12s4.48 10 10 10 10-4.48 10-10S17.52 2 12 2zm0 18c-4.42 0-8-3.58-8-8s3.58-8 8-8 8 3.58 8 8-3.58 8-8 8z" />
        </symbol>
        <symbol  id="ic_star_24px">
            <path d="M12 17.27L18.18 21l-1.64-7.03L22 9.24l-7.19-.61L12 2 9.19 8.63 2 9.24l5.46 4.73L5.82 21z" />
        </symbol>
        <symbol  id="ic_star_border_24px">
            <path d="M22 9.24l-7.19-.62L12 2 9.19 8.63 2 9.24l5.46 4.73L5.82 21 12 17.27 18.18 21l-1.63-7.03L22 9.24zM12 15.4l-3.76 2.27 1-4.28-3.32-2.88 4.38-.38L12 6.1l1.71 4.04 4.38.38-3.32 2.88 1 4.28L12 15.4z" />
        </symbol>
        <symbol  id="ic_star_half_24px">
            <path d="M22 9.24l-7.19-.62L12 2 9.19 8.63 2 9.24l5.46 4.73L5.82 21 12 17.27 18.18 21l-1.63-7.03L22 9.24zM12 15.4V6.1l1.71 4.04 4.38.38-3.32 2.88 1 4.28L12 15.4z" />
        </symbol>
    </defs>
</svg>
