<?xml version="1.0" encoding="UTF-8" standalone="no"?>
<svg
    xmlns="http://www.w3.org/2000/svg"
    xmlns:svg="http://www.w3.org/2000/svg"
    xmlns:rdf="http://www.w3.org/1999/02/22-rdf-syntax-ns#" 
    xmlns:ns2="http://creativecommons.org/ns#" 
    xmlns:dc="http://purl.org/dc/elements/1.1/" 
    xmlns:cc="http://creativecommons.org/ns#"         
    xmlns:xlink="http://www.w3.org/1999/xlink" 
    width="720"
    height="1008"
    
    version="1.1"
    id="svg2"
    style="fill:none;stroke:black">
    <title>Material Design Icons [Toggle Set]</title>
    <desc>Material Design Icons are the official open-source icons featured in the Google Material Design specification.</desc>
    <metadata>
        <rdf:RDF>
            <cc:Work rdf:about="">
                <dc:format>image/svg+xml</dc:format>
                <dc:type rdf:resource="http://purl.org/dc/dcmitype/StillImage" />
                <dc:title>Material Design Icons [Toggle Set]</dc:title>
                <dc:date>2021-11-08</dc:date>
                <dc:creator>
                    <cc:Agent>
                        <dc:title>Google</dc:title>
                    </cc:Agent>
                </dc:creator>
                <dc:rights>
                    <cc:Agent>
                        <dc:title>Open Source</dc:title>
                    </cc:Agent>
                </dc:rights>
                <dc:language>English</dc:language>

                <dc:source>https://github.com/google/material-design-icons</dc:source>
                <dc:description>Material Design Icons are the official open-source icons featured in the Google Material Design specification.</dc:description>
            </cc:Work>
        </rdf:RDF>
    </metadata>

    <defs>
        <symbol id="check_box" viewBox="0 0 100 100">
          <title>check_box</title>
          <path d="M0 0h24v24H0z"/><path d="M19 3H5a2 2 0 0 0-2 2v14a2 2 0 0 0 2 2h14a2 2 0 0 0 2-2V5a2 2 0 0 0-2-2zm-9 14-5-5 1.41-1.41L10 14.17l7.59-7.59L19 8l-9 9z"/>
        </symbol>
        <symbol id="check_box_outline_blank" viewBox="0 0 100 100">
          <title>check_box_outline_blank</title>
          <path d="M0 0h24v24H0z"/><path d="M19 5v14H5V5h14m0-2H5c-1.1 0-2 .9-2 2v14c0 1.1.9 2 2 2h14c1.1 0 2-.9 2-2V5c0-1.1-.9-2-2-2z"/>
        </symbol>
        <symbol id="indeterminate_check_box" viewBox="0 0 100 100">
          <title>indeterminate_check_box</title>
          <path d="M0 0h24v24H0z"/><path d="M19 3H5c-1.1 0-2 .9-2 2v14c0 1.1.9 2 2 2h14c1.1 0 2-.9 2-2V5c0-1.1-.9-2-2-2zm-2 10H7v-2h10v2z"/>
        </symbol>
        <symbol id="radio_button_checked" viewBox="0 0 100 100">
          <title>radio_button_checked</title>
          <path d="M0 0h24v24H0z"/><path d="M12 7c-2.76 0-5 2.24-5 5s2.24 5 5 5 5-2.24 5-5-2.24-5-5-5zm0-5C6.48 2 2 6.48 2 12s4.48 10 10 10 10-4.48 10-10S17.52 2 12 2zm0 18c-4.42 0-8-3.58-8-8s3.58-8 8-8 8 3.58 8 8-3.58 8-8 8z"/>
        </symbol>
        <symbol id="radio_button_unchecked" viewBox="0 0 100 100">
          <title>radio_button_unchecked</title>
          <path d="M0 0h24v24H0z"/><path d="M12 2C6.48 2 2 6.48 2 12s4.48 10 10 10 10-4.48 10-10S17.52 2 12 2zm0 18c-4.42 0-8-3.58-8-8s3.58-8 8-8 8 3.58 8 8-3.58 8-8 8z"/>
        </symbol>
        <symbol id="star" viewBox="0 0 100 100">
          <title>star</title>
          <path d="M0 0h24v24H0z"/><path d="M0 0h24v24H0z"/><path d="M12 17.27 18.18 21l-1.64-7.03L22 9.24l-7.19-.61L12 2 9.19 8.63 2 9.24l5.46 4.73L5.82 21z"/>
        </symbol>
        <symbol id="star_border" viewBox="0 0 100 100">
          <title>star_border</title>
          <path d="M0 0h24v24H0z"/><path d="m22 9.24-7.19-.62L12 2 9.19 8.63 2 9.24l5.46 4.73L5.82 21 12 17.27 18.18 21l-1.63-7.03L22 9.24zM12 15.4l-3.76 2.27 1-4.28-3.32-2.88 4.38-.38L12 6.1l1.71 4.04 4.38.38-3.32 2.88 1 4.28L12 15.4z"/>
        </symbol>
        <symbol id="star_border_purple500" viewBox="0 0 100 100">
          <title>star_border_purple500</title>
          <path d="M0 0h24v24H0V0z"/><path d="m12 8.89.94 3.11h2.82l-2.27 1.62.93 3.01L12 14.79l-2.42 1.84.93-3.01L8.24 12h2.82L12 8.89M12 2l-2.42 8H2l6.17 4.41L5.83 22 12 17.31 18.18 22l-2.35-7.59L22 10h-7.58L12 2z"/>
        </symbol>
        <symbol id="star_half" viewBox="0 0 100 100">
          <title>star_half</title>
          <path d="M0 0h24v24H0z"/><path d="m22 9.24-7.19-.62L12 2 9.19 8.63 2 9.24l5.46 4.73L5.82 21 12 17.27 18.18 21l-1.63-7.03L22 9.24zM12 15.4V6.1l1.71 4.04 4.38.38-3.32 2.88 1 4.28L12 15.4z"/>
        </symbol>
        <symbol id="star_outline" viewBox="0 0 100 100">
          <title>star_outline</title>
          <path d="m22 9.24-7.19-.62L12 2 9.19 8.63 2 9.24l5.46 4.73L5.82 21 12 17.27 18.18 21l-1.63-7.03L22 9.24zM12 15.4l-3.76 2.27 1-4.28-3.32-2.88 4.38-.38L12 6.1l1.71 4.04 4.38.38-3.32 2.88 1 4.28L12 15.4z"/>
        </symbol>
        <symbol id="star_purple500" viewBox="0 0 100 100">
          <title>star_purple500</title>
          <path d="M0 0h24v24H0V0z"/><path d="m12 8.89.94 3.11h2.82l-2.27 1.62.93 3.01L12 14.79l-2.42 1.84.93-3.01L8.24 12h2.82L12 8.89M12 2l-2.42 8H2l6.17 4.41L5.83 22 12 17.31 18.18 22l-2.35-7.59L22 10h-7.58L12 2z"/>
        </symbol>
        <symbol id="toggle_off" viewBox="0 0 100 100">
          <title>toggle_off</title>
          <path d="M0 0h24v24H0z"/><path d="M17 7H7c-2.76 0-5 2.24-5 5s2.24 5 5 5h10c2.76 0 5-2.24 5-5s-2.24-5-5-5zM7 15c-1.66 0-3-1.34-3-3s1.34-3 3-3 3 1.34 3 3-1.34 3-3 3z"/>
        </symbol>
        <symbol id="toggle_on" viewBox="0 0 100 100">
          <title>toggle_on</title>
          <path d="M0 0h24v24H0z"/><path d="M17 7H7c-2.76 0-5 2.24-5 5s2.24 5 5 5h10c2.76 0 5-2.24 5-5s-2.24-5-5-5zm0 8c-1.66 0-3-1.34-3-3s1.34-3 3-3 3 1.34 3 3-1.34 3-3 3z"/>
        </symbol>
    </defs>
</svg>
