<?xml version="1.0" encoding="UTF-8" standalone="no"?>
<svg
    xmlns="http://www.w3.org/2000/svg"
    xmlns:svg="http://www.w3.org/2000/svg"
    xmlns:rdf="http://www.w3.org/1999/02/22-rdf-syntax-ns#" 
    xmlns:ns2="http://creativecommons.org/ns#" 
    xmlns:dc="http://purl.org/dc/elements/1.1/" 
    xmlns:cc="http://creativecommons.org/ns#"         
    xmlns:xlink="http://www.w3.org/1999/xlink" 
    width="720"
    height="1008"
    
    version="1.1"
    id="svg2"
    style="fill:none;stroke:black">
    <title>Material Design Icons [Av Set]</title>
    <desc>Material Design Icons are the official open-source icons featured in the Google Material Design specification.</desc>
    <metadata>
        <rdf:RDF>
            <cc:Work rdf:about="">
                <dc:format>image/svg+xml</dc:format>
                <dc:type rdf:resource="http://purl.org/dc/dcmitype/StillImage" />
                <dc:title>Material Design Icons [Av Set]</dc:title>
                <dc:date>2021-11-08</dc:date>
                <dc:creator>
                    <cc:Agent>
                        <dc:title>Google</dc:title>
                    </cc:Agent>
                </dc:creator>
                <dc:rights>
                    <cc:Agent>
                        <dc:title>Open Source</dc:title>
                    </cc:Agent>
                </dc:rights>
                <dc:language>English</dc:language>

                <dc:source>https://github.com/google/material-design-icons</dc:source>
                <dc:description>Material Design Icons are the official open-source icons featured in the Google Material Design specification.</dc:description>
            </cc:Work>
        </rdf:RDF>
    </metadata>

    <defs>
        <symbol id="10k" viewBox="0 0 100 100">
          <title>10k</title>
          <path d="M0 0h24v24H0V0z"/><path d="M10 10.5h1.5v3H10zM19 3H5c-1.1 0-2 .9-2 2v14c0 1.1.9 2 2 2h14c1.1 0 2-.9 2-2V5c0-1.1-.9-2-2-2zM7.5 15H6v-4.5H4.5V9h3v6zm5.5-1c0 .55-.45 1-1 1H9.5c-.55 0-1-.45-1-1v-4c0-.55.45-1 1-1H12c.55 0 1 .45 1 1v4zm6.5 1h-1.75L16 12.75V15h-1.5V9H16v2.25L17.75 9h1.75l-2.25 3 2.25 3z"/>
        </symbol>
        <symbol id="1k" viewBox="0 0 100 100">
          <title>1k</title>
          <path d="M0 0h24v24H0V0z"/><path d="M19 3H5c-1.1 0-2 .9-2 2v14c0 1.1.9 2 2 2h14c1.1 0 2-.9 2-2V5c0-1.1-.9-2-2-2zm-8.5 12H9v-4.5H7.5V9h3v6zm7 0h-1.75L14 12.75V15h-1.5V9H14v2.25L15.75 9h1.75l-2.25 3 2.25 3z"/>
        </symbol>
        <symbol id="1k_plus" viewBox="0 0 100 100">
          <title>1k_plus</title>
          <path d="M0 0h24v24H0V0z"/><path d="M19 3H5c-1.1 0-2 .9-2 2v14c0 1.1.9 2 2 2h14c1.1 0 2-.9 2-2V5c0-1.1-.9-2-2-2zM9 15H7.5v-4.5H6V9h3v6zm4.75 0L12 12.75V15h-1.5V9H12v2.25L13.75 9h1.75l-2.25 3 2.25 3h-1.75zm5.75-2.5H18V14h-1v-1.5h-1.5v-1H17V10h1v1.5h1.5v1z"/>
        </symbol>
        <symbol id="2k" viewBox="0 0 100 100">
          <title>2k</title>
          <path d="M0 0h24v24H0V0z"/><path d="M19 3H5c-1.1 0-2 .9-2 2v14c0 1.1.9 2 2 2h14c1.1 0 2-.9 2-2V5c0-1.1-.9-2-2-2zm-9 9.5H8v1h3V15H6.5v-2.5c0-.55.45-1 1-1h2v-1h-3V9H10c.55 0 1 .45 1 1v1.5c0 .55-.45 1-1 1zm8 2.5h-1.75l-1.75-2.25V15H13V9h1.5v2.25L16.25 9H18l-2.25 3L18 15z"/>
        </symbol>
        <symbol id="2k_plus" viewBox="0 0 100 100">
          <title>2k_plus</title>
          <path d="M0 0h24v24H0V0z"/><path d="M19 3H5c-1.1 0-2 .9-2 2v14c0 1.1.9 2 2 2h14c1.1 0 2-.9 2-2V5c0-1.1-.9-2-2-2zm-9.5 8.5c0 .55-.45 1-1 1h-2v1h3V15H5v-2.5c0-.55.45-1 1-1h2v-1H5V9h3.5c.55 0 1 .45 1 1v1.5zm4.75 3.5-1.75-2.25V15H11V9h1.5v2.25L14.25 9H16l-2.25 3L16 15h-1.75zM20 12.5h-1.5V14h-1v-1.5H16v-1h1.5V10h1v1.5H20v1z"/>
        </symbol>
        <symbol id="3k" viewBox="0 0 100 100">
          <title>3k</title>
          <path d="M0 0h24v24H0V0z"/><path d="M19 3H5c-1.1 0-2 .9-2 2v14c0 1.1.9 2 2 2h14c1.1 0 2-.9 2-2V5c0-1.1-.9-2-2-2zm-8 11c0 .55-.45 1-1 1H6.5v-1.5h3v-1h-2v-1h2v-1h-3V9H10c.55 0 1 .45 1 1v4zm7 1h-1.75l-1.75-2.25V15H13V9h1.5v2.25L16.25 9H18l-2.25 3L18 15z"/>
        </symbol>
        <symbol id="3k_plus" viewBox="0 0 100 100">
          <title>3k_plus</title>
          <path d="M0 0h24v24H0V0z"/><path d="M19 3H5c-1.1 0-2 .9-2 2v14c0 1.1.9 2 2 2h14c1.1 0 2-.9 2-2V5c0-1.1-.9-2-2-2zM9.5 14c0 .55-.45 1-1 1H5v-1.5h3v-1H6v-1h2v-1H5V9h3.5c.55 0 1 .45 1 1v4zm6.5 1h-1.75l-1.75-2.25V15H11V9h1.5v2.25L14.25 9H16l-2.25 3L16 15zm4-2.5h-1.5V14h-1v-1.5H16v-1h1.5V10h1v1.5H20v1z"/>
        </symbol>
        <symbol id="4k" viewBox="0 0 100 100">
          <title>4k</title>
          <path d="M0 0h24v24H0V0z"/><path d="M19 3H5c-1.1 0-2 .9-2 2v14c0 1.1.9 2 2 2h14c1.1 0 2-.9 2-2V5c0-1.1-.9-2-2-2zm-7 10.5h-1V15H9.5v-1.5h-3V9H8v3h1.5V9H11v3h1v1.5zm6 1.5h-1.75l-1.75-2.25V15H13V9h1.5v2.25L16.25 9H18l-2.25 3L18 15z"/>
        </symbol>
        <symbol id="4k_plus" viewBox="0 0 100 100">
          <title>4k_plus</title>
          <path d="M0 0h24v24H0V0z"/><path d="M19 3H5c-1.1 0-2 .9-2 2v14c0 1.1.9 2 2 2h14c1.1 0 2-.9 2-2V5c0-1.1-.9-2-2-2zm-8.5 10.5h-1V15H8v-1.5H5V9h1.5v3H8V9h1.5v3h1v1.5zM16 15h-1.75l-1.75-2.25V15H11V9h1.5v2.25L14.25 9H16l-2.25 3L16 15zm4-2.5h-1.5V14h-1v-1.5H16v-1h1.5V10h1v1.5H20v1z"/>
        </symbol>
        <symbol id="5g" viewBox="0 0 100 100">
          <title>5g</title>
          <path d="M0 0h24v24H0z"/><path d="M17 13h2v2h-5V9h7c0-1.1-.9-2-2-2h-5c-1.1 0-2 .9-2 2v6c0 1.1.9 2 2 2h5c1.1 0 2-.9 2-2v-4h-4v2zM3 13h5v2H3v2h5c1.1 0 2-.9 2-2v-2c0-1.1-.9-2-2-2H5V9h5V7H3v6z"/>
        </symbol>
        <symbol id="5k" viewBox="0 0 100 100">
          <title>5k</title>
          <path d="M0 0h24v24H0V0z"/><path d="M19 3H5c-1.1 0-2 .9-2 2v14c0 1.1.9 2 2 2h14c1.1 0 2-.9 2-2V5c0-1.1-.9-2-2-2zm-8 7.5H8v1h2c.55 0 1 .45 1 1V14c0 .55-.45 1-1 1H6.5v-1.5h3v-1h-3V9H11v1.5zm7 4.5h-1.75l-1.75-2.25V15H13V9h1.5v2.25L16.25 9H18l-2.25 3L18 15z"/>
        </symbol>
        <symbol id="5k_plus" viewBox="0 0 100 100">
          <title>5k_plus</title>
          <path d="M0 0h24v24H0V0z"/><path d="M19 3H5c-1.1 0-2 .9-2 2v14c0 1.1.9 2 2 2h14c1.1 0 2-.9 2-2V5c0-1.1-.9-2-2-2zm-9.5 7.5h-3v1h2c.55 0 1 .45 1 1V14c0 .55-.45 1-1 1H5v-1.5h3v-1H5V9h4.5v1.5zM16 15h-1.75l-1.75-2.25V15H11V9h1.5v2.25L14.25 9H16l-2.25 3L16 15zm4-2.5h-1.5V14h-1v-1.5H16v-1h1.5V10h1v1.5H20v1z"/>
        </symbol>
        <symbol id="6k" viewBox="0 0 100 100">
          <title>6k</title>
          <path d="M0 0h24v24H0V0z"/><path d="M8 12.5h1.5V14H8zM19 3H5c-1.1 0-2 .9-2 2v14c0 1.1.9 2 2 2h14c1.1 0 2-.9 2-2V5c0-1.1-.9-2-2-2zm-8 7.5H8v1h2c.55 0 1 .45 1 1V14c0 .55-.45 1-1 1H7.5c-.55 0-1-.45-1-1v-4c0-.55.45-1 1-1H11v1.5zm7 4.5h-1.75l-1.75-2.25V15H13V9h1.5v2.25L16.25 9H18l-2.25 3L18 15z"/>
        </symbol>
        <symbol id="6k_plus" viewBox="0 0 100 100">
          <title>6k_plus</title>
          <path d="M0 0h24v24H0V0z"/><path d="M6.5 12.5H8V14H6.5zM19 3H5c-1.1 0-2 .9-2 2v14c0 1.1.9 2 2 2h14c1.1 0 2-.9 2-2V5c0-1.1-.9-2-2-2zm-9.5 7.5h-3v1h2c.55 0 1 .45 1 1V14c0 .55-.45 1-1 1H6c-.55 0-1-.45-1-1v-4c0-.55.45-1 1-1h3.5v1.5zM16 15h-1.75l-1.75-2.25V15H11V9h1.5v2.25L14.25 9H16l-2.25 3L16 15zm4-2.5h-1.5V14h-1v-1.5H16v-1h1.5V10h1v1.5H20v1z"/>
        </symbol>
        <symbol id="7k" viewBox="0 0 100 100">
          <title>7k</title>
          <path d="M0 0h24v24H0V0z"/><path d="M19 3H5c-1.1 0-2 .9-2 2v14c0 1.1.9 2 2 2h14c1.1 0 2-.9 2-2V5c0-1.1-.9-2-2-2zM9.5 15H7.75l1.38-4.5H6.5V9H10c.67 0 1.15.65.96 1.29L9.5 15zm8.5 0h-1.75l-1.75-2.25V15H13V9h1.5v2.25L16.25 9H18l-2.25 3L18 15z"/>
        </symbol>
        <symbol id="7k_plus" viewBox="0 0 100 100">
          <title>7k_plus</title>
          <path d="M0 0h24v24H0V0z"/><path d="M19 3H5c-1.1 0-2 .9-2 2v14c0 1.1.9 2 2 2h14c1.1 0 2-.9 2-2V5c0-1.1-.9-2-2-2zM8 15H6.25l1.38-4.5H5V9h3.5c.67 0 1.15.65.96 1.29L8 15zm8 0h-1.75l-1.75-2.25V15H11V9h1.5v2.25L14.25 9H16l-2.25 3L16 15zm4-2.5h-1.5V14h-1v-1.5H16v-1h1.5V10h1v1.5H20v1z"/>
        </symbol>
        <symbol id="8k" viewBox="0 0 100 100">
          <title>8k</title>
          <path d="M0 0h24v24H0V0z"/><path d="M8 12.5h1.5V14H8zM8 10h1.5v1.5H8zm11-7H5c-1.1 0-2 .9-2 2v14c0 1.1.9 2 2 2h14c1.1 0 2-.9 2-2V5c0-1.1-.9-2-2-2zm-8 11c0 .55-.45 1-1 1H7.5c-.55 0-1-.45-1-1v-4c0-.55.45-1 1-1H10c.55 0 1 .45 1 1v4zm7 1h-1.75l-1.75-2.25V15H13V9h1.5v2.25L16.25 9H18l-2.25 3L18 15z"/>
        </symbol>
        <symbol id="8k_plus" viewBox="0 0 100 100">
          <title>8k_plus</title>
          <path d="M0 0h24v24H0V0z"/><path d="M6.5 12.5H8V14H6.5zm0-2.5H8v1.5H6.5zM19 3H5c-1.1 0-2 .9-2 2v14c0 1.1.9 2 2 2h14c1.1 0 2-.9 2-2V5c0-1.1-.9-2-2-2zM9.5 14c0 .55-.45 1-1 1H6c-.55 0-1-.45-1-1v-4c0-.55.45-1 1-1h2.5c.55 0 1 .45 1 1v4zm6.5 1h-1.75l-1.75-2.25V15H11V9h1.5v2.25L14.25 9H16l-2.25 3L16 15zm4-2.5h-1.5V14h-1v-1.5H16v-1h1.5V10h1v1.5H20v1z"/>
        </symbol>
        <symbol id="9k" viewBox="0 0 100 100">
          <title>9k</title>
          <path d="M0 0h24v24H0V0z"/><path d="M8 10h1.5v1.5H8zm11-7H5c-1.1 0-2 .9-2 2v14c0 1.1.9 2 2 2h14c1.1 0 2-.9 2-2V5c0-1.1-.9-2-2-2zm-8 11c0 .55-.45 1-1 1H6.5v-1.5h3v-1h-2c-.55 0-1-.45-1-1V10c0-.55.45-1 1-1H10c.55 0 1 .45 1 1v4zm7 1h-1.75l-1.75-2.25V15H13V9h1.5v2.25L16.25 9H18l-2.25 3L18 15z"/>
        </symbol>
        <symbol id="9k_plus" viewBox="0 0 100 100">
          <title>9k_plus</title>
          <path d="M0 0h24v24H0V0z"/><path d="M6.5 10H8v1.5H6.5zM19 3H5c-1.1 0-2 .9-2 2v14c0 1.1.9 2 2 2h14c1.1 0 2-.9 2-2V5c0-1.1-.9-2-2-2zM9.5 14c0 .55-.45 1-1 1H5v-1.5h3v-1H6c-.55 0-1-.45-1-1V10c0-.55.45-1 1-1h2.5c.55 0 1 .45 1 1v4zm6.5 1h-1.75l-1.75-2.25V15H11V9h1.5v2.25L14.25 9H16l-2.25 3L16 15zm4-2.5h-1.5V14h-1v-1.5H16v-1h1.5V10h1v1.5H20v1z"/>
        </symbol>
        <symbol id="add_to_queue" viewBox="0 0 100 100">
          <title>add_to_queue</title>
          <path d="M0 0h24v24H0V0z"/><path d="M21 3H3c-1.11 0-2 .89-2 2v12a2 2 0 0 0 2 2h5v2h8v-2h5c1.1 0 1.99-.9 1.99-2L23 5a2 2 0 0 0-2-2zm0 14H3V5h18v12zm-5-7v2h-3v3h-2v-3H8v-2h3V7h2v3h3z"/>
        </symbol>
        <symbol id="airplay" viewBox="0 0 100 100">
          <title>airplay</title>
          <path d="M0 0h24v24H0z"/><path d="M6 22h12l-6-6z"/><path d="M21 3H3c-1.1 0-2 .9-2 2v12c0 1.1.9 2 2 2h4v-2H3V5h18v12h-4v2h4c1.1 0 2-.9 2-2V5c0-1.1-.9-2-2-2z"/>
        </symbol>
        <symbol id="album" viewBox="0 0 100 100">
          <title>album</title>
          <path d="M0 0h24v24H0z"/><path d="M12 2C6.48 2 2 6.48 2 12s4.48 10 10 10 10-4.48 10-10S17.52 2 12 2zm0 14.5c-2.49 0-4.5-2.01-4.5-4.5S9.51 7.5 12 7.5s4.5 2.01 4.5 4.5-2.01 4.5-4.5 4.5zm0-5.5c-.55 0-1 .45-1 1s.45 1 1 1 1-.45 1-1-.45-1-1-1z"/>
        </symbol>
        <symbol id="art_track" viewBox="0 0 100 100">
          <title>art_track</title>
          <path d="M0 0h24v24H0z"/><path d="M22 13h-8v-2h8v2zm0-6h-8v2h8V7zm-8 10h8v-2h-8v2zm-2-8v6c0 1.1-.9 2-2 2H4c-1.1 0-2-.9-2-2V9c0-1.1.9-2 2-2h6c1.1 0 2 .9 2 2zm-1.5 6-2.25-3-1.75 2.26-1.25-1.51L3.5 15h7z"/>
        </symbol>
        <symbol id="av_timer" viewBox="0 0 100 100">
          <title>av_timer</title>
          <path d="M0 0h24v24H0z"/><path d="M11 17c0 .55.45 1 1 1s1-.45 1-1-.45-1-1-1-1 .45-1 1zm0-14v4h2V5.08c3.39.49 6 3.39 6 6.92 0 3.87-3.13 7-7 7s-7-3.13-7-7c0-1.68.59-3.22 1.58-4.42L12 13l1.41-1.41-6.8-6.8v.02C4.42 6.45 3 9.05 3 12c0 4.97 4.02 9 9 9a9 9 0 0 0 0-18h-1zm7 9c0-.55-.45-1-1-1s-1 .45-1 1 .45 1 1 1 1-.45 1-1zM6 12c0 .55.45 1 1 1s1-.45 1-1-.45-1-1-1-1 .45-1 1z"/>
        </symbol>
        <symbol id="branding_watermark" viewBox="0 0 100 100">
          <title>branding_watermark</title>
          <path d="M0 0h24v24H0V0z"/><path d="M21 3H3c-1.1 0-2 .9-2 2v14c0 1.1.9 2 2 2h18c1.1 0 2-.9 2-2V5c0-1.1-.9-2-2-2zm0 16h-9v-6h9v6z"/>
        </symbol>
        <symbol id="call_to_action" viewBox="0 0 100 100">
          <title>call_to_action</title>
          <path d="M0 0h24v24H0V0z"/><path d="M21 3H3c-1.1 0-2 .9-2 2v14c0 1.1.9 2 2 2h18c1.1 0 2-.9 2-2V5c0-1.1-.9-2-2-2zm0 16H3v-3h18v3z"/>
        </symbol>
        <symbol id="closed_caption" viewBox="0 0 100 100">
          <title>closed_caption</title>
          <path d="M0 0h24v24H0z"/><path d="M19 4H5a2 2 0 0 0-2 2v12a2 2 0 0 0 2 2h14c1.1 0 2-.9 2-2V6c0-1.1-.9-2-2-2zm-8 7H9.5v-.5h-2v3h2V13H11v1c0 .55-.45 1-1 1H7c-.55 0-1-.45-1-1v-4c0-.55.45-1 1-1h3c.55 0 1 .45 1 1v1zm7 0h-1.5v-.5h-2v3h2V13H18v1c0 .55-.45 1-1 1h-3c-.55 0-1-.45-1-1v-4c0-.55.45-1 1-1h3c.55 0 1 .45 1 1v1z"/>
        </symbol>
        <symbol id="closed_caption_disabled" viewBox="0 0 100 100">
          <title>closed_caption_disabled</title>
          <path d="M0 0h24v24H0z"/><path d="M6.83 4H19c1.1 0 2 .9 2 2v12c0 .05-.01.1-.02.16l-3.38-3.38c.24-.19.4-.46.4-.78v-1h-1.5v.5h-.17l-1.83-1.83V10.5h2v.5H18v-1c0-.55-.45-1-1-1h-3c-.55 0-1 .45-1 1v.17L6.83 4zm12.95 18.61L17.17 20H5a2 2 0 0 1-2-2V6c0-.05.02-.1.02-.15L1.39 4.22 2.8 2.81l18.38 18.38-1.4 1.42zM11 13.83l-.83-.83H9.5v.5h-2v-3h.17L6.4 9.22c-.24.19-.4.46-.4.78v4c0 .55.45 1 1 1h3c.55 0 1-.45 1-1v-.17z"/>
        </symbol>
        <symbol id="closed_caption_off" viewBox="0 0 100 100">
          <title>closed_caption_off</title>
          <path d="M0 0h24v24H0V0z"/><path d="M19.5 5.5v13h-15v-13h15zM19 4H5a2 2 0 0 0-2 2v12a2 2 0 0 0 2 2h14c1.1 0 2-.9 2-2V6c0-1.1-.9-2-2-2zm-8 7H9.5v-.5h-2v3h2V13H11v1c0 .55-.45 1-1 1H7c-.55 0-1-.45-1-1v-4c0-.55.45-1 1-1h3c.55 0 1 .45 1 1v1zm7 0h-1.5v-.5h-2v3h2V13H18v1c0 .55-.45 1-1 1h-3c-.55 0-1-.45-1-1v-4c0-.55.45-1 1-1h3c.55 0 1 .45 1 1v1z"/>
        </symbol>
        <symbol id="control_camera" viewBox="0 0 100 100">
          <title>control_camera</title>
          <path d="M0 0h24v24H0z"/><path d="M15.54 5.54 13.77 7.3 12 5.54 10.23 7.3 8.46 5.54 12 2zm2.92 10-1.76-1.77L18.46 12l-1.76-1.77 1.76-1.77L22 12zm-10 2.92 1.77-1.76L12 18.46l1.77-1.76 1.77 1.76L12 22zm-2.92-10 1.76 1.77L5.54 12l1.76 1.77-1.76 1.77L2 12z"/><circle cx="12" cy="12" r="3"/>
        </symbol>
        <symbol id="equalizer" viewBox="0 0 100 100">
          <title>equalizer</title>
          <path d="M0 0h24v24H0z"/><path d="M10 20h4V4h-4v16zm-6 0h4v-8H4v8zM16 9v11h4V9h-4z"/>
        </symbol>
        <symbol id="explicit" viewBox="0 0 100 100">
          <title>explicit</title>
          <path d="M0 0h24v24H0z"/><path d="M19 3H5c-1.1 0-2 .9-2 2v14c0 1.1.9 2 2 2h14c1.1 0 2-.9 2-2V5c0-1.1-.9-2-2-2zm-4 6h-4v2h4v2h-4v2h4v2H9V7h6v2z"/>
        </symbol>
        <symbol id="fast_forward" viewBox="0 0 100 100">
          <title>fast_forward</title>
          <path d="M0 0h24v24H0z"/><path d="m4 18 8.5-6L4 6v12zm9-12v12l8.5-6L13 6z"/>
        </symbol>
        <symbol id="fast_rewind" viewBox="0 0 100 100">
          <title>fast_rewind</title>
          <path d="M0 0h24v24H0z"/><path d="M11 18V6l-8.5 6 8.5 6zm.5-6 8.5 6V6l-8.5 6z"/>
        </symbol>
        <symbol id="featured_play_list" viewBox="0 0 100 100">
          <title>featured_play_list</title>
          <path d="M0 0h24v24H0V0z"/><path d="M21 3H3c-1.1 0-2 .9-2 2v14c0 1.1.9 2 2 2h18c1.1 0 2-.9 2-2V5c0-1.1-.9-2-2-2zm-9 8H3V9h9v2zm0-4H3V5h9v2z"/>
        </symbol>
        <symbol id="featured_video" viewBox="0 0 100 100">
          <title>featured_video</title>
          <path d="M0 0h24v24H0V0z"/><path d="M21 3H3c-1.1 0-2 .9-2 2v14c0 1.1.9 2 2 2h18c1.1 0 2-.9 2-2V5c0-1.1-.9-2-2-2zm-9 9H3V5h9v7z"/>
        </symbol>
        <symbol id="fiber_dvr" viewBox="0 0 100 100">
          <title>fiber_dvr</title>
          <path d="M0 0h24v24H0z"/><path d="M17.5 10.5h2v1h-2v-1zm-13 0h2v3h-2v-3zM21 3H3c-1.11 0-2 .89-2 2v14a2 2 0 0 0 2 2h18a2 2 0 0 0 2-2V5c0-1.11-.89-2-2-2zM8 13.5c0 .85-.65 1.5-1.5 1.5H3V9h3.5c.85 0 1.5.65 1.5 1.5v3zm4.62 1.5h-1.5L9.37 9h1.5l1 3.43 1-3.43h1.5l-1.75 6zM21 11.5c0 .6-.4 1.15-.9 1.4L21 15h-1.5l-.85-2H17.5v2H16V9h3.5c.85 0 1.5.65 1.5 1.5v1z"/>
        </symbol>
        <symbol id="fiber_manual_record" viewBox="0 0 100 100">
          <title>fiber_manual_record</title>
          <path d="M24 24H0V0h24v24z"/><circle cx="12" cy="12" r="8"/>
        </symbol>
        <symbol id="fiber_new" viewBox="0 0 100 100">
          <title>fiber_new</title>
          <path d="M0 0h24v24H0z"/><path d="M20 4H4c-1.11 0-1.99.89-1.99 2L2 18c0 1.11.89 2 2 2h16c1.11 0 2-.89 2-2V6c0-1.11-.89-2-2-2zM8.5 15H7.3l-2.55-3.5V15H3.5V9h1.25l2.5 3.5V9H8.5v6zm5-4.74H11v1.12h2.5v1.26H11v1.11h2.5V15h-4V9h4v1.26zm7 3.74c0 .55-.45 1-1 1h-4c-.55 0-1-.45-1-1V9h1.25v4.51h1.13V9.99h1.25v3.51h1.12V9h1.25v5z"/>
        </symbol>
        <symbol id="fiber_pin" viewBox="0 0 100 100">
          <title>fiber_pin</title>
          <path d="M0 0h24v24H0z"/><path d="M5.5 10.5h2v1h-2zM20 4H4c-1.11 0-1.99.89-1.99 2L2 18c0 1.11.89 2 2 2h16c1.11 0 2-.89 2-2V6c0-1.11-.89-2-2-2zM9 11.5c0 .85-.65 1.5-1.5 1.5h-2v2H4V9h3.5c.85 0 1.5.65 1.5 1.5v1zm3.5 3.5H11V9h1.5v6zm7.5 0h-1.2l-2.55-3.5V15H15V9h1.25l2.5 3.5V9H20v6z"/>
        </symbol>
        <symbol id="fiber_smart_record" viewBox="0 0 100 100">
          <title>fiber_smart_record</title>
          <path d="M24 24H0V0h24v24z"/><circle cx="9" cy="12" r="8"/><path d="M17 4.26v2.09a5.99 5.99 0 0 1 0 11.3v2.09c3.45-.89 6-4.01 6-7.74s-2.55-6.85-6-7.74z"/>
        </symbol>
        <symbol id="forward_10" viewBox="0 0 100 100">
          <title>forward_10</title>
          <path d="M0 0h24v24H0z"/><path d="M18 13c0 3.31-2.69 6-6 6s-6-2.69-6-6 2.69-6 6-6v4l5-5-5-5v4c-4.42 0-8 3.58-8 8s3.58 8 8 8 8-3.58 8-8h-2z"/><path d="M10.86 15.94v-4.27h-.09L9 12.3v.69l1.01-.31v3.26zM12.25 13.44v.74c0 1.9 1.31 1.82 1.44 1.82.14 0 1.44.09 1.44-1.82v-.74c0-1.9-1.31-1.82-1.44-1.82-.14 0-1.44-.09-1.44 1.82zm2.04-.12v.97c0 .77-.21 1.03-.59 1.03s-.6-.26-.6-1.03v-.97c0-.75.22-1.01.59-1.01.38-.01.6.26.6 1.01z"/>
        </symbol>
        <symbol id="forward_30" viewBox="0 0 100 100">
          <title>forward_30</title>
          <path d="M0 0h24v24H0z"/><path d="M18 13c0 3.31-2.69 6-6 6s-6-2.69-6-6 2.69-6 6-6v4l5-5-5-5v4c-4.42 0-8 3.58-8 8s3.58 8 8 8 8-3.58 8-8h-2z"/><path d="M10.06 15.38c-.29 0-.62-.17-.62-.54h-.85c0 .97.9 1.23 1.45 1.23.87 0 1.51-.46 1.51-1.25 0-.66-.45-.9-.71-1 .11-.05.65-.32.65-.92 0-.21-.05-1.22-1.44-1.22-.62 0-1.4.35-1.4 1.16h.85c0-.34.31-.48.57-.48.59 0 .58.5.58.54 0 .52-.41.59-.63.59h-.46v.66h.45c.65 0 .7.42.7.64 0 .32-.21.59-.65.59zM13.85 11.68c-.14 0-1.44-.08-1.44 1.82v.74c0 1.9 1.31 1.82 1.44 1.82.14 0 1.44.09 1.44-1.82v-.74c.01-1.91-1.3-1.82-1.44-1.82zm.6 2.67c0 .77-.21 1.03-.59 1.03s-.6-.26-.6-1.03v-.97c0-.75.22-1.01.59-1.01.38 0 .6.26.6 1.01v.97z"/>
        </symbol>
        <symbol id="forward_5" viewBox="0 0 100 100">
          <title>forward_5</title>
          <path d="M0 0h24v24H0z"/><path d="M18 13c0 3.31-2.69 6-6 6s-6-2.69-6-6 2.69-6 6-6v4l5-5-5-5v4c-4.42 0-8 3.58-8 8s3.58 8 8 8 8-3.58 8-8h-2z"/><path d="M12.03 15.38c-.44 0-.58-.31-.6-.56h-.84c.03.85.79 1.25 1.44 1.25.93 0 1.44-.63 1.44-1.43 0-1.33-.97-1.44-1.3-1.44-.2 0-.43.05-.64.16l.11-.92h1.7v-.71h-2.39l-.25 2.17.67.17c.13-.13.28-.23.57-.23.4 0 .69.23.69.75-.01.05.02.79-.6.79z"/>
        </symbol>
        <symbol id="games" viewBox="0 0 100 100">
          <title>games</title>
          <path d="M0 0h24v24H0z"/><path d="M15 7.5V2H9v5.5l3 3 3-3zM7.5 9H2v6h5.5l3-3-3-3zM9 16.5V22h6v-5.5l-3-3-3 3zM16.5 9l-3 3 3 3H22V9h-5.5z"/>
        </symbol>
        <symbol id="hd" viewBox="0 0 100 100">
          <title>hd</title>
          <path d="M0 0h24v24H0z"/><path d="M19 3H5a2 2 0 0 0-2 2v14a2 2 0 0 0 2 2h14c1.1 0 2-.9 2-2V5c0-1.1-.9-2-2-2zm-8 12H9.5v-2h-2v2H6V9h1.5v2.5h2V9H11v6zm2-6h4c.55 0 1 .45 1 1v4c0 .55-.45 1-1 1h-4V9zm1.5 4.5h2v-3h-2v3z"/>
        </symbol>
        <symbol id="hearing" viewBox="0 0 100 100">
          <title>hearing</title>
          <path d="M0 0h24v24H0z"/><path d="M17 20c-.29 0-.56-.06-.76-.15-.71-.37-1.21-.88-1.71-2.38-.51-1.56-1.47-2.29-2.39-3-.79-.61-1.61-1.24-2.32-2.53C9.29 10.98 9 9.93 9 9c0-2.8 2.2-5 5-5s5 2.2 5 5h2c0-3.93-3.07-7-7-7S7 5.07 7 9c0 1.26.38 2.65 1.07 3.9.91 1.65 1.98 2.48 2.85 3.15.81.62 1.39 1.07 1.71 2.05.6 1.82 1.37 2.84 2.73 3.55A3.999 3.999 0 0 0 21 18h-2c0 1.1-.9 2-2 2zM7.64 2.64 6.22 1.22C4.23 3.21 3 5.96 3 9s1.23 5.79 3.22 7.78l1.41-1.41C6.01 13.74 5 11.49 5 9s1.01-4.74 2.64-6.36zM11.5 9a2.5 2.5 0 0 0 5 0 2.5 2.5 0 0 0-5 0z"/>
        </symbol>
        <symbol id="hearing_disabled" viewBox="0 0 100 100">
          <title>hearing_disabled</title>
          <path d="M0 0h24v24H0z"/><path d="M6.03 3.2C7.15 2.44 8.51 2 10 2c3.93 0 7 3.07 7 7 0 1.26-.38 2.65-1.07 3.9-.02.04-.05.08-.08.13l-1.48-1.48c.4-.86.63-1.75.63-2.55 0-2.8-2.2-5-5-5-.92 0-1.76.26-2.5.67L6.03 3.2zm11.18 11.18 1.43 1.43C20.11 13.93 21 11.57 21 9c0-3.04-1.23-5.79-3.22-7.78l-1.42 1.42A8.937 8.937 0 0 1 19 9c0 2.02-.67 3.88-1.79 5.38zM10 6.5c-.21 0-.4.03-.59.08l3.01 3.01c.05-.19.08-.38.08-.59A2.5 2.5 0 0 0 10 6.5zm11.19 14.69L2.81 2.81 1.39 4.22l2.13 2.13C3.19 7.16 3 8.05 3 9h2c0-.36.05-.71.12-1.05l6.61 6.61c-.88.68-1.78 1.41-2.27 2.9-.5 1.5-1 2.01-1.71 2.38-.19.1-.46.16-.75.16-1.1 0-2-.9-2-2H3a3.999 3.999 0 0 0 5.64 3.65c1.36-.71 2.13-1.73 2.73-3.55.32-.98.9-1.43 1.71-2.05.03-.02.05-.04.08-.06l6.62 6.62 1.41-1.42z"/>
        </symbol>
        <symbol id="high_quality" viewBox="0 0 100 100">
          <title>high_quality</title>
          <path d="M0 0h24v24H0z"/><path d="M19 4H5a2 2 0 0 0-2 2v12a2 2 0 0 0 2 2h14c1.1 0 2-.9 2-2V6c0-1.1-.9-2-2-2zm-8 11H9.5v-2h-2v2H6V9h1.5v2.5h2V9H11v6zm7-1c0 .55-.45 1-1 1h-.75v1.5h-1.5V15H14c-.55 0-1-.45-1-1v-4c0-.55.45-1 1-1h3c.55 0 1 .45 1 1v4zm-3.5-.5h2v-3h-2v3z"/>
        </symbol>
        <symbol id="library_add" viewBox="0 0 100 100">
          <title>library_add</title>
          <path d="M0 0h24v24H0z"/><path d="M4 6H2v14c0 1.1.9 2 2 2h14v-2H4V6zm16-4H8c-1.1 0-2 .9-2 2v12c0 1.1.9 2 2 2h12c1.1 0 2-.9 2-2V4c0-1.1-.9-2-2-2zm-1 9h-4v4h-2v-4H9V9h4V5h2v4h4v2z"/>
        </symbol>
        <symbol id="library_add_check" viewBox="0 0 100 100">
          <title>library_add_check</title>
          <path d="M0 0h24v24H0z"/><path d="M20 2H8c-1.1 0-2 .9-2 2v12c0 1.1.9 2 2 2h12c1.1 0 2-.9 2-2V4c0-1.1-.9-2-2-2zm-7.53 12L9 10.5l1.4-1.41 2.07 2.08L17.6 6 19 7.41 12.47 14zM4 6H2v14c0 1.1.9 2 2 2h14v-2H4V6z"/>
        </symbol>
        <symbol id="library_books" viewBox="0 0 100 100">
          <title>library_books</title>
          <path d="M0 0h24v24H0z"/><path d="M4 6H2v14c0 1.1.9 2 2 2h14v-2H4V6zm16-4H8c-1.1 0-2 .9-2 2v12c0 1.1.9 2 2 2h12c1.1 0 2-.9 2-2V4c0-1.1-.9-2-2-2zm-1 9H9V9h10v2zm-4 4H9v-2h6v2zm4-8H9V5h10v2z"/>
        </symbol>
        <symbol id="library_music" viewBox="0 0 100 100">
          <title>library_music</title>
          <path d="M0 0h24v24H0z"/><path d="M20 2H8c-1.1 0-2 .9-2 2v12c0 1.1.9 2 2 2h12c1.1 0 2-.9 2-2V4c0-1.1-.9-2-2-2zm-2 5h-3v5.5a2.5 2.5 0 0 1-5 0 2.5 2.5 0 0 1 2.5-2.5c.57 0 1.08.19 1.5.51V5h4v2zM4 6H2v14c0 1.1.9 2 2 2h14v-2H4V6z"/>
        </symbol>
        <symbol id="loop" viewBox="0 0 100 100">
          <title>loop</title>
          <path d="M0 0h24v24H0z"/><path d="M12 4V1L8 5l4 4V6c3.31 0 6 2.69 6 6 0 1.01-.25 1.97-.7 2.8l1.46 1.46A7.93 7.93 0 0 0 20 12c0-4.42-3.58-8-8-8zm0 14c-3.31 0-6-2.69-6-6 0-1.01.25-1.97.7-2.8L5.24 7.74A7.93 7.93 0 0 0 4 12c0 4.42 3.58 8 8 8v3l4-4-4-4v3z"/>
        </symbol>
        <symbol id="mic" viewBox="0 0 100 100">
          <title>mic</title>
          <path d="M0 0h24v24H0z"/><path d="M12 14c1.66 0 2.99-1.34 2.99-3L15 5c0-1.66-1.34-3-3-3S9 3.34 9 5v6c0 1.66 1.34 3 3 3zm5.3-3c0 3-2.54 5.1-5.3 5.1S6.7 14 6.7 11H5c0 3.41 2.72 6.23 6 6.72V21h2v-3.28c3.28-.48 6-3.3 6-6.72h-1.7z"/>
        </symbol>
        <symbol id="mic_none" viewBox="0 0 100 100">
          <title>mic_none</title>
          <path d="M0 0h24v24H0z"/><path d="M12 14c1.66 0 2.99-1.34 2.99-3L15 5c0-1.66-1.34-3-3-3S9 3.34 9 5v6c0 1.66 1.34 3 3 3zm-1.2-9.1c0-.66.54-1.2 1.2-1.2.66 0 1.2.54 1.2 1.2l-.01 6.2c0 .66-.53 1.2-1.19 1.2-.66 0-1.2-.54-1.2-1.2V4.9zm6.5 6.1c0 3-2.54 5.1-5.3 5.1S6.7 14 6.7 11H5c0 3.41 2.72 6.23 6 6.72V21h2v-3.28c3.28-.48 6-3.3 6-6.72h-1.7z"/>
        </symbol>
        <symbol id="mic_off" viewBox="0 0 100 100">
          <title>mic_off</title>
          <path d="M0 0h24v24H0zm0 0h24v24H0z"/><path d="M19 11h-1.7c0 .74-.16 1.43-.43 2.05l1.23 1.23c.56-.98.9-2.09.9-3.28zm-4.02.17c0-.06.02-.11.02-.17V5c0-1.66-1.34-3-3-3S9 3.34 9 5v.18l5.98 5.99zM4.27 3 3 4.27l6.01 6.01V11c0 1.66 1.33 3 2.99 3 .22 0 .44-.03.65-.08l1.66 1.66c-.71.33-1.5.52-2.31.52-2.76 0-5.3-2.1-5.3-5.1H5c0 3.41 2.72 6.23 6 6.72V21h2v-3.28c.91-.13 1.77-.45 2.54-.9L19.73 21 21 19.73 4.27 3z"/>
        </symbol>
        <symbol id="missed_video_call" viewBox="0 0 100 100">
          <title>missed_video_call</title>
          <path d="M0 0h24v24H0V0z"/><path d="M17 10.5V7c0-.55-.45-1-1-1H4c-.55 0-1 .45-1 1v10c0 .55.45 1 1 1h12c.55 0 1-.45 1-1v-3.5l4 4v-11l-4 4zM10 15l-3.89-3.89v2.55H5V9.22h4.44v1.11H6.89l3.11 3.1 4.22-4.22.78.79-5 5z"/>
        </symbol>
        <symbol id="movie" viewBox="0 0 100 100">
          <title>movie</title>
          <path d="M0 0h24v24H0z"/><path d="m18 4 2 4h-3l-2-4h-2l2 4h-3l-2-4H8l2 4H7L5 4H4c-1.1 0-1.99.9-1.99 2L2 18c0 1.1.9 2 2 2h16c1.1 0 2-.9 2-2V4h-4z"/>
        </symbol>
        <symbol id="music_video" viewBox="0 0 100 100">
          <title>music_video</title>
          <path d="M0 0h24v24H0V0z"/><path d="M21 3H3c-1.1 0-2 .9-2 2v14c0 1.1.9 2 2 2h18c1.1 0 2-.9 2-2V5c0-1.1-.9-2-2-2zm0 16H3V5h18v14zM8 15c0-1.66 1.34-3 3-3 .35 0 .69.07 1 .18V6h5v2h-3v7.03A3.003 3.003 0 0 1 11 18c-1.66 0-3-1.34-3-3z"/>
        </symbol>
        <symbol id="new_releases" viewBox="0 0 100 100">
          <title>new_releases</title>
          <path d="M0 0h24v24H0z"/><path d="m23 12-2.44-2.78.34-3.68-3.61-.82-1.89-3.18L12 3 8.6 1.54 6.71 4.72l-3.61.81.34 3.68L1 12l2.44 2.78-.34 3.69 3.61.82 1.89 3.18L12 21l3.4 1.46 1.89-3.18 3.61-.82-.34-3.68L23 12zm-10 5h-2v-2h2v2zm0-4h-2V7h2v6z"/>
        </symbol>
        <symbol id="not_interested" viewBox="0 0 100 100">
          <title>not_interested</title>
          <path d="M0 0h24v24H0z"/><path d="M12 2C6.48 2 2 6.48 2 12s4.48 10 10 10 10-4.48 10-10S17.52 2 12 2zm0 18c-4.42 0-8-3.58-8-8 0-1.85.63-3.55 1.69-4.9L16.9 18.31A7.902 7.902 0 0 1 12 20zm6.31-3.1L7.1 5.69A7.902 7.902 0 0 1 12 4c4.42 0 8 3.58 8 8 0 1.85-.63 3.55-1.69 4.9z"/>
        </symbol>
        <symbol id="note" viewBox="0 0 100 100">
          <title>note</title>
          <path d="M0 0h24v24H0V0z"/><path d="m22 10-6-6H4c-1.1 0-2 .9-2 2v12.01c0 1.1.9 1.99 2 1.99l16-.01c1.1 0 2-.89 2-1.99v-8zm-7-4.5 5.5 5.5H15V5.5z"/>
        </symbol>
        <symbol id="pause" viewBox="0 0 100 100">
          <title>pause</title>
          <path d="M0 0h24v24H0z"/><path d="M6 19h4V5H6v14zm8-14v14h4V5h-4z"/>
        </symbol>
        <symbol id="pause_circle" viewBox="0 0 100 100">
          <title>pause_circle</title>
          <path d="M0 0h24v24H0z"/><path d="M12 2C6.48 2 2 6.48 2 12s4.48 10 10 10 10-4.48 10-10S17.52 2 12 2zm-1 14H9V8h2v8zm4 0h-2V8h2v8z"/>
        </symbol>
        <symbol id="pause_circle_filled" viewBox="0 0 100 100">
          <title>pause_circle_filled</title>
          <path d="M0 0h24v24H0z"/><path d="M12 2C6.48 2 2 6.48 2 12s4.48 10 10 10 10-4.48 10-10S17.52 2 12 2zm-1 14H9V8h2v8zm4 0h-2V8h2v8z"/>
        </symbol>
        <symbol id="pause_circle_outline" viewBox="0 0 100 100">
          <title>pause_circle_outline</title>
          <path d="M0 0h24v24H0z"/><path d="M9 16h2V8H9v8zm3-14C6.48 2 2 6.48 2 12s4.48 10 10 10 10-4.48 10-10S17.52 2 12 2zm0 18c-4.41 0-8-3.59-8-8s3.59-8 8-8 8 3.59 8 8-3.59 8-8 8zm1-4h2V8h-2v8z"/>
        </symbol>
        <symbol id="play_arrow" viewBox="0 0 100 100">
          <title>play_arrow</title>
          <path d="M0 0h24v24H0z"/><path d="M8 5v14l11-7z"/>
        </symbol>
        <symbol id="play_circle" viewBox="0 0 100 100">
          <title>play_circle</title>
          <path d="M0 0h24v24H0z"/><path d="M12 2C6.48 2 2 6.48 2 12s4.48 10 10 10 10-4.48 10-10S17.52 2 12 2zM9.5 16.5v-9l7 4.5-7 4.5z"/>
        </symbol>
        <symbol id="play_circle_filled" viewBox="0 0 100 100">
          <title>play_circle_filled</title>
          <path d="M0 0h24v24H0z"/><path d="M12 2C6.48 2 2 6.48 2 12s4.48 10 10 10 10-4.48 10-10S17.52 2 12 2zm-2 14.5v-9l6 4.5-6 4.5z"/>
        </symbol>
        <symbol id="play_circle_outline" viewBox="0 0 100 100">
          <title>play_circle_outline</title>
          <path d="M0 0h24v24H0z"/><path d="m10 16.5 6-4.5-6-4.5v9zM12 2C6.48 2 2 6.48 2 12s4.48 10 10 10 10-4.48 10-10S17.52 2 12 2zm0 18c-4.41 0-8-3.59-8-8s3.59-8 8-8 8 3.59 8 8-3.59 8-8 8z"/>
        </symbol>
        <symbol id="play_disabled" viewBox="0 0 100 100">
          <title>play_disabled</title>
          <path d="M0 0h24v24H0V0zm0 0h24v24H0V0zm11.75 11.47-.11-.11.11.11z"/><path d="M8 5.19V5l11 7-2.55 1.63L8 5.19zm12 14.54-5.11-5.11L8 7.73 4.27 4 3 5.27l5 5V19l5.33-3.4 5.4 5.4L20 19.73z"/>
        </symbol>
        <symbol id="playlist_add" viewBox="0 0 100 100">
          <title>playlist_add</title>
          <path d="M0 0h24v24H0z"/><path d="M14 10H3v2h11v-2zm0-4H3v2h11V6zm4 8v-4h-2v4h-4v2h4v4h2v-4h4v-2h-4zM3 16h7v-2H3v2z"/>
        </symbol>
        <symbol id="playlist_add_check" viewBox="0 0 100 100">
          <title>playlist_add_check</title>
          <path d="M0 0h24v24H0z"/><path d="M3 10h11v2H3zM3 6h11v2H3zM3 14h7v2H3zM20.59 11.93l-4.25 4.24-2.12-2.12-1.41 1.41L16.34 19 22 13.34z"/>
        </symbol>
        <symbol id="playlist_play" viewBox="0 0 100 100">
          <title>playlist_play</title>
          <path d="M0 0h24v24H0z"/><path d="M3 10h11v2H3zM3 6h11v2H3zM3 14h7v2H3zM16 13v8l6-4z"/>
        </symbol>
        <symbol id="queue" viewBox="0 0 100 100">
          <title>queue</title>
          <path d="M0 0h24v24H0z"/><path d="M4 6H2v14c0 1.1.9 2 2 2h14v-2H4V6zm16-4H8c-1.1 0-2 .9-2 2v12c0 1.1.9 2 2 2h12c1.1 0 2-.9 2-2V4c0-1.1-.9-2-2-2zm-1 9h-4v4h-2v-4H9V9h4V5h2v4h4v2z"/>
        </symbol>
        <symbol id="queue_music" viewBox="0 0 100 100">
          <title>queue_music</title>
          <path d="M0 0h24v24H0z"/><path d="M15 6H3v2h12V6zm0 4H3v2h12v-2zM3 16h8v-2H3v2zM17 6v8.18c-.31-.11-.65-.18-1-.18-1.66 0-3 1.34-3 3s1.34 3 3 3 3-1.34 3-3V8h3V6h-5z"/>
        </symbol>
        <symbol id="queue_play_next" viewBox="0 0 100 100">
          <title>queue_play_next</title>
          <path d="M0 0h24v24H0z"/><path d="M21 3H3c-1.11 0-2 .89-2 2v12a2 2 0 0 0 2 2h5v2h8v-2h2v-2H3V5h18v8h2V5a2 2 0 0 0-2-2zm-8 7V7h-2v3H8v2h3v3h2v-3h3v-2h-3zm11 8-4.5 4.5L18 21l3-3-3-3 1.5-1.5L24 18z"/>
        </symbol>
        <symbol id="radio" viewBox="0 0 100 100">
          <title>radio</title>
          <path d="M0 0h24v24H0z"/><path d="M3.24 6.15C2.51 6.43 2 7.17 2 8v12a2 2 0 0 0 2 2h16a2 2 0 0 0 2-2V8c0-1.11-.89-2-2-2H8.3l8.26-3.34L15.88 1 3.24 6.15zM7 20c-1.66 0-3-1.34-3-3s1.34-3 3-3 3 1.34 3 3-1.34 3-3 3zm13-8h-2v-2h-2v2H4V8h16v4z"/>
        </symbol>
        <symbol id="recent_actors" viewBox="0 0 100 100">
          <title>recent_actors</title>
          <path d="M0 0h24v24H0z"/><path d="M21 5v14h2V5h-2zm-4 14h2V5h-2v14zM14 5H2c-.55 0-1 .45-1 1v12c0 .55.45 1 1 1h12c.55 0 1-.45 1-1V6c0-.55-.45-1-1-1zM8 7.75c1.24 0 2.25 1.01 2.25 2.25S9.24 12.25 8 12.25 5.75 11.24 5.75 10 6.76 7.75 8 7.75zM12.5 17h-9v-.75c0-1.5 3-2.25 4.5-2.25s4.5.75 4.5 2.25V17z"/>
        </symbol>
        <symbol id="remove_from_queue" viewBox="0 0 100 100">
          <title>remove_from_queue</title>
          <path d="M0 0h24v24H0z"/><path d="M21 3H3c-1.11 0-2 .89-2 2v12a2 2 0 0 0 2 2h5v2h8v-2h5c1.1 0 1.99-.9 1.99-2L23 5a2 2 0 0 0-2-2zm0 14H3V5h18v12zm-5-7v2H8v-2h8z"/>
        </symbol>
        <symbol id="repeat" viewBox="0 0 100 100">
          <title>repeat</title>
          <path d="M0 0h24v24H0z"/><path d="M7 7h10v3l4-4-4-4v3H5v6h2V7zm10 10H7v-3l-4 4 4 4v-3h12v-6h-2v4z"/>
        </symbol>
        <symbol id="repeat_on" viewBox="0 0 100 100">
          <title>repeat_on</title>
          <path d="M0 0h24v24H0V0z"/><path d="M21 1H3c-1.1 0-2 .9-2 2v18c0 1.1.9 2 2 2h18c1.1 0 2-.9 2-2V3c0-1.1-.9-2-2-2zM7 7h10v3l4-4-4-4v3H5v6h2V7zm10 10H7v-3l-4 4 4 4v-3h12v-6h-2v4z"/>
        </symbol>
        <symbol id="repeat_one" viewBox="0 0 100 100">
          <title>repeat_one</title>
          <path d="M0 0h24v24H0z"/><path d="M7 7h10v3l4-4-4-4v3H5v6h2V7zm10 10H7v-3l-4 4 4 4v-3h12v-6h-2v4zm-4-2V9h-1l-2 1v1h1.5v4H13z"/>
        </symbol>
        <symbol id="repeat_one_on" viewBox="0 0 100 100">
          <title>repeat_one_on</title>
          <path d="M0 0h24v24H0V0z"/><path d="M21 1H3c-1.1 0-2 .9-2 2v18c0 1.1.9 2 2 2h18c1.1 0 2-.9 2-2V3c0-1.1-.9-2-2-2zM7 7h10v3l4-4-4-4v3H5v6h2V7zm10 10H7v-3l-4 4 4 4v-3h12v-6h-2v4zm-4-2V9h-1l-2 1v1h1.5v4H13z"/>
        </symbol>
        <symbol id="replay" viewBox="0 0 100 100">
          <title>replay</title>
          <path d="M0 0h24v24H0z"/><path d="M12 5V1L7 6l5 5V7c3.31 0 6 2.69 6 6s-2.69 6-6 6-6-2.69-6-6H4c0 4.42 3.58 8 8 8s8-3.58 8-8-3.58-8-8-8z"/>
        </symbol>
        <symbol id="replay_10" viewBox="0 0 100 100">
          <title>replay_10</title>
          <path d="M0 0h24v24H0z"/><path d="M11.99 5V1l-5 5 5 5V7c3.31 0 6 2.69 6 6s-2.69 6-6 6-6-2.69-6-6h-2c0 4.42 3.58 8 8 8s8-3.58 8-8-3.58-8-8-8z"/><path d="M10.89 16h-.85v-3.26l-1.01.31v-.69l1.77-.63h.09V16zM15.17 14.24c0 .32-.03.6-.1.82s-.17.42-.29.57-.28.26-.45.33-.37.1-.59.1-.41-.03-.59-.1-.33-.18-.46-.33-.23-.34-.3-.57-.11-.5-.11-.82v-.74c0-.32.03-.6.1-.82s.17-.42.29-.57.28-.26.45-.33.37-.1.59-.1.41.03.59.1.33.18.46.33.23.34.3.57.11.5.11.82v.74zm-.85-.86c0-.19-.01-.35-.04-.48s-.07-.23-.12-.31-.11-.14-.19-.17-.16-.05-.25-.05-.18.02-.25.05-.14.09-.19.17-.09.18-.12.31-.04.29-.04.48v.97c0 .19.01.35.04.48s.07.24.12.32.11.14.19.17.16.05.25.05.18-.02.25-.05.14-.09.19-.17.09-.19.11-.32.04-.29.04-.48v-.97z"/>
        </symbol>
        <symbol id="replay_30" viewBox="0 0 100 100">
          <title>replay_30</title>
          <path d="M0 0h24v24H0z"/><path d="M12 5V1L7 6l5 5V7c3.31 0 6 2.69 6 6s-2.69 6-6 6-6-2.69-6-6H4c0 4.42 3.58 8 8 8s8-3.58 8-8-3.58-8-8-8z"/><path d="M9.56 13.49h.45c.21 0 .37-.05.48-.16s.16-.25.16-.43a.538.538 0 0 0-.15-.39c-.05-.05-.11-.09-.18-.11s-.16-.04-.25-.04c-.08 0-.15.01-.22.03s-.13.05-.18.1-.09.09-.12.15-.05.13-.05.2h-.85a1.06 1.06 0 0 1 .41-.85c.13-.1.27-.18.44-.23s.35-.08.54-.08c.21 0 .41.03.59.08s.33.13.46.23.23.23.3.38.11.33.11.53a.842.842 0 0 1-.17.52 1.1 1.1 0 0 1-.48.39c.24.09.42.21.54.39s.18.38.18.61c0 .2-.04.38-.12.53s-.18.29-.32.39-.29.19-.48.24-.38.08-.6.08c-.18 0-.36-.02-.53-.07s-.33-.12-.46-.23-.25-.23-.33-.38-.12-.34-.12-.55h.85c0 .08.02.15.05.22s.07.12.13.17.12.09.2.11.16.04.25.04c.1 0 .19-.01.27-.04s.15-.07.2-.12.1-.11.13-.18.04-.15.04-.24c0-.11-.02-.21-.05-.29s-.08-.15-.14-.2-.13-.09-.22-.11-.18-.04-.29-.04h-.47v-.65zM15.3 14.24c0 .32-.03.6-.1.82s-.17.42-.29.57-.28.26-.45.33-.37.1-.59.1-.41-.03-.59-.1-.33-.18-.46-.33-.23-.34-.3-.57-.11-.5-.11-.82v-.74c0-.32.03-.6.1-.82s.17-.42.29-.57.28-.26.45-.33.37-.1.59-.1.41.03.59.1.33.18.46.33.23.34.3.57.11.5.11.82v.74zm-.85-.86c0-.19-.01-.35-.04-.48s-.07-.23-.12-.31-.11-.14-.19-.17-.16-.05-.25-.05-.18.02-.25.05-.14.09-.19.17-.09.18-.12.31-.04.29-.04.48v.97c0 .19.01.35.04.48s.07.24.12.32.11.14.19.17.16.05.25.05.18-.02.25-.05.14-.09.19-.17.09-.19.11-.32c.03-.13.04-.29.04-.48v-.97z"/>
        </symbol>
        <symbol id="replay_5" viewBox="0 0 100 100">
          <title>replay_5</title>
          <path d="M0 0h24v24H0z"/><path d="M12 5V1L7 6l5 5V7c3.31 0 6 2.69 6 6s-2.69 6-6 6-6-2.69-6-6H4c0 4.42 3.58 8 8 8s8-3.58 8-8-3.58-8-8-8z"/><path d="m10.69 13.9.25-2.17h2.39v.71h-1.7l-.11.92c.03-.02.07-.03.11-.05s.09-.04.15-.05.12-.03.18-.04.13-.02.2-.02c.21 0 .39.03.55.1s.3.16.41.28.2.27.25.45.09.38.09.6c0 .19-.03.37-.09.54s-.15.32-.27.45-.27.24-.45.31-.39.12-.64.12c-.18 0-.36-.03-.53-.08s-.32-.14-.46-.24-.24-.24-.32-.39-.13-.33-.13-.53h.84c.02.18.08.32.19.41s.25.15.42.15a.49.49 0 0 0 .45-.23c.04-.07.08-.15.11-.25s.03-.2.03-.31-.01-.21-.04-.31-.07-.17-.13-.24-.13-.12-.21-.15-.19-.05-.3-.05c-.08 0-.15.01-.2.02s-.11.03-.15.05-.08.05-.12.07-.07.06-.1.09l-.67-.16z"/>
        </symbol>
        <symbol id="replay_circle_filled" viewBox="0 0 100 100">
          <title>replay_circle_filled</title>
          <path d="M0 0h36v36H0V0z"/><path d="M33 18c0 8.28-6.72 15-15 15-8.28 0-15-6.72-15-15C3 9.72 9.72 3 18 3c8.28 0 15 6.72 15 15zM18 9V4.5l-6 6 6 6V12c3.31 0 6 2.69 6 6s-2.69 6-6 6-6-2.69-6-6H9a9 9 0 1 0 9-9z"/>
        </symbol>
        <symbol id="sd" viewBox="0 0 100 100">
          <title>sd</title>
          <path d="M0 0h24v24H0V0z"/><path d="M19 3H5a2 2 0 0 0-2 2v14a2 2 0 0 0 2 2h14c1.1 0 2-.9 2-2V5c0-1.1-.9-2-2-2zm-6 6h4c.55 0 1 .45 1 1v4c0 .55-.45 1-1 1h-4V9zm-3.5 4.5v-1H7c-.55 0-1-.45-1-1V10c0-.55.45-1 1-1h3c.55 0 1 .45 1 1v1H9.5v-.5h-2v1H10c.55 0 1 .45 1 1V14c0 .55-.45 1-1 1H7c-.55 0-1-.45-1-1v-1h1.5v.5h2zm5 0h2v-3h-2v3z"/>
        </symbol>
        <symbol id="shuffle" viewBox="0 0 100 100">
          <title>shuffle</title>
          <path d="M0 0h24v24H0z"/><path d="M10.59 9.17 5.41 4 4 5.41l5.17 5.17 1.42-1.41zM14.5 4l2.04 2.04L4 18.59 5.41 20 17.96 7.46 20 9.5V4h-5.5zm.33 9.41-1.41 1.41 3.13 3.13L14.5 20H20v-5.5l-2.04 2.04-3.13-3.13z"/>
        </symbol>
        <symbol id="shuffle_on" viewBox="0 0 100 100">
          <title>shuffle_on</title>
          <path d="M0 0h24v24H0V0z"/><path d="M21 1H3c-1.1 0-2 .9-2 2v18c0 1.1.9 2 2 2h18c1.1 0 2-.9 2-2V3c0-1.1-.9-2-2-2zM10.59 9.17 5.41 4 4 5.41l5.17 5.17 1.42-1.41zM14.5 4l2.04 2.04L4 18.59 5.41 20 17.96 7.46 20 9.5V4h-5.5zm.33 9.41-1.41 1.41 3.13 3.13L14.5 20H20v-5.5l-2.04 2.04-3.13-3.13z"/>
        </symbol>
        <symbol id="skip_next" viewBox="0 0 100 100">
          <title>skip_next</title>
          <path d="M0 0h24v24H0z"/><path d="m6 18 8.5-6L6 6v12zM16 6v12h2V6h-2z"/>
        </symbol>
        <symbol id="skip_previous" viewBox="0 0 100 100">
          <title>skip_previous</title>
          <path d="M0 0h24v24H0z"/><path d="M6 6h2v12H6zm3.5 6 8.5 6V6z"/>
        </symbol>
        <symbol id="slow_motion_video" viewBox="0 0 100 100">
          <title>slow_motion_video</title>
          <path d="M0 0h24v24H0V0z"/><path d="M13.05 9.79 10 7.5v9l3.05-2.29L16 12zm0 0L10 7.5v9l3.05-2.29L16 12zm0 0L10 7.5v9l3.05-2.29L16 12zM11 4.07V2.05c-2.01.2-3.84 1-5.32 2.21L7.1 5.69A7.941 7.941 0 0 1 11 4.07zM5.69 7.1 4.26 5.68A9.949 9.949 0 0 0 2.05 11h2.02c.18-1.46.76-2.79 1.62-3.9zM4.07 13H2.05c.2 2.01 1 3.84 2.21 5.32l1.43-1.43A7.868 7.868 0 0 1 4.07 13zm1.61 6.74A9.981 9.981 0 0 0 11 21.95v-2.02a7.941 7.941 0 0 1-3.9-1.62l-1.42 1.43zM22 12c0 5.16-3.92 9.42-8.95 9.95v-2.02C16.97 19.41 20 16.05 20 12s-3.03-7.41-6.95-7.93V2.05C18.08 2.58 22 6.84 22 12z"/>
        </symbol>
        <symbol id="snooze" viewBox="0 0 100 100">
          <title>snooze</title>
          <path d="M0 0h24v24H0z"/><path d="M7.88 3.39 6.6 1.86 2 5.71l1.29 1.53 4.59-3.85zM22 5.72l-4.6-3.86-1.29 1.53 4.6 3.86L22 5.72zM12 4c-4.97 0-9 4.03-9 9s4.02 9 9 9a9 9 0 0 0 0-18zm0 16c-3.87 0-7-3.13-7-7s3.13-7 7-7 7 3.13 7 7-3.13 7-7 7zm-3-9h3.63L9 15.2V17h6v-2h-3.63L15 10.8V9H9v2z"/>
        </symbol>
        <symbol id="sort_by_alpha" viewBox="0 0 100 100">
          <title>sort_by_alpha</title>
          <path d="M0 0h24v24H0V0zm0 0h24v24H0V0zm.75.75h22.5v22.5H.75z"/><path d="M14.94 4.66h-4.72l2.36-2.36zm-4.69 14.71h4.66l-2.33 2.33zM6.1 6.27 1.6 17.73h1.84l.92-2.45h5.11l.92 2.45h1.84L7.74 6.27H6.1zm-1.13 7.37 1.94-5.18 1.94 5.18H4.97zm10.76 2.5h6.12v1.59h-8.53v-1.29l5.92-8.56h-5.88v-1.6h8.3v1.26l-5.93 8.6z"/>
        </symbol>
        <symbol id="speed" viewBox="0 0 100 100">
          <title>speed</title>
          <path d="M0 0h24v24H0z"/><path d="m20.38 8.57-1.23 1.85a8 8 0 0 1-.22 7.58H5.07A8 8 0 0 1 15.58 6.85l1.85-1.23A10 10 0 0 0 3.35 19a2 2 0 0 0 1.72 1h13.85a2 2 0 0 0 1.74-1 10 10 0 0 0-.27-10.44zm-9.79 6.84a2 2 0 0 0 2.83 0l5.66-8.49-8.49 5.66a2 2 0 0 0 0 2.83z"/>
        </symbol>
        <symbol id="stop" viewBox="0 0 100 100">
          <title>stop</title>
          <path d="M0 0h24v24H0z"/><path d="M6 6h12v12H6z"/>
        </symbol>
        <symbol id="stop_circle" viewBox="0 0 100 100">
          <title>stop_circle</title>
          <path d="M0 0h24v24H0z"/><path d="M8 16h8V8H8v8zm4-14C6.48 2 2 6.48 2 12s4.48 10 10 10 10-4.48 10-10S17.52 2 12 2z"/>
        </symbol>
        <symbol id="subscriptions" viewBox="0 0 100 100">
          <title>subscriptions</title>
          <path d="M0 0h24v24H0z"/><path d="M20 8H4V6h16v2zm-2-6H6v2h12V2zm4 10v8c0 1.1-.9 2-2 2H4c-1.1 0-2-.9-2-2v-8c0-1.1.9-2 2-2h16c1.1 0 2 .9 2 2zm-6 4-6-3.27v6.53L16 16z"/>
        </symbol>
        <symbol id="subtitles" viewBox="0 0 100 100">
          <title>subtitles</title>
          <path d="M0 0h24v24H0z"/><path d="M20 4H4c-1.1 0-2 .9-2 2v12c0 1.1.9 2 2 2h16c1.1 0 2-.9 2-2V6c0-1.1-.9-2-2-2zM4 12h4v2H4v-2zm10 6H4v-2h10v2zm6 0h-4v-2h4v2zm0-4H10v-2h10v2z"/>
        </symbol>
        <symbol id="surround_sound" viewBox="0 0 100 100">
          <title>surround_sound</title>
          <path d="M0 0h24v24H0z"/><path d="M20 4H4c-1.1 0-2 .9-2 2v12c0 1.1.9 2 2 2h16c1.1 0 2-.9 2-2V6c0-1.1-.9-2-2-2zM7.76 16.24l-1.41 1.41A7.909 7.909 0 0 1 4 12c0-2.05.78-4.1 2.34-5.66l1.41 1.41C6.59 8.93 6 10.46 6 12s.59 3.07 1.76 4.24zM12 16c-2.21 0-4-1.79-4-4s1.79-4 4-4 4 1.79 4 4-1.79 4-4 4zm5.66 1.66-1.41-1.41C17.41 15.07 18 13.54 18 12s-.59-3.07-1.76-4.24l1.41-1.41A7.909 7.909 0 0 1 20 12c0 2.05-.78 4.1-2.34 5.66zM12 10c-1.1 0-2 .9-2 2s.9 2 2 2 2-.9 2-2-.9-2-2-2z"/>
        </symbol>
        <symbol id="video_call" viewBox="0 0 100 100">
          <title>video_call</title>
          <path d="M0 0h24v24H0V0z"/><path d="M17 10.5V7c0-.55-.45-1-1-1H4c-.55 0-1 .45-1 1v10c0 .55.45 1 1 1h12c.55 0 1-.45 1-1v-3.5l4 4v-11l-4 4zM14 13h-3v3H9v-3H6v-2h3V8h2v3h3v2z"/>
        </symbol>
        <symbol id="video_label" viewBox="0 0 100 100">
          <title>video_label</title>
          <path d="M0 0h24v24H0V0z"/><path d="M21 3H3c-1.1 0-2 .9-2 2v14c0 1.1.9 2 2 2h18c1.1 0 2-.9 2-2V5c0-1.1-.9-2-2-2zm0 13H3V5h18v11z"/>
        </symbol>
        <symbol id="video_library" viewBox="0 0 100 100">
          <title>video_library</title>
          <path d="M0 0h24v24H0z"/><path d="M4 6H2v14c0 1.1.9 2 2 2h14v-2H4V6zm16-4H8c-1.1 0-2 .9-2 2v12c0 1.1.9 2 2 2h12c1.1 0 2-.9 2-2V4c0-1.1-.9-2-2-2zm-8 12.5v-9l6 4.5-6 4.5z"/>
        </symbol>
        <symbol id="video_settings" viewBox="0 0 100 100">
          <title>video_settings</title>
          <path d="M0 0h24v24H0z"/><path d="M3 6h18v5h2V6c0-1.1-.9-2-2-2H3c-1.1 0-2 .9-2 2v12c0 1.1.9 2 2 2h9v-2H3V6z"/><path d="M15 12 9 8v8zM22.71 18.43c.03-.29.04-.58.01-.86l1.07-.85c.1-.08.12-.21.06-.32l-1.03-1.79c-.06-.11-.19-.15-.31-.11l-1.28.5a3.44 3.44 0 0 0-.75-.42l-.2-1.36a.249.249 0 0 0-.25-.22h-2.07c-.12 0-.23.09-.25.21l-.2 1.36c-.26.11-.51.26-.74.42l-1.28-.5c-.12-.05-.25 0-.31.11l-1.03 1.79c-.06.11-.04.24.06.32l1.07.86c-.03.29-.04.58-.01.86l-1.07.85c-.1.08-.12.21-.06.32l1.03 1.79c.06.11.19.15.31.11l1.27-.5c.23.17.48.31.75.42l.2 1.36c.02.12.12.21.25.21h2.07c.12 0 .23-.09.25-.21l.2-1.36c.26-.11.51-.26.74-.42l1.28.5c.12.05.25 0 .31-.11l1.03-1.79c.06-.11.04-.24-.06-.32l-1.06-.85zM19 19.5c-.83 0-1.5-.67-1.5-1.5s.67-1.5 1.5-1.5 1.5.67 1.5 1.5-.67 1.5-1.5 1.5z"/>
        </symbol>
        <symbol id="videocam" viewBox="0 0 100 100">
          <title>videocam</title>
          <path d="M0 0h24v24H0z"/><path d="M17 10.5V7c0-.55-.45-1-1-1H4c-.55 0-1 .45-1 1v10c0 .55.45 1 1 1h12c.55 0 1-.45 1-1v-3.5l4 4v-11l-4 4z"/>
        </symbol>
        <symbol id="videocam_off" viewBox="0 0 100 100">
          <title>videocam_off</title>
          <path d="M0 0h24v24H0zm0 0h24v24H0z"/><path d="m21 6.5-4 4V7c0-.55-.45-1-1-1H9.82L21 17.18V6.5zM3.27 2 2 3.27 4.73 6H4c-.55 0-1 .45-1 1v10c0 .55.45 1 1 1h12c.21 0 .39-.08.54-.18L19.73 21 21 19.73 3.27 2z"/>
        </symbol>
        <symbol id="volume_down" viewBox="0 0 100 100">
          <title>volume_down</title>
          <path d="M0 0h24v24H0z"/><path d="M18.5 12A4.5 4.5 0 0 0 16 7.97v8.05c1.48-.73 2.5-2.25 2.5-4.02zM5 9v6h4l5 5V4L9 9H5z"/>
        </symbol>
        <symbol id="volume_down_alt" viewBox="0 0 100 100">
          <title>volume_down_alt</title>
          <path d="M0 0h24v24H0z"/><path d="M14 7.97v8.05c1.48-.73 2.5-2.25 2.5-4.02S15.48 8.71 14 7.97zM3 9v6h4l5 5V4L7 9H3z"/>
        </symbol>
        <symbol id="volume_mute" viewBox="0 0 100 100">
          <title>volume_mute</title>
          <path d="M0 0h24v24H0z"/><path d="M7 9v6h4l5 5V4l-5 5H7z"/>
        </symbol>
        <symbol id="volume_off" viewBox="0 0 100 100">
          <title>volume_off</title>
          <path d="M0 0h24v24H0z"/><path d="M16.5 12A4.5 4.5 0 0 0 14 7.97v2.21l2.45 2.45c.03-.2.05-.41.05-.63zm2.5 0c0 .94-.2 1.82-.54 2.64l1.51 1.51A8.796 8.796 0 0 0 21 12c0-4.28-2.99-7.86-7-8.77v2.06c2.89.86 5 3.54 5 6.71zM4.27 3 3 4.27 7.73 9H3v6h4l5 5v-6.73l4.25 4.25c-.67.52-1.42.93-2.25 1.18v2.06a8.99 8.99 0 0 0 3.69-1.81L19.73 21 21 19.73l-9-9L4.27 3zM12 4 9.91 6.09 12 8.18V4z"/>
        </symbol>
        <symbol id="volume_up" viewBox="0 0 100 100">
          <title>volume_up</title>
          <path d="M0 0h24v24H0z"/><path d="M3 9v6h4l5 5V4L7 9H3zm13.5 3A4.5 4.5 0 0 0 14 7.97v8.05c1.48-.73 2.5-2.25 2.5-4.02zM14 3.23v2.06c2.89.86 5 3.54 5 6.71s-2.11 5.85-5 6.71v2.06c4.01-.91 7-4.49 7-8.77s-2.99-7.86-7-8.77z"/>
        </symbol>
        <symbol id="web" viewBox="0 0 100 100">
          <title>web</title>
          <path d="M0 0h24v24H0z"/><path d="M20 4H4c-1.1 0-1.99.9-1.99 2L2 18c0 1.1.9 2 2 2h16c1.1 0 2-.9 2-2V6c0-1.1-.9-2-2-2zm-5 14H4v-4h11v4zm0-5H4V9h11v4zm5 5h-4V9h4v9z"/>
        </symbol>
        <symbol id="web_asset" viewBox="0 0 100 100">
          <title>web_asset</title>
          <path d="M0 0h24v24H0z"/><path d="M19 4H5a2 2 0 0 0-2 2v12a2 2 0 0 0 2 2h14c1.1 0 2-.9 2-2V6a2 2 0 0 0-2-2zm0 14H5V8h14v10z"/>
        </symbol>
        <symbol id="web_asset_off" viewBox="0 0 100 100">
          <title>web_asset_off</title>
          <path d="M0 0h24v24H0z"/><path d="M6.83 4H20a2 2 0 0 1 2 2v12c0 .34-.09.66-.23.94L20 17.17V8h-9.17l-4-4zm13.66 19.31L17.17 20H4a2 2 0 0 1-2-2V6c0-.34.08-.66.23-.94L.69 3.51 2.1 2.1l19.8 19.8-1.41 1.41zM15.17 18l-10-10H4v10h11.17z"/>
        </symbol>
    </defs>
</svg>
