<?xml version="1.0" encoding="UTF-8" standalone="no"?>
<svg
    xmlns="http://www.w3.org/2000/svg"
    xmlns:svg="http://www.w3.org/2000/svg"
    xmlns:rdf="http://www.w3.org/1999/02/22-rdf-syntax-ns#" 
    xmlns:ns2="http://creativecommons.org/ns#" 
    xmlns:dc="http://purl.org/dc/elements/1.1/" 
    xmlns:cc="http://creativecommons.org/ns#"         
    xmlns:xlink="http://www.w3.org/1999/xlink" 
    width="720"
    height="1008"
    
    version="1.1"
    id="svg2"
    style="fill:none;stroke:black">
    <title>Material Design Icons [Social Set]</title>
    <desc>Material Design Icons are the official open-source icons featured in the Google Material Design specification.</desc>
    <metadata>
        <rdf:RDF>
            <cc:Work rdf:about="">
                <dc:format>image/svg+xml</dc:format>
                <dc:type rdf:resource="http://purl.org/dc/dcmitype/StillImage" />
                <dc:title>Material Design Icons [Social Set]</dc:title>
                <dc:date>2021-11-08</dc:date>
                <dc:creator>
                    <cc:Agent>
                        <dc:title>Google</dc:title>
                    </cc:Agent>
                </dc:creator>
                <dc:rights>
                    <cc:Agent>
                        <dc:title>Open Source</dc:title>
                    </cc:Agent>
                </dc:rights>
                <dc:language>English</dc:language>

                <dc:source>https://github.com/google/material-design-icons</dc:source>
                <dc:description>Material Design Icons are the official open-source icons featured in the Google Material Design specification.</dc:description>
            </cc:Work>
        </rdf:RDF>
    </metadata>

    <defs>
        <symbol id="6_ft_apart" viewBox="0 0 100 100">
          <title>6_ft_apart</title>
          <path d="M0 0h24v24H0z"/><path d="M6 6c1.1 0 2-.9 2-2s-.9-2-2-2-2 .9-2 2 .9 2 2 2zm4 3.43c0-.81-.48-1.53-1.22-1.85a6.95 6.95 0 0 0-5.56 0A2.01 2.01 0 0 0 2 9.43V10h8v-.57zM18 6c1.1 0 2-.9 2-2s-.9-2-2-2-2 .9-2 2 .9 2 2 2zm4 3.43c0-.81-.48-1.53-1.22-1.85a6.95 6.95 0 0 0-5.56 0A2.01 2.01 0 0 0 14 9.43V10h8v-.57zM19 17v-2.01L5 15v2l-3-3 3-3v2.01L19 13v-2l3 3-3 3zm-9 2v-1H7.5c-.28 0-.5.22-.5.5v3c0 .28.22.5.5.5h2c.28 0 .5-.22.5-.5V20c0-.28-.22-.5-.5-.5H8V19h2zm-1 1.5v.5H8v-.5h1zm8.5-1.5h-1v3h-1v-3h-1v-1h3v1zm-5 0v.5h1v1h-1V22h-1v-4H14v1h-1.5z"/>
        </symbol>
        <symbol id="add_moderator" viewBox="0 0 100 100">
          <title>add_moderator</title>
          <path d="M0 0h24v24H0z"/><path d="M0 0h24v24H0z"/><path d="M13.22 22.61c-.4.15-.8.29-1.22.39-5.16-1.26-9-6.45-9-12V5l9-4 9 4v6c0 .9-.11 1.78-.3 2.65-.81-.41-1.73-.65-2.7-.65-3.31 0-6 2.69-6 6 0 1.36.46 2.61 1.22 3.61zM19 20v2.99s-1.99.01-2 0V20h-3v-2h3v-3h2v3h3v2h-3z"/>
        </symbol>
        <symbol id="add_reaction" viewBox="0 0 100 100">
          <title>add_reaction</title>
          <path d="M0 0h24v24H0z"/><path d="M18 9V7h-2V2.84A9.929 9.929 0 0 0 11.99 2C6.47 2 2 6.48 2 12s4.47 10 9.99 10C17.52 22 22 17.52 22 12c0-1.05-.17-2.05-.47-3H18zm-2.5-1c.83 0 1.5.67 1.5 1.5s-.67 1.5-1.5 1.5-1.5-.67-1.5-1.5.67-1.5 1.5-1.5zm-7 0c.83 0 1.5.67 1.5 1.5S9.33 11 8.5 11 7 10.33 7 9.5 7.67 8 8.5 8zm3.5 9.5c-2.33 0-4.31-1.46-5.11-3.5h10.22c-.8 2.04-2.78 3.5-5.11 3.5zM22 3h2v2h-2v2h-2V5h-2V3h2V1h2v2z"/>
        </symbol>
        <symbol id="architecture" viewBox="0 0 100 100">
          <title>architecture</title>
          <path d="M0 0h24v24H0z"/><path d="M6.36 18.78 6.61 21l1.62-1.54 2.77-7.6c-.68-.17-1.28-.51-1.77-.98l-2.87 7.9zM14.77 10.88c-.49.47-1.1.81-1.77.98l2.77 7.6L17.39 21l.26-2.22-2.88-7.9zM15 8c0-1.3-.84-2.4-2-2.82V3h-2v2.18C9.84 5.6 9 6.7 9 8c0 1.66 1.34 3 3 3s3-1.34 3-3zm-3 1c-.55 0-1-.45-1-1s.45-1 1-1 1 .45 1 1-.45 1-1 1z"/>
        </symbol>
        <symbol id="back_hand" viewBox="0 0 100 100">
          <title>back_hand</title>
          <path d="M0 0h24v24H0z"/><path d="M13 24c-3.26 0-6.19-1.99-7.4-5.02l-3.03-7.61a1 1 0 0 1 1.24-1.32l.79.26c.56.18 1.02.61 1.24 1.16L7.25 15H8V3.25a1.25 1.25 0 0 1 2.5 0V12h1V1.25a1.25 1.25 0 0 1 2.5 0V12h1V2.75a1.25 1.25 0 0 1 2.5 0V12h1V5.75a1.25 1.25 0 0 1 2.5 0V16c0 4.42-3.58 8-8 8z"/>
        </symbol>
        <symbol id="cake" viewBox="0 0 100 100">
          <title>cake</title>
          <path d="M0 0h24v24H0z"/><path d="M12 6a2 2 0 0 0 2-2c0-.38-.1-.73-.29-1.03L12 0l-1.71 2.97c-.19.3-.29.65-.29 1.03 0 1.1.9 2 2 2zm4.6 9.99-1.07-1.07-1.08 1.07c-1.3 1.3-3.58 1.31-4.89 0l-1.07-1.07-1.09 1.07C6.75 16.64 5.88 17 4.96 17c-.73 0-1.4-.23-1.96-.61V21c0 .55.45 1 1 1h16c.55 0 1-.45 1-1v-4.61c-.56.38-1.23.61-1.96.61-.92 0-1.79-.36-2.44-1.01zM18 9h-5V7h-2v2H6c-1.66 0-3 1.34-3 3v1.54c0 1.08.88 1.96 1.96 1.96.52 0 1.02-.2 1.38-.57l2.14-2.13 2.13 2.13c.74.74 2.03.74 2.77 0l2.14-2.13 2.13 2.13c.37.37.86.57 1.38.57 1.08 0 1.96-.88 1.96-1.96V12C21 10.34 19.66 9 18 9z"/>
        </symbol>
        <symbol id="catching_pokemon" viewBox="0 0 100 100">
          <title>catching_pokemon</title>
          <path d="M0 0h24v24H0z"/><path d="M14.5 12a2.5 2.5 0 0 1-5 0 2.5 2.5 0 0 1 5 0zm7.5 0c0 5.52-4.48 10-10 10S2 17.52 2 12 6.48 2 12 2s10 4.48 10 10zm-2 0h-4c0-2.21-1.79-4-4-4s-4 1.79-4 4H4c0 4.41 3.59 8 8 8s8-3.59 8-8z"/>
        </symbol>
        <symbol id="clean_hands" viewBox="0 0 100 100">
          <title>clean_hands</title>
          <path d="M0 0h24v24H0z"/><path d="m16.99 5 .63 1.37 1.37.63-1.37.63L16.99 9l-.63-1.37L14.99 7l1.37-.63.63-1.37M11 6.13V4h2c.57 0 1.1.17 1.55.45l1.43-1.43A4.899 4.899 0 0 0 13 2H7.5v2H9v2.14A5.007 5.007 0 0 0 5.26 9.5h3.98L15 11.65v-.62a5 5 0 0 0-4-4.9zM1 22h4V11H1v11zm19-5h-7l-2.09-.73.33-.94L13 16h2.82c.65 0 1.18-.53 1.18-1.18 0-.49-.31-.93-.77-1.11L8.97 11H7v9.02L14 22l8-3c-.01-1.1-.89-2-2-2zm0-3c1.1 0 2-.9 2-2s-2-4-2-4-2 2.9-2 4 .9 2 2 2z"/>
        </symbol>
        <symbol id="compost" viewBox="0 0 100 100">
          <title>compost</title>
          <path d="M0 0h24v24H0z"/><path d="M12.87 11.81A2.5 2.5 0 0 1 15 8h1c1.51 0 2-1 2-1s.55 6-3 6c-.49 0-.94-.14-1.32-.38-.24.64-.59 1.76-.76 2.96 1.26.22 2.28.89 2.77 1.77A6.505 6.505 0 0 0 18.5 12h3c0 5.24-4.26 9.5-9.5 9.5S2.5 17.24 2.5 12 6.76 2.5 12 2.5V0l4 4-4 4V5.5c-3.58 0-6.5 2.92-6.5 6.5 0 2.21 1.11 4.17 2.81 5.35.51-.92 1.63-1.62 2.98-1.8-.09-.69-.26-1.42-.49-2.03-.35.3-.8.48-1.3.48-1.1 0-2-.9-2-2v-.99c0-.56-.19-1.09-.5-1.51 0 0 4.45-.23 4.5 2.5 0 .29-.06.56-.17.8-.42-.32-.86-.6-1.33-.8.58.43 1.37 1.37 2 2.6.67-1.62 1.68-3.27 3-4.6-.76.52-1.47 1.12-2.13 1.81z"/>
        </symbol>
        <symbol id="connect_without_contact" viewBox="0 0 100 100">
          <title>connect_without_contact</title>
          <path d="M0 0h24v24H0z"/><path d="M11 14H9a9 9 0 0 1 9-9v2c-3.87 0-7 3.13-7 7zm7-3V9c-2.76 0-5 2.24-5 5h2c0-1.66 1.34-3 3-3zM7 4c0-1.11-.89-2-2-2s-2 .89-2 2 .89 2 2 2 2-.89 2-2zm4.45.5h-2A2.99 2.99 0 0 1 6.5 7h-3C2.67 7 2 7.67 2 8.5V11h6V8.74a4.97 4.97 0 0 0 3.45-4.24zM19 17c1.11 0 2-.89 2-2s-.89-2-2-2-2 .89-2 2 .89 2 2 2zm1.5 1h-3a2.99 2.99 0 0 1-2.95-2.5h-2A4.97 4.97 0 0 0 16 19.74V22h6v-2.5c0-.83-.67-1.5-1.5-1.5z"/>
        </symbol>
        <symbol id="construction" viewBox="0 0 100 100">
          <title>construction</title>
          <path d="M0 0h24v24H0z"/><path d="m13.783 15.172 2.121-2.121 5.996 5.996-2.121 2.121zM17.5 10c1.93 0 3.5-1.57 3.5-3.5 0-.58-.16-1.12-.41-1.6l-2.7 2.7-1.49-1.49 2.7-2.7c-.48-.25-1.02-.41-1.6-.41C15.57 3 14 4.57 14 6.5c0 .41.08.8.21 1.16l-1.85 1.85-1.78-1.78.71-.71-1.41-1.41L12 3.49a3 3 0 0 0-4.24 0L4.22 7.03l1.41 1.41H2.81l-.71.71 3.54 3.54.71-.71V9.15l1.41 1.41.71-.71 1.78 1.78-7.41 7.41 2.12 2.12L16.34 9.79c.36.13.75.21 1.16.21z"/>
        </symbol>
        <symbol id="coronavirus" viewBox="0 0 100 100">
          <title>coronavirus</title>
          <path d="M0 0h24v24H0z"/><path d="M21.25 10.5c-.41 0-.75.34-.75.75h-1.54a6.978 6.978 0 0 0-1.52-3.65l1.09-1.09.01.01c.29.29.77.29 1.06 0s.29-.77 0-1.06L18.54 4.4a.754.754 0 0 0-1.06 0c-.29.29-.29.76-.01 1.05l-1.09 1.09a7.015 7.015 0 0 0-3.64-1.51V3.5h.01c.41 0 .75-.34.75-.75S13.16 2 12.75 2h-1.5c-.41 0-.75.34-.75.75s.33.74.74.75v1.55c-1.37.14-2.62.69-3.64 1.51L6.51 5.47l.01-.01c.29-.29.29-.77 0-1.06a.754.754 0 0 0-1.06 0L4.4 5.46c-.29.29-.29.77 0 1.06.29.29.76.29 1.05.01l1.09 1.09a6.89 6.89 0 0 0-1.5 3.63H3.5c0-.41-.34-.75-.75-.75s-.75.34-.75.75v1.5c0 .41.34.75.75.75s.75-.34.75-.75h1.54c.15 1.37.69 2.61 1.5 3.63l-1.09 1.09a.742.742 0 0 0-1.05.01c-.29.29-.29.77 0 1.06l1.06 1.06c.29.29.77.29 1.06 0 .29-.29.29-.77 0-1.06l-.01-.01 1.09-1.09c1.02.82 2.26 1.36 3.63 1.51v1.55c-.41.01-.74.34-.74.75s.34.75.75.75h1.5c.41 0 .75-.34.75-.75s-.34-.75-.75-.75h-.01v-1.54c1.37-.14 2.62-.69 3.64-1.51l1.09 1.09c-.29.29-.28.76.01 1.05.29.29.77.29 1.06 0l1.06-1.06c.29-.29.29-.77 0-1.06a.754.754 0 0 0-1.06 0l-.01.01-1.09-1.09a7.025 7.025 0 0 0 1.52-3.65h1.54c0 .41.34.75.75.75s.75-.34.75-.75v-1.5c.01-.4-.33-.74-.74-.74zM13.75 8c.55 0 1 .45 1 1s-.45 1-1 1-1-.45-1-1 .45-1 1-1zM12 13c-.55 0-1-.45-1-1s.45-1 1-1 1 .45 1 1-.45 1-1 1zm-1.75-5c.55 0 1 .45 1 1s-.45 1-1 1-1-.45-1-1 .45-1 1-1zM8.5 13c-.55 0-1-.45-1-1s.45-1 1-1 1 .45 1 1-.45 1-1 1zm1.75 3c-.55 0-1-.45-1-1s.45-1 1-1 1 .45 1 1-.45 1-1 1zm3.5 0c-.55 0-1-.45-1-1s.45-1 1-1 1 .45 1 1-.45 1-1 1zm.75-4c0-.55.45-1 1-1s1 .45 1 1-.45 1-1 1-1-.45-1-1z"/>
        </symbol>
        <symbol id="cruelty_free" viewBox="0 0 100 100">
          <title>cruelty_free</title>
          <path d="M0 0h24v24H0z"/><path d="M16.84 14.52c-.26-.19-.62-.63-.79-.84C17.24 12.01 19 8.87 19 5c0-1.95-.74-3-2-3-1.54 0-3.96 2.06-5 5.97C10.96 4.06 8.54 2 7 2 5.74 2 5 3.05 5 5c0 3.87 1.76 7.01 2.95 8.68-.17.21-.53.65-.79.84-.5.41-1.66 1.37-1.66 2.98 0 2.21 1.79 4 4 4 1.55 0 2.5-.56 2.5-.56s.95.56 2.5.56c2.21 0 4-1.79 4-4 0-1.61-1.16-2.57-1.66-2.98zM9.35 12.2C8.34 10.7 7 8.12 7 5c0-.49.06-.8.12-.97.94.31 3.24 2.71 3.38 7.64-.47.12-.84.3-1.15.53zm1.15 4.55c-.28 0-.5-.34-.5-.75s.22-.75.5-.75.5.34.5.75-.22.75-.5.75zM12 19.5c-.55 0-1-.72-1-1s.45-.5 1-.5 1 .22 1 .5-.45 1-1 1zm1.5-2.75c-.28 0-.5-.34-.5-.75s.22-.75.5-.75.5.34.5.75-.22.75-.5.75zm0-5.08c.14-4.93 2.44-7.33 3.38-7.64.06.17.12.48.12.97 0 3.12-1.34 5.7-2.35 7.2-.31-.23-.68-.41-1.15-.53z"/>
        </symbol>
        <symbol id="deck" viewBox="0 0 100 100">
          <title>deck</title>
          <path d="M0 0h24v24H0z"/><path d="M22 9 12 2 2 9h9v13h2V9z"/><path d="m4.14 12-1.96.37.82 4.37V22h2l.02-4H7v4h2v-6H4.9zM19.1 16H15v6h2v-4h1.98l.02 4h2v-5.26l.82-4.37-1.96-.37z"/>
        </symbol>
        <symbol id="domain" viewBox="0 0 100 100">
          <title>domain</title>
          <path d="M0 0h24v24H0V0z"/><path d="M12 7V3H2v18h20V7H12zM6 19H4v-2h2v2zm0-4H4v-2h2v2zm0-4H4V9h2v2zm0-4H4V5h2v2zm4 12H8v-2h2v2zm0-4H8v-2h2v2zm0-4H8V9h2v2zm0-4H8V5h2v2zm10 12h-8v-2h2v-2h-2v-2h2v-2h-2V9h8v10zm-2-8h-2v2h2v-2zm0 4h-2v2h2v-2z"/>
        </symbol>
        <symbol id="downhill_skiing" viewBox="0 0 100 100">
          <title>downhill_skiing</title>
          <path d="M0 0h24v24H0z"/><path d="M18.5 4.5c0 1.1-.9 2-2 2s-2-.9-2-2 .9-2 2-2 2 .9 2 2zm-2.72 16.4.76.27a5.933 5.933 0 0 0 4.34-.17L22 22.13c-1.05.55-2.24.87-3.5.87-.86 0-1.68-.14-2.45-.41L2 17.47l.5-1.41 6.9 2.51 1.72-4.44-3.57-3.73c-.89-.94-.67-2.47.45-3.12l3.48-2.01c1.1-.64 2.52-.1 2.91 1.11l.33 1.08a5.017 5.017 0 0 0 2.83 3.14l.52-1.6 1.43.46-1.12 3.45A7.029 7.029 0 0 1 13 8.59l-2.53 1.45 3.03 3.46-2.22 5.76 3.09 1.12 2.1-6.44c.46.18.94.31 1.44.41l-2.13 6.55z"/>
        </symbol>
        <symbol id="edit_notifications" viewBox="0 0 100 100">
          <title>edit_notifications</title>
          <path d="M0 0h24v24H0z"/><path d="m17.58 6.25 1.77 1.77L14.37 13H12.6v-1.77l4.98-4.98zm3.27-.44-1.06-1.06c-.2-.2-.51-.2-.71 0l-.85.85L20 7.37l.85-.85c.2-.2.2-.52 0-.71zM18 12.2V17h2v2H4v-2h2v-7c0-2.79 1.91-5.14 4.5-5.8v-.7c0-.83.67-1.5 1.5-1.5s1.5.67 1.5 1.5v.7c.82.21 1.57.59 2.21 1.09L10.6 10.4V15h4.6l2.8-2.8zM10 20h4c0 1.1-.9 2-2 2s-2-.9-2-2z"/>
        </symbol>
        <symbol id="elderly" viewBox="0 0 100 100">
          <title>elderly</title>
          <path d="M0 0h24v24H0z"/><path d="M13.5 5.5c1.1 0 2-.9 2-2s-.9-2-2-2-2 .9-2 2 .9 2 2 2zm6.5 7V23h-1V12.5c0-.28-.22-.5-.5-.5s-.5.22-.5.5v1h-1v-.69a6.02 6.02 0 0 1-3.51-2.52c-.31.87-.49 1.78-.49 2.71 0 .23.02.46.03.69L15 16.5V23h-2v-5l-1.78-2.54L11 19l-3 4-1.6-1.2L9 18.33V13c0-1.15.18-2.29.5-3.39l-1.5.85V14H6V9.3l5.4-3.07v.01a2 2 0 0 1 1.94.03c.36.21.63.51.8.85l.79 1.67A3.987 3.987 0 0 0 18.5 11c.83 0 1.5.67 1.5 1.5z"/>
        </symbol>
        <symbol id="emoji_emotions" viewBox="0 0 100 100">
          <title>emoji_emotions</title>
          <path d="M0 0h24v24H0z"/><path d="M11.99 2C6.47 2 2 6.48 2 12s4.47 10 9.99 10C17.52 22 22 17.52 22 12S17.52 2 11.99 2zM8.5 8c.83 0 1.5.67 1.5 1.5S9.33 11 8.5 11 7 10.33 7 9.5 7.67 8 8.5 8zM12 18c-2.28 0-4.22-1.66-5-4h10c-.78 2.34-2.72 4-5 4zm3.5-7c-.83 0-1.5-.67-1.5-1.5S14.67 8 15.5 8s1.5.67 1.5 1.5-.67 1.5-1.5 1.5z"/>
        </symbol>
        <symbol id="emoji_events" viewBox="0 0 100 100">
          <title>emoji_events</title>
          <path d="M0 0h24v24H0z"/><path d="M19 5h-2V3H7v2H5c-1.1 0-2 .9-2 2v1c0 2.55 1.92 4.63 4.39 4.94A5.01 5.01 0 0 0 11 15.9V19H7v2h10v-2h-4v-3.1a5.01 5.01 0 0 0 3.61-2.96C19.08 12.63 21 10.55 21 8V7c0-1.1-.9-2-2-2zM5 8V7h2v3.82C5.84 10.4 5 9.3 5 8zm14 0c0 1.3-.84 2.4-2 2.82V7h2v1z"/>
        </symbol>
        <symbol id="emoji_flags" viewBox="0 0 100 100">
          <title>emoji_flags</title>
          <path d="M0 0h24v24H0z"/><path d="m14 9-1-2H7V5.72c.6-.34 1-.98 1-1.72 0-1.1-.9-2-2-2s-2 .9-2 2c0 .74.4 1.38 1 1.72V21h2v-4h5l1 2h7V9h-6zm4 8h-4l-1-2H7V9h5l1 2h5v6z"/>
        </symbol>
        <symbol id="emoji_food_beverage" viewBox="0 0 100 100">
          <title>emoji_food_beverage</title>
          <path d="M0 0h24v24H0z"/><path d="M20 3H9v2.4l1.81 1.45c.12.09.19.24.19.39v4.26c0 .28-.22.5-.5.5h-4c-.28 0-.5-.22-.5-.5V7.24c0-.15.07-.3.19-.39L8 5.4V3H4v10c0 2.21 1.79 4 4 4h6c2.21 0 4-1.79 4-4v-3h2a2 2 0 0 0 2-2V5c0-1.11-.89-2-2-2zm0 5h-2V5h2v3zM4 19h16v2H4z"/>
        </symbol>
        <symbol id="emoji_nature" viewBox="0 0 100 100">
          <title>emoji_nature</title>
          <path d="M0 0h24v24H0z"/><path d="M21.94 4.88A1.32 1.32 0 0 0 20.68 4H19.6l-.31-.97C19.15 2.43 18.61 2 18 2s-1.15.43-1.29 1.04L16.4 4h-1.07c-.57 0-1.08.35-1.26.88-.19.56.04 1.17.56 1.48l.87.52-.4 1.24c-.23.58-.04 1.25.45 1.62.23.17.51.26.78.26.31 0 .61-.11.86-.32l.81-.7.81.7c.25.21.55.32.86.32.27 0 .55-.09.78-.26.5-.37.68-1.04.45-1.62l-.39-1.24.87-.52c.51-.31.74-.92.56-1.48zM18 7c-.55 0-1-.45-1-1s.45-1 1-1 1 .45 1 1-.45 1-1 1zM13.49 10.51c-.43-.43-.94-.73-1.49-.93V8h-1v1.38c-.11-.01-.23-.03-.34-.03-1.02 0-2.05.39-2.83 1.17-.16.16-.3.34-.43.53L6 10.52a3.01 3.01 0 0 0-3.83 1.82c-.27.75-.23 1.57.12 2.29.23.48.58.87 1 1.16-.38 1.35-.06 2.85 1 3.91a3.981 3.981 0 0 0 3.91 1c.29.42.68.77 1.16 1 .42.2.85.3 1.29.3.34 0 .68-.06 1.01-.17a3.007 3.007 0 0 0 1.82-3.85l-.52-1.37c.18-.13.36-.27.53-.43.87-.87 1.24-2.04 1.14-3.17H16v-1h-1.59c-.19-.55-.49-1.06-.92-1.5zm-8.82 3.78c-.25-.09-.45-.27-.57-.51s-.13-.51-.04-.76c.19-.52.76-.79 1.26-.61l3.16 1.19c-1.15.6-2.63 1.11-3.81.69zm6.32 5.65c-.25.09-.52.08-.76-.04a.989.989 0 0 1-.51-.57c-.42-1.18.09-2.65.7-3.8l1.18 3.13c.18.52-.09 1.1-.61 1.28zm1.21-5.34-.61-1.61c0-.01-.01-.02-.02-.03l-.06-.12a.673.673 0 0 0-.07-.11l-.09-.09-.09-.09c-.03-.03-.07-.05-.11-.07-.04-.02-.07-.05-.12-.06-.01 0-.02-.01-.03-.02l-1.6-.6a1.966 1.966 0 0 1 2.67.13c.73.73.77 1.88.13 2.67z"/>
        </symbol>
        <symbol id="emoji_objects" viewBox="0 0 100 100">
          <title>emoji_objects</title>
          <path d="M0 0h24v24H0z"/><path d="M12 3c-.46 0-.93.04-1.4.14-2.76.53-4.96 2.76-5.48 5.52-.48 2.61.48 5.01 2.22 6.56.43.38.66.91.66 1.47V19c0 1.1.9 2 2 2h.28a1.98 1.98 0 0 0 3.44 0H14c1.1 0 2-.9 2-2v-2.31c0-.55.22-1.09.64-1.46A6.956 6.956 0 0 0 19 10c0-3.87-3.13-7-7-7zm2 16h-4v-1h4v1zm0-2h-4v-1h4v1zm-1.5-5.59V14h-1v-2.59L9.67 9.59l.71-.71L12 10.5l1.62-1.62.71.71-1.83 1.82z"/>
        </symbol>
        <symbol id="emoji_people" viewBox="0 0 100 100">
          <title>emoji_people</title>
          <path d="M0 0h24v24H0z"/><circle cx="12" cy="4" r="2"/><path d="M15.89 8.11C15.5 7.72 14.83 7 13.53 7h-2.54C8.24 6.99 6 4.75 6 2H4c0 3.16 2.11 5.84 5 6.71V22h2v-6h2v6h2V10.05L18.95 14l1.41-1.41-4.47-4.48z"/>
        </symbol>
        <symbol id="emoji_symbols" viewBox="0 0 100 100">
          <title>emoji_symbols</title>
          <path d="M0 0h24v24H0z"/><path d="M3 2h8v2H3zM6 11h2V7h3V5H3v2h3zM12.404 20.182l7.778-7.778 1.414 1.414-7.778 7.778z"/><circle cx="14.5" cy="14.5" r="1.5"/><circle cx="19.5" cy="19.5" r="1.5"/><path d="M15.5 11A2.5 2.5 0 0 0 18 8.5V4h3V2h-4v4.51c-.42-.32-.93-.51-1.5-.51a2.5 2.5 0 0 0 0 5zM9.74 15.96l-1.41 1.41-.71-.71.35-.35a2.499 2.499 0 0 0-1.77-4.27 2.499 2.499 0 0 0-1.77 4.27l.35.35-1.06 1.06c-.98.98-.98 2.56 0 3.54.5.5 1.14.74 1.78.74s1.28-.24 1.77-.73l1.06-1.06 1.41 1.41 1.41-1.41-1.41-1.41 1.41-1.41-1.41-1.43zM5.85 14.2c.12-.12.26-.15.35-.15s.23.03.35.15c.19.2.19.51 0 .71l-.35.35-.35-.36a.501.501 0 0 1 0-.7zm0 5.65c-.12.12-.26.15-.35.15s-.23-.03-.35-.15a.513.513 0 0 1 0-.71l1.06-1.06.71.71-1.07 1.06z"/>
        </symbol>
        <symbol id="emoji_transportation" viewBox="0 0 100 100">
          <title>emoji_transportation</title>
          <path d="M0 0h24v24H0z"/><path d="M20.57 10.66c-.14-.4-.52-.66-.97-.66h-7.19c-.46 0-.83.26-.98.66L10 14.77l.01 5.51c0 .38.31.72.69.72h.62c.38 0 .68-.38.68-.76V19h8v1.24c0 .38.31.76.69.76h.61c.38 0 .69-.34.69-.72l.01-1.37v-4.14l-1.43-4.11zm-8.16.34h7.19l1.03 3h-9.25l1.03-3zM12 17c-.55 0-1-.45-1-1s.45-1 1-1 1 .45 1 1-.45 1-1 1zm8 0c-.55 0-1-.45-1-1s.45-1 1-1 1 .45 1 1-.45 1-1 1z"/><path d="M14 9h1V3H7v5H2v13h1V9h5V4h6z"/><path d="M5 11h2v2H5zM10 5h2v2h-2zM5 15h2v2H5zM5 19h2v2H5z"/>
        </symbol>
        <symbol id="engineering" viewBox="0 0 100 100">
          <title>engineering</title>
          <path d="M0 0h24v24H0z"/><path d="M9 15c-2.67 0-8 1.34-8 4v2h16v-2c0-2.66-5.33-4-8-4zM22.1 6.84c.01-.11.02-.22.02-.34 0-.12-.01-.23-.03-.34l.74-.58c.07-.05.08-.15.04-.22l-.7-1.21c-.04-.08-.14-.1-.21-.08l-.86.35c-.18-.14-.38-.25-.59-.34l-.13-.93A.182.182 0 0 0 20.2 3h-1.4c-.09 0-.16.06-.17.15l-.13.93c-.21.09-.41.21-.59.34l-.87-.35c-.08-.03-.17 0-.21.08l-.7 1.21c-.04.08-.03.17.04.22l.74.58a1.953 1.953 0 0 0 0 .68l-.74.58c-.07.05-.08.15-.04.22l.7 1.21c.04.08.14.1.21.08l.87-.35c.18.14.38.25.59.34l.13.93c.01.09.08.15.17.15h1.4c.09 0 .16-.06.17-.15l.13-.93c.21-.09.41-.21.59-.34l.87.35c.08.03.17 0 .21-.08l.7-1.21c.04-.08.03-.17-.04-.22l-.73-.58zm-2.6.91a1.25 1.25 0 1 1 0-2.5 1.25 1.25 0 0 1 0 2.5zM19.92 11.68l-.5-.87c-.03-.06-.1-.08-.15-.06l-.62.25c-.13-.1-.27-.18-.42-.24l-.09-.66A.15.15 0 0 0 18 10h-1c-.06 0-.11.04-.12.11l-.09.66c-.15.06-.29.15-.42.24l-.62-.25c-.06-.02-.12 0-.15.06l-.5.87c-.03.06-.02.12.03.16l.53.41c-.01.08-.02.16-.02.24 0 .08.01.17.02.24l-.53.41c-.05.04-.06.11-.03.16l.5.87c.03.06.1.08.15.06l.62-.25c.13.1.27.18.42.24l.09.66c.01.07.06.11.12.11h1c.06 0 .12-.04.12-.11l.09-.66c.15-.06.29-.15.42-.24l.62.25c.06.02.12 0 .15-.06l.5-.87c.03-.06.02-.12-.03-.16l-.52-.41c.01-.08.02-.16.02-.24 0-.08-.01-.17-.02-.24l.53-.41c.05-.04.06-.11.04-.17zm-2.42 1.65c-.46 0-.83-.38-.83-.83 0-.46.38-.83.83-.83s.83.38.83.83c0 .46-.37.83-.83.83zM4.74 9h8.53c.27 0 .49-.22.49-.49v-.02a.49.49 0 0 0-.49-.49H13c0-1.48-.81-2.75-2-3.45v.95c0 .28-.22.5-.5.5s-.5-.22-.5-.5V4.14C9.68 4.06 9.35 4 9 4s-.68.06-1 .14V5.5c0 .28-.22.5-.5.5S7 5.78 7 5.5v-.95C5.81 5.25 5 6.52 5 8h-.26a.49.49 0 0 0-.49.49v.03c0 .26.22.48.49.48zM9 13c1.86 0 3.41-1.28 3.86-3H5.14c.45 1.72 2 3 3.86 3z"/>
        </symbol>
        <symbol id="facebook" viewBox="0 0 100 100">
          <title>facebook</title>
          <path d="M0 0h24v24H0z"/><path d="M22 12c0-5.52-4.48-10-10-10S2 6.48 2 12c0 4.84 3.44 8.87 8 9.8V15H8v-3h2V9.5C10 7.57 11.57 6 13.5 6H16v3h-2c-.55 0-1 .45-1 1v2h3v3h-3v6.95c5.05-.5 9-4.76 9-9.95z"/>
        </symbol>
        <symbol id="female" viewBox="0 0 100 100">
          <title>female</title>
          <path d="M0 0h24v24H0z"/><path d="M17.5 9.5C17.5 6.46 15.04 4 12 4S6.5 6.46 6.5 9.5c0 2.7 1.94 4.93 4.5 5.4V17H9v2h2v2h2v-2h2v-2h-2v-2.1c2.56-.47 4.5-2.7 4.5-5.4zm-9 0C8.5 7.57 10.07 6 12 6s3.5 1.57 3.5 3.5S13.93 13 12 13s-3.5-1.57-3.5-3.5z"/>
        </symbol>
        <symbol id="fireplace" viewBox="0 0 100 100">
          <title>fireplace</title>
          <path d="M0 0h24v24H0z"/><path d="M2 2v20h20V2H2zm9.86 14.96c.76-.24 1.4-1.04 1.53-1.63.13-.56-.1-1.05-.2-1.6-.08-.46-.07-.85.08-1.28.54 1.21 2.15 1.64 1.98 3.18-.19 1.7-2.11 2.38-3.39 1.33zM20 20h-2v-2h-2.02A4.98 4.98 0 0 0 17 15c0-1.89-1.09-2.85-1.85-3.37C12.2 9.61 13 7 13 7c-6.73 3.57-6.02 7.47-6 8 .03.96.49 2.07 1.23 3H6v2H4V4h16v16z"/>
        </symbol>
        <symbol id="follow_the_signs" viewBox="0 0 100 100">
          <title>follow_the_signs</title>
          <path d="M0 0h24v24H0z"/><path d="M9.5 5.5c1.1 0 2-.9 2-2s-.9-2-2-2-2 .9-2 2 .9 2 2 2zM5.75 8.9 3 23h2.1l1.75-8L9 17v6h2v-7.55L8.95 13.4l.6-3C10.85 12 12.8 13 15 13v-2c-1.85 0-3.45-1-4.35-2.45l-.95-1.6C9.35 6.35 8.7 6 8 6c-.25 0-.5.05-.75.15L2 8.3V13h2V9.65l1.75-.75M13 2v7h3.75v14h1.5V9H22V2h-9zm5.01 6V6.25H14.5v-1.5h3.51V3l2.49 2.5L18.01 8z"/>
        </symbol>
        <symbol id="front_hand" viewBox="0 0 100 100">
          <title>front_hand</title>
          <path d="M0 0h24v24H0z"/><path d="M19.75 8c-.69 0-1.25.56-1.25 1.25V15H18c-1.65 0-3 1.35-3 3h-1c0-2.04 1.53-3.72 3.5-3.97V3.25a1.25 1.25 0 0 0-2.5 0V11h-1V1.25a1.25 1.25 0 0 0-2.5 0V11h-1V2.75a1.25 1.25 0 0 0-2.5 0V12H7V5.75a1.25 1.25 0 0 0-2.5 0v10c0 4.56 3.69 8.25 8.25 8.25S21 20.31 21 15.75v-6.5C21 8.56 20.44 8 19.75 8z"/>
        </symbol>
        <symbol id="group" viewBox="0 0 100 100">
          <title>group</title>
          <path d="M0 0h24v24H0z"/><path d="M16 11c1.66 0 2.99-1.34 2.99-3S17.66 5 16 5c-1.66 0-3 1.34-3 3s1.34 3 3 3zm-8 0c1.66 0 2.99-1.34 2.99-3S9.66 5 8 5C6.34 5 5 6.34 5 8s1.34 3 3 3zm0 2c-2.33 0-7 1.17-7 3.5V19h14v-2.5c0-2.33-4.67-3.5-7-3.5zm8 0c-.29 0-.62.02-.97.05 1.16.84 1.97 1.97 1.97 3.45V19h6v-2.5c0-2.33-4.67-3.5-7-3.5z"/>
        </symbol>
        <symbol id="group_add" viewBox="0 0 100 100">
          <title>group_add</title>
          <path d="M0 0h24v24H0z"/><path d="M8 10H5V7H3v3H0v2h3v3h2v-3h3v-2zm10 1c1.66 0 2.99-1.34 2.99-3S19.66 5 18 5c-.32 0-.63.05-.91.14.57.81.9 1.79.9 2.86s-.34 2.04-.9 2.86c.28.09.59.14.91.14zm-5 0c1.66 0 2.99-1.34 2.99-3S14.66 5 13 5c-1.66 0-3 1.34-3 3s1.34 3 3 3zm6.62 2.16c.83.73 1.38 1.66 1.38 2.84v2h3v-2c0-1.54-2.37-2.49-4.38-2.84zM13 13c-2 0-6 1-6 3v2h12v-2c0-2-4-3-6-3z"/>
        </symbol>
        <symbol id="group_off" viewBox="0 0 100 100">
          <title>group_off</title>
          <path d="M0 0h24v24H0z"/><path d="M15 8c0-1.42-.5-2.73-1.33-3.76.42-.14.86-.24 1.33-.24 2.21 0 4 1.79 4 4s-1.79 4-4 4h-.18l-.77-.77c.6-.94.95-2.05.95-3.23zm7.83 12H23v-3c0-2.18-3.58-3.47-6.34-3.87 1.1.75 1.95 1.71 2.23 2.94L22.83 20zM7.24 4.41a3.996 3.996 0 0 1 5.35 5.35L7.24 4.41zM9.17 12H9c-2.21 0-4-1.79-4-4v-.17L.69 3.51 2.1 2.1l19.8 19.8-1.41 1.41L17 19.83V20H1v-3c0-2.66 5.33-4 8-4 .37 0 .8.03 1.25.08L9.17 12z"/>
        </symbol>
        <symbol id="groups" viewBox="0 0 100 100">
          <title>groups</title>
          <path d="M0 0h24v24H0z"/><path d="M12 12.75c1.63 0 3.07.39 4.24.9 1.08.48 1.76 1.56 1.76 2.73V18H6v-1.61c0-1.18.68-2.26 1.76-2.73 1.17-.52 2.61-.91 4.24-.91zM4 13c1.1 0 2-.9 2-2s-.9-2-2-2-2 .9-2 2 .9 2 2 2zm1.13 1.1c-.37-.06-.74-.1-1.13-.1-.99 0-1.93.21-2.78.58A2.01 2.01 0 0 0 0 16.43V18h4.5v-1.61c0-.83.23-1.61.63-2.29zM20 13c1.1 0 2-.9 2-2s-.9-2-2-2-2 .9-2 2 .9 2 2 2zm4 3.43c0-.81-.48-1.53-1.22-1.85A6.95 6.95 0 0 0 20 14c-.39 0-.76.04-1.13.1.4.68.63 1.46.63 2.29V18H24v-1.57zM12 6c1.66 0 3 1.34 3 3s-1.34 3-3 3-3-1.34-3-3 1.34-3 3-3z"/>
        </symbol>
        <symbol id="health_and_safety" viewBox="0 0 100 100">
          <title>health_and_safety</title>
          <path d="M0 0h24v24H0z"/><path d="M10.5 13H8v-3h2.5V7.5h3V10H16v3h-2.5v2.5h-3V13zM12 2 4 5v6.09c0 5.05 3.41 9.76 8 10.91 4.59-1.15 8-5.86 8-10.91V5l-8-3z"/>
        </symbol>
        <symbol id="hiking" viewBox="0 0 100 100">
          <title>hiking</title>
          <path d="M0 0h24v24H0z"/><path d="M13.5 5.5c1.1 0 2-.9 2-2s-.9-2-2-2-2 .9-2 2 .9 2 2 2zm4 5.28c-1.23-.37-2.22-1.17-2.8-2.18l-1-1.6c-.41-.65-1.11-1-1.84-1-.78 0-1.59.5-1.78 1.44S7 23 7 23h2.1l1.8-8 2.1 2v6h2v-7.5l-2.1-2 .6-3c1 1.15 2.41 2.01 4 2.34V23H19V9h-1.5v1.78zM7.43 13.13l-2.12-.41a.999.999 0 0 1-.79-1.17l.76-3.93a2 2 0 0 1 2.34-1.58l1.16.23-1.35 6.86z"/>
        </symbol>
        <symbol id="history_edu" viewBox="0 0 100 100">
          <title>history_edu</title>
          <path d="M0 0h24v24H0z"/><path d="M9 4v1.38c-.83-.33-1.72-.5-2.61-.5-1.79 0-3.58.68-4.95 2.05l3.33 3.33h1.11v1.11c.86.86 1.98 1.31 3.11 1.36V15H6v3c0 1.1.9 2 2 2h10c1.66 0 3-1.34 3-3V4H9zm-1.11 6.41V8.26H5.61L4.57 7.22a5.07 5.07 0 0 1 1.82-.34c1.34 0 2.59.52 3.54 1.46l1.41 1.41-.2.2a2.7 2.7 0 0 1-1.92.8c-.47 0-.93-.12-1.33-.34zM19 17c0 .55-.45 1-1 1s-1-.45-1-1v-2h-6v-2.59c.57-.23 1.1-.57 1.56-1.03l.2-.2L15.59 14H17v-1.41l-6-5.97V6h8v11z"/>
        </symbol>
        <symbol id="ice_skating" viewBox="0 0 100 100">
          <title>ice_skating</title>
          <path d="M0 0h24v24H0z"/><path d="M8 8.5c0-.28.22-.5.5-.5h2.52L11 7H8.5c-.28 0-.5-.22-.5-.5s.22-.5.5-.5H11V3H3v15h3v2H2v2h16c2.76 0 5-2.24 5-5h-2c0 1.66-1.34 3-3 3h-2v-2h3v-2.88c0-2.1-1.55-3.53-3.03-3.88l-2.7-.67c-.87-.22-1.57-.81-1.95-1.57H8.5c-.28 0-.5-.22-.5-.5zM14 20H8v-2h6v2z"/>
        </symbol>
        <symbol id="ios_share" viewBox="0 0 100 100">
          <title>ios_share</title>
          <path d="M0 0h24v24H0V0z"/><path d="m16 5-1.42 1.42-1.59-1.59V16h-1.98V4.83L9.42 6.42 8 5l4-4 4 4zm4 5v11c0 1.1-.9 2-2 2H6a2 2 0 0 1-2-2V10c0-1.11.89-2 2-2h3v2H6v11h12V10h-3V8h3a2 2 0 0 1 2 2z"/>
        </symbol>
        <symbol id="kayaking" viewBox="0 0 100 100">
          <title>kayaking</title>
          <path d="M0 0h24v24H0z"/><path d="M21 23c-1.03 0-2.06-.25-3-.75-1.89 1-4.11 1-6 0-1.89 1-4.11 1-6 0-.95.5-1.97.75-3 .75H2v-2h1c1.04 0 2.08-.35 3-1 1.83 1.3 4.17 1.3 6 0 1.83 1.3 4.17 1.3 6 0 .91.65 1.96 1 3 1h1v2h-1zM12 5.5c-1.1 0-2 .9-2 2s.9 2 2 2 2-.9 2-2-.9-2-2-2zm12 12s-1.52.71-3.93 1.37c-.82-.23-1.53-.75-2.07-1.37-.73.84-1.8 1.5-3 1.5s-2.27-.66-3-1.5c-.73.84-1.8 1.5-3 1.5s-2.27-.66-3-1.5c-.54.61-1.25 1.13-2.07 1.37C1.52 18.21 0 17.5 0 17.5s2.93-1.36 7.13-2.08l1.35-4.17c.31-.95 1.32-1.47 2.27-1.16.09.03.19.07.27.11l2.47 1.3 2.84-1.5 1.65-3.71-.51-1.32L18.8 2 22 3.43 20.67 6.4l-1.31.5-3.72 8.34c4.85.63 8.36 2.26 8.36 2.26zm-8.98-4.54-1.52.8-1.75-.92-.71 2.17c.32 0 .64-.01.96-.01.71 0 1.4.03 2.07.08l.95-2.12z"/>
        </symbol>
        <symbol id="king_bed" viewBox="0 0 100 100">
          <title>king_bed</title>
          <path d="M0 0h24v24H0z"/><path d="M6 7h5v3H6zM13 7h5v3h-5z"/><path d="M20 10V7c0-1.1-.9-2-2-2H6c-1.1 0-2 .9-2 2v3c-1.1 0-2 .9-2 2v5h1.33L4 19h1l.67-2h12.67l.66 2h1l.67-2H22v-5c0-1.1-.9-2-2-2zm-9 0H6V7h5v3zm7 0h-5V7h5v3z"/>
        </symbol>
        <symbol id="kitesurfing" viewBox="0 0 100 100">
          <title>kitesurfing</title>
          <path d="M0 0h24v24H0z"/><path d="M6 3c0-1.1.9-2 2-2s2 .9 2 2-.9 2-2 2-2-.9-2-2zm14.06-2h-2.12L15.5 3.44l1.06 1.06 3.5-3.5zM22 23v-2h-1c-1.04 0-2.08-.35-3-1-1.83 1.3-4.17 1.3-6 0-1.83 1.3-4.17 1.3-6 0-.91.65-1.96 1-3 1H2v2h1c1.03 0 2.05-.25 3-.75 1.89 1 4.11 1 6 0 1.89 1 4.11 1 6 0 .95.5 1.97.75 3 .75h1zm-1-9.72c0 1.44-2.19 3.62-5.04 5.58-.31.09-.63.14-.96.14-1.2 0-2.27-.66-3-1.5-.73.84-1.8 1.5-3 1.5-.94 0-1.81-.41-2.49-.99.46-.39.96-.78 1.49-1.17l-1.55-2.97A4.06 4.06 0 0 1 6 12V8c0-1.1.9-2 2-2h3c1.38 0 2.63-.56 3.54-1.46l1.41 1.41A7.018 7.018 0 0 1 11 8H9.6v3.5h2.8l1.69 1.88c1.95-.84 3.77-1.38 5.06-1.38.84 0 1.85.25 1.85 1.28zm-8.8.99-.7-.77-2.5.1.83 2.01c.59-.38 1.81-1.06 2.37-1.34z"/>
        </symbol>
        <symbol id="location_city" viewBox="0 0 100 100">
          <title>location_city</title>
          <path d="M0 0h24v24H0z"/><path d="M15 11V5l-3-3-3 3v2H3v14h18V11h-6zm-8 8H5v-2h2v2zm0-4H5v-2h2v2zm0-4H5V9h2v2zm6 8h-2v-2h2v2zm0-4h-2v-2h2v2zm0-4h-2V9h2v2zm0-4h-2V5h2v2zm6 12h-2v-2h2v2zm0-4h-2v-2h2v2z"/>
        </symbol>
        <symbol id="luggage" viewBox="0 0 100 100">
          <title>luggage</title>
          <path d="M0 0h24v24H0z"/><path d="M17 6h-2V3c0-.55-.45-1-1-1h-4c-.55 0-1 .45-1 1v3H7c-1.1 0-2 .9-2 2v11c0 1.1.9 2 2 2 0 .55.45 1 1 1s1-.45 1-1h6c0 .55.45 1 1 1s1-.45 1-1c1.1 0 2-.9 2-2V8c0-1.1-.9-2-2-2zM9.5 18H8V9h1.5v9zm3.25 0h-1.5V9h1.5v9zm.75-12h-3V3.5h3V6zM16 18h-1.5V9H16v9z"/>
        </symbol>
        <symbol id="male" viewBox="0 0 100 100">
          <title>male</title>
          <path d="M0 0h24v24H0z"/><path d="M9.5 11c1.93 0 3.5 1.57 3.5 3.5S11.43 18 9.5 18 6 16.43 6 14.5 7.57 11 9.5 11zm0-2C6.46 9 4 11.46 4 14.5S6.46 20 9.5 20s5.5-2.46 5.5-5.5c0-1.16-.36-2.23-.97-3.12L18 7.42V10h2V4h-6v2h2.58l-3.97 3.97C11.73 9.36 10.66 9 9.5 9z"/>
        </symbol>
        <symbol id="masks" viewBox="0 0 100 100">
          <title>masks</title>
          <path d="M0 0h24v24H0z"/><path d="M19.5 6c-1.31 0-2.37 1.01-2.48 2.3-1.88-.5-2.84-1.8-5.02-1.8-2.19 0-3.14 1.3-5.02 1.8C6.87 7.02 5.81 6 4.5 6A2.5 2.5 0 0 0 2 8.5V9c0 6 3.6 7.81 6.52 7.98C9.53 17.62 10.72 18 12 18s2.47-.38 3.48-1.02C18.4 16.81 22 15 22 9v-.5A2.5 2.5 0 0 0 19.5 6zm-16 3v-.5c0-.55.45-1 1-1s1 .45 1 1v3c0 1.28.38 2.47 1.01 3.48C4.99 14.27 3.5 12.65 3.5 9zm17 0c0 3.65-1.49 5.27-3.01 5.98.64-1.01 1.01-2.2 1.01-3.48v-3c0-.55.45-1 1-1s1 .45 1 1V9zm-9.81 1.48c-.44.26-.96.56-1.69.76V10.2c.48-.17.84-.38 1.18-.58C10.72 9.3 11.23 9 12 9s1.27.3 1.8.62c.34.2.71.42 1.2.59v1.04c-.75-.21-1.26-.51-1.71-.78-.46-.27-.8-.47-1.29-.47s-.84.2-1.31.48z"/>
        </symbol>
        <symbol id="military_tech" viewBox="0 0 100 100">
          <title>military_tech</title>
          <path d="M0 0h24v24H0z"/><path d="M17 10.43V2H7v8.43c0 .35.18.68.49.86l4.18 2.51-.99 2.34-3.41.29 2.59 2.24L9.07 22 12 20.23 14.93 22l-.78-3.33 2.59-2.24-3.41-.29-.99-2.34 4.18-2.51c.3-.18.48-.5.48-.86zm-4 1.8-1 .6-1-.6V3h2v9.23z"/>
        </symbol>
        <symbol id="mood" viewBox="0 0 100 100">
          <title>mood</title>
          <path d="M0 0h24v24H0z"/><path d="M11.99 2C6.47 2 2 6.48 2 12s4.47 10 9.99 10C17.52 22 22 17.52 22 12S17.52 2 11.99 2zM12 20c-4.42 0-8-3.58-8-8s3.58-8 8-8 8 3.58 8 8-3.58 8-8 8zm3.5-9c.83 0 1.5-.67 1.5-1.5S16.33 8 15.5 8 14 8.67 14 9.5s.67 1.5 1.5 1.5zm-7 0c.83 0 1.5-.67 1.5-1.5S9.33 8 8.5 8 7 8.67 7 9.5 7.67 11 8.5 11zm3.5 6.5c2.33 0 4.31-1.46 5.11-3.5H6.89c.8 2.04 2.78 3.5 5.11 3.5z"/>
        </symbol>
        <symbol id="mood_bad" viewBox="0 0 100 100">
          <title>mood_bad</title>
          <path d="M0 0h24v24H0V0z"/><path d="M11.99 2C6.47 2 2 6.48 2 12s4.47 10 9.99 10C17.52 22 22 17.52 22 12S17.52 2 11.99 2zM12 20c-4.42 0-8-3.58-8-8s3.58-8 8-8 8 3.58 8 8-3.58 8-8 8zm3.5-9c.83 0 1.5-.67 1.5-1.5S16.33 8 15.5 8 14 8.67 14 9.5s.67 1.5 1.5 1.5zm-7 0c.83 0 1.5-.67 1.5-1.5S9.33 8 8.5 8 7 8.67 7 9.5 7.67 11 8.5 11zm3.5 3c-2.33 0-4.31 1.46-5.11 3.5h10.22c-.8-2.04-2.78-3.5-5.11-3.5z"/>
        </symbol>
        <symbol id="nights_stay" viewBox="0 0 100 100">
          <title>nights_stay</title>
          <path d="M0 0h24v24H0z"/><path d="M11.1 12.08c-2.33-4.51-.5-8.48.53-10.07C6.27 2.2 1.98 6.59 1.98 12c0 .14.02.28.02.42.62-.27 1.29-.42 2-.42 1.66 0 3.18.83 4.1 2.15A4.01 4.01 0 0 1 11 18c0 1.52-.87 2.83-2.12 3.51.98.32 2.03.5 3.11.5 3.5 0 6.58-1.8 8.37-4.52-2.36.23-6.98-.97-9.26-5.41z"/><path d="M7 16h-.18C6.4 14.84 5.3 14 4 14c-1.66 0-3 1.34-3 3s1.34 3 3 3h3c1.1 0 2-.9 2-2s-.9-2-2-2z"/>
        </symbol>
        <symbol id="no_luggage" viewBox="0 0 100 100">
          <title>no_luggage</title>
          <path d="M0 0h24v24H0z"/><path d="M12.75 9v.92l1.75 1.75V9H16v4.17l3 3V8c0-1.1-.9-2-2-2h-2V3c0-.55-.45-1-1-1h-4c-.55 0-1 .45-1 1v3h-.17l3 3h.92zM10.5 3.5h3V6h-3V3.5zm10.69 17.69L2.81 2.81 1.39 4.22l3.63 3.63c0 .05-.02.1-.02.15v11c0 1.1.9 2 2 2 0 .55.45 1 1 1s1-.45 1-1h6c0 .55.45 1 1 1s1-.45 1-1c.34 0 .65-.09.93-.24l1.85 1.85 1.41-1.42zM8 18v-7.17l1.5 1.5V18H8zm4.75 0h-1.5v-3.92l1.5 1.5V18z"/>
        </symbol>
        <symbol id="nordic_walking" viewBox="0 0 100 100">
          <title>nordic_walking</title>
          <path d="M0 0h24v24H0z"/><path d="M19 23h-1.5v-9H19v9zM7.53 14H6l-2 9h1.53l2-9zm5.97-8.5c1.1 0 2-.9 2-2s-.9-2-2-2-2 .9-2 2 .9 2 2 2zM9.8 8.9 7 23h2.1l1.8-8 2.1 2v6h2v-7.5l-2.1-2 .6-3C14.8 12 16.8 13 19 13v-2c-1.9 0-3.5-1-4.3-2.4l-1-1.6a2.145 2.145 0 0 0-2.65-.84L6 8.3V13h2V9.6l1.8-.7z"/>
        </symbol>
        <symbol id="notification_add" viewBox="0 0 100 100">
          <title>notification_add</title>
          <path d="M0 0h24v24H0z"/><path d="M10 20h4c0 1.1-.9 2-2 2s-2-.9-2-2zm4-11c0 2.61 1.67 4.83 4 5.66V17h2v2H4v-2h2v-7c0-2.79 1.91-5.14 4.5-5.8v-.7c0-.83.67-1.5 1.5-1.5s1.5.67 1.5 1.5v.7c.71.18 1.36.49 1.95.9A5.902 5.902 0 0 0 14 9zm10-1h-3V5h-2v3h-3v2h3v3h2v-3h3V8z"/>
        </symbol>
        <symbol id="notifications" viewBox="0 0 100 100">
          <title>notifications</title>
          <path d="M12 22c1.1 0 2-.9 2-2h-4a2 2 0 0 0 2 2zm6-6v-5c0-3.07-1.64-5.64-4.5-6.32V4c0-.83-.67-1.5-1.5-1.5s-1.5.67-1.5 1.5v.68C7.63 5.36 6 7.92 6 11v5l-2 2v1h16v-1l-2-2z"/>
        </symbol>
        <symbol id="notifications_active" viewBox="0 0 100 100">
          <title>notifications_active</title>
          <path d="M0 0h24v24H0z"/><path d="M7.58 4.08 6.15 2.65C3.75 4.48 2.17 7.3 2.03 10.5h2a8.445 8.445 0 0 1 3.55-6.42zm12.39 6.42h2c-.15-3.2-1.73-6.02-4.12-7.85l-1.42 1.43a8.495 8.495 0 0 1 3.54 6.42zM18 11c0-3.07-1.64-5.64-4.5-6.32V4c0-.83-.67-1.5-1.5-1.5s-1.5.67-1.5 1.5v.68C7.63 5.36 6 7.92 6 11v5l-2 2v1h16v-1l-2-2v-5zm-6 11c.14 0 .27-.01.4-.04.65-.14 1.18-.58 1.44-1.18.1-.24.15-.5.15-.78h-4c.01 1.1.9 2 2.01 2z"/>
        </symbol>
        <symbol id="notifications_none" viewBox="0 0 100 100">
          <title>notifications_none</title>
          <path d="M0 0h24v24H0z"/><path d="M12 22c1.1 0 2-.9 2-2h-4c0 1.1.9 2 2 2zm6-6v-5c0-3.07-1.63-5.64-4.5-6.32V4c0-.83-.67-1.5-1.5-1.5s-1.5.67-1.5 1.5v.68C7.64 5.36 6 7.92 6 11v5l-2 2v1h16v-1l-2-2zm-2 1H8v-6c0-2.48 1.51-4.5 4-4.5s4 2.02 4 4.5v6z"/>
        </symbol>
        <symbol id="notifications_off" viewBox="0 0 100 100">
          <title>notifications_off</title>
          <path d="M0 0h24v24H0z"/><path d="M20 18.69 7.84 6.14 5.27 3.49 4 4.76l2.8 2.8v.01c-.52.99-.8 2.16-.8 3.42v5l-2 2v1h13.73l2 2L21 19.72l-1-1.03zM12 22c1.11 0 2-.89 2-2h-4c0 1.11.89 2 2 2zm6-7.32V11c0-3.08-1.64-5.64-4.5-6.32V4c0-.83-.67-1.5-1.5-1.5s-1.5.67-1.5 1.5v.68c-.15.03-.29.08-.42.12-.1.03-.2.07-.3.11h-.01c-.01 0-.01 0-.02.01-.23.09-.46.2-.68.31 0 0-.01 0-.01.01L18 14.68z"/>
        </symbol>
        <symbol id="notifications_paused" viewBox="0 0 100 100">
          <title>notifications_paused</title>
          <path d="M0 0h24v24H0z"/><path d="M12 22c1.1 0 2-.9 2-2h-4a2 2 0 0 0 2 2zm6-6v-5c0-3.07-1.64-5.64-4.5-6.32V4c0-.83-.67-1.5-1.5-1.5s-1.5.67-1.5 1.5v.68C7.63 5.36 6 7.93 6 11v5l-2 2v1h16v-1l-2-2zm-3.5-6.2-2.8 3.4h2.8V15h-5v-1.8l2.8-3.4H9.5V8h5v1.8z"/>
        </symbol>
        <symbol id="outdoor_grill" viewBox="0 0 100 100">
          <title>outdoor_grill</title>
          <path d="M0 0h24v24H0z"/><path d="M17 22c1.66 0 3-1.34 3-3s-1.34-3-3-3c-1.3 0-2.4.84-2.82 2H9.14l1.99-3.06a6.36 6.36 0 0 0 1.74 0l1.02 1.57c.42-.53.96-.95 1.6-1.21l-.6-.93A6.992 6.992 0 0 0 19 8H5c0 2.84 1.69 5.27 4.12 6.37l-3.95 6.08a1 1 0 0 0 .29 1.38 1 1 0 0 0 1.38-.29l1-1.55h6.34C14.6 21.16 15.7 22 17 22zm0-4c.55 0 1 .45 1 1s-.45 1-1 1-1-.45-1-1 .45-1 1-1zM9.41 7h1c.15-1.15.23-1.64-.89-2.96-.42-.5-.68-.77-.46-2.04h-.99c-.21 1.11.03 2.05.89 2.96.22.24.79.67.45 2.04zM11.89 7h1c.15-1.15.23-1.64-.89-2.96-.42-.5-.68-.78-.46-2.04h-.99c-.21 1.11.03 2.05.89 2.96.23.24.8.67.45 2.04zM14.41 7h1c.15-1.15.23-1.64-.89-2.96-.42-.5-.68-.77-.46-2.04h-.99c-.21 1.11.03 2.05.89 2.96.22.24.79.67.45 2.04z"/>
        </symbol>
        <symbol id="pages" viewBox="0 0 100 100">
          <title>pages</title>
          <path d="M0 0h24v24H0z"/><path d="M3 5v6h5L7 7l4 1V3H5c-1.1 0-2 .9-2 2zm5 8H3v6c0 1.1.9 2 2 2h6v-5l-4 1 1-4zm9 4-4-1v5h6c1.1 0 2-.9 2-2v-6h-5l1 4zm2-14h-6v5l4-1-1 4h5V5c0-1.1-.9-2-2-2z"/>
        </symbol>
        <symbol id="paragliding" viewBox="0 0 100 100">
          <title>paragliding</title>
          <path d="M0 0h24v24H0z"/><path d="M12 17c-1.1 0-2-.9-2-2s.9-2 2-2 2 .9 2 2-.9 2-2 2zm-3.48.94C8.04 17.55 7 16.76 7 14H5c0 2.7.93 4.41 2.3 5.5.5.4 1.1.7 1.7.9V24h6v-3.6c.6-.2 1.2-.5 1.7-.9 1.37-1.09 2.3-2.8 2.3-5.5h-2c0 2.76-1.04 3.55-1.52 3.94C14.68 18.54 14 19 12 19s-2.68-.46-3.48-1.06zM12 0C5.92 0 1 1.9 1 4.25v3.49c0 .81.88 1.26 1.56.83.14-.09.28-.18.44-.26L5 13h2l1.5-6.28a27.852 27.852 0 0 1 7 0L17 13h2l2-4.69c.16.09.3.17.44.26.68.43 1.56-.02 1.56-.83V4.25C23 1.9 18.08 0 12 0zM5.88 11.24 4.37 7.69c.75-.28 1.6-.52 2.53-.71l-1.02 4.26zm12.24 0L17.1 6.98c.93.19 1.78.43 2.53.71l-1.51 3.55z"/>
        </symbol>
        <symbol id="party_mode" viewBox="0 0 100 100">
          <title>party_mode</title>
          <path d="M0 0h24v24H0z"/><path d="M20 4h-3.17L15 2H9L7.17 4H4c-1.1 0-2 .9-2 2v12c0 1.1.9 2 2 2h16c1.1 0 2-.9 2-2V6c0-1.1-.9-2-2-2zm-8 3c1.63 0 3.06.79 3.98 2H12c-1.66 0-3 1.34-3 3 0 .35.07.69.18 1H7.1A5.002 5.002 0 0 1 12 7zm0 10c-1.63 0-3.06-.79-3.98-2H12c1.66 0 3-1.34 3-3 0-.35-.07-.69-.18-1h2.08a5.002 5.002 0 0 1-4.9 6z"/>
        </symbol>
        <symbol id="people" viewBox="0 0 100 100">
          <title>people</title>
          <path d="M0 0h24v24H0z"/><path d="M16 11c1.66 0 2.99-1.34 2.99-3S17.66 5 16 5c-1.66 0-3 1.34-3 3s1.34 3 3 3zm-8 0c1.66 0 2.99-1.34 2.99-3S9.66 5 8 5C6.34 5 5 6.34 5 8s1.34 3 3 3zm0 2c-2.33 0-7 1.17-7 3.5V19h14v-2.5c0-2.33-4.67-3.5-7-3.5zm8 0c-.29 0-.62.02-.97.05 1.16.84 1.97 1.97 1.97 3.45V19h6v-2.5c0-2.33-4.67-3.5-7-3.5z"/>
        </symbol>
        <symbol id="people_alt" viewBox="0 0 100 100">
          <title>people_alt</title>
          <path d="M0 0h24v24H0z"/><path d="M16.67 13.13C18.04 14.06 19 15.32 19 17v3h4v-3c0-2.18-3.57-3.47-6.33-3.87z"/><circle cx="9" cy="8" r="4"/><path d="M15 12c2.21 0 4-1.79 4-4s-1.79-4-4-4c-.47 0-.91.1-1.33.24a5.98 5.98 0 0 1 0 7.52c.42.14.86.24 1.33.24zM9 13c-2.67 0-8 1.34-8 4v3h16v-3c0-2.66-5.33-4-8-4z"/>
        </symbol>
        <symbol id="people_outline" viewBox="0 0 100 100">
          <title>people_outline</title>
          <path d="M0 0h24v24H0z"/><path d="M16.5 13c-1.2 0-3.07.34-4.5 1-1.43-.67-3.3-1-4.5-1C5.33 13 1 14.08 1 16.25V19h22v-2.75c0-2.17-4.33-3.25-6.5-3.25zm-4 4.5h-10v-1.25c0-.54 2.56-1.75 5-1.75s5 1.21 5 1.75v1.25zm9 0H14v-1.25c0-.46-.2-.86-.52-1.22.88-.3 1.96-.53 3.02-.53 2.44 0 5 1.21 5 1.75v1.25zM7.5 12c1.93 0 3.5-1.57 3.5-3.5S9.43 5 7.5 5 4 6.57 4 8.5 5.57 12 7.5 12zm0-5.5c1.1 0 2 .9 2 2s-.9 2-2 2-2-.9-2-2 .9-2 2-2zm9 5.5c1.93 0 3.5-1.57 3.5-3.5S18.43 5 16.5 5 13 6.57 13 8.5s1.57 3.5 3.5 3.5zm0-5.5c1.1 0 2 .9 2 2s-.9 2-2 2-2-.9-2-2 .9-2 2-2z"/>
        </symbol>
        <symbol id="person" viewBox="0 0 100 100">
          <title>person</title>
          <path d="M0 0h24v24H0z"/><path d="M12 12c2.21 0 4-1.79 4-4s-1.79-4-4-4-4 1.79-4 4 1.79 4 4 4zm0 2c-2.67 0-8 1.34-8 4v2h16v-2c0-2.66-5.33-4-8-4z"/>
        </symbol>
        <symbol id="person_add" viewBox="0 0 100 100">
          <title>person_add</title>
          <path d="M0 0h24v24H0z"/><path d="M15 12c2.21 0 4-1.79 4-4s-1.79-4-4-4-4 1.79-4 4 1.79 4 4 4zm-9-2V7H4v3H1v2h3v3h2v-3h3v-2H6zm9 4c-2.67 0-8 1.34-8 4v2h16v-2c0-2.66-5.33-4-8-4z"/>
        </symbol>
        <symbol id="person_add_alt" viewBox="0 0 100 100">
          <title>person_add_alt</title>
          <path d="M0 0h24v24H0z"/><path d="M13 8c0-2.21-1.79-4-4-4S5 5.79 5 8s1.79 4 4 4 4-1.79 4-4zm-2 0c0 1.1-.9 2-2 2s-2-.9-2-2 .9-2 2-2 2 .9 2 2zM1 18v2h16v-2c0-2.66-5.33-4-8-4s-8 1.34-8 4zm2 0c.2-.71 3.3-2 6-2 2.69 0 5.78 1.28 6 2H3zm17-3v-3h3v-2h-3V7h-2v3h-3v2h3v3h2z"/>
        </symbol>
        <symbol id="person_add_alt_1" viewBox="0 0 100 100">
          <title>person_add_alt_1</title>
          <path d="M0 0h24v24H0z"/><path d="M13 8c0-2.21-1.79-4-4-4S5 5.79 5 8s1.79 4 4 4 4-1.79 4-4zm2 2v2h3v3h2v-3h3v-2h-3V7h-2v3h-3zM1 18v2h16v-2c0-2.66-5.33-4-8-4s-8 1.34-8 4z"/>
        </symbol>
        <symbol id="person_off" viewBox="0 0 100 100">
          <title>person_off</title>
          <path d="M0 0h24v24H0z"/><path d="M8.65 5.82a3.999 3.999 0 1 1 5.53 5.53L8.65 5.82zM20 17.17c-.02-1.1-.63-2.11-1.61-2.62-.54-.28-1.13-.54-1.77-.76L20 17.17zm1.19 4.02L2.81 2.81 1.39 4.22l8.89 8.89c-1.81.23-3.39.79-4.67 1.45A2.97 2.97 0 0 0 4 17.22V20h13.17l2.61 2.61 1.41-1.42z"/>
        </symbol>
        <symbol id="person_outline" viewBox="0 0 100 100">
          <title>person_outline</title>
          <path d="M0 0h24v24H0z"/><path d="M12 5.9a2.1 2.1 0 1 1 0 4.2 2.1 2.1 0 0 1 0-4.2m0 9c2.97 0 6.1 1.46 6.1 2.1v1.1H5.9V17c0-.64 3.13-2.1 6.1-2.1M12 4C9.79 4 8 5.79 8 8s1.79 4 4 4 4-1.79 4-4-1.79-4-4-4zm0 9c-2.67 0-8 1.34-8 4v3h16v-3c0-2.66-5.33-4-8-4z"/>
        </symbol>
        <symbol id="person_remove" viewBox="0 0 100 100">
          <title>person_remove</title>
          <path d="M0 0h24v24H0z"/><path d="M14 8c0-2.21-1.79-4-4-4S6 5.79 6 8s1.79 4 4 4 4-1.79 4-4zm3 2v2h6v-2h-6zM2 18v2h16v-2c0-2.66-5.33-4-8-4s-8 1.34-8 4z"/>
        </symbol>
        <symbol id="person_remove_alt_1" viewBox="0 0 100 100">
          <title>person_remove_alt_1</title>
          <path d="M0 0h24v24H0z"/><path d="M14 8c0-2.21-1.79-4-4-4S6 5.79 6 8s1.79 4 4 4 4-1.79 4-4zm3 2v2h6v-2h-6zM2 18v2h16v-2c0-2.66-5.33-4-8-4s-8 1.34-8 4z"/>
        </symbol>
        <symbol id="personal_injury" viewBox="0 0 100 100">
          <title>personal_injury</title>
          <path d="M0 0h24v24H0z"/><path d="M8 6c0-2.21 1.79-4 4-4s4 1.79 4 4-1.79 4-4 4-4-1.79-4-4zm9 16h1c1.1 0 2-.9 2-2v-4.78c0-1.12-.61-2.15-1.61-2.66-.43-.22-.9-.43-1.39-.62V22zm-4.66-5L15 11.33c-.93-.21-1.93-.33-3-.33-2.53 0-4.71.7-6.39 1.56A2.97 2.97 0 0 0 4 15.22V22h2.34c-.22-.45-.34-.96-.34-1.5C6 18.57 7.57 17 9.5 17h2.84zM10 22l1.41-3H9.5c-.83 0-1.5.67-1.5 1.5S8.67 22 9.5 22h.5z"/>
        </symbol>
        <symbol id="piano" viewBox="0 0 100 100">
          <title>piano</title>
          <path d="M0 0h24v24H0z"/><path d="M19 3H5c-1.1 0-2 .9-2 2v14c0 1.1.9 2 2 2h14c1.1 0 2-.9 2-2V5c0-1.1-.9-2-2-2zm-5 11.5h.25V19h-4.5v-4.5H10c.55 0 1-.45 1-1V5h2v8.5c0 .55.45 1 1 1zM5 5h2v8.5c0 .55.45 1 1 1h.25V19H5V5zm14 14h-3.25v-4.5H16c.55 0 1-.45 1-1V5h2v14z"/>
        </symbol>
        <symbol id="piano_off" viewBox="0 0 100 100">
          <title>piano_off</title>
          <path d="M0 0h24v24H0z"/><path d="M21.19 21.19 2.81 2.81 1.39 4.22 3 5.83V19c0 1.1.9 2 2 2h13.17l1.61 1.61 1.41-1.42zM8.25 19H5V7.83l2 2v3.67c0 .55.45 1 1 1h.25V19zm1.5 0v-4.5H10c.46 0 .82-.31.94-.73l3.31 3.31V19h-4.5zM11 8.17 5.83 3H19c1.1 0 2 .9 2 2v13.17l-2-2V5h-2v8.5c0 .19-.07.36-.16.51L13 10.17V5h-2v3.17z"/>
        </symbol>
        <symbol id="plus_one" viewBox="0 0 100 100">
          <title>plus_one</title>
          <path d="M0 0h24v24H0z"/><path d="M10 8H8v4H4v2h4v4h2v-4h4v-2h-4zm4.5-1.92V7.9l2.5-.5V18h2V5z"/>
        </symbol>
        <symbol id="poll" viewBox="0 0 100 100">
          <title>poll</title>
          <path d="M0 0h24v24H0z"/><path d="M19 3H5c-1.1 0-2 .9-2 2v14c0 1.1.9 2 2 2h14c1.1 0 2-.9 2-2V5c0-1.1-.9-2-2-2zM9 17H7v-7h2v7zm4 0h-2V7h2v10zm4 0h-2v-4h2v4z"/>
        </symbol>
        <symbol id="precision_manufacturing" viewBox="0 0 100 100">
          <title>precision_manufacturing</title>
          <path d="M0 0h24v24H0z"/><path d="m19.93 8.21-3.6 1.68L14 7.7V6.3l2.33-2.19 3.6 1.68c.38.18.82.01 1-.36.18-.38.01-.82-.36-1L16.65 2.6a.993.993 0 0 0-1.13.2l-1.74 1.6A.975.975 0 0 0 13 4c-.55 0-1 .45-1 1v1H8.82C8.34 4.65 6.98 3.73 5.4 4.07c-1.16.25-2.15 1.25-2.36 2.43-.22 1.32.46 2.47 1.48 3.08L7.08 18H4v3h13v-3h-3.62L8.41 8.77c.17-.24.31-.49.41-.77H12v1c0 .55.45 1 1 1 .32 0 .6-.16.78-.4l1.74 1.6c.3.3.75.38 1.13.2l3.92-1.83c.38-.18.54-.62.36-1a.753.753 0 0 0-1-.36zM6 8c-.55 0-1-.45-1-1s.45-1 1-1 1 .45 1 1-.45 1-1 1z"/>
        </symbol>
        <symbol id="psychology" viewBox="0 0 100 100">
          <title>psychology</title>
          <path d="M0 0h24v24H0z"/><path d="M13 8.57a1.43 1.43 0 1 0 0 2.86 1.43 1.43 0 0 0 0-2.86z"/><path d="M13 3C9.25 3 6.2 5.94 6.02 9.64L4.1 12.2a.5.5 0 0 0 .4.8H6v3c0 1.1.9 2 2 2h1v3h7v-4.68A6.999 6.999 0 0 0 13 3zm3 7c0 .13-.01.26-.02.39l.83.66c.08.06.1.16.05.25l-.8 1.39c-.05.09-.16.12-.24.09l-.99-.4c-.21.16-.43.29-.67.39L14 13.83c-.01.1-.1.17-.2.17h-1.6c-.1 0-.18-.07-.2-.17l-.15-1.06c-.25-.1-.47-.23-.68-.39l-.99.4c-.09.03-.2 0-.25-.09l-.8-1.39a.19.19 0 0 1 .05-.25l.84-.66c-.01-.13-.02-.26-.02-.39s.02-.27.04-.39l-.85-.66c-.08-.06-.1-.16-.05-.26l.8-1.38c.05-.09.15-.12.24-.09l1 .4c.2-.15.43-.29.67-.39L12 6.17c.02-.1.1-.17.2-.17h1.6c.1 0 .18.07.2.17l.15 1.06c.24.1.46.23.67.39l1-.4c.09-.03.2 0 .24.09l.8 1.38a.2.2 0 0 1-.05.26l-.85.66c.03.12.04.25.04.39z"/>
        </symbol>
        <symbol id="public" viewBox="0 0 100 100">
          <title>public</title>
          <path d="M0 0h24v24H0z"/><path d="M12 2C6.48 2 2 6.48 2 12s4.48 10 10 10 10-4.48 10-10S17.52 2 12 2zm-1 17.93c-3.95-.49-7-3.85-7-7.93 0-.62.08-1.21.21-1.79L9 15v1c0 1.1.9 2 2 2v1.93zm6.9-2.54c-.26-.81-1-1.39-1.9-1.39h-1v-3c0-.55-.45-1-1-1H8v-2h2c.55 0 1-.45 1-1V7h2c1.1 0 2-.9 2-2v-.41c2.93 1.19 5 4.06 5 7.41 0 2.08-.8 3.97-2.1 5.39z"/>
        </symbol>
        <symbol id="public_off" viewBox="0 0 100 100">
          <title>public_off</title>
          <path d="M0 0h24v24H0z"/><path d="M11 8.17 6.49 3.66A9.91 9.91 0 0 1 12 2c5.52 0 10 4.48 10 10 0 2.04-.61 3.93-1.66 5.51l-1.46-1.46A7.842 7.842 0 0 0 20 12c0-3.35-2.07-6.22-5-7.41V5c0 1.1-.9 2-2 2h-2v1.17zm10.19 13.02-1.41 1.41-2.27-2.27A9.839 9.839 0 0 1 12 22C6.48 22 2 17.52 2 12c0-2.04.61-3.93 1.66-5.51L1.39 4.22 2.8 2.81l18.39 18.38zM11 18c-1.1 0-2-.9-2-2v-1l-4.79-4.79C4.08 10.79 4 11.38 4 12c0 4.08 3.05 7.44 7 7.93V18z"/>
        </symbol>
        <symbol id="real_estate_agent" viewBox="0 0 100 100">
          <title>real_estate_agent</title>
          <path d="M0 0h24v24H0z"/><path d="M1 22h4V11H1v11zm19-5h-7l-2.09-.73.33-.94L13 16h2.82c.65 0 1.18-.53 1.18-1.18 0-.49-.31-.93-.77-1.11L8.97 11H7v9.02L14 22l8-3c-.01-1.1-.89-2-2-2zM14 1.5l-7 5V9h2l8.14 3.26C18.26 12.71 19 13.79 19 15h2V6.5l-7-5zm-.5 8.5h-1V9h1v1zm0-2h-1V7h1v1zm2 2h-1V9h1v1zm0-2h-1V7h1v1z"/>
        </symbol>
        <symbol id="recommend" viewBox="0 0 100 100">
          <title>recommend</title>
          <path d="M0 0h24v24H0z"/><path d="M12 2a10 10 0 1 0 10 10A10 10 0 0 0 12 2zm6 9.8a.9.9 0 0 1-.1.5l-2.1 4.9a1.34 1.34 0 0 1-1.3.8H9a2 2 0 0 1-2-2v-5a1.28 1.28 0 0 1 .4-1L12 5l.69.69a1.08 1.08 0 0 1 .3.7v.2L12.41 10H17a1 1 0 0 1 1 1z"/>
        </symbol>
        <symbol id="recycling" viewBox="0 0 100 100">
          <title>recycling</title>
          <path d="M0 0h24v24H0z"/><path d="M5.77 7.15 7.2 4.78l1.03-1.71c.39-.65 1.33-.65 1.72 0l1.48 2.46-1.23 2.06-1 1.62-3.43-2.06zm15.95 5.82-1.6-2.66-3.46 2L18.87 16H20a2 2 0 0 0 2-2c0-.36-.1-.71-.28-1.03zM16 21h1.5a2 2 0 0 0 1.79-1.11L20.74 17H16v-2l-4 4 4 4v-2zm-6-4H5.7l-.84 1.41c-.3.5-.32 1.12-.06 1.65.28.57.87.94 1.52.94H10v-4zm-3.88-2.65 1.73 1.04L6.48 9.9 1 11.27l1.7 1.02-.41.69c-.35.59-.38 1.31-.07 1.92l1.63 3.26 2.27-3.81zm10.9-9.21-1.3-2.17C15.35 2.37 14.7 2 14 2h-3.53l3.12 5.2-1.72 1.03 5.49 1.37 1.37-5.49-1.71 1.03z"/>
        </symbol>
        <symbol id="reduce_capacity" viewBox="0 0 100 100">
          <title>reduce_capacity</title>
          <path d="M0 0h24v24H0z"/><path d="M16 4c0-1.1.9-2 2-2s2 .9 2 2-.9 2-2 2-2-.9-2-2zm4.78 3.58A6.95 6.95 0 0 0 18 7c-.67 0-1.31.1-1.92.28.58.55.92 1.32.92 2.15V10h5v-.57c0-.81-.48-1.53-1.22-1.85zM6 6c1.1 0 2-.9 2-2s-.9-2-2-2-2 .9-2 2 .9 2 2 2zm1.92 1.28C7.31 7.1 6.67 7 6 7c-.99 0-1.93.21-2.78.58A2.01 2.01 0 0 0 2 9.43V10h5v-.57c0-.83.34-1.6.92-2.15zM10 4c0-1.1.9-2 2-2s2 .9 2 2-.9 2-2 2-2-.9-2-2zm6 6H8v-.57c0-.81.48-1.53 1.22-1.85a6.95 6.95 0 0 1 5.56 0A2.01 2.01 0 0 1 16 9.43V10zm-1 6c0-1.1.9-2 2-2s2 .9 2 2-.9 2-2 2-2-.9-2-2zm6 6h-8v-.57c0-.81.48-1.53 1.22-1.85a6.95 6.95 0 0 1 5.56 0A2.01 2.01 0 0 1 21 21.43V22zM5 16c0-1.1.9-2 2-2s2 .9 2 2-.9 2-2 2-2-.9-2-2zm6 6H3v-.57c0-.81.48-1.53 1.22-1.85a6.95 6.95 0 0 1 5.56 0A2.01 2.01 0 0 1 11 21.43V22zm1.75-9v-2h-1.5v2H9l3 3 3-3h-2.25z"/>
        </symbol>
        <symbol id="remove_moderator" viewBox="0 0 100 100">
          <title>remove_moderator</title>
          <path d="M0 0h24v24H0z"/><path d="m22.27 21.73-3.54-3.55L5.78 5.23 2.27 1.72 1 2.99 3.01 5H3v6c0 5.55 3.84 10.74 9 12 2.16-.53 4.08-1.76 5.6-3.41L21 23l1.27-1.27zM13 9.92l6.67 6.67C20.51 14.87 21 12.96 21 11V5l-9-4-5.48 2.44L11 7.92l2 2z"/>
        </symbol>
        <symbol id="safety_divider" viewBox="0 0 100 100">
          <title>safety_divider</title>
          <path d="M0 0h24v24H0z"/><path d="M11 5h2v14h-2V5zm-6 7c1.1 0 2-.9 2-2s-.9-2-2-2-2 .9-2 2 .9 2 2 2zm2.78 1.58a6.95 6.95 0 0 0-5.56 0A2.01 2.01 0 0 0 1 15.43V16h8v-.57c0-.81-.48-1.53-1.22-1.85zM19 12c1.1 0 2-.9 2-2s-.9-2-2-2-2 .9-2 2 .9 2 2 2zm2.78 1.58a6.95 6.95 0 0 0-5.56 0A2.01 2.01 0 0 0 15 15.43V16h8v-.57c0-.81-.48-1.53-1.22-1.85z"/>
        </symbol>
        <symbol id="sanitizer" viewBox="0 0 100 100">
          <title>sanitizer</title>
          <path d="M0 0h24v24H0z"/><path d="M15.5 6.5C15.5 5.66 17 4 17 4s1.5 1.66 1.5 2.5c0 .83-.67 1.5-1.5 1.5s-1.5-.67-1.5-1.5zm4 8.5a2.5 2.5 0 0 0 2.5-2.5c0-1.67-2.5-4.5-2.5-4.5S17 10.83 17 12.5a2.5 2.5 0 0 0 2.5 2.5zM13 14h-2v-2H9v2H7v2h2v2h2v-2h2v-2zm3-2v10H4V12c0-2.97 2.16-5.43 5-5.91V4H7V2h6c1.13 0 2.15.39 2.99 1.01l-1.43 1.43C14.1 4.17 13.57 4 13 4h-2v2.09c2.84.48 5 2.94 5 5.91z"/>
        </symbol>
        <symbol id="school" viewBox="0 0 100 100">
          <title>school</title>
          <path d="M0 0h24v24H0z"/><path d="M5 13.18v4L12 21l7-3.82v-4L12 17l-7-3.82zM12 3 1 9l11 6 9-4.91V17h2V9L12 3z"/>
        </symbol>
        <symbol id="science" viewBox="0 0 100 100">
          <title>science</title>
          <path d="M0 0h24v24H0z"/><path d="M19.8 18.4 14 10.67V6.5l1.35-1.69c.26-.33.03-.81-.39-.81H9.04c-.42 0-.65.48-.39.81L10 6.5v4.17L4.2 18.4c-.49.66-.02 1.6.8 1.6h14c.82 0 1.29-.94.8-1.6z"/>
        </symbol>
        <symbol id="self_improvement" viewBox="0 0 100 100">
          <title>self_improvement</title>
          <path d="M0 0h24v24H0z"/><circle cx="12" cy="6" r="2"/><path d="M21 16v-2c-2.24 0-4.16-.96-5.6-2.68l-1.34-1.6A1.98 1.98 0 0 0 12.53 9h-1.05c-.59 0-1.15.26-1.53.72l-1.34 1.6C7.16 13.04 5.24 14 3 14v2c2.77 0 5.19-1.17 7-3.25V15l-3.88 1.55c-.67.27-1.12.93-1.12 1.66C5 19.2 5.8 20 6.79 20H9v-.5a2.5 2.5 0 0 1 2.5-2.5h3c.28 0 .5.22.5.5s-.22.5-.5.5h-3c-.83 0-1.5.67-1.5 1.5v.5h7.21c.99 0 1.79-.8 1.79-1.79 0-.73-.45-1.39-1.12-1.66L14 15v-2.25c1.81 2.08 4.23 3.25 7 3.25z"/>
        </symbol>
        <symbol id="sentiment_dissatisfied" viewBox="0 0 100 100">
          <title>sentiment_dissatisfied</title>
          <path d="M0 0h24v24H0V0z"/><circle cx="15.5" cy="9.5" r="1.5"/><circle cx="8.5" cy="9.5" r="1.5"/><path d="M11.99 2C6.47 2 2 6.48 2 12s4.47 10 9.99 10C17.52 22 22 17.52 22 12S17.52 2 11.99 2zM12 20c-4.42 0-8-3.58-8-8s3.58-8 8-8 8 3.58 8 8-3.58 8-8 8zm0-3.5c.73 0 1.39.19 1.97.53.12-.14.86-.98 1.01-1.14A5.39 5.39 0 0 0 12 15c-1.11 0-2.13.33-2.99.88.97 1.09.01.02 1.01 1.14.59-.33 1.25-.52 1.98-.52z"/>
        </symbol>
        <symbol id="sentiment_neutral" viewBox="0 0 100 100">
          <title>sentiment_neutral</title>
          <path d="M0 0h24v24H0V0z"/><path d="M9 15.5h6v1H9v-1z"/><circle cx="15.5" cy="9.5" r="1.5"/><circle cx="8.5" cy="9.5" r="1.5"/><path d="M11.99 2C6.47 2 2 6.48 2 12s4.47 10 9.99 10C17.52 22 22 17.52 22 12S17.52 2 11.99 2zM12 20c-4.42 0-8-3.58-8-8s3.58-8 8-8 8 3.58 8 8-3.58 8-8 8z"/>
        </symbol>
        <symbol id="sentiment_satisfied" viewBox="0 0 100 100">
          <title>sentiment_satisfied</title>
          <path d="M0 0h24v24H0V0z"/><circle cx="15.5" cy="9.5" r="1.5"/><circle cx="8.5" cy="9.5" r="1.5"/><path d="M11.99 2C6.47 2 2 6.48 2 12s4.47 10 9.99 10C17.52 22 22 17.52 22 12S17.52 2 11.99 2zM12 20c-4.42 0-8-3.58-8-8s3.58-8 8-8 8 3.58 8 8-3.58 8-8 8zm0-4c-.73 0-1.38-.18-1.96-.52-.12.14-.86.98-1.01 1.15a5.49 5.49 0 0 0 5.95-.01c-.97-1.09-.01-.02-1.01-1.15-.59.35-1.24.53-1.97.53z"/>
        </symbol>
        <symbol id="sentiment_very_dissatisfied" viewBox="0 0 100 100">
          <title>sentiment_very_dissatisfied</title>
          <path d="M0 0h24v24H0V0z"/><circle cx="15.5" cy="9.5" r="1.5"/><circle cx="8.5" cy="9.5" r="1.5"/><path d="M11.99 2C6.47 2 2 6.48 2 12s4.47 10 9.99 10C17.52 22 22 17.52 22 12S17.52 2 11.99 2zM12 20c-4.42 0-8-3.58-8-8s3.58-8 8-8 8 3.58 8 8-3.58 8-8 8zm0-6c-2.33 0-4.32 1.45-5.12 3.5h1.67c.69-1.19 1.97-2 3.45-2s2.75.81 3.45 2h1.67c-.8-2.05-2.79-3.5-5.12-3.5z"/>
        </symbol>
        <symbol id="sentiment_very_satisfied" viewBox="0 0 100 100">
          <title>sentiment_very_satisfied</title>
          <path d="M0 0h24v24H0V0z"/><circle cx="15.5" cy="9.5" r="1.5"/><circle cx="8.5" cy="9.5" r="1.5"/><path d="M11.99 2C6.47 2 2 6.48 2 12s4.47 10 9.99 10C17.52 22 22 17.52 22 12S17.52 2 11.99 2zM12 20c-4.42 0-8-3.58-8-8s3.58-8 8-8 8 3.58 8 8-3.58 8-8 8zm-5-6c.78 2.34 2.72 4 5 4s4.22-1.66 5-4H7z"/>
        </symbol>
        <symbol id="share" viewBox="0 0 100 100">
          <title>share</title>
          <path d="M0 0h24v24H0z"/><path d="M18 16.08c-.76 0-1.44.3-1.96.77L8.91 12.7c.05-.23.09-.46.09-.7s-.04-.47-.09-.7l7.05-4.11c.54.5 1.25.81 2.04.81 1.66 0 3-1.34 3-3s-1.34-3-3-3-3 1.34-3 3c0 .24.04.47.09.7L8.04 9.81C7.5 9.31 6.79 9 6 9c-1.66 0-3 1.34-3 3s1.34 3 3 3c.79 0 1.5-.31 2.04-.81l7.12 4.16c-.05.21-.08.43-.08.65 0 1.61 1.31 2.92 2.92 2.92 1.61 0 2.92-1.31 2.92-2.92s-1.31-2.92-2.92-2.92z"/>
        </symbol>
        <symbol id="sick" viewBox="0 0 100 100">
          <title>sick</title>
          <path d="M0 0h24v24H0z"/><path d="M21 9c-1.1 0-2-.9-2-2s2-4 2-4 2 2.9 2 4-.9 2-2 2zm-3.5-2c0-.73.41-1.71.92-2.66A9.965 9.965 0 0 0 11.99 2C6.47 2 2 6.48 2 12s4.47 10 9.99 10C17.52 22 22 17.52 22 12c0-.55-.06-1.09-.14-1.62a3.5 3.5 0 0 1-.86.12c-1.93 0-3.5-1.57-3.5-3.5zm-1.88.38 1.06 1.06-1.06 1.06 1.06 1.06-1.06 1.06L13.5 9.5l2.12-2.12zm-8.3 1.06 1.06-1.06L10.5 9.5l-2.12 2.12-1.06-1.06L8.38 9.5 7.32 8.44zM15.44 17c-.69-1.19-1.97-2-3.44-2s-2.75.81-3.44 2H6.88c.3-.76.76-1.43 1.34-1.99L5.24 13.3c-.45.26-1.01.28-1.49 0a1.501 1.501 0 0 1 1.5-2.6c.48.28.74.78.74 1.29l3.58 2.07c.73-.36 1.55-.56 2.43-.56 2.33 0 4.32 1.45 5.12 3.5h-1.68z"/>
        </symbol>
        <symbol id="single_bed" viewBox="0 0 100 100">
          <title>single_bed</title>
          <path d="M0 0h24v24H0z"/><path d="M20 12c0-1.1-.9-2-2-2V7c0-1.1-.9-2-2-2H8c-1.1 0-2 .9-2 2v3c-1.1 0-2 .9-2 2v5h1.33L6 19h1l.67-2h8.67l.66 2h1l.67-2H20v-5zm-4-2h-3V7h3v3zM8 7h3v3H8V7zm-2 5h12v3H6v-3z"/>
        </symbol>
        <symbol id="skateboarding" viewBox="0 0 100 100">
          <title>skateboarding</title>
          <path d="M0 0h24v24H0z"/><path d="M13 3c0-1.1.9-2 2-2s2 .9 2 2-.9 2-2 2-2-.9-2-2zM7.25 22.5c-.41 0-.75.34-.75.75s.34.75.75.75.75-.34.75-.75-.34-.75-.75-.75zm8.5 0c-.41 0-.75.34-.75.75s.34.75.75.75.75-.34.75-.75-.34-.75-.75-.75zm3.49-3.5a.72.72 0 0 0-.59.3c-.55.73-1.42 1.2-2.4 1.2H16v-6l-4.32-2.67 1.8-2.89A6.507 6.507 0 0 0 19 12v-2c-1.85 0-3.44-1.12-4.13-2.72l-.52-1.21C14.16 5.64 13.61 5 12.7 5H7L4.5 9l1.7 1.06L8.1 7h2.35l-2.4 3.84c-.31.5-.39 1.11-.21 1.67l1.34 4.15-3.12 3.76c-.7-.16-1.3-.57-1.71-1.12a.749.749 0 1 0-1.2.9c.82 1.1 2.13 1.8 3.6 1.8h9.5c1.47 0 2.78-.7 3.6-1.8.1-.14.15-.3.15-.45 0-.39-.32-.75-.76-.75zM14 20.5H8.6l2.9-3.5-1-3.3 3.5 2.2v4.6z"/>
        </symbol>
        <symbol id="sledding" viewBox="0 0 100 100">
          <title>sledding</title>
          <path d="M0 0h24v24H0z"/><path d="M14 4.5c0 1.1-.9 2-2 2s-2-.9-2-2 .9-2 2-2 2 .9 2 2zm8.8 15.74a4.003 4.003 0 0 1-5.04 2.57L1 17.36l.46-1.43 3.93 1.28.46-1.43-3.92-1.28.46-1.43L4 13.6V9.5l5.47-2.35c.39-.17.84-.21 1.28-.07.95.31 1.46 1.32 1.16 2.27l-1.05 3.24 2.14-.34c.89-.15 1.76.32 2.14 1.14l2.08 4.51 1.93.63-.46 1.43-3.32-1.08-.47 1.42 3.32 1.08c1.31.43 2.72-.29 3.15-1.61.43-1.31-.29-2.72-1.61-3.15l.46-1.43c2.11.69 3.27 2.95 2.58 5.05zM6 14.25l1.01.33c-.22-.42-.28-.92-.12-1.4L7.92 10 6 10.82v3.43zm7.94 4.16-6.66-2.16-.46 1.43 6.66 2.16.46-1.43zm.69-1.36-1.18-2.56-3.97.89 5.15 1.67z"/>
        </symbol>
        <symbol id="snowboarding" viewBox="0 0 100 100">
          <title>snowboarding</title>
          <path d="M0 0h24v24H0z"/><path d="M14 3c0-1.1.9-2 2-2s2 .9 2 2-.9 2-2 2-2-.9-2-2zm7.4 17.09a.748.748 0 0 0-.64.17c-.69.6-1.64.88-2.6.67L17 20.69l-1-6.19-3.32-2.67 1.8-2.89A6.507 6.507 0 0 0 20 12v-2c-1.85 0-3.44-1.12-4.13-2.72l-.52-1.21C15.16 5.64 14.61 5 13.7 5H8L5.5 9l1.7 1.06L9.1 7h2.35l-2.51 3.99c-.28.45-.37 1-.25 1.52L9.5 16 6 18.35l-.47-.1c-.96-.2-1.71-.85-2.1-1.67a.744.744 0 0 0-.51-.42c-.43-.09-.82.2-.9.58-.04.14-.02.31.05.46.58 1.24 1.71 2.2 3.15 2.51l12.63 2.69c1.44.31 2.86-.11 3.9-1.01.13-.11.21-.26.24-.41.07-.38-.16-.8-.59-.89zM8.73 18.93l3.02-2.03-.44-3.32 2.84 2.02.75 4.64-6.17-1.31z"/>
        </symbol>
        <symbol id="snowshoeing" viewBox="0 0 100 100">
          <title>snowshoeing</title>
          <path d="M0 0h24v24H0z"/><path d="M12.5 3.5c0-1.1.9-2 2-2s2 .9 2 2-.9 2-2 2-2-.9-2-2zM6.32 19.03l-1.14-1.47L4 18.5l2.38 3.04c.51.65 1.16 1.15 1.88 1.41.28.1.53.04.72-.11.3-.23.42-.7.12-1.07a.84.84 0 0 0-.31-.22 2.97 2.97 0 0 1-1.14-.83l-.08-.1L11 18.2l.89-3.22 2.11 2v4.52h-2V23h3.87c.82 0 1.61-.21 2.26-.61.26-.16.37-.39.37-.64 0-.38-.3-.75-.77-.75-.13 0-.26.04-.37.1-.4.23-.87.37-1.36.4v-6.02l-2.11-2 .6-3C15.79 11.98 17.8 13 20 13v-2c-1.9 0-3.51-1.02-4.31-2.42l-1-1.58c-.4-.6-1-1-1.7-1-.75 0-1.41.34-5.99 2.28V13h2V9.58l1.79-.7L9.2 17l-2.88 2.03z"/>
        </symbol>
        <symbol id="social_distance" viewBox="0 0 100 100">
          <title>social_distance</title>
          <path d="M0 0h24v24H0z"/><path d="M4 5c0-1.1.9-2 2-2s2 .9 2 2-.9 2-2 2-2-.9-2-2zm4.78 3.58a6.95 6.95 0 0 0-5.56 0A2.01 2.01 0 0 0 2 10.43V11h8v-.57c0-.81-.48-1.53-1.22-1.85zM18 7c1.1 0 2-.9 2-2s-.9-2-2-2-2 .9-2 2 .9 2 2 2zm2.78 1.58a6.95 6.95 0 0 0-5.56 0A2.01 2.01 0 0 0 14 10.43V11h8v-.57c0-.81-.48-1.53-1.22-1.85zM22 17l-4-4v3H6v-3l-4 4 4 4v-3h12v3l4-4z"/>
        </symbol>
        <symbol id="sports" viewBox="0 0 100 100">
          <title>sports</title>
          <path d="M0 0h24v24H0z"/><path d="M11.23 6c-1.66 0-3.22.66-4.36 1.73C6.54 6.73 5.61 6 4.5 6a2.5 2.5 0 0 0 0 5c.21 0 .41-.03.61-.08-.05.25-.09.51-.1.78a6.006 6.006 0 0 0 6.68 6.27c2.55-.28 4.68-2.26 5.19-4.77.15-.71.15-1.4.06-2.06-.09-.6.38-1.13.99-1.13H22V6H11.23zM4.5 9c-.28 0-.5-.22-.5-.5s.22-.5.5-.5.5.22.5.5-.22.5-.5.5zm6.5 6c-1.66 0-3-1.34-3-3s1.34-3 3-3 3 1.34 3 3-1.34 3-3 3z"/><circle cx="11" cy="12" r="2"/>
        </symbol>
        <symbol id="sports_baseball" viewBox="0 0 100 100">
          <title>sports_baseball</title>
          <path d="M0 0h24v24H0z"/><path d="M3.81 6.28C2.67 7.9 2 9.87 2 12s.67 4.1 1.81 5.72C6.23 16.95 8 14.68 8 12S6.23 7.05 3.81 6.28zM20.19 6.28C17.77 7.05 16 9.32 16 12s1.77 4.95 4.19 5.72C21.33 16.1 22 14.13 22 12s-.67-4.1-1.81-5.72z"/><path d="M14 12c0-3.28 1.97-6.09 4.79-7.33C17.01 3.02 14.63 2 12 2S6.99 3.02 5.21 4.67C8.03 5.91 10 8.72 10 12s-1.97 6.09-4.79 7.33C6.99 20.98 9.37 22 12 22s5.01-1.02 6.79-2.67A8.002 8.002 0 0 1 14 12z"/>
        </symbol>
        <symbol id="sports_basketball" viewBox="0 0 100 100">
          <title>sports_basketball</title>
          <path d="M0 0h24v24H0z"/><path d="M17.09 11h4.86a9.951 9.951 0 0 0-1.54-4.4 5.987 5.987 0 0 0-3.32 4.4zM6.91 11a5.987 5.987 0 0 0-3.32-4.4A9.951 9.951 0 0 0 2.05 11h4.86zM15.07 11a7.994 7.994 0 0 1 4.06-6A9.969 9.969 0 0 0 13 2.05V11h2.07zM8.93 11H11V2.05A9.943 9.943 0 0 0 4.87 5a7.994 7.994 0 0 1 4.06 6zM15.07 13H13v8.95A9.943 9.943 0 0 0 19.13 19a7.994 7.994 0 0 1-4.06-6zM3.59 17.4A6.029 6.029 0 0 0 6.91 13H2.05c.16 1.61.71 3.11 1.54 4.4zM17.09 13a5.987 5.987 0 0 0 3.32 4.4 9.951 9.951 0 0 0 1.54-4.4h-4.86zM8.93 13a7.994 7.994 0 0 1-4.06 6A9.969 9.969 0 0 0 11 21.95V13H8.93z"/>
        </symbol>
        <symbol id="sports_cricket" viewBox="0 0 100 100">
          <title>sports_cricket</title>
          <path d="M0 0h24v24H0z"/><path d="M15.05 12.81 6.56 4.32a.996.996 0 0 0-1.41 0L2.32 7.15a.996.996 0 0 0 0 1.41l8.49 8.49c.39.39 1.02.39 1.41 0l2.83-2.83a.996.996 0 0 0 0-1.41zM14.341 17.756l1.414-1.414 4.243 4.243-1.414 1.414z"/><circle cx="18.5" cy="5.5" r="3.5"/>
        </symbol>
        <symbol id="sports_esports" viewBox="0 0 100 100">
          <title>sports_esports</title>
          <path d="M0 0h24v24H0z"/><path d="m21.58 16.09-1.09-7.66A3.996 3.996 0 0 0 16.53 5H7.47C5.48 5 3.79 6.46 3.51 8.43l-1.09 7.66C2.2 17.63 3.39 19 4.94 19c.68 0 1.32-.27 1.8-.75L9 16h6l2.25 2.25c.48.48 1.13.75 1.8.75 1.56 0 2.75-1.37 2.53-2.91zM11 11H9v2H8v-2H6v-1h2V8h1v2h2v1zm4-1c-.55 0-1-.45-1-1s.45-1 1-1 1 .45 1 1-.45 1-1 1zm2 3c-.55 0-1-.45-1-1s.45-1 1-1 1 .45 1 1-.45 1-1 1z"/>
        </symbol>
        <symbol id="sports_football" viewBox="0 0 100 100">
          <title>sports_football</title>
          <path d="M0 0h24v24H0z"/><path d="M3.02 15.62c-.08 2.42.32 4.34.67 4.69s2.28.76 4.69.67l-5.36-5.36zM13.08 3.28c-2.33.42-4.79 1.34-6.62 3.18s-2.76 4.29-3.18 6.62l7.63 7.63c2.34-.41 4.79-1.34 6.62-3.18s2.76-4.29 3.18-6.62l-7.63-7.63zM9.9 15.5l-1.4-1.4 5.6-5.6 1.4 1.4-5.6 5.6zM20.98 8.38c.08-2.42-.32-4.34-.67-4.69s-2.28-.76-4.69-.67l5.36 5.36z"/>
        </symbol>
        <symbol id="sports_golf" viewBox="0 0 100 100">
          <title>sports_golf</title>
          <path d="M0 0h24v24H0z"/><path d="M12 16c3.87 0 7-3.13 7-7s-3.13-7-7-7-7 3.13-7 7 3.13 7 7 7zm0-12c2.76 0 5 2.24 5 5s-2.24 5-5 5-5-2.24-5-5 2.24-5 5-5z"/><circle cx="10" cy="8" r="1"/><circle cx="14" cy="8" r="1"/><circle cx="12" cy="6" r="1"/><path d="M7 19h2c1.1 0 2 .9 2 2v1h2v-1c0-1.1.9-2 2-2h2v-2H7v2z"/>
        </symbol>
        <symbol id="sports_handball" viewBox="0 0 100 100">
          <title>sports_handball</title>
          <path d="M0 0h24v24H0z"/><path d="M14.27 6c-.55.95-.22 2.18.73 2.73.95.55 2.18.22 2.73-.73.55-.95.22-2.18-.73-2.73-.95-.55-2.18-.22-2.73.73z"/><path d="m15.84 10.41-2.6-1.5c-2.38-1.38-3.2-4.44-1.82-6.82l-1.73-1C8.1 3.83 8.6 7.21 10.66 9.4l-5.15 8.92 1.73 1 1.5-2.6 1.73 1-3 5.2 1.73 1 6.29-10.89a5.002 5.002 0 0 1 .31 5.46l1.73 1c1.6-2.75 1.28-6.58-1.69-9.08zM12.75 3.8c.72.41 1.63.17 2.05-.55.41-.72.17-1.63-.55-2.05a1.501 1.501 0 0 0-1.5 2.6z"/>
        </symbol>
        <symbol id="sports_hockey" viewBox="0 0 100 100">
          <title>sports_hockey</title>
          <path d="M0 0h24v24H0z"/><path d="M2 17v3h2v-4H3c-.55 0-1 .45-1 1zM9 16H5v4l4.69-.01c.38 0 .72-.21.89-.55l.87-1.9-1.59-3.48L9 16zM21.71 16.29A.997.997 0 0 0 21 16h-1v4h2v-3c0-.28-.11-.53-.29-.71zM13.6 12.84 17.65 4H14.3l-1.76 3.97-.49 1.1-.05.14L9.7 4H6.35l4.05 8.84 1.52 3.32.08.18 1.42 3.1c.17.34.51.55.89.55L19 20v-4h-4l-1.4-3.16z"/>
        </symbol>
        <symbol id="sports_kabaddi" viewBox="0 0 100 100">
          <title>sports_kabaddi</title>
          <path d="M0 0h24v24H0z"/><circle cx="16.5" cy="2.38" r="2"/><path d="M24 11.88v-4.7l-5.05-2.14c-.97-.41-2.09-.06-2.65.84l-1 1.6c-.67 1.18-1.91 2.06-3.41 2.32l.06.06c.69.69 1.52 1.07 2.46 1.17.8-.42 1.52-.98 2.09-1.64l.6 3-1.16 1.1-.94.89v7.5h2v-6l2.1-2 1.8 8H23l-2.18-11-.62-3.1 1.8.7v3.4h2zM10.29 8.09c.22.15.47.24.72.29.13.02.25.04.38.04s.26-.01.38-.04c.13-.02.25-.06.37-.11.24-.1.47-.24.66-.44.49-.49.67-1.17.55-1.8-.07-.37-.25-.74-.55-1.03-.19-.19-.42-.34-.66-.44-.12-.05-.24-.09-.37-.11s-.25-.04-.38-.04c-.12 0-.23.01-.35.03-.14.02-.28.06-.41.11-.23.11-.46.26-.65.45-.3.29-.48.66-.55 1.03-.12.63.06 1.31.55 1.8.09.1.2.18.31.26z"/><path d="m11.24 10.56-2-2c-.1-.1-.2-.18-.31-.26a1.93 1.93 0 0 0-.72-.28c-.13-.03-.25-.04-.38-.04-.51 0-1.02.2-1.41.59l-3.34 3.34c-.41.41-.62.98-.58 1.54 0 .18.04.37.11.55l1.07 2.95-3.63 3.63L1.46 22l4.24-4.24v-2.22L7 16.75v5.13h2v-6l-2.12-2.12 2.36-2.36.71.71c1.29 1.26 2.97 2.04 5.03 2.04l-.14-2.07c-1.5-.02-2.7-.62-3.6-1.52z"/>
        </symbol>
        <symbol id="sports_mma" viewBox="0 0 100 100">
          <title>sports_mma</title>
          <path d="M0 0h24v24H0z"/><path d="M7 20c0 .55.45 1 1 1h8c.55 0 1-.45 1-1v-3H7v3zM18 7c-.55 0-1 .45-1 1V5c0-1.1-.9-2-2-2H7c-1.1 0-2 .9-2 2v5.8c0 .13.01.26.04.39l.8 4c.09.47.5.8.98.8h10.36c.45 0 .89-.36.98-.8l.8-4c.03-.13.04-.26.04-.39V8c0-.55-.45-1-1-1zm-3 3H7V7h8v3z"/>
        </symbol>
        <symbol id="sports_motorsports" viewBox="0 0 100 100">
          <title>sports_motorsports</title>
          <path d="M0 0h24v24H0z"/><path d="M12 11.39c0-.65-.39-1.23-.98-1.48L5.44 7.55c-1.48 1.68-2.32 3.7-2.8 5.45h7.75c.89 0 1.61-.72 1.61-1.61z"/><path d="M21.96 11.22c-.41-4.41-4.56-7.49-8.98-7.2-2.51.16-4.44.94-5.93 2.04l4.74 2.01c1.33.57 2.2 1.87 2.2 3.32 0 1.99-1.62 3.61-3.61 3.61H2.21C2 16.31 2 17.2 2 17.2v.8c0 1.1.9 2 2 2h10c4.67 0 8.41-4.01 7.96-8.78z"/>
        </symbol>
        <symbol id="sports_rugby" viewBox="0 0 100 100">
          <title>sports_rugby</title>
          <path d="M0 0h24v24H0z"/><path d="M20.49 3.51c-.56-.56-2.15-.97-4.16-.97-3.08 0-7.15.96-9.98 3.79-4.69 4.7-4.25 12.74-2.84 14.16.56.56 2.15.97 4.16.97 3.08 0 7.15-.96 9.98-3.79 4.69-4.7 4.25-12.74 2.84-14.16zM7.76 7.76c2.64-2.64 6.35-3.12 8.03-3.19-2.05.94-4.46 2.45-6.61 4.61a23.462 23.462 0 0 0-4.62 6.63c.1-2.48.88-5.74 3.2-8.05zm8.48 8.48c-2.64 2.64-6.35 3.12-8.03 3.19 2.05-.94 4.46-2.45 6.61-4.61 2.16-2.16 3.67-4.58 4.62-6.63-.1 2.48-.88 5.74-3.2 8.05z"/>
        </symbol>
        <symbol id="sports_soccer" viewBox="0 0 100 100">
          <title>sports_soccer</title>
          <path d="M0 0h24v24H0z"/><path d="M12 2C6.48 2 2 6.48 2 12s4.48 10 10 10 10-4.48 10-10S17.52 2 12 2zm1 3.3 1.35-.95a8.01 8.01 0 0 1 4.38 3.34l-.39 1.34-1.35.46L13 6.7V5.3zm-3.35-.95L11 5.3v1.4L7.01 9.49l-1.35-.46-.39-1.34a8.103 8.103 0 0 1 4.38-3.34zM7.08 17.11l-1.14.1A7.938 7.938 0 0 1 4 12c0-.12.01-.23.02-.35l1-.73 1.38.48 1.46 4.34-.78 1.37zm7.42 2.48c-.79.26-1.63.41-2.5.41s-1.71-.15-2.5-.41l-.69-1.49.64-1.1h5.11l.64 1.11-.7 1.48zM14.27 15H9.73l-1.35-4.02L12 8.44l3.63 2.54L14.27 15zm3.79 2.21-1.14-.1-.79-1.37 1.46-4.34 1.39-.47 1 .73c.01.11.02.22.02.34 0 1.99-.73 3.81-1.94 5.21z"/>
        </symbol>
        <symbol id="sports_tennis" viewBox="0 0 100 100">
          <title>sports_tennis</title>
          <path d="M0 0h24v24H0z"/><path d="M19.52 2.49C17.18.15 12.9.62 9.97 3.55c-1.6 1.6-2.52 3.87-2.54 5.46-.02 1.58.26 3.89-1.35 5.5l-4.24 4.24 1.42 1.42 4.24-4.24c1.61-1.61 3.92-1.33 5.5-1.35s3.86-.94 5.46-2.54c2.92-2.93 3.4-7.21 1.06-9.55zm-9.2 9.19c-1.53-1.53-1.05-4.61 1.06-6.72s5.18-2.59 6.72-1.06c1.53 1.53 1.05 4.61-1.06 6.72s-5.18 2.59-6.72 1.06zM18 17c.53 0 1.04.21 1.41.59.78.78.78 2.05 0 2.83-.37.37-.88.58-1.41.58s-1.04-.21-1.41-.59c-.78-.78-.78-2.05 0-2.83.37-.37.88-.58 1.41-.58m0-2a3.998 3.998 0 0 0-2.83 6.83c.78.78 1.81 1.17 2.83 1.17a3.998 3.998 0 0 0 2.83-6.83A3.998 3.998 0 0 0 18 15z"/>
        </symbol>
        <symbol id="sports_volleyball" viewBox="0 0 100 100">
          <title>sports_volleyball</title>
          <path d="M0 0h24v24H0z"/><path d="M6 4.01C3.58 5.84 2 8.73 2 12c0 1.46.32 2.85.89 4.11L6 14.31V4.01zM11 11.42V2.05c-1.06.11-2.07.38-3 .79v10.32l3-1.74zM12 13.15l-8.11 4.68c.61.84 1.34 1.59 2.18 2.2L15 14.89l-3-1.74zM13 7.96v3.46l8.11 4.68c.42-.93.7-1.93.82-2.98L13 7.96zM8.07 21.2c1.21.51 2.53.8 3.93.8 3.34 0 6.29-1.65 8.11-4.16L17 16.04 8.07 21.2zM21.92 10.81c-.55-4.63-4.26-8.3-8.92-8.76v3.6l8.92 5.16z"/>
        </symbol>
        <symbol id="surfing" viewBox="0 0 100 100">
          <title>surfing</title>
          <path d="M0 0h24v24H0z"/><path d="M21 23c-1.03 0-2.06-.25-3-.75-1.89 1-4.11 1-6 0-1.89 1-4.11 1-6 0-.95.5-1.97.75-3 .75H2v-2h1c1.04 0 2.08-.35 3-1 1.83 1.3 4.17 1.3 6 0 1.83 1.3 4.17 1.3 6 0 .91.65 1.96 1 3 1h1v2h-1zM17 1.5c-1.1 0-2 .9-2 2s.9 2 2 2 2-.9 2-2-.9-2-2-2zm-2.57 6.98L12.18 10 16 13v3.84c.53.38 1.03.78 1.49 1.17-.68.58-1.55.99-2.49.99-1.2 0-2.27-.66-3-1.5-.73.84-1.8 1.5-3 1.5-.33 0-.65-.05-.96-.14C5.19 16.9 3 14.72 3 13.28 3 12.25 4.01 12 4.85 12c.98 0 2.28.31 3.7.83l-.53-3.1c-.11-.67.18-1.38.78-1.79l2.15-1.45-2-.37-2.82 1.93L5 6.4 8.5 4l5.55 1.03c.45.09.93.37 1.22.89l.88 1.55A5.007 5.007 0 0 0 20.5 10v2a7.01 7.01 0 0 1-6.07-3.52zM10.3 11.1l.44 2.65c.92.42 2.48 1.27 3.26 1.75V14l-3.7-2.9z"/>
        </symbol>
        <symbol id="switch_account" viewBox="0 0 100 100">
          <title>switch_account</title>
          <path d="M0 0h24v24H0z"/><path d="M4 6H2v14c0 1.1.9 2 2 2h14v-2H4V6zm16-4H8c-1.1 0-2 .9-2 2v12c0 1.1.9 2 2 2h12c1.1 0 2-.9 2-2V4c0-1.1-.9-2-2-2zm-6 2c1.66 0 3 1.34 3 3s-1.34 3-3 3-3-1.34-3-3 1.34-3 3-3zm6 12H8v-1.5c0-1.99 4-3 6-3s6 1.01 6 3V16z"/>
        </symbol>
        <symbol id="thumb_down_alt" viewBox="0 0 100 100">
          <title>thumb_down_alt</title>
          <path d="M24 24H0V0h24v24z"/><path d="M22 4h-2c-.55 0-1 .45-1 1v9c0 .55.45 1 1 1h2V4zM2.17 11.12c-.11.25-.17.52-.17.8V13c0 1.1.9 2 2 2h5.5l-.92 4.65c-.05.22-.02.46.08.66.23.45.52.86.88 1.22L10 22l6.41-6.41c.38-.38.59-.89.59-1.42V6.34C17 5.05 15.95 4 14.66 4h-8.1c-.71 0-1.36.37-1.72.97l-2.67 6.15z"/>
        </symbol>
        <symbol id="thumb_up_alt" viewBox="0 0 100 100">
          <title>thumb_up_alt</title>
          <path d="M24 24H0V0h24v24z"/><path d="M2 20h2c.55 0 1-.45 1-1v-9c0-.55-.45-1-1-1H2v11zm19.83-7.12c.11-.25.17-.52.17-.8V11c0-1.1-.9-2-2-2h-5.5l.92-4.65c.05-.22.02-.46-.08-.66a4.8 4.8 0 0 0-.88-1.22L14 2 7.59 8.41C7.21 8.79 7 9.3 7 9.83v7.84A2.34 2.34 0 0 0 9.34 20h8.11c.7 0 1.36-.37 1.72-.97l2.66-6.15z"/>
        </symbol>
        <symbol id="transgender" viewBox="0 0 100 100">
          <title>transgender</title>
          <path d="M0 0h24v24H0z"/><path d="M12 8c1.93 0 3.5 1.57 3.5 3.5S13.93 15 12 15s-3.5-1.57-3.5-3.5S10.07 8 12 8zm4.53.38 3.97-3.96V7h2V1h-6v2h2.58l-3.97 3.97C14.23 6.36 13.16 6 12 6s-2.23.36-3.11.97l-.65-.65 1.41-1.41-1.41-1.42L6.82 4.9 4.92 3H7.5V1h-6v6h2V4.42l1.91 1.9-1.42 1.42L5.4 9.15l1.41-1.41.65.65c-.6.88-.96 1.95-.96 3.11a5.5 5.5 0 0 0 4.5 5.41V19H9v2h2v2h2v-2h2v-2h-2v-2.09a5.5 5.5 0 0 0 3.53-8.53z"/>
        </symbol>
        <symbol id="travel_explore" viewBox="0 0 100 100">
          <title>travel_explore</title>
          <path d="M0 0h24v24H0z"/><path d="M19.3 16.9c.4-.7.7-1.5.7-2.4 0-2.5-2-4.5-4.5-4.5S11 12 11 14.5s2 4.5 4.5 4.5c.9 0 1.7-.3 2.4-.7l3.2 3.2 1.4-1.4-3.2-3.2zm-3.8.1c-1.4 0-2.5-1.1-2.5-2.5s1.1-2.5 2.5-2.5 2.5 1.1 2.5 2.5-1.1 2.5-2.5 2.5zM12 20v2C6.48 22 2 17.52 2 12S6.48 2 12 2c4.84 0 8.87 3.44 9.8 8h-2.07A8 8 0 0 0 15 4.59V5c0 1.1-.9 2-2 2h-2v2c0 .55-.45 1-1 1H8v2h2v3H9l-4.79-4.79C4.08 10.79 4 11.38 4 12c0 4.41 3.59 8 8 8z"/>
        </symbol>
        <symbol id="water_drop" viewBox="0 0 100 100">
          <title>water_drop</title>
          <path d="M0 0h24v24H0z"/><path d="M12 2c-5.33 4.55-8 8.48-8 11.8 0 4.98 3.8 8.2 8 8.2s8-3.22 8-8.2c0-3.32-2.67-7.25-8-11.8zM7.83 14c.37 0 .67.26.74.62.41 2.22 2.28 2.98 3.64 2.87.43-.02.79.32.79.75 0 .4-.32.73-.72.75-2.13.13-4.62-1.09-5.19-4.12a.75.75 0 0 1 .74-.87z"/>
        </symbol>
        <symbol id="waving_hand" viewBox="0 0 100 100">
          <title>waving_hand</title>
          <path d="M0 0h24v24H0z"/><path d="M23 17c0 3.31-2.69 6-6 6v-1.5c2.48 0 4.5-2.02 4.5-4.5H23zM1 7c0-3.31 2.69-6 6-6v1.5C4.52 2.5 2.5 4.52 2.5 7H1zm7.01-2.68-4.6 4.6c-3.22 3.22-3.22 8.45 0 11.67s8.45 3.22 11.67 0l7.07-7.07c.49-.49.49-1.28 0-1.77a1.25 1.25 0 0 0-1.77 0l-4.42 4.42-.71-.71 6.54-6.54c.49-.49.49-1.28 0-1.77s-1.28-.49-1.77 0l-5.83 5.83-.71-.71 6.89-6.89c.49-.49.49-1.28 0-1.77s-1.28-.49-1.77 0l-6.89 6.89-.69-.7 5.48-5.48c.49-.49.49-1.28 0-1.77s-1.28-.49-1.77 0l-7.62 7.62a4.003 4.003 0 0 1-.33 5.28l-.71-.71a3 3 0 0 0 0-4.24l-.35-.35 4.07-4.07c.49-.49.49-1.28 0-1.77a1.27 1.27 0 0 0-1.78.01z"/>
        </symbol>
        <symbol id="whatshot" viewBox="0 0 100 100">
          <title>whatshot</title>
          <path d="M0 0h24v24H0z"/><path d="M13.5.67s.74 2.65.74 4.8c0 2.06-1.35 3.73-3.41 3.73-2.07 0-3.63-1.67-3.63-3.73l.03-.36C5.21 7.51 4 10.62 4 14c0 4.42 3.58 8 8 8s8-3.58 8-8C20 8.61 17.41 3.8 13.5.67zM11.71 19c-1.78 0-3.22-1.4-3.22-3.14 0-1.62 1.05-2.76 2.81-3.12 1.77-.36 3.6-1.21 4.62-2.58.39 1.29.59 2.65.59 4.04 0 2.65-2.15 4.8-4.8 4.8z"/>
        </symbol>
    </defs>
</svg>
