<?xml version="1.0" encoding="UTF-8" standalone="no"?>
<svg
    xmlns="http://www.w3.org/2000/svg"
    xmlns:svg="http://www.w3.org/2000/svg"
    xmlns:rdf="http://www.w3.org/1999/02/22-rdf-syntax-ns#" 
    xmlns:ns2="http://creativecommons.org/ns#" 
    xmlns:dc="http://purl.org/dc/elements/1.1/" 
    xmlns:cc="http://creativecommons.org/ns#"         
    xmlns:xlink="http://www.w3.org/1999/xlink" 
    width="720"
    height="1008"
    
    version="1.1"
    id="svg2"
    style="fill:none;stroke:black">
    <title>Material Design Icons [Communication Set]</title>
    <desc>Material Design Icons are the official open-source icons featured in the Google Material Design specification.</desc>
    <metadata>
        <rdf:RDF>
            <cc:Work rdf:about="">
                <dc:format>image/svg+xml</dc:format>
                <dc:type rdf:resource="http://purl.org/dc/dcmitype/StillImage" />
                <dc:title>Material Design Icons [Communication Set]</dc:title>
                <dc:date>2021-11-08</dc:date>
                <dc:creator>
                    <cc:Agent>
                        <dc:title>Google</dc:title>
                    </cc:Agent>
                </dc:creator>
                <dc:rights>
                    <cc:Agent>
                        <dc:title>Open Source</dc:title>
                    </cc:Agent>
                </dc:rights>
                <dc:language>English</dc:language>

                <dc:source>https://github.com/google/material-design-icons</dc:source>
                <dc:description>Material Design Icons are the official open-source icons featured in the Google Material Design specification.</dc:description>
            </cc:Work>
        </rdf:RDF>
    </metadata>

    <defs>
        <symbol id="3p" viewBox="0 0 100 100">
          <title>3p</title>
          <path d="M0 0h24v24H0z"/><path d="M20 2H4.01c-1.1 0-2 .9-2 2L2 22l4-4h14c1.1 0 2-.9 2-2V4c0-1.1-.9-2-2-2zm-8 4c1.1 0 2 .9 2 2s-.9 2-2 2-2-.9-2-2 .9-2 2-2zm4 8H8v-.57c0-.81.48-1.53 1.22-1.85a6.95 6.95 0 0 1 5.56 0A2.01 2.01 0 0 1 16 13.43V14z"/>
        </symbol>
        <symbol id="add_ic_call" viewBox="0 0 100 100">
          <title>add_ic_call</title>
          <path d="M0 0h24v24H0z"/><path d="M20 15.5c-1.25 0-2.45-.2-3.57-.57a1.02 1.02 0 0 0-1.02.24l-2.2 2.2a15.045 15.045 0 0 1-6.59-6.59l2.2-2.21a.96.96 0 0 0 .25-1A11.36 11.36 0 0 1 8.5 4c0-.55-.45-1-1-1H4c-.55 0-1 .45-1 1 0 9.39 7.61 17 17 17 .55 0 1-.45 1-1v-3.5c0-.55-.45-1-1-1zM21 6h-3V3h-2v3h-3v2h3v3h2V8h3z"/>
        </symbol>
        <symbol id="alternate_email" viewBox="0 0 100 100">
          <title>alternate_email</title>
          <path d="M0 0h24v24H0z"/><path d="M12 2C6.48 2 2 6.48 2 12s4.48 10 10 10h5v-2h-5c-4.34 0-8-3.66-8-8s3.66-8 8-8 8 3.66 8 8v1.43c0 .79-.71 1.57-1.5 1.57s-1.5-.78-1.5-1.57V12c0-2.76-2.24-5-5-5s-5 2.24-5 5 2.24 5 5 5c1.38 0 2.64-.56 3.54-1.47.65.89 1.77 1.47 2.96 1.47 1.97 0 3.5-1.6 3.5-3.57V12c0-5.52-4.48-10-10-10zm0 13c-1.66 0-3-1.34-3-3s1.34-3 3-3 3 1.34 3 3-1.34 3-3 3z"/>
        </symbol>
        <symbol id="app_registration" viewBox="0 0 100 100">
          <title>app_registration</title>
          <path d="M0 0h24v24H0z"/><path d="M10 4h4v4h-4zM4 16h4v4H4zM4 10h4v4H4zM4 4h4v4H4zM14 12.42V10h-4v4h2.42zM20.88 11.29l-1.17-1.17a.41.41 0 0 0-.58 0l-.88.88L20 12.75l.88-.88a.41.41 0 0 0 0-.58zM11 18.25V20h1.75l6.67-6.67-1.75-1.75zM16 4h4v4h-4z"/>
        </symbol>
        <symbol id="business" viewBox="0 0 100 100">
          <title>business</title>
          <path d="M0 0h24v24H0z"/><path d="M12 7V3H2v18h20V7H12zM6 19H4v-2h2v2zm0-4H4v-2h2v2zm0-4H4V9h2v2zm0-4H4V5h2v2zm4 12H8v-2h2v2zm0-4H8v-2h2v2zm0-4H8V9h2v2zm0-4H8V5h2v2zm10 12h-8v-2h2v-2h-2v-2h2v-2h-2V9h8v10zm-2-8h-2v2h2v-2zm0 4h-2v2h2v-2z"/>
        </symbol>
        <symbol id="call" viewBox="0 0 100 100">
          <title>call</title>
          <path d="M0 0h24v24H0z"/><path d="M20.01 15.38c-1.23 0-2.42-.2-3.53-.56a.977.977 0 0 0-1.01.24l-1.57 1.97c-2.83-1.35-5.48-3.9-6.89-6.83l1.95-1.66c.27-.28.35-.67.24-1.02-.37-1.11-.56-2.3-.56-3.53 0-.54-.45-.99-.99-.99H4.19C3.65 3 3 3.24 3 3.99 3 13.28 10.73 21 20.01 21c.71 0 .99-.63.99-1.18v-3.45c0-.54-.45-.99-.99-.99z"/>
        </symbol>
        <symbol id="call_end" viewBox="0 0 100 100">
          <title>call_end</title>
          <path d="M0 0h24v24H0z"/><path d="M12 9c-1.6 0-3.15.25-4.6.72v3.1c0 .39-.23.74-.56.9-.98.49-1.87 1.12-2.66 1.85-.18.18-.43.28-.7.28-.28 0-.53-.11-.71-.29L.29 13.08a.956.956 0 0 1-.29-.7c0-.28.11-.53.29-.71C3.34 8.78 7.46 7 12 7s8.66 1.78 11.71 4.67c.18.18.29.43.29.71 0 .28-.11.53-.29.71l-2.48 2.48c-.18.18-.43.29-.71.29-.27 0-.52-.11-.7-.28a11.27 11.27 0 0 0-2.67-1.85.996.996 0 0 1-.56-.9v-3.1C15.15 9.25 13.6 9 12 9z"/>
        </symbol>
        <symbol id="call_made" viewBox="0 0 100 100">
          <title>call_made</title>
          <path d="M0 0h24v24H0z"/><path d="M9 5v2h6.59L4 18.59 5.41 20 17 8.41V15h2V5z"/>
        </symbol>
        <symbol id="call_merge" viewBox="0 0 100 100">
          <title>call_merge</title>
          <path d="M0 0h24v24H0z"/><path d="M17 20.41 18.41 19 15 15.59 13.59 17 17 20.41zM7.5 8H11v5.59L5.59 19 7 20.41l6-6V8h3.5L12 3.5 7.5 8z"/>
        </symbol>
        <symbol id="call_missed" viewBox="0 0 100 100">
          <title>call_missed</title>
          <path d="M0 0h24v24H0z"/><path d="M19.59 7 12 14.59 6.41 9H11V7H3v8h2v-4.59l7 7 9-9z"/>
        </symbol>
        <symbol id="call_missed_outgoing" viewBox="0 0 100 100">
          <title>call_missed_outgoing</title>
          <path d="M0 0h24v24H0z"/><path d="m3 8.41 9 9 7-7V15h2V7h-8v2h4.59L12 14.59 4.41 7 3 8.41z"/>
        </symbol>
        <symbol id="call_received" viewBox="0 0 100 100">
          <title>call_received</title>
          <path d="M0 0h24v24H0z"/><path d="M20 5.41 18.59 4 7 15.59V9H5v10h10v-2H8.41z"/>
        </symbol>
        <symbol id="call_split" viewBox="0 0 100 100">
          <title>call_split</title>
          <path d="M0 0h24v24H0z"/><path d="m14 4 2.29 2.29-2.88 2.88 1.42 1.42 2.88-2.88L20 10V4zm-4 0H4v6l2.29-2.29 4.71 4.7V20h2v-8.41l-5.29-5.3z"/>
        </symbol>
        <symbol id="cancel_presentation" viewBox="0 0 100 100">
          <title>cancel_presentation</title>
          <path d="M0 0h24v24H0z"/><path d="M21 19.1H3V5h18v14.1zM21 3H3c-1.1 0-2 .9-2 2v14c0 1.1.9 2 2 2h18c1.1 0 2-.9 2-2V5c0-1.1-.9-2-2-2z"/><path d="M21 19.1H3V5h18v14.1zM21 3H3c-1.1 0-2 .9-2 2v14c0 1.1.9 2 2 2h18c1.1 0 2-.9 2-2V5c0-1.1-.9-2-2-2z"/><path d="M14.59 8 12 10.59 9.41 8 8 9.41 10.59 12 8 14.59 9.41 16 12 13.41 14.59 16 16 14.59 13.41 12 16 9.41z"/>
        </symbol>
        <symbol id="cell_wifi" viewBox="0 0 100 100">
          <title>cell_wifi</title>
          <path d="M0 0h24v24H0z"/><path d="M18 9.98 6 22h16V5.97l-4 4.01zM20 20h-2v-7.22l2-2V20zM5.22 7.22 3.93 5.93c3.9-3.91 10.24-3.91 14.15 0l-1.29 1.29c-3.19-3.19-8.38-3.19-11.57 0zm7.71 3.85L11 13l-1.93-1.93a2.74 2.74 0 0 1 3.86 0zm1.29-1.28c-1.78-1.77-4.66-1.77-6.43 0L6.5 8.5a6.374 6.374 0 0 1 9 0l-1.28 1.29z"/>
        </symbol>
        <symbol id="chat" viewBox="0 0 100 100">
          <title>chat</title>
          <path d="M0 0h24v24H0z"/><path d="M20 2H4c-1.1 0-1.99.9-1.99 2L2 22l4-4h14c1.1 0 2-.9 2-2V4c0-1.1-.9-2-2-2zM6 9h12v2H6V9zm8 5H6v-2h8v2zm4-6H6V6h12v2z"/>
        </symbol>
        <symbol id="chat_bubble" viewBox="0 0 100 100">
          <title>chat_bubble</title>
          <path d="M0 0h24v24H0z"/><path d="M20 2H4c-1.1 0-2 .9-2 2v18l4-4h14c1.1 0 2-.9 2-2V4c0-1.1-.9-2-2-2z"/>
        </symbol>
        <symbol id="chat_bubble_outline" viewBox="0 0 100 100">
          <title>chat_bubble_outline</title>
          <path d="M0 0h24v24H0V0z"/><path d="M20 2H4c-1.1 0-2 .9-2 2v18l4-4h14c1.1 0 2-.9 2-2V4c0-1.1-.9-2-2-2zm0 14H6l-2 2V4h16v12z"/>
        </symbol>
        <symbol id="clear_all" viewBox="0 0 100 100">
          <title>clear_all</title>
          <path d="M0 0h24v24H0z"/><path d="M5 13h14v-2H5v2zm-2 4h14v-2H3v2zM7 7v2h14V7H7z"/>
        </symbol>
        <symbol id="comment" viewBox="0 0 100 100">
          <title>comment</title>
          <path d="M0 0h24v24H0z"/><path d="M21.99 4c0-1.1-.89-2-1.99-2H4c-1.1 0-2 .9-2 2v12c0 1.1.9 2 2 2h14l4 4-.01-18zM18 14H6v-2h12v2zm0-3H6V9h12v2zm0-3H6V6h12v2z"/>
        </symbol>
        <symbol id="contact_mail" viewBox="0 0 100 100">
          <title>contact_mail</title>
          <path d="M0 0h24v24H0z"/><path d="M0 0h24v24H0z"/><path d="M21 8V7l-3 2-3-2v1l3 2 3-2zm1-5H2C.9 3 0 3.9 0 5v14c0 1.1.9 2 2 2h20c1.1 0 1.99-.9 1.99-2L24 5c0-1.1-.9-2-2-2zM8 6c1.66 0 3 1.34 3 3s-1.34 3-3 3-3-1.34-3-3 1.34-3 3-3zm6 12H2v-1c0-2 4-3.1 6-3.1s6 1.1 6 3.1v1zm8-6h-8V6h8v6z"/>
        </symbol>
        <symbol id="contact_phone" viewBox="0 0 100 100">
          <title>contact_phone</title>
          <path d="M0 0h24v24H0z"/><path d="M22 3H2C.9 3 0 3.9 0 5v14c0 1.1.9 2 2 2h20c1.1 0 1.99-.9 1.99-2L24 5c0-1.1-.9-2-2-2zM8 6c1.66 0 3 1.34 3 3s-1.34 3-3 3-3-1.34-3-3 1.34-3 3-3zm6 12H2v-1c0-2 4-3.1 6-3.1s6 1.1 6 3.1v1zm3.85-4h1.64L21 16l-1.99 1.99A7.512 7.512 0 0 1 16.28 14c-.18-.64-.28-1.31-.28-2s.1-1.36.28-2a7.474 7.474 0 0 1 2.73-3.99L21 8l-1.51 2h-1.64c-.22.63-.35 1.3-.35 2s.13 1.37.35 2z"/>
        </symbol>
        <symbol id="contacts" viewBox="0 0 100 100">
          <title>contacts</title>
          <path d="M0 0h24v24H0zm0 0h24v24H0zm0 0h24v24H0z"/><path d="M20 0H4v2h16V0zM4 24h16v-2H4v2zM20 4H4c-1.1 0-2 .9-2 2v12c0 1.1.9 2 2 2h16c1.1 0 2-.9 2-2V6c0-1.1-.9-2-2-2zm-8 2.75c1.24 0 2.25 1.01 2.25 2.25s-1.01 2.25-2.25 2.25S9.75 10.24 9.75 9 10.76 6.75 12 6.75zM17 17H7v-1.5c0-1.67 3.33-2.5 5-2.5s5 .83 5 2.5V17z"/>
        </symbol>
        <symbol id="desktop_access_disabled" viewBox="0 0 100 100">
          <title>desktop_access_disabled</title>
          <path d="M0 0h24v24H0V0z"/><path d="M23 16c0 1.1-.9 2-2 2h-1l-2-2h3V4H6L4 2h17c1.1 0 2 .9 2 2v12zm-5.5 2-2-2zm-2.6 0 6 6 1.3-1.3-4.7-4.7-2-2L1.2 1.8 0 3.1l1 1V16c0 1.1.9 2 2 2h7v2H8v2h8v-2h-2v-2h.9zM3 16V6.1l9.9 9.9H3z"/>
        </symbol>
        <symbol id="dialer_sip" viewBox="0 0 100 100">
          <title>dialer_sip</title>
          <path d="M0 0h24v24H0z"/><path d="M17 3h-1v5h1V3zm-2 2h-2V4h2V3h-3v3h2v1h-2v1h3V5zm3-2v5h1V6h2V3h-3zm2 2h-1V4h1v1zm0 10.5c-1.25 0-2.45-.2-3.57-.57a.998.998 0 0 0-1.01.24l-2.2 2.2a15.045 15.045 0 0 1-6.59-6.59l2.2-2.21c.27-.26.35-.65.24-1A11.36 11.36 0 0 1 8.5 4c0-.55-.45-1-1-1H4c-.55 0-1 .45-1 1 0 9.39 7.61 17 17 17 .55 0 1-.45 1-1v-3.5c0-.55-.45-1-1-1z"/>
        </symbol>
        <symbol id="dialpad" viewBox="0 0 100 100">
          <title>dialpad</title>
          <path d="M0 0h24v24H0z"/><path d="M12 19c-1.1 0-2 .9-2 2s.9 2 2 2 2-.9 2-2-.9-2-2-2zM6 1c-1.1 0-2 .9-2 2s.9 2 2 2 2-.9 2-2-.9-2-2-2zm0 6c-1.1 0-2 .9-2 2s.9 2 2 2 2-.9 2-2-.9-2-2-2zm0 6c-1.1 0-2 .9-2 2s.9 2 2 2 2-.9 2-2-.9-2-2-2zm12-8c1.1 0 2-.9 2-2s-.9-2-2-2-2 .9-2 2 .9 2 2 2zm-6 8c-1.1 0-2 .9-2 2s.9 2 2 2 2-.9 2-2-.9-2-2-2zm6 0c-1.1 0-2 .9-2 2s.9 2 2 2 2-.9 2-2-.9-2-2-2zm0-6c-1.1 0-2 .9-2 2s.9 2 2 2 2-.9 2-2-.9-2-2-2zm-6 0c-1.1 0-2 .9-2 2s.9 2 2 2 2-.9 2-2-.9-2-2-2zm0-6c-1.1 0-2 .9-2 2s.9 2 2 2 2-.9 2-2-.9-2-2-2z"/>
        </symbol>
        <symbol id="document_scanner" viewBox="0 0 100 100">
          <title>document_scanner</title>
          <path d="M0 0h24v24H0z"/><path d="M7 3H4v3H2V1h5v2zm15 3V1h-5v2h3v3h2zM7 21H4v-3H2v5h5v-2zm13-3v3h-3v2h5v-5h-2zm-1 0c0 1.1-.9 2-2 2H7c-1.1 0-2-.9-2-2V6c0-1.1.9-2 2-2h10c1.1 0 2 .9 2 2v12zM15 8H9v2h6V8zm0 3H9v2h6v-2zm0 3H9v2h6v-2z"/>
        </symbol>
        <symbol id="domain_disabled" viewBox="0 0 100 100">
          <title>domain_disabled</title>
          <path d="M0 0h24v24H0V0zm0 0h24v24H0V0z"/><path d="M8 5h2v2h-.9L12 9.9V9h8v8.9l2 2V7H12V3H5.1L8 5.9zm8 6h2v2h-2zM1.3 1.8.1 3.1 2 5v16h16l3 3 1.3-1.3-21-20.9zM6 19H4v-2h2v2zm0-4H4v-2h2v2zm0-4H4V9h2v2zm4 8H8v-2h2v2zm0-4H8v-2h2v2zm2 4v-2h2l2 2h-4z"/>
        </symbol>
        <symbol id="domain_verification" viewBox="0 0 100 100">
          <title>domain_verification</title>
          <path d="M0 0h24v24H0z"/><path d="m16.6 10.88-1.42-1.42-4.24 4.25-2.12-2.13L7.4 13l3.54 3.54z"/><path d="M19 4H5a2 2 0 0 0-2 2v12a2 2 0 0 0 2 2h14c1.1 0 2-.9 2-2V6a2 2 0 0 0-2-2zm0 14H5V8h14v10z"/>
        </symbol>
        <symbol id="duo" viewBox="0 0 100 100">
          <title>duo</title>
          <path d="M0 0h24v24H0z"/><path d="M20 2h-8C6.38 2 2 6.66 2 12.28 2 17.5 6.49 22 11.72 22 17.39 22 22 17.62 22 12V4c0-1.1-.9-2-2-2zm-3 13-3-2v2H7V9h7v2l3-2v6z"/>
        </symbol>
        <symbol id="email" viewBox="0 0 100 100">
          <title>email</title>
          <path d="M0 0h24v24H0z"/><path d="M20 4H4c-1.1 0-1.99.9-1.99 2L2 18c0 1.1.9 2 2 2h16c1.1 0 2-.9 2-2V6c0-1.1-.9-2-2-2zm0 4-8 5-8-5V6l8 5 8-5v2z"/>
        </symbol>
        <symbol id="forum" viewBox="0 0 100 100">
          <title>forum</title>
          <path d="M0 0h24v24H0z"/><path d="M21 6h-2v9H6v2c0 .55.45 1 1 1h11l4 4V7c0-.55-.45-1-1-1zm-4 6V3c0-.55-.45-1-1-1H3c-.55 0-1 .45-1 1v14l4-4h10c.55 0 1-.45 1-1z"/>
        </symbol>
        <symbol id="forward_to_inbox" viewBox="0 0 100 100">
          <title>forward_to_inbox</title>
          <path d="M0 0h24v24H0z"/><path d="M20 4H4c-1.1 0-2 .9-2 2v12c0 1.1.9 2 2 2h9v-2H4V8l8 5 8-5v5h2V6c0-1.1-.9-2-2-2zm-8 7L4 6h16l-8 5zm7 4 4 4-4 4v-3h-4v-2h4v-3z"/>
        </symbol>
        <symbol id="hourglass_bottom" viewBox="0 0 100 100">
          <title>hourglass_bottom</title>
          <path d="M0 0h24v24H0z"/><path d="m18 22-.01-6L14 12l3.99-4.01L18 2H6v6l4 4-4 3.99V22h12zM8 7.5V4h8v3.5l-4 4-4-4z"/>
        </symbol>
        <symbol id="hourglass_top" viewBox="0 0 100 100">
          <title>hourglass_top</title>
          <path d="M0 0h24v24H0z"/><path d="m6 2 .01 6L10 12l-3.99 4.01L6 22h12v-6l-4-4 4-3.99V2H6zm10 14.5V20H8v-3.5l4-4 4 4z"/>
        </symbol>
        <symbol id="import_contacts" viewBox="0 0 100 100">
          <title>import_contacts</title>
          <path d="M0 0h24v24H0z"/><path d="M17.5 4.5c-1.95 0-4.05.4-5.5 1.5-1.45-1.1-3.55-1.5-5.5-1.5S2.45 4.9 1 6v14.65c0 .65.73.45.75.45C3.1 20.45 5.05 20 6.5 20c1.95 0 4.05.4 5.5 1.5 1.35-.85 3.8-1.5 5.5-1.5 1.65 0 3.35.3 4.75 1.05.41.21.75-.19.75-.45V6c-1.49-1.12-3.63-1.5-5.5-1.5zm3.5 14c-1.1-.35-2.3-.5-3.5-.5-1.7 0-4.15.65-5.5 1.5V8c1.35-.85 3.8-1.5 5.5-1.5 1.2 0 2.4.15 3.5.5v11.5z"/>
        </symbol>
        <symbol id="import_export" viewBox="0 0 100 100">
          <title>import_export</title>
          <path d="M0 0h24v24H0z"/><path d="M9 3 5 6.99h3V14h2V6.99h3L9 3zm7 14.01V10h-2v7.01h-3L15 21l4-3.99h-3z"/>
        </symbol>
        <symbol id="invert_colors_off" viewBox="0 0 100 100">
          <title>invert_colors_off</title>
          <path d="M0 0h24v24H0z"/><path d="M21.19 21.19 2.81 2.81 1.39 4.22l4.2 4.2a7.73 7.73 0 0 0-1.6 4.7C4 17.48 7.58 21 12 21c1.75 0 3.36-.56 4.67-1.5l3.1 3.1 1.42-1.41zM12 19c-3.31 0-6-2.63-6-5.87 0-1.19.36-2.32 1.02-3.28L12 14.83V19zM8.38 5.56 12 2l5.65 5.56C19.1 8.99 20 10.96 20 13.13c0 1.18-.27 2.29-.74 3.3L12 9.17V4.81L9.8 6.97 8.38 5.56z"/>
        </symbol>
        <symbol id="list_alt" viewBox="0 0 100 100">
          <title>list_alt</title>
          <path d="M0 0h24v24H0z"/><path d="M19 5v14H5V5h14m1.1-2H3.9c-.5 0-.9.4-.9.9v16.2c0 .4.4.9.9.9h16.2c.4 0 .9-.5.9-.9V3.9c0-.5-.5-.9-.9-.9zM11 7h6v2h-6V7zm0 4h6v2h-6v-2zm0 4h6v2h-6zM7 7h2v2H7zm0 4h2v2H7zm0 4h2v2H7z"/>
        </symbol>
        <symbol id="live_help" viewBox="0 0 100 100">
          <title>live_help</title>
          <path d="M0 0h24v24H0z"/><path d="M19 2H5a2 2 0 0 0-2 2v14a2 2 0 0 0 2 2h4l3 3 3-3h4c1.1 0 2-.9 2-2V4c0-1.1-.9-2-2-2zm-6 16h-2v-2h2v2zm2.07-7.75-.9.92C13.45 11.9 13 12.5 13 14h-2v-.5c0-1.1.45-2.1 1.17-2.83l1.24-1.26c.37-.36.59-.86.59-1.41 0-1.1-.9-2-2-2s-2 .9-2 2H8c0-2.21 1.79-4 4-4s4 1.79 4 4c0 .88-.36 1.68-.93 2.25z"/>
        </symbol>
        <symbol id="location_off" viewBox="0 0 100 100">
          <title>location_off</title>
          <path d="M0 0h24v24H0zm11.75 11.47-.11-.11z"/><path d="M12 6.5A2.5 2.5 0 0 1 14.5 9c0 .74-.33 1.39-.83 1.85l3.63 3.63c.98-1.86 1.7-3.8 1.7-5.48 0-3.87-3.13-7-7-7a7 7 0 0 0-5.04 2.15l3.19 3.19c.46-.52 1.11-.84 1.85-.84zm4.37 9.6-4.63-4.63-.11-.11L3.27 3 2 4.27l3.18 3.18C5.07 7.95 5 8.47 5 9c0 5.25 7 13 7 13s1.67-1.85 3.38-4.35L18.73 21 20 19.73l-3.63-3.63z"/>
        </symbol>
        <symbol id="location_on" viewBox="0 0 100 100">
          <title>location_on</title>
          <path d="M0 0h24v24H0z"/><path d="M12 2C8.13 2 5 5.13 5 9c0 5.25 7 13 7 13s7-7.75 7-13c0-3.87-3.13-7-7-7zm0 9.5a2.5 2.5 0 0 1 0-5 2.5 2.5 0 0 1 0 5z"/>
        </symbol>
        <symbol id="mail_outline" viewBox="0 0 100 100">
          <title>mail_outline</title>
          <path d="M0 0h24v24H0z"/><path d="M20 4H4c-1.1 0-1.99.9-1.99 2L2 18c0 1.1.9 2 2 2h16c1.1 0 2-.9 2-2V6c0-1.1-.9-2-2-2zm0 14H4V8l8 5 8-5v10zm-8-7L4 6h16l-8 5z"/>
        </symbol>
        <symbol id="mark_chat_read" viewBox="0 0 100 100">
          <title>mark_chat_read</title>
          <path d="M0 0h24v24H0z"/><path d="m17.34 20-3.54-3.54 1.41-1.41 2.12 2.12 4.24-4.24L23 14.34 17.34 20zM12 17a6.995 6.995 0 0 1 10-6.32V4c0-1.1-.9-2-2-2H4c-1.1 0-2 .9-2 2v18l4-4h6c0-.17.01-.33.03-.5A4.07 4.07 0 0 1 12 17z"/>
        </symbol>
        <symbol id="mark_chat_unread" viewBox="0 0 100 100">
          <title>mark_chat_unread</title>
          <path d="M0 0h24v24H0z"/><path d="M22 6.98V16c0 1.1-.9 2-2 2H6l-4 4V4c0-1.1.9-2 2-2h10.1A5.002 5.002 0 0 0 19 8c1.13 0 2.16-.39 3-1.02zM16 3c0 1.66 1.34 3 3 3s3-1.34 3-3-1.34-3-3-3-3 1.34-3 3z"/>
        </symbol>
        <symbol id="mark_email_read" viewBox="0 0 100 100">
          <title>mark_email_read</title>
          <path d="M0 0h24v24H0z"/><path d="M12 19a6.995 6.995 0 0 1 10-6.32V6c0-1.1-.9-2-2-2H4c-1.1 0-2 .9-2 2v12c0 1.1.9 2 2 2h8.08c-.05-.33-.08-.66-.08-1zM4 6l8 5 8-5v2l-8 5-8-5V6zm13.34 16-3.54-3.54 1.41-1.41 2.12 2.12 4.24-4.24L23 16.34 17.34 22z"/>
        </symbol>
        <symbol id="mark_email_unread" viewBox="0 0 100 100">
          <title>mark_email_unread</title>
          <path d="M0 0h24v24H0z"/><path d="M22 8.98V18c0 1.1-.9 2-2 2H4c-1.1 0-2-.9-2-2V6c0-1.1.9-2 2-2h10.1c-.06.32-.1.66-.1 1 0 1.48.65 2.79 1.67 3.71L12 11 4 6v2l8 5 5.3-3.32c.54.2 1.1.32 1.7.32 1.13 0 2.16-.39 3-1.02zM16 5c0 1.66 1.34 3 3 3s3-1.34 3-3-1.34-3-3-3-3 1.34-3 3z"/>
        </symbol>
        <symbol id="message" viewBox="0 0 100 100">
          <title>message</title>
          <path d="M0 0h24v24H0z"/><path d="M20 2H4c-1.1 0-1.99.9-1.99 2L2 22l4-4h14c1.1 0 2-.9 2-2V4c0-1.1-.9-2-2-2zm-2 12H6v-2h12v2zm0-3H6V9h12v2zm0-3H6V6h12v2z"/>
        </symbol>
        <symbol id="mobile_screen_share" viewBox="0 0 100 100">
          <title>mobile_screen_share</title>
          <path d="M0 0h24v24H0V0z"/><path d="M17 1.01 7 1c-1.1 0-1.99.9-1.99 2v18c0 1.1.89 2 1.99 2h10c1.1 0 2-.9 2-2V3c0-1.1-.9-1.99-2-1.99zM17 19H7V5h10v14zm-4.2-5.78v1.75l3.2-2.99L12.8 9v1.7c-3.11.43-4.35 2.56-4.8 4.7 1.11-1.5 2.58-2.18 4.8-2.18z"/>
        </symbol>
        <symbol id="more_time" viewBox="0 0 100 100">
          <title>more_time</title>
          <path d="M0 0h24v24H0z"/><path d="M10 8v6l4.7 2.9.8-1.2-4-2.4V8z"/><path d="M17.92 12A6.957 6.957 0 0 1 11 20c-3.9 0-7-3.1-7-7s3.1-7 7-7c.7 0 1.37.1 2 .29V4.23c-.64-.15-1.31-.23-2-.23-5 0-9 4-9 9s4 9 9 9a8.963 8.963 0 0 0 8.94-10h-2.02z"/><path d="M20 5V2h-2v3h-3v2h3v3h2V7h3V5z"/>
        </symbol>
        <symbol id="nat" viewBox="0 0 100 100">
          <title>nat</title>
          <path d="M0 0h24v24H0z"/><path d="M6.82 13H11v-2H6.82C6.4 9.84 5.3 9 4 9c-1.66 0-3 1.34-3 3s1.34 3 3 3c1.3 0 2.4-.84 2.82-2zM4 13c-.55 0-1-.45-1-1s.45-1 1-1 1 .45 1 1-.45 1-1 1z"/><path d="m23 12-4-3v2h-4.05c-.5-5.05-4.76-9-9.95-9v2c4.42 0 8 3.58 8 8s-3.58 8-8 8v2c5.19 0 9.45-3.95 9.95-9H19v2l4-3z"/>
        </symbol>
        <symbol id="no_sim" viewBox="0 0 100 100">
          <title>no_sim</title>
          <path d="M0 0h24v24H0z"/><path d="M18.99 5c0-1.1-.89-2-1.99-2h-7L7.66 5.34 19 16.68 18.99 5zM3.65 3.88 2.38 5.15 5 7.77V19c0 1.1.9 2 2 2h10.01c.35 0 .67-.1.96-.26l1.88 1.88 1.27-1.27L3.65 3.88z"/>
        </symbol>
        <symbol id="pause_presentation" viewBox="0 0 100 100">
          <title>pause_presentation</title>
          <path d="M0 0h24v24H0z"/><path d="M21 19.1H3V5h18v14.1zM21 3H3c-1.1 0-2 .9-2 2v14c0 1.1.9 2 2 2h18c1.1 0 2-.9 2-2V5c0-1.1-.9-2-2-2z"/><path d="M21 19.1H3V5h18v14.1zM21 3H3c-1.1 0-2 .9-2 2v14c0 1.1.9 2 2 2h18c1.1 0 2-.9 2-2V5c0-1.1-.9-2-2-2z"/><path d="M9 8h2v8H9zm4 0h2v8h-2z"/>
        </symbol>
        <symbol id="person_add_disabled" viewBox="0 0 100 100">
          <title>person_add_disabled</title>
          <path d="M0 0h24v24H0V0z"/><circle cx="15" cy="8" r="4"/><path d="M23 20v-2c0-2.3-4.1-3.7-6.9-3.9l6 5.9h.9zm-11.6-5.5C9.2 15.1 7 16.3 7 18v2h9.9l4 4 1.3-1.3-21-20.9L0 3.1l4 4V10H1v2h3v3h2v-3h2.9l2.5 2.5zM6 10v-.9l.9.9H6z"/>
        </symbol>
        <symbol id="person_search" viewBox="0 0 100 100">
          <title>person_search</title>
          <path d="M0 0h24v24H0z"/><circle cx="10" cy="8" r="4"/><path d="M10.35 14.01C7.62 13.91 2 15.27 2 18v2h9.54c-2.47-2.76-1.23-5.89-1.19-5.99zM19.43 18.02c.36-.59.57-1.28.57-2.02 0-2.21-1.79-4-4-4s-4 1.79-4 4 1.79 4 4 4c.74 0 1.43-.22 2.02-.57L20.59 22 22 20.59l-2.57-2.57zM16 18c-1.1 0-2-.9-2-2s.9-2 2-2 2 .9 2 2-.9 2-2 2z"/>
        </symbol>
        <symbol id="phone" viewBox="0 0 100 100">
          <title>phone</title>
          <path d="M0 0h24v24H0z"/><path d="M6.62 10.79c1.44 2.83 3.76 5.14 6.59 6.59l2.2-2.2c.27-.27.67-.36 1.02-.24 1.12.37 2.33.57 3.57.57.55 0 1 .45 1 1V20c0 .55-.45 1-1 1-9.39 0-17-7.61-17-17 0-.55.45-1 1-1h3.5c.55 0 1 .45 1 1 0 1.25.2 2.45.57 3.57.11.35.03.74-.25 1.02l-2.2 2.2z"/>
        </symbol>
        <symbol id="phone_disabled" viewBox="0 0 100 100">
          <title>phone_disabled</title>
          <path d="M0 0h24v24H0z"/><path d="m17.34 14.54-1.43-1.43c.56-.73 1.05-1.5 1.47-2.32l-2.2-2.2c-.28-.28-.36-.67-.25-1.02.37-1.12.57-2.32.57-3.57 0-.55.45-1 1-1H20c.55 0 1 .45 1 1 0 3.98-1.37 7.64-3.66 10.54zm-2.82 2.81A16.884 16.884 0 0 1 4 21c-.55 0-1-.45-1-1v-3.49c0-.55.45-1 1-1 1.24 0 2.45-.2 3.57-.57.35-.12.75-.03 1.02.24l2.2 2.2c.81-.42 1.58-.9 2.3-1.46L1.39 4.22l1.42-1.41L21.19 21.2l-1.41 1.41-5.26-5.26z"/>
        </symbol>
        <symbol id="phone_enabled" viewBox="0 0 100 100">
          <title>phone_enabled</title>
          <path d="M0 0h24v24H0z"/><path d="m17.38 10.79-2.2-2.2c-.28-.28-.36-.67-.25-1.02.37-1.12.57-2.32.57-3.57 0-.55.45-1 1-1H20c.55 0 1 .45 1 1 0 9.39-7.61 17-17 17-.55 0-1-.45-1-1v-3.49c0-.55.45-1 1-1 1.24 0 2.45-.2 3.57-.57.35-.12.75-.03 1.02.24l2.2 2.2c2.83-1.45 5.15-3.76 6.59-6.59z"/>
        </symbol>
        <symbol id="phonelink_erase" viewBox="0 0 100 100">
          <title>phonelink_erase</title>
          <path d="M0 0h24v24H0V0z"/><path d="m13 8.2-1-1-4 4-4-4-1 1 4 4-4 4 1 1 4-4 4 4 1-1-4-4 4-4zM19 1H9c-1.1 0-2 .9-2 2v3h2V4h10v16H9v-2H7v3c0 1.1.9 2 2 2h10c1.1 0 2-.9 2-2V3c0-1.1-.9-2-2-2z"/>
        </symbol>
        <symbol id="phonelink_lock" viewBox="0 0 100 100">
          <title>phonelink_lock</title>
          <path d="M0 0h24v24H0V0z"/><path d="M19 1H9c-1.1 0-2 .9-2 2v3h2V4h10v16H9v-2H7v3c0 1.1.9 2 2 2h10c1.1 0 2-.9 2-2V3c0-1.1-.9-2-2-2zm-8.2 10V9.5C10.8 8.1 9.4 7 8 7S5.2 8.1 5.2 9.5V11c-.6 0-1.2.6-1.2 1.2v3.5c0 .7.6 1.3 1.2 1.3h5.5c.7 0 1.3-.6 1.3-1.2v-3.5c0-.7-.6-1.3-1.2-1.3zm-1.3 0h-3V9.5c0-.8.7-1.3 1.5-1.3s1.5.5 1.5 1.3V11z"/>
        </symbol>
        <symbol id="phonelink_ring" viewBox="0 0 100 100">
          <title>phonelink_ring</title>
          <path d="M0 0h24v24H0V0z"/><path d="m20.1 7.7-1 1c1.8 1.8 1.8 4.6 0 6.5l1 1c2.5-2.3 2.5-6.1 0-8.5zM18 9.8l-1 1c.5.7.5 1.6 0 2.3l1 1c1.2-1.2 1.2-3 0-4.3zM14 1H4c-1.1 0-2 .9-2 2v18c0 1.1.9 2 2 2h10c1.1 0 2-.9 2-2V3c0-1.1-.9-2-2-2zm0 19H4V4h10v16z"/>
        </symbol>
        <symbol id="phonelink_setup" viewBox="0 0 100 100">
          <title>phonelink_setup</title>
          <path d="M0 0h24v24H0z"/><path d="M10.82 12.49c.02-.16.04-.32.04-.49 0-.17-.02-.33-.04-.49l1.08-.82c.1-.07.12-.21.06-.32l-1.03-1.73c-.06-.11-.2-.15-.31-.11l-1.28.5c-.27-.2-.56-.36-.87-.49l-.2-1.33c0-.12-.11-.21-.24-.21H5.98a.26.26 0 0 0-.26.21l-.2 1.32c-.31.12-.6.3-.87.49l-1.28-.5c-.12-.05-.25 0-.31.11l-1.03 1.73c-.06.12-.03.25.07.33l1.08.82c-.02.16-.03.33-.03.49 0 .17.02.33.04.49l-1.09.83c-.1.07-.12.21-.06.32l1.03 1.73c.06.11.2.15.31.11l1.28-.5c.27.2.56.36.87.49l.2 1.32c.01.12.12.21.25.21h2.06c.13 0 .24-.09.25-.21l.2-1.32c.31-.12.6-.3.87-.49l1.28.5c.12.05.25 0 .31-.11l1.03-1.73c.06-.11.04-.24-.06-.32l-1.1-.83zM7 13.75c-.99 0-1.8-.78-1.8-1.75s.81-1.75 1.8-1.75 1.8.78 1.8 1.75S8 13.75 7 13.75zM18 1.01 8 1c-1.1 0-2 .9-2 2v3h2V5h10v14H8v-1H6v3c0 1.1.9 2 2 2h10c1.1 0 2-.9 2-2V3c0-1.1-.9-1.99-2-1.99z"/>
        </symbol>
        <symbol id="portable_wifi_off" viewBox="0 0 100 100">
          <title>portable_wifi_off</title>
          <path d="M0 0h24v24H0zm0 0h24v24H0z"/><path d="M17.56 14.24c.28-.69.44-1.45.44-2.24 0-3.31-2.69-6-6-6-.79 0-1.55.16-2.24.44l1.62 1.62c.2-.03.41-.06.62-.06a3.999 3.999 0 0 1 3.95 4.63l1.61 1.61zM12 4c4.42 0 8 3.58 8 8 0 1.35-.35 2.62-.95 3.74l1.47 1.47A9.86 9.86 0 0 0 22 12c0-5.52-4.48-10-10-10-1.91 0-3.69.55-5.21 1.47l1.46 1.46C9.37 4.34 10.65 4 12 4zM3.27 2.5 2 3.77l2.1 2.1C2.79 7.57 2 9.69 2 12c0 3.7 2.01 6.92 4.99 8.65l1-1.73C5.61 17.53 4 14.96 4 12c0-1.76.57-3.38 1.53-4.69l1.43 1.44C6.36 9.68 6 10.8 6 12c0 2.22 1.21 4.15 3 5.19l1-1.74c-1.19-.7-2-1.97-2-3.45 0-.65.17-1.25.44-1.79l1.58 1.58L10 12c0 1.1.9 2 2 2l.21-.02.01.01 7.51 7.51L21 20.23 4.27 3.5l-1-1z"/>
        </symbol>
        <symbol id="present_to_all" viewBox="0 0 100 100">
          <title>present_to_all</title>
          <path d="M0 0h24v24H0V0z"/><path d="M21 3H3c-1.11 0-2 .89-2 2v14c0 1.11.89 2 2 2h18c1.11 0 2-.89 2-2V5c0-1.11-.89-2-2-2zm0 16.02H3V4.98h18v14.04zM10 12H8l4-4 4 4h-2v4h-4v-4z"/>
        </symbol>
        <symbol id="print_disabled" viewBox="0 0 100 100">
          <title>print_disabled</title>
          <path d="M0 0h24v24H0V0z"/><path d="M19.1 17H22v-6c0-1.7-1.3-3-3-3h-9l9.1 9zm-.1-7c.55 0 1 .45 1 1s-.45 1-1 1-1-.45-1-1 .45-1 1-1zm-1-3V3H6v1.1L9 7zM1.2 1.8 0 3l4.9 5C3.3 8.1 2 9.4 2 11v6h4v4h11.9l3 3 1.3-1.3-21-20.9zM8 19v-5h2.9l5 5H8z"/>
        </symbol>
        <symbol id="qr_code" viewBox="0 0 100 100">
          <title>qr_code</title>
          <path d="M0 0h24v24H0z"/><path d="M3 11h8V3H3v8zm2-6h4v4H5V5zM3 21h8v-8H3v8zm2-6h4v4H5v-4zM13 3v8h8V3h-8zm6 6h-4V5h4v4zM19 19h2v2h-2zM13 13h2v2h-2zM15 15h2v2h-2zM13 17h2v2h-2zM15 19h2v2h-2zM17 17h2v2h-2zM17 13h2v2h-2zM19 15h2v2h-2z"/>
        </symbol>
        <symbol id="qr_code_2" viewBox="0 0 100 100">
          <title>qr_code_2</title>
          <path d="M0 0h24v24H0z"/><path d="M15 21h-2v-2h2v2zm-2-7h-2v5h2v-5zm8-2h-2v4h2v-4zm-2-2h-2v2h2v-2zM7 12H5v2h2v-2zm-2-2H3v2h2v-2zm7-5h2V3h-2v2zm-7.5-.5v3h3v-3h-3zM9 9H3V3h6v6zm-4.5 7.5v3h3v-3h-3zM9 21H3v-6h6v6zm7.5-16.5v3h3v-3h-3zM21 9h-6V3h6v6zm-2 10v-3h-4v2h2v3h4v-2h-2zm-2-7h-4v2h4v-2zm-4-2H7v2h2v2h2v-2h2v-2zm1-1V7h-2V5h-2v4h4zM6.75 5.25h-1.5v1.5h1.5v-1.5zm0 12h-1.5v1.5h1.5v-1.5zm12-12h-1.5v1.5h1.5v-1.5z"/>
        </symbol>
        <symbol id="qr_code_scanner" viewBox="0 0 100 100">
          <title>qr_code_scanner</title>
          <path d="M0 0h24v24H0z"/><path d="M9.5 6.5v3h-3v-3h3M11 5H5v6h6V5zm-1.5 9.5v3h-3v-3h3M11 13H5v6h6v-6zm6.5-6.5v3h-3v-3h3M19 5h-6v6h6V5zm-6 8h1.5v1.5H13V13zm1.5 1.5H16V16h-1.5v-1.5zM16 13h1.5v1.5H16V13zm-3 3h1.5v1.5H13V16zm1.5 1.5H16V19h-1.5v-1.5zM16 16h1.5v1.5H16V16zm1.5-1.5H19V16h-1.5v-1.5zm0 3H19V19h-1.5v-1.5zM22 7h-2V4h-3V2h5v5zm0 15v-5h-2v3h-3v2h5zM2 22h5v-2H4v-3H2v5zM2 2v5h2V4h3V2H2z"/>
        </symbol>
        <symbol id="read_more" viewBox="0 0 100 100">
          <title>read_more</title>
          <path d="M0 0h24v24H0z"/><path d="M13 7h9v2h-9zM13 15h9v2h-9zM16 11h6v2h-6zM13 12 8 7v4H2v2h6v4z"/>
        </symbol>
        <symbol id="ring_volume" viewBox="0 0 100 100">
          <title>ring_volume</title>
          <path d="M0 0h24v24H0z"/><path d="M23.71 16.67A16.971 16.971 0 0 0 12 12C7.46 12 3.34 13.78.29 16.67c-.18.18-.29.43-.29.71 0 .28.11.53.29.71l2.48 2.48c.18.18.43.29.71.29.27 0 .52-.11.7-.28.79-.74 1.69-1.36 2.66-1.85.33-.16.56-.5.56-.9v-3.1c1.45-.48 3-.73 4.6-.73s3.15.25 4.6.72v3.1c0 .39.23.74.56.9.98.49 1.87 1.12 2.66 1.85.18.18.43.28.7.28.28 0 .53-.11.71-.29l2.48-2.48c.18-.18.29-.43.29-.71a.99.99 0 0 0-.29-.7zM21.16 6.26l-1.41-1.41-3.56 3.55 1.41 1.41s3.45-3.52 3.56-3.55zM13 2h-2v5h2V2zM6.4 9.81 7.81 8.4 4.26 4.84 2.84 6.26c.11.03 3.56 3.55 3.56 3.55z"/>
        </symbol>
        <symbol id="rss_feed" viewBox="0 0 100 100">
          <title>rss_feed</title>
          <path d="M0 0h24v24H0z"/><circle cx="6.18" cy="17.82" r="2.18"/><path d="M4 4.44v2.83c7.03 0 12.73 5.7 12.73 12.73h2.83c0-8.59-6.97-15.56-15.56-15.56zm0 5.66v2.83c3.9 0 7.07 3.17 7.07 7.07h2.83c0-5.47-4.43-9.9-9.9-9.9z"/>
        </symbol>
        <symbol id="rtt" viewBox="0 0 100 100">
          <title>rtt</title>
          <path d="M0 0h24v24H0z"/><path d="m9.03 3-1.11 7.07h2.62l.7-4.5h2.58L11.8 18.43H9.47L9.06 21h7.27l.4-2.57h-2.35l2-12.86h2.58l-.71 4.5h2.65L22 3H9.03zM8 5H4l-.31 2h4L8 5zm-.61 4h-4l-.31 2h4l.31-2zm.92 8h-6L2 19h6l.31-2zm.62-4h-6l-.31 2h6.01l.3-2z"/>
        </symbol>
        <symbol id="screen_share" viewBox="0 0 100 100">
          <title>screen_share</title>
          <path d="M0 0h24v24H0V0z"/><path d="M20 18c1.1 0 1.99-.9 1.99-2L22 6a2 2 0 0 0-2-2H4c-1.11 0-2 .89-2 2v10a2 2 0 0 0 2 2H0v2h24v-2h-4zm-7-3.53v-2.19c-2.78 0-4.61.85-6 2.72.56-2.67 2.11-5.33 6-5.87V7l4 3.73-4 3.74z"/>
        </symbol>
        <symbol id="sentiment_satisfied_alt" viewBox="0 0 100 100">
          <title>sentiment_satisfied_alt</title>
          <path d="M0 0h24v24H0V0z"/><path d="M0 0h24v24H0V0z"/><circle cx="15.5" cy="9.5" r="1.5"/><circle cx="8.5" cy="9.5" r="1.5"/><circle cx="15.5" cy="9.5" r="1.5"/><circle cx="8.5" cy="9.5" r="1.5"/><path d="M11.99 2C6.47 2 2 6.48 2 12s4.47 10 9.99 10C17.52 22 22 17.52 22 12S17.52 2 11.99 2zM12 20c-4.42 0-8-3.58-8-8s3.58-8 8-8 8 3.58 8 8-3.58 8-8 8zm0-2.5c2.33 0 4.32-1.45 5.12-3.5h-1.67c-.69 1.19-1.97 2-3.45 2s-2.75-.81-3.45-2H6.88c.8 2.05 2.79 3.5 5.12 3.5z"/>
        </symbol>
        <symbol id="sip" viewBox="0 0 100 100">
          <title>sip</title>
          <path d="M0 0h24v24H0z"/><path d="M15.5 10.5h2v1h-2z"/><path d="M20 4H4c-1.1 0-2 .9-2 2v12c0 1.1.9 2 2 2h16c1.1 0 2-.9 2-2V6c0-1.1-.9-2-2-2zm-10 6.5H6.5v.75H9c.55 0 1 .45 1 1V14c0 .55-.45 1-1 1H5v-1.5h3.5v-.75H6c-.55 0-1-.45-1-1V10c0-.55.45-1 1-1h4v1.5zm3 4.5h-2V9h2v6zm6-3c0 .55-.45 1-1 1h-2.5v2H14V9h4c.55 0 1 .45 1 1v2z"/>
        </symbol>
        <symbol id="speaker_phone" viewBox="0 0 100 100">
          <title>speaker_phone</title>
          <path d="M0 0h24v24H0V0zm0 0h24v24H0V0z"/><path d="M7 7.07 8.43 8.5c.91-.91 2.18-1.48 3.57-1.48s2.66.57 3.57 1.48L17 7.07C15.72 5.79 13.95 5 12 5s-3.72.79-5 2.07zM12 1C8.98 1 6.24 2.23 4.25 4.21l1.41 1.41C7.28 4 9.53 3 12 3s4.72 1 6.34 2.62l1.41-1.41A10.963 10.963 0 0 0 12 1zm2.86 9.01L9.14 10C8.51 10 8 10.51 8 11.14v9.71c0 .63.51 1.14 1.14 1.14h5.71c.63 0 1.14-.51 1.14-1.14v-9.71c.01-.63-.5-1.13-1.13-1.13zM15 20H9v-8h6v8z"/>
        </symbol>
        <symbol id="stay_current_landscape" viewBox="0 0 100 100">
          <title>stay_current_landscape</title>
          <path d="M0 0h24v24H0z"/><path d="M1.01 7 1 17c0 1.1.9 2 2 2h18c1.1 0 2-.9 2-2V7c0-1.1-.9-2-2-2H3c-1.1 0-1.99.9-1.99 2zM19 7v10H5V7h14z"/>
        </symbol>
        <symbol id="stay_current_portrait" viewBox="0 0 100 100">
          <title>stay_current_portrait</title>
          <path d="M0 0h24v24H0z"/><path d="M17 1.01 7 1c-1.1 0-1.99.9-1.99 2v18c0 1.1.89 2 1.99 2h10c1.1 0 2-.9 2-2V3c0-1.1-.9-1.99-2-1.99zM17 19H7V5h10v14z"/>
        </symbol>
        <symbol id="stay_primary_landscape" viewBox="0 0 100 100">
          <title>stay_primary_landscape</title>
          <path d="M0 0h24v24H0z"/><path d="M1.01 7 1 17c0 1.1.9 2 2 2h18c1.1 0 2-.9 2-2V7c0-1.1-.9-2-2-2H3c-1.1 0-1.99.9-1.99 2zM19 7v10H5V7h14z"/>
        </symbol>
        <symbol id="stay_primary_portrait" viewBox="0 0 100 100">
          <title>stay_primary_portrait</title>
          <path d="M0 0h24v24H0z"/><path d="M17 1.01 7 1c-1.1 0-1.99.9-1.99 2v18c0 1.1.89 2 1.99 2h10c1.1 0 2-.9 2-2V3c0-1.1-.9-1.99-2-1.99zM17 19H7V5h10v14z"/>
        </symbol>
        <symbol id="stop_screen_share" viewBox="0 0 100 100">
          <title>stop_screen_share</title>
          <path d="M0 0h24v24H0V0z"/><path d="m21.22 18.02 2 2H24v-2h-2.78zm.77-2 .01-10a2 2 0 0 0-2-2H7.22l5.23 5.23c.18-.04.36-.07.55-.1V7.02l4 3.73-1.58 1.47 5.54 5.54c.61-.33 1.03-.99 1.03-1.74zM2.39 1.73 1.11 3l1.54 1.54c-.4.36-.65.89-.65 1.48v10a2 2 0 0 0 2 2H0v2h18.13l2.71 2.71 1.27-1.27L2.39 1.73zM7 15.02c.31-1.48.92-2.95 2.07-4.06l1.59 1.59c-1.54.38-2.7 1.18-3.66 2.47z"/>
        </symbol>
        <symbol id="swap_calls" viewBox="0 0 100 100">
          <title>swap_calls</title>
          <path d="M0 0h24v24H0z"/><path d="m18 4-4 4h3v7c0 1.1-.9 2-2 2s-2-.9-2-2V8c0-2.21-1.79-4-4-4S5 5.79 5 8v7H2l4 4 4-4H7V8c0-1.1.9-2 2-2s2 .9 2 2v7c0 2.21 1.79 4 4 4s4-1.79 4-4V8h3l-4-4z"/>
        </symbol>
        <symbol id="textsms" viewBox="0 0 100 100">
          <title>textsms</title>
          <path d="M0 0h24v24H0z"/><path d="M20 2H4c-1.1 0-1.99.9-1.99 2L2 22l4-4h14c1.1 0 2-.9 2-2V4c0-1.1-.9-2-2-2zM9 11H7V9h2v2zm4 0h-2V9h2v2zm4 0h-2V9h2v2z"/>
        </symbol>
        <symbol id="unsubscribe" viewBox="0 0 100 100">
          <title>unsubscribe</title>
          <path d="M18.5 13c-1.93 0-3.5 1.57-3.5 3.5s1.57 3.5 3.5 3.5 3.5-1.57 3.5-3.5-1.57-3.5-3.5-3.5zm2 4h-4v-1h4v1zm-6.95 0c-.02-.17-.05-.33-.05-.5 0-2.76 2.24-5 5-5 .92 0 1.76.26 2.5.69V5c0-1.1-.9-2-2-2H5c-1.1 0-2 .9-2 2v10c0 1.1.9 2 2 2h8.55zM12 10.5 5 7V5l7 3.5L19 5v2l-7 3.5z"/>
        </symbol>
        <symbol id="voicemail" viewBox="0 0 100 100">
          <title>voicemail</title>
          <path d="M0 0h24v24H0z"/><path d="M18.5 6C15.46 6 13 8.46 13 11.5c0 1.33.47 2.55 1.26 3.5H9.74c.79-.95 1.26-2.17 1.26-3.5C11 8.46 8.54 6 5.5 6S0 8.46 0 11.5 2.46 17 5.5 17h13c3.04 0 5.5-2.46 5.5-5.5S21.54 6 18.5 6zm-13 9C3.57 15 2 13.43 2 11.5S3.57 8 5.5 8 9 9.57 9 11.5 7.43 15 5.5 15zm13 0c-1.93 0-3.5-1.57-3.5-3.5S16.57 8 18.5 8 22 9.57 22 11.5 20.43 15 18.5 15z"/>
        </symbol>
        <symbol id="vpn_key" viewBox="0 0 100 100">
          <title>vpn_key</title>
          <path d="M0 0h24v24H0z"/><path d="M12.65 10A5.99 5.99 0 0 0 7 6c-3.31 0-6 2.69-6 6s2.69 6 6 6a5.99 5.99 0 0 0 5.65-4H17v4h4v-4h2v-4H12.65zM7 14c-1.1 0-2-.9-2-2s.9-2 2-2 2 .9 2 2-.9 2-2 2z"/>
        </symbol>
        <symbol id="wifi_calling" viewBox="0 0 100 100">
          <title>wifi_calling</title>
          <path d="M0 0h24v24H0z"/><path d="M22 4.95C21.79 4.78 19.67 3 16.5 3c-3.18 0-5.29 1.78-5.5 1.95L16.5 12 22 4.95z"/><path d="M20 15.51c-1.24 0-2.45-.2-3.57-.57a.994.994 0 0 0-1.02.24l-2.2 2.2a15.149 15.149 0 0 1-6.59-6.59l2.2-2.2c.28-.28.36-.67.25-1.02A11.36 11.36 0 0 1 8.5 4c0-.55-.45-1-1-1H4c-.55 0-1 .45-1 1 0 9.39 7.61 17 17 17 .55 0 1-.45 1-1v-3.49c0-.55-.45-1-1-1z"/>
        </symbol>
    </defs>
</svg>
