<?xml version="1.0" encoding="UTF-8" standalone="no"?>
<svg
    xmlns="http://www.w3.org/2000/svg"
    xmlns:svg="http://www.w3.org/2000/svg"
    xmlns:rdf="http://www.w3.org/1999/02/22-rdf-syntax-ns#" 
    xmlns:ns2="http://creativecommons.org/ns#" 
    xmlns:dc="http://purl.org/dc/elements/1.1/" 
    xmlns:cc="http://creativecommons.org/ns#"         
    xmlns:xlink="http://www.w3.org/1999/xlink" 
    width="720"
    height="1008"
    
    version="1.1"
    id="svg2"
    style="fill:none;stroke:black">
    <title>Material Design Icons [Device Set]</title>
    <desc>Material Design Icons are the official open-source icons featured in the Google Material Design specification.</desc>
    <metadata>
        <rdf:RDF>
            <cc:Work rdf:about="">
                <dc:format>image/svg+xml</dc:format>
                <dc:type rdf:resource="http://purl.org/dc/dcmitype/StillImage" />
                <dc:title>Material Design Icons [Device Set]</dc:title>
                <dc:date>2021-11-08</dc:date>
                <dc:creator>
                    <cc:Agent>
                        <dc:title>Google</dc:title>
                    </cc:Agent>
                </dc:creator>
                <dc:rights>
                    <cc:Agent>
                        <dc:title>Open Source</dc:title>
                    </cc:Agent>
                </dc:rights>
                <dc:language>English</dc:language>

                <dc:source>https://github.com/google/material-design-icons</dc:source>
                <dc:description>Material Design Icons are the official open-source icons featured in the Google Material Design specification.</dc:description>
            </cc:Work>
        </rdf:RDF>
    </metadata>

    <defs>
        <symbol id="1x_mobiledata" viewBox="0 0 100 100">
          <title>1x_mobiledata</title>
          <path d="M0 0h24v24H0V0z"/><path d="M4 7h4v10H6V9H4V7zm11.83 4.72L18.66 7h-2.33l-1.66 2.77L13 7h-2.33l2.83 4.72L10.33 17h2.33l2-3.34 2 3.34H19l-3.17-5.28z"/>
        </symbol>
        <symbol id="30fps" viewBox="0 0 100 100">
          <title>30fps</title>
          <path d="M0 0h24v24H0V0z"/><path d="M2 5v3h6v2.5H3v3h5V16H2v3h6c1.66 0 3-1.34 3-3v-1.9A2.1 2.1 0 0 0 8.9 12 2.1 2.1 0 0 0 11 9.9V8c0-1.66-1.34-3-3-3H2zm17 3v8h-4V8h4m0-3h-4c-1.66 0-3 1.34-3 3v8c0 1.66 1.34 3 3 3h4c1.66 0 3-1.34 3-3V8c0-1.66-1.34-3-3-3z"/>
        </symbol>
        <symbol id="3g_mobiledata" viewBox="0 0 100 100">
          <title>3g_mobiledata</title>
          <path d="M0 0h24v24H0V0z"/><path d="M3 7v2h5v2H4v2h4v2H3v2h5c1.1 0 2-.9 2-2v-1.5c0-.83-.67-1.5-1.5-1.5.83 0 1.5-.67 1.5-1.5V9c0-1.1-.9-2-2-2H3zm18 4v4c0 1.1-.9 2-2 2h-5c-1.1 0-2-.9-2-2V9c0-1.1.9-2 2-2h5c1.1 0 2 .9 2 2h-7v6h5v-2h-2.5v-2H21z"/>
        </symbol>
        <symbol id="4g_mobiledata" viewBox="0 0 100 100">
          <title>4g_mobiledata</title>
          <path d="M0 0h24v24H0V0z"/><path d="M9 7H7v5H5V7H3v7h4v3h2v-3h2v-2H9V7zm8 4v2h2v2h-5V9h7c0-1.1-.9-2-2-2h-5c-1.1 0-2 .9-2 2v6c0 1.1.9 2 2 2h5c1.1 0 2-.9 2-2v-4h-4z"/>
        </symbol>
        <symbol id="4g_plus_mobiledata" viewBox="0 0 100 100">
          <title>4g_plus_mobiledata</title>
          <path d="M0 0h24v24H0V0z"/><path d="M13 11v2h2v2h-4V9h6c0-1.1-.9-2-2-2h-4c-1.1 0-2 .9-2 2v6c0 1.1.9 2 2 2h4c1.1 0 2-.9 2-2v-4h-4zm11 0h-2V9h-2v2h-2v2h2v2h2v-2h2v-2zM7 7H5v5H3V7H1v7h4v3h2v-3h1v-2H7V7z"/>
        </symbol>
        <symbol id="60fps" viewBox="0 0 100 100">
          <title>60fps</title>
          <path d="M0 0h24v24H0V0z"/><path d="M19 8v8h-4V8h4m0-3h-4c-1.66 0-3 1.34-3 3v8c0 1.66 1.34 3 3 3h4c1.66 0 3-1.34 3-3V8c0-1.66-1.34-3-3-3zm-9 3V5H5C3.34 5 2 6.34 2 8v8c0 1.66 1.34 3 3 3h3c1.66 0 3-1.34 3-3v-3c0-1.66-1.34-3-3-3H5V8h5zm-2 5v3H5v-3h3z"/>
        </symbol>
        <symbol id="access_alarm" viewBox="0 0 100 100">
          <title>access_alarm</title>
          <path d="M0 0h24v24H0z"/><path d="m22 5.72-4.6-3.86-1.29 1.53 4.6 3.86L22 5.72zM7.88 3.39 6.6 1.86 2 5.71l1.29 1.53 4.59-3.85zM12.5 8H11v6l4.75 2.85.75-1.23-4-2.37V8zM12 4c-4.97 0-9 4.03-9 9s4.02 9 9 9a9 9 0 0 0 0-18zm0 16c-3.87 0-7-3.13-7-7s3.13-7 7-7 7 3.13 7 7-3.13 7-7 7z"/>
        </symbol>
        <symbol id="access_alarms" viewBox="0 0 100 100">
          <title>access_alarms</title>
          <path d="M-618-568H782v3600H-618zM0 0h24v24H0z"/><path d="m22 5.7-4.6-3.9-1.3 1.5 4.6 3.9L22 5.7zM7.9 3.4 6.6 1.9 2 5.7l1.3 1.5 4.6-3.8zM12.5 8H11v6l4.7 2.9.8-1.2-4-2.4V8zM12 4c-5 0-9 4-9 9s4 9 9 9 9-4 9-9-4-9-9-9zm0 16c-3.9 0-7-3.1-7-7s3.1-7 7-7 7 3.1 7 7-3.1 7-7 7z"/>
        </symbol>
        <symbol id="access_time" viewBox="0 0 100 100">
          <title>access_time</title>
          <path d="M0 0h24v24H0z"/><path d="M11.99 2C6.47 2 2 6.48 2 12s4.47 10 9.99 10C17.52 22 22 17.52 22 12S17.52 2 11.99 2zM12 20c-4.42 0-8-3.58-8-8s3.58-8 8-8 8 3.58 8 8-3.58 8-8 8z"/><path d="M12.5 7H11v6l5.25 3.15.75-1.23-4.5-2.67z"/>
        </symbol>
        <symbol id="access_time_filled" viewBox="0 0 100 100">
          <title>access_time_filled</title>
          <path d="M0 0h24v24H0V0z"/><path d="M11.99 2C6.47 2 2 6.48 2 12s4.47 10 9.99 10C17.52 22 22 17.52 22 12S17.52 2 11.99 2zm3.3 14.71L11 12.41V7h2v4.59l3.71 3.71-1.42 1.41z"/>
        </symbol>
        <symbol id="ad_units" viewBox="0 0 100 100">
          <title>ad_units</title>
          <path d="M0 0h24v24H0z"/><path d="M17 1H7c-1.1 0-2 .9-2 2v18c0 1.1.9 2 2 2h10c1.1 0 2-.9 2-2V3c0-1.1-.9-2-2-2zm0 18H7V5h10v14zM8 6h8v2H8z"/>
        </symbol>
        <symbol id="add_alarm" viewBox="0 0 100 100">
          <title>add_alarm</title>
          <path d="M0 0h24v24H0z"/><path d="M7.88 3.39 6.6 1.86 2 5.71l1.29 1.53 4.59-3.85zM22 5.72l-4.6-3.86-1.29 1.53 4.6 3.86L22 5.72zM12 4c-4.97 0-9 4.03-9 9s4.02 9 9 9a9 9 0 0 0 0-18zm0 16c-3.87 0-7-3.13-7-7s3.13-7 7-7 7 3.13 7 7-3.13 7-7 7zm1-11h-2v3H8v2h3v3h2v-3h3v-2h-3V9z"/>
        </symbol>
        <symbol id="add_to_home_screen" viewBox="0 0 100 100">
          <title>add_to_home_screen</title>
          <path d="M0 0h24v24H0V0z"/><path d="M0 0h24v24H0V0z"/><path d="M18 1.01 8 1c-1.1 0-2 .9-2 2v3h2V5h10v14H8v-1H6v3c0 1.1.9 2 2 2h10c1.1 0 2-.9 2-2V3c0-1.1-.9-1.99-2-1.99zM10 15h2V8H5v2h3.59L3 15.59 4.41 17 10 11.41z"/>
        </symbol>
        <symbol id="air" viewBox="0 0 100 100">
          <title>air</title>
          <path d="M0 0h24v24H0V0z"/><path d="M14.5 17c0 1.65-1.35 3-3 3s-3-1.35-3-3h2c0 .55.45 1 1 1s1-.45 1-1-.45-1-1-1H2v-2h9.5c1.65 0 3 1.35 3 3zM19 6.5C19 4.57 17.43 3 15.5 3S12 4.57 12 6.5h2c0-.83.67-1.5 1.5-1.5s1.5.67 1.5 1.5S16.33 8 15.5 8H2v2h13.5c1.93 0 3.5-1.57 3.5-3.5zm-.5 4.5H2v2h16.5c.83 0 1.5.67 1.5 1.5s-.67 1.5-1.5 1.5v2c1.93 0 3.5-1.57 3.5-3.5S20.43 11 18.5 11z"/>
        </symbol>
        <symbol id="airplane_ticket" viewBox="0 0 100 100">
          <title>airplane_ticket</title>
          <path d="M0 0h24v24H0V0z"/><path d="M20.19 4H4c-1.1 0-1.99.9-1.99 2v4c1.1 0 1.99.9 1.99 2s-.89 2-2 2v4c0 1.1.9 2 2 2h16c1.1 0 2-.9 2-2V6c0-1.1-.81-2-1.81-2zm-2.46 9.3-8.86 2.36-1.66-2.88.93-.25 1.26.99 2.39-.64-2.4-4.16 1.4-.38 4.01 3.74 2.44-.65a.967.967 0 0 1 1.18.68.988.988 0 0 1-.69 1.19z"/>
        </symbol>
        <symbol id="airplanemode_active" viewBox="0 0 100 100">
          <title>airplanemode_active</title>
          <path d="M22 16v-2l-8.5-5V3.5c0-.83-.67-1.5-1.5-1.5s-1.5.67-1.5 1.5V9L2 14v2l8.5-2.5V19L8 20.5V22l4-1 4 1v-1.5L13.5 19v-5.5L22 16z"/><path d="M0 0h24v24H0V0z"/>
        </symbol>
        <symbol id="airplanemode_inactive" viewBox="0 0 100 100">
          <title>airplanemode_inactive</title>
          <path d="M10.5 7.67V3.5c0-.83.67-1.5 1.5-1.5s1.5.67 1.5 1.5V9l8.5 5v2l-4.49-1.32-7.01-7.01zm9.28 14.94 1.41-1.41-7.69-7.7-3.94-3.94-6.75-6.75-1.42 1.41 6.38 6.38L2 14v2l8.5-2.5V19L8 20.5V22l4-1 4 1v-1.5L13.5 19v-2.67l6.28 6.28z"/><path d="M0 0h24v24H0V0z"/>
        </symbol>
        <symbol id="aod" viewBox="0 0 100 100">
          <title>aod</title>
          <path d="M0 0h24v24H0V0z"/><path d="M17 1.01 7 1c-1.1 0-2 .9-2 2v18c0 1.1.9 2 2 2h10c1.1 0 2-.9 2-2V3c0-1.1-.9-1.99-2-1.99zM17 18H7V6h10v12zm-9-8h8v1.5H8V10zm1 3h6v1.5H9V13z"/>
        </symbol>
        <symbol id="battery_alert" viewBox="0 0 100 100">
          <title>battery_alert</title>
          <path d="M0 0h24v24H0z"/><path d="M15.67 4H14V2h-4v2H8.33C7.6 4 7 4.6 7 5.33v15.33C7 21.4 7.6 22 8.33 22h7.33c.74 0 1.34-.6 1.34-1.33V5.33C17 4.6 16.4 4 15.67 4zM13 18h-2v-2h2v2zm0-4h-2V9h2v5z"/>
        </symbol>
        <symbol id="battery_charging_full" viewBox="0 0 100 100">
          <title>battery_charging_full</title>
          <path d="M0 0h24v24H0z"/><path d="M15.67 4H14V2h-4v2H8.33C7.6 4 7 4.6 7 5.33v15.33C7 21.4 7.6 22 8.33 22h7.33c.74 0 1.34-.6 1.34-1.33V5.33C17 4.6 16.4 4 15.67 4zM11 20v-5.5H9L13 7v5.5h2L11 20z"/>
        </symbol>
        <symbol id="battery_full" viewBox="0 0 100 100">
          <title>battery_full</title>
          <path d="M0 0h24v24H0z"/><path d="M15.67 4H14V2h-4v2H8.33C7.6 4 7 4.6 7 5.33v15.33C7 21.4 7.6 22 8.33 22h7.33c.74 0 1.34-.6 1.34-1.33V5.33C17 4.6 16.4 4 15.67 4z"/>
        </symbol>
        <symbol id="battery_saver" viewBox="0 0 100 100">
          <title>battery_saver</title>
          <path d="M0 0h24v24H0V0z"/><path d="M16 4h-2V2h-4v2H8c-.55 0-1 .45-1 1v16c0 .55.45 1 1 1h8c.55 0 1-.45 1-1V5c0-.55-.45-1-1-1zm-1 10h-2v2h-2v-2H9v-2h2v-2h2v2h2v2z"/>
        </symbol>
        <symbol id="battery_std" viewBox="0 0 100 100">
          <title>battery_std</title>
          <path d="M0 0h24v24H0z"/><path d="M15.67 4H14V2h-4v2H8.33C7.6 4 7 4.6 7 5.33v15.33C7 21.4 7.6 22 8.33 22h7.33c.74 0 1.34-.6 1.34-1.33V5.33C17 4.6 16.4 4 15.67 4z"/>
        </symbol>
        <symbol id="battery_unknown" viewBox="0 0 100 100">
          <title>battery_unknown</title>
          <path d="M0 0h24v24H0z"/><path d="M15.67 4H14V2h-4v2H8.33C7.6 4 7 4.6 7 5.33v15.33C7 21.4 7.6 22 8.33 22h7.33c.74 0 1.34-.6 1.34-1.33V5.33C17 4.6 16.4 4 15.67 4zm-2.72 13.95h-1.9v-1.9h1.9v1.9zm1.35-5.26s-.38.42-.67.71c-.48.48-.83 1.15-.83 1.6h-1.6c0-.83.46-1.52.93-2l.93-.94A1.498 1.498 0 0 0 12 9.5c-.83 0-1.5.67-1.5 1.5H9c0-1.66 1.34-3 3-3s3 1.34 3 3c0 .66-.27 1.26-.7 1.69z"/>
        </symbol>
        <symbol id="bloodtype" viewBox="0 0 100 100">
          <title>bloodtype</title>
          <path d="M0 0h24v24H0V0z"/><path d="M12 2c-5.33 4.55-8 8.48-8 11.8 0 4.98 3.8 8.2 8 8.2s8-3.22 8-8.2c0-3.32-2.67-7.25-8-11.8zm3 16H9v-2h6v2zm0-5h-2v2h-2v-2H9v-2h2V9h2v2h2v2z"/>
        </symbol>
        <symbol id="bluetooth" viewBox="0 0 100 100">
          <title>bluetooth</title>
          <path d="M0 0h24v24H0z"/><path d="M17.71 7.71 12 2h-1v7.59L6.41 5 5 6.41 10.59 12 5 17.59 6.41 19 11 14.41V22h1l5.71-5.71-4.3-4.29 4.3-4.29zM13 5.83l1.88 1.88L13 9.59V5.83zm1.88 10.46L13 18.17v-3.76l1.88 1.88z"/>
        </symbol>
        <symbol id="bluetooth_connected" viewBox="0 0 100 100">
          <title>bluetooth_connected</title>
          <path d="M0 0h24v24H0z"/><path d="m7 12-2-2-2 2 2 2 2-2zm10.71-4.29L12 2h-1v7.59L6.41 5 5 6.41 10.59 12 5 17.59 6.41 19 11 14.41V22h1l5.71-5.71-4.3-4.29 4.3-4.29zM13 5.83l1.88 1.88L13 9.59V5.83zm1.88 10.46L13 18.17v-3.76l1.88 1.88zM19 10l-2 2 2 2 2-2-2-2z"/>
        </symbol>
        <symbol id="bluetooth_disabled" viewBox="0 0 100 100">
          <title>bluetooth_disabled</title>
          <path d="M0 0h24v24H0z"/><path d="m13 5.83 1.88 1.88-1.6 1.6 1.41 1.41 3.02-3.02L12 2h-1v5.03l2 2v-3.2zM5.41 4 4 5.41 10.59 12 5 17.59 6.41 19 11 14.41V22h1l4.29-4.29 2.3 2.29L20 18.59 5.41 4zM13 18.17v-3.76l1.88 1.88L13 18.17z"/>
        </symbol>
        <symbol id="bluetooth_drive" viewBox="0 0 100 100">
          <title>bluetooth_drive</title>
          <path d="M0 0h24v24H0V0z"/><path d="M15 10H4.81l1.04-3H15V5H5.5c-.66 0-1.21.42-1.42 1.01L2 12v8c0 .55.45 1 1 1h1c.55 0 1-.45 1-1v-1h12v1c0 .55.45 1 1 1h1c.55 0 1-.45 1-1v-8h-3c-1.1 0-2-.9-2-2zm-8.5 6c-.83 0-1.5-.67-1.5-1.5S5.67 13 6.5 13s1.5.67 1.5 1.5S7.33 16 6.5 16zm9 0c-.83 0-1.5-.67-1.5-1.5s.67-1.5 1.5-1.5 1.5.67 1.5 1.5-.67 1.5-1.5 1.5z"/><path d="M22 3.85 19.15 1h-.5v3.79l-2.3-2.29-.7.7L18.44 6l-2.79 2.79.7.71 2.3-2.3V11h.5L22 8.14 19.85 6 22 3.85zm-2.35-.94.94.94-.94.94V2.91zm.94 5.23-.94.94V7.2l.94.94z"/>
        </symbol>
        <symbol id="bluetooth_searching" viewBox="0 0 100 100">
          <title>bluetooth_searching</title>
          <path d="M0 0h24v24H0z"/><path d="m14.24 12.01 2.32 2.32c.28-.72.44-1.51.44-2.33 0-.82-.16-1.59-.43-2.31l-2.33 2.32zm5.29-5.3-1.26 1.26c.63 1.21.98 2.57.98 4.02s-.36 2.82-.98 4.02l1.2 1.2a9.936 9.936 0 0 0 1.54-5.31c-.01-1.89-.55-3.67-1.48-5.19zm-3.82 1L10 2H9v7.59L4.41 5 3 6.41 8.59 12 3 17.59 4.41 19 9 14.41V22h1l5.71-5.71-4.3-4.29 4.3-4.29zM11 5.83l1.88 1.88L11 9.59V5.83zm1.88 10.46L11 18.17v-3.76l1.88 1.88z"/>
        </symbol>
        <symbol id="brightness_auto" viewBox="0 0 100 100">
          <title>brightness_auto</title>
          <path d="M0 0h24v24H0z"/><path d="M10.85 12.65h2.3L12 9l-1.15 3.65zM20 8.69V4h-4.69L12 .69 8.69 4H4v4.69L.69 12 4 15.31V20h4.69L12 23.31 15.31 20H20v-4.69L23.31 12 20 8.69zM14.3 16l-.7-2h-3.2l-.7 2H7.8L11 7h2l3.2 9h-1.9z"/>
        </symbol>
        <symbol id="brightness_high" viewBox="0 0 100 100">
          <title>brightness_high</title>
          <path d="M0 0h24v24H0z"/><path d="M20 8.69V4h-4.69L12 .69 8.69 4H4v4.69L.69 12 4 15.31V20h4.69L12 23.31 15.31 20H20v-4.69L23.31 12 20 8.69zM12 18c-3.31 0-6-2.69-6-6s2.69-6 6-6 6 2.69 6 6-2.69 6-6 6zm0-10c-2.21 0-4 1.79-4 4s1.79 4 4 4 4-1.79 4-4-1.79-4-4-4z"/>
        </symbol>
        <symbol id="brightness_low" viewBox="0 0 100 100">
          <title>brightness_low</title>
          <path d="M0 0h24v24H0z"/><path d="M20 15.31 23.31 12 20 8.69V4h-4.69L12 .69 8.69 4H4v4.69L.69 12 4 15.31V20h4.69L12 23.31 15.31 20H20v-4.69zM12 18c-3.31 0-6-2.69-6-6s2.69-6 6-6 6 2.69 6 6-2.69 6-6 6z"/>
        </symbol>
        <symbol id="brightness_medium" viewBox="0 0 100 100">
          <title>brightness_medium</title>
          <path d="M0 0h24v24H0z"/><path d="M20 15.31 23.31 12 20 8.69V4h-4.69L12 .69 8.69 4H4v4.69L.69 12 4 15.31V20h4.69L12 23.31 15.31 20H20v-4.69zM12 18V6c3.31 0 6 2.69 6 6s-2.69 6-6 6z"/>
        </symbol>
        <symbol id="cable" viewBox="0 0 100 100">
          <title>cable</title>
          <path d="M0 0h24v24H0V0z"/><path d="M20 5V4c0-.55-.45-1-1-1h-2c-.55 0-1 .45-1 1v1h-1v4c0 .55.45 1 1 1h1v7c0 1.1-.9 2-2 2s-2-.9-2-2V7c0-2.21-1.79-4-4-4S5 4.79 5 7v7H4c-.55 0-1 .45-1 1v4h1v1c0 .55.45 1 1 1h2c.55 0 1-.45 1-1v-1h1v-4c0-.55-.45-1-1-1H7V7c0-1.1.9-2 2-2s2 .9 2 2v10c0 2.21 1.79 4 4 4s4-1.79 4-4v-7h1c.55 0 1-.45 1-1V5h-1z"/>
        </symbol>
        <symbol id="cameraswitch" viewBox="0 0 100 100">
          <title>cameraswitch</title>
          <path d="M0 0h24v24H0V0z"/><path d="M16 7h-1l-1-1h-4L9 7H8c-1.1 0-2 .9-2 2v6c0 1.1.9 2 2 2h8c1.1 0 2-.9 2-2V9c0-1.1-.9-2-2-2zm-4 7c-1.1 0-2-.9-2-2s.9-2 2-2 2 .9 2 2-.9 2-2 2z"/><path d="m8.57.51 4.48 4.48V2.04c4.72.47 8.48 4.23 8.95 8.95h2C23.34 3.02 15.49-1.59 8.57.51zM10.95 21.96c-4.72-.47-8.48-4.23-8.95-8.95H0c.66 7.97 8.51 12.58 15.43 10.48l-4.48-4.48v2.95z"/>
        </symbol>
        <symbol id="credit_score" viewBox="0 0 100 100">
          <title>credit_score</title>
          <path d="M0 0h24v24H0V0z"/><path d="M20 4H4c-1.11 0-1.99.89-1.99 2L2 18c0 1.11.89 2 2 2h5v-2H4v-6h18V6c0-1.11-.89-2-2-2zm0 4H4V6h16v2zm-5.07 11.17-2.83-2.83-1.41 1.41L14.93 22 22 14.93l-1.41-1.41-5.66 5.65z"/>
        </symbol>
        <symbol id="dark_mode" viewBox="0 0 100 100">
          <title>dark_mode</title>
          <path d="M0 0h24v24H0z"/><path d="M12 3a9 9 0 1 0 9 9c0-.46-.04-.92-.1-1.36a5.389 5.389 0 0 1-4.4 2.26 5.403 5.403 0 0 1-3.14-9.8c-.44-.06-.9-.1-1.36-.1z"/>
        </symbol>
        <symbol id="data_saver_off" viewBox="0 0 100 100">
          <title>data_saver_off</title>
          <path d="M0 0h24v24H0V0z"/><path d="M13 2.05v3.03c3.39.49 6 3.39 6 6.92 0 .9-.18 1.75-.48 2.54l2.6 1.53c.56-1.24.88-2.62.88-4.07 0-5.18-3.95-9.45-9-9.95zM12 19c-3.87 0-7-3.13-7-7 0-3.53 2.61-6.43 6-6.92V2.05c-5.06.5-9 4.76-9 9.95 0 5.52 4.47 10 9.99 10 3.31 0 6.24-1.61 8.06-4.09l-2.6-1.53A6.95 6.95 0 0 1 12 19z"/>
        </symbol>
        <symbol id="data_saver_on" viewBox="0 0 100 100">
          <title>data_saver_on</title>
          <path d="M0 0h24v24H0V0z"/><path d="M11 8v3H8v2h3v3h2v-3h3v-2h-3V8h-2zm2-5.95v3.03c3.39.49 6 3.39 6 6.92 0 .9-.18 1.75-.48 2.54l2.6 1.53c.56-1.24.88-2.62.88-4.07 0-5.18-3.95-9.45-9-9.95zM12 19c-3.87 0-7-3.13-7-7 0-3.53 2.61-6.43 6-6.92V2.05c-5.06.5-9 4.76-9 9.95 0 5.52 4.47 10 9.99 10 3.31 0 6.24-1.61 8.06-4.09l-2.6-1.53A6.95 6.95 0 0 1 12 19z"/>
        </symbol>
        <symbol id="data_usage" viewBox="0 0 100 100">
          <title>data_usage</title>
          <path d="M0 0h24v24H0z"/><path d="M13 2.05v3.03c3.39.49 6 3.39 6 6.92 0 .9-.18 1.75-.48 2.54l2.6 1.53c.56-1.24.88-2.62.88-4.07 0-5.18-3.95-9.45-9-9.95zM12 19c-3.87 0-7-3.13-7-7 0-3.53 2.61-6.43 6-6.92V2.05c-5.06.5-9 4.76-9 9.95 0 5.52 4.47 10 9.99 10 3.31 0 6.24-1.61 8.06-4.09l-2.6-1.53A6.95 6.95 0 0 1 12 19z"/>
        </symbol>
        <symbol id="developer_mode" viewBox="0 0 100 100">
          <title>developer_mode</title>
          <path d="M0 0h24v24H0z"/><path d="M7 5h10v2h2V3c0-1.1-.9-1.99-2-1.99L7 1c-1.1 0-2 .9-2 2v4h2V5zm8.41 11.59L20 12l-4.59-4.59L14 8.83 17.17 12 14 15.17l1.41 1.42zM10 15.17 6.83 12 10 8.83 8.59 7.41 4 12l4.59 4.59L10 15.17zM17 19H7v-2H5v4c0 1.1.9 2 2 2h10c1.1 0 2-.9 2-2v-4h-2v2z"/>
        </symbol>
        <symbol id="device_thermostat" viewBox="0 0 100 100">
          <title>device_thermostat</title>
          <path d="M0 0h24v24H0z"/><path d="M15 13V5c0-1.66-1.34-3-3-3S9 3.34 9 5v8c-1.21.91-2 2.37-2 4 0 2.76 2.24 5 5 5s5-2.24 5-5c0-1.63-.79-3.09-2-4zm-4-8c0-.55.45-1 1-1s1 .45 1 1h-1v1h1v2h-1v1h1v2h-2V5z"/>
        </symbol>
        <symbol id="devices" viewBox="0 0 100 100">
          <title>devices</title>
          <path d="M0 0h24v24H0z"/><path d="M4 6h18V4H4c-1.1 0-2 .9-2 2v11H0v3h14v-3H4V6zm19 2h-6c-.55 0-1 .45-1 1v10c0 .55.45 1 1 1h6c.55 0 1-.45 1-1V9c0-.55-.45-1-1-1zm-1 9h-4v-7h4v7z"/>
        </symbol>
        <symbol id="do_not_disturb_on_total_silence" viewBox="0 0 100 100">
          <title>do_not_disturb_on_total_silence</title>
          <path d="M0 0h24v24H0V0z"/><path d="M12 2C6.48 2 2 6.48 2 12s4.48 10 10 10 10-4.48 10-10S17.52 2 12 2zm0 18c-4.41 0-8-3.59-8-8s3.59-8 8-8 8 3.59 8 8-3.59 8-8 8zm0-14c-3.3 0-6 2.7-6 6s2.7 6 6 6 6-2.7 6-6-2.6-6-6-6zm3 7H9v-2h6v2z"/>
        </symbol>
        <symbol id="dvr" viewBox="0 0 100 100">
          <title>dvr</title>
          <path d="M0 0h24v24H0z"/><path d="M21 3H3c-1.1 0-2 .9-2 2v12c0 1.1.9 2 2 2h5v2h8v-2h5c1.1 0 1.99-.9 1.99-2L23 5c0-1.1-.9-2-2-2zm0 14H3V5h18v12zm-2-9H8v2h11V8zm0 4H8v2h11v-2zM7 8H5v2h2V8zm0 4H5v2h2v-2z"/>
        </symbol>
        <symbol id="e_mobiledata" viewBox="0 0 100 100">
          <title>e_mobiledata</title>
          <path d="M0 0h24v24H0V0z"/><path d="M16 9V7H8v10h8v-2h-6v-2h6v-2h-6V9h6z"/>
        </symbol>
        <symbol id="edgesensor_high" viewBox="0 0 100 100">
          <title>edgesensor_high</title>
          <path d="M0 0h24v24H0V0z"/><path d="M3 7h2v7H3V7zm-3 3h2v7H0v-7zm22-3h2v7h-2V7zm-3 3h2v7h-2v-7zm-3-7.99L8 2c-1.1 0-2 .9-2 2v16c0 1.1.9 2 2 2h8c1.1 0 2-.9 2-2V4c0-1.1-.9-1.99-2-1.99zM16 17H8V7h8v10z"/>
        </symbol>
        <symbol id="edgesensor_low" viewBox="0 0 100 100">
          <title>edgesensor_low</title>
          <path d="M0 0h24v24H0V0z"/><path d="M2 7h2v7H2V7zm18 3h2v7h-2v-7zm-4-7.99L8 2c-1.1 0-2 .9-2 2v16c0 1.1.9 2 2 2h8c1.1 0 2-.9 2-2V4c0-1.1-.9-1.99-2-1.99zM16 17H8V7h8v10z"/>
        </symbol>
        <symbol id="flashlight_off" viewBox="0 0 100 100">
          <title>flashlight_off</title>
          <path d="M0 0h24v24H0V0z"/><path d="M18 5V2H6v1.17L7.83 5zM16 11l2-3V7H9.83L16 13.17zM2.81 2.81 1.39 4.22 8 10.83V22h8v-3.17l3.78 3.78 1.41-1.41L2.81 2.81z"/>
        </symbol>
        <symbol id="flashlight_on" viewBox="0 0 100 100">
          <title>flashlight_on</title>
          <path d="M0 0h24v24H0V0z"/><path d="M6 2h12v3H6zM6 7v1l2 3v11h8V11l2-3V7H6zm6 8.5c-.83 0-1.5-.67-1.5-1.5s.67-1.5 1.5-1.5 1.5.67 1.5 1.5-.67 1.5-1.5 1.5z"/>
        </symbol>
        <symbol id="flourescent" viewBox="0 0 100 100">
          <title>flourescent</title>
          <path d="M0 0h24v24H0V0z"/><path d="M5 9h14v6H5zM11 2h2v3h-2zM17.286 6.399l1.79-1.803 1.42 1.41-1.79 1.802zM11 19h2v3h-2zM17.29 17.71l1.79 1.8 1.42-1.42-1.8-1.79zM3.495 6.01l1.407-1.408L6.69 6.391 5.284 7.798zM3.492 18.076l1.803-1.79 1.409 1.42-1.803 1.79z"/>
        </symbol>
        <symbol id="fmd_bad" viewBox="0 0 100 100">
          <title>fmd_bad</title>
          <path d="M0 0h24v24H0V0z"/><path d="M12 2c-4.2 0-8 3.22-8 8.2 0 3.32 2.67 7.25 8 11.8 5.33-4.55 8-8.48 8-11.8C20 5.22 16.2 2 12 2zm1 13h-2v-2h2v2zm0-4h-2V6h2v5z"/>
        </symbol>
        <symbol id="fmd_good" viewBox="0 0 100 100">
          <title>fmd_good</title>
          <path d="M0 0h24v24H0V0z"/><path d="M12 2c-4.2 0-8 3.22-8 8.2 0 3.32 2.67 7.25 8 11.8 5.33-4.55 8-8.48 8-11.8C20 5.22 16.2 2 12 2zm0 10c-1.1 0-2-.9-2-2s.9-2 2-2 2 .9 2 2-.9 2-2 2z"/>
        </symbol>
        <symbol id="g_mobiledata" viewBox="0 0 100 100">
          <title>g_mobiledata</title>
          <path d="M0 0h24v24H0V0z"/><path d="M12 11v2h2v2H9V9h7c0-1.1-.9-2-2-2H9c-1.1 0-2 .9-2 2v6c0 1.1.9 2 2 2h5c1.1 0 2-.9 2-2v-4h-4z"/>
        </symbol>
        <symbol id="gpp_bad" viewBox="0 0 100 100">
          <title>gpp_bad</title>
          <path d="M0 0h24v24H0V0z"/><path d="M12 2 4 5v6.09c0 5.05 3.41 9.76 8 10.91 4.59-1.15 8-5.86 8-10.91V5l-8-3zm3.5 12.09-1.41 1.41L12 13.42 9.91 15.5 8.5 14.09 10.59 12 8.5 9.91 9.91 8.5 12 10.59l2.09-2.09 1.41 1.41L13.42 12l2.08 2.09z"/>
        </symbol>
        <symbol id="gpp_good" viewBox="0 0 100 100">
          <title>gpp_good</title>
          <path d="M0 0h24v24H0V0z"/><path d="M12 2 4 5v6.09c0 5.05 3.41 9.76 8 10.91 4.59-1.15 8-5.86 8-10.91V5l-8-3zm-1.06 13.54L7.4 12l1.41-1.41 2.12 2.12 4.24-4.24 1.41 1.41-5.64 5.66z"/>
        </symbol>
        <symbol id="gpp_maybe" viewBox="0 0 100 100">
          <title>gpp_maybe</title>
          <path d="M0 0h24v24H0V0z"/><path d="M12 2 4 5v6.09c0 5.05 3.41 9.76 8 10.91 4.59-1.15 8-5.86 8-10.91V5l-8-3zm1 14h-2v-2h2v2zm0-4h-2V7h2v5z"/>
        </symbol>
        <symbol id="gps_fixed" viewBox="0 0 100 100">
          <title>gps_fixed</title>
          <path d="M0 0h24v24H0z"/><path d="M12 8c-2.21 0-4 1.79-4 4s1.79 4 4 4 4-1.79 4-4-1.79-4-4-4zm8.94 3A8.994 8.994 0 0 0 13 3.06V1h-2v2.06A8.994 8.994 0 0 0 3.06 11H1v2h2.06A8.994 8.994 0 0 0 11 20.94V23h2v-2.06A8.994 8.994 0 0 0 20.94 13H23v-2h-2.06zM12 19c-3.87 0-7-3.13-7-7s3.13-7 7-7 7 3.13 7 7-3.13 7-7 7z"/>
        </symbol>
        <symbol id="gps_not_fixed" viewBox="0 0 100 100">
          <title>gps_not_fixed</title>
          <path d="M0 0h24v24H0z"/><path d="M20.94 11A8.994 8.994 0 0 0 13 3.06V1h-2v2.06A8.994 8.994 0 0 0 3.06 11H1v2h2.06A8.994 8.994 0 0 0 11 20.94V23h2v-2.06A8.994 8.994 0 0 0 20.94 13H23v-2h-2.06zM12 19c-3.87 0-7-3.13-7-7s3.13-7 7-7 7 3.13 7 7-3.13 7-7 7z"/>
        </symbol>
        <symbol id="gps_off" viewBox="0 0 100 100">
          <title>gps_off</title>
          <path d="M0 0h24v24H0z"/><path d="M20.94 11A8.994 8.994 0 0 0 13 3.06V1h-2v2.06c-1.13.12-2.19.46-3.16.97l1.5 1.5A6.995 6.995 0 0 1 19 12c0 .94-.19 1.84-.52 2.65l1.5 1.5c.5-.96.84-2.02.97-3.15H23v-2h-2.06zM3 4.27l2.04 2.04A8.914 8.914 0 0 0 3.06 11H1v2h2.06A8.994 8.994 0 0 0 11 20.94V23h2v-2.06c1.77-.2 3.38-.91 4.69-1.98L19.73 21 21 19.73 4.27 3 3 4.27zm13.27 13.27a6.995 6.995 0 0 1-9.81-9.81l9.81 9.81z"/>
        </symbol>
        <symbol id="graphic_eq" viewBox="0 0 100 100">
          <title>graphic_eq</title>
          <path d="M0 0h24v24H0z"/><path d="M7 18h2V6H7v12zm4 4h2V2h-2v20zm-8-8h2v-4H3v4zm12 4h2V6h-2v12zm4-8v4h2v-4h-2z"/>
        </symbol>
        <symbol id="grid_3x3" viewBox="0 0 100 100">
          <title>grid_3x3</title>
          <path d="M0 0h24v24H0V0z"/><path d="M20 10V8h-4V4h-2v4h-4V4H8v4H4v2h4v4H4v2h4v4h2v-4h4v4h2v-4h4v-2h-4v-4h4zm-6 4h-4v-4h4v4z"/>
        </symbol>
        <symbol id="grid_4x4" viewBox="0 0 100 100">
          <title>grid_4x4</title>
          <path d="M0 0h24v24H0V0z"/><path d="M22 7V5h-3V2h-2v3h-4V2h-2v3H7V2H5v3H2v2h3v4H2v2h3v4H2v2h3v3h2v-3h4v3h2v-3h4v3h2v-3h3v-2h-3v-4h3v-2h-3V7h3zM7 7h4v4H7V7zm0 10v-4h4v4H7zm10 0h-4v-4h4v4zm0-6h-4V7h4v4z"/>
        </symbol>
        <symbol id="grid_goldenratio" viewBox="0 0 100 100">
          <title>grid_goldenratio</title>
          <path d="M0 0h24v24H0V0z"/><path d="M22 11V9h-7V2h-2v7h-2V2H9v7H2v2h7v2H2v2h7v7h2v-7h2v7h2v-7h7v-2h-7v-2h7zm-9 2h-2v-2h2v2z"/>
        </symbol>
        <symbol id="h_mobiledata" viewBox="0 0 100 100">
          <title>h_mobiledata</title>
          <path d="M0 0h24v24H0V0z"/><path d="M15 11H9V7H7v10h2v-4h6v4h2V7h-2v4z"/>
        </symbol>
        <symbol id="h_plus_mobiledata" viewBox="0 0 100 100">
          <title>h_plus_mobiledata</title>
          <path d="M0 0h24v24H0V0z"/><path d="M12 11H6V7H4v10h2v-4h6v4h2V7h-2v4zm10 0h-2V9h-2v2h-2v2h2v2h2v-2h2v-2z"/>
        </symbol>
        <symbol id="hdr_auto" viewBox="0 0 100 100">
          <title>hdr_auto</title>
          <path d="M0 0h24v24H0V0z"/><path d="M12.04 8.04h-.09l-1.6 4.55h3.29z"/><path d="M12 2C6.48 2 2 6.48 2 12s4.48 10 10 10 10-4.48 10-10S17.52 2 12 2zm3.21 15-.98-2.81H9.78l-1 2.81h-1.9l4.13-11h1.97l4.13 11h-1.9z"/>
        </symbol>
        <symbol id="hdr_auto_select" viewBox="0 0 100 100">
          <title>hdr_auto_select</title>
          <path d="M0 0h24v24H0V0z"/><path d="M10 16H6.5v6H10c.8 0 1.5-.7 1.5-1.5v-3c0-.8-.7-1.5-1.5-1.5zm0 4.5H8v-3h2v3zM16.5 16H13v6h1.5v-2h1.1l.9 2H18l-.9-2.1c.5-.3.9-.8.9-1.4v-1c0-.8-.7-1.5-1.5-1.5zm0 2.5h-2v-1h2v1zM3.5 18h-2v-2H0v6h1.5v-2.5h2V22H5v-6H3.5zM22 18.5v-2h-1.5v2h-2V20h2v2H22v-2h2v-1.5zM11.97 5.3l-1.02 2.89h2.1L12.03 5.3z"/><path d="M12 2C8.69 2 6 4.69 6 8s2.69 6 6 6 6-2.69 6-6-2.69-6-6-6zm2.04 9-.63-1.79h-2.83L9.96 11H8.74l2.63-7h1.25l2.63 7h-1.21z"/>
        </symbol>
        <symbol id="hdr_off_select" viewBox="0 0 100 100">
          <title>hdr_off_select</title>
          <path d="M0 0h24v24H0V0z"/><path d="M18 18.5v-1c0-.8-.7-1.5-1.5-1.5H13v6h1.5v-2h1.1l.9 2H18l-.9-2.1c.5-.3.9-.8.9-1.4zm-1.5 0h-2v-1h2v1zm-13-.5h-2v-2H0v6h1.5v-2.5h2V22H5v-6H3.5v2zm6.5-2H6.5v6H10c.8 0 1.5-.7 1.5-1.5v-3c0-.8-.7-1.5-1.5-1.5zm0 4.5H8v-3h2v3zm14-.5h-2v2h-1.5v-2h-2v-1.5h2v-2H22v2h2V20zM10.98 4.15 9.42 2.59c5.1-2.42 10.41 2.89 7.99 7.99l-1.56-1.56c.81-2.96-1.91-5.68-4.87-4.87zM6.34 2.34 4.93 3.76l1.66 1.66c-2.42 5.1 2.89 10.41 7.99 7.99l1.66 1.66 1.41-1.41L6.34 2.34zm1.81 4.64 4.87 4.87c-2.96.81-5.68-1.91-4.87-4.87z"/>
        </symbol>
        <symbol id="hdr_on_select" viewBox="0 0 100 100">
          <title>hdr_on_select</title>
          <path d="M0 0h24v24H0V0z"/><path d="M18 18.5v-1c0-.8-.7-1.5-1.5-1.5H13v6h1.5v-2h1.1l.9 2H18l-.9-2.1c.5-.3.9-.8.9-1.4zm-1.5 0h-2v-1h2v1zm-13-.5h-2v-2H0v6h1.5v-2.5h2V22H5v-6H3.5v2zm6.5-2H6.5v6H10c.8 0 1.5-.7 1.5-1.5v-3c0-.8-.7-1.5-1.5-1.5zm0 4.5H8v-3h2v3zm14-.5h-2v2h-1.5v-2h-2v-1.5h2v-2H22v2h2V20zM12 4c2.21 0 4 1.79 4 4s-1.79 4-4 4-4-1.79-4-4 1.79-4 4-4m0-2C8.69 2 6 4.69 6 8s2.69 6 6 6 6-2.69 6-6-2.69-6-6-6z"/>
        </symbol>
        <symbol id="lens_blur" viewBox="0 0 100 100">
          <title>lens_blur</title>
          <path d="M0 0h24v24H0V0z"/><path d="M6 13c-.55 0-1 .45-1 1s.45 1 1 1 1-.45 1-1-.45-1-1-1zm0 4c-.55 0-1 .45-1 1s.45 1 1 1 1-.45 1-1-.45-1-1-1zm0-8c-.55 0-1 .45-1 1s.45 1 1 1 1-.45 1-1-.45-1-1-1zm-3 .5c-.28 0-.5.22-.5.5s.22.5.5.5.5-.22.5-.5-.22-.5-.5-.5zM6 5c-.55 0-1 .45-1 1s.45 1 1 1 1-.45 1-1-.45-1-1-1zm15 5.5c.28 0 .5-.22.5-.5s-.22-.5-.5-.5-.5.22-.5.5.22.5.5.5zM14 7c.55 0 1-.45 1-1s-.45-1-1-1-1 .45-1 1 .45 1 1 1zm0-3.5c.28 0 .5-.22.5-.5s-.22-.5-.5-.5-.5.22-.5.5.22.5.5.5zm-11 10c-.28 0-.5.22-.5.5s.22.5.5.5.5-.22.5-.5-.22-.5-.5-.5zm7 7c-.28 0-.5.22-.5.5s.22.5.5.5.5-.22.5-.5-.22-.5-.5-.5zm0-17c.28 0 .5-.22.5-.5s-.22-.5-.5-.5-.5.22-.5.5.22.5.5.5zM10 7c.55 0 1-.45 1-1s-.45-1-1-1-1 .45-1 1 .45 1 1 1zm0 5.5c-.83 0-1.5.67-1.5 1.5s.67 1.5 1.5 1.5 1.5-.67 1.5-1.5-.67-1.5-1.5-1.5zm8 .5c-.55 0-1 .45-1 1s.45 1 1 1 1-.45 1-1-.45-1-1-1zm0 4c-.55 0-1 .45-1 1s.45 1 1 1 1-.45 1-1-.45-1-1-1zm0-8c-.55 0-1 .45-1 1s.45 1 1 1 1-.45 1-1-.45-1-1-1zm0-4c-.55 0-1 .45-1 1s.45 1 1 1 1-.45 1-1-.45-1-1-1zm3 8.5c-.28 0-.5.22-.5.5s.22.5.5.5.5-.22.5-.5-.22-.5-.5-.5zM14 17c-.55 0-1 .45-1 1s.45 1 1 1 1-.45 1-1-.45-1-1-1zm0 3.5c-.28 0-.5.22-.5.5s.22.5.5.5.5-.22.5-.5-.22-.5-.5-.5zm-4-12c-.83 0-1.5.67-1.5 1.5s.67 1.5 1.5 1.5 1.5-.67 1.5-1.5-.67-1.5-1.5-1.5zm0 8.5c-.55 0-1 .45-1 1s.45 1 1 1 1-.45 1-1-.45-1-1-1zm4-4.5c-.83 0-1.5.67-1.5 1.5s.67 1.5 1.5 1.5 1.5-.67 1.5-1.5-.67-1.5-1.5-1.5zm0-4c-.83 0-1.5.67-1.5 1.5s.67 1.5 1.5 1.5 1.5-.67 1.5-1.5-.67-1.5-1.5-1.5z"/>
        </symbol>
        <symbol id="light_mode" viewBox="0 0 100 100">
          <title>light_mode</title>
          <path d="M0 0h24v24H0z"/><path d="M12 7c-2.76 0-5 2.24-5 5s2.24 5 5 5 5-2.24 5-5-2.24-5-5-5zM2 13h2c.55 0 1-.45 1-1s-.45-1-1-1H2c-.55 0-1 .45-1 1s.45 1 1 1zm18 0h2c.55 0 1-.45 1-1s-.45-1-1-1h-2c-.55 0-1 .45-1 1s.45 1 1 1zM11 2v2c0 .55.45 1 1 1s1-.45 1-1V2c0-.55-.45-1-1-1s-1 .45-1 1zm0 18v2c0 .55.45 1 1 1s1-.45 1-1v-2c0-.55-.45-1-1-1s-1 .45-1 1zM5.99 4.58a.996.996 0 0 0-1.41 0 .996.996 0 0 0 0 1.41l1.06 1.06c.39.39 1.03.39 1.41 0s.39-1.03 0-1.41L5.99 4.58zm12.37 12.37a.996.996 0 0 0-1.41 0 .996.996 0 0 0 0 1.41l1.06 1.06c.39.39 1.03.39 1.41 0a.996.996 0 0 0 0-1.41l-1.06-1.06zm1.06-10.96a.996.996 0 0 0 0-1.41.996.996 0 0 0-1.41 0l-1.06 1.06c-.39.39-.39 1.03 0 1.41s1.03.39 1.41 0l1.06-1.06zM7.05 18.36a.996.996 0 0 0 0-1.41.996.996 0 0 0-1.41 0l-1.06 1.06c-.39.39-.39 1.03 0 1.41s1.03.39 1.41 0l1.06-1.06z"/>
        </symbol>
        <symbol id="location_disabled" viewBox="0 0 100 100">
          <title>location_disabled</title>
          <path d="M0 0h24v24H0z"/><path d="M20.94 11A8.994 8.994 0 0 0 13 3.06V1h-2v2.06c-1.13.12-2.19.46-3.16.97l1.5 1.5A6.995 6.995 0 0 1 19 12c0 .94-.19 1.84-.52 2.65l1.5 1.5c.5-.96.84-2.02.97-3.15H23v-2h-2.06zM3 4.27l2.04 2.04A8.914 8.914 0 0 0 3.06 11H1v2h2.06A8.994 8.994 0 0 0 11 20.94V23h2v-2.06c1.77-.2 3.38-.91 4.69-1.98L19.73 21 21 19.73 4.27 3 3 4.27zm13.27 13.27a6.995 6.995 0 0 1-9.81-9.81l9.81 9.81z"/>
        </symbol>
        <symbol id="location_searching" viewBox="0 0 100 100">
          <title>location_searching</title>
          <path d="M0 0h24v24H0z"/><path d="M20.94 11A8.994 8.994 0 0 0 13 3.06V1h-2v2.06A8.994 8.994 0 0 0 3.06 11H1v2h2.06A8.994 8.994 0 0 0 11 20.94V23h2v-2.06A8.994 8.994 0 0 0 20.94 13H23v-2h-2.06zM12 19c-3.87 0-7-3.13-7-7s3.13-7 7-7 7 3.13 7 7-3.13 7-7 7z"/>
        </symbol>
        <symbol id="lte_mobiledata" viewBox="0 0 100 100">
          <title>lte_mobiledata</title>
          <path d="M0 0h24v24H0V0z"/><path d="M6 14h3v2H4V8h2v6zm3-4h2v6h2v-6h2V8H9v2zm12 0V8h-5v8h5v-2h-3v-1h3v-2h-3v-1h3z"/>
        </symbol>
        <symbol id="lte_plus_mobiledata" viewBox="0 0 100 100">
          <title>lte_plus_mobiledata</title>
          <path d="M0 0h24v24H0V0z"/><path d="M3 14h3v2H1V8h2v6zm2-4h2v6h2v-6h2V8H5v2zm7 6h5v-2h-3v-1h3v-2h-3v-1h3V8h-5v8zm12-5h-2V9h-2v2h-2v2h2v2h2v-2h2v-2z"/>
        </symbol>
        <symbol id="media_bluetooth_off" viewBox="0 0 100 100">
          <title>media_bluetooth_off</title>
          <path d="M0 0h24v24H0V0z"/><path d="M9 6.17V3h6v4h-4v1.17l-2-2zM19.42 15 22 17.57l-.8.8-6.78-6.78.8-.8 2.75 2.75V9h.6L22 12.43 19.42 15zm-.25-1.45 1.13-1.13-1.13-1.13v2.26zm2.02 7.64-1.41 1.41-3.98-3.98-.58.58-.85-.85.58-.58L11 13.83V17c0 2.21-1.78 4-3.99 4S3 19.21 3 17s1.79-4 4.01-4c.73 0 1.41.21 2 .55v-1.72L1.39 4.22 2.8 2.81l18.39 18.38z"/>
        </symbol>
        <symbol id="media_bluetooth_on" viewBox="0 0 100 100">
          <title>media_bluetooth_on</title>
          <path d="M0 0h24v24H0V0z"/><path d="m9 3 .01 10.55c-.6-.34-1.28-.55-2-.55a4.001 4.001 0 1 0 0 8C9.23 21 11 19.21 11 17V7h4V3H9zm12 9.43L17.57 9h-.6v4.55l-2.75-2.75-.85.85L16.73 15l-3.35 3.35.85.85 2.75-2.75V21h.6L21 17.57 18.42 15 21 12.43zm-2.83-1.13 1.13 1.13-1.13 1.13V11.3zm1.13 6.27-1.13 1.13v-2.26l1.13 1.13z"/>
        </symbol>
        <symbol id="medication" viewBox="0 0 100 100">
          <title>medication</title>
          <path d="M0 0h24v24H0V0z"/><path d="M6 3h12v2H6zM17 6H7c-1.1 0-2 .9-2 2v11c0 1.1.9 2 2 2h10c1.1 0 2-.9 2-2V8c0-1.1-.9-2-2-2zm-1 9h-2.5v2.5h-3V15H8v-3h2.5V9.5h3V12H16v3z"/>
        </symbol>
        <symbol id="mobile_friendly" viewBox="0 0 100 100">
          <title>mobile_friendly</title>
          <path d="M0 0h24v24H0z"/><path d="M19 1H9c-1.1 0-2 .9-2 2v3h2V4h10v16H9v-2H7v3c0 1.1.9 2 2 2h10c1.1 0 2-.9 2-2V3c0-1.1-.9-2-2-2zM7.01 13.47l-2.55-2.55-1.27 1.27L7 16l7.19-7.19-1.27-1.27z"/>
        </symbol>
        <symbol id="mobile_off" viewBox="0 0 100 100">
          <title>mobile_off</title>
          <path d="M0 0h24v24H0z"/><path d="M2.76 2.49 1.49 3.76 5 7.27V21c0 1.1.9 2 2 2h10c1.02 0 1.85-.77 1.98-1.75l1.72 1.72 1.27-1.27L2.76 2.49zM7 19V9.27L16.73 19H7zM17 5v9.17l2 2V3c0-1.1-.9-2-2-2H7c-.85 0-1.58.54-1.87 1.3L7.83 5H17z"/>
        </symbol>
        <symbol id="mobiledata_off" viewBox="0 0 100 100">
          <title>mobiledata_off</title>
          <path d="M0 0h24v24H0V0z"/><path d="M16 7h3l-4-4-4 4h3v4.17l2 2zM2.81 2.81 1.39 4.22 8 10.83v6.18l-3 .01L9 21l4-4-3 .01v-4.18l9.78 9.78 1.41-1.42z"/>
        </symbol>
        <symbol id="mode_night" viewBox="0 0 100 100">
          <title>mode_night</title>
          <path d="M0 0h24v24H0V0z"/><path d="M9.5 2c-1.82 0-3.53.5-5 1.35 2.99 1.73 5 4.95 5 8.65s-2.01 6.92-5 8.65c1.47.85 3.18 1.35 5 1.35 5.52 0 10-4.48 10-10S15.02 2 9.5 2z"/>
        </symbol>
        <symbol id="mode_standby" viewBox="0 0 100 100">
          <title>mode_standby</title>
          <path d="M0 0h24v24H0V0z"/><path d="M12 2C6.49 2 2 6.49 2 12s4.49 10 10 10 10-4.49 10-10S17.51 2 12 2zm0 18c-4.41 0-8-3.59-8-8s3.59-8 8-8 8 3.59 8 8-3.59 8-8 8zm3-8c0 1.66-1.34 3-3 3s-3-1.34-3-3 1.34-3 3-3 3 1.34 3 3z"/>
        </symbol>
        <symbol id="monitor_weight" viewBox="0 0 100 100">
          <title>monitor_weight</title>
          <path d="M0 0h24v24H0V0z"/><path d="M19 3H5c-1.1 0-2 .9-2 2v14c0 1.1.9 2 2 2h14c1.1 0 2-.9 2-2V5c0-1.1-.9-2-2-2zm-7 9c-1.66 0-3-1.34-3-3s1.34-3 3-3 3 1.34 3 3-1.34 3-3 3z"/><path d="M10 8.5h1v1h-1zM11.5 8.5h1v1h-1zM13 8.5h1v1h-1z"/>
        </symbol>
        <symbol id="nearby_error" viewBox="0 0 100 100">
          <title>nearby_error</title>
          <path d="M0 0h24v24H0V0z"/><path d="m12 7.57 4.42 4.42L12 16.41l-4.42-4.42L12 7.57zm0 11.62-7.2-7.2 7.2-7.2 6 6V7.16l-4.58-4.58c-.78-.78-2.05-.78-2.83 0l-8.01 8c-.78.78-.78 2.05 0 2.83l8.01 8c.78.78 2.05.78 2.83 0L18 16.82v-3.63l-6 6zm8 .81h2v2h-2v-2zm2-10h-2v8h2v-8"/>
        </symbol>
        <symbol id="nearby_off" viewBox="0 0 100 100">
          <title>nearby_off</title>
          <path d="M0 0h24v24H0V0z"/><path d="M21.41 13.42 18.83 16l-1.81-1.81L19.2 12 12 4.8 9.81 6.99 8 5.17l2.58-2.58c.78-.78 2.05-.78 2.83 0l8 8c.79.78.79 2.04 0 2.83zm-.22 7.77-1.41 1.41L16 18.83l-2.58 2.58c-.78.78-2.05.78-2.83 0l-8-8c-.78-.78-.78-2.05 0-2.83L5.17 8 1.39 4.22 2.8 2.81l18.39 18.38zm-7-4.17-1.39-1.39-.8.8L7.58 12l.8-.8-1.4-1.39L4.8 12l7.2 7.2 2.19-2.18zM16.42 12 12 7.58l-.8.8 4.42 4.42.8-.8z"/>
        </symbol>
        <symbol id="network_cell" viewBox="0 0 100 100">
          <title>network_cell</title>
          <path d="M0 0h24v24H0z"/><path d="M2 22h20V2L2 22zm18-2h-3V9.83l3-3V20z"/>
        </symbol>
        <symbol id="network_wifi" viewBox="0 0 100 100">
          <title>network_wifi</title>
          <path d="M0 0h24v24H0z"/><path d="M24 8.98A16.88 16.88 0 0 0 12 4C7.31 4 3.07 5.9 0 8.98L12 21 24 8.98zm-21.08.09C5.51 7.08 8.67 6 12 6s6.49 1.08 9.08 3.07l-1.43 1.43C17.5 8.94 14.86 8 12 8s-5.5.94-7.65 2.51L2.92 9.07z"/>
        </symbol>
        <symbol id="nfc" viewBox="0 0 100 100">
          <title>nfc</title>
          <path d="M0 0h24v24H0z"/><path d="M4 20h16V4H4v16z"/><path d="M20 2H4c-1.1 0-2 .9-2 2v16c0 1.1.9 2 2 2h16c1.1 0 2-.9 2-2V4c0-1.1-.9-2-2-2zm0 18H4V4h16v16zM18 6h-5c-1.1 0-2 .9-2 2v2.28c-.6.35-1 .98-1 1.72 0 1.1.9 2 2 2s2-.9 2-2c0-.74-.4-1.38-1-1.72V8h3v8H8V8h2V6H6v12h12V6z"/>
        </symbol>
        <symbol id="nightlight" viewBox="0 0 100 100">
          <title>nightlight</title>
          <path d="M0 0h24v24H0V0z"/><path d="M14 2c1.82 0 3.53.5 5 1.35-2.99 1.73-5 4.95-5 8.65s2.01 6.92 5 8.65A9.973 9.973 0 0 1 14 22C8.48 22 4 17.52 4 12S8.48 2 14 2z"/>
        </symbol>
        <symbol id="note_alt" viewBox="0 0 100 100">
          <title>note_alt</title>
          <path d="M0 0h24v24H0V0z"/><path d="M19 3h-4.18C14.4 1.84 13.3 1 12 1s-2.4.84-2.82 2H5c-1.1 0-2 .9-2 2v14c0 1.1.9 2 2 2h14c1.1 0 2-.9 2-2V5c0-1.1-.9-2-2-2zm-7-.25c.41 0 .75.34.75.75s-.34.75-.75.75-.75-.34-.75-.75.34-.75.75-.75zM9.1 17H7v-2.14l5.96-5.96 2.12 2.12L9.1 17zm7.75-7.73-1.06 1.06-2.12-2.12 1.06-1.06c.2-.2.51-.2.71 0l1.41 1.41c.2.2.2.51 0 .71z"/>
        </symbol>
        <symbol id="password" viewBox="0 0 100 100">
          <title>password</title>
          <path d="M0 0h24v24H0V0z"/><path d="M2 17h20v2H2v-2zm1.15-4.05L4 11.47l.85 1.48 1.3-.75-.85-1.48H7v-1.5H5.3l.85-1.47L4.85 7 4 8.47 3.15 7l-1.3.75.85 1.47H1v1.5h1.7l-.85 1.48 1.3.75zm6.7-.75 1.3.75.85-1.48.85 1.48 1.3-.75-.85-1.48H15v-1.5h-1.7l.85-1.47-1.3-.75L12 8.47 11.15 7l-1.3.75.85 1.47H9v1.5h1.7l-.85 1.48zM23 9.22h-1.7l.85-1.47-1.3-.75L20 8.47 19.15 7l-1.3.75.85 1.47H17v1.5h1.7l-.85 1.48 1.3.75.85-1.48.85 1.48 1.3-.75-.85-1.48H23v-1.5z"/>
        </symbol>
        <symbol id="pattern" viewBox="0 0 100 100">
          <title>pattern</title>
          <path d="M0 0h24v24H0V0z"/><path d="M4 6c0-1.1.9-2 2-2s2 .9 2 2-.9 2-2 2-2-.9-2-2zm2 8c1.1 0 2-.9 2-2s-.9-2-2-2-2 .9-2 2 .9 2 2 2zm6-6c1.1 0 2-.9 2-2s-.9-2-2-2-2 .9-2 2 .9 2 2 2zm6 2c-1.1 0-2 .9-2 2s.9 2 2 2 2-.9 2-2-.9-2-2-2zm-.02 6c-.74 0-1.37.4-1.72 1h-2.54a1.98 1.98 0 0 0-3.44 0H8.41l3.07-3.07c.17.04.34.07.52.07 1.1 0 2-.9 2-2 0-.18-.03-.35-.07-.51l3.56-3.56c.16.04.33.07.51.07 1.1 0 2-.9 2-2s-.9-2-2-2-2 .9-2 2c0 .18.03.35.07.51l-3.56 3.56c-.16-.04-.33-.07-.51-.07-1.1 0-2 .9-2 2 0 .18.03.35.07.51l-3.56 3.56C6.35 16.03 6.18 16 6 16c-1.1 0-2 .9-2 2s.9 2 2 2c.74 0 1.37-.4 1.72-1h2.57a1.98 1.98 0 0 0 3.44 0h2.55c.34.6.98 1 1.72 1 1.1 0 2-.9 2-2-.02-1.1-.92-2-2.02-2z"/>
        </symbol>
        <symbol id="pin" viewBox="0 0 100 100">
          <title>pin</title>
          <path d="M0 0h24v24H0V0z"/><path d="M20 4H4c-1.1 0-2 .9-2 2v12c0 1.1.9 2 2 2h16c1.1 0 2-.9 2-2V6c0-1.1-.9-2-2-2zM7.64 15H6.49v-4.5l-.9.66-.58-.89L6.77 9h.87v6zm5.86 0H9.61v-1.02c1.07-1.07 1.77-1.77 2.13-2.15.4-.42.54-.69.54-1.06 0-.4-.31-.72-.81-.72-.52 0-.8.39-.9.72l-1.01-.42c.01-.02.18-.76 1-1.15.69-.33 1.48-.2 1.95.03.86.44.91 1.24.91 1.48 0 .64-.31 1.26-.92 1.86-.25.25-.72.71-1.4 1.39l.03.05h2.37V15zm5.25-.85c-.08.13-.56.85-1.76.85-.04 0-1.6.08-2.05-1.51l1.03-.41c.03.1.19.86 1.02.86.41 0 .89-.28.89-.77 0-.55-.48-.79-1.04-.79h-.5v-1h.46c.33 0 .88-.14.88-.72 0-.39-.31-.65-.75-.65-.5 0-.74.32-.85.64l-.99-.41C15.2 9.9 15.68 9 16.94 9c1.09 0 1.54.64 1.62.75.33.5.28 1.16.02 1.57-.15.22-.32.38-.52.48v.07c.28.11.51.28.68.52.37.52.33 1.27.01 1.76z"/>
        </symbol>
        <symbol id="play_lesson" viewBox="0 0 100 100">
          <title>play_lesson</title>
          <path d="M0 0h24v24H0V0z"/><path d="M18 11c.34 0 .67.03 1 .08V4c0-1.1-.9-2-2-2H5c-1.1 0-2 .9-2 2v16c0 1.1.9 2 2 2h7.26A6.995 6.995 0 0 1 18 11zM7 11V4h5v7L9.5 9.5 7 11z"/><path d="M18 13c-2.76 0-5 2.24-5 5s2.24 5 5 5 5-2.24 5-5-2.24-5-5-5zm-1.25 7.5v-5l4 2.5-4 2.5z"/>
        </symbol>
        <symbol id="price_change" viewBox="0 0 100 100">
          <title>price_change</title>
          <path d="M0 0h24v24H0V0z"/><path d="M20 4H4c-1.11 0-1.99.89-1.99 2L2 18c0 1.11.89 2 2 2h16c1.11 0 2-.89 2-2V6c0-1.11-.89-2-2-2zm-8 6H8v1h3c.55 0 1 .45 1 1v3c0 .55-.45 1-1 1h-1v1H8v-1H6v-2h4v-1H7c-.55 0-1-.45-1-1V9c0-.55.45-1 1-1h1V7h2v1h2v2zm4 6.25-2-2h4l-2 2zM14 10l2-2 2 2h-4z"/>
        </symbol>
        <symbol id="price_check" viewBox="0 0 100 100">
          <title>price_check</title>
          <path d="M0 0h24v24H0V0z"/><path d="M12 13V9c0-.55-.45-1-1-1H7V6h5V4H9.5V3h-2v1H6c-.55 0-1 .45-1 1v4c0 .55.45 1 1 1h4v2H5v2h2.5v1h2v-1H11c.55 0 1-.45 1-1zM19.59 12.52l-5.66 5.65-2.83-2.83-1.41 1.42L13.93 21 21 13.93z"/>
        </symbol>
        <symbol id="quiz" viewBox="0 0 100 100">
          <title>quiz</title>
          <path d="M0 0h24v24H0V0z"/><path d="M4 6H2v14c0 1.1.9 2 2 2h14v-2H4V6z"/><path d="M20 2H8c-1.1 0-2 .9-2 2v12c0 1.1.9 2 2 2h12c1.1 0 2-.9 2-2V4c0-1.1-.9-2-2-2zm-5.99 13c-.59 0-1.05-.47-1.05-1.05 0-.59.47-1.04 1.05-1.04.59 0 1.04.45 1.04 1.04-.01.58-.45 1.05-1.04 1.05zm2.5-6.17c-.63.93-1.23 1.21-1.56 1.81-.13.24-.18.4-.18 1.18h-1.52c0-.41-.06-1.08.26-1.65.41-.73 1.18-1.16 1.63-1.8.48-.68.21-1.94-1.14-1.94-.88 0-1.32.67-1.5 1.23l-1.37-.57C11.51 5.96 12.52 5 13.99 5c1.23 0 2.08.56 2.51 1.26.37.61.58 1.73.01 2.57z"/>
        </symbol>
        <symbol id="r_mobiledata" viewBox="0 0 100 100">
          <title>r_mobiledata</title>
          <path d="M0 0h24v24H0V0z"/><path d="M7.8 7.2 9 10H7L5.87 7.33H4V10H2V2h5c1.13 0 2 .87 2 2v1.33c0 .8-.53 1.54-1.2 1.87zM7 4H4v1.33h3V4z"/>
        </symbol>
        <symbol id="radar" viewBox="0 0 100 100">
          <title>radar</title>
          <path d="M0 0h24v24H0V0z"/><path d="M19.74 18.33A9.984 9.984 0 0 0 22 12c0-5.52-4.48-10-10-10S2 6.48 2 12s4.48 10 10 10a9.984 9.984 0 0 0 7.11-2.97c.03-.03.05-.06.07-.08.2-.2.39-.41.56-.62zM12 20c-4.41 0-8-3.59-8-8s3.59-8 8-8 8 3.59 8 8c0 1.85-.63 3.54-1.69 4.9l-1.43-1.43c.69-.98 1.1-2.17 1.1-3.46 0-3.31-2.69-6-6-6s-6 2.69-6 6 2.69 6 6 6c1.3 0 2.51-.42 3.49-1.13l1.42 1.42A7.822 7.822 0 0 1 12 20zm1.92-7.49c.17-.66.02-1.38-.49-1.9l-.02-.02c-.77-.77-2-.78-2.78-.04-.01.01-.03.02-.05.04-.78.78-.78 2.05 0 2.83l.02.02c.52.51 1.25.67 1.91.49l1.51 1.51c-.6.36-1.29.58-2.04.58-2.21 0-4-1.79-4-4s1.79-4 4-4 4 1.79 4 4c0 .73-.21 1.41-.56 2l-1.5-1.51z"/>
        </symbol>
        <symbol id="remember_me" viewBox="0 0 100 100">
          <title>remember_me</title>
          <path d="M0 0h24v24H0V0z"/><path d="M17 1H7c-1.1 0-2 .9-2 2v18c0 1.1.9 2 2 2h10c1.1 0 2-.9 2-2V3c0-1.1-.9-2-2-2zm0 14.21c-1.5-.77-3.2-1.21-5-1.21s-3.5.44-5 1.21V6h10v9.21z"/><circle cx="12" cy="10" r="3"/>
        </symbol>
        <symbol id="reset_tv" viewBox="0 0 100 100">
          <title>reset_tv</title>
          <path d="M0 0h24v24H0V0z"/><path d="M21 10h-8.01V7L9 11l3.99 4v-3H21v5H3V5h18v3h2V5c0-1.1-.9-2-2-2H3c-1.1 0-2 .9-2 2v12c0 1.1.9 2 2 2h5v2h8v-2h5c1.1 0 1.99-.9 1.99-2v-5H23c0-1.1-.9-2-2-2z"/>
        </symbol>
        <symbol id="restart_alt" viewBox="0 0 100 100">
          <title>restart_alt</title>
          <path d="M0 0h24v24H0V0z"/><path d="M12 5V2L8 6l4 4V7c3.31 0 6 2.69 6 6 0 2.97-2.17 5.43-5 5.91v2.02c3.95-.49 7-3.85 7-7.93 0-4.42-3.58-8-8-8zM6 13c0-1.65.67-3.15 1.76-4.24L6.34 7.34A8.014 8.014 0 0 0 4 13c0 4.08 3.05 7.44 7 7.93v-2.02c-2.83-.48-5-2.94-5-5.91z"/>
        </symbol>
        <symbol id="reviews" viewBox="0 0 100 100">
          <title>reviews</title>
          <path d="M0 0h24v24H0V0z"/><path d="M20 2H4c-1.1 0-2 .9-2 2v18l4-4h14c1.1 0 2-.9 2-2V4c0-1.1-.9-2-2-2zm-6.43 9.57L12 15l-1.57-3.43L7 10l3.43-1.57L12 5l1.57 3.43L17 10l-3.43 1.57z"/>
        </symbol>
        <symbol id="rsvp" viewBox="0 0 100 100">
          <title>rsvp</title>
          <path d="M0 0h24v24H0V0z"/><path d="M16 9h1.5l-1.75 6h-1.5L12.5 9H14l1 3.43L16 9zM5.1 12.9 6 15H4.5l-.85-2H2.5v2H1V9h3.5c.85 0 1.5.65 1.5 1.5v1c0 .6-.4 1.15-.9 1.4zm-.6-2.4h-2v1h2v-1zm17 2.5h-2v2H18V9h3.5c.83 0 1.5.67 1.5 1.5v1c0 .83-.67 1.5-1.5 1.5zm0-2.5h-2v1h2v-1zM11.5 9v1.5h-3v.75h2c.55 0 1 .45 1 1V14c0 .55-.45 1-1 1H7v-1.5h3v-.75H7.75c-.41 0-.75-.34-.75-.75v-2c0-.55.45-1 1-1h3.5z"/>
        </symbol>
        <symbol id="screen_lock_landscape" viewBox="0 0 100 100">
          <title>screen_lock_landscape</title>
          <path d="M0 0h24v24H0z"/><path d="M21 5H3c-1.1 0-2 .9-2 2v10c0 1.1.9 2 2 2h18c1.1 0 2-.9 2-2V7c0-1.1-.9-2-2-2zm-2 12H5V7h14v10zm-9-1h4c.55 0 1-.45 1-1v-3c0-.55-.45-1-1-1v-1a2 2 0 1 0-4 0v1c-.55 0-1 .45-1 1v3c0 .55.45 1 1 1zm.8-6c0-.66.54-1.2 1.2-1.2.66 0 1.2.54 1.2 1.2v1h-2.4v-1z"/>
        </symbol>
        <symbol id="screen_lock_portrait" viewBox="0 0 100 100">
          <title>screen_lock_portrait</title>
          <path d="M0 0h24v24H0z"/><path d="M10 16h4c.55 0 1-.45 1-1v-3c0-.55-.45-1-1-1v-1a2 2 0 1 0-4 0v1c-.55 0-1 .45-1 1v3c0 .55.45 1 1 1zm.8-6c0-.66.54-1.2 1.2-1.2.66 0 1.2.54 1.2 1.2v1h-2.4v-1zM17 1H7c-1.1 0-2 .9-2 2v18c0 1.1.9 2 2 2h10c1.1 0 2-.9 2-2V3c0-1.1-.9-2-2-2zm0 18H7V5h10v14z"/>
        </symbol>
        <symbol id="screen_lock_rotation" viewBox="0 0 100 100">
          <title>screen_lock_rotation</title>
          <path d="M0 0h24v24H0z"/><path d="m23.25 12.77-2.57-2.57-1.41 1.41 2.22 2.22-5.66 5.66L4.51 8.17l5.66-5.66 2.1 2.1 1.41-1.41L11.23.75a1.49 1.49 0 0 0-2.12 0L2.75 7.11a1.49 1.49 0 0 0 0 2.12l12.02 12.02c.59.59 1.54.59 2.12 0l6.36-6.36c.59-.59.59-1.54 0-2.12zM8.47 20.48A10.487 10.487 0 0 1 2.5 12H1c.51 6.16 5.66 11 11.95 11l.66-.03-3.81-3.82-1.33 1.33zM16 9h5c.55 0 1-.45 1-1V4c0-.55-.45-1-1-1v-.5a2.5 2.5 0 0 0-5 0V3c-.55 0-1 .45-1 1v4c0 .55.45 1 1 1zm.8-6.5c0-.94.76-1.7 1.7-1.7s1.7.76 1.7 1.7V3h-3.4v-.5z"/>
        </symbol>
        <symbol id="screen_rotation" viewBox="0 0 100 100">
          <title>screen_rotation</title>
          <path d="M0 0h24v24H0z"/><path d="M16.48 2.52c3.27 1.55 5.61 4.72 5.97 8.48h1.5C23.44 4.84 18.29 0 12 0l-.66.03 3.81 3.81 1.33-1.32zm-6.25-.77a1.49 1.49 0 0 0-2.12 0L1.75 8.11a1.49 1.49 0 0 0 0 2.12l12.02 12.02c.59.59 1.54.59 2.12 0l6.36-6.36c.59-.59.59-1.54 0-2.12L10.23 1.75zm4.6 19.44L2.81 9.17l6.36-6.36 12.02 12.02-6.36 6.36zm-7.31.29A10.487 10.487 0 0 1 1.55 13H.05C.56 19.16 5.71 24 12 24l.66-.03-3.81-3.81-1.33 1.32z"/>
        </symbol>
        <symbol id="screen_search_desktop" viewBox="0 0 100 100">
          <title>screen_search_desktop</title>
          <path d="M9.6 16.8h4.8v1.8H9.6z"/><path d="M20 18c1.1 0 1.99-.9 1.99-2L22 6a2 2 0 0 0-2-2H4c-1.11 0-2 .89-2 2v10a2 2 0 0 0 2 2H0v2h24v-2h-4zM4 16V6h16v10.01L4 16zm5.097-6.047c0-1.027.836-1.864 1.864-1.864 1.027 0 1.864.837 1.864 1.864a1.867 1.867 0 0 1-1.864 1.864 1.867 1.867 0 0 1-1.864-1.864zm7.032 4.236-2.482-2.482a3.19 3.19 0 0 0 .527-1.754A3.216 3.216 0 0 0 10.96 6.74a3.217 3.217 0 0 0-3.214 3.213 3.218 3.218 0 0 0 3.214 3.214 3.19 3.19 0 0 0 1.724-.51l2.489 2.487.955-.955z"/><path d="M0 0h24v24H0z"/>
        </symbol>
        <symbol id="screenshot" viewBox="0 0 100 100">
          <title>screenshot</title>
          <path d="M0 0h24v24H0V0z"/><path d="M17 1.01 7 1c-1.1 0-2 .9-2 2v18c0 1.1.9 2 2 2h10c1.1 0 2-.9 2-2V3c0-1.1-.9-1.99-2-1.99zM17 18H7V6h10v12zM9.5 8.5H12V7H8v4h1.5V8.5zM12 17h4v-4h-1.5v2.5H12V17z"/>
        </symbol>
        <symbol id="sd_storage" viewBox="0 0 100 100">
          <title>sd_storage</title>
          <path d="M0 0h24v24H0z"/><path d="M18 2h-8L4.02 8 4 20c0 1.1.9 2 2 2h12c1.1 0 2-.9 2-2V4c0-1.1-.9-2-2-2zm-6 6h-2V4h2v4zm3 0h-2V4h2v4zm3 0h-2V4h2v4z"/>
        </symbol>
        <symbol id="security_update" viewBox="0 0 100 100">
          <title>security_update</title>
          <path d="M0 0h24v24H0V0z"/><path d="M5 3v18c0 1.1.9 2 2 2h10c1.1 0 2-.9 2-2V3c0-1.1-.9-2-2-2H7c-1.1 0-2 .9-2 2zm12 15H7V6h10v12zm-1-6h-3V8h-2v4H8l4 4 4-4z"/>
        </symbol>
        <symbol id="security_update_good" viewBox="0 0 100 100">
          <title>security_update_good</title>
          <path d="M0 0h24v24H0V0z"/><path d="M17 1H7c-1.1 0-2 .9-2 2v18c0 1.1.9 2 2 2h10c1.1 0 2-.9 2-2V3c0-1.1-.9-2-2-2zm0 17H7V6h10v12zm-1-7.95-1.41-1.41-3.54 3.54-1.41-1.41-1.41 1.41L11.05 15 16 10.05z"/>
        </symbol>
        <symbol id="security_update_warning" viewBox="0 0 100 100">
          <title>security_update_warning</title>
          <path d="M0 0h24v24H0V0z"/><path d="M11 15h2v2h-2zM11 7h2v6h-2z"/><path d="M17 1H7c-1.1 0-1.99.9-1.99 2v18c0 1.1.89 2 1.99 2h10c1.1 0 2-.9 2-2V3c0-1.1-.9-2-2-2zm0 17H7V6h10v12z"/>
        </symbol>
        <symbol id="sell" viewBox="0 0 100 100">
          <title>sell</title>
          <path d="M0 0h24v24H0V0z"/><path d="m21.41 11.41-8.83-8.83c-.37-.37-.88-.58-1.41-.58H4c-1.1 0-2 .9-2 2v7.17c0 .53.21 1.04.59 1.41l8.83 8.83c.78.78 2.05.78 2.83 0l7.17-7.17c.78-.78.78-2.04-.01-2.83zM6.5 8C5.67 8 5 7.33 5 6.5S5.67 5 6.5 5 8 5.67 8 6.5 7.33 8 6.5 8z"/>
        </symbol>
        <symbol id="send_to_mobile" viewBox="0 0 100 100">
          <title>send_to_mobile</title>
          <path d="M0 0h24v24H0z"/><path d="M17 17h2v4c0 1.1-.9 2-2 2H7c-1.1 0-2-.9-2-2V3c0-1.1.9-1.99 2-1.99L17 1c1.1 0 2 .9 2 2v4h-2V6H7v12h10v-1zm5-5-4-4v3h-5v2h5v3l4-4z"/>
        </symbol>
        <symbol id="settings_suggest" viewBox="0 0 100 100">
          <title>settings_suggest</title>
          <path d="M0 0h24v24H0z"/><path d="M17.41 6.59 15 5.5l2.41-1.09L18.5 2l1.09 2.41L22 5.5l-2.41 1.09L18.5 9l-1.09-2.41zm3.87 6.13L20.5 11l-.78 1.72-1.72.78 1.72.78.78 1.72.78-1.72L23 13.5l-1.72-.78zm-5.04 1.65 1.94 1.47-2.5 4.33-2.24-.94c-.2.13-.42.26-.64.37l-.3 2.4h-5l-.3-2.41c-.22-.11-.43-.23-.64-.37l-2.24.94-2.5-4.33 1.94-1.47c-.01-.11-.01-.24-.01-.36s0-.25.01-.37l-1.94-1.47 2.5-4.33 2.24.94c.2-.13.42-.26.64-.37L7.5 6h5l.3 2.41c.22.11.43.23.64.37l2.24-.94 2.5 4.33-1.94 1.47c.01.12.01.24.01.37s0 .24-.01.36zM13 14c0-1.66-1.34-3-3-3s-3 1.34-3 3 1.34 3 3 3 3-1.34 3-3z"/>
        </symbol>
        <symbol id="settings_system_daydream" viewBox="0 0 100 100">
          <title>settings_system_daydream</title>
          <path d="M0 0h24v24H0z"/><path d="M9 16h6.5a2.5 2.5 0 0 0 0-5h-.05c-.24-1.69-1.69-3-3.45-3-1.4 0-2.6.83-3.16 2.02h-.16A2.994 2.994 0 0 0 6 13c0 1.66 1.34 3 3 3zM21 3H3c-1.1 0-2 .9-2 2v14c0 1.1.9 2 2 2h18c1.1 0 2-.9 2-2V5c0-1.1-.9-2-2-2zm0 16.01H3V4.99h18v14.02z"/>
        </symbol>
        <symbol id="share_location" viewBox="0 0 100 100">
          <title>share_location</title>
          <path d="M0 0h24v24H0V0z"/><path d="M13.02 19.93v2.02c2.01-.2 3.84-1 5.32-2.21l-1.42-1.43a7.941 7.941 0 0 1-3.9 1.62zM4.03 12c0-4.05 3.03-7.41 6.95-7.93V2.05C5.95 2.58 2.03 6.84 2.03 12c0 5.16 3.92 9.42 8.95 9.95v-2.02c-3.92-.52-6.95-3.88-6.95-7.93zM19.95 11h2.02c-.2-2.01-1-3.84-2.21-5.32l-1.43 1.43c.86 1.1 1.44 2.43 1.62 3.89zM18.34 4.26a9.981 9.981 0 0 0-5.32-2.21v2.02c1.46.18 2.79.76 3.9 1.62l1.42-1.43zM18.33 16.9l1.43 1.42A9.949 9.949 0 0 0 21.97 13h-2.02a7.941 7.941 0 0 1-1.62 3.9z"/><path d="M16 11.1C16 8.61 14.1 7 12 7s-4 1.61-4 4.1c0 1.66 1.33 3.63 4 5.9 2.67-2.27 4-4.24 4-5.9zm-4 .9a1.071 1.071 0 0 1 0-2.14A1.071 1.071 0 0 1 12 12z"/>
        </symbol>
        <symbol id="shortcut" viewBox="0 0 100 100">
          <title>shortcut</title>
          <path d="M0 0h24v24H0V0z"/><path d="m21 11-6-6v5H8c-2.76 0-5 2.24-5 5v4h2v-4c0-1.65 1.35-3 3-3h7v5l6-6z"/>
        </symbol>
        <symbol id="signal_cellular_0_bar" viewBox="0 0 100 100">
          <title>signal_cellular_0_bar</title>
          <path d="M0 0h24v24H0z"/><path d="M20 6.83V20H6.83L20 6.83M22 2 2 22h20V2z"/>
        </symbol>
        <symbol id="signal_cellular_4_bar" viewBox="0 0 100 100">
          <title>signal_cellular_4_bar</title>
          <path d="M0 0h24v24H0z"/><path d="M2 22h20V2z"/>
        </symbol>
        <symbol id="signal_cellular_alt" viewBox="0 0 100 100">
          <title>signal_cellular_alt</title>
          <path d="M0 0h24v24H0z"/><path d="M17 4h3v16h-3zM5 14h3v6H5zm6-5h3v11h-3z"/>
        </symbol>
        <symbol id="signal_cellular_connected_no_internet_0_bar" viewBox="0 0 100 100">
          <title>signal_cellular_connected_no_internet_0_bar</title>
          <path d="M0 0h24v24H0z"/><path d="M20 18h2v-8h-2v8zm0 4h2v-2h-2v2zm-2-2v2H2L22 2v6h-2V6.83L6.83 20H18z"/>
        </symbol>
        <symbol id="signal_cellular_connected_no_internet_4_bar" viewBox="0 0 100 100">
          <title>signal_cellular_connected_no_internet_4_bar</title>
          <path d="M0 0h24v24H0V0z"/><path d="M20 18h2v-8h-2v8zm0 4h2v-2h-2v2zM2 22h16V8h4V2L2 22z"/>
        </symbol>
        <symbol id="signal_cellular_no_sim" viewBox="0 0 100 100">
          <title>signal_cellular_no_sim</title>
          <path d="M-618-2872H782V728H-618zM-1 0h26v24H-1zm1 0h24v24H0z"/><path d="M18.99 5c0-1.1-.89-2-1.99-2h-7L7.66 5.34 19 16.68 18.99 5zM3.65 3.88 2.38 5.15 5 7.77V19c0 1.1.9 2 2 2h10.01c.35 0 .67-.1.96-.26l1.88 1.88 1.27-1.27L3.65 3.88z"/><path d="M.01 0h24v24h-24z"/>
        </symbol>
        <symbol id="signal_cellular_nodata" viewBox="0 0 100 100">
          <title>signal_cellular_nodata</title>
          <path d="M0 0h24v24H0V0z"/><path d="M22 13h-9v9H2L22 2v11zm-1 2.41L19.59 14l-2.09 2.09L15.41 14 14 15.41l2.09 2.09L14 19.59 15.41 21l2.09-2.08L19.59 21 21 19.59l-2.08-2.09L21 15.41z"/>
        </symbol>
        <symbol id="signal_cellular_null" viewBox="0 0 100 100">
          <title>signal_cellular_null</title>
          <path d="M0 0h24v24H0z"/><path d="M20 6.83V20H6.83L20 6.83M22 2 2 22h20V2z"/>
        </symbol>
        <symbol id="signal_cellular_off" viewBox="0 0 100 100">
          <title>signal_cellular_off</title>
          <path d="M0 0h24v24H0z"/><path d="m21 1-8.59 8.59L21 18.18V1zM4.77 4.5 3.5 5.77l6.36 6.36L1 21h17.73l2 2L22 21.73 4.77 4.5z"/>
        </symbol>
        <symbol id="signal_wifi_0_bar" viewBox="0 0 100 100">
          <title>signal_wifi_0_bar</title>
          <path d="M0 0h24v24H0z"/><path d="M12 6c3.33 0 6.49 1.08 9.08 3.07L12 18.17l-9.08-9.1C5.51 7.08 8.67 6 12 6m0-2C7.31 4 3.07 5.9 0 8.98L12 21 24 8.98A16.88 16.88 0 0 0 12 4z"/>
        </symbol>
        <symbol id="signal_wifi_4_bar" viewBox="0 0 100 100">
          <title>signal_wifi_4_bar</title>
          <path d="M0 0h24v24H0z"/><path d="M12.01 21.49 23.64 7c-.45-.34-4.93-4-11.64-4C5.28 3 .81 6.66.36 7l11.63 14.49.01.01.01-.01z"/>
        </symbol>
        <symbol id="signal_wifi_4_bar_lock" viewBox="0 0 100 100">
          <title>signal_wifi_4_bar_lock</title>
          <path d="M0 0h24v24H0V0z"/><path d="M21.98 11 24 8.98A16.88 16.88 0 0 0 12 4C7.31 4 3.07 5.9 0 8.98l6.35 6.36L12 21l3.05-3.05V15c0-.45.09-.88.23-1.29.54-1.57 2.01-2.71 3.77-2.71h2.93z"/><path d="M22 16v-1c0-1.1-.9-2-2-2s-2 .9-2 2v1c-.55 0-1 .45-1 1v3c0 .55.45 1 1 1h4c.55 0 1-.45 1-1v-3c0-.55-.45-1-1-1zm-1 0h-2v-1c0-.55.45-1 1-1s1 .45 1 1v1z"/>
        </symbol>
        <symbol id="signal_wifi_bad" viewBox="0 0 100 100">
          <title>signal_wifi_bad</title>
          <path d="M0 0h24v24H0V0z"/><path d="M24 8.98A16.88 16.88 0 0 0 12 4C7.31 4 3.07 5.9 0 8.98L12 21v-9h8.99L24 8.98zM19.59 14l-2.09 2.09L15.41 14 14 15.41l2.09 2.09L14 19.59 15.41 21l2.09-2.08L19.59 21 21 19.59l-2.08-2.09L21 15.41 19.59 14z"/>
        </symbol>
        <symbol id="signal_wifi_connected_no_internet_4" viewBox="0 0 100 100">
          <title>signal_wifi_connected_no_internet_4</title>
          <path d="M0 0h24v24H0V0z"/><path d="M24 8.98A16.88 16.88 0 0 0 12 4C7.31 4 3.07 5.9 0 8.98L12 21v-9h8.99L24 8.98zM19.59 14l-2.09 2.09L15.41 14 14 15.41l2.09 2.09L14 19.59 15.41 21l2.09-2.08L19.59 21 21 19.59l-2.08-2.09L21 15.41 19.59 14z"/>
        </symbol>
        <symbol id="signal_wifi_off" viewBox="0 0 100 100">
          <title>signal_wifi_off</title>
          <path d="M0 0h24v24H0z"/><path d="M23.64 7c-.45-.34-4.93-4-11.64-4-1.5 0-2.89.19-4.15.48L18.18 13.8 23.64 7zm-6.6 8.22L3.27 1.44 2 2.72l2.05 2.06C1.91 5.76.59 6.82.36 7l11.63 14.49.01.01.01-.01 3.9-4.86 3.32 3.32 1.27-1.27-3.46-3.46z"/>
        </symbol>
        <symbol id="signal_wifi_statusbar_4_bar" viewBox="0 0 100 100">
          <title>signal_wifi_statusbar_4_bar</title>
          <path d="M0 0h24v24H0V0z"/><path d="M12 4C7.31 4 3.07 5.9 0 8.98L12 21 24 8.98A16.88 16.88 0 0 0 12 4z"/>
        </symbol>
        <symbol id="signal_wifi_statusbar_connected_no_internet_4" viewBox="0 0 100 100">
          <title>signal_wifi_statusbar_connected_no_internet_4</title>
          <path d="M0 0h24v24H0V0z"/><path d="M12 4C7.31 4 3.07 5.9 0 8.98L12 21l5-5.01V8h5.92C19.97 5.51 16.16 4 12 4zM19 18h2v2h-2z"/><path d="M19 10h2v6h-2z"/>
        </symbol>
        <symbol id="signal_wifi_statusbar_null" viewBox="0 0 100 100">
          <title>signal_wifi_statusbar_null</title>
          <path d="M0 0h24v24H0V0z"/><path d="M12 4C7.31 4 3.07 5.9 0 8.98L12 21 24 8.98A16.88 16.88 0 0 0 12 4zM2.92 9.07C5.51 7.08 8.67 6 12 6s6.49 1.08 9.08 3.07L12 18.17l-9.08-9.1z"/>
        </symbol>
        <symbol id="sim_card_download" viewBox="0 0 100 100">
          <title>sim_card_download</title>
          <path d="M0 0h24v24H0V0z"/><path d="M18 2h-8L4 8v12c0 1.1.9 2 2 2h12c1.1 0 2-.9 2-2V4c0-1.1-.9-2-2-2zm-6 15-4-4h3V9.02L13 9v4h3l-4 4z"/>
        </symbol>
        <symbol id="splitscreen" viewBox="0 0 100 100">
          <title>splitscreen</title>
          <path d="M0 0h24v24H0V0z"/><path d="M18 4v5H6V4h12m0-2H6c-1.1 0-2 .9-2 2v5c0 1.1.9 2 2 2h12c1.1 0 2-.9 2-2V4c0-1.1-.9-2-2-2zm0 13v5H6v-5h12m0-2H6c-1.1 0-2 .9-2 2v5c0 1.1.9 2 2 2h12c1.1 0 2-.9 2-2v-5c0-1.1-.9-2-2-2z"/>
        </symbol>
        <symbol id="sports_score" viewBox="0 0 100 100">
          <title>sports_score</title>
          <path d="M0 0h24v24H0V0z"/><path d="M11 6H9V4h2v2zm4-2h-2v2h2V4zM9 14h2v-2H9v2zm10-4V8h-2v2h2zm0 4v-2h-2v2h2zm-6 0h2v-2h-2v2zm6-10h-2v2h2V4zm-6 4V6h-2v2h2zm-6 2V8h2V6H7V4H5v16h2v-8h2v-2H7zm8 2h2v-2h-2v2zm-4-2v2h2v-2h-2zM9 8v2h2V8H9zm4 2h2V8h-2v2zm2-4v2h2V6h-2z"/>
        </symbol>
        <symbol id="storage" viewBox="0 0 100 100">
          <title>storage</title>
          <path d="M0 0h24v24H0z"/><path d="M2 20h20v-4H2v4zm2-3h2v2H4v-2zM2 4v4h20V4H2zm4 3H4V5h2v2zm-4 7h20v-4H2v4zm2-3h2v2H4v-2z"/>
        </symbol>
        <symbol id="storm" viewBox="0 0 100 100">
          <title>storm</title>
          <path d="M0 0h24v24H0V0z"/><path d="M18.93 8C16.72 4.18 11.82 2.87 8 5.07c-1.41.82-2.48 2-3.16 3.37-.13-2.2.22-4.4 1.02-6.44H3.74C2.2 6.49 2.52 11.58 5.07 16a7.96 7.96 0 0 0 4.86 3.72c1.98.53 4.16.31 6.07-.79 1.41-.82 2.48-2 3.16-3.37.13 2.2-.21 4.4-1.01 6.44h2.11c1.53-4.49 1.22-9.58-1.33-14zM15 17.2A6.012 6.012 0 0 1 6.8 15c-.11-.2-.21-.4-.3-.6-1.2-2.76-.17-6.06 2.5-7.6 2.86-1.65 6.54-.67 8.2 2.2.11.2.21.4.3.6 1.2 2.76.17 6.06-2.5 7.6zM12 10c1.1 0 2 .9 2 2s-.9 2-2 2-2-.9-2-2 .9-2 2-2m0-2c-2.21 0-4 1.79-4 4s1.79 4 4 4 4-1.79 4-4-1.79-4-4-4z"/>
        </symbol>
        <symbol id="summarize" viewBox="0 0 100 100">
          <title>summarize</title>
          <path d="M0 0h24v24H0V0z"/><path d="M15 3H5c-1.1 0-1.99.9-1.99 2L3 19c0 1.1.89 2 1.99 2H19c1.1 0 2-.9 2-2V9l-6-6zM8 17c-.55 0-1-.45-1-1s.45-1 1-1 1 .45 1 1-.45 1-1 1zm0-4c-.55 0-1-.45-1-1s.45-1 1-1 1 .45 1 1-.45 1-1 1zm0-4c-.55 0-1-.45-1-1s.45-1 1-1 1 .45 1 1-.45 1-1 1zm6 1V4.5l5.5 5.5H14z"/>
        </symbol>
        <symbol id="system_security_update" viewBox="0 0 100 100">
          <title>system_security_update</title>
          <path d="M0 0h24v24H0V0z"/><path d="M5 3v18c0 1.1.9 2 2 2h10c1.1 0 2-.9 2-2V3c0-1.1-.9-2-2-2H7c-1.1 0-2 .9-2 2zm12 15H7V6h10v12zm-1-6h-3V8h-2v4H8l4 4 4-4z"/>
        </symbol>
        <symbol id="system_security_update_good" viewBox="0 0 100 100">
          <title>system_security_update_good</title>
          <path d="M0 0h24v24H0V0z"/><path d="M17 1H7c-1.1 0-2 .9-2 2v18c0 1.1.9 2 2 2h10c1.1 0 2-.9 2-2V3c0-1.1-.9-2-2-2zm0 17H7V6h10v12zm-1-7.95-1.41-1.41-3.54 3.54-1.41-1.41-1.41 1.41L11.05 15 16 10.05z"/>
        </symbol>
        <symbol id="system_security_update_warning" viewBox="0 0 100 100">
          <title>system_security_update_warning</title>
          <path d="M0 0h24v24H0V0z"/><path d="M11 15h2v2h-2zM11 7h2v6h-2z"/><path d="M17 1H7c-1.1 0-1.99.9-1.99 2v18c0 1.1.89 2 1.99 2h10c1.1 0 2-.9 2-2V3c0-1.1-.9-2-2-2zm0 17H7V6h10v12z"/>
        </symbol>
        <symbol id="task" viewBox="0 0 100 100">
          <title>task</title>
          <path d="M0 0h24v24H0V0z"/><path d="M14 2H6c-1.1 0-1.99.9-1.99 2L4 20c0 1.1.89 2 1.99 2H18c1.1 0 2-.9 2-2V8l-6-6zm-3.06 16L7.4 14.46l1.41-1.41 2.12 2.12 4.24-4.24 1.41 1.41L10.94 18zM13 9V3.5L18.5 9H13z"/>
        </symbol>
        <symbol id="thermostat" viewBox="0 0 100 100">
          <title>thermostat</title>
          <path d="M0 0h24v24H0V0z"/><path d="M15 13V5c0-1.66-1.34-3-3-3S9 3.34 9 5v8c-1.21.91-2 2.37-2 4 0 2.76 2.24 5 5 5s5-2.24 5-5c0-1.63-.79-3.09-2-4zm-4-2V5c0-.55.45-1 1-1s1 .45 1 1v1h-1v1h1v2h-1v1h1v1h-2z"/>
        </symbol>
        <symbol id="timer_10_select" viewBox="0 0 100 100">
          <title>timer_10_select</title>
          <path d="M0 0h24v24H0z"/><path d="M13 8v8h-3V8h3m0-3h-3C8.34 5 7 6.34 7 8v8c0 1.66 1.34 3 3 3h3c1.66 0 3-1.34 3-3V8c0-1.66-1.34-3-3-3zM1 8h2v11h3V5H1v3zm17.5 3c-.83 0-1.5.68-1.5 1.5v2c0 .82.67 1.5 1.5 1.5H21v1h-4v2h4.5c.83 0 1.5-.67 1.5-1.5v-2c0-.83-.67-1.5-1.5-1.5H19v-1h4v-2h-4.5z"/>
        </symbol>
        <symbol id="timer_3_select" viewBox="0 0 100 100">
          <title>timer_3_select</title>
          <path d="M0 0h24v24H0z"/><path d="M21 11v2h-4v1h2.5c.83 0 1.5.68 1.5 1.5v2c0 .83-.67 1.5-1.5 1.5H15v-2h4v-1h-2.5c-.82 0-1.5-.68-1.5-1.5v-2c0-.82.68-1.5 1.5-1.5H21zM4 5v3h6v2.5H4v3h6V16H4v3h6c1.66 0 3-1.34 3-3v-1.9a2.1 2.1 0 0 0-2.1-2.1A2.1 2.1 0 0 0 13 9.9V8c0-1.66-1.34-3-3-3H4z"/>
        </symbol>
        <symbol id="tungsten" viewBox="0 0 100 100">
          <title>tungsten</title>
          <path d="M0 0h24v24H0V0z"/><path d="M11 19h2v3h-2zM2 11h3v2H2zM19 11h3v2h-3zM15.894 17.801l1.407-1.407 2.122 2.122-1.408 1.407zM4.584 18.509l2.121-2.122 1.408 1.407-2.122 2.122zM15 8.02V3H9v5.02c-1.21.92-2 2.35-2 3.98 0 2.76 2.24 5 5 5s5-2.24 5-5c0-1.63-.79-3.06-2-3.98zM11 5h2v2.1c-.32-.06-.66-.1-1-.1s-.68.04-1 .1V5z"/>
        </symbol>
        <symbol id="usb" viewBox="0 0 100 100">
          <title>usb</title>
          <path d="M0 0h24v24H0z"/><path d="M15 7v4h1v2h-3V5h2l-3-4-3 4h2v8H8v-2.07c.7-.37 1.2-1.08 1.2-1.93 0-1.21-.99-2.2-2.2-2.2-1.21 0-2.2.99-2.2 2.2 0 .85.5 1.56 1.2 1.93V13c0 1.11.89 2 2 2h3v3.05c-.71.37-1.2 1.1-1.2 1.95a2.2 2.2 0 0 0 4.4 0c0-.85-.49-1.58-1.2-1.95V15h3c1.11 0 2-.89 2-2v-2h1V7h-4z"/>
        </symbol>
        <symbol id="usb_off" viewBox="0 0 100 100">
          <title>usb_off</title>
          <path d="M0 0h24v24H0z"/><path d="M15 8h4v4h-1v2c0 .34-.08.66-.23.94L16 13.17V12h-1V8zm-4 .17 2 2V6h2l-3-4-3 4h2v2.17zM13 16v2.28c.6.34 1 .98 1 1.72 0 1.1-.9 2-2 2s-2-.9-2-2c0-.74.4-1.37 1-1.72V16H8c-1.11 0-2-.89-2-2v-2.28c-.6-.34-1-.98-1-1.72 0-.59.26-1.13.68-1.49L1.39 4.22 2.8 2.81l18.38 18.38-1.41 1.41-6.6-6.6H13zm-2-2v-.17l-2.51-2.51c-.14.16-.31.29-.49.4V14h3z"/>
        </symbol>
        <symbol id="wallpaper" viewBox="0 0 100 100">
          <title>wallpaper</title>
          <path d="M0 0h24v24H0z"/><path d="M4 4h7V2H4c-1.1 0-2 .9-2 2v7h2V4zm6 9-4 5h12l-3-4-2.03 2.71L10 13zm7-4.5c0-.83-.67-1.5-1.5-1.5S14 7.67 14 8.5s.67 1.5 1.5 1.5S17 9.33 17 8.5zM20 2h-7v2h7v7h2V4c0-1.1-.9-2-2-2zm0 18h-7v2h7c1.1 0 2-.9 2-2v-7h-2v7zM4 13H2v7c0 1.1.9 2 2 2h7v-2H4v-7z"/>
        </symbol>
        <symbol id="water" viewBox="0 0 100 100">
          <title>water</title>
          <path d="M0 0h24v24H0V0z"/><path d="M21.98 14H22h-.02zM5.35 13c1.19 0 1.42 1 3.33 1 1.95 0 2.09-1 3.33-1 1.19 0 1.42 1 3.33 1 1.95 0 2.09-1 3.33-1 1.19 0 1.4.98 3.31 1v-2c-1.19 0-1.42-1-3.33-1-1.95 0-2.09 1-3.33 1-1.19 0-1.42-1-3.33-1-1.95 0-2.09 1-3.33 1-1.19 0-1.42-1-3.33-1-1.95 0-2.09 1-3.33 1v2c1.9 0 2.17-1 3.35-1zm13.32 2c-1.95 0-2.09 1-3.33 1-1.19 0-1.42-1-3.33-1-1.95 0-2.1 1-3.34 1-1.24 0-1.38-1-3.33-1-1.95 0-2.1 1-3.34 1v2c1.95 0 2.11-1 3.34-1 1.24 0 1.38 1 3.33 1 1.95 0 2.1-1 3.34-1 1.19 0 1.42 1 3.33 1 1.94 0 2.09-1 3.33-1 1.19 0 1.42 1 3.33 1v-2c-1.24 0-1.38-1-3.33-1zM5.35 9c1.19 0 1.42 1 3.33 1 1.95 0 2.09-1 3.33-1 1.19 0 1.42 1 3.33 1 1.95 0 2.09-1 3.33-1 1.19 0 1.4.98 3.31 1V8c-1.19 0-1.42-1-3.33-1-1.95 0-2.09 1-3.33 1-1.19 0-1.42-1-3.33-1-1.95 0-2.09 1-3.33 1-1.19 0-1.42-1-3.33-1C3.38 7 3.24 8 2 8v2c1.9 0 2.17-1 3.35-1z"/>
        </symbol>
        <symbol id="widgets" viewBox="0 0 100 100">
          <title>widgets</title>
          <path d="M0 0h24v24H0z"/><path d="M13 13v8h8v-8h-8zM3 21h8v-8H3v8zM3 3v8h8V3H3zm13.66-1.31L11 7.34 16.66 13l5.66-5.66-5.66-5.65z"/>
        </symbol>
        <symbol id="wifi_calling_3" viewBox="0 0 100 100">
          <title>wifi_calling_3</title>
          <path d="M0 0h24v24H0V0z"/><path d="M16.49 3c-2.21 0-4.21.9-5.66 2.34l1.06 1.06a6.47 6.47 0 0 1 9.18 0l1.06-1.06A7.932 7.932 0 0 0 16.49 3z"/><path d="M20.03 7.46a5.022 5.022 0 0 0-7.08 0l1.06 1.06c.63-.63 1.51-1.03 2.47-1.03s1.84.39 2.47 1.03l1.08-1.06zM15.08 9.59 16.49 11l1.41-1.41c-.36-.37-.86-.59-1.41-.59s-1.05.22-1.41.59z"/><path d="m15.63 14.4-2.52 2.5c-2.5-1.43-4.57-3.5-6-6l2.5-2.52c.23-.24.33-.57.27-.9L9.13 3.8c-.09-.46-.5-.8-.98-.8H4c-.56 0-1.03.47-1 1.03.17 2.89 1.05 5.6 2.43 7.97 1.58 2.73 3.85 4.99 6.57 6.57 2.37 1.37 5.08 2.26 7.97 2.43.56.03 1.03-.44 1.03-1v-4.15c0-.48-.34-.89-.8-.98l-3.67-.73a.985.985 0 0 0-.9.26z"/>
        </symbol>
        <symbol id="wifi_lock" viewBox="0 0 100 100">
          <title>wifi_lock</title>
          <path d="M0 0h24v24H0V0z"/><path d="M21.98 11 24 8.98A16.88 16.88 0 0 0 12 4C7.31 4 3.07 5.9 0 8.98l6.35 6.36L12 21l3.05-3.05V15c0-.45.09-.88.23-1.29.54-1.57 2.01-2.71 3.77-2.71h2.93z"/><path d="M22 16v-1c0-1.1-.9-2-2-2s-2 .9-2 2v1c-.55 0-1 .45-1 1v3c0 .55.45 1 1 1h4c.55 0 1-.45 1-1v-3c0-.55-.45-1-1-1zm-1 0h-2v-1c0-.55.45-1 1-1s1 .45 1 1v1z"/>
        </symbol>
        <symbol id="wifi_tethering" viewBox="0 0 100 100">
          <title>wifi_tethering</title>
          <path d="M0 0h24v24H0z"/><path d="M12 11c-1.1 0-2 .9-2 2s.9 2 2 2 2-.9 2-2-.9-2-2-2zm6 2c0-3.31-2.69-6-6-6s-6 2.69-6 6c0 2.22 1.21 4.15 3 5.19l1-1.74c-1.19-.7-2-1.97-2-3.45 0-2.21 1.79-4 4-4s4 1.79 4 4c0 1.48-.81 2.75-2 3.45l1 1.74c1.79-1.04 3-2.97 3-5.19zM12 3C6.48 3 2 7.48 2 13c0 3.7 2.01 6.92 4.99 8.65l1-1.73C5.61 18.53 4 15.96 4 13c0-4.42 3.58-8 8-8s8 3.58 8 8c0 2.96-1.61 5.53-4 6.92l1 1.73c2.99-1.73 5-4.95 5-8.65 0-5.52-4.48-10-10-10z"/>
        </symbol>
        <symbol id="wifi_tethering_error_rounded" viewBox="0 0 100 100">
          <title>wifi_tethering_error_rounded</title>
          <path d="M0 0h24v24H0V0z"/><path d="M12 7c-3.31 0-6 2.69-6 6 0 1.66.68 3.15 1.76 4.24l1.42-1.42A3.934 3.934 0 0 1 8 13c0-2.21 1.79-4 4-4s4 1.79 4 4c0 1.11-.45 2.1-1.18 2.82l1.42 1.42A6.003 6.003 0 0 0 18 13c0-3.31-2.69-6-6-6zm0-4C6.48 3 2 7.48 2 13c0 2.76 1.12 5.26 2.93 7.07l1.42-1.42A7.94 7.94 0 0 1 4 13c0-4.42 3.58-8 8-8 2.53 0 4.78 1.17 6.24 3h2.42C18.93 5.01 15.7 3 12 3zm0 8c-1.1 0-2 .9-2 2 0 .55.23 1.05.59 1.41.36.36.86.59 1.41.59s1.05-.23 1.41-.59c.36-.36.59-.86.59-1.41 0-1.1-.9-2-2-2zm8-1h2v6h-2v-6zm0 8h2v2h-2v-2z"/>
        </symbol>
        <symbol id="wifi_tethering_off" viewBox="0 0 100 100">
          <title>wifi_tethering_off</title>
          <path d="M0 0h24v24H0V0z"/><path d="M2.81 2.81 1.39 4.22l2.69 2.69A9.958 9.958 0 0 0 2 13c0 2.76 1.12 5.26 2.93 7.07l1.42-1.42a7.957 7.957 0 0 1-.84-10.31l1.43 1.43a6.003 6.003 0 0 0 .82 7.47l1.42-1.42A3.934 3.934 0 0 1 8 13c0-.63.15-1.23.41-1.76l1.61 1.61c0 .05-.02.1-.02.15 0 .55.23 1.05.59 1.41.36.36.86.59 1.41.59.05 0 .1-.01.16-.02l7.62 7.62 1.41-1.41L2.81 2.81zM17.7 14.87c.19-.59.3-1.22.3-1.87 0-3.31-2.69-6-6-6-.65 0-1.28.1-1.87.3l1.71 1.71C11.89 9 11.95 9 12 9c2.21 0 4 1.79 4 4 0 .05 0 .11-.01.16l1.71 1.71zM12 5c4.42 0 8 3.58 8 8 0 1.22-.27 2.37-.77 3.4l1.49 1.49A9.953 9.953 0 0 0 22 13c0-5.52-4.48-10-10-10-1.78 0-3.44.46-4.89 1.28l1.48 1.48C9.63 5.27 10.78 5 12 5z"/>
        </symbol>
    </defs>
</svg>
