<?xml version="1.0" encoding="UTF-8" standalone="no"?>
<svg
    xmlns="http://www.w3.org/2000/svg"
    xmlns:svg="http://www.w3.org/2000/svg"
    xmlns:rdf="http://www.w3.org/1999/02/22-rdf-syntax-ns#" 
    xmlns:ns2="http://creativecommons.org/ns#" 
    xmlns:dc="http://purl.org/dc/elements/1.1/" 
    xmlns:cc="http://creativecommons.org/ns#"         
    xmlns:xlink="http://www.w3.org/1999/xlink" 
    width="720"
    height="1008"
    
    version="1.1"
    id="svg2"
    style="fill:none;stroke:black">
    <title>Material Design Icons [Search Set]</title>
    <desc>Material Design Icons are the official open-source icons featured in the Google Material Design specification.</desc>
    <metadata>
        <rdf:RDF>
            <cc:Work rdf:about="">
                <dc:format>image/svg+xml</dc:format>
                <dc:type rdf:resource="http://purl.org/dc/dcmitype/StillImage" />
                <dc:title>Material Design Icons [Search Set]</dc:title>
                <dc:date>2021-11-08</dc:date>
                <dc:creator>
                    <cc:Agent>
                        <dc:title>Google</dc:title>
                    </cc:Agent>
                </dc:creator>
                <dc:rights>
                    <cc:Agent>
                        <dc:title>Open Source</dc:title>
                    </cc:Agent>
                </dc:rights>
                <dc:language>English</dc:language>

                <dc:source>https://github.com/google/material-design-icons</dc:source>
                <dc:description>Material Design Icons are the official open-source icons featured in the Google Material Design specification.</dc:description>
            </cc:Work>
        </rdf:RDF>
    </metadata>

    <defs>
        <symbol id="bathroom" viewBox="0 0 100 100">
          <title>bathroom</title>
          <path d="M0 0h24v24H0V0z"/><path d="M20 2H4c-1.1 0-2 .9-2 2v16c0 1.1.9 2 2 2h16c1.1 0 2-.9 2-2V4c0-1.1-.9-2-2-2zM9 18c-.55 0-1-.45-1-1s.45-1 1-1 1 .45 1 1-.45 1-1 1zm0-3c-.55 0-1-.45-1-1s.45-1 1-1 1 .45 1 1-.45 1-1 1zm3 3c-.55 0-1-.45-1-1s.45-1 1-1 1 .45 1 1-.45 1-1 1zm0-3c-.55 0-1-.45-1-1s.45-1 1-1 1 .45 1 1-.45 1-1 1zm3 3c-.55 0-1-.45-1-1s.45-1 1-1 1 .45 1 1-.45 1-1 1zm0-3c-.55 0-1-.45-1-1s.45-1 1-1 1 .45 1 1-.45 1-1 1zm2-3H7v-1c0-2.76 2.24-5 5-5s5 2.24 5 5v1z"/>
        </symbol>
        <symbol id="bed" viewBox="0 0 100 100">
          <title>bed</title>
          <path d="M0 0h24v24H0V0z"/><path d="M21 10.78V8c0-1.65-1.35-3-3-3h-4c-.77 0-1.47.3-2 .78-.53-.48-1.23-.78-2-.78H6C4.35 5 3 6.35 3 8v2.78c-.61.55-1 1.34-1 2.22v6h2v-2h16v2h2v-6c0-.88-.39-1.67-1-2.22zM14 7h4c.55 0 1 .45 1 1v2h-6V8c0-.55.45-1 1-1zM5 8c0-.55.45-1 1-1h4c.55 0 1 .45 1 1v2H5V8zm-1 7v-2c0-.55.45-1 1-1h14c.55 0 1 .45 1 1v2H4z"/>
        </symbol>
        <symbol id="bedroom_baby" viewBox="0 0 100 100">
          <title>bedroom_baby</title>
          <path d="M0 0h24v24H0V0z"/><path d="M20 2H4c-1.1 0-2 .9-2 2v16c0 1.1.9 2 2 2h16c1.1 0 2-.9 2-2V4c0-1.1-.9-2-2-2zm-8 16c-2.64 0-5.13-1.03-7-2.9l1.06-1.06c.34.34.71.65 1.1.92L8 13.5V9.51l-1.55.99-.95-1L7 7.76 6 7h3.65l1.73 3H17v1h-1v2.5l.84 1.46c.39-.28.76-.58 1.1-.92L19 15.1a9.842 9.842 0 0 1-7 2.9z"/><path d="M14.69 14.24a7.72 7.72 0 0 1-5.4 0l-.81 1.41-.03.06c1.1.52 2.28.79 3.53.79s2.45-.28 3.55-.79l-.03-.06-.81-1.41z"/>
        </symbol>
        <symbol id="bedroom_child" viewBox="0 0 100 100">
          <title>bedroom_child</title>
          <path d="M0 0h24v24H0V0z"/><path d="M9 8.5h6v2H9zM15.64 12H8.37a.87.87 0 0 0-.87.87h.01V14h9v-1.13a.87.87 0 0 0-.87-.87z"/><path d="M20 2H4c-1.1 0-2 .9-2 2v16c0 1.1.9 2 2 2h16c1.1 0 2-.9 2-2V4c0-1.1-.9-2-2-2zm-2 15h-1.5v-1.5h-9V17H6v-4.13c0-1 .62-1.85 1.5-2.2V9c0-1.1.9-2 2-2h5c1.1 0 2 .9 2 2v1.67c.88.35 1.5 1.2 1.5 2.2V17z"/>
        </symbol>
        <symbol id="bedroom_parent" viewBox="0 0 100 100">
          <title>bedroom_parent</title>
          <path d="M0 0h24v24H0V0z"/><path d="M16.5 12h-9c-.55 0-1 .45-1 1v1h11v-1c0-.55-.45-1-1-1zM7.25 8.5h4v2h-4zM12.75 8.5h4v2h-4z"/><path d="M20 2H4c-1.1 0-2 .9-2 2v16c0 1.1.9 2 2 2h16c1.1 0 2-.9 2-2V4c0-1.1-.9-2-2-2zm-1 15h-1.5v-1.5h-11V17H5v-3.83c0-.66.25-1.26.65-1.72V9c0-1.1.9-2 2-2H11c.37 0 .72.12 1 .32.28-.2.63-.32 1-.32h3.35c1.1 0 2 .9 2 2v2.45c.4.46.65 1.06.65 1.72V17z"/>
        </symbol>
        <symbol id="blender" viewBox="0 0 100 100">
          <title>blender</title>
          <path d="M0 0h24v24H0V0z"/><path d="M16.13 15.13 18 3h-4V2h-4v1H5c-1.1 0-2 .9-2 2v4c0 1.1.9 2 2 2h2.23l.64 4.13C6.74 16.05 6 17.43 6 19v1c0 1.1.9 2 2 2h8c1.1 0 2-.9 2-2v-1c0-1.57-.74-2.95-1.87-3.87zM5 9V5h1.31l.62 4H5zm7 10c-.55 0-1-.45-1-1s.45-1 1-1 1 .45 1 1-.45 1-1 1zm2.29-5H9.72L8.33 5h7.34l-1.38 9z"/>
        </symbol>
        <symbol id="camera_indoor" viewBox="0 0 100 100">
          <title>camera_indoor</title>
          <path d="M0 0h24v24H0V0z"/><path d="M12 3 4 9v12h16V9l-8-6zm4 13.06L14 15v1c0 .55-.45 1-1 1H9c-.55 0-1-.45-1-1v-4c0-.55.45-1 1-1h4c.55 0 1 .45 1 1v1l2-1.06v4.12z"/>
        </symbol>
        <symbol id="camera_outdoor" viewBox="0 0 100 100">
          <title>camera_outdoor</title>
          <path d="M0 0h24v24H0V0z"/><path d="M18 13c0-.55-.45-1-1-1h-4c-.55 0-1 .45-1 1v4c0 .55.45 1 1 1h4c.55 0 1-.45 1-1v-1l2 1.06v-4.12L18 14v-1zM12 3 4 9v12h16v-2H6v-9l6-4.5 6 4.5v1h2V9l-8-6z"/>
        </symbol>
        <symbol id="chair" viewBox="0 0 100 100">
          <title>chair</title>
          <path d="M0 0h24v24H0V0z"/><path d="M7 11v2h10v-2c0-1.86 1.28-3.41 3-3.86V6c0-1.65-1.35-3-3-3H7C5.35 3 4 4.35 4 6v1.14c1.72.45 3 2 3 3.86z"/><path d="M21 9c-1.1 0-2 .9-2 2v4H5v-4c0-1.1-.9-2-2-2s-2 .9-2 2v5c0 1.65 1.35 3 3 3v1c0 .55.45 1 1 1s1-.45 1-1v-1h12v1c0 .55.45 1 1 1s1-.45 1-1v-1c1.65 0 3-1.35 3-3v-5c0-1.1-.9-2-2-2z"/>
        </symbol>
        <symbol id="chair_alt" viewBox="0 0 100 100">
          <title>chair_alt</title>
          <path d="M0 0h24v24H0V0z"/><path d="M17 10c1.1 0 2-.9 2-2V5c0-1.1-.9-2-2-2H7c-1.1 0-2 .9-2 2v3c0 1.1.9 2 2 2h1v2H7c-1.1 0-2 .9-2 2v7h2v-3h10v3h2v-7c0-1.1-.9-2-2-2h-1v-2h1zM7 8V5h10v3H7zm10 8H7v-2h10v2zm-3-4h-4v-2h4v2z"/>
        </symbol>
        <symbol id="coffee" viewBox="0 0 100 100">
          <title>coffee</title>
          <path d="M0 0h24v24H0V0z"/><path d="M18.5 3H6c-1.1 0-2 .9-2 2v5.71c0 3.83 2.95 7.18 6.78 7.29 3.96.12 7.22-3.06 7.22-7v-1h.5c1.93 0 3.5-1.57 3.5-3.5S20.43 3 18.5 3zM16 5v3H6V5h10zm2.5 3H18V5h.5c.83 0 1.5.67 1.5 1.5S19.33 8 18.5 8zM4 19h16v2H4v-2z"/>
        </symbol>
        <symbol id="coffee_maker" viewBox="0 0 100 100">
          <title>coffee_maker</title>
          <path d="M0 0h24v24H0V0z"/><path d="M18 6V4h2V2H6c-1.1 0-2 .9-2 2v16c0 1.1.9 2 2 2h14v-2h-4.03A4.966 4.966 0 0 0 18 16v-5H8v5c0 1.64.81 3.09 2.03 4H6V4h2v2c0 .55.45 1 1 1h8c.55 0 1-.45 1-1z"/><circle cx="13" cy="9" r="1"/>
        </symbol>
        <symbol id="dining" viewBox="0 0 100 100">
          <title>dining</title>
          <path d="M0 0h24v24H0V0z"/><path d="M20 2H4c-1.1 0-2 .9-2 2v16c0 1.1.9 2 2 2h16c1.1 0 2-.9 2-2V4c0-1.1-.9-2-2-2zm-9 8.3c0 .93-.64 1.71-1.5 1.93V19H8v-6.77c-.86-.22-1.5-1-1.5-1.93V6.5c0-.28.22-.5.5-.5s.5.22.5.5V9h.75V6.5c0-.28.22-.5.5-.5s.5.22.5.5V9H10V6.5c0-.28.23-.5.5-.5.28 0 .5.22.5.5v3.8zm4.58 2.29-.08.03V19H14v-6.38l-.08-.04c-.97-.47-1.67-1.7-1.67-3.18 0-1.88 1.13-3.4 2.5-3.4 1.38 0 2.5 1.53 2.5 3.41 0 1.48-.7 2.71-1.67 3.18z"/>
        </symbol>
        <symbol id="door_back" viewBox="0 0 100 100">
          <title>door_back</title>
          <path d="M0 0h24v24H0V0z"/><path d="M19 19V5c0-1.1-.9-2-2-2H7c-1.1 0-2 .9-2 2v14H3v2h18v-2h-2zm-8-6H9v-2h2v2z"/>
        </symbol>
        <symbol id="door_front" viewBox="0 0 100 100">
          <title>door_front</title>
          <path d="M0 0h24v24H0V0z"/><path d="M19 19V5c0-1.1-.9-2-2-2H7c-1.1 0-2 .9-2 2v14H3v2h18v-2h-2zm-4-6h-2v-2h2v2z"/>
        </symbol>
        <symbol id="door_sliding" viewBox="0 0 100 100">
          <title>door_sliding</title>
          <path d="M0 0h24v24H0V0z"/><path d="M20 19V5c0-1.1-.9-2-2-2h-5.25v16h-1.5V3H6c-1.1 0-2 .9-2 2v14H3v2h18v-2h-1zm-10-6H8v-2h2v2zm6 0h-2v-2h2v2z"/>
        </symbol>
        <symbol id="doorbell" viewBox="0 0 100 100">
          <title>doorbell</title>
          <path d="M0 0h24v24H0V0z"/><path d="M12 3 4 9v12h16V9l-8-6zm0 14.5c-.55 0-1-.45-1-1h2c0 .55-.45 1-1 1zm4-1.5H8v-1h1v-2.34c0-1.54.82-2.82 2.25-3.16v-.25c0-.41.34-.75.75-.75s.75.34.75.75v.25c1.44.34 2.25 1.62 2.25 3.16V15h1v1z"/>
        </symbol>
        <symbol id="feed" viewBox="0 0 100 100">
          <title>feed</title>
          <path d="M0 0h24v24H0V0z"/><path d="M16 3H5c-1.1 0-2 .9-2 2v14c0 1.1.9 2 2 2h14c1.1 0 2-.9 2-2V8l-5-5zM7 7h5v2H7V7zm10 10H7v-2h10v2zm0-4H7v-2h10v2zm-2-4V5l4 4h-4z"/>
        </symbol>
        <symbol id="flatware" viewBox="0 0 100 100">
          <title>flatware</title>
          <path d="M0 0h24v24H0V0z"/><path d="M16 7.08c0 1.77-.84 3.25-2 3.82V21h-2V10.9c-1.16-.57-2-2.05-2-3.82C10.01 4.83 11.35 3 13 3c1.66 0 3 1.83 3 4.08zM17 3v18h2v-8h2V7c0-1.76-1.24-4-4-4zM8.28 3c-.4 0-.72.32-.72.72V7h-.84V3.72C6.72 3.32 6.4 3 6 3s-.72.32-.72.72V7h-.84V3.72c0-.4-.32-.72-.72-.72S3 3.32 3 3.72V9c0 1.1.9 2 2 2v10h2V11c1.1 0 2-.9 2-2V3.72c0-.4-.32-.72-.72-.72z"/>
        </symbol>
        <symbol id="garage" viewBox="0 0 100 100">
          <title>garage</title>
          <path d="M0 0h24v24H0V0z"/><circle cx="15" cy="13" r="1"/><circle cx="9" cy="13" r="1"/><path d="m8.33 7.5-.66 2h8.66l-.66-2z"/><path d="M20 2H4c-1.1 0-2 .9-2 2v16c0 1.1.9 2 2 2h16c1.1 0 2-.9 2-2V4c0-1.1-.9-2-2-2zm-1 15.69c0 .45-.35.81-.78.81h-.44c-.44 0-.78-.36-.78-.81V16.5H7v1.19c0 .45-.35.81-.78.81h-.44c-.43 0-.78-.36-.78-.81v-6.5c.82-2.47 1.34-4.03 1.56-4.69.05-.16.12-.29.19-.4.02-.02.03-.04.05-.06.38-.53.92-.54.92-.54h8.56s.54.01.92.53c.02.03.03.05.05.07.07.11.14.24.19.4.22.66.74 2.23 1.56 4.69v6.5z"/>
        </symbol>
        <symbol id="light" viewBox="0 0 100 100">
          <title>light</title>
          <path d="M0 0h24v24H0V0z"/><path d="M13 6.06V3h-2v3.06c-4.5.5-8 4.31-8 8.93C3 16.1 3.9 17 5.01 17H8c0 2.21 1.79 4 4 4s4-1.79 4-4h2.99c1.11 0 2.01-.9 2.01-2.01 0-4.62-3.5-8.43-8-8.93zM12 15H5c0-3.86 3.14-7 7-7s7 3.14 7 7h-7z"/>
        </symbol>
        <symbol id="living" viewBox="0 0 100 100">
          <title>living</title>
          <path d="M0 0h24v24H0V0z"/><path d="M16.5 11.5c-.55 0-1 .45-1 1v2h-7v-2c0-.55-.45-1-1-1s-1 .45-1 1V16c0 .28.22.5.5.5h10c.28 0 .5-.22.5-.5v-3.5c0-.55-.45-1-1-1z"/><path d="M10 12.5v.5h4v-.5c0-1.3.99-2.35 2.25-2.47V9c0-.83-.67-1.5-1.5-1.5h-5.5c-.83 0-1.5.67-1.5 1.5v1.03A2.48 2.48 0 0 1 10 12.5z"/><path d="M20 2H4c-1.1 0-2 .9-2 2v16c0 1.1.9 2 2 2h16c1.1 0 2-.9 2-2V4c0-1.1-.9-2-2-2zm-1 14c0 1.1-.9 2-2 2H7c-1.1 0-2-.9-2-2v-3.5c0-.92.51-1.72 1.25-2.15V9c0-1.66 1.34-3 3-3h5.5c1.66 0 3 1.34 3 3v1.35c.74.43 1.25 1.23 1.25 2.15V16z"/>
        </symbol>
        <symbol id="manage_search" viewBox="0 0 100 100">
          <title>manage_search</title>
          <path d="M0 0h24v24H0V0z"/><path d="M7 9H2V7h5v2zm0 3H2v2h5v-2zm13.59 7-3.83-3.83c-.8.52-1.74.83-2.76.83-2.76 0-5-2.24-5-5s2.24-5 5-5 5 2.24 5 5c0 1.02-.31 1.96-.83 2.75L22 17.59 20.59 19zM17 11c0-1.65-1.35-3-3-3s-3 1.35-3 3 1.35 3 3 3 3-1.35 3-3zM2 19h10v-2H2v2z"/>
        </symbol>
        <symbol id="podcasts" viewBox="0 0 100 100">
          <title>podcasts</title>
          <path d="M0 0h24v24H0V0z"/><path d="M14 12c0 .74-.4 1.38-1 1.72V22h-2v-8.28c-.6-.35-1-.98-1-1.72 0-1.1.9-2 2-2s2 .9 2 2zm-2-6c-3.31 0-6 2.69-6 6 0 1.74.75 3.31 1.94 4.4l1.42-1.42A3.957 3.957 0 0 1 8 12c0-2.21 1.79-4 4-4s4 1.79 4 4c0 1.19-.53 2.25-1.36 2.98l1.42 1.42A5.957 5.957 0 0 0 18 12c0-3.31-2.69-6-6-6zm0-4C6.48 2 2 6.48 2 12c0 2.85 1.2 5.41 3.11 7.24l1.42-1.42A7.987 7.987 0 0 1 4 12c0-4.41 3.59-8 8-8s8 3.59 8 8c0 2.29-.98 4.36-2.53 5.82l1.42 1.42C20.8 17.41 22 14.85 22 12c0-5.52-4.48-10-10-10z"/>
        </symbol>
        <symbol id="shower" viewBox="0 0 100 100">
          <title>shower</title>
          <path d="M0 0h24v24H0V0z"/><circle cx="8" cy="17" r="1"/><circle cx="12" cy="17" r="1"/><circle cx="16" cy="17" r="1"/><path d="M13 5.08V3h-2v2.08C7.61 5.57 5 8.47 5 12v2h14v-2c0-3.53-2.61-6.43-6-6.92z"/><circle cx="8" cy="20" r="1"/><circle cx="12" cy="20" r="1"/><circle cx="16" cy="20" r="1"/>
        </symbol>
        <symbol id="window" viewBox="0 0 100 100">
          <title>window</title>
          <path d="M0 0h24v24H0V0z"/><path d="M20 2H4c-1.1 0-2 .9-2 2v16c0 1.1.9 2 2 2h16c1.1 0 2-.9 2-2V4c0-1.1-.9-2-2-2zm0 9h-7V4h7v7zm-9-7v7H4V4h7zm-7 9h7v7H4v-7zm9 7v-7h7v7h-7z"/>
        </symbol>
        <symbol id="yard" viewBox="0 0 100 100">
          <title>yard</title>
          <path d="M0 0h24v24H0V0z"/><path d="M20 2H4c-1.1 0-2 .9-2 2v16c0 1.1.9 2 2 2h16c1.1 0 2-.9 2-2V4c0-1.1-.9-2-2-2zM8 8.22a1.562 1.562 0 0 1 2.45-1.28l-.01-.12c0-.86.7-1.56 1.56-1.56s1.56.7 1.56 1.56l-.01.12A1.562 1.562 0 0 1 16 8.22c0 .62-.37 1.16-.89 1.4.52.25.89.79.89 1.41 0 .86-.7 1.56-1.56 1.56-.33 0-.64-.11-.89-.28l.01.12c0 .86-.7 1.56-1.56 1.56s-1.56-.7-1.56-1.56l.01-.12A1.562 1.562 0 0 1 8 11.03c0-.62.37-1.16.89-1.4C8.37 9.38 8 8.84 8 8.22zM12 19c-3.31 0-6-2.69-6-6 3.31 0 6 2.69 6 6 0-3.31 2.69-6 6-6 0 3.31-2.69 6-6 6z"/><circle cx="12" cy="9.62" r="1.56"/>
        </symbol>
    </defs>
</svg>
