<?xml version="1.0" encoding="UTF-8" standalone="no"?>
<svg 
xmlns="http://www.w3.org/2000/svg"
xmlns:svg="http://www.w3.org/2000/svg"
xmlns:rdf="http://www.w3.org/1999/02/22-rdf-syntax-ns#" 
xmlns:ns2="http://creativecommons.org/ns#" 
xmlns:dc="http://purl.org/dc/elements/1.1/" 
xmlns:cc="http://creativecommons.org/ns#"         
xmlns:xlink="http://www.w3.org/1999/xlink" 
version="1.1"
id="svg2"
style="fill:black;stroke:none">
<title>Material Design Icons [Alert Set]</title>
<desc>Material Design Icons are the official open-source icons featured in the Google Material Design specification.</desc>
<metadata>
    <rdf:RDF>
    <cc:Work rdf:about="">
    <dc:format>image/svg+xml</dc:format>
    <dc:type rdf:resource="http://purl.org/dc/dcmitype/StillImage"/>
    <dc:title>Material Design Icons [Alert Set]</dc:title>
    <dc:date>2015-02-18</dc:date>
    <dc:creator>
    <cc:Agent>
    <dc:title>Google</dc:title>
</cc:Agent>
</dc:creator>
<dc:rights>
<cc:Agent>
<dc:title>Open Source</dc:title>
</cc:Agent>
</dc:rights>
<dc:language>English</dc:language>

<dc:source>https://github.com/google/material-design-icons</dc:source>
<dc:description>Material Design Icons are the official open-source icons featured in the Google Material Design specification.</dc:description>
</cc:Work>
</rdf:RDF>
</metadata>

<defs>
    <symbol  id="ic_add_alert_24px">
        <path d="M10.01 21.01c0 1.1.89 1.99 1.99 1.99s1.99-.89 1.99-1.99h-3.98zm8.87-4.19V11c0-3.25-2.25-5.97-5.29-6.69v-.72C13.59 2.71 12.88 2 12 2s-1.59.71-1.59 1.59v.72A6.873 6.873 0 0 0 5.12 11v5.82L3 18.94V20h18v-1.06l-2.12-2.12zM16 13.01h-3v3h-2v-3H8V11h3V8h2v3h3v2.01z"
        />
    </symbol>
    <symbol  id="ic_error_24px">
        <path d="M12 2C6.48 2 2 6.48 2 12s4.48 10 10 10 10-4.48 10-10S17.52 2 12 2zm1 15h-2v-2h2v2zm0-4h-2V7h2v6z" />
    </symbol>
    <symbol  id="ic_error_outline_24px">
        <path d="M11 15h2v2h-2zm0-8h2v6h-2zm.99-5C6.47 2 2 6.48 2 12s4.47 10 9.99 10C17.52 22 22 17.52 22 12S17.52 2 11.99 2zM12 20c-4.42 0-8-3.58-8-8s3.58-8 8-8 8 3.58 8 8-3.58 8-8 8z" />
    </symbol>
    <symbol  id="ic_warning_24px">
        <path d="M1 21h22L12 2 1 21zm12-3h-2v-2h2v2zm0-4h-2v-4h2v4z" />
    </symbol>
    
</defs>
</svg>
