<?xml version="1.0" encoding="UTF-8" standalone="no"?>
<svg
    xmlns="http://www.w3.org/2000/svg"
    xmlns:svg="http://www.w3.org/2000/svg"
    xmlns:rdf="http://www.w3.org/1999/02/22-rdf-syntax-ns#" 
    xmlns:ns2="http://creativecommons.org/ns#" 
    xmlns:dc="http://purl.org/dc/elements/1.1/" 
    xmlns:cc="http://creativecommons.org/ns#"         
    xmlns:xlink="http://www.w3.org/1999/xlink" 
    width="720"
    height="1008"
    
    version="1.1"
    id="svg2"
    style="fill:none;stroke:black">
    <title>Material Design Icons [Notification Set]</title>
    <desc>Material Design Icons are the official open-source icons featured in the Google Material Design specification.</desc>
    <metadata>
        <rdf:RDF>
            <cc:Work rdf:about="">
                <dc:format>image/svg+xml</dc:format>
                <dc:type rdf:resource="http://purl.org/dc/dcmitype/StillImage" />
                <dc:title>Material Design Icons [Notification Set]</dc:title>
                <dc:date>2021-11-08</dc:date>
                <dc:creator>
                    <cc:Agent>
                        <dc:title>Google</dc:title>
                    </cc:Agent>
                </dc:creator>
                <dc:rights>
                    <cc:Agent>
                        <dc:title>Open Source</dc:title>
                    </cc:Agent>
                </dc:rights>
                <dc:language>English</dc:language>

                <dc:source>https://github.com/google/material-design-icons</dc:source>
                <dc:description>Material Design Icons are the official open-source icons featured in the Google Material Design specification.</dc:description>
            </cc:Work>
        </rdf:RDF>
    </metadata>

    <defs>
        <symbol id="account_tree" viewBox="0 0 100 100">
          <title>account_tree</title>
          <path d="M0 0h24v24H0z"/><path d="M22 11V3h-7v3H9V3H2v8h7V8h2v10h4v3h7v-8h-7v3h-2V8h2v3z"/>
        </symbol>
        <symbol id="adb" viewBox="0 0 100 100">
          <title>adb</title>
          <path d="M0 0h24v24H0z"/><path d="M5 16c0 3.87 3.13 7 7 7s7-3.13 7-7v-4H5v4zM16.12 4.37l2.1-2.1-.82-.83-2.3 2.31C14.16 3.28 13.12 3 12 3s-2.16.28-3.09.75L6.6 1.44l-.82.83 2.1 2.1C6.14 5.64 5 7.68 5 10v1h14v-1c0-2.32-1.14-4.36-2.88-5.63zM9 9c-.55 0-1-.45-1-1s.45-1 1-1 1 .45 1 1-.45 1-1 1zm6 0c-.55 0-1-.45-1-1s.45-1 1-1 1 .45 1 1-.45 1-1 1z"/>
        </symbol>
        <symbol id="add_call" viewBox="0 0 100 100">
          <title>add_call</title>
          <path d="M20 15.5c-1.25 0-2.45-.2-3.57-.57a1.02 1.02 0 0 0-1.02.24l-2.2 2.2a15.045 15.045 0 0 1-6.59-6.59l2.2-2.21a.96.96 0 0 0 .25-1A11.36 11.36 0 0 1 8.5 4c0-.55-.45-1-1-1H4c-.55 0-1 .45-1 1 0 9.39 7.61 17 17 17 .55 0 1-.45 1-1v-3.5c0-.55-.45-1-1-1zM21 6h-3V3h-2v3h-3v2h3v3h2V8h3z"/>
        </symbol>
        <symbol id="airline_seat_flat" viewBox="0 0 100 100">
          <title>airline_seat_flat</title>
          <path d="M0 0h24v24H0z"/><path d="M22 11v2H9V7h9c2.21 0 4 1.79 4 4zM2 14v2h6v2h8v-2h6v-2H2zm5.14-1.9a3 3 0 0 0-.04-4.24 3 3 0 0 0-4.24.04 3 3 0 0 0 .04 4.24 3 3 0 0 0 4.24-.04z"/>
        </symbol>
        <symbol id="airline_seat_flat_angled" viewBox="0 0 100 100">
          <title>airline_seat_flat_angled</title>
          <path d="M0 0h24v24H0z"/><path d="m22.25 14.29-.69 1.89L9.2 11.71l2.08-5.66 8.56 3.09a4 4 0 0 1 2.41 5.15zM1.5 12.14 8 14.48V19h8v-1.63L20.52 19l.69-1.89-19.02-6.86-.69 1.89zm5.8-1.94a3.01 3.01 0 0 0 1.41-4A3.005 3.005 0 0 0 4.7 4.8a2.99 2.99 0 0 0-1.4 4 2.99 2.99 0 0 0 4 1.4z"/>
        </symbol>
        <symbol id="airline_seat_individual_suite" viewBox="0 0 100 100">
          <title>airline_seat_individual_suite</title>
          <path d="M0 0h24v24H0V0z"/><path d="M7 13c1.65 0 3-1.35 3-3S8.65 7 7 7s-3 1.35-3 3 1.35 3 3 3zm12-6h-8v7H3V7H1v10h22v-6c0-2.21-1.79-4-4-4z"/>
        </symbol>
        <symbol id="airline_seat_legroom_extra" viewBox="0 0 100 100">
          <title>airline_seat_legroom_extra</title>
          <path d="M0 0h24v24H0z"/><path d="M4 12V3H2v9c0 2.76 2.24 5 5 5h6v-2H7c-1.66 0-3-1.34-3-3zm18.83 5.24c-.38-.72-1.29-.97-2.03-.63l-1.09.5-3.41-6.98a2.01 2.01 0 0 0-1.79-1.12L11 9V3H5v8c0 1.66 1.34 3 3 3h7l3.41 7 3.72-1.7c.77-.36 1.1-1.3.7-2.06z"/>
        </symbol>
        <symbol id="airline_seat_legroom_normal" viewBox="0 0 100 100">
          <title>airline_seat_legroom_normal</title>
          <path d="M0 0h24v24H0z"/><path d="M5 12V3H3v9c0 2.76 2.24 5 5 5h6v-2H8c-1.66 0-3-1.34-3-3zm15.5 6H19v-7c0-1.1-.9-2-2-2h-5V3H6v8c0 1.65 1.35 3 3 3h7v7h4.5c.83 0 1.5-.67 1.5-1.5s-.67-1.5-1.5-1.5z"/>
        </symbol>
        <symbol id="airline_seat_legroom_reduced" viewBox="0 0 100 100">
          <title>airline_seat_legroom_reduced</title>
          <path d="M0 0h24v24H0z"/><path d="M19.97 19.2c.18.96-.55 1.8-1.47 1.8H14v-3l1-4H9c-1.65 0-3-1.35-3-3V3h6v6h5c1.1 0 2 .9 2 2l-2 7h1.44c.73 0 1.39.49 1.53 1.2zM5 12V3H3v9c0 2.76 2.24 5 5 5h4v-2H8c-1.66 0-3-1.34-3-3z"/>
        </symbol>
        <symbol id="airline_seat_recline_extra" viewBox="0 0 100 100">
          <title>airline_seat_recline_extra</title>
          <path d="M0 0h24v24H0z"/><path d="M5.35 5.64c-.9-.64-1.12-1.88-.49-2.79.63-.9 1.88-1.12 2.79-.49.9.64 1.12 1.88.49 2.79-.64.9-1.88 1.12-2.79.49zM16 19H8.93c-1.48 0-2.74-1.08-2.96-2.54L4 7H2l1.99 9.76A5.01 5.01 0 0 0 8.94 21H16v-2zm.23-4h-4.88l-1.03-4.1c1.58.89 3.28 1.54 5.15 1.22V9.99c-1.63.31-3.44-.27-4.69-1.25L9.14 7.47c-.23-.18-.49-.3-.76-.38a2.21 2.21 0 0 0-.99-.06h-.02a2.268 2.268 0 0 0-1.84 2.61l1.35 5.92A3.008 3.008 0 0 0 9.83 18h6.85l3.82 3 1.5-1.5-5.77-4.5z"/>
        </symbol>
        <symbol id="airline_seat_recline_normal" viewBox="0 0 100 100">
          <title>airline_seat_recline_normal</title>
          <path d="M0 0h24v24H0z"/><path d="M7.59 5.41c-.78-.78-.78-2.05 0-2.83.78-.78 2.05-.78 2.83 0 .78.78.78 2.05 0 2.83-.79.79-2.05.79-2.83 0zM6 16V7H4v9c0 2.76 2.24 5 5 5h6v-2H9c-1.66 0-3-1.34-3-3zm14 4.07L14.93 15H11.5v-3.68c1.4 1.15 3.6 2.16 5.5 2.16v-2.16c-1.66.02-3.61-.87-4.67-2.04l-1.4-1.55c-.19-.21-.43-.38-.69-.5-.29-.14-.62-.23-.96-.23h-.03C8.01 7 7 8.01 7 9.25V15c0 1.66 1.34 3 3 3h5.07l3.5 3.5L20 20.07z"/>
        </symbol>
        <symbol id="bluetooth_audio" viewBox="0 0 100 100">
          <title>bluetooth_audio</title>
          <path d="M0 0h24v24H0z"/><path d="m14.24 12.01 2.32 2.32c.28-.72.44-1.51.44-2.33 0-.82-.16-1.59-.43-2.31l-2.33 2.32zm5.29-5.3-1.26 1.26c.63 1.21.98 2.57.98 4.02s-.36 2.82-.98 4.02l1.2 1.2a9.936 9.936 0 0 0 1.54-5.31c-.01-1.89-.55-3.67-1.48-5.19zm-3.82 1L10 2H9v7.59L4.41 5 3 6.41 8.59 12 3 17.59 4.41 19 9 14.41V22h1l5.71-5.71-4.3-4.29 4.3-4.29zM11 5.83l1.88 1.88L11 9.59V5.83zm1.88 10.46L11 18.17v-3.76l1.88 1.88z"/>
        </symbol>
        <symbol id="confirmation_number" viewBox="0 0 100 100">
          <title>confirmation_number</title>
          <path d="M0 0h24v24H0z"/><path d="M22 10V6a2 2 0 0 0-2-2H4c-1.1 0-1.99.89-1.99 2v4c1.1 0 1.99.9 1.99 2s-.89 2-2 2v4c0 1.1.9 2 2 2h16c1.1 0 2-.9 2-2v-4c-1.1 0-2-.9-2-2s.9-2 2-2zm-9 7.5h-2v-2h2v2zm0-4.5h-2v-2h2v2zm0-4.5h-2v-2h2v2z"/>
        </symbol>
        <symbol id="directions_off" viewBox="0 0 100 100">
          <title>directions_off</title>
          <path d="M0 0h24v24H0z"/><path d="M9.41 6.58 12 4l8 8-2.58 2.59L18.83 16l2.58-2.59c.78-.78.78-2.05 0-2.83l-8-8c-.78-.78-2.05-.78-2.83 0L8 5.17l1.41 1.41zM2.81 2.81 1.39 4.22 5.17 8l-2.58 2.59c-.78.78-.78 2.05 0 2.83l8 8c.78.78 2.05.78 2.83 0L16 18.83l3.78 3.78 1.41-1.41L2.81 2.81zM12 20l-8-8 2.58-2.59L8.17 11H7v2h3.17l1.5 1.5-1.08 1.09L12 17l1.09-1.09 1.5 1.5L12 20z"/><path d="m10.916 8.087 1.09-1.089 4.999 5-1.09 1.088z"/>
        </symbol>
        <symbol id="disc_full" viewBox="0 0 100 100">
          <title>disc_full</title>
          <path d="M0 0h24v24H0z"/><path d="M20 16h2v-2h-2v2zm0-9v5h2V7h-2zM10 4c-4.42 0-8 3.58-8 8s3.58 8 8 8 8-3.58 8-8-3.58-8-8-8zm0 10c-1.1 0-2-.9-2-2s.9-2 2-2 2 .9 2 2-.9 2-2 2z"/>
        </symbol>
        <symbol id="do_disturb" viewBox="0 0 100 100">
          <title>do_disturb</title>
          <path d="M0 0h24v24H0V0z"/><path d="M12 2C6.5 2 2 6.5 2 12s4.5 10 10 10 10-4.5 10-10S17.5 2 12 2zM4 12c0-4.4 3.6-8 8-8 1.8 0 3.5.6 4.9 1.7L5.7 16.9C4.6 15.5 4 13.8 4 12zm8 8c-1.8 0-3.5-.6-4.9-1.7L18.3 7.1C19.4 8.5 20 10.2 20 12c0 4.4-3.6 8-8 8z"/>
        </symbol>
        <symbol id="do_disturb_alt" viewBox="0 0 100 100">
          <title>do_disturb_alt</title>
          <path d="M0 0h24v24H0V0z"/><path d="M12 2C6.48 2 2 6.48 2 12s4.48 10 10 10 10-4.48 10-10S17.52 2 12 2zm0 18c-4.42 0-8-3.58-8-8 0-1.85.63-3.55 1.69-4.9L16.9 18.31A7.902 7.902 0 0 1 12 20zm6.31-3.1L7.1 5.69A7.902 7.902 0 0 1 12 4c4.42 0 8 3.58 8 8 0 1.85-.63 3.55-1.69 4.9z"/>
        </symbol>
        <symbol id="do_disturb_off" viewBox="0 0 100 100">
          <title>do_disturb_off</title>
          <path d="M0 0h24v24H0V0z"/><path d="M17 11v2h-1.17l4.51 4.51A9.91 9.91 0 0 0 22 12c0-5.52-4.48-10-10-10-2.04 0-3.93.61-5.51 1.66L13.83 11H17zM1.39 4.22l2.27 2.27A9.91 9.91 0 0 0 2 12c0 5.52 4.48 10 10 10 2.04 0 3.93-.61 5.51-1.66l2.27 2.27 1.41-1.41L2.81 2.81 1.39 4.22zM7 11h1.17l2 2H7v-2z"/>
        </symbol>
        <symbol id="do_disturb_on" viewBox="0 0 100 100">
          <title>do_disturb_on</title>
          <path d="M0 0h24v24H0V0z"/><path d="M12 2C6.48 2 2 6.48 2 12s4.48 10 10 10 10-4.48 10-10S17.52 2 12 2zm5 11H7v-2h10v2z"/>
        </symbol>
        <symbol id="do_not_disturb" viewBox="0 0 100 100">
          <title>do_not_disturb</title>
          <path d="M0 0h24v24H0z"/><path d="M12 2C6.48 2 2 6.48 2 12s4.48 10 10 10 10-4.48 10-10S17.52 2 12 2zm0 18c-4.42 0-8-3.58-8-8 0-1.85.63-3.55 1.69-4.9L16.9 18.31A7.902 7.902 0 0 1 12 20zm6.31-3.1L7.1 5.69A7.902 7.902 0 0 1 12 4c4.42 0 8 3.58 8 8 0 1.85-.63 3.55-1.69 4.9z"/>
        </symbol>
        <symbol id="do_not_disturb_alt" viewBox="0 0 100 100">
          <title>do_not_disturb_alt</title>
          <path d="M-618-1464H782v3600H-618zM0 0h24v24H0z"/><path d="M12 2C6.5 2 2 6.5 2 12s4.5 10 10 10 10-4.5 10-10S17.5 2 12 2zM4 12c0-4.4 3.6-8 8-8 1.8 0 3.5.6 4.9 1.7L5.7 16.9C4.6 15.5 4 13.8 4 12zm8 8c-1.8 0-3.5-.6-4.9-1.7L18.3 7.1C19.4 8.5 20 10.2 20 12c0 4.4-3.6 8-8 8z"/>
        </symbol>
        <symbol id="do_not_disturb_off" viewBox="0 0 100 100">
          <title>do_not_disturb_off</title>
          <path d="M0 0h24v24H0V0z"/><path d="M17 11v2h-1.46l4.68 4.68A9.92 9.92 0 0 0 22 12c0-5.52-4.48-10-10-10-2.11 0-4.07.66-5.68 1.78L13.54 11H17zM2.27 2.27 1 3.54l2.78 2.78A9.92 9.92 0 0 0 2 12c0 5.52 4.48 10 10 10 2.11 0 4.07-.66 5.68-1.78L20.46 23l1.27-1.27L11 11 2.27 2.27zM7 13v-2h1.46l2 2H7z"/>
        </symbol>
        <symbol id="do_not_disturb_on" viewBox="0 0 100 100">
          <title>do_not_disturb_on</title>
          <path d="M0 0h24v24H0V0z"/><path d="M12 2C6.48 2 2 6.48 2 12s4.48 10 10 10 10-4.48 10-10S17.52 2 12 2zm5 11H7v-2h10v2z"/>
        </symbol>
        <symbol id="drive_eta" viewBox="0 0 100 100">
          <title>drive_eta</title>
          <path d="M0 0h24v24H0z"/><path d="M18.92 5.01C18.72 4.42 18.16 4 17.5 4h-11c-.66 0-1.21.42-1.42 1.01L3 11v8c0 .55.45 1 1 1h1c.55 0 1-.45 1-1v-1h12v1c0 .55.45 1 1 1h1c.55 0 1-.45 1-1v-8l-2.08-5.99zM6.5 15c-.83 0-1.5-.67-1.5-1.5S5.67 12 6.5 12s1.5.67 1.5 1.5S7.33 15 6.5 15zm11 0c-.83 0-1.5-.67-1.5-1.5s.67-1.5 1.5-1.5 1.5.67 1.5 1.5-.67 1.5-1.5 1.5zM5 10l1.5-4.5h11L19 10H5z"/>
        </symbol>
        <symbol id="enhanced_encryption" viewBox="0 0 100 100">
          <title>enhanced_encryption</title>
          <path d="M0 0h24v24H0z"/><path d="M0 0h24v24H0z"/><path d="M18 8h-1V6c0-2.76-2.24-5-5-5S7 3.24 7 6v2H6c-1.1 0-2 .9-2 2v10c0 1.1.9 2 2 2h12c1.1 0 2-.9 2-2V10c0-1.1-.9-2-2-2zM8.9 6c0-1.71 1.39-3.1 3.1-3.1s3.1 1.39 3.1 3.1v2H8.9V6zM16 16h-3v3h-2v-3H8v-2h3v-3h2v3h3v2z"/>
        </symbol>
        <symbol id="event_available" viewBox="0 0 100 100">
          <title>event_available</title>
          <path d="M0 0h24v24H0z"/><path d="M16.53 11.06 15.47 10l-4.88 4.88-2.12-2.12-1.06 1.06L10.59 17l5.94-5.94zM19 3h-1V1h-2v2H8V1H6v2H5c-1.11 0-1.99.9-1.99 2L3 19a2 2 0 0 0 2 2h14c1.1 0 2-.9 2-2V5c0-1.1-.9-2-2-2zm0 16H5V8h14v11z"/>
        </symbol>
        <symbol id="event_busy" viewBox="0 0 100 100">
          <title>event_busy</title>
          <path d="M0 0h24v24H0z"/><path d="m9.31 17 2.44-2.44L14.19 17l1.06-1.06-2.44-2.44 2.44-2.44L14.19 10l-2.44 2.44L9.31 10l-1.06 1.06 2.44 2.44-2.44 2.44L9.31 17zM19 3h-1V1h-2v2H8V1H6v2H5c-1.11 0-1.99.9-1.99 2L3 19a2 2 0 0 0 2 2h14c1.1 0 2-.9 2-2V5c0-1.1-.9-2-2-2zm0 16H5V8h14v11z"/>
        </symbol>
        <symbol id="event_note" viewBox="0 0 100 100">
          <title>event_note</title>
          <path d="M0 0h24v24H0z"/><path d="M17 10H7v2h10v-2zm2-7h-1V1h-2v2H8V1H6v2H5c-1.11 0-1.99.9-1.99 2L3 19a2 2 0 0 0 2 2h14c1.1 0 2-.9 2-2V5c0-1.1-.9-2-2-2zm0 16H5V8h14v11zm-5-5H7v2h7v-2z"/>
        </symbol>
        <symbol id="folder_special" viewBox="0 0 100 100">
          <title>folder_special</title>
          <path d="M0 0h24v24H0V0z"/><path d="M20 6h-8l-2-2H4c-1.1 0-2 .9-2 2v12c0 1.1.9 2 2 2h16c1.1 0 2-.9 2-2V8c0-1.1-.9-2-2-2zm-2.06 11L15 15.28 12.06 17l.78-3.33-2.59-2.24 3.41-.29L15 8l1.34 3.14 3.41.29-2.59 2.24.78 3.33z"/>
        </symbol>
        <symbol id="imagesearch_roller" viewBox="0 0 100 100">
          <title>imagesearch_roller</title>
          <path d="M0 0h24v24H0z"/><path d="M20 2v6H6V6H4v4h10v5h2v8h-6v-8h2v-3H2V4h4V2"/>
        </symbol>
        <symbol id="live_tv" viewBox="0 0 100 100">
          <title>live_tv</title>
          <path d="M0 0h24v24H0V0z"/><path d="M21 6h-7.59l3.29-3.29L16 2l-4 4-4-4-.71.71L10.59 6H3a2 2 0 0 0-2 2v12c0 1.1.9 2 2 2h18c1.1 0 2-.9 2-2V8a2 2 0 0 0-2-2zm0 14H3V8h18v12zM9 10v8l7-4z"/>
        </symbol>
        <symbol id="mms" viewBox="0 0 100 100">
          <title>mms</title>
          <path d="M0 0h24v24H0z"/><path d="M20 2H4c-1.1 0-1.99.9-1.99 2L2 22l4-4h14c1.1 0 2-.9 2-2V4c0-1.1-.9-2-2-2zM5 14l3.5-4.5 2.5 3.01L14.5 8l4.5 6H5z"/>
        </symbol>
        <symbol id="more" viewBox="0 0 100 100">
          <title>more</title>
          <path d="M0 0h24v24H0z"/><path d="M22 3H7c-.69 0-1.23.35-1.59.88L0 12l5.41 8.11c.36.53.97.89 1.66.89H22c1.1 0 2-.9 2-2V5c0-1.1-.9-2-2-2zM9 13.5c-.83 0-1.5-.67-1.5-1.5s.67-1.5 1.5-1.5 1.5.67 1.5 1.5-.67 1.5-1.5 1.5zm5 0c-.83 0-1.5-.67-1.5-1.5s.67-1.5 1.5-1.5 1.5.67 1.5 1.5-.67 1.5-1.5 1.5zm5 0c-.83 0-1.5-.67-1.5-1.5s.67-1.5 1.5-1.5 1.5.67 1.5 1.5-.67 1.5-1.5 1.5z"/>
        </symbol>
        <symbol id="network_check" viewBox="0 0 100 100">
          <title>network_check</title>
          <path d="M0 0h24v24H0z"/><path d="M15.9 5c-.17 0-.32.09-.41.23l-.07.15-5.18 11.65c-.16.29-.26.61-.26.96 0 1.11.9 2.01 2.01 2.01.96 0 1.77-.68 1.96-1.59l.01-.03L16.4 5.5c0-.28-.22-.5-.5-.5zM1 9l2 2c2.88-2.88 6.79-4.08 10.53-3.62l1.19-2.68C9.89 3.84 4.74 5.27 1 9zm20 2 2-2a15.367 15.367 0 0 0-5.59-3.57l-.53 2.82c1.5.62 2.9 1.53 4.12 2.75zm-4 4 2-2c-.8-.8-1.7-1.42-2.66-1.89l-.55 2.92c.42.27.83.59 1.21.97zM5 13l2 2a7.1 7.1 0 0 1 4.03-2l1.28-2.88c-2.63-.08-5.3.87-7.31 2.88z"/>
        </symbol>
        <symbol id="network_locked" viewBox="0 0 100 100">
          <title>network_locked</title>
          <path d="M0 0h24v24H0zm0 0h24v24H0z"/><path d="M19.5 10c.17 0 .33.03.5.05V1L1 20h13v-3c0-.89.39-1.68 1-2.23v-.27c0-2.48 2.02-4.5 4.5-4.5zm2.5 6v-1.5a2.5 2.5 0 0 0-5 0V16c-.55 0-1 .45-1 1v4c0 .55.45 1 1 1h5c.55 0 1-.45 1-1v-4c0-.55-.45-1-1-1zm-1 0h-3v-1.5c0-.83.67-1.5 1.5-1.5s1.5.67 1.5 1.5V16z"/>
        </symbol>
        <symbol id="no_encryption" viewBox="0 0 100 100">
          <title>no_encryption</title>
          <path d="M0 0h24v24H0zm0 0h24v24H0zm0 0h24v24H0V0zm0 0h24v24H0V0z"/><path d="M21 21.78 4.22 5 3 6.22l2.04 2.04C4.42 8.6 4 9.25 4 10v10c0 1.1.9 2 2 2h12c.23 0 .45-.05.66-.12L19.78 23 21 21.78zM8.9 6c0-1.71 1.39-3.1 3.1-3.1s3.1 1.39 3.1 3.1v2H9.66L20 18.34V10c0-1.1-.9-2-2-2h-1V6c0-2.76-2.24-5-5-5-2.56 0-4.64 1.93-4.94 4.4L8.9 7.24V6z"/>
        </symbol>
        <symbol id="no_encryption_gmailerrorred" viewBox="0 0 100 100">
          <title>no_encryption_gmailerrorred</title>
          <path d="M0 0h24v24H0V0z"/><path d="M8.9 6c0-1.71 1.39-3.1 3.1-3.1s3.1 1.39 3.1 3.1v2h-4.27L20 17.17V10c0-1.1-.9-2-2-2h-1V6c0-2.76-2.24-5-5-5-2.21 0-4.07 1.45-4.73 3.44L8.9 6.07V6zM2.1 2.1.69 3.51 5.3 8.13C4.55 8.42 4 9.15 4 10v10c0 1.1.9 2 2 2h12c.34 0 .65-.09.93-.24l1.56 1.56 1.41-1.41L2.1 2.1zM12 17c-1.1 0-2-.9-2-2 0-.59.27-1.12.68-1.49l2.81 2.81c-.37.41-.9.68-1.49.68z"/>
        </symbol>
        <symbol id="ondemand_video" viewBox="0 0 100 100">
          <title>ondemand_video</title>
          <path d="M0 0h24v24H0V0z"/><path d="M21 3H3c-1.11 0-2 .89-2 2v12a2 2 0 0 0 2 2h5v2h8v-2h5c1.1 0 1.99-.9 1.99-2L23 5a2 2 0 0 0-2-2zm0 14H3V5h18v12zm-5-6-7 4V7z"/>
        </symbol>
        <symbol id="personal_video" viewBox="0 0 100 100">
          <title>personal_video</title>
          <path d="M0 0h24v24H0z"/><path d="M21 3H3c-1.11 0-2 .89-2 2v12a2 2 0 0 0 2 2h5v2h8v-2h5c1.1 0 1.99-.9 1.99-2L23 5a2 2 0 0 0-2-2zm0 14H3V5h18v12z"/>
        </symbol>
        <symbol id="phone_bluetooth_speaker" viewBox="0 0 100 100">
          <title>phone_bluetooth_speaker</title>
          <path d="M0 0h24v24H0z"/><path d="M14.71 9.5 17 7.21V11h.5l2.85-2.85L18.21 6l2.15-2.15L17.5 1H17v3.79L14.71 2.5l-.71.71L16.79 6 14 8.79l.71.71zM18 2.91l.94.94-.94.94V2.91zm0 4.3.94.94-.94.94V7.21zm2 8.29c-1.25 0-2.45-.2-3.57-.57a1.02 1.02 0 0 0-1.02.24l-2.2 2.2a15.045 15.045 0 0 1-6.59-6.59l2.2-2.21a.96.96 0 0 0 .25-1A11.36 11.36 0 0 1 8.5 4c0-.55-.45-1-1-1H4c-.55 0-1 .45-1 1 0 9.39 7.61 17 17 17 .55 0 1-.45 1-1v-3.5c0-.55-.45-1-1-1z"/>
        </symbol>
        <symbol id="phone_callback" viewBox="0 0 100 100">
          <title>phone_callback</title>
          <path d="M0 0h24v24H0z"/><path d="M6.62 10.79c1.44 2.83 3.76 5.14 6.59 6.59l2.2-2.2c.27-.27.67-.36 1.02-.24 1.12.37 2.33.57 3.57.57.55 0 1 .45 1 1V20c0 .55-.45 1-1 1-9.39 0-17-7.61-17-17 0-.55.45-1 1-1h3.5c.55 0 1 .45 1 1 0 1.25.2 2.45.57 3.57.11.35.03.74-.25 1.02l-2.2 2.2zm13.54-7.1-.71-.7L13 9.29V5h-1v6h6v-1h-4.15z"/>
        </symbol>
        <symbol id="phone_forwarded" viewBox="0 0 100 100">
          <title>phone_forwarded</title>
          <path d="M0 0h24v24H0z"/><path d="m18 11 5-5-5-5v3h-4v4h4v3zm2 4.5c-1.25 0-2.45-.2-3.57-.57a1.02 1.02 0 0 0-1.02.24l-2.2 2.2a15.045 15.045 0 0 1-6.59-6.59l2.2-2.21a.96.96 0 0 0 .25-1A11.36 11.36 0 0 1 8.5 4c0-.55-.45-1-1-1H4c-.55 0-1 .45-1 1 0 9.39 7.61 17 17 17 .55 0 1-.45 1-1v-3.5c0-.55-.45-1-1-1z"/>
        </symbol>
        <symbol id="phone_in_talk" viewBox="0 0 100 100">
          <title>phone_in_talk</title>
          <path d="M0 0h24v24H0z"/><path d="M20 15.5c-1.25 0-2.45-.2-3.57-.57a1.02 1.02 0 0 0-1.02.24l-2.2 2.2a15.045 15.045 0 0 1-6.59-6.59l2.2-2.21a.96.96 0 0 0 .25-1A11.36 11.36 0 0 1 8.5 4c0-.55-.45-1-1-1H4c-.55 0-1 .45-1 1 0 9.39 7.61 17 17 17 .55 0 1-.45 1-1v-3.5c0-.55-.45-1-1-1zM19 12h2a9 9 0 0 0-9-9v2c3.87 0 7 3.13 7 7zm-4 0h2c0-2.76-2.24-5-5-5v2c1.66 0 3 1.34 3 3z"/>
        </symbol>
        <symbol id="phone_locked" viewBox="0 0 100 100">
          <title>phone_locked</title>
          <path d="M0 0h24v24H0z"/><path d="M20 15.5c-1.25 0-2.45-.2-3.57-.57a1.02 1.02 0 0 0-1.02.24l-2.2 2.2a15.045 15.045 0 0 1-6.59-6.59l2.2-2.21a.96.96 0 0 0 .25-1A11.36 11.36 0 0 1 8.5 4c0-.55-.45-1-1-1H4c-.55 0-1 .45-1 1 0 9.39 7.61 17 17 17 .55 0 1-.45 1-1v-3.5c0-.55-.45-1-1-1zM20 4v-.5a2.5 2.5 0 0 0-5 0V4c-.55 0-1 .45-1 1v4c0 .55.45 1 1 1h5c.55 0 1-.45 1-1V5c0-.55-.45-1-1-1zm-.8 0h-3.4v-.5c0-.94.76-1.7 1.7-1.7s1.7.76 1.7 1.7V4z"/>
        </symbol>
        <symbol id="phone_missed" viewBox="0 0 100 100">
          <title>phone_missed</title>
          <path d="M0 0h24v24H0z"/><path d="M6.5 5.5 12 11l7-7-1-1-6 6-4.5-4.5H11V3H5v6h1.5V5.5zm17.21 11.17A16.971 16.971 0 0 0 12 12C7.46 12 3.34 13.78.29 16.67c-.18.18-.29.43-.29.71s.11.53.29.71l2.48 2.48c.18.18.43.29.71.29.27 0 .52-.11.7-.28.79-.74 1.69-1.36 2.66-1.85.33-.16.56-.5.56-.9v-3.1c1.45-.48 3-.73 4.6-.73 1.6 0 3.15.25 4.6.72v3.1c0 .39.23.74.56.9.98.49 1.87 1.12 2.67 1.85.18.18.43.28.7.28.28 0 .53-.11.71-.29l2.48-2.48c.18-.18.29-.43.29-.71s-.12-.52-.3-.7z"/>
        </symbol>
        <symbol id="phone_paused" viewBox="0 0 100 100">
          <title>phone_paused</title>
          <path d="M0 0h24v24H0z"/><path d="M17 3h-2v7h2V3zm3 12.5c-1.25 0-2.45-.2-3.57-.57a1.02 1.02 0 0 0-1.02.24l-2.2 2.2a15.045 15.045 0 0 1-6.59-6.59l2.2-2.21a.96.96 0 0 0 .25-1A11.36 11.36 0 0 1 8.5 4c0-.55-.45-1-1-1H4c-.55 0-1 .45-1 1 0 9.39 7.61 17 17 17 .55 0 1-.45 1-1v-3.5c0-.55-.45-1-1-1zM19 3v7h2V3h-2z"/>
        </symbol>
        <symbol id="power" viewBox="0 0 100 100">
          <title>power</title>
          <path d="M0 0h24v24H0z"/><path d="M16.01 7 16 3h-2v4h-4V3H8v4h-.01C7 6.99 6 7.99 6 8.99v5.49L9.5 18v3h5v-3l3.5-3.51v-5.5c0-1-1-2-1.99-1.99z"/>
        </symbol>
        <symbol id="power_off" viewBox="0 0 100 100">
          <title>power_off</title>
          <path d="M0 0h24v24H0V0z"/><path d="M18 14.49V9c0-1-1.01-2.01-2-2V3h-2v4h-4V3H8v2.48l9.51 9.5.49-.49zm-1.76 1.77L7.2 7.2l-.01.01L3.98 4 2.71 5.25l3.36 3.36C6.04 8.74 6 8.87 6 9v5.48L9.5 18v3h5v-3l.48-.48L19.45 22l1.26-1.28-4.47-4.46z"/>
        </symbol>
        <symbol id="priority_high" viewBox="0 0 100 100">
          <title>priority_high</title>
          <path d="M0 0h24v24H0z"/><circle cx="12" cy="19" r="2"/><path d="M10 3h4v12h-4z"/>
        </symbol>
        <symbol id="running_with_errors" viewBox="0 0 100 100">
          <title>running_with_errors</title>
          <path d="M0 0h24v24H0z"/><path d="M22 10v8h-2v-8h2zm-2 10v2h2v-2h-2zm-2-2.71A7.99 7.99 0 0 1 12 20c-4.41 0-8-3.59-8-8s3.59-8 8-8v9l7.55-7.55A9.965 9.965 0 0 0 12 2C6.48 2 2 6.48 2 12s4.48 10 10 10c2.25 0 4.33-.74 6-2v-2.71z"/>
        </symbol>
        <symbol id="sd_card" viewBox="0 0 100 100">
          <title>sd_card</title>
          <path d="M0 0h24v24H0z"/><path d="M18 2h-8L4.02 8 4 20c0 1.1.9 2 2 2h12c1.1 0 2-.9 2-2V4c0-1.1-.9-2-2-2zm-6 6h-2V4h2v4zm3 0h-2V4h2v4zm3 0h-2V4h2v4z"/>
        </symbol>
        <symbol id="sd_card_alert" viewBox="0 0 100 100">
          <title>sd_card_alert</title>
          <path d="M0 0h24v24H0V0z"/><path d="M18 2h-8L4.02 8 4 20c0 1.1.9 2 2 2h12c1.1 0 2-.9 2-2V4c0-1.1-.9-2-2-2zm-5 15h-2v-2h2v2zm0-4h-2V8h2v5z"/>
        </symbol>
        <symbol id="sim_card_alert" viewBox="0 0 100 100">
          <title>sim_card_alert</title>
          <path d="M0 0h24v24H0z"/><path d="M18 2h-8L4.02 8 4 20c0 1.1.9 2 2 2h12c1.1 0 2-.9 2-2V4c0-1.1-.9-2-2-2zm-5 15h-2v-2h2v2zm0-4h-2V8h2v5z"/>
        </symbol>
        <symbol id="sms" viewBox="0 0 100 100">
          <title>sms</title>
          <path d="M0 0h24v24H0z"/><path d="M20 2H4c-1.1 0-1.99.9-1.99 2L2 22l4-4h14c1.1 0 2-.9 2-2V4c0-1.1-.9-2-2-2zM9 11H7V9h2v2zm4 0h-2V9h2v2zm4 0h-2V9h2v2z"/>
        </symbol>
        <symbol id="sms_failed" viewBox="0 0 100 100">
          <title>sms_failed</title>
          <path d="M0 0h24v24H0z"/><path d="M20 2H4c-1.1 0-1.99.9-1.99 2L2 22l4-4h14c1.1 0 2-.9 2-2V4c0-1.1-.9-2-2-2zm-7 12h-2v-2h2v2zm0-4h-2V6h2v4z"/>
        </symbol>
        <symbol id="support_agent" viewBox="0 0 100 100">
          <title>support_agent</title>
          <path d="M0 0h24v24H0z"/><path d="M21 12.22C21 6.73 16.74 3 12 3c-4.69 0-9 3.65-9 9.28-.6.34-1 .98-1 1.72v2c0 1.1.9 2 2 2h1v-6.1c0-3.87 3.13-7 7-7s7 3.13 7 7V19h-8v2h8c1.1 0 2-.9 2-2v-1.22c.59-.31 1-.92 1-1.64v-2.3c0-.7-.41-1.31-1-1.62z"/><circle cx="9" cy="13" r="1"/><circle cx="15" cy="13" r="1"/><path d="M18 11.03A6.04 6.04 0 0 0 12.05 6c-3.03 0-6.29 2.51-6.03 6.45a8.075 8.075 0 0 0 4.86-5.89c1.31 2.63 4 4.44 7.12 4.47z"/>
        </symbol>
        <symbol id="sync" viewBox="0 0 100 100">
          <title>sync</title>
          <path d="M0 0h24v24H0z"/><path d="M12 4V1L8 5l4 4V6c3.31 0 6 2.69 6 6 0 1.01-.25 1.97-.7 2.8l1.46 1.46A7.93 7.93 0 0 0 20 12c0-4.42-3.58-8-8-8zm0 14c-3.31 0-6-2.69-6-6 0-1.01.25-1.97.7-2.8L5.24 7.74A7.93 7.93 0 0 0 4 12c0 4.42 3.58 8 8 8v3l4-4-4-4v3z"/>
        </symbol>
        <symbol id="sync_disabled" viewBox="0 0 100 100">
          <title>sync_disabled</title>
          <path d="M0 0h24v24H0zm0 0h24v24H0z"/><path d="M10 6.35V4.26c-.8.21-1.55.54-2.23.96l1.46 1.46c.25-.12.5-.24.77-.33zm-7.14-.94 2.36 2.36a7.925 7.925 0 0 0 1.14 9.87L4 20h6v-6l-2.24 2.24A6.003 6.003 0 0 1 6 12c0-1 .25-1.94.68-2.77l8.08 8.08c-.25.13-.5.25-.77.34v2.09c.8-.21 1.55-.54 2.23-.96l2.36 2.36 1.27-1.27L4.14 4.14 2.86 5.41zM20 4h-6v6l2.24-2.24A6.003 6.003 0 0 1 18 12c0 1-.25 1.94-.68 2.77l1.46 1.46a7.925 7.925 0 0 0-1.14-9.87L20 4z"/>
        </symbol>
        <symbol id="sync_problem" viewBox="0 0 100 100">
          <title>sync_problem</title>
          <path d="M0 0h24v24H0z"/><path d="M3 12c0 2.21.91 4.2 2.36 5.64L3 20h6v-6l-2.24 2.24A6.003 6.003 0 0 1 5 12a5.99 5.99 0 0 1 4-5.65V4.26C5.55 5.15 3 8.27 3 12zm8 5h2v-2h-2v2zM21 4h-6v6l2.24-2.24A6.003 6.003 0 0 1 19 12a5.99 5.99 0 0 1-4 5.65v2.09c3.45-.89 6-4.01 6-7.74 0-2.21-.91-4.2-2.36-5.64L21 4zm-10 9h2V7h-2v6z"/>
        </symbol>
        <symbol id="system_update" viewBox="0 0 100 100">
          <title>system_update</title>
          <path d="M0 0h24v24H0z"/><path d="M17 1.01 7 1c-1.1 0-2 .9-2 2v18c0 1.1.9 2 2 2h10c1.1 0 2-.9 2-2V3c0-1.1-.9-1.99-2-1.99zM17 19H7V5h10v14zm-1-6h-3V8h-2v5H8l4 4 4-4z"/>
        </symbol>
        <symbol id="tap_and_play" viewBox="0 0 100 100">
          <title>tap_and_play</title>
          <path d="M0 0h24v24H0z"/><path d="M2 16v2c2.76 0 5 2.24 5 5h2c0-3.87-3.13-7-7-7zm0 4v3h3c0-1.66-1.34-3-3-3zm0-8v2a9 9 0 0 1 9 9h2c0-6.08-4.92-11-11-11zM17 1.01 7 1c-1.1 0-2 .9-2 2v7.37c.69.16 1.36.37 2 .64V5h10v13h-3.03c.52 1.25.84 2.59.95 4H17c1.1 0 2-.9 2-2V3c0-1.1-.9-1.99-2-1.99z"/>
        </symbol>
        <symbol id="time_to_leave" viewBox="0 0 100 100">
          <title>time_to_leave</title>
          <path d="M0 0h24v24H0z"/><path d="M18.92 5.01C18.72 4.42 18.16 4 17.5 4h-11c-.66 0-1.21.42-1.42 1.01L3 11v8c0 .55.45 1 1 1h1c.55 0 1-.45 1-1v-1h12v1c0 .55.45 1 1 1h1c.55 0 1-.45 1-1v-8l-2.08-5.99zM6.5 15c-.83 0-1.5-.67-1.5-1.5S5.67 12 6.5 12s1.5.67 1.5 1.5S7.33 15 6.5 15zm11 0c-.83 0-1.5-.67-1.5-1.5s.67-1.5 1.5-1.5 1.5.67 1.5 1.5-.67 1.5-1.5 1.5zM5 10l1.5-4.5h11L19 10H5z"/>
        </symbol>
        <symbol id="tv_off" viewBox="0 0 100 100">
          <title>tv_off</title>
          <path d="M0 0h24v24H0V0z"/><path d="m1 3.54 1.53 1.53C1.65 5.28 1 6.06 1 7v12c0 1.1.9 2 2 2h15.46l2 2 1.26-1.27L2.27 2.27 1 3.54zM3 19V7h1.46l12 12H3zM21 5h-7.58l3.29-3.3L16 1l-4 4-4-4-.7.7L10.58 5H7.52l2 2H21v11.48l1.65 1.65c.22-.32.35-.71.35-1.13V7c0-1.11-.89-2-2-2z"/>
        </symbol>
        <symbol id="vibration" viewBox="0 0 100 100">
          <title>vibration</title>
          <path d="M0 0h24v24H0z"/><path d="M0 15h2V9H0v6zm3 2h2V7H3v10zm19-8v6h2V9h-2zm-3 8h2V7h-2v10zM16.5 3h-9C6.67 3 6 3.67 6 4.5v15c0 .83.67 1.5 1.5 1.5h9c.83 0 1.5-.67 1.5-1.5v-15c0-.83-.67-1.5-1.5-1.5zM16 19H8V5h8v14z"/>
        </symbol>
        <symbol id="voice_chat" viewBox="0 0 100 100">
          <title>voice_chat</title>
          <path d="M0 0h24v24H0z"/><path d="M20 2H4c-1.1 0-1.99.9-1.99 2L2 22l4-4h14c1.1 0 2-.9 2-2V4c0-1.1-.9-2-2-2zm-2 12-4-3.2V14H6V6h8v3.2L18 6v8z"/>
        </symbol>
        <symbol id="vpn_lock" viewBox="0 0 100 100">
          <title>vpn_lock</title>
          <path d="M0 0h24v24H0z"/><path d="M22 4v-.5a2.5 2.5 0 0 0-5 0V4c-.55 0-1 .45-1 1v4c0 .55.45 1 1 1h5c.55 0 1-.45 1-1V5c0-.55-.45-1-1-1zm-.8 0h-3.4v-.5c0-.94.76-1.7 1.7-1.7s1.7.76 1.7 1.7V4zm-2.28 8c.04.33.08.66.08 1 0 2.08-.8 3.97-2.1 5.39-.26-.81-1-1.39-1.9-1.39h-1v-3c0-.55-.45-1-1-1H7v-2h2c.55 0 1-.45 1-1V8h2c1.1 0 2-.9 2-2V3.46c-.95-.3-1.95-.46-3-.46C5.48 3 1 7.48 1 13s4.48 10 10 10 10-4.48 10-10c0-.34-.02-.67-.05-1h-2.03zM10 20.93c-3.95-.49-7-3.85-7-7.93 0-.62.08-1.21.21-1.79L8 16v1c0 1.1.9 2 2 2v1.93z"/>
        </symbol>
        <symbol id="wc" viewBox="0 0 100 100">
          <title>wc</title>
          <path d="M0 0h24v24H0V0z"/><path d="M5.5 22v-7.5H4V9c0-1.1.9-2 2-2h3c1.1 0 2 .9 2 2v5.5H9.5V22h-4zM18 22v-6h3l-2.54-7.63A2.01 2.01 0 0 0 16.56 7h-.12a2 2 0 0 0-1.9 1.37L12 16h3v6h3zM7.5 6c1.11 0 2-.89 2-2s-.89-2-2-2-2 .89-2 2 .89 2 2 2zm9 0c1.11 0 2-.89 2-2s-.89-2-2-2-2 .89-2 2 .89 2 2 2z"/>
        </symbol>
        <symbol id="wifi" viewBox="0 0 100 100">
          <title>wifi</title>
          <path d="M0 0h24v24H0z"/><path d="m1 9 2 2c4.97-4.97 13.03-4.97 18 0l2-2C16.93 2.93 7.08 2.93 1 9zm8 8 3 3 3-3a4.237 4.237 0 0 0-6 0zm-4-4 2 2a7.074 7.074 0 0 1 10 0l2-2C15.14 9.14 8.87 9.14 5 13z"/>
        </symbol>
        <symbol id="wifi_off" viewBox="0 0 100 100">
          <title>wifi_off</title>
          <path d="M24 .01c0-.01 0-.01 0 0L0 0v24h24V.01zM0 0h24v24H0V0zm0 0h24v24H0V0z"/><path d="M22.99 9C19.15 5.16 13.8 3.76 8.84 4.78l2.52 2.52c3.47-.17 6.99 1.05 9.63 3.7l2-2zm-4 4a9.793 9.793 0 0 0-4.49-2.56l3.53 3.53.96-.97zM2 3.05 5.07 6.1C3.6 6.82 2.22 7.78 1 9l1.99 2c1.24-1.24 2.67-2.16 4.2-2.77l2.24 2.24A9.684 9.684 0 0 0 5 13v.01L6.99 15a7.042 7.042 0 0 1 4.92-2.06L18.98 20l1.27-1.26L3.29 1.79 2 3.05zM9 17l3 3 3-3a4.237 4.237 0 0 0-6 0z"/>
        </symbol>
    </defs>
</svg>
