<svg
   xmlns="http://www.w3.org/2000/svg"
   xmlns:rdf="http://www.w3.org/1999/02/22-rdf-syntax-ns#"
   xmlns:dc="http://purl.org/dc/elements/1.1/"
   xmlns:cc="http://creativecommons.org/ns#"
   width="256"
   height="256"
   viewBox="0 0 612 396"
   version="1.1"
   style="fill:black;stroke:none">
   <title>Internet Symbols</title>
   <desc>A set of familiar internet symbols ported from Entypo's Social Extension SVG Set</desc>
  <metadata>
    <rdf:RDF>
      <cc:Work rdf:about="">
        <dc:format>image/svg+xml</dc:format>
        <dc:type rdf:resource="http://purl.org/dc/dcmitype/StillImage" />
        <dc:title>Internet Symbols</dc:title>
        <dc:date>2016-07-13</dc:date>
        <dc:creator>
          <cc:Agent>
            <dc:title>Jacques Laroche</dc:title>
          </cc:Agent>
        </dc:creator>
        <dc:rights>
          <cc:Agent>
            <dc:title>Public Domain</dc:title>
          </cc:Agent>
        </dc:rights>
        <dc:language>English</dc:language>

        <dc:source>http://www.entypo.com/</dc:source>
        <dc:description>Symbols ported from Entypo's Social Extension SVGs</dc:description>
      </cc:Work>
    </rdf:RDF>
  </metadata>

  <defs>
    <symbol id="apple">
      <title>Apple</title>
      <path fill-rule="evenodd" clip-rule="evenodd" d="M17.5640259,13.8623047
      	c-0.4133301,0.9155273-0.6115723,1.3251343-1.1437988,2.1346436c-0.7424927,1.1303711-1.7894897,2.5380249-3.086853,2.5500488
      	c-1.1524048,0.0109253-1.4483032-0.749939-3.0129395-0.741333c-1.5640259,0.008606-1.8909302,0.755127-3.0438843,0.7442017
      	c-1.296814-0.0120239-2.2891235-1.2833252-3.0321655-2.4136963c-2.0770874-3.1607666-2.2941895-6.8709106-1.0131836-8.8428955
      	c0.9106445-1.4013062,2.3466187-2.2217407,3.6970215-2.2217407c1.375,0,2.239502,0.7539673,3.3761597,0.7539673
      	c1.1028442,0,1.7749023-0.755127,3.3641357-0.755127c1.201416,0,2.4744263,0.6542969,3.3816528,1.7846069
      	C14.0778809,8.4837646,14.5608521,12.7279663,17.5640259,13.8623047z M12.4625244,3.8076782
      	c0.5775146-0.741333,1.0163574-1.7880859,0.8571167-2.857666c-0.9436035,0.0653076-2.0470581,0.6651611-2.6912842,1.4477539
      	C10.0437012,3.107605,9.56073,4.1605835,9.7486572,5.1849365C10.7787476,5.2164917,11.8443604,4.6011963,12.4625244,3.8076782z"/>
    </symbol>

    <symbol id="baidu">
      <title>Baidu</title>
      <path d="M17.4116364,6.9370399c-0.3587151-0.2830696-0.923996-0.4004283-1.4627256-0.3652954
      	c-0.4163361,0.0265503-0.7609177,0.0346184-1.0045052,0.1825905c-1.1165419,0.6770897-1.2169638,4.3529868,0.1820755,4.9340606
      	C18.100399,12.9238987,19.1828365,8.3379107,17.4116364,6.9370399z M12.933279,10.7750425
      	c-0.9637632-1.1185446-1.6411963-2.6815205-3.5630016-2.375906c-1.7067132,0.2714539-1.9238648,1.6706648-2.8335552,2.6501064
      	c-1.0796924,1.1637497-3.1049521,2.0173635-3.5640316,3.8376598c-0.3346822,1.3286009,0.1159286,2.8923788,0.9135242,3.4726515
      	c1.5661802,1.1375408,4.473722-0.1246262,6.5796628,0.0911503c1.2606802,0.1290321,2.2246733,0.571804,3.197649,0.5484009
      	c2.2625532-0.0532722,4.0896587-1.669405,3.1077557-4.294507C16.2904587,13.418684,14.1704426,12.21099,12.933279,10.7750425z
      	 M12.6592512,6.8458877c1.1333075,0.0318718,2.3012905-1.2649717,2.3760777-2.467402
      	c0.0976181-1.5697851-0.929431-3.1436331-2.4671726-2.7416024c-0.9137535,0.2387236-1.66397,1.4105408-1.7361822,2.5593553
      	C10.7485466,5.5281014,11.4487524,6.8116126,12.6592512,6.8458877z M8.2726755,6.4801922
      	C9.4498711,6.321291,9.9402504,4.9083467,9.7355728,3.2816844c-0.1689148-1.338729-0.8955564-2.6371751-2.4675736-2.192801
      	C5.1026068,1.7001691,5.4477601,6.8620238,8.2726755,6.4801922z M4.1614451,10.5923948
      	c2.5823007-0.3854933,1.9797125-5.9385071-0.8224294-5.2997556C0.9296925,5.8418407,1.2518435,11.0266409,4.1614451,10.5923948z"/>
    </symbol>

    <symbol id="basecamp">
      <title>Basecamp</title>
      <path d="M10,2C5.327,2,0.7,8.481,0.7,14.422C0.7,15.799,5.234,18,10,18s9.3-2.201,9.3-3.578C19.3,8.481,14.673,2,10,2z
      	 M10.006,15.615c-5.198,0-6.673-2.068-6.673-2.722c0-1.287,2.13-4.485,2.906-4.485c0.719,0,1.542,1.811,2.314,1.811
      	c1.241,0,2.567-3.954,3.579-3.954s4.601,5.178,4.601,6.749C16.733,13.285,15.649,15.615,10.006,15.615z"/>
    </symbol>

    <symbol id="behance">
      <title>Behance</title>
      <path d="M8.072,9.301c0,0,1.892-0.147,1.892-2.459c0-2.315-1.548-3.441-3.51-3.441H0v12.926h6.454c0,0,3.941,0.129,3.941-3.816
      	C10.394,12.51,10.566,9.301,8.072,9.301z M2.844,5.697h3.61c0,0,0.878,0,0.878,1.344c0,1.346-0.516,1.541-1.102,1.541H2.844V5.697z
      	 M6.271,14.029H2.844v-3.455h3.61c0,0,1.308-0.018,1.308,1.775C7.762,13.861,6.785,14.018,6.271,14.029z M15.649,6.688
      	c-4.771,0-4.767,4.967-4.767,4.967s-0.326,4.941,4.767,4.941c0,0,4.243,0.254,4.243-3.437h-2.182c0,0,0.072,1.391-1.988,1.391
      	c0,0-2.184,0.152-2.184-2.25h6.423C19.962,12.299,20.67,6.688,15.649,6.688z M17.59,10.574h-4.074c0,0,0.266-1.992,2.182-1.992
      	S17.59,10.574,17.59,10.574z M18.097,4.16H12.98v1.594h5.117V4.16z"/>
    </symbol>

    <symbol id="creative_cloud">
      <title>Adobe Creative Cloud</title>
      <path d="M12.6,3c-1.966,0-3.74,0.813-5.012,2.119C7.204,5.041,6.807,5,6.4,5c-3.314,0-6,2.686-6,6s2.686,6,6,6h6.2
      	c3.866,0,7-3.134,7-7C19.6,6.134,16.466,3,12.6,3z M6.4,15.728c-1.263,0-2.45-0.492-3.344-1.385C2.164,13.45,1.672,12.262,1.672,11
      	s0.492-2.45,1.385-3.343C3.95,6.764,5.137,6.272,6.4,6.272s2.45,0.492,3.344,1.385l1.874,1.875c0.273,0.273,0.273,0.716,0,0.99
      	c-0.274,0.274-0.718,0.273-0.99,0L8.754,8.646c-1.258-1.256-3.449-1.256-4.707,0C3.418,9.276,3.072,10.111,3.072,11
      	s0.346,1.724,0.975,2.354c0.785,0.784,1.933,1.078,2.991,0.884c0.324,0.424,0.689,0.815,1.1,1.155
      	C7.591,15.609,7.005,15.728,6.4,15.728z M16.689,14.089c-1.093,1.092-2.545,1.694-4.089,1.694c-1.545,0-2.997-0.602-4.09-1.694
      	L5.801,11.38c-0.273-0.273-0.273-0.717,0-0.99s0.717-0.273,0.99,0l2.709,2.709c0.828,0.828,1.929,1.284,3.1,1.284
      	s2.271-0.456,3.099-1.284S16.983,11.17,16.983,10s-0.456-2.271-1.284-3.099S13.771,5.617,12.6,5.617
      	c-0.873,0-1.707,0.255-2.418,0.727C9.801,6.035,9.38,5.775,8.931,5.565c1.035-0.858,2.309-1.349,3.67-1.349
      	c1.544,0,2.996,0.602,4.089,1.694c1.093,1.093,1.694,2.545,1.694,4.089S17.782,12.997,16.689,14.089z"/>
    </symbol>

    <symbol id="dribble">
      <title>Dribble</title>
      <path d="M9.565,7.421C8.207,5.007,6.754,3.038,6.648,2.893C4.457,3.929,2.822,5.948,2.311,8.38C2.517,8.384,5.793,8.423,9.565,7.421
      	z M10.543,10.061c0.102-0.033,0.206-0.064,0.309-0.094c-0.197-0.447-0.412-0.895-0.637-1.336C6.169,9.843,2.287,9.755,2.15,9.751
      	c-0.003,0.084-0.007,0.166-0.007,0.25c0,2.019,0.763,3.861,2.016,5.252l-0.005-0.006C4.154,15.247,6.304,11.433,10.543,10.061z
      	 M5.171,16.194V16.19c-0.058-0.045-0.12-0.086-0.178-0.135C5.099,16.14,5.171,16.194,5.171,16.194z M8.118,2.372
      	C8.111,2.374,8.103,2.376,8.103,2.376c0.006-0.002,0.014-0.002,0.014-0.002L8.118,2.372z M15.189,4.104
      	C13.805,2.886,11.99,2.143,10,2.143c-0.639,0-1.258,0.078-1.852,0.221c0.12,0.16,1.595,2.119,2.938,4.584
      	C14.048,5.839,15.167,4.136,15.189,4.104z M10,19.2c-5.08,0-9.199-4.119-9.199-9.199C0.8,4.919,4.919,0.8,10,0.8
      	c5.082,0,9.2,4.119,9.2,9.201C19.2,15.081,15.082,19.2,10,19.2z M11.336,11.286c-4.611,1.607-6.134,4.838-6.165,4.904
      	c1.334,1.041,3.006,1.666,4.828,1.666c1.088,0,2.125-0.221,3.067-0.621c-0.116-0.689-0.573-3.096-1.679-5.967
      	C11.371,11.274,11.354,11.28,11.336,11.286z M11.69,8.12c0.184,0.373,0.358,0.754,0.523,1.139c0.059,0.135,0.114,0.272,0.17,0.406
      	c2.713-0.342,5.385,0.238,5.473,0.256c-0.019-1.863-0.686-3.572-1.787-4.912C16.051,5.032,14.79,6.852,11.69,8.12z M12.861,10.905
      	c1.031,2.836,1.449,5.142,1.529,5.611c1.764-1.191,3.018-3.08,3.367-5.27C17.601,11.196,15.401,10.499,12.861,10.905z"/>
    </symbol>

    <symbol id="dribble_circle">
      <title>Dribble (circle)</title>
      <path d="M10.26,9.982c0.033-0.012,0.068-0.021,0.103-0.031c-0.083-0.185-0.175-0.377-0.279-0.584
      	c-1.88,0.557-3.68,0.562-4.001,0.557C6.08,9.949,6.08,9.975,6.08,10c0,0.945,0.34,1.853,0.958,2.566
      	C7.244,12.234,8.336,10.605,10.26,9.982z M7.623,13.113C8.312,13.641,9.135,13.92,10,13.92c0.517,0,1.019-0.1,1.494-0.295
      	c-0.066-0.381-0.295-1.541-0.822-2.922C8.551,11.453,7.75,12.865,7.623,13.113z M12.555,7.027C11.844,6.416,10.938,6.08,10,6.08
      	c-0.284,0-0.569,0.031-0.85,0.094c0.205,0.275,0.832,1.146,1.421,2.223C11.854,7.904,12.434,7.193,12.555,7.027z M9.705,8.664
      	C9.097,7.592,8.464,6.709,8.29,6.473C7.223,6.99,6.438,7.979,6.177,9.131h0.017C6.6,9.131,8.043,9.098,9.705,8.664z M11.514,10.496
      	c0.465,1.293,0.679,2.367,0.74,2.711c0.852-0.6,1.434-1.521,1.609-2.543c-0.174-0.053-0.802-0.221-1.592-0.221
      	C12.013,10.443,11.758,10.461,11.514,10.496z M10,0.4c-5.302,0-9.6,4.298-9.6,9.6s4.298,9.6,9.6,9.6s9.6-4.298,9.6-9.6
      	S15.302,0.4,10,0.4z M10,14.697c-2.592,0-4.699-2.107-4.699-4.697c0-2.592,2.107-4.699,4.699-4.699c2.591,0,4.698,2.108,4.698,4.699
      	C14.698,12.59,12.591,14.697,10,14.697z M10.922,9.074c0.087,0.18,0.168,0.357,0.242,0.531c0.023,0.057,0.048,0.113,0.071,0.17
      	c0.277-0.033,0.573-0.049,0.882-0.049c0.854,0,1.563,0.125,1.801,0.172c-0.022-0.85-0.323-1.676-0.852-2.34
      	C12.906,7.764,12.248,8.521,10.922,9.074z"/>
    </symbol>

    <symbol id="dropbox">
      <title>Dropbox</title>
      <path d="M6.109,0.902L0.4,4.457l3.911,3.279L10,4.043L6.109,0.902z M13.452,15.992c-0.102,0-0.203-0.033-0.285-0.102L10,13.262
      	l-3.167,2.629c-0.082,0.068-0.184,0.102-0.285,0.102c-0.085,0-0.17-0.023-0.244-0.072l-2.346-1.533v0.904L10,19.098l6.042-3.807
      	v-0.904l-2.346,1.533C13.622,15.969,13.537,15.992,13.452,15.992z M19.6,4.457l-5.71-3.555L10,4.043l5.688,3.693L19.6,4.457z
      	 M10,11.291l3.528,2.928l5.641-3.688l-3.481-2.795L10,11.291z M6.472,14.219L10,11.291L4.311,7.736l-3.48,2.795L6.472,14.219z"/>
    </symbol>

    <symbol id="evernote">
      <title>Evernote</title>
      <path d="M17.3,4.3c0-1.2-1.7-1.3-1.7-1.3l-4.1-0.3c0,0-0.1-1.1-0.9-1.5C9.8,0.9,8.9,1,8.3,1C7.6,1,7.5,1.9,7.5,2.6
      	c0,0.8,0,1.7,0,2.2c0,1-0.4,1.4-1.6,1.4H3.6c-0.6,0-1.1,0.1-1.1,0.6c0,0.5,0.8,5,1.8,6c0.6,0.6,4.3,1,5.1,1s0.5-2.3,0.7-2.3
      	s0.5,1.3,1.7,1.6c1.2,0.3,2.9,0.2,3,1.1c0.1,1.2,0.2,2.6-0.5,2.7l-1.7,0.1c-1.2-0.1-0.9-1.4-0.3-1.4c0.5,0,0.8,0,0.8,0l0.1-1.4
      	c0,0-2.7-0.3-2.8,1.5c-0.1,1.7,0.2,2.4,0.4,2.6c0.2,0.2,0.6,0.5,3.9,0.5C19,19,17.3,5.5,17.3,4.3z M15.4,10.3
      	C15.3,10.5,14.6,10,14,10c-0.6,0-1.3,0.3-1.5,0.1c-0.2-0.2,0.1-2,1.3-2S15.6,10.1,15.4,10.3z M5.3,4.6c-0.5,0-2.9,0-2.9,0l3.5-3.4
      	c0,0-0.1,2.8-0.1,3C5.8,4.4,5.7,4.6,5.3,4.6z"/>
    </symbol>

    <symbol id="facebook">
      <title>Facebook</title>
      <path d="M17,1H3C1.9,1,1,1.9,1,3v14c0,1.101,0.9,2,2,2h7v-7H8V9.525h2V7.475c0-2.164,1.212-3.684,3.766-3.684l1.803,0.002v2.605
      	h-1.197C13.378,6.398,13,7.144,13,7.836v1.69h2.568L15,12h-2v7h4c1.1,0,2-0.899,2-2V3C19,1.9,18.1,1,17,1z"/>
    </symbol>

    <symbol id="facebook_circle">
      <title>Facebook (circle)</title>
      <path d="M10,0.4c-5.302,0-9.6,4.298-9.6,9.6s4.298,9.6,9.6,9.6s9.6-4.298,9.6-9.6S15.302,0.4,10,0.4z M12.274,7.034h-1.443
      	c-0.171,0-0.361,0.225-0.361,0.524V8.6h1.805l-0.273,1.486H10.47v4.461H8.767v-4.461H7.222V8.6h1.545V7.726
      	c0-1.254,0.87-2.273,2.064-2.273h1.443V7.034z"/>
    </symbol>

    <symbol id="flattr">
      <title>Flattr</title>
      <path d="M5.598,8.541c0-1.637,0.434-2.678,1.889-2.912c0.508-0.1,1.566-0.064,2.239-0.064v2.5c0,0.024,0.003,0.064,0.009,0.084
      	C9.762,8.25,9.854,8.324,9.963,8.324c0.061,0,0.118-0.031,0.178-0.09L16.377,2H12.19H7.548C3.874,2,2,4.115,2,8.066v8.287
      	l3.598-3.602V8.541z M14.4,7.248v4.209c0,1.637-0.434,2.68-1.889,2.912c-0.508,0.1-1.566,0.065-2.238,0.065v-2.5
      	c0-0.022-0.004-0.062-0.009-0.084c-0.028-0.1-0.12-0.174-0.228-0.176c-0.062,0-0.118,0.033-0.179,0.092l-6.235,6.232L7.809,18h4.643
      	C16.125,18,18,15.885,18,11.934V3.647L14.4,7.248z"/>
    </symbol>

    <symbol id="flickr">
      <title>Flickr</title>
      <path d="M5,14c-2.188,0-3.96-1.789-3.96-4c0-2.211,1.772-4,3.96-4c2.187,0,3.96,1.789,3.96,4C8.96,12.211,7.187,14,5,14z"/>
      <path d="M15,14c-2.188,0-3.96-1.789-3.96-4c0-2.211,1.772-4,3.96-4c2.187,0,3.96,1.789,3.96,4C18.96,12.211,17.187,14,15,14z"/>
    </symbol>

    <symbol id="flickr_circle">
      <title>Flickr (circle)</title>
      <path d="M10,0.4c-5.302,0-9.6,4.298-9.6,9.6s4.298,9.6,9.6,9.6s9.6-4.298,9.6-9.6S15.302,0.4,10,0.4z M7.436,12
      	c-1.096,0-1.982-0.895-1.982-2c0-1.105,0.887-2,1.982-2c1.094,0,1.982,0.895,1.982,2C9.418,11.105,8.529,12,7.436,12z M12.565,12
      	c-1.095,0-1.983-0.895-1.983-2c0-1.105,0.888-2,1.983-2c1.096,0,1.982,0.895,1.982,2C14.547,11.105,13.66,12,12.565,12z"/>
    </symbol>

    <symbol id="foursquare">
      <title>Foursquare</title>
      <path d="M4.92,1C4.412,1,4,1.412,4,1.92v16.516c0,0.625,0.765,0.926,1.192,0.47l4.471-4.79C9.731,14.042,9.826,14,9.927,14h3.237
      	c0.486,0,0.905-0.343,1.001-0.82l2.111-10.514C16.449,1.804,15.79,1,14.911,1H4.92z M8.838,12.19L6,15.527V3.343
      	C6,3.154,6.154,3,6.343,3h7.14c0.342,0,0.598,0.313,0.53,0.648l-0.413,2.055C13.566,5.876,13.414,6,13.238,6h-3.71
      	C9.236,6,9,6.236,9,6.528v1.22C9,7.887,9.113,8,9.253,8h3.294c0.306,0,0.536,0.28,0.476,0.581l-0.614,3.058
      	C12.366,11.849,12.181,12,11.967,12H9.25C9.091,12,8.941,12.069,8.838,12.19z"/>
    </symbol>

    <symbol id="github">
      <title>Github</title>
      <path d="M13.18,11.309c-0.718,0-1.3,0.807-1.3,1.799c0,0.994,0.582,1.801,1.3,1.801s1.3-0.807,1.3-1.801
      	C14.479,12.116,13.898,11.309,13.18,11.309z M17.706,6.626c0.149-0.365,0.155-2.439-0.635-4.426c0,0-1.811,0.199-4.551,2.08
      	c-0.575-0.16-1.548-0.238-2.519-0.238c-0.973,0-1.945,0.078-2.52,0.238C4.74,2.399,2.929,2.2,2.929,2.2
      	C2.14,4.187,2.148,6.261,2.295,6.626C1.367,7.634,0.8,8.845,0.8,10.497c0,7.186,5.963,7.301,7.467,7.301
      	c0.342,0,1.018,0.002,1.734,0.002c0.715,0,1.392-0.002,1.732-0.002c1.506,0,7.467-0.115,7.467-7.301
      	C19.2,8.845,18.634,7.634,17.706,6.626z M10.028,16.915H9.972c-3.771,0-6.709-0.449-6.709-4.115c0-0.879,0.31-1.693,1.047-2.369
      	c1.227-1.127,3.305-0.531,5.662-0.531c0.01,0,0.02,0,0.029,0c0.01,0,0.018,0,0.027,0c2.357,0,4.436-0.596,5.664,0.531
      	c0.735,0.676,1.045,1.49,1.045,2.369C16.737,16.466,13.8,16.915,10.028,16.915z M6.821,11.309c-0.718,0-1.3,0.807-1.3,1.799
      	c0,0.994,0.582,1.801,1.3,1.801c0.719,0,1.301-0.807,1.301-1.801C8.122,12.116,7.54,11.309,6.821,11.309z"/>
    </symbol>

    <symbol id="github_circle">
      <title>Github (circle)</title>
      <path d="M10.015,9.949c0,0-0.01,0-0.015,0H9.985c-1.191,0-2.24-0.303-2.861,0.268c-0.371,0.342-0.527,0.754-0.527,1.197
      	c0,1.852,1.483,2.08,3.389,2.08h0.029c1.905,0,3.389-0.229,3.389-2.08c0-0.443-0.156-0.856-0.527-1.197
      	C12.255,9.646,11.206,9.949,10.015,9.949z M8.393,12.48c-0.363,0-0.656-0.408-0.656-0.91c0-0.502,0.293-0.908,0.656-0.908
      	c0.363,0,0.657,0.406,0.657,0.908C9.051,12.072,8.757,12.48,8.393,12.48z M11.606,12.48c-0.363,0-0.657-0.408-0.657-0.91
      	c0-0.502,0.294-0.908,0.657-0.908c0.362,0,0.656,0.406,0.656,0.908C12.263,12.072,11.969,12.48,11.606,12.48z M10,0.4
      	c-5.302,0-9.6,4.298-9.6,9.6s4.298,9.6,9.6,9.6s9.6-4.298,9.6-9.6S15.302,0.4,10,0.4z M10.876,13.939c-0.172,0-0.514,0-0.876,0.002
      	c-0.362-0.002-0.704-0.002-0.876-0.002c-0.76,0-3.772-0.059-3.772-3.689c0-0.834,0.286-1.445,0.755-1.955
      	c-0.074-0.184-0.078-1.232,0.32-2.236c0,0,0.916,0.1,2.301,1.051C9.017,7.029,9.509,6.988,10,6.988s0.982,0.041,1.273,0.121
      	c1.385-0.951,2.301-1.051,2.301-1.051c0.398,1.004,0.395,2.053,0.32,2.236c0.469,0.51,0.755,1.121,0.755,1.955
      	C14.648,13.881,11.636,13.939,10.876,13.939z"/>
    </symbol>

    <symbol id="google_plus">
      <title>Google+</title>
      <path d="M1.989,5.589c0,1.494,0.499,2.572,1.482,3.205c0.806,0.52,1.74,0.598,2.226,0.598c0.118,0,0.213-0.006,0.279-0.01
      	c0,0-0.154,1.004,0.59,1.996H6.532c-1.289,0-5.493,0.269-5.493,3.727c0,3.516,3.861,3.695,4.636,3.695
      	c0.061,0,0.097-0.002,0.097-0.002c0.008,0,0.063,0.002,0.158,0.002c0.497,0,1.782-0.062,2.975-0.643
      	c1.548-0.75,2.333-2.059,2.333-3.885c0-1.764-1.196-2.814-2.069-3.582c-0.533-0.469-0.994-0.873-0.994-1.266
      	c0-0.4,0.337-0.701,0.762-1.082c0.689-0.615,1.339-1.492,1.339-3.15c0-1.457-0.189-2.436-1.354-3.057
      	c0.121-0.062,0.551-0.107,0.763-0.137c0.631-0.086,1.554-0.184,1.554-0.699V1.2H6.64C6.594,1.202,1.989,1.372,1.989,5.589z
      	 M9.413,14.602c0.088,1.406-1.115,2.443-2.922,2.574c-1.835,0.135-3.345-0.691-3.433-2.096c-0.043-0.676,0.254-1.336,0.835-1.863
      	c0.589-0.533,1.398-0.863,2.278-0.928c0.104-0.006,0.207-0.012,0.31-0.012C8.18,12.278,9.33,13.276,9.413,14.602z M8.212,4.626
      	c0.451,1.588-0.23,3.246-1.316,3.553C6.771,8.214,6.643,8.231,6.512,8.231c-0.994,0-1.979-1.006-2.345-2.393
      	C3.963,5.062,3.98,4.38,4.214,3.726c0.229-0.645,0.643-1.078,1.163-1.225c0.125-0.035,0.254-0.053,0.385-0.053
      	C6.962,2.448,7.734,2.946,8.212,4.626z M16,8V5h-2v3h-3v2h3v3h2v-3h3V8H16z"/>
    </symbol>

    <symbol id="google_drive">
      <title>Google Drive</title>
      <path d="M8.175,13l-3.324,6h11.824L20,13H8.175z M5.865,2.299L0,12.914l3.372,6.084L9.238,8.383L5.865,2.299z M19.445,12L13.349,1
      	H6.604l6.088,11H19.445z"/>
    </symbol>

    <symbol id="google_hangouts">
      <title>Goggle Hangouts</title>
      <path d="M10,0C5.25,0,1.4,3.806,1.4,8.5C1.4,13.194,5.25,17,10,17v3c3.368-1.672,8.6-5.305,8.6-11.5C18.6,3.806,14.75,0,10,0z
      	 M9,9.741c0,1.328-1.021,2.422-2.32,2.538c-0.123,0.011-0.228-0.088-0.228-0.211v-0.852c0-0.106,0.079-0.194,0.184-0.21
      	C7.167,10.93,7.573,10.519,7.683,10H5.732C5.328,10,5,9.672,5,9.268V6.732C5,6.328,5.328,6,5.732,6h2.536C8.672,6,9,6.328,9,6.732
      	V9.741z M15,9.741c0,1.328-1.021,2.422-2.32,2.538c-0.123,0.011-0.228-0.088-0.228-0.211v-0.852c0-0.106,0.079-0.194,0.184-0.21
      	c0.531-0.077,0.937-0.487,1.047-1.006h-1.951C11.328,10,11,9.672,11,9.268V6.732C11,6.328,11.328,6,11.732,6h2.536
      	C14.672,6,15,6.328,15,6.732V9.741z"/>
    </symbol>

    <symbol id="google_play">
      <title>Google Play</title>
      <path d="M4.942627,18.0508423l7.6660156-4.3273926l-1.6452026-1.8234253L4.942627,18.0508423z M2.1422119,2.1231079
      	C2.0543823,2.281311,2,2.4631958,2,2.664917v15.1259766c0,0.2799683,0.1046143,0.5202026,0.2631226,0.710144l7.6265259-7.7912598
      	L2.1422119,2.1231079z M17.4795532,9.4819336l-2.6724854-1.508606l-2.72229,2.7811279l1.9516602,2.1630249l3.4431152-1.9436035
      	C17.7927856,10.8155518,17.9656372,10.5287476,18,10.2279053C17.9656372,9.927063,17.7927856,9.6402588,17.4795532,9.4819336z
      	 M13.3649292,7.1592407L4.1452026,1.954834l6.8656616,7.609314L13.3649292,7.1592407z"/>
    </symbol>

    <symbol id="google_plus_cirlce">
      <title>Google Plus (cirlce)</title>
      <path d="M10,0.4c-5.302,0-9.6,4.298-9.6,9.6s4.298,9.6,9.6,9.6s9.6-4.298,9.6-9.6S15.302,0.4,10,0.4z M9.447,14.121
      	c-0.603,0.293-1.252,0.324-1.503,0.324c-0.048,0-0.075,0-0.075,0s-0.023,0-0.054,0c-0.392,0-2.343-0.09-2.343-1.867
      	c0-1.746,2.125-1.883,2.776-1.883h0.017c-0.376-0.502-0.298-1.008-0.298-1.008C7.934,9.689,7.886,9.691,7.827,9.691
      	c-0.245,0-0.718-0.039-1.124-0.301c-0.498-0.32-0.75-0.865-0.75-1.619c0-2.131,2.327-2.217,2.35-2.219h2.324v0.051
      	c0,0.26-0.467,0.311-0.785,0.354C9.734,5.973,9.517,5.994,9.456,6.025c0.589,0.315,0.684,0.809,0.684,1.545
      	c0,0.838-0.328,1.281-0.676,1.592C9.248,9.355,9.079,9.506,9.079,9.709c0,0.199,0.232,0.402,0.502,0.639
      	c0.441,0.389,1.046,0.918,1.046,1.811C10.627,13.082,10.23,13.742,9.447,14.121z M14.5,10H13v1.5h-1V10h-1.5V9H12V7.5h1V9h1.5V10z
      	 M8.223,11.15c-0.052,0-0.104,0.002-0.157,0.006c-0.444,0.033-0.854,0.199-1.15,0.469c-0.294,0.266-0.444,0.602-0.423,0.941
      	c0.045,0.711,0.808,1.127,1.735,1.061c0.912-0.066,1.52-0.592,1.476-1.303C9.662,11.656,9.081,11.15,8.223,11.15z M9.097,7.285
      	c-0.242-0.85-0.632-1.102-1.238-1.102c-0.065,0-0.131,0.01-0.194,0.027C7.402,6.285,7.193,6.504,7.077,6.83
      	C6.958,7.16,6.951,7.504,7.053,7.896c0.185,0.701,0.683,1.209,1.185,1.209c0.066,0,0.132-0.008,0.194-0.027
      	C8.981,8.924,9.325,8.086,9.097,7.285z"/>
    </symbol>

    <symbol id="groovesharks">
      <title>Groovesharks</title>
      <path d="M10,1.199C5.139,1.199,1.2,5.139,1.2,10c0,4.859,3.939,8.801,8.801,8.801c4.86,0,8.8-3.941,8.8-8.801
        C18.8,5.139,14.861,1.199,10,1.199z M13.538,10.338c-0.476-0.666-0.963-1.32-1.497-1.939c-0.501-0.584-1.034-1.141-1.614-1.645
        C9.849,6.25,9.219,5.772,8.527,5.438C8.062,5.213,7.583,5.045,7.088,4.902C7.032,4.887,6.88,4.818,6.836,4.887
        C6.808,4.93,6.83,5.01,6.834,5.057C6.848,5.16,6.86,5.262,6.873,5.365c0.148,1.228,0.204,2.525-0.178,3.719
        C6.491,9.727,6.117,10.314,5.62,10.77c-0.413,0.379-1.002,0.76-1.587,0.732c-0.108-0.004-0.218-0.023-0.324-0.059
        C3.083,11.232,3.046,10.557,3.042,10C3.038,9.402,3.11,8.805,3.258,8.225c0.045-0.178,0.101-0.353,0.16-0.527
        c0.685-1.986,2.27-3.602,4.259-4.307C8.421,3.127,9.209,2.994,10,2.994c2.326,0,4.539,1.195,5.817,3.137
        c0.32,0.488,0.577,1.016,0.766,1.566h-0.003c0.061,0.174,0.117,0.35,0.163,0.527c0.146,0.58,0.22,1.178,0.216,1.775
        c-0.008,1.125-0.37,2.367-1.783,1.771C14.509,11.488,13.952,10.918,13.538,10.338z"/>
    </symbol>

    <symbol id="houzz">
      <title>Houzz</title>
      <path d="M4,10l6,3l-6,3V10z M10,7l6,3V4L10,7z M10,20l6-3v-7l-6,3V20z M10,0L4,3v7l6-3V0z"/>
    </symbol>

    <symbol id="icloud">
      <title>iCloud</title>
      <path d="M10.909,5c1.884,0,3.417,1.598,3.417,3.561c0,0.136-0.012,0.29-0.037,0.484c0,0-0.163,1.262-0.206,1.594
      	c-0.043,0.332,0.186,0.65,0.528,0.653c0.342,0.002,1.65,0.01,1.65,0.01C17.219,11.308,18,12.137,18,13.15
      	c0,1.02-0.785,1.85-1.75,1.85H4.167C2.972,15,2,13.978,2,12.722c0-0.913,0.519-1.735,1.323-2.095c0,0,0.421-0.188,0.651-0.291
      	c0.23-0.103,0.508-0.431,0.516-0.775c0.008-0.344,0.016-0.714,0.016-0.714c0.012-0.535,0.421-0.97,0.91-0.97
      	c0.032,0,0.094,0.006,0.207,0.035c0,0,0.774,0.197,1.039,0.264c0.265,0.067,0.606-0.066,0.73-0.309
      	c0.124-0.243,0.503-0.981,0.503-0.981C8.493,5.723,9.648,5,10.909,5 M10.909,3C8.828,3,7.023,4.207,6.116,5.974
      	C5.891,5.917,5.659,5.878,5.417,5.878c-1.587,0-2.873,1.304-2.91,2.924C1.033,9.461,0,10.966,0,12.722C0,15.085,1.865,17,4.167,17
      	H16.25c2.071,0,3.75-1.724,3.75-3.85c0-2.118-1.667-3.835-3.728-3.848c0.031-0.243,0.053-0.489,0.053-0.741
      	C16.326,5.49,13.901,3,10.909,3L10.909,3z"/>
    </symbol>

    <symbol id="lastfm">
      <title>LastFM</title>
      <path d="M8.574,14.576C8.097,14.924,7.119,15.6,5.193,15.6C2.532,15.6,0,13.707,0,10.195C0,6.547,2.637,4.4,5.354,4.4
      	c3.047,0,4.183,1.108,5.144,4.109l0.756,2.309c0.551,1.688,1.713,2.91,4.026,2.91c1.558,0,2.382-0.346,2.382-1.199
      	c0-0.67-0.389-1.156-1.557-1.434l-1.559-0.369c-1.9-0.461-2.656-1.455-2.656-3.025c0-2.516,2.016-3.301,4.077-3.301
      	c2.337,0,3.757,0.854,3.94,2.932l-2.291,0.277c-0.092-0.992-0.688-1.408-1.787-1.408c-1.008,0-1.627,0.461-1.627,1.246
      	c0,0.693,0.299,1.109,1.307,1.34l1.466,0.324C18.945,9.572,20,10.543,20,12.414c0,2.309-1.924,3.186-4.766,3.186
      	c-3.963,0-5.338-1.801-6.07-4.041L8.43,9.25c-0.549-1.687-0.99-2.902-3.006-2.902c-1.398,0-3.219,0.916-3.219,3.756
      	c0,2.217,1.523,3.604,3.104,3.604c1.34,0,2.146-0.754,2.564-1.131L8.574,14.576z"/>
    </symbol>

    <symbol id="lastfm_cirlce">
      <title>LastFM (cirlce)</title>
      <path d="M10,0.4c-5.302,0-9.6,4.298-9.6,9.6s4.298,9.6,9.6,9.6s9.6-4.298,9.6-9.6S15.302,0.4,10,0.4z M12.644,12.83
      	c-2.002,0-2.697-0.91-3.066-2.043L9.207,9.621C8.93,8.77,8.706,8.154,7.688,8.154c-0.706,0-1.626,0.463-1.626,1.898
      	c0,1.119,0.77,1.82,1.568,1.82c0.677,0,1.084-0.381,1.296-0.572l0.354,1.012c-0.241,0.174-0.734,0.517-1.707,0.517
      	c-1.346,0-2.625-0.957-2.625-2.73c0-1.844,1.333-2.93,2.705-2.93c1.54,0,2.113,0.56,2.6,2.078l0.382,1.166
      	c0.278,0.852,0.865,1.471,2.034,1.471c0.787,0,1.204-0.176,1.204-0.607c0-0.338-0.197-0.584-0.787-0.723l-0.787-0.188
      	c-0.961-0.232-1.343-0.734-1.343-1.529c0-1.271,1.018-1.668,2.061-1.668c1.181,0,1.898,0.432,1.99,1.482l-1.157,0.139
      	c-0.046-0.5-0.347-0.711-0.903-0.711c-0.509,0-0.821,0.234-0.821,0.631c0,0.35,0.15,0.559,0.66,0.676l0.74,0.164
      	c0.995,0.233,1.528,0.723,1.528,1.668C15.053,12.387,14.08,12.83,12.644,12.83z"/>
    </symbol>

    <symbol id="linkedin">
      <title>LinkedIn</title>
      <path d="M5,3c0,1.1-0.7,2-2,2C1.8,5,1,4.1,1,3.1C1,2,1.8,1,3,1S5,1.9,5,3z M1,19h4V6H1V19z M14.6,6.2c-2.1,0-3.3,1.2-3.8,2h-0.1
      	l-0.2-1.7H6.9C6.9,7.6,7,8.9,7,10.4V19h4v-7.1c0-0.4,0-0.7,0.1-1c0.3-0.7,0.8-1.6,1.9-1.6c1.4,0,2,1.2,2,2.8V19h4v-7.4
      	C19,7.9,17.1,6.2,14.6,6.2z"/>
    </symbol>

    <symbol id="linkedin_cirlce">
      <title>LinkedIn (circle)</title>
      <path d="M10,0.4c-5.302,0-9.6,4.298-9.6,9.6s4.298,9.6,9.6,9.6s9.6-4.298,9.6-9.6S15.302,0.4,10,0.4z M7.65,13.979H5.706V7.723H7.65
      	V13.979z M6.666,6.955c-0.614,0-1.011-0.435-1.011-0.973c0-0.549,0.409-0.971,1.036-0.971c0.627,0,1.011,0.422,1.023,0.971
      	C7.714,6.52,7.318,6.955,6.666,6.955z M14.75,13.979h-1.944v-3.467c0-0.807-0.282-1.355-0.985-1.355
      	c-0.537,0-0.856,0.371-0.997,0.728c-0.052,0.127-0.065,0.307-0.065,0.486v3.607H8.814v-4.26c0-0.781-0.025-1.434-0.051-1.996h1.689
      	l0.089,0.869h0.039c0.256-0.408,0.883-1.01,1.932-1.01c1.279,0,2.238,0.857,2.238,2.699V13.979z"/>
    </symbol>

    <symbol id="mail_cirlce">
      <title>Mail (circle)</title>
      <path d="M10,0.3999634c-5.3019409,0-9.5999756,4.2980957-9.5999756,9.6000366S4.6980591,19.5999756,10,19.5999756
      	S19.5999756,15.3019409,19.5999756,10S15.3019409,0.3999634,10,0.3999634z M6.2313232,7h7.5195923
      	c0.3988037,0,0.1935425,0.5117188-0.0234985,0.6430664c-0.217041,0.1308594-3.2213135,1.9470215-3.333313,2.0144043
      	s-0.256958,0.0996094-0.402771,0.0996094c-0.145874,0-0.2908325-0.0322266-0.402771-0.0996094
      	C9.4765625,9.5900879,6.472229,7.7739258,6.255188,7.6430664C6.038208,7.5117188,5.8328857,7,6.2313232,7z M14,12.5
      	c0,0.2099609-0.251709,0.5-0.444458,0.5H6.444458C6.251709,13,6,12.7099609,6,12.5c0,0,0-3.5544434,0-3.6467285
      	c0-0.0917969-0.001709-0.2114258,0.171875-0.109375c0.246521,0.1445312,3.265625,1.9250488,3.416687,2.013916
      	c0.151001,0.0888672,0.256897,0.0995483,0.402771,0.0995483c0.145813,0,0.251709-0.0106812,0.402771-0.0995483
      	s3.1875-1.8688965,3.434021-2.0134277C14.001709,8.642334,14,8.7619629,14,8.8537598C14,8.9460449,14,12.5,14,12.5z"/>
    </symbol>

    <symbol id="medium">
      <title>Medium</title>
      <path d="M18.7502384,5C18.7502384,5,18,5,18,5.7501426s0,8.5002785,0,8.5002785S18,15,18.7502384,15H19v2h-6v-2h1V5.6999512
      	h-0.0999756L10.8354492,17H8.1365967L5.0999761,5.6999512H5.0000005V15h1v2h-5v-2h0.2497627c0,0,0.7502373,0,0.7502373-0.7501431
      	c0-0.7501421,0-8.5002775,0-8.5002775S2.0000005,5,1.2497631,5H1.0000005V3h6.6340332l2.3269038,8.6591797h0.0766602L12.3859863,3
      	H19v2H18.7502384z"/>
    </symbol>

    <symbol id="medium_circle">
      <title>Medium (circle)</title>
      <path d="M10,0.3999634c-5.3019409,0-9.5999756,4.2980957-9.5999756,9.6000366S4.6980591,19.5999756,10,19.5999756
      	S19.5999756,15.3019409,19.5999756,10S15.3019409,0.3999634,10,0.3999634z M14.2000122,7.666687h-0.1165771
      	c0,0-0.3500977,0-0.3500977,0.3500977c0,0.3500366,0,3.9666748,0,3.9666748s0,0.3497925,0.3500977,0.3497925h0.1165771v0.9333496
      	h-2.7999878V12.333252h0.4666138V7.9933472h-0.0466309l-1.4301147,5.2732544H9.1304321L7.7133179,7.9933472H7.666687v4.3399048
      	h0.4666748v0.9333496h-2.333374V12.333252h0.1165771c0,0,0.3500977,0,0.3500977-0.3500366s0-3.9667358,0-3.9667358
      	s0-0.3497925-0.3500977-0.3497925H5.7999878V6.7333984H8.895874l1.0858765,4.0408325h0.0357666l1.0959473-4.0408325h3.0865479
      	V7.666687z"/>
    </symbol>

    <symbol id="mixi">
      <title>Mixi</title>
      <path d="M9.546,17.258h0.955v2.143c6.51-0.684,9.982-7.143,9.421-11.691C19.358,3.16,14.471,0.018,8.978,0.69
        C3.486,1.364-0.49,5.598,0.072,10.149C0.585,14.287,4.674,17.262,9.546,17.258z M15.694,12.86h-1.831V7.907
        c0-0.199-0.018-0.387-0.053-0.557c-0.029-0.148-0.084-0.273-0.164-0.381c-0.076-0.1-0.187-0.182-0.33-0.244
        c-0.152-0.066-0.363-0.1-0.623-0.1c-0.537,0-0.957,0.141-1.251,0.416c-0.291,0.273-0.433,0.633-0.433,1.1v4.719H9.179V7.907
        c0-0.205-0.019-0.395-0.059-0.564c-0.034-0.15-0.091-0.277-0.173-0.387C8.87,6.854,8.768,6.778,8.633,6.719
        c-0.144-0.062-0.34-0.094-0.58-0.094c-0.312,0-0.58,0.059-0.795,0.174c-0.223,0.117-0.405,0.26-0.541,0.422
        C6.579,7.385,6.478,7.555,6.418,7.727C6.356,7.899,6.326,8.037,6.326,8.141v4.719H4.494V5.164h1.758v0.6
        c0.574-0.508,1.306-0.766,2.181-0.766c0.51,0,0.981,0.103,1.399,0.305c0.306,0.147,0.554,0.365,0.738,0.652
        c0.231-0.248,0.504-0.451,0.814-0.609c0.454-0.231,0.958-0.348,1.499-0.348c0.402,0,0.773,0.043,1.102,0.127
        c0.343,0.086,0.644,0.225,0.895,0.412c0.258,0.193,0.46,0.445,0.602,0.75c0.141,0.301,0.212,0.66,0.212,1.07V12.86z"/>
    </symbol>

    <symbol id="onedrive">
      <title>OneDrive</title>
      <path d="M6.429,9.847c0.487-1.961,2.249-3.394,4.341-3.394c1.236,0,2.394,0.505,3.232,1.382c0.354-0.114,0.768-0.202,1.136-0.21
      	v-0.13c0-2.482-1.845-4.495-4.12-4.495C9.392,3,7.998,4.038,7.328,5.531C6.834,5.197,6.257,4.996,5.634,4.996
      	c-1.785,0-3.231,1.577-3.231,3.523c0,0.21,0.024,0.414,0.057,0.613c-1.377,0.136-2.455,1.544-2.455,3.08
      	c0,0.016,0.004,0.029,0.004,0.045C0.008,12.271,0,12.285,0,12.299c0,0.615,0.214,1.177,0.561,1.631C1.053,14.592,1.823,15,2.701,15
      	h1.261c-0.246-0.488-0.398-1.032-0.398-1.615C3.563,11.648,4.794,10.193,6.429,9.847z M17.889,11.777
      	c-0.025,0-0.05,0.007-0.075,0.008c0.007-0.074,0.022-0.146,0.022-0.222c0-1.472-1.193-2.664-2.665-2.664
      	c-0.586,0-1.123,0.194-1.564,0.516c-0.546-1.015-1.604-1.712-2.838-1.712c-1.788,0-3.237,1.449-3.237,3.237
      	c0,0.023,0.006,0.043,0.007,0.066C7.421,10.988,7.303,10.97,7.18,10.97c-1.335,0-2.415,1.081-2.415,2.415
      	c0,0.167,0.017,0.33,0.049,0.487C5.042,15.083,6.102,16,7.38,16h10.706v-0.019C19.158,15.879,20,14.987,20,13.889
      	C20,12.723,19.055,11.777,17.889,11.777z"/>
    </symbol>

    <symbol id="paypal">
      <title>Paypal</title>
      <path d="M7.914,10.677h1.659c3.604,0,5.649-1.623,6.3-4.96c0.021-0.11,0.04-0.216,0.056-0.322c0.036-0.226,0.054-0.429,0.062-0.624
      	C15.997,4.637,16.001,4.558,16,4.484c-0.008-0.391-0.077-0.722-0.216-1.039c-0.129-0.296-0.324-0.587-0.613-0.918
      	C14.318,1.557,12.832,1,11.057,1H5.404C5.006,1,4.667,1.29,4.605,1.683l-1.02,6.571l-1.269,8.185C2.27,16.734,2.498,17,2.796,17
      	l2.772,0l0.849-5.043C6.534,11.217,7.164,10.677,7.914,10.677z M17.017,6.09c-0.792,3.771-3.357,5.772-7.445,5.772H7.914
      	c-0.164,0-0.302,0.118-0.328,0.282L6.481,19h2.907c0.348,0,0.645-0.253,0.699-0.597l0.029-0.15l0.555-3.514l0.036-0.194
      	c0.054-0.344,0.351-0.597,0.699-0.597h0.44c2.85,0,5.081-1.158,5.733-4.506C17.847,8.062,17.711,6.908,17.017,6.09z"/>
    </symbol>

    <symbol id="picasa">
      <title>Picasa</title>
      <path d="M5.808,1.823C2.719,3.411,0.8,6.544,0.8,10.021c0,0.633,0.08,1.275,0.221,1.918L8.97,4.7
      	C8.122,3.929,5.894,1.901,5.808,1.823z M13.793,1.626C12.593,1.081,11.317,0.8,9.999,0.8c-0.934,0-1.855,0.156-2.749,0.441
      	l6.543,5.951V1.626z M15.192,2.438v10.617h3.485c0.343-0.982,0.522-2.004,0.522-3.035C19.2,6.987,17.677,4.148,15.192,2.438z
      	 M1.463,13.429c0.674,1.693,1.857,3.15,3.368,4.184v-7.25l-2.045,1.861C2.088,12.858,1.506,13.39,1.463,13.429z M6.23,18.425
      	c0.935,0.422,1.913,0.682,2.92,0.775h1.689c3.019-0.281,5.727-2.068,7.199-4.744H6.23V18.425z"/>
    </symbol>

    <symbol id="pinterest">
      <title>Pinterest</title>
      <path d="M8.617,13.227C8.091,15.981,7.45,18.621,5.549,20C4.963,15.838,6.41,12.713,7.083,9.395
      	c-1.147-1.93,0.138-5.812,2.555-4.855c2.975,1.176-2.576,7.172,1.15,7.922c3.891,0.781,5.479-6.75,3.066-9.199
      	C10.369-0.275,3.708,3.18,4.528,8.245c0.199,1.238,1.478,1.613,0.511,3.322c-2.231-0.494-2.897-2.254-2.811-4.6
      	c0.138-3.84,3.449-6.527,6.771-6.9c4.201-0.471,8.144,1.543,8.689,5.494c0.613,4.461-1.896,9.293-6.389,8.945
      	C10.081,14.411,9.571,13.807,8.617,13.227z"/>
    </symbol>

    <symbol id="pinterest_circle">
      <title>Pinterest (circle)</title>
      <path d="M10,0.4c-5.302,0-9.6,4.298-9.6,9.6s4.298,9.6,9.6,9.6s9.6-4.298,9.6-9.6S15.302,0.4,10,0.4z M10.657,12.275
      	c-0.616-0.047-0.874-0.352-1.356-0.644c-0.265,1.391-0.589,2.725-1.549,3.422c-0.297-2.104,0.434-3.682,0.774-5.359
      	C7.947,8.719,8.595,6.758,9.817,7.24c1.503,0.596-1.302,3.625,0.581,4.004c1.966,0.394,2.769-3.412,1.55-4.648
      	c-1.762-1.787-5.127-0.041-4.713,2.517c0.1,0.625,0.747,0.815,0.258,1.678c-1.127-0.25-1.464-1.139-1.42-2.324
      	c0.069-1.94,1.743-3.299,3.421-3.486c2.123-0.236,4.115,0.779,4.391,2.777C14.194,10.012,12.926,12.451,10.657,12.275z"/>
    </symbol>

    <symbol id="qq">
      <title>QQ</title>
      <path d="M17.005,13.018c-0.779-0.547-1.751-0.51-2.304,0.277c-0.553,0.785-4.418,5.633-10.751,3.619
      	c0.239,0.209,0.49,0.406,0.755,0.592c4.153,2.926,9.892,1.928,12.816-2.225C18.076,14.494,17.784,13.567,17.005,13.018z
      	 M4.785,12.401C4.381,11.53,2.116,5.758,7.025,1.28c-0.3,0.104-0.597,0.221-0.89,0.357C1.526,3.772-0.481,9.24,1.654,13.85
      	c0.403,0.871,1.353,1.084,2.218,0.684C4.736,14.133,5.188,13.272,4.785,12.401z M10.826,0.823c-0.956-0.086-1.614,0.629-1.7,1.578
      	C9.041,3.35,9.561,4.172,10.517,4.258c0.956,0.086,7.087,1.01,8.51,7.502c0.062-0.311,0.106-0.627,0.136-0.949
      	C19.618,5.75,15.886,1.278,10.826,0.823z M6.891,10.53c-0.264,0.619-0.306,1.213-0.094,1.322c0.146,0.076,0.374-0.098,0.588-0.416
      	C7.47,11.783,7.68,12.098,7.98,12.35c-0.314,0.115-0.52,0.305-0.52,0.519c0,0.354,0.556,0.639,1.241,0.639
      	c0.618,0,1.13-0.232,1.225-0.537c0.025,0,0.123,0,0.147,0c0.095,0.305,0.607,0.537,1.226,0.537c0.686,0,1.241-0.285,1.241-0.639
      	c0-0.215-0.205-0.404-0.52-0.519c0.299-0.252,0.51-0.566,0.594-0.914c0.214,0.318,0.442,0.492,0.589,0.416
      	c0.211-0.109,0.17-0.703-0.095-1.322c-0.207-0.488-0.488-0.848-0.702-0.926C12.41,9.573,12.41,9.541,12.41,9.51
      	c0-0.19-0.052-0.363-0.142-0.504c0.002-0.012,0.002-0.023,0.002-0.033c0-0.088-0.021-0.168-0.056-0.238
      	C12.16,7.467,11.335,6.461,10,6.461c-1.336,0-2.161,1.006-2.215,2.273c-0.035,0.07-0.057,0.15-0.057,0.238
      	c0,0.01,0.001,0.021,0.002,0.033C7.642,9.147,7.589,9.321,7.589,9.51c0,0.031,0.001,0.062,0.004,0.094
      	C7.38,9.682,7.098,10.041,6.891,10.53z"/>
    </symbol>

    <symbol id="qq_circle">
      <title>QQ (circle)</title>
      <path d="M10,0.3999634c-5.3019409,0-9.5999756,4.2980957-9.5999756,9.6000366S4.6980591,19.5999756,10,19.5999756
      	S19.5999756,15.3019409,19.5999756,10S15.3019409,0.3999634,10,0.3999634z M14.0076904,12.3206177
      	c-0.1832886,0.0952148-0.4691772-0.1222534-0.7367554-0.5205688c-0.1051025,0.4349976-0.3689575,0.8283081-0.7427979,1.1436157
      	c0.3933716,0.144104,0.6499634,0.3811646,0.6499634,0.6499023c0,0.4422607-0.6952515,0.7990723-1.5528564,0.7990723
      	c-0.7733765,0-1.4147949-0.2907715-1.5332642-0.671936H9.9075317c-0.1185913,0.3811646-0.758728,0.671936-1.5321655,0.671936
      	c-0.857605,0-1.5527954-0.3568115-1.5527954-0.7990723c0-0.2687378,0.2565918-0.5057983,0.6500244-0.6499023
      	c-0.375061-0.3153076-0.6377563-0.7086182-0.7441406-1.1436157c-0.2674561,0.3983154-0.5533447,0.6157837-0.7354736,0.5205688
      	c-0.2651367-0.1368408-0.2125854-0.8797607,0.1173096-1.6542969c0.2589722-0.6109009,0.6121826-1.0605469,0.878418-1.1582031
      	c-0.0036621-0.0390625-0.0048828-0.078186-0.0048828-0.1172485c0-0.2370605,0.06604-0.4545288,0.177124-0.6305542
      	C7.1598511,8.7456665,7.1585693,8.7310791,7.1585693,8.718811c0-0.1098633,0.0269165-0.210083,0.0708008-0.2980347
      	c0.0671997-1.5858154,1.0996094-2.8442993,2.7709961-2.8442993c1.6700439,0,2.7024536,1.2584839,2.770874,2.8442993
      	c0.0440063,0.0879517,0.0697021,0.1881714,0.0697021,0.2980347c0,0.0122681,0,0.0268555-0.0025024,0.0415039
      	c0.1124268,0.1760254,0.177124,0.3934937,0.177124,0.6305542c0,0.0390625-0.0010986,0.078186-0.0048828,0.1172485
      	c0.2676392,0.0976562,0.6193848,0.5473022,0.878479,1.1582031C14.2202148,11.4408569,14.2715454,12.1837769,14.0076904,12.3206177z"
    </symbol>

    <symbol id="raft">
      <title>Raft</title>
      <path d="M5.6734395,19c-0.877316,0-1.6501045-0.3605442-2.1763153-1.0143661
      	c-0.6450326-0.8027058-0.8514075-1.9354591-0.5816016-3.1901903l0.0580709-0.2699594l1.9735143,0.4313974l-0.0580707,0.269063
      	c-0.13937,0.6448536-0.083086,1.1650429,0.1581311,1.4654961c0.148304,0.1838589,0.3591456,0.2780323,0.6262712,0.2780323
      	c0.7754688,0,1.5446839-1.2412777,2.125392-3.4179964c-0.6360989-0.2161474-1.2203803-0.5354357-1.7403374-0.9524832
      	l-0.213522-0.1713028l1.2579031-1.5892649l0.2153087,0.1722002c0.2742729,0.2206316,0.580708,0.4009037,0.9139452,0.5372286
      	c0.1688519-0.968626,0.3037548-2.0323219,0.4029226-3.168664L8.659173,8.1047468l2.0110369,0.1775808l-0.0241213,0.2744446
      	c-0.1018476,1.1695271-0.240324,2.2673035-0.4109631,3.2682171c1.3874464-0.1399126,2.6516027-0.9273701,3.3547068-2.1112471
      	c1.152482-1.9408398,0.694169-4.3704782-1.0890512-5.7776766c-0.7620678-0.601804-1.8814945-0.9433796-2.9267693-0.8913608
      	c-1.3043594,0.0547094-2.4041319,0.642029-3.2680469,1.765815C5.2660508,6.1621122,5.1561627,8.1881561,6.0450931,9.6267452
      	l0.1447301,0.2340851L4.4745007,10.934391l-0.1447301-0.2349815c-1.338309-2.1677494-1.182858-5.1014323,0.3796935-7.1328573
      	c1.2266345-1.59644,2.8794193-2.4716568,4.7805681-2.5514789c1.5518312-0.0609876,3.1134892,0.4205006,4.2570381,1.3218613
      	c2.5944252,2.0466716,3.2573261,5.5875397,1.5768461,8.4180813c-0.7397337,1.2457609-1.8823881,2.1955528-3.2430325,2.7067728
      	c0.2519379,0.3838625,0.4663534,0.8430634,0.712038,1.5139265l0.1581316,0.4394693
      	c0.4967279,1.3874674,0.7236509,1.5112371,1.2453957,1.5112371c0.2358561,0,0.4940481-0.1004505,0.6566467-0.256506
      	c0.3126888-0.2995567,0.4047089-0.8753519,0.2742729-1.7121372l-0.0428829-0.2726507l1.9949551-0.3148041l0.0428829,0.2726507
      	c0.235857,1.513031-0.0678978,2.7229156-0.8773155,3.4987144c-0.5422916,0.5183945-1.2891722,0.8152599-2.0485592,0.8152599
      	c-0.9309206,0-1.684948-0.3479881-2.239747-1.0332012c-0.3850546-0.4735508-0.5985765-0.9641418-0.9050112-1.8179684
      	l-0.152771-0.4260159c-0.3546791-0.9677296-0.6682615-1.4565268-1.1203203-1.7067556
      	c-0.1375828,0.5264664-0.2894602,1.0188513-0.453846,1.4681864C8.4599457,17.8026695,7.2315245,19,5.6734395,19z"/>
    </symbol>

    <symbol id="raft_circle">
      <title>Raft (circle)</title>
      <path d="M10,0.3999634c-5.3019409,0-9.5999756,4.2980957-9.5999756,9.6000366S4.6980591,19.5999756,10,19.5999756
      	S19.5999756,15.3019409,19.5999756,10S15.3019409,0.3999634,10,0.3999634z M13.2145996,14.1933594
      	c-0.2791138,0.2668457-0.6635742,0.4196167-1.0544434,0.4196167c-0.479248,0-0.8673706-0.1790771-1.1529541-0.5317993
      	c-0.1981812-0.2437744-0.3081055-0.4963379-0.4658203-0.9358521l-0.0786743-0.2192383
      	c-0.1825562-0.4981689-0.3439941-0.7497559-0.5766602-0.8786011c-0.0708618,0.2709961-0.1489868,0.5244751-0.2336426,0.7557983
      	c-0.4451294,1.2155151-1.0774536,1.8318481-1.8795166,1.8318481c-0.4515991,0-0.8493652-0.1855469-1.1202393-0.5220947
      	c-0.3320312-0.413208-0.4382935-0.9963379-0.2993774-1.6422119l0.0298462-0.138916l1.0158691,0.2220459l-0.0298462,0.1384888
      	c-0.0717773,0.3319702-0.0427856,0.5997314,0.0813599,0.7543945c0.076355,0.0946045,0.1848755,0.1431274,0.3223877,0.1431274
      	c0.3991699,0,0.795166-0.6389771,1.0940552-1.7594604c-0.3274536-0.1112671-0.6281738-0.2755737-0.895813-0.4902954
      	l-0.1099243-0.0881348L8.508728,10.43396l0.1107788,0.088623c0.1412354,0.1135864,0.2989502,0.2064209,0.470459,0.2765503
      	c0.0869141-0.4985962,0.1563721-1.0461426,0.2073975-1.6310425l0.0124512-0.1412964l1.0351562,0.0914307l-0.0123901,0.1412354
      	c-0.0524292,0.6020508-0.1237183,1.1671143-0.2115479,1.682373c0.7141724-0.0720215,1.3649292-0.477417,1.7268677-1.086792
      	c0.5932007-0.9990845,0.3572998-2.2496948-0.5606079-2.9740601c-0.3922729-0.3098145-0.9685059-0.4855957-1.5065918-0.4588623
      	C9.109314,6.4503174,8.5432129,6.7526245,8.0985107,7.3311157c-0.5353394,0.6957397-0.5918579,1.7386475-0.1342773,2.479126
      	l0.0744629,0.1204834l-0.8829346,0.5526733l-0.0745239-0.1209717C6.392334,9.246582,6.4723511,7.7364502,7.2766724,6.6907349
      	C7.9080811,5.8690186,8.7588501,5.418457,9.7374878,5.3773804c0.7988281-0.0313721,1.6026611,0.2164307,2.1913452,0.6804199
      	c1.3354492,1.0535278,1.6766968,2.8762207,0.8116455,4.333252c-0.3807373,0.6412354-0.9689331,1.130127-1.6693115,1.3933105
      	c0.1296387,0.1975708,0.2400513,0.43396,0.3665161,0.7792969l0.0813599,0.2261963
      	c0.2557373,0.7142334,0.3724976,0.7778931,0.6411133,0.7778931c0.1213989,0,0.2542725-0.0516968,0.3380127-0.132019
      	c0.1609497-0.1541748,0.208313-0.4505615,0.1411743-0.8812866l-0.0220947-0.1403809l1.0269165-0.1620483l0.0220947,0.1403809
      	C13.7876587,13.1712036,13.6312866,13.7940063,13.2145996,14.1933594z"/>
    </symbol>

    <symbol id="rainbow">
      <title>Rainbow</title>
      <path d="M10,5C4.4771729,5,0,9.4771118,0,15h1.5c0-4.694458,3.8056641-8.5,8.5-8.5s8.5,3.805542,8.5,8.5H20
      	C20,9.4771118,15.5228271,5,10,5z M10,11c-2.2092285,0-4,1.7908325-4,4h1.5c0-1.3807373,1.1192627-2.5,2.5-2.5
      	s2.5,1.1192627,2.5,2.5H14C14,12.7908325,12.2092285,11,10,11z M10,8c-3.8659668,0-7,3.1339722-7,7h1.5
      	c0-3.0375977,2.4624023-5.5,5.5-5.5s5.5,2.4624023,5.5,5.5H17C17,11.1339722,13.8659668,8,10,8z"/>
    </symbol>

    <symbol id="rdio">
      <title>Rdio</title>
      <path d="M16.203,10.001c0,4.307-3.448,7.799-7.701,7.799S0.8,14.308,0.8,10.001C0.8,5.692,4.248,2.2,8.501,2.2
      	c0.611,0,1.204,0.076,1.774,0.213v4.441c-0.902-0.33-2.01-0.281-3.053,0.223c-1.885,0.91-2.841,2.957-2.135,4.57
      	c0.705,1.615,2.807,2.188,4.691,1.277c1.299-0.627,2.443-2.137,2.443-4.029V3.171c0.162,0.09,0.32,0.188,0.475,0.289
      	c1.464,0.92,3.638,2.152,6.178,2.281c0.99,0.049-0.389,2.541-2.738,3.236C16.18,9.311,16.203,9.653,16.203,10.001z"/>
    </symbol>

    <symbol id="rdio_circle">
      <title>Rdio (circle)</title>
      <path d="M10,0.4c-5.302,0-9.6,4.298-9.6,9.6s4.298,9.6,9.6,9.6s9.6-4.298,9.6-9.6S15.302,0.4,10,0.4z M13.403,9.482
      	c0.022,0.17,0.034,0.342,0.034,0.518c0,2.176-1.742,3.941-3.892,3.941c-2.148,0-3.891-1.766-3.891-3.941
      	c0-2.178,1.742-3.942,3.891-3.942c0.309,0,0.608,0.039,0.896,0.107V8.41C9.987,8.244,9.426,8.268,8.9,8.521
      	c-0.952,0.461-1.435,1.494-1.079,2.311c0.357,0.816,1.418,1.106,2.371,0.645c0.656-0.316,1.234-1.078,1.234-2.035V6.549
      	c0.082,0.045,0.162,0.096,0.24,0.146c0.739,0.465,1.838,1.086,3.121,1.152C15.288,7.873,14.59,9.131,13.403,9.482z"/>
    </symbol>

    <symbol id="renren">
      <title>RenRen</title>
      <path d="M8.468,0.865C4.117,1.594,0.8,5.377,0.8,9.936c0,2.266,0.82,4.338,2.179,5.941c3.221-1.559,5.472-5.086,5.489-9.191V0.865z
      	 M10.002,12.258c-0.573,2.373-2.285,4.4-4.418,5.748C6.894,18.725,8.4,19.135,10,19.135c1.602,0,3.108-0.41,4.418-1.129
      	C12.285,16.658,10.574,14.631,10.002,12.258z M11.535,6.643c0,4.123,2.256,7.668,5.487,9.234c1.358-1.603,2.178-3.676,2.178-5.941
      	c0-4.559-3.315-8.34-7.665-9.07V6.643z"/>
    </symbol>

    <symbol id="scribd">
      <title>Scribd</title>
      <path d="M4.643,18.284c0,0.224-0.072,0.492-0.148,0.716h5.737c0.328-0.377,0.513-0.831,0.513-1.342c0-1.385-1.644-2.154-5.241-3.842
      	L4.998,13.58C3.225,12.737,1.912,11.995,1,11.111v4.398c0.176-0.024,0.359-0.042,0.558-0.042
      	C4.559,15.468,4.643,18.256,4.643,18.284z M17,1h-3.738c1.748,1.178,2.467,2.842,2.467,4.142c0,2.194-1.836,2.905-2.727,2.905
      	l-0.271,0.002c-2.046,0-3.09-1.247-3.104-3.707C9.506,4.246,8.939,3.889,7.28,3.889c-1.96,0-2.773,1.543-2.773,2.369
      	c0,0.973,0.543,2.055,4.484,3.382c6.736,2.254,6.736,5.255,6.736,7.903v0.026c0,0.437-0.031,0.924-0.117,1.431H17c1.1,0,2-0.899,2-2
      	V3C19,1.9,18.1,1,17,1z"/>
    </symbol>

    <symbol id="sina-weibo">
      <title>Sina-Weibo</title>
      <path d="M14.688,10.068c-0.274-0.084-0.463-0.142-0.319-0.508c0.311-0.797,0.344-1.484,0.007-1.975
      	c-0.633-0.92-2.364-0.871-4.348-0.025c0-0.002-0.623,0.277-0.464-0.227C9.87,6.336,9.823,5.5,9.348,5.018
      	C8.272,3.92,5.411,5.059,2.956,7.557C1.117,9.428,0.05,11.41,0.05,13.125c0,3.281,4.132,5.475,8.175,5.475
      	c5.299,0,8.825-3.334,8.825-5.822C17.05,11.273,15.806,10.42,14.688,10.068z M8.236,17.129c-3.225,0.32-6.011-1.147-6.22-3.275
      	c-0.209-2.129,2.236-4.115,5.462-4.438c3.226-0.32,6.011,1.146,6.22,3.275C13.907,14.822,11.462,16.809,8.236,17.129z M19.95,7.397
      	c-0.001-3.312-2.686-5.996-6-5.996c-0.387,0-0.699,0.312-0.699,0.699s0.312,0.699,0.699,0.699c2.541,0,4.601,2.061,4.601,4.602
      	c0,0.387,0.313,0.699,0.7,0.699S19.95,7.787,19.95,7.4V7.397z M17.169,7.295c-0.319-1.562-1.551-2.793-3.113-3.113
      	c-0.378-0.078-0.748,0.166-0.826,0.545c-0.077,0.377,0.166,0.748,0.545,0.826c1.016,0.207,1.816,1.008,2.024,2.023
      	c0.078,0.379,0.448,0.621,0.826,0.545C17.002,8.043,17.247,7.672,17.169,7.295z M6.582,11.502c-1.3,0.262-2.177,1.352-1.959,2.434
      	c0.218,1.084,1.447,1.75,2.747,1.488c1.299-0.262,2.176-1.352,1.959-2.434C9.111,11.908,7.88,11.24,6.582,11.502z"/>
    </symbol>

    <symbol id="skype">
      <title>Skype</title>
      <path d="M18.671,12.037c0.132-0.623,0.203-1.272,0.203-1.938c0-4.986-3.93-9.029-8.777-9.029c-0.511,0-1.012,0.047-1.5,0.133
      	C7.812,0.695,6.885,0.4,5.89,0.4C3.079,0.4,0.8,2.744,0.8,5.637c0,0.965,0.256,1.871,0.699,2.648
      	C1.383,8.871,1.321,9.479,1.321,10.1c0,4.986,3.93,9.029,8.775,9.029c0.551,0,1.087-0.051,1.607-0.15
      	c0.717,0.396,1.535,0.621,2.406,0.621c2.811,0,5.09-2.344,5.09-5.236C19.2,13.527,19.009,12.738,18.671,12.037z M14.599,14.416
      	c-0.406,0.59-1.006,1.059-1.783,1.391c-0.769,0.33-1.692,0.496-2.742,0.496c-1.26,0-2.317-0.227-3.143-0.678
      	c-0.59-0.328-1.076-0.771-1.445-1.318c-0.372-0.555-0.561-1.104-0.561-1.633c0-0.33,0.123-0.617,0.365-0.852
      	c0.24-0.232,0.549-0.352,0.916-0.352c0.301,0,0.562,0.094,0.773,0.277c0.202,0.176,0.375,0.438,0.514,0.773
      	c0.156,0.367,0.326,0.676,0.505,0.92c0.172,0.234,0.42,0.432,0.735,0.586c0.318,0.154,0.748,0.232,1.275,0.232
      	c0.725,0,1.32-0.158,1.768-0.473c0.438-0.309,0.65-0.676,0.65-1.127c0-0.357-0.111-0.637-0.34-0.857
      	c-0.238-0.228-0.555-0.408-0.936-0.531c-0.399-0.127-0.941-0.266-1.611-0.41c-0.91-0.201-1.683-0.439-2.299-0.707
      	c-0.63-0.275-1.137-0.658-1.508-1.137C5.357,8.533,5.165,7.924,5.165,7.209c0-0.682,0.2-1.297,0.596-1.828
      	c0.393-0.525,0.965-0.935,1.703-1.217C8.192,3.887,9.06,3.746,10.04,3.746c0.783,0,1.473,0.094,2.047,0.277
      	c0.578,0.186,1.066,0.436,1.449,0.744c0.387,0.311,0.674,0.643,0.854,0.986c0.182,0.35,0.275,0.695,0.275,1.031
      	c0,0.322-0.121,0.615-0.361,0.871c-0.24,0.258-0.543,0.387-0.9,0.387c-0.324,0-0.58-0.082-0.756-0.242
      	c-0.164-0.148-0.336-0.383-0.524-0.717c-0.219-0.428-0.484-0.766-0.788-1.002c-0.295-0.232-0.788-0.35-1.466-0.35
      	c-0.629,0-1.141,0.131-1.519,0.387C7.983,6.367,7.806,6.65,7.806,6.984c0,0.207,0.058,0.379,0.176,0.525
      	c0.125,0.158,0.301,0.295,0.523,0.41C8.735,8.039,8.972,8.133,9.21,8.201c0.244,0.07,0.654,0.172,1.215,0.307
      	c0.711,0.156,1.363,0.332,1.939,0.521c0.585,0.193,1.09,0.43,1.502,0.705c0.42,0.283,0.754,0.645,0.989,1.076
      	c0.237,0.434,0.357,0.969,0.357,1.59C15.213,13.145,15.006,13.822,14.599,14.416z"/>

    </symbol>

    <symbol id="skype_circle">
      <title>Skype (circle)</title>
      <path d="M12.164,9.852c-0.23-0.154-0.514-0.287-0.841-0.395C11,9.35,10.635,9.252,10.236,9.164C9.922,9.09,9.693,9.031,9.557,8.992
      	c-0.133-0.037-0.266-0.09-0.396-0.158C9.037,8.77,8.938,8.693,8.868,8.605c-0.065-0.082-0.098-0.18-0.098-0.295
      	c0-0.188,0.1-0.346,0.305-0.484c0.212-0.143,0.499-0.215,0.851-0.215c0.38,0,0.656,0.064,0.821,0.193
      	c0.17,0.133,0.318,0.322,0.44,0.562c0.106,0.188,0.201,0.318,0.294,0.4c0.099,0.09,0.241,0.137,0.423,0.137
      	c0.201,0,0.37-0.072,0.505-0.217c0.134-0.143,0.202-0.307,0.202-0.488c0-0.188-0.053-0.383-0.154-0.576
      	c-0.101-0.193-0.262-0.379-0.477-0.553c-0.215-0.174-0.487-0.312-0.811-0.416c-0.322-0.104-0.709-0.156-1.147-0.156
      	c-0.55,0-1.035,0.078-1.443,0.234C8.166,6.889,7.845,7.119,7.625,7.414C7.403,7.711,7.291,8.055,7.291,8.437
      	c0,0.4,0.107,0.74,0.318,1.012c0.207,0.268,0.492,0.482,0.844,0.637c0.346,0.15,0.778,0.283,1.289,0.396
      	c0.374,0.08,0.678,0.158,0.901,0.23c0.214,0.068,0.391,0.168,0.525,0.297c0.127,0.123,0.189,0.279,0.189,0.481
      	c0,0.252-0.119,0.457-0.363,0.631c-0.251,0.176-0.584,0.264-0.99,0.264c-0.296,0-0.535-0.043-0.714-0.131
      	c-0.177-0.086-0.315-0.195-0.412-0.326c-0.101-0.137-0.195-0.311-0.282-0.516c-0.078-0.189-0.176-0.334-0.289-0.434
      	c-0.117-0.104-0.264-0.154-0.432-0.154c-0.207,0-0.379,0.066-0.514,0.195c-0.136,0.133-0.205,0.293-0.205,0.479
      	c0,0.295,0.106,0.604,0.315,0.912c0.207,0.309,0.479,0.557,0.81,0.74c0.462,0.252,1.054,0.379,1.76,0.379
      	c0.588,0,1.104-0.094,1.536-0.277c0.435-0.186,0.771-0.449,0.998-0.779c0.228-0.332,0.344-0.713,0.344-1.129
      	c0-0.348-0.067-0.648-0.2-0.891C12.586,10.211,12.399,10.01,12.164,9.852z M10,0.4c-5.302,0-9.6,4.298-9.6,9.6s4.298,9.6,9.6,9.6
      	s9.6-4.298,9.6-9.6S15.302,0.4,10,0.4z M12.301,15.375c-0.487,0-0.946-0.125-1.348-0.348c-0.291,0.057-0.592,0.086-0.9,0.086
      	c-2.713,0-4.914-2.266-4.914-5.057c0-0.35,0.035-0.69,0.1-1.018C4.99,8.604,4.847,8.098,4.847,7.557
      	c0-1.619,1.276-2.934,2.851-2.934c0.557,0,1.076,0.166,1.516,0.451C9.486,5.025,9.768,5,10.053,5c2.715,0,4.915,2.264,4.915,5.057
      	c0,0.371-0.039,0.734-0.113,1.084c0.189,0.393,0.296,0.834,0.296,1.303C15.15,14.062,13.875,15.375,12.301,15.375z"/>
    </symbol>

    <symbol id="slideshare">
      <title>Slideshare</title>
      <path d="M13,7.08c1.381,0,2.5-1.119,2.5-2.5s-1.119-2.5-2.5-2.5s-2.5,1.119-2.5,2.5S11.62,7.08,13,7.08z M18.845,5.943
      	C15.265,8.498,13.616,8.051,12,8c-1.118-0.057-1.5,0.298-1.5,1.08l0.001,6c0,5,8.421,3.43,5.165-4.949
      	c1.671-0.959,3.076-2.434,3.876-3.412C19.953,6.111,19.514,5.474,18.845,5.943z M7,2.08c-1.381,0-2.5,1.119-2.5,2.5
      	s1.119,2.5,2.5,2.5s2.5-1.119,2.5-2.5S8.38,2.08,7,2.08z M8,8C6.384,8.051,4.735,8.498,1.155,5.943
      	C0.486,5.474,0.047,6.111,0.458,6.718c0.8,0.979,2.205,2.453,3.876,3.412c-3.256,8.379,5.165,9.949,5.165,4.949l0.001-6
      	C9.5,8.298,9.118,7.943,8,8z"/>
    </symbol>

    <symbol id="smashing">
      <title>Smashing</title>
      <path d="M10.023,16.032c-2.508,0-4.253-1.555-4.253-1.555L4.287,17.84c1.023,0.547,2.092,0.936,2.709,1.141l-1.592,0.381
      	c-0.746,0.178-1.496-0.283-1.675-1.029L0.639,5.405C0.46,4.659,0.92,3.909,1.667,3.729L5.383,2.84
      	c-0.91,1.029-1.263,2.252-1.174,3.65c0.139,2.193,2.237,3.879,4.734,4.822C13.644,13.088,12.529,16.032,10.023,16.032z
      	 M19.361,14.594L16.27,1.666c-0.178-0.746-0.928-1.207-1.675-1.027l-2.663,0.637c0.679,0.105,2.024,0.4,3.505,1.178l-1.159,3.213
      	c0,0-0.965-1.078-3.553-1.209c-2.46-0.125-3.828,2.537,0.969,4.105c3.674,1.201,4.848,3.516,4.787,5.658
      	c-0.031,1.113-0.421,2.018-0.872,2.701l2.725-0.652C19.08,16.092,19.54,15.342,19.361,14.594z"/>
    </symbol>

    <symbol id="soundcloud">
      <title>Soundcloud</title>
      <path d="M0.672,13.055L1,11.654l-0.328-1.447c-0.009-0.043-0.092-0.076-0.191-0.076c-0.102,0-0.184,0.033-0.191,0.076L0,11.654
      	l0.289,1.4c0.008,0.045,0.09,0.076,0.191,0.076C0.58,13.131,0.663,13.1,0.672,13.055z M2.723,13.832L3,11.668L2.723,8.32
      	C2.714,8.236,2.609,8.168,2.484,8.168c-0.127,0-0.233,0.068-0.238,0.152L2,11.668l0.246,2.164c0.006,0.086,0.111,0.152,0.238,0.152
      	C2.609,13.984,2.714,13.918,2.723,13.832z M4.768,13.797L5,11.67L4.768,7.213C4.762,7.107,4.639,7.025,4.486,7.025
      	c-0.152,0-0.275,0.082-0.281,0.188L4,11.67l0.205,2.129c0.006,0.103,0.129,0.186,0.281,0.186
      	C4.639,13.984,4.762,13.902,4.768,13.797z M6.81,13.766L7,11.67L6.81,7.18C6.805,7.057,6.664,6.959,6.49,6.959
      	c-0.176,0-0.316,0.098-0.321,0.221L6,11.67l0.17,2.096c0.004,0.123,0.145,0.221,0.32,0.221C6.664,13.986,6.805,13.891,6.81,13.766z
      	 M8.85,13.738L9,11.672L8.85,6.523C8.846,6.381,8.686,6.268,8.492,6.268c-0.194,0-0.354,0.115-0.357,0.256L8,11.67l0.135,2.068
      	c0.003,0.141,0.163,0.256,0.357,0.256C8.686,13.994,8.846,13.881,8.85,13.738z M10.277,13.996c0.008,0,7.1,0.004,7.145,0.004
      	C18.846,14,20,12.883,20,11.506c0-1.377-1.154-2.492-2.578-2.492c-0.353,0-0.689,0.07-0.996,0.193
      	c-0.205-2.246-2.153-4.008-4.529-4.008c-0.581,0-1.148,0.111-1.648,0.297C10.053,5.57,10.002,5.644,10,5.791v7.91
      	C10.002,13.854,10.124,13.98,10.277,13.996z"/>
    </symbol>

    <symbol id="spotify">
      <title>Spotify</title>
      <path d="M10,1.2c-4.861,0-8.8,3.938-8.8,8.8c0,4.859,3.939,8.8,8.8,8.8c4.862,0,8.799-3.94,8.799-8.8
        C18.799,5.139,14.863,1.2,10,1.2z M13.478,14.502c-0.173,0-0.294-0.066-0.421-0.143c-1.189-0.721-2.662-1.099-4.258-1.099
        c-0.814,0-1.693,0.097-2.61,0.285l-0.112,0.028c-0.116,0.028-0.235,0.059-0.326,0.059c-0.371,0-0.661-0.288-0.661-0.656
        c0-0.373,0.21-0.637,0.562-0.703c1.096-0.25,2.128-0.372,3.152-0.372c1.855,0,3.513,0.43,4.931,1.279
        c0.243,0.142,0.396,0.306,0.396,0.668C14.13,14.209,13.838,14.502,13.478,14.502z M14.391,11.941c-0.207,0-0.343-0.079-0.463-0.149
        c-2.143-1.271-5.333-1.693-7.961-0.993c-0.044,0.013-0.084,0.025-0.12,0.037c-0.099,0.031-0.191,0.062-0.321,0.062
        c-0.432,0-0.783-0.353-0.783-0.788c0-0.419,0.219-0.712,0.614-0.824C6.37,9.008,7.321,8.824,8.69,8.824
        c2.212,0,4.357,0.555,6.038,1.561c0.306,0.175,0.445,0.414,0.445,0.771C15.173,11.59,14.822,11.941,14.391,11.941z M15.427,9.021
        c-0.195,0-0.315-0.047-0.495-0.144c-1.453-0.872-3.72-1.391-6.069-1.391c-1.224,0-2.336,0.135-3.306,0.397
        C5.524,7.891,5.493,7.9,5.459,7.91C5.356,7.941,5.227,7.978,5.094,7.978c-0.516,0-0.919-0.408-0.919-0.929
        c0-0.453,0.254-0.799,0.68-0.925c1.171-0.346,2.519-0.521,4.006-0.521c2.678,0,5.226,0.595,6.991,1.631
        c0.332,0.189,0.495,0.475,0.495,0.872C16.347,8.619,15.943,9.021,15.427,9.021z"/>
    </symbol>

    <symbol id="spotify_circle">
      <title>Spotify (circle)</title>
      <path d="M10,0.4c-5.302,0-9.6,4.298-9.6,9.6s4.298,9.6,9.6,9.6s9.6-4.298,9.6-9.6S15.302,0.4,10,0.4z M12.964,13.837
      	c-0.148,0-0.25-0.056-0.359-0.122c-1.013-0.613-2.268-0.935-3.628-0.935c-0.694,0-1.443,0.082-2.226,0.242l-0.095,0.024
      	c-0.1,0.024-0.201,0.05-0.279,0.05c-0.315,0-0.562-0.245-0.562-0.559c0-0.318,0.18-0.543,0.479-0.6
      	c0.934-0.213,1.814-0.316,2.687-0.316c1.58,0,2.994,0.365,4.201,1.09c0.208,0.121,0.338,0.26,0.338,0.569
      	C13.519,13.588,13.271,13.837,12.964,13.837z M13.742,11.654c-0.177,0-0.292-0.067-0.395-0.127
      	c-1.825-1.084-4.547-1.443-6.785-0.847c-0.037,0.011-0.07,0.021-0.102,0.031c-0.084,0.027-0.164,0.053-0.274,0.053
      	c-0.368,0-0.667-0.301-0.667-0.672c0-0.357,0.186-0.607,0.524-0.702c0.862-0.236,1.674-0.393,2.84-0.393
      	c1.886,0,3.714,0.473,5.146,1.33c0.261,0.148,0.379,0.353,0.379,0.658C14.408,11.355,14.109,11.654,13.742,11.654z M14.625,9.166
      	c-0.166,0-0.269-0.039-0.421-0.123c-1.239-0.744-3.171-1.186-5.174-1.186c-1.043,0-1.99,0.115-2.817,0.338
      	C6.185,8.202,6.158,8.21,6.13,8.219C6.042,8.245,5.932,8.277,5.818,8.277c-0.439,0-0.783-0.348-0.783-0.792
      	c0-0.386,0.217-0.681,0.579-0.788c0.998-0.295,2.148-0.443,3.415-0.443c2.281,0,4.453,0.506,5.957,1.391
      	c0.284,0.16,0.423,0.404,0.423,0.742C15.409,8.823,15.064,9.166,14.625,9.166z"/>
    </symbol>

    <symbol id="stumbleupon">
      <title>StumbleUpon</title>
      <path d="M11.051,8.059l1.365,0.66l2.059-0.66V6.865C14.475,4.402,12.467,2.4,10,2.4S5.525,4.402,5.525,6.865v6.27
      	c0,0.578-0.472,1.049-1.051,1.049c-0.58,0-1.051-0.471-1.051-1.049V10.51H0v2.625C0,15.596,2.007,17.6,4.475,17.6
      	c2.467,0,4.474-2.004,4.474-4.465v-6.27c0-0.578,0.472-1.049,1.052-1.049c0.579,0,1.051,0.471,1.051,1.049V8.059z M16.576,10.51
      	v2.625c0,0.578-0.471,1.049-1.051,1.049c-0.58,0-1.051-0.471-1.051-1.049v-2.678l-2.059,0.658l-1.365-0.658v2.678
      	c0,2.461,2.008,4.465,4.475,4.465S20,15.596,20,13.135V10.51H16.576z"/>
    </symbol>

    <symbol id="stumbleupon_circle">
      <title>StumbleUpon (circle)</title>
      <path d="M10,0.4c-5.302,0-9.6,4.298-9.6,9.6s4.298,9.6,9.6,9.6s9.6-4.298,9.6-9.6S15.302,0.4,10,0.4z M10,7.785
      	c-0.293,0-0.531,0.238-0.531,0.529v3.168c0,1.244-1.015,2.256-2.261,2.256s-2.261-1.012-2.261-2.256v-1.326h1.729v1.326
      	c0,0.293,0.238,0.529,0.531,0.529c0.293,0,0.531-0.236,0.531-0.529V8.314C7.74,7.07,8.753,6.059,10,6.059
      	c1.246,0,2.261,1.012,2.261,2.256v0.603l-1.04,0.334l-0.69-0.334V8.314C10.531,8.023,10.294,7.785,10,7.785z M15.053,11.482
      	c0,1.244-1.015,2.256-2.261,2.256c-1.247,0-2.262-1.012-2.262-2.256v-1.354l0.69,0.334l1.04-0.334v1.354
      	c0,0.293,0.238,0.529,0.531,0.529c0.293,0,0.53-0.236,0.53-0.529v-1.326h1.731V11.482z"/>
    </symbol>

      <symbol id="swarm">
        <title>Swarm</title>
        <path d="M10.286,18.821c-1.429-0.232-2.733-0.607-3.677-0.923c-0.046-0.015-0.781-0.282-1.007-0.37
        	c-0.278-0.107-0.423-0.431-0.317-0.71c0.086-0.225,0.379-0.949,0.399-0.994c0.4-0.92,1-2.153,1.795-3.379
        	c0.029,1.203,0.297,2.399,0.791,3.506C8.75,17.028,9.439,18.007,10.286,18.821z M10.173,7.027c-2.791-5.689-8.99-5.486-9.968-2.943
        	c-0.751,1.952,2.535,6.602,10.097,3.244c0.002-0.001,0.002-0.001,0.004-0.002C10.28,7.279,10.192,7.079,10.173,7.027z M11.56,6.805
        	c0.001,0,0.002-0.001,0.002-0.001c4.271-1.897,3.674-5.191,2.569-5.614c-1.487-0.569-4.19,1.624-2.647,5.447
        	C11.499,6.664,11.55,6.777,11.56,6.805z M19.413,10.97C18.767,9.52,17.58,8.481,16.2,7.986c-0.139-0.05-0.281-0.073-0.423-0.073
        	c-0.717,0-1.407,0.595-1.472,1.338c-0.109,1.239,0.137,2.501,0.68,3.718c0.535,1.199,1.294,2.213,2.27,2.957
        	c0.254,0.194,0.565,0.285,0.875,0.285c0.559,0,1.117-0.296,1.339-0.826C20.04,14.023,20.066,12.432,19.413,10.97z M16.172,17.339
        	c-1.195-0.912-2.142-2.139-2.815-3.646c-0.682-1.529-0.961-3.075-0.827-4.596c0.037-0.423,0.161-0.831,0.36-1.204
        	c-0.035,0.009-0.111,0.027-0.114,0.028c-0.628,0.157-1.237,0.429-1.778,0.784c-0.784,0.514-1.475,1.277-1.772,2.177
        	c-0.08,0.243-0.141,0.51-0.161,0.765c-0.095,1.218,0.103,2.476,0.636,3.67c0.516,1.155,1.285,2.118,2.213,2.853
        	C12.48,18.617,13.5,18.9,14.334,18.9c0.783,0,1.556-0.233,2.25-0.585c0.217-0.11,0.695-0.408,0.726-0.429
        	C16.895,17.78,16.506,17.594,16.172,17.339z"/>
      </symbol>

      <symbol id="tripadvisor">
        <title>TripAdvisor</title>
        <path d="M20,6.0090332h-2.8286133C15.2119141,4.6748047,12.8125,4,10,4S4.7880859,4.6748047,2.8286133,6.0090332H0
        	C0.4279785,6.4293823,0.8271484,7.348877,0.9931641,8.0480957C0.3771973,8.8793335,0,9.8972778,0,11.0090332
        	c0,2.7568359,2.2431641,5,5,5c1.3266602,0,2.5268555-0.5282593,3.4228516-1.3746338L10,17l1.5771484-2.3656006
        	C12.4731445,15.4807739,13.6733398,16.0090332,15,16.0090332c2.7568359,0,5-2.2431641,5-5
        	c0-1.1117554-0.3771973-2.1296997-0.9931641-2.9609375C19.1728516,7.348877,19.5720215,6.4293823,20,6.0090332z M5,14.4090576
        	c-1.8745117,0-3.3999023-1.5254517-3.3999023-3.4000244S3.1254883,7.6090088,5,7.6090088s3.3999023,1.5254517,3.3999023,3.4000244
        	S6.8745117,14.4090576,5,14.4090576z M10,11.0090332c0-2.4172974-1.7250977-4.4382935-4.0085449-4.8997803
        	C7.1948242,5.7042847,8.5290527,5.5,10,5.5s2.8051758,0.2042847,4.0085449,0.6092529
        	C11.7250977,6.5707397,10,8.5917358,10,11.0090332z M15,14.4090576c-1.8745117,0-3.3999023-1.5254517-3.3999023-3.4000244
        	S13.1254883,7.6090088,15,7.6090088s3.3999023,1.5254517,3.3999023,3.4000244S16.8745117,14.4090576,15,14.4090576z M5,8.8590088
        	c-1.1850586,0-2.1499023,0.9644775-2.1499023,2.1500244S3.8149414,13.1590576,5,13.1590576s2.1499023-0.9644775,2.1499023-2.1500244
        	S6.1850586,8.8590088,5,8.8590088z M5,11.6500244c-0.3588867,0-0.6499023-0.2910156-0.6499023-0.6500244
        	S4.6411133,10.3499756,5,10.3499756S5.6499023,10.6409912,5.6499023,11S5.3588867,11.6500244,5,11.6500244z M15,8.8590088
        	c-1.1850586,0-2.1499023,0.9644775-2.1499023,2.1500244S13.8149414,13.1590576,15,13.1590576
        	s2.1499023-0.9644775,2.1499023-2.1500244S16.1850586,8.8590088,15,8.8590088z M15,11.6500244
        	c-0.3588867,0-0.6499023-0.2910156-0.6499023-0.6500244S14.6411133,10.3499756,15,10.3499756S15.6499023,10.6409912,15.6499023,11
        	S15.3588867,11.6500244,15,11.6500244z"/>
      </symbol>

      <symbol id="tumblr">
        <title>Tumblr</title>
        <path d="M15.6,18.196c-0.777,0.371-1.48,0.631-2.109,0.781c-0.63,0.148-1.311,0.223-2.043,0.223c-0.831,0-1.566-0.107-2.205-0.318
        	c-0.639-0.213-1.183-0.516-1.635-0.908c-0.451-0.395-0.764-0.812-0.938-1.254c-0.174-0.443-0.261-1.086-0.261-1.926V8.339H4.4V5.735
        	c0.714-0.234,1.326-0.57,1.835-1.01c0.51-0.438,0.918-0.965,1.227-1.58C7.77,2.532,7.981,1.749,8.098,0.8h2.585v4.652h4.314v2.887
        	h-4.314v4.719c0,1.066,0.056,1.752,0.168,2.055c0.111,0.303,0.319,0.545,0.622,0.725c0.403,0.244,0.863,0.367,1.381,0.367
        	c0.92,0,1.836-0.303,2.746-0.908V18.196z"/>
      </symbol>

      <symbol id="tumblr_cirlce">
        <title>Tumblr (circle)</title>
        <path d="M10,0.4c-5.302,0-9.6,4.298-9.6,9.6s4.298,9.6,9.6,9.6s9.6-4.298,9.6-9.6S15.302,0.4,10,0.4z M12.577,14.141
        	c-0.393,0.188-0.748,0.318-1.066,0.395c-0.318,0.074-0.662,0.113-1.031,0.113c-0.42,0-0.791-0.055-1.114-0.162
        	c-0.323-0.107-0.598-0.26-0.826-0.459c-0.228-0.197-0.386-0.41-0.474-0.633c-0.088-0.225-0.132-0.549-0.132-0.973V9.16H6.918V7.846
        	c0.359-0.119,0.67-0.289,0.927-0.512c0.257-0.221,0.464-0.486,0.619-0.797C8.62,6.227,8.727,5.83,8.786,5.352h1.307v2.35h2.18V9.16
        	h-2.18v2.385c0,0.539,0.028,0.885,0.085,1.037c0.056,0.154,0.161,0.275,0.315,0.367c0.204,0.123,0.437,0.185,0.697,0.185
        	c0.466,0,0.928-0.154,1.388-0.461V14.141z"/>
      </symbol>

      <symbol id="twitter">
        <title>Twitter</title>
        <path d="M17.316,6.246c0.008,0.162,0.011,0.326,0.011,0.488c0,4.99-3.797,10.742-10.74,10.742c-2.133,0-4.116-0.625-5.787-1.697
        	c0.296,0.035,0.596,0.053,0.9,0.053c1.77,0,3.397-0.604,4.688-1.615c-1.651-0.031-3.046-1.121-3.526-2.621
        	c0.23,0.043,0.467,0.066,0.71,0.066c0.345,0,0.679-0.045,0.995-0.131c-1.727-0.348-3.028-1.873-3.028-3.703c0-0.016,0-0.031,0-0.047
        	c0.509,0.283,1.092,0.453,1.71,0.473c-1.013-0.678-1.68-1.832-1.68-3.143c0-0.691,0.186-1.34,0.512-1.898
        	C3.942,5.498,6.725,7,9.862,7.158C9.798,6.881,9.765,6.594,9.765,6.297c0-2.084,1.689-3.773,3.774-3.773
        	c1.086,0,2.067,0.457,2.756,1.191c0.859-0.17,1.667-0.484,2.397-0.916c-0.282,0.881-0.881,1.621-1.66,2.088
        	c0.764-0.092,1.49-0.293,2.168-0.594C18.694,5.051,18.054,5.715,17.316,6.246z"/>
      </symbol>

        <symbol id="twitter_circle">
          <title>Twitter (circle)</title>
          <path d="M10,0.4c-5.302,0-9.6,4.298-9.6,9.6s4.298,9.6,9.6,9.6s9.6-4.298,9.6-9.6S15.302,0.4,10,0.4z M13.905,8.264
          	c0.004,0.082,0.005,0.164,0.005,0.244c0,2.5-1.901,5.381-5.379,5.381c-1.068,0-2.062-0.312-2.898-0.85
          	c0.147,0.018,0.298,0.025,0.451,0.025c0.886,0,1.701-0.301,2.348-0.809c-0.827-0.016-1.525-0.562-1.766-1.312
          	c0.115,0.021,0.233,0.033,0.355,0.033c0.172,0,0.34-0.023,0.498-0.066c-0.865-0.174-1.517-0.938-1.517-1.854V9.033
          	C6.257,9.174,6.549,9.26,6.859,9.27C6.351,8.93,6.018,8.352,6.018,7.695c0-0.346,0.093-0.672,0.256-0.951
          	c0.933,1.144,2.325,1.896,3.897,1.977c-0.033-0.139-0.049-0.283-0.049-0.432c0-1.043,0.846-1.891,1.891-1.891
          	c0.543,0,1.035,0.23,1.38,0.598c0.431-0.086,0.835-0.242,1.2-0.459c-0.141,0.441-0.44,0.812-0.831,1.047
          	c0.383-0.047,0.747-0.148,1.086-0.299C14.595,7.664,14.274,7.998,13.905,8.264z"/>
        </symbol>

        <symbol id="vimeo">
          <title>vimeo</title>
          <path d="M18.91,5.84c-1.006,5.773-6.625,10.66-8.315,11.777c-1.69,1.115-3.233-0.447-3.792-1.631
          	C6.162,14.639,4.244,7.33,3.741,6.725C3.238,6.119,1.731,7.33,1.731,7.33L1,6.354c0,0,3.061-3.725,5.391-4.191
          	C8.861,1.67,8.857,6.027,9.451,8.445c0.574,2.342,0.961,3.68,1.463,3.68c0.502,0,1.462-1.305,2.512-3.305
          	c1.053-2.004-0.045-3.772-2.101-2.514C12.148,1.279,19.916,0.07,18.91,5.84z"/>
        </symbol>

        <symbol id="vimeo_circle">
          <title>Vimeo (circle)</title>
          <path d="M10,0.4c-5.302,0-9.6,4.298-9.6,9.6s4.298,9.6,9.6,9.6s9.6-4.298,9.6-9.6S15.302,0.4,10,0.4z M14.401,8.15
          	c-0.508,2.916-3.348,5.387-4.201,5.951c-0.854,0.562-1.634-0.227-1.916-0.824c-0.324-0.682-1.293-4.373-1.547-4.68
          	C6.483,8.291,5.721,8.904,5.721,8.904L5.352,8.41c0,0,1.547-1.883,2.724-2.117c1.248-0.25,1.246,1.951,1.546,3.174
          	c0.291,1.183,0.486,1.859,0.739,1.859c0.254,0,0.739-0.658,1.269-1.67c0.532-1.012-0.022-1.906-1.061-1.27
          	C10.984,5.846,14.909,5.234,14.401,8.15z"/>
        </symbol>

        <symbol id="vine">
          <title>Vine</title>
          <path d="M17.452,9.951c-0.438,0.101-0.863,0.145-1.244,0.145c-2.145,0-3.797-1.496-3.797-4.102c0-1.277,0.493-1.941,1.192-1.941
          	c0.664,0,1.107,0.596,1.107,1.805c0,0.688-0.184,1.44-0.32,1.887c0,0,0.66,1.152,2.469,0.799c0.385-0.852,0.593-1.956,0.593-2.924
          	c0-2.605-1.33-4.119-3.763-4.119c-2.504,0-3.968,1.922-3.968,4.461c0,2.512,1.175,4.668,3.113,5.651
          	c-0.815,1.629-1.852,3.065-2.933,4.146c-1.961-2.371-3.734-5.534-4.463-11.706H2.548c1.335,10.279,5.319,13.553,6.373,14.181
          	c0.596,0.358,1.108,0.341,1.654,0.034c0.855-0.485,3.422-3.054,4.847-6.061c0.597-0.002,1.314-0.069,2.03-0.231V9.951z"/>
        </symbol>

        <symbol id="vine_circle">
          <title>Vine (cirlce)</title>
          <path d="M10,0.4c-5.302,0-9.6,4.298-9.6,9.6s4.298,9.6,9.6,9.6s9.6-4.298,9.6-9.6S15.302,0.4,10,0.4z M11.908,6.851
          	c-0.37,0-0.632,0.352-0.632,1.028c0,1.378,0.875,2.171,2.011,2.171c0.201,0,0.427-0.024,0.658-0.077v1.072
          	c-0.378,0.086-0.758,0.121-1.074,0.123c-0.755,1.591-2.113,2.951-2.565,3.208c-0.29,0.163-0.561,0.172-0.878-0.018
          	c-0.559-0.333-2.668-2.065-3.373-7.508h1.53c0.387,3.268,1.325,4.941,2.363,6.196c0.571-0.571,1.121-1.332,1.552-2.193
          	c-1.025-0.522-1.648-1.663-1.648-2.992c0-1.345,0.775-2.362,2.102-2.362c1.287,0,1.991,0.802,1.991,2.181
          	c0,0.514-0.109,1.098-0.314,1.548c-0.957,0.188-1.305-0.423-1.305-0.423c0.07-0.236,0.168-0.635,0.168-0.998
          	C12.495,7.167,12.26,6.851,11.908,6.851z"/>
        </symbol>

        <symbol id="vk">
          <title>VK</title>
          <path fill-rule="evenodd" clip-rule="evenodd" d="M17.802,12.298c0,0,1.617,1.597,2.017,2.336c0.011,0.016,0.016,0.028,0.018,0.035
          	c0.163,0.273,0.203,0.487,0.123,0.645c-0.135,0.261-0.592,0.392-0.747,0.403c0,0-2.778,0-2.858,0c-0.199,0-0.613-0.052-1.117-0.4
          	c-0.385-0.269-0.768-0.712-1.139-1.145c-0.554-0.643-1.033-1.201-1.518-1.201c-0.062,0-0.122,0.01-0.18,0.03
          	c-0.367,0.116-0.833,0.639-0.833,2.032c0,0.436-0.344,0.684-0.585,0.684c0,0-1.248,0-1.309,0c-0.446,0-2.768-0.156-4.827-2.327
          	c-2.523-2.658-4.789-7.99-4.811-8.037C-0.105,5.008,0.191,4.82,0.511,4.82h2.886c0.387,0,0.513,0.234,0.601,0.444
          	c0.102,0.241,0.48,1.205,1.1,2.288c1.004,1.762,1.621,2.479,2.114,2.479c0.093,0,0.181-0.023,0.264-0.07
          	c0.644-0.354,0.524-2.654,0.494-3.128c0-0.092-0.001-1.027-0.331-1.479C7.403,5.03,7.001,4.904,6.758,4.858
          	c0.065-0.094,0.203-0.238,0.38-0.323c0.441-0.22,1.238-0.252,2.029-0.252h0.439c0.858,0.012,1.08,0.067,1.392,0.146
          	c0.628,0.15,0.64,0.557,0.585,1.943c-0.016,0.396-0.033,0.842-0.033,1.367c0,0.112-0.005,0.237-0.005,0.364
          	c-0.019,0.711-0.044,1.512,0.458,1.841c0.064,0.04,0.139,0.062,0.217,0.062c0.174,0,0.695,0,2.108-2.425
          	c0.62-1.071,1.1-2.334,1.133-2.429c0.028-0.053,0.112-0.202,0.214-0.262c0.078-0.048,0.182-0.056,0.236-0.056h3.395
          	c0.37,0,0.621,0.056,0.67,0.196c0.082,0.227-0.016,0.92-1.566,3.016c-0.261,0.349-0.49,0.651-0.691,0.915
          	C16.314,10.805,16.314,10.898,17.802,12.298z"/>
        </symbol>

        <symbol id="vk_alt">
          <title>VK (alternative)</title>
          <path d="M19,17V3c0-1.1-0.903-2-2.005-2H3.005C1.855,1,1,1.853,1,3v14c0,1.148,0.855,2,2.005,2h13.99C18.097,19,19,18.101,19,17z
          	 M15.184,11.607c0,0,1.132,1.117,1.411,1.635c0.008,0.011,0.011,0.021,0.014,0.025c0.113,0.19,0.142,0.34,0.085,0.45
          	C16.6,13.9,16.28,13.992,16.171,14c0,0-1.943,0-1.999,0c-0.14,0-0.43-0.036-0.782-0.279c-0.27-0.188-0.537-0.499-0.797-0.802
          	c-0.388-0.45-0.724-0.84-1.062-0.84c-0.043,0-0.086,0.007-0.126,0.021c-0.257,0.082-0.583,0.447-0.583,1.422
          	c0,0.305-0.24,0.479-0.41,0.479c0,0-0.872,0-0.916,0c-0.312,0-1.937-0.109-3.376-1.628c-1.766-1.86-3.352-5.591-3.366-5.624
          	c-0.1-0.241,0.107-0.372,0.332-0.372h2.02c0.271,0,0.358,0.164,0.42,0.311C5.596,6.855,5.86,7.529,6.292,8.287
          	c0.703,1.233,1.136,1.735,1.481,1.735c0.064,0,0.126-0.017,0.184-0.049c0.451-0.249,0.367-1.857,0.347-2.189
          	c0-0.063-0.001-0.719-0.231-1.034C7.907,6.522,7.626,6.435,7.456,6.402c0.045-0.065,0.142-0.166,0.266-0.226
          	C8.031,6.022,8.588,6,9.142,6h0.308c0.601,0.008,0.757,0.047,0.974,0.102c0.439,0.105,0.448,0.39,0.409,1.36
          	c-0.011,0.276-0.023,0.589-0.023,0.956c0,0.079-0.003,0.166-0.003,0.256c-0.014,0.496-0.03,1.057,0.32,1.287
          	c0.046,0.028,0.097,0.044,0.151,0.044c0.122,0,0.487,0,1.476-1.697c0.435-0.749,0.77-1.633,0.793-1.699
          	c0.02-0.036,0.079-0.142,0.148-0.183c0.056-0.033,0.128-0.039,0.166-0.039h2.375c0.26,0,0.436,0.039,0.469,0.138
          	c0.057,0.159-0.011,0.644-1.096,2.11c-0.184,0.243-0.343,0.455-0.483,0.64C14.142,10.563,14.142,10.629,15.184,11.607z"/>
        </symbol>

        <symbol id="vk_circle">
          <title>VK (circle)</title>
          <path d="M10,0.4c-5.302,0-9.6,4.298-9.6,9.6s4.298,9.6,9.6,9.6s9.6-4.298,9.6-9.6S15.302,0.4,10,0.4z M13.692,11.231
          	c0,0,0.849,0.838,1.058,1.227c0.006,0.008,0.009,0.016,0.011,0.02c0.085,0.143,0.105,0.254,0.063,0.337
          	c-0.07,0.138-0.31,0.206-0.392,0.212c0,0-1.458,0-1.5,0c-0.104,0-0.322-0.027-0.586-0.209c-0.203-0.142-0.403-0.375-0.598-0.602
          	c-0.291-0.338-0.543-0.63-0.797-0.63c-0.032,0-0.065,0.005-0.095,0.015c-0.192,0.062-0.438,0.336-0.438,1.066
          	c0,0.228-0.18,0.359-0.307,0.359c0,0-0.655,0-0.687,0c-0.234,0-1.453-0.082-2.533-1.221C5.569,10.41,4.379,7.612,4.369,7.586
          	c-0.075-0.181,0.08-0.278,0.249-0.278h1.515c0.202,0,0.268,0.123,0.314,0.232c0.054,0.127,0.252,0.632,0.577,1.2
          	c0.527,0.926,0.85,1.302,1.109,1.302c0.049,0,0.094-0.013,0.139-0.036c0.338-0.188,0.275-1.393,0.26-1.643
          	c0-0.047-0.001-0.539-0.174-0.775C8.234,7.417,8.023,7.352,7.895,7.328c0.033-0.049,0.107-0.124,0.199-0.169
          	c0.232-0.116,0.65-0.133,1.065-0.133h0.231c0.45,0.006,0.566,0.035,0.729,0.076c0.33,0.079,0.337,0.292,0.308,1.021
          	c-0.009,0.207-0.018,0.441-0.018,0.717c0,0.06-0.003,0.124-0.003,0.192c-0.01,0.371-0.022,0.792,0.24,0.965
          	c0.034,0.021,0.073,0.033,0.114,0.033c0.091,0,0.365,0,1.107-1.273c0.325-0.562,0.577-1.225,0.595-1.274
          	c0.015-0.026,0.059-0.106,0.111-0.137c0.041-0.024,0.096-0.029,0.124-0.029h1.781c0.194,0,0.327,0.029,0.352,0.104
          	c0.044,0.119-0.008,0.482-0.821,1.583c-0.137,0.182-0.258,0.341-0.363,0.479C12.909,10.449,12.909,10.498,13.692,11.231z"/>
        </symbol>

        <symbol id="windows">
          <title>Windows</title>
          <path d="M9.5,3.2410278V9.5H18V2L9.5,3.2410278z M2,9.5h6.5V3.3870239L2,4.3359985V9.5z M9.5,16.7589722L18,18v-7.5H9.5V16.7589722z
          	 M2,15.6640015l6.5,0.9489746V10.5H2V15.6640015z"/>
        </symbol>

        <symbol id="xing">
          <title>Xing</title>
          <path d="M17.703,1h-2.828c-0.223,0-0.553,0.105-0.69,0.381S13.875,2,13.875,2l-5,10l3,6c0,0,0.172,0.344,0.31,0.619
          	S12.652,19,12.875,19h2.828c0.5,0,0.48-0.381,0.355-0.631S15.875,18,15.875,18l-3-6l5-10c0,0,0.059-0.119,0.184-0.369
          	S18.203,1,17.703,1z M6.815,5.381C6.678,5.105,6.348,5,6.125,5H3.297c-0.5,0-0.48,0.381-0.355,0.631S3.125,6,3.125,6l1.25,2.5
          	L2.125,13c0,0-0.059,0.119-0.184,0.369S1.797,14,2.297,14h2.828c0.223,0,0.553-0.106,0.691-0.381C5.953,13.344,6.125,13,6.125,13
          	l2.25-4.5L7.125,6C7.125,6,6.953,5.656,6.815,5.381z"/>
        </symbol>

        <symbol id="xing_circle">
          <title>Xing (circle)</title>
          <path d="M10,0.4c-5.302,0-9.6,4.298-9.6,9.6s4.298,9.6,9.6,9.6s9.6-4.298,9.6-9.6S15.302,0.4,10,0.4z M8.063,11.5
          	c0,0-0.086,0.172-0.153,0.309C7.839,11.947,7.674,12,7.563,12H6.149c-0.25,0-0.239-0.191-0.178-0.316
          	C6.034,11.559,6.063,11.5,6.063,11.5l1.125-2.25L6.563,8c0,0-0.029-0.06-0.092-0.185C6.41,7.69,6.399,7.5,6.649,7.5h1.414
          	c0.111,0,0.276,0.053,0.347,0.19C8.477,7.828,8.563,8,8.563,8l0.625,1.25L8.063,11.5z M14.03,5.815C13.967,5.94,13.938,6,13.938,6
          	l-2.5,5l1.5,3c0,0,0.029,0.059,0.092,0.184c0.062,0.125,0.072,0.316-0.178,0.316h-1.414c-0.112,0-0.275-0.053-0.345-0.191
          	C11.024,14.171,10.938,14,10.938,14l-1.5-3l2.5-5c0,0,0.086-0.172,0.155-0.31c0.069-0.138,0.232-0.19,0.345-0.19h1.414
          	C14.102,5.5,14.091,5.69,14.03,5.815z"/>
        </symbol>

        <symbol id="yelp">
          <title>Yelp</title>
          <path d="M12.538,12.471l4.523,1.466c0,0,0.647,0.119,0.64,0.552c-0.004,0.305-0.197,0.652-0.197,0.652l-1.91,2.756
          	c0,0-0.341,0.286-0.686,0.286c-0.344,0-0.741-0.537-0.741-0.537l-2.417-4.073c0,0-0.272-0.594,0.05-0.921
          	C12.095,12.352,12.538,12.471,12.538,12.471z M11.57,10.6c0.231,0.396,0.87,0.281,0.87,0.281l4.513-1.331
          	c0,0,0.615-0.253,0.703-0.589c0.086-0.337-0.102-0.743-0.102-0.743l-2.157-2.564c0,0-0.187-0.324-0.575-0.357
          	c-0.428-0.037-0.691,0.486-0.691,0.486l-2.55,4.05C11.582,9.832,11.357,10.235,11.57,10.6z M9.438,9.021
          	c0.531-0.132,0.616-0.911,0.616-0.911l-0.036-6.485c0,0-0.08-0.8-0.436-1.017c-0.559-0.342-0.724-0.164-0.884-0.14L4.951,1.873
          	c0,0-0.367,0.123-0.558,0.432C4.12,2.742,4.67,3.384,4.67,3.384l3.894,5.358C8.564,8.742,8.949,9.143,9.438,9.021z M8.513,11.645
          	c0.013-0.5-0.595-0.801-0.595-0.801L3.89,8.791c0,0-0.597-0.248-0.887-0.075C2.782,8.848,2.585,9.088,2.566,9.299l-0.262,3.259
          	c0,0-0.039,0.565,0.106,0.822c0.205,0.364,0.881,0.111,0.881,0.111l4.702-1.049C8.175,12.318,8.495,12.306,8.513,11.645z
          	 M9.682,13.404c-0.404-0.209-0.887,0.224-0.887,0.224l-3.148,3.498c0,0-0.393,0.535-0.293,0.863c0.094,0.308,0.25,0.461,0.47,0.569
          	l3.162,1.007c0,0,0.383,0.08,0.674-0.005c0.412-0.121,0.336-0.772,0.336-0.772l0.071-4.736
          	C10.067,14.053,10.051,13.597,9.682,13.404z"/>
        </symbol>

        <symbol id="youko">
          <title>Youko</title>
          <path d="M19.418047,12.0796385c-0.5478516-1.0457487-2.1255493-1.7149191-2.8060303-2.6412954
          	c0.4585571-1.0617428,2.9511719-1.7141776,2.7406616-3.5655117c-0.1517944-1.3371668-2.1604614-1.4112105-2.6756592-0.3305092
          	c-0.3861084,0.4457431-0.7995005,0.8636346-1.2400522,1.254293c-0.2116089,0.269928-0.4511719,0.5119433-0.7175293,0.7264161
          	c-0.3097534,0.3260632-0.5610962,0.7093105-0.979187,0.9249573V5.8728313c-0.0095825-1.400774-2.6002808-1.400774-2.6101685,0
          	v7.3295012c0.1132812,0.5230598,0.3482666,0.9234743,0.9133911,0.9899845h0.7833252
          	c0.5371704-0.0944233,0.8428955-0.4238205,0.9134521-0.9899845v-1.5851727c0-0.549428-0.1014404-1.4766083,0.2612305-0.9241543
          	c0.5316772,0.5263948,1.2804565,1.0925589,1.9580078,1.7160301c0.6503305,0.6000061,1.272706,1.5688076,1.9572153,1.7170801
          	C19.3184376,14.4302559,19.9368458,13.068881,19.418047,12.0796385z M8.1933756,4.1556897
          	C7.636735,4.5449276,7.3271646,5.7449384,6.9533243,6.5988774C6.5416422,7.5382848,6.1798868,8.4847937,5.7787027,9.1743431
          	C4.6934977,7.9286342,3.9533243,5.1675968,2.6461954,4.1556897c-0.4216309-0.3260012-1.3457031-0.3167379-1.7619629,0
          	C-0.241744,5.0133343,0.8880777,6.5300832,1.3409586,7.3256645c0.9940186,1.7442522,2.0955811,3.6115799,2.9366455,5.2160816
          	c-0.5467529,1.4587612-3.3081665,5.5814819,0.3916626,5.3487911c0.8953857-0.5855541,1.2750854-1.8037815,1.762146-2.9060354
          	c0.9957275-2.255393,1.8415527-4.204113,2.8713989-6.5365133c0.4280396-0.9695439,1.4592285-2.4023066,1.2398682-3.500052
          	C10.3683634,4.0776324,9.0449381,3.5608718,8.1933756,4.1556897z"/>
        </symbol>

        <symbol id="youko_circle">
          <title>Youko (circle)</title>
          <path d="M10,0.3999634c-5.3019409,0-9.5999756,4.2980957-9.5999756,9.6000366S4.6980591,19.5999756,10,19.5999756
          	S19.5999756,15.3019409,19.5999756,10S15.3019409,0.3999634,10,0.3999634z M9.5961046,9.479475
          	c-0.5966415,1.3512201-1.0866251,2.4801579-1.6634593,3.7867804c-0.2821755,0.6385441-0.5021729,1.344305-1.0208726,1.6835604
          	c-2.1434216,0.1347885-0.543664-2.2535963-0.2269125-3.0987167c-0.4872293-0.9295101-1.125421-2.0113297-1.7012587-3.0218296
          	C4.7212338,8.3683529,4.0666919,7.4897113,4.719007,6.9928126c0.2411532-0.1834874,0.7764959-0.1888204,1.0207553,0
          	c0.7572155,0.5862107,1.186017,2.1857924,1.8147149,2.9074359c0.2324214-0.3994417,0.4419875-0.947794,0.6805034-1.4920444
          	c0.2165985-0.4946723,0.3959255-1.1898851,0.71842-1.4153914c0.4933243-0.3445883,1.2599745-0.0451832,1.3610067,0.4589825
          	C10.4414597,8.08776,9.8440561,8.9177608,9.5961046,9.479475z M14.5863667,12.7689466
          	c-0.3965702-0.0859127-0.7570982-0.6471586-1.1338606-0.9947357c-0.3925257-0.3611727-0.8263083-0.6891766-1.1343288-0.9941492
          	c-0.2100935-0.3200331-0.1513729,0.2170677-0.1513729,0.5354013v0.9183168
          	c-0.0408459,0.3280029-0.2179461,0.518816-0.5291891,0.5735521h-0.4537668
          	c-0.3274174-0.0385609-0.4635534-0.2705135-0.5291891-0.5735521V7.9876065c0.005743-0.811482,1.5066366-0.811482,1.512145,0
          	V9.479475c0.2422085-0.1249428,0.3878384-0.3469324,0.5672817-0.5358696
          	c0.1543036-0.1242399,0.2930765-0.2644196,0.4156752-0.4208317c0.2552176-0.2263269,0.49473-0.4684181,0.7184191-0.7266245
          	c0.2984676-0.626061,1.4621572-0.5832219,1.5500622,0.1914573c0.121954,1.0725608-1.322094,1.4504943-1.5877438,2.0655971
          	c0.3942251,0.5366898,1.3082638,0.9243517,1.6256018,1.5301943C15.7566776,12.1564817,15.3984346,12.9451675,14.5863667,12.7689466z
          	"/>
        </symbol>

        <symbol id="youtube">
          <title>Youtube</title>
          <path d="M10,2.3C0.172,2.3,0,3.174,0,10s0.172,7.7,10,7.7s10-0.874,10-7.7S19.828,2.3,10,2.3z M13.205,10.334l-4.49,2.096
          	C8.322,12.612,8,12.408,8,11.974V8.026C8,7.593,8.322,7.388,8.715,7.57l4.49,2.096C13.598,9.85,13.598,10.15,13.205,10.334z"/>
        </symbol>

        <symbol id="youtube_circle">
          <title>Youtube (circle)</title>
          <path d="M11.603,9.833L9.357,8.785C9.161,8.694,9,8.796,9,9.013v1.974c0,0.217,0.161,0.319,0.357,0.228l2.245-1.048
          	C11.799,10.075,11.799,9.925,11.603,9.833z M10,0.4c-5.302,0-9.6,4.298-9.6,9.6s4.298,9.6,9.6,9.6s9.6-4.298,9.6-9.6
          	S15.302,0.4,10,0.4z M10,13.9c-4.914,0-5-0.443-5-3.9s0.086-3.9,5-3.9s5,0.443,5,3.9S14.914,13.9,10,13.9z"/>
        </symbol>

  </defs>

</svg>
