<?xml version="1.0" encoding="UTF-8" standalone="no"?>
<svg xmlns="http://www.w3.org/2000/svg" version="1.0" viewBox="0 0 440.39673 512.05438">
<path d="m214.75486 0.00303106c-14.59216 0.0092-28.16554 0.04-38.30469 0.08984-5.06957 0.02492-9.27841 0.05329-12.33398 0.08789-1.52779 0.0173-2.76734 0.03672-3.6875 0.05664-0.92017 0.01992-1.36895 0.01996-1.9082 0.07617-0.14077 0.01467-2.72062 0.135917-5.95899 0.226563-3.23836 0.09065-7.41778 0.185856-11.74609 0.261719-12.51837 0.21939804-26.04647 0.74074104-37.23633 1.375-11.189862 0.634259-19.733932 1.295164-23.429692 2.09375-0.78887 0.170461-1.47973 0.286863-2.35937 0.767578-0.87965 0.480715-1.95315 1.983053-1.92969 3.230469 0.0234 1.247415 0.45227 1.9741349 0.91016 2.8066399 0.45787 0.832506 1.04977 1.74381 1.81445 2.900391 1.18784 1.796609 3.28811 5.616091 4.41211 8.05664 1.95814 4.251718 3.59963 7.686019 4.91015 10.269532 1.31053 2.583513 2.16574 4.197649 3.06641 5.349609 1.32819 1.698757 3.17413 2.577279 5.33594 3.34375s4.663672 1.284066 7.244142 1.455078c0.9128 0.0605 1.83724 0.181194 2.5 0.310547 0.16264 0.03175 0.23404 0.05597 0.35742 0.08594-0.0298 0.144374 0.49928 1.074741 0.85352 2.753906 0.4368 2.07059 0.78913 4.935293 0.96484 8.224609 0.02 0.375035 0.0216 0.512501 0.0391 0.845703-1.83131-1.418431-3.54057-2.773056-5.76172-4.388672-1.68499-1.225628-3.316622-2.386775-4.646482-3.304687-1.32987-0.917912-2.12857-1.498652-3.03906-1.947266-6.48123-3.193304-16.14565-5.45929-25.80078-6.21875-7.94448-0.62491-21.60318 1.240483-29.32032 3.972657-2.36323 0.836677-5.02286 1.963868-7.16015 2.982422-1.06865 0.509275-1.99605 0.985102-2.738285 1.419921-0.371118 0.21741-0.688792 0.414367-1.025391 0.675782-0.168299 0.130707-0.342048 0.266594-0.574218 0.533203-0.01497 0.01719-0.04164 0.0559-0.05859 0.07422-1.032127 0.294821-1.82068 0.718952-2.773438 1.320313-1.054648 0.665672-2.22009 1.504278-3.4375 2.453125-2.434819 1.897695-5.051501 4.218978-7.091796 6.412109-2.531697 2.721325-5.0237964 5.991487-7.0566414 9.121097s-3.606091 5.98787-4.275391 8.49414c-0.408623 1.53013-1.340095 4.70016-2.029297 6.89454-1.173641 3.73689-1.50017 9.82596-1.478515 16.71289 0.02164559 6.886921 0.50604859 14.299751 1.5078076 19.826171 1.217017 6.71387 2.699566 14.18753 3.40625 17.10351-0.01702-0.0702 0.180865 1.01052 0.359375 2.21875 0.178511 1.20824 0.389807 2.73581 0.587891 4.27344 0.414092 3.2145 1.100513 7.18773 1.642578 9.30859 0.215701 0.84395 0.382252 1.65521 0.466797 2.20118 0.03175 0.20501 0.04048 0.30836 0.04883 0.40039-0.000882 0.007-0.01652 0.0307-0.01758 0.0371-0.03872 0.23405-0.04189 0.37389-0.04492 0.5039-0.0061 0.26004 0.0064 0.46239 0.02344 0.69141 0.03413 0.45804 0.09649 0.98933 0.183594 1.62109 0.174202 1.26354 0.447228 2.90092 0.783203 4.66407 1.4166024 7.43402 2.3737384 15.09054 2.7656254 21.3125 0.195944 3.11097 0.249014 5.86694 0.158204 8.01562s-0.422289 3.77877-0.560547 4.10938c-2.7018994 6.46072-3.5612254 18.46123-2.4414074 27.59179 0.378376 3.08522 0.981624 8.23528 1.3378914 11.41211 0.840631 7.49573 3.78603 20.78857 6.041016 27.08594 0.851334 2.37749 2.269634 6.36146 3.15039 8.84375 0.96938 2.73205 2.504431 6.5978 3.921875 9.99023 0.708722 1.69622 1.385052 3.2691 1.951172 4.52149s0.858368 1.98077 1.417969 2.8125c-0.05916-0.0879 1.11094 2.03832 1.904297 3.71679 0.850028 1.79839 2.218647 4.53404 3.109377 6.2129 0.85488 1.61126 2.84732 5.37739 4.42187 8.35937 1.59393 3.01861 3.34766 6.20915 4.16407 7.51172 0.30268 0.48293 0.5809 0.96086 0.76171 1.29492 0.0286 0.0529 0.0334 0.0647 0.0567 0.10938 0.0541 0.55168 0.18074 0.45218 0.23046 0.5664 0.0635 0.14593 0.11759 0.25051 0.17774 0.36719 0.12031 0.23335 0.26365 0.49236 0.44141 0.80469 0.35545 0.62466 0.84174 1.44977 1.42968 2.42383 1.17589 1.9481 2.7474 4.48284 4.36524 7.02734 0.28748 0.45214 0.55336 0.90759 0.72265 1.22461 0.0254 0.0474 0.0281 0.0554 0.0488 0.0957-0.012-0.13154-0.0215-0.30329-0.0215-0.57226 0 0.25838 0.0123 0.4397 0.0293 0.58789 0.0432 0.0845 0.0958 0.18703 0.10547 0.20898 0.007 0.0151-0.0216 0.0779-0.0527 0.0527 0.0627 0.21577 0.14349 0.25572 0.18555 0.3496 0.0721 0.16096 0.13177 0.27079 0.19531 0.38672 0.12708 0.23186 0.26991 0.46995 0.44531 0.75391 0.3508 0.56791 0.82281 1.29946 1.39062 2.1582 1.13565 1.71748 2.64474 3.93401 4.1836 6.15821 1.53886 2.22419 3.10461 4.45074 4.35742 6.18554 0.62641 0.8674 1.17367 1.61074 1.61133 2.1836 0.21883 0.28642 0.40877 0.52865 0.58398 0.74023 0.17522 0.21158 0.19871 0.31432 0.67774 0.70117 0.0173 0.014 0.0247 0.0243 0.043 0.041-0.002-0.004-0.004-0.015-0.006-0.0195 0.0487 0.0776 0.10112 0.11212 0.14648 0.1582 0.004 0.005 0.0237 0.0213 0.0254 0.0234 0.00098 0.001-0.0178-0.005-0.0195-0.002 0.0215 0.0223 0.041 0.186 0.0566 0.2168 0.0964 0.19025 0.18302 0.33475 0.2793 0.49024 0.19256 0.31096 0.42119 0.64903 0.69726 1.04101 0.55215 0.78397 1.28324 1.76093 2.08789 2.78711 1.55912 1.98832 3.47165 4.42971 4.24805 5.42188 0.80564 1.02957 2.43 3.05596 3.6582 4.5625 1.2 1.47195 2.91192 3.61365 3.75196 4.69531 2.34052 3.01368 3.65392 4.61776 5.55859 6.78515 0.43722 0.49754 0.83769 0.97468 1.10352 1.3086 0.10767 0.13526 0.1697 0.21921 0.21679 0.2832 0.002 0.003 0.004 0.0205 0.006 0.0234 0.0812 0.15883 0.13699 0.24556 0.19141 0.33008 0.10883 0.16903 0.20779 0.30573 0.32422 0.46289 0.23285 0.31431 0.52712 0.6886 0.88086 1.1289 0.70747 0.8806 1.64697 2.01266 2.65039 3.19727 2.00684 2.36921 4.16605 4.85094 5.34765 6.03516 1.02921 1.03149 2.53148 2.56307 3.29297 3.35546 7.705262 8.01812 17.790202 17.07891 28.800782 25.89063 6.25177 5.00325 11.45467 9.65019 14.01172 12.38086-0.78785 0.26415-1.25247 0.4601-2.04492 0.66406-1.95331 0.50276-4.31174 1.33596-5.9043 2.14258-0.54923 0.27818-1.12235 0.53742-1.54687 0.70898-0.19652 0.0794-0.34963 0.13377-0.44141 0.16407-0.69308 0.047-0.72185 0.18774-0.90429 0.26562-0.21134 0.0902-0.39343 0.18125-0.59766 0.28711-0.40846 0.21172-0.88496 0.48116-1.43945 0.80664-1.10899 0.65097-2.51396 1.52334-3.99024 2.48438-1.40424 0.91413-2.86056 1.80649-4.04297 2.48828-1.1824 0.68178-2.39853 1.22004-2.12304 1.13086-3.80699 1.2324-10.24846 5.0053-13.80274 7.84765-7.389612 5.90943-12.385112 14.59235-11.126952 22.05078 0.97875 5.80191 4.56605 12.30022 8.968752 16.31836 2.86308 2.61302 7.38578 5.83521 11.59766 8.51758 2.10593 1.34119 4.11772 2.53191 5.81445 3.41992 0.84836 0.44401 1.61386 0.81234 2.32031 1.09571 0.58325 0.23394 1.05584 0.44687 1.80469 0.51758 0.0534 0.0212 0.0839 0.032 0.16601 0.0684 0.28782 0.12726 0.70163 0.33023 1.10352 0.54688 2.40715 1.29747 6.36077 2.38696 12.8418 3.92969 0.96611 0.22998 1.99548 0.50772 2.83984 0.75976 0.84436 0.25205 1.62215 0.54943 1.58008 0.5293 0.99767 0.47746 1.62178 0.55285 2.9082 0.8457 1.28642 0.29286 2.97811 0.64 5.05078 1.03711 4.14534 0.79423 9.80221 1.78926 16.56446 2.90625 3.89701 0.64372 8.05662 1.371 8.86523 1.53711v-0.002c0.92797 0.19071 1.11681 0.11897 1.98633 0.14844 0.86952 0.0295 2.03173 0.0557 3.46289 0.0781 2.86232 0.0448 6.78919 0.0763 11.43555 0.0977 9.2927 0.0427 21.46351 0.0411 33.69336 0.004 12.22984-0.0373 24.51526-0.10895 34.03515-0.20898 4.75995-0.05 8.82829-0.1072 11.85938-0.16992 3.03109-0.0627 4.70341-0.0797 5.83593-0.22461 14.8143-1.89578 33.05287-6.13012 45.70508-10.62891 16.11877-5.73139 28.3685-14.94587 31.08985-25.43359 3.18283-12.266-5.03695-25.17763-18.74024-31.11328-1.71144-0.74132-4.7372-2.37376-6.24023-3.36329-7.25854-4.77857-13.00879-7.80162-18.94336-9.9082-0.82415-0.29254-1.39242-0.51394-2.10547-0.77734 0.30834-0.28635 0.51822-0.49196 0.85156-0.79688 2.15991-1.97564 5.18951-4.85288 6.83789-6.49414 1.44491-1.43861 3.82684-3.35235 4.47071-3.74023 1.78693-1.07655 4.20092-3.22857 6.42773-5.41016 2.11156-2.06879 5.30088-5.17247 7.07031-6.88086 3.82872-3.69664 11.36285-11.54586 18.34375-18.98633 3.49045-3.72023 6.83197-7.32924 9.48047-10.24609s4.51082-5.00475 5.41016-6.21094c1.82491-2.44757 8.47809-11.16284 10.05859-13.17773 3.99368-5.09135 17.65526-25.04768 21.28516-31.07031 2.98553-4.9536 4.68799-7.79522 5.67578-9.52344 0.87954-1.53884 1.3967-2.01664 1.5-3.2793 0.0589-0.13488 0.13917-0.31369 0.26172-0.56055 0.28628-0.57661 0.70623-1.36139 1.16601-2.15624 4.37631-7.5653 7.32089-13.22695 9.47266-18.25977 0.60373-1.41206 1.69645-3.76632 2.3418-5.04688 4.18277-8.30001 10.57878-28.11877 12.07617-37.39257 0.36554-2.26396 1.04872-5.1779 1.13281-5.41797 1.7208-4.91245 2.23638-12.29503 2.22656-25.74805-0.0106-14.54298-0.13277-15.58732-3.02343-27.24609-1.73475-6.9965-1.3415-27.66294 0.83984-36.03907 0.38139-1.46429 0.9328-4.25085 1.32031-6.56054 1.14834-6.8448 1.93886-10.72132 2.49024-12.55274 0.41308-1.372 0.77815-3.16187 0.92382-4.56445 0.0923-0.88867 0.50508-3.49709 0.87696-5.41602 3.50498-18.08515 4.6671-32.542511 3.07226-42.046871-0.96792-5.76853-3.7329-11.78042-8.44922-18.85742-3.53914-5.310649-4.69864-6.495634-11.46289-11.51368-9.5005-7.047982-20.4686-12.842575-28.08203-14.427735-10.41288-2.168029-16.32189-2.253476-27.57226-0.404297-2.58744 0.425296-6.08085 1.38372-9.23047 2.404297-1.57481 0.510289-3.04637 1.033873-4.26172 1.527344s-1.98426 0.689448-3.04883 1.626953c-0.007 0.0068-0.098 0.06588-0.16601 0.105469-0.82079 0.05589-0.80934 0.230504-1.01758 0.328125-0.23855 0.111828-0.45823 0.231055-0.70703 0.371094-0.49762 0.280077-1.0975 0.645343-1.80078 1.089843-1.40662 0.889-3.20826 2.087441-5.10743 3.408203-1.29314 0.89931-2.33795 1.590694-3.40429 2.302735 0.0388-0.855114 0.0331-1.550988 0.11914-2.517578 0.16625-1.867162 0.41282-3.82863 0.69336-5.431641 0.28025-1.601362 0.74567-3.012133 0.72851-2.980469 0.0609-0.03249 0.22722-0.102784 0.64649-0.234375 0.84383-0.264843 2.483-0.542927 4.96875-0.773437 2.01868-0.187201 3.759-0.564474 5.30078-1.412109 1.54178-0.847636 2.74028-2.167727 3.60351-3.677735 0.10316-0.180429 1.1245-1.796092 2.43555-3.802734s2.99617-4.55941 4.73437-7.164063c4.65621-6.977184 7.08233-10.624059 8.37696-12.751953 0.64731-1.063947 1.02761-1.709681 1.30273-2.511719 0.27513-0.8020369 0.10803-2.3358509-0.16992-2.8652339-0.38797-0.738934-1.18012-1.448206-1.92773-1.816406s-1.50364-0.571627-2.4961-0.785156c-1.98491-0.427062-4.96644-0.839086-10.05273-1.490235-5.09875-0.652695-10.06516-1.301274-10.78137-1.404255-6.02393-0.86612704-19.51438-1.249642-47.67188-1.503906-18.00336-0.162572-51.25512-0.22738-80.43945-0.208984zm-166.16992 328.41212c-0.0199-0.0685-0.0391-0.14325-0.0527-0.26172-0.003-0.006-0.004-0.009-0.008-0.0156 0.0168 0.18467 0.0382 0.25919 0.0605 0.27735zm8.4707-266.85157c1.06474 0.0086 2.38675 0.04326 4.13672 0.08984 7.27775 0.193699 6.86385 0.10204 11.31641 1.769538 8.20817 3.07398 13.30252 6.38542 17.86328 11.48437 1.62044 1.81166 3.82509 4.76295 5.55273 7.3418 0.86382 1.28943 1.61783 2.49778 2.1211 3.39844 0.25163 0.45032 0.4402 0.82771 0.53711 1.05078 0.0484 0.11153 0.0531 0.22761 0.0449 0.22265 0.0673 1.12041 0.3606 1.90402 1.08593 2.89454 0.0333 0.0455 0.869092 2.01802 1.310552 4.23632 0.44147 2.21831 0.73462 4.86651 0.73828 7.085941 0.005 2.88274-0.0356 3.8383-0.43945 4.71875-0.40383 0.88046-1.579952 2.29535-4.257812 5.23633-10.43001 11.45496-14.98854 15.06937-30.58789 24.26367-2.86826 1.69056-5.90295 3.48254-6.76758 3.9961-0.77848 0.46233-3.3137 1.91511-5.51367 3.15624-2.2996 1.29732-5.33231 3.16792-7.01758 4.3418-1.40394 0.9779-3.59702 2.15249-3.53906 2.13086-0.49408 0.18444-0.47787 0.16508-0.59375 0.19336-0.0454-0.0738-0.001-0.0199-0.17383-0.34961-0.27616-0.52809-0.61217-1.26631-0.9336-2.06445-0.64284-1.59629-1.23898-3.5095-1.41015-4.49024-0.43917-2.51616-1.67828-7.70645-2.83789-11.99218-0.27148-1.0034-0.96635-4.23811-1.43555-6.79102-0.48818-2.65618-1.30394-6.71626-1.83594-9.13281-3.47701-15.794791-2.91724-32.186151 0.69336-40.191411 1.94959-4.3225 8.96739-10.04489 14.72656-11.58008 2.09756-0.559124 3.18583-0.837675 4.625-0.953125 0.71959-0.05773 1.52706-0.07505 2.5918-0.06641zm326.05078 0.570313c5.38703 0.147285 10.82035 1.822425 13.71485 4.048825 3.41851 2.62948 9.02416 10.43484 10.95898 15.56641 0.81414 2.15925 1.12058 3.00676 1.3125 4.76758s0.21707 4.53704 0.21484 9.88086c-0.004 8.611771-0.23585 11.646111-1.01562 14.707031-0.61146 2.40029-1.45954 5.95163-1.91016 7.99609-0.42029 1.90688-1.35033 5.68573-2.0332 8.25-0.70403 2.64377-1.70517 6.60298-2.24609 8.88672-0.6558 2.76906-1.61152 5.84677-2.56641 8.39844-0.91755 2.45188-1.97289 4.42808-2.23438 4.80859-0.17519-0.1317-0.23819-0.14361-0.45507-0.34375-0.82016-0.75686-1.95196-1.54087-3.66407-2.73633-1.7121-1.19545-3.8539-2.64539-6.08984-4.1289-4.47187-2.96703-9.25214-6.03038-11.82812-7.48828-3.22553-1.82552-15.43666-10.63413-18.91407-13.69336-9.57334-8.42204-13.61382-19.55835-11.0332-27.437501 5.32675-16.26366 22.10203-30.67121 35.49023-31.449222 0.76013-0.04417 1.52926-0.05424 2.29883-0.0332zm21.39063 252.28909c-0.0214 0.0835-0.0446 0.096-0.0508 0.11523-0.0124 0.0386-0.00091 0.00062 0.0254-0.0625 0.004-0.0102 0.0204-0.041 0.0254-0.0527z"/>
</svg>
