<?xml version="1.0" encoding="UTF-8" standalone="no"?>
<svg xmlns="http://www.w3.org/2000/svg" height="552.1264" width="446.56558" version="1.0" viewBox="0 0 446.56558 552.12641">
<path d="m162.42742 0c-7.97807 16.549629-19.23204 37.387044-2.59961 62.539063l25.67383-2.085938c0.65494-9.711048 7.81376-16.482717 0.0625-28.570312-10.84373-16.910148-16.39025-22.255473-23.13672-31.882813zm-83.099606 12.275391c-2.06413 17.869558-5.72847 40.68047 16.47852 60.425781l22.001946-8.611328c-2.33736-9.447666 1.93753-17.762848-8.52148-27.314453-14.631786-13.362389-21.123886-17.040151-29.958986-24.5zm107.4082 50.3125-27.10156 3.580078 8.89063 48.431651c-7.15034 1.15984-14.4462 3.08389-21.96875 6.07031l-27.02344-54.861336-22.812496 10.40625 29.554686 58.105476c-2.77845 3.53112-5.85039 7.625-8.8086 10.90234-20.163356 22.33897-23.869936 54.00846-9.48242 80.76953 14.95488 27.81682 12.44232 46.9996-6.93945 52.97266-8.207966 2.52954-11.822996 1.85147-29.939446-5.26758-11.33125-4.45285-24.68152-8.06142-29.64649-8.02929-14.028471 0.0909-27.553519 8.53294-34.916014 21.72656-5.525791 9.90259-6.479466 14.29661-6.541016 31.46484-0.07855 21.95091 2.599461 29.66674 20.457031 59.91211 18.140629 30.72465 44.978009 58.30347 75.935549 78.00781 21.284556 13.54743 60.432956 27.87202 83.748046 30.91992 13.93863 1.82217 32.37496 4.44473 57.625 4.04883l10.06835 54.84375c1.14597 8.78632 20.75224 6.35233 20.41602-1.98242l-9.10742-53.85937c11.88562-0.92812 25.02164-2.53115 39.58984-5.08594 1.85426-0.43193 3.70548-0.90617 5.55664-1.39844l14.36719 28.26172c3.64695 8.09989 20.17279 0.72089 17.375-7.15625l-13.28711-26.98242c35.62988-13.20618 68.53634-35.97116 87.85742-58.12305 23.61042-27.06983 27.755-39.13291 33.64453-68.19726 7.17471-35.40701-2.67177-84.04628-24.48828-121.0625-14.32912-24.31224-40.18817-53.04581-59.58594-66.16407-33.15453-22.42172-92.77569-44.90926-131.5996-49.66601-11.28243-0.61924-22.2583-1.73732-33.29102-2.05274zm-12.25 84.480479 8.86915 48.30664-21.91211-44.48438c4.03897-1.93079 8.42843-3.23771 13.04296-3.82226zm27.51172 5.76171c12.46071 7.50049 20.79883 21.15469 20.79883 36.75586 0 10.43948-3.73606 20.01277-9.93945 27.45704zm98.26172 13.50196c0.89556-0.005 1.85502 0.0226 2.94336 0.0723 12.7233 0.58071 24.19164 4.96403 29.0293 11.08203 5.54554 7.01316 13.6071 42.44675 11.95312 52.53711-1.31763 8.03844-19.14043 30.26563-24.26953 30.26563-1.20325 0-3.56402 0.50637-5.26758 1.12695-1.70371 0.62053-6.78637-0.49756-11.26367-2.4707-4.47732-1.97331-10.96623-3.66794-14.42383-3.7793-10.58292-0.34086-17.32152-5.55306-22.49218-17.40234-7.98611-18.30107-6.68846-29.13626 4.97851-42.50977 5.43671-6.23199 12.57238-15.37165 15.87696-20.31054 4.62922-6.91842 6.66711-8.57439 12.93554-8.61133zm-157.10937 1.16601 32.9707 64.82032c-21.89636-1.93008-39.10547-20.33989-39.10547-42.73243 0-8.07955 2.24254-15.63626 6.13477-22.08789zm233.04492 105.8711c1.63649 0.0158 3.46323 0.12957 5.52344 0.29101 26.18284 2.0513 33.75404 12.33548 26.92187 36.55078-2.05823 7.29501-4.26669 17.86664-4.9043 23.54493-2.61988 23.32982-16.42816 33.67955-34.4082 25.72265-31.10572-13.76563-31.03008-13.72963-34.8418-30.00976-3.86451-16.50691-2.48948-20.06138 14.42383-36.95118 4.58469-4.57809 10.65518-10.96386 13.47852-14.16992 3.22614-3.66357 6.71495-5.04693 13.80664-4.97851zm-310.32031 39.93164c0.23222-0.0118 0.42957-0.0132 0.65429 0 2.9943 0.17621 12.77192 0.63845 21.72657 1.01562 8.95463 0.37724 17.597386 1.6731 19.220696 2.83399 3.91422 2.79906 14.49617 26.84255 14.49609 32.95508-0.00003 7.62392-6.32144 16.07434-21.61718 28.8125-12.109426 10.08449-15.833936 11.80859-25.361326 11.80859-11.42619 0.00003-20.45508-6.29228-20.45508-14.24414 0.00008-1.97813-2.7166-9.43171-6.03125-16.56641-5.26567-11.33427-5.69726-14.15809-3.52539-22.45508 3.03608-11.59756 13.69438-23.79558 20.89258-24.16015zm206.08008 38.0039c4.56522 0.0385 10.50527 2.04737 19.83789 5.70313 5.75659 2.25501 13.56658 5.05472 17.40429 6.25 5.39719 1.68098 8.41886 5.50069 13.26172 16.82226 11.53919 26.97698 7.53233 39.64453-14.20703 44.98047-6.5492 1.60751-15.65786 4.69719-20.27344 6.9043-18.96315 9.06834-33.6911 0.54368-36.66015-21.25586-5.13661-37.71347-5.14362-37.6035 5.26953-49.52148 5.60909-6.4195 9.18072-9.57798 14.49609-9.84766 0.2932-0.0149 0.56669-0.0377 0.8711-0.0352zm-96.2461 2.6875c5.0233-0.0543 9.29431 1.65903 17.22266 6.25 12.49143 7.23321 24.41593 21.14652 24.41601 28.44922 0 1.9842-2.09208 8.28195-4.65039 14.02539-2.55849 5.74339-4.68427 12.28064-4.72461 14.53321-0.0404 2.25254-2.74492 7.57747-5.99414 11.80664-5.17398 6.73534-7.90662 7.82189-21.98242 8.97461-13.33365 1.0919-16.2806 0.6177-17.47461-2.94336-0.79146-2.36054-6.20093-7.029-12.02734-10.35352-7.18962-4.10236-11.64408-8.82895-13.76953-14.64258-6.73704-18.42835-0.62861-43.68834 11.00781-45.5625 3.10147-0.49941 7.24096-2.54813 9.19336-4.54101 1.95216-1.99287 7.98418-4.4282 13.37109-5.41407 2.01511-0.36878 3.73783-0.56397 5.41211-0.58203z"/>
<path opacity=".1" d="m27.483952 294.63069-6.137566 61.37566 39.894178 49.10053 116.61376 56.77249h128.88889l76.71957-53.70371 32.22222-55.23809 10.74075-69.04762-55.2381-78.25397-32.22222-42.96296-76.71958-16.87831-38.35979 141.16402-82.85714 12.27514-113.54497-4.60318z"/>
<path opacity=".1" d="m94.997184 414.31323 95.132266-127.3545 96.66667 12.27514 88.99471-61.37567 36.82539 18.4127 16.87831 69.04762-32.22222 70.58201-136.56085-79.78836-32.22222 38.35979 6.13756 102.80423-65.97883 3.06879z"/>
</svg>
