<?xml version="1.0" encoding="UTF-8" standalone="no"?>
<svg xmlns="http://www.w3.org/2000/svg" version="1.0" viewBox="0 0 534.73633 511.15625">
<path d="m270.51953 0-219.09375 72.921875h-46.472655v15.466802l-3.660156 1.21875h3.660156v56.906253h34.837891v313.33789h-8.746094l-31.044922 51.30469 534.48242-0.92969-29.08399-50.375h-8.74023v-313.33789h34.22852v-56.906253h3.8496l-3.8496-1.30469v-15.380862h-45.34961zm-169.92969 146.51368h335.49023v313.33789h-335.49023zm109.65625 11.49414c-2.51159 9.19004-6.2559 20.83944 3.78906 32.95508l12.20703-2.7461c-0.46714-5.13334 2.43735-9.14429-2.27343-14.98242-6.59021-8.16735-9.69455-10.61357-13.72266-15.22656zm26.36328 1.28125c-4.22537 8.76507-10.18588 19.80196-1.37695 33.12305l13.59765-1.10352c0.34682-5.14319 4.13846-8.73094 0.0332-15.13281-5.74309-8.956-8.68082-11.78786-12.25391-16.88672zm-9.59961 29.9668-12.77539 3.62304 10.50391 31.83008c-1.09045 0.51722-2.18965 1.07108-3.30078 1.68164-1.7149 0.4926-5.33494 6.15018-8.64063 9.8125-10.67898 11.83123-12.64144 28.60407-5.02148 42.77735 7.92045 14.73243 6.58925 24.89317-3.67578 28.05664-4.34713 1.3397-6.26058 0.97939-15.85547-2.79102-6.00129-2.35833-13.07357-4.26897-15.70313-4.25195-7.4298 0.0481-14.59285 4.52016-18.49219 11.50781-2.92659 5.24464-3.43029 7.57137-3.46289 16.66406-0.0417 11.62571 1.37425 15.71183 10.83203 31.73047 9.60769 16.27249 23.82292 30.87858 40.21876 41.31445 11.27278 7.17503 32.00726 14.76272 44.35546 16.37696 7.38248 0.9651 17.1458 2.35237 30.51954 2.14258l5.33203 29.04687c0.60694 4.65344 10.99058 3.36545 10.8125-1.04883l-4.82422-28.52734c0.34507-0.0269 0.7095-0.0646 1.05859-0.0937l6.58789 19.96289c1.26068 4.5326 10.51559 1.99447 9.68164-2.35352l-5.91797-18.74023c3.05977-0.40895 6.22412-0.88204 9.5586-1.4668 23.49683-5.47331 46.74334-20.29991 59.24804-34.63672 12.50462-14.33681 14.69913-20.72599 17.81836-36.11914 3.79989-18.75236-1.41422-44.51254-12.96875-64.11718-7.58903-12.87633-21.28508-28.09329-31.55859-35.04102-17.5594-11.87506-49.13524-23.78736-69.69727-26.30664-5.9758-0.32798-11.78926-0.91893-17.63281-1.08594l-4.52539-26.76562-14.35547 1.89648 4.70899 25.65235c-0.9761 0.15835-1.95851 0.34857-2.94532 0.5625l-9.88281-31.29297zm15.98438 47.92382 1.18164 6.4336-1.99414-6.31641c0.26908-0.044 0.54034-0.0827 0.8125-0.11719zm14.57422 3.05469c6.59826 3.97271 11.01367 11.20302 11.01367 19.46485 0 5.52857-1.97865 10.59848-5.26367 14.54101zm-26.85938 2.56446 13.04102 39.52343c-11.5438-1.07459-20.59961-10.8014-20.59961-22.62304 0-6.71295 2.92127-12.74307 7.55859-16.90039zm78.89844 4.58593c0.47431-0.003 0.98218 0.0103 1.55859 0.0371 6.73856 0.30756 12.81483 2.62891 15.37695 5.86914 2.93705 3.71433 7.20607 22.48209 6.33008 27.82617-0.69784 4.25735-10.13702 16.0293-12.85351 16.0293-0.63727 0-1.88877 0.26703-2.79102 0.5957-0.90232 0.32865-3.59356-0.26356-5.96484-1.30859-2.3713-1.0451-5.80941-1.94102-7.64063-2-5.60496-0.18053-9.17165-2.9431-11.91015-9.21875-4.22963-9.69267-3.54237-15.43075 2.63672-22.51367 2.87941-3.3006 6.65802-8.14011 8.4082-10.75586 2.45174-3.66416 3.52971-4.54099 6.84961-4.56055zm40.21875 56.68946c0.86672 0.009 1.83269 0.0669 2.92383 0.15234 13.86703 1.08642 17.87823 6.53438 14.25976 19.35937-1.09009 3.8636-2.25995 9.4614-2.59765 12.46875-1.38755 12.35601-8.70002 17.83916-18.22266 13.625-16.47431-7.29059-16.43631-7.2722-18.45508-15.89453-2.04674-8.74244-1.31705-10.62508 7.64063-19.57031 2.42816-2.42466 5.64336-5.80785 7.13867-7.50586 1.70864-1.9403 3.55658-2.671 7.3125-2.63476zm-164.35352 21.14648c0.12293-0.006 0.2267-0.007 0.34571 0 1.58585 0.0934 6.76522 0.3393 11.50781 0.53906 4.74258 0.19979 9.31994 0.88712 10.17969 1.50196 2.07306 1.48244 7.67778 14.21579 7.67773 17.45312-0.00001 4.03781-3.34825 8.51335-11.44922 15.25977-6.41343 5.34098-8.38572 6.2539-13.43164 6.2539-6.05158 0.00002-10.83398-3.33147-10.83398-7.54297 0.00005-1.04765-1.43785-4.9967-3.19336-8.77539-2.78883-6.0029-3.01747-7.49828-1.86719-11.89258 1.60797-6.14233 7.25211-12.60379 11.06445-12.79687zm109.14453 20.12891c2.41785 0.0204 5.56505 1.08531 10.50782 3.02148 3.04882 1.19431 7.18425 2.67554 9.21679 3.30859 2.85847 0.89029 4.45855 2.91399 7.02344 8.91016 6.11143 14.28763 3.99023 20.99623-7.52344 23.82227-3.46861 0.85137-8.29377 2.48732-10.73828 3.65625-5.18665 2.4803-9.7715 2.46949-13.21289 0.29492l-7.83398-24.80664c-0.58753-7.23436 0.5608-8.55361 4.42187-12.97266 2.97071-3.39992 4.8626-5.07201 7.67774-5.21484 0.15529-0.007 0.29972-0.0208 0.46093-0.0195zm-50.97265 1.42382c2.66046-0.0287 4.92206 0.87712 9.12109 3.3086 6.61575 3.83087 12.92964 11.20068 12.92969 15.06836 0 1.05088-1.10795 4.38587-2.46289 7.42773-1.35504 3.04183-2.48057 6.50426-2.50196 7.69727-0.0214 1.193-1.45296 4.01403-3.17382 6.2539-2.74026 3.56719-4.18771 4.14144-11.64258 4.75196-7.06182 0.57829-8.62349 0.32742-9.25586-1.5586-0.41918-1.2502-3.28334-3.72363-6.36914-5.48437-3.80779-2.17271-6.16728-4.67488-7.29297-7.75391-3.56809-9.76008-0.33283-23.13826 5.83008-24.13086 1.64261-0.2645 3.8351-1.34881 4.86914-2.40429 1.03391-1.05547 4.229-2.34505 7.08203-2.86719 1.06725-0.19531 1.98046-0.29903 2.86719-0.3086z"/>
</svg>
