<?xml version="1.0" encoding="UTF-8" standalone="no"?>
<svg xmlns="http://www.w3.org/2000/svg" height="461.534" width="483.48849" version="1.0" viewBox="0 0 483.4885 461.534">
<path d="m240.95464 0.00024829879a10.001 10.001 0 0 0 -9.06055 5.619141l-68.56836 140.74219-154.81445 23.30469a10.001 10.001 0 0 0 -5.455079 17.08594l112.66601 108.70508-25.677727 154.4375a10.001 10.001 0 0 0 14.564447 10.46679l138.19922-73.55859 138.94532 72.14453a10.001 10.001 0 0 0 14.45507 -10.61719l-27.2539-154.16797 111.55078-109.84961a10.001 10.001 0 0 0 -5.62891 -17.02929l-155.04492-21.72071-70.00195-140.03516a10.001 10.001 0 0 0 -8.875 -5.527344zm0.0449 32.595704 63.29297 126.61329a10.001 10.001 0 0 0 7.55859 5.43164l140.18555 19.63867-100.85938 99.32227a10.001 10.001 0 0 0 -2.83203 8.86523l24.64065 139.39258-125.62696-65.23047a10.001 10.001 0 0 0 -9.30664 0.0488l-124.95508 66.50781 23.2168-139.63476a10.001 10.001 0 0 0 -2.92187 -8.83789l-101.86719-98.28513 139.97656-21.07031a10.001 10.001 0 0 0 7.5 -5.50977l61.99805-127.25196z"/>
<path opacity=".75" d="m386.36136 450.07168-143.61055-74.56683-142.84137 76.02985 26.53917-159.62416-116.4491-112.35571 160.01265-24.08632 70.87187-145.46951 72.35409 144.738 160.25033 22.45061-115.29537 113.53933z"/>
</svg>
