<?xml version="1.0" encoding="UTF-8" standalone="no"?>
<svg xmlns="http://www.w3.org/2000/svg" version="1.0" viewBox="0 0 493.2374 492.30789">
<path d="m382.0034 0.0070629c-47.88802 0.49491-95.77604 26.702474-143.66407 2.927735l-0.1875 87.000007c0.16624 0.0922 0.33193 0.17641 0.49805 0.26757v75.363285l-16.14062 0.20312a5.0005 5.0005 0 0 0 -4.70508 3.49219l-21.98633 69.49609h-41.89844l-23.19531-70.17578a5.0005 5.0005 0 0 0 -4.74805 -3.43164h-47.421867a5.0005 5.0005 0 0 0 -4.86914 3.86523l-73.55469 315.35352a5.0005 5.0005 0 0 0 4.849609 6.13477l483.23828 1.80468a5.0005 5.0005 0 0 0 4.89063 -6.12695l-72.98829-315.9707a5.0005 5.0005 0 0 0 -4.82031 -3.875l-49.07031-0.49805a5.0005 5.0005 0 0 0 -4.82031 3.50391l-22.10743 70.46289-40.65624-1.5293-22.08204-69.63672a5.0005 5.0005 0 0 0 -4.83007 -3.48828l-18.08399 0.22656v-68.244135c52.19182 19.687895 98.97323-7.5237 148.87695-7.66601v-87.875007c-6.84114-1.199422-13.68229-1.654686-20.52343-1.583985z"/>
</svg>
