<?xml version="1.0" encoding="UTF-8" standalone="no"?>
<svg xmlns="http://www.w3.org/2000/svg" height="327.60757" width="488.9444" version="1.0" viewBox="0 0 488.9444 327.60758">
<path d="m3.3542043 0.00007a3.0003 3.0003 0 0 0 -3 2.98828l-0.35351605 96.64062a3.0003 3.0003 0 0 0 0 0.004v0.0742a3.0003 3.0003 0 0 0 3.025391 3.06445l29.488281-0.26172v222.09766a3.0003 3.0003 0 0 0 3 3h160.80468a3.0003 3.0003 0 0 0 3 -3v-81.32227h90.57227v81.32227a3.0003 3.0003 0 0 0 3 3h160.58203a3.0003 3.0003 0 0 0 3 -3v-222.09766l29.44531 0.26172a3.0003 3.0003 0 0 0 3.02149 -3.16015v-0.006l-0.34961-96.61719a3.0003 3.0003 0 0 0 -3 -2.98828h-32.11719a3.0003 3.0003 0 0 0 -3 3v29.16015h-26.11523v-29.16015a3.0003 3.0003 0 0 0 -3 -3h-32.11719a3.0003 3.0003 0 0 0 -3 3v29.16015h-26.11524v-29.16015a3.0003 3.0003 0 0 0 -3 -3h-32.11718a3.0003 3.0003 0 0 0 -3 3v96.48242a3.0003 3.0003 0 0 0 3 3h29.11718v58.32227h-26.11718v-29.16016a3.0003 3.0003 0 0 0 -3 -3h-32.11719a3.0003 3.0003 0 0 0 -3 3v29.16016h-26.11524v-29.16016a3.0003 3.0003 0 0 0 -3 -3h-32.29687a3.0003 3.0003 0 0 0 -3 3v29.15625h-26.16016v-29.15625a3.0003 3.0003 0 0 0 -3 -3h-32.16015a3.0003 3.0003 0 0 0 -3 3v29.15625h-26.16211v-58.31836h29.16211a3.0003 3.0003 0 0 0 3 -3v-96.48242a3.0003 3.0003 0 0 0 -3 -3h-32.16211a3.0003 3.0003 0 0 0 -3 3v29.16015h-26.16016v-29.16015a3.0003 3.0003 0 0 0 -2.999996 -3h-32.16015a3.0003 3.0003 0 0 0 -3 3v29.16015h-26.162122v-29.16015a3.0003 3.0003 0 0 0 -3 -3h-32.160156z"/>
</svg>
