<?xml version="1.0" encoding="UTF-8" standalone="no"?>
<svg xmlns="http://www.w3.org/2000/svg" version="1.0" viewBox="0 0 432.63672 490.52539">
<path d="m334.27344 0v58.728518h-99.33398v-57.603518h-39.28125v57.603518h-99.972663v-56.652346h-39.2832v56.652346h-56.402347v39.30469h56.402347v84.695312h-56.402347v39.30469h56.402347v84.69531h-56.402347v39.30469h56.402347v83.77148h-35.544925l54.917965 59.83594 55.957033-59.83594h-36.046873v-83.77148h99.972663v84.65625h-35.03907l54.91602 59.83594 55.95898-59.83594h-36.55468v-84.65625h99.33398v84.65625h-33.6543l54.91602 59.83594 55.95898-59.83594h-37.93945v-84.65625h59.08203v-39.30469h-59.08203v-84.69531h59.08203v-39.30469h-59.08203v-84.695312h59.08203v-39.30469h-59.08203v-58.728518zm-238.58789 98.033208h99.972663v84.695312h-99.972663zm139.25391 0h99.33398v84.695312h-99.33398zm-139.25391 124h99.972663v84.69531h-99.972663zm139.25391 0h99.33398v84.69531h-99.33398z"/>
</svg>
