<?xml version="1.0" encoding="UTF-8" standalone="no"?>
<svg xmlns="http://www.w3.org/2000/svg" version="1.0" viewBox="0 0 388.27286 506.74869">
<path d="m0 90.43944 200.31511 416.30926 187.95776-90.43944-200.31511-416.30926zm32.864855-5.78624 128.50388-61.832092 59.27537 123.19032-128.5039 61.83209zm-19.89592 15.82408 13.79944-6.63986 10.72298 22.28529-13.79943 6.63986zm159.03712-76.52373 13.79943-6.639858 10.72299 22.285287-13.79943 6.639858zm-134.61464 127.28026 13.79943-6.63986 10.72299 22.28529-13.79943 6.63985zm159.03712-76.52373 13.79943-6.63986 10.72298 22.28529-13.79943 6.63986zm-134.61464 127.28025 13.79943-6.63985 10.72299 22.28528-13.79943 6.63986zm159.0371-76.52372 13.79943-6.63986 10.72299 22.28529-13.79943 6.63985zm-122.85958 94.53733 128.50388-61.83209 59.27537 123.19032-128.50389 61.83208zm-11.75509 32.74292 13.799425-6.63986 10.723 22.28529-13.799435 6.63986zm159.03712-76.52373 13.79942-6.63986 10.72299 22.28529-13.79943 6.63986zm-134.61465 127.28025 13.79943-6.63985 10.72298 22.28528-13.79942 6.63986zm159.03711-76.52372 13.79942-6.63986 10.72299 22.28529-13.79943 6.63986zm-134.61466 127.28025 13.79944-6.63986 10.72299 22.28529-13.79944 6.63986zm159.03712-76.52373 13.79943-6.63985 10.72299 22.28528-13.79943 6.63986zm-131.00038 77.61849 128.50389-61.83209 59.27536 123.19032-128.50388 61.83209zm-3.61427 49.66177 13.79943-6.63986 10.72299 22.28529-13.79943 6.63985zm159.03712-76.52373 13.79943-6.63986 10.72298 22.28529-13.79943 6.63986zm-134.61465 127.28025 13.79943-6.63985 10.72299 22.28528-13.79943 6.63986zm159.03711-76.52372 13.79943-6.63986 10.72299 22.28529-13.79943 6.63985z"/>
<path opacity=".3317308" d="m161.35894 22.813282-128.5039 61.830078 59.277345 123.19336 128.50196-61.83203-59.2754-123.19141zm65.125 135.34962-128.50194 61.83203 59.277345 123.19336 128.50195-61.83204zm65.12696 135.35156-128.50195 61.83203 59.27539 123.19141 128.50391-61.83204z"/>
</svg>
