<?xml version="1.0" encoding="UTF-8" standalone="no"?>
<svg xmlns="http://www.w3.org/2000/svg" height="530.92224" width="463.19772" version="1.0" viewBox="0 0 463.19773 530.92224">
<path d="m270.6273 0c-3.77179 2.707161-7.33119 5.738548-10.78358 8.933679l12.49813 25.988884-19.94286 9.610473-9.38488-19.536783c-3.38522 3.053347-6.83541 5.917741-10.51286 8.392244l39.3894 81.892063-185.53176 89.29167-49.496184-102.87267c-0.856363 0.34676-1.686433 0.72444-2.526697 1.12799-8.334375 4.07268-15.884276 10.90092-23.236589 18.1832l16.107694-7.76057 15.521139 32.17026-19.942859 9.61048-14.844346-30.8618c-2.645639 2.66114-5.284536 5.36342-7.941048 7.94105l191.89362 398.81206c3.99-4.01081 8.00274-8.0684 12.09205-11.82134l-4.87292 2.34622-15.52114-32.17027 19.94286-9.61047 13.94195 29.0119c1.20515-0.72028 2.46081-1.37981 3.69981-1.98526 2.90403-1.39468 5.90251-2.41385 8.9788-3.20349l-41.32955-85.95282 185.53176-89.24655 50.4437 104.85792c12.88518-10.38198 23.84633-24.58871 38.39677-32.98242zm21.47693 76.071626 15.47602 32.170274-19.89774 9.56535-15.47602-32.17026zm-11.77622 56.805574 85.59187 177.86142-185.53176 89.24655-85.591857-177.86142zm47.05974 16.46865 15.47602 32.17027-19.94286 9.56535-15.47602-32.17027zm-264.89712 37.17854 15.47602 32.17027-19.89774 9.61047-15.52114-32.17027zm300.13552 36.09567 15.47602 32.17027-19.89774 9.61047-15.47602-32.21538zm-264.89712 37.22367 15.521137 32.17026-19.942857 9.56536-15.47602-32.17027zm300.18064 36.05055 15.47602 32.17027-19.94286 9.61047-15.47602-32.17027zm-264.89712 37.22366 15.47602 32.17027-19.89774 9.56535-15.52114-32.17027zm300.13552 36.05055 15.47602 32.21539-19.89774 9.56536-15.47602-32.17027zm-264.852 37.22367 15.47602 32.17026-19.94286 9.61048-15.47602-32.21539z"/>
<path opacity=".3317308" d="m232.50119 33.38867c-2.4523 1.650106-5.00466 3.129328-7.66992 4.376953-21.62629 9.647623-49.57665 4.750006-70.92773 13.806641-21.75399 8.95535-36.23798 31.299776-56.400387 40.019536-19.09978 7.99135-41.757 2.46084-60.640628 10.10742l49.496103 102.87305 185.53125-89.29102zm47.81836 99.45899-185.53515 89.27344 85.585927 177.86914 185.53516-89.27539zm94.03711 195.44336-185.53125 89.24609 41.33008 85.9082c17.43912-4.47294 37.17214-0.88587 54.14258-7.98632 20.16241-8.71976 34.69132-31.06611 56.44531-40.02149 21.35108-9.05662 49.30147-4.15902 70.92774-13.80664 4.71049-2.205 9.00418-5.159 13.1289-8.48242z"/>
</svg>
