<?xml version="1.0" encoding="UTF-8" standalone="no"?>
<svg xmlns="http://www.w3.org/2000/svg" version="1.0" viewBox="0 0 549.48633 549.48438">
<path opacity=".2" d="m534.45803 274.7423a259.71505 259.71505 0 0 1 -259.71504 259.71505 259.71505 259.71505 0 0 1 -259.71505 -259.71505 259.71505 259.71505 0 0 1 259.71505 -259.71505 259.71505 259.71505 0 0 1 259.71504 259.71505z"/>
<path opacity=".5" d="m258.50976 51.955078v97.394542h32.46485v-97.394542zm119.39453 23.789062-25.2832 42.73438 27.94141 16.53125 25.28125-42.736324zm-201.98242 2.169922-27.9414 16.529304 25.2832 42.736324 27.94141-16.53124zm284.49024 67.298838-41.95117 26.56445 17.36914 27.42774 41.94921-26.5625zm-366.99805 2.17187-17.36914 27.42774 41.95117 26.56445 17.36914-27.42969zm-41.457031 111.125v32.46485h97.392581v-32.46485zm350.17969 0v32.46485h97.39257v-32.46485zm-280.88477 82.41016-41.951173 26.56445 17.367193 27.42774 41.95117-26.56446zm309.15234 4.98437-17.36718 27.42774 41.94922 26.56445 17.36914-27.42969zm-171.89453 54.23047v97.39258h32.46485v-97.39258zm-81.99023 4.98242-25.2832 42.73438 27.9414 16.53125 25.28125-42.73633zm198.61719 4.98243-27.94141 16.53125 25.2832 42.73437 27.94141-16.52929z"/>
<path d="m274.74219 0c-151.54327 0-274.74219 123.19893-274.74219 274.74219 0 151.54328 123.19892 274.74219 274.74219 274.74219s274.74414-123.19892 274.74414-274.74219-123.20087-274.74219-274.74414-274.74219zm0 30.054687c135.33004 0.000001 244.6875 109.35745 244.6875 244.6875 0 135.33004-109.35746 244.6875-244.6875 244.6875-135.33006 0-244.6875-109.35745-244.6875-244.6875 0.000001-135.33005 109.35744-244.6875 244.6875-244.6875zm-89.4336 49.435547a5.7005698 5.7005698 0 0 0 -3.11523 0.757812l-30.1836 17.42579a5.7005698 5.7005698 0 0 0 -2.08789 7.785154l98.41016 170.45117-10.68164 4.9668a5.7005698 5.7005698 0 0 0 -2.76563 7.57031l14.69336 31.60352a5.7005698 5.7005698 0 0 0 7.57032 2.76758l14.40039-6.69532 0.35546 0.61524a5.7005698 5.7005698 0 0 0 7.78711 2.08594l30.1836-17.42578a5.7005698 5.7005698 0 0 0 2.8164 -4.40235l102.47266-47.64062a5.7005698 5.7005698 0 0 0 2.76758 -7.57422l-14.69336-31.60352a5.7005698 5.7005698 0 0 0 -7.57227 -2.76367l-105.22851 48.92188-100.45899-174.00196a5.7005698 5.7005698 0 0 0 -4.66992 -2.84375z"/>
</svg>
