<?xml version="1.0" encoding="UTF-8" standalone="no"?>
<svg xmlns="http://www.w3.org/2000/svg" version="1.0" viewBox="0 0 468.68164 480.60526">
<path d="m238.98047 0c-9.87587 0.71421-10.07343 11.797728-9.40625 19.328125 0.68419 11.11834-1.4865 22.616233 1.3125 33.453125 5.02398 8.50304 18.84946 3.81532 17.875-5.925781-0.6788-13.773027 1.4035-27.911069-1.125-41.439453-1.63401-3.368418-5.03079-4.964112-8.65625-5.416016zm0 57.53125c-9.89452 0.70618-10.06638 11.7935-9.40625 19.32813 0.68419 11.11833-1.4865 22.61623 1.3125 33.45312 5.01993 8.4702 18.85951 3.81477 17.875-5.92578-0.6788-13.77303 1.4035-27.91107-1.125-41.43945-1.63401-3.36842-5.03079-4.96412-8.65625-5.41602zm-119.6875 0.5625c-8.82633 0.42612-18.47257 4.31559-23.093751 12.15625-2.13857 7.94036 8.649521 12.63646 13.593751 6.5625 5.69292-5.08822 13.66471-4.10379 19.9668-1.05273 7.89973 2.34142 12.16651-10.10647 4.87695-13.66602-4.67196-2.6039-9.98188-4.07773-15.34375-4zm236.53125 0c-7.35679 0.3226-18.38957 2.36981-18.90625 11.375 1.09421 7.32845 9.68947 7.84612 14.75 4.25 7.40871-2.79672 13.41893 3.4045 19.625 6.0625 8.77938 0.76161 10.9212-11.70535 3.34375-15.03125-5.41299-4.02423-12.00742-6.66758-18.8125-6.65625zm-213.31836 12.78125c-6.39771 0.0598-10.02098 9.01857-4.71289 13.5 6.58449 8.07025 9.63963 18.65316 16.75 26.1875 7.378 3.78811 14.26059-5.97266 9.15234-12.04102-5.83239-9.16908-9.69878-21.32332-19.12109-27.36523-0.71438-0.19911-1.40653-0.28744-2.06836-0.28125zm189.78711 0c-9.05461 3.15278-11.71842 13.91647-16.90625 21.09375-3.25204 5.39469-9.1498 14.60064-0.97656 18.56445 7.70708 3.5554 11.27499-5.96037 14.13281-11.31445 3.41686-7.02997 8.66673-13.01282 11.90625-20.03125 0.0767-4.79414-3.34997-8.26362-8.15625-8.3125zm-239.20898 5.19531c-0.29042-0.006-0.58501 0.002-0.88477 0.0234-8.08986 3.35454-10.32599 13.19358-14.99805 19.89648-2.79061 5.81796-9.91031 15.0565-2.07812 19.79883 6.59541 4.31446 11.7003-3.75948 13.48242-9.25781 3.30365-8.04821 9.691-14.6057 12.343751-22.78125-0.26498-4.47613-3.508951-7.59409-7.865231-7.67969zm287.20898 0.14844c-7.25064 2.1708-6.34914 10.90451-1.90039 15.29297 5.69343 7.67575 8.25662 17.38056 14.52539 24.51953 7.03 4.09996 14.48838-5.03825 9.8125-11.34375-4.96235-9.13511-8.98246-19.46411-16.31836-26.89844-1.58274-2.06254-3.89104-1.23674-6.11914-1.57031zm-215.96875 33.6875c-7.60399 0.79996-8.32021 9.8357-4.39453 14.91602 4.68549 8.49507 6.50231 18.60519 12.48828 26.27148 7.07903 4.63874 14.89492-4.61073 10.3125-11.18945-4.60482-9.65382-7.12791-20.78431-14.15625-28.9668zm147.35547 0.12891c-8.98223-0.22751-10.08999 11.24085-13.69141 17.44726-2.09653 7.3181-9.76787 15.48314-4.32031 22.86133 5.73303 4.97144 12.87217-0.52997 13.87695-6.88086 3.01795-9.26062 9.0494-17.56829 10.6543-27.18164-1.00067-3.20897-2.53266-4.87653-5.625-6.1875-0.30649-0.0323-0.60478-0.0513-0.89453-0.0586zm-72.69922 5.02734c-9.8795 0.70375-10.07567 11.76829-9.40625 19.29688 0.6829 11.12892-1.48453 22.6368 1.3125 33.48437 5.05107 8.44017 18.85121 3.82583 17.875-5.92578-0.68149-13.78253 1.41084-27.93379-1.13086-41.46875-1.66181-3.34885-5.02418-4.93508-8.65039-5.38672zm163.875 0.75c-7.85832 0.40758-8.93524 9.84667-5 15.15625 4.11889 8.59667 5.45711 18.57903 10.90625 26.40625 6.65471 4.9327 15.05413-3.58566 10.96484-10.39258-4.04663-9.98476-6.20727-21.19042-12.68359-29.88867zm-328.8125 0.125c-9.99753-0.34945-10.351 11.99973-13.86523 18.76758-1.66039 7.18601-8.64299 15.57592-2.88477 22.38867 6.24044 4.85232 13.04399-1.54297 13.67969-8.07422 2.51332-9.23655 7.95183-17.70771 9.07031-27.20703-1.17723-3.17534-2.8136-4.74482-6-5.875zm108.21875 35.5c-7.77598 0.11707-9.17378 9.30367-5.59766 14.72656 3.9123 8.83691 5.07464 18.99355 10.50391 27.02344 6.5854 5.03424 15.09642-3.42732 11.10937-10.27539-3.99985-9.95163-5.57415-21.29364-11.85937-30.06836zm112.375 0.0625c-10.08801-0.0224-9.96822 12.42469-13.32812 19.32031-1.42359 7.10882-9.09842 17.01894-1.42774 22.63477 6.96143 4.3924 12.41468-3.96548 13.03711-10.17383 2.17456-8.81567 7.41082-16.95683 7.875-26.09375-1.28023-3.11767-2.94555-4.65793-6.15625-5.6875zm123.23828 6.74805c-7.36301 0.26821-8.92681 9.3036-5.58203 14.80468 3.34378 8.89877 3.92719 18.93551 8.78125 27.13477 6.26612 5.43533 15.28115-2.52952 11.67188-9.59375-3.253-10.21977-4.48703-21.4927-10.10938-30.6875l-4.03125-1.65625c-0.24962-0.01-0.49295-0.0106-0.73047-0.002zm-359.58203 0.002c-9.95123 0.43-9.10876 12.78913-12.089844 19.68359-0.999599 7.32337-7.513787 16.26973-1.191406 22.66016 6.8159 4.5 13.1846-2.90793 13.15625-9.625 1.83609-9.22746 6.43879-18.01357 6.625-27.4375-1.46514-3.04245-3.23028-4.45403-6.5-5.28125zm180.6875 14.3125c-9.86805 0.75681-10.08117 11.78385-9.40625 19.32812 0.682 11.12926-1.48335 22.63471 1.3125 33.48438 5.0688 8.45809 18.85163 3.80109 17.875-5.95703-0.68288-13.77193 1.41284-27.91322-1.13086-41.4375-1.66229-3.35983-5.00747-4.97256-8.65039-5.41797zm-42.72266 21.56055c-6.98005 0.24726-8.90294 8.58844-5.86132 13.99023 3.41895 9.19953 4.16737 19.54305 9.20898 27.98047 6.33234 5.34609 15.21964-2.64153 11.5957-9.68359-3.54284-10.10747-4.39073-21.53518-10.18945-30.62896l-4.0625-1.65625c-0.23569-0.009-0.46624-0.01-0.69141-0.002zm83.69141 0.002c-9.94842 0.47724-9.1333 12.69192-12.08789 19.61328-1.00861 7.31251-7.69002 16.24262-1.38086 22.66797 6.60216 4.51449 13.12854-2.57463 13.17773-9.22461 1.80107-9.33462 6.75715-18.18064 6.75977-27.74414-1.44184-3.05564-3.20962-4.45969-6.46875-5.3125zm-129.3457 12.72656c-0.54703-0.0236-1.06002-0.0162-1.5293 0.0234-7.02121 0.22455-19.03075 4.05865-16.43555 12.85938 3.05033 7.13562 10.19353 2.42466 15.1543 0.67187 7.58852-2.26773 13.85725 10.08184 20.29297 2.77344 6.66276-8.69567-9.27702-15.97476-17.48242-16.32813zm172.62695 0.0234c-7.66053 0.34513-17.6161 3.70614-19.94922 11.58008-0.76895 7.73899 9.23001 8.90235 13.38672 3.82617 5.81741-4.44489 12.24488-0.19388 17.96875 1.625 8.1659-0.82978 7.57507-12.08897 0.35938-14.04492-3.58995-1.94222-7.67791-3.0162-11.76563-2.98633zm-194.91797 13.29883c-0.27291 0.0124-0.55094 0.0378-0.83203 0.0762-8.77327 6.16249-12.64394 17.21229-17.6875 26.36523-3.90649 7.70275 8.18236 13.72982 11.96875 5.97852 3.61279-9.17739 10.35532-16.76199 14.15625-25.6875-0.3972-4.22792-3.51177-6.91795-7.60547-6.73242zm213.29297 0.16992c-7.69943 3.37025-3.32918 11.64416 0.71875 16.125 4.85182 5.99355 6.21586 15.1024 12.62109 19.34766 7.44299 2.8137 11.22322-7.16726 6.66993-12.25586-4.59411-8.08481-8.21383-17.61878-15.91602-23.2168zm-40.81055 2.42578c-0.52596-0.006-1.06944 0.0376-1.62695 0.13672-8.50609 6.44401-12.31858 17.40225-17.75 26.375-3.64068 7.56317 8.05122 13.44668 11.9375 6.03125 3.92937-9.18385 11.12074-16.74772 14.46875-26.0625-0.53842-3.89102-3.34757-6.43603-7.0293-6.48047zm-130.8457 0.10541c-7.67602 2.95174-3.98302 11.41323 0.0625 15.86523 5.08785 6.06925 6.68442 15.51591 13.43945 19.66993 7.38831 2.54073 10.99457-7.39322 6.34766-12.31446-4.82194-7.87804-8.36778-17.26136-15.75586-23.06445-1.36458-0.0521-2.72917-0.10417-4.09375-0.15625zm69.03125 7.21875c-9.86805 0.75681-10.08117 11.78386-9.40625 19.32813 0.68419 11.11833-1.4865 22.61623 1.3125 33.45312 5.02398 8.50304 18.84946 3.81532 17.875-5.92578-0.68288-13.77193 1.41284-27.91322-1.13086-41.4375-1.66229-3.35983-5.00747-4.97256-8.65039-5.41797zm28.59375 7.375c-9.94655 0.93924-8.58012 13.19004-11.21289 20.2832-0.72042 7.31761-6.89374 16.38601-0.41211 22.5293 6.7933 4.20458 13.02569-3.07863 12.80664-9.74609 1.53049-9.35871 5.82999-18.51305 5.53711-28.06641-1.59508-2.9798-3.407-4.32414-6.71875-5zm-58.97852 0.0293c-7.34961-0.0513-9.22577 8.81694-6.27148 14.45312 2.94059 9.12519 3.15333 19.21637 7.78125 27.64258 6.11 5.56527 15.36591-2.00943 11.99219-9.20313-2.97931-10.2954-3.5468-21.65093-8.80469-31.04687l-3.96875-1.8125c-0.2485-0.0206-0.49143-0.0315-0.72852-0.0332zm-97.58398 17.87695c-9.35979 1.09449-9.17951 12.92912-12.656251 19.75-2.04621 6.03086-6.90542 16.71212 2.470701 18.66016 8.97043 0.0471 8.19113-11.46085 11.3418-17.57032 1.64582-6.77092 9.99938-17.8029-1.15625-20.83984zm251.1875 0c-8.31802 1.23338-6.31608 10.54318-3.28125 15.8125 3.599 7.01213 3.45326 16.45568 9.23242 21.78516 7.11047 3.9581 12.20307-5.57261 8.44727-11.35352-3.19378-8.46675-4.69325-18.0953-10.46094-25.21289zm-171.5 2.3125c-8.04566 1.52142-6.01402 10.42558-2.78906 15.51562 4.04393 7.01664 4.47363 16.70073 10.79492 21.79102 7.5062 3.4389 11.79207-6.7308 7.48633-12.23633-3.70878-8.071-5.49172-17.50247-11.52344-24.19531zm91.8125 0.0312c-9.16134 0.54688-9.56142 12.09421-13.28125 18.5-2.26486 6.02244-8.38128 16.55896 0.98437 19.29102 9.2 0.6708 9.15534-11.37552 12.70704-17.45313 2.20694-6.50617 10.37045-16.98725-0.41016-20.33789zm-25.40625 23.59375c-7.09816 0.37746-8.12318 8.11759-8.94727 13.66406-1.49747-9.8354-17.56996-9.03571-18.24609 0.89063-0.72549 6.36797 0.14758 14.11781-1.59766 3.85742-1.81556-6.51445-1.09304-18.8263-10.64062-18.05469-8.28556 0.65608-6.98102 10.71321-4.98633 16.35938 1.78084 9.91077 2.06673 7.52108-1.75976-0.0605-4.75412-7.05356-15.11364 1.07169-10.80274 7.92969 3.54015 8.67175 4.18754 18.64713 9.07422 26.69531 5.80043 4.49094 13.25872-2.52346 10.25-8.74219 3.39622 4.31732 14.01872-2.28295 8.90625 1.89844-6.54486-2.3182-8.76936 6.73802-10.06055 8.4082-5.86604-1.46759-8.6606 4.23281-7.96484 9.28321h-55.96875l-10 10v37.5664h-28.1543l-8.67187 8.67188v47.03906c-3.79638 1.16422-7.5345 1.99892-11.164061 2.17187-15.0436 0.2346-28.67495-10.98752-41.96485-11.10546-13.402719-0.2346-28.446862 8.21069-37.496092 10.10156-9.049247 1.83317-14.761615 1.77127-16.910157 0.47266v31.30273c2.148542 1.2986 7.86091 1.36051 16.910157-0.47266 9.04923-1.89215 24.092102-10.33616 37.496092-10.10156 13.29118 0.11793 26.92124 11.34007 41.96485 11.10547 14.930771-0.71147 31.670901-12.52359 46.941401-13.11328 14.87439-0.47303 28.16582 10.27741 43.1543 10.57226 15.21409 0.11794 30.65303-9.98242 46.9414-9.56836 16.06145 0.23717 32.40546 11.16377 48.80664 11.10352 16.11785-0.35255 31.38826-11.99204 48.18555-12.10742 16.8537 0 35.40338 11.22363 51.91992 11.57617 16.28582 0 33.14386-10.69072 45.07618-11.10352 11.6503-0.41406 18.04051 7.02575 25.05273 8.62305 6.89942 1.47681 12.1597 1.71423 16.23242 0.47461v-31.30273c-4.07272 1.12042-9.333 0.94555-16.23242-0.53125-7.01222-1.53449-13.40243-9.09842-25.05273-8.56641-11.93361 0.41278-28.79036 11.10352-45.07618 11.10352-4.01484-0.0857-8.15-0.82014-12.35156-1.87305v-45.80078l-8.66992-8.67188h-32.75781v-37.5664l-10-10h-56.38282c0.20252-1.8336 0.2887-3.67633 0.19727-5.53516-8.70487-7.26272-3.82199-1.15688 2.33594-6.89648 3.89669-8.55151 5.29929-18.26515 8.72656-27.16602 3.42128-9.24453-10.20608-7.02759-9.81055-9.55859 2.03894-5.62213 0.37845-12.43648-6.50195-12.97266zm-8.34375 43.66607c6.77595-0.23669 4.88138 3.85839 0 0zm-11.76172 17.67382c0.46626-0.0441 1.01405 0.26409 1.51367 0.78907h-2.38867c0.19202-0.50144 0.50462-0.75402 0.875-0.78907z"/>
</svg>
