<?xml version="1.0" encoding="UTF-8" standalone="no"?>
<svg xmlns="http://www.w3.org/2000/svg" version="1.0" viewBox="0 0 347.03436 517.79102">
<path d="m87.933801 0a9.3494351 9.3494351 0 0 0 -9.34766 9.357422l0.0195 20.251953-62.99024 1.316406a14.437874 14.437874 0 0 0 -14.13281 14.183594l-1.4804704 85.839845a14.437874 14.437874 0 0 0 13.68945 14.66602l65.02735 3.36523 0.34179 359.47071a9.3494351 9.3494351 0 0 0 9.34961 9.33984h45.095709a9.3494351 9.3494351 0 0 0 9.34765 -9.34961v-356.14258l142.75391 7.38867a14.437874 14.437874 0 0 0 11.17578 -4.43359l46.24414-48.31445a14.437874 14.437874 0 0 0 0.69336 -19.18555l-47.35543-57.226566a14.437874 14.437874 0 0 0 -11.42383 -5.230469l-142.08789 2.96875v-18.916016a9.3494351 9.3494351 0 0 0 -9.34765 -9.349609z"/>
</svg>
