<?xml version="1.0" encoding="UTF-8" standalone="no"?>
<svg xmlns="http://www.w3.org/2000/svg" height="397.04092" width="156.88457" version="1.0" viewBox="0 0 156.88457 397.04093">
<path d="m42.84212 37.109418c0-10.86092 3.51977-19.76107 10.55957-26.700719 7.03967-6.938747 16.09082-10.408313 27.15332-10.408699 11.86678 0.000386 21.72248 3.671152 29.56681 11.012169 7.84421 7.341789 11.76625 15.638599 11.76651 24.890439-0.00026 6.83898-1.55901 13.67758-4.67651 20.51579-3.11762 6.83898-8.04553 12.3199-14.78334 16.44288-6.73819 4.1235-13.62712 6.18518-20.66666 6.18493-9.65462 0.00025-18.55477-4.12299-26.70071-12.36985-8.14608-8.24622-12.21899-18.10178-12.21899-29.56694zm-42.23839 359.9315-0.60373-19.61071 34.09245-4.52551c5.02832-1.40788 8.49789-3.46957 10.40883-6.18493 1.91069-2.71523 2.8661-8.79961 2.8661-18.25303v-3.3187c0-2.4135 0.15061-6.78827 0.45311-13.12406 0.30122-6.33566 0.45183-11.91725 0.45183-16.74449 0-3.82151-0.30122-11.16291-0.90494-22.02434l0.30122-15.08508-0.30122-14.18013 0.60372-49.17752c-0.00012-6.235-0.60372-12.67133-1.81028-19.30899-2.21255-3.01683-6.23525-5.63152-12.06811-7.8442-5.83299-2.2123-15.99028-3.82138-30.47189-4.82725v-16.89536c20.71686-1.20617 38.91957-5.53099 54.60812-12.97332 10.6601-4.82698 22.22541-13.3752 34.69592-25.64464h20.21406c0.80454 24.9409 1.20616 57.32373 1.20616 97.14825l-2.11188 123.09475c-0.00013 8.44768 0.40162 16.09082 1.20616 22.92941 6.23513 2.21256 16.39243 4.42498 30.47202 6.63753 5.43059 0.80454 9.7549 1.81015 12.97319 3.01697l-0.30122 16.59362c-5.43084 0.20081-9.45355 0.30122-12.06811 0.30122-3.01722 0-7.64327-0.20081-13.8784-0.60373-20.51592-1.00535-47.97084-1.50855-82.3649-1.50855-9.85556 0-19.40952 0.35143-28.66174 1.05556-9.25222 0.70414-15.58801 1.05556-19.00724 1.05556z"/>
</svg>
