<?xml version="1.0" encoding="UTF-8" standalone="no"?>
<svg xmlns="http://www.w3.org/2000/svg" height="517.99023" width="384.70126" version="1.0" viewBox="0 0 384.70127 517.99024">
<path opacity=".75" d="m58.300863 0c-15.32795 0-28.34375 13.047045-28.34375 28.375v372c0.0584 1.44453 327.64837 0.78554 327.59375 0v-372c0-15.327955-13.04705-28.375-28.375-28.375zm55.874997 26.625c1.14947 0.000037 2.13808 0.425865 2.9375 1.28125 0.7994 0.855456 1.18749 1.995811 1.1875 3.4375-0.00001 1.441763-0.3881 2.568239-1.1875 3.40625-0.79942 0.838044-1.78803 1.281282-2.9375 1.28125-1.15033 0.000032-2.10727-0.443206-2.90625-1.28125-0.79898-0.838011-1.21875-1.964487-1.21875-3.40625 0-1.441689 0.41977-2.582044 1.21875-3.4375 0.79898-0.855385 1.75592-1.281213 2.90625-1.28125zm65.5 0.0625c1.14946 0.000037 2.10683 0.425865 2.90625 1.28125 0.79939 0.855456 1.21874 1.995801 1.21875 3.4375-0.00001 1.441763-0.41936 2.599489-1.21875 3.4375-0.79942 0.838044-1.75679 1.250032-2.90625 1.25-1.15033 0.000032-2.13853-0.411956-2.9375-1.25-0.5573-0.584525-0.89392-1.340492-1.0625-2.21875-0.0802 0.29446-0.17561 0.590009-0.3125 0.9375-0.33681 0.854934-0.78015 1.719461-1.3125 2.625-0.44851-0.301836-1.01736-0.619244-1.71875-0.9375-0.70143-0.318192-1.47117-0.468718-2.3125-0.46875-0.72924 0.000032-1.33921 0.235256-1.84375 0.6875-0.50456 0.452292-0.78125 1.151933-0.78125 2.125v1.21875h6.25v7.5h-6.25v16.78125h-8.34375v-24.03125c0-0.435871-0.0138-1.041466 0-1.8125 0.0137-0.770985 0.0684-1.405316 0.125-1.875 0.36461-2.71563 1.31855-4.762094 2.875-6.1875 1.55645-1.425326 3.72346-2.156214 6.5-2.15625 0.56146 0.000036 1.15045 0.04113 1.78125 0.125 0.63079 0.08395 1.25488 0.207225 1.84375 0.375 1.00994 0.301887 1.86451 0.771327 2.59375 1.375 0.42207 0.349448 0.69724 0.789561 0.875 1.3125 0.16527-0.899079 0.52828-1.644564 1.09375-2.25 0.79897-0.855385 1.78717-1.281213 2.9375-1.28125zm-4.03125 3.53125c-0.0682 0.371282-0.0937 0.766142-0.0937 1.1875 0 0.436114 0.0519 0.837882 0.125 1.21875 0.11715-0.42996 0.18749-0.826798 0.1875-1.125 0-0.480106-0.0894-0.9007-0.21875-1.28125zm-43.875-3.3125c0.56146 0.000036 1.18168 0.04113 1.8125 0.125 0.63078 0.08395 1.22362 0.207225 1.8125 0.375 1.00994 0.301887 1.89575 0.740077 2.625 1.34375 0.72921 0.603744 1.09374 1.485153 1.09375 2.625-0.00001 0.502428-0.16322 1.176365-0.5 2.03125-0.33681 0.854934-0.78015 1.750711-1.3125 2.65625-0.44851-0.301836-1.01735-0.619244-1.71875-0.9375-0.70141-0.318192-1.47116-0.468718-2.3125-0.46875-0.72924 0.000032-1.37047 0.204006-1.875 0.65625-0.50457 0.452292-0.75001 1.183183-0.75 2.15625v1.1875h6.21875v7.5h-6.21875v16.8125h-8.375v-24.0625c0-0.435871 0.0174-1.010216 0.0312-1.78125 0.0137-0.770985 0.0374-1.405316 0.0937-1.875 0.36462-2.71563 1.31854-4.793351 2.875-6.21875 1.55644-1.425326 3.72346-2.124964 6.5-2.125zm10.65625 0.34375c0.67359 0.000036 1.33795 0.06786 1.96875 0.21875 0.63079 0.150958 1.1795 0.426776 1.65625 0.8125 0.47672 0.385792 0.86181 0.906161 1.15625 1.59375 0.29443 0.687626 0.43749 1.583947 0.4375 2.65625v30.15625c-1.14947 0.435904-2.16467 0.65625-3.0625 0.65625-1.28985 0-2.2849-0.193606-3-0.5625-0.71511-0.368845-1.24326-0.83378-1.59375-1.4375-0.35049-0.603703-0.55481-1.305858-0.625-2.09375-0.0702-0.787875-0.125-1.628209-0.125-2.5v-29.15625c0.33636-0.03373 0.69788-0.08971 1.0625-0.15625 0.30812-0.0675 0.65252-0.122454 1.03125-0.15625 0.37873-0.03373 0.72914-0.03122 1.09375-0.03125zm-54.874997 0.65625c0.67358 0.000036 1.3067 0.06786 1.9375 0.21875 0.63079 0.150958 1.1795 0.426776 1.65625 0.8125 0.47672 0.385792 0.89306 0.906153 1.1875 1.59375 0.29443 0.687618 0.43749 1.583947 0.4375 2.65625v16.1875c0.14036-0.736736 0.3477-1.466634 0.65625-2.1875 0.30854-0.720866 0.71075-1.419989 1.1875-2.125l2.28125-3.46875c0.53235-0.804248 1.10464-1.506904 1.75-2.09375 0.64534-0.586813 1.534997-0.874984 2.656247-0.875 0.64534 0.000016 1.28913 0.09463 1.90625 0.3125 0.61708 0.217984 1.14824 0.450694 1.625 0.71875 0.53234 0.301884 1.02324 0.661887 1.5 1.03125l-5.75 9.65625 6.8125 12.40625c-1.85132 0.904536-3.55144 1.375-5.09375 1.375-1.3181 0-2.336297-0.30506-3.093747-0.875-0.75749-0.56994-1.4394-1.282964-2-2.1875l-2.6875-4.5c-0.47675-0.770484-0.84428-1.485504-1.125-2.15625-0.28074-0.670713-0.48464-1.411956-0.625-2.25v11.40625h-8.4375v-35.3125c0.33636-0.03373 0.69788-0.08971 1.0625-0.15625 0.30812-0.0675 0.6525-0.0912 1.03125-0.125 0.37872-0.03373 0.76038-0.06247 1.125-0.0625zm-12.53125 0.4375c0.67359 0.000036 1.3067 0.09911 1.9375 0.25 0.63079 0.150958 1.21075 0.395526 1.6875 0.78125 0.47672 0.385792 0.86181 0.937397 1.15625 1.625 0.29441 0.687619 0.43749 1.552697 0.4375 2.625v30.1875c-1.14949 0.435904-2.19592 0.65625-3.09375 0.65625-1.28985 0-2.2849-0.193606-3-0.5625-0.71511-0.368845-1.24327-0.83378-1.59375-1.4375-0.35049-0.603703-0.55482-1.305858-0.625-2.09375-0.0702-0.787875-0.0937-1.628209-0.0937-2.5v-29.15625c0.33631-0.03373 0.66658-0.08971 1.0312-0.15625 0.30812-0.0675 0.65252-0.122454 1.03125-0.15625 0.37873-0.03373 0.76038-0.06247 1.125-0.0625zm162.34375 0.0625c0.56146 0.000036 1.15043 0.04113 1.78125 0.125 0.63078 0.08395 1.25487 0.207225 1.84375 0.375 1.00994 0.301887 1.86451 0.771327 2.59375 1.375 0.54691 0.452813 0.89451 1.026885 1.03125 1.78125v-2.84375c0.33636-0.03373 0.69788-0.08971 1.0625-0.15625 0.30812-0.0675 0.65252-0.122454 1.03125-0.15625 0.37873-0.03373 0.76038-0.06247 1.125-0.0625 0.67359 0.000036 1.30668 0.06786 1.9375 0.21875 0.63079 0.150958 1.17951 0.426776 1.65625 0.8125 0.47674 0.385792 0.86181 0.937413 1.15625 1.625 0.29441 0.687619 0.43749 1.552697 0.4375 2.625v30.1875c-1.14949 0.435904-2.16467 0.65625-3.0625 0.65625-1.28985 0-2.2849-0.193606-3-0.5625-0.71511-0.368845-1.24327-0.86503-1.59375-1.46875-0.35049-0.603703-0.55482-1.274608-0.625-2.0625-0.0702-0.787875-0.125-1.628209-0.125-2.5v-24.9375c-0.0743 0.415204-0.21129 0.894525-0.4375 1.46875-0.33682 0.854934-0.78015 1.750711-1.3125 2.65625-0.44851-0.301836-1.01735-0.619244-1.71875-0.9375-0.70141-0.318192-1.47116-0.468718-2.3125-0.46875-0.72924 0.000032-1.33922 0.235256-1.84375 0.6875-0.50457 0.452292-0.75001 1.151933-0.75 2.125v1.21875h6.21875v7.46875h-6.21875v16.8125h-8.375v-24.03125c0-0.435871-0.0138-1.041466 0-1.8125 0.0137-0.770985 0.0684-1.405316 0.125-1.875 0.36462-2.71563 1.31854-4.793349 2.875-6.21875 1.55644-1.425326 3.72346-2.124964 6.5-2.125zm7.25 5.03125c0.0363-0.202937 0.0625-0.397552 0.0625-0.5625-0.00001-0.284962-0.0169-0.561045-0.0625-0.8125zm46.40625-5c0.56145 0.000036 1.15043 0.04113 1.78125 0.125 0.63078 0.08395 1.25487 0.207225 1.84375 0.375 1.00994 0.301887 1.86451 0.771327 2.59375 1.375 0.72921 0.60375 1.09372 1.485153 1.09375 2.625-0.00003 0.502428-0.16323 1.176365-0.5 2.03125-0.33681 0.854934-0.78015 1.719461-1.3125 2.625-0.44851-0.301836-1.01736-0.587994-1.71875-0.90625-0.70143-0.318192-1.47116-0.499968-2.3125-0.5-0.72924 0.000032-1.33921 0.235256-1.84375 0.6875-0.50456 0.452292-0.75001 1.151933-0.75 2.125v1.21875h6.21875v7.5h-6.21875v16.78125h-8.375v-24.03125c0-0.435871-0.0138-1.041466 0-1.8125 0.0137-0.770985 0.0684-1.374066 0.125-1.84375 0.36461-2.71563 1.31855-4.793349 2.875-6.21875 1.55645-1.425326 3.72345-2.156214 6.5-2.15625zm-71.1875 0.0625c0.67271 0.000036 1.3375 0.06786 1.96875 0.21875 0.63121 0.150958 1.1795 0.426776 1.65625 0.8125 0.47672 0.385792 0.8618 0.906166 1.15625 1.59375 0.2944 0.687636 0.43749 1.583931 0.4375 2.65625v30.375h-6.3125c-0.42112 0-0.78865-0.14019-1.125-0.375-0.33639-0.234826-0.50001-0.7295-0.5-1.5-0.39286 0.602684-1.01954 1.169709-1.875 1.65625-0.85548 0.486541-1.92892 0.71875-3.21875 0.71875-0.95347 0-1.88685-0.193622-2.8125-0.5625s-1.75708-1.015573-2.5-1.9375-1.34946-2.188593-1.8125-3.78125-0.6875-3.58517-0.6875-6c0-2.413795 0.1902-4.448411 0.625-6.125 0.4348-1.676541 1.02076-3.054644 1.75-4.09375 0.72922-1.039073 1.57778-1.780316 2.53125-2.25 0.95347-0.469635 1.96179-0.718734 3-0.71875 0.67273 0.000016 1.2797 0.113499 1.8125 0.28125 0.53279 0.167832 0.965 0.34458 1.34375 0.5625 0.37872 0.217968 0.69913 0.438314 0.9375 0.65625 0.23836 0.217968 0.38486 0.368494 0.46875 0.46875v-12.3125c0.33722-0.03373 0.69873-0.08971 1.0625-0.15625 0.30897-0.0675 0.63538-0.122454 1-0.15625 0.36461-0.03373 0.72912-0.03122 1.09375-0.03125zm39.71875 0.34375c0.67359 0.000036 1.33795 0.06786 1.96875 0.21875 0.63079 0.150958 1.17951 0.426776 1.65625 0.8125 0.47674 0.385792 0.86181 0.937413 1.15625 1.625 0.29441 0.687619 0.4375 1.552697 0.4375 2.625v16.1875c0.14036-0.736736 0.37893-1.466634 0.6875-2.1875 0.30854-0.720866 0.71075-1.419989 1.1875-2.125l2.25-3.46875c0.53235-0.804248 1.13589-1.506904 1.78125-2.09375 0.64532-0.586813 1.535-0.874984 2.65625-0.875 0.64532 0.000016 1.25788 0.125879 1.875 0.34375 0.61708 0.217984 1.1795 0.450694 1.65625 0.71875 0.53235 0.301884 1.02324 0.630637 1.5 1l-5.75 9.65625 6.8125 12.4375c-1.85134 0.904536-3.55144 1.34375-5.09375 1.34375-1.3181 0-2.36755-0.27381-3.125-0.84375-0.75749-0.56994-1.40815-1.314214-1.96875-2.21875l-2.6875-4.46875c-0.47675-0.770484-0.84427-1.516754-1.125-2.1875-0.28074-0.670713-0.51589-1.411956-0.65625-2.25v11.40625h-8.40625v-35.28125c0.33636-0.03373 0.69789-0.08971 1.0625-0.15625 0.30812-0.0675 0.65252-0.122454 1.03125-0.15625 0.37873-0.03373 0.72913-0.06247 1.09375-0.0625zm53.8125 0c0.67271 0.000036 1.3375 0.06786 1.96875 0.21875 0.63119 0.150958 1.17949 0.426776 1.65625 0.8125 0.47671 0.385792 0.8618 0.937413 1.15625 1.625 0.29441 0.687636 0.43747 1.552681 0.4375 2.625v30.375h-6.3125c-0.42112 0-0.78864-0.10894-1.125-0.34375-0.33638-0.234826-0.50001-0.7295-0.5-1.5-0.39287 0.602684-1.01954 1.138459-1.875 1.625-0.85548 0.486541-1.92893 0.71875-3.21875 0.71875-0.95348 0-1.88685-0.162372-2.8125-0.53125-0.92566-0.368878-1.75708-1.015573-2.5-1.9375s-1.34946-2.188593-1.8125-3.78125-0.6875-3.58517-0.6875-6c0-2.413795 0.1902-4.479661 0.625-6.15625 0.4348-1.676541 1.02078-3.023394 1.75-4.0625 0.72922-1.039073 1.57778-1.780316 2.53125-2.25 0.95347-0.469635 1.96179-0.718734 3-0.71875 0.67273 0.000016 1.2797 0.08225 1.8125 0.25 0.53279 0.167832 0.965 0.37583 1.34375 0.59375 0.37873 0.217968 0.69911 0.438314 0.9375 0.65625 0.23835 0.217968 0.38486 0.368494 0.46875 0.46875v-12.3125c0.33722-0.03373 0.69873-0.08971 1.0625-0.15625 0.30896-0.0675 0.63537-0.122454 1-0.15625 0.36459-0.03373 0.72912-0.06247 1.09375-0.0625zm-118.8125 9.8125c2.29979 0.000016 4.3203 0.411989 6.03125 1.25 0.7566 0.369395 1.38412 0.823979 1.875 1.34375 0.49084 0.51982 0.71872 1.139791 0.71875 1.84375-0.00003 0.602717-0.14651 1.317737-0.46875 2.15625-0.32226 0.838562-0.74204 1.634747-1.21875 2.40625-0.84222-0.771503-1.69979-1.388944-2.625-1.875-0.92524-0.486008-1.89028-0.718718-2.84375-0.71875-1.20596 0.000032-1.8125 0.412005-1.8125 1.25 0 0.536192 0.23901 0.933788 0.6875 1.21875 0.44848 0.284978 1.01433 0.517704 1.6875 0.71875 0.67316 0.201078 1.4022 0.4358 2.1875 0.6875 0.78526 0.251716 1.51431 0.622103 2.1875 1.125 0.67315 0.50293 1.23856 1.190725 1.6875 2.0625 0.4489 0.871808 0.65624 2.029549 0.65625 3.4375-0.00001 2.682918-0.79032 4.813593-2.375 6.40625-1.58471 1.592657-3.87724 2.40625-6.90625 2.40625-1.73919 0-3.09491-0.181258-4.0625-0.5-0.9676-0.318742-1.75188-0.633118-2.3125-0.96875-0.72922-0.435888-1.21969-0.917696-1.5-1.4375-0.2803-0.519787-0.40625-1.05506-0.40625-1.625 0-0.871791 0.14951-1.724456 0.5-2.5625 0.35049-0.838011 0.77026-1.66447 1.21875-2.46875 0.33636 0.368376 0.72145 0.712524 1.15625 1.03125 0.43478 0.318742 0.90126 0.606912 1.40625 0.875 0.50498 0.268088 1.0297 0.474074 1.5625 0.625 0.53279 0.150942 1.02626 0.218766 1.53125 0.21875 0.72921 0.000016 1.25393-0.121321 1.5625-0.40625 0.30854-0.284962 0.46874-0.657846 0.46875-1.09375-0.00001-0.503415-0.22446-0.916882-0.6875-1.21875-0.46304-0.301836-1.04559-0.546926-1.71875-0.78125-0.67317-0.234308-1.40567-0.510632-2.21875-0.8125-0.81311-0.301852-1.54559-0.73018-2.21875-1.25-0.67317-0.519787-1.25614-1.207582-1.71875-2.0625-0.46261-0.854901-0.6875-1.968511-0.6875-3.34375 0-1.340407 0.24201-2.49414 0.71875-3.5 0.47672-1.005811 1.10727-1.846144 1.90625-2.5 0.79897-0.653823 1.71222-1.149992 2.75-1.46875 1.03778-0.318709 2.13091-0.468734 3.28125-0.46875zm-81.125 0.03125c0.67359 0.000016 1.33795 0.06792 1.96875 0.21875 0.63079 0.150942 1.17951 0.427282 1.65625 0.8125 0.47674 0.385266 0.86181 0.906163 1.15625 1.59375 0.29441 0.687636 0.4375 1.583931 0.4375 2.65625v17.8125c0 0.737756-0.0377 1.629007-0.0937 2.71875-0.056 1.08974-0.17901 2.06571-0.375 2.9375-0.30899 1.34144-0.79258 2.46993-1.4375 3.375-0.64492 0.905044-1.35685 1.633924-2.15625 2.187504-0.7994 0.55355-1.59315 0.95318-2.40625 1.1875-0.8131 0.23431-1.53613 0.34373-2.125 0.34375-1.20596-0.00002-2.06396-0.25947-2.625-0.8125-0.56104-0.55307-0.96025-1.36413-1.15625-2.4375-0.0847-0.435904-0.14556-0.888984-0.1875-1.375004-0.042-0.48604-0.0998-1.16197-0.15625-2 0.89784-0.1003 1.62647-0.2919 2.1875-0.59375 0.56104-0.30185 1.00395-0.68658 1.3125-1.15625s0.51288-1.036174 0.625-1.65625c0.11218-0.620076 0.18749-1.293494 0.1875-2.03125v-23.4375c0.33636-0.03381 0.66664-0.08976 1.03125-0.15625 0.30812-0.06746 0.65252-0.122923 1.03125-0.15625 0.37873-0.03316 0.76038-0.03125 1.125-0.03125zm65.5 0.0625c0.67358 0.000016 1.3067 0.06792 1.9375 0.21875 0.63079 0.150942 1.1795 0.427282 1.65625 0.8125 0.47672 0.385266 0.86181 0.937413 1.15625 1.625 0.29443 0.687636 0.46874 1.552681 0.46875 2.625v17.8125c-0.00001 0.737756-0.0378 1.660257-0.0937 2.75-0.056 1.08974-0.17901 2.06571-0.375 2.9375-0.30899 1.34144-0.7926 2.46993-1.4375 3.375-0.64493 0.905044-1.35685 1.633924-2.15625 2.187504-0.79942 0.55355-1.6244 0.92193-2.4375 1.15625-0.81311 0.23431-1.5049 0.37498-2.09375 0.375-1.20596-0.00002-2.09522-0.29072-2.65625-0.84375-0.56104-0.55307-0.92901-1.36413-1.125-2.4375-0.0847-0.435904-0.14556-0.888984-0.1875-1.375004-0.0419-0.48604-0.0998-1.16197-0.15625-2 0.89784-0.1003 1.62646-0.2919 2.1875-0.59375s1.00395-0.68658 1.3125-1.15625c0.30854-0.46967 0.51287-1.004924 0.625-1.625 0.11205-0.620076 0.15625-1.324744 0.15625-2.0625v-23.4375c0.33636-0.03381 0.69788-0.05851 1.0625-0.125 0.30812-0.06746 0.6525-0.122923 1.03125-0.15625 0.37872-0.03316 0.76038-0.0625 1.125-0.0625zm36.34375 7.84375c-0.95347 0.000016-1.61826 0.494189-1.96875 1.5-0.35049 1.00586-0.53125 2.381433-0.53125 4.125 0 0.80428 0.0411 1.562397 0.125 2.25 0.0839 0.687619 0.22693 1.292696 0.4375 1.8125 0.21054 0.519804 0.50737 0.916898 0.84375 1.21875 0.33635 0.301852 0.745 0.46875 1.25 0.46875 0.33635 0 0.61606-0.04295 0.8125-0.09375 0.19642-0.05064 0.32151-0.09119 0.40625-0.125v-10.8125c-0.16861-0.133955-0.38965-0.231098-0.65625-0.28125-0.26662-0.05015-0.49452-0.0625-0.71875-0.0625zm93.1875 0.375c-0.76834 0.110026-1.31833 0.619915-1.625 1.5-0.3505 1.00586-0.53126 2.381433-0.53125 4.125-0.00001 0.80428 0.0411 1.531147 0.125 2.21875 0.0839 0.687619 0.22695 1.292696 0.4375 1.8125s0.50737 0.948148 0.84375 1.25c0.33636 0.301852 0.74501 0.4375 1.25 0.4375 0.33636 0 0.61605-0.0117 0.8125-0.0625 0.19641-0.05064 0.32151-0.09119 0.40625-0.125v-10.8125c-0.16863-0.133955-0.38965-0.231098-0.65625-0.28125-0.26663-0.05015-0.49452-0.0625-0.71875-0.0625-0.11919 0.000002-0.23399-0.01572-0.34375 0zm-175.78125 30.406254c0.67359 0.00005 1.3067 0.0992 1.9375 0.25 0.63079 0.15094 1.21075 0.39553 1.6875 0.78125 0.47672 0.3858 0.86181 0.93741 1.15625 1.625 0.29441 0.68764 0.43749 1.55268 0.4375 2.625v30.187496c-1.14949 0.4359-2.19592 0.65625-3.09375 0.65625-1.28985 0-2.2849-0.19362-3-0.5625-0.71511-0.36886-1.24326-0.8338-1.59375-1.4375s-0.55481-1.30586-0.625-2.09375c-0.0702-0.78788-0.125-1.62821-0.125-2.5v-29.156246c0.33636-0.0336 0.69788-0.0896 1.0625-0.15625 0.30812-0.0675 0.65252-0.12244 1.03125-0.15625 0.37873-0.0336 0.76038-0.0625 1.125-0.0625zm11.75 0c0.67359 0.00005 1.33795 0.0992 1.96875 0.25 0.63079 0.15094 1.1795 0.39553 1.65625 0.78125 0.47672 0.3858 0.86181 0.93741 1.15625 1.625 0.29443 0.68764 0.43749 1.55268 0.4375 2.625v16.1875c0.14036-0.73672 0.37895-1.43537 0.6875-2.15625 0.30854-0.72085 0.71075-1.45122 1.1875-2.15625l2.25-3.46875c0.53235-0.80423 1.13589-1.50689 1.78125-2.09375 0.64534-0.5868 1.535-0.87498 2.65625-0.875 0.64534 0.00002 1.25788 0.12588 1.875 0.34375 0.61708 0.21798 1.17949 0.45069 1.65625 0.71875 0.53234 0.30188 1.02325 0.63064 1.5 1l-5.75 9.65625 6.8125 12.437496c-1.85132 0.90454-3.55144 1.34375-5.09375 1.34375-1.3181 0-2.36755-0.27381-3.125-0.84375-0.75748-0.56994-1.40815-1.31421-1.96875-2.21875l-2.6875-4.46875c-0.47675-0.77048-0.84428-1.51675-1.125-2.1875-0.28074-0.67071-0.51589-1.41196-0.65625-2.25v11.40625h-8.40625v-35.281246c0.33636-0.0336 0.69788-0.0896 1.0625-0.15625 0.30812-0.0675 0.65252-0.12244 1.03125-0.15625 0.37873-0.0336 0.72914-0.0625 1.09375-0.0625zm-23.9375 0.25c0.67271 0.00005 1.30625 0.0679 1.9375 0.21875 0.63121 0.15094 1.1795 0.42678 1.65625 0.8125 0.47672 0.3858 0.8618 0.93741 1.15625 1.625 0.2944 0.68764 0.46874 1.55268 0.46875 2.625v30.374996h-6.3125c-0.42112 0-0.8199-0.10896-1.15625-0.34375-0.33638-0.23483-0.50001-0.7295-0.5-1.5-0.39286 0.60268-1.01954 1.13846-1.875 1.625-0.85548 0.48654-1.92892 0.71875-3.21875 0.71875-0.95347 0-1.88685-0.16237-2.8125-0.53125-0.92566-0.36888-1.75708-1.01557-2.5-1.9375s-1.34946-2.18858-1.8125-3.78125c-0.46304-1.59264-0.6875-3.58517-0.6875-6 0-2.413786 0.22145-4.479656 0.65625-6.156246 0.4348-1.67654 1.02078-3.02339 1.75-4.0625 0.72922-1.03907 1.54653-1.78032 2.5-2.25 0.95347-0.46965 1.96179-0.71873 3-0.71875 0.67273 0.00002 1.27969 0.0823 1.8125 0.25 0.53277 0.16783 0.99625 0.37583 1.375 0.59375 0.37872 0.21797 0.66788 0.40708 0.90625 0.625 0.23836 0.21798 0.41611 0.39974 0.5 0.5v-12.34375c0.33722-0.0336 0.66748-0.0584 1.03125-0.125 0.30897-0.0675 0.66663-0.12244 1.03125-0.15625 0.36461-0.0336 0.72912-0.0625 1.09375-0.0625zm-23.093747 0.0312c0.56146 0.00003 1.15045 0.0412 1.78125 0.125 0.63079 0.084 1.254877 0.20723 1.843747 0.375 1.00996 0.30188 1.8645 0.77133 2.59375 1.375 0.7292 0.60375 1.09374 1.4539 1.09375 2.59375-0.00001 0.50243-0.16322 1.17636-0.5 2.03125-0.33681 0.85493-0.78015 1.75071-1.3125 2.65625-0.44851-0.30184-1.01736-0.61924-1.71875-0.9375-0.70143-0.31819-1.471167-0.46872-2.312497-0.46875-0.72924 0.00003-1.33921 0.23526-1.84375 0.6875-0.50456 0.45229-0.75 1.15193-0.75 2.125v1.21875h6.218747v7.46875h-6.218747v16.812496h-8.375v-24.031246c0-0.43587 0.0174-1.04148 0.0312-1.8125 0.0137-0.77099 0.0373-1.40532 0.0937-1.875 0.36461-2.71563 1.31855-4.79336 2.875-6.21875 1.55645-1.42533 3.72346-2.12497 6.5-2.125zm201.65625 0.625c1.14946 0.00003 2.13808 0.42586 2.9375 1.28125 0.79939 0.85545 1.18749 2.02704 1.1875 3.46875-0.00001 1.44176-0.38811 2.56824-1.1875 3.40625-0.79942 0.83804-1.78804 1.25003-2.9375 1.25-1.15033 0.00003-2.10728-0.41196-2.90625-1.25-0.79898-0.83801-1.1875-1.96449-1.1875-3.40625 0-1.44171 0.38852-2.6133 1.1875-3.46875 0.79897-0.85539 1.75592-1.28122 2.90625-1.28125zm-109 0.0312c0.67359 0.00005 1.33793 0.0679 1.96875 0.21875 0.63079 0.15094 1.17951 0.42678 1.65625 0.8125 0.47674 0.3858 0.86181 0.90616 1.15625 1.59375 0.29441 0.68764 0.43749 1.58393 0.4375 2.65625v16.1875c0.14036-0.73672 0.34768-1.46662 0.65625-2.1875 0.30854-0.72085 0.71075-1.41997 1.1875-2.125l2.28125-3.46875c0.53235-0.80423 1.10464-1.50689 1.75-2.09375 0.64532-0.5868 1.535-0.87498 2.65625-0.875 0.64532 0.00002 1.28912 0.0946 1.90625 0.3125 0.61708 0.21798 1.14825 0.48194 1.625 0.75 0.53235 0.30188 1.05449 0.63064 1.53125 1l-5.78125 9.656246 6.8125 12.40625c-1.85134 0.90454-3.52019 1.375-5.0625 1.375-1.3181 0-2.36755-0.30506-3.125-0.875-0.75748-0.56994-1.40815-1.28296-1.96875-2.1875l-2.71875-4.5c-0.47675-0.77048-0.84427-1.4855-1.125-2.15625-0.28074-0.67071-0.48464-1.41196-0.625-2.25v11.40625h-8.40625v-35.312496c0.33636-0.0336 0.66663-0.0896 1.03125-0.15625 0.30812-0.0675 0.65252-0.0912 1.03125-0.125 0.37873-0.0336 0.76038-0.0625 1.125-0.0625zm30.5625 0.125c0.56146 0.00003 1.15045 0.0412 1.78125 0.125 0.63079 0.084 1.25488 0.20723 1.84375 0.375 1.00994 0.30188 1.86451 0.74008 2.59375 1.34375 0.72921 0.60375 1.09374 1.48515 1.09375 2.625-0.00001 0.50243-0.16322 1.17636-0.5 2.03125-0.33681 0.85493-0.7489 1.75071-1.28125 2.65625-0.44851-0.30184-1.04861-0.61924-1.75-0.9375-0.70143-0.31819-1.47117-0.46872-2.3125-0.46875-0.72924 0.00003-1.33921 0.20401-1.84375 0.65625-0.50456 0.45229-0.75 1.18318-0.75 2.15625v1.1875h6.21875v7.5h-6.21875v16.812496h-8.375v-24.062496c0-0.43587 0.0174-1.04148 0.0312-1.8125 0.0137-0.77099 0.0372-1.37407 0.0937-1.84375 0.36461-2.71563 1.31855-4.79336 2.875-6.21875 1.55645-1.42533 3.72346-2.12497 6.5-2.125zm40.78125 0.71875c0.67273 0.00005 1.33751 0.0679 1.96875 0.21875 0.63121 0.15094 1.17949 0.42678 1.65625 0.8125 0.47671 0.3858 0.8618 0.90616 1.15625 1.59375 0.29441 0.68764 0.43747 1.58393 0.4375 2.65625v30.374996h-6.3125c-0.42112 0-0.78864-0.14021-1.125-0.375-0.33638-0.23483-0.50001-0.7295-0.5-1.5-0.39287 0.60268-1.01953 1.13846-1.875 1.625-0.85548 0.48654-1.92893 0.75-3.21875 0.75-0.95348 0-1.88685-0.19362-2.8125-0.5625-0.92566-0.36888-1.75709-1.01557-2.5-1.9375-0.74293-0.92193-1.34946-2.18858-1.8125-3.78125-0.46304-1.59264-0.6875-3.58517-0.6875-6 0-2.41379 0.1902-4.448406 0.625-6.124996 0.43478-1.67654 1.02078-3.05464 1.75-4.09375 0.72922-1.03907 1.57777-1.78032 2.53125-2.25 0.95346-0.46965 1.96179-0.71873 3-0.71875 0.67273 0.00002 1.27969 0.1135 1.8125 0.28125 0.53279 0.16783 0.965 0.34458 1.34375 0.5625 0.37872 0.21797 0.69911 0.43833 0.9375 0.65625 0.23835 0.21798 0.38486 0.36849 0.46875 0.46875v-12.3125c0.3372-0.0336 0.69872-0.0896 1.0625-0.15625 0.30896-0.0675 0.63537-0.12244 1-0.15625 0.36459-0.0336 0.72913-0.0312 1.09375-0.0312zm11.78125 0c0.67359 0.00005 1.3067 0.0679 1.9375 0.21875 0.63079 0.15094 1.17951 0.42678 1.65625 0.8125 0.47674 0.3858 0.86181 0.90616 1.15625 1.59375 0.29441 0.68764 0.46875 1.58393 0.46875 2.65625v16.187496c0.14036-0.736716 0.34768-1.466616 0.65625-2.187496 0.30854-0.72085 0.71076-1.45122 1.1875-2.15625l2.28125-3.46865c0.53235-0.80423 1.10464-1.47564 1.75-2.0625 0.64532-0.5868 1.535-0.90623 2.65625-0.90625 0.64532 0.00002 1.25788 0.12588 1.875 0.34375 0.61708 0.21798 1.1795 0.45069 1.65625 0.71875 0.53235 0.30188 1.02324 0.63064 1.5 1l-5.75 9.656246 6.8125 12.4375c-1.85134 0.90454-3.55144 1.34375-5.09375 1.34375-1.3181 0-2.3363-0.27381-3.09375-0.84375-0.75749-0.56994-1.4394-1.31421-2-2.21875l-2.6875-4.46875c-0.47675-0.77048-0.84427-1.4855-1.125-2.15625-0.28074-0.67071-0.48464-1.44321-0.625-2.28125v11.4375h-8.4375v-35.312496c0.33636-0.0336 0.69789-0.0896 1.0625-0.15625 0.30812-0.0675 0.65252-0.12244 1.03125-0.15625 0.37873-0.0336 0.76038-0.0312 1.125-0.0312zm-97.96875 9.34375c3.2815 0.00002 5.61471 0.77 7.03125 2.3125 1.41648 1.54254 2.12499 3.99064 2.125 7.34375v9.812496c-0.00001 0.83803 0.0753 1.76053 0.1875 2.75 0.11205 0.98946 0.27273 1.85599 0.46875 2.59375-0.39287 0.13412-0.75439 0.22858-1.0625 0.3125-0.30813 0.084-0.6114 0.16863-0.90625 0.21875-0.29487 0.0502-0.61528 0.077-0.9375 0.0937-0.32226 0.0168-0.66967 0.0312-1.0625 0.0312-2.27157 0-3.60416-0.76946-3.96875-2.3125-0.47675 0.56994-1.16812 1.09283-2.09375 1.5625-0.92568 0.46965-2.09805 0.6875-3.5 0.6875-0.8696 0-1.7006-0.13823-2.5-0.40625-0.79942-0.26809-1.50791-0.69442-2.125-1.28125-0.61711-0.58681-1.10413-1.35679-1.46875-2.3125-0.36461-0.95569-0.53125-2.12476-0.53125-3.5 0-1.94413 0.42578-3.49948 1.28125-4.65625 0.85547-1.15675 1.87366-2.021276 3.09375-2.624996 1.22007-0.60369 2.50854-0.98894 3.8125-1.15625 1.30395-0.16728 2.41766-0.24998 3.34375-0.25v-0.71875c-0.00001-0.46965-0.0784-0.84001-0.21875-1.125-0.14037-0.28495-0.32415-0.50531-0.5625-0.65625-0.23839-0.15094-0.52108-0.23108-0.84375-0.28125-0.32268-0.0502-0.66664-0.0937-1.03125-0.0937-0.98086 0.00002-1.95236 0.15061-2.90625 0.46875-0.9539 0.31824-2.00978 0.82877-3.1875 1.5-0.53322-0.7715-0.95257-1.54348-1.21875-2.28125-0.26618-0.73774-0.40625-1.28787-0.40625-1.65625 0-0.50342 0.1572-0.98522 0.4375-1.4375 0.28031-0.45226 0.84915-0.90279 1.71875-1.40625 0.75745-0.46964 1.77265-0.8569 3.0625-1.125 1.28982-0.26806 2.62242-0.40623 3.96875-0.40625zm60.09375 1.3126c2.29979 0.00002 4.28904 0.412 6 1.25 0.7566 0.36941 1.38412 0.82396 1.875 1.34375 0.49084 0.51982 0.74999 1.10854 0.75 1.8125-0.00001 0.60272-0.17778 1.31774-0.5 2.15625-0.32226 0.83856-0.71078 1.666-1.1875 2.4375-0.84222-0.7715-1.73104-1.42019-2.65625-1.90625-0.92524-0.48601-1.85904-0.71872-2.8125-0.71875-1.20597 0.00003-1.81251 0.41199-1.8125 1.25-0.00001 0.53619 0.20774 0.96504 0.65625 1.25 0.44848 0.28498 1.01433 0.5177 1.6875 0.71875 0.67315 0.20108 1.4022 0.43578 2.1875 0.687496 0.78528 0.25172 1.51433 0.6221 2.1875 1.125 0.67316 0.50293 1.23856 1.19072 1.6875 2.0625 0.4489 0.87181 0.68749 1.9983 0.6875 3.40625-0.00001 2.68292-0.79032 4.84484-2.375 6.4375-1.58471 1.59266-3.90849 2.375-6.9375 2.375-1.73919 0-3.09491-0.15001-4.0625-0.46875-0.9676-0.31874-1.72064-0.66437-2.28125-1-0.72922-0.43589-1.25095-0.9177-1.53125-1.4375-0.28031-0.51979-0.40625-1.05506-0.40625-1.625 0-0.87179 0.18076-1.72446 0.53125-2.5625 0.35049-0.83801 0.73901-1.66447 1.1875-2.46875 0.33636 0.36838 0.72145 0.71252 1.15625 1.03125 0.4348 0.31874 0.90127 0.60691 1.40625 0.875s1.0297 0.47407 1.5625 0.625c0.53279 0.15094 1.05751 0.25002 1.5625 0.25 0.72922 0.00002 1.25395-0.15257 1.5625-0.4375 0.30854-0.28496 0.46874-0.65785 0.46875-1.09375-0.00001-0.50342-0.25572-0.88563-0.71875-1.1875-0.46305-0.30184-1.01435-0.57818-1.6875-0.8125-0.67317-0.23432-1.4369-0.51063-2.25-0.8125-0.81311-0.30185-1.54559-0.69895-2.21875-1.21875-0.67316-0.51979-1.22489-1.20758-1.6875-2.0625-0.46262-0.8549-0.71876-1.968506-0.71875-3.343746-0.00001-1.34041 0.24201-2.52539 0.71875-3.53125 0.47674-1.00581 1.10727-1.81489 1.90625-2.46875 0.79898-0.65382 1.74346-1.14999 2.78125-1.46875 1.03776-0.31871 2.13092-0.46873 3.28125-0.46875zm63 0.5625c0.67358 0.00003 1.33795 0.0679 1.96875 0.21875 0.63079 0.15094 1.1795 0.42727 1.65625 0.8125 0.47672 0.38527 0.86181 0.90616 1.15625 1.59375 0.29443 0.68764 0.43749 1.58393 0.4375 2.65625v17.781246c-0.00001 0.73776-0.0378 1.66026-0.0937 2.75-0.056 1.08974-0.17901 2.06569-0.375 2.9375-0.30899 1.34144-0.76135 2.46995-1.40625 3.375-0.64493 0.90505-1.3881 1.63392-2.1875 2.1875-0.79942 0.55355-1.59315 0.95318-2.40625 1.1875-0.81311 0.23431-1.5049 0.34373-2.09375 0.34375-1.20596-0.00002-2.09521-0.29072-2.65625-0.84375-0.56103-0.55307-0.96025-1.36413-1.15625-2.4375-0.0847-0.4359-0.14555-0.88898-0.1875-1.375-0.0419-0.48604-0.0684-1.13074-0.125-1.96875 0.89784-0.1003 1.62646-0.32315 2.1875-0.625s0.9727-0.68658 1.28125-1.15625c0.30854-0.46967 0.54412-1.00492 0.65625-1.625 0.11218-0.62008 0.15625-1.29349 0.15625-2.03125v-23.437496c0.33636-0.0338 0.69788-0.0898 1.0625-0.15625 0.30812-0.0675 0.6525-0.12308 1.03125-0.15625 0.37872-0.0332 0.72913-0.0312 1.09375-0.0312zm-182.75 5.375c-0.76834 0.11003-1.31832 0.61992-1.625 1.5-0.35049 1.00586-0.50001 2.38143-0.5 4.124996-0.00001 0.80428 0.0411 1.53115 0.125 2.21875 0.0839 0.68762 0.22693 1.2927 0.4375 1.8125 0.21054 0.5198 0.47612 0.94815 0.8125 1.25 0.33635 0.30185 0.74501 0.4375 1.25 0.4375 0.33635 0 0.61606-0.0117 0.8125-0.0625 0.19642-0.0506 0.3215-0.0912 0.40625-0.125v-10.812496c-0.16863-0.13395-0.3584-0.2311-0.625-0.28125-0.26662-0.0502-0.52577-0.0625-0.75-0.0625-0.11918 0-0.23399-0.0157-0.34375 0zm141.28125 1.5c-0.95348 0.00002-1.61827 0.49419-1.96875 1.5-0.3505 1.00586-0.53126 2.381426-0.53125 4.124996-0.00001 0.80428 0.0411 1.5624 0.125 2.25 0.0839 0.68762 0.22693 1.2927 0.4375 1.8125 0.21054 0.5198 0.50737 0.9169 0.84375 1.21875 0.33636 0.30185 0.74501 0.46875 1.25 0.46875 0.33635 0 0.61605-0.0429 0.8125-0.0937 0.19641-0.0506 0.3215-0.0912 0.40625-0.125v-10.812496c-0.16863-0.13395-0.38966-0.2311-0.65625-0.28125-0.26663-0.0502-0.49452-0.0625-0.71875-0.0625zm-80.3125 4.937496c-0.53238 0.0676-1.05411 0.17848-1.53125 0.3125-0.47718 0.13412-0.89952 0.31132-1.25 0.5625-0.3505 0.25121-0.60238 0.59737-0.8125 1-0.21013 0.40266-0.34376 0.92605-0.34375 1.5625-0.00001 0.77152 0.18075 1.36224 0.53125 1.78125 0.35048 0.41901 0.85164 0.625 1.46875 0.625 0.50498 0 0.95131-0.13823 1.34375-0.40625 0.39241-0.26807 0.59374-0.68154 0.59375-1.21875zm56.96875 76.6875c1.14946 0.00003 2.13808 0.42586 2.9375 1.28125 0.79939 0.85545 1.18749 1.9958 1.1875 3.4375-0.00001 1.44176-0.38811 2.5995-1.1875 3.4375-0.79942 0.83806-1.78804 1.25003-2.9375 1.25-1.15033 0.00003-2.10728-0.41194-2.90625-1.25-0.79898-0.838-1.21875-1.99574-1.21875-3.4375 0-1.4417 0.41977-2.58205 1.21875-3.4375 0.79897-0.85539 1.75592-1.28122 2.90625-1.28125zm-89.1875 0.46875c0.56145 0.00003 1.18168 0.041 1.8125 0.125 0.63079 0.084 1.22363 0.20723 1.8125 0.375 1.00994 0.30188 1.89576 0.74008 2.625 1.34375 0.72921 0.60375 1.09374 1.48515 1.09375 2.625-0.00001 0.50243-0.19447 1.17636-0.53125 2.03125-0.33681 0.85493-0.7489 1.71946-1.28125 2.625-0.44851-0.30184-1.01736-0.58799-1.71875-0.90625-0.70143-0.31819-1.50242-0.49997-2.34375-0.5-0.72924 0.00003-1.33921 0.23526-1.84375 0.6875-0.50456 0.45229-0.75 1.18318-0.75 2.15625v1.1875h6.21875v7.5h-6.21875v16.8125h-8.375v-24.0625c0-0.43587 0.0174-1.04148 0.0312-1.8125 0.0137-0.77099 0.0374-1.37407 0.0937-1.84375 0.36461-2.71563 1.31855-4.79336 2.875-6.21875 1.55645-1.42533 3.72345-2.12497 6.5-2.125zm106.5 0c0.56145 0.00003 1.15043 0.041 1.78125 0.125 0.63078 0.084 1.25487 0.20723 1.84375 0.375 1.00994 0.30188 1.86451 0.74008 2.59375 1.34375 0.72921 0.60375 1.09372 1.48515 1.09375 2.625-0.00003 0.50243-0.16323 1.17636-0.5 2.03125-0.33682 0.85493-0.78016 1.71946-1.3125 2.625-0.44851-0.30184-1.01736-0.58799-1.71875-0.90625-0.70143-0.31819-1.47116-0.49997-2.3125-0.5-0.72924 0.00003-1.33921 0.23526-1.84375 0.6875-0.50456 0.45229-0.75001 1.18318-0.75 2.15625v1.1875h6.21875v7.5h-6.21875v16.8125h-8.375v-24.0625c0-0.43587-0.0138-1.04148 0-1.8125 0.0137-0.77099 0.0684-1.37407 0.125-1.84375 0.36462-2.71563 1.31855-4.79336 2.875-6.21875 1.55644-1.42533 3.72345-2.12497 6.5-2.125zm-76.96875 0.375c0.67359 0.00005 1.3067 0.0992 1.9375 0.25 0.6308 0.15094 1.21076 0.39553 1.6875 0.78125 0.47674 0.3858 0.86181 0.93741 1.15625 1.625 0.29441 0.68764 0.43749 1.55268 0.4375 2.625v30.1875c-1.14949 0.4359-2.19592 0.65625-3.09375 0.65625-1.28985 0-2.2849-0.19362-3-0.5625-0.71511-0.36886-1.24327-0.8338-1.59375-1.4375-0.3505-0.6037-0.55482-1.30586-0.625-2.09375-0.0702-0.78788-0.0937-1.62821-0.0937-2.5v-29.15625c0.33636-0.0336 0.66663-0.0896 1.03125-0.15625 0.30812-0.0675 0.65252-0.12244 1.03125-0.15625 0.37873-0.0336 0.76038-0.0625 1.125-0.0625zm11.75 0c0.67358 0.00005 1.3067 0.0992 1.9375 0.25 0.63079 0.15094 1.21075 0.39553 1.6875 0.78125 0.47672 0.3858 0.86181 0.93741 1.15625 1.625 0.29443 0.68764 0.43749 1.55268 0.4375 2.625v16.21875c0.14036-0.73672 0.3477-1.46662 0.65625-2.1875 0.30854-0.72085 0.71075-1.45122 1.1875-2.15625l2.28125-3.46875c0.53235-0.80423 1.10464-1.5069 1.75-2.09375 0.64534-0.5868 1.535-0.87498 2.65625-0.875 0.64534 0.00002 1.28913 0.12588 1.90625 0.34375 0.61708 0.21797 1.14824 0.45069 1.625 0.71875 0.53234 0.30188 1.05449 0.63064 1.53125 1l-5.78125 9.65625 6.8125 12.4375c-1.85132 0.90454-3.55144 1.34375-5.09375 1.34375-1.3181 0-2.3363-0.27381-3.09375-0.84375-0.75749-0.56994-1.4394-1.31421-2-2.21875l-2.6875-4.46875c-0.47674-0.77048-0.84428-1.4855-1.125-2.15625-0.28074-0.67071-0.48464-1.44321-0.625-2.28125v11.4375h-8.4375v-35.3125c0.33636-0.0336 0.69788-0.0896 1.0625-0.15625 0.30812-0.0675 0.6525-0.12244 1.03125-0.15625 0.37872-0.0336 0.76038-0.0625 1.125-0.0625zm-26.15625 10.71875c2.29979 0.00002 4.32029 0.412 6.03125 1.25 0.7566 0.36941 1.38412 0.82396 1.875 1.34375 0.49084 0.51982 0.71874 1.13979 0.71875 1.84375-0.00001 0.60272-0.14653 1.31774-0.46875 2.15625-0.32226 0.83856-0.74203 1.63475-1.21875 2.40625-0.84222-0.7715-1.73104-1.38894-2.65625-1.875-0.92524-0.48601-1.85904-0.71873-2.8125-0.71875-1.20597 0.00002-1.81251 0.41199-1.8125 1.25-0.00001 0.53619 0.23899 0.93379 0.6875 1.21875 0.44848 0.28498 1.01433 0.54895 1.6875 0.75 0.67315 0.20108 1.4022 0.40455 2.1875 0.65625 0.78528 0.25173 1.51433 0.65335 2.1875 1.15625 0.67316 0.50293 1.23856 1.19072 1.6875 2.0625 0.4489 0.87181 0.65624 1.9983 0.65625 3.40625-0.00001 2.68292-0.79032 4.81359-2.375 6.40625-1.58471 1.59266-3.87724 2.40625-6.90625 2.40625-1.73919 0-3.09491-0.18126-4.0625-0.5-0.9676-0.31874-1.75189-0.63312-2.3125-0.96875-0.72922-0.43589-1.2197-0.9177-1.5-1.4375-0.28031-0.51979-0.4375-1.05506-0.4375-1.625 0-0.87179 0.18076-1.72446 0.53125-2.5625 0.35049-0.83801 0.77026-1.66447 1.21875-2.46875 0.33636 0.36838 0.72145 0.71252 1.15625 1.03125 0.4348 0.31874 0.90127 0.60691 1.40625 0.875s1.0297 0.47407 1.5625 0.625c0.53279 0.15094 1.02626 0.21875 1.53125 0.21875 0.72922 0 1.25393-0.12132 1.5625-0.40625 0.30854-0.28496 0.46874-0.65785 0.46875-1.09375-0.00001-0.50342-0.22447-0.91688-0.6875-1.21875-0.46305-0.30184-1.0456-0.54693-1.71875-0.78125-0.67317-0.23432-1.40565-0.51063-2.21875-0.8125-0.81311-0.30185-1.54559-0.69895-2.21875-1.21875-0.67316-0.51979-1.25614-1.20758-1.71875-2.0625-0.46262-0.8549-0.68751-1.96851-0.6875-3.34375-0.00001-1.34041 0.24201-2.52539 0.71875-3.53125 0.47674-1.00581 1.10727-1.84614 1.90625-2.5 0.79898-0.65382 1.71221-1.11874 2.75-1.4375 1.03776-0.31871 2.13092-0.49998 3.28125-0.5zm57.59375 0c3.2815 0.00002 5.64598 0.77 7.0625 2.3125 1.4165 1.54254 2.12499 3.99064 2.125 7.34375v9.8125c-0.00001 0.83803 0.0441 1.76053 0.15625 2.75 0.11205 0.98946 0.27273 1.85599 0.46875 2.59375-0.39287 0.13395-0.75439 0.22858-1.0625 0.3125-0.30815 0.084-0.61142 0.16863-0.90625 0.21875-0.29487 0.0502-0.58403 0.077-0.90625 0.0937-0.32226 0.0168-0.7009 0.0312-1.09375 0.0312-2.27156 0-3.57291-0.76946-3.9375-2.3125-0.47675 0.56994-1.1681 1.0616-2.09375 1.53125-0.92566 0.46967-2.09805 0.71875-3.5 0.71875-0.8696 0-1.7006-0.13823-2.5-0.40625-0.7994-0.26809-1.50791-0.69442-2.125-1.28125-0.61711-0.58683-1.10414-1.35681-1.46875-2.3125-0.36462-0.95569-0.5625-2.12476-0.5625-3.5 0-1.94413 0.42578-3.49948 1.28125-4.65625 0.85547-1.15675 1.90491-2.02128 3.125-2.625 1.22007-0.60369 2.47729-0.98894 3.78125-1.15625 1.30395-0.16728 2.41766-0.24998 3.34375-0.25v-0.71875c-0.00001-0.46965-0.0784-0.84002-0.21875-1.125-0.14037-0.28496-0.32415-0.50531-0.5625-0.65625-0.23839-0.15094-0.52108-0.26233-0.84375-0.3125-0.32268-0.0502-0.66664-0.0625-1.03125-0.0625-0.98086 0.00002-1.95236 0.15061-2.90625 0.46875-0.9539 0.31824-2.00978 0.82877-3.1875 1.5-0.53323-0.7715-0.92132-1.54348-1.1875-2.28125-0.26618-0.73754-0.40625-1.28777-0.40625-1.65615 0-0.50342 0.12594-0.98521 0.40625-1.4375 0.28031-0.45224 0.84915-0.90279 1.71875-1.40625 0.75747-0.46964 1.8039-0.8569 3.09375-1.125 1.28983-0.26806 2.59117-0.40623 3.9375-0.40625zm15.71875 0.5c0.67358 0.00003 1.33795 0.0992 1.96875 0.25 0.63079 0.15094 1.1795 0.39602 1.65625 0.78125 0.47672 0.38527 0.86181 0.93741 1.15625 1.625 0.29443 0.68762 0.43749 1.55266 0.4375 2.625v17.8125c-0.00001 0.73776-0.0378 1.66026-0.0937 2.75-0.056 1.08973-0.17901 2.06569-0.375 2.9375-0.30899 1.34144-0.7926 2.46995-1.4375 3.375-0.64493 0.90505-1.35685 1.63392-2.15625 2.1875-0.79942 0.55355-1.59315 0.95318-2.40625 1.1875-0.81311 0.23431-1.53615 0.34373-2.125 0.34375-1.20596-0.00002-2.06396-0.29072-2.625-0.84375-0.56104-0.55307-0.96026-1.36415-1.15625-2.4375-0.0847-0.4359-0.14556-0.88898-0.1875-1.375-0.0419-0.48604-0.0998-1.16199-0.15625-2 0.89784-0.1003 1.62646-0.2919 2.1875-0.59375s1.00395-0.68658 1.3125-1.15625c0.30854-0.46967 0.51288-1.00492 0.625-1.625 0.11218-0.62008 0.1875-1.29349 0.1875-2.03125v-23.4375c0.33638-0.0338 0.66663-0.0898 1.03125-0.15625 0.30812-0.0675 0.6525-0.12308 1.03125-0.15625 0.37872-0.0332 0.76038-0.0625 1.125-0.0625zm-14.40625 13.1875c-0.53238 0.0676-1.02285 0.17846-1.5 0.3125-0.47717 0.13412-0.89952 0.31132-1.25 0.5625-0.3505 0.25121-0.63364 0.59737-0.84375 1-0.21013 0.40266-0.31251 0.8948-0.3125 1.53125-0.00001 0.77152 0.18075 1.39349 0.53125 1.8125 0.35048 0.41901 0.82039 0.625 1.4375 0.625 0.50496 0 0.95131-0.13823 1.34375-0.40625 0.39241-0.26807 0.59374-0.68154 0.59375-1.21875zm-66.34375 25.03125c1.14946 0.00003 2.13808 0.45711 2.9375 1.3125 0.7994 0.85545 1.18749 1.9958 1.1875 3.4375-0.00001 1.44176-0.3881 2.56825-1.1875 3.40625-0.79942 0.83806-1.78804 1.25003-2.9375 1.25-1.15033 0.00003-2.13852-0.41194-2.9375-1.25-0.79898-0.838-1.1875-1.96449-1.1875-3.40625 0-1.4417 0.38852-2.58205 1.1875-3.4375 0.79898-0.85539 1.78717-1.31247 2.9375-1.3125zm91.875 0c1.14946 0.00003 2.10683 0.45711 2.90625 1.3125 0.7994 0.85545 1.18749 1.9958 1.1875 3.4375-0.00001 1.44176-0.3881 2.56825-1.1875 3.40625-0.79942 0.83806-1.75679 1.25003-2.90625 1.25-1.15034 0.00003-2.13852-0.41194-2.9375-1.25-0.64144-0.67277-0.99853-1.53182-1.125-2.59375-0.0775 0.40337-0.22146 0.85783-0.4375 1.40625-0.33681 0.85493-0.74891 1.75071-1.28125 2.65625-0.44851-0.30184-1.04861-0.61924-1.75-0.9375-0.70143-0.31819-1.47116-0.46872-2.3125-0.46875-0.72924 0.00003-1.33921 0.23527-1.84375 0.6875-0.50456 0.45231-0.75001 1.15193-0.75 2.125v1.21875h6.21875v7.46875h-6.21875v16.8125h-8.375v-24.03125c0-0.43587 0.0174-1.04148 0.0312-1.8125 0.0137-0.77099 0.0372-1.40532 0.0937-1.875 0.36461-2.71563 1.31855-4.79336 2.875-6.21875 1.55645-1.42533 3.72345-2.12497 6.5-2.125 0.56145 0.00003 1.15043 0.0412 1.78125 0.125 0.63078 0.084 1.25487 0.20722 1.84375 0.375 1.00994 0.30188 1.86451 0.77133 2.59375 1.375 0.52938 0.4383 0.85492 0.99792 1 1.71875 0.11089-1.12027 0.49032-2.03699 1.15625-2.75 0.79898-0.85539 1.78716-1.31247 2.9375-1.3125zm-4.09375 4.0625c-0.0222 0.22381-0.0312 0.44744-0.0312 0.6875 0 0.28426 0.0314 0.55171 0.0625 0.8125 0.0433-0.22541 0.0625-0.44488 0.0625-0.625-0.00001-0.31236-0.039-0.6029-0.0937-0.875zm40.375-3.59375c0.56146 0.00003 1.15045 0.0412 1.78125 0.125 0.63079 0.084 1.22363 0.20722 1.8125 0.375 1.00994 0.30188 1.89576 0.77133 2.625 1.375 0.72921 0.60375 1.09374 1.4539 1.09375 2.59375-0.00001 0.50243-0.16322 1.17636-0.5 2.03125-0.33681 0.85493-0.78015 1.75071-1.3125 2.65625-0.44851-0.30184-1.01736-0.61924-1.71875-0.9375-0.70143-0.31819-1.47117-0.46872-2.3125-0.46875-0.72924 0.00003-1.33921 0.23527-1.84375 0.6875-0.50456 0.45231-0.78125 1.15193-0.78125 2.125v1.21875h6.25v7.46875h-6.25v16.8125h-8.375v-24.03125c0-0.43587 0.0174-1.04148 0.0312-1.8125 0.0137-0.77099 0.0372-1.40532 0.0937-1.875 0.36461-2.71563 1.3498-4.79336 2.90625-6.21875 1.55645-1.42533 3.72345-2.12497 6.5-2.125zm-159.65625 0.40625c0.67273 0.00005 1.33751 0.0679 1.96875 0.21875 0.63121 0.15094 1.17949 0.42678 1.65625 0.8125 0.47671 0.3858 0.8618 0.90618 1.15625 1.59375 0.29441 0.68765 0.43747 1.58393 0.4375 2.65625v30.375h-6.3125c-0.42112 0-0.78864-0.10896-1.125-0.34375-0.33638-0.23483-0.50001-0.76075-0.5-1.53125-0.39287 0.60268-1.01953 1.16971-1.875 1.65625-0.85548 0.48654-1.92893 0.71875-3.21875 0.71875-0.95348 0-1.9181-0.19362-2.84375-0.5625-0.92566-0.36888-1.75709-1.01556-2.5-1.9375-0.74293-0.92193-1.34947-2.15733-1.8125-3.75-0.46305-1.59264-0.6875-3.61642-0.6875-6.03125 0-2.41379 0.22145-4.44841 0.65625-6.125 0.43478-1.67654 1.02078-3.02339 1.75-4.0625 0.72922-1.03907 1.57777-1.81157 2.53125-2.28125 0.95346-0.46965 1.93054-0.68747 2.96875-0.6875 0.67273 0.00003 1.27969 0.0822 1.8125 0.25 0.53279 0.16785 0.99625 0.34458 1.375 0.5625 0.37872 0.21797 0.69911 0.43833 0.9375 0.65625 0.23835 0.21798 0.38486 0.36851 0.46875 0.46875v-12.3125c0.3372-0.0338 0.69872-0.0896 1.0625-0.15625 0.30896-0.0675 0.63537-0.12244 1-0.15625 0.36459-0.0337 0.72913-0.0312 1.09375-0.0312zm16.34375 10.71875c2.29979 0.00003 4.32029 0.412 6.03125 1.25 0.75659 0.36941 1.38412 0.82396 1.875 1.34375 0.49084 0.51982 0.71874 1.10854 0.71875 1.8125-0.00001 0.6027-0.14653 1.31774-0.46875 2.15625-0.32226 0.83856-0.74203 1.666-1.21875 2.4375-0.84222-0.7715-1.73104-1.42019-2.65625-1.90625-0.92524-0.48601-1.85904-0.71873-2.8125-0.71875-1.20597 0.00002-1.81251 0.41199-1.8125 1.25-0.00001 0.53619 0.23901 0.96504 0.6875 1.25 0.44849 0.28498 1.01433 0.51769 1.6875 0.71875 0.67315 0.20108 1.4022 0.4358 2.1875 0.6875 0.78528 0.25173 1.51433 0.6221 2.1875 1.125 0.67315 0.50293 1.23856 1.19072 1.6875 2.0625 0.4489 0.87181 0.65624 1.9983 0.65625 3.40625-0.00001 2.68292-0.79032 4.84484-2.375 6.4375-1.58471 1.59266-3.87724 2.375-6.90625 2.375-1.73919 0-3.09491-0.15001-4.0625-0.46875-0.9676-0.31874-1.75189-0.66437-2.3125-1-0.72922-0.43589-1.2197-0.88645-1.5-1.40625-0.28031-0.5198-0.4375-1.08631-0.4375-1.65625 0-0.87179 0.18076-1.72446 0.53125-2.5625 0.35049-0.83801 0.77026-1.66447 1.21875-2.46875 0.33636 0.36838 0.72145 0.71251 1.15625 1.03125s0.90127 0.60691 1.40625 0.875 1.0297 0.50532 1.5625 0.65625c0.53279 0.15094 1.02626 0.21875 1.53125 0.21875 0.72922 0 1.25393-0.15257 1.5625-0.4375 0.30854-0.28496 0.46874-0.6266 0.46875-1.0625-0.00001-0.50342-0.22447-0.91688-0.6875-1.21875-0.46305-0.30184-1.0456-0.57818-1.71875-0.8125-0.67317-0.23432-1.40565-0.51065-2.21875-0.8125-0.81311-0.30185-1.54559-0.69895-2.21875-1.21875-0.67316-0.51979-1.25614-1.20758-1.71875-2.0625-0.46262-0.8549-0.6875-1.96851-0.6875-3.34375 0-1.34041 0.24201-2.52539 0.71875-3.53125 0.47674-1.00581 1.10727-1.81489 1.90625-2.46875 0.79898-0.65382 1.71221-1.14999 2.75-1.46875 1.03776-0.31871 2.13091-0.46872 3.28125-0.46875zm32.65625 0c1.71092 0.00003 3.16903 0.30256 4.375 0.90625 1.20595 0.60372 2.19413 1.40044 2.9375 2.40625 0.74334 1.00586 1.28861 2.19032 1.625 3.53125 0.33635 1.34096 0.49999 2.74327 0.5 4.21875v0.65625c-0.00001 0.28498-0.017 0.6044-0.0312 0.90625-0.0141 0.30187-0.0177 0.57568-0.0312 0.84375-0.0137 0.2681-0.0342 0.45971-0.0625 0.59375h-11.25c0.14036 1.27393 0.54257 2.36133 1.1875 3.25 0.6449 0.88868 1.69478 1.34377 3.125 1.34375 1.12207 0.00002 2.05544-0.22288 2.8125-0.625 0.75702-0.40212 1.52377-0.9225 2.28125-1.59375 0.36459 0.67125 0.72912 1.44071 1.09375 2.3125 0.36459 0.87179 0.53124 1.64229 0.53125 2.3125-0.00001 0.56994-0.12252 1.12209-0.375 1.625-0.25252 0.50293-0.69927 0.96783-1.34375 1.4375-0.61712 0.43589-1.44812 0.82315-2.5 1.125-1.05192 0.30185-2.36694 0.4375-3.9375 0.4375-1.14949 0-2.369-0.16437-3.6875-0.5-1.31852-0.33562-2.56586-0.99667-3.6875-1.96875-1.12167-0.97206-2.0379-2.33328-2.78125-4.09375s-1.125-4.05654-1.125-6.90625c0-2.11295 0.30327-3.95798 0.90625-5.5 0.60298-1.54199 1.4074-2.80664 2.375-3.8125 0.96759-1.00581 2.06417-1.74907 3.3125-2.21875 1.24833-0.46965 2.48839-0.68747 3.75-0.6875zm22.21875 0c1.93517 0.00003 3.55992 0.32929 4.90625 1 1.34632 0.67075 2.43988 1.5789 3.28125 2.71875 0.84133 1.1399 1.46499 2.47439 1.84375 4 0.37871 1.52565 0.56247 3.13395 0.5625 4.84375-0.00003 1.70984-0.20092 3.37611-0.59375 4.96875-0.39289 1.59267-1.01998 2.98061-1.875 4.1875-0.85506 1.20691-1.95207 2.15362-3.3125 2.875-1.36046 0.72137-3.03657 1.09375-5 1.09375-1.9352 0-3.56036-0.35801-4.90625-1.0625-1.34591-0.70449-2.45703-1.65372-3.3125-2.84375-0.85547-1.19002-1.48215-2.56559-1.875-4.125-0.39286-1.55939-0.59375-3.1939-0.59375-4.9375 0-1.74357 0.23857-3.40984 0.6875-4.96875 0.44891-1.55888 1.11972-2.89135 2.03125-4.03125 0.91153-1.13985 2.06035-2.048 3.40625-2.71875 1.3459-0.67071 2.92692-0.99997 4.75-1zm25.96875 0c0.42109 0.00003 0.84343 0.0244 1.25 0.125 0.40654 0.10079 0.75736 0.28208 1.09375 0.5 0.33635 0.21797 0.63318 0.50614 0.84375 0.875 0.21052 0.36889 0.31249 0.80759 0.3125 1.34375-0.00001 0.53619-0.0753 1.14432-0.1875 1.78125-0.11218 0.63698-0.2552 1.26679-0.4375 1.9375-0.18232 0.67075-0.3691 1.3318-0.59375 1.96875-0.22469 0.63698-0.46328 1.21533-0.6875 1.71875-0.58888-0.56992-1.1406-0.99626-1.6875-1.28125-0.54693-0.28495-1.16803-0.43748-1.8125-0.4375-0.72924 0.00002-1.2634 0.22036-1.65625 0.65625-0.39287 0.4359-0.59376 1.01477-0.59375 1.71875v14.03125h-8.46875v-24.03125c0.25249-0.0675 0.53862-0.15229 0.875-0.21875 0.30812-0.0675 0.66964-0.12308 1.0625-0.15625 0.39285-0.0332 0.83876-0.0312 1.34375-0.0312 2.52404 0.00003 4.10164 0.82398 4.71875 2.5 0.13951-0.30184 0.36139-0.61673 0.65625-0.96875 0.29485-0.35197 0.63881-0.69812 1.03125-1 0.39241-0.30182 0.83876-0.54892 1.34375-0.75 0.50496-0.20105 1.03313-0.28122 1.59375-0.28125zm41.75 0c2.29979 0.00003 4.3203 0.412 6.03125 1.25 0.7566 0.36941 1.35287 0.82396 1.84375 1.34375 0.49084 0.51982 0.74997 1.10854 0.75 1.8125-0.00003 0.6027-0.14651 1.31774-0.46875 2.15625-0.32226 0.83856-0.74204 1.666-1.21875 2.4375-0.84222-0.7715-1.73105-1.42019-2.65625-1.90625-0.92524-0.48601-1.85903-0.71873-2.8125-0.71875-1.20596 0.00002-1.8125 0.41199-1.8125 1.25 0 0.53619 0.23901 0.96504 0.6875 1.25 0.44848 0.28498 1.01433 0.51769 1.6875 0.71875 0.67316 0.20108 1.4022 0.4358 2.1875 0.6875 0.78526 0.25173 1.51431 0.6221 2.1875 1.125 0.67315 0.50293 1.23856 1.19072 1.6875 2.0625 0.4489 0.87181 0.65622 1.9983 0.65625 3.40625-0.00003 2.68292-0.79032 4.84484-2.375 6.4375-1.58471 1.59266-3.87724 2.375-6.90625 2.375-1.73919 0-3.09491-0.15001-4.0625-0.46875-0.9676-0.31874-1.75188-0.66437-2.3125-1-0.72922-0.43589-1.21969-0.88645-1.5-1.40625-0.2803-0.5198-0.4375-1.08631-0.4375-1.65625 0-0.87179 0.18076-1.72446 0.53125-2.5625 0.35049-0.83801 0.77026-1.66447 1.21875-2.46875 0.33636 0.36838 0.72145 0.71251 1.15625 1.03125 0.43478 0.31874 0.90126 0.60691 1.40625 0.875 0.50498 0.26809 0.99845 0.50532 1.53125 0.65625 0.53279 0.15094 1.05751 0.21875 1.5625 0.21875 0.72921 0 1.25393-0.15257 1.5625-0.4375 0.30854-0.28496 0.46874-0.6266 0.46875-1.0625-0.00001-0.50342-0.22446-0.91688-0.6875-1.21875-0.46304-0.30184-1.04559-0.57818-1.71875-0.8125-0.67317-0.23432-1.40565-0.51065-2.21875-0.8125s-1.57684-0.69895-2.25-1.21875c-0.67317-0.51979-1.22489-1.20758-1.6875-2.0625-0.46261-0.8549-0.6875-1.96851-0.6875-3.34375 0-1.34041 0.242-2.52539 0.71875-3.53125 0.47672-1.00581 1.10727-1.81489 1.90625-2.46875 0.79897-0.65382 1.71222-1.14999 2.75-1.46875 1.03778-0.31871 2.13091-0.46872 3.28125-0.46875zm-108.1875 0.5c0.67359 0.00003 1.3067 0.0679 1.9375 0.21875 0.63079 0.15094 1.21076 0.42727 1.6875 0.8125 0.47674 0.38527 0.86181 0.90616 1.15625 1.59375 0.29441 0.68762 0.4375 1.58391 0.4375 2.65625v17.78125c0 0.73776-0.0378 1.66026-0.0937 2.75-0.056 1.08973-0.17901 2.06569-0.375 2.9375-0.30899 1.34144-0.79258 2.46995-1.4375 3.375-0.64493 0.90505-1.35685 1.63392-2.15625 2.1875-0.79942 0.55355-1.6244 0.95318-2.4375 1.1875-0.8131 0.23431-1.50488 0.34373-2.09375 0.34375-1.20596-0.00002-2.09521-0.25947-2.65625-0.8125-0.56104-0.55307-0.929-1.36415-1.125-2.4375-0.0847-0.4359-0.14556-0.92023-0.1875-1.40625-0.042-0.48604-0.0998-1.13074-0.15625-1.96875 0.89784-0.1003 1.62647-0.2919 2.1875-0.59375 0.56104-0.30185 1.00395-0.71783 1.3125-1.1875s0.51288-1.00492 0.625-1.625c0.11218-0.62008 0.15624-1.29349 0.15625-2.03125v-23.4375c0.33636-0.0338 0.69789-0.0898 1.0625-0.15625 0.30812-0.0675 0.65252-0.12308 1.03125-0.15625 0.37873-0.0332 0.76038-0.0312 1.125-0.0312zm91.84375 0c0.67359 0.00003 1.33795 0.0679 1.96875 0.21875 0.63079 0.15094 1.1795 0.42727 1.65625 0.8125 0.47672 0.38527 0.86181 0.90616 1.15625 1.59375 0.29443 0.68762 0.43749 1.58391 0.4375 2.65625v17.78125c-0.00001 0.73776-0.006 1.66026-0.0625 2.75-0.056 1.08973-0.21026 2.06569-0.40625 2.9375-0.30899 1.34144-0.76135 2.46995-1.40625 3.375-0.64493 0.90505-1.3881 1.63392-2.1875 2.1875-0.79942 0.55355-1.59315 0.95318-2.40625 1.1875-0.81311 0.23431-1.5049 0.34373-2.09375 0.34375-1.20596-0.00002-2.09521-0.25947-2.65625-0.8125-0.56103-0.55307-0.96025-1.36415-1.15625-2.4375-0.0847-0.4359-0.14555-0.92023-0.1875-1.40625-0.0419-0.48604-0.0684-1.13074-0.125-1.96875 0.89784-0.1003 1.62646-0.2919 2.1875-0.59375s0.97271-0.71783 1.28125-1.1875c0.30855-0.46967 0.54412-1.00492 0.65625-1.625 0.11218-0.62008 0.15625-1.29349 0.15625-2.03125v-23.4375c0.33636-0.0338 0.69788-0.0898 1.0625-0.15625 0.30812-0.0675 0.65252-0.12308 1.03125-0.15625 0.37873-0.0332 0.72914-0.0312 1.09375-0.0312zm-73.65625 5.78125c-1.31896 0.00002-2.00001 1.21122-2 3.625h4.0625c-0.00001-1.37419-0.17776-2.32395-0.5-2.84375-0.32226-0.51979-0.83329-0.78123-1.5625-0.78125zm-53.53125 1.09375c-0.95348 0.00002-1.58702 0.52544-1.9375 1.53125-0.3505 1.00586-0.53126 2.35018-0.53125 4.09375v0.0312c-0.00001 0.80428 0.0411 1.53115 0.125 2.21875 0.0839 0.68762 0.22695 1.2927 0.4375 1.8125 0.21054 0.5198 0.47612 0.94815 0.8125 1.25 0.33636 0.30185 0.77626 0.4375 1.28125 0.4375 0.33635 0 0.5848-0.0119 0.78125-0.0625 0.19641-0.0506 0.35275-0.0912 0.4375-0.125v-10.84375c-0.16863-0.13412-0.38966-0.19985-0.65625-0.25-0.26663-0.0501-0.52577-0.0937-0.75-0.0937zm75.71875 0.0625c-0.47675 0.00002-0.87896 0.13566-1.1875 0.4375-0.30855 0.30187-0.55358 0.71584-0.75 1.21875-0.19644 0.50293-0.33607 1.0818-0.40625 1.71875-0.0702 0.63697-0.0937 1.2673-0.0937 1.9375-0.00001 0.73777 0.0236 1.45429 0.0937 2.125 0.0702 0.67075 0.20981 1.26146 0.40625 1.78125 0.19642 0.51982 0.45556 0.94867 0.75 1.25 0.29441 0.30135 0.6795 0.43752 1.15625 0.4375 0.47672 0.00002 0.84768-0.15045 1.15625-0.46875 0.30854-0.31821 0.55055-0.73018 0.71875-1.25 0.16818-0.51979 0.30481-1.14175 0.375-1.8125 0.0702-0.67071 0.0937-1.35598 0.0937-2.09375-0.00001-1.47446-0.16365-2.72727-0.5-3.75-0.33638-1.0227-0.94292-1.53123-1.8125-1.53125zm-69.90625 31.28125c1.14946 0.00003 2.13808 0.42586 2.9375 1.28125 0.7994 0.85545 1.1875 1.9958 1.1875 3.4375 0 1.44176-0.3881 2.5995-1.1875 3.4375-0.79942 0.83806-1.78804 1.25003-2.9375 1.25-1.15034 0.00003-2.10727-0.41194-2.90625-1.25-0.79898-0.838-1.21875-1.99574-1.21875-3.4375 0-1.4417 0.41977-2.58205 1.21875-3.4375 0.79898-0.85539 1.75591-1.28122 2.90625-1.28125zm-36.437497 0.4375c0.56146 0.00003 1.15045 0.041 1.78125 0.125 0.63079 0.084 1.25488 0.20722 1.84375 0.375 1.00994 0.30188 1.86451 0.77133 2.59375 1.375 0.72921 0.60375 1.09374 1.48515 1.09375 2.625-0.00001 0.50243-0.16322 1.17636-0.5 2.03125-0.33681 0.85493-0.7489 1.71948-1.28125 2.625-0.44851-0.30182-1.04861-0.58799-1.75-0.90625-0.70143-0.31819-1.47117-0.49997-2.3125-0.5-0.72924 0.00003-1.33921 0.23527-1.84375 0.6875-0.50456 0.45231-0.75 1.15193-0.75 2.125v1.21875h6.21875v7.5h-6.21875v16.78125h-8.375v-24.03125c0-0.43587 0.0174-1.04148 0.0312-1.8125 0.0137-0.77099 0.0374-1.37407 0.0937-1.84375 0.36461-2.71563 1.31855-4.79336 2.875-6.21875 1.55645-1.42533 3.72346-2.15622 6.5-2.15625zm89.062497 0c0.56146 0.00003 1.1817 0.041 1.8125 0.125 0.63079 0.084 1.22362 0.20722 1.8125 0.375 1.00994 0.30188 1.89575 0.77133 2.625 1.375 0.72921 0.60375 1.09374 1.48515 1.09375 2.625-0.00001 0.50243-0.19447 1.17636-0.53125 2.03125-0.33681 0.85493-0.7489 1.71948-1.28125 2.625-0.44851-0.30182-1.01735-0.58799-1.71875-0.90625-0.70141-0.31819-1.50241-0.49997-2.34375-0.5-0.72924 0.00003-1.33922 0.23527-1.84375 0.6875-0.50457 0.45231-0.75001 1.15193-0.75 2.125v1.21875h6.21875v7.5h-6.21875v16.78125h-8.375v-24.03125c0-0.43587 0.0174-1.04148 0.0312-1.8125 0.0137-0.77099 0.0374-1.37407 0.0937-1.84375 0.36462-2.71563 1.31854-4.79336 2.875-6.21875 1.55644-1.42533 3.72346-2.15622 6.5-2.15625zm-78.531247 0.40625c0.67358 0.00005 1.33795 0.0679 1.96875 0.21875 0.63079 0.15094 1.1795 0.42678 1.65625 0.8125 0.47672 0.3858 0.861807 0.93743 1.156247 1.625 0.29443 0.68765 0.4375 1.55268 0.4375 2.625v16.1875c0.14036-0.7367 0.37895-1.46662 0.6875-2.1875 0.30854-0.72085 0.6795-1.41997 1.15625-2.125l2.28125-3.46875c0.53235-0.80423 1.13589-1.5069 1.78125-2.09375 0.64534-0.5868 1.50377-0.87497 2.625-0.875 0.64534 0.00003 1.28913 0.12586 1.90625 0.34375 0.61708 0.21797 1.1795 0.45069 1.65625 0.71875 0.53235 0.30188 1.02324 0.63064 1.5 1l-5.75 9.65625 6.8125 12.4375c-1.85134 0.90454-3.55144 1.34375-5.09375 1.34375-1.31809 0-2.36755-0.27381-3.125-0.84375-0.75749-0.56994-1.40814-1.31421-1.96875-2.21875l-2.6875-4.46875c-0.47675-0.77048-0.87552-1.51675-1.15625-2.1875-0.28074-0.67071-0.48464-1.41196-0.625-2.25v11.40625h-8.406247v-35.28125c0.33638-0.0337 0.69789-0.0896 1.0625-0.15625 0.30812-0.0675 0.6525-0.12244 1.03125-0.15625 0.37873-0.0337 0.72913-0.0625 1.09375-0.0625zm36.906247 0c0.67359 0.00005 1.3067 0.0679 1.9375 0.21875 0.63079 0.15094 1.21075 0.42678 1.6875 0.8125 0.47672 0.3858 0.86181 0.93743 1.15625 1.625 0.29443 0.68765 0.43749 1.55268 0.4375 2.625v30.1875c-1.14947 0.4359-2.19592 0.65625-3.09375 0.65625-1.28985 0-2.2849-0.19362-3-0.5625-0.71511-0.36888-1.24326-0.86505-1.59375-1.46875s-0.55482-1.27461-0.625-2.0625c-0.0702-0.78788-0.0937-1.62821-0.0937-2.5v-29.15625c0.33636-0.0337 0.66663-0.0896 1.03125-0.15625 0.30812-0.0675 0.65252-0.12244 1.03125-0.15625 0.37873-0.0337 0.76039-0.0625 1.125-0.0625zm23.5625 0c0.67273 0.00005 1.3375 0.0679 1.96875 0.21875 0.63121 0.15094 1.1795 0.42678 1.65625 0.8125 0.47672 0.3858 0.8618 0.93743 1.15625 1.625 0.2944 0.68765 0.43747 1.55268 0.4375 2.625v30.375h-6.3125c-0.42112 0-0.78865-0.10896-1.125-0.34375-0.33638-0.23483-0.50001-0.7295-0.5-1.5-0.39286 0.60268-1.01954 1.13846-1.875 1.625-0.85548 0.48654-1.92892 0.71875-3.21875 0.71875-0.95347 0-1.88685-0.16237-2.8125-0.53125-0.92566-0.36888-1.78833-1.01556-2.53125-1.9375-0.74292-0.92193-1.31821-2.18858-1.78125-3.78125-0.46304-1.59264-0.71875-3.58517-0.71875-6 0-2.41379 0.22145-4.47966 0.65625-6.15625 0.43478-1.67654 1.02078-3.02339 1.75-4.0625 0.72922-1.03907 1.57777-1.78032 2.53125-2.25 0.95346-0.46965 1.93054-0.71872 2.96875-0.71875 0.67273 0.00003 1.27969 0.0822 1.8125 0.25 0.53279 0.16785 0.99625 0.37583 1.375 0.59375 0.37872 0.21797 0.69913 0.43833 0.9375 0.65625 0.23836 0.21798 0.38485 0.36851 0.46875 0.46875v-12.3125c0.3372-0.0337 0.69873-0.0896 1.0625-0.15625 0.30897-0.0675 0.63538-0.12244 1-0.15625 0.36461-0.0337 0.72912-0.0625 1.09375-0.0625zm109.53125 1.90625c1.96256 0.00005 3.62884 0.38528 5.03125 1.15625 1.40237 0.77103 2.54007 1.91442 3.4375 3.40625 0.89739 1.4919 1.56175 3.30818 1.96875 5.4375 0.40696 2.12937 0.62497 4.53437 0.625 7.25-0.00003 5.53262-0.90984 9.797-2.71875 12.78125-1.80897 2.98425-4.65704 4.46875-8.5 4.46875-3.87038 0-6.6945-1.42852-8.53125-4.3125-1.83676-2.88396-2.78125-7.20432-2.78125-12.9375 0-2.64912 0.23901-5.0274 0.6875-7.15625 0.44848-2.12882 1.13684-3.9456 2.0625-5.4375 0.92565-1.49183 2.11817-2.6327 3.5625-3.4375 1.44432-0.80473 3.16457-1.2187 5.15625-1.21875zm24.40625 0c1.82305 0.00005 3.45547 0.35856 4.84375 1.0625 1.38826 0.70402 2.54349 1.72359 3.46875 3.03125 0.9252 1.30771 1.59945 2.90365 2.0625 4.78125 0.46303 1.87765 0.71872 3.96523 0.71875 6.3125-0.00003 3.45342-0.42237 6.42744-1.25 8.875-0.82767 2.44757-1.91781 4.42675-3.25 5.96875-1.33222 1.542-2.84857 2.68487-4.53125 3.40625-1.68271 0.72137-3.35158 1.0625-5.0625 1.0625-0.98087 0-1.77203-0.0822-2.375-0.25-0.60299-0.1678-1.10414-0.41437-1.46875-0.75-0.36462-0.33562-0.62377-0.73271-0.75-1.21875-0.12626-0.48602-0.1875-1.07979-0.1875-1.75 0-0.50343 0.0553-1.09415 0.125-1.78125 0.0698-0.68709 0.13102-1.27782 0.1875-1.78125 0.56061 0.13412 1.01038 0.21624 1.375 0.25 0.36461 0.0338 0.8045 0.0625 1.28125 0.0625 0.64534 0 1.27846-0.099 1.9375-0.25 0.65903-0.15094 1.28613-0.38112 1.875-0.75 0.58885-0.36888 1.15126-0.87991 1.65625-1.5 0.50496-0.62006 0.91361-1.40441 1.25-2.34375-0.61712 0.46967-1.32603 0.81583-2.125 1-0.799 0.18419-1.51091 0.25-2.15625 0.25-1.34635 0-2.52173-0.30305-3.53125-0.90625-1.00955-0.60319-1.85809-1.38553-2.53125-2.375-0.67317-0.98946-1.19445-2.13031-1.53125-3.4375-0.3368-1.30716-0.5-2.68475-0.5-4.09375 0-2.17945 0.27928-4.0472 0.8125-5.65625 0.53323-1.60901 1.26528-2.95786 2.21875-4.03125 0.95347-1.07334 2.08171-1.88693 3.34375-2.40625 1.26201-0.51925 2.60705-0.7812 4.09375-0.78125zm-24.5 7.71875c-0.50499 0.00003-0.9449 0.14999-1.28125 0.46875-0.33639 0.31876-0.60196 0.83965-0.8125 1.59375-0.21057 0.75414-0.35364 1.74499-0.4375 2.96875-0.0839 1.22381-0.125 2.72267-0.125 4.5 0 3.52095 0.20131 6.01266 0.59375 7.4375 0.39241 1.42486 1.08077 2.125 2.0625 2.125 0.47672 0 0.8648-0.14999 1.1875-0.46875 0.32265-0.31873 0.60237-0.87087 0.8125-1.625 0.21011-0.75411 0.37031-1.74495 0.46875-2.96875 0.0984-1.22376 0.12499-2.72264 0.125-4.5-0.00001-1.77733-0.0266-3.27619-0.125-4.5-0.0984-1.22376-0.25864-2.21461-0.46875-2.96875-0.21013-0.7541-0.48985-1.27499-0.8125-1.59375-0.3227-0.31873-0.71078-0.46872-1.1875-0.46875zm24.5625 0.0312c-0.56062 0.00002-1.02752 0.41402-1.40625 1.21875-0.37875 0.8048-0.56251 2.01549-0.5625 3.625-0.00001 1.64231 0.20732 2.83914 0.65625 3.59375 0.4489 0.75465 1.09314 1.12502 1.90625 1.125 0.64534 0.00002 1.21375-0.0822 1.71875-0.25 0.0556-0.5024 0.0967-1.01143 0.125-1.53125 0.0283-0.51979 0.0312-1.05504 0.0312-1.625-0.00001-0.80527-0.0236-1.57473-0.0937-2.3125-0.0702-0.73772-0.20984-1.39878-0.40625-1.96875-0.19645-0.56991-0.44146-1.03987-0.75-1.375-0.30855-0.33508-0.71379-0.49998-1.21875-0.5zm-92.4375 1.0625c2.29979 0.00003 4.3203 0.412 6.03125 1.25 0.7566 0.36941 1.38412 0.82396 1.875 1.34375 0.49084 0.51982 0.71872 1.13979 0.71875 1.84375-0.00003 0.6027-0.14651 1.31774-0.46875 2.15625-0.32226 0.83856-0.71079 1.63475-1.1875 2.40625-0.84222-0.7715-1.73104-1.38894-2.65625-1.875-0.92524-0.48601-1.85904-0.74998-2.8125-0.75-1.20597 0.00002-1.8125 0.44324-1.8125 1.28125 0 0.53619 0.20776 0.93379 0.65625 1.21875 0.44848 0.28498 1.01433 0.51769 1.6875 0.71875 0.67316 0.20108 1.4022 0.4358 2.1875 0.6875 0.78526 0.25173 1.51431 0.6221 2.1875 1.125 0.67315 0.50293 1.23856 1.19072 1.6875 2.0625 0.4489 0.87181 0.65624 2.02955 0.65625 3.4375-0.00001 2.68292-0.79032 4.81361-2.375 6.40625-1.58471 1.59267-3.87724 2.375-6.90625 2.375-1.73919 0-3.09491-0.15001-4.0625-0.46875-0.9676-0.31874-1.72064-0.63312-2.28125-0.96875-0.72924-0.43589-1.25094-0.9177-1.53125-1.4375-0.2803-0.5198-0.40625-1.05506-0.40625-1.625 0-0.87179 0.18076-1.72446 0.53125-2.5625 0.35049-0.83801 0.73901-1.66447 1.1875-2.46875 0.33636 0.36838 0.72145 0.71251 1.15625 1.03125 0.43478 0.31874 0.90126 0.60691 1.40625 0.875 0.50498 0.26809 1.0297 0.47409 1.5625 0.625 0.53279 0.15094 1.05751 0.21875 1.5625 0.21875 0.72921 0 1.22268-0.12132 1.53125-0.40625 0.30854-0.28496 0.46874-0.65785 0.46875-1.09375-0.00001-0.50342-0.22446-0.91688-0.6875-1.21875-0.46304-0.30184-1.04559-0.54691-1.71875-0.78125-0.67317-0.23431-1.40567-0.51065-2.21875-0.8125-0.81311-0.30185-1.54559-0.7302-2.21875-1.25-0.67317-0.51969-1.25613-1.20753-1.71875-2.06245-0.46261-0.8549-0.6875-1.96851-0.6875-3.34375 0-1.34041 0.24201-2.49414 0.71875-3.5 0.47672-1.00581 1.10727-1.84613 1.90625-2.5 0.79897-0.65381 1.71222-1.14999 2.75-1.46875 1.03778-0.31871 2.13091-0.46872 3.28125-0.46875zm20.71875 0c3.2815 0.00003 5.61473 0.77001 7.03125 2.3125 1.4165 1.54255 2.12497 3.99064 2.125 7.34375v9.8125c-0.00003 0.83803 0.0753 1.76053 0.1875 2.75 0.11205 0.98946 0.27273 1.85599 0.46875 2.59375-0.39287 0.13412-0.75439 0.22858-1.0625 0.3125-0.30815 0.084-0.61142 0.13738-0.90625 0.1875-0.29487 0.0501-0.61528 0.10817-0.9375 0.125-0.32228 0.0168-0.66965 0-1.0625 0-2.27156 0-3.57291-0.76948-3.9375-2.3125-0.47675 0.56994-1.19935 1.09285-2.125 1.5625-0.92566 0.46967-2.09805 0.71875-3.5 0.71875-0.8696 0-1.7006-0.13824-2.5-0.40625-0.7994-0.26809-1.50791-0.69444-2.125-1.28125-0.61711-0.58683-1.10414-1.35681-1.46875-2.3125-0.36462-0.95569-0.53126-2.12476-0.53125-3.5-0.00001-1.94413 0.42578-3.49948 1.28125-4.65625 0.85547-1.15675 1.87366-2.02128 3.09375-2.625 1.22007-0.60369 2.50852-0.98894 3.8125-1.15625 1.30395-0.16728 2.41766-0.24998 3.34375-0.25v-0.71875c-0.00001-0.46965-0.0784-0.84002-0.21875-1.125-0.14037-0.28496-0.32414-0.50529-0.5625-0.65625-0.23837-0.15094-0.52108-0.26235-0.84375-0.3125-0.32268-0.0501-0.66664-0.0625-1.03125-0.0625-0.98086 0.00003-1.95236 0.15059-2.90625 0.46875-0.9539 0.31824-2.00978 0.82879-3.1875 1.5-0.53323-0.77149-0.95257-1.54348-1.21875-2.28125-0.26618-0.73774-0.40625-1.28787-0.40625-1.65625 0-0.50342 0.15719-0.98521 0.4375-1.4375 0.28031-0.45224 0.84915-0.93404 1.71875-1.4375 0.75747-0.46964 1.77265-0.82565 3.0625-1.09375 1.28983-0.26807 2.6224-0.40622 3.96875-0.40625zm25.9375 0c0.86958 0.00003 1.74512 0.20801 2.65625 0.59375 0.91107 0.38578 1.75662 1.01559 2.5 1.9375 0.74332 0.92196 1.34987 2.15989 1.8125 3.71875 0.46258 1.55891 0.68747 3.49899 0.6875 5.8125-0.00003 2.7167-0.24203 4.94443-0.71875 6.6875-0.47675 1.74308-1.12099 3.13353-1.90625 4.15625-0.7853 1.02272-1.65743 1.73925-2.625 2.125-0.96761 0.38575-1.92455 0.5625-2.90625 0.5625-0.75663 0-1.42184-0.097-1.96875-0.28125-0.54693-0.18419-0.99628-0.40453-1.375-0.65625-0.37875-0.2517-0.69614-0.46955-0.90625-0.6875-0.21013-0.21794-0.31551-0.36846-0.34375-0.46875v12.40625h-8.34375v-35c0.25249-0.0675 0.56987-0.12104 0.90625-0.1875 0.30811-0.0675 0.63839-0.12292 1.03125-0.15625 0.39286-0.0332 0.83876-0.0625 1.34375-0.0625 2.55228 0.00003 4.12988 0.79674 4.71875 2.40625 0.47672-0.77149 1.14452-1.4444 2-2.03125 0.85547-0.5868 2.00728-0.87497 3.4375-0.875zm-123.53125 0.5c0.67359 0.00003 1.3067 0.0679 1.9375 0.21875 0.63079 0.15094 1.21075 0.42727 1.6875 0.8125 0.47672 0.38527 0.86181 0.9374 1.15625 1.625 0.29441 0.68762 0.43749 1.55266 0.4375 2.625v17.8125c-0.00001 0.73776-0.0377 1.66026-0.0937 2.75-0.056 1.08973-0.17901 2.06569-0.375 2.9375-0.30899 1.34144-0.7926 2.46995-1.4375 3.375-0.64493 0.90504-1.35685 1.63392-2.15625 2.1875-0.79942 0.55355-1.62439 0.92193-2.4375 1.15625-0.8131 0.23431-1.5049 0.37498-2.09375 0.375-1.20596-0.00002-2.09521-0.29072-2.65625-0.84375-0.56104-0.55307-0.929-1.36415-1.125-2.4375-0.0847-0.4359-0.14555-0.88898-0.1875-1.375-0.042-0.48604-0.0998-1.16199-0.15625-2 0.89784-0.1003 1.62646-0.2919 2.1875-0.59375s1.00395-0.68658 1.3125-1.15625 0.51287-1.00492 0.625-1.625c0.11218-0.62008 0.1875-1.32474 0.1875-2.0625v-23.4375c0.33636-0.0338 0.66663-0.0585 1.03125-0.125 0.30812-0.0675 0.65252-0.12292 1.03125-0.15625 0.37873-0.0332 0.76038-0.0625 1.125-0.0625zm119.75 6.6875c-0.33724 0.00002-0.61651 0.0437-0.8125 0.0937-0.19602 0.0501-0.32152 0.0912-0.40625 0.125v10.15625c0.1686 0.13412 0.35838 0.23111 0.625 0.28125 0.2666 0.0501 0.52574 0.0625 0.75 0.0625 0.95346 0.00002 1.61825-0.53576 1.96875-1.625 0.35048-1.08921 0.49999-2.5064 0.5-4.25-0.00001-1.50924-0.18378-2.70757-0.5625-3.5625-0.37875-0.85489-1.05341-1.28123-2.0625-1.28125zm-89.375 0.21875c-0.76834 0.11003-1.28708 0.61992-1.59375 1.5-0.3505 1.00586-0.53126 2.38143-0.53125 4.125-0.00001 0.80428 0.0411 1.5624 0.125 2.25 0.0839 0.68762 0.22693 1.26145 0.4375 1.78125 0.21054 0.5198 0.47612 0.94816 0.8125 1.25 0.33635 0.30187 0.77626 0.4375 1.28125 0.4375 0.33635 0 0.58481-0.0117 0.78125-0.0625 0.19642-0.0506 0.35275-0.0912 0.4375-0.125v-10.8125c-0.16863-0.13412-0.38965-0.2311-0.65625-0.28125-0.26662-0.0501-0.52577-0.0625-0.75-0.0625-0.11919 0-0.23399-0.0157-0.34375 0zm68.53125 6.2813c-0.53238 0.0676-1.0541 0.17846-1.53125 0.3125-0.47717 0.13412-0.89952 0.31132-1.25 0.5625-0.3505 0.25121-0.60239 0.56612-0.8125 0.96875-0.21013 0.40266-0.34376 0.92607-0.34375 1.5625-0.00001 0.77154 0.18075 1.36224 0.53125 1.78125 0.35048 0.41901 0.85164 0.65625 1.46875 0.65625 0.50496 0 0.95131-0.13823 1.34375-0.40625 0.39241-0.26807 0.59374-0.68154 0.59375-1.21875zm89.28125 2.65625c1.1777 0 2.13163 0.42635 2.875 1.28125 0.74332 0.85492 1.12499 1.96955 1.125 3.34375-0.00001 1.37522-0.36153 2.51758-1.0625 3.40625-0.701 0.88868-1.67506 1.3125-2.9375 1.3125-1.23422 0-2.2224-0.42382-2.9375-1.3125-0.71511-0.88867-1.0625-2.03103-1.0625-3.40625 0-1.3742 0.39878-2.48883 1.15625-3.34375 0.75747-0.8549 1.69428-1.28125 2.84375-1.28125zm-142.6875 22.375c1.14946 0.00003 2.10683 0.42586 2.90625 1.28125 0.7994 0.85545 1.21875 2.02705 1.21875 3.46875 0 1.44176-0.41935 2.56825-1.21875 3.40625-0.79942 0.83806-1.75679 1.25003-2.90625 1.25-1.15034 0.00003-2.13852-0.41194-2.9375-1.25-0.79898-0.838-1.1875-1.96449-1.1875-3.40625 0-1.4417 0.38852-2.6133 1.1875-3.46875 0.79898-0.85539 1.78716-1.28122 2.9375-1.28125zm-33 0.46875c0.56146 0.00003 1.1817 0.041 1.8125 0.125 0.63079 0.084 1.22363 0.20722 1.8125 0.375 1.00996 0.30188 1.89575 0.74008 2.625 1.34375 0.7292 0.60375 1.09374 1.48515 1.09375 2.625-0.00001 0.50243-0.19447 1.17636-0.53125 2.03125-0.33681 0.85493-0.7489 1.75073-1.28125 2.65625-0.44851-0.30182-1.04861-0.61924-1.75-0.9375-0.70143-0.31819-1.47117-0.46872-2.3125-0.46875-0.72924 0.00003-1.33921 0.20402-1.84375 0.65625-0.50456 0.45231-0.75001 1.18318-0.75 2.15625v1.1875h6.21875v7.5h-6.21875v16.8125h-8.375v-24.0625c-0.00001-0.43587 0.0174-1.01023 0.0312-1.78125 0.0137-0.77099 0.0373-1.40532 0.0937-1.875 0.36461-2.71563 1.31855-4.79336 2.875-6.21875 1.55645-1.42533 3.72346-2.12497 6.5-2.125zm50.28125 0c0.56146 0.00003 1.1817 0.041 1.8125 0.125 0.63079 0.084 1.22363 0.20722 1.8125 0.375 1.00994 0.30188 1.89576 0.74008 2.625 1.34375 0.72921 0.60375 1.09374 1.48515 1.09375 2.625-0.00001 0.50243-0.16322 1.17636-0.5 2.03125-0.33681 0.85493-0.78015 1.75073-1.3125 2.65625-0.44851-0.30182-1.01736-0.61924-1.71875-0.9375-0.70143-0.31819-1.47117-0.46872-2.3125-0.46875-0.72924 0.00003-1.37046 0.20402-1.875 0.65625-0.50456 0.45231-0.75 1.18318-0.75 2.15625v1.1875h6.21875v7.5h-6.21875v16.8125h-8.375v-24.0625c0-0.43587 0.0174-1.01023 0.0312-1.78125 0.0137-0.77099 0.0372-1.40532 0.0937-1.875 0.36461-2.71563 1.31855-4.79336 2.875-6.21875 1.55645-1.42533 3.72346-2.12497 6.5-2.125zm51.5625 0.40625c0.67359 0.00005 1.3067 0.0679 1.9375 0.21875 0.63079 0.15094 1.1795 0.42678 1.65625 0.8125 0.47672 0.3858 0.86181 0.90618 1.15625 1.59375 0.29441 0.68765 0.43749 1.58393 0.4375 2.65625v16.1875c0.14036-0.7367 0.37893-1.46662 0.6875-2.1875 0.30854-0.72085 0.71075-1.45122 1.1875-2.15625l2.25-3.46875c0.53235-0.80423 1.13589-1.47565 1.78125-2.0625 0.64534-0.5868 1.535-0.90622 2.65625-0.90625 0.64532 0.00003 1.25788 0.12586 1.875 0.34375 0.61708 0.21797 1.17949 0.45069 1.65625 0.71875 0.53234 0.30188 1.02325 0.63064 1.5 1l-5.75 9.65625 6.8125 12.4375c-1.85134 0.90454-3.55144 1.34375-5.09375 1.34375-1.3181 0-2.36755-0.27381-3.125-0.84375-0.75748-0.56994-1.40815-1.31421-1.96875-2.21875l-2.6875-4.46875c-0.47675-0.77048-0.84428-1.4855-1.125-2.15625-0.28074-0.67071-0.51589-1.44321-0.65625-2.28125v11.4375h-8.40625v-35.3125c0.33636-0.0337 0.69788-0.0896 1.0625-0.15625 0.30812-0.0675 0.65252-0.12244 1.03125-0.15625 0.37873-0.0337 0.76038-0.0312 1.125-0.0312zm25.125 0c0.67359 0.00005 1.33795 0.0679 1.96875 0.21875 0.63079 0.15094 1.17951 0.42678 1.65625 0.8125 0.47674 0.3858 0.86181 0.90618 1.15625 1.59375 0.29441 0.68765 0.4375 1.58393 0.4375 2.65625v30.15625c-1.14947 0.4359-2.16466 0.65625-3.0625 0.65625-1.28983 0-2.2849-0.16237-3-0.53125-0.71511-0.36888-1.27451-0.86505-1.625-1.46875s-0.55482-1.30586-0.625-2.09375c-0.0702-0.78788-0.0937-1.62819-0.0937-2.5v-29.15625c0.33636-0.0337 0.66664-0.0896 1.03125-0.15625 0.30812-0.0675 0.65252-0.12244 1.03125-0.15625 0.37873-0.0337 0.76038-0.0312 1.125-0.0312zm-109.90625 10.6875c1.71092 0.00003 3.16901 0.30256 4.375 0.90625 1.20593 0.60372 2.19413 1.43169 2.9375 2.4375 0.74332 1.00586 1.25737 2.15907 1.59375 3.5 0.33635 1.34096 0.53122 2.77452 0.53125 4.25-0.00003 0.16783-0.00003 0.37129 0 0.65625-0.00003 0.28498-0.0168 0.57315-0.0312 0.875-0.0142 0.30187-0.0177 0.60693-0.0312 0.875-0.0137 0.2681-0.0342 0.45971-0.0625 0.59375h-11.25c0.14036 1.27393 0.54257 2.36133 1.1875 3.25 0.64492 0.88868 1.66353 1.34375 3.09375 1.34375 1.12206 0 2.08669-0.22286 2.84375-0.625 0.75703-0.40211 1.49251-0.9225 2.25-1.59375 0.36459 0.67125 0.72912 1.44071 1.09375 2.3125 0.36459 0.87179 0.56247 1.64229 0.5625 2.3125-0.00003 0.56994-0.12251 1.09084-0.375 1.59375-0.2525 0.50291-0.69928 0.99908-1.34375 1.46875-0.61712 0.43589-1.44812 0.7919-2.5 1.09375-1.05191 0.30185-2.36694 0.46875-3.9375 0.46875-1.14947 0-2.40024-0.16437-3.71875-0.5-1.31852-0.33562-2.5346-0.99667-3.65625-1.96875-1.12165-0.97206-2.03791-2.33328-2.78125-4.09375-0.74335-1.76047-1.125-4.05654-1.125-6.90625 0-2.11295 0.30327-3.95798 0.90625-5.5 0.60298-1.54199 1.37615-2.80664 2.34375-3.8125 0.96759-1.00581 2.09542-1.74907 3.34375-2.21875 1.24832-0.46965 2.48839-0.71872 3.75-0.71875zm50.0625 0c3.2815 0.00003 5.64598 0.80126 7.0625 2.34375 1.4165 1.54255 2.12497 3.95939 2.125 7.3125v9.8125c-0.00003 0.83803 0.0441 1.76053 0.15625 2.75 0.11205 0.98946 0.27273 1.85599 0.46875 2.59375-0.39287 0.13412-0.75439 0.22858-1.0625 0.3125-0.30815 0.084-0.58017 0.16863-0.875 0.21875-0.29487 0.0501-0.61526 0.077-0.9375 0.0937-0.32226 0.0168-0.66965 0.0312-1.0625 0.0312-2.27156 0-3.60416-0.76948-3.96875-2.3125-0.47675 0.56994-1.1681 1.09285-2.09375 1.5625-0.92566 0.46967-2.09805 0.6875-3.5 0.6875-0.8696 0-1.7006-0.13824-2.5-0.40625-0.79942-0.26809-1.50791-0.69444-2.125-1.28125-0.61711-0.58683-1.10414-1.35681-1.46875-2.3125-0.36462-0.95569-0.5625-2.12476-0.5625-3.5 0-1.94413 0.42577-3.46823 1.28125-4.625 0.85547-1.15675 1.90491-2.05253 3.125-2.65625 1.22009-0.60369 2.47727-0.98894 3.78125-1.15625 1.30395-0.16728 2.41766-0.24998 3.34375-0.25v-0.71875c-0.00001-0.46965-0.0784-0.84002-0.21875-1.125-0.14037-0.28496-0.32414-0.50529-0.5625-0.65625-0.23837-0.15094-0.52108-0.2311-0.84375-0.28125-0.32268-0.0501-0.66664-0.0937-1.03125-0.0937-0.98087 0.00003-1.95236 0.18184-2.90625 0.5-0.9539 0.31824-2.0098 0.79754-3.1875 1.46875-0.53323-0.77149-0.92132-1.51223-1.1875-2.25-0.26618-0.73774-0.40625-1.31911-0.40625-1.6875 0-0.5034 0.12594-0.95396 0.40625-1.40625 0.28031-0.45224 0.8804-0.93404 1.75-1.4375 0.75747-0.46964 1.77265-0.8569 3.0625-1.125 1.28983-0.26807 2.59115-0.40622 3.9375-0.40625zm20.3125 0c2.29979 0.00003 4.28904 0.44325 6 1.28125 0.75659 0.36941 1.38412 0.79271 1.875 1.3125 0.49084 0.51982 0.74999 1.13979 0.75 1.84375-0.00001 0.6027-0.17778 1.31774-0.5 2.15625-0.32226 0.83856-0.71078 1.666-1.1875 2.4375-0.84222-0.7715-1.73104-1.42019-2.65625-1.90625-0.92524-0.48601-1.85904-0.71873-2.8125-0.71875-1.20597 0.00002-1.81251 0.41199-1.8125 1.25-0.00001 0.53619 0.23901 0.96504 0.6875 1.25 0.44849 0.28498 1.01433 0.51769 1.6875 0.71875 0.67315 0.20108 1.4022 0.4358 2.1875 0.6875 0.78528 0.25173 1.51433 0.6221 2.1875 1.125 0.67315 0.50293 1.20731 1.19072 1.65625 2.0625 0.4489 0.87181 0.68749 1.9983 0.6875 3.40625-0.00001 2.68292-0.79032 4.81361-2.375 6.40625-1.58471 1.59267-3.90849 2.40625-6.9375 2.40625-1.73919 0-3.09491-0.15001-4.0625-0.46875-0.9676-0.31874-1.72064-0.66437-2.28125-1-0.72922-0.43589-1.2197-0.9177-1.5-1.4375-0.28031-0.5198-0.4375-1.05506-0.4375-1.625 0-0.87179 0.18076-1.72446 0.53125-2.5625 0.35049-0.83801 0.73901-1.66447 1.1875-2.46875 0.33636 0.36838 0.72145 0.71251 1.15625 1.03125s0.93252 0.60693 1.4375 0.875c0.50498 0.2681 0.99845 0.47409 1.53125 0.625 0.53279 0.15094 1.05751 0.25 1.5625 0.25 0.72921 0 1.25393-0.15257 1.5625-0.4375 0.30854-0.28496 0.46874-0.65785 0.46875-1.09375-0.00001-0.50342-0.22447-0.88563-0.6875-1.1875-0.46305-0.30184-1.04559-0.57816-1.71875-0.8125-0.67316-0.23431-1.40565-0.51065-2.21875-0.8125-0.81311-0.30185-1.57684-0.69895-2.25-1.21875-0.67316-0.51979-1.22489-1.20758-1.6875-2.0625-0.46262-0.8549-0.6875-1.96851-0.6875-3.34375 0-1.34041 0.21076-2.52539 0.6875-3.53125 0.47674-1.00581 1.13852-1.84613 1.9375-2.5 0.79898-0.65381 1.71221-1.11874 2.75-1.4375 1.03776-0.31871 2.13091-0.49997 3.28125-0.5zm-55.1875 0.53125c0.67359 0.00003 1.3067 0.0679 1.9375 0.21875 0.63079 0.15094 1.1795 0.42727 1.65625 0.8125 0.47672 0.38527 0.86181 0.90615 1.15625 1.59375 0.29441 0.68762 0.43749 1.58391 0.4375 2.65625v17.78125c-0.00001 0.73776-0.006 1.66026-0.0625 2.75-0.056 1.08973-0.17901 2.06569-0.375 2.9375-0.30899 1.34144-0.7926 2.46995-1.4375 3.375-0.64493 0.90504-1.35685 1.63392-2.15625 2.1875-0.79942 0.55355-1.6244 0.95318-2.4375 1.1875-0.8131 0.23431-1.5049 0.34373-2.09375 0.34375-1.20596-0.00002-2.09521-0.25947-2.65625-0.8125-0.56104-0.55308-0.929-1.3954-1.125-2.46875-0.0847-0.4359-0.14555-0.88898-0.1875-1.375-0.0419-0.48604-0.0998-1.13074-0.15625-1.96875 0.89784-0.1003 1.62646-0.32315 2.1875-0.625s1.00395-0.6866 1.3125-1.15625c0.30855-0.46967 0.51287-1.00492 0.625-1.625 0.11218-0.62009 0.15625-1.29349 0.15625-2.03125v-23.4375c0.33636-0.0338 0.69788-0.0898 1.0625-0.15625 0.30812-0.0675 0.65252-0.12292 1.03125-0.15625 0.37873-0.0332 0.76038-0.0312 1.125-0.0312zm-15.28125 5.78125c-1.31894 0.00002-1.96876 1.21122-1.96875 3.625h4.03125c-0.00001-1.37419-0.14651-2.32393-0.46875-2.84375-0.32226-0.51977-0.86453-0.78123-1.59375-0.78125zm51.46875 7.375c-0.53238 0.0675-1.02285 0.17846-1.5 0.3125-0.47717 0.13412-0.89951 0.31132-1.25 0.5625-0.35049 0.25121-0.63364 0.59737-0.84375 1-0.21013 0.40266-0.31251 0.92607-0.3125 1.5625-0.00001 0.77154 0.18076 1.36224 0.53125 1.78125s0.82038 0.625 1.4375 0.625c0.50496 0 0.95131-0.13823 1.34375-0.40625 0.39241-0.26807 0.59375-0.68154 0.59375-1.21875zm-173.16406 56.51562a6.4729754 6.4729754 0 0 0 -5.26953 2.7129l-18.03907 25.27929a6.4729754 6.4729754 0 0 0 5.2695295 10.23242h363.53711a6.4729754 6.4729754 0 0 0 5.2461 -10.26171l-18.25781-25.28125a6.4729754 6.4729754 0 0 0 -5.2461 -2.68165zm-22.03907 49.99024a6.4729754 6.4729754 0 0 0 -6.47265 6.43945l-0.21875002 43.53907a6.4729754 6.4729754 0 0 0 6.4707 6.50585h371.75781a6.4729754 6.4729754 0 0 0 6.47266 -6.47265v-43.53906a6.4729754 6.4729754 0 0 0 -6.47266 -6.47266z"/>
</svg>
