<?xml version="1.0" encoding="UTF-8" standalone="no"?>
<svg xmlns="http://www.w3.org/2000/svg" height="465.56506" width="504.90625" version="1.0" viewBox="0 0 504.90625 465.56507">
<path d="m250.3184 0-214.1875 90.828132v32.962888l212.21485-86.32813 218.37696 84.33399v-32.964848zm1.66016 59.361332-157.27344 62.910158 65.488285-0.64649 91.26757-30.351558 91.52929 32.406248 61.96094 0.28125zm217.04492 81.748048-433.11328 0.0605 0.0059 36.04493 18.640625-0.002 0.02734 198.25-18.814453 0.002 0.0039 18.02343 433.11327-0.0625-0.004-18.02148-17.79883 0.002-0.0273-198.25195 17.9707-0.002-0.004-36.04297zm-54.01171 36.05078 0.0273 198.25195-36.04687 0.004-0.0274-198.25196 36.04688-0.004zm-72.09181 0.01 0.0274 198.25196-36.04493 0.006-0.0273-198.25196 36.04492-0.006zm-72.08984 0.0117 0.0273 198.25-36.04687 0.006-0.0273-198.25 36.04688-0.006zm-72.0918 0.01 0.0273 198.25-36.04493 0.006-0.0273-198.25 36.04492-0.006zm-72.08984 0.0117 0.0273 198.24804-36.044915 0.006-0.0273-198.25 36.044915-0.004zm-108.9375 234.21289-0.002 18.02343 469.23438 0.0254v-18.02149l-469.23242-0.0273zm-17.70898 36.11914-0.002 18.02148l504.90623 0.008v-18.02343l-504.90427-0.006z"/>
</svg>
