<?xml version="1.0" encoding="UTF-8" standalone="no"?>
<svg xmlns="http://www.w3.org/2000/svg" version="1.0" viewBox="0 0 504.90625 324.33807">
<path d="m37.32817 0-2.830078 35.9336 20.058594 1.58008 0.02734 196.7207-18.814453 0.004 0.0039 18.02343 255.42188-0.043 2.92383 4.17383 5.96094-4.17578 108.80664-0.0176-0.004-18.02148-86.30664 0.0137-98.96484-141.29492-2.34766 1.64453-3.97265-44.20703 70.31835 5.53906 2.83204-35.93555l-253.11329-19.9375zm53.275395 40.35352 36.044925 2.83984 0.0273 191.0293-36.044925 0.006-0.0273-193.875zm72.091785 5.67969 18.14649 1.42968 16.78907 186.75-34.91016 0.004-0.0254-188.18359zm64.53321 114.85937 51.34571 73.30664-44.75392 0.008-6.59179-73.31446zm-209.51758 109.29688-0.002 18.02343 449.23436 0.0254v-18.02149l-449.2324-0.0273zm-17.70898 36.11914-0.002 18.02148l504.90623 0.008v-18.02343l-504.90427-0.006z"/>
</svg>
