<?xml version="1.0" encoding="UTF-8" standalone="no"?>
<svg xmlns="http://www.w3.org/2000/svg" version="1.0" viewBox="0 0 502.58008 348.21109">
<path d="m356.1914 0.00084a5.0005 5.0005 0 0 0 -5 5v91.91992h-73.99414c-1.61513-9.72479-4.91767-19.63417-10.58399-28.04492-6.45181-9.57673-16.12861-17.18373-28.8496-19.19922-13.09034-3.30383-27.34729-1.44199-39.29297 4.73243-11.95974 6.18168-21.70219 16.93492-24.74805 31.2246a5.0005 5.0005 0 0 0 -0.10742 1.18164c0.1936 6.9831-1.35343 9.08306-3.6543 10.41016-2.30087 1.32711-6.95663 1.7261-12.94336 0.88477a5.0005 5.0005 0 0 0 -0.69531 -0.0488h-41.41992v-87.35938a5.0005 5.0005 0 0 0 -5 -5h-51.310548a5.0005 5.0005 0 0 0 -5 5v85.07813h-22.365234a5.0005 5.0005 0 0 0 -3.037109 1.02734c-18.522665 14.15241-26.358426 33.72751-27.052735 59.42966a5.0005 5.0005 0 0 0 0.01563 0.5332c1.385623 17.3675 7.828051 35.87019 17.927734 48.47266h-14.080078a5.0005 5.0005 0 0 0 -5 5v41.04883a5.0005 5.0005 0 0 0 5 5h31.578125a48.202757 50.170215 0 0 0 -15.927735 37.17969 48.202757 50.170215 0 0 0 48.193352 50.17773 48.202757 50.170215 0 0 0 48.212888 -50.1582v-0.01a48.202757 50.170215 0 0 0 -15.92773 -37.18945h74.45313a48.202757 50.170215 0 0 0 -14.6836 36.03906 48.202757 50.170215 0 0 0 48.19336 50.17773 48.202757 50.170215 0 0 0 48.21289 -50.15625v-0.01a48.202757 50.170215 0 0 0 -14.75195 -36.05078h66.54492a48.202757 50.170215 0 0 0 -13.65039 34.90039 48.202757 50.170215 0 0 0 48.19141 50.17773 48.202757 50.170215 0 0 0 48.21289 -50.1582v-0.01a48.202757 50.170215 0 0 0 -13.58399 -34.91015h33.35742v30.3457a5.0005 5.0005 0 0 0 5 5h11.66407a33.961031 35.347194 0 0 0 -6.85743 21.2207 33.961031 35.347194 0 0 0 33.95313 35.35352 33.961031 35.347194 0 0 0 33.96875 -35.33984v-0.006a33.961031 35.347194 0 0 0 -6.84766 -21.22852h15.07422a5.0005 5.0005 0 0 0 5 -5v-177.875a5.0005 5.0005 0 0 0 -5 -5h-37.62695a5.0005 5.0005 0 0 0 -5 5v106.74219h-48.15235v-172.4375h49.73243a5.0005 5.0005 0 0 0 5 -5v-33.06641a5.0005 5.0005 0 0 0 -5 -5h-100.3418z"/>
</svg>
