<?xml version="1.0" encoding="UTF-8" standalone="no"?>
<svg xmlns="http://www.w3.org/2000/svg" version="1.0" viewBox="0 0 482.44232 403.09543">
<path d="m241.22204 1.9255978e-8a14.104723 14.104723 0 0 0 -14.10352 14.105472 14.104723 14.104723 0 0 0 14.10352 14.10352 14.104723 14.104723 0 0 0 14.10546 -14.10352 14.104723 14.104723 0 0 0 -14.10546 -14.105472zm-211.5586 3.138672c-7.925761 0.130271-15.553438 1.182878-22.88086 3.101562a8.9008896 8.9008896 0 1 0 4.5097658 17.218758c23.861644-6.24817 52.361614-1.85599 88.488284 20.14453 36.126671 22.00051 79.262991 61.683438 130.19336 124.41211 51.80459 63.80539 95.31483 100.48496 134.78711 121.49023s74.77104 26.0176 108.33789 27.18164a8.9008896 8.9008896 0 1 0 0.61719 -17.78906c-32.27788-1.11935-63.92198-5.59154-100.5918-25.10547-8.17044-4.34792-16.59898-9.46476-25.32422-15.47461a10.001 10.001 0 0 0 2.86914 -0.69531c6.04803-2.46185 13.67901-5.2001 20.73633-11.42774 7.05732-6.22763 12.75864-15.75907 15.86914-29.41601a10.001 10.001 0 0 0 -3.02734 -9.625l-7.89844-7.16992a14.251425 14.251425 0 0 0 -12.21094 -21.4336 14.251425 14.251425 0 0 0 -8.41797 2.70508l-8.24609-7.48633 1.36523-1.55273a20.252025 20.252025 0 0 0 -14.88281 -33.8418 20.252025 20.252025 0 0 0 -15.52344 7.08985l-0.97265 1.10351a10.001 10.001 0 0 0 -5.81641 -2.15039 10.001 10.001 0 0 0 -1.33203 0.0391c-14.07672 1.35883-24.38302 8.11678-30.36133 16.34766s-8.46603 17.04297-11.26367 24.06641a10.001 10.001 0 0 0 -0.29688 0.86914c-7.96431-8.92579-16.15413-18.54385-24.59765-28.94336-4.63568-5.70956-9.19667-11.1925-13.71289-16.54102 4.77071-1.7173 9.98002-3.99608 15.03906-7.91601 7.44011-5.76489 13.73581-14.91298 17.71094-28.34375a10.001 10.001 0 0 0 -2.40821 -9.798828l-7.27734-7.50781 1.24023-1.24024a14.251425 14.251425 0 0 0 -10.35742 -24.46289 14.251425 14.251425 0 0 0 -9.79492 4.31055l-0.92773 0.92773-7.49219-7.73047 4.77539-4.77539a20.252025 20.252025 0 0 0 -14.7168 -34.76566 20.252025 20.252025 0 0 0 -13.92187 6.12695l-4.35547 4.35547a10.001 10.001 0 0 0 -6.625 -2.52735 10.001 10.001 0 0 0 -0.33203 0.006c-14.13473 0.45834-24.85075 6.54409-31.3418 14.37696-4.50872 5.44075-7.34458 11.25768-9.74805 16.59961-14.1426-11.86818-27.62113-21.6438-40.50585-29.49038-29.132901-17.74143-55.599673-25.652534-79.376951-25.26172zm236.51367 38.25977a14.104723 14.104723 0 0 0 -14.10547 14.10547 14.104723 14.104723 0 0 0 14.10547 14.10351 14.104723 14.104723 0 0 0 14.10547 -14.10351 14.104723 14.104723 0 0 0 -14.10547 -14.10547zm91.12696 76.388668a14.104723 14.104723 0 0 0 -1.40821 0.0195 14.104723 14.104723 0 0 0 -13.17773 14.97656 14.104723 14.104723 0 0 0 14.97656 13.17579 14.104723 14.104723 0 0 0 13.17578 -14.97461 14.104723 14.104723 0 0 0 -13.5664 -13.19727zm27.54883 39.85156a14.104723 14.104723 0 0 0 -1.41016 0.0195 14.104723 14.104723 0 0 0 -13.17578 14.97461 14.104723 14.104723 0 0 0 14.97461 13.17774 14.104723 14.104723 0 0 0 13.17773 -14.97656 14.104723 14.104723 0 0 0 -13.5664 -13.19532z"/>
<path opacity=".5" d="m29.413308 11.345422v76.96875h-21.6875v19.999998h21.6875v48h-21.6875v20h21.6875v48h-21.6875v20h21.6875v48h-21.6875v20h21.6875v48h-21.6875v20h21.6875v22.78125h20v-22.78125h48.000001v22.78125h20.000001v-22.78125h46v22.78125h20v-22.78125h48v22.78125h20v-22.78125h48v22.78125h20v-22.78125h48v22.78125h20v-22.78125h48v22.78125h20v-97.75h-20v0.15625l-26.375-13.1875h-21.625v-4.96875h-20v4.96875h-48v-48.96875h-6.375v-19.03125h-61.625v-52.96875h-18.375v-15.03125h-49.625v-58.968748h-8.375v-9.03125h-57.625v-50.96875h-20.000001v50.96875h-48.000001v-76.96875zm20 96.968748h48.000001v48h-48.000001zm68.000002 0h46v48h-46zm-68.000002 68h48.000001v48h-48.000001zm68.000002 0h46v48h-46zm66 0h48v48h-48zm-134 68h48v48h-48zm68.000001 0h46v48h-46zm66 0h48v48h-48zm68 0h48v48h-48zm-202 68h48v48h-48zm68.000001 0h46v48h-46zm66 0h48v48h-48zm68 0h48v48h-48zm68 0h48v48h-48zm68 0h48v48h-48z"/>
</svg>
