<?xml version="1.0" encoding="UTF-8" standalone="no"?>
<svg xmlns="http://www.w3.org/2000/svg" version="1.0" viewBox="0 0 474.16992 492.51187">
<path d="m143.23438 0.0024033a4.9136254 4.9136254 0 0 0 -4.70313 6.767578l13.88282 33.972657c-45.47478 19.848948-78.663812 58.017988-93.562502 102.83204l-20.396489-5.83594a4.9136254 4.9136254 0 0 0 -1.457032 -0.1875 4.9136254 4.9136254 0 0 0 -3.451171 1.52148l-22.845704 23.95899a4.9136254 4.9136254 0 0 0 2.861328 8.25586l37.820308 5.40234c-2.89534 23.6072-0.88669 48.17305 6.79102 72.25195 7.35247 23.05889 19.20651 43.4692 34.27148 60.5918l-15.6914 15.16211a4.9136254 4.9136254 0 0 0 -1.30078 4.91602l9.31836 31.76757a4.9136254 4.9136254 0 0 0 8.58008 1.65235l23.882812-30.41211c38.48534 29.28996 88.83622 41.94469 138.54883 31.49219l4.14648 15.41406c-9.68393-2.1975-19.37475-4.99565-28.63672-4.26172-16.25548 1.11401-30.68129 12.61549-45.83984 13.91992-14.94886 1.11088-29.18825-8.34863-43.95313-6.48633-15.14786 2.0206-30.70898 15.34553-45.507812 17.44922-14.95532 1.64454-29.5775-8.24925-42.82031-7.125-13.36594 1.01997-27.55426 10.83662-36.386723 13.56641-8.848907 2.55492-14.518712 3.26434-16.785157 2.11133l2.92969 31.16797c2.266203 1.15045 7.938083 0.44036 16.787109-2.11329 8.832465-2.72976 23.017571-12.54632 36.384769-13.5664 13.24396-1.12567 27.86511 8.76886 42.82031 7.12305 14.810112-1.98371 30.343152-15.60728 45.507812-17.44922 14.75385-1.9797 29.01425 7.71334 43.95898 6.54492 15.15855-1.30442 29.59151-12.74514 45.83594-13.97656 16.01287-1.27017 33.30699 8.07606 49.63086 6.48437 16.01381-1.86255 30.12933-14.87832 46.8418-16.56836 16.7744-1.63405 36.30941 7.97678 52.78125 6.72656 16.21428-1.52474 31.99456-13.74856 43.83594-15.27539 11.5492-1.6217 18.62089 5.30717 25.74609 6.17969 7.00738 0.82435 12.26643 0.56599 16.20508-1.05078l-2.93164-31.16406c-3.93841 1.61934-9.19588 1.87386-16.20313 1.05078-7.13085-0.9325-14.19135-7.74262-25.75195-6.24219-11.84243 1.52953-27.6236 13.75065-43.83789 15.27539-16.47688 1.19663-35.99572-8.24196-52.77539-6.66406-10.67365 1.08018-20.28785 6.77054-30.01367 11.23242l-9.53321-22.57812c46.7653-20.1063 80.67314-59.52734 95.24219-105.70704l18.91016 4.8086a4.9136254 4.9136254 0 0 0 4.86523 -1.47852l22.125-24.62695a4.9136254 4.9136254 0 0 0 -3.10547 -8.16602l-35.81836-4.03515c2.39249-22.71922 0.24807-46.26435-7.11719-69.36328-7.68711-24.10842-20.28963-45.325484-36.34374-62.912114l13.30078-13.2793a4.9136254 4.9136254 0 0 0 1.2207 -4.9375l-9.83594-31.611328-0.004 0.0098a4.9136254 4.9136254 0 0 0 -6.14258 -3.242188 4.9136254 4.9136254 0 0 0 -2.45508 1.722656l-0.002-0.002-21.6211 28.47461c-38.31178-27.93788-87.74784-39.712255-136.50961-29.218742l-4.86914-18.976562a4.9136254 4.9136254 0 0 0 -3.63086 -3.5605467l-32.22071-7.605469a4.9136254 4.9136254 0 0 0 -0.97265 -0.126953zm76.71679 68.203133c27.7247-0.23426 54.42298 8.5508 76.33985 24.40234l-58.35742 76.857424c-5.48008-3.39942-11.93346-5.17511-18.54688-4.90625l-24.05664-93.751954c8.23242-1.67629 16.47028-2.53269 24.62109-2.60156zm-51.71289 11.25781 36.48438 89.277344c-5.44808 3.08418-9.77982 7.62755-12.64258 12.95703l-93.220702-26.67382c11.330512-32.83996 35.831722-60.677864 69.378902-75.560554zm149.20508 32.376954c11.42533 12.9942 20.4228 28.52937 26.03516 46.13086 5.53691 17.36492 7.22164 34.9982 5.54297 51.99414l-95.77149-10.79101c0.25971-3.94153-0.18827-7.98966-1.45703-11.96875-0.77077-2.41729-1.8098-4.67663-3.05859-6.76953zm-224.80078 70.74414 95.544922 13.64844c-0.10195 3.56078 0.37721 7.19309 1.51758 10.76953 0.67886 2.12904 1.55992 4.14015 2.61328 6.01953l-69.85742 67.50586c-10.67072-12.61195-19.09599-27.51247-24.445312-44.28906-5.71739-17.93092-7.33324-36.14852-5.37305-53.6543zm156.01172 31.26953 94.42187 24.00782c-11.26571 33.84105-36.4506 62.53211-71.12109 77.46093l-37.45312-88.68945c6.03362-2.80974 10.88631-7.3279 14.15234-12.7793zm-46.16016 10.19727c5.02522 3.39386 10.95779 5.38127 17.12305 5.60742l25.2832 93.99414c-36.79513 7.11234-73.62895-2.26446-101.98047-23.74023zm230.91993 184.44336c-1.3126-0.0362-2.6872 0.0318-4.13086 0.23437-11.84255 1.52823-27.6236 13.75066-43.8379 15.27539-16.47699 1.19534-35.99572-8.24196-52.77539-6.66406-16.71235 1.69132-30.82579 14.70447-46.83984 16.56445-16.3235 1.59558-33.61971-7.75198-49.63281-6.48437-16.2556 1.11271-30.68154 12.6149-45.83985 13.92187-14.94898 1.10961-29.18835-8.34987-43.95312-6.48632-15.14822 2.01677-30.70922 15.34493-45.50781 17.45117-14.955562 1.64199-29.577752-8.25574-42.820322-7.12891-13.36581 1.02124-27.55425 10.83663-36.386714 13.56641-8.837865 2.67234-14.530332 3.14644-16.791016 2.05469l2.929688 31.16601c2.260682 1.09174 7.955102 0.61765 16.792968-2.05469 8.832343-2.73106 23.019634-12.54505 36.386714-13.5664 13.24385-1.12696 27.8628 8.76895 42.818362 7.12695 14.79859-2.10622 30.36155-15.43244 45.50977-17.44922 14.76477-1.86354 29.00287 7.5941 43.95313 6.48438 15.15831-1.30697 29.58425-12.80719 45.83984-13.91992 16.01311-1.2676 33.3093 8.07989 49.63281 6.48437 16.01405-1.86001 30.12713-14.87695 46.83985-16.56445 16.77967-1.5779 36.29838 7.85745 52.77539 6.66211 16.21428-1.52473 31.99467-13.74531 43.83593-15.27344 11.56036-1.50298 18.62099 5.30646 25.75196 6.24023 7.00738 0.82438 12.2663 0.56666 16.20507-1.04882l-2.92968-31.16407c-3.94994 1.4968-9.20356 1.8146-16.21094 0.99024-6.23445-0.76234-12.42709-6.16482-21.61523-6.41797z"/>
</svg>
