<?xml version="1.0" encoding="UTF-8" standalone="no"?>
<svg xmlns="http://www.w3.org/2000/svg" height="517.89221" width="537.06445" version="1.0" viewBox="0 0 537.06446 517.89221">
<path opacity=".2" d="m9.166024 318.14807a5.4872335 5.4872335 0 0 0 -5.486328 5.48633v184.55859a5.4872335 5.4872335 0 0 0 5.486328 5.48633h519.81641a5.4872335 5.4872335 0 0 0 5.48632 -5.48633v-184.55859a5.4872335 5.4872335 0 0 0 -5.48632 -5.48633z"/>
<path d="m279.58594 0.00744241c-1.00565 0.02104-2.02221 0.08571-3.04297 0.179687-30.14619 2.106544-41.61303 42.929092-17.10547 60.462891 23.55419 18.056249 58.72567-3.540807 53.10938-32.820313-2.66713-15.414568-14.87356-26.531981-29.98047-27.742187-0.98007-0.07851-1.97481-0.101114-2.98047-0.08008zm-91.375 37.824218a16.506196 16.506196 0 0 0 -12.26172 27.296875l42.76172 50.917975a16.506196 16.506196 0 0 0 13.09766 5.88281 16.506196 16.506196 0 0 0 0.57617 -0.0254l41.14062-2.58398 18.56836 72.77343a37.569316 37.569316 0 0 0 0.72071 2.45118l-50.25586 45.34179a22.835257 22.835257 0 0 0 -6.70508 25.16406 20.911223 20.911223 0 0 0 21.38086 21.37305l100.92383-1.0918a20.911223 20.911223 0 1 0 -0.45117 -41.8164l-44.11133 0.47656 44.40429-32.91406a22.835257 22.835257 0 0 0 8.125 -26.3125 37.569316 37.569316 0 0 0 -1.23242 -11.2461l-18.98828-74.42772a37.569316 37.569316 0 0 0 -35.21289 -28.773442 37.569316 37.569316 0 0 0 -27.93164 11.109378l-44.66602 6.371094-36.86914-43.89844a16.506196 16.506196 0 0 0 -13.01367 -6.06836zm-188.21094 272.06055v20h537.06446v-20zm15.47461 92.26758v19.4668h38.933594v-19.4668zm77.86719 0v19.4668h38.933586v-19.4668zm77.867186 0v19.4668h38.93555v-19.4668zm77.86914 0v19.4668h38.93359v-19.4668zm77.86719 0v19.4668h38.93359v-19.4668zm77.86914 0v19.4668h38.93359v-19.4668zm77.86719 0v19.4668h38.93359v-19.4668zm-482.68165 95.73242v20h537.06446v-20z"/>
</svg>
