<?xml version="1.0" encoding="UTF-8" standalone="no"?>
<svg xmlns="http://www.w3.org/2000/svg" height="514.75391" width="537.06445" version="1.0" viewBox="0 0 537.06446 514.75391">
<path opacity=".2" d="m9.166014 315.00781a5.4872335 5.4872335 0 0 0 -5.486328 5.48828v184.55664a5.4872335 5.4872335 0 0 0 5.486328 5.48829h519.81641a5.4872335 5.4872335 0 0 0 5.48633 -5.48829v-184.55664a5.4872335 5.4872335 0 0 0 -5.48633 -5.48828z"/>
<path d="m237.10156 0v1.253907l-1.27148 77.472658-6.57422 0.11914h-63.57813v71.283205l70.5586 0.4746 0.86523 101.02735v38.77344c1.86118-0.21404 3.75657-0.34642 5.66602-0.44532 9.59906 1.67512 19.87914 1.411 30.21289 0.85547 10.33136 0.5551 20.60998 0.81867 30.20703-0.85547 1.91097 0.0989 3.80728 0.23111 5.66992 0.44532v-38.71289l0.86719-101.0879 70.55664-0.4746v-71.283205h-63.57813l-6.57421-0.11914-1.27149-77.472658v-1.253907l-35.87695 0.626953zm-237.10156 306.75392v20h537.06445v-20zm15.474609 92.26562v19.46875h38.933594v-19.46875zm77.867191 0v19.46875h38.93359v-19.46875zm77.86914 0v19.46875h38.93359v-19.46875zm77.86718 0v19.46875h38.9336v-19.46875zm77.86719 0v19.46875h38.93555v-19.46875zm77.86914 0v19.46875h38.9336v-19.46875zm77.86719 0v19.46875h38.93359v-19.46875zm-482.68164 95.73438v20h537.06445v-20z"/>
</svg>
