<?xml version="1.0" encoding="UTF-8" standalone="no"?>
<svg xmlns="http://www.w3.org/2000/svg" version="1.0" viewBox="0 0 452.43613 516.97443">
<path opacity=".5" d="m118.72278 514.30224 55.55066-326.72348 52.30492-31.31861 51.16448 32.1539s46.84413 331.20079 41.39798 328.54447c-5.44615-2.65628-199.3288 1.32817-200.41804-2.65628z"/>
<path d="m73.478336 0.00882752a12.30123 12.30123 0 0 0 -8.87109 3.310547l-60.712896 56.814454a12.30123 12.30123 0 0 0 0.40625 18.324228l178.92968 153.20117-178.92968 153.20117a12.30123 12.30123 0 0 0 -0.40625 18.32422l60.712896 56.81445a12.30123 12.30123 0 0 0 18.32226 -1.70508l143.28906-195.35742 143.28711 195.35742a12.30123 12.30123 0 0 0 18.32227 1.70508l60.71289-56.81445a12.30123 12.30123 0 0 0 -0.4043 -18.32422l-178.93164-153.20117 178.93164-153.20117a12.30123 12.30123 0 0 0 0.4043 -18.324228l-60.71289-56.814458a12.30123 12.30123 0 0 0 -8.99219 -3.3046865 12.30123 12.30123 0 0 0 -9.33008 5.009765l-143.28711 195.35743-143.28906-195.35743a12.30123 12.30123 0 0 0 -9.451174 -5.0156225zm152.74023 224.10938l7.79493 7.54102-7.79493 7.54101-7.79492-7.54101z"/>
</svg>
