<?xml version="1.0" encoding="UTF-8" standalone="no"?>
<svg xmlns="http://www.w3.org/2000/svg" height="383.30273" width="502.08398" version="1.0" viewBox="0 0 502.08399 383.30274">
<path d="m189.69922 0-28.10938 11.76953 22.74414 54.20899c-24.02492 10.06119-49.02539 20.60937-49.02539 20.60937l11.76758 28.11133 49.08594-20.61133 45.36719 107.99024c-93.47767 39.14721-184.45514 77.80664-178.90625 77.80664 11.34172 0 22.25713 2.6229 31.76953 7.07422 9.512409 4.20741 19.999849 6.64648 31.097649 6.64648 10.97586 0 21.46502-2.43907 30.85547-6.64648 9.63436-4.45132 20.48794-7.07422 31.89063-7.07422 11.34172 0 22.13322 2.6229 31.76758 7.07422 9.39045 4.20741 20.00071 6.64648 30.97656 6.64648 10.97586 0 21.58698-2.43907 30.85547-6.64648 9.75632-4.45132 20.60988-7.07422 31.89062-7.07422 11.28073 0 22.13516 2.6229 31.76953 7.07422 9.51239 4.20741 19.99875 6.64648 30.97461 6.64648 3.10982 0 6.0996-0.67125 9.14844-1.03711 5.48793-1.21954 11.09692-1.7076 16.46289-3.84179l0.36523-0.1836c9.93924-55.67196 32.86719-167.13672 32.86719-167.13672s-79.81828 32.98736-165.67383 68.8418l-45.36718-108.05078 45.73242-19.20703-11.76758-28.11133c-15.26397 6.42431-30.53457 12.83662-45.79492 19.26953zm-126.95313 323.17774c-11.280727 0-22.135175 2.62291-31.769528 7.07422-9.390456 4.20742-20.000707 6.70703-30.976563 6.70703v46.34375c10.975856 0 21.586107-2.43909 30.976563-6.64649 9.634353-4.45132 20.488801-7.07422 31.769528-7.07422 11.28075 0.00001 22.25518 2.6229 31.76758 7.07422 9.512409 4.2074 20.001809 6.64649 31.099609 6.64649 10.97585 0 21.46308-2.43909 30.85352-6.64649 9.63437-4.45132 20.42696-7.07422 31.89062-7.07422 11.28074 0.00001 22.13516 2.6229 31.76953 7.07422 9.39044 4.2074 20.00071 6.64649 30.97657 6.64649 10.97584 0 21.58501-2.43909 30.85351-6.64649 9.75632-4.45132 20.60989-7.07422 31.89063-7.07422 11.28073 0.00001 22.13517 2.6229 31.76953 7.07422 9.5124 4.2074 20.00071 6.64649 30.97656 6.64649 11.0978 0 21.58611-2.43909 30.97656-6.64649 9.63435-4.45132 20.42781-7.07422 31.76953-7.07422 11.40268 0.00001 22.25627 2.6229 31.89063 7.07422 9.39045 4.2074 19.87767 6.64649 30.85351 6.64649v-46.34375c-10.97584 0-21.46306-2.49961-30.85351-6.70703-9.63436-4.45131-20.42697-7.07422-31.89063-7.07422-11.28075 0-22.13518 2.62291-31.76953 7.07422-9.39045 4.20742-19.87876 6.70703-30.97656 6.70703-10.97585 0-21.46416-2.49961-30.97656-6.70703-9.63436-4.45131-20.4888-7.07422-31.76953-7.07422-11.28074 0-22.13431 2.62291-31.89063 7.07422-9.2685 4.20742-19.87766 6.70703-30.85351 6.70703-10.97587 0-21.58613-2.49961-30.97657-6.70703-9.63437-4.45131-20.42781-7.07422-31.76953-7.07422-11.40268 0-22.25625 2.62291-31.89062 7.07422-9.39044 4.20742-19.87767 6.70703-30.85352 6.70703-11.0978 0-21.5872-2.49961-31.099609-6.70703-9.5124-4.45131-20.48683-7.07422-31.76758-7.07422z"/>
</svg>
