<?xml version="1.0" encoding="UTF-8" standalone="no"?>
<svg xmlns="http://www.w3.org/2000/svg" version="1.0" viewBox="0 0 491.08551 372.16675">
<path d="m55.954563 283.94129c5.645119 1.66467 19.510299 0.264 14.758039-9.1015-2.63673-5.19691-15.042439-11.73915-20.522131-13.29085-8.257063-2.33907-22.130083 7.81265-11.528186 14.32262l-2.305637 6.91691c-8.878318-4.24237-11.408639-17.22541-10.685822-26.51483 0.508278-6.53302 6.407135-13.42226 8.744014-19.59791 6.384079-16.8715 11.627675-33.45249 16.593095-50.72402 1.984808-6.90423 2.572745-19.97028 8.575007-24.52276 5.62403-4.26658 14.26106-4.88795 20.5762-8.03054 4.65508-2.31716 7.69622-7.08407 12.70291-8.6323 10.750038-3.32358 21.340978-2.46703 26.497538-14.1497 10.88722 16.43574 19.97604 31.75093 21.78251 51.87684 1.28424 14.30763-8.48244 28.97725-11.7795 42.65429-2.30449 9.56033-1.59435 19.29818-4.10519 28.82047-3.13221 11.87403-9.24099 22.84886-12.22103 34.58456-1.7984 7.07945-0.18676 15.1342-2.39671 21.9024-3.95532 12.11497-26.535578 19.35467-23.850668 34.57994 1.24044 7.03566 9.4439 8.41904 15.278308 9.61336 13.54793 2.77253 28.13223 1.06175 41.50147-1.03177 4.45219-0.69746 9.85775 0.1637 13.3335-3.31205 8.39137-8.39022-1.52287-24.24493 1.19548-34.08424 1.94711-7.05179 8.61732-13.19631 12.10113-19.59791 7.57402-13.92144 13.98715-28.58645 18.32982-43.80711h1.15282c0.27667 13.4165 3.51494 30.23151 8.66228 42.65429 3.24979 7.84378 11.6181 19.09759 11.38985 27.66764-0.39196 14.68691-22.64482 24.29335-11.97203 41.47957 10.73736 17.28882 36.11551-0.1049 49.56083-3.14719 7.37112-1.66813 17.25539 0.51531 20.87293-8.40866 4.99401-12.31672-5.14272-23.99246-6.84313-35.68781-1.94711-13.38422 0.56719-26.8503-1.88486-40.34865-1.79378-9.8785-9.83469-21.37326-9.56493-31.1261 0.18906-6.86273 5.06087-14.98895 6.64254-21.90356l43.80711 20.57205 18.4451 10.55406c0.0807 9.79895-0.18791 21.50698 1.53209 31.1261 0.82196 4.59398 5.13581 9.23523 3.82044 13.98369-2.56502 9.25252-25.21214 18.74598-20.11553 28.54955 2.80135 5.38828 10.53446 7.23394 15.91581 8.61732 13.62863 3.50457 49.33488 8.76949 59.35402-4.0095 4.4153-5.63152 4.0487-15.00163 4.05101-21.77905 0.007-17.08247 1.80762-35.18057-2.30564-51.87684 14.83447 9.14762 18.20762 27.53046 25.6433 42.65429 2.5754 5.23841 7.94177 13.54562 6.18602 19.58062-2.70912 9.30786-30.47706 23.84145-17.6289 36.40832 3.56221 3.48497 10.03759 3.74436 14.62005 5.13927 13.25972 4.03486 53.50807 10.61976 59.77595-6.96303 5.85747-16.43227 4.36227-45.44987 0.2859-62.23491-2.39902-9.8785-7.97174-18.4474-8.94587-28.82047-0.89574-9.54418 5.71567-19.20365 6.4212-28.82046 0.98104-13.38769-3.15757-25.14413-3.56913-38.04302-0.264-8.29799 2.52006-16.84268 2.52006-25.36201 12.66256 33.56432-0.59255 69.67751 8.62424 103.75368 1.34188 4.96058 1.86641 33.09281 11.80255 30.25918 3.72591-1.06174 4.82801-7.52214 4.07983-10.66126-3.26248-13.69779-9.17183-25.80815-9.2041-40.34866-0.0161-7.23047 3.28783-14.68229 4.09596-21.90355 4.77152-42.64507 11.43596-101.95067-25.16718-133.22087-16.32161-13.943329-34.00124-24.127559-51.87223-35.672349-13.98484-9.0343-28.29709-19.58166-44.95993-23.17742-12.22218-2.63742-25.62024 1.26038-38.04301 0.65653-27.08663-1.31675-53.69253-6.44368-80.69731-8.98057-12.28904-1.15455-24.46166 1.21484-36.89019-1.12262-26.70505-5.02248-46.45629-25.202806-72.62758-31.803038-8.28992-2.090475-22.65634-0.65791405-31.1261 0.829914-7.998258 1.405171-12.233708 7.007754-18.462398 11.44276-18.08795 12.880444-41.809384 33.534924-51.824842 53.888054-6.148212 12.49425-6.807394 29.19131-10.751647 42.655199-5.748992 19.62443-16.67045 35.9518-19.903068 56.48811-3.385483 21.50814 1.800933 44.10108 1.799549 65.71066-0.001 16.24552-9.088706 36.11781-3.304554 51.87684 8.0854092 22.02921 51.007267 29.30811 54.028573 0z"/>
</svg>
