<?xml version="1.0" encoding="UTF-8" standalone="no"?>
<svg
   xmlns:dc="http://purl.org/dc/elements/1.1/"
   xmlns:cc="http://creativecommons.org/ns#"
   xmlns:rdf="http://www.w3.org/1999/02/22-rdf-syntax-ns#"
   xmlns:svg="http://www.w3.org/2000/svg"
   xmlns="http://www.w3.org/2000/svg"
   height="0"
   style="position: absolute; width: 0; height: 0;"
   version="1.1"
   width="0">
  <title>Taiga</title>
  <metadata>
    <rdf:RDF>
      <cc:Work
         rdf:about="">
        <dc:format>image/svg+xml</dc:format>
        <dc:type
           rdf:resource="http://purl.org/dc/dcmitype/StillImage" />
        <dc:title>Taiga</dc:title>
        <dc:date>24-10-2016</dc:date>
        <dc:creator>
          <cc:Agent>
            <dc:title>Taiga</dc:title>
          </cc:Agent>
        </dc:creator>
        <dc:rights>
          <cc:Agent>
            <dc:title>CC</dc:title>
          </cc:Agent>
        </dc:rights>
        <dc:publisher>
          <cc:Agent>
            <dc:title>Taiga</dc:title>
          </cc:Agent>
        </dc:publisher>
        <dc:description>http://taiga.io</dc:description>
        <dc:source>http://taiga.io</dc:source>
        <cc:license
           rdf:resource="http://creativecommons.org/licenses/by/3.0/" />
      </cc:Work>
      <cc:License
         rdf:about="http://creativecommons.org/licenses/by/3.0/">
        <cc:permits
           rdf:resource="http://creativecommons.org/ns#Reproduction" />
        <cc:permits
           rdf:resource="http://creativecommons.org/ns#Distribution" />
        <cc:requires
           rdf:resource="http://creativecommons.org/ns#Notice" />
        <cc:requires
           rdf:resource="http://creativecommons.org/ns#Attribution" />
        <cc:permits
           rdf:resource="http://creativecommons.org/ns#DerivativeWorks" />
      </cc:License>
    </rdf:RDF>
  </metadata>
  <defs>
    <symbol
       id="icon-iocaine"
       viewBox="0 0 1024 1024">
      <title>iocaine</title>
      <path
         d="M613.658 0c-3.54 0-7.091 0.225-10.619 0.699-70.636 1.408-141.466-1.833-211.986 1.587-37.804 7.936-60.948 53.517-45.542 88.858 2.109 12.795 9.257 29.535 9.139 40.584h-73.738v65.213h51.474c-3.405 29.655-35.712 42.196-57.779 55.916-46.546 26.419-94.093 64.614-103.898 120.356-10.227 52.465-1.293 106.273-4.36 159.035 0.827 144.205-2.36 288.563 1.787 432.691 6.569 36.488 43.971 62.572 80.435 58.388 139.121 1.203 278.272-0.189 417.382 0.673 45.512-0.87 91.387 1.147 136.678-2.808 34.877-8.166 58.957-44.416 54.989-79.685 1.216-140.723-0.23-281.472 0.717-422.195-0.707-46.787 0.748-93.814-2.926-140.442-10.112-57.498-56.658-100.413-106.401-126.382-22.648-12.966-52.257-26.836-57.19-55.539h3.866c4.25 0.545 8.724 0.538 13.158 0h33.556v-31.002c0.064-1.132 0.064-2.245 0-3.338v-30.871h-74.138c7.567-31.309 24.717-66.726 6.958-97.741-12.442-22.262-36.782-33.946-61.568-33.989zM610.15 63.173c4.357-0.072 8.259 0.614 9.779 4.070-1.088 12.298-7.278 23.68-9.505 35.738-4.004 8.678-0.556 22.17-7.526 28.749h-182.17c-4.787-22.492-14.659-45.542-15.078-67.86 5.048-1.331 10.412-0.154 15.549-0.297 58.798 0.998 117.663-0.118 176.422 0.082 3.343 0.415 8.166-0.415 12.526-0.486zM396.314 196.941h232.842c-0.243 42.463 30.687 78.029 66.591 97.083 36.792 22.712 84.070 43.635 95.959 89.472 5.089 11.827 1.756 18.371-12.201 14.651-183.245-0.087-366.848 0.174-549.862-0.133 3.599-39.025 36.027-69.645 69.99-86.564 37.806-21.594 82.772-46.523 92.826-92.731 2.734-6.543-0.046-17.797 3.845-21.78zM348.741 462.643c37.996 15.301 59.156 54.118 90.394 78.833 16.691-11.948 36.183-19.999 56.428-23.475 35.814-8.1 71.352 5.018 103.357 20.045 30.38-24.205 46.188-45.901 72.179-65.708 15.693-15.094 42.765-8.422 42.939 12.836-20.787 36.956-53.368 59.73-82.918 88.586 21.555 30.216 30.625 69.773 21.683 106.066-0.783 18.662-18.514 30.502-20.769 48.456 20.813 30.428 48.397 51.374 71.122 78.31 19.021 10.888 8.975 43.848-12.672 43.172-37.76-20.736-59.387-60.57-94.894-84.173-4.518 13.368-0.223 33.723-0.627 50.010 3.584 16.289-8.934 32.548-25.349 34.028-32.768-1.766-65.723 0.384-98.555-0.87-18.918 1.178-26.358-20.045-25.101-35.64-0.051-12.948 7.68-33.546-8.576-39.634-32.138 15.514-52.813 44.518-87.782 67.904-12.173 17.004-41.505 3.021-39.724-16.594 25.933-40.543 69.13-64.691 101.934-98.778-39.209-39.56-38.492-107.75-4.854-150.51-20.014-25.974-46.446-45.875-68.516-69.939-18.58-9.733-10.593-42.586 10.296-42.918zM524.9 560.399c-1.889-0.051-3.789-0.033-5.693 0.059-37.427-0.128-73.536 24.916-86.897 60.475-15.045 32.584 0.709 72.602 30.828 90.373 16.358 4.698 28.237 19.835 29.696 36.736 3.602 17.357-7.834 36.285 1.649 52.142 16.41 6.108 36.956 6.973 54.182 1.172 5.24-17.836-2.202-38.868 0.461-58.143 5.548-28.426 40.96-33.928 53.752-57.3 28.127-53.921-19.52-123.86-77.983-125.517zM487.089 616.399c12.16-0.287 20.070 11.807 22.426 22.408 5.274 16.973-5.898 43.32-26.675 39.117-29.665-6.738-26.957-59.715 4.25-61.522zM556.526 616.43c11.105 0.538 18.304 10.752 20.659 21.082 5.957 17.132-4.447 44.032-25.702 40.468-29.737-5.862-27.745-58.616 2.77-61.524 0.776-0.051 1.536-0.061 2.273-0.026zM230.075 923.758c54.469 2.732 109.053-0.614 163.571 0.768h401.044c-0.179 11.73 6.060 33.116-10.691 35.22-37.952 3.83-76.006-0.904-114.107 1.080-144.691-0.479-289.459 1.697-434.099-1.254-10.45-7.46-7.117-26.235-5.74-35.814z"
         id="path82685" />
    </symbol>
    <symbol
       id="icon-lock"
       viewBox="0 0 1024 1024">
      <title
         id="title82688">lock</title>
      <path
         class="path1"
         d="M427.571 0c-149.486 0-270.822 121.6-270.822 271.411v119.639h-156.749v632.95h1024v-632.96h-156.749v-119.642c0-149.811-121.349-271.411-270.822-271.411h-168.832zM427.571 64.136h168.832c115.141 0 206.838 91.889 206.838 207.276v119.639h-582.502v-119.639c0-115.384 91.692-207.276 206.83-207.276zM64 455.201h896v504.678h-896v-504.678zM480 586.721v229.325h64v-229.325h-64z"
         id="path82690" />
    </symbol>
    <symbol
       id="icon-promote"
       viewBox="0 0 1024 1024">
      <title
         id="title82693">promote</title>
      <path
         class="path1"
         d="M0 0v1024h1024v-1024h-1024zM64 64h416v896h-416v-896zM544 64h416v252.16h-416v-252.16zM272.589 113.485l-186.163 186.163 44.524 44.524 109.64-109.645v681.83h64v-681.83l109.645 109.645 44.518-44.518-186.163-186.168zM544 380.16h416v273.92h-416v-273.92zM544 718.080h416v241.92h-416v-241.92z"
         id="path82695" />
    </symbol>
    <symbol
       id="icon-trash"
       viewBox="0 0 1024 1024">
      <title
         id="title82698">trash</title>
      <path
         class="path1"
         d="M273.382 0v143.726h-273.382v64h119.77v816.282h780.8v-816.282h123.43v-64h-277.018v-143.726zM337.382 64h345.6v79.726h-345.6zM183.782 207.726h89.6v682.982h64v-682.982h140.8v682.982h64v-682.982h140.8v682.982h64v-682.982h89.6v752.282h-652.8z"
         id="path82700" />
    </symbol>
    <symbol
       id="icon-unlock"
       viewBox="0 0 1024 1024">
      <title
         id="title82703">unlock</title>
      <path
         class="path1"
         d="M427.571 0c-146.12 0-265.318 116.191-270.618 261.325h64.036c5.158-110.612 94.822-197.197 206.592-197.197h168.832c115.139 0 206.835 91.886 206.835 207.273v119.639h-803.249v632.947h1024v-632.96h-156.749v-119.642c0-149.806-121.352-271.411-270.822-271.411zM64 455.194h896v504.678h-896zM480 586.701v229.325h64v-229.325z"
         id="path82705" />
    </symbol>
    <symbol
       id="icon-client-requirement"
       viewBox="0 0 1024 1024">
      <title
         id="title82708">client-requirement</title>
      <path
         class="path1"
         d="M273.375 0v139.336h-274.289v611.84h452.388v-64h-388.388v-483.84h61.425v243.2h606.72v-243.2h61.455v247.224h64v-306.47h-0.036v-4.754h-263.278v-139.336h-320zM337.375 64h192v75.336h-192v-75.336zM188.511 203.336h478.72v179.2h-478.72v-179.2zM395.871 254.228v73.139h64v-73.134h-64zM512.914 512v512h512v-512h-512zM576.914 576h384v70.060l-37.179-31.345-189.765 225.075-127.219-107.256-29.837 35.387v-191.921zM960.914 669.901v290.099h-384v-168.909l164.731 138.885 219.269-260.076z"
         id="path82710" />
    </symbol>
    <symbol
       id="icon-project"
       viewBox="0 0 1024 1024">
      <title
         id="title82713">project</title>
      <path
         class="path1"
         d="M607.821 126.72v102.4h-476.16v127.206h-131.661v540.954h1024v-770.56h-352.179zM671.821 190.72h288.179v642.56h-128v-474.675h-0.415v-2.278h-635.924v-63.206l476.16 2.419z"
         id="path82715" />
    </symbol>
    <symbol
       id="icon-team-requirement"
       viewBox="0 0 1024 1024">
      <title
         id="title82718">team-requirement</title>
      <path
         class="path1"
         d="M404.421 0c-139.443 0-253.171 113.725-253.171 253.169s113.725 253.176 253.171 253.176c139.443 0 253.174-113.728 253.174-253.171s-113.731-253.174-253.174-253.174zM404.421 64c104.858 0 189.174 84.314 189.174 189.169 0 104.858-84.319 189.176-189.174 189.176-104.858 0-189.171-84.316-189.171-189.171 0-104.858 84.314-189.171 189.171-189.171zM512.914 512v512h512v-512h-512zM404.396 546.9c-224.645 0.056-404.216 201.055-405.181 444.972l-0.128 32.128h452.388v-64h-386.68c15.329-197.402 162.803-349.041 339.602-349.1h0.026c15.949 0 31.657 1.254 47.053 3.651v-64.632c-15.437-1.971-31.13-3.021-47.068-3.021zM576.914 576h384v70.060l-37.179-31.345-189.765 225.075-127.219-107.256-29.837 35.387v-191.921zM960.914 669.901v290.099h-384v-168.909l164.731 138.885 219.269-260.076z"
         id="path82720" />
    </symbol>
    <symbol
       id="icon-add"
       viewBox="0 0 1024 1024">
      <title
         id="title82723">add</title>
      <path
         class="path1"
         d="M480 0v480h-480v64h480v480h64v-480h480v-64h-480v-480h-64z"
         id="path82725" />
    </symbol>
    <symbol
       id="icon-scrum"
       viewBox="0 0 1024 1024">
      <title
         id="title82728">scrum</title>
      <path
         class="path1"
         d="M0 0v1024h1024v-1024h-960zM64 64h416v896h-416zM544 64h416v252.16h-416zM544 380.16h416v273.92h-416zM544 718.080h416v241.92h-416z"
         id="path82730" />
    </symbol>
    <symbol
       id="icon-bulk"
       viewBox="0 0 1024 1024">
      <title
         id="title82733">bulk</title>
      <path
         class="path1"
         d="M0 0v64h214.976v-64h-214.976zM330.176 0v64h693.824v-64h-693.824zM0 335.36v64h214.976v-64h-214.976zM330.176 335.36v64h693.824v-64h-693.824zM0 652.8v64h214.976v-64h-214.976zM330.176 652.8v64h693.824v-64h-693.824zM0 960v64h214.976v-64h-214.976zM330.176 960v64h693.824v-64h-693.824z"
         id="path82735" />
    </symbol>
    <symbol
       id="icon-close"
       viewBox="0 0 1024 1024">
      <title
         id="title82738">close</title>
      <path
         class="path1"
         d="M44.518 0l-44.518 44.526 467.482 467.474-467.482 467.482 44.518 44.518 467.482-467.482 467.482 467.482 44.518-44.518-467.482-467.482 467.482-467.474-44.518-44.526-467.482 467.482-467.482-467.482z"
         id="path82740" />
    </symbol>
    <symbol
       id="icon-dashboard"
       viewBox="0 0 1024 1024">
      <title
         id="title82743">dashboard</title>
      <path
         class="path1"
         d="M0 0v296.96h296.96v-296.96h-296.96zM360.96 0v296.96h296.96v-296.96h-296.96zM721.92 0v296.96h302.080v-296.96h-302.080zM0 360.96v296.96h296.96v-296.96h-296.96zM360.96 360.96v296.96h296.96v-296.96h-296.96zM721.92 360.96v296.96h302.080v-296.96h-302.080zM0 721.92v302.080h296.96v-302.080h-296.96zM360.96 721.92v302.080h296.96v-302.080h-296.96zM721.92 721.92v302.080h302.080v-302.080h-302.080z"
         id="path82745" />
    </symbol>
    <symbol
       id="icon-discover"
       viewBox="0 0 1024 1024">
      <title
         id="title82748">discover</title>
      <path
         class="path1"
         d="M512 0c-282.394 0-512 229.606-512 512s229.606 512 512 512 512-229.606 512-512-229.606-512-512-512zM512 64c50.98 0 99.932 8.492 145.554 24.11 15.905 133.478-41.797 135.48-96.402 244.69-205.594 411.177 276.372 55.386 303.539 109.714 82.34 164.685-107.684 261.253-17.382 366.848-37.274 42.017-82.335 76.964-132.959 102.579-85.233-74.982-144.059-75.121-180.439 47.524-7.265 0.351-14.566 0.538-21.914 0.538-53.596 0-104.96-9.377-152.561-26.565 83.028-77.747 11.981-329.119-50.637-454.349-35.546-71.101 142.111-271.677 95.091-365.719-8.635-17.267-23.892-24.020-43.308-23.199 47.283-16.929 98.245-26.171 151.416-26.171zM75.945 408.686c59.29 100.058 212.28 198.477 39.030 300.8-1.229 1.341-2.253 2.811-3.174 4.334-30.572-60.621-47.8-129.167-47.8-201.82 0-35.574 4.147-70.154 11.945-103.314z"
         id="path82750" />
    </symbol>
    <symbol
       id="icon-drag"
       viewBox="0 0 1024 1024">
      <title
         id="title82753">drag</title>
      <path
         class="path1"
         d="M363.52 0v296.96h296.96v-296.96zM363.52 360.96v296.96h296.96v-296.96zM363.52 721.92v302.080h296.96v-302.080z"
         id="path82755" />
    </symbol>
    <symbol
       id="icon-exclamation"
       viewBox="0 0 1024 1024">
      <title
         id="title82758">exclamation</title>
      <path
         class="path1"
         d="M512 0c-282.394 0-512 229.606-512 512s229.606 512 512 512 512-229.606 512-512-229.606-512-512-512zM512 64c247.803 0 448 200.197 448 448s-200.197 448-448 448-448-200.197-448-448 200.197-448 448-448zM480 162.918v473.052h64v-473.052h-64zM480 714.514v146.57h64v-146.568h-64z"
         id="path82760" />
    </symbol>
    <symbol
       id="icon-flag"
       viewBox="0 0 1024 1024">
      <title
         id="title82763">flag</title>
      <path
         class="path1"
         d="M185.615 0c-170.665 0-185.615 0.051-185.615 0.051v1023.949h64v-460.792c17.72-0.026 9.795-0.036 121.615-0.036 180.419 0 286.277 44.846 431.345 69.164 145.065 24.32 407.040-53.76 407.040-53.76v-563.164s-261.975 78.072-407.040 53.752c-145.068-24.317-269.21-69.164-431.345-69.164zM186.826 66.074c116.511-0.571 230.328 30.408 343.926 54.118 140.526 36.232 288.077 15.647 426.68-18.988v426.002c-37.847 9.618-75.738 18.534-114.094 25.746-98.862 23.808-202.734 21.059-301.376-2.432-153.549-47.206-315.546-58.156-475.374-54.469 0.143-143.206-0.486-286.418 0.246-429.624 39.997 0.115 79.992-0.261 119.987-0.358z"
         id="path82765" />
    </symbol>
    <symbol
       id="icon-fold-column"
       viewBox="0 0 1024 1024">
      <title
         id="title82768">fold-column</title>
      <path
         class="path1"
         d="M405.888 512l-362.040-362.040-45.256 45.256 316.785 316.785-316.785 316.785 45.256 45.256zM1025.408 195.215l-45.256-45.256-362.040 362.040 362.040 362.040 45.256-45.256-316.785-316.785z"
         id="path82770" />
    </symbol>
    <symbol
       id="icon-fold-row"
       viewBox="0 0 1024 1024">
      <title
         id="title82773">fold-row</title>
      <path
         class="path1"
         d="M512 618.112l-362.040 362.040 45.256 45.256 316.785-316.785 316.785 316.785 45.256-45.256zM195.215-1.408l-45.256 45.256 362.040 362.040 362.040-362.040-45.256-45.256-316.785 316.785z"
         id="path82775" />
    </symbol>
    <symbol
       id="icon-graph"
       viewBox="0 0 1024 1024">
      <title
         id="title82778">graph</title>
      <path
         class="path1"
         d="M960 0v1024h64v-1024h-64zM652.8 292.57v731.43h64v-731.43h-64zM335.36 577.83v446.17h64v-446.17h-64zM0 789.944v234.056h64v-234.056h-64z"
         id="path82780" />
    </symbol>
    <symbol
       id="icon-issues"
       viewBox="0 0 1024 1024">
      <title
         id="title82783">issues</title>
      <path
         class="path1"
         d="M0 0v1024h1024v-1024h-1024zM64 64h896v896h-896v-896zM510.866 139.2l-189.765 225.075-127.222-107.256-41.254 48.932 176.148 148.508 231.020-274.010-48.929-41.249zM510.866 548.8l-189.765 225.075-127.222-107.256-41.254 48.932 176.148 148.508 231.020-274.010-48.929-41.249z"
         id="path82785" />
    </symbol>
    <symbol
       id="icon-kanban"
       viewBox="0 0 1024 1024">
      <title
         id="title82788">kanban</title>
      <path
         class="path1"
         d="M0 0v1024h1024v-1024zM64 64h243.2v896h-243.2zM371.2 64h284.16v896h-284.16zM719.36 64h240.64v896h-240.64z"
         id="path82790" />
    </symbol>
    <symbol
       id="icon-like-empty"
       viewBox="0 0 1024 1024">
      <title
         id="title82793">like-empty</title>
      <path
         class="path1"
         d="M775.526 0.051c-161.362-3.994-260.677 227.96-262.51 232.274-1.823-4.288-100.805-235.469-261.796-232.261-30.088 0.602-62.344 9.395-96.525 29.422-265.277 155.397-216.197 594.77 358.111 994.273v0.241l0.205-0.128 0.205 0.128v-0.241c566.574-373.642 623.393-838.876 358.118-994.273-33.917-19.866-65.933-28.698-95.808-29.435zM254.029 62.080c36.467 0.589 72.312 17.178 97.262 44.25 85.75 76.5 122.496 189.788 164.659 293.409 25.446-77.281 52.301-155.407 98.304-223.386 35.277-51.571 81.37-104.581 146.752-113.907 77.23-1.428 143.334 56.865 175.119 123.894 46.95 103.084 25.075 222.72-20.628 322.007-86.085 183.086-237.036 326.922-401.562 440.627-52.198-37.934-102.707-78.167-150.548-121.431-106.112-97.213-203.372-208.635-261.11-341.806-25.252-61.471-43.679-128.095-41.51-195.21 4.923-95.782 65.313-191.020 156.974-223.491 11.912-3.569 24.136-5.151 36.291-4.956z"
         id="path82795" />
    </symbol>
    <symbol
       id="icon-like"
       viewBox="0 0 1024 1024">
      <title
         id="title82798">like</title>
      <path
         class="path1"
         d="M251.22 0.064c-30.088 0.602-62.344 9.4-96.52 29.422-265.28 155.402-216.202 594.775 358.106 994.278v0.236l0.205-0.123 0.205 0.123v-0.238c566.579-373.642 623.391-838.874 358.113-994.278-217.037-127.14-356.142 197.729-358.316 202.842-1.818-4.288-100.8-235.469-261.791-232.261z"
         id="path82800" />
    </symbol>
    <symbol
       id="icon-activity"
       viewBox="0 0 400 400">
      <title
         id="title82803">activity</title>
      <path
         d="M280 80l46 46-98 97-80-80L.3 293l28 27 120-120 79.8 80 126-126 46 46V80z"
         id="path82805" />
    </symbol>
    <symbol
       id="icon-question"
       viewBox="0 0 1024 1024">
      <title
         id="title82808">question</title>
      <path
         class="path1"
         d="M512 0c-282.394 0-512 229.606-512 512s229.606 512 512 512 512-229.606 512-512-229.606-512-512-512zM512 64c247.803 0 448 200.197 448 448s-200.197 448-448 448-448-200.197-448-448 200.197-448 448-448zM510.175 166.92c-62.687 0-122.785 15.063-180.301 45.189l26.931 61.619c29.517-14.909 55.688-25.101 78.51-30.579 22.822-5.78 46.254-8.673 70.298-8.673 37.427 0 66.033 8.517 85.811 25.559 20.086 16.737 30.126 40.627 30.126 71.665 0 24.952-5.478 46.259-16.435 63.905-10.65 17.651-36.664 43.971-78.049 78.966-29.824 25.559-50.212 49.905-61.166 73.032-10.957 22.822-16.435 52.037-16.435 87.642v24.643h58.885v-15.060c0-28.91 4.864-52.040 14.605-69.386 10.040-17.344 30.428-39.099 61.164-65.27 38.341-33.472 63.296-57.664 74.86-72.576 11.564-15.214 20.234-31.191 26.015-47.928 6.088-17.042 9.132-36.667 9.132-58.88 0-52.037-16.128-92.365-48.384-120.965-32.256-28.605-77.445-42.906-135.567-42.906zM449.28 714.514v146.57h64v-146.568h-64z"
         id="path82810" />
    </symbol>
    <symbol
       id="icon-search"
       viewBox="0 0 1024 1024">
      <title
         id="title82813">search</title>
      <path
         class="path1"
         d="M427.866 0c-232.947 0-422.528 189.573-422.528 422.523s189.578 422.528 422.528 422.528c101.545 0 194.836-36.040 267.789-95.974l274.926 274.924 48.077-48.077-274.081-274.079c65.807-74.522 105.812-172.339 105.812-279.322 0-232.95-189.576-422.523-422.523-422.523zM427.866 67.994c196.204 0 354.534 158.326 354.534 354.529 0 196.206-158.331 354.534-354.534 354.534-196.206 0-354.534-158.328-354.534-354.534 0-196.204 158.328-354.534 354.534-354.534z"
         id="path82815" />
    </symbol>
    <symbol
       id="icon-settings"
       viewBox="0 0 1024 1024">
      <title
         id="title82818">settings</title>
      <path
         class="path1"
         d="M360 0v145.034l-102.554-102.554-214.963 214.963 102.554 102.554h-145.037v304h145.039l-102.559 102.559 214.963 214.958 102.554-102.554v145.039h304v-145.044l102.561 102.559 214.963-214.958-102.561-102.554h145.039v-304h-145.039l102.554-102.561-214.956-214.963-102.559 102.561v-145.039h-304zM424 64h176v235.551l166.561-166.561 124.449 124.447-166.559 166.561h235.548v176h-235.556l166.566 166.561-124.449 124.442-166.559-166.559v235.558h-176v-235.556l-166.554 166.561-124.452-124.452 166.564-166.554h-235.561v-176h235.551l-166.554-166.559 124.449-124.454 166.554 166.559v-235.546zM512 317.146c-107.238 0-194.854 87.616-194.854 194.854s87.616 194.86 194.854 194.86c107.238 0 194.86-87.621 194.86-194.86s-87.621-194.854-194.86-194.854zM512 381.146c72.653 0 130.86 58.204 130.86 130.854 0 72.653-58.209 130.86-130.86 130.86-72.653 0-130.854-58.209-130.854-130.86 0-72.653 58.204-130.854 130.854-130.854z"
         id="path82820" />
    </symbol>
    <symbol
       id="icon-team"
       viewBox="0 0 1024 1024">
      <title
         id="title82823">team</title>
      <path
         class="path1"
         d="M644.006 0c-130.729 0-237.345 113.725-237.345 253.171 0 139.443 106.616 253.174 237.343 253.174 130.729 0 237.356-113.728 237.356-253.171s-106.627-253.174-237.35-253.174zM644.006 64c98.304 0 177.357 84.314 177.357 189.171s-79.053 189.174-177.357 189.174c-98.304 0-177.347-84.316-177.347-189.171 0-104.858 79.040-189.171 177.344-189.171zM336.366 117.596c-115.717 0-210.092 100.659-210.092 224.095 0 123.43 94.374 224.102 210.092 224.102 63.739 0 108.877-17.626 147.456-65.69-86.072-38.072-134.758-141.627-134.758-246.932 0-47.48 12.365-91.971 33.83-130.012-14.976-3.635-30.548-5.565-46.528-5.565zM643.981 546.9c-210.606 0.056-378.949 201.052-379.853 444.969l-0.128 32.128h760l-0.128-32.128c-0.904-243.935-169.267-444.938-379.884-444.972zM332.91 600.545c-13.548 0.205-23.235 1.144-23.235 1.144-186.419 0.051-308.762 177.966-309.565 393.869l-0.11 28.442h206.405l0.128-32.128c0.604-162.885 60.127-310.49 172.787-388.037-15.45-2.959-32.86-3.492-46.413-3.29zM643.981 610.9h0.026c165.76 0.036 304.038 151.68 318.413 349.1h-636.813c14.374-197.402 152.627-349.038 318.374-349.1z"
         id="path82825" />
    </symbol>
    <symbol
       id="icon-timeline"
       viewBox="0 0 1024 1024">
      <title
         id="title82828">timeline</title>
      <path
         class="path1"
         d="M0 0v64h1024v-64h-1024zM0 335.36v64h1024v-64h-1024zM0 652.8v64h1024v-64h-1024zM0 960v64h1024v-64h-1024z"
         id="path82830" />
    </symbol>
    <symbol
       id="icon-unfold-column"
       viewBox="0 0 1024 1024">
      <title
         id="title82833">unfold-column</title>
      <path
         class="path1"
         d="M-1.408 512l362.040 362.040 45.256-45.256-316.785-316.785 316.785-316.785-45.256-45.256zM618.112 828.785l45.256 45.256 362.040-362.040-362.040-362.040-45.256 45.256 316.785 316.785z"
         id="path82835" />
    </symbol>
    <symbol
       id="icon-unfold-row"
       viewBox="0 0 1024 1024">
      <title
         id="title82838">unfold-row</title>
      <path
         class="path1"
         d="M512 1025.408l362.040-362.040-45.256-45.256-316.785 316.785-316.785-316.785-45.256 45.256zM828.785 405.888l45.256-45.256-362.040-362.040-362.040 362.040 45.256 45.256 316.785-316.785z"
         id="path82840" />
    </symbol>
    <symbol
       id="icon-unwatch"
       viewBox="0 0 1024 1024">
      <title
         id="title82843">unwatch</title>
      <path
         class="path1"
         d="M201.344 170.004l-45.248 45.256 47.703 47.706c-129.385 82.132-204.687 197.21-203.791 247.107 1.469 81.754 205.911 335.24 511.992 338.573 84.966 0.927 162.112-18.235 229.286-48.195l53.545 53.545 45.261-45.256-638.748-638.735zM512 171.489c-68.646 0-132.029 12.57-189.117 33.011l57.211 57.211c41.459-11.546 84.319-17.915 127.268-18.529 157.983-1.58 313.549 76.836 409.17 202.071 14.28 21.998 38.886 45.43 31.391 74.030-33.587 66.335-84.716 122.171-145.408 164.849l50.903 50.906c107.418-79.014 170.048-178.22 170.58-224.965 0.963-84.736-201.498-338.58-512-338.58zM514.099 308.424c-2.35 0-4.703 0.038-7.058 0.123-23.073 0.205-45.696 4.897-66.898 13.215l61.402 61.399c3.533-0.287 7.076-0.448 10.619-0.44 62.472-1.426 120.077 49.203 126.446 111.196 1.344 9.050 1.546 18.13 0.781 27.090l61.071 61.069c20.096-53.402 17.887-115.338-9.964-165.88-33.58-64.64-103.578-107.587-176.397-107.768zM255.532 314.696l86.84 86.84c-13.005 19.942-22.495 42.163-27.277 65.766-19.901 84.465 22.907 177.935 99.116 219.028 63.25 36.731 145.746 32.732 206.725-6.231l65.382 65.382c-24.11 9.096-48.804 16.42-73.769 21.811-183.327 38.252-382.523-41.779-498.022-188.237-15.196-24.325-42.565-45.701-40.192-77.112 41.221-78.572 105.382-142.551 181.197-187.249zM396.838 456l169.774 169.774c-7.16 3.354-14.682 6.031-22.52 7.872-59.418 16.41-126.899-16.742-149.44-73.754-14.625-33.093-12.657-71.585 2.189-103.892z"
         id="path82845" />
    </symbol>
    <symbol
       id="icon-user"
       viewBox="0 0 1024 1024">
      <title
         id="title82848">user</title>
      <path
         class="path1"
         d="M512 0c-139.443 0-253.166 113.725-253.166 253.169s113.725 253.176 253.169 253.176c139.448 0 253.179-113.728 253.179-253.174-0.003-139.446-113.733-253.171-253.181-253.171zM512 64c104.858 0 189.179 84.314 189.179 189.169 0 104.858-84.319 189.176-189.176 189.176-104.852 0-189.166-84.316-189.166-189.174s84.311-189.171 189.164-189.171zM511.974 546.9c-224.64 0.056-404.209 201.052-405.176 444.969l-0.128 32.128h810.662l-0.128-32.128c-0.973-243.935-180.557-444.938-405.217-444.972zM511.974 610.9h0.026c176.819 0.036 324.308 151.68 339.643 349.1h-679.27c15.334-197.402 162.806-349.041 339.61-349.1z"
         id="path82850" />
    </symbol>
    <symbol
       id="icon-wiki"
       viewBox="0 0 1024 1024">
      <title
         id="title82853">wiki</title>
      <path
         class="path1"
         d="M46.298 0l-0.067 89.702-46.231-17.446v844.984l512 106.76 512-106.757v-844.984l-45.696 17.198v-87.619l-467.72 162.017-464.289-163.855zM100.513 88.325l379.41 133.366v662.963l-379.412-133.366v-662.963zM923.489 88.325v662.963l-379.407 133.371v-662.971l379.407-133.366z"
         id="path82855" />
    </symbol>
    <symbol
       id="icon-archive"
       viewBox="0 0 1024 1024">
      <title
         id="title82858">archive</title>
      <path
         class="path1"
         d="M512.65 0l-512.571 136.453v736.753l511.964 150.794 511.956-150.794v-736.932l-0.512 0.148-510.84-136.422zM60.262 217.508l421.258 124.083v609.91l-421.258-124.083v-609.907zM963.819 217.508v609.91l-421.261 124.083v-609.912l421.261-124.083zM105.247 319.135v122.86l318.072 97.3v-122.86l-318.077-97.3z"
         id="path82860" />
    </symbol>
    <symbol
       id="icon-arrow-down"
       viewBox="0 0 1024 1024">
      <title
         id="title82863">arrow-down</title>
      <path
         class="path1"
         d="M975.688 234.772l-466.061 464.031-461.199-461.517-45.271 45.24 506.355 506.701 511.334-509.1-45.158-45.356z"
         id="path82865" />
    </symbol>
    <symbol
       id="icon-arrow-left"
       viewBox="0 0 1024 1024">
      <title
         id="title82868">arrow-left</title>
      <path
         class="path1"
         d="M789.228 975.688l-464.031-466.061 461.517-461.199-45.24-45.271-506.701 506.355 509.1 511.334 45.356-45.158z"
         id="path82870" />
    </symbol>
    <symbol
       id="icon-arrow-right"
       viewBox="0 0 1024 1024">
      <title
         id="title82873">arrow-right</title>
      <path
         class="path1"
         d="M234.772 975.688l464.031-466.061-461.517-461.199 45.24-45.271 506.701 506.355-509.1 511.334-45.356-45.158z"
         id="path82875" />
    </symbol>
    <symbol
       id="icon-arrow-up"
       viewBox="0 0 1024 1024">
      <title
         id="title82878">arrow-up</title>
      <path
         class="path1"
         d="M975.688 789.228l-466.061-464.031-461.199 461.517-45.271-45.24 506.355-506.701 511.334 509.1-45.158 45.356z"
         id="path82880" />
    </symbol>
    <symbol
       id="icon-attachment"
       viewBox="0 0 1024 1024">
      <title
         id="title82883">attachment</title>
      <path
         class="path1"
         d="M662.461 0.492l-573.568 572.526 45.215 45.294 528.353-527.393 226.542 226.084-617.208 616.082-136.796-136.515 519.439-518.495 44.329 44.237-424.929 424.159 45.215 45.297 470.316-469.463-134.938-134.651-610.028 608.922 227.389 226.934 707.802-706.509-317.13-316.513z"
         id="path82885" />
    </symbol>
    <symbol
       id="icon-briefcase"
       viewBox="0 0 1024 1024">
      <title
         id="title82888">briefcase</title>
      <path
         class="path1"
         d="M318.72 81.736v128.369h-318.72v732.16h1024v-732.16h-318.72v-128.369h-384zM382.72 145.736h258.56v64.369h-258.56zM64 274.104h80.64v256h734.72v-256h80.64v604.16h-896zM208.64 274.104h606.72v192h-606.72zM480 339.4v64h64v-64z"
         id="path82890" />
    </symbol>
    <symbol
       id="icon-bubble-empty"
       viewBox="0 0 1024 1024">
      <title
         id="title82893">bubble-empty</title>
      <path
         class="path1"
         d="M0 0v768h175.544v256h66.696l165.471-256h616.289v-768zM64 64h896v640l-580.854 0.914-139.602 218.854v-155.768h0.031l0.041-64h-175.616z"
         id="path82895" />
    </symbol>
    <symbol
       id="icon-bubble"
       viewBox="0 0 1024 1024">
      <title
         id="title82898">bubble</title>
      <path
         class="path1"
         d="M0 0v768h175.544v256h66.696l165.471-256h616.289v-768h-1024z"
         id="path82900" />
    </symbol>
    <symbol
       id="icon-bug"
       viewBox="0 0 1024 1024">
      <title
         id="title82903">bug</title>
      <path
         class="path1"
         d="M475.674 1.946c-85.051 0-154.522 69.466-154.522 154.514s69.471 154.511 154.522 154.511h73.139c85.051 0 154.516-69.463 154.516-154.511s-69.466-154.514-154.516-154.514h-73.139zM475.674 65.946h73.139c50.701 0 90.516 39.816 90.516 90.514s-39.816 90.511-90.514 90.511h-73.139c-50.701 0-90.522-39.813-90.522-90.511s39.821-90.514 90.522-90.514zM197.394 285.594l-45.253 45.261 105.848 105.856c-20.14 29.696-31.918 65.49-31.918 103.962v84.818h-131.213v64h131.215v84.813c0 36.582 10.691 70.715 29.051 99.517l-102.984 102.989 45.253 45.251 100.9-100.9c31.447 24.387 70.856 38.963 113.595 38.963h200.714c46.874 0 89.748-17.528 122.491-46.318l108.255 108.255 45.253-45.253-113.162-113.162c14.628-26.537 22.976-56.986 22.976-89.344v-84.813h130.726v-64h-130.729v-84.815c0-34.266-9.377-66.381-25.651-93.983l115.84-115.84-45.256-45.253-112.172 112.179c-32.205-26.778-73.556-42.918-118.574-42.918h-200.714c-40.87 0-78.694 13.325-109.427 35.809l-105.062-105.068zM411.886 418.854h68.352v477.261h-68.352c-68.040 0-121.815-53.778-121.815-121.815v-233.628c0-68.040 53.773-121.818 121.812-121.818zM544.238 418.854h68.362c68.037 0 121.815 53.778 121.815 121.815v233.626c0 68.040-53.775 121.818-121.812 121.818h-68.36v-477.261z"
         id="path82905" />
    </symbol>
    <symbol
       id="icon-capslock"
       viewBox="0 0 1024 1024">
      <title
         id="title82908">capslock</title>
      <path
         class="path1"
         d="M509.517 105.644l-506.36 506.701 45.271 45.235 461.202-461.509 466.063 464.026 45.153-45.353-511.334-509.1zM0 854.356v64h1024v-64h-1024z"
         id="path82910" />
    </symbol>
    <symbol
       id="icon-check"
       viewBox="0 0 1024 1024">
      <title
         id="title82913">check</title>
      <path
         class="path1"
         d="M0 0v1024h1024v-1024zM64 64h896v896h-896zM848.786 226.24l-445.765 481.075-229.622-209.656-41.254 48.932 278.548 250.906 487.022-530.002z"
         id="path82915" />
    </symbol>
    <symbol
       id="icon-clipboard"
       viewBox="0 0 1024 1024">
      <title
         id="title82918">clipboard</title>
      <path
         class="path1"
         d="M202.24-0.179v129.093l-202.24-0.11v895.375h729.6v-234.419h-64v170.419h-601.6v-644.385h601.6v287.086h64v-474.076h-64v0.11h-138.24v-129.093h-325.12zM266.24 63.821h197.12v96.44h0.32v32.653h201.92v58.88h-601.6v-58.88h202.24v-129.093zM129.165 393.242v64h468.838v-64h-468.836zM522.76 515.302l-181.020 181.018 181.020 181.020 45.256-45.253-103.759-103.767h559.744v-64h-559.749l103.764-103.764-45.253-45.256zM129.165 541.722v64h228.086v-64h-228.083zM129.165 690.202v64h150.246v-64h-150.246zM129.165 833.562v64h258.854v-64h-258.854z"
         id="path82920" />
    </symbol>
    <symbol
       id="icon-document"
       viewBox="0 0 1024 1024">
      <title
         id="title82923">document</title>
      <path
         class="path1"
         d="M477.23 0l-355.63 355.246v668.754h780.8v-1024h-425.17zM513.070 64h325.33v896h-652.8v-568.914h327.47v-327.086zM357.939 520.422v64h406.246v-64h-406.246zM536.1 668.902v64h228.086v-64h-228.086zM295.345 817.382v64h468.838v-64h-468.836z"
         id="path82925" />
    </symbol>
    <symbol
       id="icon-documents"
       viewBox="0 0 1024 1024">
      <title
         id="title82928">documents</title>
      <path
         class="path1"
         d="M121.6 355.246v668.754h780.8v-1024h-425.17zM513.070 64h325.33v896h-652.8v-568.914h327.47z"
         id="path82930" />
    </symbol>
    <symbol
       id="icon-downvote"
       viewBox="0 0 1024 1024">
      <title
         id="title82933">downvote</title>
      <path
         class="path1"
         d="M512 793.6l512-563.2h-1024z"
         id="path82935" />
    </symbol>
    <symbol
       id="icon-edit"
       viewBox="0 0 1024 1024">
      <title
         id="title82938">edit</title>
      <path
         class="path1"
         d="M740.291 1.894l-601.078 601.070-136.397 419.141 420.081-141.030 598.287-598.285zM740.291 92.403l190.387 190.387-526.556 526.548-188.306-192.466zM181.486 680.046l160.735 160.735-153.636 51.922-57.472-57.472z"
         id="path82940" />
    </symbol>
    <symbol
       id="icon-error"
       viewBox="0 0 1024 1024">
      <title
         id="title82943">error</title>
      <path
         class="path1"
         d="M512 0c-282.394 0-512 229.606-512 512s229.606 512 512 512 512-229.606 512-512-229.606-512-512-512zM512 64c247.803 0 448 200.197 448 448s-200.197 448-448 448-448-200.197-448-448 200.197-448 448-448zM275.256 230.001l-45.256 45.251 236.744 236.749-236.744 236.744 45.256 45.256 236.744-236.744 236.744 236.744 45.256-45.256-236.744-236.744 236.744-236.749-45.253-45.251-236.749 236.744z"
         id="path82945" />
    </symbol>
    <symbol
       id="icon-filters-empty"
       viewBox="0 0 1024 1024">
      <title
         id="title82948">filters-empty</title>
      <path
         class="path1"
         d="M0 75.131l416 457.6v236.938l192 179.2v-416.138l416-457.6h-1024zM138.921 136.571h746.179l-338.54 372.398v298.47l-66.186-61.788 0.41-235.331-341.86-373.75z"
         id="path82950" />
    </symbol>
    <symbol
       id="icon-filters"
       viewBox="0 0 1024 1024">
      <title
         id="title82953">filters</title>
      <path
         class="path1"
         d="M0 75.131l416 457.6v236.938l192 179.2v-416.138l416-457.6h-1024z"
         id="path82955" />
    </symbol>
    <symbol
       id="icon-github"
       viewBox="0 0 1024 1024">
      <title
         id="title82958">github</title>
      <path
         class="path1"
         d="M0 560.801q0 128 38.4 204.262 41.068 81.070 127.468 120.003 87.465 41.062 178.662 50.662 82.138 9.6 177.070 9.6 41.068 0 102.932-3.2 51.738-3.2 110.131-14.131 58.404-10.931 100.536-28.534 48-20.262 88.532-54.664 40.535-34.401 62.935-79.734 37.332-76.262 37.332-204.262 0-146.138-83.732-244.27 16.532-49.6 16.532-104 0-71.997-30.932-133.862-63.468 0-113.331 22.4-49.869 22.4-118.136 75.732-83.732-19.738-172.8-19.738-97.068 0-189.868 21.338-69.862-54.938-119.731-77.338t-113.331-22.4q-31.47 61.34-31.47 133.87 0 54.938 16.532 105.070-83.732 98.127-83.732 243.195zM137.6 669.064q0-75.73 43.469-126.397 43.464-50.67 114.399-50.67 28.262 0 120 13.338 46.932 6.93 96.532 6.93t97.068-6.932q93.332-13.338 120-13.338 70.932 0 114.132 50.67 43.2 50.662 43.2 126.397 0 53.868-19.732 94.932-19.738 39.468-49.331 62.669-29.604 23.199-75.469 37.069-75.735 22.93-178.135 22.93h-103.465q-50.668 0-91.735-4.8-43.732-4.27-88-18.67-44.262-14.4-73.062-36.265-31.47-24.52-50.67-65.326-19.2-40.801-19.2-92.534zM236.268 669.064q0 25.070 8 50.67 8 27.732 27.469 47.734 19.464 19.999 43.464 19.999 25.6 0 44.8-20.8 33.6-38.938 33.6-97.603 0-24.532-6.932-50.132-8-27.73-27.469-47.731-19.466-19.999-43.999-19.999-25.6 0-44.8 21.332-34.132 36.8-34.132 96.532zM630.4 669.064q0 25.070 8 50.67 8 27.735 27.2 47.734t43.2 19.999q26.132 0 45.332-20.8 33.6-38.938 33.6-97.603 0-22.932-7.465-50.132-8-27.73-27.469-47.731-19.466-19.999-43.999-19.999-25.6 0-43.732 21.332-34.668 36.8-34.668 96.532z"
         id="path82960" />
    </symbol>
    <symbol
       id="icon-maximize"
       viewBox="0 0 1024 1024">
      <title
         id="title82963">maximize</title>
      <path
         class="path1"
         d="M0 0v325.519h63.734v-216.182l277.88 279.278 45.066-45.292-277.88-279.273h215.099v-64.051h-323.899zM700.101 0v64.051h215.104l-277.88 279.27 45.066 45.294 277.875-279.278v216.182h63.734v-325.519h-323.899zM341.614 635.384l-277.88 279.27v-216.174h-63.734v325.519h323.899v-64.051h-215.099l277.88-279.27-45.066-45.294zM682.391 635.384l-45.069 45.292 277.88 279.27h-215.104v64.054h323.901v-325.519h-63.731v216.174l-277.875-279.27z"
         id="path82965" />
    </symbol>
    <symbol
       id="icon-minimize"
       viewBox="0 0 1024 1024">
      <title
         id="title82968">minimize</title>
      <path
         class="path1"
         d="M45.066 0l-45.066 45.286 277.88 279.278h-215.101v64.051h323.901v-325.522h-63.736v216.177l-277.88-279.27zM978.936 0l-277.88 279.27v-216.177h-63.736v325.522h323.901v-64.051h-215.101l277.88-279.278-45.064-45.286zM62.776 635.384v64.051h215.101l-277.878 279.278 45.066 45.286 277.878-279.27v216.177h63.736v-325.522h-323.901zM637.317 635.384v325.522h63.736v-216.177l277.88 279.27 45.066-45.286-277.88-279.281h215.101v-64.051h-323.901z"
         id="path82970" />
    </symbol>
    <symbol
       id="icon-move"
       viewBox="0 0 1024 1024">
      <title
         id="title82973">move</title>
      <path
         class="path1"
         d="M794.004 118.164l-45.256 45.256 152.742 152.74h-901.491v64h901.491l-152.742 152.74 45.256 45.256 229.996-229.996zM229.996 445.844l-229.996 229.996 229.996 229.996 45.256-45.256-152.742-152.74h901.491v-64h-901.491l152.742-152.74z"
         id="path82975" />
    </symbol>
    <symbol
       id="icon-reload"
       viewBox="0 0 1024 1024">
      <title
         id="title82978">reload</title>
      <path
         class="path1"
         d="M509.394 0c-233.518 0-429.484 165.98-447.278 381.896h60.073c17.953-175.969 181.99-317.737 387.205-317.737 182.817 0 332.954 112.517 376.243 261.486l-153.408-44.155-15.462 61.97 242.309 69.745 64.924-260.285-57.69-16.604-34.412 137.951c-62.42-161.050-229.647-274.266-422.502-274.266zM64.927 610.796l-64.927 260.285 57.69 16.604 34.412-137.951c62.42 161.050 229.647 274.266 422.502 274.266 233.523 0 429.486-165.98 447.283-381.896h-60.076c-17.953 175.967-181.99 317.737-387.205 317.737-182.817 0-332.954-112.517-376.243-261.486l153.408 44.155 15.462-61.97-242.309-69.745z"
         id="path82980" />
    </symbol>
    <symbol
       id="icon-save"
       viewBox="0 0 1024 1024">
      <title
         id="title82983">save</title>
      <path
         class="path1"
         d="M0 0v1024h1024v-797.199l-226.801-226.801h-733.199zM232.924 68.859h558.147v342.697h-558.147zM616.883 119.434v220.16h110.080v-220.16z"
         id="path82985" />
    </symbol>
    <symbol
       id="icon-upload"
       viewBox="0 0 1024 1024">
      <title
         id="title82988">upload</title>
      <path
         class="path1"
         d="M509.517 0l-352.76 355.354 45.271 45.524 277.972-280.028v744.174h64v-739.661l278.093 278.047 45.153-45.645zM0 959.59v64.41h1024v-64.41z"
         id="path82990" />
    </symbol>
    <symbol
       id="icon-upvote"
       viewBox="0 0 1024 1024">
      <title
         id="title82993">upvote</title>
      <path
         class="path1"
         d="M512 230.4l512 563.2h-1024z"
         id="path82995" />
    </symbol>
    <symbol
       id="icon-writer"
       viewBox="0 0 1024 1024">
      <title
         id="title82998">writer</title>
      <path
         class="path1"
         d="M956.918 0c-3.584 0.758-149.99 33.782-305.971 85.171-79.708 26.26-163.092 57.866-234.691 94.321s-131.917 76.168-165.699 128.197c-61.824 95.206-74.56 225.979-74.803 333.338-0.2 85.069 8.448 155.786 12.083 181.811l-187.837 201.162 93.993-0.289 147.005-158.354c31.788 4.362 89.759 10.982 156.017 11.871 99.533 1.331 217.201-7.265 295.88-67.046 41.426-31.473 78.024-87.235 115.21-154.532 37.189-67.297 73.336-146.099 105.242-221.558 63.823-150.904 110.653-288.735 110.653-288.735l-58.56-23.099s-46.195 135.834-108.846 283.981c-11.277 26.67-23.101 53.714-35.251 80.41h-172.831v67.174h141.036c-11.592 23.519-23.314 46.259-35.034 67.466-2.714 4.908-5.432 9.708-8.156 14.451h-214.513v67.18h171.674c-17.364 24.102-33.48 42.419-46.574 52.367-55.066 41.838-164.762 56.033-259.154 54.769-40.33-0.538-73.882-2.934-100.275-5.581l701.642-755.799zM871.562 90.593l-627.799 672.346c-2.944-29.251-5.765-69.914-5.645-121.743 0.23-101.023 15.455-220.943 63.544-294.999 9.318-14.349 24.781-29.967 44.902-45.875v200.893h62.367v-242.552c10.829-6.254 22.162-12.424 33.971-18.437 13.507-6.876 27.589-13.609 42.074-20.198v138.977h62.367v-165.504c39.88-15.928 81.28-30.72 121.838-44.083 75.53-24.883 147.789-44.826 202.378-58.824z"
         id="path83000" />
    </symbol>
    <symbol
       id="icon-watch"
       viewBox="0 0 1024 1024">
      <title
         id="title83003">watch</title>
      <path
         class="path1"
         d="M512 173.404c-310.502 0-513.464 256.829-511.995 338.58 1.469 81.756 205.911 335.24 511.995 338.575s511.027-253.837 511.995-338.575c0.965-84.736-201.498-338.58-511.995-338.58zM507.359 245.094c157.983-1.58 313.549 76.836 409.172 202.071 14.277 21.998 38.886 45.43 31.386 74.030-65.152 128.691-196.237 217.984-335.368 248.013-183.327 38.252-382.523-41.779-498.022-188.237-15.196-24.328-42.565-45.701-40.192-77.112 82.55-157.348 257.050-256.256 433.024-258.765zM514.092 310.341c-2.345 0-4.698 0.033-7.053 0.118-90.429 0.799-174.003 70.231-191.944 158.756-19.901 84.467 22.907 177.938 99.116 219.034 75.254 43.699 177.761 29.765 238.843-32.138 63.191-59.699 79.429-161.807 37.44-238.003-33.58-64.635-103.578-107.584-176.397-107.766z"
         id="path83005" />
    </symbol>
    <symbol
       id="icon-check-empty"
       viewBox="0 0 1024 1024">
      <title
         id="title83008">check-empty</title>
      <path
         class="path1"
         d="M975.199 128l-633.541 676.948-300.511-284.032-41.147 49.395 349.312 325.688 674.688-726.354z"
         id="path83010" />
    </symbol>
    <symbol
       id="icon-task"
       viewBox="0 0 1024 1024">
      <title
         id="title83013">task</title>
      <path
         class="path1"
         d="M415.391-0.543v73.472l-71.071 0.026v-73.492h-64v73.498h-69.12v-0.113h-64v951.69h729.6v-951.69l-131.169 0.026v-73.416h-64v73.426l-71.071 0.026v-73.439h-64v73.446h-67.169v-73.454h-64zM211.2 136.968h69.12v54.495h64v-54.495h71.071v54.495h64v-54.495h67.169v54.495h64v-54.495h71.071v54.495h64v-54.495h67.169v115.2h-601.6v-115.2zM211.2 316.168h601.6v644.383h-601.6v-644.38zM276.365 393.613v64h78.356v-64h-78.356zM418.721 393.613v64h326.484v-64h-326.487zM276.365 542.093v64h78.356v-64h-78.356zM418.721 542.093v64h326.367v-64h-326.367zM276.365 690.573v64h78.356v-64h-78.356zM418.721 690.573v64h325.33v-64h-325.33zM276.365 833.933v64h78.356v-64h-78.356zM418.721 833.933v64h326.418v-64h-326.42z"
         id="path83015" />
    </symbol>
    <symbol
       id="icon-api"
       viewBox="0 0 1024 1024">
      <title
         id="title83018">api</title>
      <path
         class="path1"
         d="M516.326 0c-39.188 0-74.688 5.32-103.224 15.45-14.269 5.064-26.921 11.169-37.983 20.454-11.059 9.28-21.837 24.123-21.837 42.854 0 0.358 0.026 0.701 0.036 1.055l-94.707 55.296c-25.792 2.189-49.285 6.917-69.338 14.034-14.269 5.064-26.926 11.169-37.99 20.454-10.662 8.947-21.028 23.081-21.76 40.868l-99.553 58.122 3.571 484.316 481.725 271.096 477.24-272.274 1.523-479.037-98.698-59.53c0-0.238 0.026-0.466 0.026-0.704 0-18.729-10.778-33.574-21.837-42.854-11.059-9.285-23.713-15.391-37.983-20.454-20.14-7.15-43.756-11.891-69.678-14.070l-86.682-52.275c0.113-1.331 0.179-2.673 0.179-4.045 0-18.729-10.77-33.572-21.832-42.854-11.059-9.283-23.718-15.386-37.99-20.454-28.529-10.122-64.020-15.447-103.209-15.447zM516.326 64.768c32.973 0 62.797 5.069 81.549 11.725 2.094 0.742 3.441 1.5 5.23 2.268-1.787 0.768-3.139 1.526-5.233 2.268-18.749 6.656-48.576 11.72-81.549 11.72s-62.807-5.069-81.556-11.72c-2.094-0.742-3.446-1.498-5.233-2.268 1.792-0.768 3.139-1.528 5.233-2.271 18.749-6.656 48.581-11.725 81.554-11.725zM386.028 129.459c8.274 5.146 17.28 9.139 27.072 12.616 28.536 10.127 64.036 15.45 103.219 15.45 39.188 0 74.683-5.32 103.219-15.447 9.677-3.436 18.596-7.378 26.796-12.442l17.618 10.179c-12.48 2.419-24.156 5.54-34.854 9.336-14.267 5.064-26.924 11.169-37.985 20.454-11.059 9.28-21.837 24.125-21.837 42.854 0 18.734 10.778 33.574 21.837 42.854 11.059 9.285 23.718 15.391 37.985 20.454 28.539 10.13 64.033 15.45 103.219 15.45s74.685-5.32 103.219-15.447c12.575-4.46 23.885-9.738 33.966-17.28l62.351 35.999-415.859 235.84-415.795-235.853 58.36-33.695c9.242 6.323 19.466 10.993 30.707 14.984 28.536 10.13 64.033 15.45 103.219 15.45 39.183 0 74.685-5.32 103.219-15.447 14.272-5.064 26.924-11.169 37.985-20.454 11.059-9.28 21.837-24.12 21.837-42.854 0-18.729-10.778-33.574-21.837-42.854-11.059-9.285-23.713-15.391-37.983-20.454-9.157-3.251-19.036-5.998-29.517-8.243l19.832-11.448zM292.49 198.477c32.973 0 62.804 5.059 81.554 11.715 2.094 0.742 3.443 1.495 5.233 2.266-1.792 0.768-3.139 1.526-5.233 2.271-18.749 6.656-48.581 11.717-81.554 11.717s-62.807-5.064-81.556-11.717c-2.094-0.742-3.443-1.503-5.233-2.273 1.792-0.773 3.139-1.526 5.233-2.268 18.749-6.656 48.581-11.715 81.556-11.715zM732.316 198.477c32.973 0 62.804 5.059 81.554 11.715 2.092 0.742 3.441 1.495 5.23 2.266-1.792 0.768-3.139 1.526-5.233 2.271-18.752 6.656-48.584 11.717-81.556 11.717s-62.804-5.064-81.556-11.717c-2.094-0.742-3.441-1.503-5.233-2.273 1.792-0.773 3.139-1.526 5.233-2.268 18.752-6.656 48.584-11.715 81.556-11.715zM516.321 272.522c-39.188 0-74.688 5.315-103.224 15.442-14.269 5.069-26.921 11.172-37.983 20.454-11.059 9.283-21.837 24.128-21.837 42.86s10.778 33.572 21.837 42.854c11.064 9.283 23.716 15.391 37.985 20.454 28.536 10.127 64.036 15.447 103.219 15.447 39.188 0 74.683-5.32 103.219-15.447 14.269-5.064 26.926-11.172 37.99-20.454 11.059-9.283 21.832-24.123 21.832-42.854s-10.772-33.577-21.837-42.86c-11.059-9.283-23.716-15.386-37.985-20.454-28.536-10.127-64.031-15.442-103.219-15.442zM516.321 337.29c32.973 0 62.797 5.061 81.549 11.717 2.094 0.742 3.441 1.498 5.23 2.268-1.787 0.768-3.139 1.523-5.233 2.268-18.749 6.656-48.576 11.72-81.549 11.72s-62.807-5.069-81.556-11.72c-2.094-0.742-3.446-1.498-5.233-2.268 1.792-0.768 3.139-1.528 5.233-2.271 18.749-6.656 48.581-11.717 81.554-11.717zM94.72 360.55l389.371 224.801v362.117l-389.371-224.806v-362.112zM933.427 362.811v359.040l-389.376 224.809v-359.048l389.376-224.804z"
         id="path83020" />
    </symbol>
    <symbol
       id="icon-customize"
       viewBox="0 0 1024 1024">
      <title
         id="title83023">customize</title>
      <path
         class="path1"
         d="M740.291 1.889l-601.078 601.075-136.397 419.149 420.078-141.038 57.201-57.201c-25.226-4.974-73.692-15.168-75.054-15.455l-0.922 0.916-188.306-192.461 524.477-524.477 190.387 190.387-121.262 121.257 10.284 80.225 201.485-201.485-280.893-280.893zM721.49 417.774c-28.303 0-31.882 0.22-35.546 2.186-7.181 3.85-7.921 6.861-10.752 43.479-1.416 18.271-3.059 33.812-3.653 34.534-0.589 0.73-5.473 2.56-10.849 4.063-15.447 4.326-29.952 10.156-45.786 18.412-8.064 4.198-15.304 7.642-16.095 7.642-0.794 0-11.812-8.858-24.489-19.686-28.467-24.32-29.268-24.934-34.035-25.948-6.835-1.452-12.526 2.616-34.348 24.568-21.427 21.55-24.865 26.452-23.406 33.344 0.983 4.634 1.748 5.64 25.907 33.856 10.836 12.652 19.699 23.667 19.699 24.484 0 0.819-3.438 8.082-7.642 16.143-8.256 15.834-14.090 30.336-18.414 45.786-1.505 5.376-3.328 10.266-4.055 10.854-0.727 0.594-16.269 2.235-34.534 3.648-36.618 2.831-39.634 3.579-43.487 10.76-1.964 3.661-2.184 7.24-2.184 35.546 0 28.303 0.22 31.88 2.184 35.543 3.84 7.163 6.912 7.926 42.89 10.691 17.946 1.382 33.434 2.747 34.422 3.041 1.111 0.333 2.883 4.498 4.634 10.916 4.265 15.631 10.061 30.116 18.545 46.395 4.204 8.064 7.642 15.329 7.642 16.146 0 0.819-8.463 11.366-18.806 23.45-29.839 34.849-29.714 34.637-25.19 43.991 3.584 7.393 43.136 46.254 49.037 48.174 7.514 2.445 11.023 0.317 39.096-23.7l26.099-22.323 14.405 7.57c17.326 9.106 34.867 16.195 48.64 19.648 6.835 1.715 10.368 3.187 10.757 4.49 0.323 1.068 1.708 16.62 3.080 34.56 2.757 35.981 3.52 39.050 10.68 42.89 3.661 1.966 7.245 2.186 35.546 2.186 28.303 0 31.882-0.22 35.546-2.186 7.16-3.84 7.923-6.912 10.68-42.89 1.37-17.94 2.755-33.467 3.067-34.504 0.376-1.254 4.659-2.985 12.705-5.14 15.027-4.027 28.334-9.441 45.645-18.565 7.332-3.866 14.042-7.030 14.907-7.030s11.942 8.863 24.62 19.694c12.677 10.829 24.806 21.053 26.962 22.72 5.555 4.301 12.588 4.288 18.834-0.038 7.956-5.517 42.906-41.651 44.902-46.438 3.4-8.136 2.15-10.332-22.111-38.792-12.324-14.464-22.41-27.018-22.41-27.904 0-0.891 3.162-7.616 7.027-14.95 9.126-17.306 14.541-30.618 18.565-45.645 2.158-8.046 3.891-12.329 5.14-12.708 1.039-0.312 16.563-1.69 34.509-3.064 35.978-2.757 39.048-3.523 42.888-10.683 1.964-3.661 2.184-7.24 2.184-35.546 0-28.303-0.218-31.88-2.181-35.543-3.855-7.186-6.861-7.928-43.482-10.742-22.036-1.69-33.741-3.054-34.775-4.050-0.858-0.824-2.596-5.545-3.866-10.488-3.456-13.501-9.843-29.42-18.365-45.765-4.204-8.064-7.647-15.355-7.647-16.205 0-0.852 9.815-13.010 21.811-27.021 23.485-27.433 25.626-30.991 23.188-38.492-1.91-5.862-40.786-45.453-48.12-49.006-8.812-4.262-10.458-3.372-39.757 21.555-14.495 12.326-26.998 22.413-27.786 22.413-0.794 0-8.056-3.456-16.154-7.68-15.839-8.269-34.33-15.616-48.113-19.123-5.274-1.344-8.812-2.893-9.139-4.006-0.294-0.998-1.664-16.486-3.039-34.432-2.765-35.978-3.533-39.048-10.696-42.888-3.661-1.966-7.245-2.186-35.546-2.186zM724.511 588.815c28.293 0.581 56.402 10.225 79.898 29.025 41.293 33.034 58.573 86.185 45.128 138.778-3.43 13.396-14.894 35.845-24.325 47.611-21.432 26.734-51.858 43.904-86.52 48.837-7.588 1.075-25.948 1.444-30.244 0.602-0.978-0.192-5.78-0.998-10.675-1.792-16.604-2.703-35.297-10.273-50.414-20.424-41.37-27.776-64.384-78.715-57.49-127.214 4.531-31.872 21.010-62.702 44.16-82.627 26.112-22.477 58.419-33.459 90.486-32.799zM181.484 680.046l160.737 160.735-153.636 51.917-57.472-57.467 50.373-155.187z"
         id="path83025" />
    </symbol>
    <symbol
       id="icon-feel-love"
       viewBox="0 0 1024 1024">
      <title
         id="title83028">feel-love</title>
      <path
         class="path1"
         d="M768.010 0.036c-156.923 3.218-253.192 228.045-254.996 232.289-1.818-4.288-100.803-235.469-261.793-232.261-30.093 0.602-62.344 9.395-96.525 29.422-265.277 155.397-216.2 594.77 358.108 994.273v0.241l0.205-0.128 0.205 0.128v-0.241c566.582-373.642 623.396-838.876 358.121-994.273-33.92-19.866-65.933-28.698-95.813-29.435-2.522-0.064-5.025-0.067-7.516-0.015zM364.191 400.051l45.97 44.524-101.53 104.824 101.53 104.819-45.972 44.529-144.589-149.358 144.589-149.343zM659.809 400.051l144.589 149.343-144.589 149.356-45.97-44.531 101.53-104.822-101.53-104.827 45.972-44.524zM537.646 404.959l59.069 24.645-115.2 276.116-59.069-24.645 115.2-276.116z"
         id="path83030" />
    </symbol>
    <symbol
       id="icon-highly-designed"
       viewBox="0 0 1024 1024">
      <title
         id="title83033">highly-designed</title>
      <path
         class="path1"
         d="M603-0.451l-490.906 490.906-111.404 342.313 343.091-115.174 488.627-488.637-229.409-229.404zM603 73.469l155.489 155.487-430.042 430.047-153.792-157.184 428.344-428.352zM146.611 553.403l131.277 131.277-125.473 42.404-46.943-46.938 41.139-126.74zM760.243 748.687c-46.822-0.422-98.322 6.042-153.528 20.92-96.835 26.097-153.088 76.109-202.030 114.509-48.947 38.4-88.105 65.915-168.589 67.584-79.296 1.644-117.079-27.725-140.5-57.772-23.424-30.042-28.201-42.514-28.201-42.514l-60.723 18.34s0.481 18.934 34.084 62.034c33.6 43.103 97.505 85.955 196.838 83.896 98.138-2.035 159.283-42.117 210.647-82.414 51.361-40.294 95.411-80.092 177.203-102.139 168.817-45.501 281.536 1.326 322.893 56.251 7.7 10.23 8.253 17.357 5.299 25.94s-11.494 19.42-28.867 28.621c-34.739 18.414-103.578 27.679-198.63-3.302-65.5-21.35-96.581-40.771-109.64-51.871-7.009-3.994-7.764-3.963-7.764-3.963l-56.095 34.739c3.19 4.198 5.811 6.011 18.278 16.717 22.861 19.438 61.857 41.677 132.961 64.852 108.306 35.302 196.206 29.358 254.254-1.403 29.030-15.38 50.9-37.619 60.211-64.666 9.306-27.044 3.976-58.102-14.515-82.662-43.612-57.917-125.891-98.381-234.286-101.517-3.080-0.087-6.18-0.154-9.3-0.179z"
         id="path83035" />
    </symbol>
    <symbol
       id="icon-integration"
       viewBox="0 0 1024 1024">
      <title
         id="title83038">integration</title>
      <path
         class="path1"
         d="M739.226 1021.253c-4.634-0.026-64.876-0.138-132.339-0.251-35.625-0.061-68.787-0.681-94.861-1.697-13.036-0.507-24.276-1.111-33.403-1.818-9.126-0.712-14.61-0.896-23.055-3.098-10.148-2.644-18.906-2.145-31.8-14.705-6.451-6.28-10.532-16.102-11.604-22.589-1.075-6.495-0.742-10.56-0.609-14.387 0.481-13.409 4.288-21.076 8.678-30.482 4.396-9.405 10.061-19.162 16.758-28.948 9.124-13.338 12.928-22.003 14.060-27.131 1.134-5.128 1.070-7.877-1.825-15.872-2.637-7.296-6.036-11.407-14.753-15.928-8.719-4.521-23.357-8.236-43.917-8.671-27.896-0.589-47.135 3.185-57.713 8.166-10.573 4.982-13.76 8.909-16.704 18.801-3.615 12.16-3.359 17.556-1.313 23.713 2.048 6.159 7.634 15.068 20.762 27.86 12.595 12.278 19.73 30.387 21.1 47.475 0.691 8.673 3.845 18.207-5.207 33.736-4.531 7.767-12.211 13.396-17.638 16.008-5.435 2.611-9.293 3.533-12.966 4.506-11.699 3.092-13.763 2.007-22.623 2.45-8.863 0.44-20.127 0.799-33.147 1.093-26.035 0.594-58.988 0.927-91.648 0.998-32.666 0.064-64.973-0.136-89.779-0.622-12.403-0.243-22.879-0.556-30.925-0.973-4.019-0.205-7.373-0.425-10.563-0.763-1.597-0.169-3.098-0.34-5.202-0.742-2.107-0.397-2.885 1.93-13.629-5.599-8.289-5.806-9.416-10.010-10.655-12.588-1.242-2.575-1.69-4.122-2.074-5.409-0.758-2.58-1.006-4.096-1.267-5.632-0.522-3.072-0.832-5.888-1.152-9.257-0.65-6.74-1.221-15.327-1.784-25.667-1.121-20.675-2.15-48.077-2.959-77.184-1.613-58.209-2.422-121.889-0.914-153.088 0.494-10.266 1.595-20.109 3.18-28.818 0.788-4.352 1.664-8.376 2.944-12.557s1.050-7.823 8.694-16.604c7.462-8.576 19.218-13.99 29.325-15.048 10.112-1.057 18.662 0.891 26.452 3.656 15.575 5.53 29.338 14.943 44.526 27.653 25.843 21.637 31.974 22.853 49.779 18.166 19.61-5.161 37.325-25.080 45.389-52.961 8.064-27.878 4.884-60.321-10.296-82.637-7.849-11.533-22.426-23.258-36.301-29.601-12.321-5.637-21.965-5.396-24.225-5.307-1.843 1.265-4.646 3.116-7.045 5.391-5.35 5.076-12.022 12.083-17.93 19.016-19.128 22.451-32.86 40.74-63.37 42.414-15.258 0.837-32.568-9.075-40.325-20.296-7.757-11.218-10.445-22.385-12.347-34.624-1.339-8.64-0.937-12.826-0.957-21.786s0.128-20.255 0.41-33.213c0.548-25.925 1.613-58.424 2.9-90.509s2.796-63.7 4.257-87.91c0.732-12.104 1.441-22.31 2.145-30.116 0.358-3.899 0.691-7.142 1.119-10.189 0.215-1.528 0.43-2.954 0.87-4.941 0.435-1.989-1.902-2.478 5.658-12.987 6.871-9.549 11.282-9.894 13.857-10.97s4.001-1.408 5.197-1.7c2.399-0.589 3.73-0.75 5.094-0.929 2.721-0.358 5.184-0.556 8.154-0.75 5.939-0.394 13.542-0.701 22.764-0.955 18.452-0.512 43.169-0.778 70.118-0.709 65.091 0.169 104.090-0.402 127.603-2.419s28.884-4.224 36.659-8.74c13.85-8.049 14.29-11.018 14.546-15.506s-3.174-17.828-18.245-37.683c-9.129-12.022-15.708-21.074-20.705-32.067-5-10.99-6.945-22.707-7.649-33.357 2.86-35.116 11.195-61.279 38.641-79.15 10.189-6.636 17.152-8.243 26.765-11.090 9.618-2.852 20.339-5.381 31.020-7.181h0.005c62.428-10.506 122.12 4.311 149.417 51.661 8.653 15.002 12.851 34.785 9.134 52.874-3.717 18.086-12.833 33.498-25.088 50.163-18.988 25.815-23.544 51.584-24.115 48.184v0.005c0.502 3.016 0.75 4.493 7.278 8.868 6.533 4.378 19.584 9.626 38.766 13.069-4.762-0.858 2.524 0.161 9.242 0.461 6.715 0.307 15.905 0.62 26.632 0.922 21.458 0.607 49.126 1.172 76.741 1.6 27.615 0.43 55.214 0.717 76.531 0.776 10.657 0.026 19.763 0 26.363-0.095 6.605-0.092 14.566-1.114 8.402-0.108 12.621-2.058 25.549 5.811 30.034 11.041 4.48 5.23 5.46 8.535 6.385 11.098 1.848 5.12 2.158 7.982 2.619 11.284 0.922 6.605 1.357 13.916 1.733 23.795 0.748 19.753 0.932 48.952 0.676 89.953-0.43 69.043 2.26 112.474 7.808 135.081 5.542 22.605 6.175 21.197 16.653 24.55 6.016 1.925 5.064 2.022 10.803 0.064 5.747-1.953 17.592-8.415 36.035-21.304 18.442-12.892 34.714-22.484 54.584-25.37 19.866-2.888 39.565 3.712 55.419 13.169 31.406 18.732 44.78 55.194 49.434 100.787 4.695 46.067-3.072 89.567-28.897 120.947-12.58 15.283-33.388 26.854-54.067 30.228-11.067 1.805-25.946 3.226-39.997-1.91-14.054-5.13-23.859-12.48-41.702-24.589-20.367-13.824-33.326-19.369-37.786-20.155-4.465-0.788-2.56-1.674-10.061 4.070-8.993 6.892-10.785 7.552-14.912 33.126-4.129 25.574-5.801 71.895-6.177 149.985-0.113 23.142-0.64 44.518-1.441 60.79-0.397 8.136-0.845 14.925-1.428 20.549-0.292 2.816-0.576 5.248-1.137 8.174-0.282 1.459-0.573 2.995-1.398 5.514s0.445 6.042-9.805 14.945c-9.436 8.2-13.96 8.049-19.041 9.267-5.082 1.224-9.984 1.851-15.642 1.823zM738.501 957.381h1.037c-0.282 0 0.563-0.090 0.404-0.051-0.082 0.026-0.32-0.351-1.441 0.051zM723.884 957.355c0.722-14.881 1.254-35.328 1.357-57.472 0.384-78.73 1.505-125.834 6.989-159.846 5.489-34.012 20.122-59.098 39.132-73.659 15.624-11.971 38.459-20.060 59.976-16.271 21.519 3.789 39.593 14.605 62.577 30.208 26.785 19.302 38.528 23.462 50.586 8.532 9.907-12.032 18.125-40.023 14.669-73.876-3.82-37.463-11.361-48.092-18.611-52.416-9.306-5.555-10.424-5.263-13.512-4.813-3.087 0.445-11.904 3.832-27.177 14.508-20.114 14.062-35.233 23.698-52.050 29.42-16.814 5.724-35.917 5.082-50.849 0.307-27.612-8.832-50.744-35.592-59.226-70.17-8.481-34.58-10.079-80.179-9.638-150.697 0.241-38.554-0.008-64.852-0.602-82.739-4.096 0.010-7.194 0.056-11.914 0.044-21.745-0.056-49.518-0.348-77.345-0.778-27.827-0.435-55.675-1.004-77.555-1.62-10.939-0.307-20.367-0.63-27.699-0.96-7.332-0.333-9.518 0.059-17.651-1.4-24.653-4.424-45.568-11.174-63.040-22.879-17.469-11.704-31.258-30.395-34.744-51.548-5.906-35.86 11.814-63.959 35.681-96.41 9.564-13.010 13.253-21.632 13.985-25.185 0.73-3.553 1.024-3.021-1.912-8.115-9.428-16.358-36.564-28.467-83.482-20.575-7.77 1.306-16.538 3.372-23.475 5.427-6.932 2.056-13.573 5.668-10.053 3.374-13.107 10.342-13.768 19.144-7.706 32.563 1.29 2.842 5.069 8.863 13.427 19.873 19.704 25.953 32.768 51.43 31.145 79.931-1.62 28.498-21.412 52.685-46.221 67.105-15.534 9.027-35.080 14.735-63.293 17.152-28.211 2.424-67.758 2.824-133.23 2.652-26.414-0.067-50.698 0.205-68.198 0.686-0.819 0.026-1.111 0.056-1.9 0.077-0.323 4.598-0.614 7.859-0.952 13.466-1.421 23.506-2.918 54.861-4.198 86.623-1.272 31.762-2.33 63.99-2.867 89.3-0.248 11.656-0.353 21.332-0.358 29.21 1.523-1.551 2.885-2.611 4.48-4.485 7.444-8.742 15.309-17.024 22.605-23.941 7.291-6.912 9.574-11.551 23.936-17.754 27.169-11.725 53.786-5.069 77.842 5.932 24.054 11 46.579 28.293 62.546 51.763 28.078 41.267 31.585 92.257 18.842 136.312-12.749 44.058-43.341 84.564-90.478 96.973-35.942 9.467-73.733-3.067-107.044-30.95-3.756-3.149-6.769-5.094-9.984-7.342-0.077 1.157-0.287 2.002-0.34 3.159-1.229 25.472-0.622 90.824 0.973 148.242 0.794 28.708 1.81 55.767 2.883 75.484 0.133 2.483 0.261 3.558 0.399 5.796 4.838 0.154 8.361 0.328 14.326 0.443 24.049 0.474 56.077 0.673 88.392 0.607 32.312-0.067 64.973-0.404 90.324-0.98 9.078-0.205 15.711-0.471 22.502-0.735-14.525-14.925-25.907-30.234-31.939-48.392-6.707-20.204-5.289-41.915 0.709-62.075 7.534-25.318 26.437-46.938 50.708-58.368 24.274-11.433 52.646-14.95 86.277-14.234 27.156 0.571 51.244 5.076 71.969 15.828 20.726 10.747 37.478 28.961 45.414 50.893 5.727 15.826 7.969 34.033 4.122 51.4-3.84 17.364-12.303 32.73-23.711 49.4-3.507 5.128-5.868 9.697-8.294 14.228 1.3 0.138 0.742 0.113 2.176 0.225 7.834 0.614 18.45 1.19 30.938 1.677 24.978 0.973 57.536 1.595 92.475 1.651 59.505 0.097 101.036 0.179 116.895 0.22zM51.602 954.795c-1.582-0.435-2.168-0.192-2.55-0.172 0.428 0.044 1.782 0.115 2.552 0.174zM69.491 701.463c0.571-1.221 0.369-1.516 0.266-1.183-0.044 0.133-0.197 0.911-0.269 1.178zM73.851 278.515c0.497-1.597 0.256-2.166 0.271-2.524-0.059 0.41-0.184 1.777-0.271 2.524z"
         id="path83040" />
    </symbol>
    <symbol
       id="icon-lend-hand"
       viewBox="0 0 1024 1024">
      <title
         id="title83043">lend-hand</title>
      <path
         class="path1"
         d="M258.519 65.162c-52.92-0.315-109.614 17.984-160.481 62.899-80.781 71.327-111.36 153.395-92.774 233.416 18.304 78.853 76.69 151.987 157.709 228.71l-30.438 30.541c-31.242 31.355-36.948 83.64-4.751 115.948 12.723 12.767 28.557 19.574 44.979 21.222 1.649 16.486 8.435 32.376 21.161 45.146 12.723 12.764 28.557 19.574 44.979 21.228 1.651 16.486 8.438 32.379 21.161 45.146 12.723 12.769 28.557 19.574 44.984 21.228 1.646 16.481 8.428 32.369 21.151 45.138 32.197 32.307 84.301 26.583 115.546-4.767l82.089-82.373 92.28 92.278 2.324 1.644s52.838 33.887 109.146 3.853c25.024-13.345 37.499-36.48 42.273-56.768 20.626 2.186 45.624-1.403 65.818-19.917 19.374-17.754 32.369-37.98 32.312-59.546-0.013-5.248-0.527-9.805-1.29-13.893 17.367-2.647 36.063-9.615 50.401-27.141 36.966-45.972 15.452-82.834 7.296-101.248-8.166-18.406-39.245-49.946-39.245-49.946 22.287-23.163 70.177-77.396 103.565-147.213 22.413-46.868 38.84-101.75 34.637-160.138-4.206-58.388-30.456-119.278-86.963-172.255-45.558-42.711-97.216-62.067-147.523-63.757-16.768-0.563-33.39 0.84-49.587 3.994-64.776 12.595-123.295 49.469-173.714 91.4-12.575 10.458-24.678 21.292-36.224 32.246-20.109-20.552-66.806-64.443-127.974-97.157-41.26-22.067-89.92-39.603-142.838-39.921zM258.109 132.529c38.031 0.225 76.708 13.363 111.475 31.956 54.19 28.979 96.461 69.445 112.64 86.042-54.154 59.668-87.869 111.427-87.869 111.427l-6.656 10.138 1.347 12.058s2.55 33.536 25.523 63.462c11.482 14.968 29.637 29.594 53.642 35.392 24.005 5.793 51.858 2.696 82.504-9.789 23.45-9.549 42.696-20.449 58.488-31.872 0 0 250.112 245.844 252.068 247.954 7.212 7.782 20.572 26.501 7.334 38.572-13.235 12.070-34.519 5.914-41.152-1.644-4.211-4.795-71.084-69.069-71.084-69.069-4.18-4.045-7.588-7.634-11.776-11.653-49.193-47.155-96.261-90.24-97.229-91.126l-0.63-0.594-0.364-0.338-45.85 49.352 109.338 103.091c20.109 19.443 40.586 39.352 56 55.373 9.344 9.715 17.203 18.278 22.461 24.507 7.071 7.997 17.229 20.8 4.562 32.033-12.664 11.233-26.957 3.553-39.322-4.403l-169.083-166.397-47.447 47.826 0.192 0.189 167.186 167.186s11.098 20.536-6.257 32.556c-17.352 12.019-33.357-2.322-38.264-5.315l-99.205-99.208c4.9-24.609-0.881-50.683-19.909-69.778-6.579-6.605-14.003-11.597-21.903-15.13 7.91-26.772 3.072-56.448-17.984-77.581-6.001-6.016-12.698-10.714-19.814-14.172 9.889-27.914 5.755-59.794-16.502-82.13-22.259-22.336-54.026-26.483-81.843-16.563-3.446-7.142-8.125-13.857-14.124-19.878-32.197-32.307-84.301-26.578-115.54 4.774l-42.527 42.675c-77.499-73.272-126.618-140.032-139.661-196.211-13.166-56.704 2.445-106.488 71.747-167.68 39.598-34.964 77.46-46.259 115.489-46.029zM787.128 141.299c34.509 0.402 67.891 13.133 103.173 46.208 45.806 42.941 62.776 85.345 65.843 127.949 3.072 42.598-9.165 86.408-28.211 126.234-28.713 60.037-71.534 108.664-90.911 129.009l-180.813-177.613c0.481-0.753 0.998-1.51 1.454-2.258 1.446-2.355 2.176-4.567 3.4-6.899 4.859 2.181 9.695 4.385 15.155 6.502 30.021 11.628 69.478 23.337 110.446 10.624 68.291-21.197 119.066-76.764 121.83-140.421l-67.302-2.924c-1.080 24.883-31.142 65.551-74.496 79.002-14.848 4.608-42.752-0.041-66.143-9.101-23.388-9.062-40.568-19.896-40.568-19.896l-51.72-32.794v61.243s1.050 4.664-8.013 19.438c-9.068 14.771-28.429 36.275-74.949 55.229-21.325 8.689-33.889 8.479-41.283 6.694s-11.617-5.197-16.010-10.921c-4.385-5.714-7.378-13.169-9.285-19.2 17.812-25.48 74.504-102.912 149.901-165.614 45.338-37.709 96.051-67.84 143.508-77.071 11.866-2.304 23.491-3.548 34.995-3.415zM315.73 540.582c2.391 0.197 4.26 1.070 5.325 2.138 2.834 2.847 4.301 11.418-4.762 20.506l-120.53 120.96c-9.057 9.088-17.597 7.616-20.434 4.769-2.834-2.842-4.301-11.418 4.762-20.506l120.525-120.955c5.663-5.683 11.121-7.237 15.112-6.912zM411.694 577.019c2.394 0.192 4.262 1.068 5.325 2.132 2.836 2.847 4.306 11.423-4.751 20.511l-150.359 150.886c-9.057 9.088-17.603 7.613-20.436 4.769-2.836-2.847-4.306-11.41 4.751-20.5l150.364-150.892c5.658-5.683 11.118-7.237 15.109-6.912zM448.010 673.326c2.394 0.195 4.262 1.068 5.325 2.135 2.836 2.847 4.301 11.418-4.756 20.506l-120.535 120.955c-9.057 9.088-17.595 7.619-20.429 4.774-2.842-2.847-4.306-11.423 4.749-20.511l120.535-120.955c5.663-5.683 11.123-7.235 15.114-6.907zM487.903 766.034c2.396 0.195 4.257 1.070 5.325 2.135 2.831 2.847 4.301 11.423-4.756 20.511l-94.29 94.618c-9.057 9.088-17.6 7.611-20.436 4.762-2.834-2.842-4.301-11.412 4.762-20.5l94.285-94.618c5.658-5.678 11.121-7.235 15.109-6.907z"
         id="path83045" />
    </symbol>
    <symbol
       id="icon-powerful"
       viewBox="0 0 1024 1024">
      <title
         id="title83048">powerful</title>
      <path
         class="path1"
         d="M404.882 64.86c0 9.83-167.066 577.843-167.066 577.843l257.887-56.95-137.994 438.246 428.472-666.291-290.888 49.139 198.51-406.848z"
         id="path83050" />
    </symbol>
    <symbol
       id="icon-smiley"
       viewBox="0 0 1024 1024">
      <title
         id="title83053">smiley</title>
      <path
         class="path1"
         d="M512 0c-282.394 0-512 229.606-512 512s229.606 512 512 512 512-229.606 512-512-229.606-512-512-512zM512 64c247.803 0 448 200.197 448 448s-200.197 448-448 448-448-200.197-448-448 200.197-448 448-448zM307.2 299.886c0 0 0 0 0 0-45.444 0-82.285 36.839-82.286 82.283 0 45.445 36.841 82.286 82.286 82.286s82.286-36.841 82.286-82.286c-0.001-45.444-36.842-82.284-82.286-82.284 0 0 0 0 0 0zM716.8 299.886c0 0 0 0 0 0-45.444 0-82.285 36.839-82.286 82.283 0 45.445 36.841 82.286 82.286 82.286 0 0 0 0 0 0 45.445 0 82.286-36.841 82.286-82.286s-36.842-82.284-82.286-82.284c0 0 0 0 0 0zM189.089 574.344c7.276 189.458 142.546 321.976 324.547 320.051 181.996-1.925 323.666-158.152 324.897-320.051h-649.444zM256.435 638.344h70.879v127.002c-37.299-34.066-62.73-78.208-70.879-127.002zM391.314 638.344h89.6v194.911c-32.192-3.571-62.387-12.288-89.6-25.17v-169.738zM544.914 638.344h89.6v170.565c-27.251 12.659-57.439 21.158-89.6 24.525v-195.087zM698.514 638.344h72.678c-8.279 49.567-34.406 94.316-72.678 128.596v-128.594z"
         id="path83055" />
    </symbol>
    <symbol
       id="icon-social-management"
       viewBox="0 0 1024 1024">
      <title
         id="title83058">social-management</title>
      <path
         class="path1"
         d="M143.168 0c-77.806 0-141.568 63.764-141.568 141.568 0 77.811 63.762 141.568 141.568 141.568 13.245 0 26.066-1.889 38.246-5.338l34.422 57.789c-76.48 56.438-126.223 147.164-126.223 249.216 0 170.598 138.982 309.581 309.581 309.581 88.499 0 168.479-37.412 224.973-97.229l52.378 39.532c-4.954 14.372-7.685 29.747-7.685 45.74 0 77.804 63.759 141.568 141.568 141.568 77.806 0 141.568-63.764 141.568-141.568 0-77.811-63.762-141.568-141.568-141.568-38.802 0-74.104 15.857-99.753 41.403l-47.56-35.896c28.941-47.071 45.658-102.41 45.658-161.562 0-49.779-11.853-96.855-32.845-138.583l117.683-86.226c24.095 18.964 54.395 30.349 87.224 30.349 77.806 0 141.568-63.762 141.568-141.568 0-77.809-63.762-141.573-141.568-141.573-77.809 0-141.573 63.764-141.573 141.568 0 21.949 5.074 42.778 14.106 61.371l-112.026 82.081c-56.788-71.235-144.256-117.002-242.145-117.002-45.701 0-89.124 9.979-128.223 27.863l-33.492-56.223c28.948-25.979 47.258-63.611 47.258-105.293 0-77.804-63.762-141.568-141.568-141.568zM143.168 64c43.22 0 77.568 34.355 77.568 77.568 0 43.223-34.348 77.568-77.568 77.568-43.218 0-77.568-34.345-77.568-77.568 0-43.213 34.35-77.568 77.568-77.568zM880.832 171.205c43.218 0 77.568 34.355 77.568 77.573s-34.35 77.568-77.568 77.568c-43.22 0-77.573-34.35-77.573-77.568 0-43.22 34.355-77.576 77.573-77.576zM399.194 339.218c136.013 0 245.581 109.576 245.581 245.588s-109.568 245.581-245.581 245.581c-136.013 0-245.586-109.568-245.586-245.581s109.573-245.586 245.586-245.586zM397.069 403.858c-65.134-1.024-116.89 74.757-90.726 134.82 7.414 19.259 21.156 35.891 38.277 47.327-58.947 25.882-93.96 90.793-93.023 153.784-0.154 12.301-1.311 24.968 10.496 24.602 87.867-1.787 194.995 0.384 282.872-0.195 11.494-69.924-23.578-148.57-89.882-177.981 46.472-30.751 59.709-103.352 21.363-145.684-19.174-23.281-49.126-37.499-79.378-36.675zM398.743 464.41c1.357-0.018 2.732 0.044 4.116 0.189 33.349 1.528 49.093 52.659 19.205 70.574-23.578 16.755-63.872-0.614-61.133-31.693 0.307-20.495 17.418-38.789 37.811-39.071zM401.311 635.384c38.211 0.607 70.382 32.735 80 67.917-54.477-0.056-108.954 0.154-163.423-0.154 10.040-35.244 41.298-67.379 79.708-67.722 1.244-0.051 2.483-0.061 3.712-0.041zM810.419 804.864c43.223 0 77.576 34.345 77.576 77.568 0 43.213-34.355 77.568-77.573 77.568-43.213 0-77.568-34.355-77.568-77.568 0-43.223 34.355-77.568 77.568-77.568z"
         id="path83060" />
    </symbol>
    <symbol
       id="icon-speak-up"
       viewBox="0 0 1024 1024">
      <title
         id="title83063">speak-up</title>
      <path
         class="path1"
         d="M0 0v768h175.544v256h66.696l165.471-256h616.289v-768h-1024zM64 64h896v640l-580.854 0.914-139.602 218.854v-155.768h0.031l0.041-64h-175.616v-640zM654.405 103.439c-87.194-2.156-140.864 123.187-141.855 125.517-0.986-2.319-54.477-127.24-141.471-125.507-16.261 0.325-33.69 5.076-52.16 15.898-143.35 83.968-116.833 321.408 193.516 537.285v0.128l0.115-0.069 0.102 0.077v-0.133c306.168-201.907 336.87-453.315 193.523-537.293-18.33-10.732-35.622-15.503-51.771-15.903z"
         id="path83065" />
    </symbol>
    <symbol
       id="icon-gallery"
       viewBox="0 0 1024 1024">
      <title
         id="title83068">gallery</title>
      <path
         d="M107.855 133.83h359.073v333.794H107.855zM533.072 133.83h359.074v333.794H533.072zM107.855 532.376h359.073V866.17H107.855zM533.072 532.376h359.074V866.17H533.072z"
         id="path83070" />
    </symbol>
    <symbol
       id="icon-list"
       viewBox="0 0 1024 1024">
      <title
         id="title83073">list</title>
      <path
         transform="matrix(31.97294 0 0 31.97294 5313.926 639.882)"
         d="M-162.75-2.5h3.75v-3.75h-3.75zm0 7.5h3.75V1.25h-3.75zm0-15h3.75v-3.75h-3.75zm7.5 7.5h16.875v-3.75h-16.875zm0 7.5h16.875V1.25h-16.875zm0-18.75V-10h16.875v-3.75z"
         id="path83075" />
    </symbol>
    <symbol
       id="icon-recruit"
       viewBox="0 0 1024 1024">
      <title
         id="title83078">Looking for people</title>
      <path
         d="M510.5 3l-159 141.7-207 14.2-19.3 203L0 513.4l125.2 151.2 19.3 208 207 19 159 132.3 159-132.4 207-19 14.5-203L1021 518 896 362.2 876.6 159l-207-19-159-137zm0 250.5c72.3 0 135 56.7 135 132.3 0 75.7-62.7 132.4-135 132.4-72.2 0-134.8-56.7-134.8-127.6 0-71 62.6-127.7 134.8-127.7zm0 331c96.4 0 269.8 47 269.8 127.5v66.2H240.8V712c0-85 178.2-132.4 269.7-132.4z"
         id="path83080" />
    </symbol>
    <symbol
       id="icon-badge"
       viewBox="0 0 1024 1024">
      <title
         id="title83083">Owner Badge</title>
      <path
         fill="#9dce0a"
         d="M512.053 24.761l-130.433 173.609-213.936-30.392 30.427 214.125-173.349 130.201 173.349 130.2-30.427 214.123 214.747-30.506 130.064 173.118 129.997-173.027 214.355 30.451-30.588-215.258 172.981-129.922-172.497-129.561 30.458-214.345-214.912 30.53-130.235-173.346z"
         id="path83085" />
    </symbol>
    <symbol
       id="symbol83087"
       viewBox="0 0 1024 1024">
      <title
         id="title83089">Exclamation</title>
      <path
         d="M512 0c-282.394 0-512 229.606-512 512s229.606 512 512 512 512-229.606 512-512-229.606-512-512-512zM512 64c247.803 0 448 200.197 448 448s-200.197 448-448 448-448-200.197-448-448 200.197-448 448-448zM275.256 230.001l-45.256 45.251 236.744 236.749-236.744 236.744 45.256 45.256 236.744-236.744 236.744 236.744 45.256-45.256-236.744-236.744 236.744-236.749-45.253-45.251-236.749 236.744z"
         id="path83091" />
    </symbol>
    <symbol
       id="icon-blocked-project"
       viewBox="0 0 1024 1024">
      <title
         id="title83094">Blocked Project</title>
      <path
         fill="#ff8282"
         d="M1017.075 512c0 278.946-226.13 505.076-505.076 505.076s-505.076-226.13-505.076-505.076c0-278.946 226.13-505.076 505.076-505.076s505.076 226.13 505.076 505.076z"
         id="path83096" />
      <path
         fill="#fff"
         d="M511.998 107.939c-222.856 0-404.061 181.204-404.061 404.061s181.205 404.061 404.061 404.061c222.856 0 404.061-181.203 404.061-404.061s-181.205-404.061-404.061-404.061zM511.998 158.447c88.671 0 169.621 32.484 231.616 86.222l-498.947 498.948c-53.74-61.998-86.223-142.945-86.223-231.617 0-195.561 157.992-353.553 353.553-353.553zM779.328 280.383c53.74 61.998 86.223 142.945 86.223 231.617 0 195.561-157.992 353.553-353.553 353.553-88.671 0-169.617-32.484-231.616-86.222l498.947-498.948z"
         id="path83098" />
    </symbol>
    <symbol
       id="icon-add-user"
       viewBox="0 0 470 350">
      <title
         id="title83101">Add user</title>
      <path
         d="M298.5 174.7c47.5 0 86-37.7 86-85.2 0-46.6-39.3-85-87-85-46.5 0-85 38.4-85 85 0 47.5 38.5 85.2 85 85.2zm-191-42V68H63v64.6H0v42h62.8v64.6h44.8v-64.5h62.7v-42h-62.7zm191 85c-56.4 0-170.3 28.7-170.3 85.2v43H469v-43c0-56.8-113-85.5-170.5-85.5z"
         id="path83103" />
    </symbol>
    <symbol
       id="icon-view-more"
       viewBox="0 0 66.3 16">
      <title
         id="title83106">View more</title>
      <path
         d="M16 8a8 8 0 0 1-8 8 8 8 0 0 1-8-8 8 8 0 0 1 8-8 8 8 0 0 1 8 8zM41.2 8a8 8 0 0 1-8 8 8 8 0 0 1-8-8 8 8 0 0 1 8-8 8 8 0 0 1 8 8zM66.3 8a8 8 0 0 1-8 8 8 8 0 0 1-8-8 8 8 0 0 1 8-8 8 8 0 0 1 8 8z"
         id="path83108" />
    </symbol>
    <symbol
       id="icon-merge"
       viewBox="0 0 400 400">
      <title
         id="title83111">Merge</title>
      <path
         d="M201.2 5.8l-100 100.7h81.4v126L45 371l23.3 22.7L216.8 243V106.4h85zm51 269.8l-24 24.2 102.6 94.4 24-24.2z"
         id="path83113" />
    </symbol>
    <symbol
       id="icon-fill"
       viewBox="0 0 400 400">
      <title
         id="title83116">Fill</title>
      <path
         d="M106.3 1.4l-9.8 9.8L171 85.7 20.8 236l160 160 160-160-160-160-74.5-74.6zm74.5 94.2L321 236l-1 .8H41.6l-1-1L180.8 95.7zM341.2 291s-38 41.2-38 66.5c0 21 17 38 38 38s38-17 38-38c0-25.3-38-66.5-38-66.5z"
         id="path83118" />
    </symbol>
    <symbol
       id="icon-epics"
       viewBox="0 0 400 400">
      <title
         id="title83121">Epics</title>
      <path
         d="M200 2.7L0 397.3h400L200 2.7zm0 49.4l99 195.2-71.2-38-80 46.3-40-21.3 92.2-182zm28.3 182.6l81.3 43.5 6.8 3.7 47.3 93.2H36.3l61.3-121 50.8 26.8 80-46.2z"
         id="path83123" />
    </symbol>
    <symbol
       id="icon-broken-link"
       viewBox="0 0 400 400">
      <title
         id="title83126">Broken Link</title>
      <path
         d="M88.2 2.7C56.8 1 25.8 17.4 11 47c-19.8 39.7-3.4 88 36.5 107.6l83.2 41c-9.8 29.4-2 63.2 23 85L263 377.2c33.4 29.3 84.5 26.4 114-6.6 29.6-33 26.6-83.8-6.6-113.2l-51.8-45.6-9.4-8.3-16.6 18.6 9.4 8.4 51.7 45.6c23.3 20.5 25.3 55 4.7 78-20.7 23-55.5 25-78.7 4.6L170.2 262c-16.4-14.4-22-35.8-16.7-55.3l25 12.4c40 19.7 88.5 3.5 108.3-36 9.7-19.5 10.7-41 4.5-60.2l-3.8-11.8-23.8 7.6 3.8 11.8c4.3 13.2 3.6 28-3 41.5-14 27.5-47 38.6-74.8 24.8l-24.6-12c.4-.3.4-.5.6-.7 11.5-12.8 27.4-19 43.3-18.5l12.4.3.7-25-12.4-.2c-23-.6-46.2 8.5-62.7 27-1.8 1.8-3 4-4.5 6l-83.8-41.3c-28-13.7-39-46.5-25.3-74 13.8-27.7 46.8-38.8 74.7-25l73.3 36 11.2 5.5 11-22.3-11-5.5L119 11c-10-5-20.5-7.6-31-8.3zm187 19a12.5 12.4 0 0 0-12 8.7L257.3 47a12.5 12.4 0 1 0 23.7 8l5.8-16.5a12.5 12.4 0 0 0-11.6-16.7zm55.5 31a12.5 12.4 0 0 0-7.7 3L306.8 69a12.5 12.4 0 1 0 16 19.2L339 75a12.5 12.4 0 0 0-8.3-22.2zm22 69.8a12.5 12.4 0 0 0-3.3.6l-14 4.3a12.5 12.4 0 1 0 7.2 23.8l14-4a12.5 12.4 0 0 0-4-24.5z"
         id="path83128" />
    </symbol>
    <symbol
       id="mail">
      <path d="M0 13.5v73h100v-73H0zm6.3 4.3h87L49.6 61.3 6.3 17.8zm89.3 3v59.5L66 50.5l29.6-29.8zm-91.2.5l29 29-29 29v-58zM36 53l13.7 13.6L63.2 53l29 29.2H6.8L36 53z"/>
    </symbol>
  </defs>
</svg>
