<?xml version="1.0" encoding="UTF-8" standalone="no"?>

<svg
    xmlns:dc="http://purl.org/dc/elements/1.1/"
    xmlns:cc="http://creativecommons.org/ns#"
    xmlns:rdf="http://www.w3.org/1999/02/22-rdf-syntax-ns#"
    xmlns:svg="http://www.w3.org/2000/svg"
    xmlns="http://www.w3.org/2000/svg"
    xmlns:xlink="http://www.w3.org/1999/xlink"
    id="svg2"
    viewBox="0 0 744.09448819 1052.3622047"
    version="1.1"
    style="fill:none, stroke:none">

    <title>Taiga</title>
    <desc>Taiga icon set</desc>
    <metadata>
        <rdf:RDF>
            <cc:Work rdf:about="">
                <dc:format>image/svg+xml</dc:format>
                <dc:type rdf:resource="http://purl.org/dc/dcmitype/StillImage"/>
                <dc:title>Taiga</dc:title>
                <dc:date>2016-01-31</dc:date>
                <dc:creator>
                    <cc:Agent>
                        <dc:title>Taiga</dc:title>
                    </cc:Agent>
                </dc:creator>
                <dc:rights>
                    <cc:Agent>
                        <dc:title>Open Source</dc:title>
                    </cc:Agent>
                </dc:rights>
                <dc:language>English</dc:language>

                <dc:source>https://taiga.io</dc:source>
                <dc:description>Taiga icon set</dc:description>
            </cc:Work>
        </rdf:RDF>
    </metadata>
    <defs>
        <symbol id="icon-iocaine">
            <title>iocaine</title>
            <path
                d="M27.93 0c-.22 0-.44 0-.66.04-4.4.1-8.82-.1-13.22.1-2.36.5-3.8 3.34-2.84 5.54.2.8.6 1.84.6 2.53H7.2v4.1h3.2c-.2 1.9-2.2 2.7-3.6 3.5-2.9 1.6-5.87 4-6.48 7.5-.64 3.3-.08 6.6-.28 9.9.06 9-.14 18 .12 27 .4 2.3 2.74 3.9 5 3.7 8.68.1 17.36 0 26.03 0 2.8 0 5.6.1 8.5-.1 2.1-.5 3.6-2.7 3.4-4.9V32.4c-.1-2.9 0-5.87-.2-8.77-.7-3.6-3.6-6.26-6.7-7.9-1.4-.8-3.3-1.65-3.6-3.44h3.2V8.2h-4.6c.4-1.94 1.5-4.15.4-6.08C31 .72 29.4 0 27.9 0zm-.22 3.94c.3 0 .6.04.7.25 0 .7-.4 1.4-.6 2.2-.2.5 0 1.4-.4 1.8H15.9c-.3-1.4-.9-2.9-.94-4.3.32-.1.65 0 .97 0H27.7zm-13.3 8.34h14.5c0 2.64 2 4.86 4.2 6.05 2.3 1.4 5.3 2.72 6 5.58.3.8.1 1.2-.7 1H4c.2-2.4 2.24-4.3 4.35-5.4 2.36-1.3 5.16-2.9 5.8-5.8.16-.4 0-1.1.23-1.3zm-3 16.56c2.4.95 3.7 3.37 5.7 4.9 1.1-.73 2.3-1.23 3.5-1.45 2.3-.5 4.5.3 6.5 1.2 1.9-1.5 2.9-2.9 4.5-4.1 1-1 2.7-.5 2.7.8-1.3 2.3-3.3 3.7-5.1 5.5 1.4 1.9 1.9 4.3 1.4 6.6 0 1.1-1.1 1.9-1.3 3 1.3 1.9 3.1 3.2 4.5 4.8 1.2.7.6 2.7-.8 2.7-2.3-1.3-3.7-3.8-5.9-5.3-.3.8 0 2.1 0 3.1.25 1-.53 2-1.56 2.1-2.07-.1-4.1 0-6.17-.1-1.2.02-1.64-1.3-1.57-2.2 0-.88.5-2.1-.55-2.5-2 .92-3.3 2.73-5.46 4.2-.8 1.05-2.6.2-2.5-1.05 1.6-2.5 4.3-4 6.3-6.13-2.4-2.45-2.4-6.7-.3-9.4-1.2-1.6-2.9-2.82-4.2-4.32-1.2-.6-.7-2.64.6-2.66zm11 6.1h-.3c-2.3-.02-4.6 1.55-5.4 3.76-.9 2.03.1 4.53 2 5.64 1 .3 1.8 1.23 1.9 2.3.3 1.07-.5 2.25.1 3.24 1.1.38 2.3.43 3.4.07.3-1.1-.1-2.42 0-3.63.4-1.77 2.6-2.1 3.4-3.57 1.8-3.36-1.2-7.72-4.8-7.82zm-2.3 3.48c.8 0 1.3.74 1.4 1.4.3 1.06-.3 2.7-1.6 2.44-1.8-.42-1.7-3.72.3-3.84zm4.4 0c.7.04 1.2.67 1.3 1.32.4 1.07-.2 2.74-1.6 2.52-1.8-.37-1.7-3.65.2-3.83h.2zM4 57.58c3.4.17 6.8-.04 10.2.05h25c-.02.73.37 2.06-.67 2.2-2.37.23-4.74-.06-7.12.06-9-.1-18 .1-27-.1-.6-.5-.4-1.7-.3-2.3z"/>
        </symbol>
        <symbol id="icon-lock">
            <title>lock</title>
            <path d="M26.7 0c-9.3 0-17 7.6-17 17v7.4H0V64h64V24.4h-9.8V17c0-9.4-7.6-17-17-17H26.8zm0 4h10.6c7.2 0 13 5.7 13 13v7.4H13.7V17c0-7.3 5.7-13 13-13zM4 28.4h56V60H4V28.4zm26 8.3V51h4V36.7h-4z"/>
        </symbol>
        <symbol id="icon-promote">
            <title>promote</title>
            <path d="M0 0v64h64V0H0zm4 4h26v56H4V4zm30 0h26v15.8H34V4zM17 7L5.4 18.8l2.8 2.8 6.8-6.8v42.6h4V14.7l7 6.8 2.7-2.8L17 7zm17 17h26v17H34V24zm0 21h26v15H34V45z"/>
        </symbol>
        <symbol id="icon-trash">
            <title>trash</title>
            <path d="M17 0v9H0v4h7.5v51h48.8V13H64V9H46.7V0zm4 4h21.7v5H21zm-9.5 9H17v42.7h4V13h9v42.7h4V13h8.7v42.7h4V13h5.6v47H11.5z"/>
        </symbol>
        <symbol id="icon-unlock">
            <title>unlock</title>
            <path d="M26.7 0c-9 0-16.6 7.3-17 16.3h4c.4-7 6-12.3 13-12.3h10.6c7.2 0 13 5.8 13 13v7.4H0V64h64V24.4h-9.8V17c0-9.4-7.6-17-17-17zM4 28.5h56V60H4zm26 8.2V51h4V36.7z"/>
        </symbol>
        <symbol id="icon-client-requirement">
            <title>client-requirement</title>
            <path d="M17 0v8.7H0V47h28.2v-4H4V12.6h3.8V28h38V12.6h3.7V28h4V8.8H37V0H17zm4 4h12v4.7H21V4zm-9 8.7h30V24H12V12.6zM25 16v4.3h4V16h-4zm7 16v32h32V32H32zm4 4h24v4.3l-2.3-2-12 14-7.8-6.6-2 2.2V36zm24 5.8v18H36V49.5l7.3 6 3 2.6 2.6-3 11-13z"/>
        </symbol>
        <symbol id="icon-project">
            <title>project</title>
            <path d="M38 0v6.4H8.2v8H0v33.8h64V0H42zm4 4h18v40.2h-8V14.5H12.2v-4H42z"/>
        </symbol>
        <symbol id="icon-team-requirement">
            <title>team-requirement</title>
            <path
                d="M25.3 0C16.6 0 9.5 7 9.5 15.8c0 8.7 7 15.8 15.8 15.8 8.7 0 15.8-7 15.8-15.8S34 0 25.6 0zm0 4C31.8 4 37 9.3 37 15.8c0 6.5-5.2 11.8-11.7 11.8-6.6 0-11.8-5.3-11.8-11.8C13.5 9.3 18.7 4 25.3 4zM32 32v32h32V32H32zm-6.7 2C11.3 34 0 46.8 0 62v2h28.2v-4h-24c1-12.4 10-22 21-22l3 .3v-4l-3-.2zM36 36h24v4.3l-2.3-2-12 14-7.8-6.6-2 2.2V36zm24 5.8v18H36V49.5l7.3 6 3 2.6 2.6-3 11-13z"/>
        </symbol>
        <symbol id="icon-add">
            <title>add</title>
            <path d="M30 0v30H0v4h30v30h4V34h30v-4H34V0h-4z"/>
        </symbol>
        <symbol id="icon-scrum">
            <title>scrum</title>
            <path d="M12.8 0v6.5H6.4V13H0v50.3h51.2V57h6.4v-6.5H64V0zm3.7 3.7h43.8v43H16.5zM10 10.2h3v40.3h41v2.7H10.2zm-6.3 6.4h2.7V57h41v2.6H3.8z"/>
        </symbol>
        <symbol id="icon-bulk">
            <title>bulk</title>
            <path d="M0 0v4h13.4V0H0zm20.6 0v4H64V0H20.6zM0 21v4h13.4v-4H0zm20.6 0v4H64v-4H20.6zM0 40.8v4h13.4v-4H0zm20.6 0v4H64v-4H20.6zM0 60v4h13.4v-4H0zm20.6 0v4H64v-4H20.6z"/>
        </symbol>
        <symbol id="icon-close">
            <title>close</title>
            <path d="M2.8 0L0 2.8 29.2 32 0 61.2 2.8 64 32 34.8 61.2 64l2.8-2.8L34.8 32 64 2.8 61.2 0 32 29.2 2.8 0z"/>
        </symbol>
        <symbol id="icon-dashboard">
            <title>dashboard</title>
            <path d="M0 0v18.6h18.6V0H0zm22.6 0v18.6H41V0H22.7zM45 0v18.6h19V0H45zM0 22.6V41h18.6V22.7H0zm22.6 0V41H41V22.7H22.7zm22.5 0V41h19V22.7H45zM0 45v19h18.6V45H0zm22.6 0v19H41V45H22.7zM45 45v19h19V45H45z"/>
        </symbol>
        <symbol id="icon-discover">
            <title>discover</title>
            <path
                d="M32 0C14.4 0 0 14.4 0 32s14.4 32 32 32 32-14.4 32-32S49.6 0 32 0zm0 4c3.2 0 6.2.5 9 1.5 1 8.3-2.5 8.5-6 15.3-12.8 25.7 17.3 3.5 19 7 5.2 10-6.7 16.2-1 22.8-2.4 2.6-5.2 4.8-8.4 6.4-5.3-4.7-9-4.7-11.2 3H32c-3.3 0-6.6-.6-9.5-1.7 5.2-4.8.7-20.5-3.2-28.4-2.2-4.6 9-17 6-23-.6-1-1.6-1.5-2.8-1.5 3-1 6.2-1.6 9.5-1.6zM4.7 25.5C8.5 31.8 18 38 7.2 44.3l-.2.3c-2-3.8-3-8-3-12.6 0-2.2.3-4.4.7-6.5z"/>
        </symbol>
        <symbol id="icon-drag">
            <title>drag</title>
            <path d="M363.52 0v296.96h296.96v-296.96zM363.52 360.96v296.96h296.96v-296.96zM363.52 721.92v302.080h296.96v-302.080z"></path>
        </symbol>
        <symbol id="icon-exclamation">
            <title>exclamation</title>
            <path d="M32 0C14.4 0 0 14.4 0 32s14.4 32 32 32 32-14.4 32-32S49.6 0 32 0zm0 4c15.5 0 28 12.5 28 28S47.5 60 32 60 4 47.5 4 32 16.5 4 32 4zm-2 6.2v29.5h4V10.2h-4zm0 34.5v9h4v-9h-4z"/>
        </symbol>
        <symbol id="icon-flag">
            <title>flag</title>
            <path d="M11.6 0H0v64h4V35.2h7.6c11.3 0 18 2.8 27 4.3S64 36.2 64 36.2V1S47.6 5.8 38.6 4.3 21.6 0 11.6 0zm0 4C19 4 26.2 6 33.3 7.6c8.8 2.3 18 1 26.6-1.2V33l-7 1.6c-7 1.4-13 1.4-19-.2-10-3-20-3.6-30-3.4V4.2h7z"/>
        </symbol>
        <symbol id="icon-fold-column">
            <title>fold-column</title>
            <path d="M25.4 22.6L2.8 0 0 2.8l19.7 19.8L0 42.3 2.8 45zM64 2.8L61.2 0 38.6 22.6 61.2 45l2.8-2.7-19.7-19.7z"/>
        </symbol>
        <symbol id="icon-fold-row">
            <title>fold-row</title>
            <path d="M22.6 38.6L0 61.2 2.8 64l19.8-19.7L42.3 64l2.8-2.8zM2.8 0L0 2.8l22.6 22.6L45 2.8 42.4 0 22.6 19.7z"/>
        </symbol>
        <symbol id="icon-graph">
            <title>graph</title>
            <path d="M60 0v64h4V0h-4zM40.8 18.3V64h4V18.3h-4zM21 36v28h4V36h-4zM0 49.5V64h4V49.4H0z"/>
        </symbol>
        <symbol id="icon-issues">
            <title>issues</title>
            <path d="M0 0v61.5l3-2.8 10.3-9.5L25 58.5 39 46l25 17V0H0zm3.7 3.7h56.6v52.5l-21.8-15L25 53.6l-12-9.2L3.8 53V3.8z"/>
        </symbol>
        <symbol id="icon-kanban">
            <title>kanban</title>
            <path d="M0 0v63h64V0zm19.3 3.7v55.7H4V3.7zm21 0v55.7h-17V3.7zm19.8 0v55.7H44V3.7z"/>
        </symbol>
        <symbol id="icon-like-empty">
            <title>like-empty</title>
            <path
                d="M48.5 0C38.5-.2 32.2 14.3 32 14.5 32 14.3 26-.2 15.8 0c-2 0-4 .6-6 1.8C-7 11.6-3.8 39 32 64 67.6 40.6 71 11.6 54.6 1.8 52.3.6 50.3 0 48.6 0zM16 4c2.2 0 4.4 1 6 2.6 5.3 4.8 7.6 12 10.2 18.4 1.6-4.8 3.3-9.7 6.2-14 2.2-3.2 5-6.5 9.2-7 4.8-.2 9 3.5 11 7.6 2.8 6.5 1.5 14-1.4 20.2-5.4 11.4-14.8 20.4-25 27.5-3.3-2.4-6.5-5-9.5-7.6-6.6-6-12.7-13-16.3-21.3-1.6-4-2.7-8-2.6-12.2.3-6 4-12 9.8-14C14.4 4 15 4 16 4z"/>
        </symbol>
        <symbol id="icon-like">
            <title>like</title>
            <path d="M15.7 0c-2 0-4 .6-6 1.8C-7 11.6-3.8 39 32 64 67.6 40.6 71 11.6 54.6 1.8 41-6.2 32.2 14.2 32 14.5 32 14.3 26-.2 15.8 0z"/>
        </symbol>
        <symbol id="icon-question">
            <title>question</title>
            <path
                d="M32 0C14.4 0 0 14.4 0 32s14.4 32 32 32 32-14.4 32-32S49.6 0 32 0zm0 4c15.5 0 28 12.5 28 28S47.5 60 32 60 4 47.5 4 32 16.5 4 32 4zm0 6.4c-4 0-7.8 1-11.4 3l1.7 3.7c1.8 0 3.5-1 5-1 1.3-.4 2.8-.5 4.3-.5 2.3 0 4 .5 5.4 1.6 1.2 1 1.8 2.5 1.8 4.4 0 1.4-.3 3-1 4-.6 1-2.3 2.6-5 5-1.7 1.4-3 3-3.7 4.3 0 1.5-1 3.3-1 5.5v1.6h4v-1c0-1.7 1-3.2 1-4.2s2-2.4 4-4c2.8-2 4-3.6 5-4.5.8-1 1.4-2 1.7-3 .5-1 .7-2.3.7-3.7 0-3.2-1-5.7-3-7.5-2-1.7-5-2.6-8.5-2.6zm-4 34.3v9h4v-9h-4z"/>
        </symbol>
        <symbol id="icon-search">
            <title>search</title>
            <path
                d="M23.6 0C10 .6-.4 12 0 25.6c.6 13.6 12 24 25.6 23.6 5.6-.3 10.7-2.4 14.8-5.8l21 20 2.6-2.7-21-20c4-4.5 6.4-10.5 6.2-17C48.6 10 37.2-.6 23.6 0zm0 3.7c11.7-.5 21.4 8.5 22 20 0 5.6-2 10.8-5.3 14.7L38.6 40c-3.5 3.2-8 5.3-13 5.5-11.7.4-21.4-8.5-22-20-.4-11.6 8.6-21.3 20-21.8z"/>
        </symbol>
        <symbol id="icon-settings">
            <title>settings</title>
            <path
                d="M22.4 0v6l-2 .8-4.2-4.2L2.6 16.2l4.2 4.2-.8 2H0v19.2h6l.8 2-4.2 4.2 13.6 13.6 4.2-4.2 2 .8v6h19.2v-6l2-.8 4.2 4.2 13.6-13.6-4.2-4.2.8-2h6V22.4h-6l-.8-2 4.2-4.2L47.8 2.6l-4.2 4.2-2-.8V0H22.4zM26 3.7h12v4.8l1 .5c1.4.4 2.7 1 4 1.6l1.2.6 3.4-3.4 8.4 8.4-3.4 3.4.6 1.2c.7 1.3 1.2 2.6 1.6 4l.4 1.3h5v12h-5l-.2 1c-.4 1.7-1 3-1.6 4l-.6 1.5 3.4 3.4-8.4 8.3-3.4-3.3-1.2.5c-1.3.7-2.6 1.2-4 1.6l-1.3.5v5H26v-5l-1.2-.3c-1.4-.4-2.7-1-4-1.6l-1.2-.6-3.4 3.4L7.8 48l3.4-3.4-.6-1.2C10 42 9.4 40.6 9 39l-.4-1h-5V26h5l.4-1c.4-1.4 1-2.7 1.6-4l.6-1.2-3.4-3.4L16.2 8l3.4 3.4 1.2-.6c1.3-.7 2.6-1.2 4-1.6l1.3-.4v-5zM32 17c-8.3 0-15 6.7-15 15s6.7 15 15 15 15-6.7 15-15-6.7-15-15-15zm0 3.7c6.3 0 11.3 5 11.3 11.3 0 6.3-5 11.3-11.3 11.3-6.3 0-11.3-5-11.3-11.3 0-6.3 5-11.3 11.3-11.3z"/>
        </symbol>
        <symbol id="icon-team">
            <title>team</title>
            <path
                d="M42.4 31.5c-6 0-11.4 1.6-15.5 5-5 3.2-7 8-7 14.2v12.8h44V50.8c0-6.8-3-11.8-8-15-4-3-9.6-4.3-14.4-4.3zm0 3.7c4 0 8.7 1.2 12 3.7 3.5 2 6 6 6 11v9H24v-9c0-5 2-9 5.2-11.6 3.3-2.6 8-4 13.2-4zm0-35.2c-7.8 0-14 6.3-14 14 0 7.8 6.2 14 14 14s14-6.2 14-14c0-7.7-6.2-14-14-14zm0 3.7c5.8 0 10.4 4.6 10.4 10.4 0 6-4.6 11-10.4 11C36.6 25 32 20 32 14S36.6 4 42.4 4z"/>
            <path
                d="M19.3 33c-5.6 0-10.4 1.5-14 4.6C2 40.6 0 45.3 0 51v12.5h17.2v-3.7H3.7V51c0-4.8 1.5-8.3 4.2-10.6 2-2.4 6-3.7 11-3.7h2l3-3.2-2-.3-3-.2zM19 4.8c-7 0-12.7 5.6-12.7 12.6S12 30 19 30c3 .2 6-1 8.2-2.8l.8-.8 1-1-2.3-3-1 1-1 1c-1.5 1.3-3.6 2-5.8 2-5 0-9-4-9-9s4-9 9-9c1 0 3 .4 4 1.2l1 1L26 7l-1.3-.6c-1.8-1-4-1.6-6-1.6z"/>
        </symbol>
        <symbol id="icon-timeline">
            <title>timeline</title>
            <path d="M0 59.6h64v3.7H0zm0-29.8h64v3.7H0zM0 15h64v3.6H0zM0 0h64v3.7H0zm0 44.7h64v3.7H0z"/>
        </symbol>
        <symbol id="icon-unfold-column">
            <title>unfold-column</title>
            <path d="M0 22.6L22.6 45l2.8-2.7L5.6 22.6 25.4 2.8 22.6 0zm38.6 19.7l2.8 2.8L64 22.8 41.4 0l-2.8 2.8 19.8 19.8z"/>
        </symbol>
        <symbol id="icon-unfold-row">
            <title>unfold-row</title>
            <path d="M22.6 64L45 41.4l-2.7-2.8-19.7 19.8L2.8 38.6 0 41.4zm19.7-38.6l2.8-2.8L22.8 0 0 22.6l2.8 2.8L22.6 5.6z"/>
        </symbol>
        <symbol id="icon-unwatch">
            <title>unwatch</title>
            <path d="M12.6 0L9.8 2.8l3 3C4.8 10.8-.2 18 0 21.3c0 5 13 21 32 21 5.3.2 10-1 14.3-3l3.4 3.4 2.8-2.8-40-40zM32 0c-4.3 0-8.3 1-11.8 2.2l3.6 3.5c2.5-.7 5.2-1 8-1 9.8-.2 19.5 4.7 25.5 12.5 1 1.4 2.4 2.8 2 4.6C57 26 54 29.5 50.3 32l3 3.3c6.7-5 10.6-11 10.6-14C64 16 51.2 0 32 0zm0 8.7h-.3c-1.5 0-3 .3-4.2.8l3.8 3.8h.7c4 0 7.5 3 8 7V22l3.8 3.7c1.2-3.4 1-7.3-.6-10.4-2-4-6.5-6.7-11-6.7zM16 9l5.4 5.5c-.8 1.2-1.4 2.6-1.7 4-1.3 5.5 1.3 11.3 6.3 14 3.8 2.2 9 2 12.8-.5l4 4c-1.4.5-3 1-4.5 1.3-11.5 2.4-24-2.6-31-11.7-1-1.6-2.8-3-2.7-5C7.2 16 11.2 12 16 9zm8.8 9l10.6 10.5-1.4.5c-3.7 1-8-1-9.3-4.6-1-2-.8-4.5 0-6.5z"/>
        </symbol>
        <symbol id="icon-user">
            <title>user</title>
            <path d="M25.3 0C16.6 0 9.5 7 9.5 15.8c0 8.7 7 15.8 15.8 15.8 8.7 0 16-7 16-15.8S34 0 25.3 0zm0 4c6.6 0 12 5.3 12 11.8 0 6.6-5.4 11.8-12 11.8-6.5 0-11.8-5.2-11.8-11.8C13.5 9.3 18.8 4 25.3 4zm0 30.2C11.3 34.2 0 46.7 0 62v2h50.7v-2c0-15.3-11.3-27.8-25.4-27.8zm0 4c11 0 20.3 9.5 21.3 21.8H4c1-12.3 10.3-21.8 21.3-21.8z"/>
        </symbol>
        <symbol id="icon-wiki">
            <title>wiki</title>
            <path d="M5.8 0v44l26 12.5L58 44V0L31.6 13zM0 5.6v42l32 15.6 32-15.7V5.8h-3.5v39.5L32 59.3 3.5 45.5v-40zm54.5 0v36.2l-21 10V16zm-45.2 0L30 16v35.7l-20.7-10z"/>
        </symbol>
        <symbol id="icon-archive">
            <title>archive</title>
            <path d="M32 0L0 8.5v46L32 64l32-9.4v-46L32 0zM3.8 13.6L30 21.3v38.2L4 51.7v-38zm56.4 0v38l-26.3 8V21.2l26-7.6zM6.6 20v7.6l20 6V26l-20-6z"/>
        </symbol>
        <symbol id="icon-arrow-down">
            <title>arrow-down</title>
            <path d="M61.2 0L32 29.2 2.7.2 0 3l31.8 32L64 3l-2.8-3z"/>
        </symbol>
        <symbol id="icon-arrow-left">
            <title>arrow-left</title>
            <path d="M35 61.2L5.6 32l29-29.2L32 0 0 31.8 32 64l3-2.8z"/>
        </symbol>
        <symbol id="icon-arrow-right">
            <title>arrow-right</title>
            <path d="M0 61.2L29.2 32 .2 2.7 3 0l32 31.8L3 64l-3-2.8z"/>
        </symbol>
        <symbol id="icon-arrow-up">
            <title>arrow-up</title>
            <path d="M61.2 35L32 5.6l-29.2 29L0 32 31.8 0 64 32l-2.8 3z"/>
        </symbol>
        <symbol id="icon-attachment">
            <title>attachment</title>
            <path d="M42.3 0L3 39.2l3 3 36.3-36 15.5 15.5-42.2 42-9.4-9.2L41.7 19l3 3-29 29 3 3.2L51 22l-9.3-9.2L0 54.5 15.6 70 64 21.7 42.3 0z"/>
        </symbol>
        <symbol id="icon-briefcase">
            <title>briefcase</title>
            <path d="M20 0v8H0v45.8h64V8H44V0H20zm4 4h16v4H24zM4 12h5v16h46V12h5v37.8H4zm9 0h38v12H13zm17 4v4h4v-4z"/>
        </symbol>
        <symbol id="icon-bubble-empty">
            <title>bubble-empty</title>
            <path d="M0 0v48h11v16h4l10.5-16H64V0zm4 4h56v40H23.7L15 57.8V44H4z"/>
        </symbol>
        <symbol id="icon-bubble">
            <title>bubble</title>
            <path d="M0 0v48h11v16h4l10.5-16H64V0H0z"/>
        </symbol>
        <symbol id="icon-bug">
            <title>bug</title>
             <path d="M24 0c-5.5 0-10 4.4-10 9.7 0 5.3 4.4 9.7 9.7 9.7h4.5c5.3 0 9.7-4.4 9.7-9.7C38 4.4 33.3 0 28 0h-4zm0 4h4.5c3.2 0 5.7 2.5 5.7 5.7s-2.5 5.7-5.7 5.7H24c-3.3 0-5.8-2.5-5.8-5.7S20.7 4 24 4zM6.3 17.8l-2.8 2.8 6.6 6.7c-1 1.8-2 4-2 6.5V39H0v4h8.2v5.5c0 2.3.7 4.4 2 6.2l-6.6 6.5L6.4 64l6.4-6.3c2 1.5 4.4 2.4 7 2.4h12.7c3 0 5.6-1 7.7-2.6L47 64l2.8-2.8-7-7c.8-1.8 1.3-3.7 1.3-5.7V43h8.5v-4H44v-5c0-2.2-.4-4.2-1.5-6l7.3-7.2L47 18l-7 7c-2-1.6-4.7-2.7-7.5-2.7H20c-2.7 0-5 1-7 2.4L6.4 18zM20 26.2h4v30h-4c-4.4 0-7.8-3.5-7.8-7.7V33.8c0-4.3 3.4-7.6 7.7-7.6zm8.2 0h4.3c4.3 0 7.6 3.3 7.6 7.6v14.7c0 4.2-3 7.6-7.3 7.6h-4.3V26.5z"/>
        </symbol>
        <symbol id="icon-capslock">
            <title>capslock</title>
            <path fill-rule="evenodd" d="M31.8 0L.2 31.7 3 34.5 32 5.7l29 29 2.8-3L31.8 0zM0 46.8v4h64v-4H0z"/>
        </symbol>
        <symbol id="icon-check">
            <title>check</title>
            <path d="M0 0v64h64V0zm4 4h56v56H4zm49 10L25.2 44.3l-14.4-13-2.5 3L25.7 50 56 17z"/>
        </symbol>
        <symbol id="icon-clipboard">
            <title>clipboard</title>
            <path d="M12.6 0v8H0v56h45.6V49.4h-4V60H4V19.7h37.6v18h4V8H33V0H12.5zm4 4H29v8h12.6v3.7H4V12h12.6V4zM8 24.6v4h29.4v-4H8zm24.7 7.6l-8.5 8.5-2.8 2.8 2.8 3 8.5 8.3 2.8-2.8-6.5-6.5h35v-4H29l6.5-6.5-2.8-2.8zM8 34v4h14.3v-4H8zm0 9v4h9.5v-4H8zm0 9v4h16.3v-4H8z"/>
        </symbol>
        <symbol id="icon-document">
            <title>document</title>
            <path d="M22.2 0L0 22.2V64h48.8V0H22.2zm2.3 4h20.3v56H4V24.4h20.5V4zm-9.7 28.5v4h25.4v-4H14.8zm11 9.3v4h14.4v-4H26zM11 51v4h29.4v-4H11z"/>
        </symbol>
        <symbol id="icon-documents">
            <title>documents</title>
            <path d="M0 22.2V64h48.8V0H22.2zM24.5 4h20.3v56H4V24.4h20.5z"/>
        </symbol>
        <symbol id="icon-downvote">
            <title>downvote</title>
            <path d="M32 35.2L64 0H0z"/>
        </symbol>
        <symbol id="icon-edit">
            <title>edit</title>
            <path d="M46.3 0L8.6 37.7 0 64l26.4-8.8L64 17.6zm0 5.7l12 12-33 33-12-12zm-35 36.8l10 10-9.6 3.4L8 52z"/>
        </symbol>
        <symbol id="icon-error">
            <title>error</title>
            <path d="M32 0C14.4 0 0 14.4 0 32s14.4 32 32 32 32-14.4 32-32S49.6 0 32 0zm0 4c15.5 0 28 12.5 28 28S47.5 60 32 60 4 47.5 4 32 16.5 4 32 4zM17.2 14.4l-2.8 2.8L29.2 32 14.4 46.8l2.8 2.8L32 34.8l14.8 14.8 2.8-2.8L34.8 32l14.8-14.8-2.8-2.8L32 29.2z"/>
        </symbol>
        <symbol id="icon-filters-empty">
            <title>filters-empty</title>
            <path d="M0 0l26 28.6v14.8l12 11.2v-26L64 0H0zm8.7 3.8h46.6L34.3 27v19L30 42V27.3L8.7 3.8z"/>
        </symbol>
        <symbol id="icon-filters">
            <title>filters</title>
            <path d="M0 0l26 28.6v14.8l12 11.2v-26L64 0H0z"/>
        </symbol>
        <symbol id="icon-github">
            <title>github</title>
            <path d="M0 30q0 8 2.4 13 2.6 5 8 7.4 5.4 2.6 11 3.2 5.3.6 11.2.6L39 54q3.3-.2 7-1 3.6-.6 6.2-1.7 3-1.3 5.5-3.4 2.6-2.7 4-5Q64 38 64 30q0-9-5.2-15 1-3.2 1-6.6 0-4.5-2-8.4-4 0-7 1.4T43.4 6q-5.2-1-10.8-1-6 0-12 1.2-4.2-3.4-7.4-4.8-3-1.4-7-1.4-2 3.8-2 8.4 0 3.4 1 6.5Q0 21 0 30zm8.6 7q0-4.8 2.7-8t7.2-3.2q1.7 0 7.5 1 3 .3 6 .3t6 0q6-1 7.6-1 4.4 0 7 3.4 2.8 3.3 2.8 8 0 3.4-1.2 6-1.3 2.4-3 4-2 1.3-4.8 2.2Q41.6 51 35.2 51h-6.4q-3.2 0-5.8-.4-2.7-.3-5.5-1.2-2.7-1-4.5-2.2-2-1.6-3.2-4-1.2-2.7-1.2-6zm6.2 0q0 1.5.5 3 .5 1.8 1.7 3 1.2 1.3 2.7 1.3 1.6 0 2.8-1.3 2-2.4 2-6 0-1.6-.3-3.2-.5-1.8-1.8-3-1.2-1.3-2.7-1.3-1.6 0-2.8 1.4-2.6 2-2.6 6zm24.6 0q0 1.5.5 3 0 1.8 1.2 3 1.2 1.3 2.7 1.3 1.6 0 3-1.3 2-2.4 2-6 0-1.5-.4-3.2-.5-1.8-1.8-3-1.4-1.3-3-1.3-1.5 0-2.6 1.4-2.2 2-2.2 6z"/>
        </symbol>
        <symbol id="icon-maximize">
            <title>maximize</title>
            <path d="M0 0v20.3h4V6.8l17.4 17.5 2.8-2.8L6.8 4h13.4V0H0zm43.8 0v4h13.4L39.8 21.5l2.8 2.8L60 6.8v13.5h4V0H43.8zM21.4 39.7L4 57.2V43.7H0V64h20.2v-4H6.8l17.4-17.5-2.8-2.8zm21.2 0l-2.8 2.8L57.2 60H43.8v4H64V43.7h-4v13.5L42.6 39.7z"/>
        </symbol>
        <symbol id="icon-minimize">
            <title>minimize</title>
            <path d="M2.8 0L0 2.8l17.4 17.5H4v4h20V4h-4v13.5L2.8 0zm58.4 0L43.8 17.5V4h-4v20.3H60v-4H46.7L64 2.8 61.2 0zM4 39.7v4h13.4L0 61.2 2.8 64l17.4-17.5V60h4V39.8H4zm35.8 0V60h4V46.6L61.2 64l2.8-2.8-17.4-17.5H60v-4H40z"/>
        </symbol>
        <symbol id="icon-move">
            <title>move</title>
            <path d="M49.6 0l-2.8 2.8 9.5 9.6H0v4h56.3L46.8 26l2.8 2.7L64 14.4zM14.4 20.5L0 35l14.4 14 2.8-2.8L7.7 37H64v-4H7.7l9.5-9.7z"/>
        </symbol>
        <symbol id="icon-reload">
            <title>reload</title>
            <path d="M31.8 0C17.2 0 5 10.4 3.8 24h3.8C8.8 13 19 4 31.8 4c11.5 0 20.8 7 23.6 16.4l-9.6-2.8-1 4 15 4.2L64 9.6l-3.6-1-2.2 8.5C54.2 7 44 0 31.8 0zM4 38.2L0 54.4l3.6 1L5.8 47c4 10 14.3 17 26.4 17 14.6 0 26.8-10.4 28-24h-3.8C55.2 51 45 60 32.2 60c-11.5 0-20.8-7-23.6-16.4l9.6 2.8 1-4-15-4.2z"/>
        </symbol>
        <symbol id="icon-save">
            <title>save</title>
            <path d="M0 0v64h64V14.2L49.8 0H4zm14.6 4.3h34.8v21.4H14.6zm24 3.2v13.7h6.8V7.5z"/>
        </symbol>
        <symbol id="icon-upload">
            <title>upload</title>
            <path fill-rule="evenodd" d="M31.8 0l-22 22.2 2.8 3L30 7.5V54h4V8l17.4 17.4 2.8-2.8zM0 60v4h64v-4z"/>
        </symbol>
        <symbol id="icon-upvote">
            <title>upvote</title>
            <path class="path1" d="M512 230.4l512 563.2h-1024z"></path>
        </symbol>
        <symbol id="icon-writer">
            <title>writer</title>
            <path d="M59.8 0c-.2 0-9.4 2-19 5.3-5 1.7-10.3 3.6-14.8 6-4.5 2.2-8.2 4.7-10.3 8-4 6-4.7 14-4.7 20.8 0 5.6.5 10 .7 11.6L0 64h6l9-10c2 .4 5.7.8 9.8.8 6.2 0 13.6-.4 18.5-4.2 2.6-2 5-5.4 7.2-9.6 2.3-4.2 4.6-9.2 6.6-14 4-9.3 7-18 7-18l-3.5-1.4s-2.8 8.5-6.8 17.8l-2.2 5h-11v4.2h9l-2 4.2-.8 1H33.2v4H44c-1 1.6-2 2.8-3 3.4-3.4 2.6-10.2 3.5-16 3.4-2.7 0-4.8-.2-6.4-.3L62.4 3zm-5.3 5.7l-39.3 42c0-1.8-.3-4.4-.3-7.6 0-6 .6-13.5 4-18.2.2-1 1.2-1.8 2.5-2.8v12.4h4v-15c.5-.5 1.2-1 2-1.3l2.6-1v8.6h4V12c2.5-1 5-1.8 7.6-2.7 4.7-1.5 9.3-2.8 12.7-3.6z"/>
        </symbol>
        <symbol id="icon-watch">
            <title>watch</title>
            <path d="M32 0C12.6 0 0 16 0 21.2c0 5 13 21 32 21 19 .3 32-15.7 32-21C64 16 51.4 0 32 0zm-.3 4.5c10 0 19.6 4.8 25.6 12.6 1 1.8 2.4 3 2 5-4 8-12.3 13.7-21 15.5-11.5 2.4-24-2.6-31-11.7-1-1.5-2.8-3-2.7-4.8 5.2-10 16-16 27-16.3zm.4 4c-5.6 0-11 4.5-12 10-1.2 5.3 1.5 11 6.3 13.7 4.6 2.7 11 1.8 14.8-2 4-3.8 5-10 2.5-15-2-4-6.5-6.6-11-6.6z"/>
        </symbol>
        <symbol id="icon-check-empty">
            <title>check-empty</title>
            <path d="M61 0L21.3 42.3 2.6 24.6l-2.6 3L21.8 48 64 2.6z"/>
        </symbol>
        <symbol id="icon-task">
            <title>task</title>
            <path d="M16.7 0v4.6h-4.4V0h-4v4.6H0V64h45.6V4.6h-8.2V0h-4v4.6H29V0h-4v4.6h-4.3V0h-4zM4 8.6h4.3V12h4V8.6h4.4V12h4V8.6H25V12h4V8.6h4.4V12h4V8.6h4.2v7.2H4V8.6zm0 11.2h37.6V60H4V19.8zm4 4.8v4h5v-4H8zm9 0v4h20.3v-4H17zM8 34v4h5v-4H8zm9 0v4h20.3v-4H17zm-9 9v4h5v-4H8zm9 0v4h20.3v-4H17zm-9 9v4h5v-4H8zm9 0v4h20.3v-4H17z"/>
        </symbol>
        <symbol id="icon-api">
            <title>api</title>
            <path d="M30.4 0C28 0 25.7.3 24 1c-1 .3-1.7.7-2.4 1.2-.7.6-1.4 1.6-1.4 2.7l-6 3c-1.5 0-3 0-4.2 1-1 0-1.7 0-2.4 1s-1.3 2-1.4 3L0 16l.2 31 30 17 30-17V17l-6-3.7c0-1.2-.8-2-1.5-2.7-.7-.6-1.5-1-2.4-1.3-1.2-.4-2.7-.7-4.3-1l-5.4-3V5c0-1.3-.7-2.3-1.4-3-.7-.4-1.5-1-2.4-1-1.7-.8-4-1-6.4-1zm0 4c2 0 4 .4 5 .8h.4c0 .2-.2.2-.3.3-1.2 1-3 1-5 1H25h5.3zm-8 4c.4.4 1 .7 1.5 1 1 .5 4 .8 6 .8s4-.3 6-1c0 0 1-.4 1-.7l1 1-2 1c-1 1-2 1-2.7 2s-.8 1-.8 2 .6 2 1.3 3l2.5 1.5c2 .3 4 1 6 1s4.5-.7 6.2-1c1-.6 1.5-1 2.2-1l4 2-26 14.4L4 19l4-2 2 .7c1.7.7 4 1 6.4 1 2.5 0 4.7-.3 6.5-1l2-1.2c0-.6 1-1.6 1-2.7 0-1.2-1-2-1-2.7-1 0-2-1-2-1h-2 1zm-6 4.4c2 0 4 .3 5 .7l.4 1h-.3c-1.2 1-3 1-5 1-2.2 0-4 0-5.2-1H11h5.3zm27.5 0c2 0 3 .3 5 .7v1c-2 1-3 1-5 1-3 0-4 0-6-1h5zM30 17c-2.5 0-4.7.4-6.5 1-1 .3-1.7.7-2.4 1.3 0 .6-1 1.5-1 2.7 0 1 1 2 2 2.6l3 1.4c1.7 0 4 1 6.4 1 2.6 0 5-1 6.6-1 1-1 1.5-1 2.2-2 .4-1 1-2 1-3s-.7-2-1.4-3c-1-1-1.6-1-2.5-2-1.6-.6-4-1-6.3-1zm0 4c2 0 4 .4 5 .8.2 0 .3 0 .4.2H35c-1 .5-3 .8-5 .8s-4-.3-5-.7 0 0 .2 0h5zM4 22.6l24.4 14v22.7L4 45.3v-23zm52.5.2V45L32 59.3V36.7l24.5-14z"/>
        </symbol>
        <symbol id="icon-customize">
            <title>customize</title>
            <path d="M46.2 0L8.5 37.6 0 64l26.3-9 3.6-3.5-5-1-12-12L46 5.7l12 12-7.6 7.5.6 5 13-12.6L46.2 0zM45 26c-1.8 0-2 0-2.2.2-.5.2-.5.4-.7 2.7v2c-1 0-2 0-3 1h-1l-1-1-2-1-2 1c-1 1-1 1-1 2l2 2 1 1v1c0 1-1 2-1 3v1h-2c-2.2 0-2.3 0-3 1v4l3 1h2.6l1.4 3 .3 1-2 1c-2 2-2 2-1.5 2l3.5 3c.5 0 .7 0 2.4-1.3l2-1.4 1 .6c1 .5 2 1 3 1.2.6 0 1 0 1 .2v3c0 2 0 2.2.5 2.4h4c.6 0 .6-.4 1-2.7v-2c0-1 0-1 1-1l2.5-1 1-1 1 1.6 1.6 2c0 .3.8.3 1 0 .7-.3 3-2.6 3-3 0-.4 0-.6-1.4-2.3l-2-1v-1c.4-1 1-2 1-3s.2-1 .3-1h2c2.3-1 2.5-1 2.8-1v-5c-1-.3-1-.4-3-.6h-2l-1-.7-1-3-1-1s.7-1 1.5-1.7c1.6-2 1.8-2 1.6-3 0-.4-2.6-3-3-3-.7-.4-1-.3-2.6 1.2l-1 1.5-1-.5c-1-.5-2.3-1-3-1h-1v-2c0-2.6 0-3-.4-3h-2zm.2 10.7c1.8 0 3.5.7 5 2 2.6 2 3.6 5.3 2.8 8.5-.2 1-1 2.3-1.5 3-1.4 1.7-3.3 2.8-5.4 3 0 .2-1 .2-1 0h-1c-1-.2-2-.6-3-1.2-2-2-4-5-3-8 0-2 2-4 3-6 1-1.4 4-2 6-2zm-34 5.8l10 10-9.6 3.3L8 52.2l3.2-9.7z"/>
        </symbol>
        <symbol id="icon-feel-love">
            <title>feel-love</title>
            <path d="M48 0c-9.8.2-15.8 14.3-16 14.5C32 14.3 26-.2 15.8 0c-2 0-4 .6-6 1.8C-7 11.6-3.8 39 32 64 67.6 40.6 71 11.6 54.6 1.8 52.3.6 50.3 0 48.6 0H48zM22.8 25l2.8 2.8-6.3 6.5 6.3 6.6-2.8 2.6-9-9.4 9-9.3zm18.4 0l9 9.3-9 9.4-2.8-2.8 6.3-6.8-6.3-6.5 2.8-2.8zm-7.6.3l3.7 1.6L30 44l-3.6-1.4 7.2-17.3z"/>
        </symbol>
        <symbol id="icon-highly-designed">
            <title>highly-designed</title>
            <path d="M37.7 0L7 30.7 0 52.2 21.5 45 52 14.4 37.8 0zm0 4.6l9.7 9.8-27 27-9.5-10L37 4.6zM9 34.6l8.4 8.3-8 2-2.8-3L9 34zM47.7 47c-3 0-6.2.3-9.7 1.2-6 1.7-9.6 4.8-12.7 7.2-3 2.4-5.5 4-10.6 4.2-5 0-7.3-1.7-8.8-3.6l-2-2.7-4 1.2s0 1.2 2 4c2 2.6 6 5.3 12 5 6.2 0 10-2.5 13.2-5 3-2.6 6-5 11-6.4C49 50 56 53 58.6 56c.5.8.6 1 .4 1.8 0 .6-.7 1.2-1.7 1.8-2.4 1.3-6.7 1.8-12.7 0-4-1.4-6-2.7-6.8-3.3l-.6-.3-3.2 2 1 1c1.5 1 4 2.5 8.4 4 6.8 2.2 12.3 2 16 0 1.8-1 3-2.5 3.7-4 1-1.8.8-3.8-1-5.3-2-4-7-6.7-14-6.7z"/>
        </symbol>
        <symbol id="icon-integration">
            <title>integration</title>
            <path d="M46.2 63.7H38c-2.3 0-4.4 0-6-.2h-2c-.7 0-1 0-1.5-.3-.7 0-1.2 0-2-1-.4-.3-.7-1-.7-1.3v-1c0-1 .2-2 .5-2l1-2 1-2-.2-1v-1c0-1-1-1-3-1h-3s-1 0-1 1v1s1 1 1 2c1 0 2 2 2 3v2s0 1-1 1H2c-.7 0-.7-.5-1-.5v-1l-.6-1c0-1.3 0-3-.2-4.8v-9c0-.7 0-1.3.2-2V42c.2 0 .2-.4.7-1l2-1c1 0 1 0 2 .4s2 1 3 1.7c2 1.6 2 1.6 3 1 2 0 3-1.2 3-3 1-1.6 0-3.6 0-5 0-1-1-1.5-2-2H8.6l-1 1.4c-1.3 1.4-2 2.6-4 2.7-1 0-2 0-2.6-1-.6 0-.7-1-.8-2v-3c0-2 0-4 1-6 0-2 0-4 1-5v-3l1-1h18c1 0 1-.2 1-1 0 0-.2-1-1.2-2-1-.4-1-1-2-2-1-.3-1-1-1-2 .3-2 .8-4 2.5-5l1.7-.4c.5 0 1-.4 2-.5 3-3 6.3-2 8 1 .6 1 .8 2 .6 3.3 0 1.2-.8 2-1.6 3.2-1 1.5-1.4 3-1.5 3 0 0 0 .2.4.4l2 1c-1-.3 0 0 0 0h14l2 .7v16.8c0 1.6 0 1.5 1 1.7h1s1 0 2-1 2-1 3-1 2.4 1 3.4 1c2 1 3 4 3 7 .6 3 0 6-1.5 8-.6 1-2 2-3 2h-2.7c-1 0-1.7-.4-2.8-1-1.4-1-2-1.4-2.5-1.4h-1c-1 .7-1 .7-1 2-.6 2-.7 4.8-.7 9.7v6c0 .4 0 .6-1 1 0 .7-1 .7-1 .7h-1zm0-4zm-1 0V56c.2-4.8.2-7.8.6-10 .3-2 1.2-3.6 2.4-4.5 1-.8 2.4-1.3 3.8-1 1.3.2 2.4 1 4 1.8 1.5 1.3 2.3 1.5 3 .6.6-1 1.2-3 1-5-.3-3-.8-3-1.2-4-.6-1-.7-1-1-1l-1.6 1C55 36 54 36 53 37s-2.3.5-3.2 0c-1.8-.2-3.2-2-3.8-4-.3-2-.4-5-.4-9.4v-5h-.8c-1.3 0-3 0-4.8-.2h-6.7c-.4-.2-.6 0-1-.2-1.6-.3-3-.7-4-1.4-1-.8-2-2-2.2-3.3 0-2.2 1-4 3-6 1-.8 1-1.3 1-1.6V5c0-1-2-2-5-1.6L23 4c-.5 0-1 .4-.7.3-1 .6-1 1.2-.4 2v1.3c1 1.5 2 3 2 5 0 1.6-2 3.2-3 4-1 .6-3 1-4 1-2 .3-5 .3-9 .3H4v6c0 2 0 4-.2 5v2H4l2-1c1-1 1-1 2-1 2-1 3.5-1 5 0 1.6 0 3 2 4 3 1.7 2 2 6 1 8s-2.6 5-5.5 6c-2.3 0-4.6 0-6.7-2H4v10c0 2 0 3 .2 4.2v.3H18c-1-1-1.7-2-2-3-.5-1-.4-2 0-4 .4-1 1.6-3 3-3 1.6-1 3.4-1 5.5-1 1.7 0 3.2.4 4.5 1 1.3.7 2.3 2 2.8 3 .4 1 .5 2 .3 3 0 1 0 2-1 3v1h7l8 .4zm-42-.2zm1-15.8h.2zm.4-26.5z"/>
        </symbol>
        <symbol id="icon-lend-hand">
            <title>lend-hand</title>
            <path d="M16.2 0c-3.4 0-7 1-10 4-5 4.4-7 9.5-6 14.5 1.3 5 5 9.5 10 14.3l-2 2C6.2 36.8 6 40 8 42c.8.8 1.8 1.2 2.8 1.3 0 1 .5 2 1.3 2.8 1 1 2 2 3 2 0 1 1 2 2 3s2 1 3 1c0 1 1 2 2 3 2 2 6 2 7 0l5-5 6 6s4 3 7 1c2-1 2-2 3-3 2 0 3 0 4-1 2-1 2-2 2-3v-1c1 0 3 0 3-2 3-3 1-5 1-6s-2-3-2-3c1-2 4-5 7-9 1-3 2-6.3 2-10-1-4-2-7.5-6-11-2-2.5-6-4-9-4h-3c-4 1-8 3-11 6l-2 2c-2-2-5-5-9-7-3-2-6-3-9-3zm0 4.2c2.3 0 4.7.8 7 2 3.3 1.8 6 4.3 7 5.4-3.4 3.7-5.6 7-5.6 7l-.4.6v.7s.3 2 1.7 4c0 0 1 1 3 2 1 0 3 0 5-1l4-2 16 16s1 1 0 2-2 0-3 0l-4-4-1-1-6-6-3 3 7 6 3 3 1 2s1 1 0 2-2 0-3-1L35 35l-3 3 12 12s.7 1.3-.4 2c-1 .8-2 0-2.4-.3L35 45.3c.3-1.5 0-3.2-1.2-4.3-.4-.5-1-.8-1.4-1 .5-1.7.2-3.5-1-4.8l-1.3-1c1-1.7 1-3.7-1-5-1-1.5-3-1.7-5-1 0-.5 0-1-1-1.3-2-3-5-2-7 0l-2 2c-5-5-8-9-8-13-1-3 0-6 4-10 3-2 5-3 7-3zm33 .6c2.2 0 4.2.8 6.4 2.8 3 2.7 4 5.4 4.2 8 .2 2.7-.6 5.4-1.8 8-1.8 3.7-4.5 6.7-5.7 8L41 20.6v-.2l.3-.5h1c1.8 1 4.3 1 7 0 4-2 7.3-5 7.5-9h-4.2c0 1-2 4-4.7 5-1 0-3 0-5-1l-2-1-3-2v4l-1 1c-1 1-2 2-5 3h-3c-1 0-1-1-1-1l-1-1c1-2 4-7 9-11 3-3 6-5 9-5 0-1 1-1 2-1zm-29.5 25h.4c1 .2 1 .8 0 1.3l-7 8c0 1-1 1-1 1l1-1 8-7h1zm6 2.2h.4c1 .3 1 .8 0 1.4l-9 9.4c0 .6-1 .5-1 .3l1-1 10-9h1zm2.3 6h.3c.2.3.3 1-.3 1.4L20.5 47c-.6.6-1 .5-1.3.3-.2-.2-.2-.7.3-1.3l7.6-7.6 1-.4zm2.5 5.8h.3c.2.3.3 1-.3 1.4l-6 6c-.4.5-1 .4-1 .2-.3 0-.4-.7.2-1.2l5.8-6c.4-.3.7-.4 1-.4z"/>
        </symbol>
        <symbol id="icon-powerful">
            <title>powerful</title>
            <path d="M10.4 4C10.4 4.8 0 40.3 0 40.3l16-3.6L7.6 64l26.8-41.6-18.2 3L28.6 0z"/>
        </symbol>
        <symbol id="icon-smiley">
            <title>smiley</title>
            <path d="M32 0C14.4 0 0 14.4 0 32s14.4 32 32 32 32-14.4 32-32S49.6 0 32 0zm0 4c15.5 0 28 12.5 28 28S47.5 60 32 60 4 47.5 4 32 16.5 4 32 4zM19.2 18.7a5 5 0 0 0-5 5.2 5 5 0 0 0 5 5 5 5 0 0 0 5-5 5 5 0 0 0-5-6zm25.6 0a5 5 0 0 0-5 5.2 5 5 0 0 0 5 5 5 5 0 0 0 5-5 5 5 0 0 0-5-6zM11.8 36c.5 11.7 9 20 20.3 20 12-.2 21-10 21-20H12zm4.2 4h4.5v7.8c-2.4-2-4-5-4.5-8zm8.5 0H30v12c-2 0-3.8-.7-5.5-1.5V40zm9.6 0h6v10.6c-2 .7-4 1.4-6 1.4V40zm10 0h5c-.3 3-2 5.8-4.3 8v-8z"/>
        </symbol>
        <symbol id="icon-social-management">
            <title>social-management</title>
            <path d="M8.8 0C4 0 0 4 0 8.8c0 5 4 9 8.8 9 1 0 1.7-.2 2.4-.4l2.2 3.6c-4.8 3.5-8 9.2-8 15.6C5.4 47.2 14.4 56 25 56c5.6 0 10.6-2.4 14-6.2l3.4 2.5c-.3 1-.5 2-.5 3 0 4.7 4 8.7 9 8.7 4.5 0 8.5-4 8.5-8.8 0-5-4-9-8.8-9-2.5 0-4.7 1-6.3 2.7l-3-2.6c2-3 3-6.4 3-10 0-3.2-.8-6-2.2-8.7l7.5-5.5c1.5 1.2 3.4 2 5.5 2 4.8 0 8.8-4 8.8-9 0-4.8-4-8.8-8.7-8.8-5 0-9 4-9 8.8 0 1.4.4 2.7 1 4l-7 5C36.7 20 31.3 17 25 17c-2.7 0-5.4.6-8 1.7L15 15c2-1.5 3-4 3-6.5 0-4.8-4-8.8-9-8.8zm0 4c2.7 0 5 2 5 4.8 0 2.7-2.3 5-5 5S4 11.4 4 8.8 6 4 8.8 4zM55 10.7c2.7 0 4.8 2 4.8 4.8 0 2.7-2 5-4.8 5-2.7 0-5-2.3-5-5s2.3-4.8 5-4.8zM24.8 21.2c8.6 0 15.4 6.8 15.4 15.4C40.2 45 33.4 52 24.8 52c-8.5 0-15.3-7-15.3-15.4 0-8.6 6.8-15.4 15.3-15.4zm0 4c-4.2 0-7.4 4.7-5.8 8.5.5 1.2 1.4 2.2 2.4 3-3.6 1.5-5.8 5.6-5.8 9.5 0 .8 0 1.6.7 1.6H34c.7-4.4-1.5-9.3-5.7-11.2 3-2 3.8-6.4 1.4-9-1.2-1.5-3-2.4-5-2.4zm0 3.8h.3c2.4 0 3 3.3 1.5 4.4-1.5 1-4 0-3.8-2 0-1.2 1-2.4 2.3-2.4zm.2 10.7c2.4 0 4.4 2 5 4.3H19.8c.6-2.3 2.5-4.3 5-4.3h.2zm25.6 10.6c2.7 0 4.8 2.2 4.8 5 0 2.6-2 4.7-4.8 4.7-2.7 0-5-2-5-4.8 0-2.7 2.3-5 5-5z"/>
        </symbol>
        <symbol id="icon-speak-up">
            <title>speak-up</title>
            <path d="M0 0v48h11v16h4l10.5-16H64V0H0zm4 4h56v40H23.7L15 57.8V44H4V4zm37 2.5c-5.5-.2-9 7.7-9 7.8 0 0-3.4-8-8.8-7.8-1 0-2 .3-3.3 1-9 5.2-7.6 20 12 33.5C51 28.4 53 12.7 44 7.5c-1-.7-2-1-3-1z"/>
        </symbol>
        <symbol id="icon-gallery">
            <title>gallery</title>
            <path d="M0 0v30.2h30.2V0zm33.8 0v30.2H64V0zM4 4h22.2v22.2H4zm33.8 0H60v22.2H37.8zM0 33.8V64h30.2V33.8zm33.8 0V64H64V33.8zM4 37.8h22.2V60H4zm33.8 0H60V60H37.8z"/>
        </symbol>
        <symbol id="icon-list">
            <title>list</title>
            <path transform="matrix(31.97294 0 0 31.97294 5313.926 639.882)" d="M-162.75-2.5h3.75v-3.75h-3.75zm0 7.5h3.75V1.25h-3.75zm0-15h3.75v-3.75h-3.75zm7.5 7.5h16.875v-3.75h-16.875zm0 7.5h16.875V1.25h-16.875zm0-18.75V-10h16.875v-3.75z"/>
        </symbol>
        <symbol id="icon-more">
            <title>See more</title>
            <path d="M15.4 7.7a7.7 7.7 0 0 1-7.7 7.7A7.7 7.7 0 0 1 0 7.7 7.7 7.7 0 0 1 7.7 0a7.7 7.7 0 0 1 7.7 7.7zm24.3 0a7.7 7.7 0 0 1-7.7 7.7 7.7 7.7 0 0 1-7.7-7.7A7.7 7.7 0 0 1 32 0a7.7 7.7 0 0 1 7.7 7.7zm24.3 0a7.7 7.7 0 0 1-7.7 7.7 7.7 7.7 0 0 1-7.7-7.7A7.7 7.7 0 0 1 56.3 0 7.7 7.7 0 0 1 64 7.7z"/>
        </symbol>
    </defs>
</svg>
