<?xml version="1.0" encoding="UTF-8" standalone="no"?>
<svg xmlns:rdf="http://www.w3.org/1999/02/22-rdf-syntax-ns#" xmlns="http://www.w3.org/2000/svg" version="1.0" xmlns:cc="http://creativecommons.org/ns#" xmlns:dc="http://purl.org/dc/elements/1.1/" viewBox="0 0 576.44501 577.45154">
<defs>
<style type="text/css">.fil0 {fill:#EF7900}</style>
</defs>
<path d="m64.571 0.06355556c-41.335 0-64.571 21.371-64.571 65.036v450.123c0 40.844 20.894 62.229 62.192 62.229h452.024c41.307 0 62.229-20.316 62.229-62.229v-450.123c0-42.601-20.922-65.036-63.522-65.036-0.003 0-448.494-0.143-448.352 0z"/>
<path d="m112.74717 58.990868v10 181.00586a10.001 10.001 0 0 0 10 10h112.76367c-0.98236 7.2778-2.83962 18.34623-5.63867 31.30274-4.37436 20.24848-10.92924 46.00019-19.55664 73.59765-17.2548 55.19492-43.06526 117.87301-75.29492 158.66406a9.9056297 9.9056297 0 1 0 15.54297 12.28126c7.05614-8.93053 13.73518-18.66885 20.05664-28.97266a7.7636571 7.7636571 0 0 0 1.875 -1.07813l111.95703-84.68554 110.75586 83.77539c6.67776 11.04317 13.76218 21.45687 21.27148 30.96094a9.9056297 9.9056297 0 1 0 15.54297 -12.28126c-32.22966-40.79106-58.04011-103.46914-75.29492-158.66406-8.6274-27.59746-15.18228-53.34917-19.55664-73.59765-2.79904-12.95651-4.6563-24.02494-5.63867-31.30274h117.89844a10.001 10.001 0 0 0 10 -10v-181.00586-10h-20v10 171.00586h-306.6836v-171.00586-10h-20zm85.81445 6.074219c-0.46183-0.0066-0.9258-0.003-1.39062 0.01172-15.2705 0.59353-32.00672 12.41607-46.9375 13.125-0.27162 0.0043-0.54179 0.0031-0.8125 0v31.281253c0.2708 0.003 0.54078 0.0356 0.8125 0.0312 14.93078-0.58844 31.667-12.710923 46.9375-13.125003 14.87439-0.5897 28.16777 10.389113 43.15625 10.625003 15.21408 0.12049 30.64913-9.919853 46.9375-9.625003 16.06146 0.2346 32.41131 11.181403 48.8125 11.125003 16.11786-0.35509 31.39021-12.007063 48.1875-12.125003 12.40782-0.04153 25.74175 6.125003 38.5 9.500003v-31.375003c-12.75825-3.35024-26.09219-9.4375-38.5-9.4375-16.79728 0.11921-32.06965 11.7699-48.1875 12.125-16.40118 0.05769-32.75105-10.85788-48.8125-11.09375-16.28836-0.41278-31.72341 9.683-46.9375 9.5625-14.51886-0.284386-27.44859-10.402282-41.76563-10.605469zm0.0156 58.386723c-0.46183-0.006-0.94143 0.0165-1.40625 0.0312-15.2705 0.58967-32.00672 12.38226-46.9375 13.09375-0.27162 0.004-0.54179 0.003-0.8125 0v31.3125c0.2707 0.003 0.54088 0.004 0.8125 0 14.93078-0.71148 31.667-12.53531 46.9375-13.125 14.87439-0.47303 28.16777 10.2989 43.15625 10.59375 15.21408 0.11793 30.64913-9.97656 46.9375-9.5625 16.06146 0.23717 32.41131 11.154 48.8125 11.09375 16.11786-0.35255 31.39021-12.00962 48.1875-12.125 12.40782 0 25.74175 6.08784 38.5 9.4375v-31.28125c-12.75881-3.34956-26.0916-9.4375-38.5-9.4375-16.79728 0.11921-32.06965 11.74123-48.1875 12.09375-16.40118 0.0602-32.75105-10.85659-48.8125-11.09375-16.28836-0.41408-31.72341 9.68043-46.9375 9.5625-14.51886-0.28564-27.43319-10.39297-41.75-10.59375zm57.03906 136.54492h55.81055c0.58539 5.3047 1.63976 11.82605 3.12695 19.59375l-31.5039 29.16406-30.69922-28.41992c1.56486-8.10406 2.66363-14.86778 3.26562-20.33789zm62.47461 36.75977c3.63108 16.66045 8.63739 36.66044 14.97461 58.29687l-38.97461-36.08008 24-22.21679zm-69.29883 0.72461 23.2168 21.49218-37.67969 34.88086c6.08228-20.87072 10.91296-40.16537 14.46289-56.37304zm34.25782 31.71289 43.69921 40.45117-42.29687 31.99414-43.83984-33.16211 42.4375-39.2832zm-54.01172 49.99609 42.54687 32.18164-82.88086 62.69141c14.66696-29.47222 26.87747-61.33675 36.77735-91.58008l3.55664-3.29297zm109.2832 1.16797 3.66016 3.38867c9.57445 29.10319 21.27934 59.6426 35.2539 88.07617l-79.91601-60.45117 41.00195-31.01367z" fill-rule="evenodd" fill="#fff"/>
</svg>
