<?xml version="1.0" encoding="UTF-8" standalone="no"?>
<svg xmlns:rdf="http://www.w3.org/1999/02/22-rdf-syntax-ns#" xmlns="http://www.w3.org/2000/svg" version="1.0" xmlns:cc="http://creativecommons.org/ns#" xmlns:dc="http://purl.org/dc/elements/1.1/" viewBox="0 0 576.44501 577.45154">
<path d="m64.571 0.06355556c-41.335 0-64.571 21.371-64.571 65.036v450.123c0 40.844 20.895 62.229 62.192 62.229h452.024c41.307 0 62.229-20.315 62.229-62.229v-450.123c0-42.601-20.922-65.036-63.521-65.036-0.004 0-448.495-0.143-448.353 0z"/>
<path style="color-rendering:auto;text-decoration-color:#000000;color:#000000;isolation:auto;mix-blend-mode:normal;shape-rendering:auto;solid-color:#000000;block-progression:tb;text-decoration-line:none;image-rendering:auto;white-space:normal;text-indent:0;text-transform:none;text-decoration-style:solid" fill="#fff" d="m125.41123 319.54165a9.0009 9.0009 0 1 0 0 18h335.99219a9.0009 9.0009 0 1 0 0 -18h-335.99219zm-20 45.4961a10.001 10.001 0 1 0 0 20h375.99415a10.001 10.001 0 1 0 0 -20h-375.99415zm-20.001949 48.49804a12.50125 12.50125 0 1 0 0 25h415.99805a12.50125 12.50125 0 1 0 0 -25h-415.99805zm-20 55a15.0015 15.0015 0 1 0 0 30h456a15.0015 15.0015 0 1 0 0 -30h-456z"/>
</svg>
