<?xml version="1.0" encoding="UTF-8" standalone="no"?>
<svg xmlns:rdf="http://www.w3.org/1999/02/22-rdf-syntax-ns#" xmlns="http://www.w3.org/2000/svg" version="1.0" xmlns:cc="http://creativecommons.org/ns#" xmlns:dc="http://purl.org/dc/elements/1.1/" viewBox="0 0 576.44501 577.45154">
<path d="m64.571 0.06355556c-41.335 0-64.571 21.371-64.571 65.036v450.123c0 40.844 20.895 62.229 62.192 62.229h452.024c41.307 0 62.229-20.315 62.229-62.229v-450.123c0-42.601-20.922-65.036-63.521-65.036-0.004 0-448.495-0.143-448.353 0z"/>
<path style="color-rendering:auto;text-decoration-color:#000000;color:#000000;isolation:auto;mix-blend-mode:normal;shape-rendering:auto;solid-color:#000000;block-progression:tb;text-decoration-line:none;image-rendering:auto;white-space:normal;text-indent:0;text-transform:none;text-decoration-style:solid" fill="#fff" d="m371.46983 124.41665a25.0025 25.0025 0 0 0 -24.38477 30.04883l66.00196 344.84961a25.0025 25.0025 0 1 0 49.10742 -9.39844l-41.06641-214.57617h74.8125v226.875a17.50175 17.50175 0 1 0 35 0v-287.55078a17.50175 17.50175 0 0 0 -17.76367 -17.74609 17.50175 17.50175 0 0 0 -17.23633 17.74609v25.67578h-81.51172l-18.23437-95.27539a25.0025 25.0025 0 0 0 -24.72461 -20.64844zm-161.21289 0.008a25.0025 25.0025 0 0 0 -23.97071 20.64062l-18.23437 95.27539h-81.511719v-25.67578a17.50175 17.50175 0 0 0 -17.763672 -17.74627 17.50175 17.50175 0 0 0 -17.236328 17.74609v287.55078a17.50175 17.50175 0 1 0 35 0v-226.875h74.812499l-41.06641 214.57617a25.0025 25.0025 0 1 0 49.10743 9.39844l66-344.84961a25.0025 25.0025 0 0 0 -25.13672 -30.04101z"/>
</svg>
