<?xml version="1.0" encoding="UTF-8" standalone="no"?>
<svg xmlns:rdf="http://www.w3.org/1999/02/22-rdf-syntax-ns#" xmlns="http://www.w3.org/2000/svg" version="1.0" xmlns:cc="http://creativecommons.org/ns#" xmlns:dc="http://purl.org/dc/elements/1.1/" viewBox="0 0 576.44501 577.45154">
<path d="m64.571 0.06355556c-41.335 0-64.571 21.371-64.571 65.036v450.123c0 40.844 20.894 62.229 62.192 62.229h452.024c41.307 0 62.229-20.316 62.229-62.229v-450.123c0-42.601-20.922-65.036-63.522-65.036-0.003 0-448.494-0.143-448.352 0z"/>
<path style="color-rendering:auto;text-decoration-color:#000000;color:#000000;isolation:auto;mix-blend-mode:normal;shape-rendering:auto;solid-color:#000000;block-progression:tb;text-decoration-line:none;text-decoration-style:solid;image-rendering:auto;white-space:normal;text-indent:0;text-transform:none" d="m282.8878 118.79165a20.02155 20.02155 0 0 0 -20.01953 20.01953v300.29297a20.02155 20.02155 0 1 0 40.03906 0v-280.27343h164.16015v280.27343a20.02155 20.02155 0 1 0 40.03907 0v-300.29297a20.02155 20.02155 0 0 0 -20.01953 -20.01953h-204.19922zm-109.96289 70.71094a21.426571 21.426571 0 0 0 -18.98438 31.58008l23.10742 44.4375h-125.29492a21.426571 21.426571 0 0 0 -21.492187 24.29687 21.426571 21.426571 0 0 0 21.492187 24.21875h125.29492l-23.10742 44.4375a21.426571 21.426571 0 1 0 38.01563 19.76954l39.38867-75.74805a21.426571 21.426571 0 0 0 2.20703 -12.76563 21.426571 21.426571 0 0 0 -2.20703 -12.66797l-39.38867-75.74609a21.426571 21.426571 0 0 0 -19.03125 -11.8125z" fill="#fff"/>
<path opacity=".1" d="m297.17274 148.3952h172.7027v286.89438h-172.7027z" fill="#fff"/>
</svg>
