<?xml version="1.0" encoding="UTF-8" standalone="no"?>
<svg xmlns:rdf="http://www.w3.org/1999/02/22-rdf-syntax-ns#" xmlns="http://www.w3.org/2000/svg" version="1.0" xmlns:cc="http://creativecommons.org/ns#" xmlns:dc="http://purl.org/dc/elements/1.1/" viewBox="0 0 580 580">
<path d="m66.275 1.768c-41.335 0-64.571 21.371-64.571 65.036v450.123c0 40.844 20.894 62.229 62.192 62.229h452.024c41.307 0 62.229-20.316 62.229-62.229v-450.123c0-42.601-20.922-65.036-63.522-65.036-0.003 0-448.494-0.143-448.352 0z"/>
<path style="color-rendering:auto;text-decoration-color:#000000;color:#000000;isolation:auto;mix-blend-mode:normal;shape-rendering:auto;solid-color:#000000;block-progression:tb;text-decoration-line:none;text-decoration-style:solid;image-rendering:auto;white-space:normal;text-indent:0;text-transform:none" d="m452.91406 116.91992a27.345246 27.345246 0 0 0 -19.0664 7.63086l-79.84375 74.60938h-285.3125a27.345246 27.345246 0 1 0 0 54.68554h226.78906l-84.42188 78.88672h-142.36718a27.345246 27.345246 0 1 0 0 54.6836h83.847654l-38.82812 36.2832a27.345246 27.345246 0 1 0 37.33594 39.95703l81.58984-76.24023h287.81445a27.345246 27.345246 0 1 0 0 -54.6836h-229.29492l84.42187-78.88672h144.87305a27.345246 27.345246 0 1 0 0 -54.68554h-86.35156l37.08398-34.65235a27.345246 27.345246 0 0 0 -18.26953 -47.58789z" fill="#fff"/>
</svg>
