<?xml version="1.0" encoding="UTF-8" standalone="no"?>
<svg xmlns:rdf="http://www.w3.org/1999/02/22-rdf-syntax-ns#" xmlns="http://www.w3.org/2000/svg" version="1.0" xmlns:cc="http://creativecommons.org/ns#" xmlns:dc="http://purl.org/dc/elements/1.1/" viewBox="0 0 576.44501 577.45154">
<path d="m64.571 0.06355556c-41.335 0-64.571 21.371-64.571 65.036v450.123c0 40.844 20.894 62.229 62.192 62.229h452.024c41.307 0 62.229-20.316 62.229-62.229v-450.123c0-42.601-20.922-65.036-63.522-65.036-0.003 0-448.494-0.143-448.352 0z"/>
<path style="color-rendering:auto;text-decoration-color:#000000;color:#000000;isolation:auto;mix-blend-mode:normal;shape-rendering:auto;solid-color:#000000;block-progression:tb;text-decoration-line:none;text-decoration-style:solid;image-rendering:auto;white-space:normal;text-indent:0;text-transform:none" d="m490.98545 65.332665a27.345246 27.345246 0 0 0 -7.32226 0.72461l-369.52735 82.378905a27.345246 27.345246 0 1 0 11.89844 53.375l369.52734-82.3789a27.345246 27.345246 0 0 0 -4.57617 -54.099615zm-198.66601 164.80274a16.963055 16.963055 0 0 0 -16.70703 17.20118v9.87695c-21.70558 2.61206-38.38939 9.36026-49.77539 20.49609-12.53503 12.25999-18.89847 27.14313-18.89844 44.26563-0.00003 17.22807 6.45117 31.57847 19.16406 42.55664 11.46026 9.89676 28.03331 17.06757 49.50977 21.75195v85.60547c-9.14694-1.98583-16.65596-6.03435-22.57422-12.29883-7.50775-7.94677-12.59029-19.38045-15.11719-34.46094a1.8372221 1.8372221 0 0 0 -2.08398 -1.51171l-33.02149 4.9707a1.8372221 1.8372221 0 0 0 -1.55664 1.9707c1.74304 20.76948 9.48787 37.19024 23.20313 48.85742 12.35149 10.50716 29.46797 17.14583 51.15039 20.1211v14.02734a16.963055 16.963055 0 1 0 33.92382 0v-14.42383c20.62807-2.55235 39.70149-9.52463 51.86133-21.27929 14.11984-13.64967 21.29082-30.00794 21.29102-48.69922-0.0002-18.24567-6.5577-33.2693-19.52539-44.57031-11.69209-10.18889-31.57939-17.24349-53.62696-21.61329v-76.46679c6.90663 2.09835 13.3942 5.00444 17.00782 8.57422 5.93213 5.86082 9.87046 13.83483 11.77539 24.11718a1.8372221 1.8372221 0 0 0 2.02929 1.48828l34.30469-4.19531a1.8372221 1.8372221 0 0 0 1.58594 -2.14844c-3.12134-17.33762-10.89126-31.02158-23.23828-40.73046-10.30482-8.10245-26.38279-13.23023-43.46485-15.78907v-10.49218a16.963055 16.963055 0 0 0 -17.21679 -17.20118zm-16.70703 54.89844v70.00195c-8.8845-3.00186-16.1413-6.79179-21.62696-11.39843-6.93824-5.82609-10.35162-13.59207-10.35156-23.83789-0.00006-8.8544 3.29254-16.51252 10.10156-23.32227 5.32279-5.32315 12.62666-9.1223 21.87696-11.44336zm33.92382 109.81055c4.14246 1.26371 8.09819 2.57971 11.63868 3.96875 6.78753 2.66294 12.19893 5.59943 14.98437 8.41601 5.94475 6.01167 8.91586 13.86214 8.91602 23.95313-0.00016 11.48214-3.91743 20.75385-11.89453 28.2539-5.49187 5.16332-14.43449 9.01022-23.64454 11.4043v-75.99609z" fill="#fff"/>
<path opacity=".75" style="color:#000000;text-indent:0;block-progression:tb;text-decoration-line:none;text-transform:none" d="m77.1085 57.959618c-4.63871 0.00017-9.25119 1.907441-12.53125 5.1875-3.28007 3.28007-5.18733 7.89254-5.1875 12.53125v306.53125c0.00017 4.63871 1.90743 9.25118 5.1875 12.53125 3.28006 3.28006 7.89254 5.18733 12.53125 5.1875h44.84375c4.63871-0.00017 9.25118-1.90744 12.53125-5.1875 3.28006-3.28007 5.18733-7.89254 5.1875-12.53125v-154.46875c-22.41541 6.88237-49.3011 0.78606-63.78125-18.25-21.96066-26.26887-10.75534-72.68933 21.625-84.9375 14.04957-3.25379 28.10405-6.47794 42.15625-9.71875v-39.156252c-0.00017-4.63871-1.90744-9.25118-5.1875-12.53125-3.28007-3.280059-7.89254-5.187329-12.53125-5.1875h-44.84375zm376.5 143c-3.72291-0.002-7.42414 1.52961-10.05664 4.16211s-4.16376 6.33373-4.16211 10.05664v170.53125c-0.002 3.72291 1.52961 7.42219 4.16211 10.05469s6.33373 4.16571 10.05664 4.16406h51.84375c3.72291 0.002 7.42414-1.53156 10.05664-4.16406s4.16376-6.33178 4.16211-10.05469v-170.53125c0.002-3.72291-1.52961-7.42414-4.16211-10.05664s-6.33373-4.16376-10.05664-4.16211h-51.84375z" fill="#fff"/>
</svg>
